<?xml version="1.0" encoding="UTF-8" standalone="no"?>
<!-- Created with Inkscape (http://www.inkscape.org/) -->

<svg
   viewBox="0 0 12.7 12.7"
   version="1.1"
   id="svg5"
   inkscape:version="1.1.1 (3bf5ae0d25, 2021-09-20)"
   sodipodi:docname="hatteras_icon.svg"
   xmlns:inkscape="http://www.inkscape.org/namespaces/inkscape"
   xmlns:sodipodi="http://sodipodi.sourceforge.net/DTD/sodipodi-0.dtd"
   xmlns="http://www.w3.org/2000/svg"
   xmlns:svg="http://www.w3.org/2000/svg">
  <sodipodi:namedview
     id="namedview7"
     pagecolor="#ffffff"
     bordercolor="#666666"
     borderopacity="1.0"
     inkscape:pageshadow="2"
     inkscape:pageopacity="0.0"
     inkscape:pagecheckerboard="0"
     inkscape:document-units="mm"
     showgrid="false"
     inkscape:zoom="4.5102858"
     inkscape:cx="45.22995"
     inkscape:cy="86.801596"
     inkscape:window-width="2560"
     inkscape:window-height="1383"
     inkscape:window-x="1920"
     inkscape:window-y="282"
     inkscape:window-maximized="1"
     inkscape:current-layer="layer1"
     units="px" />
  <defs
     id="defs2" />
  <g
     inkscape:label="Layer 1"
     inkscape:groupmode="layer"
     id="layer1">
    <path
       style="fill:#004076;fill-opacity:1;stroke-width:0.189164"
       d="m 1.0384821,0.02504485 1.4423763,0.00142 1.4423751,7.15e-4 1.4423762,0.00142 1.7723064,-0.0155049 -0.8028411,0.2387006 -0.47291,0.222121 C 4.5794998,0.93482675 4.1995135,2.2451455 4.0714328,3.4375691 5.1540265,2.5908029 6.3059333,2.2653572 7.5646427,1.8150384 8.9187427,1.3607443 10.373029,0.82019155 11.38573,4.9999998e-8 l 0.26691,0.015514 C 11.62426,0.88984935 11.63167,1.6471252 11.63167,2.4916251 L 11.264683,2.7120586 10.897696,2.9437312 10.53071,3.1753966 10.163723,3.4070694 9.608535,3.6372263 9.053347,3.8673903 8.4981591,4.0975545 7.9429711,4.3277186 7.280897,4.5421751 6.6188229,4.7566389 5.9567487,4.9710955 5.2946746,5.1855593 4.9573101,5.3547811 4.6199445,5.5240028 C 3.5217215,5.9662141 3.28425,7.1720789 3.0922727,8.1752629 L 2.9728538,8.7475149 C 6.2228656,6.6480555 8.969728,6.43638 11.661534,4.7328311 c 0,1.1653769 -0.0092,1.3096038 -0.0092,2.3868268 l -0.265224,0.21623 -0.265257,0.21623 -0.265258,0.216229 -0.265257,0.216237 L 9.9292631,8.2961529 9.267188,8.6077289 8.6051137,8.9193039 7.9430385,9.2308789 6.9157917,9.6015109 5.888546,9.9721399 4.861298,10.342772 3.8340513,10.713402 C 2.6944685,11.173058 2.3626121,11.747164 2.3626121,12.7 H 1.0393949 C 1.0960772,9.1974639 1.0384659,4.0289335 1.0384659,0.02542365 Z M 5.3892486,12.61999 V 12.58045 12.54091 C 7.6016861,11.960112 9.683147,10.827122 11.447762,9.7574859 l 0.183896,-0.07351 V 12.698995 H 5.3892444 v -0.03954 z"
       id="path2890-6"
       sodipodi:nodetypes="ccccccccccccccccccccccccccccccccccccccccccccccccccccccc" />
  </g>
</svg>
