<?xml version="1.0" standalone="no"?>
<!DOCTYPE svg PUBLIC "-//W3C//DTD SVG 20010904//EN"
 "http://www.w3.org/TR/2001/REC-SVG-20010904/DTD/svg10.dtd">
<svg version="1.0" xmlns="http://www.w3.org/2000/svg"
 width="16.000000pt" height="16.000000pt" viewBox="0 0 16.000000 16.000000"
 preserveAspectRatio="xMidYMid meet">
<metadata>
Created by potrace 1.11, written by Peter Selinger 2001-2013
</metadata>
<g transform="translate(0.000000,16.000000) scale(0.002286,-0.002286)"
fill="#000000" stroke="none">
<path d="M3811 6866 l-133 -133 339 -336 338 -336 135 134 134 134 -311 308
c-171 169 -324 320 -340 335 l-29 28 -133 -134z"/>
<path d="M2812 6641 l-333 -335 133 -133 133 -133 332 332 c183 183 333 337
333 342 0 9 -257 268 -263 265 -1 -1 -152 -153 -335 -338z"/>
<path d="M5010 5680 c-71 -72 -130 -135 -130 -138 0 -4 150 -157 333 -340
l332 -332 134 135 134 134 -336 337 -336 336 -131 -132z"/>
<path d="M4000 5455 l-335 -335 134 -130 c74 -72 136 -130 139 -130 2 0 154
150 337 333 l334 334 -132 131 c-73 73 -134 132 -137 132 -3 0 -156 -151 -340
-335z"/>
<path d="M2599 5645 c-68 -69 -126 -131 -128 -137 -4 -11 648 -668 663 -668 9
0 255 250 256 260 0 3 -150 155 -334 339 l-333 333 -124 -127z"/>
<path d="M1587 5413 c-180 -181 -329 -330 -331 -333 -3 -4 55 -66 128 -139
l133 -132 337 337 336 337 -129 128 c-71 71 -133 129 -138 129 -5 0 -156 -147
-336 -327z"/>
<path d="M6192 4487 l-132 -132 338 -337 337 -337 132 134 131 135 -334 335
c-184 184 -336 335 -337 335 -1 0 -62 -60 -135 -133z"/>
<path d="M5184 4265 l-332 -333 136 -132 136 -131 335 335 336 336 -130 130
c-71 71 -134 129 -140 129 -5 0 -159 -151 -341 -334z"/>
<path d="M3784 4456 c-67 -68 -124 -128 -128 -134 -4 -6 139 -156 328 -346
l334 -334 133 135 133 134 -335 335 c-183 184 -336 334 -339 334 -3 0 -60 -56
-126 -124z"/>
<path d="M2766 4219 l-330 -330 129 -129 c72 -72 134 -130 138 -130 11 0 667
655 667 666 0 12 -251 254 -264 254 -6 0 -159 -149 -340 -331z"/>
<path d="M1361 4408 l-132 -131 336 -336 335 -335 134 133 134 134 -333 334
c-183 183 -335 333 -337 333 -3 0 -65 -59 -137 -132z"/>
<path d="M358 4182 l-337 -337 133 -131 133 -132 337 337 337 337 -131 130
c-72 71 -132 130 -134 131 -1 1 -153 -149 -338 -335z"/>
<path d="M6373 3081 l-332 -336 130 -131 131 -131 339 335 340 336 -133 133
c-73 73 -135 132 -138 132 -3 -1 -155 -153 -337 -338z"/>
<path d="M4958 3259 c-123 -123 -139 -143 -119 -151 6 -1 156 -148 335 -325
179 -178 329 -323 333 -323 5 0 66 59 137 131 l129 131 -334 334 c-184 184
-338 333 -344 333 -5 -1 -67 -59 -137 -130z"/>
<path d="M3959 3036 l-336 -334 133 -133 134 -134 337 337 338 338 -130 130
c-72 71 -132 130 -135 130 -3 0 -156 -151 -341 -334z"/>
<path d="M2546 3219 l-128 -130 336 -337 337 -337 129 132 c72 72 130 134 130
137 0 9 -660 666 -668 666 -5 0 -66 -59 -136 -131z"/>
<path d="M1540 2995 l-334 -334 132 -131 c72 -71 134 -130 136 -130 8 0 666
660 666 668 0 8 -252 262 -260 262 -3 0 -156 -151 -340 -335z"/>
<path d="M128 3181 l-128 -127 337 -337 337 -337 133 133 133 132 -332 332
c-183 183 -337 333 -343 333 -5 -1 -67 -58 -137 -129z"/>
<path d="M5147 1852 l-337 -337 127 -133 c71 -72 133 -132 138 -132 8 0 675
665 675 673 0 1 -60 62 -133 135 l-132 132 -338 -338z"/>
<path d="M3739 2034 l-133 -134 336 -336 337 -336 113 115 c62 63 121 124 131
135 18 20 12 26 -316 355 l-334 335 -134 -134z"/>
<path d="M2728 1809 c-181 -181 -328 -332 -328 -336 0 -3 59 -65 131 -136
l131 -129 336 337 336 336 -129 129 c-72 72 -134 130 -140 129 -5 0 -157 -149
-337 -330z"/>
<path d="M1322 1997 l-133 -133 333 -332 c183 -183 335 -334 338 -337 4 -2 65
55 138 128 l132 132 -338 338 -337 337 -133 -133z"/>
<path d="M3912 617 l-333 -333 135 -132 134 -132 333 336 c184 184 333 339
332 343 -3 13 -243 246 -256 249 -7 1 -162 -147 -345 -331z"/>
<path d="M2512 807 l-132 -132 329 -330 c181 -181 334 -331 340 -333 6 -2 69
55 140 126 l129 129 -336 336 -337 337 -133 -133z"/>
</g>
</svg>
