<svg xmlns="http://www.w3.org/2000/svg" display="block"><g fill-rule="evenodd"><path d="M92.904 35.81c-33.184.149-36.612.227-39.593.909-6.753 1.544-10.998 4.644-13.192 9.635-1.277 2.906-1.44 4.409-1.444 13.322l-.003 6.779h24.045l.082-2.232c.193-5.244 1.69-6.528 8.017-6.878 5.943-.328 58.848-.117 60.061.239 5.301 1.559 7.247 5.003 7.247 12.828.001 5.365-.415 6.804-2.589 8.979-2.155 2.154-3.876 2.77-13.916 4.979a8286.58 8286.58 0 0 1-24.673 5.405 1590.6 1590.6 0 0 0-9.937 2.19 830.089 830.089 0 0 1-7.748 1.703c-5.649 1.193-21.862 4.82-23.41 5.238-10.098 2.722-14.951 7.914-16.886 18.069-.365 1.917-.37 2.16-.37 18.11l-.001 16.17.38 1.515c2.03 8.116 6.621 12.868 14.344 14.85 2.462.632 7.237.695 60.908.803l48.016.097.11-1.543c.142-1.996.141-16.234-.001-18.378l-.109-1.645-45.575.045c-48.3.048-46.812.07-48.937-.725-3.801-1.423-4.048-2.241-4.048-13.462v-8.336l.466-.884c.858-1.627 1.479-1.865 10.044-3.85 3.39-.784 9.044-2.103 12.564-2.93 3.52-.827 17.882-4.198 31.916-7.49 14.034-3.292 26.312-6.175 27.284-6.407 8.092-1.928 13.901-8.17 15.924-17.11.796-3.514 1.05-29.22.324-32.735-1.845-8.933-8.436-15.27-17.72-17.031-1.956-.371-10.738-.41-51.58-.228m197.768-.056l-.547.068-.021 1.295c-.011.712-.079 23.273-.151 50.137-.142 52.847-.087 50.24-1.108 52.116-1.967 3.613-3.631 4.232-11.489 4.277-6.382.036-8.017-.416-10.292-2.85-2.311-2.47-2.173-1.905-7.17-29.207a6682.184 6682.184 0 0 0-5.391-29.136c-.409-2.177-1.204-6.46-1.767-9.516-3.283-17.821-3.771-19.724-6.335-24.66-3.696-7.113-9.842-11.51-16.978-12.14-2.453-.218-28.083-.216-30.541.002-8.791.778-16.273 8.186-17.587 17.412-.154 1.083-.391 70.513-.391 114.57 0 .014 4.755.082 10.568.15l10.568.124-.002-6.971c-.002-3.834-.075-24.744-.164-46.466-.088-21.722-.102-41.693-.03-44.38l.131-4.883.568-1.065c1.644-3.083 4.128-3.98 11.034-3.981 5.794-.001 7.506.425 9.731 2.424 2.359 2.119 2.418 2.319 5.335 18.2.741 4.03 1.727 9.373 2.192 11.874 2.703 14.536 2.944 15.878 7.922 44.21 2.136 12.158 2.634 14.205 4.223 17.373 4.069 8.115 9.309 11.695 19.355 13.225 3.29.5 27.545.439 29.863-.076 9.606-2.133 15.912-7.897 18.266-16.696l.432-1.615.122-18.526c.068-10.19.131-35.776.141-56.858l.018-38.333-1.895-.11c-1.994-.114-17.67-.104-18.61.012" fill="#fff"/><path d="M47.514.09c-16.936.1-15.508.005-20.22 1.363C12.772 5.635 1.562 19.375.232 34.623c-.306 3.517-.311 131.94-.005 135.663 1.352 16.415 15.315 31.69 31.167 34.096 3.539.537 276.216.734 284.681.205 17.395-1.086 32.605-16.88 33.881-35.183.296-4.24.294-129.18-.001-133.797C348.808 17.7 334.014 1.763 317.123.237 314.852.032 78.849-.096 47.514.09m96.97 35.948c9.284 1.762 15.875 8.098 17.72 17.03.726 3.516.472 29.222-.324 32.736-2.023 8.94-7.832 15.182-15.924 17.11-.972.232-13.25 3.115-27.284 6.407a143363.12 143363.12 0 0 0-31.916 7.49c-3.52.827-9.174 2.146-12.564 2.93-8.565 1.985-9.186 2.223-10.044 3.85l-.466.884v8.336c0 11.22.247 12.039 4.048 13.462 2.125.795.637.773 48.937.725l45.575-.045.109 1.645c.142 2.144.143 16.382.001 18.378l-.11 1.543-48.016-.097c-53.671-.108-58.446-.171-60.908-.803-7.723-1.982-12.314-6.734-14.344-14.85l-.38-1.515.001-16.17c0-15.95.005-16.193.37-18.11 1.935-10.155 6.788-15.347 16.886-18.07 1.548-.416 17.761-4.044 23.41-5.237a830.089 830.089 0 0 0 7.748-1.702 1590.6 1590.6 0 0 1 9.937-2.191 8286.58 8286.58 0 0 0 24.673-5.405c10.04-2.21 11.761-2.825 13.916-4.98 2.174-2.174 2.59-3.613 2.589-8.978 0-7.825-1.946-11.27-7.247-12.828-1.213-.356-54.118-.567-60.061-.24-6.327.35-7.824 1.635-8.017 6.879l-.082 2.232H38.672l.003-6.78c.004-8.912.167-10.415 1.444-13.321 2.754-6.264 8.906-9.71 18.258-10.223 8.381-.461 83.738-.542 86.107-.092m164.798-.295l1.895.109-.018 38.333c-.01 21.082-.073 46.669-.141 56.858l-.122 18.526-.432 1.615c-2.354 8.799-8.66 14.563-18.266 16.696-2.318.515-26.573.576-29.863.076-10.046-1.53-15.286-5.11-19.355-13.225-1.589-3.168-2.087-5.215-4.223-17.372-4.978-28.333-5.219-29.675-7.922-44.211-.465-2.501-1.451-7.844-2.192-11.873-2.917-15.882-2.976-16.082-5.335-18.201-2.225-2-3.937-2.425-9.731-2.424-6.906.002-9.39.898-11.034 3.98l-.568 1.066-.131 4.884c-.072 2.686-.058 22.657.03 44.379.089 21.722.162 42.632.164 46.466l.002 6.97-10.568-.123c-5.813-.068-10.568-.136-10.568-.15 0-44.057.237-113.487.391-114.57 1.314-9.226 8.796-16.634 17.587-17.412 2.458-.218 28.088-.22 30.541-.002 7.136.63 13.282 5.027 16.978 12.14 2.564 4.936 3.052 6.839 6.335 24.66.563 3.057 1.358 7.339 1.767 9.516a6682.184 6682.184 0 0 1 5.391 29.136c4.997 27.302 4.859 26.738 7.17 29.208 2.275 2.433 3.91 2.885 10.292 2.849 7.858-.045 9.522-.664 11.489-4.277 1.021-1.876.966.73 1.108-52.116.072-26.864.14-49.425.151-50.137l.021-1.295.547-.068c.94-.116 16.616-.126 18.61-.011" fill="#005596"/></g></svg>
