<svg id="svg" version="1.1" width="400" height="399.6631578947368" xmlns="http://www.w3.org/2000/svg" xmlns:xlink="http://www.w3.org/1999/xlink" style="display: block;"><g id="svgg"><path id="path0" d="M119.411 138.788 C 86.227 138.936,82.799 139.014,79.818 139.696 C 73.065 141.240,68.820 144.340,66.626 149.331 C 65.349 152.237,65.186 153.740,65.182 162.653 L 65.179 169.432 77.202 169.432 L 89.224 169.432 89.306 167.200 C 89.499 161.956,90.996 160.672,97.323 160.322 C 103.266 159.994,156.171 160.205,157.384 160.561 C 162.685 162.120,164.631 165.564,164.631 173.389 C 164.632 178.754,164.216 180.193,162.042 182.368 C 159.887 184.522,158.166 185.138,148.126 187.347 C 135.920 190.034,128.442 191.671,123.453 192.752 C 120.720 193.344,116.248 194.329,113.516 194.943 C 110.783 195.556,107.297 196.322,105.768 196.645 C 100.119 197.838,83.906 201.466,82.358 201.883 C 72.260 204.605,67.407 209.797,65.472 219.952 C 65.107 221.869,65.102 222.112,65.102 238.063 L 65.101 254.232 65.481 255.747 C 67.511 263.863,72.102 268.615,79.825 270.597 C 82.287 271.229,87.062 271.292,140.733 271.400 L 188.749 271.497 188.859 269.954 C 189.001 267.958,189.000 253.720,188.858 251.576 L 188.749 249.931 143.174 249.976 C 94.874 250.024,96.362 250.046,94.237 249.251 C 90.436 247.828,90.189 247.010,90.189 235.789 L 90.189 227.453 90.655 226.569 C 91.513 224.942,92.134 224.704,100.699 222.720 C 104.089 221.935,109.743 220.616,113.263 219.789 C 116.783 218.962,131.145 215.591,145.179 212.299 C 159.213 209.007,171.491 206.124,172.463 205.892 C 180.555 203.964,186.364 197.722,188.387 188.782 C 189.183 185.268,189.437 159.562,188.711 156.047 C 186.866 147.114,180.275 140.778,170.991 139.016 C 169.035 138.645,160.253 138.606,119.411 138.788 M317.179 138.732 L 316.632 138.800 316.611 140.095 C 316.600 140.807,316.532 163.368,316.460 190.232 C 316.318 243.079,316.373 240.472,315.352 242.348 C 313.385 245.961,311.721 246.580,303.863 246.625 C 297.481 246.661,295.846 246.209,293.571 243.776 C 291.260 241.306,291.398 241.870,286.401 214.568 C 284.367 203.457,282.503 193.380,281.010 185.432 C 280.601 183.255,279.806 178.973,279.243 175.916 C 275.960 158.095,275.472 156.192,272.908 151.256 C 269.212 144.143,263.066 139.747,255.930 139.116 C 253.477 138.898,227.847 138.900,225.389 139.118 C 216.598 139.896,209.116 147.304,207.802 156.530 C 207.648 157.613,207.411 227.043,207.411 271.100 C 207.411 271.114,212.166 271.182,217.979 271.250 L 228.547 271.374 228.545 264.403 C 228.543 260.569,228.470 239.659,228.381 217.937 C 228.293 196.215,228.279 176.244,228.351 173.558 L 228.482 168.674 229.050 167.609 C 230.694 164.526,233.178 163.630,240.084 163.628 C 245.878 163.627,247.590 164.053,249.815 166.052 C 252.174 168.171,252.233 168.371,255.150 184.253 C 255.891 188.282,256.877 193.625,257.342 196.126 C 260.045 210.662,260.286 212.004,265.264 240.337 C 267.400 252.494,267.898 254.541,269.487 257.709 C 273.556 265.824,278.796 269.404,288.842 270.934 C 292.132 271.434,316.387 271.373,318.705 270.858 C 328.311 268.725,334.617 262.961,336.971 254.162 L 337.403 252.547 337.525 234.021 C 337.593 223.832,337.656 198.245,337.666 177.163 L 337.684 138.830 335.789 138.721 C 333.795 138.606,318.119 138.616,317.179 138.732 " stroke="none" fill="#ffffff" fill-rule="evenodd"></path><path id="path1" d="M74.021 103.068 C 57.085 103.168,58.513 103.072,53.801 104.430 C 39.279 108.612,28.069 122.352,26.739 137.600 C 26.433 141.117,26.428 269.541,26.734 273.263 C 28.086 289.678,42.049 304.953,57.901 307.359 C 61.440 307.896,334.117 308.093,342.582 307.564 C 359.977 306.478,375.187 290.684,376.463 272.381 C 376.759 268.141,376.757 143.201,376.462 138.584 C 375.315 120.678,360.521 104.740,343.630 103.214 C 341.359 103.009,105.356 102.881,74.021 103.068 M170.991 139.016 C 180.275 140.778,186.866 147.114,188.711 156.047 C 189.437 159.562,189.183 185.268,188.387 188.782 C 186.364 197.722,180.555 203.964,172.463 205.892 C 171.491 206.124,159.213 209.007,145.179 212.299 C 131.145 215.591,116.783 218.962,113.263 219.789 C 109.743 220.616,104.089 221.935,100.699 222.720 C 92.134 224.704,91.513 224.942,90.655 226.569 L 90.189 227.453 90.189 235.789 C 90.189 247.010,90.436 247.828,94.237 249.251 C 96.362 250.046,94.874 250.024,143.174 249.976 L 188.749 249.931 188.858 251.576 C 189.000 253.720,189.001 267.958,188.859 269.954 L 188.749 271.497 140.733 271.400 C 87.062 271.292,82.287 271.229,79.825 270.597 C 72.102 268.615,67.511 263.863,65.481 255.747 L 65.101 254.232 65.102 238.063 C 65.102 222.112,65.107 221.869,65.472 219.952 C 67.407 209.797,72.260 204.605,82.358 201.883 C 83.906 201.466,100.119 197.838,105.768 196.645 C 107.297 196.322,110.783 195.556,113.516 194.943 C 116.248 194.329,120.720 193.344,123.453 192.752 C 128.442 191.671,135.920 190.034,148.126 187.347 C 158.166 185.138,159.887 184.522,162.042 182.368 C 164.216 180.193,164.632 178.754,164.631 173.389 C 164.631 165.564,162.685 162.120,157.384 160.561 C 156.171 160.205,103.266 159.994,97.323 160.322 C 90.996 160.672,89.499 161.956,89.306 167.200 L 89.224 169.432 77.202 169.432 L 65.179 169.432 65.182 162.653 C 65.186 153.740,65.349 152.237,66.626 149.331 C 69.380 143.067,75.532 139.622,84.884 139.108 C 93.265 138.647,168.622 138.566,170.991 139.016 M335.789 138.721 L 337.684 138.830 337.666 177.163 C 337.656 198.245,337.593 223.832,337.525 234.021 L 337.403 252.547 336.971 254.162 C 334.617 262.961,328.311 268.725,318.705 270.858 C 316.387 271.373,292.132 271.434,288.842 270.934 C 278.796 269.404,273.556 265.824,269.487 257.709 C 267.898 254.541,267.400 252.494,265.264 240.337 C 260.286 212.004,260.045 210.662,257.342 196.126 C 256.877 193.625,255.891 188.282,255.150 184.253 C 252.233 168.371,252.174 168.171,249.815 166.052 C 247.590 164.053,245.878 163.627,240.084 163.628 C 233.178 163.630,230.694 164.526,229.050 167.609 L 228.482 168.674 228.351 173.558 C 228.279 176.244,228.293 196.215,228.381 217.937 C 228.470 239.659,228.543 260.569,228.545 264.403 L 228.547 271.374 217.979 271.250 C 212.166 271.182,207.411 271.114,207.411 271.100 C 207.411 227.043,207.648 157.613,207.802 156.530 C 209.116 147.304,216.598 139.896,225.389 139.118 C 227.847 138.900,253.477 138.898,255.930 139.116 C 263.066 139.747,269.212 144.143,272.908 151.256 C 275.472 156.192,275.960 158.095,279.243 175.916 C 279.806 178.973,280.601 183.255,281.010 185.432 C 282.503 193.380,284.367 203.457,286.401 214.568 C 291.398 241.870,291.260 241.306,293.571 243.776 C 295.846 246.209,297.481 246.661,303.863 246.625 C 311.721 246.580,313.385 245.961,315.352 242.348 C 316.373 240.472,316.318 243.079,316.460 190.232 C 316.532 163.368,316.600 140.807,316.611 140.095 L 316.632 138.800 317.179 138.732 C 318.119 138.616,333.795 138.606,335.789 138.721 " stroke="none" fill="#005596" fill-rule="evenodd"></path></g></svg>