<?xml version="1.0" encoding="UTF-8" standalone="no"?>
<!DOCTYPE svg PUBLIC "-//W3C//DTD SVG 20010904//EN"
 "http://www.w3.org/TR/2001/REC-SVG-20010904/DTD/svg10.dtd">
<svg version="1.0" xmlns="http://www.w3.org/2000/svg" viewBox="0 0 2080.000000 1217.000000" preserveAspectRatio="xMidYMid meet">
  <g
     transform="translate(0.000000,1217.000000) scale(0.100000,-0.100000)"
     fill="#000000"
     stroke="none"
     id="g6"
     style="fill:#005596;fill-opacity:1">
    <path
       d="M2825 12160 c-898 -5 -900 -5 -1000 -28 -404 -94 -679 -224 -970 -459 -131 -105 -196 -171 -318 -323 -126 -156 -198 -265 -276 -419 -141 -277 -219 -538 -243 -821 -19 -209 -19 -7834 -1 -8055 22 -257 101 -532 229 -787 251 -502 665 -892 1172 -1104 135 -56 337 -116 450 -133 175 -27 1860 -32 9221 -28 5290 3 7558 8 7682 15 195 13 357 47 545 118 717 266 1277 936 1439 1720 39 189 40 295 40 4219 -1 4063 -1 4052 -50 4282 -94 436 -330 864 -651 1179 -341 337 -834 577 -1261 616 -95 8 -2039 12 -7618 12 -4119 1 -7895 -1 -8390 -4z m5758 -2134 c201 -38 359 -102 532 -213 138 -90 320 -296 400 -454 43 -85 100 -248 120 -344 21 -102 31 -1021 17 -1495 -10 -302 -13 -346 -36 -449 -71 -311 -185 -526 -368 -696 -155 -143 -396 -276 -578 -320 -58 -14 -787 -185 -1620 -380 -833 -196 -1686 -396 -1895 -445 -209 -49 -545 -127 -746 -174 -509 -118 -545 -132 -596 -229 l-28 -52 0 -495 c0 -443 2 -502 18 -560 34 -125 97 -192 222 -239 126 -47 38 -46 2906 -43 l2706 2 6 -97 c9 -128 9 -973 0 -1092 l-6 -91 -2851 6 c-1568 3 -3002 9 -3186 14 -374 10 -431 19 -613 94 -357 148 -564 403 -669 821 l-23 90 0 960 c0 947 1 962 22 1075 75 391 227 663 465 833 127 91 346 188 538 240 92 25 1055 240 1390 311 91 19 298 65 460 101 162 37 428 95 590 130 296 65 740 162 1465 321 596 131 698 168 826 296 72 72 116 149 140 248 22 89 19 492 -4 595 -55 238 -190 386 -412 452 -56 16 -173 17 -1720 21 -1057 2 -1728 -1 -1846 -7 -240 -13 -298 -30 -381 -111 -73 -72 -89 -120 -95 -297 l-5 -133 -714 0 -714 0 0 403 c0 529 10 618 86 790 91 209 248 365 468 467 189 89 353 126 616 140 204 12 3471 30 4465 25 473 -2 574 -5 648 -19z m9785 17 l112 -6 -1 -2276 c-1 -1252 -4 -2771 -8 -3376 l-8 -1100 -25 -96 c-140 -522 -515 -865 -1085 -991 -96 -22 -113 -22 -878 -22 -848 0 -867 1 -1113 59 -208 50 -397 133 -533 235 -102 76 -241 228 -299 326 -182 308 -205 387 -350 1214 -296 1682 -310 1762 -470 2625 -28 149 -86 466 -130 705 -154 838 -163 875 -229 977 -71 111 -184 189 -331 230 -94 26 -571 26 -674 0 -154 -39 -259 -112 -316 -219 l-34 -63 -8 -290 c-4 -159 -3 -1345 2 -2635 5 -1290 10 -2531 10 -2759 l0 -414 -627 8 c-346 4 -628 8 -628 8 0 1 3 1514 6 3362 4 2457 9 3382 17 3441 16 110 55 242 103 343 88 188 254 393 394 488 165 111 369 187 547 203 146 13 1668 13 1814 0 280 -25 549 -155 755 -367 117 -121 170 -194 253 -354 152 -293 181 -406 376 -1464 33 -181 81 -436 105 -565 89 -472 199 -1070 320 -1730 176 -959 242 -1311 271 -1425 62 -251 195 -400 414 -462 57 -16 101 -18 352 -16 326 1 407 11 488 54 116 61 219 203 241 330 8 45 13 914 19 2964 4 1595 8 2935 9 2977 l1 77 33 4 c55 7 986 7 1105 0z"
       id="path8"
       style="fill:#005596;fill-opacity:1" />
  </g>
</svg>
