<svg xmlns="http://www.w3.org/2000/svg" width="2500" height="2500" viewBox="0 0 192.756 192.756"><g fill-rule="evenodd" clip-rule="evenodd"><path fill="#fff" d="M0 0h192.756v192.756H0V0z"/><path d="M159.104 133.042V97.833h-20.553v35.209h20.553zm0-38.119h-20.553V59.714h20.553v35.209zm26.425 2.936c2.703 3.846 4.393 8.471 4.393 13.174 0 12.108-9.9 22.009-22.01 22.009h-5.871V97.833l23.488.026zm-23.488-2.936l20.865.052c-1.871-1.741-4.418-3.43-6.887-4.339 5.094-2.962 8.393-8.471 8.393-14.422 0-9.016-7.482-16.5-16.5-16.5h-5.871v35.209zm-60.18 38.119H81.359V97.833h20.502v35.209zm0-38.119H81.359V59.714h20.502v35.209zm2.936 38.119V97.833l23.49.026c2.701 3.846 4.391 8.471 4.391 13.174 0 12.108-9.9 22.009-22.008 22.009h-5.873zm0-38.119V59.714h5.873c9.016 0 16.525 7.483 16.525 16.5 0 5.951-3.326 11.459-8.42 14.422 2.469.909 5.016 2.598 6.887 4.339l-20.865-.052zm-66.728 0H16.19l12.317-35.208h9.562v35.208zm24.789 0L50.516 59.714h-9.51v35.208h21.852v.001zm13.356 38.119H57.869l-5.119-14.655H41.005V97.833h22.893l12.316 35.209zm-73.38 0H21.18l5.145-14.655H38.07V97.833H15.177L2.834 133.042z" fill="#cc2229"/></g></svg>