<?xml version="1.0" encoding="utf-8"?>
<!-- Generator: Adobe Illustrator 16.0.3, SVG Export Plug-In . SVG Version: 6.00 Build 0)  -->
<!DOCTYPE svg PUBLIC "-//W3C//DTD SVG 1.1//EN" "http://www.w3.org/Graphics/SVG/1.1/DTD/svg11.dtd">
<svg version="1.1" id="圖層_1" xmlns="http://www.w3.org/2000/svg" xmlns:xlink="http://www.w3.org/1999/xlink" x="0px" y="0px"
	 viewBox="0 0 120 25" enable-background="new 0 0 120 25" xml:space="preserve">
<g>
	<g>
		<g>
			<rect fill="#004280" width="120" height="24.4"/>
			<g>
				<path fill="#FFFFFF" d="M27.1,8v12.8h2.8c4.4,0,7-2.7,7-6.3c0-3.6-2.4-6.5-7.6-6.5H27.1z M29.9,18.2v-7.7
					c2.8-0.2,4.1,1.8,4.1,4.1C34,16.7,32.7,18.4,29.9,18.2z"/>
				<polygon fill="#FFFFFF" points="66,8 63.1,8 63.1,15.1 55.2,7.8 55.2,20.8 58.1,20.8 58.1,14.1 66,21.4 				"/>
				<polygon fill="#FFFFFF" points="67.3,10.5 70.8,10.5 70.8,20.8 73.9,20.8 73.9,10.5 77.4,10.5 77.4,8 67.3,8 				"/>
				<polygon fill="#FFFFFF" points="78.5,20.8 78.5,8 86.1,8 86.1,10.4 81.4,10.4 81.4,13.2 85.6,13.2 85.6,15.6 81.4,15.6 
					81.4,18.4 86.1,18.4 86.1,20.8 				"/>
				<polygon fill="#FFFFFF" points="106.2,8 106.2,13.2 101.2,13.2 101.2,8 98.3,8 98.3,20.8 101.2,20.8 101.2,15.6 106.2,15.6 
					106.2,20.8 109.1,20.8 109.1,8 				"/>
				<polygon fill="#FFFFFF" points="35.5,8 42,21.2 43.6,17.8 38.8,8 				"/>
				<polygon fill="#FFFFFF" points="48.6,7.6 47,10.9 48.3,14.3 45.3,14.3 44.3,16.4 49.1,16.4 51,20.8 54.3,20.8 				"/>
				<path fill="#FFFFFF" d="M86.7,14.4c0,4.199,3.2,6.5,7.1,6.5c1.5,0,2.4-0.4,3-0.801v-3C96.2,17.9,95,18.4,93.8,18.4
					c-2.3,0-4.2-1.601-4.2-4.101s2.101-4,4.2-4c1.2,0,2.4,0.5,3,1.3V8.8c-0.5-0.5-1.5-0.9-3.1-0.9C89.8,7.9,86.7,10.7,86.7,14.4z"/>
				<path fill="#FFFFFF" d="M17.1,15.8l1.8-4.5l1.8,4.5H17.1z M26.4,20.8L19,4.8l-7.4,16h3.6l1-2.7h5.3l1.1,2.7H26.4z"/>
			</g>
		</g>
	</g>
</g>
</svg>
