<svg xmlns="http://www.w3.org/2000/svg" viewBox="0 0 300 300"><path fill="none" pointer-events="none" d="M0 0h300v300H0z"/><path class="st0" d="M150.558 4.674c80.528 0 145.884 65.356 145.884 145.884s-65.356 145.884-145.884 145.884S4.673 231.086 4.673 150.558 70.03 4.674 150.558 4.674z" fill="#fff" stroke="#7cbb00" stroke-width="5.83538"/><path class="st0" d="M150.557 14.09c75.388 0 136.573 61.184 136.573 136.572s-61.185 136.572-136.573 136.572S13.985 226.05 13.985 150.662 75.169 14.089 150.557 14.089z" fill="#7cbb00"/><path d="M109.585 186.718l-10.67-27.25h-34.33l-10.55 27.25h-10.08l33.87-86.02h8.38l33.69 86.02h-10.31m-13.77-36.21l-9.97-26.54c-1.287-3.36-2.614-7.483-3.98-12.37-.86 3.754-2.09 7.877-3.69 12.37l-10.08 26.54h27.72zm35.856 36.21v-85.66h9.96v85.66h-9.96zm90.466 0h-11.31l-23.03-37.68-23.43 37.68h-10.55l28.48-44.77-26.55-40.89h11.02l21.27 33.92 21.44-33.92h10.61l-26.54 40.54 28.59 45.12z" style="white-space:pre" fill="#fff" color="#fff"/><path d="M240.18 178.174h1.27c.626 0 1.126-.163 1.5-.49.38-.32.57-.73.57-1.23 0-.587-.167-1.007-.5-1.26-.34-.253-.874-.38-1.6-.38h-1.24v3.36m5.09-1.77c0 .627-.167 1.18-.5 1.66-.334.48-.8.837-1.4 1.07l2.79 4.63h-1.97l-2.43-4.15h-1.58v4.15h-1.73v-10.44h3.06c1.293 0 2.243.253 2.85.76.606.507.91 1.28.91 2.32m-12.39 2.13c0-1.56.39-3.023 1.17-4.39a8.708 8.708 0 013.23-3.24 8.693 8.693 0 014.41-1.18c1.566 0 3.033.39 4.4 1.17a8.539 8.539 0 013.23 3.23 8.638 8.638 0 011.19 4.41c0 1.54-.38 2.987-1.14 4.34a8.673 8.673 0 01-3.19 3.25c-1.367.807-2.864 1.21-4.49 1.21a8.637 8.637 0 01-4.47-1.21 8.675 8.675 0 01-3.2-3.24 8.743 8.743 0 01-1.14-4.35m1.23 0c0 1.353.34 2.617 1.02 3.79a7.398 7.398 0 002.79 2.78 7.395 7.395 0 003.77 1.02c1.36 0 2.623-.34 3.79-1.02a7.585 7.585 0 002.77-2.76 7.344 7.344 0 001.03-3.81c0-1.36-.34-2.62-1.02-3.78a7.585 7.585 0 00-2.76-2.77 7.343 7.343 0 00-3.81-1.03c-1.354 0-2.614.34-3.78 1.02a7.585 7.585 0 00-2.77 2.76 7.325 7.325 0 00-1.03 3.8z" style="white-space:pre" fill="#fff" color="#333"/></svg>
