<?xml version="1.0" encoding="utf-8"?>
<svg id="master-artboard" viewBox="0 0 300 300" version="1.1" xmlns="http://www.w3.org/2000/svg" x="0px" y="0px" style="enable-background:new 0 0 1400 980;" width="300px" height="300px"><rect id="ee-background" x="0" y="0" width="300" height="300" style="fill: white; fill-opacity: 0; pointer-events: none;"/><g transform="matrix(2.917685163553106, 0, 0, 2.917685163553106, -1751.7731190784766, -129.53976178508253)"><g id="Layer_2" transform="matrix(1, 0, 0, 1, 0, 0)">
	<g id="Layer_1-2">
		<path class="st0" d="M652,46c27.6,0,50,22.4,50,50s-22.4,50-50,50s-50-22.4-50-50S624.4,46,652,46z" style="fill: rgb(255, 255, 255); stroke: rgb(124, 187, 0); stroke-width: 2;"/>
	</g>
</g></g><g transform="matrix(2.731451595638646, 0, 0, 2.731451595638646, -1630.3491468625725, -111.5574421705678)"><g id="g-1" transform="matrix(1, 0, 0, 1, 0, 0)">
	<g id="g-2">
		<path class="st0" d="M652,46c27.6,0,50,22.4,50,50s-22.4,50-50,50s-50-22.4-50-50S624.4,46,652,46z" style="fill: rgb(124, 187, 0);"/>
	</g>
</g></g><path d="M 138.6239013671875 225 L 127.95389556884766 197.75 L 93.62389373779297 197.75 L 83.07389831542969 225 L 72.993896484375 225 L 106.8638916015625 138.98001098632812 L 115.243896484375 138.98001098632812 L 148.93389892578125 225 L 138.6239013671875 225 M 124.85389709472656 188.79000854492188 L 114.88389587402344 162.25 C 113.59722900390625 158.88999938964844 112.27056884765625 154.76666259765625 110.90390014648438 149.8800048828125 C 110.04389953613281 153.63333129882812 108.81389617919922 157.7566680908203 107.21389770507812 162.25 L 97.13389587402344 188.79000854492188 L 124.85389709472656 188.79000854492188 ZM 160.7098388671875 225 L 160.7098388671875 139.33999633789062 L 170.6698455810547 139.33999633789062 L 170.6698455810547 225 L 160.7098388671875 225 ZM 251.17617797851562 225 L 239.86618041992188 225 L 216.836181640625 187.32000732421875 L 193.40618896484375 225 L 182.85618591308594 225 L 211.336181640625 180.22999572753906 L 184.7861785888672 139.33999633789062 L 195.80618286132812 139.33999633789062 L 217.07618713378906 173.25999450683594 L 238.5161895751953 139.33999633789062 L 249.12619018554688 139.33999633789062 L 222.586181640625 179.8800048828125 L 251.17617797851562 225 Z" transform="matrix(1, 0, 0, 1, -29.03921127319336, -38.28169631958008)" style="fill: rgb(255, 255, 255); white-space: pre; color: rgb(255, 255, 255);"/><path d="M 252.1795654296875 175.07000732421875 L 253.44956970214844 175.07000732421875 C 254.07623291015625 175.07000732421875 254.57623291015625 174.9066619873047 254.94956970214844 174.5800018310547 C 255.32955932617188 174.25999450683594 255.51956176757812 173.85000610351562 255.51956176757812 173.35000610351562 C 255.51956176757812 172.76333618164062 255.3529052734375 172.3433380126953 255.01956176757812 172.08999633789062 C 254.6795654296875 171.836669921875 254.14622497558594 171.7100067138672 253.41957092285156 171.7100067138672 L 252.1795654296875 171.7100067138672 L 252.1795654296875 175.07000732421875 M 257.2695617675781 173.3000030517578 C 257.2695617675781 173.92666625976562 257.1029052734375 174.47999572753906 256.7695617675781 174.9600067138672 C 256.43621826171875 175.44000244140625 255.9695587158203 175.79666137695312 255.36956787109375 176.02999877929688 L 258.1595764160156 180.66000366210938 L 256.1895751953125 180.66000366210938 L 253.7595672607422 176.50999450683594 L 252.1795654296875 176.50999450683594 L 252.1795654296875 180.66000366210938 L 250.44956970214844 180.66000366210938 L 250.44956970214844 170.22000122070312 L 253.5095672607422 170.22000122070312 C 254.8029022216797 170.22000122070312 255.75289916992188 170.47332763671875 256.35955810546875 170.97999572753906 C 256.9662170410156 171.48666381835938 257.2695617675781 172.25999450683594 257.2695617675781 173.3000030517578 M 244.8795623779297 175.42999267578125 C 244.8795623779297 173.8699951171875 245.26956176757812 172.4066619873047 246.049560546875 171.0399932861328 C 246.8362274169922 169.67333984375 247.91290283203125 168.5933380126953 249.27957153320312 167.8000030517578 C 250.64622497558594 167.01333618164062 252.11622619628906 166.6199951171875 253.68955993652344 166.6199951171875 C 255.2562255859375 166.6199951171875 256.722900390625 167.00999450683594 258.0895690917969 167.79000854492188 C 259.45623779296875 168.57000732421875 260.53289794921875 169.64666748046875 261.319580078125 171.02000427246094 C 262.1128845214844 172.3866729736328 262.5095520019531 173.85665893554688 262.5095520019531 175.42999267578125 C 262.5095520019531 176.97000122070312 262.12957763671875 178.4166717529297 261.36956787109375 179.77000427246094 C 260.60955810546875 181.1233367919922 259.5462341308594 182.2066650390625 258.1795654296875 183.02000427246094 C 256.8128967285156 183.82666015625 255.31622314453125 184.22999572753906 253.68955993652344 184.22999572753906 C 252.07623291015625 184.22999572753906 250.5862274169922 183.82666015625 249.2195587158203 183.02000427246094 C 247.8529052734375 182.2133331298828 246.78622436523438 181.13333129882812 246.01956176757812 179.77999877929688 C 245.2595672607422 178.42666625976562 244.8795623779297 176.97666931152344 244.8795623779297 175.42999267578125 M 246.10955810546875 175.42999267578125 C 246.10955810546875 176.78334045410156 246.44956970214844 178.04666137695312 247.1295623779297 179.22000122070312 C 247.8095703125 180.39999389648438 248.73956298828125 181.32666015625 249.91957092285156 182 C 251.0928955078125 182.67999267578125 252.3495635986328 183.02000427246094 253.68955993652344 183.02000427246094 C 255.049560546875 183.02000427246094 256.3128967285156 182.67999267578125 257.47955322265625 182 C 258.646240234375 181.32000732421875 259.5695495605469 180.39999389648438 260.24957275390625 179.24000549316406 C 260.93621826171875 178.0800018310547 261.2795715332031 176.80999755859375 261.2795715332031 175.42999267578125 C 261.2795715332031 174.07000732421875 260.9395751953125 172.80999755859375 260.2595520019531 171.64999389648438 C 259.5795593261719 170.48333740234375 258.6595764160156 169.55999755859375 257.49957275390625 168.8800048828125 C 256.3395690917969 168.19332885742188 255.06956481933594 167.85000610351562 253.68955993652344 167.85000610351562 C 252.3362274169922 167.85000610351562 251.07623291015625 168.19000244140625 249.90956115722656 168.8699951171875 C 248.74290466308594 169.5500030517578 247.81956481933594 170.47000122070312 247.13955688476562 171.6300048828125 C 246.45289611816406 172.7899932861328 246.10955810546875 174.05667114257812 246.10955810546875 175.42999267578125 Z" transform="matrix(1, 0, 0, 1, -12, 3.1039209365844727)" style="fill: rgb(255, 255, 255); white-space: pre; color: rgb(51, 51, 51);"/></svg>