<svg width="32" height="32" viewBox="0 0 8.467 8.467" xmlns="http://www.w3.org/2000/svg"><path style="fill:#213a89;fill-opacity:1;fill-rule:nonzero;stroke:none;stroke-width:.0550304" d="M109.569 205.716v.205c0 .101-.048.15-.164.15h-.105c-.139 0-.236-.04-.236-.133 0-.152.386-.17.505-.222m-.841.242c0 .145.156.273.453.273h.272c.331 0 .479-.06.479-.295v-.397c0-.178-.103-.37-.544-.37h-.518v.186h.55c.105 0 .155.044.155.095 0 .073-.077.111-.319.157-.424.08-.528.184-.528.351m-1.842-.242v.205c0 .101-.047.15-.163.15h-.105c-.14 0-.236-.04-.236-.133 0-.152.385-.17.504-.222m-.84.242c0 .145.156.273.453.273h.272c.33 0 .479-.06.479-.295v-.397c0-.178-.104-.37-.544-.37h-.518v.186h.55c.105 0 .154.044.154.095 0 .073-.077.111-.319.157-.423.08-.528.184-.528.351m-.82.272c-.1 0-.126-.006-.178-.058-.196-.197-.37-.325-.689-.346l-.18.404h-.403l.544-1.077c.075-.146.134-.18.273-.18h.344l.531 1.257h-.241m-.363-.495-.214-.562h-.005l-.227.512c.106-.017.318.005.446.05m6.707-.05-.227-.512h-.005l-.213.562c.128-.046.331-.062.445-.05m-.625.487c-.052.052-.079.058-.18.058h-.197l.464-1.1c.058-.135.141-.156.288-.156h.288l.633 1.256h-.432l-.178-.403c-.317.02-.49.148-.686.345m-.674.058h.208v-1.256h-.365v1.067c0 .126.01.19.157.19m-4.579 0h.209v-1.257h-.365v1.088c0 .126.01.168.156.168m2.385-.712.29-.348h.312l-.376.444c-.045.05-.043.077.003.129l.428.487h-.471l-.25-.29a.345.345 0 0 1-.08-.127l-.001-.003-.375.42h-.338l.478-.5c.054-.059.05-.084-.01-.149l-.35-.412h.483l.165.22c.049.063.07.083.09.129" transform="translate(-103.775 -201.369)"/></svg>