<?xml version="1.0" encoding="UTF-8" standalone="no"?>
<!-- Created with Inkscape (http://www.inkscape.org/) -->

<svg
   width="32"
   height="32"
   viewBox="0 0 8.4666667 8.4666671"
   version="1.1"
   id="svg8971"
   inkscape:version="1.1 (c68e22c387, 2021-05-23)"
   sodipodi:docname="alaxala.svg"
   xmlns:inkscape="http://www.inkscape.org/namespaces/inkscape"
   xmlns:sodipodi="http://sodipodi.sourceforge.net/DTD/sodipodi-0.dtd"
   xmlns="http://www.w3.org/2000/svg"
   xmlns:svg="http://www.w3.org/2000/svg"
   xmlns:rdf="http://www.w3.org/1999/02/22-rdf-syntax-ns#"
   xmlns:cc="http://creativecommons.org/ns#"
   xmlns:dc="http://purl.org/dc/elements/1.1/">
  <defs
     id="defs8965" />
  <sodipodi:namedview
     id="base"
     pagecolor="#ffffff"
     bordercolor="#666666"
     borderopacity="1.0"
     inkscape:pageopacity="0.0"
     inkscape:pageshadow="2"
     inkscape:zoom="4.3727658"
     inkscape:cx="1.2577852"
     inkscape:cy="37.733556"
     inkscape:document-units="mm"
     inkscape:current-layer="layer1"
     showgrid="false"
     fit-margin-top="0"
     fit-margin-left="0"
     fit-margin-right="0"
     fit-margin-bottom="0"
     units="px"
     inkscape:window-width="1332"
     inkscape:window-height="1040"
     inkscape:window-x="2076"
     inkscape:window-y="0"
     inkscape:window-maximized="0"
     inkscape:pagecheckerboard="true" />
  <metadata
     id="metadata8968">
    <rdf:RDF>
      <cc:Work
         rdf:about="">
        <dc:format>image/svg+xml</dc:format>
        <dc:type
           rdf:resource="http://purl.org/dc/dcmitype/StillImage" />
      </cc:Work>
    </rdf:RDF>
  </metadata>
  <g
     inkscape:label="Layer 1"
     inkscape:groupmode="layer"
     id="layer1"
     transform="translate(-103.77468,-201.36893)">
    <path
       inkscape:connector-curvature="0"
       id="path290"
       style="fill:#213a89;fill-opacity:1;fill-rule:nonzero;stroke:none;stroke-width:0.0550304"
       d="m 109.56877,205.71558 v 0.20515 c 0,0.10175 -0.0474,0.14974 -0.16361,0.14974 h -0.10478 c -0.13939,0 -0.23602,-0.039 -0.23602,-0.13213 0,-0.15254 0.38532,-0.16949 0.50441,-0.22276 m -0.84093,0.24285 c 0,0.14467 0.15608,0.27223 0.45269,0.27223 h 0.27289 c 0.33073,0 0.47811,-0.0592 0.47811,-0.2943 v -0.39771 c 0,-0.17813 -0.10275,-0.36909 -0.5431,-0.36909 0,0 -0.48432,-1.6e-4 -0.51805,-1.6e-4 v 0.18568 l 0.55046,-1.5e-4 c 0.1044,0 0.15382,0.0439 0.15382,0.0947 0,0.0732 -0.0769,0.11159 -0.31868,0.15743 -0.42379,0.0802 -0.52814,0.18425 -0.52814,0.35137 m -1.84169,-0.24284 v 0.20515 c 0,0.10175 -0.0472,0.14974 -0.16317,0.14974 h -0.10467 c -0.13983,0 -0.23614,-0.039 -0.23614,-0.13213 0,-0.15254 0.38489,-0.16949 0.50398,-0.22276 m -0.84082,0.24284 c 0,0.14468 0.15635,0.27224 0.45324,0.27224 h 0.27234 c 0.33051,0 0.4786,-0.0592 0.4786,-0.2943 l -1.5e-4,-0.39771 c 0,-0.17813 -0.10308,-0.36909 -0.54343,-0.36909 0,0 -0.4841,-1.6e-4 -0.518,-1.6e-4 v 0.18568 l 0.55052,-1.5e-4 c 0.10473,0 0.15348,0.0439 0.15348,0.0947 0,0.0732 -0.0769,0.11159 -0.31857,0.15743 -0.42335,0.0802 -0.52802,0.18425 -0.52802,0.35137 m -0.81967,0.27202 c -0.10071,0 -0.12685,-0.006 -0.17885,-0.0583 -0.19591,-0.1975 -0.37069,-0.32507 -0.68854,-0.34581 l -0.17979,0.40409 h -0.40381 l 0.54397,-1.07695 c 0.0757,-0.14682 0.13422,-0.17962 0.27302,-0.17962 h 0.34394 l 0.53181,1.25657 h -0.24175 m -0.36287,-0.49505 -0.21397,-0.56214 -0.005,1.1e-4 -0.22655,0.51123 c 0.10533,-0.0167 0.31802,0.005 0.44558,0.0508 m 6.70694,-0.0508 -0.22667,-0.51123 -0.005,-1.1e-4 -0.21352,0.56214 c 0.1279,-0.0463 0.33156,-0.0625 0.44537,-0.0508 m -0.62531,0.48757 c -0.052,0.0523 -0.0782,0.0583 -0.17875,0.0583 h -0.19838 l 0.46462,-1.10055 c 0.0574,-0.13516 0.14121,-0.15602 0.28753,-0.15602 l 0.28859,1.6e-4 0.63307,1.25634 h -0.43266 l -0.17742,-0.40376 c -0.31752,0.0207 -0.49026,0.14798 -0.6866,0.34548 m -0.67391,0.0583 h 0.20818 v -1.25656 h -0.36469 v 1.06715 c 0,0.12585 0.01,0.18941 0.15651,0.18941 m -4.57881,0 h 0.20863 v -1.25656 h -0.36491 v 1.0879 c 0,0.12607 0.01,0.16866 0.15628,0.16866 m 2.38513,-0.71226 0.29018,-0.3479 h 0.31202 l -0.37663,0.44327 c -0.0451,0.0511 -0.0426,0.0773 0.003,0.12927 l 0.42787,0.48762 -0.47078,1.6e-4 -0.24902,-0.291 c -0.0386,-0.0456 -0.0649,-0.0769 -0.08,-0.12614 l -0.002,-0.003 -0.37437,0.41988 -0.33794,-1.5e-4 0.47711,-0.49995 c 0.0541,-0.0588 0.0502,-0.0839 -0.009,-0.1488 l -0.34983,-0.41263 0.48202,3.2e-4 0.1653,0.22056 c 0.049,0.0622 0.0703,0.0828 0.0907,0.12822" />
  </g>
</svg>
