<svg xmlns="http://www.w3.org/2000/svg" viewBox="-1.06305 -1.06305 42.546804 42.547079"><path d="M41.484 20.21c0 11.746-9.528 21.274-21.278 21.274-11.748 0-21.27-9.528-21.27-21.274 0-11.75 9.522-21.273 21.27-21.273 11.75 0 21.278 9.523 21.278 21.273" fill="#6b489d"/><path d="M29.668 26.192c-2.041 2.37-4.37 3.844-6.104 4.56-1.797.733-2.597.757-2.678-1.254-.153-3.87 1.569-11.05 3.334-17.494 1.525-5.583 1.735-6.551-.916-7.414-2.007-.644-3.432-.2-6.379 2.515C13.12 10.61 7.325 18.57 4.411 24.63a30.222 30.222 0 0 0 2.188 1.76c.662.477 1.186.328 1.674-.427 2.16-3.359 5.753-6.95 9.909-9.47a88.18 88.18 0 0 1 .597-2.027c-3.437 1.621-6.25 3.71-6.25 3.71 3.557-6.526 8.711-11.81 9.654-11.396.603.26-1.462 5.52-2.94 10.883-1.695 6.14-2.55 10.823-2.286 14.25.243 3.12 2.69 3.948 6.337 2.351 2.745-1.208 5.341-3.554 7.238-6.415l-.827-1.693a.11.11 0 0 1-.037.035M28.62 12.534a10.85 10.85 0 0 0-3.119-.12 41 41 0 0 0-.26.962c2.744-.634 5.231-.261 6.875 2.096 1.61 2.327.623 5.948-1.012 8.707l.715 1.42c.007-.02.022-.032.028-.053 4.44-9.18-.506-12.512-3.227-13.012" fill="#fff"/></svg>