<svg xmlns="http://www.w3.org/2000/svg" viewBox="0 0 327.7608 97.907997">
  <title>
    Allied Telesis
  </title>
  <g fill="none" fill-rule="evenodd">
    <path fill="#000" d="M0 97.78h82.79l31.39-22.868 6.34 22.867h47.28L135.507.135M234.546 39.933L268.256 0H144l12.91 39.933h11.634l-8.27 9.68 15.884 48.295 48.696-57.975M195.105 97.778l54.417-65.143c-2.728 13.867 3.275 26.8 14.91 36.48 11.81 9.8 27.854 14.167 41.365 7.526l-17.42 21.138z"/>
    <path d="M271.66 7.685h41.793c-5.85-4.33-13.06-6.923-20.895-6.923-7.84 0-15.05 2.592-20.897 6.923M292.558 71.182c8.178 0 15.685-2.82 21.663-7.503h-43.325c5.974 4.68 13.48 7.502 21.663 7.502M263.186 55.34h58.75c1.54-2.333 2.786-4.87 3.742-7.545h-66.233c.956 2.674 2.2 5.212 3.74 7.544M257.366 35.965c0 1.182.063 2.35.177 3.507h70.04c.115-1.156.178-2.324.178-3.507 0-1.376-.098-2.722-.25-4.056h-69.893c-.153 1.334-.25 2.68-.25 4.055M259.653 23.57h65.817c-1.014-2.686-2.32-5.227-3.928-7.555h-57.965c-1.606 2.328-2.912 4.87-3.924 7.555" fill="#df3227"/>
  </g>
</svg>
