<?xml version="1.0" encoding="UTF-8" standalone="no"?>
<svg
   xmlns:dc="http://purl.org/dc/elements/1.1/"
   xmlns:cc="http://creativecommons.org/ns#"
   xmlns:rdf="http://www.w3.org/1999/02/22-rdf-syntax-ns#"
   xmlns:svg="http://www.w3.org/2000/svg"
   xmlns="http://www.w3.org/2000/svg"
   id="svg8"
   version="1.1"
   viewBox="0 0 340.54952 340.57102"
   height="340.57101mm"
   width="340.54953mm">
  <defs
     id="defs2" />
  <metadata
     id="metadata5">
    <rdf:RDF>
      <cc:Work
         rdf:about="">
        <dc:format>image/svg+xml</dc:format>
        <dc:type
           rdf:resource="http://purl.org/dc/dcmitype/StillImage" />
        <dc:title></dc:title>
      </cc:Work>
    </rdf:RDF>
  </metadata>
  <g
     transform="translate(182.47206,32.029681)"
     id="layer1">
    <path
       id="path315"
       d="m -25.721203,308.24903 c -2.83216,-0.14838 -8.76617,-0.90667 -14.64027,-1.87085 -8.91969,-1.46406 -10.78455,-1.89731 -19.22639,-4.4667 -13.4692,-4.09956 -14.36682,-4.41617 -21.03428,-7.41976 -16.58697,-7.47218 -28.194097,-14.68596 -41.478897,-25.77898 -10.26923,-8.57497 -14.11108,-12.53891 -24.02658,-24.79013 -7.10368,-8.77704 -13.20635,-18.49834 -19.0646,-30.3691 -7.33298,-14.85906 -11.6331,-27.9666 -14.93368,-45.52056 -1.94833,-10.36207 -2.71776,-24.00744 -2.1782,-38.62916 0.36553,-9.90579 1.04319,-15.49887 3.16298,-26.10556 2.1295,-10.655326 7.16309,-26.028826 12.09763,-36.948381 5.33443,-11.804445 14.35937,-26.044468 23.19977,-36.605777 5.22817,-6.245906 11.11765,-12.541772 14.93502,-15.965568 24.47268,-21.9494882 46.076717,-33.614357 75.847227,-40.952889 13.73448,-3.385598 19.51934,-4.215285 32.68949,-4.688459 21.85302,-0.785132 39.35101,1.179071 56.61063,6.354713 11.01862,3.304155 18.5105,6.411754 30.30526,12.570488 11.24641,5.8724058 14.78288,8.0678158 23.62239,14.6645658 10.906543,8.139324 21.328923,17.9501452 28.582823,26.9056342 1.54792,1.911026 3.73578,4.609776 4.86189,5.997223 2.79319,3.441329 6.9276,9.582731 10.72293,15.928181 8.34362,13.949789 13.55037,26.321543 18.48435,43.920833 1.8584,6.628696 4.45883,21.888616 4.89952,28.751386 0.82875,12.90569 0.17085,32.50066 -1.41538,42.15694 -0.81491,4.96084 -4.43999,19.79935 -6.54999,26.81111 -1.13658,3.77689 -5.32415,13.97592 -8.76321,21.34306 -2.08453,4.46553 -8.42585,15.19939 -12.92158,21.87222 -10.06361,14.93698 -22.21794,27.5524 -38.254133,39.70535 -15.22516,11.5383 -34.98994,21.35879 -53.79861,26.73075 -12.79562,3.65456 -25.16629,5.86316 -35.86139998,6.40249 -7.67364002,0.38696 -18.45440002,0.38566 -25.87471002,-0.004 z m -4.40972,-76.69337 c 14.7602,-1.80644 23.50614,-4.27729 34.40209,-9.71907 4.96648,-2.48042 7.10557,-3.85169 12.16458,-7.79814 5.00964,-3.90793 7.12943,-6.05449 9.47316,-9.59279 2.2993,-3.47123 3.29781,-4.32503 4.65862,-3.98349 1.51424,0.38006 2.04015,2.19547 1.55781,5.37748 -0.29736,1.96168 -0.29811,4.93809 -0.003,11.62053 0.21824,4.94087 0.48764,9.22011 0.59866,9.50942 0.11102,0.2893 0.47662,0.67306 0.81245,0.85279 0.86994,0.46558 59.87714,0.53441 60.43605,0.0705 0.33499,-0.27805 0.42993,-12.97772 0.42945,-57.44872 -7.1e-4,-59.08117 0.0229,-57.9784 -1.42329,-66.61676 -1.21533,-7.258656 -4.18498,-16.032976 -6.96125,-20.567866 -0.67677,-1.10545 -1.58675,-2.72428 -2.0222,-3.59741 -1.88764,-3.78495 -9.00468,-11.354996 -14.0654,-14.960685 -7.05186,-5.024349 -13.89012,-8.105048 -24.91624,-11.225011 -8.89972,-2.518273 -18.04658,-4.313206 -24.87084,-4.880529 -2.42534,-0.201627 -6.71159,-0.596357 -9.525,-0.877175 -5.65777,-0.564727 -31.68162,-0.687843 -37.04166,-0.175239 -17.27092,1.651699 -30.20075,4.301176 -42.03199,8.612868 -14.67972,5.349762 -25.87373,13.405446 -32.537677,23.415471 -3.21012,4.82198 -4.95345,8.73702 -6.39491,14.36119 -1.39622,5.44769 -1.39948,5.47443 -0.77252,6.331856 0.43584,0.59604 2.14185,0.62823 32.315407,0.60971 22.08668,-0.0136 31.9948,-0.13534 32.31025,-0.39715 0.5326,-0.44202 0.98382,-1.549986 1.73132,-4.251246 1.47643,-5.33546 6.72779,-10.22252 13.99671,-13.02571 9.31662,-3.59287 25.12622,-3.81058 35.709,-0.49173 8.9692,2.81281 15.61533,8.82094 18.87349,17.06172 1.89857,4.802006 3.31183,13.669826 2.46126,15.443736 -0.90027,1.87752 -0.15595,1.8311 -29.55478998,1.8435 -15.03715002,0.006 -30.51527002,0.16278 -34.39583002,0.34763 -16.31112,0.77696 -33.79898,3.86028 -46.29278,8.16195 -5.3001,1.82485 -13.60442,5.97663 -18.31136,9.15485 -6.406267,4.32562 -12.180127,10.69937 -16.274167,17.96499 -1.88947,3.35321 -3.17435,7.07228 -4.11423,11.90856 -0.76254,3.92374 -0.90885,5.66445 -0.90885,10.81286 0,10.00455 1.69397,17.53205 5.70072,25.33238 2.86133,5.57042 5.74937,9.13699 11.93817,14.74296 1.90928,1.72947 8.682207,6.01408 12.347217,7.81095 3.58736,1.7588 14.50029,5.44415 18.14131,6.12642 1.62768,0.305 3.49019,0.71666 4.13892,0.9148 1.25638,0.38374 4.6994,0.77499 12.11561,1.37674 2.52236,0.20467 4.74486,0.44465 4.93888,0.53328 0.78467,0.35845 16.88852,-0.16682 21.16667,-0.69041 z m 0.70556,-34.43405 c -7.25103,-0.44902 -13.151,-2.59627 -18.07827,-6.57947 -2.14526,-1.73423 -3.45994,-3.8305 -4.67292,-7.45101 -1.66942,-4.98288 -1.26374,-9.22693 1.41003,-14.75092 2.57325,-5.31633 6.64748,-8.47212 14.46199,-11.20189 4.40899,-1.54014 15.52109,-3.39189 22.93056,-3.82121 7.65689,-0.44365 40.00267,-0.58101 41.24624,-0.17515 2.08754,0.6813 2.22194,2.18533 0.76885,8.60443 -2.01657,8.90834 -4.49796,13.86147 -10.02672,20.01447 -4.60648,5.12658 -11.68448,9.79847 -17.87725998,11.80003 -3.40388002,1.10016 -10.72010002,2.77146 -13.93473002,3.18321 -3.83141,0.49076 -11.5131,0.66946 -16.22777,0.37751 z"
       style="fill:#ee4234;stroke-width:0.35277778" />
  </g>
</svg>
