<svg xmlns="http://www.w3.org/2000/svg" viewBox="0 0 340.55 340.571">
	<path d="M156.75 340.279c-2.831-.149-8.765-.907-14.64-1.871-8.92-1.464-10.784-1.897-19.226-4.467-13.469-4.1-14.367-4.416-21.034-7.42-16.587-7.472-28.194-14.686-41.479-25.779-10.27-8.575-14.111-12.538-24.027-24.79-7.103-8.777-13.206-18.498-19.064-30.369-7.333-14.859-11.633-27.966-14.934-45.52C.398 189.7-.372 176.055.168 161.433c.365-9.905 1.043-15.498 3.163-26.105 2.13-10.655 7.163-26.029 12.098-36.948 5.334-11.805 14.359-26.045 23.2-36.606 5.228-6.246 11.117-12.542 14.934-15.966 24.473-21.95 46.077-33.614 75.848-40.953C143.145 1.47 148.93.64 162.1.167c21.852-.785 39.35 1.179 56.61 6.355 11.018 3.304 18.51 6.411 30.305 12.57 11.246 5.872 14.783 8.068 23.622 14.665 10.907 8.139 21.33 17.95 28.583 26.905 1.548 1.911 3.736 4.61 4.862 5.997 2.793 3.442 6.928 9.583 10.723 15.929 8.344 13.95 13.55 26.321 18.484 43.92 1.859 6.63 4.46 21.89 4.9 28.752.829 12.906.17 32.5-1.416 42.157-.814 4.96-4.44 19.8-6.55 26.81-1.136 3.778-5.324 13.977-8.763 21.344-2.084 4.466-8.426 15.2-12.921 21.872-10.064 14.937-22.218 27.553-38.254 39.706-15.226 11.538-34.99 21.358-53.799 26.73-12.796 3.655-25.166 5.863-35.861 6.403-7.674.387-18.455.385-25.875-.004zm-4.409-76.694c14.76-1.806 23.506-4.277 34.402-9.719 4.967-2.48 7.106-3.851 12.165-7.798 5.01-3.908 7.13-6.054 9.473-9.593 2.3-3.47 3.298-4.325 4.659-3.983 1.514.38 2.04 2.195 1.557 5.377-.297 1.962-.298 4.938-.003 11.62.219 4.942.488 9.221.6 9.51.11.29.476.673.812.853.87.466 59.877.534 60.436.07.335-.277.43-12.977.429-57.448 0-59.081.023-57.979-1.423-66.617-1.216-7.259-4.185-16.033-6.962-20.568-.676-1.105-1.586-2.724-2.022-3.597-1.887-3.785-9.004-11.355-14.065-14.96-7.052-5.025-13.89-8.106-24.916-11.226-8.9-2.518-18.047-4.313-24.871-4.88a704.178 704.178 0 0 1-9.525-.878c-5.658-.564-31.682-.687-37.042-.175-17.27 1.652-30.2 4.301-42.032 8.613-14.68 5.35-25.874 13.405-32.538 23.416-3.21 4.821-4.953 8.737-6.394 14.36-1.397 5.448-1.4 5.475-.773 6.333.436.596 2.142.628 32.315.61 22.087-.014 31.995-.136 32.31-.398.533-.442.985-1.55 1.732-4.251 1.476-5.336 6.728-10.223 13.997-13.026 9.316-3.593 25.126-3.81 35.709-.492 8.969 2.813 15.615 8.821 18.873 17.062 1.899 4.802 3.312 13.67 2.461 15.444-.9 1.877-.155 1.831-29.554 1.843-15.037.006-30.516.163-34.396.348-16.311.777-33.8 3.86-46.293 8.162-5.3 1.825-13.604 5.977-18.311 9.155-6.407 4.325-12.18 10.7-16.274 17.965-1.89 3.353-3.175 7.072-4.115 11.908-.762 3.924-.909 5.665-.909 10.813 0 10.005 1.694 17.532 5.701 25.333 2.862 5.57 5.75 9.137 11.938 14.743 1.91 1.729 8.683 6.014 12.348 7.81 3.587 1.76 14.5 5.445 18.14 6.127 1.629.305 3.491.717 4.14.915 1.256.383 4.7.775 12.115 1.376 2.523.205 4.745.445 4.94.534.784.358 16.888-.167 21.166-.69zm.706-34.434c-7.251-.449-13.151-2.596-18.079-6.58-2.145-1.733-3.46-3.83-4.672-7.45-1.67-4.983-1.264-9.227 1.41-14.751 2.573-5.316 6.647-8.472 14.462-11.202 4.409-1.54 15.52-3.392 22.93-3.821 7.657-.444 40.003-.581 41.246-.175 2.088.68 2.222 2.185.77 8.604-2.017 8.908-4.499 13.862-10.028 20.015-4.606 5.126-11.684 9.798-17.877 11.8-3.404 1.1-10.72 2.771-13.935 3.183-3.83.49-11.513.67-16.227.377z" fill="#ee4234"/>
</svg>
