<?xml version="1.0" encoding="UTF-8"?>
<!DOCTYPE svg PUBLIC "-//W3C//DTD SVG 1.1//EN" "http://www.w3.org/Graphics/SVG/1.1/DTD/svg11.dtd">
<!-- Creator: CorelDRAW -->
<svg xmlns="http://www.w3.org/2000/svg" xml:space="preserve" width="0.666661in" height="0.666661in" version="1.1" style="shape-rendering:geometricPrecision; text-rendering:geometricPrecision; image-rendering:optimizeQuality; fill-rule:evenodd; clip-rule:evenodd"
viewBox="0 0 666.66 666.66"
 xmlns:xlink="http://www.w3.org/1999/xlink"
 xmlns:xodm="http://www.corel.com/coreldraw/odm/2003">
 <defs>
  <style type="text/css">
   <![CDATA[
    .fil1 {fill:#BF9000}
    .fil3 {fill:#FEFEFE;fill-rule:nonzero}
    .fil0 {fill:#BF9000;fill-rule:nonzero}
    .fil2 {fill:white;fill-rule:nonzero;fill-opacity:0.019608}
   ]]>
  </style>
 </defs>
 <g id="Layer_x0020_1_0">
  <metadata id="CorelCorpID_0Corel-Layer"/>
  <polygon class="fil0" points="61.97,480.37 61.21,178.65 331.39,347.87 329.99,647.99 "/>
  <g id="_2520671185840">
   <polygon class="fil1" points="161.83,424.88 230.83,468.03 231.13,403.07 161.67,359.56 "/>
  </g>
  <polygon class="fil0" points="350.18,347.71 621.2,178.7 620.76,482.68 351.02,648.09 "/>
  <g id="_2520671183008">
   <polygon class="fil1" points="450.33,403.1 450.52,469.77 520.84,426.65 520.94,359.07 "/>
  </g>
  <polygon class="fil0" points="72.31,163.9 342.97,14.99 608.65,162.98 339.5,330.79 "/>
  <g id="_2520671183392">
   <polygon class="fil1" points="74.28,163.95 339.5,329.61 606.68,163.02 342.96,16.13 "/>
  </g>
  <path class="fil2" d="M510.88 460.67l-28.84 18.02 0 -23.23c0,-10.19 1.42,-19.43 4.24,-27.72 2.81,-8.3 8.74,-19.61 17.82,-33.92l13.56 -21.91c5.74,-8.92 9.87,-16.53 12.37,-22.83 2.62,-6.37 3.93,-12.02 3.93,-16.94 0,-8.94 -3.31,-14.11 -9.95,-15.5 -6.54,-1.47 -15.23,1.2 -26.07,8.01 -7.94,4.97 -16.45,12.04 -25.51,21.23 -8.94,9.11 -18.29,20.08 -28.04,32.92l0 -28.39c9.44,-11.62 18.98,-21.85 28.63,-30.72 9.75,-8.92 19.81,-16.61 30.2,-23.09 18.52,-11.56 33.36,-15.95 44.54,-13.17 11.27,2.72 16.9,12.08 16.9,28.07 0,7.65 -1.81,16.07 -5.45,25.27 -3.6,9.08 -9.94,20.77 -19.02,35.08l-13.26 21.27c-4.72,7.69 -8.1,13.52 -10.11,17.5 -1.91,3.79 -3.27,7.2 -4.08,10.22 -0.6,2.48 -1.05,5.33 -1.34,8.55 -0.32,3.2 -0.48,7.43 -0.48,12.66l0 18.54 -0.04 0.08zm-29.74 40.73l30.64 -19.12 0 38.33 -30.64 19.11 0 -38.31z"/>
  <path class="fil3" d="M601.84 271.48c-0.03,18.04 -6.74,39.02 -20.15,63.01 -8.05,14.44 -20.28,32.4 -36.63,53.89 6.69,12.06 10.02,24.74 10.02,37.92 -0.02,27.15 -12.38,54.82 -37.1,83 -17.61,20.07 -38.13,37.24 -61.49,51.57l-66.3 40.66 45.61 -214.84 46.19 -28.68 -39.1 182.18 6.5 -3.99c14.93,-9.17 27.56,-19.35 37.87,-30.54 15.32,-16.82 22.99,-33.68 22.99,-50.49 0,-5.36 -1.71,-10.72 -5.14,-16.09 -3.43,-5.37 -5.14,-9.8 -5.14,-13.16 0,-1.75 0.09,-2.98 0.26,-3.84 1.71,-6.42 6.36,-14.54 14,-24.38 10.59,-13.73 18.29,-25.19 23.22,-34.3 8.24,-15.24 12.39,-29.58 12.39,-42.93 0.01,-18.87 -10.09,-22 -30.31,-9.43l-149.98 93.25 19.52 -58.16 149.9 -93.48c19.83,-12.37 34.73,-17.82 44.63,-16.39 12.17,1.73 18.26,13.47 18.23,35.24z"/>
  <path class="fil3" d="M311.54 482.95c-2.82,16.43 -9.45,21.39 -19.87,14.86l-48.05 -30.07 -15.37 78.98 -28.93 -18.09 15.22 -79.09 -24.96 -15.62c-27.19,52.11 -53.68,70 -79.57,53.8 -7.54,-4.71 -13.89,-11.65 -19.07,-20.74 -6.54,-11.57 -9.82,-24.65 -9.86,-39.19 -0.03,-12.4 2.37,-23 7.19,-31.8 7.79,-14.12 19.59,-20.8 35.45,-19.97 12.41,0.7 26.12,5.72 41.14,15.12l15.71 9.83 49.13 -94.13 39.61 24.81 -21.27 111.54 63.51 39.75zm-75.53 -143.68l-35.65 74.1 18.14 11.35 17.5 -85.45zm-66.35 82.2c-20.24,-12.67 -34.41,-15.41 -42.56,-8.22 -6.71,6.05 -10.07,14.83 -10.06,26.3 0.01,9.77 2.45,16.18 7.29,19.2 6.69,4.19 15.03,1.44 25.03,-8.18 8.79,-8.29 15.54,-17.98 20.3,-29.11z"/>
 </g>
</svg>
