<?xml version="1.0" encoding="UTF-8"?>
<!DOCTYPE svg PUBLIC "-//W3C//DTD SVG 1.1//EN" "http://www.w3.org/Graphics/SVG/1.1/DTD/svg11.dtd">
<!-- Creator: CorelDRAW -->
<svg xmlns="http://www.w3.org/2000/svg" xml:space="preserve" width="0.166661in" height="0.166661in" version="1.1" style="shape-rendering:geometricPrecision; text-rendering:geometricPrecision; image-rendering:optimizeQuality; fill-rule:evenodd; clip-rule:evenodd"
viewBox="0 0 166.66 166.66"
 xmlns:xlink="http://www.w3.org/1999/xlink"
 xmlns:xodm="http://www.corel.com/coreldraw/odm/2003">
 <defs>
  <style type="text/css">
   <![CDATA[
    .fil1 {fill:#BF9000}
    .fil4 {fill:#FEFEFE;fill-rule:nonzero}
    .fil0 {fill:#BF9000;fill-rule:nonzero}
    .fil3 {fill:#FEFEFE;fill-rule:nonzero}
    .fil2 {fill:white;fill-rule:nonzero;fill-opacity:0.019608}
   ]]>
  </style>
 </defs>
 <g id="Layer_x0020_1_0">
  <metadata id="CorelCorpID_0Corel-Layer"/>
  <polygon class="fil0" points="29.48,105.47 29.33,54.64 80.8,83.15 80.53,133.71 "/>
  <g id="_2520671185840">
   <polygon class="fil1" points="48.5,96.13 61.64,103.39 61.7,92.45 48.47,85.12 "/>
  </g>
  <polygon class="fil0" points="84.37,83.12 136,54.65 135.91,105.86 84.54,133.73 "/>
  <g id="_2520671183008">
   <polygon class="fil1" points="103.45,92.46 103.49,103.69 116.88,96.42 116.9,85.04 "/>
  </g>
  <polygon class="fil0" points="31.45,52.15 83,27.07 133.61,52 82.34,80.27 "/>
  <g id="_2520671183392">
   <polygon class="fil1" points="31.82,52.16 82.34,80.07 133.23,52.01 83,27.26 "/>
  </g>
  <path class="fil2" d="M114.98 102.15l-5.49 3.04 0 -3.91c0,-1.72 0.27,-3.27 0.81,-4.67 0.54,-1.4 1.67,-3.3 3.39,-5.72l2.58 -3.69c1.09,-1.5 1.88,-2.79 2.35,-3.85 0.5,-1.07 0.75,-2.03 0.75,-2.85 0,-1.51 -0.63,-2.38 -1.89,-2.61 -1.24,-0.24 -2.9,0.2 -4.96,1.35 -1.51,0.84 -3.13,2.03 -4.86,3.58 -1.7,1.54 -3.48,3.38 -5.34,5.55l0 -4.78c1.8,-1.96 3.61,-3.68 5.45,-5.18 1.86,-1.5 3.78,-2.8 5.75,-3.89 3.53,-1.95 6.35,-2.69 8.48,-2.22 2.15,0.46 3.22,2.04 3.22,4.73 0,1.29 -0.35,2.7 -1.04,4.26 -0.69,1.53 -1.89,3.5 -3.62,5.91l-2.53 3.58c-0.9,1.3 -1.54,2.28 -1.93,2.95 -0.36,0.64 -0.62,1.22 -0.78,1.72 -0.11,0.42 -0.2,0.9 -0.26,1.44 -0.06,0.54 -0.09,1.25 -0.09,2.13l0 3.12 -0.01 0.01 0 0zm-5.67 6.86l5.83 -3.22 0 6.46 -5.83 3.22 0 -6.45 0 -0z"/>
  <path class="fil3" d="M132.31 70.28c-0,3.04 -1.28,6.57 -3.83,10.61 -1.54,2.43 -3.87,5.46 -6.98,9.08 1.28,2.03 1.91,4.17 1.91,6.39 -0,4.57 -2.36,9.24 -7.07,13.98 -3.35,3.38 -7.26,6.28 -11.71,8.69l-12.63 6.85 8.69 -36.19 8.8 -4.83 -7.44 30.69 1.24 -0.67c2.85,-1.55 5.25,-3.26 7.21,-5.15 2.92,-2.83 4.38,-5.68 4.38,-8.51 0,-0.9 -0.33,-1.81 -0.98,-2.71 -0.65,-0.91 -0.98,-1.65 -0.98,-2.22 0,-0.3 0.02,-0.5 0.05,-0.65 0.32,-1.08 1.21,-2.45 2.67,-4.11 2.02,-2.31 3.48,-4.24 4.42,-5.78 1.57,-2.57 2.36,-4.98 2.36,-7.23 0,-3.18 -1.92,-3.71 -5.78,-1.59l-28.57 15.71 3.72 -9.8 28.55 -15.75c3.78,-2.09 6.61,-3 8.5,-2.76 2.32,0.29 3.48,2.27 3.47,5.94l0 -0z"/>
  <path class="fil3" d="M77.02 105.91c-0.54,2.77 -1.8,3.6 -3.78,2.5l-9.15 -5.07 -2.93 13.31 -5.51 -3.05 2.9 -13.32 -4.76 -2.63c-5.18,8.78 -10.22,11.8 -15.15,9.07 -1.44,-0.8 -2.65,-1.96 -3.63,-3.5 -1.24,-1.95 -1.87,-4.15 -1.88,-6.6 -0,-2.09 0.45,-3.87 1.37,-5.36 1.48,-2.38 3.73,-3.5 6.75,-3.36 2.36,0.12 4.98,0.96 7.84,2.55l2.99 1.65 9.35 -15.86 7.55 4.18 -4.05 18.79 12.09 6.7 0 0zm-14.39 -24.21l-6.79 12.48 3.46 1.91 3.33 -14.4 0 0zm-12.64 13.85c-3.85,-2.13 -6.56,-2.6 -8.11,-1.39 -1.28,1.02 -1.92,2.5 -1.92,4.43 0,1.65 0.47,2.73 1.39,3.24 1.28,0.7 2.86,0.24 4.77,-1.38 1.67,-1.4 2.96,-3.03 3.87,-4.91l0 0z"/>
  <path class="fil4" d="M76.28 41.33c2.5,1.28 4.28,2.76 5.33,4.43l11.81 18.59c1.66,2.65 1.47,4.56 -0.61,5.7l-4.95 2.73 -32.85 -19.73 -9 4.48 -4.18 -5.4 9.44 -4.6c1.04,-0.51 2.37,-0.68 4.01,-0.53 1.64,0.16 3.19,0.62 4.66,1.4 0.19,0.1 0.37,0.2 0.55,0.31l28.23 17.08 -11.39 -18.04c-1.51,0.41 -3.29,0.48 -5.31,0.21 -2.02,-0.27 -3.89,-0.85 -5.58,-1.73 -1.88,-0.98 -2.99,-2.06 -3.34,-3.22 -0.35,-1.16 0.16,-2.07 1.52,-2.73 1.37,-0.67 3.19,-0.89 5.48,-0.68 2.28,0.21 4.35,0.79 6.19,1.74zm13.24 -4.84l27.52 20.2 -6.52 3.59 -28.02 -20.87 -5.09 2.54 -4.91 -4.78 6.66 -3.24c0.87,-0.43 1.98,-0.57 3.31,-0.43 1.44,0.15 2.89,0.58 4.36,1.31 0.93,0.46 1.82,1.02 2.68,1.69z"/>
 </g>
</svg>
