<?xml version="1.0" encoding="UTF-8"?>
<!DOCTYPE svg PUBLIC "-//W3C//DTD SVG 1.1//EN" "http://www.w3.org/Graphics/SVG/1.1/DTD/svg11.dtd">
<!-- Creator: CorelDRAW -->
<svg xmlns="http://www.w3.org/2000/svg" xml:space="preserve" width="0.333331in" height="0.333331in" version="1.1" style="shape-rendering:geometricPrecision; text-rendering:geometricPrecision; image-rendering:optimizeQuality; fill-rule:evenodd; clip-rule:evenodd"
viewBox="0 0 333.33 333.33"
 xmlns:xlink="http://www.w3.org/1999/xlink"
 xmlns:xodm="http://www.corel.com/coreldraw/odm/2003">
 <defs>
  <style type="text/css">
   <![CDATA[
    .fil1 {fill:#BF9000}
    .fil4 {fill:#FEFEFE;fill-rule:nonzero}
    .fil0 {fill:#BF9000;fill-rule:nonzero}
    .fil3 {fill:#FEFEFE;fill-rule:nonzero}
    .fil2 {fill:white;fill-rule:nonzero;fill-opacity:0.019608}
   ]]>
  </style>
 </defs>
 <g id="Layer_x0020_1">
  <metadata id="CorelCorpID_0Corel-Layer"/>
  <polygon class="fil0" points="51.71,235.81 51.38,102.78 170.5,177.38 169.89,309.7 "/>
  <g id="_2149077503648">
   <polygon class="fil1" points="95.74,211.34 126.17,230.36 126.3,201.72 95.67,182.54 "/>
  </g>
  <polygon class="fil0" points="178.78,177.31 298.28,102.8 298.08,236.82 179.15,309.75 "/>
  <g id="_2149077500384">
   <polygon class="fil1" points="222.94,201.74 223.02,231.13 254.03,212.12 254.07,182.32 "/>
  </g>
  <polygon class="fil0" points="56.27,96.27 175.6,30.61 292.74,95.86 174.08,169.85 "/>
  <g id="_2149077502016">
   <polygon class="fil1" points="57.14,96.3 174.08,169.33 291.87,95.89 175.6,31.12 "/>
  </g>
  <path class="fil2" d="M249.64 227.12l-12.71 7.94 0 -10.24c0,-4.49 0.62,-8.56 1.87,-12.22 1.24,-3.66 3.85,-8.65 7.86,-14.96l5.98 -9.66c2.53,-3.93 4.35,-7.29 5.46,-10.07 1.15,-2.81 1.73,-5.3 1.73,-7.47 0,-3.94 -1.46,-6.22 -4.39,-6.83 -2.88,-0.65 -6.72,0.53 -11.5,3.53 -3.5,2.19 -7.25,5.31 -11.25,9.36 -3.94,4.01 -8.06,8.85 -12.36,14.52l0 -12.52c4.16,-5.12 8.37,-9.64 12.63,-13.54 4.3,-3.93 8.73,-7.33 13.31,-10.18 8.17,-5.1 14.71,-7.04 19.64,-5.81 4.97,1.2 7.45,5.33 7.45,12.38 0,3.37 -0.8,7.09 -2.4,11.14 -1.59,4 -4.39,9.16 -8.39,15.47l-5.84 9.38c-2.09,3.39 -3.57,5.96 -4.46,7.72 -0.84,1.67 -1.44,3.17 -1.8,4.5 -0.26,1.09 -0.46,2.35 -0.59,3.77 -0.14,1.41 -0.21,3.27 -0.21,5.58l0 8.18 -0.02 0.04 0 0zm-13.11 17.96l13.51 -8.43 0 16.9 -13.51 8.42 0 -16.89z"/>
  <path class="fil3" d="M289.74 143.7c-0.01,7.96 -2.97,17.2 -8.89,27.78 -3.55,6.37 -8.94,14.29 -16.15,23.76 2.95,5.32 4.42,10.91 4.42,16.72 -0.01,11.97 -5.46,24.17 -16.36,36.6 -7.76,8.85 -16.81,16.42 -27.11,22.74l-29.24 17.93 20.11 -94.72 20.37 -12.65 -17.24 80.32 2.87 -1.76c6.58,-4.04 12.15,-8.53 16.7,-13.46 6.76,-7.42 10.14,-14.85 10.14,-22.26 0,-2.36 -0.76,-4.72 -2.27,-7.09 -1.51,-2.37 -2.26,-4.32 -2.26,-5.8 0,-0.77 0.04,-1.31 0.11,-1.69 0.75,-2.83 2.8,-6.41 6.17,-10.75 4.67,-6.06 8.06,-11.1 10.24,-15.12 3.63,-6.72 5.46,-13.04 5.47,-18.93 0,-8.32 -4.45,-9.7 -13.36,-4.16l-66.13 41.11 8.6 -25.64 66.09 -41.22c8.74,-5.45 15.31,-7.86 19.68,-7.22 5.37,0.76 8.05,5.94 8.04,15.54l0 0z"/>
  <path class="fil3" d="M161.75 236.94c-1.24,7.25 -4.17,9.43 -8.76,6.56l-21.19 -13.26 -6.78 34.82 -12.75 -7.98 6.71 -34.87 -11.01 -6.89c-11.98,22.98 -23.67,30.86 -35.08,23.72 -3.32,-2.07 -6.13,-5.13 -8.41,-9.14 -2.88,-5.1 -4.33,-10.87 -4.35,-17.28 -0.01,-5.47 1.05,-10.14 3.17,-14.02 3.44,-6.23 8.64,-9.17 15.63,-8.81 5.47,0.31 11.52,2.52 18.14,6.67l6.93 4.33 21.66 -41.5 17.46 10.94 -9.37 49.18 28 17.52 0 0zm-33.3 -63.35l-15.72 32.67 8 5.01 7.72 -37.68zm-29.26 36.24c-8.92,-5.58 -15.17,-6.8 -18.76,-3.62 -2.96,2.67 -4.44,6.54 -4.44,11.59 0.01,4.31 1.08,7.13 3.22,8.47 2.95,1.84 6.63,0.63 11.03,-3.61 3.87,-3.66 6.85,-7.93 8.95,-12.83l0 0z"/>
  <path class="fil4" d="M154.13 75.11c5.06,2.97 8.85,6.28 11.34,9.94l28.17 41.06c4,5.88 4.31,10.02 0.82,12.36l-8.31 5.57 -68.17 -45.7 -15.68 8.95 -9.57 -12.11 16.5 -9.11c1.8,-0.99 4.26,-1.24 7.4,-0.76 3.14,0.5 6.2,1.63 9.19,3.44 0.38,0.23 0.77,0.48 1.12,0.72l58.43 39.4 -27.21 -39.94c-2.69,0.74 -5.98,0.73 -9.84,-0.03 -3.87,-0.77 -7.55,-2.19 -10.99,-4.24 -3.82,-2.28 -6.24,-4.68 -7.26,-7.22 -1.01,-2.51 -0.35,-4.41 1.99,-5.7 2.35,-1.29 5.67,-1.6 10,-0.92 4.32,0.67 8.35,2.1 12.07,4.3zm25.15 -27.72l18.74 21.71c4.11,0.02 8.9,0.74 14.35,2.19 5.83,1.51 10.94,3.5 15.34,5.95 9.43,5.25 15.43,10.57 17.97,15.98 2.15,4.58 1.7,8.9 -1.39,12.98 -1.96,2.62 -5.1,5.17 -9.45,7.61 -2.29,1.27 -5.6,1.61 -9.97,1 -4.59,-0.65 -9.05,-2.23 -13.33,-4.73 -4.3,-2.51 -7.04,-5.11 -8.27,-7.83 -1.13,-2.56 -0.63,-4.48 1.44,-5.78 2.1,-1.32 5.24,-1.7 9.46,-1.13 4.45,0.62 8.8,2.14 13.04,4.56 1.98,1.13 3.62,2.29 4.93,3.46 1.9,-1.56 1.67,-3.85 -0.67,-6.84 -2.22,-2.89 -5.8,-5.71 -10.74,-8.52 -5.71,-3.23 -11.76,-5.22 -18.17,-5.98 -5.38,-0.62 -9.48,-0.33 -12.33,0.88l-12 -16.82 -16.43 9.42 -12.93 -11.33 30.41 -16.79z"/>
 </g>
</svg>
