<svg xmlns="http://www.w3.org/2000/svg" viewBox="0 0 546.203 522.184"><defs><clipPath id="a" clipPathUnits="userSpaceOnUse"><path d="M-190.236 287.293h409.652v-391.638h-409.652Z"/></clipPath><clipPath id="b" clipPathUnits="userSpaceOnUse"><path d="M-114.349 290.396h409.652v-391.638h-409.652Z"/></clipPath><clipPath id="c" clipPathUnits="userSpaceOnUse"><path d="M-379.566 290.396H30.086v-391.638h-409.652Z"/></clipPath><clipPath id="d" clipPathUnits="userSpaceOnUse"><path d="M-279.239 202.755h409.652v-391.638h-409.652Z"/></clipPath><clipPath id="e" clipPathUnits="userSpaceOnUse"><path d="M-105.798 330.583h409.652V-61.055h-409.652Z"/></clipPath><clipPath id="f" clipPathUnits="userSpaceOnUse"><path d="M-178.188 351.143h409.652V-40.495h-409.652Z"/></clipPath><clipPath id="g" clipPathUnits="userSpaceOnUse"><path d="M-241.805 354.021h409.652V-37.617h-409.652Z"/></clipPath><clipPath id="h" clipPathUnits="userSpaceOnUse"><path d="M-281.915 362.981h409.652V-28.657h-409.652Z"/></clipPath><clipPath id="i" clipPathUnits="userSpaceOnUse"><path d="M-172.045 35.304h409.652v-391.638h-409.652Z"/></clipPath><clipPath id="j" clipPathUnits="userSpaceOnUse"><path d="M-236.393 35.304h409.652v-391.638h-409.652Z"/></clipPath><clipPath id="k" clipPathUnits="userSpaceOnUse"><path d="M-228.62 118.7h409.652v-391.64H-228.62Z"/></clipPath><clipPath id="l" clipPathUnits="userSpaceOnUse"><path d="M-279.613 31.974H130.04v-391.638h-409.652Z"/></clipPath></defs><path d="M0 0h-30.66v77.096c0 4.104-3.338 7.442-7.442 7.442-4.103 0-7.441-3.338-7.441-7.442V-8.452a6.438 6.438 0 0 1 6.431-6.431H0c4.103 0 7.442 3.338 7.442 7.442C7.442-3.338 4.103 0 0 0" clip-path="url(#a)" transform="matrix(1.333 0 0 -1.333 253.648 383.057)"/><path d="m0 0-35.117 82.182a9.258 9.258 0 0 0-.342.551l-.171.276a8.374 8.374 0 0 1-.758 1.055l-.225.238a8.272 8.272 0 0 1-.938.878l-.326.231a8.283 8.283 0 0 1-1.058.649c-.062.032-.12.063-.175.094-.091.034-.18.07-.269.109a8.182 8.182 0 0 1-1.685.538c-.29.059-.588.104-.895.132a8.441 8.441 0 0 1-3.074-.285 8.28 8.28 0 0 1-1.067-.387 4.903 4.903 0 0 0-.264-.107 5.901 5.901 0 0 0-.164-.088 8.324 8.324 0 0 1-1.089-.668l-.3-.212a8.27 8.27 0 0 1-.952-.892l-.231-.243a8.4 8.4 0 0 1-.753-1.055l-.163-.262a8.983 8.983 0 0 0-.343-.552L-85.515-.091l-.043-.09c-2.008-4.174-.245-9.204 3.929-11.212 4.148-1.994 9.14-.267 11.174 3.85l27.717 64.865 23.359-54.666h-22.009c-4.104 0-7.442-3.338-7.442-7.441 0-4.104 3.338-7.442 7.442-7.442h33.752l.463.019a8.338 8.338 0 0 1 3.325.815C.327-9.385 2.09-4.355.082-.181z" clip-path="url(#b)" transform="matrix(1.333 0 0 -1.333 152.465 387.195)"/><path d="m0 0-35.117 82.182c-.118.179-.234.36-.341.549l-.172.278a8.374 8.374 0 0 1-.758 1.055l-.227.24a8.248 8.248 0 0 1-.936.876l-.327.232a8.307 8.307 0 0 1-1.057.648 4.525 4.525 0 0 0-.175.094c-.092.034-.181.07-.271.109a8.105 8.105 0 0 1-1.683.538c-.29.059-.588.104-.895.132-.54.051-.997.053-1.552.001a8.496 8.496 0 0 1-1.523-.286 8.323 8.323 0 0 1-1.066-.387 5.26 5.26 0 0 0-.264-.107 3.97 3.97 0 0 0-.162-.087 8.402 8.402 0 0 1-1.092-.669l-.299-.212a8.355 8.355 0 0 1-.953-.892l-.23-.243a8.4 8.4 0 0 1-.753-1.055l-.163-.262a8.983 8.983 0 0 0-.343-.552L-85.515-.091l-.043-.09c-2.008-4.174-.245-9.204 3.929-11.212a8.351 8.351 0 0 1 3.326-.815l.529-.019h33.687c4.103 0 7.441 3.338 7.441 7.442 0 4.103-3.338 7.441-7.441 7.441h-22.01l23.359 54.666L-15.02-7.543c2.033-4.117 7.025-5.844 11.173-3.85C.327-9.385 2.09-4.355.082-.181z" clip-path="url(#c)" transform="matrix(1.333 0 0 -1.333 506.087 387.195)"/><path d="M0 0h-72.036c-4.103 0-7.441-3.338-7.441-7.442 0-4.103 3.338-7.441 7.441-7.441h28.279v-77.096c0-4.104 3.338-7.442 7.441-7.442 4.104 0 7.442 3.338 7.442 7.442v77.096H0c4.103 0 7.442 3.338 7.442 7.441C7.442-3.338 4.103 0 0 0" clip-path="url(#d)" transform="matrix(1.333 0 0 -1.333 372.319 270.34)"/><path d="M0 0h6.131v-27.822h17.26v-5.188H0Z" clip-path="url(#e)" transform="matrix(1.333 0 0 -1.333 141.065 440.778)"/><path d="m0 0-6.224 14.429L-12.406 0Zm2.025-4.812h-16.503l-3.255-7.639h-6.317L-9.198 20.56h6.037l14.903-33.011H5.326Z" clip-path="url(#f)" transform="matrix(1.333 0 0 -1.333 237.584 468.19)"/><path d="M0 0c0 3.175-2.376 4.763-7.122 4.763h-9.905v-9.526h9.905C-2.376-4.763 0-3.175 0 0m-17.027 18.628v-9.1h8.68c2.137 0 3.778.384 4.924 1.155 1.15.769 1.721 1.894 1.721 3.372 0 1.508-.571 2.647-1.721 3.418-1.146.769-2.787 1.155-4.924 1.155zm21.6-14.029c1.067-1.4 1.604-3.135 1.604-5.212 0-2.862-1.103-5.069-3.301-6.626C.673-8.794-2.535-9.572-6.748-9.572h-16.409v33.01h15.469c3.895 0 6.898-.762 9.007-2.287 2.104-1.524 3.161-3.624 3.161-6.294 0-1.637-.379-3.082-1.132-4.34A7.762 7.762 0 0 0 .234 7.594c1.824-.598 3.269-1.597 4.339-2.995" clip-path="url(#g)" transform="matrix(1.333 0 0 -1.333 322.407 472.028)"/><path d="M0 0c-2.376.723-4.251 1.681-5.635 2.878l2.123 4.763C-2.16 6.57-.505 5.698 1.464 5.022 3.428 4.347 5.401 4.01 7.379 4.01c2.455 0 4.284.393 5.495 1.178 1.211.786 1.814 1.822 1.814 3.113 0 .942-.336 1.72-1.01 2.333-.678.615-1.534 1.092-2.572 1.44-1.038.344-2.45.737-4.246 1.179-2.516.596-4.55 1.195-6.107 1.791a10.084 10.084 0 0 0-4.008 2.806c-1.113 1.274-1.674 2.995-1.674 5.165 0 1.821.496 3.481 1.487 4.975.992 1.492 2.483 2.68 4.48 3.559 1.997.882 4.438 1.321 7.333 1.321 2.011 0 3.993-.252 5.943-.755 1.95-.503 3.629-1.225 5.046-2.168l-1.936-4.762a19.16 19.16 0 0 1-4.527 1.933c-1.571.44-3.095.66-4.573.66-2.422 0-4.223-.41-5.401-1.228-1.179-.816-1.768-1.901-1.768-3.252 0-.945.337-1.714 1.015-2.311.673-.598 1.534-1.07 2.572-1.416 1.033-.346 2.45-.739 4.241-1.179 2.455-.566 4.466-1.155 6.037-1.768a10.325 10.325 0 0 0 4.031-2.805c1.118-1.258 1.675-2.956 1.675-5.093 0-1.824-.496-3.474-1.483-4.952-.991-1.478-2.492-2.659-4.503-3.538-2.016-.879-4.466-1.321-7.361-1.321C4.835-1.085 2.376-.722 0 0" clip-path="url(#h)" transform="matrix(1.333 0 0 -1.333 375.886 483.975)"/><path d="M0 0a4.443 4.443 0 0 1 4.43 4.43v.27A4.443 4.443 0 0 1 0 9.13h-27.566a4.444 4.444 0 0 1-4.431-4.43v-107.083c0-.609.124-1.191.349-1.72a4.446 4.446 0 0 1 4.082-2.712H0a4.443 4.443 0 0 1 4.43 4.43v.27A4.443 4.443 0 0 1 0-97.685h-22.877V0Z" clip-path="url(#i)" transform="matrix(1.333 0 0 -1.333 229.394 47.072)"/><path d="M0 0a4.443 4.443 0 0 0-4.43 4.43v.27A4.443 4.443 0 0 0 0 9.13h27.566a4.444 4.444 0 0 0 4.431-4.43v-107.083c0-.609-.124-1.191-.349-1.72a4.446 4.446 0 0 0-4.082-2.712H0a4.443 4.443 0 0 0-4.43 4.43v.27A4.443 4.443 0 0 0 0-97.685h22.877V0Z" clip-path="url(#j)" transform="matrix(1.333 0 0 -1.333 315.19 47.072)"/><path d="M0 0c1.276 0 2.496.399 3.593 1.181 2.362 1.685 3.092 4.88 1.837 7.496l-.02.042-.025.059-24.311 56.893-.003.004c-.082.124-.163.25-.237.382l-.053.085-.07.112a5.93 5.93 0 0 1-.546.76l-.046.049c-.039.041-.079.082-.118.125a5.937 5.937 0 0 1-.673.629c-.034.026-.067.048-.099.071l-.133.093a5.792 5.792 0 0 1-.759.466 6.514 6.514 0 0 0-.132.071c-.06.022-.124.048-.194.079a6.012 6.012 0 0 1-2.412.508 5.65 5.65 0 0 1-.555-.028 6.076 6.076 0 0 1-1.095-.204 5.944 5.944 0 0 1-.769-.28 3.039 3.039 0 0 0-.187-.075c-.034-.02-.071-.039-.11-.06a5.929 5.929 0 0 1-.791-.484l-.12-.084c-.031-.022-.063-.043-.093-.066a5.906 5.906 0 0 1-.69-.645l-.109-.115-.053-.056a5.99 5.99 0 0 1-.544-.761l-.065-.103-.054-.087a5.98 5.98 0 0 0-.238-.383l-.002-.003-24.311-56.893-.025-.059-.02-.042c-1.255-2.616-.525-5.81 1.837-7.495C-51.299.399-50.078 0-48.802 0a6.08 6.08 0 0 1 5.425 3.373l16.343 38.247 2.614 6.116a.02.02 0 0 0 .038 0l2.614-6.116L-5.425 3.373A6.08 6.08 0 0 1 0 0" clip-path="url(#k)" transform="matrix(1.333 0 0 -1.333 304.827 158.265)"/><path d="M0 0h.598c.85 0 1.378.033 1.583.098a.926.926 0 0 1 .664.901.89.89 0 0 1-.174.54.953.953 0 0 1-.495.338c-.214.069-.74.103-1.578.103H0Zm-1.472-4.121v7.252H0c1.379 0 2.153-.006 2.319-.018.487-.042.867-.138 1.137-.29.271-.152.497-.384.678-.696.182-.312.272-.658.272-1.039a1.91 1.91 0 0 0-.513-1.342c-.342-.372-.822-.602-1.44-.691.22-.084.389-.174.508-.272.119-.099.283-.285.491-.558.053-.071.232-.366.535-.883l.856-1.463H3.024l-.607 1.178c-.41.79-.749 1.288-1.017 1.494-.267.205-.606.307-1.016.307H0v-2.979ZM1.623 5.03a5.58 5.58 0 0 1-2.702-.704 5.116 5.116 0 0 1-2.038-2.025 5.544 5.544 0 0 1-.745-2.765c0-.957.242-1.87.727-2.738a5.2 5.2 0 0 1 2.029-2.034 5.5 5.5 0 0 1 2.729-.731c.958 0 1.869.244 2.734.731a5.234 5.234 0 0 1 2.029 2.034c.488.868.732 1.781.732 2.738 0 .963-.249 1.885-.745 2.765A5.115 5.115 0 0 1 4.33 4.326a5.604 5.604 0 0 1-2.707.704m-.009 1.338c1.172 0 2.296-.293 3.372-.878a6.348 6.348 0 0 0 2.537-2.52c.616-1.094.924-2.239.924-3.434a6.865 6.865 0 0 0-.906-3.402 6.438 6.438 0 0 0-2.524-2.525c-1.079-.603-2.213-.905-3.403-.905-1.189 0-2.323.302-3.402.905a6.431 6.431 0 0 0-2.524 2.525 6.865 6.865 0 0 0-.906 3.402c0 1.195.308 2.34.923 3.434a6.357 6.357 0 0 0 2.538 2.52c1.076.585 2.2.878 3.371.878" clip-path="url(#l)" transform="matrix(1.333 0 0 -1.333 372.817 42.632)"/></svg>
