<svg xmlns="http://www.w3.org/2000/svg" version="1" height="77.139" width="280"><path d="M225.844 59.113c0-1.332 1.08-2.314 2.357-2.314 1.265 0 2.346.982 2.346 2.314 0 1.344-1.08 2.327-2.346 2.327-1.276 0-2.357-.983-2.357-2.327m2.357 1.94c1.05 0 1.88-.822 1.88-1.94 0-1.099-.83-1.927-1.88-1.927-1.062 0-1.89.828-1.89 1.927 0 1.118.828 1.94 1.89 1.94m-.491-.596h-.405v-2.676h1.02c.632 0 .945.233.945.761 0 .48-.301.688-.694.737l.761 1.178h-.454l-.706-1.16h-.467v1.16l.485-1.504c.344 0 .651-.024.651-.435 0-.332-.3-.393-.583-.393h-.553v.828h.485l-.485 1.504" font-size="16" font-family="Times New Roman" fill-rule="evenodd"/><path d="M49.94 75.16l-9.896-17.65h35.78L57.856 19.475 31.517 75.16H0L41.262 0h33.19l40.958 75.16H49.94m65.624-43.665h39.282c9.895 0 13.855-.61 13.855-7.608 0-6.694-3.198-7.455-13.399-7.455H115.41L106.58 0H162c26.19 0 35.933 11.411 35.933 23.582 0 11.716-8.983 24.648-37.76 24.648H147.08v26.93h-31.67V31.494h.154" font-size="16" font-family="Times New Roman" fill="red" fill-rule="evenodd"/><path d="M280 70.597c-9.44 4.411-21.164 6.542-33.649 6.542-37.76 0-50.701-20.995-50.701-38.34 0-21.908 19.183-38.797 52.223-38.797 12.03 0 22.535 1.826 31.365 5.173V26.93c-9.136-4.868-17.053-6.998-26.34-6.998-15.834 0-28.778 7.151-28.778 18.56 0 11.26 13.247 18.563 29.083 18.563 9.134 0 16.594-1.825 26.797-6.541v20.082" font-size="16" font-family="Times New Roman" fill="red" fill-rule="evenodd"/></svg>