<svg xmlns="http://www.w3.org/2000/svg" version="1.2" viewBox="0 0 135.2 68"><path d="M.1 45.8h135v.7H.1z" fill="#5f696e"/><path d="M2 60.7c.8-1.1 1.3-1.6 2.1-1.6 1 0 1.7.8 1.7 1.9 0 .8-.3 1.6-1 2.5-1 1.3-1.9 1.9-2.9 1.9-1.1 0-1.8-.7-1.8-1.7 0-.3.1-.7.3-1.5L2 57.1l.1-.1c.1-.2.1-.3.1-.4 0-.2-.2-.3-.5-.3h-.5l.1-.5h.1c1 0 1.3 0 1.8-.1h.3l-1.5 5m.2 4.1c.7 0 1.3-.5 1.8-1.4.4-.7.6-1.5.6-2 0-.8-.4-1.3-1.1-1.3-.5 0-1 .4-1.4 1-.3.5-.5 1-.8 1.9-.1.4-.2.6-.2.8 0 .5.3.9.8 1h.3zm5.8-4c-.1-.6-.2-.8-.4-.8-.3 0-.6.5-.9 1.2h-.4c.2-.7.4-1.2.7-1.5.3-.4.8-.6 1.1-.6.4 0 .6.3.8 1l1.1 4.7.1-.2c.6-.8.9-1.3 1.2-1.9.1-.3.2-.6.3-.8.1-.3.1-.5.1-.7 0-.3 0-.5-.2-.8-.2-.3-.2-.4-.2-.5 0-.3.3-.6.6-.6.4 0 .7.4.7 1.1 0 1.3-1 3.3-2.6 5.2C8.6 67.1 7.1 68 5.7 68c-.6 0-1.1-.3-1.1-.7 0-.3.3-.6.6-.6.2 0 .3 0 .7.3.2.2.4.3.6.3.7 0 1.8-.6 2.7-1.6L8 60.8" fill="#00b153"/><path d="M23.7 58.3c-1.4-.6-2.2-.9-3-.9-.9 0-1.4.3-1.4.8 0 1.4 4.9 1 4.9 4.4 0 1.8-1.5 2.9-3.7 2.9-1.7 0-2.5-.4-3.4-.9v-2.1c1.4.9 2.2 1.2 3.3 1.2.9 0 1.4-.3 1.4-.9 0-1.6-4.9-1-4.9-4.4 0-1.7 1.4-2.7 3.6-2.7 1.1 0 2 .2 3.2.7v1.9m7.4 6.7c-.8.3-1.5.4-2.2.4-2.3 0-3.7-1.3-3.7-3.3 0-2 1.5-3.4 3.7-3.4.7 0 1.5.2 2.2.4v1.5c-.5-.3-1.1-.4-1.7-.4-1.2 0-2 .7-2 1.9 0 1.1.8 1.9 1.9 1.9.5 0 .9-.1 1.8-.4V65m3.5-5.2c.6-.7 1.3-1.1 2.1-1.1 1.2 0 2.4.7 2.4 2.5v4.1h-2v-3.7c0-1-.4-1.4-1.1-1.4-.5 0-.9.3-1.4 1v4.1h-2v-9.6h2v4.1m8.1 0c.6-.7 1.3-1 2.1-1 1 0 2.4.6 2.4 2.5v4.1h-2v-3.9c0-.9-.4-1.3-1-1.3-.5 0-.9.3-1.4 1.1v4.2h-2V59h2v.8m12.3 4.8c-1.2.9-2.4.9-2.9.9-2.3 0-3.7-1.3-3.7-3.3 0-2 1.4-3.4 3.4-3.4 1.9 0 3.4 1.3 3.3 3.7h-4.6c.1 1.1.9 1.8 2.1 1.8.8 0 1.4-.2 2.4-.9v1.2m-1.6-3.2c-.1-.9-.6-1.4-1.4-1.4-.8 0-1.3.5-1.4 1.4h2.8zm5.2-4.6c0 .6-.5 1.1-1.1 1.1-.6 0-1.1-.5-1.1-1.1 0-.6.5-1.1 1.1-1.1.6 0 1.1.5 1.1 1.1m-2.1 2.1h2v6.5h-2v-6.5zm10.3 6.5h-2v-.5c-.6.5-1.1.6-1.8.6-1.7 0-3-1.4-3-3.4s1.3-3.3 3.1-3.3c.6 0 1.1.1 1.7.4v-3.4h2v9.6m-2.1-4.9c-.3-.2-.8-.4-1.1-.4-1 0-1.6.7-1.6 2 0 1.2.6 2 1.6 2 .4 0 .8-.2 1.2-.5v-3.1zm10 4.1c-1.2.9-2.4.9-2.9.9-2.3 0-3.7-1.3-3.7-3.3 0-2 1.4-3.4 3.4-3.4 1.9 0 3.4 1.3 3.3 3.7h-4.6c.1 1.1.9 1.8 2.1 1.8.8 0 1.4-.2 2.4-.9v1.2m-1.6-3.2c-.1-.9-.6-1.4-1.4-1.4-.8 0-1.3.5-1.4 1.4h2.8zm5.2-.7c.6-1.3 1.3-2 2.1-2 .4 0 .8.2 1.3.6l-.6 1.8c-.5-.3-.9-.5-1.2-.5-.7 0-1.2.7-1.7 1.9v2.8h-2v-6.5h2v1.9m15.4 4.7h-7v-9.6h6.9v1.7h-4.5v2.1h4.3v1.7h-4.3v2.3h4.6v1.8m1.7-9.6h2v9.6h-2zm10 8.8c-1.2.9-2.4.9-2.9.9-2.3 0-3.7-1.3-3.7-3.3 0-2 1.4-3.4 3.4-3.4 1.9 0 3.4 1.3 3.3 3.7h-4.6c.1 1.1.9 1.8 2.1 1.8.8 0 1.4-.2 2.4-.9v1.2m-1.6-3.2c-.1-.9-.6-1.4-1.4-1.4-.8 0-1.3.5-1.4 1.4h2.8zm8.7 3.6c-.8.3-1.5.4-2.2.4-2.3 0-3.7-1.3-3.7-3.3 0-2 1.5-3.4 3.7-3.4.7 0 1.5.2 2.2.4v1.5c-.5-.3-1.1-.4-1.7-.4-1.2 0-2 .7-2 1.9 0 1.1.8 1.9 1.9 1.9.5 0 .9-.1 1.8-.4V65m6-4.7h-2.4V63c0 .6.4 1 1 1 .4 0 .8-.1 1.4-.4v1.5c-.7.3-1.2.4-1.9.4-1.3 0-2.5-.6-2.5-2.4v-2.8h-.9v-.4l2.7-3h.3v2h2.4v1.4m3.1.4c.6-1.3 1.3-2 2.1-2 .4 0 .8.2 1.3.6l-.6 1.8c-.5-.3-.9-.5-1.2-.5-.7 0-1.2.7-1.7 1.9v2.8h-2v-6.5h2v1.9m6.4-3.9c0 .6-.5 1.1-1.1 1.1-.6 0-1.1-.5-1.1-1.1 0-.6.5-1.1 1.1-1.1.6 0 1.1.5 1.1 1.1m-2.1 2.1h2v6.5h-2v-6.5zm5.6 3.2c0-1.1.8-1.9 2-1.9.5 0 1.1.2 1.7.4v-1.5c-.7-.2-1.5-.4-2.2-.4-2.1 0-3.7 1.4-3.7 3.4s1.5 3.3 3.7 3.3c.7 0 1.4-.1 2.2-.4v-1.5c-.9.3-1.3.4-1.8.4-1.1.1-1.9-.6-1.9-1.8z" fill="#5f696e"/><path d="M23.9 36.7h31.4L35.6.6H19.7L0 36.6v.1h15L27.7 10l8.6 18.3H19.1m37.2-12.7h18.8c4.8 0 6.6-.3 6.6-3.7 0-3.2-1.5-3.6-6.4-3.6H56.2L52 .4h26.6c12.6 0 17.2 5.5 17.2 11.3 0 5.6-4.3 11.8-18.1 11.8h-6.3v12.9H56.2l.1-20.8" fill="#ed1c3c"/><path d="M134.9 33.9c-4.5 2.1-9.8 3.1-15.8 3.1-18.2 0-24.4-10-24.4-18.4C94.7 8.1 103.9 0 119.8 0c5.8 0 10.8.9 15.1 2.5v10.4c-4.4-2.3-8.2-3.4-12.6-3.4-7.6 0-13.8 3.4-13.8 8.9 0 5.4 6.4 8.9 14 8.9 4.4 0 7.6-.9 12.5-3.1v9.7" fill="#ed1c3c"/></svg>
