<svg viewBox="0 0 708.661 870.291" xmlns="http://www.w3.org/2000/svg" xmlns:xlink="http://www.w3.org/1999/xlink"><clipPath id="a"><path d="m45.315 71.927h12.92v15.867h-12.92z"/></clipPath><g fill="#b3b3b3"><g clip-path="url(#a)" transform="matrix(54.85033 0 0 -54.85033 -2485.548 4815.51)"><path d="m56.105 79.364c-.018 2.008 1.64 2.972 1.715 3.019-.933 1.365-2.385 1.552-2.903 1.574-1.235.125-2.411-.727-3.037-.727s-1.594.709-2.618.689c-1.348-.02-2.589-.783-3.283-1.989-1.399-2.427-.357-6.024 1.005-7.994.667-.963 1.461-2.048 2.505-2.008 1.006.04 1.386.65 2.6.65s1.556-.65 2.619-.631c1.081.021 1.767.984 2.429 1.95.764 1.118 1.08 2.2 1.098 2.257-.024.01-2.108.809-2.13 3.21"/></g><path d="m482.274 138.989c30.387-36.805 50.9-87.98 45.25-138.989-43.773 1.757-96.755 29.18-128.185 65.985-28.138 32.528-52.82 84.634-46.131 134.604 48.818 3.784 98.675-24.85 129.066-61.6"/></g></svg>