<?xml version="1.0" encoding="UTF-8" standalone="no"?>
<svg
   version="1.1"
   id="svg8"
   viewBox="0 0 326.76401 327.53"
   xmlns:xlink="http://www.w3.org/1999/xlink"
   xmlns="http://www.w3.org/2000/svg"
   xmlns:svg="http://www.w3.org/2000/svg">
  <defs
     id="defs1">
    <path
       id="a"
       d="m 0.671,0.106 h 326.764 v 327.53 H 0.671 Z" />
    <path
       id="c"
       d="m 164.052,0.105 c -90.232,0 -163.38,73.32 -163.38,163.765 0,90.448 73.148,163.766 163.38,163.766 90.237,0 163.383,-73.318 163.383,-163.766 0,-90.446 -73.146,-163.765 -163.383,-163.765 z" />
  </defs>
  <g
     fill="none"
     fill-rule="evenodd"
     id="g8"
     transform="translate(-0.671,-0.106)">
    <g
       id="g1">
      <mask
         id="b"
         fill="#ffffff">
        <use
           xlink:href="#a"
           id="use1" />
      </mask>
      <path
         fill="#d1d2d3"
         d="M 0.671,163.87 C 0.671,73.424 73.82,0.106 164.053,0.106 c 90.236,0 163.382,73.318 163.382,163.764 0,90.448 -73.146,163.766 -163.382,163.766 C 73.82,327.636 0.671,254.318 0.671,163.87"
         mask="url(#b)"
         id="path1" />
    </g>
    <g
       id="g2">
      <mask
         id="d"
         fill="#ffffff">
        <use
           xlink:href="#c"
           id="use2" />
      </mask>
      <path
         fill="#a7a9ac"
         d="m -37.145,347.503 h 399.82 V 147.754 h -399.82 z"
         mask="url(#d)"
         id="path2" />
    </g>
    <path
       fill="#fefefe"
       d="M 7.552,163.87 C 7.552,77.235 77.566,7.004 163.939,7.004 c 86.37,0 156.387,70.23 156.387,156.866 0,86.635 -70.018,156.865 -156.387,156.865 -86.373,0 -156.387,-70.23 -156.387,-156.865"
       id="path3" />
    <path
       fill="#fefefe"
       d="M 163.938,7.893 C 78.194,7.893 8.437,77.864 8.437,163.871 c 0,86.006 69.757,155.975 155.501,155.975 85.745,0 155.504,-69.97 155.504,-155.975 0,-86.007 -69.76,-155.978 -155.504,-155.978 m 0,313.73 C 77.218,321.623 6.666,250.853 6.666,163.871 6.666,76.884 77.219,6.117 163.938,6.117 c 86.722,0 157.275,70.767 157.275,157.754 0,86.983 -70.553,157.751 -157.275,157.751"
       id="path4" />
    <path
       fill="#80add0"
       d="M 200.006,100.17 124.81,175.014 70.332,190.339 193.478,67.613 Z"
       id="path5" />
    <path
       fill="#221e1f"
       d="m 77.45,220.09 7.23,14.178 H 69.506 l 7.506,-14.177 h 0.439 z m -7.562,-7.142 -19.613,38.137 h 10.629 l 4.656,-9.177 h 23.066 l 4.603,9.177 h 10.684 L 84.298,212.948 Z"
       id="path6" />
    <path
       fill="#221e1f"
       d="m 127.362,234.984 h 9.093 c 0,-1.576 -0.2,-3.022 -0.602,-4.342 a 7.737,7.737 0 0 0 -2.027,-3.517 c -0.95,-0.988 -2.248,-1.759 -3.89,-2.31 -1.645,-0.586 -3.708,-0.877 -6.19,-0.877 h -3.672 c -1.169,0 -2.173,0.11 -3.014,0.33 -0.841,0.219 -1.57,0.512 -2.19,0.88 a 6.237,6.237 0 0 0 -1.481,1.263 8.25,8.25 0 0 0 -0.932,1.538 v -4.01 H 103.2 v 27.146 h 9.258 v -14.288 c 0,-1.867 0.567,-3.407 1.7,-4.617 1.17,-1.243 2.85,-1.868 5.04,-1.868 h 2.356 c 1.132,0 2.065,0.147 2.794,0.44 0.767,0.293 1.371,0.677 1.809,1.155 0.437,0.474 0.749,0.988 0.931,1.538 0.183,0.55 0.275,1.06 0.275,1.539 m 44.211,7.089 v -0.824 h -8.656 c 0,0.55 -0.09,1.045 -0.273,1.483 -0.147,0.44 -0.494,0.807 -1.043,1.1 -0.546,0.258 -1.332,0.458 -2.354,0.604 -0.988,0.146 -2.32,0.22 -4,0.22 h -2.193 c -2.993,0 -5.095,-0.476 -6.3,-1.43 -1.205,-0.952 -1.81,-2.526 -1.81,-4.725 v -1.758 c 0,-1.173 0.13,-2.162 0.387,-2.969 0.255,-0.806 0.692,-1.465 1.314,-1.977 0.62,-0.513 1.442,-0.88 2.465,-1.1 1.06,-0.257 2.356,-0.385 3.891,-0.385 h 2.08 c 1.681,0 3.033,0.075 4.056,0.22 1.022,0.109 1.807,0.311 2.357,0.606 0.585,0.256 0.966,0.586 1.15,0.988 0.182,0.366 0.273,0.806 0.273,1.32 h 8.656 v -0.551 c 0,-1.576 -0.218,-2.93 -0.657,-4.066 -0.438,-1.173 -1.224,-2.125 -2.355,-2.857 -1.132,-0.735 -2.703,-1.264 -4.711,-1.595 -1.975,-0.366 -4.493,-0.549 -7.562,-0.549 h -4.109 c -2.924,0 -5.352,0.238 -7.287,0.714 -1.936,0.44 -3.489,1.137 -4.658,2.09 -1.131,0.952 -1.935,2.197 -2.412,3.735 -0.474,1.538 -0.71,3.372 -0.71,5.496 v 3.516 c 0,2.126 0.218,3.94 0.657,5.442 0.475,1.466 1.298,2.676 2.465,3.628 1.169,0.915 2.775,1.591 4.823,2.032 2.045,0.403 4.655,0.604 7.834,0.604 h 4.109 c 3.104,0 5.607,-0.2 7.507,-0.604 1.935,-0.402 3.412,-0.988 4.438,-1.759 1.057,-0.767 1.753,-1.703 2.08,-2.803 0.366,-1.135 0.548,-2.416 0.548,-3.846 m 27.723,9.012 c 3.944,0 7.16,-0.183 9.643,-0.549 2.52,-0.401 4.49,-1.172 5.918,-2.307 1.424,-1.174 2.391,-2.821 2.903,-4.947 0.547,-2.16 0.822,-5 0.822,-8.518 v -4.617 c 0,-3.444 -0.275,-6.283 -0.822,-8.517 -0.512,-2.272 -1.479,-4.049 -2.903,-5.331 -1.388,-1.318 -3.326,-2.235 -5.808,-2.748 -2.485,-0.512 -5.68,-0.768 -9.588,-0.768 h -8.055 c -3.726,0 -6.775,0.256 -9.148,0.768 -2.377,0.477 -4.238,1.375 -5.59,2.693 -1.315,1.282 -2.227,3.059 -2.74,5.33 -0.474,2.27 -0.713,5.186 -0.713,8.738 v 4.617 c 0,3.297 0.257,5.99 0.769,8.08 0.512,2.086 1.425,3.737 2.74,4.945 1.35,1.21 3.196,2.033 5.534,2.472 2.335,0.44 5.332,0.66 8.984,0.66 h 8.054 z m -0.33,-29.676 c 2.301,0 4.129,0.109 5.48,0.329 1.386,0.185 2.446,0.606 3.177,1.265 0.731,0.623 1.206,1.522 1.426,2.693 0.255,1.172 0.384,2.71 0.384,4.616 v 3.956 c 0,1.832 -0.13,3.3 -0.384,4.399 -0.22,1.097 -0.695,1.959 -1.426,2.583 -0.731,0.586 -1.771,0.97 -3.122,1.152 -1.351,0.183 -3.142,0.276 -5.372,0.276 h -7.23 c -2.081,0 -3.744,-0.11 -4.986,-0.33 -1.241,-0.221 -2.19,-0.622 -2.849,-1.21 -0.659,-0.622 -1.094,-1.464 -1.314,-2.526 -0.22,-1.063 -0.328,-2.455 -0.328,-4.178 v -3.958 c 0,-1.904 0.108,-3.443 0.328,-4.615 0.22,-1.173 0.655,-2.09 1.314,-2.748 0.694,-0.66 1.68,-1.098 2.96,-1.318 1.315,-0.258 3.05,-0.386 5.206,-0.386 h 6.737 z m 35.283,-8.462 c -2.447,0 -4.545,0.2 -6.3,0.604 -1.716,0.366 -3.123,0.988 -4.217,1.869 -1.098,0.88 -1.9,2.032 -2.412,3.462 -0.512,1.393 -0.767,3.094 -0.767,5.11 0,2.383 0.236,4.27 0.712,5.66 0.51,1.357 1.334,2.4 2.467,3.134 1.13,0.696 2.575,1.172 4.326,1.43 1.79,0.255 3.983,0.438 6.576,0.547 l 14.573,0.606 c 1.314,0.072 2.375,0.2 3.177,0.385 0.841,0.181 1.479,0.458 1.918,0.824 0.477,0.329 0.804,0.752 0.987,1.263 0.182,0.476 0.274,1.062 0.274,1.759 0,1.538 -0.492,2.565 -1.479,3.076 -0.986,0.514 -2.483,0.771 -4.493,0.771 H 234.36 c -1.278,0 -2.337,-0.293 -3.177,-0.879 -0.839,-0.586 -1.26,-1.355 -1.26,-2.307 h -9.314 c 0,1.83 0.2,3.424 0.602,4.78 0.438,1.355 1.15,2.492 2.138,3.407 1.022,0.88 2.357,1.54 4,1.979 1.642,0.44 3.67,0.659 6.08,0.659 h 18.848 c 2.375,0 4.382,-0.219 6.027,-0.66 1.643,-0.438 2.959,-1.134 3.945,-2.086 1.024,-0.954 1.754,-2.145 2.191,-3.575 0.437,-1.465 0.657,-3.222 0.657,-5.275 0,-2.526 -0.273,-4.523 -0.822,-5.99 -0.547,-1.466 -1.369,-2.583 -2.465,-3.352 -1.059,-0.807 -2.412,-1.336 -4.055,-1.594 -1.608,-0.293 -3.486,-0.476 -5.643,-0.549 l -16.818,-0.66 c -0.659,-0.038 -1.263,-0.073 -1.81,-0.11 a 5.024,5.024 0 0 1 -1.424,-0.384 2.41,2.41 0 0 1 -0.877,-0.935 c -0.22,-0.438 -0.329,-1.044 -0.329,-1.815 0,-1.464 0.42,-2.416 1.26,-2.856 0.842,-0.478 1.9,-0.714 3.18,-0.714 h 15.285 c 0.95,0 1.714,0.055 2.302,0.163 0.62,0.112 1.095,0.293 1.422,0.55 0.365,0.256 0.604,0.587 0.714,0.99 0.145,0.403 0.22,0.897 0.22,1.483 h 9.807 c 0,-3.663 -1.153,-6.373 -3.453,-8.134 -2.3,-1.758 -5.845,-2.636 -10.628,-2.636 h -16.712 z m 39.095,5.288 -0.356,-4.61 h -1.318 l -0.795,2.272 c -0.1,0.337 -0.202,0.728 -0.319,1.151 h -0.017 a 33.154,33.154 0 0 0 -0.305,-1.169 l -0.793,-2.254 h -1.37 l -0.338,4.61 h 0.879 l 0.17,-2.711 c 0.017,-0.425 0.033,-0.865 0.033,-1.288 h 0.052 c 0.1,0.407 0.235,0.949 0.319,1.304 l 0.828,2.627 h 0.946 l 0.827,-2.56 c 0.136,-0.422 0.271,-0.964 0.391,-1.371 h 0.05 c 0.016,0.49 0.016,0.93 0.034,1.288 l 0.168,2.71 h 0.914 z m -9.732,-4.61 v 0.764 h 1.47 v 3.846 h 0.912 v -3.846 h 1.47 v -0.764 z"
       id="path7" />
    <path
       fill="#045da3"
       d="m 234.705,66.046 28.442,141.777 -107.399,-43.856 60.623,6.37 -20.906,-104.29 z"
       id="path8" />
  </g>
</svg>
