<svg viewBox="160.6 269.2 470.7 73.6" xmlns="http://www.w3.org/2000/svg"><path d="m262.2 342.8-44.4-70.1c-2.7-4.6-10-4.6-13.1.2l-44 69.9h14.6l13.3-21.1h28.4l7.5-12.1h-28.5l15.5-24.3 36.2 57.3zm369.2 0-44.4-70.1c-2.7-4.6-10-4.6-13.1.2l-44 69.9h14.6l13.3-21.1h28.4l7.5-12.1h-28.4l15.5-24.2 36.2 57.3zm-304-29.9c12.1 0 21.8-9.7 21.8-21.8s-9.7-21.8-21.8-21.8h-59.9v73.5h13.4v-61.5h46.4c5.5 0 9.9 4.4 9.9 9.8s-4.4 9.8-9.9 9.8h-38.3l43.2 41.7h17.4l-30.9-29.6zm153.2-43.7-7.9 12h32.6v61.6h13.4v-61.6h29v-11.9zm-30.9 30.8h-38.4c-5.2 0-9.4-4.2-9.4-9.4s4.2-9.4 9.4-9.4h47.6l7.5-12.1h-55.1c-11.8 0-21.3 9.6-21.3 21.3 0 11.8 9.6 21.3 21.3 21.3h38.4c5.2 0 9.4 4.2 9.4 9.4s-4.2 9.4-9.4 9.4l-50.3.1-7.5 12.1h57.8c11.8 0 21.3-9.6 21.3-21.3 0-11.8-9.5-21.4-21.3-21.4m-86.4-30.5-.1 73.3h13.5v-73.4z" fill="#002d5c"/></svg>