<svg xmlns="http://www.w3.org/2000/svg" viewBox="160.6 269.2 470.7 73.6"><path fill="#002D5C" d="M262.2 342.8l-44.4-70.1c-2.7-4.6-10-4.6-13.1.2l-44 69.9h14.6l13.3-21.1H217l7.5-12.1H196l15.5-24.3 36.2 57.3 14.5.2m369.2 0L587 272.7c-2.7-4.6-10-4.6-13.1.2l-44 69.9h14.6l13.3-21.1h28.4l7.5-12.1h-28.4l15.5-24.2 36.2 57.3 14.4.1m-304-29.9c12.1 0 21.8-9.7 21.8-21.8 0-12.1-9.7-21.8-21.8-21.8h-59.9v73.5h13.4v-61.5h46.4c5.5 0 9.9 4.4 9.9 9.8s-4.4 9.8-9.9 9.8H289l43.2 41.7h17.4L318.7 313l8.7-.1m153.2-43.7l-7.9 12h32.6v61.6h13.4v-61.6h29v-11.9l-67.1-.1M449.7 300h-38.4c-5.2 0-9.4-4.2-9.4-9.4s4.2-9.4 9.4-9.4h47.6l7.5-12.1h-55.1c-11.8 0-21.3 9.6-21.3 21.3 0 11.8 9.6 21.3 21.3 21.3h38.4c5.2 0 9.4 4.2 9.4 9.4s-4.2 9.4-9.4 9.4l-50.3.1-7.5 12.1h57.8c11.8 0 21.3-9.6 21.3-21.3 0-11.8-9.5-21.4-21.3-21.4m-86.4-30.5l-.1 73.3h13.5v-73.4l-13.4.1"/></svg>