<svg xmlns="http://www.w3.org/2000/svg" viewBox="0 0 169.5 169.5"><path d="M168.33 54.44h.17v.16h-.17L40.67 80.43h-.5l-.17-.17-.17-.17v-.34H40v-.17h.17l55.5-13.84.66-.17.67-.34.83-.17.67-.5.83-.34.5-.5.5-.67.34-.67-.17-.67-.33-.67-.5-.67-1-.67-1-.67-1.17-.5-1.5-.5-1.5-.67-3.17-.84-1.66-.5-1.5-.34-1.5-.33-1.34-.17-1.33-.33-.83-.17h-.84l-.5-.17h-.16z" fill="#161d8c" fill-rule="evenodd"/><path d="M15.83 97.61l-4 6h7.84zm-1.33-6.17h2.83L32 112.94h-.17l-.5-.17h-.66l-.84-.33-1-.17-1-.33-1.16-.34-1-.5-1-.5-.84-.5-.5-.67-1.66-2.67h-12l-1.17 1.5-.83 1.17-1 .83-1.17.83-1.17.5-1 .5-1.16.33-.84.16-.66.16-.5.17H0zm38.17 3.83v5.67l1 .16h1.5l1.83-.17h1.5l1.17-.17 1-.33.83-.5.5-.5.33-.67.17-1v-.33l-.17-.5-.16-.34-.34-.5-.5-.34-.5-.17-.83-.34h-1zM47 91.77h11.33l2.17.17 2 .33 1.5.5 1.5.5 1.17.67.83.83.67.83.5 1.16v2l-.34 1-.66.83-.67.66-1.33 1-1.5.67-1.67.5 10 9.5H70l-1.17-.34-1.33-.17-1.17-.34-1.33-.5-1.17-.5-1-.67-1-.84-5.33-5.34h-2.33l-1.5-.17v8.83H47zm46.67 3.5v5.67l1 .16h1.5l1.83-.17h1.5l1.17-.17 1-.33.83-.5.5-.5.33-.67.17-1-.17-.33v-.5l-.16-.34-.34-.5-.5-.34-.66-.17-.67-.34h-1zM88 91.77h11.33l2.17.17 1.83.33 1.67.5 1.5.5 1.17.67.83.83.67.83.5 1.16v2l-.5 1-.5.83-.84.66-.83.67-1 .66-1.17.5-1.33.33 10 9.5H111l-1.17-.34-1.33-.17-1.17-.34-1.33-.5-1.17-.5-1-.67-1-.84-5.33-5.34h-2.33l-1.5-.17v8.83H88zm40.17 0h6v21.17h-6zm31.16-.5l2.17.17 2 .16 1.67.33 1.5.33 1.16.5-.16.33-.34.5-.83.83-.5.5-.5.16-.5.33-.5-.17-1.67-.33-1.66-.34-1.84-.17-1 .16-.83.16-.67.17-.66.33-.5.33-.34.33-.16.5-.17.5.17.66.66.66.84.67 1.16.5 1.67.66 2 .66 1.5.5 1.33.5 1.17.5.83.5 1 .5.67.83.67.66.5.83.16.83.17 1-.17 1-.33.83-.67.83-1 .83-1.16.66-1.34.66-1.5.5-1.83.33-1.83.16h-4.5l-2.17-.33-2-.5-2-.67v-.17l.33-.34.34-.33.33-.5.5-.5.67-.34.66-.34.67-.17.83.16 1.67.33 1.5.16 1.67.17h1.33l1.33-.17 1-.17.67-.34.5-.5.33-.5.17-.67-.17-.67-.5-.67-.66-.67-.84-.5-1-.5-1.5-.67-1.83-.67-1.67-.5-1.5-.5-1.16-.5-.84-.5-.83-.5-.67-.67-.5-.67-.5-.67-.16-.83-.17-.84.17-1 .33-1 .5-.67.83-.84 1-.67 1.34-.5 1.33-.5 1.5-.34 1.5-.17z" fill-rule="evenodd"/><path d="M128 69.61l1.83.16 1.67.33 1.67.5 1.5.5-15.17 8v-1.5l.17-1.34.33-1.17.33-1 .5-1 .67-.67.5-.67.67-.5.5-.5.5-.33.33-.17.17-.17h.33l1.83-.34z" fill="#f52c03" fill-rule="evenodd"/><path d="M167.5 54.94l-.5.33-.5.33-.83.33-1 .5-1.17.66-1.17.66-1.33.83-1.5 1-1.67.83-1.5 1.16-1.66 1.16L153 63.9l-1.5 1.16-1.67 1.33-1.5 1.33-1.5 1.5-1.33 1.5-1.17 1.5-1.16 1.5-.84 1.67h-.16l-.17-.34-.5-.34-.67-.33-.66-.5-1-.5-.84-.67-1.16-.5-1.17-.67-1.33-.5-1.5-.5-1.67-.5-1.67-.34-1.83-.17-1.67.16-1.83.33h-.17.17z" fill="#ff9100" fill-rule="evenodd"/><path d="M147.67 76.94h.83l.83 2.16.84-2.17h.66v3.16h-.5v-2.5l-.83 2.5h-.5l-.83-2.5v2.5h-.5zm-3.17 0h2.67v.5h-1v2.66h-.67v-2.67h-1z" fill-rule="evenodd"/></svg>
