<svg xmlns="http://www.w3.org/2000/svg" viewBox="-5840 1394.6 200 97.49831"><style>.st0{fill:#646569}.st1{fill:#f5831f}</style><path fill="#646569" class="st0" d="M-5798.756 1465.053c0-1.082-.811-1.623-1.893-1.623-.947 0-1.623.27-2.299.676v-1.352c.541-.406 1.488-.676 2.57-.676 1.893 0 3.11 1.082 3.11 2.84v5.544h-1.353v-.676c-.27.27-1.217.811-2.163.811-1.623 0-3.11-.946-3.11-2.569 0-1.487 1.352-2.57 3.11-2.57.811 0 1.758.406 2.028.677v-1.082zm0 2.57c-.27-.677-1.082-1.082-1.893-1.082-.947 0-1.893.405-1.893 1.487 0 .947.946 1.487 1.893 1.487.811 0 1.623-.405 1.893-1.081v-.812zm17.444-8.52v11.36h-1.487v-5.14h-6.356v5.14h-1.487v-11.36h1.487v4.868h6.356v-4.868h1.487zm3.381 7.438c0 1.893 1.217 2.84 2.705 2.84.946 0 1.622-.271 2.298-.812v1.217c-.676.54-1.487.676-2.434.676-2.299 0-3.921-1.623-3.921-4.192s1.487-4.327 3.65-4.327 3.382 1.623 3.382 4.057v.54h-5.68zm0-1.082h4.192c0-1.217-.676-2.3-2.028-2.3-.947.136-1.894.812-2.164 2.3zm14.199 3.11l1.758-6.22h1.352l-2.434 8.248h-1.352l-1.758-6.22-1.758 6.22h-1.352l-2.435-8.249h1.353l1.758 6.22 1.622-6.22h1.217l2.029 6.22zm6.085 1.893h-1.352v-12.035h1.352v12.035zm3.245-3.921c0 1.893 1.217 2.84 2.705 2.84.947 0 1.623-.271 2.299-.812v1.217c-.676.54-1.488.676-2.434.676-2.3 0-3.922-1.623-3.922-4.192s1.488-4.327 3.651-4.327 3.38 1.623 3.38 4.057v.54h-5.679zm0-1.082h4.192c0-1.217-.676-2.3-2.028-2.3-.947.136-1.893.812-2.164 2.3zm9.601 5.003h-1.352v-7.032h-1.758v-1.217h1.758v-2.163h1.352v2.163h1.894v1.217h-1.894v7.032zm6.22 0h-1.351v-7.032h-1.758v-1.217h1.758v-2.163h1.352v2.163h1.893v1.217h-1.893v7.032zm9.332-4.598v4.598h-1.488v-11.359h4.192c2.299 0 3.786 1.217 3.786 3.38s-1.487 3.381-3.786 3.381h-2.704zm2.704-5.544h-2.704v4.192h2.704c1.488 0 2.299-.811 2.299-2.164.135-1.081-.676-2.028-2.299-2.028zm9.872 4.733c0-1.082-.812-1.623-1.894-1.623-.946 0-1.622.27-2.298.676v-1.352c.54-.406 1.487-.676 2.569-.676 1.893 0 3.11 1.082 3.11 2.84v5.544h-1.352v-.676c-.27.27-1.217.811-2.164.811-1.623 0-3.11-.946-3.11-2.569 0-1.487 1.352-2.57 3.11-2.57.812 0 1.758.406 2.029.677v-1.082zm0 2.57c-.27-.677-1.082-1.082-1.894-1.082-.946 0-1.893.405-1.893 1.487 0 .947.947 1.487 1.893 1.487.812 0 1.623-.405 1.894-1.081v-.812zm7.031-5.545c.812 0 1.623.135 2.164.676v1.352c-.54-.54-1.352-.81-2.164-.81-1.487 0-2.704 1.08-2.704 2.974s1.217 2.975 2.704 2.975c.812 0 1.488-.27 2.164-.811v1.352c-.54.54-1.352.676-2.164.676-2.163 0-3.921-1.623-3.921-4.327 0-2.434 1.758-4.057 3.921-4.057zm10.954 8.384h-1.758l-3.787-4.057v4.057h-1.352v-12.035h1.352v7.302l3.652-3.516h1.758l-4.057 3.787 4.192 4.462zm5.814-5.409c0-1.082-.81-1.623-1.893-1.623-.946 0-1.622.27-2.299.676v-1.352c.541-.406 1.488-.676 2.57-.676 1.893 0 3.11 1.082 3.11 2.84v5.544h-1.352v-.676c-.27.27-1.217.811-2.164.811-1.623 0-3.11-.946-3.11-2.569 0-1.487 1.352-2.57 3.11-2.57.811 0 1.758.406 2.028.677v-1.082zm0 2.57c-.27-.677-1.081-1.082-1.893-1.082-.946 0-1.893.405-1.893 1.487 0 .947.947 1.487 1.893 1.487.812 0 1.623-.405 1.893-1.081v-.812zm7.708-4.057c-.27-.136-.54-.27-.946-.27-.812 0-1.623.54-1.893 1.487v5.544h-1.353v-8.249h1.353v1.082c.405-.676 1.081-1.217 2.028-1.217.406 0 .676 0 .811.135v1.488zm7.032 5.95c-.406.54-1.352 1.081-2.299 1.081-2.434 0-3.65-1.893-3.65-4.327 0-2.299 1.351-4.327 3.65-4.327 1.082 0 1.893.54 2.3 1.082v-4.733h1.351v12.035h-1.352v-.812zm0-4.869a2.409 2.409 0 0 0-2.163-1.352c-1.623 0-2.435 1.217-2.435 2.975s.947 2.975 2.435 2.975c.81 0 1.622-.54 2.163-1.352v-3.246zm-123.326 12.982v1.352h-5.815v3.651h5.274v1.353h-5.274v3.921h5.815v1.353h-7.167v-11.36l7.167-.27zm1.758 3.11h1.352v1.082c.54-.676 1.352-1.217 2.434-1.217 1.893 0 2.84 1.217 2.84 2.975v5.41h-1.353v-5.14c0-1.081-.54-1.893-1.758-1.893-.946 0-1.758.676-2.028 1.488v5.544h-1.352v-8.249h-.135zm11.223 8.114h-1.352v-7.032h-1.758v-1.217h1.758v-2.164h1.352v2.164h1.894v1.217h-1.894v7.032zm4.057-3.786c0 1.893 1.217 2.84 2.705 2.84.946 0 1.622-.271 2.299-.812v1.217c-.677.54-1.488.676-2.435.676-2.298 0-3.921-1.623-3.921-4.192s1.487-4.327 3.651-4.327 3.38 1.623 3.38 4.057v.54h-5.679zm.135-1.082h4.192c0-1.217-.676-2.3-2.028-2.3-1.082 0-1.893.812-2.164 2.3zm11.63-1.893c-.27-.136-.541-.27-.947-.27-.811 0-1.622.54-1.893 1.487v5.544h-1.352v-8.249h1.352v1.082c.406-.676 1.082-1.217 2.028-1.217.406 0 .677 0 .812.135v1.488zm2.84 10.006h-1.353v-11.359h1.353v.947c.405-.541 1.352-1.082 2.298-1.082 2.435 0 3.652 2.028 3.652 4.327s-1.217 4.328-3.652 4.328c-1.081 0-1.893-.541-2.298-1.082v3.921zm0-5.68a2.409 2.409 0 0 0 2.163 1.353c1.623 0 2.434-1.217 2.434-2.975s-.946-2.975-2.434-2.975c-.811 0-1.622.541-2.163 1.352v3.246zm12.035-4.326c-.27-.136-.541-.27-.947-.27-.811 0-1.623.54-1.893 1.487v5.544h-1.352v-8.249h1.352v1.082c.406-.676 1.082-1.217 2.028-1.217.406 0 .677 0 .812.135v1.488zm2.299-2.975c-.541 0-.947-.406-.947-.947s.406-.947.947-.947.946.406.946.947c-.135.54-.54.947-.946.947zm.676 9.736h-1.353v-8.249h1.353v8.249zm1.893-2.029c.811.677 1.758 1.082 2.704 1.082s1.758-.27 1.758-1.082c0-.676-.405-.946-1.217-1.217l-1.081-.405c-1.218-.406-2.029-.947-2.029-2.3 0-1.487 1.217-2.298 2.84-2.298.946 0 1.758.27 2.434.676v1.488c-.676-.541-1.488-.947-2.434-.947-.811 0-1.488.406-1.488 1.082s.406.946 1.217 1.217l1.217.406c1.218.405 1.894 1.081 1.894 2.298 0 1.488-1.353 2.435-3.11 2.435-1.082 0-2.029-.27-2.705-.812v-1.623zm8.52-1.757c0 1.893 1.216 2.84 2.704 2.84.946 0 1.622-.271 2.299-.812v1.217c-.677.54-1.488.676-2.435.676-2.298 0-3.921-1.623-3.921-4.192s1.487-4.327 3.651-4.327 3.38 1.623 3.38 4.057v.54h-5.679zm0-1.082h4.191c0-1.217-.676-2.3-2.028-2.3-.947 0-1.893.812-2.164 2.3zm15.145-3.38c.81 0 1.622.134 2.163.675v1.352c-.54-.54-1.352-.81-2.163-.81-1.488 0-2.705 1.08-2.705 2.974s1.217 2.975 2.705 2.975c.81 0 1.487-.27 2.163-.811v1.352c-.54.54-1.352.676-2.163.676-2.164 0-3.922-1.623-3.922-4.327 0-2.434 1.758-4.057 3.922-4.057zm7.167 8.518c-2.3 0-3.787-1.758-3.787-4.327s1.488-4.327 3.787-4.327 3.786 1.758 3.786 4.327-1.623 4.327-3.786 4.327zm0-7.302c-1.488 0-2.3 1.217-2.3 3.11 0 1.758.947 3.11 2.3 3.11 1.487 0 2.298-1.217 2.298-3.11s-.811-3.11-2.298-3.11zm13.928-1.217c1.623 0 2.57 1.217 2.57 2.975v5.41h-1.353v-5.275c0-1.082-.541-1.893-1.488-1.893-.81 0-1.487.541-1.758 1.488v5.68h-1.352v-5.275c0-1.082-.54-1.893-1.487-1.893-.812 0-1.488.541-1.758 1.488v5.68h-1.352v-8.25h1.352v.947c.405-.676 1.217-1.082 2.163-1.082 1.082 0 1.894.541 2.164 1.352.27-.811 1.082-1.352 2.299-1.352zm6.22 11.494h-1.352v-11.359h1.352v.947c.406-.541 1.353-1.082 2.3-1.082 2.433 0 3.65 2.028 3.65 4.327s-1.217 4.328-3.65 4.328c-1.083 0-1.894-.541-2.3-1.082v3.921zm0-5.68a2.409 2.409 0 0 0 2.164 1.353c1.623 0 2.434-1.217 2.434-2.975s-.947-2.975-2.434-2.975c-.811 0-1.623.541-2.164 1.352v3.246zm12.441-2.974c0-1.082-.811-1.623-1.893-1.623-.947 0-1.623.27-2.299.676v-1.352c.541-.406 1.488-.676 2.57-.676 1.893 0 3.11 1.082 3.11 2.84v5.544h-1.353v-.676c-.27.27-1.217.811-2.163.811-1.623 0-3.11-.946-3.11-2.57 0-1.487 1.352-2.569 3.11-2.569.811 0 1.758.406 2.028.677v-1.082zm0 2.57c-.27-.677-1.082-1.083-1.893-1.083-.947 0-1.893.406-1.893 1.488 0 .946.946 1.487 1.893 1.487.811 0 1.623-.405 1.893-1.082v-.81zm3.651-5.275h1.353v1.082c.54-.676 1.352-1.217 2.434-1.217 1.893 0 2.84 1.217 2.84 2.975v5.41h-1.353v-5.14c0-1.081-.54-1.893-1.758-1.893-.946 0-1.758.676-2.028 1.488v5.544h-1.353v-8.249h-.135zm9.737 11.36l1.217-3.11-3.246-8.25h1.488l2.434 6.491 2.434-6.49h1.487l-4.462 11.358h-1.352z"/><path fill="#f5831f" class="st1" d="M-5726.545 1425.567c0 10.818-8.654 19.608-19.202 19.608s-19.202-8.79-19.202-19.608v-16.633s9.195 2.299 9.195 12.035v4.598c0 5.95 4.463 10.683 10.007 10.683s10.007-4.733 10.007-10.683v-9.601.135c.405-8.114 7.302-10.683 9.06-11.63h.135v21.096zm-49.358-19.473c2.57 0 5.004.406 7.167 1.353v10.277c-1.893-1.623-4.462-2.57-7.167-2.57-6.085 0-10.953 4.733-10.953 10.683v19.338h-9.195v-35.43s3.786.136 6.22 1.894c3.516-3.516 8.52-5.545 13.928-5.545m-44.083 30.291c-6.086 0-11.089-4.868-11.089-10.818s5.003-10.818 11.089-10.818 11.088 4.868 11.088 10.818-5.003 10.818-11.088 10.818m0-30.29c-11.089 0-20.014 8.789-20.014 19.472 0 10.818 8.925 19.472 20.014 19.472 4.597 0 8.79-1.487 12.17-4.056 2.028 3.38 7.843 4.056 7.843 4.056v-19.472c0-10.683-8.925-19.473-20.013-19.473m159.973 30.291c-6.086 0-11.09-4.868-11.09-10.818s5.004-10.818 11.09-10.818 11.088 4.868 11.088 10.818-5.003 10.818-11.088 10.818m0-30.29c-11.09 0-20.014 8.789-20.014 19.472 0 10.818 8.925 19.472 20.014 19.472 4.597 0 8.79-1.487 12.17-4.056 2.028 3.38 7.843 4.056 7.843 4.056v-19.472c0-10.683-8.925-19.473-20.013-19.473m-42.462 30.291c-6.085 0-11.088-4.868-11.088-10.818s5.003-10.818 11.088-10.818 11.089 4.868 11.089 10.818c.135 5.95-4.868 10.818-11.089 10.818m0-30.29c-4.056 0-7.843 1.216-11.088 3.245v-3.11c-.406-8.114-7.032-10.683-8.79-11.63h-.135v50.575s5.95-.676 8.249-3.922c3.38 2.299 7.437 3.786 11.764 3.786 11.089 0 20.014-8.79 20.014-19.472.135-10.683-8.925-19.473-20.014-19.473"/></svg>