<svg version="1.2" xmlns="http://www.w3.org/2000/svg" viewBox="0 0 1534 938"><defs><linearGradient id="a" x1="119.7" y1="96" x2="832.5" y2="808.9" gradientUnits="userSpaceOnUse"><stop offset="0" stop-color="#72bf44"/><stop offset="1" stop-color="#d7df23"/></linearGradient><linearGradient id="b" x1="1477.1" y1="154" x2="652.1" y2="798.9" gradientUnits="userSpaceOnUse"><stop offset="0" stop-color="#d7df23"/><stop offset="1" stop-color="#72bf44"/></linearGradient><linearGradient id="c" x1="596.3" y1="668.1" x2="937.7" y2="668.1" gradientUnits="userSpaceOnUse"><stop offset="0" stop-color="#39b54a"/><stop offset=".6" stop-color="#5dbb46"/><stop offset="1" stop-color="#72bf44"/></linearGradient></defs><path d="M767 398.3c-.6 95.4 0 313.6 0 313.6s-91.8 118.2-170.7 225.6c0-329.4-266.9-596.3-596.3-596.3V0c317.1 0 597.4 157.3 767 398.3z" style="fill:url(#a)"/><path d="M1534 0v341.2c-329.4 0-596.3 266.9-596.3 596.3C852.1 823.7 767 711.9 767 711.9s.6-190 0-313.6C936.6 157.3 1216.9 0 1534 0z" style="fill:url(#b)"/><path d="M596 937.8c0-200.8 63.3-386.9 170.7-539.5C874.4 550.9 937.4 737 937.4 937.8H596.3z" style="fill:url(#c)"/></svg>
