<svg xmlns="http://www.w3.org/2000/svg" viewBox="0 0 128 96.987" version="1"><path d="M127.317 59.242c-41.241-21.744-85.67-19.124-102.614 6.28C30.888 72.69 38.839 79.34 48.211 84.78c30.481 17.68 64.496 15.95 75.982-3.862 3.723-6.397 4.607-13.885 3.124-21.676M13.47 16.074c-5.333 9.15-4.891 20.568.094 31.935 16.566 1.847 30.955-2.955 37.424-14.104 5.585-9.62 4.133-22.012-2.714-33.9C32.78-.196 19.749 5.227 13.47 16.074M124.919 49.15c-5.617-13.566-17.828-27.2-34.647-36.955C77.935 5.043 64.998 1.063 53.228.19c3.976 13.718 15.808 28.074 32.88 37.98 13.063 7.572 26.852 11.2 38.81 10.98" fill="#967e72"/><path d="M17.004 59.494c-.442-1.612-1.673-2.855-3.471-3.51-3.787-1.393-9.088.303-11.865 3.778-1.451 1.83-1.987 3.912-1.483 5.71.474 1.61 1.704 2.853 3.471 3.508 3.787 1.377 9.12-.319 11.865-3.778 1.451-1.83 1.988-3.912 1.483-5.708" fill="#e32739"/></svg>