<svg xmlns="http://www.w3.org/2000/svg" viewBox="0 0 222.84201 162.43956"><g fill="#0fb15b" fill-rule="evenodd"><path d="M64.835 0h91.39l35.273 87.11c-10.733 15.642-28.193 32.072-38.643 30.057-23.876-5.737-12.244-74.214-48.518-76.857-18.8-1.588-34.29 10.435-65.694 24.903z"/><path d="M154.143 133.912c9.43 1.853 34.759-15.11 44.078-29.626l24.621 58.153h-69.987l-4.723-8.626H76.916l-5.46 8.626H0l12.023-28.956c6.01-7.872 10.291-14.453 18.033-22.327 33.921-34.504 61.357-54.622 81.15-51.525 23.901 2.81 18.36 74.535 42.937 74.281z"/></g></svg>