<svg xmlns="http://www.w3.org/2000/svg" viewBox="0 0 512 340">
  <rect fill="#F00000" width="512" height="340"/>
  <g fill="#FFF">
    <path d="M90.7 116H61.8V95.6h28.9c5.6 0 10.2 4.6 10.2 10.2 0 5.7-4.6 10.2-10.2 10.2m0-54.3c5.2 0 9.3 4.2 9.3 9.3 0 5.2-4.2 9.3-9.3 9.3H61.8V61.7h28.9zm24.6 9.3c0-13.6-11-24.6-24.6-24.6H46.5v84.9h44.1c14.1 0 25.4-11.4 25.4-25.5 0-7-2.9-13.4-7.5-18 4.3-4.4 6.8-10.3 6.8-16.8M260.8 80.4H232V61.7h28.9c5.2 0 9.3 4.2 9.3 9.3 0 5.2-4.2 9.4-9.4 9.4m24.6-9.4c0-13.6-11-24.6-24.6-24.6h-44.1v84.9H232V95.6h28.9c5.6 0 10.2 4.6 10.2 10.2v25.5h15.3v-25.5c0-7-2.9-13.4-7.5-18 4-4.4 6.5-10.3 6.5-16.8M310 88.9c0-15 12.2-27.2 27.2-27.2h25.5V46.4h-25.5c-23.4 0-42.4 19-42.4 42.4s19 42.4 42.4 42.4h25.5V116h-25.5c-15 0-27.2-12.1-27.2-27.1"/>
    <path d="M412.3 117.7c-15.9 0-28.9-12.9-28.9-28.9 0-15.9 12.9-28.9 28.9-28.9 15.9 0 28.9 12.9 28.9 28.9 0 16-13 28.9-28.9 28.9m52.2-37.3c-5 0-9.3-3.1-11.1-7.6-6.4-16.4-22.4-28.1-41.1-28.1s-34.7 11.6-41.1 28.1c-1.7 4.4-6 7.6-11.1 7.6h-13.6v17h13.6c5 0 9.3 3.2 11.1 7.6 6.4 16.4 22.4 28.1 41.1 28.1s34.7-11.7 41.1-28.1c1.7-4.4 6-7.5 11.1-7.5h13.6v-17h-13.6v-.1z"/>
    <path d="M412.3 72.6c-9 0-16.3 7.3-16.3 16.3s7.3 16.3 16.3 16.3 16.3-7.3 16.3-16.3-7.3-16.3-16.3-16.3M184.9 88.9h-39v-9.3c0-10.8 8.7-19.5 19.5-19.5s19.5 8.7 19.5 19.5v9.3zm-19.5-44.2c-19.2 0-34.8 15.6-34.8 34.8v51.8h15.3v-27.1h39v27.1h15.3V79.5c-.1-19.2-15.6-34.8-34.8-34.8"/>
  </g>
</svg>
