<?xml version="1.0" encoding="utf-8"?>
<!-- Generator: Adobe Illustrator 21.0.2, SVG Export Plug-In . SVG Version: 6.00 Build 0)  -->
<svg version="1.1" id="Capa_1" xmlns="http://www.w3.org/2000/svg" xmlns:xlink="http://www.w3.org/1999/xlink" x="0px" y="0px"
	 viewBox="0 0 336 251" style="enable-background:new 0 0 336 251;" xml:space="preserve">
<style type="text/css">
	.st0{fill:#293C84;}
	.st1{fill:#FFFFFF;stroke:#000000;stroke-miterlimit:10;}
	.st2{fill:#0A0A0A;stroke:#000000;stroke-miterlimit:10;}
	.st3{clip-path:url(#SVGID_2_);}
	.st4{fill:url(#SVGID_3_);}
</style>
<g>
	<g>
		<path class="st0" d="M6.1,53.7c1.3,2.7,2.5,5.3,3.8,8c1.4,3.1,2.9,6.2,4.3,9.3c1.4,3.1,2.9,6.2,4.3,9.3c3.7,7.9,7.3,15.8,11,23.7
			c2.1,4.7,4.2,9.5,6.3,14.2c1.6,3.6,3.2,7.1,4.8,10.7c0.8,1.9,1.7,3.7,2.5,5.6c1.1,2.4,2.1,4.9,3.2,7.3c1,2.3,2,4.6,3.1,6.9
			c0.8,1.8,1.6,3.7,2.5,5.5c1.5,3.3,2.9,6.7,4.4,10c1.3,2.9,2.5,5.8,3.8,8.6c0.8,1.9,1.6,3.7,2.5,5.6c1,2.3,2,4.6,3,6.9
			c0.4,1,0.9,2,1.3,3c1.2,2.9,2.5,5.8,3.7,8.7c1.2,2.9,2.5,5.8,3.7,8.7c1.9,4.5,3.8,9,5.7,13.5c1.4,3.4,2.8,6.7,4.2,10.1
			c2.5,6.3,5.1,12.6,7.6,19c0.7-1.2,0.7-2.2,0.7-3.2c-0.4-6.4-0.8-12.7-1.1-19.1c-0.1-3.5-0.1-7-0.2-10.5c0-0.2,0-0.4,0-0.7
			c0-9.5,0.1-19,0.1-28.5c0-1,0-2,0.1-3.1v0.1c0.2-2.9,0.4-5.7,0.6-8.6c0.4-4.2,0.8-8.3,1.3-12.5c0.4-2.7,0.8-5.4,1.2-8.2
			c0.2-1.2,0.4-2.4,0.6-3.6c0.6-3.1,1.3-6.2,1.9-9.3c0.4-1.9,0.8-3.7,1.3-5.6c0.6-2.1,1.2-4.2,1.8-6.3c1-3.1,2.1-6.2,3.1-9.4
			c1.2-2.9,2.5-5.8,3.7-8.7c0.6-1.4,1.3-2.9,1.9-4.3c1.8-3.1,3.6-6.3,5.4-9.4c0.2-0.4,0.4-0.8,0.6-1.2c2.9-4.1,5.8-8.3,8.6-12.4
			c1.9-2.5,3.8-5,5.7-7.4c2.3-2.5,4.6-4.9,6.9-7.4c1-0.9,2-1.7,2.9-2.6c2.3-2.1,4.5-4.1,6.8-6.2c1.3-1,2.5-2.1,3.8-3.1
			c0.4-0.4,0.9-0.7,1.3-1.1c0.8-0.7,1.6-1.3,2.4-2c1.5-1,3-2,4.5-3c1.4-0.9,2.7-1.8,4.1-2.6c2.3-1.4,4.6-2.8,6.9-4.2
			c1.9-1,3.8-2.1,5.7-3.1c2.2-1.1,4.4-2.2,6.6-3.2c2.3-1,4.6-2.1,6.9-3.1c3.6-1.4,7.1-2.8,10.7-4.2c4.3-1.5,8.6-2.9,13-4.4
			c4.3-1.2,8.6-2.5,12.9-3.7c7.1-1.6,14.1-3.3,21.6-5c-2.6-4.4-5-8.3-7.2-12.3c-1.1-2-2.3-2.8-4.7-2.4c-3.7,0.5-7.4,0.8-11,1.1
			c-6.4,0.6-12.8,1.2-19.2,1.9c-5.2,0.6-10.3,1.2-15.5,1.8c-3.7,0.4-7.4,0.9-11.2,1.3c-2.9,0.4-5.8,0.8-8.7,1.2
			c-1.7,0.2-3.3,0.4-5,0.7c-2.7,0.4-5.4,0.8-8,1.2c-2.9,0.4-5.8,0.9-8.7,1.3c-2.5,0.4-5,0.8-7.4,1.2c-2.1,0.4-4.1,0.8-6.2,1.3
			c-1.3,0.2-2.5,0.4-3.8,0.5c-0.4,0-0.8,0.1-1.2,0.1c-2.3,0.4-4.5,0.8-6.8,1.2c-2.3,0.4-4.6,0.8-6.8,1.2c-1.2,0.2-2.5,0.4-3.7,0.7
			c-3.1,0.6-6.2,1.2-9.3,1.8c-3.1,0.6-6.2,1.2-9.3,1.8c-2.3,0.4-4.5,0.9-6.8,1.3c-3.7,0.8-7.5,1.6-11.2,2.4
			c-8.3,1.9-16.6,3.7-24.8,5.6c-3.5,0.8-7,1.6-10.5,2.4c-0.8,0.3-1.7,0.5-2.5,0.8c-1.4,0.4-2.9,0.7-4.3,1.1
			c-2.9,0.6-5.9,1.2-8.8,1.9c-2.7,0.6-5.3,1.3-8,1.9c-1.7,0.4-3.3,0.8-5,1.2c-2.1,0.4-4.2,0.9-6.3,1.3s-2.4,1.5-1.5,3.3
			C3.7,48.9,4.9,51.3,6.1,53.7z"/>
	</g>
</g>
<path class="st1" d="M240.2,23.2c0-0.1,0-0.3,0-0.4c-1.2,0.1-2.5-0.1-3.7,0.3c-11.3,3.1-23,5.3-33.9,9.5
	c-39.5,14.9-67.7,41.9-84.4,80.7c-11.6,26.7-15.9,55-16,83.9c-0.1,11.4,0.8,22.9,1.5,34.3c0.3,4.9,1.1,9.8,1.7,15.1
	c9.7-6.9,19-13.5,28.2-20.2c0.5-0.4,0.8-1.6,0.7-2.3c-0.7-4.4-1.5-8.7-2.2-13.1c-3.6-22.7-4.1-45.4,0.5-68
	c10.4-52,40.1-89.2,87.9-111.8C226.8,28.1,233.6,25.8,240.2,23.2z"/>
<path class="st1" d="M247.9,26.3c-1.5,0.3-2.3,0.4-3,0.7c-9.1,3.9-18.5,7.2-27.1,12c-37.7,21-61.1,53-70.8,95
	c-5.2,22.7-5.3,45.6-2.2,68.5c0.6,4.8,1.6,9.6,2.5,14.8c8-5.1,15.5-9.8,23-14.5c5-3.2,4.9-3.2,3.8-9.2c-4-21.2-5.5-42.5-2.8-64
	c4.7-37.5,22.8-66.9,53.4-88.7C231.8,35.8,239.6,31.5,247.9,26.3z"/>
<path class="st1" d="M187.3,191.7c0.9-0.2,1.4-0.1,1.7-0.3c9.3-5.1,18.6-10.3,27.8-15.5c0.6-0.4,1.1-1.8,0.9-2.7
	c-0.6-3.2-1.6-6.4-2.3-9.6c-4.6-20.5-7.6-41.1-5.1-62.2c2.5-21.5,11.3-40.2,26.3-55.8c5.2-5.4,10.8-10.3,16.4-15.6
	c-0.4,0.1-0.8,0.2-1.1,0.4C238.7,37,227,45.8,217,56.8c-18.1,20.1-27.9,44-31.7,70.6c-1.9,13-2.2,26.1-1.1,39.2
	C185,174.8,186.3,183.2,187.3,191.7z"/>
<path class="st1" d="M256.3,34.7c-0.2,0.1-0.5,0.1-0.7,0.3c-0.9,0.7-1.8,1.4-2.7,2.1c-11.9,9.5-20.5,21.4-26.5,35.3
	c-10.2,23.8-11.5,48.3-5.6,73.3c1.9,8.1,4.8,15.9,7.4,24.2c10.2-4.8,19.5-9.3,28.6-13.6c-4.3-8.5-8.8-16.5-12.4-24.9
	c-10.6-24.9-11.9-50-0.3-74.9C247.5,48.9,252.2,41.9,256.3,34.7z"/>
<path class="st1" d="M332.3,128.8c-22.2-29.9-44.1-59.2-66.4-89.1c-3.5,16.5-1.7,31.6,5.4,45.9c9,18,21.4,33.8,33.3,49.9
	c0.4,0.6,1.6,1,2.3,0.9C315.2,133.9,323.5,131.4,332.3,128.8z"/>
<path class="st1" d="M261.8,36.5c-0.3-0.2-0.7-0.4-1-0.6c-0.2,0.5-0.3,1.1-0.6,1.4c-13,16.3-17.8,34.9-14.9,55.4s11.1,39.2,21,57.1
	c0.3,0.6,1.9,1.2,2.6,0.9c3.6-1.2,7.1-2.7,10.7-4.2c4.8-1.9,9.7-3.9,14.9-6C266.5,111,255.8,76.4,261.8,36.5z"/>
<path class="st2" d="M240.2,23.2c-6.6,2.6-13.3,4.9-19.7,7.9c-47.9,22.6-77.5,59.8-87.9,111.8c-4.5,22.6-4.1,45.3-0.5,68
	c0.7,4.4,1.6,8.7,2.2,13.1c0.1,0.7-0.2,1.9-0.7,2.3c-9.2,6.7-18.4,13.2-28.2,20.2c-0.6-5.4-1.4-10.2-1.7-15.1
	c-0.7-11.4-1.5-22.9-1.5-34.3c0.1-28.9,4.5-57.1,16-83.9c16.8-38.8,44.9-65.8,84.4-80.7c10.9-4.1,22.6-6.4,33.9-9.5
	c1.2-0.3,2.4-0.2,3.7-0.3C240.2,22.9,240.2,23,240.2,23.2z"/>
<path class="st2" d="M247.9,26.3c-8.3,5.2-16,9.6-23.2,14.7C194,62.8,176,92.2,171.3,129.7c-2.7,21.5-1.2,42.8,2.8,64
	c1.1,6,1.2,6-3.8,9.2c-7.5,4.8-15,9.5-23,14.5c-0.9-5.2-1.8-10-2.5-14.8c-3-23-3-45.8,2.2-68.5c9.7-42,33-74,70.8-95
	c8.6-4.8,18.1-8,27.1-12C245.6,26.7,246.4,26.6,247.9,26.3z"/>
<path class="st2" d="M187.3,191.7c-1-8.5-2.3-16.8-3-25.2c-1.2-13.1-0.8-26.2,1.1-39.2c3.8-26.6,13.6-50.5,31.7-70.6
	c9.9-11,21.6-19.7,34.9-26.4c0.3-0.2,0.7-0.2,1.1-0.4c-5.6,5.3-11.2,10.2-16.4,15.6c-15,15.6-23.7,34.2-26.3,55.8
	c-2.5,21.1,0.5,41.7,5.1,62.2c0.7,3.2,1.7,6.4,2.3,9.6c0.2,0.8-0.3,2.3-0.9,2.7c-9.2,5.3-18.5,10.4-27.8,15.5
	C188.7,191.5,188.2,191.5,187.3,191.7z"/>
<path class="st2" d="M256.3,34.7c-4.1,7.2-8.8,14.2-12.3,21.7c-11.7,24.9-10.4,50,0.3,74.9c3.6,8.4,8.1,16.4,12.4,24.9
	c-9,4.3-18.4,8.8-28.6,13.6c-2.6-8.3-5.5-16.1-7.4-24.2c-5.9-25-4.5-49.5,5.6-73.3c5.9-13.9,14.6-25.8,26.5-35.3
	c0.9-0.7,1.8-1.4,2.7-2.1C255.8,34.8,256.2,34.7,256.3,34.7z"/>
<path class="st2" d="M332.3,128.8c-8.8,2.6-17.1,5.1-25.4,7.5c-0.6,0.2-1.9-0.3-2.3-0.9c-11.9-16.1-24.3-31.9-33.3-49.9
	c-7.1-14.2-9-29.4-5.4-45.9C288.2,69.6,310.1,99,332.3,128.8z"/>
<path class="st2" d="M261.8,36.5c-6,39.8,4.7,74.5,32.7,104.1c-5.2,2.1-10.1,4-14.9,6c-3.5,1.4-7.1,2.9-10.7,4.2
	c-0.7,0.2-2.2-0.3-2.6-0.9c-9.9-18-18.1-36.6-21-57.1s1.9-39.1,14.9-55.4c0.3-0.4,0.4-1,0.6-1.4C261.1,36.1,261.4,36.3,261.8,36.5z"
	/>
<g>
	<g>
		<defs>
			<path id="SVGID_1_" d="M6.1,53.7c1.3,2.7,2.5,5.3,3.8,8c1.4,3.1,2.9,6.2,4.3,9.3c1.4,3.1,2.9,6.2,4.3,9.3
				c3.7,7.9,7.3,15.8,11,23.7c2.1,4.7,4.2,9.5,6.3,14.2c1.6,3.6,3.2,7.1,4.8,10.7c0.8,1.9,1.7,3.7,2.5,5.6c1.1,2.4,2.1,4.9,3.2,7.3
				c1,2.3,2,4.6,3.1,6.9c0.8,1.8,1.6,3.7,2.5,5.5c1.5,3.3,2.9,6.7,4.4,10c1.3,2.9,2.5,5.8,3.8,8.6c0.8,1.9,1.6,3.7,2.5,5.6
				c1,2.3,2,4.6,3,6.9c0.4,1,0.9,2,1.3,3c1.2,2.9,2.5,5.8,3.7,8.7c1.2,2.9,2.5,5.8,3.7,8.7c1.9,4.5,3.8,9,5.7,13.5
				c1.4,3.4,2.8,6.7,4.2,10.1c2.5,6.3,5.1,12.6,7.6,19c0.7-1.2,0.7-2.2,0.7-3.2c-0.4-6.4-0.8-12.7-1.1-19.1c-0.1-3.5-0.1-7-0.2-10.5
				c0-0.2,0-0.4,0-0.7c0-9.5,0.1-19,0.1-28.5c0-1,0-2,0.1-3.1v0.1c0.2-2.9,0.4-5.7,0.6-8.6c0.4-4.2,0.8-8.3,1.3-12.5
				c0.4-2.7,0.8-5.4,1.2-8.2c0.2-1.2,0.4-2.4,0.6-3.6c0.6-3.1,1.3-6.2,1.9-9.3c0.4-1.9,0.8-3.7,1.3-5.6c0.6-2.1,1.2-4.2,1.8-6.3
				c1-3.1,2.1-6.2,3.1-9.4c1.2-2.9,2.5-5.8,3.7-8.7c0.6-1.4,1.3-2.9,1.9-4.3c1.8-3.1,3.6-6.3,5.4-9.4c0.2-0.4,0.4-0.8,0.6-1.2
				c2.9-4.1,5.8-8.3,8.6-12.4c1.9-2.5,3.8-5,5.7-7.4c2.3-2.5,4.6-4.9,6.9-7.4c1-0.9,2-1.7,2.9-2.6c2.3-2.1,4.5-4.1,6.8-6.2
				c1.3-1,2.5-2.1,3.8-3.1c0.4-0.4,0.9-0.7,1.3-1.1c0.8-0.7,1.6-1.3,2.4-2c1.5-1,3-2,4.5-3c1.4-0.9,2.7-1.8,4.1-2.6
				c2.3-1.4,4.6-2.8,6.9-4.2c1.9-1,3.8-2.1,5.7-3.1c2.2-1.1,4.4-2.2,6.6-3.2c2.3-1,4.6-2.1,6.9-3.1c3.6-1.4,7.1-2.8,10.7-4.2
				c4.3-1.5,8.6-2.9,13-4.4c4.3-1.2,8.6-2.5,12.9-3.7c7.1-1.6,14.1-3.3,21.6-5c-2.6-4.4-5-8.3-7.2-12.3c-1.1-2-2.3-2.8-4.7-2.4
				c-3.7,0.5-7.4,0.8-11,1.1c-6.4,0.6-12.8,1.2-19.2,1.9c-5.2,0.6-10.3,1.2-15.5,1.8c-3.7,0.4-7.4,0.9-11.2,1.3
				c-2.9,0.4-5.8,0.8-8.7,1.2c-1.7,0.2-3.3,0.4-5,0.7c-2.7,0.4-5.4,0.8-8,1.2c-2.9,0.4-5.8,0.9-8.7,1.3c-2.5,0.4-5,0.8-7.4,1.2
				c-2.1,0.4-4.1,0.8-6.2,1.3c-1.3,0.2-2.5,0.4-3.8,0.5c-0.4,0-0.8,0.1-1.2,0.1c-2.3,0.4-4.5,0.8-6.8,1.2c-2.3,0.4-4.6,0.8-6.8,1.2
				c-1.2,0.2-2.5,0.4-3.7,0.7c-3.1,0.6-6.2,1.2-9.3,1.8c-3.1,0.6-6.2,1.2-9.3,1.8c-2.3,0.4-4.5,0.9-6.8,1.3
				c-3.7,0.8-7.5,1.6-11.2,2.4c-8.3,1.9-16.6,3.7-24.8,5.6c-3.5,0.8-7,1.6-10.5,2.4c-0.8,0.3-1.7,0.5-2.5,0.8
				c-1.4,0.4-2.9,0.7-4.3,1.1c-2.9,0.6-5.9,1.2-8.8,1.9c-2.7,0.6-5.3,1.3-8,1.9c-1.7,0.4-3.3,0.8-5,1.2c-2.1,0.4-4.2,0.9-6.3,1.3
				s-2.4,1.5-1.5,3.3C3.7,48.9,4.9,51.3,6.1,53.7z"/>
		</defs>
		<clipPath id="SVGID_2_">
			<use xlink:href="#SVGID_1_"  style="overflow:visible;"/>
		</clipPath>
		<g class="st3">
			<g>
				
					<radialGradient id="SVGID_3_" cx="71.1" cy="-182.4" r="134.5" gradientTransform="matrix(1 0 0 -1 0 -110)" gradientUnits="userSpaceOnUse">
					<stop  offset="0" style="stop-color:#FFFFFF"/>
					<stop  offset="9.910651e-02" style="stop-color:#F4F4F9"/>
					<stop  offset="0.2904" style="stop-color:#CFCDE3"/>
					<stop  offset="0.5544" style="stop-color:#9692BC"/>
					<stop  offset="0.8779" style="stop-color:#515492"/>
					<stop  offset="1" style="stop-color:#293C84"/>
				</radialGradient>
				<circle class="st4" cx="71.1" cy="72.4" r="134.5"/>
			</g>
		</g>
	</g>
</g>
</svg>
