<svg enable-background="new 0 0 336 251" viewBox="0 0 336 251" xmlns="http://www.w3.org/2000/svg" xmlns:xlink="http://www.w3.org/1999/xlink"><clipPath id="a"><path d="m6.1 53.7c1.3 2.7 2.5 5.3 3.8 8 1.4 3.1 2.9 6.2 4.3 9.3s2.9 6.2 4.3 9.3c3.7 7.9 7.3 15.8 11 23.7 2.1 4.7 4.2 9.5 6.3 14.2 1.6 3.6 3.2 7.1 4.8 10.7.8 1.9 1.7 3.7 2.5 5.6 1.1 2.4 2.1 4.9 3.2 7.3 1 2.3 2 4.6 3.1 6.9.8 1.8 1.6 3.7 2.5 5.5 1.5 3.3 2.9 6.7 4.4 10 1.3 2.9 2.5 5.8 3.8 8.6.8 1.9 1.6 3.7 2.5 5.6 1 2.3 2 4.6 3 6.9.4 1 .9 2 1.3 3 1.2 2.9 2.5 5.8 3.7 8.7s2.5 5.8 3.7 8.7c1.9 4.5 3.8 9 5.7 13.5 1.4 3.4 2.8 6.7 4.2 10.1 2.5 6.3 5.1 12.6 7.6 19 .7-1.2.7-2.2.7-3.2-.4-6.4-.8-12.7-1.1-19.1-.1-3.5-.1-7-.2-10.5 0-.2 0-.4 0-.7 0-9.5.1-19 .1-28.5 0-1 0-2 .1-3.1v.1c.2-2.9.4-5.7.6-8.6.4-4.2.8-8.3 1.3-12.5.4-2.7.8-5.4 1.2-8.2.2-1.2.4-2.4.6-3.6.6-3.1 1.3-6.2 1.9-9.3.4-1.9.8-3.7 1.3-5.6.6-2.1 1.2-4.2 1.8-6.3 1-3.1 2.1-6.2 3.1-9.4 1.2-2.9 2.5-5.8 3.7-8.7.6-1.4 1.3-2.9 1.9-4.3 1.8-3.1 3.6-6.3 5.4-9.4.2-.4.4-.8.6-1.2 2.9-4.1 5.8-8.3 8.6-12.4 1.9-2.5 3.8-5 5.7-7.4 2.3-2.5 4.6-4.9 6.9-7.4 1-.9 2-1.7 2.9-2.6 2.3-2.1 4.5-4.1 6.8-6.2 1.3-1 2.5-2.1 3.8-3.1.4-.4.9-.7 1.3-1.1.8-.7 1.6-1.3 2.4-2l4.5-3c1.4-.9 2.7-1.8 4.1-2.6 2.3-1.4 4.6-2.8 6.9-4.2 1.9-1 3.8-2.1 5.7-3.1 2.2-1.1 4.4-2.2 6.6-3.2 2.3-1 4.6-2.1 6.9-3.1 3.6-1.4 7.1-2.8 10.7-4.2 4.3-1.5 8.6-2.9 13-4.4 4.3-1.2 8.6-2.5 12.9-3.7 7.1-1.6 14.1-3.3 21.6-5-2.6-4.4-5-8.3-7.2-12.3-1.1-2-2.3-2.8-4.7-2.4-3.7.5-7.4.8-11 1.1-6.4.6-12.8 1.2-19.2 1.9-5.2.6-10.3 1.2-15.5 1.8-3.7.4-7.4.9-11.2 1.3-2.9.4-5.8.8-8.7 1.2-1.7.2-3.3.4-5 .7-2.7.4-5.4.8-8 1.2-2.9.4-5.8.9-8.7 1.3-2.5.4-5 .8-7.4 1.2-2.1.4-4.1.8-6.2 1.3-1.3.2-2.5.4-3.8.5-.4 0-.8.1-1.2.1-2.3.4-4.5.8-6.8 1.2s-4.6.8-6.8 1.2c-1.2.2-2.5.4-3.7.7-3.1.6-6.2 1.2-9.3 1.8s-6.2 1.2-9.3 1.8c-2.3.4-4.5.9-6.8 1.3-3.7.8-7.5 1.6-11.2 2.4-8.3 1.9-16.6 3.7-24.8 5.6-3.5.8-7 1.6-10.5 2.4-.8.3-1.7.5-2.5.8-1.4.4-2.9.7-4.3 1.1-2.9.6-5.9 1.2-8.8 1.9-2.7.6-5.3 1.3-8 1.9-1.7.4-3.3.8-5 1.2-2.1.4-4.2.9-6.3 1.3s-2.4 1.5-1.5 3.3c1 2.6 2.2 5 3.4 7.4z"/></clipPath><radialGradient id="b" cx="71.1" cy="-182.4" gradientTransform="matrix(1 0 0 -1 0 -110)" gradientUnits="userSpaceOnUse" r="134.5"><stop offset="0" stop-color="#fff"/><stop offset=".09910651" stop-color="#f4f4f9"/><stop offset=".2904" stop-color="#cfcde3"/><stop offset=".5544" stop-color="#9692bc"/><stop offset=".8779" stop-color="#515492"/><stop offset="1" stop-color="#293c84"/></radialGradient><path d="m6.1 53.7c1.3 2.7 2.5 5.3 3.8 8 1.4 3.1 2.9 6.2 4.3 9.3s2.9 6.2 4.3 9.3c3.7 7.9 7.3 15.8 11 23.7 2.1 4.7 4.2 9.5 6.3 14.2 1.6 3.6 3.2 7.1 4.8 10.7.8 1.9 1.7 3.7 2.5 5.6 1.1 2.4 2.1 4.9 3.2 7.3 1 2.3 2 4.6 3.1 6.9.8 1.8 1.6 3.7 2.5 5.5 1.5 3.3 2.9 6.7 4.4 10 1.3 2.9 2.5 5.8 3.8 8.6.8 1.9 1.6 3.7 2.5 5.6 1 2.3 2 4.6 3 6.9.4 1 .9 2 1.3 3 1.2 2.9 2.5 5.8 3.7 8.7s2.5 5.8 3.7 8.7c1.9 4.5 3.8 9 5.7 13.5 1.4 3.4 2.8 6.7 4.2 10.1 2.5 6.3 5.1 12.6 7.6 19 .7-1.2.7-2.2.7-3.2-.4-6.4-.8-12.7-1.1-19.1-.1-3.5-.1-7-.2-10.5 0-.2 0-.4 0-.7 0-9.5.1-19 .1-28.5 0-1 0-2 .1-3.1v.1c.2-2.9.4-5.7.6-8.6.4-4.2.8-8.3 1.3-12.5.4-2.7.8-5.4 1.2-8.2.2-1.2.4-2.4.6-3.6.6-3.1 1.3-6.2 1.9-9.3.4-1.9.8-3.7 1.3-5.6.6-2.1 1.2-4.2 1.8-6.3 1-3.1 2.1-6.2 3.1-9.4 1.2-2.9 2.5-5.8 3.7-8.7.6-1.4 1.3-2.9 1.9-4.3 1.8-3.1 3.6-6.3 5.4-9.4.2-.4.4-.8.6-1.2 2.9-4.1 5.8-8.3 8.6-12.4 1.9-2.5 3.8-5 5.7-7.4 2.3-2.5 4.6-4.9 6.9-7.4 1-.9 2-1.7 2.9-2.6 2.3-2.1 4.5-4.1 6.8-6.2 1.3-1 2.5-2.1 3.8-3.1.4-.4.9-.7 1.3-1.1.8-.7 1.6-1.3 2.4-2l4.5-3c1.4-.9 2.7-1.8 4.1-2.6 2.3-1.4 4.6-2.8 6.9-4.2 1.9-1 3.8-2.1 5.7-3.1 2.2-1.1 4.4-2.2 6.6-3.2 2.3-1 4.6-2.1 6.9-3.1 3.6-1.4 7.1-2.8 10.7-4.2 4.3-1.5 8.6-2.9 13-4.4 4.3-1.2 8.6-2.5 12.9-3.7 7.1-1.6 14.1-3.3 21.6-5-2.6-4.4-5-8.3-7.2-12.3-1.1-2-2.3-2.8-4.7-2.4-3.7.5-7.4.8-11 1.1-6.4.6-12.8 1.2-19.2 1.9-5.2.6-10.3 1.2-15.5 1.8-3.7.4-7.4.9-11.2 1.3-2.9.4-5.8.8-8.7 1.2-1.7.2-3.3.4-5 .7-2.7.4-5.4.8-8 1.2-2.9.4-5.8.9-8.7 1.3-2.5.4-5 .8-7.4 1.2-2.1.4-4.1.8-6.2 1.3-1.3.2-2.5.4-3.8.5-.4 0-.8.1-1.2.1-2.3.4-4.5.8-6.8 1.2s-4.6.8-6.8 1.2c-1.2.2-2.5.4-3.7.7-3.1.6-6.2 1.2-9.3 1.8s-6.2 1.2-9.3 1.8c-2.3.4-4.5.9-6.8 1.3-3.7.8-7.5 1.6-11.2 2.4-8.3 1.9-16.6 3.7-24.8 5.6-3.5.8-7 1.6-10.5 2.4-.8.3-1.7.5-2.5.8-1.4.4-2.9.7-4.3 1.1-2.9.6-5.9 1.2-8.8 1.9-2.7.6-5.3 1.3-8 1.9-1.7.4-3.3.8-5 1.2-2.1.4-4.2.9-6.3 1.3s-2.4 1.5-1.5 3.3c1 2.6 2.2 5 3.4 7.4z" fill="#293c84"/><g stroke="#000" stroke-miterlimit="10"><g fill="#fff"><path d="m240.2 23.2c0-.1 0-.3 0-.4-1.2.1-2.5-.1-3.7.3-11.3 3.1-23 5.3-33.9 9.5-39.5 14.9-67.7 41.9-84.4 80.7-11.6 26.7-15.9 55-16 83.9-.1 11.4.8 22.9 1.5 34.3.3 4.9 1.1 9.8 1.7 15.1 9.7-6.9 19-13.5 28.2-20.2.5-.4.8-1.6.7-2.3-.7-4.4-1.5-8.7-2.2-13.1-3.6-22.7-4.1-45.4.5-68 10.4-52 40.1-89.2 87.9-111.8 6.3-3.1 13.1-5.4 19.7-8z"/><path d="m247.9 26.3c-1.5.3-2.3.4-3 .7-9.1 3.9-18.5 7.2-27.1 12-37.7 21-61.1 53-70.8 95-5.2 22.7-5.3 45.6-2.2 68.5.6 4.8 1.6 9.6 2.5 14.8 8-5.1 15.5-9.8 23-14.5 5-3.2 4.9-3.2 3.8-9.2-4-21.2-5.5-42.5-2.8-64 4.7-37.5 22.8-66.9 53.4-88.7 7.1-5.1 14.9-9.4 23.2-14.6z"/><path d="m187.3 191.7c.9-.2 1.4-.1 1.7-.3 9.3-5.1 18.6-10.3 27.8-15.5.6-.4 1.1-1.8.9-2.7-.6-3.2-1.6-6.4-2.3-9.6-4.6-20.5-7.6-41.1-5.1-62.2 2.5-21.5 11.3-40.2 26.3-55.8 5.2-5.4 10.8-10.3 16.4-15.6-.4.1-.8.2-1.1.4-13.2 6.6-24.9 15.4-34.9 26.4-18.1 20.1-27.9 44-31.7 70.6-1.9 13-2.2 26.1-1.1 39.2.8 8.2 2.1 16.6 3.1 25.1z"/><path d="m256.3 34.7c-.2.1-.5.1-.7.3-.9.7-1.8 1.4-2.7 2.1-11.9 9.5-20.5 21.4-26.5 35.3-10.2 23.8-11.5 48.3-5.6 73.3 1.9 8.1 4.8 15.9 7.4 24.2 10.2-4.8 19.5-9.3 28.6-13.6-4.3-8.5-8.8-16.5-12.4-24.9-10.6-24.9-11.9-50-.3-74.9 3.4-7.6 8.1-14.6 12.2-21.8z"/><path d="m332.3 128.8c-22.2-29.9-44.1-59.2-66.4-89.1-3.5 16.5-1.7 31.6 5.4 45.9 9 18 21.4 33.8 33.3 49.9.4.6 1.6 1 2.3.9 8.3-2.5 16.6-5 25.4-7.6z"/><path d="m261.8 36.5c-.3-.2-.7-.4-1-.6-.2.5-.3 1.1-.6 1.4-13 16.3-17.8 34.9-14.9 55.4s11.1 39.2 21 57.1c.3.6 1.9 1.2 2.6.9 3.6-1.2 7.1-2.7 10.7-4.2 4.8-1.9 9.7-3.9 14.9-6-28-29.5-38.7-64.1-32.7-104z"/></g><path d="m240.2 23.2c-6.6 2.6-13.3 4.9-19.7 7.9-47.9 22.6-77.5 59.8-87.9 111.8-4.5 22.6-4.1 45.3-.5 68 .7 4.4 1.6 8.7 2.2 13.1.1.7-.2 1.9-.7 2.3-9.2 6.7-18.4 13.2-28.2 20.2-.6-5.4-1.4-10.2-1.7-15.1-.7-11.4-1.5-22.9-1.5-34.3.1-28.9 4.5-57.1 16-83.9 16.8-38.8 44.9-65.8 84.4-80.7 10.9-4.1 22.6-6.4 33.9-9.5 1.2-.3 2.4-.2 3.7-.3z" fill="#0a0a0a"/><path d="m247.9 26.3c-8.3 5.2-16 9.6-23.2 14.7-30.7 21.8-48.7 51.2-53.4 88.7-2.7 21.5-1.2 42.8 2.8 64 1.1 6 1.2 6-3.8 9.2-7.5 4.8-15 9.5-23 14.5-.9-5.2-1.8-10-2.5-14.8-3-23-3-45.8 2.2-68.5 9.7-42 33-74 70.8-95 8.6-4.8 18.1-8 27.1-12 .7-.4 1.5-.5 3-.8z" fill="#0a0a0a"/><path d="m187.3 191.7c-1-8.5-2.3-16.8-3-25.2-1.2-13.1-.8-26.2 1.1-39.2 3.8-26.6 13.6-50.5 31.7-70.6 9.9-11 21.6-19.7 34.9-26.4.3-.2.7-.2 1.1-.4-5.6 5.3-11.2 10.2-16.4 15.6-15 15.6-23.7 34.2-26.3 55.8-2.5 21.1.5 41.7 5.1 62.2.7 3.2 1.7 6.4 2.3 9.6.2.8-.3 2.3-.9 2.7-9.2 5.3-18.5 10.4-27.8 15.5-.4.2-.9.2-1.8.4z" fill="#0a0a0a"/><path d="m256.3 34.7c-4.1 7.2-8.8 14.2-12.3 21.7-11.7 24.9-10.4 50 .3 74.9 3.6 8.4 8.1 16.4 12.4 24.9-9 4.3-18.4 8.8-28.6 13.6-2.6-8.3-5.5-16.1-7.4-24.2-5.9-25-4.5-49.5 5.6-73.3 5.9-13.9 14.6-25.8 26.5-35.3.9-.7 1.8-1.4 2.7-2.1.3-.1.7-.2.8-.2z" fill="#0a0a0a"/><path d="m332.3 128.8c-8.8 2.6-17.1 5.1-25.4 7.5-.6.2-1.9-.3-2.3-.9-11.9-16.1-24.3-31.9-33.3-49.9-7.1-14.2-9-29.4-5.4-45.9 22.3 30 44.2 59.4 66.4 89.2z" fill="#0a0a0a"/><path d="m261.8 36.5c-6 39.8 4.7 74.5 32.7 104.1-5.2 2.1-10.1 4-14.9 6-3.5 1.4-7.1 2.9-10.7 4.2-.7.2-2.2-.3-2.6-.9-9.9-18-18.1-36.6-21-57.1s1.9-39.1 14.9-55.4c.3-.4.4-1 .6-1.4.3.1.6.3 1 .5z" fill="#0a0a0a"/></g><g clip-path="url(#a)"><circle cx="71.1" cy="72.4" fill="url(#b)" r="134.5"/></g></svg>