<svg xmlns="http://www.w3.org/2000/svg" xmlns:xlink="http://www.w3.org/1999/xlink" version="1.1" id="Ebene_1" x="0px" y="0px" width="708.7px" height="298px" viewBox="0 0 708.7 298" xml:space="preserve" role="img" aria-label=""><g><path fill="#DA002E" d="M708.7,58.9V16.1c0-8.9-6.9-16.1-14.9-16.1H15.1C6.9,0,0.2,7.3,0.2,16.1L0,58.9H708.7L708.7,58.9z"></path><path fill="#DA002E" d="M708.7,239.1v42.7c0,8.9-6.9,16.1-14.9,16.1H15.1c-8.3,0-14.9-7.5-14.9-16.1L0,239.1H708.7L708.7,239.1z"></path><path fill-rule="evenodd" clip-rule="evenodd" d="M672.4,192.1l-33.3,0.2h-8.5v-8.7v-73.8v-8.5h8.5l32.7-0.2h8.5v8.7v18.7H701V86.1 l-186.1-0.2V128h25.2v-18.1v-8.5h8.7h30.4h8.7v8.5v74v8.5h-8.7l-31.3,0.2v16.7h124.4V192.1L672.4,192.1z M433.5,178.6 c-7.9,8.5-18.5,13.7-30.6,13.7h-61.3l-8.7-0.2v-8.5v-73.8v-8.5h8.5l61.5-0.4c11.9,0,22.8,5.2,30.6,13.5 c7.7,8.3,12.5,19.4,12.5,31.9C446,158.9,441.1,170.4,433.5,178.6L433.5,178.6z M262.3,209.5h167.3c15.5,0,29.4-6.9,39.7-17.9 c10.5-11.1,16.9-26.6,16.9-44c0-17.1-6.5-32.7-16.9-44c-10.3-11.1-24.2-17.9-39.7-17.9l-167.1,0.2v15.3l19.2,0.2h8.5v8.5v74v8.5 h-8.5l-19.4,0.2V209.5L262.3,209.5z M178.4,191.9l-90.3,0.4h-8.5v-8.7v-21.2v-8.7h8.5l91.1,0.2h0.6c5,0.4,9.5,2.6,12.7,6 c3.2,3.4,5.2,7.9,5.2,12.9c0,0.8-0.2,1.4-0.2,2.2c-0.6,4.2-2.2,8.3-5.2,11.3c-3,3.4-7.5,5.6-12.5,5.6 C179.2,192.1,178.8,191.9,178.4,191.9L178.4,191.9z M28.4,192.3l-21.8,0.2v16.7l194.6,0.2c0.2,0,0.4,0,0.4,0 c8.1,0,15.3-3.4,20.8-8.9c5.4-5.6,8.9-13.3,8.9-21.8c0-0.2,0-0.4,0-0.4c0-7.1-2.2-13.7-6-19c-3.8-5.2-9.1-9.1-15.1-10.7l-26.2-7.1 l25.6-9.3c4-1.4,7.5-4.2,9.9-8.1c2.6-3.8,4-8.7,4-14.1c0-6.9-2.4-12.9-6.5-17.3c-3.8-4.2-9.1-6.9-14.7-6.9L6.7,85.9v15.5h21.8h8.5 v8.5v74v8.5H28.4L28.4,192.3z M88.1,101.4l87.5-0.2c0.2,0,0.4,0,0.6,0c5,0,9.5,2,12.5,5.4c3,3.2,5,7.5,5.2,12.1c0,0.2,0,0.4,0,0.8 c0,5.2-2,9.9-5.8,13.3c-3.2,3.2-7.9,5.2-13.3,5.2h-0.2H88.1h-8.5v-8.5v-19.8v-8.5H88.1L88.1,101.4z"></path></g></svg>
