<?xml version="1.0" standalone="no"?>
<!DOCTYPE svg PUBLIC "-//W3C//DTD SVG 20010904//EN"
 "http://www.w3.org/TR/2001/REC-SVG-20010904/DTD/svg10.dtd">
<svg version="1.0" xmlns="http://www.w3.org/2000/svg"
 viewBox="0 0 388.000000 130.000000"
 preserveAspectRatio="xMidYMid meet">
<metadata>
Created by potrace 1.16, written by Peter Selinger 2001-2019
</metadata>
<g transform="translate(0.000000,130.000000) scale(0.100000,-0.100000)"
fill="#000000" stroke="none">
<path d="M1705 1139 c-520 -14 -958 -64 -1523 -176 l-182 -36 0 -217 c0 -233
-1 -230 51 -230 18 0 19 9 19 195 l0 194 38 11 c235 65 737 152 1167 200 514
58 1227 47 1939 -30 104 -12 190 -19 192 -17 3 2 -67 14 -153 25 -512 70
-1002 95 -1548 81z"/>
<path d="M3808 673 l-3 -247 -50 -13 c-285 -74 -831 -164 -1270 -209 -344 -35
-1008 -28 -1520 16 -121 10 -251 21 -290 24 l-70 5 85 -14 c276 -46 754 -76
1215 -76 642 0 1239 61 1848 188 l127 26 0 267 0 268 -22 6 c-49 13 -47 20
-50 -241z"/>
<path d="M200 635 l0 -125 103 1 c56 0 118 5 137 12 31 11 35 17 38 50 2 26
-2 45 -13 57 -11 12 -13 20 -6 25 6 3 11 21 11 40 0 55 -25 65 -157 65 l-113
0 0 -125z"/>
<path d="M1813 745 c-21 -9 -35 -23 -39 -41 -14 -53 30 -84 119 -84 64 0 97
-12 97 -36 0 -34 -82 -43 -156 -18 -42 14 -48 14 -62 0 -14 -14 -11 -17 29
-35 49 -23 137 -27 187 -10 38 13 59 57 42 89 -16 29 -69 50 -128 50 -55 0
-94 21 -75 41 15 15 114 14 143 -1 18 -10 25 -9 38 4 19 19 11 29 -37 45 -46
15 -119 13 -158 -4z"/>
<path d="M560 615 l0 -105 100 0 c100 0 100 0 100 25 0 23 -3 24 -77 27 l-78
3 0 78 c0 73 -1 77 -22 77 -22 0 -23 -3 -23 -105z"/>
<path d="M907 678 c-51 -91 -87 -158 -87 -163 0 -15 51 -2 60 15 9 17 21 20
78 20 56 0 69 -3 80 -20 11 -19 68 -30 60 -12 -1 4 -28 52 -58 105 -48 85 -58
97 -82 97 -22 0 -32 -9 -51 -42z"/>
<path d="M1160 614 l0 -106 89 4 c72 2 95 7 118 24 44 32 58 69 44 115 -17 55
-49 69 -161 69 l-90 0 0 -106z m185 41 c30 -29 31 -45 6 -76 -16 -20 -28 -23
-77 -24 l-59 0 -3 63 -3 62 56 0 c46 0 60 -4 80 -25z"/>
<path d="M1476 618 l2 -103 111 -3 c105 -3 111 -2 111 17 0 18 -8 20 -87 23
-83 3 -88 4 -91 26 -3 21 0 22 57 22 54 0 61 2 61 20 0 16 -8 19 -57 22 -46 2
-59 7 -61 21 -3 15 6 17 82 17 79 0 86 2 86 20 0 19 -7 20 -107 20 l-108 0 1
-102z"/>
<path d="M2120 615 c0 -97 1 -105 19 -105 16 0 20 8 23 43 l3 42 72 3 72 3 3
-43 c2 -36 7 -44 26 -46 22 -3 22 -2 22 102 l0 106 -25 0 c-22 0 -25 -4 -25
-35 l0 -35 -75 0 -75 0 0 35 c0 28 -4 35 -20 35 -19 0 -20 -7 -20 -105z"/>
<path d="M2412 618 l3 -103 113 -3 c106 -3 112 -2 112 17 0 18 -8 20 -87 23
-83 3 -88 4 -91 26 -3 21 0 22 57 22 54 0 61 2 61 20 0 16 -8 19 -57 22 -46 2
-59 7 -61 21 -3 15 6 17 82 17 79 0 86 2 86 20 0 19 -7 20 -110 20 l-111 0 3
-102z"/>
<path d="M2700 615 l0 -105 100 0 100 0 0 25 c0 24 -2 25 -75 25 l-75 0 0 80
c0 79 0 80 -25 80 l-25 0 0 -105z"/>
<path d="M2890 700 c0 -17 7 -20 50 -20 l50 0 0 -85 c0 -78 2 -85 20 -85 18 0
20 7 20 85 l0 85 50 0 c43 0 50 3 50 20 0 19 -7 20 -120 20 -113 0 -120 -1
-120 -20z"/>
<path d="M3180 615 l0 -106 112 3 c98 3 113 5 116 21 3 15 -6 17 -87 17 -90 0
-91 0 -91 25 0 24 3 25 61 25 57 0 60 1 57 23 -3 19 -10 22 -60 25 -43 2 -58
7 -58 17 0 12 17 15 85 15 78 0 85 2 85 20 0 19 -7 20 -110 20 l-110 0 0 -105z"/>
<path d="M3460 614 c0 -104 0 -105 23 -102 18 2 23 10 25 41 3 37 4 37 47 37
39 0 47 -4 75 -40 17 -22 40 -40 51 -40 24 0 24 15 -1 50 -19 27 -19 27 0 45
25 23 26 76 2 98 -15 14 -40 17 -120 17 l-102 0 0 -106z"/>
</g>
</svg>
