<svg xmlns="http://www.w3.org/2000/svg" version="1" viewBox="0 0 625.5 305.07"><path d="M625.274 266.826H583.46c-17.596.087-39.635-24.13-68.904-23.868-42.77.435-64.374 41.9-105.316 41.377-27.875-.262-28.31-17.945-38.676-35.54h-26.569c7.666 17.595 18.468 55.836 64.81 56.272 46.778.435 60.367-40.942 105.316-40.942 26.132 0 45.906 22.91 69.774 22.91h41.378v-20.21M0 266.826h32.405c17.596.087 39.635-24.13 68.904-23.868 42.683.435 64.374 41.9 105.315 41.377 27.875-.262 28.31-17.945 38.677-35.54h26.568c-7.665 17.595-18.467 55.836-64.81 56.272-46.777.435-60.28-40.942-105.315-40.942-26.133 0-45.907 22.91-69.775 22.91H0v-20.21" class="ps01" fill="#e21736"/><path d="M348.265 150.534l-25.262-.087L312.288 37.99c-.61-5.75-3.571-5.314-3.571-5.314s-2.962-.436-3.572 5.314l-10.888 112.458h-25.175L283.89 28.145C288.07-1.21 308.717.01 308.717.01s20.558-1.307 24.826 28.136l14.722 122.39" class="ps01 ps10" fill="#e21736" stroke-width=".224"/><path class="ps03" d="M607.59 224.49c.871-4.878 5.488-8.798 10.453-8.798 4.879 0 8.189 3.92 7.318 8.798-.871 4.966-5.575 8.886-10.453 8.886-4.966 0-8.189-3.92-7.318-8.886m15.419 0c.697-3.92-1.568-6.707-5.314-6.707-3.92 0-7.056 2.788-7.753 6.707-.697 4.007 1.481 6.795 5.314 6.795s7.056-2.788 7.753-6.795m-2.962 4.879h-2.352l-1.394-4.095h-1.568l-.697 4.095h-2.09l1.742-9.582h4.617c2.526 0 3.571.696 3.223 2.961-.349 1.742-1.394 2.44-3.136 2.526l1.655 4.095zm-2.44-5.488c1.046 0 1.83-.262 2.092-1.394.174-1.307-1.22-1.22-2.091-1.22h-2.178l-.435 2.614h2.613m-588.339 9.582l11.934-67.51h32.23c15.158 0 26.656 3.571 24.304 16.986-1.22 6.969-6.62 12.021-11.411 14.722 6.969 1.829 9.756 8.188 8.536 15.418-2.7 15.07-15.157 20.384-32.666 20.384H29.27zm27.091-28.224l-2.178 12.457h9.67c5.4 0 9.756-1.133 10.627-6.185 1.045-5.923-4.007-6.272-11.063-6.272H56.36zm4.181-23.52l-2.003 11.238h9.233c4.356 0 7.927-1.917 8.624-5.924.871-5.226-3.397-5.313-8.101-5.313h-7.753m60.89 28.223l-4.181 23.52H95.21l11.848-67.51h31.882c22.474 0 28.833 6.097 26.481 19.25-1.393 7.754-6.01 14.287-14.199 16.465 6.62 2.613 10.628 4.355 8.276 17.944-1.568 8.798-2.44 11.76.261 11.76l-.348 2.09h-22.475c-.26-1.48-.087-5.836.959-11.846 1.568-8.798.61-11.673-9.67-11.673h-6.794zm2.613-14.809h8.711c6.882 0 10.802-1.742 11.673-6.359.784-4.79-2.526-7.055-7.666-7.055h-10.366l-2.352 13.414m112.72 4.182c-4.007 22.997-21.777 35.889-41.725 35.889-21.168 0-33.015-13.067-29.008-36.063 3.746-21.168 20.558-34.931 41.551-34.931 24.043 0 32.318 17.334 29.182 35.105m-48.607 0c-1.568 8.624-.784 19.425 9.756 19.425 9.582 0 14.809-8.275 16.725-19.425 1.655-9.147-.435-18.903-10.192-18.642-10.017 0-14.808 10.105-16.289 18.642m39.373 34.147l36.151-67.51h22.474l12.283 67.51h-22.039l-1.045-8.885h-22.039l-4.094 8.885h-21.69zm43.555-47.127l-11.062 24.13h13.937l-2.875-24.13zm32.231 47.127l11.847-67.51h29.617c21.778 0 33.45 10.104 29.53 32.317-4.442 25.436-20.383 35.193-41.986 35.193h-29.008zm24.826-15.767h4.704c10.28 0 16.9-5.4 19.164-18.206 2.44-14.025-1.48-17.77-13.24-17.77h-4.27l-6.359 35.976m97.564-25.959c.523-7.056-3.136-11.063-10.017-11.063-7.84 0-13.677 6.708-15.942 19.687-1.655 9.495-1.219 18.38 10.018 18.38 7.143 0 11.411-4.965 13.415-11.411h21.255c-5.053 17.422-19.339 27.875-37.196 27.875-22.3 0-33.363-13.676-29.53-35.628 3.833-21.777 21.08-35.366 39.896-35.366 20.645 0 30.314 10.191 29.095 27.526h-20.994m93.208 7.579c-4.095 22.997-21.778 35.889-41.726 35.889-21.255 0-33.015-13.067-29.007-36.063 3.745-21.168 20.47-34.931 41.464-34.931 24.13 0 32.405 17.334 29.269 35.105m-48.608 0c-1.568 8.624-.87 19.425 9.757 19.425 9.582 0 14.721-8.275 16.725-19.425 1.655-9.147-.436-18.903-10.192-18.642-10.018 0-14.809 10.105-16.29 18.642m47.737 34.147l11.846-67.51h26.743l4.443 42.074 19.338-42.074h26.743l-11.934 67.51H575.36l3.658-20.645 2.09-10.453 3.311-12.196h-.174l-19.948 43.294h-15.332l-4.616-43.294h-.262l-.784 9.93-1.393 10.454-4.007 22.91h-19.861z"/></svg>