<svg xmlns="http://www.w3.org/2000/svg" viewBox="0 0 64.000001 46.502422"><path d="M50.21 19.142c-8.865 0-18.835-3.941-30.434-12.033H50.21c3.313 0 6.009 2.7 6.009 6.014 0 3.318-2.696 6.019-6.01 6.019zm0 20.261H19.77c11.605-8.101 21.575-12.047 30.44-12.047 3.314 0 6.01 2.705 6.01 6.024 0 3.323-2.696 6.023-6.01 6.023zm9.012-16.154A13.104 13.104 0 0 0 64 13.123C64 5.868 58.118 0 50.863 0H0c13.017 13.157 25.415 19.905 35.112 23.249C25.415 26.582 13.017 33.349 0 46.502h50.863C58.118 46.502 64 40.634 64 33.38a13.12 13.12 0 0 0-4.778-10.131" fill="#ed1d24"/></svg>