<svg id="Layer_1" data-name="Layer 1" xmlns="http://www.w3.org/2000/svg" viewBox="0 0 320 320"><defs><style>.cls-1{fill:#07255e;}.cls-2{fill:#83c351;}.cls-3{fill:#637296;}</style></defs><title>Artboard 1</title><path class="cls-1" d="M13.89,21.55C25.1,20,37.62,18.36,51.25,16.49c-1,16.57-2.37,32.38-2.86,48.21-.49,15.6-.11,31.22-.11,45.74,10.1-1.79,22-5.2,34-5.75,23.59-1.08,44.12,12.57,44.89,35.87,1.3,39.37.5,79.45-5.76,118.22-5.1,31.6-38.6,46.17-75,39.59C18,293.25.48,270.07,1.75,237.34c1.32-34.16,3.81-68.27,5.74-102.4.89-15.68,1.64-31.37,2.46-47,.13-1.29.25-2.57.38-3.85,1.06-19.38,2.37-42.54,3.5-61.92M43.11,152c-2.5,32.44-3.22,59.22-4,90.14-.4,16.67,7.78,25.49,21.9,26.78,14.5,1.32,25.62-5.77,27.2-21.49,3-29.83,5.2-59.91,4.94-89.86C93,137.26,75.39,128.85,56.55,137.5,52.85,139.19,43.79,143.18,43.11,152Z"/><path class="cls-1" d="M225.88,272c-1.5,9.51-2.93,18.55-4.34,27.46C194,300,178.75,285.14,179.67,258c1.32-38.72,3.48-77.42,5.34-117.34H145.47l8.65-31h32.31c1-10.11,1.94-19.24,3-29.37h35.5v29.28h38.34c-2.58,10.57-4.87,19.92-7.43,30.4H224.59C221.38,244.58,215.62,259.53,225.88,272Z"/><path class="cls-1" d="M310.36,243.2c.35,15.53,2.92,24.75,9.23,31.15h0c-1.46,9.87-2.48,16.83-3.93,26.63-30.92-3.28-45-17.87-43.55-45.37,2.54-47.85,5.28-97.29,8.29-146.7h36"/><path class="cls-2" d="M281.8,81h36.31c-.36,6.36-1,12.15-1.38,18.49h-36C281.09,93.14,281.41,87.71,281.8,81Z"/><path class="cls-3" d="M10.33,84c-.13,1.28-.25,2.56-.38,3.85C10.08,86.6,10.2,85.32,10.33,84Z"/></svg>