<?xml version="1.0" encoding="utf-8"?>
<!-- Generator: Adobe Illustrator 12.0.0, SVG Export Plug-In  -->
<!DOCTYPE svg PUBLIC "-//W3C//DTD SVG 1.1//EN" "http://www.w3.org/Graphics/SVG/1.1/DTD/svg11.dtd" [
	<!ENTITY ns_flows "http://ns.adobe.com/Flows/1.0/">
	<!ENTITY ns_svg "http://www.w3.org/2000/svg">
	<!ENTITY ns_xlink "http://www.w3.org/1999/xlink">
]>
<svg  version="1.1" xmlns="&ns_svg;" xmlns:xlink="&ns_xlink;" xmlns:a="http://ns.adobe.com/AdobeSVGViewerExtensions/3.0/"
	 width="144" height="28" viewBox="-0.5 -0.334 144 28" enable-background="new -0.5 -0.334 144 28" xml:space="preserve">
<defs>
</defs>
<path fill="#EF1923" d="M128.225,0c-1.748,0-4.373,1.035-5.168,4.002l-4.998,18.635c-0.58,2.17,1,4.101,3.119,4.101h9.734
	c2.555,0,4.668-1.64,5.285-3.935l5.186-19.372C141.859,1.784,140.715,0,138.744,0H128.225z M125.619,22.992
	c-0.289,0-0.648-0.262-0.504-0.74l4.688-17.5c0.139-0.516,0.648-1.007,1.268-1.007h2.557c0.455,0,0.635,0.396,0.529,0.721
	l-4.695,17.53c-0.189,0.691-0.777,0.996-1.32,0.996H125.619z M39.242,0L33.35,21.996c-0.188,0.691-0.777,0.996-1.318,0.996h-2.525
	c-0.291,0-0.646-0.262-0.503-0.74L34.965,0h-6.95l-6.237,23.281c-0.504,1.762,0.775,3.456,2.565,3.456h10.463
	c2.548,0,4.663-1.64,5.279-3.935L46.194,0H39.242z M96.235,0c-1.851,0-3.801,0.927-4.935,2.722l-15.43,24.015h4.487l4.123-6.42
	h7.799l-0.637,6.42h6.686L100.972,0H96.235z M86.887,16.576l6.812-10.608l-1.051,10.608H86.887z M20.927,16.475
	c0.454-1.694-0.365-2.788-1.709-3.106c0.982-0.094,2.804-0.97,3.335-2.955l1.868-6.979C24.915,1.719,23.678,0,21.799,0H7.16
	L0,26.737h14.15c2.544,0,4.395-1.372,5.056-3.833L20.927,16.475z M14.11,15.964l-1.613,6.032c-0.189,0.691-0.779,0.996-1.32,0.996
	H7.953l2.078-7.75h3.549C14.038,15.242,14.216,15.639,14.11,15.964 M17.193,4.466l-1.619,6.033
	c-0.189,0.689-0.779,1.002-1.321,1.002h-3.224l2.079-7.756h3.554C17.118,3.745,17.296,4.141,17.193,4.466 M76.448,3.749
	c-0.743,0-1.719,0.492-2.031,1.647l-1.992,7.438h9.25l-1.99,3.744h-8.262l-2.718,10.159h-6.952L67.85,4.006
	c0.756-2.825,3.277-4.002,5.062-4.002h16.059c-1.536,0.846-2.254,2.139-2.675,3.745H76.448z M103.918,26.737
	c-1.598,0-3.036-1.591-2.506-3.47l5.16-19.266C107.279,1.35,109.631,0,111.738,0h2.852l-5.959,22.252
	c-0.148,0.479,0.213,0.74,0.5,0.74h6.697c0.014,1.875,0.664,2.832,1.9,3.745H103.918z M56.403,3.749
	c-0.741,0-1.723,0.492-2.029,1.647l-1.994,7.438h9.248l-1.99,3.744h-8.261l-2.718,10.159h-6.95l6.094-22.731
	c0.755-2.825,3.28-4.002,5.062-4.002H67.85c-1.537,0.846-2.252,2.139-2.674,3.745H56.403z M138.393,26.487v-2.642h-0.986v-0.354
	h2.369v0.354h-0.986v2.642H138.393z M140.17,26.487v-2.996h0.59l0.715,2.119c0.066,0.198,0.115,0.345,0.145,0.444
	c0.033-0.109,0.086-0.271,0.16-0.482l0.721-2.081h0.531v2.996h-0.381v-2.509l-0.875,2.509h-0.357l-0.867-2.55v2.55H140.17z"/>
</svg>
