<svg viewBox="-.5 -.334 144 28" xmlns="http://www.w3.org/2000/svg"><path d="m128.225 0c-1.748 0-4.373 1.035-5.168 4.002l-4.998 18.635c-.58 2.17 1 4.101 3.119 4.101h9.734c2.555 0 4.668-1.64 5.285-3.935l5.186-19.372c.476-1.647-.668-3.431-2.639-3.431h-10.519zm-2.606 22.992c-.289 0-.648-.262-.504-.74l4.688-17.5c.139-.516.648-1.007 1.268-1.007h2.557c.455 0 .635.396.529.721l-4.695 17.53c-.189.691-.777.996-1.32.996zm-86.377-22.992-5.892 21.996c-.188.691-.777.996-1.318.996h-2.525c-.291 0-.646-.262-.503-.74l5.961-22.252h-6.95l-6.237 23.281c-.504 1.762.775 3.456 2.565 3.456h10.463c2.548 0 4.663-1.64 5.279-3.935l6.109-22.802zm56.993 0a5.875 5.875 0 0 0 -4.935 2.722l-15.43 24.015h4.487l4.123-6.42h7.799l-.637 6.42h6.686l2.644-26.737zm-9.348 16.576 6.812-10.608-1.051 10.608zm-65.96-.101c.454-1.694-.365-2.788-1.709-3.106.982-.094 2.804-.97 3.335-2.955l1.868-6.979c.494-1.716-.743-3.435-2.622-3.435h-14.639l-7.16 26.737h14.15c2.544 0 4.395-1.372 5.056-3.833zm-6.817-.511-1.613 6.032c-.189.691-.779.996-1.32.996h-3.224l2.078-7.75h3.549c.458 0 .636.397.53.722m3.083-11.498-1.619 6.033c-.189.689-.779 1.002-1.321 1.002h-3.224l2.079-7.756h3.554c.456 0 .634.396.531.721m59.255-.717c-.743 0-1.719.492-2.031 1.647l-1.992 7.438h9.25l-1.99 3.744h-8.262l-2.718 10.159h-6.952l6.097-22.731c.756-2.825 3.277-4.002 5.062-4.002h16.059c-1.536.846-2.254 2.139-2.675 3.745h-9.848zm27.47 22.988c-1.598 0-3.036-1.591-2.506-3.47l5.16-19.266c.707-2.651 3.059-4.001 5.166-4.001h2.852l-5.959 22.252c-.148.479.213.74.5.74h6.697c.014 1.875.664 2.832 1.9 3.745zm-47.515-22.988c-.741 0-1.723.492-2.029 1.647l-1.994 7.438h9.248l-1.99 3.744h-8.261l-2.718 10.159h-6.95l6.094-22.731c.755-2.825 3.28-4.002 5.062-4.002h14.985c-1.537.846-2.252 2.139-2.674 3.745zm81.99 22.738v-2.642h-.986v-.354h2.369v.354h-.986v2.642zm1.777 0v-2.996h.59l.715 2.119c.066.198.115.345.145.444.033-.109.086-.271.16-.482l.721-2.081h.531v2.996h-.381v-2.509l-.875 2.509h-.357l-.867-2.55v2.55z" fill="#ef1923"/></svg>