<svg xmlns="http://www.w3.org/2000/svg" viewBox="0 0 122.34045 128"><path d="M31.71 63.988c.01-16.03 13.007-29.026 29.04-29.026 8.025 0 15.286 3.254 20.545 8.51l24.327-24.715C94.039 7.167 78.038 0 60.368 0 32.486 0 8.772 17.836 0 42.715c12.915 16.45 31.514 21.227 31.71 21.273zm49.75 20.378c-5.272 5.359-12.599 8.684-20.71 8.684-16.033 0-29.034-12.994-29.04-29.03-.2.047-18.795 4.829-31.71 21.27C8.774 110.173 32.486 128 60.368 128c17.858 0 33.998-7.312 45.609-19.117L81.459 84.366z" fill="#5b4f9a"/><path d="M86.845 64.08v.03c.196.052 19.313 5.594 31.72 23.06 2.385-7.291 3.775-15.476 3.775-23.08 0-8.246-1.288-15.682-3.782-23.052-12.77 17.865-31.517 22.987-31.713 23.042z" fill="#e3820f"/></svg>