<svg version="1.2" xmlns="http://www.w3.org/2000/svg" viewBox="0 0 1555 1584"><path d="M270.7 156.5C386.4 71.2 525.2 17.8 668.2 4.3c102.8-9.5 207.6-1 306.7 28.4 117.6 34.1 226.6 96.3 317.2 178.5-69.3 129.3-186.5 232-323.7 283.8-61.3-45.2-136.5-71.5-212.8-72.5-84.7-2.1-169.7 26.7-235.9 79.6-86.8 67.6-140.4 175.8-140.8 286C231.4 727.2 100.7 627.6.4 503.7c54.8-138.3 150.7-259.3 270.3-347.2zM.4 1080.7c100.1-124.1 230.9-223.8 378.5-284.2.5 79 27.8 157.4 76.1 220 53.5 70.6 133.2 120.8 220.1 138.1 101.3 21.2 210.5-3.7 293.5-65.3 137 51.9 253.5 154.4 323.6 283.1-120.6 111.6-276.7 183.9-439.6 204.8-161.3 21.1-329.1-7.3-473.7-82.5-170-86.9-307.9-236.4-378.5-414z" fill="#0b38db"/><path d="M1104.6 792.2c152.1-61.7 287.8-162.8 390.4-290.9 35.7 87.8 56 181.9 59.2 276.6 1 104.2-19.7 208.6-59.5 304.8-102.3-128.2-238.2-228.9-390.1-290.5z" fill="#ff7600"/></svg>
