<svg xmlns="http://www.w3.org/2000/svg" viewBox="0 0 128 127.99999"><defs><clipPath id="a"><path d="M61.456 759.212a14.556 14.556 0 0 1-7.811-9.927v-6.349c.246-1.1.626-2.19 1.144-3.247a14.566 14.566 0 0 1 10.233-7.876h5.738c1.204.243 2.397.643 3.551 1.21 7.233 3.55 10.22 12.29 6.669 19.521-2.534 5.165-7.716 8.164-13.106 8.164-2.16 0-4.35-.481-6.418-1.496"/></clipPath></defs><path d="M121.44 35.813c15.571 31.718 2.47 70.06-29.252 85.628-31.717 15.567-70.057 2.478-85.628-29.245C-9.01 60.47 4.086 22.127 35.808 6.564c31.717-15.576 70.061-2.478 85.632 29.249" fill="#133a73"/><g clip-path="url(#a)" transform="matrix(4.38624 0 0 -4.38643 -233.76 3336.796)"><path d="M85.791 752.627c3.02-5.397 1.093-12.22-4.306-15.242-5.397-3.02-12.22-1.092-15.242 4.304-3.018 5.399-1.092 12.224 4.306 15.244 5.397 3.02 12.221 1.093 15.242-4.306z" fill="none" stroke="#fff" stroke-width="1.838"/><path d="M85.082 750.278a9.408 9.408 0 1 0-16.421-9.187 9.408 9.408 0 0 0 16.421 9.187" fill="#133a73"/><path d="M85.082 750.278a9.408 9.408 0 1 0-16.421-9.187 9.408 9.408 0 0 0 16.421 9.187z" fill="none" stroke="#fff" stroke-width="1.838"/><path d="M86.645 755.231c3.563-6.37 1.29-14.423-5.08-17.987-6.37-3.564-14.421-1.288-17.985 5.08-3.565 6.37-1.29 14.423 5.078 17.986 6.371 3.565 14.424 1.29 17.987-5.079zm1.009 3.073c4.204-7.518 1.521-17.02-5.998-21.225-7.513-4.206-17.016-1.522-21.22 5.995-4.206 7.515-1.524 17.019 5.991 21.223 7.52 4.206 17.021 1.521 21.226-5.993z" fill="none" stroke="#fff" stroke-width="1.838"/></g></svg>