<svg xmlns="http://www.w3.org/2000/svg" viewBox="0 0 400 83.997991" version="1"><g fill="#bf1920"><path d="M65.31 75.854c-18.598 0-33.67-15.08-33.67-33.681 0-18.602 15.073-33.668 33.67-33.668 6.555 0 12.675 1.87 17.845 5.11L65.31 42.173l33.595-19.398c-3.65-5.816-8.885-10.827-15.215-14.629C75.635 3.323 64.43.339 52.04.339c-17.674 0-33.18 6.422-41.826 16.04C3.812 23.49 0 32.438 0 42.172c0 9.742 3.812 18.697 10.213 25.812 8.67 9.63 23.944 16.015 41.327 16.015 17.38 0 32.65-6.39 41.325-16.015.475-.53.935-1.065 1.37-1.62l-1.31-4.91c-6.095 8.7-16.19 14.4-27.615 14.4m111.38 6.12l-14.1-52.6c-2.265-8.5-10.005-14.748-19.22-14.748-2.39 0-4.68.427-6.805 1.2L106.21 26.864h31.22l5.335 19.924a29.484 29.484 0 0 0-19.295-7.164c-14.655 0-26.52 9.821-26.52 21.935 0 12.115 11.865 21.95 26.52 21.95 10.55 0 19.88-5.165 25.635-13.1l3.095 11.565h24.49m-43.01-8.17c-6.76 0-12.24-5.475-12.24-12.245 0-6.76 5.48-12.24 12.24-12.24s12.245 5.48 12.245 12.24c0 6.77-5.485 12.245-12.245 12.245zm100.5-59.169c-1.85 0-3.6.41-5.16 1.142l-19.49 9.083c-.965-5.802-6.005-10.225-12.085-10.225-1.84 0-3.595.41-5.175 1.142l-23.795 11.087h16.73v55.11h24.49V32.995a6.127 6.127 0 0 1 6.125-6.13c3.37 0 6.125 2.751 6.125 6.13v48.98h24.48v-55.11c0-6.759-5.485-12.229-12.245-12.229m153.58-.001c-1.855 0-3.615.41-5.2 1.142l-19.47 9.083c-.96-5.802-6-10.225-12.08-10.225-1.84 0-3.595.41-5.18 1.142l-23.785 11.087h16.725v55.11h24.485V32.995c0-3.379 2.74-6.13 6.13-6.13 3.38 0 6.115 2.751 6.115 6.13v48.98H400v-55.11c0-6.759-5.49-12.229-12.24-12.229"/><path d="M326.005 49.318C326.005 68.474 310.48 84 291.33 84c-19.165 0-34.7-15.525-34.7-34.68 0-19.151 15.535-34.684 34.7-34.684 19.15 0 34.675 15.533 34.675 34.683m-33.24-24.157a7.64 7.64 0 0 0-9.365-5.406c-4.075 1.092-6.51 5.29-5.415 9.37l11.895 44.349a7.666 7.666 0 0 0 9.365 5.425c4.08-1.105 6.505-5.3 5.41-9.38l-11.89-44.358z"/></g></svg>