<svg viewBox="0 0 170 170" xmlns="http://www.w3.org/2000/svg"><g fill-rule="evenodd" stroke-width="30"><path d="m71.845 78.491 6.17 6.134-6.17 6.133h-43.426v20.438l-26.483-26.571 26.484-26.125v19.99h43.426z" fill="#932279"/><path d="m91.509 71.283-6.134 6.17-6.134-6.17v-43.425h-20.437l26.571-26.483 26.123 26.483h-19.99v43.425z" fill="#efa724"/><path d="m98.717 90.947-6.17-6.133 6.17-6.134h43.425v-20.438l26.483 26.572-26.483 26.123v-19.99z" fill="#262577"/><path d="m79.052 98.155 6.134-6.17 6.134 6.17v43.426h20.437l-26.571 26.483-26.123-26.483h19.99v-43.426z" fill="#9ccd2a"/></g><g stroke="#fff" stroke-width="3.543"><g transform="matrix(1.06366 0 0 1.06367 -687.902 -2405.018)"><path d="m671.984 2285.79h49.607v49.606h-49.607v-49.607z" fill="#9ccd2a"/><path d="m732.22 2285.79h49.607v49.606h-49.606v-49.607z" fill="#932279"/><path d="m732.22 2346.026h49.607v49.606h-49.606v-49.606z" fill="#efa724"/><path d="m671.984 2346.026h49.607v49.606h-49.607z" fill="#262577"/></g><path d="m-784.629 642.409h49.607v49.606h-49.607v-49.605zm60.237 0h49.606v49.606h-49.606v-49.605z" fill="none" transform="matrix(.7521212 -.75212827 .7521212 .75212827 109.631873 -988.59619)"/><path d="m-15.378 1009.068 35.078-35.078 35.077 35.077-35.077 35.077-35.077-35.077z" fill="none" transform="matrix(1.06366 0 0 1.06367 109.632 -988.593)"/><path d="m-784.629 702.645h49.607v49.607h-49.607z" fill="none" transform="matrix(.7521212 -.75212827 .7521212 .75212827 109.631873 -988.59619)"/></g></svg>