<svg viewBox="0 0 250 250" xmlns="http://www.w3.org/2000/svg" fill-rule="evenodd" clip-rule="evenodd" stroke-linejoin="round" stroke-miterlimit="1.41421">
  <g fill="#932279">
    <path d="M136.719 36.719H162.5l16.406 17.187-42.187 42.188V36.719zm76.562 76.562V87.5l-17.187-16.406-42.188 42.187h59.375z"/>
    <path d="M168.089 36.612h45.299v45.299l-17.677-17.678-49.719 49.718-9.391-.552-.552-9.391 49.718-49.719-17.678-17.677z"/>
  </g>
  <g fill="#efa724">
    <path d="M213.281 136.719V162.5l-17.187 16.406-42.188-42.187h59.375zm-76.562 76.562H162.5l16.406-17.187-42.187-42.188v59.375z"/>
    <path d="M213.388 168.089v45.299h-45.299l17.678-17.677-49.718-49.719.552-9.391 9.391-.552 49.719 49.718 17.677-17.678z"/>
  </g>
  <g fill="#262577">
    <path d="M113.281 213.281H87.5l-16.406-17.187 42.187-42.188v59.375zm-76.562-76.562V162.5l17.187 16.406 42.188-42.187H36.719z"/>
    <path d="M81.911 213.388H36.612v-45.299l17.677 17.678 49.719-49.718 9.391.552.552 9.391-49.718 49.719 17.678 17.677z"/>
  </g>
  <g fill="#9ccd2a">
    <path d="M36.719 113.281V87.5l17.187-16.406 42.188 42.187H36.719zm76.562-76.562H87.5L71.094 53.906l42.187 42.188V36.719z"/>
    <path d="M36.612 81.911V36.612h45.299L64.233 54.289l49.718 49.719-.552 9.391-9.391.552-49.719-49.718-17.677 17.678z"/>
  </g>
  <path d="M92.969 32.031L125 0l32.031 32.031h-25v70.313l-7.031 6.25-7.031-6.25V32.031h-25z" fill="#efa724"/>
  <path d="M217.969 92.969L250 125l-32.031 32.031v-25h-70.313l-6.25-7.031 6.25-7.031h70.313v-25z" fill="#262577"/>
  <path d="M157.031 217.969L125 250l-32.031-32.031h25v-70.313l7.031-6.25 7.031 6.25v70.313h25z" fill="#9ccd2a"/>
  <path d="M32.031 157.031L0 125l32.031-32.031v25h70.313l6.25 7.031-6.25 7.031H32.031v25z" fill="#932279"/>
</svg>
