<svg xmlns="http://www.w3.org/2000/svg" viewBox="0 0 170 170"><title>The CentOS Logo Vertical Version</title><path style="marker:none" d="M71.845 78.491l6.17 6.134-6.17 6.133H28.419v20.438L1.936 84.625 28.42 58.5v19.99h43.426z" overflow="visible" fill="#932279" fill-rule="evenodd" stroke-width="30"/><path style="marker:none" d="M91.509 71.283l-6.134 6.17-6.134-6.17V27.858H58.804L85.375 1.375l26.123 26.483h-19.99v43.425z" overflow="visible" fill="#efa724" fill-rule="evenodd" stroke-width="30"/><path style="marker:none" d="M98.717 90.947l-6.17-6.133 6.17-6.134h43.425V58.242l26.483 26.572-26.483 26.123v-19.99H98.717z" overflow="visible" fill="#262577" fill-rule="evenodd" stroke-width="30"/><path style="marker:none" d="M79.052 98.155l6.134-6.17 6.134 6.17v43.426h20.437l-26.571 26.483-26.123-26.483h19.99V98.155z" overflow="visible" fill="#9ccd2a" fill-rule="evenodd" stroke-width="30"/><g stroke="#fff" stroke-width="3.543"><path d="M671.984 2285.79h49.607v49.606h-49.607v-49.607z" fill="#9ccd2a" transform="matrix(1.06366 0 0 1.06367 -687.902 -2405.018)"/><path d="M732.22 2285.79h49.607v49.606h-49.606v-49.607z" fill="#932279" transform="matrix(1.06366 0 0 1.06367 -687.902 -2405.018)"/><path d="M732.22 2346.026h49.607v49.606h-49.606v-49.606z" fill="#efa724" transform="matrix(1.06366 0 0 1.06367 -687.902 -2405.018)"/><path d="M671.984 2346.026h49.607v49.606h-49.607v-49.606z" fill="#262577" transform="matrix(1.06366 0 0 1.06367 -687.902 -2405.018)"/></g><path transform="scale(1.06366 1.06367) rotate(-45 -1070.374 -589.127)" d="M-784.629 642.409h49.607v49.606h-49.607V642.41zm60.237 0h49.606v49.606h-49.606V642.41z" fill="none" stroke="#fff" stroke-width="3.543"/><path d="M-15.378 1009.068L19.7 973.99l35.077 35.077-35.077 35.077-35.077-35.077z" fill="none" stroke="#fff" stroke-width="3.543" transform="matrix(1.06366 0 0 1.06367 109.632 -988.593)"/><path transform="scale(1.06366 1.06367) rotate(-45 -1070.374 -589.127)" d="M-784.629 702.645h49.607v49.607h-49.607v-49.607z" fill="none" stroke="#fff" stroke-width="3.543"/></svg>