<svg viewBox="-1.1146875 -1.1146875 111.3125 37.15594" xmlns="http://www.w3.org/2000/svg"><path d="m26.26-1.1c-2.52 0-4.56 2.03-4.56 4.55s2.04 4.55 4.56 4.55 4.56-2.03 4.56-4.55-2.04-4.55-4.56-4.55zm21.44 10.76c-7.25 0-12.76 6.34-12.88 13.43-.03 2.2.44 4.3 1.28 6-4.78 1.4-5.7-.9-5.87-5.2-.2-5.2-.22-12.6-.22-12.6h-7.6v15.1c0 3.1.8 8 6.2 9 3.4.6 6.7-.1 11.1-2.1 2.1 1.5 4.9 2.5 8.1 2.5 4.3 0 7.8-1.9 10.4-3.7v-4.8c-3.2 2.1-7.9 3.6-10.8 1.42 2.97-2.08 5.83-4.57 7.7-7.56 3-4.75 1.03-11.7-7.2-11.7zm-35.13.72c-7.55.02-13.67 4.62-13.67 12.92 0 8.43 5.93 12.74 13.02 12.74 2.05 0 5.26-.4 7.12-1.34v-6.5c-1.6.62-3.5.87-5 .87-3.06 0-6.65-1.8-6.65-5.62 0-4.37 3.3-6 6.7-6 1.6 0 3.5.5 4.8.9v-6.9c-1.9-.58-4.7-1.06-6.5-1.06zm85.88.05c-3.58 0-6.88.92-10.06 1.97v6.15c2.7-1.02 6-1.5 8.6-1.5 3.3 0 4.9 1.44 4.9 3.97v.4c-1.4-.5-3.6-.93-5.9-.93-5.8 0-9.6 2.6-9.6 7.7v.1c0 4.8 3.5 7.5 8.2 7.5 3.2 0 5.5-1.2 7.2-3.1v2.5h8.3v-14c0-3.5-.6-6-2.5-7.8-2-2-4.9-3-9.3-3zm-22.16.03c-3.4 0-5.7 1.92-7.2 3.94l-.4.43v-3.7h-8.2v24.17h8.2v-13.23c0-2.76 1.6-4.3 3.8-4.3s3.6 1.55 3.6 4.3v13.25h8.2v-16c0-5.48-3.1-8.84-8.2-8.84zm-28.19 6.04c2.1.05 3.5 2.1 1.03 5.23-1.15 1.44-2.83 2.83-4.8 4.12-2.8-5.1.64-8.7 2.85-9.2.17-.05.3-.1.48-.1.13-.02.3-.04.43-.04zm50.5 8.17c1.27 0 2.4.37 3.34.78 0 3.14-1.76 5.03-4.25 5.03-1.8 0-3.1-1-3.1-2.7v-.08c0-1.8 1.4-3.03 3.9-3.03z" fill="#da1415" fill-rule="evenodd"/></svg>