<svg viewBox="0 0 256 134.93" xmlns="http://www.w3.org/2000/svg"><path d="m83.63 134.138h-11.225v-44.484h11.225zm90.51-31.738c-.46-.234-4.075-2.374-9.444-2.374-7.257 0-12.292 5.052-12.292 11.865 0 6.61 4.818 11.875 12.292 11.875 5.276 0 8.949-2.094 9.443-2.36v11.939c-1.408.394-5.244 1.582-10.23 1.582-12.625 0-23.707-8.704-23.707-23.036 0-13.284 10.026-23.026 23.708-23.026 5.262 0 9.166 1.283 10.23 1.596v11.94zm-117.167 0c-.452-.234-4.06-2.374-9.43-2.374-7.27 0-12.302 5.052-12.302 11.865 0 6.61 4.821 11.875 12.302 11.875 5.277 0 8.946-2.094 9.43-2.36v11.939c-1.394.394-5.223 1.582-10.237 1.582-12.618 0-23.687-8.704-23.687-23.036 0-13.284 10.027-23.026 23.687-23.026 5.284 0 9.18 1.283 10.237 1.596v11.94zm152.479-2.208c-6.66 0-11.606 5.241-11.606 11.698 0 6.471 4.946 11.709 11.606 11.709 6.652 0 11.612-5.238 11.612-11.709 0-6.457-4.96-11.698-11.612-11.698m23.505 11.698c0 12.725-9.824 23.037-23.505 23.037-13.682 0-23.492-10.312-23.492-23.037 0-12.704 9.81-23.026 23.492-23.026 13.681 0 23.505 10.322 23.505 23.026m-106.759-12.125c-.167-.053-4.892-1.358-8.775-1.358-4.497 0-6.944 1.508-6.944 3.645 0 2.709 3.3 3.655 5.145 4.238l3.097.985c7.285 2.318 10.606 7.306 10.606 12.725 0 11.175-9.827 14.93-18.417 14.93-5.97 0-11.563-1.099-12.114-1.216v-10.237c.988.25 5.696 1.654 10.599 1.654 5.586 0 8.153-1.632 8.153-4.153 0-2.254-2.222-3.556-5.006-4.43-.68-.228-1.7-.548-2.397-.776-6.25-1.976-11.463-5.65-11.463-13.013 0-8.32 6.23-13.906 16.576-13.906 5.465 0 10.606 1.327 10.94 1.416z" fill="#c4122e"/><path d="m11.147 41.849c0-3.065-2.503-5.55-5.572-5.55-3.068 0-5.575 2.485-5.575 5.55v11.676a5.573 5.573 0 0 0 11.147 0v-11.675zm30.61-15.326c0-3.065-2.503-5.558-5.571-5.558-3.072 0-5.575 2.493-5.575 5.558v27.004a5.571 5.571 0 0 0 5.575 5.568 5.57 5.57 0 0 0 5.571-5.568zm30.612-20.969c0-3.065-2.504-5.554-5.572-5.554-3.072 0-5.575 2.489-5.575 5.554v59.068a5.574 5.574 0 0 0 11.147 0zm30.611 20.969c0-3.065-2.503-5.558-5.572-5.558-3.072 0-5.575 2.493-5.575 5.558v27.004a5.571 5.571 0 0 0 5.575 5.568 5.57 5.57 0 0 0 5.572-5.568zm30.576 15.326a5.548 5.548 0 0 0 -5.54-5.55c-3.068 0-5.571 2.485-5.571 5.55v11.676a5.573 5.573 0 0 0 5.571 5.572c3.055 0 5.54-2.49 5.54-5.572v-11.675zm30.624-15.326a5.558 5.558 0 0 0 -5.553-5.558 5.563 5.563 0 0 0 -5.557 5.558v27.004a5.555 5.555 0 1 0 11.111 0v-27.004zm30.633-20.969a5.555 5.555 0 1 0 -11.111 0v59.068a5.56 5.56 0 0 0 5.557 5.572 5.558 5.558 0 0 0 5.554-5.572zm30.625 20.969c0-3.065-2.486-5.558-5.625-5.558a5.558 5.558 0 0 0 -5.554 5.558v27.004a5.555 5.555 0 0 0 5.554 5.568c3.14 0 5.625-2.485 5.625-5.568zm30.562 15.326a5.557 5.557 0 0 0 -5.557-5.55c-3.069 0-5.561 2.485-5.561 5.55v11.676a5.564 5.564 0 0 0 5.56 5.572 5.564 5.564 0 0 0 5.558-5.572v-11.675z" fill="#15495d"/></svg>