<svg xmlns="http://www.w3.org/2000/svg" viewBox="0 0 103.637 43.276" version="1"><path d="M16.773 24.052c-1.004 1.662-2.973 2.728-4.963 2.728-2.84 0-4.92-2.3-4.92-5.14 0-2.842 2.08-5.145 4.92-5.145 1.99 0 3.959 1.067 4.963 2.73l3.554-5.754a11.742 11.742 0 0 0-8.517-3.648C5.29 9.823 0 15.118 0 21.64c0 6.521 5.29 11.803 11.81 11.803a11.74 11.74 0 0 0 8.517-3.634l-3.554-5.757zm5.611-13.686h6.763v22.54h-6.763v-22.54zm8.589 0v5.884h5.138v16.656h6.728V16.25h5.139v-5.884H30.973zm31.523 13.557c2.583-.88 4.214-3.281 4.214-6.382 0-2.1-.633-3.793-1.885-5.039-1.398-1.4-3.527-2.136-6.156-2.136h-8.86v22.54h6.764V26.17l4.292 6.736h8.52l-6.889-8.983zm-5.923-8.688c1.15.007 2.689.12 3.482.914.405.41.605.973.605 1.734 0 1.859-1.198 2.63-4.087 2.655v-5.303zm14.311-4.869h6.77v22.54h-6.77v-22.54zm24.914 10.366l7.462-10.366h-8.297l-3.097 4.772-2.67-4.772h-8.271l6.927 10.332-9.031 12.208h8.185l4.759-6.646 3.766 6.646h8.106l-7.84-12.174z"/><path d="M21.525 4.236A4.24 4.24 0 0 1 25.765 0c2.346 0 4.24 1.9 4.24 4.236a4.243 4.243 0 0 1-4.24 4.243 4.245 4.245 0 0 1-4.24-4.243zm52.742 39.04a4.249 4.249 0 0 0 4.242-4.245 4.241 4.241 0 1 0-8.483 0 4.247 4.247 0 0 0 4.241 4.245z" fill="#be002f"/></svg>