<svg xmlns="http://www.w3.org/2000/svg" width="549" height="158.07011">
  <path fill="#00467f" d="M79 30.334l16-11.667S84.333 0 56.333 0 0 21.667 0 57.667 29 113 58.667 113s39-19.667 39-19.667L81 81.001s-8.666 13-23.333 13c-14.667 0-35.333-10-35.333-37.5s21-36.5 34-36.5S79 30.334 79 30.334zm60.667 4.667s-40.333 1.333-40.333 39.333S138 113.001 138 113.001s41.667-2 41.667-39-40-39-40-39zm-.167 58.763c-11.414 0-20.667-9.254-20.667-20.667 0-11.414 9.253-20.667 20.667-20.667 11.414 0 20.667 9.253 20.667 20.667 0 11.413-9.253 20.667-20.667 20.667zm65.833 16.904h-20V37.334h20v10s9.333-17.333 28.333-10c.333 7.333 0 18 0 18s-22.667-7.667-28 13.333c.001 8.334-.333 42.001-.333 42.001zm37.00001-73.000993h20.667v73h-20.667zm0-27.666015h20.667v20h-20.667zM364.667 110.668h-19.333v-73h19.333v8.333s4.667-11 20-11 27.667 11 27.667 23.333v52.333h-20V67s0-14-13.5-14C370.334 53 365 63 365 68.333s-.333 42.335-.333 42.335zm66.667-55.667H417V37.668h14.334V17.001h20v20.667h12.333L472 55.001h-20.333v34.667s1.001 7 9.667 5l8.666-2 2 16s-8.666 8-29.333 2c-12.333-5-11.667-18.667-11.667-28.667s.334-27 .334-27z"/>
  <circle cx="491.83301" cy="101.834" r="13.167" fill="#00467f"/>
  <path fill="#008c99" d="M487.334 64.95l-8.667-18.283S538.666 32.334 549 101.834c0 59.5-80 79.833-109.666 21.166 14 3.667 25.333 1.667 25.333 1.667s8.334 12.999 27.167 12.333c18.833-.666 35.833-11.999 35.833-33.666 0-21.667-15.999-37.768-40.333-38.384z"/>
  <path fill="#00467f" d="M335.667 58.334C334.334 45.667 324 35.001 304 35.001s-31.333 13-31.333 13l10.667 10.333s7.666-7.333 21.333-7.333c13.667 0 14 13.333 14 13.333h-16.204c-14.537 0-33.796 8-33.796 23.667 0 15.667 12.333 24 26 25S318 103.334 318 103.334v7.334h17.667s1.333-39.667 0-52.334zm-19 28.333S314 97.334 302.463 97.334C294 97.334 289 94 289 88.667s9.334-10.666 17.667-10.333c8.333.333 10 0 10 0z"/>
</svg>
