<svg id="svg" version="1.1" width="500" height="500" xmlns="http://www.w3.org/2000/svg" xmlns:xlink="http://www.w3.org/1999/xlink" style="display: block;"><g id="svgg"><path id="path0" d="M200.000 85.600 C 200.000 87.733,199.733 88.000,197.600 88.000 L 195.200 88.000 195.200 200.000 L 195.200 312.000 197.549 312.000 C 199.615 312.000,199.929 312.314,200.149 314.600 L 200.400 317.200 229.400 317.410 L 258.400 317.620 258.400 314.810 C 258.400 312.132,258.531 312.000,261.200 312.000 L 264.000 312.000 264.000 274.851 L 264.000 237.701 266.600 237.451 C 268.886 237.230,269.230 236.886,269.451 234.600 L 269.701 232.000 296.051 232.000 L 322.400 232.000 322.400 229.200 L 322.400 226.400 336.000 226.400 L 349.600 226.400 349.600 224.000 L 349.600 221.600 354.800 221.600 L 360.000 221.600 360.000 218.800 C 360.000 216.133,360.133 216.000,362.800 216.000 C 365.467 216.000,365.600 215.867,365.600 213.200 C 365.600 210.622,365.790 210.400,368.000 210.400 C 370.133 210.400,370.400 210.133,370.400 208.000 C 370.400 205.790,370.622 205.600,373.200 205.600 L 376.000 205.600 376.000 200.000 L 376.000 194.400 378.800 194.400 L 381.600 194.400 381.600 186.400 L 381.600 178.400 384.000 178.400 L 386.400 178.400 386.400 154.800 L 386.400 131.200 384.037 131.200 C 381.675 131.200,381.673 131.195,381.437 125.800 L 381.200 120.400 378.600 120.149 L 376.000 119.899 376.000 114.749 L 376.000 109.600 373.200 109.600 C 370.533 109.600,370.400 109.467,370.400 106.800 C 370.400 104.222,370.210 104.000,368.000 104.000 C 365.867 104.000,365.600 103.733,365.600 101.600 C 365.600 99.390,365.378 99.200,362.800 99.200 C 360.133 99.200,360.000 99.067,360.000 96.400 L 360.000 93.600 352.000 93.600 L 344.000 93.600 344.000 90.800 L 344.000 88.000 330.800 88.000 L 317.600 88.000 317.600 85.600 L 317.600 83.200 258.800 83.200 L 200.000 83.200 200.000 85.600 M291.200 133.200 L 291.200 136.000 299.200 136.000 L 307.200 136.000 307.200 138.800 L 307.200 141.600 312.400 141.600 L 317.600 141.600 317.600 146.800 L 317.600 152.000 320.400 152.000 L 323.200 152.000 323.200 157.600 L 323.200 163.200 320.400 163.200 L 317.600 163.200 317.600 168.400 L 317.600 173.600 314.800 173.600 C 312.133 173.600,312.000 173.733,312.000 176.400 C 312.000 178.978,311.810 179.200,309.600 179.200 C 307.467 179.200,307.200 179.467,307.200 181.600 L 307.200 184.000 288.400 184.000 L 269.600 184.000 269.600 181.600 C 269.600 179.390,269.378 179.200,266.800 179.200 L 264.000 179.200 264.000 160.451 L 264.000 141.701 266.600 141.451 C 268.886 141.230,269.230 140.886,269.451 138.600 L 269.701 136.000 274.851 136.000 L 280.000 136.000 280.000 133.200 L 280.000 130.400 285.600 130.400 L 291.200 130.400 291.200 133.200 " stroke="none" fill="#000000" fill-rule="evenodd"></path><path id="path1" d="M77.600 80.400 L 77.600 83.200 66.800 83.200 L 56.000 83.200 56.000 85.562 C 56.000 87.900,55.950 87.926,51.000 88.162 C 46.000 88.400,46.000 88.400,45.749 91.000 C 45.520 93.380,45.266 93.600,42.749 93.600 C 40.141 93.600,40.000 93.743,40.000 96.400 L 40.000 99.200 34.800 99.200 L 29.600 99.200 29.600 101.549 C 29.600 103.615,29.286 103.929,27.000 104.149 L 24.400 104.400 24.163 109.800 C 23.927 115.195,23.925 115.200,21.563 115.200 L 19.200 115.200 19.200 120.400 L 19.200 125.600 16.400 125.600 L 13.600 125.600 13.600 202.800 L 13.600 280.000 16.400 280.000 L 19.200 280.000 19.200 285.200 L 19.200 290.400 21.600 290.400 C 23.810 290.400,24.000 290.622,24.000 293.200 C 24.000 295.857,24.141 296.000,26.749 296.000 C 29.266 296.000,29.520 296.220,29.749 298.600 C 29.970 300.886,30.314 301.230,32.600 301.451 C 34.886 301.671,35.200 301.985,35.200 304.051 C 35.200 306.128,35.478 306.400,37.600 306.400 C 39.810 306.400,40.000 306.622,40.000 309.200 L 40.000 312.000 45.600 312.000 L 51.200 312.000 51.200 314.800 L 51.200 317.600 56.400 317.600 L 61.600 317.600 61.600 320.000 L 61.600 322.400 96.000 322.400 L 130.400 322.400 130.400 320.000 L 130.400 317.600 138.400 317.600 L 146.400 317.600 146.400 314.800 C 146.400 312.133,146.533 312.000,149.200 312.000 C 151.867 312.000,152.000 311.867,152.000 309.200 L 152.000 306.400 157.200 306.400 L 162.400 306.400 162.400 304.000 C 162.400 301.790,162.622 301.600,165.200 301.600 L 168.000 301.600 168.000 296.000 L 168.000 290.400 170.800 290.400 L 173.600 290.400 173.600 285.200 L 173.600 280.000 176.000 280.000 C 178.210 280.000,178.400 279.778,178.400 277.200 C 178.400 274.533,178.533 274.400,181.200 274.400 L 184.000 274.400 184.000 256.000 L 184.000 237.600 173.600 237.600 L 163.200 237.600 163.200 240.400 C 163.200 243.067,163.067 243.200,160.400 243.200 L 157.600 243.200 157.600 251.200 L 157.600 259.200 154.800 259.200 L 152.000 259.200 152.000 267.200 L 152.000 275.200 149.600 275.200 C 147.478 275.200,147.200 275.472,147.200 277.549 C 147.200 279.615,146.886 279.929,144.600 280.149 C 142.314 280.370,141.970 280.714,141.749 283.000 C 141.520 285.380,141.266 285.600,138.749 285.600 C 136.141 285.600,136.000 285.743,136.000 288.400 L 136.000 291.200 128.000 291.200 L 120.000 291.200 120.000 293.600 L 120.000 296.000 106.800 296.000 L 93.600 296.000 93.600 293.600 L 93.600 291.200 88.000 291.200 L 82.400 291.200 82.400 288.400 L 82.400 285.600 77.200 285.600 L 72.000 285.600 72.000 280.400 L 72.000 275.200 69.200 275.200 C 66.533 275.200,66.400 275.067,66.400 272.400 C 66.400 269.822,66.210 269.600,64.000 269.600 L 61.600 269.600 61.600 202.800 L 61.600 136.000 64.000 136.000 L 66.400 136.000 66.400 130.800 L 66.400 125.600 69.200 125.600 C 71.867 125.600,72.000 125.467,72.000 122.800 C 72.000 120.133,72.133 120.000,74.800 120.000 C 77.467 120.000,77.600 119.867,77.600 117.200 C 77.600 114.622,77.790 114.400,80.000 114.400 C 82.133 114.400,82.400 114.133,82.400 112.000 L 82.400 109.600 106.800 109.600 L 131.200 109.600 131.200 112.000 L 131.200 114.400 136.400 114.400 L 141.600 114.400 141.600 117.200 C 141.600 119.867,141.733 120.000,144.400 120.000 C 147.067 120.000,147.200 120.133,147.200 122.800 C 147.200 125.378,147.390 125.600,149.600 125.600 C 151.733 125.600,152.000 125.867,152.000 128.000 C 152.000 130.210,152.222 130.400,154.800 130.400 L 157.600 130.400 157.600 138.400 L 157.600 146.400 160.400 146.400 L 163.200 146.400 163.200 154.400 L 163.200 162.400 173.600 162.400 L 184.000 162.400 184.000 157.200 L 184.000 152.000 186.800 152.000 L 189.600 152.000 189.600 146.800 L 189.600 141.600 186.800 141.600 L 184.000 141.600 184.000 136.400 L 184.000 131.200 181.200 131.200 L 178.400 131.200 178.400 125.600 L 178.400 120.000 176.000 120.000 L 173.600 120.000 173.600 114.800 L 173.600 109.600 170.800 109.600 C 168.133 109.600,168.000 109.467,168.000 106.800 C 168.000 104.133,167.867 104.000,165.200 104.000 C 162.622 104.000,162.400 103.810,162.400 101.600 C 162.400 99.467,162.133 99.200,160.000 99.200 C 157.790 99.200,157.600 98.978,157.600 96.400 L 157.600 93.600 152.000 93.600 L 146.400 93.600 146.400 90.800 C 146.400 88.222,146.210 88.000,144.000 88.000 C 141.867 88.000,141.600 87.733,141.600 85.600 L 141.600 83.200 130.800 83.200 L 120.000 83.200 120.000 80.400 L 120.000 77.600 98.800 77.600 L 77.600 77.600 77.600 80.400 " stroke="none" fill="#da0300" fill-rule="evenodd"></path></g></svg>