<svg xmlns="http://www.w3.org/2000/svg" viewBox="0 0 128.72188 78.129769"><path d="M56.896 53.224c0-1.002-.433-1.966-1.21-2.705-1.023-.975-2.59-1.508-4.182-1.424-2.504.116-4.538 2.05-4.538 4.312v1.694c0 7.93-5.73 12.856-14.97 12.856-8.737 0-15.325-5.528-15.325-12.856V23.024c0-7.327 6.59-12.848 15.327-12.848 9.808 0 16.146 5.042 16.146 12.848V24.9c0 2.22 1.93 3.96 4.388 3.96 2.453 0 4.366-1.74 4.366-3.96v-1.876C56.896 10.328 44.14 0 28.458 0 12.764 0 0 10.328 0 23.024v32.078C0 67.8 12.764 78.13 28.458 78.13c15.68 0 28.438-10.33 28.438-23.028v-1.878z" fill="#ed192d"/><path d="M94.182 33.25c5.28 0 11.634-.325 11.634-7.332 0-6.688-5.7-7.247-10.965-7.247h-6.683v14.58h6.015zm-6.015 43.415H64.804v-75.2h30.693c7.345 0 15.562.22 22.044 3.947 7.003 4.172 11.182 11.612 11.182 19.738 0 7.122-2.75 13.916-8.322 18.407-5.83 4.718-13.27 5.816-20.517 5.816H88.167v27.292" fill="#231f20"/></svg>