<svg xml:space="preserve" style="clip-rule:evenodd;fill-rule:evenodd;image-rendering:optimizeQuality;shape-rendering:geometricPrecision;text-rendering:geometricPrecision" viewBox="0 0 24.55 19.09" xmlns="http://www.w3.org/2000/svg"><path style="clip-rule:evenodd;display:inline;fill-rule:evenodd;image-rendering:optimizeQuality;shape-rendering:geometricPrecision;text-rendering:geometricPrecision;fill:#183884" d="M66.67 3.63c-.31 0-.62.02-.92.04h1.66a9.7 9.7 0 0 0-.74-.04zM6.7 3.89v12.09h6c2.26 0 4.05-.55 5.38-1.64 1.33-1.1 1.99-2.56 1.99-4.37 0-1.8-.68-3.27-2.02-4.4C16.69 4.46 14.9 3.9 12.7 3.9zm1.74 1.4h4.27c1.69 0 3.04.42 4.04 1.27a4.2 4.2 0 0 1 1.52 3.38 4.2 4.2 0 0 1-1.49 3.4c-.99.83-2.35 1.25-4.07 1.25H8.44Zm17.56.5-.06.1h.15l-.09-.1zm79.08 7.84c-.03-.01-.04.02-.02.1l.16.12h.07a.9.9 0 0 0-.21-.22zm-84.82 2.26-.05.09h.07l-.02-.1z"/></svg>
