<?xml version="1.0" standalone="no"?>
<!DOCTYPE svg PUBLIC "-//W3C//DTD SVG 20010904//EN"
 "http://www.w3.org/TR/2001/REC-SVG-20010904/DTD/svg10.dtd">
<svg version="1.0" xmlns="http://www.w3.org/2000/svg"
 width="601.000000pt" height="241.000000pt" viewBox="0 0 601.000000 241.000000"
 preserveAspectRatio="xMidYMid meet">

<g transform="translate(0.000000,241.000000) scale(0.100000,-0.100000)"
fill="#000000" stroke="none">
<path d="M3750 1894 c-100 -17 -145 -31 -220 -66 -108 -52 -226 -166 -282
-273 -66 -127 -83 -201 -82 -355 0 -116 4 -146 26 -212 72 -216 229 -376 433
-441 58 -18 93 -22 205 -22 120 1 144 4 211 27 197 69 332 198 408 390 73 183
65 406 -19 584 -82 172 -238 302 -417 348 -62 16 -217 28 -263 20z m214 -99
c92 -24 192 -82 260 -151 186 -185 230 -498 104 -737 -43 -82 -165 -204 -240
-240 -121 -58 -279 -74 -402 -42 -179 47 -326 189 -392 380 -25 71 -28 94 -28
205 0 114 2 133 30 210 68 194 207 325 394 374 73 19 202 20 274 1z"/>
<path d="M4930 1888 c-220 -27 -363 -184 -347 -379 7 -80 24 -123 68 -173 67
-77 158 -117 389 -172 311 -75 405 -167 358 -352 -16 -63 -102 -151 -173 -176
-171 -60 -411 -10 -568 118 -31 25 -60 46 -65 46 -5 0 -21 -14 -38 -31 l-29
-31 40 -35 c106 -92 251 -155 404 -173 306 -38 534 113 532 352 -1 113 -24
171 -92 233 -63 57 -167 100 -350 144 -282 69 -369 130 -377 265 -5 79 10 127
56 178 127 140 392 141 600 1 l67 -44 27 33 c15 18 28 36 28 40 0 11 -77 61
-147 97 -105 53 -253 75 -383 59z"/>
<path d="M510 1590 l0 -280 140 0 139 0 3 138 3 137 39 3 c60 5 163 -16 224
-46 72 -35 154 -125 182 -199 46 -119 27 -259 -50 -360 -76 -101 -179 -152
-314 -156 l-81 -2 -3 188 -2 187 -140 0 -140 0 0 -331 0 -331 253 4 c252 3
252 4 338 34 201 71 347 217 416 416 34 96 42 250 19 356 -41 196 -178 369
-361 456 -115 56 -184 66 -439 66 l-226 0 0 -280z"/>
<path d="M1630 1432 l0 -120 203 -4 c192 -3 204 -4 252 -28 40 -20 55 -35 75
-75 25 -50 25 -52 28 -357 l3 -308 140 0 140 0 -4 338 c-2 185 -7 347 -11 360
-7 19 -3 24 35 41 86 38 150 32 199 -16 52 -53 60 -109 60 -446 l0 -277 140 0
140 0 0 318 c0 336 -7 417 -44 497 -32 71 -66 107 -133 143 -136 72 -358 58
-494 -32 l-38 -26 -48 30 c-97 62 -153 72 -410 78 l-233 4 0 -120z"/>
<path d="M1630 870 l0 -330 145 0 145 0 0 330 0 330 -145 0 -145 0 0 -330z"/>
</g>
</svg>
