<?xml version="1.0" encoding="UTF-8" standalone="no"?>
<!-- Creator: CorelDRAW -->

<svg
   xml:space="preserve"
   width="27mm"
   height="20.999998mm"
   style="clip-rule:evenodd;fill-rule:evenodd;image-rendering:optimizeQuality;shape-rendering:geometricPrecision;text-rendering:geometricPrecision"
   viewBox="0 0 24.545454 19.090907"
   version="1.1"
   id="svg1"
   sodipodi:docname="Logo_Datacom_-_fundo_branco_-_SVG.svg"
   inkscape:export-filename="Logo_Datacom_-_fundo_branco_-_SVG.png"
   inkscape:export-xdpi="96"
   inkscape:export-ydpi="96"
   xmlns:inkscape="http://www.inkscape.org/namespaces/inkscape"
   xmlns:sodipodi="http://sodipodi.sourceforge.net/DTD/sodipodi-0.dtd"
   xmlns="http://www.w3.org/2000/svg"
   xmlns:svg="http://www.w3.org/2000/svg"><sodipodi:namedview
   id="namedview1"
   pagecolor="#ffffff"
   bordercolor="#000000"
   borderopacity="0.25"
   inkscape:showpageshadow="2"
   inkscape:pageopacity="0.0"
   inkscape:pagecheckerboard="0"
   inkscape:deskcolor="#d1d1d1"
   inkscape:document-units="mm"
   inkscape:zoom="0.74475309"
   inkscape:cx="397.44716"
   inkscape:cy="561.93121"
   inkscape:window-width="1920"
   inkscape:window-height="1009"
   inkscape:window-x="1358"
   inkscape:window-y="-8"
   inkscape:window-maximized="1"
   inkscape:current-layer="Camada_x0020_1" />&#10; <defs
   id="defs1"><style
     type="text/css"
     id="style1">&#10;   <![CDATA[
    .fil0 {fill:#183884}
   ]]>&#10;  </style></defs>&#10; <g
   id="Camada_x0020_1"
   inkscape:label="Camada 1"
   inkscape:groupmode="layer">&#10;  <metadata
   id="CorelCorpID_0Corel-Layer" />&#10;  &#10; <path
   id="path2"
   style="clip-rule:evenodd;display:inline;fill-rule:evenodd;image-rendering:optimizeQuality;shape-rendering:geometricPrecision;text-rendering:geometricPrecision"
   class="fil0"
   d="m 66.669686,3.6287461 c -0.31453,0 -0.61836,0.01788 -0.91674,0.04496 0.55363,-0.003 1.10725,-0.0065 1.66088,-0.0093 -0.24484,-0.01866 -0.49036,-0.03566 -0.74414,-0.03566 z M 6.6986699,3.8902291 V 15.97683 h 6.0073841 c 2.249192,0 4.039619,-0.54551 5.370215,-1.64021 1.330092,-1.0957 1.99316,-2.55238 1.99316,-4.3692397 0,-1.8051991 -0.675857,-3.2663702 -2.023649,-4.3914662 -1.352396,-1.124996 -3.134034,-1.685685 -5.339726,-1.685685 z m 1.738395,1.390613 h 4.2689891 c 1.689892,0 3.042119,0.426296 4.047815,1.282092 1.009696,0.851796 1.512569,1.9803068 1.512569,3.3817062 0,1.4241997 -0.494235,2.5528697 -1.486731,3.3899697 -0.987996,0.8336 -2.348861,1.25212 -4.073653,1.25212 H 8.4370649 Z m 17.5627511,0.508496 v 5.16e-4 l -0.06046,0.105937 c 0.0504,-0.0089 0.104212,-0.0087 0.155546,-0.01499 -0.03212,-0.03006 -0.06291,-0.06147 -0.09508,-0.09147 z M 105.07611,13.62503 c -0.0273,-0.01 -0.0313,0.0247 -0.0145,0.0982 0.0469,0.046 0.0998,0.0876 0.1571,0.12661 0.0233,-0.002 0.0465,-0.004 0.0698,-0.005 -0.0849,-0.10455 -0.16591,-0.20293 -0.21239,-0.21963 z m -84.815995,2.26395 -0.05013,0.0879 h 0.07028 c -0.0068,-0.0293 -0.01394,-0.0584 -0.02015,-0.0879 z" /></g>&#10;</svg>
