<?xml version="1.0" encoding="UTF-8" standalone="no"?>
<!-- Created with Inkscape (http://www.inkscape.org/) -->

<svg
   version="1.1"
   id="svg2"
   width="598"
   height="598"
   viewBox="0 0 598 598"
   sodipodi:docname="D_branco_fundo_azul.svg"
   inkscape:version="1.2.1 (9c6d41e410, 2022-07-14)"
   xmlns:inkscape="http://www.inkscape.org/namespaces/inkscape"
   xmlns:sodipodi="http://sodipodi.sourceforge.net/DTD/sodipodi-0.dtd"
   xmlns="http://www.w3.org/2000/svg"
   xmlns:svg="http://www.w3.org/2000/svg">
  <defs
     id="defs6" />
  <sodipodi:namedview
     id="namedview4"
     pagecolor="#ffffff"
     bordercolor="#000000"
     borderopacity="0.25"
     inkscape:showpageshadow="2"
     inkscape:pageopacity="0.0"
     inkscape:pagecheckerboard="0"
     inkscape:deskcolor="#d1d1d1"
     showgrid="false"
     inkscape:zoom="1.3996656"
     inkscape:cx="298.64277"
     inkscape:cy="298.64277"
     inkscape:window-width="1920"
     inkscape:window-height="1017"
     inkscape:window-x="1912"
     inkscape:window-y="-8"
     inkscape:window-maximized="1"
     inkscape:current-layer="g8" />
  <g
     inkscape:groupmode="layer"
     inkscape:label="Image"
     id="g8">
    <g
       id="g170">
      <path
         style="fill:#33508d"
         d="M 54.067415,596.02011 C 41.624183,592.46582 31.347256,586.32587 21.395025,576.5 11.646675,566.87542 6.6065788,559.09812 2.4069339,547.19977 L 0.04218412,540.5 v -242 -242 L 2.4069339,49.800234 C 6.3981794,38.49231 11.755804,30.137438 20.930814,20.91343 30.170285,11.624618 38.313309,6.4294534 50.008157,2.3623866 l 6.8744,-2.39068016 238.808723,0.28500434 c 269.62729,0.32178452 241.76621,-0.58947956 260.30548,8.51392042 8.07648,3.9658228 10.92759,6.0889338 19.06407,14.1962978 8.22048,8.191064 10.21941,10.870423 14.19954,19.033071 9.07161,18.604499 8.16555,-8.878117 8.48302,257.30814 0.3158,264.7912 1.02966,240.30247 -7.51172,257.68862 -3.96655,8.07397 -6.09376,10.93012 -14.1986,19.06407 -8.18863,8.21804 -10.87284,10.22091 -19.03307,14.20184 -17.3606,8.46927 7.08897,7.746 -259.14434,7.66609 -227.234154,-0.0682 -237.629963,-0.1496 -243.788245,-1.90865 z M 334,435.56357 c 20.97464,-2.04239 47.06131,-9.42509 64.5,-18.25392 34.25552,-17.34282 58.44832,-43.28826 69.28995,-74.30965 2.65065,-7.58437 3.9215,-12.59765 5.70367,-22.5 1.5383,-8.54734 2.62908,-25.94649 2.06881,-33 -1.15962,-14.59913 -3.83121,-31.43722 -5.39455,-34 -0.33551,-0.55 -0.74139,-1.84431 -0.90194,-2.87625 -0.29529,-1.8979 -2.38493,-7.0444 -4.7196,-11.62375 -0.701,-1.375 -1.56138,-3.70603 -1.91195,-5.18007 -0.35057,-1.47404 -1.19922,-3.28203 -1.88589,-4.01775 -0.68668,-0.73573 -2.36847,-3.4752 -3.73733,-6.08772 -1.36886,-2.61252 -3.50636,-5.84739 -4.75,-7.1886 C 451.01753,215.18464 450,213.7679 450,213.37753 c 0,-0.39036 -0.6576,-1.4225 -1.46133,-2.29364 C 446.74305,209.13768 429.25859,191.71421 426.5,189.1221 422.67459,185.52754 411.77118,178 410.38999,178 409.6255,178 409,177.61987 409,177.15526 c 0,-0.79333 -16.53402,-9.42186 -22,-11.48104 -1.375,-0.518 -3.4,-1.32791 -4.5,-1.7998 -5.20832,-2.23434 -18.18624,-6.11288 -26.5953,-7.94819 C 332.0919,150.72902 331.9308,150.721 242.25,150.27229 L 158,149.85075 v 143.56857 143.56856 l 78.75,0.25606 c 43.3125,0.14083 81.45,-0.0372 84.75,-0.39569 3.3,-0.35846 8.925,-0.93656 12.5,-1.28468 z M 201,293.9334 V 184.86679 l 63.25,0.412 c 69.99722,0.45595 69.45503,0.411 91.75,7.60659 37.79116,12.19691 64.92172,40.85753 72.52453,76.61462 2.61106,12.2802 3.04038,29.98884 1.03669,42.76151 -3.69162,23.5325 -12.46238,40.71255 -28.73313,56.2821 -16.13869,15.44318 -33.60472,24.42339 -58.04285,29.8429 C 324.14566,402.52011 315.17442,403 256.53941,403 H 201 Z"
         id="path174" />
    </g>
  </g>
</svg>
