<svg xmlns="http://www.w3.org/2000/svg" overflow="visible" viewBox="0 0 87.041 108.445"><g fill="#A80030"><path d="M51.986 57.297c-1.797.025.34.926 2.686 1.287a24.014 24.014 0 0 0 1.76-1.516c-1.461.358-2.948.366-4.446.229m9.645-2.404c1.07-1.477 1.85-3.094 2.125-4.766-.24 1.192-.887 2.221-1.496 3.307-3.359 2.115-.316-1.256-.002-2.537-3.612 4.546-.496 2.726-.627 3.996m3.56-9.264c.217-3.236-.637-2.213-.924-.978.335.174.6 2.281.924.978M45.172 1.399c.959.172 2.072.304 1.916.533 1.049-.23 1.287-.442-1.916-.533m1.916.533l-.678.14.631-.056.047-.084"/><path d="M76.992 46.856c.107 2.906-.85 4.316-1.713 6.812l-1.553.776c-1.271 2.468.123 1.567-.787 3.53-1.984 1.764-6.021 5.52-7.313 5.863-.943-.021.639-1.113.846-1.541-2.656 1.824-2.131 2.738-6.193 3.846l-.119-.264c-10.018 4.713-23.934-4.627-23.751-17.371-.107.809-.304.607-.526.934-.517-6.557 3.028-13.143 9.007-15.832 5.848-2.895 12.704-1.707 16.893 2.197-2.301-3.014-6.881-6.209-12.309-5.91-5.317.084-10.291 3.463-11.951 7.131-2.724 1.715-3.04 6.611-4.227 7.507-1.597 11.737 3.004 16.808 10.787 22.773 1.225.826.345.951.511 1.58-2.586-1.211-4.954-3.039-6.901-5.277 1.033 1.512 2.148 2.982 3.589 4.137-2.438-.826-5.695-5.908-6.646-6.115 4.203 7.525 17.052 13.197 23.78 10.383-3.113.115-7.068.064-10.566-1.229-1.469-.756-3.467-2.322-3.11-2.615 9.182 3.43 18.667 2.598 26.612-3.771 2.021-1.574 4.229-4.252 4.867-4.289-.961 1.445.164.695-.574 1.971 2.014-3.248-.875-1.322 2.082-5.609l1.092 1.504c-.406-2.696 3.348-5.97 2.967-10.234.861-1.304.961 1.403.047 4.403 1.268-3.328.334-3.863.66-6.609.352.923.814 1.904 1.051 2.878-.826-3.216.848-5.416 1.262-7.285-.408-.181-1.275 1.422-1.473-2.377.029-1.65.459-.865.625-1.271-.324-.186-1.174-1.451-1.691-3.877.375-.57 1.002 1.478 1.512 1.562-.328-1.929-.893-3.4-.916-4.88-1.49-3.114-.527.415-1.736-1.337-1.586-4.947 1.316-1.148 1.512-3.396 2.404 3.483 3.775 8.881 4.404 11.117-.48-2.726-1.256-5.367-2.203-7.922.73.307-1.176-5.609.949-1.691-2.27-8.352-9.715-16.156-16.564-19.818.838.767 1.896 1.73 1.516 1.881-3.406-2.028-2.807-2.186-3.295-3.043-2.775-1.129-2.957.091-4.795.002-5.23-2.774-6.238-2.479-11.051-4.217l.219 1.023c-3.465-1.154-4.037.438-7.782.004-.228-.178 1.2-.644 2.375-.815-3.35.442-3.193-.66-6.471.122.808-.567 1.662-.942 2.524-1.424-2.732.166-6.522 1.59-5.352.295-4.456 1.988-12.37 4.779-16.811 8.943l-.14-.933c-2.035 2.443-8.874 7.296-9.419 10.46l-.544.127c-1.059 1.793-1.744 3.825-2.584 5.67-1.385 2.36-2.03.908-1.833 1.278-2.724 5.523-4.077 10.164-5.246 13.97.833 1.245.02 7.495.335 12.497-1.368 24.704 17.338 48.69 37.785 54.228 2.997 1.072 7.454 1.031 11.245 1.141-4.473-1.279-5.051-.678-9.408-2.197-3.143-1.48-3.832-3.17-6.058-5.102l.881 1.557c-4.366-1.545-2.539-1.912-6.091-3.037l.941-1.229c-1.415-.107-3.748-2.385-4.386-3.646l-1.548.061c-1.86-2.295-2.851-3.949-2.779-5.23l-.5.891c-.567-.973-6.843-8.607-3.587-6.83-.605-.553-1.409-.9-2.281-2.484l.663-.758c-1.567-2.016-2.884-4.6-2.784-5.461.836 1.129 1.416 1.34 1.99 1.533-3.957-9.818-4.179-.541-7.176-9.994l.634-.051c-.486-.732-.781-1.527-1.172-2.307l.276-2.75c-2.849-3.294-.797-14.006-.386-19.881.285-2.389 2.378-4.932 3.97-8.92l-.97-.167c1.854-3.234 10.586-12.988 14.63-12.486 1.959-2.461-.389-.009-.772-.629 4.303-4.453 5.656-3.146 8.56-3.947 3.132-1.859-2.688.725-1.203-.709 5.414-1.383 3.837-3.144 10.9-3.846.745.424-1.729.655-2.35 1.205 4.511-2.207 14.275-1.705 20.617 1.225 7.359 3.439 15.627 13.605 15.953 23.17l.371.1c-.188 3.802.582 8.199-.752 12.238l.908-1.912"/><path d="M32.372 59.764l-.252 1.26c1.181 1.604 2.118 3.342 3.626 4.596-1.085-2.118-1.891-2.993-3.374-5.856m2.792-.11c-.625-.691-.995-1.523-1.409-2.352.396 1.457 1.207 2.709 1.962 3.982l-.553-1.63m49.404-10.738l-.264.662a31.959 31.959 0 0 1-3.131 9.994 31.401 31.401 0 0 0 3.395-10.656M45.527.537C46.742.092 48.514.293 49.803 0c-1.68.141-3.352.225-5.003.438l.727.099M2.872 23.219c.28 2.592-1.95 3.598.494 1.889 1.31-2.951-.512-.815-.494-1.889M0 35.215c.563-1.728.665-2.766.88-3.766-1.556 1.989-.716 2.413-.88 3.766"/></g></svg>