<svg xmlns="http://www.w3.org/2000/svg" viewBox="0 0 300 300"><path d="M150.01 17.103c-36.686 0-69.91 14.88-93.963 38.953-24.064 24.017-38.935 57.258-38.935 93.962 0 36.677 14.871 69.895 38.935 93.922 24.054 24.04 57.277 38.948 93.962 38.948 36.695 0 69.936-14.908 93.954-38.948 24.054-24.027 38.893-57.245 38.893-93.922 0-36.704-14.84-69.945-38.893-93.962-24.018-24.073-57.26-38.953-93.954-38.953m0-16.103C232.29 1 299 67.72 299 150.018 299 232.288 232.288 299 150.01 299 67.74 299 1 232.288 1 150.018 1 67.721 67.74 1 150.01 1" fill="#007db8"/><path d="M79.539 148.804c0-8.683-5.762-13.616-13.919-13.616h-4.992v27.242h4.85c7.585 0 14.06-4.122 14.06-13.626m88.802 9.801l-36.778 28.96L97.95 161.1c-4.85 11.652-16.57 19.745-30.067 19.745H39.116v-64.083h28.767c15.081 0 25.95 9.59 30.058 19.808l33.621-26.435 12.453 9.8-30.814 24.22 5.922 4.634 30.805-24.205 12.471 9.774-30.81 24.246 5.914 4.644L168.34 139v-22.236h22.354v45.378h22.3v18.782H168.34v-22.318zm72.972 3.545h22.29v18.773h-44.668v-64.16h22.378v45.387z" fill="#007db8"/></svg>