<?xml version="1.0" encoding="utf-8"?>
<!-- Generator: Adobe Illustrator 19.2.1, SVG Export Plug-In . SVG Version: 6.00 Build 0)  -->
<svg version="1.1" id="layer" xmlns="http://www.w3.org/2000/svg" xmlns:xlink="http://www.w3.org/1999/xlink" x="0px" y="0px"
	 viewBox="0 0 652 652" style="enable-background:new 0 0 652 652;" xml:space="preserve">
<style type="text/css">
	.st0{fill:#009FE3;}
</style>
<g>
	<path class="st0" d="M559,346.1c0.2-0.2,0.3-0.5,0.3-0.7v-15.8c0-0.6-0.5-1-1-1l-73.8-0.1c-0.3,0-0.5,0.1-0.7,0.3
		c-0.2,0.2-0.3,0.5-0.3,0.7v16c0,0.3,0.1,0.5,0.3,0.7c0.2,0.2,0.5,0.3,0.7,0.3h24.9l0,67c0,0.3,0.1,0.5,0.3,0.7
		c0.2,0.2,0.5,0.3,0.7,0.3h18.8h0c0.9,0,2-0.3,2.9-1.1c0.8-0.7,1.5-1.9,1.5-3.6v-62.8v-0.5l24.6,0
		C558.5,346.4,558.8,346.3,559,346.1 M427.7,397.6c0-0.3-0.1-0.5-0.3-0.7c-0.2-0.2-0.5-0.3-0.7-0.3h-46.7v-18.8h40.2
		c0.3,0,0.5-0.1,0.7-0.3c0.2-0.2,0.3-0.5,0.3-0.7v-15.9c0-0.3-0.1-0.5-0.3-0.7c-0.2-0.2-0.5-0.3-0.7-0.3h-40.1v-13.2h46.5
		c0.3,0,0.5-0.1,0.7-0.3c0.2-0.2,0.3-0.5,0.3-0.7v-16.2c0-0.3-0.1-0.5-0.3-0.7c-0.2-0.2-0.5-0.3-0.7-0.3h-70.9
		c-0.3,0-0.5,0.1-0.7,0.3c-0.2,0.2-0.3,0.5-0.3,0.7v75.1c0,3.2,1.6,5.7,3.7,7.4c2.2,1.7,4.9,2.7,7.1,2.7H423c1.2,0,2.3-0.6,3.2-1.5
		c0.5-0.4,0.8-0.9,1-1.3c0.1-0.2,0.2-0.4,0.3-0.6c0.1-0.2,0.1-0.2,0.1-0.6v0V397.6z M501.8,397.8c0-0.3-0.1-0.5-0.3-0.7
		c-0.2-0.2-0.5-0.3-0.7-0.3H460l0-67.3c0-0.3-0.1-0.5-0.3-0.7c-0.2-0.2-0.5-0.3-0.7-0.3h-22.4c-0.6,0-1.1,0.5-1.1,1v9v24.7v41.1
		c0,3.8,1.6,6.4,3.7,8c2.1,1.7,4.7,2.4,6.6,2.4h51.9h0h0c1.1,0,2-0.7,2.8-1.7c0.8-1,1.2-2.1,1.2-2.9l0,0l0,0
		C501.8,408.5,501.8,401.1,501.8,397.8 M329.3,366.1c-9.3-13.2-19.2-27.1-21.3-30.2c0,0,0,0,0,0c-1.2-1.8-2.8-3.4-4.1-4.5
		c-3.4-2.9-7.8-4.6-12.6-4.6c-10.8,0-19.6,8.8-19.6,19.6v0h0v29.9c0,15.6,0,32.4,0,37.3c0,0.3,0.1,0.5,0.3,0.7
		c0.2,0.2,0.5,0.3,0.7,0.3h22.9c0.3,0,0.5-0.1,0.7-0.3c0.2-0.2,0.3-0.5,0.3-0.7v-52.2l24.6,35.3h-16c-0.3,0-0.5,0.1-0.7,0.3
		c-0.2,0.2-0.3,0.5-0.3,0.7v15.8c0,0.3,0.1,0.5,0.3,0.7c0.2,0.2,0.5,0.3,0.7,0.3h30.3c8.1,0,14.6-6.5,14.6-14.6c0-3.1-1-6-2.6-8.4
		C347.4,391.6,338.7,379.2,329.3,366.1 M601.9,326.8c-4.8,0-9.2,1.7-12.6,4.6c-1.3,1.1-2.9,2.8-4.1,4.5c-2.1,3.1-12,17.1-21.3,30.2
		c-9.3,13.2-18.1,25.6-18.1,25.6c-1.7,2.4-2.6,5.3-2.6,8.4c0,8.1,6.5,14.6,14.6,14.6H588c0.3,0,0.5-0.1,0.7-0.3
		c0.2-0.2,0.3-0.5,0.3-0.7v-15.8c0-0.3-0.1-0.5-0.3-0.7c-0.2-0.2-0.5-0.3-0.7-0.3h-16l24.6-35.3l0,52.2c0,0.3,0.1,0.5,0.3,0.7
		c0.2,0.2,0.5,0.3,0.7,0.3h22.9c0.3,0,0.5-0.1,0.7-0.3c0.2-0.2,0.3-0.5,0.3-0.7v-67.2C621.5,335.5,612.7,326.8,601.9,326.8"/>
	<path class="st0" d="M133.9,229.9L21.5,414.7h224.3L133.9,229.9z M155.4,393.2c-5.2,0-10.1-1.5-14.2-4.2c-0.1,0.1-0.2,0.2-0.3,0.2
		c-12.7,8.8-26.6,14.5-39.4,14.5c-0.7,0-1.4,0-2,0c-9.5-0.4-16.8-4.3-21.4-9.4c-4.6-5.1-6.7-11.3-7-16.6c0-0.4,0-0.9,0-1.3
		c0.2-15.8,11-32.9,25.7-46.7c14.8-13.7,33.9-24.3,52.7-24.5c0.1,0,0.2,0,0.3,0c8.7,0,16.1,2.9,21.2,8c5.1,5.1,7.7,12.3,7.7,19.9
		c0,5.3-1.2,10.9-3.6,16.5c4.1,4.6,6.6,10.7,6.6,17.3C181.7,381.4,169.9,393.2,155.4,393.2 M164.1,320c-3.1-3.1-7.6-5.1-14.3-5.1
		h-0.2c-15,0-32.6,9.2-46.1,21.9c-13.6,12.5-22.8,28.6-22.6,39.6c0,0.3,0,0.6,0,0.9c0.1,3.1,1.5,7.2,4.4,10.5
		c3,3.2,7.4,5.9,14.6,6.2c0.5,0,1,0,1.6,0c9.5,0,21.3-4.4,32.5-11.9c-3.1-4.3-4.9-9.6-4.9-15.2c0-14.5,11.8-26.3,26.3-26.3
		c4.2,0,8.1,1,11.7,2.8c1.3-3.7,1.9-7.1,1.9-10.3C168.9,327.5,167.1,323.1,164.1,320"/>
</g>
</svg>
