<svg version="1.1" id="layer" xmlns="http://www.w3.org/2000/svg" x="0" y="0" viewBox="0 0 652 652" xml:space="preserve"><path class="st0" d="M559 346.1c.2-.2.3-.5.3-.7v-15.8c0-.6-.5-1-1-1l-73.8-.1c-.3 0-.5.1-.7.3-.2.2-.3.5-.3.7v16c0 .3.1.5.3.7.2.2.5.3.7.3h24.9v67c0 .3.1.5.3.7.2.2.5.3.7.3h18.8c.9 0 2-.3 2.9-1.1.8-.7 1.5-1.9 1.5-3.6v-63.3h24.6c.3-.1.6-.2.8-.4m-131.3 51.5c0-.3-.1-.5-.3-.7-.2-.2-.5-.3-.7-.3H380v-18.8h40.2c.3 0 .5-.1.7-.3.2-.2.3-.5.3-.7v-15.9c0-.3-.1-.5-.3-.7-.2-.2-.5-.3-.7-.3h-40.1v-13.2h46.5c.3 0 .5-.1.7-.3.2-.2.3-.5.3-.7v-16.2c0-.3-.1-.5-.3-.7-.2-.2-.5-.3-.7-.3h-70.9c-.3 0-.5.1-.7.3-.2.2-.3.5-.3.7v75.1c0 3.2 1.6 5.7 3.7 7.4 2.2 1.7 4.9 2.7 7.1 2.7H423c1.2 0 2.3-.6 3.2-1.5.5-.4.8-.9 1-1.3l.3-.6c.1-.2.1-.2.1-.6v-13.1zm74.1.2c0-.3-.1-.5-.3-.7-.2-.2-.5-.3-.7-.3H460v-67.3c0-.3-.1-.5-.3-.7-.2-.2-.5-.3-.7-.3h-22.4c-.6 0-1.1.5-1.1 1V404.3c0 3.8 1.6 6.4 3.7 8 2.1 1.7 4.7 2.4 6.6 2.4h51.9c1.1 0 2-.7 2.8-1.7.8-1 1.2-2.1 1.2-2.9.1-1.6.1-9 .1-12.3m-172.5-31.7c-9.3-13.2-19.2-27.1-21.3-30.2-1.2-1.8-2.8-3.4-4.1-4.5-3.4-2.9-7.8-4.6-12.6-4.6-10.8 0-19.6 8.8-19.6 19.6V413.6c0 .3.1.5.3.7.2.2.5.3.7.3h22.9c.3 0 .5-.1.7-.3.2-.2.3-.5.3-.7v-52.2l24.6 35.3h-16c-.3 0-.5.1-.7.3-.2.2-.3.5-.3.7v15.8c0 .3.1.5.3.7.2.2.5.3.7.3h30.3c8.1 0 14.6-6.5 14.6-14.6 0-3.1-1-6-2.6-8.4-.1.1-8.8-12.3-18.2-25.4m272.6-39.3c-4.8 0-9.2 1.7-12.6 4.6-1.3 1.1-2.9 2.8-4.1 4.5-2.1 3.1-12 17.1-21.3 30.2-9.3 13.2-18.1 25.6-18.1 25.6-1.7 2.4-2.6 5.3-2.6 8.4 0 8.1 6.5 14.6 14.6 14.6H588c.3 0 .5-.1.7-.3.2-.2.3-.5.3-.7v-15.8c0-.3-.1-.5-.3-.7-.2-.2-.5-.3-.7-.3h-16l24.6-35.3v52.2c0 .3.1.5.3.7.2.2.5.3.7.3h22.9c.3 0 .5-.1.7-.3.2-.2.3-.5.3-.7v-67.2c0-11.1-8.8-19.8-19.6-19.8M133.9 229.9 21.5 414.7h224.3L133.9 229.9zm21.5 163.3c-5.2 0-10.1-1.5-14.2-4.2-.1.1-.2.2-.3.2-12.7 8.8-26.6 14.5-39.4 14.5h-2c-9.5-.4-16.8-4.3-21.4-9.4-4.6-5.1-6.7-11.3-7-16.6v-1.3c.2-15.8 11-32.9 25.7-46.7 14.8-13.7 33.9-24.3 52.7-24.5h.3c8.7 0 16.1 2.9 21.2 8 5.1 5.1 7.7 12.3 7.7 19.9 0 5.3-1.2 10.9-3.6 16.5 4.1 4.6 6.6 10.7 6.6 17.3 0 14.5-11.8 26.3-26.3 26.3m8.7-73.2c-3.1-3.1-7.6-5.1-14.3-5.1h-.2c-15 0-32.6 9.2-46.1 21.9-13.6 12.5-22.8 28.6-22.6 39.6v.9c.1 3.1 1.5 7.2 4.4 10.5 3 3.2 7.4 5.9 14.6 6.2h1.6c9.5 0 21.3-4.4 32.5-11.9-3.1-4.3-4.9-9.6-4.9-15.2 0-14.5 11.8-26.3 26.3-26.3 4.2 0 8.1 1 11.7 2.8 1.3-3.7 1.9-7.1 1.9-10.3-.1-5.6-1.9-10-4.9-13.1"/></svg>
