<?xml version="1.0" encoding="UTF-8" standalone="no"?>
<!-- Created with Inkscape (http://www.inkscape.org/) -->

<svg
   viewBox="0 0 186.98199 28.920565"
   version="1.1"
   id="svg1"
   xml:space="preserve"
   xmlns="http://www.w3.org/2000/svg"
   xmlns:svg="http://www.w3.org/2000/svg"><defs
     id="defs1" /><g
     id="g1"
     transform="matrix(0.26458333,0,0,0.26458335,211.71219,-8.0891468)"><path
       id="path1"
       d="M -778.49299,118.20016 V 52.252691 c 50.17293,0 77.88493,0 128.04987,0 0,21.986533 0,43.965066 0,65.947469 -50.16494,0 -77.87694,0 -128.04987,0 z m -19.67913,19.67912 h 273.50366 l 4.668,-0.33542 c 16.612,-1.575 35.672,-24.7213 19.40133,-47.09317 l -3.90933,-4.947466 4.636,-5.962534 c 6.93467,-11.248933 8.62,-29.291066 -6.62933,-41.000532 -3.53334,-2.458267 -7.13334,-4.2276 -11.30267,-5.2244 -2.296,-0.489066 -4.51867,-0.7224 -6.85733,-0.742666 h -273.51033 z m 173.08233,-65.626589 v -20 c 35.92266,0 65.60666,0 101.54,0 2.69866,0 5.092,1.035467 7.16133,3.107867 2.072,2.068266 3.10667,4.459333 3.10667,7.162533 0,2.883733 -0.992,5.225466 -2.97334,7.028 -1.98,1.801066 -4.32266,2.7016 -7.02533,2.7016 -36.02133,0 -65.796,0 -101.80933,0 z m 0,45.947469 V 98.20069 c 35.92266,0 65.60666,0 101.54,0 2.69866,0 5.092,0.944267 7.16133,2.83533 2.072,1.89227 3.10667,4.28027 3.10667,7.1636 0,2.70307 -1.03467,5.04947 -3.10667,7.02814 -2.06933,1.98013 -4.46,2.9724 -7.16133,2.9724 -35.93334,0 -65.61734,0 -101.54,0 z m -137.2604,-47.775069 v 29.603199 h 81.0328 c 3.3052,0 6.02707,-0.510533 8.162,-1.518267 2.138,-1.0104 3.81707,-2.243733 5.03227,-3.698933 1.21466,-1.454667 2.04,-3.0552 2.47733,-4.793733 0.436,-1.7376 0.65467,-3.334933 0.65467,-4.790133 0,-1.4568 -0.21734,-3.054667 -0.65467,-4.7932 -0.43733,-1.738134 -1.26267,-3.3376 -2.47733,-4.792267 -1.2152,-1.455733 -2.89374,-2.6896 -5.03227,-3.700533 -2.1344,-1.0088 -4.86,-1.516133 -8.162,-1.516133 z"
       style="fill:none;stroke:#231f20;stroke-width:3.99988;stroke-linecap:butt;stroke-linejoin:miter;stroke-miterlimit:2.61313;stroke-dasharray:none;stroke-opacity:1" /><path
       id="path2"
       d="M -778.49299,118.20016 V 52.252691 c 50.17293,0 77.88493,0 128.04987,0 0,21.986533 0,43.965066 0,65.947469 -50.16494,0 -77.87694,0 -128.04987,0 z m -19.67913,19.67912 h 273.50366 l 4.668,-0.33542 c 16.612,-1.575 35.672,-24.7213 19.40133,-47.09317 l -3.90933,-4.947466 4.636,-5.962534 c 6.93467,-11.248933 8.62,-29.291066 -6.62933,-41.000532 -3.53334,-2.458267 -7.13334,-4.2276 -11.30267,-5.2244 -2.296,-0.489066 -4.51867,-0.7224 -6.85733,-0.742666 h -273.51033 z m 173.08233,-65.626589 v -20 c 35.92266,0 65.60666,0 101.54,0 2.69866,0 5.092,1.035467 7.16133,3.107867 2.072,2.068266 3.10667,4.459333 3.10667,7.162533 0,2.883733 -0.992,5.225466 -2.97334,7.028 -1.98,1.801066 -4.32266,2.7016 -7.02533,2.7016 -36.02133,0 -65.796,0 -101.80933,0 z m 0,45.947469 V 98.20069 c 35.92266,0 65.60666,0 101.54,0 2.69866,0 5.092,0.944267 7.16133,2.83533 2.072,1.89227 3.10667,4.28027 3.10667,7.1636 0,2.70307 -1.03467,5.04947 -3.10667,7.02814 -2.06933,1.98013 -4.46,2.9724 -7.16133,2.9724 -35.93334,0 -65.61734,0 -101.54,0 z m -137.2604,-47.775069 v 29.603199 h 81.0328 c 3.3052,0 6.02707,-0.510533 8.162,-1.518267 2.138,-1.0104 3.81707,-2.243733 5.03227,-3.698933 1.21466,-1.454667 2.04,-3.0552 2.47733,-4.793733 0.436,-1.7376 0.65467,-3.334933 0.65467,-4.790133 0,-1.4568 -0.21734,-3.054667 -0.65467,-4.7932 -0.43733,-1.738134 -1.26267,-3.3376 -2.47733,-4.792267 -1.2152,-1.455733 -2.89374,-2.6896 -5.03227,-3.700533 -2.1344,-1.0088 -4.86,-1.516133 -8.162,-1.516133 h -81.0328"
       style="fill:#2056ae;fill-opacity:1;fill-rule:evenodd;stroke:none;stroke-width:0.133333" /><path
       id="path3"
       d="m -466.4578,35.188158 h 36.90134 c 8.31066,0 14.64533,0.4296 19.02133,1.307733 5.868,1.180267 10.89467,3.286534 15.064,6.3188 4.18933,3.0156 7.37867,6.717733 9.568,11.088 2.16533,4.3896 3.25867,9.781733 3.25867,16.212 0,5.632266 -1.02267,10.499466 -3.07067,14.583866 -2.49333,4.979733 -6.056,9.0156 -10.71067,12.094266 -3.49333,2.346934 -8.21866,4.164537 -14.18,5.473467 -4.44666,0.9744 -10.40666,1.452 -17.88,1.452 h -37.972 z m 20.184,11.599467 v 45.379732 h 15.06534 c 5.63333,0 9.708,-0.207867 12.22266,-0.654267 3.25867,-0.5604 5.98134,-1.5 8.148,-2.8416 2.16534,-1.340133 3.91067,-3.5584 5.28534,-6.621866 1.34933,-3.062534 2.04933,-7.258934 2.04933,-12.5568 0,-5.297333 -0.7,-9.35 -2.04933,-12.1912 -1.37467,-2.838533 -3.28134,-5.0572 -5.728,-6.638 -2.46667,-1.5948 -5.58667,-2.664 -9.36,-3.221333 -2.816,-0.447867 -8.33334,-0.654666 -16.576,-0.654666 z m 80.76534,56.930665 V 35.188158 h 74.13199 v 11.599467 h -53.94533 v 15.189599 h 50.196 v 11.5364 h -50.196 v 18.653733 h 55.85467 v 11.550933 z m 124.33866,0 -35.73867,-68.530132 h 21.91067 l 25.28267,50.723466 24.49466,-50.723466 h 21.41733 l -35.80666,68.530132 z m 141.822662,0 h -21.976002 l -8.73333,-15.5724 h -39.97333 l -8.24134,15.5724 h -21.42133 l 38.952,-68.530132 h 21.35067 z M -136.52847,76.610024 -150.3098,51.175091 -163.81514,76.610024 Z"
       style="fill:#2056ae;fill-opacity:1;fill-rule:evenodd;stroke:#231f20;stroke-width:3.99988;stroke-linecap:butt;stroke-linejoin:miter;stroke-miterlimit:2.61313;stroke-dasharray:none;stroke-opacity:1;paint-order:stroke fill markers" /><path
       id="path4"
       d="m -466.1738,136.53918 v -18.54329 h 16.336 c 3.32267,0 5.988,0.18907 7.99467,0.56093 2.01733,0.37507 3.58533,0.9548 4.72267,1.736 1.13466,0.7776 1.712,1.59374 1.712,2.44787 0,0.79067 -0.50667,1.53707 -1.51867,2.236 -1.00533,0.69947 -2.53333,1.2656 -4.572,1.6964 2.636,0.32907 4.64933,0.88952 6.06933,1.67963 1.41867,0.7948 2.12934,1.73125 2.12934,2.81093 0,0.86876 -0.43467,1.67553 -1.29734,2.42136 -0.86,0.74792 -1.92533,1.3224 -3.192,1.72812 -1.268,0.40521 -2.85733,0.70677 -4.764,0.91563 -1.90533,0.20573 -4.244,0.31042 -7.02133,0.31042 z m 5.76534,-10.75102 h 9.41333 c 2.54533,0 4.37867,-0.0724 5.49333,-0.21614 1.46134,-0.18493 2.56534,-0.49066 3.30534,-0.92346 0.74,-0.43227 1.11466,-0.97187 1.11466,-1.61827 0,-0.61347 -0.34666,-1.15827 -1.03333,-1.62347 -0.70133,-0.4708 -1.696,-0.79053 -2.96933,-0.964 -1.28934,-0.17186 -3.496,-0.25733 -6.62934,-0.25733 h -8.69466 z m 0,8.56144 h 10.83333 c 1.86533,0 3.17067,-0.0302 3.92133,-0.0854 1.32667,-0.10521 2.43067,-0.27188 3.32267,-0.51042 0.89067,-0.2323 1.624,-0.57864 2.20133,-1.02656 0.56667,-0.45416 0.86,-0.97292 0.86,-1.56355 0,-0.69061 -0.41333,-1.29167 -1.24666,-1.80468 -0.83067,-0.51041 -1.98534,-0.86771 -3.464,-1.07552 -1.46934,-0.20156 -3.59867,-0.30573 -6.36267,-0.30573 h -10.06533 z m 35.12133,2.18958 v -18.54329 h 19.29467 c 3.88133,0 6.82933,0.1688 8.84666,0.5 2.01734,0.33387 3.628,0.9204 4.84534,1.762 1.204,0.84747 1.80133,1.7792 1.80133,2.79747 0,1.3172 -0.99067,2.4224 -2.99733,3.32546 -1.996,0.9016 -5.08934,1.47555 -9.26267,1.72138 1.53067,0.31093 2.68267,0.61822 3.476,0.925 1.68133,0.65573 3.27333,1.48073 4.78133,2.46562 l 7.57067,5.04636 h -7.244 l -5.75467,-3.8599 c -1.68533,-1.1099 -3.072,-1.96458 -4.16666,-2.55104 -1.08667,-0.59219 -2.05867,-1.00678 -2.92,-1.24011 -0.85867,-0.23697 -1.73334,-0.40104 -2.62534,-0.49583 -0.65733,-0.0557 -1.72,-0.0865 -3.21066,-0.0865 h -6.676 v 8.23333 z m 5.75867,-10.35782 h 12.38133 c 2.624,0 4.69333,-0.11614 6.17333,-0.34947 1.48934,-0.23387 2.61067,-0.60467 3.38267,-1.11413 0.77067,-0.5104 1.15333,-1.06134 1.15333,-1.6624 0,-0.8756 -0.74,-1.598 -2.23733,-2.16307 -1.48933,-0.56507 -3.84933,-0.8464 -7.084,-0.8464 h -13.76933 z m 36.30533,1.32605 c 0,-3.07859 1.936,-5.48752 5.81867,-7.22712 3.88133,-1.74053 8.88533,-2.61347 15.02666,-2.61347 4.012,0 7.64,0.4104 10.864,1.2276 3.22,0.8208 5.68267,1.9604 7.37467,3.42294 1.692,1.45933 2.53466,3.12026 2.53466,4.97386 0,1.88234 -0.88133,3.56567 -2.66533,5.04691 -1.78267,1.48491 -4.30667,2.60729 -7.57067,3.37136 -3.27333,0.76459 -6.78666,1.14479 -10.56666,1.14479 -4.10533,0 -7.764,-0.41979 -10.98533,-1.2651 -3.23334,-0.84166 -5.67467,-1.99532 -7.336,-3.45521 -1.66267,-1.45417 -2.49467,-3 -2.49467,-4.62656 z m 5.93867,0.0391 c 0,2.23595 1.40933,3.99219 4.22533,5.28074 2.828,1.28593 6.36267,1.9276 10.62,1.9276 4.33867,0 7.904,-0.64635 10.70266,-1.94635 2.796,-1.29948 4.204,-3.14167 4.204,-5.53016 0,-1.50627 -0.60933,-2.82347 -1.80533,-3.95053 -1.19467,-1.12667 -2.94667,-1.99947 -5.248,-2.62094 -2.31066,-0.61706 -4.89466,-0.9276 -7.76,-0.9276 -4.084,0 -7.592,0.59587 -10.52933,1.79174 -2.94133,1.1912 -4.40933,3.18546 -4.40933,5.9755 z m 38.32266,8.99272 16.72267,-18.54329 h 6.2 l 17.81466,18.54329 h -6.568 l -5.07466,-5.61666 h -18.20134 l -4.77066,5.61666 z m 12.556,-7.61614 h 14.76533 l -4.55066,-5.13328 c -1.37734,-1.5584 -2.41067,-2.84014 -3.07867,-3.84747 -0.55867,1.19213 -1.33867,2.36987 -2.35333,3.54533 z m 32.78267,7.61614 v -18.54329 h 14.988 c 3.38266,0 5.96666,0.0907 7.75066,0.26773 2.49067,0.2412 4.62134,0.68654 6.384,1.32614 2.28934,0.828 4.012,1.88066 5.148,3.1676 1.144,1.28813 1.71067,2.7548 1.71067,4.40893 0,1.40623 -0.38267,2.65517 -1.16533,3.7432 -0.768,1.08749 -1.752,1.98959 -2.968,2.7026 -1.20667,0.71199 -2.524,1.27344 -3.96134,1.67865 -1.42933,0.41146 -3.16266,0.72187 -5.188,0.93282 -2.03733,0.21093 -4.37066,0.31562 -6.99333,0.31562 z m 5.75466,-2.18958 h 9.29334 c 2.86666,0 5.128,-0.11199 6.75866,-0.34115 1.632,-0.22917 2.92667,-0.54792 3.9,-0.96147 1.37067,-0.57916 2.432,-1.36457 3.19334,-2.34426 0.76,-0.9849 1.14533,-2.17187 1.14533,-3.57496 0,-1.9396 -0.75067,-3.4292 -2.24,-4.46934 -1.5,-1.0448 -3.31467,-1.74066 -5.45333,-2.0932 -1.54,-0.25573 -4.03067,-0.37973 -7.44534,-0.37973 h -9.152 z m 69.20133,-4.31251 5.764,0.62136 c -1.20666,2.01145 -3.38266,3.54948 -6.51466,4.61093 -3.14267,1.05834 -6.972,1.5849 -11.512,1.5849 -4.68933,0 -8.50133,-0.40572 -11.43867,-1.21719 -2.94,-0.81719 -5.18133,-1.99427 -6.70933,-3.53749 -1.52933,-1.5448 -2.3,-3.20208 -2.3,-4.97184 0,-1.93027 0.86267,-3.6152 2.59333,-5.05214 1.73467,-1.438 4.19867,-2.52973 7.39734,-3.27653 3.192,-0.74747 6.70933,-1.11827 10.54933,-1.11827 4.356,0 8.01466,0.46987 10.98533,1.4156 2.96933,0.94534 5.03467,2.27094 6.19867,3.986 l -5.66134,0.5692 c -1.01466,-1.35053 -2.47333,-2.3312 -4.39866,-2.95 -1.91467,-0.6156 -4.328,-0.9224 -7.244,-0.9224 -3.34533,0 -6.13333,0.3412 -8.38,1.0224 -2.252,0.68654 -3.83333,1.60107 -4.732,2.7548 -0.91333,1.14894 -1.37067,2.33534 -1.37067,3.55667 0,1.58077 0.53867,2.95369 1.61067,4.13337 1.08667,1.17292 2.75733,2.05522 5.03733,2.63751 2.28134,0.58281 4.74134,0.87083 7.39867,0.87083 3.22,0 5.94533,-0.39583 8.18667,-1.18646 2.23866,-0.79426 3.75066,-1.97396 4.53999,-3.53125 z m 8.076,6.50209 16.72134,-18.54329 h 6.2 l 17.816,18.54329 h -6.56934 l -5.07466,-5.61666 h -18.20134 l -4.77066,5.61666 z m 12.556,-7.61614 h 14.764 l -4.54933,-5.13328 c -1.37733,-1.5584 -2.412,-2.84014 -3.08,-3.84747 -0.55867,1.19213 -1.33733,2.36987 -2.35333,3.54533 z m 30.824,1.65833 5.43334,-0.20365 c 0.25066,0.92865 0.848,1.68906 1.79333,2.28385 0.94267,0.59636 2.4,1.07604 4.37733,1.44271 1.97467,0.3651 4.20534,0.54844 6.67867,0.54844 2.19867,0 4.13333,-0.13907 5.81467,-0.41511 1.68133,-0.2802 2.93733,-0.65989 3.75866,-1.14375 0.82134,-0.48697 1.23867,-1.01562 1.23867,-1.5901 0,-0.58124 -0.396,-1.08646 -1.196,-1.52239 -0.78933,-0.43699 -2.09867,-0.79948 -3.91067,-1.09324 -1.17866,-0.19427 -3.752,-0.49583 -7.75466,-0.90624 -3.992,-0.41043 -6.79867,-0.79427 -8.40134,-1.1568 -2.07733,-0.46253 -3.62666,-1.04213 -4.64933,-1.7276 -1.012,-0.6864 -1.51867,-1.4552 -1.51867,-2.30987 0,-0.93173 0.61467,-1.80733 1.86534,-2.62026 1.24533,-0.81574 3.068,-1.43294 5.46133,-1.8568 2.39867,-0.4188 5.056,-0.62974 7.98267,-0.62974 3.23466,0 6.06933,0.21987 8.54266,0.66414 2.464,0.44106 4.35734,1.09213 5.684,1.95146 1.32,0.86 2.03867,1.83547 2.13734,2.924 l -5.52134,0.176 c -0.30266,-1.16973 -1.30533,-2.05933 -3.01866,-2.65466 -1.712,-0.6 -4.236,-0.89947 -7.58,-0.89947 -3.48534,0 -6.02,0.27293 -7.62,0.81773 -1.59067,0.5432 -2.392,1.2 -2.392,1.96254 0,0.67026 0.56666,1.2192 1.692,1.64626 1.11466,0.43227 4.00266,0.8724 8.684,1.32187 4.68266,0.45213 7.89733,0.8464 9.63733,1.1824 2.53333,0.5 4.40933,1.13015 5.61333,1.89056 1.20667,0.76459 1.804,1.6448 1.804,2.63855 0,0.98802 -0.65733,1.91666 -1.984,2.7875 -1.328,0.87395 -3.236,1.55052 -5.716,2.03906 -2.484,0.48385 -5.28,0.72552 -8.38,0.72552 -3.94266,0 -7.24533,-0.24167 -9.90133,-0.73438 -2.66667,-0.48697 -4.75467,-1.22134 -6.27333,-2.20625 -1.51067,-0.97968 -2.31067,-2.09375 -2.38134,-3.33228 z m 53.584,5.95781 v -16.35369 h -14.336 v -2.1896 h 34.494668 v 2.1896 h -14.399998 v 16.35369 h -5.75867"
       style="fill:#231f20;fill-opacity:1;fill-rule:evenodd;stroke:none;stroke-width:0.133333" /><path
       id="path5"
       d="m -107.09647,35.188158 c 2.288,0 4.52133,0.584933 6.70667,1.757733 2.177329,1.1776 3.878662,2.855734 5.094662,5.045867 1.216,2.1844 1.826666,4.4656 1.826666,6.8412 0,2.350533 -0.6,4.608266 -1.802666,6.773866 -1.196,2.171467 -2.88,3.855734 -5.040002,5.0516 -2.164,1.202667 -4.42266,1.8016 -6.78533,1.8016 -2.36267,0 -4.62667,-0.598933 -6.78533,-1.8016 -2.16534,-1.195866 -3.84934,-2.880133 -5.052,-5.0516 -1.208,-2.1656 -1.808,-4.423333 -1.808,-6.773866 0,-2.3756 0.612,-4.6568 1.83333,-6.8412 1.22133,-2.190133 2.92267,-3.868267 5.10667,-5.045867 2.17866,-1.1728 4.41733,-1.757733 6.70533,-1.757733 z m 0,2.2568 c -1.91733,0 -3.78,0.4932 -5.59467,1.474933 -1.81333,0.979734 -3.232,2.387467 -4.256,4.207334 -1.024,1.824933 -1.53733,3.725466 -1.53733,5.705733 0,1.961466 0.508,3.842133 1.51333,5.645333 1.004,1.799467 2.41067,3.206133 4.21867,4.211867 1.808,1.005733 3.688,1.510933 5.656,1.510933 1.96133,0 3.84933,-0.5052 5.656,-1.510933 1.807999,-1.005734 3.207999,-2.4124 4.207999,-4.211867 0.998666,-1.8032 1.498666,-3.683867 1.498666,-5.645333 0,-1.980267 -0.504,-3.8808 -1.522666,-5.705733 -1.018667,-1.819867 -2.437334,-3.2276 -4.257329,-4.207334 -1.82,-0.981733 -3.68134,-1.474933 -5.58267,-1.474933 z m -5.984,18.920266 V 41.695891 h 5.04 c 1.728,0 2.972,0.129734 3.74533,0.400534 0.77067,0.271866 1.38134,0.7464 1.844,1.419866 0.45734,0.678134 0.684,1.3932 0.684,2.153067 0,1.073467 -0.38,2.0032 -1.14666,2.799466 -0.764,0.7964 -1.78267,1.240134 -3.048,1.3396 0.52,0.214667 0.93866,0.474534 1.248,0.776 0.59066,0.5808 1.312,1.548 2.17066,2.912 l 1.78934,2.8688 h -2.89334 l -1.30266,-2.312533 c -1.024,-1.814 -1.844,-2.956267 -2.47334,-3.412533 -0.432,-0.339067 -1.06666,-0.504667 -1.89866,-0.504667 h -1.38934 v 6.229733 z m 2.36933,-8.2536 h 2.87467 c 1.37067,0 2.308,-0.21 2.80667,-0.616133 0.49866,-0.407333 0.752,-0.95 0.752,-1.628666 0,-0.4328 -0.12267,-0.821867 -0.36267,-1.1672 -0.24133,-0.339067 -0.57467,-0.598 -1,-0.764667 -0.432,-0.1724 -1.22133,-0.2536 -2.38,-0.2536 h -2.69067 v 4.430266"
       style="fill:#231f20;fill-opacity:1;fill-rule:evenodd;stroke:none;stroke-width:0.133333" /></g></svg>
