<svg id="svg" version="1.1" width="500" height="500" xmlns="http://www.w3.org/2000/svg" xmlns:xlink="http://www.w3.org/1999/xlink" style="display: block;"><g id="svgg"><path id="path0" d="" stroke="none" fill="#000000" fill-rule="evenodd"></path><path id="path1" d="" stroke="none" fill="#000033" fill-rule="evenodd"></path><path id="path2" d="" stroke="none" fill="#000055" fill-rule="evenodd"></path><path id="path3" d="" stroke="none" fill="#00006d" fill-rule="evenodd"></path><path id="path4" d="" stroke="none" fill="#000073" fill-rule="evenodd"></path><path id="path5" d="" stroke="none" fill="#000079" fill-rule="evenodd"></path><path id="path6" d="M98.857 70.179 C 96.829 70.696,95.597 71.987,95.020 74.200 C 94.385 76.632,95.055 76.487,96.005 73.986 C 96.427 72.878,97.678 71.627,98.786 71.205 C 99.894 70.784,100.800 70.251,100.800 70.020 C 100.800 69.789,100.710 69.642,100.600 69.693 C 100.490 69.744,99.705 69.963,98.857 70.179 M351.812 71.229 C 352.808 71.630,353.969 72.867,354.392 73.979 C 355.345 76.485,356.016 76.636,355.380 74.200 C 354.761 71.826,353.256 70.388,351.457 70.451 C 350.278 70.492,350.346 70.640,351.812 71.229 M366.950 85.660 C 368.372 88.510,368.695 88.611,368.206 86.054 C 368.001 84.983,367.372 83.930,366.808 83.714 C 366.029 83.415,366.063 83.883,366.950 85.660 M369.067 95.794 C 369.067 96.392,369.569 96.676,370.199 96.434 C 370.821 96.195,371.661 96.000,372.065 96.000 C 372.469 96.000,372.800 95.712,372.800 95.360 C 372.800 95.008,371.960 94.720,370.933 94.720 C 369.904 94.720,369.067 95.202,369.067 95.794 M373.867 95.619 C 373.867 96.200,374.522 96.531,375.355 96.370 C 376.173 96.213,376.662 96.377,376.440 96.735 C 375.926 97.568,378.760 100.174,379.440 99.494 C 379.720 99.213,379.813 99.692,379.647 100.558 C 379.471 101.471,379.779 102.133,380.381 102.133 C 381.670 102.133,381.130 97.816,379.657 96.343 C 378.184 94.870,373.867 94.330,373.867 95.619 M380.000 103.935 C 380.000 104.339,379.805 105.179,379.566 105.801 C 379.324 106.431,379.608 106.933,380.206 106.933 C 380.798 106.933,381.280 106.096,381.280 105.067 C 381.280 104.040,380.992 103.200,380.640 103.200 C 380.288 103.200,380.000 103.531,380.000 103.935 M74.057 107.779 C 72.029 108.296,70.797 109.587,70.220 111.800 C 69.585 114.232,70.255 114.087,71.205 111.586 C 71.627 110.478,72.878 109.227,73.986 108.805 C 75.094 108.384,76.000 107.851,76.000 107.620 C 76.000 107.389,75.910 107.242,75.800 107.293 C 75.690 107.344,74.905 107.563,74.057 107.779 M387.200 107.695 C 387.200 107.884,388.106 108.384,389.214 108.805 C 390.322 109.227,391.573 110.478,391.995 111.586 C 392.945 114.087,393.615 114.232,392.980 111.800 C 392.334 109.322,387.200 105.676,387.200 107.695 M345.420 126.600 C 346.039 128.974,347.544 130.412,349.343 130.349 C 350.522 130.308,350.454 130.160,348.988 129.571 C 347.992 129.170,346.831 127.933,346.408 126.821 C 345.455 124.315,344.784 124.164,345.420 126.600 M123.657 132.579 C 121.629 133.096,120.397 134.387,119.820 136.600 C 119.185 139.032,119.855 138.887,120.805 136.386 C 121.227 135.278,122.478 134.027,123.586 133.605 C 124.694 133.184,125.600 132.651,125.600 132.420 C 125.600 132.189,125.510 132.042,125.400 132.093 C 125.290 132.144,124.505 132.363,123.657 132.579 M312.800 132.531 C 312.800 132.701,313.700 133.182,314.800 133.600 C 315.997 134.055,316.800 134.992,316.800 135.933 C 316.800 136.798,317.137 137.714,317.549 137.968 C 318.013 138.255,318.013 137.441,317.549 135.821 C 317.137 134.385,316.800 133.160,316.800 133.099 C 316.800 133.037,315.900 132.814,314.800 132.604 C 313.700 132.394,312.800 132.361,312.800 132.531 M117.333 138.133 C 117.040 138.427,116.800 139.336,116.800 140.153 C 116.800 141.003,115.943 141.965,114.800 142.400 C 113.700 142.818,112.800 143.299,112.800 143.469 C 112.800 143.639,113.700 143.606,114.800 143.396 C 115.900 143.186,116.800 142.963,116.800 142.901 C 116.800 142.840,117.135 141.622,117.544 140.195 C 118.305 137.542,118.270 137.197,117.333 138.133 M61.257 145.379 C 59.351 145.865,58.082 147.107,57.353 149.200 C 56.962 150.322,57.295 150.143,58.465 148.600 C 59.383 147.390,60.622 146.400,61.220 146.400 C 61.817 146.400,62.528 146.040,62.800 145.600 C 63.072 145.160,63.183 144.842,63.047 144.893 C 62.911 144.944,62.105 145.163,61.257 145.379 M357.368 150.792 C 357.960 153.616,358.949 154.741,361.400 155.380 C 363.820 156.012,363.692 155.347,361.212 154.405 C 360.119 153.989,358.694 152.468,358.045 151.024 L 356.866 148.400 357.368 150.792 M324.800 157.295 C 324.800 157.484,325.706 157.984,326.814 158.405 C 327.922 158.827,329.173 160.078,329.595 161.186 C 330.545 163.687,331.215 163.832,330.580 161.400 C 329.934 158.922,324.800 155.276,324.800 157.295 M111.657 170.179 C 109.629 170.696,108.397 171.987,107.820 174.200 C 107.185 176.632,107.855 176.487,108.805 173.986 C 109.227 172.878,110.478 171.627,111.586 171.205 C 112.694 170.784,113.600 170.251,113.600 170.020 C 113.600 169.789,113.510 169.642,113.400 169.693 C 113.290 169.744,112.505 169.963,111.657 170.179 M46.742 171.445 C 45.829 172.491,44.714 176.000,45.295 176.000 C 45.484 176.000,45.985 175.090,46.408 173.979 C 46.831 172.867,47.992 171.630,48.988 171.229 C 50.632 170.569,50.652 170.500,49.200 170.481 C 48.320 170.470,47.214 170.904,46.742 171.445 M104.795 177.214 C 104.373 178.322,103.122 179.573,102.014 179.995 C 99.513 180.945,99.368 181.615,101.800 180.980 C 104.278 180.334,107.924 175.200,105.905 175.200 C 105.716 175.200,105.216 176.106,104.795 177.214 M98.857 194.979 C 96.829 195.496,95.597 196.787,95.020 199.000 C 94.385 201.432,95.055 201.287,96.005 198.786 C 96.427 197.678,97.678 196.427,98.786 196.005 C 99.894 195.584,100.800 195.051,100.800 194.820 C 100.800 194.589,100.710 194.442,100.600 194.493 C 100.490 194.544,99.705 194.763,98.857 194.979 M361.257 194.979 C 359.229 195.496,357.997 196.787,357.420 199.000 C 356.785 201.432,357.455 201.287,358.405 198.786 C 358.827 197.678,360.078 196.427,361.186 196.005 C 362.294 195.584,363.200 195.051,363.200 194.820 C 363.200 194.589,363.110 194.442,363.000 194.493 C 362.890 194.544,362.105 194.763,361.257 194.979 M91.995 202.014 C 91.573 203.122,90.322 204.373,89.214 204.795 C 86.713 205.745,86.568 206.415,89.000 205.780 C 91.278 205.186,92.386 204.078,92.980 201.800 C 93.615 199.368,92.945 199.513,91.995 202.014 M154.392 202.021 C 153.969 203.133,152.808 204.370,151.812 204.771 C 150.346 205.360,150.278 205.508,151.457 205.549 C 153.256 205.612,154.761 204.174,155.380 201.800 C 156.016 199.364,155.345 199.515,154.392 202.021 M36.457 207.779 C 34.429 208.296,33.197 209.587,32.620 211.800 C 31.985 214.232,32.655 214.087,33.605 211.586 C 34.027 210.478,35.278 209.227,36.386 208.805 C 37.494 208.384,38.400 207.851,38.400 207.620 C 38.400 207.389,38.310 207.242,38.200 207.293 C 38.090 207.344,37.305 207.563,36.457 207.779 M146.742 209.045 C 145.829 210.091,144.714 213.600,145.295 213.600 C 145.484 213.600,145.985 212.690,146.408 211.579 C 146.831 210.467,147.992 209.230,148.988 208.829 C 150.632 208.169,150.652 208.100,149.200 208.081 C 148.320 208.070,147.214 208.504,146.742 209.045 M329.600 214.800 C 329.145 215.997,328.208 216.800,327.267 216.800 C 326.402 216.800,325.486 217.137,325.232 217.549 C 324.945 218.013,325.759 218.013,327.379 217.549 C 328.815 217.137,330.040 216.800,330.101 216.800 C 330.163 216.800,330.386 215.900,330.596 214.800 C 330.806 213.700,330.839 212.800,330.669 212.800 C 330.499 212.800,330.018 213.700,329.600 214.800 M317.333 225.333 C 317.040 225.627,316.800 226.536,316.800 227.353 C 316.800 228.203,315.943 229.165,314.800 229.600 C 313.700 230.018,312.800 230.499,312.800 230.669 C 312.800 230.839,313.700 230.806,314.800 230.596 C 315.900 230.386,316.800 230.163,316.800 230.101 C 316.800 230.040,317.135 228.822,317.544 227.395 C 318.305 224.742,318.270 224.397,317.333 225.333 M23.657 232.579 C 21.629 233.096,20.397 234.387,19.820 236.600 C 19.185 239.032,19.855 238.887,20.805 236.386 C 21.227 235.278,22.478 234.027,23.586 233.605 C 24.694 233.184,25.600 232.651,25.600 232.420 C 25.600 232.189,25.510 232.042,25.400 232.093 C 25.290 232.144,24.505 232.363,23.657 232.579 M85.868 232.556 C 84.915 232.742,83.952 233.371,83.728 233.955 C 83.405 234.797,83.806 234.775,85.660 233.850 C 86.947 233.208,88.000 232.529,88.000 232.341 C 88.000 232.154,87.910 232.049,87.800 232.109 C 87.690 232.169,86.820 232.370,85.868 232.556 M349.390 232.930 C 348.725 233.341,348.847 233.668,349.802 234.035 C 350.578 234.333,351.685 234.030,352.387 233.327 C 353.738 231.976,351.428 231.670,349.390 232.930 M346.400 234.302 C 346.400 235.345,348.466 236.867,349.067 236.267 C 349.667 235.666,348.145 233.600,347.102 233.600 C 346.716 233.600,346.400 233.916,346.400 234.302 M345.541 237.000 C 345.508 237.550,345.320 238.874,345.124 239.942 L 344.767 241.883 346.382 240.021 C 347.611 238.604,347.782 237.902,347.100 237.080 C 345.987 235.738,345.617 235.719,345.541 237.000 M79.995 239.614 C 79.573 240.722,78.322 241.973,77.214 242.395 C 74.713 243.345,74.568 244.015,77.000 243.380 C 79.278 242.786,80.386 241.678,80.980 239.400 C 81.615 236.968,80.945 237.113,79.995 239.614 M304.795 239.614 C 304.373 240.722,303.122 241.973,302.014 242.395 C 299.513 243.345,299.368 244.015,301.800 243.380 C 304.278 242.734,307.924 237.600,305.905 237.600 C 305.716 237.600,305.216 238.506,304.795 239.614 M345.117 245.358 C 345.170 247.211,345.635 248.384,346.400 248.594 C 347.391 248.865,347.407 248.787,346.492 248.147 C 345.773 247.644,345.563 246.655,345.895 245.335 C 346.176 244.215,346.097 243.107,345.720 242.874 C 345.343 242.641,345.072 243.759,345.117 245.358 M392.095 249.400 C 392.292 255.644,393.405 257.538,393.505 251.800 C 393.560 248.670,393.264 246.400,392.800 246.400 C 392.360 246.400,392.043 247.750,392.095 249.400 M280.118 251.205 C 279.637 252.585,278.411 253.940,277.240 254.385 C 274.718 255.343,274.556 256.018,277.000 255.380 C 279.379 254.760,280.414 253.647,281.080 250.992 C 281.818 248.054,281.167 248.198,280.118 251.205 M344.856 253.800 C 344.825 255.010,345.160 256.000,345.600 256.000 C 346.539 256.000,346.539 255.385,345.600 253.200 C 344.991 251.782,344.906 251.851,344.856 253.800 M74.057 257.379 C 72.029 257.896,70.797 259.187,70.220 261.400 C 69.585 263.832,70.255 263.687,71.205 261.186 C 71.627 260.078,72.878 258.827,73.986 258.405 C 75.094 257.984,76.000 257.451,76.000 257.220 C 76.000 256.989,75.910 256.842,75.800 256.893 C 75.690 256.944,74.905 257.163,74.057 257.379 M336.457 257.379 C 334.429 257.896,333.197 259.187,332.620 261.400 C 331.985 263.832,332.655 263.687,333.605 261.186 C 334.027 260.078,335.278 258.827,336.386 258.405 C 337.494 257.984,338.400 257.451,338.400 257.220 C 338.400 256.989,338.310 256.842,338.200 256.893 C 338.090 256.944,337.305 257.163,336.457 257.379 M391.800 259.751 C 391.030 259.953,390.400 260.472,390.400 260.906 C 390.400 261.340,390.768 261.467,391.217 261.189 C 391.717 260.881,391.963 261.618,391.851 263.087 C 391.750 264.408,391.293 265.424,390.834 265.345 C 390.375 265.265,390.065 265.575,390.145 266.034 C 390.224 266.493,389.208 266.950,387.887 267.051 C 386.418 267.163,385.681 266.917,385.989 266.417 C 386.267 265.968,386.155 265.600,385.741 265.600 C 385.326 265.600,384.810 266.277,384.593 267.104 C 384.109 268.956,389.755 268.759,391.657 266.857 C 392.480 266.034,394.096 258.651,393.313 259.293 C 393.251 259.344,392.570 259.550,391.800 259.751 M67.195 264.414 C 66.773 265.522,65.522 266.773,64.414 267.195 C 61.913 268.145,61.768 268.815,64.200 268.180 C 66.478 267.586,67.586 266.478,68.180 264.200 C 68.815 261.768,68.145 261.913,67.195 264.414 M179.995 264.414 C 179.573 265.522,178.322 266.773,177.214 267.195 C 174.713 268.145,174.568 268.815,177.000 268.180 C 179.278 267.586,180.386 266.478,180.980 264.200 C 181.615 261.768,180.945 261.913,179.995 264.414 M11.657 270.179 C 9.629 270.696,8.397 271.987,7.820 274.200 C 7.185 276.632,7.855 276.487,8.805 273.986 C 9.227 272.878,10.478 271.627,11.586 271.205 C 12.694 270.784,13.600 270.251,13.600 270.020 C 13.600 269.789,13.510 269.642,13.400 269.693 C 13.290 269.744,12.505 269.963,11.657 270.179 M311.657 270.179 C 309.629 270.696,308.397 271.987,307.820 274.200 C 307.185 276.632,307.855 276.487,308.805 273.986 C 309.227 272.878,310.478 271.627,311.586 271.205 C 312.694 270.784,313.600 270.251,313.600 270.020 C 313.600 269.789,313.510 269.642,313.400 269.693 C 313.290 269.744,312.505 269.963,311.657 270.179 M379.995 277.214 C 379.573 278.322,378.322 279.573,377.214 279.995 C 374.713 280.945,374.568 281.615,377.000 280.980 C 379.478 280.334,383.124 275.200,381.105 275.200 C 380.916 275.200,380.416 276.106,379.995 277.214 M58.730 283.812 C 57.928 284.354,56.610 288.000,57.216 288.000 C 57.363 288.000,58.022 286.920,58.680 285.600 C 59.339 284.280,59.815 283.206,59.739 283.212 C 59.662 283.219,59.208 283.489,58.730 283.812 M271.530 283.812 C 270.728 284.354,269.410 288.000,270.016 288.000 C 270.163 288.000,270.822 286.920,271.480 285.600 C 272.139 284.280,272.615 283.206,272.539 283.212 C 272.462 283.219,272.008 283.489,271.530 283.812 M54.392 289.221 C 53.969 290.333,52.808 291.570,51.812 291.971 C 50.346 292.560,50.278 292.708,51.457 292.749 C 53.256 292.812,54.761 291.374,55.380 289.000 C 56.016 286.564,55.345 286.715,54.392 289.221 M117.333 287.733 C 117.040 288.027,116.800 288.936,116.800 289.753 C 116.800 290.603,115.943 291.565,114.800 292.000 C 113.700 292.418,112.800 292.899,112.800 293.069 C 112.800 293.239,113.700 293.206,114.800 292.996 C 115.900 292.786,116.800 292.563,116.800 292.501 C 116.800 292.440,117.135 291.222,117.544 289.795 C 118.305 287.142,118.270 286.797,117.333 287.733 M167.195 289.214 C 166.773 290.322,165.522 291.573,164.414 291.995 C 161.913 292.945,161.768 293.615,164.200 292.980 C 166.478 292.386,167.586 291.278,168.180 289.000 C 168.815 286.568,168.145 286.713,167.195 289.214 M367.195 289.214 C 366.773 290.322,365.522 291.573,364.414 291.995 C 361.913 292.945,361.768 293.615,364.200 292.980 C 366.678 292.334,370.324 287.200,368.305 287.200 C 368.116 287.200,367.616 288.106,367.195 289.214 M111.657 294.979 C 109.629 295.496,108.397 296.787,107.820 299.000 C 107.185 301.432,107.855 301.287,108.805 298.786 C 109.227 297.678,110.478 296.427,111.586 296.005 C 112.694 295.584,113.600 295.051,113.600 294.820 C 113.600 294.589,113.510 294.442,113.400 294.493 C 113.290 294.544,112.505 294.763,111.657 294.979 M354.392 302.021 C 353.969 303.133,352.808 304.370,351.812 304.771 C 350.346 305.360,350.278 305.508,351.457 305.549 C 353.256 305.612,354.761 304.174,355.380 301.800 C 356.016 299.364,355.345 299.515,354.392 302.021 M104.800 314.800 C 104.345 315.997,103.408 316.800,102.467 316.800 C 101.602 316.800,100.686 317.137,100.432 317.549 C 100.145 318.013,100.959 318.013,102.579 317.549 C 104.015 317.137,105.240 316.800,105.301 316.800 C 105.363 316.800,105.586 315.900,105.796 314.800 C 106.006 313.700,106.039 312.800,105.869 312.800 C 105.699 312.800,105.218 313.700,104.800 314.800 M342.400 314.800 C 341.945 315.997,341.008 316.800,340.067 316.800 C 339.202 316.800,338.286 317.137,338.032 317.549 C 337.745 318.013,338.559 318.013,340.179 317.549 C 341.615 317.137,342.840 316.800,342.901 316.800 C 342.963 316.800,343.186 315.900,343.396 314.800 C 343.606 313.700,343.639 312.800,343.469 312.800 C 343.299 312.800,342.818 313.700,342.400 314.800 M91.995 326.814 C 91.573 327.922,90.322 329.173,89.214 329.595 C 86.713 330.545,86.568 331.215,89.000 330.580 C 91.278 329.986,92.386 328.878,92.980 326.600 C 93.615 324.168,92.945 324.313,91.995 326.814 M107.820 326.600 C 108.414 328.878,109.522 329.986,111.800 330.580 C 114.232 331.215,114.087 330.545,111.586 329.595 C 110.478 329.173,109.227 327.922,108.805 326.814 C 107.855 324.313,107.185 324.168,107.820 326.600 M317.333 325.333 C 317.040 325.627,316.800 326.536,316.800 327.353 C 316.800 328.203,315.943 329.165,314.800 329.600 C 313.700 330.018,312.800 330.499,312.800 330.669 C 312.800 330.839,313.700 330.806,314.800 330.596 C 315.900 330.386,316.800 330.163,316.800 330.101 C 316.800 330.040,317.135 328.822,317.544 327.395 C 318.305 324.742,318.270 324.397,317.333 325.333 " stroke="none" fill="#000085" fill-rule="evenodd"></path><path id="path7" d="M102.200 70.593 C 102.090 70.919,101.035 71.266,99.857 71.363 C 98.678 71.460,97.778 71.913,97.857 72.370 C 97.935 72.826,97.626 73.135,97.170 73.057 C 96.713 72.978,96.261 73.858,96.166 75.012 C 96.070 76.166,95.712 77.311,95.369 77.555 C 95.027 77.800,94.759 79.076,94.773 80.391 C 94.800 82.774,94.784 82.782,90.000 82.862 C 86.438 82.921,85.200 83.233,85.200 84.071 C 85.200 84.692,84.673 85.200,84.029 85.200 C 83.057 85.200,82.852 87.112,82.829 96.397 L 82.800 107.594 80.400 107.570 C 79.080 107.557,77.800 107.827,77.555 108.169 C 77.311 108.512,76.166 108.870,75.012 108.966 C 73.858 109.061,72.978 109.513,73.057 109.970 C 73.135 110.426,72.826 110.735,72.370 110.657 C 71.913 110.578,71.461 111.458,71.366 112.612 C 71.270 113.766,70.924 114.911,70.596 115.155 C 70.268 115.400,70.000 122.260,70.000 130.399 L 70.000 145.198 67.600 145.172 C 66.280 145.158,65.000 145.427,64.755 145.769 C 64.511 146.112,63.366 146.470,62.212 146.566 C 61.058 146.661,60.178 147.113,60.257 147.570 C 60.335 148.026,60.025 148.335,59.566 148.255 C 59.107 148.176,58.675 148.863,58.606 149.783 C 58.537 150.703,58.192 151.668,57.840 151.928 C 57.488 152.188,57.200 156.358,57.200 161.196 L 57.200 169.992 54.800 169.969 C 53.480 169.957,52.188 170.247,51.928 170.613 C 51.668 170.980,50.703 171.337,49.783 171.406 C 48.863 171.475,48.176 171.907,48.255 172.366 C 48.335 172.825,48.026 173.135,47.570 173.057 C 47.113 172.978,46.661 173.858,46.566 175.012 C 46.470 176.166,46.124 177.311,45.796 177.555 C 45.468 177.800,45.200 184.659,45.200 192.798 L 45.200 207.596 42.800 207.571 C 41.480 207.558,40.200 207.827,39.955 208.169 C 39.711 208.512,38.566 208.870,37.412 208.966 C 36.258 209.061,35.378 209.513,35.457 209.970 C 35.535 210.426,35.226 210.735,34.770 210.657 C 34.313 210.578,33.861 211.458,33.766 212.612 C 33.670 213.766,33.324 214.911,32.996 215.155 C 32.668 215.400,32.400 219.379,32.400 223.998 L 32.400 232.396 30.000 232.371 C 28.680 232.358,27.400 232.627,27.155 232.969 C 26.911 233.312,25.766 233.670,24.612 233.766 C 23.458 233.861,22.578 234.313,22.657 234.770 C 22.735 235.226,22.426 235.535,21.970 235.457 C 21.513 235.378,21.061 236.258,20.966 237.412 C 20.870 238.566,20.524 239.711,20.196 239.955 C 19.868 240.200,19.600 247.055,19.600 255.188 L 19.600 269.977 17.600 269.988 C 16.500 269.995,15.400 270.268,15.155 270.596 C 14.911 270.924,13.766 271.270,12.612 271.366 C 11.458 271.461,10.578 271.913,10.657 272.370 C 10.735 272.826,10.426 273.135,9.970 273.057 C 9.513 272.978,9.061 273.858,8.966 275.012 C 8.870 276.166,8.524 277.311,8.196 277.555 C 7.868 277.800,7.600 281.780,7.600 286.400 L 7.600 294.800 3.800 295.044 L 0.000 295.288 0.000 312.844 L 0.000 330.400 41.400 330.522 C 64.170 330.589,83.340 330.691,84.000 330.749 C 84.660 330.808,85.400 330.575,85.645 330.232 C 85.889 329.888,87.034 329.530,88.188 329.434 C 89.342 329.339,90.222 328.887,90.143 328.430 C 90.065 327.974,90.374 327.665,90.830 327.743 C 91.287 327.822,91.739 326.942,91.834 325.788 C 91.930 324.634,92.288 323.489,92.631 323.245 C 92.973 323.000,93.242 321.720,93.228 320.400 C 93.205 318.208,93.428 318.006,95.801 318.064 C 97.231 318.099,98.400 317.829,98.400 317.464 C 98.400 317.099,99.279 316.800,100.353 316.800 C 101.427 316.800,102.532 316.434,102.808 315.987 C 103.084 315.540,103.569 315.334,103.886 315.529 C 104.202 315.725,104.539 314.941,104.634 313.787 C 104.730 312.634,105.076 311.489,105.404 311.245 C 105.732 311.000,106.000 306.842,106.000 302.004 L 106.000 293.208 108.400 293.231 C 109.720 293.243,111.000 292.973,111.245 292.631 C 111.489 292.288,112.634 291.930,113.787 291.834 C 114.941 291.739,115.725 291.402,115.529 291.086 C 115.334 290.769,115.540 290.284,115.987 290.008 C 116.434 289.732,116.800 288.627,116.800 287.553 C 116.800 286.479,117.070 285.600,117.400 285.600 C 117.730 285.600,118.000 281.825,118.000 277.210 C 118.000 272.157,118.318 268.816,118.800 268.810 C 119.301 268.804,119.600 273.657,119.600 281.790 L 119.600 294.781 117.600 294.790 C 116.500 294.796,115.400 295.068,115.155 295.396 C 114.911 295.724,113.766 296.070,112.612 296.166 C 111.458 296.261,110.578 296.713,110.657 297.170 C 110.735 297.626,110.426 297.935,109.970 297.857 C 109.513 297.778,109.061 298.658,108.966 299.812 C 108.870 300.966,108.524 302.111,108.196 302.355 C 107.418 302.936,107.418 322.664,108.196 323.245 C 108.524 323.489,108.870 324.634,108.966 325.788 C 109.061 326.942,109.513 327.822,109.970 327.743 C 110.426 327.665,110.735 327.974,110.657 328.430 C 110.578 328.887,111.458 329.339,112.612 329.434 C 113.766 329.530,114.911 329.876,115.155 330.204 C 115.400 330.532,159.520 330.800,213.200 330.800 C 266.880 330.800,311.000 330.532,311.245 330.204 C 311.489 329.876,312.634 329.530,313.787 329.434 C 314.941 329.339,315.725 329.002,315.529 328.686 C 315.334 328.369,315.540 327.884,315.987 327.608 C 316.434 327.332,316.800 326.227,316.800 325.153 C 316.800 324.079,317.099 323.200,317.464 323.200 C 317.829 323.200,318.099 322.030,318.064 320.600 L 318.000 318.000 327.000 318.000 C 331.950 318.000,336.000 317.730,336.000 317.400 C 336.000 317.070,336.879 316.800,337.953 316.800 C 339.027 316.800,340.132 316.434,340.408 315.987 C 340.684 315.540,341.169 315.334,341.486 315.529 C 341.802 315.725,342.139 314.941,342.234 313.787 C 342.330 312.634,342.688 311.489,343.031 311.245 C 343.373 311.000,343.641 309.720,343.627 308.400 C 343.603 306.255,343.855 306.003,346.000 306.027 C 347.320 306.041,348.612 305.753,348.872 305.387 C 349.132 305.020,350.097 304.663,351.017 304.594 C 351.937 304.525,352.624 304.093,352.545 303.634 C 352.465 303.175,352.774 302.865,353.230 302.943 C 353.687 303.022,354.139 302.142,354.234 300.988 C 354.330 299.834,354.688 298.689,355.031 298.445 C 355.373 298.200,355.641 296.920,355.627 295.600 C 355.603 293.455,355.855 293.203,358.000 293.227 C 359.320 293.241,360.600 292.973,360.845 292.631 C 361.089 292.288,362.234 291.930,363.388 291.834 C 364.542 291.739,365.422 291.287,365.343 290.830 C 365.265 290.374,365.574 290.065,366.030 290.143 C 366.487 290.222,366.939 289.342,367.034 288.188 C 367.130 287.034,367.496 285.889,367.848 285.645 C 368.200 285.400,368.478 284.300,368.466 283.200 C 368.448 281.504,368.806 281.204,370.822 281.227 C 372.130 281.241,373.400 280.973,373.645 280.631 C 373.889 280.288,375.034 279.930,376.188 279.834 C 377.342 279.739,378.222 279.287,378.143 278.830 C 378.065 278.374,378.374 278.065,378.830 278.143 C 379.287 278.222,379.739 277.342,379.834 276.188 C 379.930 275.034,380.288 273.889,380.631 273.645 C 381.411 273.088,381.375 270.314,380.571 269.050 C 380.143 268.377,380.575 268.210,382.051 268.478 C 383.654 268.769,384.234 268.480,384.561 267.228 C 384.795 266.333,385.326 265.600,385.741 265.600 C 386.155 265.600,386.267 265.968,385.989 266.417 C 385.681 266.917,386.418 267.163,387.887 267.051 C 389.208 266.950,390.224 266.493,390.145 266.034 C 390.065 265.575,390.375 265.265,390.834 265.345 C 391.293 265.424,391.750 264.408,391.851 263.087 C 391.963 261.618,391.717 260.881,391.217 261.189 C 390.768 261.467,390.400 261.355,390.400 260.941 C 390.400 260.526,391.107 260.002,391.970 259.776 C 393.124 259.474,393.441 258.867,393.165 257.483 C 391.079 247.001,392.041 243.200,396.780 243.200 L 400.000 243.200 400.000 181.646 L 400.000 120.092 396.606 119.846 C 393.586 119.627,393.211 119.379,393.206 117.600 C 393.203 116.500,392.932 115.400,392.604 115.155 C 392.276 114.911,391.930 113.766,391.834 112.612 C 391.739 111.458,391.287 110.578,390.830 110.657 C 390.374 110.735,390.065 110.426,390.143 109.970 C 390.222 109.513,389.342 109.061,388.188 108.966 C 387.034 108.870,385.889 108.524,385.645 108.196 C 384.867 107.154,383.071 107.111,381.871 108.107 C 380.945 108.875,380.759 108.841,380.955 107.935 C 381.090 107.311,380.723 106.899,380.140 107.020 C 379.144 107.227,379.234 106.235,380.526 102.782 C 381.291 100.737,373.974 95.097,371.685 95.968 C 368.912 97.022,368.758 97.012,369.000 95.800 C 369.110 95.250,368.723 94.899,368.141 95.020 C 367.458 95.161,367.311 94.877,367.728 94.220 C 368.568 92.897,368.629 90.125,367.831 89.555 C 367.488 89.311,367.130 88.166,367.034 87.012 C 366.939 85.858,366.503 84.978,366.067 85.057 C 365.630 85.135,365.256 84.692,365.236 84.071 C 365.210 83.237,363.943 82.921,360.400 82.862 C 355.616 82.782,355.600 82.774,355.627 80.391 C 355.641 79.076,355.373 77.800,355.031 77.555 C 354.688 77.311,354.330 76.166,354.234 75.012 C 354.139 73.858,353.687 72.978,353.230 73.057 C 352.774 73.135,352.465 72.825,352.545 72.366 C 352.624 71.907,351.937 71.475,351.017 71.406 C 350.097 71.337,349.132 70.992,348.872 70.640 C 348.277 69.834,102.472 69.787,102.200 70.593 M345.173 120.400 C 345.159 121.720,345.427 123.000,345.769 123.245 C 346.112 123.489,346.470 124.634,346.566 125.788 C 346.661 126.942,347.113 127.822,347.570 127.743 C 348.026 127.665,348.335 127.975,348.255 128.434 C 348.176 128.893,348.863 129.325,349.783 129.394 C 350.703 129.463,351.668 129.820,351.928 130.187 C 352.188 130.553,353.480 130.843,354.800 130.831 L 357.200 130.808 357.200 139.604 C 357.200 144.442,357.488 148.612,357.840 148.872 C 358.192 149.132,358.537 150.097,358.606 151.017 C 358.675 151.937,359.107 152.624,359.566 152.545 C 360.025 152.465,360.335 152.774,360.257 153.230 C 360.178 153.687,361.058 154.139,362.212 154.234 C 363.366 154.330,364.511 154.688,364.755 155.031 C 365.000 155.373,366.280 155.641,367.600 155.627 L 370.000 155.600 370.000 175.200 L 370.000 194.800 367.600 194.773 C 366.280 194.759,365.000 195.027,364.755 195.369 C 364.511 195.712,363.366 196.070,362.212 196.166 C 361.058 196.261,360.178 196.713,360.257 197.170 C 360.335 197.626,360.026 197.935,359.570 197.857 C 359.113 197.778,358.660 198.678,358.563 199.857 C 358.466 201.035,358.119 202.090,357.793 202.199 C 357.467 202.309,357.301 208.969,357.425 216.999 C 357.657 232.092,357.218 234.807,354.861 232.851 C 353.948 232.093,353.600 232.065,353.600 232.749 C 353.600 233.269,353.240 233.472,352.800 233.200 C 352.360 232.928,352.000 233.129,352.000 233.646 C 352.000 234.181,351.335 234.413,350.460 234.184 C 349.315 233.884,349.042 234.100,349.396 235.022 C 349.735 235.904,349.566 236.074,348.812 235.608 C 348.059 235.142,347.942 235.259,348.408 236.012 C 348.893 236.798,348.690 236.929,347.618 236.518 C 346.440 236.065,346.347 236.172,347.114 237.097 C 347.846 237.978,347.790 238.495,346.866 239.420 C 346.211 240.074,345.899 240.832,346.171 241.105 C 346.444 241.377,346.203 241.600,345.635 241.600 C 344.879 241.600,344.835 241.878,345.469 242.642 C 345.944 243.215,346.116 244.511,345.852 245.524 C 345.551 246.672,345.790 247.629,346.485 248.070 C 347.376 248.634,347.319 248.778,346.200 248.788 C 344.608 248.802,344.434 250.134,345.617 253.245 C 346.656 255.979,345.578 257.401,342.604 257.218 C 341.392 257.143,340.200 257.377,339.955 257.737 C 339.711 258.097,338.566 258.470,337.412 258.566 C 336.258 258.661,335.378 259.113,335.457 259.570 C 335.535 260.026,335.226 260.335,334.770 260.257 C 334.313 260.178,333.861 261.058,333.766 262.212 C 333.670 263.366,333.312 264.511,332.969 264.755 C 332.627 265.000,332.358 266.280,332.371 267.600 L 332.396 270.000 323.998 270.000 C 319.379 270.000,315.400 270.268,315.155 270.596 C 314.911 270.924,313.766 271.270,312.612 271.366 C 311.458 271.461,310.578 271.913,310.657 272.370 C 310.735 272.826,310.426 273.135,309.970 273.057 C 309.513 272.978,309.061 273.858,308.966 275.012 C 308.870 276.166,308.512 277.311,308.169 277.555 C 307.827 277.800,307.558 279.080,307.571 280.400 L 307.596 282.800 290.398 282.857 C 276.067 282.904,273.194 283.104,273.164 284.057 C 273.144 284.685,272.770 285.135,272.333 285.057 C 271.897 284.978,271.461 285.858,271.366 287.012 C 271.270 288.166,270.912 289.311,270.569 289.555 C 270.227 289.800,269.959 291.080,269.973 292.400 L 270.000 294.800 213.000 294.800 C 175.533 294.800,156.000 294.526,156.000 294.000 C 156.000 293.560,156.990 293.212,158.200 293.227 C 159.410 293.241,160.600 292.973,160.845 292.631 C 161.089 292.288,162.234 291.930,163.388 291.834 C 164.542 291.739,165.422 291.287,165.343 290.830 C 165.265 290.374,165.574 290.065,166.030 290.143 C 166.487 290.222,166.939 289.342,167.034 288.188 C 167.130 287.034,167.476 285.889,167.804 285.645 C 168.132 285.400,168.400 281.422,168.400 276.804 L 168.400 268.408 170.800 268.431 C 172.120 268.443,173.400 268.173,173.645 267.831 C 173.889 267.488,175.034 267.130,176.188 267.034 C 177.342 266.939,178.222 266.487,178.143 266.030 C 178.065 265.574,178.374 265.265,178.830 265.343 C 179.287 265.422,179.739 264.542,179.834 263.388 C 179.930 262.234,180.288 261.089,180.631 260.845 C 180.973 260.600,181.242 259.320,181.227 258.000 L 181.201 255.600 227.200 255.600 C 252.500 255.600,273.400 255.332,273.645 255.004 C 273.889 254.676,275.034 254.330,276.188 254.234 C 277.342 254.139,278.222 253.687,278.143 253.230 C 278.065 252.774,278.375 252.465,278.834 252.545 C 279.293 252.624,279.725 251.937,279.794 251.017 C 279.863 250.097,280.220 249.132,280.587 248.872 C 280.953 248.612,281.243 247.320,281.231 246.000 L 281.208 243.600 289.604 243.600 C 294.222 243.600,298.200 243.332,298.445 243.004 C 298.689 242.676,299.834 242.330,300.988 242.234 C 302.142 242.139,303.022 241.687,302.943 241.230 C 302.865 240.774,303.174 240.465,303.630 240.543 C 304.087 240.622,304.539 239.742,304.634 238.588 C 304.730 237.434,305.088 236.289,305.431 236.045 C 305.773 235.800,306.041 234.520,306.027 233.200 C 306.003 231.055,306.255 230.803,308.400 230.827 C 309.720 230.841,311.000 230.573,311.245 230.231 C 311.489 229.888,312.634 229.530,313.787 229.434 C 314.941 229.339,315.725 229.002,315.529 228.686 C 315.334 228.369,315.540 227.884,315.987 227.608 C 316.434 227.332,316.800 226.227,316.800 225.153 C 316.800 224.079,317.099 223.200,317.464 223.200 C 317.829 223.200,318.099 222.030,318.064 220.600 C 318.004 218.174,318.174 218.004,320.600 218.064 C 322.030 218.099,323.200 217.829,323.200 217.464 C 323.200 217.099,324.079 216.800,325.153 216.800 C 326.227 216.800,327.332 216.434,327.608 215.987 C 327.884 215.540,328.369 215.334,328.686 215.529 C 329.002 215.725,329.339 214.941,329.434 213.787 C 329.530 212.634,329.876 211.489,330.204 211.245 C 330.532 211.000,330.800 200.540,330.800 188.000 C 330.800 175.460,330.532 165.000,330.204 164.755 C 329.876 164.511,329.530 163.366,329.434 162.212 C 329.339 161.058,328.887 160.178,328.430 160.257 C 327.974 160.335,327.665 160.026,327.743 159.570 C 327.822 159.113,326.942 158.661,325.788 158.566 C 324.634 158.470,323.489 158.112,323.245 157.769 C 323.000 157.427,321.720 157.156,320.400 157.168 L 318.000 157.189 318.000 148.595 C 318.000 143.867,317.730 140.000,317.400 140.000 C 317.070 140.000,316.800 139.121,316.800 138.047 C 316.800 136.973,316.434 135.868,315.987 135.592 C 315.540 135.316,315.334 134.831,315.529 134.514 C 315.725 134.198,314.941 133.861,313.787 133.766 C 312.634 133.670,311.489 133.324,311.245 132.996 C 311.000 132.668,269.580 132.400,219.200 132.400 C 168.820 132.400,127.400 132.668,127.155 132.996 C 126.911 133.324,125.766 133.670,124.612 133.766 C 123.458 133.861,122.578 134.313,122.657 134.770 C 122.735 135.226,122.426 135.535,121.970 135.457 C 121.513 135.378,121.061 136.258,120.966 137.412 C 120.870 138.566,120.524 139.711,120.196 139.955 C 119.868 140.200,119.600 147.055,119.600 155.188 L 119.600 169.977 117.600 169.988 C 116.500 169.995,115.400 170.268,115.155 170.596 C 114.911 170.924,113.766 171.270,112.612 171.366 C 111.458 171.461,110.578 171.913,110.657 172.370 C 110.735 172.826,110.426 173.135,109.970 173.057 C 109.513 172.978,109.061 173.858,108.966 175.012 C 108.870 176.166,108.524 177.311,108.196 177.555 C 107.868 177.800,107.600 181.778,107.600 186.396 L 107.600 194.792 105.200 194.769 C 103.880 194.757,102.600 195.027,102.355 195.369 C 102.111 195.712,100.966 196.070,99.812 196.166 C 98.658 196.261,97.778 196.713,97.857 197.170 C 97.935 197.626,97.626 197.935,97.170 197.857 C 96.713 197.778,96.261 198.658,96.166 199.812 C 96.070 200.966,95.724 202.111,95.396 202.355 C 95.068 202.600,94.800 209.459,94.800 217.598 L 94.800 232.396 92.400 232.371 C 91.080 232.358,89.800 232.627,89.555 232.969 C 89.311 233.312,88.166 233.670,87.012 233.766 C 85.858 233.861,84.978 234.297,85.057 234.733 C 85.135 235.170,84.672 235.544,84.027 235.564 C 83.057 235.594,82.849 237.471,82.827 246.397 L 82.800 257.194 80.400 257.170 C 79.080 257.157,77.800 257.427,77.555 257.769 C 77.311 258.112,76.166 258.470,75.012 258.566 C 73.858 258.661,72.978 259.113,73.057 259.570 C 73.135 260.026,72.826 260.335,72.370 260.257 C 71.913 260.178,71.461 261.058,71.366 262.212 C 71.270 263.366,70.924 264.511,70.596 264.755 C 70.268 265.000,70.000 269.154,70.000 273.987 L 70.000 282.774 65.200 282.858 C 61.659 282.920,60.390 283.238,60.364 284.071 C 60.344 284.692,59.970 285.135,59.533 285.057 C 59.097 284.978,58.661 285.858,58.566 287.012 C 58.470 288.166,58.112 289.311,57.769 289.555 C 57.427 289.800,57.159 291.080,57.173 292.400 L 57.200 294.800 50.600 294.800 C 46.733 294.800,44.000 294.469,44.000 294.000 C 44.000 293.560,44.990 293.212,46.200 293.227 C 47.410 293.241,48.612 292.953,48.872 292.587 C 49.132 292.220,50.097 291.863,51.017 291.794 C 51.937 291.725,52.624 291.293,52.545 290.834 C 52.465 290.375,52.774 290.065,53.230 290.143 C 53.687 290.222,54.139 289.342,54.234 288.188 C 54.330 287.034,54.676 285.889,55.004 285.645 C 55.332 285.400,55.600 281.422,55.600 276.804 L 55.600 268.408 58.000 268.431 C 59.320 268.443,60.600 268.173,60.845 267.831 C 61.089 267.488,62.234 267.130,63.388 267.034 C 64.542 266.939,65.422 266.487,65.343 266.030 C 65.265 265.574,65.574 265.265,66.030 265.343 C 66.487 265.422,66.939 264.542,67.034 263.388 C 67.130 262.234,67.476 261.089,67.804 260.845 C 68.132 260.600,68.400 256.622,68.400 252.004 L 68.400 243.608 70.800 243.631 C 72.120 243.643,73.400 243.373,73.645 243.031 C 73.889 242.688,75.034 242.330,76.188 242.234 C 77.342 242.139,78.222 241.687,78.143 241.230 C 78.065 240.774,78.374 240.465,78.830 240.543 C 79.287 240.622,79.739 239.742,79.834 238.588 C 79.930 237.434,80.276 236.289,80.604 236.045 C 80.932 235.800,81.200 228.951,81.200 220.824 L 81.200 206.049 83.200 206.068 C 84.300 206.079,85.400 205.800,85.645 205.448 C 85.889 205.096,87.034 204.730,88.188 204.634 C 89.342 204.539,90.222 204.087,90.143 203.630 C 90.065 203.174,90.374 202.865,90.830 202.943 C 91.287 203.022,91.739 202.142,91.834 200.988 C 91.930 199.834,92.276 198.689,92.604 198.445 C 92.932 198.200,93.200 194.222,93.200 189.604 L 93.200 181.208 95.600 181.231 C 96.920 181.243,98.200 180.973,98.445 180.631 C 98.689 180.288,99.834 179.930,100.988 179.834 C 102.142 179.739,103.022 179.287,102.943 178.830 C 102.865 178.374,103.174 178.065,103.630 178.143 C 104.087 178.222,104.539 177.342,104.634 176.188 C 104.730 175.034,105.076 173.889,105.404 173.645 C 105.732 173.400,106.000 166.541,106.000 158.402 L 106.000 143.604 108.400 143.629 C 109.720 143.642,111.000 143.373,111.245 143.031 C 111.489 142.688,112.634 142.330,113.787 142.234 C 114.941 142.139,115.725 141.802,115.529 141.486 C 115.334 141.169,115.540 140.684,115.987 140.408 C 116.434 140.132,116.800 139.027,116.800 137.953 C 116.800 136.879,117.081 136.000,117.423 136.000 C 117.766 136.000,117.910 132.394,117.743 127.986 C 117.576 123.578,117.645 119.437,117.896 118.783 C 118.297 117.738,132.050 117.619,231.776 117.797 L 345.200 118.000 345.173 120.400 M282.800 194.400 L 282.800 207.600 217.600 207.600 C 181.740 207.600,152.188 207.888,151.928 208.240 C 151.668 208.592,150.703 208.937,149.783 209.006 C 148.863 209.075,148.176 209.507,148.255 209.966 C 148.335 210.425,148.026 210.735,147.570 210.657 C 147.113 210.578,146.661 211.458,146.566 212.612 C 146.470 213.766,146.124 214.911,145.796 215.155 C 145.468 215.400,145.200 219.288,145.200 223.795 C 145.200 228.723,144.881 231.993,144.400 231.995 C 143.899 231.998,143.600 227.136,143.600 219.000 L 143.600 206.000 146.000 206.027 C 147.320 206.041,148.612 205.753,148.872 205.387 C 149.132 205.020,150.097 204.663,151.017 204.594 C 151.937 204.525,152.624 204.093,152.545 203.634 C 152.465 203.175,152.774 202.865,153.230 202.943 C 153.687 203.022,154.140 202.122,154.237 200.943 C 154.334 199.765,154.694 198.706,155.036 198.590 C 155.378 198.475,155.519 194.959,155.349 190.776 C 155.179 186.594,155.245 182.636,155.496 181.981 C 155.897 180.938,163.825 180.816,219.377 180.995 L 282.800 181.200 282.800 194.400 M132.636 250.876 C 132.504 254.401,132.046 257.200,131.600 257.200 C 130.727 257.200,130.037 246.099,130.789 244.141 C 131.875 241.311,132.859 244.899,132.636 250.876 " stroke="none" fill="#080891" fill-rule="evenodd"></path><path id="path8" d="M165.800 70.200 C 198.690 70.316,252.510 70.316,285.400 70.200 C 318.290 70.084,291.380 69.990,225.600 69.990 C 159.820 69.990,132.910 70.084,165.800 70.200 M95.869 71.365 C 96.457 72.116,96.665 73.196,96.331 73.765 C 95.998 74.334,96.507 74.114,97.462 73.276 C 99.281 71.681,99.796 70.737,98.365 71.622 C 97.906 71.906,96.916 71.657,96.165 71.069 C 94.943 70.112,94.912 70.143,95.869 71.365 M353.966 71.255 C 353.676 71.725,352.865 71.889,352.164 71.620 C 351.140 71.227,351.180 71.452,352.369 72.766 C 353.945 74.507,354.833 74.948,353.978 73.565 C 353.694 73.106,353.897 72.206,354.429 71.565 C 354.961 70.924,355.193 70.400,354.945 70.400 C 354.697 70.400,354.257 70.785,353.966 71.255 M83.098 83.754 C 82.161 84.909,82.166 85.007,83.136 84.422 C 84.012 83.894,84.142 84.077,83.702 85.224 C 83.147 86.670,83.175 86.670,84.766 85.231 C 86.748 83.437,86.820 83.089,85.069 83.761 C 84.174 84.105,83.927 83.965,84.316 83.336 C 85.188 81.925,84.348 82.213,83.098 83.754 M366.003 83.136 C 366.509 84.008,366.317 84.139,365.176 83.702 C 363.730 83.147,363.730 83.175,365.169 84.766 C 365.982 85.665,366.712 86.400,366.790 86.400 C 367.249 86.400,366.584 83.128,366.021 82.616 C 365.649 82.277,365.640 82.511,366.003 83.136 M82.394 100.564 C 82.177 104.614,82.285 107.640,82.634 107.289 C 82.983 106.938,83.161 103.625,83.028 99.926 L 82.788 93.200 82.394 100.564 M71.069 108.965 C 71.657 109.716,71.865 110.796,71.531 111.365 C 71.198 111.934,71.707 111.714,72.662 110.876 C 74.481 109.281,74.996 108.337,73.565 109.222 C 73.106 109.506,72.116 109.257,71.365 108.669 C 70.143 107.712,70.112 107.743,71.069 108.965 M391.566 108.855 C 391.276 109.325,390.465 109.489,389.764 109.220 C 388.740 108.827,388.780 109.052,389.969 110.366 C 391.545 112.107,392.433 112.548,391.578 111.165 C 391.294 110.706,391.497 109.806,392.029 109.165 C 392.561 108.524,392.793 108.000,392.545 108.000 C 392.297 108.000,391.857 108.385,391.566 108.855 M117.939 118.671 C 117.713 119.260,117.652 122.590,117.803 126.071 L 118.078 132.400 118.239 125.395 L 118.400 118.389 231.924 118.595 C 294.362 118.708,345.280 118.530,345.076 118.200 C 344.342 117.012,118.396 117.480,117.939 118.671 M69.598 131.762 C 69.379 139.331,69.479 145.244,69.820 144.902 C 70.162 144.559,70.341 138.366,70.218 131.140 L 69.996 118.000 69.598 131.762 M393.532 119.452 C 393.893 119.813,395.587 119.987,397.295 119.838 L 400.400 119.566 396.637 119.180 C 394.568 118.968,393.170 119.090,393.532 119.452 M346.822 127.235 C 347.106 127.694,346.857 128.684,346.269 129.435 C 345.312 130.657,345.343 130.688,346.565 129.731 C 347.316 129.143,348.396 128.935,348.965 129.269 C 349.534 129.602,349.314 129.093,348.476 128.138 C 346.881 126.319,345.937 125.804,346.822 127.235 M356.794 137.836 L 357.188 145.200 357.428 138.474 C 357.561 134.775,357.383 131.462,357.034 131.111 C 356.685 130.760,356.577 133.786,356.794 137.836 M175.000 132.600 C 199.310 132.717,239.090 132.717,263.400 132.600 C 287.710 132.482,267.820 132.386,219.200 132.386 C 170.580 132.386,150.690 132.482,175.000 132.600 M120.669 133.765 C 121.257 134.516,121.465 135.596,121.131 136.165 C 120.798 136.734,121.307 136.514,122.262 135.676 C 124.081 134.081,124.596 133.137,123.165 134.022 C 122.706 134.306,121.716 134.057,120.965 133.469 C 119.743 132.512,119.712 132.543,120.669 133.765 M105.953 144.234 C 105.735 144.802,105.658 150.832,105.781 157.634 L 106.006 170.000 106.403 156.599 C 106.793 143.431,106.747 142.165,105.953 144.234 M119.198 156.962 C 118.979 164.311,119.079 170.044,119.421 169.701 C 119.763 169.358,119.942 163.345,119.819 156.339 L 119.595 143.600 119.198 156.962 M317.720 150.153 C 317.654 153.757,317.870 156.873,318.200 157.079 C 318.530 157.284,318.699 155.235,318.576 152.526 C 318.200 144.244,317.846 143.263,317.720 150.153 M58.310 146.615 C 59.269 147.837,59.235 148.236,58.058 149.536 C 57.165 150.522,56.989 151.223,57.548 151.568 C 58.017 151.857,58.400 151.646,58.400 151.099 C 58.400 150.551,59.210 149.212,60.200 148.123 C 61.190 147.033,61.534 146.411,60.965 146.740 C 60.396 147.069,59.316 146.857,58.565 146.269 C 57.332 145.304,57.308 145.337,58.310 146.615 M358.822 152.035 C 359.106 152.494,358.857 153.484,358.269 154.235 C 357.312 155.457,357.343 155.488,358.565 154.531 C 359.316 153.943,360.396 153.735,360.965 154.069 C 361.534 154.402,361.314 153.893,360.476 152.938 C 358.881 151.119,357.937 150.604,358.822 152.035 M369.200 175.200 C 369.200 186.116,369.470 194.880,369.800 194.676 C 370.130 194.472,370.400 185.708,370.400 175.200 C 370.400 164.692,370.130 155.928,369.800 155.724 C 369.470 155.520,369.200 164.284,369.200 175.200 M56.794 162.964 C 56.577 167.014,56.685 170.040,57.034 169.689 C 57.383 169.338,57.561 166.025,57.428 162.326 L 57.188 155.600 56.794 162.964 M329.166 158.455 C 328.876 158.925,328.065 159.089,327.364 158.820 C 326.340 158.427,326.380 158.652,327.569 159.966 C 329.145 161.707,330.033 162.148,329.178 160.765 C 328.894 160.306,329.097 159.406,329.629 158.765 C 330.161 158.124,330.393 157.600,330.145 157.600 C 329.897 157.600,329.457 157.985,329.166 158.455 M330.746 188.000 C 330.746 198.780,330.859 203.190,330.998 197.800 C 331.136 192.410,331.136 183.590,330.998 178.200 C 330.859 172.810,330.746 177.220,330.746 188.000 M46.269 171.365 C 46.857 172.116,47.065 173.196,46.731 173.765 C 46.398 174.334,46.907 174.114,47.862 173.276 C 49.681 171.681,50.196 170.737,48.765 171.622 C 48.306 171.906,47.316 171.657,46.565 171.069 C 45.343 170.112,45.312 170.143,46.269 171.365 M108.669 171.365 C 109.257 172.116,109.465 173.196,109.131 173.765 C 108.798 174.334,109.307 174.114,110.262 173.276 C 112.081 171.681,112.596 170.737,111.165 171.622 C 110.706 171.906,109.716 171.657,108.965 171.069 C 107.743 170.112,107.712 170.143,108.669 171.365 M102.724 178.538 C 101.886 179.493,101.666 180.002,102.235 179.669 C 102.804 179.335,103.884 179.543,104.635 180.131 C 105.857 181.088,105.888 181.057,104.931 179.835 C 104.343 179.084,104.094 178.094,104.378 177.635 C 105.263 176.204,104.319 176.719,102.724 178.538 M93.137 181.875 C 92.910 182.466,92.836 185.616,92.971 188.875 L 93.218 194.800 93.609 187.798 C 93.999 180.821,93.920 179.835,93.137 181.875 M155.539 181.870 C 155.311 182.464,155.250 185.616,155.403 188.875 L 155.682 194.800 155.841 188.200 L 156.000 181.600 219.200 181.600 L 282.400 181.600 282.400 194.395 L 282.400 207.190 219.200 207.402 L 156.000 207.615 219.400 207.607 L 282.800 207.600 282.800 194.400 L 282.800 181.200 219.377 180.995 C 166.739 180.825,155.883 180.974,155.539 181.870 M44.798 194.562 C 44.579 201.911,44.679 207.644,45.021 207.301 C 45.363 206.958,45.542 200.945,45.419 193.939 L 45.195 181.200 44.798 194.562 M107.193 188.164 C 106.977 191.994,107.086 194.840,107.436 194.488 C 107.786 194.136,107.963 191.002,107.829 187.524 L 107.587 181.200 107.193 188.164 M95.869 196.165 C 96.457 196.916,96.665 197.996,96.331 198.565 C 95.998 199.134,96.507 198.914,97.462 198.076 C 99.281 196.481,99.796 195.537,98.365 196.422 C 97.906 196.706,96.916 196.457,96.165 195.869 C 94.943 194.912,94.912 194.943,95.869 196.165 M358.269 196.165 C 358.857 196.916,359.065 197.996,358.731 198.565 C 358.398 199.134,358.907 198.914,359.862 198.076 C 361.681 196.481,362.196 195.537,360.765 196.422 C 360.306 196.706,359.316 196.457,358.565 195.869 C 357.343 194.912,357.312 194.943,358.269 196.165 M89.924 203.338 C 89.086 204.293,88.866 204.802,89.435 204.469 C 90.004 204.135,91.084 204.343,91.835 204.931 C 93.057 205.888,93.088 205.857,92.131 204.635 C 91.543 203.884,91.294 202.894,91.578 202.435 C 92.463 201.004,91.519 201.519,89.924 203.338 M152.324 203.338 C 151.486 204.293,151.266 204.802,151.835 204.469 C 152.404 204.135,153.484 204.343,154.235 204.931 C 155.457 205.888,155.488 205.857,154.531 204.635 C 153.943 203.884,153.694 202.894,153.978 202.435 C 154.863 201.004,153.919 201.519,152.324 203.338 M81.153 206.634 C 80.935 207.202,80.858 213.232,80.981 220.034 L 81.206 232.400 81.603 218.999 C 81.993 205.831,81.947 204.565,81.153 206.634 M143.553 206.634 C 142.797 208.604,143.578 232.004,144.400 232.007 C 144.868 232.008,145.227 229.100,145.266 225.005 L 145.332 218.000 144.797 225.200 C 144.370 230.960,144.277 229.720,144.332 218.999 C 144.399 205.748,144.328 204.615,143.553 206.634 M94.398 219.362 C 94.179 226.711,94.279 232.444,94.621 232.101 C 94.963 231.758,95.142 225.745,95.019 218.739 L 94.795 206.000 94.398 219.362 M357.126 219.200 C 357.126 226.460,357.247 229.430,357.395 225.800 C 357.543 222.170,357.543 216.230,357.395 212.600 C 357.247 208.970,357.126 211.940,357.126 219.200 M33.469 208.965 C 34.057 209.716,34.265 210.796,33.931 211.365 C 33.598 211.934,34.107 211.714,35.062 210.876 C 36.881 209.281,37.396 208.337,35.965 209.222 C 35.506 209.506,34.516 209.257,33.765 208.669 C 32.543 207.712,32.512 207.743,33.469 208.965 M146.269 208.965 C 146.857 209.716,147.065 210.796,146.731 211.365 C 146.398 211.934,146.907 211.714,147.862 210.876 C 149.681 209.281,150.196 208.337,148.765 209.222 C 148.306 209.506,147.316 209.257,146.565 208.669 C 145.343 207.712,145.312 207.743,146.269 208.965 M31.994 225.364 C 31.777 229.414,31.885 232.440,32.234 232.089 C 32.583 231.738,32.761 228.425,32.628 224.726 L 32.388 218.000 31.994 225.364 M20.669 233.765 C 21.257 234.516,21.465 235.596,21.131 236.165 C 20.798 236.734,21.307 236.514,22.262 235.676 C 24.081 234.081,24.596 233.137,23.165 234.022 C 22.706 234.306,21.716 234.057,20.965 233.469 C 19.743 232.512,19.712 232.543,20.669 233.765 M82.618 234.695 C 82.346 235.134,82.594 235.175,83.212 234.792 C 84.004 234.303,84.128 234.514,83.702 235.624 C 83.147 237.070,83.175 237.070,84.766 235.631 C 85.665 234.818,86.400 234.105,86.400 234.047 C 86.400 233.533,82.973 234.120,82.618 234.695 M77.924 240.938 C 77.086 241.893,76.866 242.402,77.435 242.069 C 78.004 241.735,79.084 241.943,79.835 242.531 C 81.057 243.488,81.088 243.457,80.131 242.235 C 79.543 241.484,79.294 240.494,79.578 240.035 C 80.463 238.604,79.519 239.119,77.924 240.938 M302.724 240.938 C 301.886 241.893,301.666 242.402,302.235 242.069 C 302.804 241.735,303.884 241.943,304.635 242.531 C 305.857 243.488,305.888 243.457,304.931 242.235 C 304.343 241.484,304.094 240.494,304.378 240.035 C 305.263 238.604,304.319 239.119,302.724 240.938 M68.337 244.275 C 68.110 244.866,68.036 248.016,68.171 251.275 L 68.418 257.200 68.809 250.198 C 69.199 243.221,69.120 242.235,68.337 244.275 M130.789 244.141 C 130.037 246.099,130.727 257.200,131.600 257.200 C 132.673 257.200,133.100 244.780,132.062 243.742 C 131.516 243.196,131.102 243.326,130.789 244.141 M281.321 243.800 C 281.116 244.130,283.165 244.299,285.874 244.176 C 294.156 243.800,295.137 243.446,288.247 243.320 C 284.643 243.254,281.527 243.470,281.321 243.800 M393.076 244.435 C 392.816 245.113,392.827 245.893,393.101 246.168 C 393.376 246.442,393.600 246.087,393.600 245.379 C 393.600 244.446,394.535 244.008,397.000 243.786 L 400.400 243.480 396.975 243.340 C 394.532 243.240,393.414 243.554,393.076 244.435 M19.198 256.962 C 18.979 264.311,19.079 270.044,19.421 269.701 C 19.763 269.358,19.942 263.345,19.819 256.339 L 19.595 243.600 19.198 256.962 M82.393 250.564 C 82.177 254.394,82.286 257.240,82.636 256.888 C 82.986 256.536,83.163 253.402,83.029 249.924 L 82.787 243.600 82.393 250.564 M131.786 253.800 C 131.617 255.670,131.480 254.140,131.480 250.400 C 131.480 246.660,131.617 245.130,131.786 247.000 C 131.954 248.870,131.954 251.930,131.786 253.800 M277.924 252.938 C 277.086 253.893,276.866 254.402,277.435 254.069 C 278.004 253.735,279.084 253.943,279.835 254.531 C 281.057 255.488,281.088 255.457,280.131 254.235 C 279.543 253.484,279.294 252.494,279.578 252.035 C 280.463 250.604,279.519 251.119,277.924 252.938 M181.323 255.800 C 180.986 256.345,214.289 256.336,254.400 255.780 C 262.980 255.661,250.131 255.482,225.847 255.382 C 201.563 255.282,181.527 255.470,181.323 255.800 M71.069 258.565 C 71.657 259.316,71.865 260.396,71.531 260.965 C 71.198 261.534,71.707 261.314,72.662 260.476 C 74.481 258.881,74.996 257.937,73.565 258.822 C 73.106 259.106,72.116 258.857,71.365 258.269 C 70.143 257.312,70.112 257.343,71.069 258.565 M333.469 258.565 C 334.057 259.316,334.265 260.396,333.931 260.965 C 333.598 261.534,334.107 261.314,335.062 260.476 C 336.881 258.881,337.396 257.937,335.965 258.822 C 335.506 259.106,334.516 258.857,333.765 258.269 C 332.543 257.312,332.512 257.343,333.469 258.565 M65.124 265.738 C 64.286 266.693,64.066 267.202,64.635 266.869 C 65.204 266.535,66.284 266.743,67.035 267.331 C 68.257 268.288,68.288 268.257,67.331 267.035 C 66.743 266.284,66.494 265.294,66.778 264.835 C 67.663 263.404,66.719 263.919,65.124 265.738 M177.924 265.738 C 177.086 266.693,176.866 267.202,177.435 266.869 C 178.004 266.535,179.084 266.743,179.835 267.331 C 181.057 268.288,181.088 268.257,180.131 267.035 C 179.543 266.284,179.294 265.294,179.578 264.835 C 180.463 263.404,179.519 263.919,177.924 265.738 M55.539 269.071 C 55.313 269.660,55.238 272.990,55.372 276.471 L 55.616 282.800 56.008 275.398 C 56.398 268.035,56.323 267.027,55.539 269.071 M118.112 268.555 C 117.830 268.836,117.668 272.157,117.751 275.933 L 117.902 282.800 118.420 275.600 C 118.826 269.945,118.922 271.259,118.868 281.725 C 118.831 289.054,119.070 294.883,119.400 294.678 C 120.240 294.157,120.155 268.990,119.312 268.469 C 118.933 268.235,118.393 268.274,118.112 268.555 M168.339 269.071 C 168.113 269.660,168.038 272.990,168.172 276.471 L 168.416 282.800 168.808 275.398 C 169.198 268.035,169.123 267.027,168.339 269.071 M69.594 275.764 C 69.377 279.814,69.485 282.840,69.834 282.489 C 70.183 282.138,70.361 278.825,70.228 275.126 L 69.988 268.400 69.594 275.764 M325.200 269.600 L 318.000 270.098 324.953 270.249 C 328.897 270.335,332.119 270.054,332.400 269.600 C 332.672 269.160,332.783 268.868,332.647 268.951 C 332.511 269.034,329.160 269.326,325.200 269.600 M8.669 271.365 C 9.257 272.116,9.465 273.196,9.131 273.765 C 8.798 274.334,9.307 274.114,10.262 273.276 C 12.081 271.681,12.596 270.737,11.165 271.622 C 10.706 271.906,9.716 271.657,8.965 271.069 C 7.743 270.112,7.712 270.143,8.669 271.365 M308.669 271.365 C 309.257 272.116,309.465 273.196,309.131 273.765 C 308.798 274.334,309.307 274.114,310.262 273.276 C 312.081 271.681,312.596 270.737,311.165 271.622 C 310.706 271.906,309.716 271.657,308.965 271.069 C 307.743 270.112,307.712 270.143,308.669 271.365 M377.924 278.538 C 377.086 279.493,376.866 280.002,377.435 279.669 C 378.004 279.335,379.084 279.543,379.835 280.131 C 381.057 281.088,381.088 281.057,380.131 279.835 C 379.543 279.084,379.294 278.094,379.578 277.635 C 380.463 276.204,379.519 276.719,377.924 278.538 M7.359 287.756 L 7.200 294.312 3.400 294.612 L -0.400 294.912 3.425 295.056 C 8.030 295.229,8.166 294.983,7.797 287.125 L 7.518 281.200 7.359 287.756 M294.400 282.400 L 281.200 282.860 294.153 283.030 C 302.114 283.135,307.296 282.892,307.600 282.400 C 307.872 281.960,307.983 281.676,307.847 281.770 C 307.711 281.863,301.660 282.147,294.400 282.400 M59.133 282.600 C 58.301 285.096,58.786 286.299,60.133 285.079 C 61.950 283.435,61.984 283.103,60.269 283.761 C 59.374 284.105,59.127 283.965,59.516 283.336 C 59.834 282.821,59.893 282.400,59.647 282.400 C 59.401 282.400,59.170 282.490,59.133 282.600 M271.933 282.600 C 271.101 285.096,271.586 286.299,272.933 285.079 C 274.750 283.435,274.784 283.103,273.069 283.761 C 272.174 284.105,271.927 283.965,272.316 283.336 C 272.634 282.821,272.693 282.400,272.447 282.400 C 272.201 282.400,271.970 282.490,271.933 282.600 M52.324 290.538 C 51.486 291.493,51.266 292.002,51.835 291.669 C 52.404 291.335,53.484 291.543,54.235 292.131 C 55.457 293.088,55.488 293.057,54.531 291.835 C 53.943 291.084,53.694 290.094,53.978 289.635 C 54.863 288.204,53.919 288.719,52.324 290.538 M165.124 290.538 C 164.286 291.493,164.066 292.002,164.635 291.669 C 165.204 291.335,166.284 291.543,167.035 292.131 C 168.257 293.088,168.288 293.057,167.331 291.835 C 166.743 291.084,166.494 290.094,166.778 289.635 C 167.663 288.204,166.719 288.719,165.124 290.538 M365.124 290.538 C 364.286 291.493,364.066 292.002,364.635 291.669 C 365.204 291.335,366.284 291.543,367.035 292.131 C 368.257 293.088,368.288 293.057,367.331 291.835 C 366.743 291.084,366.494 290.094,366.778 289.635 C 367.663 288.204,366.719 288.719,365.124 290.538 M43.755 293.312 C 43.474 293.593,43.435 294.133,43.669 294.512 C 44.190 295.355,56.558 295.437,57.079 294.600 C 57.284 294.270,54.387 294.118,50.641 294.261 C 45.923 294.442,43.994 294.258,44.362 293.661 C 44.945 292.717,44.567 292.500,43.755 293.312 M105.939 293.871 C 105.713 294.460,105.638 297.790,105.772 301.271 L 106.016 307.600 106.408 300.198 C 106.798 292.835,106.723 291.827,105.939 293.871 M155.755 293.312 C 155.474 293.593,155.435 294.133,155.669 294.512 C 156.190 295.354,269.356 295.442,269.877 294.600 C 270.081 294.270,244.518 294.095,213.070 294.211 C 174.608 294.352,156.057 294.156,156.394 293.611 C 156.951 292.708,156.548 292.519,155.755 293.312 M108.669 296.165 C 109.257 296.916,109.465 297.996,109.131 298.565 C 108.798 299.134,109.307 298.914,110.262 298.076 C 112.081 296.481,112.596 295.537,111.165 296.422 C 110.706 296.706,109.716 296.457,108.965 295.869 C 107.743 294.912,107.712 294.943,108.669 296.165 M352.324 303.338 C 351.486 304.293,351.266 304.802,351.835 304.469 C 352.404 304.135,353.484 304.343,354.235 304.931 C 355.457 305.888,355.488 305.857,354.531 304.635 C 353.943 303.884,353.694 302.894,353.978 302.435 C 354.863 301.004,353.919 301.519,352.324 303.338 M107.480 312.800 C 107.480 316.540,107.617 318.070,107.786 316.200 C 107.954 314.330,107.954 311.270,107.786 309.400 C 107.617 307.530,107.480 309.060,107.480 312.800 M318.121 318.200 C 317.916 318.530,319.965 318.700,322.674 318.577 C 331.497 318.178,332.540 317.859,325.447 317.728 C 321.623 317.658,318.327 317.870,318.121 318.200 M89.924 328.138 C 89.086 329.093,88.866 329.602,89.435 329.269 C 90.004 328.935,91.084 329.143,91.835 329.731 C 93.057 330.688,93.088 330.657,92.131 329.435 C 91.543 328.684,91.294 327.694,91.578 327.235 C 92.463 325.804,91.519 326.319,89.924 328.138 M109.222 327.235 C 109.506 327.694,109.257 328.684,108.669 329.435 C 107.712 330.657,107.743 330.688,108.965 329.731 C 109.716 329.143,110.796 328.935,111.365 329.269 C 111.934 329.602,111.714 329.093,110.876 328.138 C 109.281 326.319,108.337 325.804,109.222 327.235 M20.656 331.000 C 32.237 331.125,50.957 331.124,62.256 330.999 C 73.555 330.874,64.080 330.772,41.200 330.772 C 18.320 330.772,9.075 330.875,20.656 331.000 M165.400 331.000 C 191.470 331.117,234.130 331.117,260.200 331.000 C 286.270 330.883,264.940 330.787,212.800 330.787 C 160.660 330.787,139.330 330.883,165.400 331.000 " stroke="none" fill="#000097" fill-rule="evenodd"></path><path id="path9" d="" stroke="none" fill="#0000ff" fill-rule="evenodd"></path></g></svg>