<svg viewBox="0 0 779.528 173.244" xmlns="http://www.w3.org/2000/svg"><g fill="#00a8a0" stroke-width=".071"><path d="m248.474.643h78.251c2.146 0 9.649.429 10.72.643 2.144 1.072-3.215 12.328-7.503 15.436-1.071 1.072-3.217 1.072-4.289 1.287-5.36.643-10.718 2.572-11.79 7.396-2.144 7.396-1.072 18.009-1.072 26.477v68.497c0 6.646-2.144 24.225 1.072 29.05 2.144 5.466 8.575 5.466 15.008 5.466 1.071-.214 3.215-.429 4.287-.643 2.144-.75 3.216-1.608 5.36-2.466 4.287-2.465 8.574-6.431 11.79-11.148 3.217-4.502 5.36-9.647 7.504-14.9 1.072-2.894 1.072-6.967 3.216-9.433 2.144-3.108 13.936-5.467 16.08-5.36 1.071-.107 3.215.108 4.287.108v55.204c0 1.18-1.072 6.432-1.072 6.646h-142.567c-1.072 0-3.218.43-3.218-.643 0-4.716 2.146-13.506 6.433-16.079 2.144-1.286 4.288-1.286 7.503-1.286 1.072-.858 3.216-1.822 5.36-2.787 4.287-2.358 6.433-6.432 7.504-10.398 3.216-8.254 2.144-19.616 2.144-29.371v-59.814c0-6.325 1.072-22.51-1.072-27.227-3.215-7.825-19.295-6.218-20.367-9.648-1.072-4.18 4.288-11.791 6.431-15.007m412.696.643c3.216 0 8.575-.643 10.72 1.93 1.071 3.644 0 16.186 0 21.439v71.712c1.071 0 1.071.107 2.143-.429 8.576-7.074 16.08-15.864 23.582-23.582 4.29-3.645 7.505-8.576 12.864-10.505 3.216-1.394 8.575-.643 11.79-.643h31.088c0 3.966-3.215 9.433-5.359 12.113-3.217 2.68-8.577 1.5-11.792 3.215-4.288 1.715-25.727 24.548-24.655 26.37 1.072 5.038 9.647 11.362 13.936 15.65 7.503 7.718 13.934 15.436 21.437 23.261 3.218 2.68 5.361 6.325 8.577 8.04 4.287 2.251 9.647 2.573 15.006 3.43 2.145.429 6.433 0 8.577 1.822 1.071.965 0 3.967-1.072 4.931-1.072 2.787-5.36 10.934-8.577 12.113-4.287 1.715-10.718.643-16.078.643h-18.223c-3.216 0-8.575.43-11.792-.429-7.503-1.929-13.934-8.79-19.294-14.578-5.36-5.895-11.792-11.791-18.223-17.687-1.072-1.715-11.792-12.113-11.792-13.077-1.072 0-1.072.536-2.144.536 0 17.043-4.287 28.728 16.08 28.728 0 3.644-3.216 13.613-6.431 15.435-3.216 2.144-9.649 1.072-15.008 1.072-17.152 0-35.373.107-53.596.107v-1.393c2.143-4.502 2.143-9.112 5.359-12.863 3.215-3.323 8.575-3.11 9.647-7.933 1.071-3.43 1.071-7.932 1.071-11.791v-78.466c0-9.004 1.072-19.295 0-27.763-2.143-7.932-15.006-4.073-15.006-6.753-1.071-2.573 0-5.682 0-7.933 1.072-2.358 1.072-4.716 3.216-6.646 2.144-3.108 42.878-9.54 43.95-10.076m-243.331 1.394c7.505-2.358 12.864 0 18.223 3.001 11.792 6.646 12.864 24.87 3.216 33.552-10.719 9.111-26.798 9.433-41.806 9.004-3.216-.107-6.431.215-8.575-1.715-2.144-10.29 12.864-31.086 21.439-38.697 2.144-1.715 5.36-4.18 7.503-5.145m19.295 51.882c2.144.214 3.216.428 4.287.643 3.218 1.5 2.144 21.653 2.144 26.584v49.202c0 5.36-1.072 13.72 1.074 18.223 1.072 3.966 5.36 5.038 9.647 6.86 2.143 1.394 1.071 4.18 0 6.217v2.037c-2.144 2.787-3.216 5.681-4.288 8.576h-57.885c-1.072 0-6.432-.75-7.503-.75 0-.108 2.143-10.184 5.359-13.293 3.215-3.859 6.431-4.073 8.576-9.433 1.072-4.395 1.072-9.969 1.072-15.114 0-10.076 0-20.474-1.072-29.907 0-5.253 2.144-13.185 0-17.58-2.145-2.894-10.72-5.038-13.935-5.038-1.072 0-1.072-.75-1.072-1.286 2.143-5.789 1.072-14.043 9.646-14.043 2.144-.214 3.216-.429 5.361-.643 3.216-.858 7.503-1.822 10.719-2.68 9.647-2.036 20.367-4.502 27.87-8.575m73.963.643c6.433 2.036 3.216 13.935 4.29 19.83 0 .751 0 1.394 1.071 1.394 4.288-.536 9.647-4.073 13.935-6.324 10.72-5.36 27.87-12.864 36.446-13.185 3.216-.214 7.503.214 10.719.429 8.576.536 15.008 8.254 18.223 15.972 1.072 5.574 1.072 13.184 1.072 19.723v48.559c0 5.36 2.144 10.183 6.431 13.185 2.144.964 3.216 1.822 5.361 2.68 1.072.75 0 2.358 0 3.323-1.074 3.215-2.145 7.932-5.36 10.183-4.288 3.323-17.15 1.822-23.584 1.822-8.574 0-16.077-.214-20.367-5.574-13.934-14.364 8.577-82.753-20.365-80.824-4.289.215-7.505 1.93-10.72 3.86-16.08 9.003-12.862 22.724-12.862 40.733 0 7.182-1.074 16.722 3.215 21.76 3.216 4.074 9.647 1.18 12.862 4.18 1.072 1.394-3.215 8.898-4.287 10.398 0 1.608-1.072 3.86-3.216 4.717-4.287 2.037-11.792.75-17.151.75-15.006 0-31.086.107-47.165.107 1.072-5.252 2.143-11.898 5.36-15.436 3.216-2.894 6.432-3.859 7.504-7.825 1.072-5.574 0-13.828 0-19.938v-37.946c0-1.823-1.072-3.538-1.072-4.931-3.216-3.966-8.577-3.752-12.864-3.752 1.072-4.61 2.144-9.219 3.215-13.935 4.288-.965 8.577-2.037 12.865-3.002 11.79-3.537 24.654-5.36 36.444-10.933"/><path d="m257.05 80.503c5.36 0-8.576 25.512-12.863 27.12-4.288 1.929-15.115.75-20.795.75h-27.872c-.965 0-2.465.321-2.679-.643-.214 0 11.256-25.512 14.15-26.692 3.537-1.607 37.196-.535 50.058-.535m-96.474-52.203c-6.966-9.22-14.148-21.225-25.082-25.942-4.395-2.036-9.756-1.5-15.115-1.822-14.15-.858-107.516 0-113.733-.536-2.357 3.001-7.289 11.47-6.43 15.757 1.071 5.682 15.435 1.18 18.33 7.29 1.713 3.751.748 10.29.748 14.9v85.003c-.107 7.182 1.072 15.65-.963 21.868-1.93 5.467-7.183 4.716-11.148 7.503-3.001 2.037-8.577 15.115-6.86 18.652 1.392 2.787 28.941 1.93 34.3 1.93h56.493c17.686 0 37.946 2.572 50.916-6.432 3.752-2.573 6.003-6.325 8.576-9.97 4.823-7.181 9.754-14.256 14.578-21.33 6.11-9.112 13.827-18.224 18.545-28.086 3.001-6.431 4.394-13.935 4.394-21.974 0-25.405-13.934-38.697-27.549-56.813zm-60.564 8.682c6.217 8.468 12.434 16.83 18.651 25.298 4.074 5.68 8.147 11.255 12.113 16.936 1.395 2.68 1.716 6.432 1.286 9.862-1.179 8.897-8.896 15.865-14.04 22.832-5.04 6.539-10.077 13.078-15.009 19.617-4.715 6.217-9.54 12.327-14.257 18.437-1.713 1.5-3.859 1.715-5.573 3.001-3.966 0-9.326.75-11.148-2.787-2.037-3.859-.858-22.082-.858-27.87 0-31.408.107-62.923.107-94.33.107-2.68.32-4.717 2.573-6.003v-.643c5.146 0 10.933-.644 14.9 1.822"/></g></svg>