<svg viewBox="0 0 302.04193 348.15964" xmlns="http://www.w3.org/2000/svg" xmlns:xlink="http://www.w3.org/1999/xlink"><radialGradient id="a" cx="151.023" cy="106.972" gradientUnits="userSpaceOnUse" r="102.5"><stop offset="0" stop-color="#fff"/><stop offset=".042" stop-color="#f7f9d8"/><stop offset=".091" stop-color="#eff2b2"/><stop offset=".143" stop-color="#e8ed91"/><stop offset=".199" stop-color="#e2e976"/><stop offset=".261" stop-color="#dde562"/><stop offset=".33" stop-color="#dae353"/><stop offset=".412" stop-color="#d9e14b"/><stop offset=".545" stop-color="#d8e148"/><stop offset=".679" stop-color="#d6e048"/><stop offset=".747" stop-color="#cfdd47"/><stop offset=".799" stop-color="#c2d946"/><stop offset=".844" stop-color="#b1d245"/><stop offset=".884" stop-color="#99ca44"/><stop offset=".921" stop-color="#7bc143"/><stop offset=".927" stop-color="#75c044"/><stop offset="1" stop-color="#073800"/></radialGradient><circle cx="151.023" cy="106.972" fill="url(#a)" r="102.5" stroke="#000" stroke-width="8.943"/><path d="m141.898 137.689h18.25c0 68.9-6.1 207.49-9.13 207.49-3.02 0-9.12-138.59-9.12-207.49z" fill="#ed1c24"/><path d="m141.898 137.689c0 68.9 6.1 207.49 9.12 207.49m9.13-207.49c0 68.9-6.1 207.49-9.13 207.49m-9.12-207.49h18.25m-18.095 23.561h17.953m-17.538 20.567h17.09m-16.57 20.566h16.071m-15.439 20.549h14.807m-14.039 20.547h13.307m-12.511 20.521h11.68m-10.737 20.522h9.791" fill="none" stroke="#000" stroke-width="5.962"/><ellipse cx="151.019" cy="106.972" fill="#ed1c24" rx="17.08" ry="40.27"/><ellipse cx="151.023" cy="106.972" fill="none" rx="17.075" ry="40.27" stroke="#000" stroke-width="5.962"/><path d="m168.082 63.54c0 4.07-2.04 7.75-5.319 10.35h-.01l-6.97-24.05c7.11 1.72 12.3 7.2 12.3 13.7z" fill="#fde92b"/><path d="m155.783 49.84 6.971 24.05c-2.63 0-7.06-12.35-9.66-24.51.92.09 1.82.24 2.69.46z" fill="#fde92b"/><path d="m162.753 73.89c-3.06 2.43-7.19 3.92-11.74 3.92s-8.68-1.49-11.74-3.92c2.63 0 7.06-12.35 9.66-24.51.68-.07 1.37-.11 2.08-.11s1.4.04 2.08.11c2.6 12.16 7.03 24.51 9.66 24.51zm-11.74-40.51 4.77 16.46c-.87-.22-1.77-.37-2.689-.46-1.25-5.84-2.08-11.63-2.08-16z" fill="#9a090d"/><path d="m153.093 49.38c-.68-.07-1.37-.11-2.08-.11s-1.4.04-2.08.11c1.25-5.84 2.08-11.63 2.08-16 0 4.37.83 10.16 2.08 16z"/><path d="m146.243 49.84 4.77-16.46c0 4.37-.83 10.16-2.08 16-.92.09-1.82.25-2.69.46z"/><path d="m148.933 49.38c-2.6 12.16-7.03 24.51-9.66 24.51l6.97-24.05c.87-.21 1.77-.37 2.69-.46z" fill="#fde92b"/><path d="m146.243 49.84-6.97 24.05c-3.28-2.6-5.32-6.28-5.32-10.35 0-6.49 5.19-11.98 12.29-13.7z" fill="#fde92b"/><g stroke="#000"><g fill="none" stroke-width="5.593"><path d="m148.933 49.38c.68-.07 1.37-.11 2.08-.11s1.4.04 2.081.11c.92.09 1.82.24 2.69.46 7.11 1.72 12.3 7.2 12.3 13.7 0 4.07-2.04 7.75-5.32 10.35h-.01c-3.06 2.43-7.19 3.92-11.74 3.92s-8.68-1.49-11.74-3.92c-3.28-2.6-5.32-6.28-5.32-10.35 0-6.49 5.19-11.98 12.29-13.7.87-.21 1.77-.37 2.69-.46z"/><path d="m139.273 73.89c2.63 0 7.06-12.35 9.66-24.51 1.25-5.84 2.08-11.63 2.08-16m0 0c0 4.37.83 10.16 2.081 16 2.6 12.16 7.03 24.51 9.66 24.51"/></g><g fill="#fff" stroke-width="5.962"><path d="m151.013 100.7s-101.31 12.43-135.318-51.59c-30.549-57.507 135.335 44.339 135.335 44.339l-.016 7.252zm.017 19.1s-80.309 59.487-138.897 18.47c-52.632-36.84 138.895-25.42 138.895-25.42v6.952z"/><path d="m151.03 100.649s101.31 12.43 135.316-51.591c30.55-57.507-135.333 44.339-135.333 44.339l.016 7.252zm-.017 19.1s80.307 59.485 138.895 18.468c52.631-36.84-138.895-25.42-138.895-25.42z"/></g></g></svg>