<svg xmlns="http://www.w3.org/2000/svg" viewBox="0 0 331.76 84.72" version="1"><defs><clipPath id="a"><path d="M-9-9h614v860H-9V-9z" clip-rule="evenodd"/></clipPath></defs><g clip-path="url(#a)" transform="matrix(1.25 0 0 -1.25 -214.66 299.71)"><g fill="#ed1c24" fill-rule="evenodd"><path d="M298.77 174.396l-12.507.284 13.455 19.52-10.2 27.496 12.886.19c1.706-4.927 3.663-11.01 5.463-16.033.19 0 .38-.094.663-.19l10.106 16.033h12.6M432.423 188.8c-2.937.093-5.874-.05-8.81-.05l-9.91 14.924-.756.095-3.032-15.16h-9.465l8.802 43.11-5.022.19.283 2.084 15.256 1.422-5.592-26.246 1.374-.11 7.912 7.406c5.306 5.306 3.885 4.737 11.276 5.02l-.664-2.8c-4.738-1.99-11.655-5.82-14.402-10.18 6.917-9.948 6.917-9.948 12.696-17.528.096-1.327.527-1.327.053-2.18M174.93 189.367h19.234c0-.285-19.234-.285-19.234 0M220.126 189.367h11.655c0-.285-11.654-.285-11.654 0M270.345 189.367h11.94c0-.285-11.94-.285-11.94 0M220.126 189.367l6.254 32.12h8.528c.474 0 1.8.144 2.274.144l-.955-5.024c2.085 4.548 7.967 4.692 12.325 5.166-.57-3.79-1.137-7.58-1.706-11.465-13.834 6.917-13.738-12.79-15.065-20.94"/><path d="M272.998 220.256c.57-.57 1.232-1.137 1.895-1.706l.57 3.146h11.748l-4.926-32.33h-12.227c0 .76.288 1.422.382 2.085-1.516-.757-2.938-1.514-4.36-2.273-28.347-6.298-19.792 41.368 6.918 31.08zm-6.76-8.182c4.094 0 7.433-3.223 7.433-7.177 0-3.952-3.338-7.176-7.432-7.176-4.093 0-7.433 3.225-7.433 7.177 0 3.954 3.34 7.177 7.433 7.177M174.93 189.367l7.01 47.205 11.07-.46c17.18-.715 30.284-10.396 24.306-28.168-3.403-10.116-11.518-15.992-23.152-18.577H174.93zm14.023 10.896l3.696 24.73c22.046-1.14 15.412-26.67-3.697-24.73M379.215 216.94c11.86 11.058 24.896-.23 14.556-8.54-4.72-3.793-8.305-3.196-13.987-3.4-2.057-12.64 4.7-13.145 14.213-7.674.758-1.137.758-1.137.853-1.8-21.66-16.738-33.812 4.312-15.635 21.414zm1.327-9.665c.278 1.373.725 2.63 1.246 3.85 1.18 2.76 2.226 4.62 4.668 6.483 5.74 4.376 6.06-3.092 2.223-7.54-2.454-2.844-4.733-2.393-8.138-2.793M343.304 229.636c-3.222-1.99-3.79-3.316-5.4-6.633h-2.275l2.084 9.95 40.46.19-1.423-10.234c-.946.093-1.894.093-2.84.093-.38 3.41-.475 4.643-3.128 6.633h-9.002c-.48-1.286-4.916-25.33-6.484-32.84-.51-2.446-1.43-4.86 2.24-4.98l2.35-.08-.19-2.843h-21.508l.378 2.675 2.45.148c3.643.22 3.898 2.753 4.497 5.65 2.233 10.803 4.474 21.536 6.792 32.27h-9"/></g></g></svg>