<svg xmlns="http://www.w3.org/2000/svg" viewBox="-2.2490625 -2.2490625 279.43746 74.862546" version="1"><path d="M-2.25-2.305v74.843h43.47c2.105-6.728 4.307-13.54 6.375-20.343.15-.15.15-.543 0-.657H23.72v-6.187h25.937c2.218-6.878 4.194-13.659 6.375-20.313h-32v-5.843l33.75-.094 3.75-12.094c.038 0 .031.088.031.125.79-3.195 1.848-6.317 2.75-9.437H-2.249zm103.063.093l-.03 21.5 21.905.063v53.312h35c-5.976-4.022-11.242-11.265-14.062-18.406-3.871-9.209-4.015-22.19-.219-31.437.15-.188.024-.588.25-.625.19-.86.655-1.845 1.063-2.625 1.805-3.948 4.287-7.687 7.03-10.657.452-.6.862-1.05 1.5-1.312l-.155-.031c.788-.865 1.492-1.525 2.28-2.125.226-.19.348-.394.688-.47v-.124c.978-.789 1.81-1.448 2.938-2.125.489-.338.967-.611 1.531-.875 2.706-1.765 5.948-3.066 9.406-3.969l-69.125-.094zm103.625.063v74.812h22.47l.124-46.593c1.578 5.225 3.273 10.6 4.813 15.75.037.3.098.7.25.812 1.54 5.225 2.97 10.531 4.625 15.719.487 1.879 1.143 3.715 1.593 5.594h.063c.79 2.932 1.702 5.792 2.531 8.687h36.281l-.062-74.781h-22.594l-.094 46.656c-1.203-3.722-2.347-7.691-3.437-11.562l-.063.03c-3.532-11.877-7.066-23.322-10.562-35.124h-35.938zM88.158 12.195c-.488 1.39-.93 2.972-1.345 4.437-.036 0-.03-.025-.03-.062C84.975 22.997 82.804 29.522 81 36.1h13.97a640.53 640.53 0 0 1-2.094-7.655h-.063c-1.578-5.375-3.04-10.8-4.656-16.25zm94.155 10.468c-1.945.017-3.941.475-5.562 1.157-3.61 1.84-6.226 4.203-7.844 8l-.031-.094c-.115.526-.319.849-.469 1.375-.15.376-.33.774-.406 1.187-.903 3.233-.685 7.37.594 10.375h.062c.075.188.175.482.25.594 1.769 3.796 4.696 6.418 8.719 7.656 5.826 1.768 11.917-.377 15.187-4.25.447-.519.93-1.175 1.375-1.625h.032v-.187h-.032c3.383-4.624 2.97-12.52 0-17.219-.263-.151-.348-.474-.5-.812h-.062c-1.991-2.67-4.511-4.784-7.969-5.688-1.015-.324-2.176-.479-3.344-.469zM75.876 52.788c-.564 1.917-1.086 3.707-1.688 5.625l-.062-.093c-1.391 4.773-2.81 9.576-4.313 14.312h35.844a2417.583 2417.583 0 0 0-5.75-19.844H75.876z" fill="#0067cd"/></svg>