<svg xmlns="http://www.w3.org/2000/svg" viewBox="0 0 55.205465 62.118929"><defs><clipPath id="a"><path d="M6.998 7.392h109.08v89.063H6.998z"/></clipPath><clipPath id="b"><path d="M61.723 52.808c-3.456.157-6.115 1.034-8.175 2.303 1.395-6.055 6.612-9.029 6.864-9.17l1.538-.848c11.768.786 18.656 8.383 18.656 18.317v2.153c-2.797-9.126-9.307-13.186-18.883-12.755"/></clipPath><linearGradient x2="1" gradientUnits="userSpaceOnUse" gradientTransform="translate(53.548 55.328) scale(27.057)" id="c"><stop offset="0" stop-color="#656263"/><stop offset="1" stop-color="#a7a5a6"/></linearGradient></defs><g clip-path="url(#a)" transform="matrix(1.33333 0 0 -1.33333 -52.27 122.147)"><path d="M79.602 65.87l1.004 3.276v22.437c-11.734 0-12.956-4.5-12.956-8.796v-24.64c0-1.276-.124-2.63-.382-3.956 6.222 1.133 10.281 4.979 12.334 11.68" fill="#0d0d0d"/><path d="M49.566 86.46h-2.593v2.561h2.593zm2.59-3.87h-2.59v2.563h2.59zm-2.605-3.223h-2.563v2.562h2.563zm-2.591-3.842h-2.562v2.562h2.562zm-5.168 13.496h-2.59v2.589h2.59z" fill="#39a2e1"/><path d="M44.385 72.965h2.587v-5.707h2.594v9.548h2.59v-18.66c0-8.854 7.75-13.125 7.75-13.125-13.018 0-20.704 7.89-20.704 18.39v21.114h2.59V70.403h2.593z" fill="#39a2e1"/></g><g clip-path="url(#b)" transform="matrix(1.33333 0 0 -1.33333 -52.27 122.147)"><path d="M61.723 52.808c-3.456.157-6.115 1.034-8.175 2.303 1.395-6.055 6.612-9.029 6.864-9.17l1.538-.848c11.768.786 18.656 8.383 18.656 18.317v2.153c-2.797-9.126-9.307-13.186-18.883-12.755" fill="url(#c)"/></g><path d="M10.341 10.317H6.928V6.901h3.413z" fill="#39a2e1"/></svg>