<?xml version="1.0" encoding="UTF-8" standalone="no"?>
<svg
   xmlns:dc="http://purl.org/dc/elements/1.1/"
   xmlns:cc="http://creativecommons.org/ns#"
   xmlns:rdf="http://www.w3.org/1999/02/22-rdf-syntax-ns#"
   xmlns:svg="http://www.w3.org/2000/svg"
   xmlns="http://www.w3.org/2000/svg"
   xmlns:sodipodi="http://sodipodi.sourceforge.net/DTD/sodipodi-0.dtd"
   xmlns:inkscape="http://www.inkscape.org/namespaces/inkscape"
   viewBox="0 0 535.083 260.472"
   fill-rule="evenodd"
   version="1.1"
   id="svg16"
   sodipodi:docname="logo.svg"
   inkscape:version="0.92.1 r15371">
  <metadata
     id="metadata22">
    <rdf:RDF>
      <cc:Work
         rdf:about="">
        <dc:format>image/svg+xml</dc:format>
        <dc:type
           rdf:resource="http://purl.org/dc/dcmitype/StillImage" />
      </cc:Work>
    </rdf:RDF>
  </metadata>
  <defs
     id="defs20" />
  <sodipodi:namedview
     pagecolor="#ffffff"
     bordercolor="#666666"
     borderopacity="1"
     objecttolerance="10"
     gridtolerance="10"
     guidetolerance="10"
     inkscape:pageopacity="0"
     inkscape:pageshadow="2"
     inkscape:window-width="1542"
     inkscape:window-height="1126"
     id="namedview18"
     showgrid="false"
     inkscape:zoom="0.41068397"
     inkscape:cx="356.72198"
     inkscape:cy="173.64799"
     inkscape:window-x="0"
     inkscape:window-y="0"
     inkscape:window-maximized="0"
     inkscape:current-layer="svg16" />
  <path
     d="M521.044.367l13.68-.008v259.754H.447v-12.952h520.596z"
     fill="#c00000"
     stroke="#c00000"
     stroke-width=".718"
     id="path2" />
  <path
     style="stroke:#000000;stroke-width:0.95733327"
     d="M 528.63281 59.001953 C 524.77015 58.975286 520.88455 59.11287 517.06055 59.658203 C 513.79255 60.123536 510.48216 60.672859 507.41016 61.880859 A 30.119999 30.119999 0 0 0 499.62891 66.373047 C 497.49024 68.08638 495.62436 70.174307 494.06836 72.431641 C 492.44703 74.787641 491.25118 77.435422 490.22852 80.107422 C 488.92718 83.512755 488.08961 87.091443 487.34961 90.662109 C 486.43228 95.090109 485.89102 99.595083 485.42969 104.09375 C 484.90702 109.19375 484.62875 114.32069 484.46875 119.44336 C 484.37942 122.32069 484.43142 125.20079 484.46875 128.07812 C 484.51275 131.45146 484.68842 134.82136 484.73242 138.19336 C 484.76976 141.13069 484.69909 144.06595 484.73242 147.00195 C 484.76176 149.59129 484.77958 152.18224 484.90625 154.76758 C 485.01958 157.06758 485.15235 159.36958 485.42969 161.65625 C 485.66302 163.58692 486.03801 165.49878 486.38867 167.41211 C 486.68201 169.01611 486.89628 170.64232 487.34961 172.20898 C 488.59228 176.48632 489.8191 180.88431 492.14844 184.68164 C 494.3991 188.34964 497.2424 191.83806 500.78906 194.27539 C 504.4624 196.80072 508.94882 197.98827 513.27148 199.07227 C 518.27682 200.3256 523.47548 200.82223 528.63281 200.99023 C 532.56615 201.11823 536.51806 200.83697 540.41406 200.29297 C 543.33673 199.88364 546.27273 199.35971 549.05273 198.37305 C 551.7514 197.41705 554.37038 196.15044 556.73438 194.53711 C 558.41837 193.38778 559.90339 191.94683 561.27539 190.4375 C 563.07939 188.45483 564.75422 186.31771 566.07422 183.98438 C 567.31422 181.79504 568.22574 179.41386 568.95508 177.00586 C 569.90174 173.88453 570.40833 170.64011 570.875 167.41211 C 571.38167 163.91744 571.83398 156.85938 571.83398 156.85938 L 546.875 156.85938 C 546.875 156.85938 546.995 161.33822 546.875 163.57422 C 546.77233 165.47155 546.66705 167.38619 546.26172 169.24219 C 545.96839 170.59019 545.48112 171.89464 544.95312 173.16797 C 544.40646 174.4893 543.92254 175.88453 543.0332 177.00586 C 541.4812 178.96319 539.50144 180.6734 537.27344 181.80273 C 534.9201 182.9974 532.21508 183.42266 529.59375 183.72266 C 527.97375 183.90666 526.30179 183.94943 524.70312 183.63477 C 523.04979 183.30943 521.46419 182.6254 519.99219 181.80273 A 13.94 13.94 0 0 1 517.11133 179.62305 C 516.01266 178.55638 515.00576 177.36821 514.23242 176.04688 C 513.36176 174.56021 512.86183 172.882 512.3125 171.25 A 43.693332 43.693332 0 0 1 510.91406 166.19141 C 510.4074 163.74741 510.11385 161.26134 509.86719 158.77734 C 509.61519 156.22801 509.50302 153.66485 509.42969 151.10352 C 509.29369 146.30885 509.42969 136.71289 509.42969 136.71289 L 571.83594 136.71289 C 571.83594 136.71289 571.90927 123.9181 571.83594 117.52344 C 571.77727 112.46344 571.85699 107.39494 571.48633 102.34961 C 571.17566 98.112276 570.79068 93.859125 569.91602 89.703125 C 569.22668 86.436458 568.33382 83.182088 567.03516 80.107422 C 565.75382 77.074089 564.24104 74.083323 562.23438 71.472656 A 28.133332 28.133332 0 0 0 556.37305 65.816406 C 554.06105 64.155073 551.45759 62.887526 548.79492 61.880859 C 546.18026 60.894193 543.4182 60.296708 540.6582 59.859375 C 536.68887 59.230042 532.65148 59.031286 528.63281 59.001953 z M 528.30859 76.931641 C 529.70266 76.917078 531.10166 76.999516 532.47266 77.228516 C 533.89266 77.464516 535.32457 77.80674 536.61523 78.441406 A 13.325333 13.325333 0 0 1 540.15234 81.017578 C 541.02834 81.898911 541.68351 82.982875 542.32617 84.046875 C 543.04617 85.238875 543.68331 86.488537 544.19531 87.783203 A 33.401332 33.401332 0 0 1 545.91406 93.539062 C 546.3594 95.779062 546.46847 98.075469 546.61914 100.35547 C 546.80847 103.19547 546.83171 106.04334 546.87305 108.88867 C 546.91571 111.76734 546.87305 117.52344 546.87305 117.52344 L 509.42969 117.52344 C 509.42969 117.52344 509.36835 110.48804 509.42969 106.9707 C 509.47235 104.51204 509.53683 102.05366 509.6875 99.597656 C 509.8275 97.304323 509.96702 95.005135 510.29102 92.730469 C 510.57368 90.743802 510.82708 88.731505 511.45508 86.826172 C 511.89774 85.482172 512.48082 84.160375 513.27148 82.984375 A 13.717333 13.717333 0 0 1 515.95117 80.056641 C 516.87917 79.293974 517.90192 78.60012 519.03125 78.189453 C 521.52992 77.28012 524.26197 77.119229 526.91797 76.976562 C 527.38064 76.951896 527.84391 76.936495 528.30859 76.931641 z "
     transform="scale(0.75000003)"
     id="path4" />
  <path
     style="stroke:#000000;stroke-width:0.95733327"
     d="M 354.86133 0.48046875 L 354.86133 27.341797 L 379.82227 27.341797 L 379.82227 0.48046875 L 354.86133 0.48046875 z M 445.10742 24.460938 L 419.18555 35.015625 L 419.18555 60.919922 L 398.0625 60.919922 L 398.0625 80.107422 L 419.18555 80.107422 L 419.18555 168.37109 C 419.18555 169.97109 419.14288 171.57064 419.18555 173.16797 C 419.23488 175.0213 419.31371 176.87537 419.48438 178.7207 C 419.64037 180.39537 419.74586 182.08737 420.14453 183.7207 C 420.49786 185.17404 420.97392 186.61483 421.66992 187.9375 A 15.113333 15.113333 0 0 0 424.08008 191.28711 C 425.18008 192.44444 426.47951 193.41672 427.82617 194.27539 C 429.63417 195.43139 431.5646 196.43163 433.58594 197.1543 C 435.7486 197.92763 438.03064 198.36307 440.30664 198.67773 C 442.84531 199.0284 445.42366 199.00693 447.98633 199.07227 C 454.06499 199.22827 466.22852 199.07227 466.22852 199.07227 L 466.22852 181.80273 C 466.22852 181.80273 459.81824 182.06673 456.62891 181.80273 C 454.68757 181.64273 452.65652 181.60846 450.86719 180.8418 A 10.425333 10.425333 0 0 1 447.02734 177.96484 C 446.56868 177.41551 446.28907 176.72492 446.06641 176.04492 C 445.70374 174.93426 445.62437 173.74727 445.48438 172.58594 A 62.183998 62.183998 0 0 1 445.10742 167.41406 C 445.03676 165.4954 445.10742 163.57492 445.10742 161.65625 L 445.10742 80.107422 L 466.22852 80.107422 L 466.22852 60.919922 L 445.10742 60.919922 L 445.10742 24.460938 z M 151.32617 59.001953 C 147.79284 58.967286 144.21096 59.167604 140.76562 59.960938 C 137.79096 60.644937 134.90055 61.778505 132.19922 63.201172 C 129.41255 64.667838 126.71003 66.409037 124.44336 68.595703 C 122.14069 70.815703 120.28493 73.503484 118.68359 76.271484 C 117.46359 78.379484 116.58202 80.676375 115.80469 82.984375 C 115.38335 84.235042 115.13308 85.537552 114.84375 86.824219 C 114.48508 88.414885 114.11143 90.006427 113.88477 91.621094 C 113.54743 94.018427 113.44044 96.443375 113.28711 98.859375 A 197.34266 197.34266 0 0 0 112.92188 106.9707 C 112.84321 110.48804 112.92188 114.0061 112.92188 117.52344 L 112.92188 129.99609 C 112.92188 134.47343 112.87388 138.9504 112.92188 143.42773 C 112.95787 146.7464 112.96739 150.06877 113.13672 153.38477 C 113.29405 156.46743 113.45143 159.5579 113.88477 162.61523 C 114.35143 165.91123 114.86157 169.23168 115.87891 172.40234 C 116.81891 175.33568 117.97253 178.25513 119.64453 180.8418 C 121.73386 184.07913 124.31889 187.06918 127.32422 189.47852 C 129.89222 191.53585 132.91374 193.01672 135.95508 194.27539 C 138.10974 195.16872 140.39488 195.75531 142.68555 196.19531 C 144.62955 196.56598 146.61375 196.76035 148.59375 196.79102 C 151.43108 196.83502 154.3006 196.73336 157.08594 196.19336 C 159.7526 195.67736 162.38313 194.84217 164.8418 193.6875 C 167.21646 192.57417 169.44028 191.11585 171.48828 189.47852 C 173.96028 187.49985 178.20703 182.76172 178.20703 182.76172 L 178.20703 204.83008 C 178.20703 207.38741 178.34036 209.94924 178.20703 212.50391 C 178.0977 214.62924 177.96421 216.7688 177.54688 218.85547 A 22.529333 22.529333 0 0 1 176.28711 223.05664 C 175.73111 224.40064 175.07075 225.7172 174.21875 226.89453 C 173.44275 227.9652 172.49895 228.92082 171.48828 229.77148 C 170.60561 230.51415 169.65542 231.20874 168.60742 231.69141 C 167.19009 232.33941 165.64414 232.70389 164.10547 232.94922 A 23.519999 23.519999 0 0 1 159.00586 233.17383 C 156.73919 233.03783 154.39644 232.90579 152.28711 232.06445 C 150.49111 231.34845 148.75966 230.26583 147.48633 228.8125 C 146.07166 227.19917 145.31276 225.08197 144.60742 223.05664 C 143.81276 220.78064 143.49638 218.35985 143.12305 215.97852 C 142.93771 214.80385 142.83 213.51235 142.75 212.42969 C 142.678 211.46969 142.68359 209.625 142.68359 209.625 L 116.76367 209.625 C 116.76367 209.625 116.74234 211.54524 116.76367 212.50391 C 116.82634 215.35857 116.79405 218.22845 117.13672 221.06445 C 117.45272 223.67779 117.83426 226.31783 118.68359 228.8125 C 119.52359 231.28183 120.71039 233.65284 122.15039 235.82617 A 30.002666 30.002666 0 0 0 127.18555 241.6582 C 128.89221 243.17554 130.84133 244.42809 132.86133 245.49609 C 135.03866 246.64809 137.37714 247.49394 139.73047 248.22461 C 142.47714 249.07794 145.30382 249.70586 148.14648 250.14453 C 151.10115 250.60053 154.0966 250.92291 157.08594 250.87891 C 161.2966 250.81891 165.51458 250.31842 169.64258 249.48242 C 173.54258 248.69176 177.44522 247.68336 181.08789 246.08203 C 184.50256 244.57803 187.82483 242.71817 190.6875 240.32617 C 193.29817 238.14751 195.51416 235.47306 197.41016 232.65039 C 198.60616 230.86906 199.54373 228.90653 200.28906 226.89453 C 201.20506 224.4212 201.69698 221.80542 202.20898 219.21875 C 202.50898 217.70808 202.72486 216.17786 202.88086 214.64453 C 203.05153 212.97786 203.12192 211.301 203.16992 209.625 C 203.23392 207.38767 203.16992 205.14882 203.16992 202.91016 L 203.16992 60.919922 L 178.20703 60.919922 L 178.20703 72.431641 C 178.20703 72.431641 175.25887 68.356401 173.4082 66.677734 A 28.459999 28.459999 0 0 0 166.91211 62.253906 C 164.72544 61.17524 162.34751 60.480937 159.96484 59.960938 A 42.655998 42.655998 0 0 0 151.32617 59.001953 z M 289.57617 59.001953 C 286.67751 59.017953 283.78621 59.447604 280.93555 59.960938 C 278.33688 60.427604 275.72919 60.966193 273.25586 61.880859 C 270.57053 62.872859 267.95955 64.13413 265.57422 65.716797 C 263.11689 67.347463 258.85352 71.472656 258.85352 71.472656 L 258.85352 60.919922 L 233.89258 60.919922 L 233.89258 199.07227 L 258.85352 199.07227 L 258.85352 109.84961 C 258.85352 106.97094 258.64952 104.08551 258.85352 101.21484 C 259.01352 98.958844 259.2925 96.69938 259.8125 94.498047 C 260.27783 92.530047 260.95909 90.610187 261.73242 88.742188 C 262.28042 87.420854 262.9023 86.12163 263.6543 84.904297 C 264.49696 83.544297 265.3612 82.155026 266.5332 81.068359 A 14.845333 14.845333 0 0 1 270.88867 78.291016 C 272.37134 77.672349 273.99118 77.381849 275.58984 77.228516 C 277.41118 77.055182 279.26151 77.164391 281.07617 77.400391 C 283.63484 77.733724 286.24723 78.127104 288.61523 79.148438 C 289.6739 79.607104 290.60276 80.336359 291.49609 81.068359 C 292.54543 81.928359 293.58362 82.845313 294.37695 83.945312 C 295.21429 85.105312 295.75021 86.46187 296.29688 87.783203 C 297.07154 89.652536 297.76346 91.568396 298.2168 93.539062 C 298.71013 95.681729 298.91422 97.888698 299.07422 100.08203 C 299.24089 102.3727 299.1604 104.6747 299.17773 106.9707 C 299.4044 137.6707 299.17773 199.07227 299.17773 199.07227 L 324.13672 199.07227 L 324.13672 99.296875 C 324.13672 97.376875 324.21005 95.455062 324.13672 93.539062 C 324.04339 91.040396 323.94489 88.532547 323.57422 86.060547 C 323.22089 83.700547 322.76747 81.332885 321.99414 79.074219 C 321.31681 77.095552 320.45922 75.157911 319.33789 73.392578 A 29.390666 29.390666 0 0 0 314.53906 67.636719 C 312.5204 65.764719 310.27036 64.085891 307.81836 62.837891 C 305.11169 61.460557 302.14573 60.595604 299.17773 59.960938 A 44.882665 44.882665 0 0 0 289.57617 59.001953 z M 354.86133 60.919922 L 354.86133 199.07227 L 379.82227 199.07227 L 379.82227 60.919922 L 354.86133 60.919922 z M 156.05273 77.603516 C 158.0074 77.600849 159.97872 77.76412 161.88672 78.189453 A 22.573333 22.573333 0 0 1 167.13672 80.033203 C 168.70205 80.822536 170.21895 81.775042 171.48828 82.984375 C 172.64561 84.088375 173.52585 85.464219 174.36719 86.824219 C 175.11919 88.040219 175.80044 89.318109 176.28711 90.662109 C 176.94978 92.491443 177.31443 94.420464 177.62109 96.341797 C 177.97843 98.585797 178.1097 100.86215 178.20703 103.13281 C 178.33236 106.00881 178.20703 108.88891 178.20703 111.76758 C 178.20703 121.68091 178.2817 131.5951 178.20703 141.50977 C 178.18436 144.63243 178.25236 147.76024 178.06836 150.87891 C 177.91103 153.52157 177.71338 156.17201 177.24805 158.77734 C 176.81071 161.22934 176.23968 163.67029 175.40234 166.01562 A 24.026666 24.026666 0 0 1 173.4082 170.29102 C 172.58554 171.66302 171.65801 172.99824 170.52734 174.12891 C 169.39534 175.25957 168.11017 176.27653 166.6875 177.00586 C 165.21817 177.75786 163.58094 178.16499 161.96094 178.48633 C 160.36094 178.80633 158.7166 178.98711 157.08594 178.92578 C 155.13927 178.85111 153.15284 178.63684 151.32617 177.96484 C 149.57417 177.32084 147.99801 176.23456 146.52734 175.08789 C 145.10068 173.97456 143.74421 172.718 142.68555 171.25 C 141.43088 169.51 140.57002 167.49814 139.80469 165.49414 C 139.50469 164.71014 139.3072 163.88712 139.14453 163.06445 A 17.994666 17.994666 0 0 1 138.8457 160.69531 C 138.8057 160.05665 138.8457 159.41601 138.8457 158.77734 L 138.8457 101.21484 C 138.8457 99.294844 138.8137 97.375698 138.8457 95.457031 C 138.87104 93.957031 138.82881 92.451604 138.99414 90.960938 C 139.12347 89.787604 139.24558 88.589708 139.65625 87.484375 A 15.719999 15.719999 0 0 1 142.24805 82.984375 A 13.306666 13.306666 0 0 1 145.56445 80.107422 C 147.03645 79.210089 148.69323 78.600833 150.36523 78.1875 C 152.2159 77.734167 154.1474 77.606182 156.05273 77.603516 z "
     transform="scale(0.75000003)"
     id="path8" />
  <path
     style="stroke:#000000;stroke-width:0.95733327"
     d="M 44.757812 59.001953 A 77.594664 77.594664 0 0 0 33.283203 59.783203 C 30.02587 60.24587 26.727385 60.751526 23.636719 61.880859 C 20.916719 62.874193 18.234365 64.15012 15.957031 65.939453 C 13.681031 67.72612 11.817266 70.036261 10.197266 72.433594 C 8.5932657 74.801594 7.376802 77.435422 6.3554688 80.107422 C 5.0528021 83.512755 4.2152291 87.091443 3.4765625 90.662109 C 2.5592292 95.090109 2.0179739 99.595083 1.5566406 104.09375 C 1.0326406 109.19375 0.75570312 114.32069 0.59570312 119.44336 C 0.50503646 122.32069 0.61303646 125.19946 0.59570312 128.07812 C 0.57570313 131.30879 0.46313542 134.53948 0.48046875 137.77148 C 0.49646875 140.69148 0.5636875 143.61258 0.6796875 146.53125 C 0.7916875 149.33658 0.99553646 152.13679 1.1582031 154.93945 C 1.2875365 157.17945 1.341974 159.42425 1.5566406 161.65625 C 1.733974 163.50958 1.9556354 165.36012 2.2929688 167.18945 C 2.7076354 169.43612 3.1809531 171.6808 3.8769531 173.85547 C 5.0636197 177.5648 6.208724 181.38031 8.2753906 184.68164 C 10.560724 188.32831 13.416016 191.77139 16.916016 194.27539 C 20.568015 196.88739 24.967542 198.38765 29.296875 199.57031 C 33.599542 200.74365 38.11112 201.05502 42.564453 201.29102 C 46.81112 201.51368 51.098979 201.50357 55.320312 200.99023 C 58.248312 200.63423 61.180938 200.05698 63.960938 199.07031 A 36.295999 36.295999 0 0 0 71.640625 195.23438 C 73.733958 193.86771 75.633724 192.20417 77.400391 190.4375 C 79.168391 188.67217 80.925172 186.82964 82.201172 184.68164 C 83.625172 182.28564 84.490583 179.57958 85.28125 176.90625 C 86.20525 173.77825 86.761172 170.54317 87.201172 167.3125 C 87.671839 163.84983 87.960937 156.85938 87.960938 156.85938 L 63.960938 156.85938 C 63.960938 156.85938 63.974865 161.30753 63.769531 163.51953 C 63.617531 165.14886 63.401333 166.78443 63 168.37109 A 28.819999 28.819999 0 0 1 61.3125 173.16797 C 60.7085 174.5053 60.098823 175.87786 59.160156 177.00586 C 57.56149 178.92586 55.627057 180.6734 53.400391 181.80273 C 51.047057 182.9974 48.344703 183.45732 45.720703 183.72266 A 16.546666 16.546666 0 0 1 40.917969 183.50781 A 17.459999 17.459999 0 0 1 36.119141 181.80273 A 13.593333 13.593333 0 0 1 32.958984 179.48242 A 15.607999 15.607999 0 0 1 30.359375 176.04688 C 29.511375 174.54688 28.90212 172.90867 28.439453 171.25 C 27.91412 169.37667 27.743849 167.42081 27.478516 165.49414 C 27.173182 163.29414 26.904667 161.08709 26.75 158.87109 C 26.568667 156.28709 26.556245 153.69418 26.517578 151.10352 C 26.445578 146.30752 26.517578 136.71289 26.517578 136.71289 L 87.960938 136.71289 L 87.960938 117.52344 C 87.960938 112.4061 88.351604 107.27516 87.960938 102.17383 C 87.640938 97.979162 86.967682 93.805792 86.041016 89.703125 C 85.305016 86.445792 84.460776 83.182088 83.162109 80.107422 C 81.882109 77.074089 80.345328 74.100656 78.361328 71.472656 C 76.725328 69.30599 74.804229 67.303463 72.601562 65.716797 C 70.278896 64.043464 67.617875 62.838193 64.921875 61.880859 C 62.140542 60.894193 59.195297 60.404937 56.279297 59.960938 C 52.46863 59.382271 48.612479 59.031286 44.757812 59.001953 z M 46.203125 77.117188 C 47.005125 77.102354 47.806276 77.123849 48.599609 77.228516 C 50.207609 77.440516 51.819448 77.825615 53.300781 78.488281 C 54.566115 79.054948 55.767297 79.819578 56.779297 80.767578 C 57.743297 81.674245 58.464156 82.819979 59.160156 83.945312 A 22.999999 22.999999 0 0 1 61.080078 87.783203 C 61.780078 89.60987 62.324005 91.508787 62.638672 93.439453 C 63.002672 95.684786 62.94 97.980573 63 100.25391 C 63.076 103.13124 63 106.01134 63 108.88867 L 63 117.52344 L 26.517578 117.52344 L 26.517578 99.296875 C 26.517578 97.056875 26.290911 94.806745 26.517578 92.580078 C 26.689578 90.888078 27.049729 89.210651 27.539062 87.583984 C 28.016396 86.001318 28.484484 84.363042 29.396484 82.984375 C 30.145818 81.853708 31.178677 80.904755 32.277344 80.107422 C 33.481344 79.234089 34.829906 78.517844 36.253906 78.089844 C 38.677906 77.361844 41.272162 77.372516 43.798828 77.228516 C 44.597495 77.183182 45.401125 77.132021 46.203125 77.117188 z "
     transform="scale(0.75000003)"
     id="path12" />
</svg>
