<svg xmlns="http://www.w3.org/2000/svg" viewBox="0 0 13.537 13.603"><path d="M6.785 6.892c-.253-.288.382-.173.576-.195h4.15c.254.29-.381.174-.575.195h-4.15zM13.535 6.803c.037.679-.904 1.061-1.351.548-.492-.454-.104-1.371.565-1.335a.79.79 0 01.786.787z" fill="#f15a29"/><path d="M10.25 10.106l-3.018-3.03c.574.23 1.144.48 1.722.7.254-.227-.328-.298-.496-.407-.46-.19-.92-.378-1.381-.567l1.918-.804c.123-.364-.419-.013-.606.043l-1.146.48 3.037-3.027c-.111-.416-.634.465-.873.595L7.071 6.418l.706-1.735c-.171-.343-.304.288-.397.46l-.47 1.154V2.01c-.289-.254-.174.381-.195.575V6.27c-.312-.48-.379-1.53-.85-1.667.126.55.604 1.413.638 1.742l-3-3.011c-.383.023.147.393.269.545l2.64 2.652-1.702-.697c-.344.17.287.305.459.398l1.135.465H2.036c-.254.288.381.173.575.194H6.36l-1.716.716c-.137.365.396.026.572-.027l1.186-.495C5.392 8.092 4.38 9.1 3.369 10.106c.11.437.623-.46.863-.585l2.299-2.29-.678 1.672c.156.358.3-.265.382-.425l.48-1.183v4.272c.288.254.173-.381.194-.575V7.278c.244.578.449 1.179.718 1.742.312-.268-.317-1.017-.4-1.473-.293-.558.062-.133.272.072l2.613 2.624c.087.092.23-.05.137-.137zM3.349 11.049c.037.68-.905 1.062-1.352.548-.491-.454-.104-1.37.565-1.335a.79.79 0 01.787.787z" fill="#3b6e8f"/><path d="M4.35 8.168c.036.679-.905 1.061-1.352.548-.491-.454-.104-1.37.565-1.335a.79.79 0 01.786.787zM11.87 2.557c.036.679-.906 1.061-1.352.548-.492-.455-.104-1.371.564-1.335a.79.79 0 01.787.787zM10.868 5.438c.037.679-.904 1.06-1.35.548-.492-.455-.105-1.37.564-1.335a.79.79 0 01.786.787zM11.855 11.062c.037.68-.904 1.062-1.351.549-.492-.455-.104-1.371.564-1.336a.79.79 0 01.787.787zM8.974 10.062c.037.68-.905 1.062-1.351.548-.492-.454-.104-1.37.564-1.335a.79.79 0 01.787.787zM3.363 2.543c.037.68-.905 1.062-1.352.548-.491-.454-.104-1.371.565-1.335a.79.79 0 01.787.787zM6.244 3.543c.037.68-.905 1.062-1.351.549-.492-.455-.104-1.371.564-1.335a.79.79 0 01.787.786zM7.6 12.817c.036.68-.906 1.062-1.352.549-.492-.455-.104-1.372.564-1.336a.79.79 0 01.787.787zM6.27 10.073c.036.679-.905 1.061-1.352.548-.492-.454-.104-1.371.564-1.335a.79.79 0 01.787.787zM7.619.788c.037.679-.905 1.061-1.351.548-.492-.454-.104-1.37.564-1.335a.79.79 0 01.787.787zM8.949 3.533c.037.68-.905 1.062-1.352.548-.491-.454-.104-1.37.565-1.335a.79.79 0 01.787.787zM10.879 8.142c.037.68-.905 1.062-1.351.549-.492-.455-.104-1.371.564-1.335a.79.79 0 01.787.786zM1.573 6.793c.037.68-.905 1.061-1.352.548C-.27 6.887.118 5.97.786 6.006a.79.79 0 01.787.787zM4.339 5.463c.036.679-.905 1.061-1.351.548-.492-.454-.104-1.37.564-1.335a.79.79 0 01.787.787z" fill="#3b6e8f"/></svg>
