<?xml version="1.0" encoding="UTF-8" standalone="no"?>
<svg
   xmlns:dc="http://purl.org/dc/elements/1.1/"
   xmlns:cc="http://creativecommons.org/ns#"
   xmlns:rdf="http://www.w3.org/1999/02/22-rdf-syntax-ns#"
   xmlns:svg="http://www.w3.org/2000/svg"
   xmlns="http://www.w3.org/2000/svg"
   id="svg8"
   version="1.1"
   viewBox="0 0 13.536448 13.603369"
   height="13.603369mm"
   width="13.536448mm">
  <defs
     id="defs2" />
  <metadata
     id="metadata5">
    <rdf:RDF>
      <cc:Work
         rdf:about="">
        <dc:format>image/svg+xml</dc:format>
        <dc:type
           rdf:resource="http://purl.org/dc/dcmitype/StillImage" />
        <dc:title></dc:title>
      </cc:Work>
    </rdf:RDF>
  </metadata>
  <g
     transform="translate(-32.00145,-31.536722)"
     id="layer1">
    <g
       transform="matrix(0.26458333,0,0,0.26458333,32.001062,31.536528)"
       id="g156">
      <path
         style="fill:#f15a29"
         d="m 25.650391,26.046875 c -0.202637,0 -0.367676,-0.165039 -0.367676,-0.367676 v 0 c 0,-0.204101 0.165039,-0.36914 0.367676,-0.36914 v 0 h 17.862304 c 0.203125,0 0.367676,0.165039 0.367676,0.36914 v 0 c 0,0.202637 -0.164551,0.367676 -0.367676,0.367676 v 0 z"
         id="path72" />
      <circle
         style="fill:#f15a29"
         cx="48.188477"
         cy="25.708252"
         r="2.9743652"
         id="circle74" />
      <path
         style="fill:#3b6e8f"
         d="m 38.743164,38.192383 -11.405762,-11.453125 6.370606,2.617187 c 0.0459,0.01953 0.09277,0.02734 0.138672,0.02734 0.145508,0 0.283203,-0.08594 0.341797,-0.228516 0.07666,-0.189453 -0.01416,-0.404296 -0.201661,-0.480468 L 26.751465,25.703613 34.00293,22.66748 c 0.1875,-0.07813 0.275879,-0.294921 0.197265,-0.483398 -0.0791,-0.185059 -0.294433,-0.274414 -0.481933,-0.196289 l -6.337891,2.653809 c 5.962891,-5.942872 11.476563,-11.4375 11.476563,-11.4375 0.144043,-0.144043 0.144043,-0.375977 0.0015,-0.52002 -0.144531,-0.144531 -0.376464,-0.144531 -0.520019,-0.0015 0,0 -5.591309,5.571778 -11.609863,11.570801 l 2.670898,-6.558594 c 0.07617,-0.1875 -0.01367,-0.40332 -0.202637,-0.479004 -0.188476,-0.07568 -0.40332,0.01367 -0.479004,0.203125 l -2.598144,6.378418 V 7.5888672 c 0,-0.2036133 -0.164551,-0.3676758 -0.367676,-0.3676758 -0.203125,0 -0.368652,0.1640625 -0.368652,0.3676758 V 23.69043 c -0.874512,-2.181641 -1.813965,-4.506348 -2.530274,-6.292969 -0.07568,-0.189942 -0.289062,-0.280274 -0.477539,-0.20459 -0.189453,0.07373 -0.280273,0.289551 -0.204101,0.477539 0.739257,1.846192 1.713379,4.257813 2.615722,6.510254 L 13.24707,12.59375 c -0.144531,-0.144043 -0.377441,-0.144043 -0.521484,-0.0015 -0.144531,0.143555 -0.144531,0.377442 0,0.521485 l 11.516601,11.562011 -6.435546,-2.633789 c -0.187989,-0.07666 -0.403321,0.01318 -0.480469,0.199707 -0.07715,0.189942 0.01367,0.405274 0.201172,0.480469 l 6.303222,2.580566 H 7.6992188 c -0.203125,0 -0.3681641,0.165039 -0.3681641,0.369141 0,0.202637 0.1650391,0.367676 0.3681641,0.367676 H 24.041992 l -6.48291,2.703613 c -0.187988,0.07617 -0.275391,0.292969 -0.198242,0.480469 0.05908,0.140625 0.196777,0.226562 0.340332,0.226562 0.04736,0 0.09521,-0.0078 0.141601,-0.02734 l 6.358399,-2.650391 c -4.125489,4.111328 -8.60791,8.576172 -11.462891,11.419922 -0.144043,0.144531 -0.145508,0.378906 -0.0015,0.521484 0.07227,0.07227 0.167481,0.107422 0.262207,0.107422 0.09424,0 0.187989,-0.03516 0.259766,-0.105469 h -0.0015 c 2.847726,-2.839811 7.3155,-7.28903 11.430246,-11.390593 l -2.561035,6.320313 c -0.07715,0.1875 0.01367,0.402344 0.203125,0.478515 0.04492,0.01953 0.09277,0.02734 0.138672,0.02734 0.145507,0 0.282714,-0.08789 0.340332,-0.230469 l 2.574707,-6.351562 V 43.71582 c 0,0.203125 0.165527,0.369141 0.368652,0.369141 0.203125,0 0.367676,-0.166016 0.367676,-0.369141 V 27.504883 c 1.391113,3.472656 2.57666,6.414062 2.57666,6.414062 0.05615,0.144532 0.195312,0.230469 0.34082,0.230469 0.04541,0 0.09131,-0.0078 0.136719,-0.02539 0.188965,-0.07617 0.279785,-0.289062 0.205566,-0.478515 0,0 -1.180175,-2.927735 -2.567871,-6.392578 l 11.411621,11.458984 c 0.07129,0.07227 0.166016,0.107422 0.260743,0.107422 0.09375,0 0.1875,-0.0332 0.259277,-0.105469 0.144043,-0.142578 0.144043,-0.378906 0,-0.521485 z"
         id="path92" />
      <circle
         style="fill:#3b6e8f"
         cx="9.6877441"
         cy="41.756836"
         r="2.9746478"
         id="circle94" />
      <circle
         style="fill:#3b6e8f"
         cx="13.469971"
         cy="30.868164"
         r="2.9739041"
         id="circle96" />
      <circle
         style="fill:#3b6e8f"
         cx="41.890381"
         cy="9.6599121"
         r="2.9741299"
         id="circle98" />
      <circle
         style="fill:#3b6e8f"
         cx="38.108887"
         cy="20.548828"
         r="2.9735489"
         id="circle100" />
      <circle
         style="fill:#3b6e8f"
         cx="41.838379"
         cy="41.807617"
         r="2.9744751"
         id="circle102" />
      <circle
         style="fill:#3b6e8f"
         cx="30.94873"
         cy="38.027344"
         r="2.9741187"
         id="circle104" />
      <circle
         style="fill:#3b6e8f"
         cx="9.7404785"
         cy="9.607666"
         r="2.9748204"
         id="circle106" />
      <circle
         style="fill:#3b6e8f"
         cx="20.629883"
         cy="13.389404"
         r="2.9738338"
         id="circle108" />
      <circle
         style="fill:#3b6e8f"
         cx="25.751953"
         cy="48.44043"
         r="2.9746094"
         id="circle110" />
      <circle
         style="fill:#3b6e8f"
         cx="20.72583"
         cy="38.067383"
         r="2.9742043"
         id="circle112" />
      <circle
         style="fill:#3b6e8f"
         cx="25.827393"
         cy="2.9746094"
         r="2.973877"
         id="circle114" />
      <circle
         style="fill:#3b6e8f"
         cx="30.852295"
         cy="13.349854"
         r="2.9744799"
         id="circle116" />
      <circle
         style="fill:#3b6e8f"
         cx="38.148438"
         cy="30.771484"
         r="2.9735258"
         id="circle118" />
      <circle
         style="fill:#3b6e8f"
         cx="2.9760742"
         cy="25.670898"
         r="2.9746094"
         id="circle120" />
      <circle
         style="fill:#3b6e8f"
         cx="13.429443"
         cy="20.644287"
         r="2.9733915"
         id="circle122" />
    </g>
  </g>
</svg>
