<?xml version="1.0" encoding="UTF-8" standalone="no"?>
<svg
   xmlns:dc="http://purl.org/dc/elements/1.1/"
   xmlns:cc="http://creativecommons.org/ns#"
   xmlns:rdf="http://www.w3.org/1999/02/22-rdf-syntax-ns#"
   xmlns:svg="http://www.w3.org/2000/svg"
   xmlns="http://www.w3.org/2000/svg"
   viewBox="0 0 13.536547 13.602884"
   version="1.1"
   id="svg8">
  <defs
     id="defs2" />
  <metadata
     id="metadata5">
    <rdf:RDF>
      <cc:Work
         rdf:about="">
        <dc:format>image/svg+xml</dc:format>
        <dc:type
           rdf:resource="http://purl.org/dc/dcmitype/StillImage" />
        <dc:title></dc:title>
      </cc:Work>
    </rdf:RDF>
  </metadata>
  <g
     id="layer1"
     transform="translate(-32.002403,-31.5357)">
    <g
       id="g156"
       transform="matrix(0.26458333,0,0,0.26458333,32.001062,31.536528)">
      <path
         id="path72"
         d="m 25.650391,26.046875 c -0.957872,-1.090756 1.441578,-0.657181 2.175966,-0.736816 5.228779,0 10.457559,0 15.686338,0 0.958231,1.091111 -1.441597,0.656951 -2.175966,0.736816 -5.228779,0 -10.457559,0 -15.686338,0 z"
         style="fill:#f15a29" />
      <path
         id="circle74"
         d="m 51.162842,25.708252 c 0.139337,2.566731 -3.419459,4.011905 -5.108044,2.07226 -1.857616,-1.717764 -0.392524,-5.18215 2.133679,-5.046625 1.600735,-0.03178 3.005958,1.372636 2.974365,2.974365 z"
         style="fill:#f15a29" />
      <path
         id="path92"
         d="m 38.743164,38.192383 c -3.801921,-3.817708 -7.603841,-7.635417 -11.405762,-11.453125 2.172488,0.872437 4.323537,1.816141 6.509278,2.644527 0.959084,-0.855988 -1.240314,-1.123946 -1.872722,-1.535562 -1.740831,-0.71487 -3.481662,-1.42974 -5.222493,-2.14461 2.417155,-1.012044 4.83431,-2.024089 7.251465,-3.036133 0.463641,-1.376525 -1.583687,-0.04951 -2.291785,0.160735 -1.443591,0.604462 -2.887183,1.208925 -4.330774,1.813387 3.825436,-3.812585 7.650962,-7.62508 11.476563,-11.4375 -0.419151,-1.574291 -2.392688,1.757168 -3.296714,2.247095 -2.944007,2.933944 -5.887913,5.867989 -8.831668,8.802186 0.890299,-2.186198 1.780599,-4.372396 2.670898,-6.558594 -0.648688,-1.296407 -1.151235,1.089593 -1.502498,1.739318 -0.592429,1.454407 -1.184858,2.908814 -1.777287,4.363221 0,-5.40282 0,-10.805641 0,-16.2084608 -1.089912,-0.9581054 -0.656821,1.4417425 -0.736328,2.1759656 0,4.6418662 0,9.2837312 0,13.9255972 -1.178138,-1.81663 -1.429655,-5.780629 -3.209473,-6.301636 0.475889,2.078977 2.280361,5.342171 2.408545,6.586303 -3.778446,-3.793782 -7.556893,-7.587565 -11.335339,-11.381347 -1.45018,0.08862 0.552132,1.485144 1.014126,2.061649 3.326997,3.340116 6.653994,6.680231 9.980991,10.020347 -2.145182,-0.87793 -4.290364,-1.755859 -6.435546,-2.633789 -1.300733,0.64389 1.085337,1.152877 1.73444,1.504609 1.429828,0.585377 2.859657,1.170755 4.289485,1.756133 -5.377116,0 -10.754231,0 -16.1313472,0 -0.9591003,1.090799 1.4415396,0.657126 2.1759656,0.736817 4.7222696,0 9.4445386,0 14.1668076,0 -2.16097,0.901204 -4.32194,1.802409 -6.48291,2.703613 -0.518696,1.380713 1.49333,0.100946 2.158258,-0.101691 1.494611,-0.623003 2.989221,-1.246006 4.483832,-1.869009 -3.820377,3.80723 -7.64157,7.61364 -11.462891,11.419922 0.414435,1.653595 2.353,-1.739832 3.262291,-2.211034 2.895612,-2.885405 5.791783,-5.770248 8.686928,-8.656122 -0.853678,2.106771 -1.707357,4.213542 -2.561035,6.320313 0.590413,1.351761 1.134926,-1.000024 1.445085,-1.606756 0.603917,-1.489806 1.207834,-2.979613 1.811751,-4.46942 0,5.382163 0,10.764325 0,16.146488 1.089696,0.960525 0.656904,-1.441624 0.736328,-2.175966 0,-4.678323 0,-9.356647 0,-14.034971 0.918712,2.185763 1.695106,4.455546 2.713561,6.583496 1.176008,-1.013568 -1.200893,-3.845773 -1.512908,-5.565978 -1.107438,-2.110897 0.23365,-0.503258 1.026691,0.272353 3.292057,3.30572 6.584114,6.611441 9.876171,9.917161 0.330845,0.346426 0.867967,-0.188163 0.52002,-0.519532 z"
         style="fill:#3b6e8f" />
      <path
         id="circle94"
         d="m 12.662392,41.756836 c 0.13935,2.566975 -3.4197834,4.012286 -5.1085295,2.072457 -1.8577917,-1.717928 -0.3925611,-5.182642 2.1338816,-5.047105 1.6008869,-0.03179 3.0062449,1.372767 2.9746479,2.974648 z"
         style="fill:#3b6e8f" />
      <path
         id="circle96"
         d="m 16.443875,30.868164 c 0.139315,2.566333 -3.418929,4.011283 -5.107253,2.071939 -1.8573268,-1.717498 -0.392462,-5.181346 2.133349,-5.045843 1.600487,-0.03178 3.005493,1.372424 2.973904,2.973904 z"
         style="fill:#3b6e8f" />
      <path
         id="circle98"
         d="m 44.864511,9.6599121 c 0.139326,2.5665279 -3.419188,4.0115879 -5.10764,2.0720959 -1.857469,-1.717628 -0.392493,-5.1817394 2.13351,-5.0462258 1.600608,-0.031782 3.005721,1.372528 2.97413,2.9741299 z"
         style="fill:#3b6e8f" />
      <path
         id="circle100"
         d="m 41.082436,20.548828 c 0.139298,2.566027 -3.41852,4.010804 -5.106643,2.071692 -1.857105,-1.717294 -0.392416,-5.180728 2.133094,-5.045241 1.600296,-0.03178 3.005134,1.37226 2.973549,2.973549 z"
         style="fill:#3b6e8f" />
      <path
         id="circle102"
         d="m 44.812854,41.807617 c 0.139342,2.566826 -3.419585,4.012054 -5.108233,2.072337 -1.857684,-1.717828 -0.392538,-5.182341 2.133758,-5.046812 1.600794,-0.03179 3.00607,1.372687 2.974475,2.974475 z"
         style="fill:#3b6e8f" />
      <path
         id="circle104"
         d="m 33.922849,38.027344 c 0.139325,2.566518 -3.419175,4.011573 -5.107621,2.072088 -1.857461,-1.717622 -0.392491,-5.18172 2.133502,-5.046207 1.600603,-0.03178 3.00571,1.372523 2.974119,2.974119 z"
         style="fill:#3b6e8f" />
      <path
         id="circle106"
         d="M 12.715299,9.607666 C 12.854657,12.17479 9.2953171,13.620185 7.606473,11.680243 5.7485736,9.9622158 7.2138891,6.4973006 9.7404785,6.6328456 11.341459,6.601056 12.746897,8.0056923 12.715299,9.607666 Z"
         style="fill:#3b6e8f" />
      <path
         id="circle108"
         d="m 23.603717,13.389404 c 0.139312,2.566273 -3.418848,4.011189 -5.107132,2.07189 -1.857283,-1.717457 -0.392454,-5.181224 2.133298,-5.045724 1.600449,-0.03178 3.005422,1.372392 2.973834,2.973834 z"
         style="fill:#3b6e8f" />
      <path
         id="circle110"
         d="m 28.726562,48.44043 c 0.139349,2.566942 -3.419739,4.012234 -5.108463,2.07243 -1.857768,-1.717906 -0.392556,-5.182575 2.133854,-5.04704 1.600867,-0.03179 3.006206,1.37275 2.974609,2.97461 z"
         style="fill:#3b6e8f" />
      <path
         id="circle112"
         d="m 23.700034,38.067383 c 0.13933,2.566592 -3.419273,4.011688 -5.107767,2.072148 -1.857515,-1.717672 -0.392503,-5.181869 2.133563,-5.046352 1.600649,-0.03178 3.005796,1.372562 2.974204,2.974204 z"
         style="fill:#3b6e8f" />
      <path
         id="circle114"
         d="m 28.80127,2.9746094 c 0.139314,2.5663098 -3.418898,4.0112467 -5.107206,2.07192 C 21.836754,3.3290467 23.301604,-0.13476964 25.827393,7.3242188e-4 27.422428,-0.03571087 28.837669,1.3797207 28.80127,2.9746094 Z"
         style="fill:#3b6e8f" />
      <path
         id="circle116"
         d="m 33.826775,13.349854 c 0.139342,2.566831 -3.419591,4.01206 -5.108241,2.072341 -1.857687,-1.717831 -0.392539,-5.18235 2.133761,-5.04682 1.600797,-0.03179 3.006075,1.372689 2.97448,2.974479 z"
         style="fill:#3b6e8f" />
      <path
         id="circle118"
         d="m 41.121963,30.771484 c 0.139298,2.566007 -3.418493,4.010773 -5.106602,2.071676 -1.857091,-1.71728 -0.392413,-5.180687 2.133077,-5.045201 1.600283,-0.03178 3.00511,1.372249 2.973525,2.973525 z"
         style="fill:#3b6e8f" />
      <path
         id="circle120"
         d="m 5.9506836,25.670898 c 0.1393483,2.566942 -3.4197392,4.012235 -5.10846353,2.072431 -1.85776767,-1.717906 -0.39255602,-5.182575 2.13385413,-5.04704 1.6008666,-0.03179 3.0062056,1.372749 2.9746094,2.974609 z"
         style="fill:#3b6e8f" />
      <path
         id="circle122"
         d="m 16.402835,20.644287 c 0.139291,2.565891 -3.418339,4.010592 -5.106372,2.071582 -1.8570072,-1.717202 -0.392395,-5.180453 2.13298,-5.044973 1.600212,-0.03177 3.004975,1.372187 2.973392,2.973391 z"
         style="fill:#3b6e8f" />
    </g>
  </g>
</svg>
