<svg xmlns="http://www.w3.org/2000/svg" viewBox="0 0 218.769 77.35"><g fill="#00478c"><path d="M5.844 16.413l47.64.155v14.09c.155.92-1.045.76-1.225-.15-.46-2.3-4.435-7.815-5.205-8.275h-19.92v17.16h16.695c1.23-.46 3.185-3.825 4.45-7.205.455-1.22 1.39-.455 1.375-.145-.305 5.51-.23 15.61-.15 19.755.024 1.545-.77 1.995-1.225.615-.455-1.375-2.76-6.125-4.29-7.355H27.134v19.61h21.6c1.225-.915 4.39-7.84 4.75-9.65.155-.765 1.38-.765 1.38-.155v16.24l-33.855-.46c-6.89 0-8.58 0-15.165.615-1.08.1-1.055-1.485-.31-1.84 7.505-3.52 8.43-1.535 8.43-12.255v-29.26c0-7.965-2.29-7.655-8.43-9.96-.64-.24-.3-1.375.31-1.53m59.285-.31l22.21.465 17.005 34.925 17.62-34.465h15.015c1.225 0 5.98-.46 6.74-.615.77-.155.92 1.38.304 1.685-.615.305-7.97 3.37-8.73 4.445l4.44 42.585c.615 1.38 8.1 4.54 9.34 4.75.925.155.64 1.255.156 1.225-4.74-.305-26.17-.305-30.79 0-.46.028-2.395-.725-.306-1.38 2.45-.76 7.355-2.45 8.425-4.29l-3.065-37.07-21.14 42.74h-3.52l-19.305-41.82-3.37 35.845c1.38 2.755 7.815 3.985 8.58 4.29.76.305.76 1.445.15 1.38-4.595-.46-21.76-.155-23.585.155-.925.15-2.59-1.015-.465-1.69 6-1.895 7.97-.15 9.345-14.09l3.68-30.64c.455-5.055-5.965-5.67-8.885-6.74-.435-.16-.925-1.69.15-1.69"/><path d="M193.244 30.198l.46-14.095c-6.29-.76-21.79-3.31-34.625 6.13-13.31 9.795-16.945 34.84.31 46.115 11.485 7.505 32.475 2.295 34.01 1.53.61-.305 1.375-.765 1.375-1.38 0-.615.154-13.175.154-13.785 0-.61-.92-.46-1.38.15-.455.615-2.81 9.595-5.055 10.725-4.94 2.495-16.685 4.075-22.825-8.425-4.04-8.23-4.16-19.385 1.68-29.565 6.08-10.585 17.47-7.55 18.85-6.74 2.6 1.53 4.2 4.925 5.36 9.195.46 1.68 1.535 1.375 1.685.145m4.296-21.29c6.425-5.975 12.1-3.83 14.085-1.84 1.995 1.99 3.305 6.355-1.37 11.03-2.305 2.3-7.055 5.975-7.055 5.975h7.355c.765-.155 2.11-2.78 2.605-3.525.31-.455.61-.305.61.31v7.81c-2.145-.155-14.855-.155-16.845-.155v-2.6c3.365-2.605 6.585-6.28 9.035-9.345 2.45-3.065 2.05-11.235-6.585-6.435-1.38.765-2.3 0-1.835-1.225"/></g></svg>