<svg xmlns="http://www.w3.org/2000/svg" xmlns:xlink="http://www.w3.org/1999/xlink" viewBox="0 0 250 110"><g fill="#004685"><path d="M114.75 89.81v-7.73h2.426c3.417 0 7.158.12 7.158 3.624 0 3.705-3.61 4.107-7.875 4.107h-1.71m0 4.23h3.15l9.462 11.394h9.91l-11.558-12.357c2.43-.768 7.486-2.258 7.486-7.455 0-7.57-10.244-7.773-15.3-7.773h-10.635c-1.118 0-1.382.12-1.382.85v26.75s.264-.007 1.382-.007h6.106l1.378.006V94.04zM183.205 101.895c-4.924 0-7.023-3.95-7.023-10.232 0-6.28 2.1-10.268 7.023-10.268 4.925 0 7.027 3.945 7.027 10.268 0 6.282-2.102 10.232-7.027 10.232m16.352-10.233c0-9.746-6.24-14.498-16.352-14.498s-16.35 4.713-16.35 14.498c0 9.75 6.17 14.46 16.35 14.46 10.178 0 16.352-4.71 16.352-14.46M85.868 93.195h12.42v-4.35H85.87V82.2h13.858l1.885-4.352H78.27c-.912.006-1.212.12-1.266.633v26.952l24.295.008v-3.504l.005-.85H85.868v-7.89M232.94 77.848h-4.797l-1.38-.006s.167 16.664.167 17.95l-14.81-17.42c-.392-.442-.524-.524-1.51-.524h-5.384l-.153.002c-.857.006-1.16.12-1.224.594v27.004s.26-.006 1.376-.006h4.795c1.116 0 1.38.006 1.38.006V90.094c0-1.854-.056-3.078-.056-3.605 0 0 15.14 17.71 15.75 18.384.606.68 1.51.568 1.51.568h4.334l1.376.016V77.842l-1.375.006M13.866 93.195h12.417v-4.35H13.866V82.2h13.857l1.886-4.352H6.274c-.988.007-1.257.14-1.275.78v26.806l24.295.008v-3.504l.008-.85H13.866v-7.893M52.77 95.008L42.222 78.586c-.393-.44-.524-.52-1.51-.52H35.33l-1.38.006v27.594s.264-.01 1.38-.01h4.796c1.114 0 1.374.01 1.374.01V90.31c0-1.853-.05-2.58-.05-3.104 0 0 10.403 16.66 11.432 17.832l.056-.002c1.04-1.176 10.902-17.83 10.902-17.83 0 .525-.056 1.252-.056 3.105v15.356s.264-.01 1.378-.01h4.792c1.12 0 1.382.01 1.382.01V78.072l-1.382-.006H64.57c-.987 0-1.116.078-1.51.52L53.05 95.008h-.28M159.53 90.57c-5.466-2.617-12.912-2.854-12.912-5.912 0-2.418 2.422-3.143 5.28-3.143 4.47 0 8.32 1.77 8.692 1.77.248 0 .497-.16.684-.403l.42-.545 2.224-2.832c0-.002.002-.002.002-.002l-.063-.025c-.14-.066-.523-.242-1.063-.455-.438-.17-.71-.264-.848-.307-2.216-.736-6.3-1.553-10.296-1.553-7.205 0-13.662 2.416-13.662 8.217 0 3.344 1.526 5.455 4.82 6.748 6.333 2.496 12.692 2.355 12.692 5.94 0 2.495-1.552 3.704-5.03 3.704-5.343 0-9.94-1.773-10.307-1.773-.25 0-.563.163-.686.403l-.68 1.266-1.19 2.206.972.367c1.978.783 7.153 1.88 12.137 1.88 7.827 0 13.56-2.564 13.413-8.5-.07-3.057-1.434-5.523-4.6-7.053M239.377 102.28v3.187h-.515v-3.188h-1.206v-.3h2.933v.3M244.526 105.467v-3.197l-1.24 3.197h-.47l-1.255-3.168v3.167h-.41v-3.49h.75l1.213 2.986 1.158-2.986h.73v3.49"/></g><defs><path id="a" d="M116.662 11.37c-.033.067-.075.202-.033.394.205.528 15.078 18.76 15.078 18.76l7.51 3.126c2.41 1.037 2.895.765 3.058.58l.036-.062c.146-.277-.268-.865-.87-1.615L121.72 8.398c-1.838-2.203-1.678-2.642-1.587-2.865l-3.468 5.836z"/></defs><clipPath id="b"><use xlink:href="#a" overflow="visible"/></clipPath><linearGradient id="c" gradientUnits="userSpaceOnUse" x1="-200.106" y1="462.805" x2="-198.133" y2="462.805" gradientTransform="scale(17.0525) rotate(30.29 -952.922 151.198)"><stop offset="0" stop-color="#949698"/><stop offset=".103" stop-color="#9FA1A3"/><stop offset=".284" stop-color="#BCBEBF"/><stop offset=".5" stop-color="#E7E8E9"/><stop offset=".6" stop-color="#DDDEDF"/><stop offset=".772" stop-color="#C2C3C5"/><stop offset=".993" stop-color="#96989A"/><stop offset="1" stop-color="#949698"/></linearGradient><path clip-path="url(#b)" fill="url(#c)" d="M123.17-5.736l31.986 18.685-19.278 33.006-31.99-18.685"/><defs><path id="d" d="M106.815 28.008l-.02.037c-.16.276.224.908.828 1.655l1.436 1.763 12.235 5.085-3.933-4.815-7.51-3.125c-1.373-.592-2.12-.757-2.535-.757h-.01c-.29 0-.42.085-.492.158"/></defs><clipPath id="e"><use xlink:href="#d" overflow="visible"/></clipPath><linearGradient id="f" gradientUnits="userSpaceOnUse" x1="-219.748" y1="473.059" x2="-217.775" y2="473.059" gradientTransform="scale(8.52) rotate(30.29 -983.574 194.217)"><stop offset="0" stop-color="#949698"/><stop offset=".206" stop-color="#9FA1A3"/><stop offset=".568" stop-color="#BCBEBF"/><stop offset="1" stop-color="#E7E8E9"/></linearGradient><path clip-path="url(#e)" fill="url(#f)" d="M110.365 21.466l14.718 8.598-7.517 12.87-14.718-8.598"/><defs><path id="g" d="M110.326 22.135c-.017.01-.092.084-.106.11l-3.436 5.802c.01-.013.017-.025.03-.04.176-.18.69-.41 3.036.6l27.152 11.29c.41.15 1.35.446 1.74.227.04-.025.146-.152.165-.193l3.384-5.718c-.005.006-.01.01-.016.02-.162.184-.647.456-3.06-.58l-27.167-11.296c-.312-.112-.898-.3-1.34-.3-.147 0-.282.023-.38.08"/></defs><clipPath id="h"><use xlink:href="#g" overflow="visible"/></clipPath><linearGradient id="i" gradientUnits="userSpaceOnUse" x1="-200.038" y1="462.414" x2="-198.065" y2="462.414" gradientTransform="matrix(14.778 8.632 8.632 -14.778 -925.51 8582.99)"><stop offset="0" stop-color="#004786"/><stop offset=".202" stop-color="#004786"/><stop offset=".275" stop-color="#175490"/><stop offset=".425" stop-color="#5076A9"/><stop offset=".506" stop-color="#7289B7"/><stop offset=".56" stop-color="#5B7CAD"/><stop offset=".725" stop-color="#1A5691"/><stop offset=".803" stop-color="#004786"/><stop offset="1" stop-color="#004786"/></linearGradient><path clip-path="url(#h)" fill="url(#i)" d="M115.818 6.59l34.44 20.118-17 29.1-34.44-20.117"/><g><defs><path id="j" d="M101.888 36.323l-.017.03c-.157.276.226.91.83 1.654l1.436 1.763 11.932 4.964.08.03.227.093-3.935-4.813-7.513-3.125c-1.372-.594-2.116-.762-2.532-.762-.302 0-.434.088-.507.165"/></defs><clipPath id="k"><use xlink:href="#j" overflow="visible"/></clipPath><linearGradient id="l" gradientUnits="userSpaceOnUse" x1="-219.749" y1="472.499" x2="-217.776" y2="472.499" gradientTransform="scale(8.5208) rotate(30.29 -984.62 193.913)"><stop offset="0" stop-color="#949698"/><stop offset=".206" stop-color="#9FA1A3"/><stop offset=".568" stop-color="#BCBEBF"/><stop offset="1" stop-color="#E7E8E9"/></linearGradient><path clip-path="url(#k)" fill="url(#l)" d="M105.44 29.773l14.724 8.6-7.52 12.87-14.72-8.597"/></g><g><defs><path id="m" d="M96.965 44.63l-.017.03c-.16.276.227.91.83 1.654l19.72 24.16c1.758 2.105 1.78 2.533 1.63 2.797l3.427-5.765s.125-.166.05-.45c-.116-.317-.44-.755-.854-1.27L107.516 48.35l-7.513-3.125c-1.368-.593-2.116-.76-2.532-.76-.3 0-.434.088-.505.165"/></defs><clipPath id="n"><use xlink:href="#m" overflow="visible"/></clipPath><linearGradient id="o" gradientUnits="userSpaceOnUse" x1="-200.119" y1="461.546" x2="-198.145" y2="461.546" gradientTransform="scale(17.047) rotate(30.29 -955.302 150.554)"><stop offset="0" stop-color="#949698"/><stop offset=".103" stop-color="#9FA1A3"/><stop offset=".284" stop-color="#BCBEBF"/><stop offset=".5" stop-color="#E7E8E9"/><stop offset=".6" stop-color="#DDDEDF"/><stop offset=".772" stop-color="#C2C3C5"/><stop offset=".993" stop-color="#96989A"/><stop offset="1" stop-color="#949698"/></linearGradient><path clip-path="url(#n)" fill="url(#o)" d="M103.374 33.19l31.85 18.605-19.13 32.754-31.85-18.607"/></g><g><defs><path id="p" d="M100.48 38.75c-.016.01-.04.04-.04.042-.024.025-.053.046-.065.07 0 0-3.42 5.782-3.41 5.77.17-.184.674-.427 3.036.594l27.15 11.288c.413.148 1.355.445 1.745.225.04-.022.146-.157.165-.194l3.384-5.718c-.002.006-.01.014-.015.018-.16.183-.643.462-3.062-.58l-25.235-10.494-1.933-.8c-.314-.114-.898-.298-1.335-.298-.152-.002-.287.02-.386.077"/></defs><clipPath id="q"><use xlink:href="#p" overflow="visible"/></clipPath><linearGradient id="r" gradientUnits="userSpaceOnUse" x1="-200.046" y1="461.858" x2="-198.073" y2="461.858" gradientTransform="scale(17.1107) rotate(30.29 -954.54 150.573)"><stop offset="0" stop-color="#004786"/><stop offset=".202" stop-color="#004786"/><stop offset=".275" stop-color="#175490"/><stop offset=".425" stop-color="#5076A9"/><stop offset=".506" stop-color="#7289B7"/><stop offset=".56" stop-color="#5B7CAD"/><stop offset=".725" stop-color="#1A5691"/><stop offset=".803" stop-color="#004786"/><stop offset="1" stop-color="#004786"/></linearGradient><path clip-path="url(#q)" fill="url(#r)" d="M105.983 23.216l34.427 20.108-16.994 29.092-34.425-20.11"/></g><g><defs><path id="s" d="M122.85 34.015l3.933 4.817 7.512 3.125c2.416 1.04 2.896.763 3.058.58l.037-.06c.148-.28-.267-.867-.87-1.615l-1.43-1.76-12.24-5.087z"/></defs><clipPath id="t"><use xlink:href="#s" overflow="visible"/></clipPath><linearGradient id="u" gradientUnits="userSpaceOnUse" x1="-218.746" y1="473.214" x2="-216.772" y2="473.214" gradientTransform="matrix(7.3616 4.3 4.3 -7.3616 -301.758 4458.403)"><stop offset="0" stop-color="#E7E8E9"/><stop offset=".201" stop-color="#DDDEDF"/><stop offset=".544" stop-color="#C2C3C5"/><stop offset=".985" stop-color="#96989A"/><stop offset="1" stop-color="#949698"/></linearGradient><path clip-path="url(#t)" fill="url(#u)" d="M126.586 27.62l14.862 8.68-7.647 13.094-14.862-8.68"/></g><g><defs><path id="v" d="M105.4 30.442c-.01.01-.087.084-.1.11l-3.44 5.8.028-.03c.173-.183.673-.426 3.037.595l27.153 11.286c.412.15 1.353.445 1.74.226.044-.022.145-.155.167-.194l3.386-5.72c-.003.01-.01.015-.02.02-.16.184-.64.46-3.057-.58l-7.512-3.124-17.723-7.37-1.933-.8c-.312-.112-.898-.297-1.337-.297-.15 0-.286.02-.386.077"/></defs><clipPath id="w"><use xlink:href="#v" overflow="visible"/></clipPath><linearGradient id="x" gradientUnits="userSpaceOnUse" x1="-200.04" y1="462.135" x2="-198.066" y2="462.135" gradientTransform="scale(17.115) rotate(30.29 -954.008 150.708)"><stop offset="0" stop-color="#004786"/><stop offset=".202" stop-color="#004786"/><stop offset=".275" stop-color="#175490"/><stop offset=".425" stop-color="#5076A9"/><stop offset=".506" stop-color="#7289B7"/><stop offset=".56" stop-color="#5B7CAD"/><stop offset=".725" stop-color="#1A5691"/><stop offset=".803" stop-color="#004786"/><stop offset="1" stop-color="#004786"/></linearGradient><path clip-path="url(#w)" fill="url(#x)" d="M110.895 14.9l34.438 20.117-16.995 29.098-34.44-20.117"/></g><g><defs><path id="y" d="M113 50.63l9.422 11.536c1.76 2.11 1.778 2.533 1.63 2.8l3.445-5.796c.033-.066.087-.213.03-.428-.12-.313-2.287-3.02-2.287-3.02L113 50.63z"/></defs><clipPath id="z"><use xlink:href="#y" overflow="visible"/></clipPath><linearGradient id="A" gradientUnits="userSpaceOnUse" x1="-218.753" y1="471.959" x2="-216.78" y2="471.959" gradientTransform="matrix(7.3616 4.3 4.3 -7.3616 -307.336 4467.837)"><stop offset="0" stop-color="#E7E8E9"/><stop offset=".201" stop-color="#DDDEDF"/><stop offset=".544" stop-color="#C2C3C5"/><stop offset=".985" stop-color="#96989A"/><stop offset="1" stop-color="#949698"/></linearGradient><path clip-path="url(#z)" fill="url(#A)" d="M116.71 44.28l17.115 10-9.952 17.034-17.113-9.996"/></g><g><defs><path id="B" d="M117.924 42.322l3.935 4.817 7.51 3.124c2.42 1.042 2.9.763 3.06.58l.035-.058c.146-.28-.266-.867-.87-1.615l-1.43-1.758-12.24-5.09z"/></defs><clipPath id="C"><use xlink:href="#B" overflow="visible"/></clipPath><linearGradient id="D" gradientUnits="userSpaceOnUse" x1="-218.745" y1="472.65" x2="-216.772" y2="472.65" gradientTransform="scale(8.5267) rotate(30.29 -984.795 195.78)"><stop offset="0" stop-color="#E7E8E9"/><stop offset=".045" stop-color="#E7E8E9"/><stop offset=".237" stop-color="#DDDEDF"/><stop offset=".564" stop-color="#C2C3C5"/><stop offset=".986" stop-color="#96989A"/><stop offset="1" stop-color="#949698"/></linearGradient><path clip-path="url(#C)" fill="url(#D)" d="M121.66 35.926l14.863 8.68-7.648 13.097-14.862-8.683"/></g><g><defs><path id="E" d="M111.74 19.676c-.034.063-.078.197-.036.387.098.328.416.8.842 1.33l1.436 1.763 12.238 5.085-9.423-11.536c-1.842-2.203-1.682-2.64-1.59-2.865l-3.468 5.836z"/></defs><clipPath id="F"><use xlink:href="#E" overflow="visible"/></clipPath><linearGradient id="G" gradientUnits="userSpaceOnUse" x1="-219.716" y1="473.754" x2="-217.742" y2="473.754" gradientTransform="scale(8.5264) rotate(30.29 -982.215 194.514)"><stop offset="0" stop-color="#949698"/><stop offset=".206" stop-color="#9FA1A3"/><stop offset=".568" stop-color="#BCBEBF"/><stop offset="1" stop-color="#E7E8E9"/></linearGradient><path clip-path="url(#F)" fill="url(#G)" d="M115.365 7.498l17.127 10.005-9.976 17.078-17.126-10"/></g></svg>
