<svg xmlns="http://www.w3.org/2000/svg" viewBox="0 0 128 127.99993"><path d="M63.815 0c-.572 0-1.123.07-1.691.084-1.759.047-3.51.117-5.229.302-.988.107-1.947.295-2.918.443-1.308.204-2.62.399-3.9.677-1.013.222-2.001.5-2.993.769a63.327 63.327 0 0 0-3.574 1.046 60.97 60.97 0 0 0-2.902 1.06c-1.15.443-2.283.917-3.396 1.426-.918.417-1.83.85-2.72 1.306A66.176 66.176 0 0 0 31.21 8.94c-.83.49-1.661.97-2.465 1.493-1.13.738-2.209 1.533-3.288 2.338-.686.51-1.392.997-2.058 1.534a65.44 65.44 0 0 0-3.86 3.432c-.346.329-.72.62-1.056.956a63.868 63.868 0 0 0-4.388 4.851c-.067.078-.12.165-.185.242a97.005 97.005 0 0 1 10.67-.567c32.934 0 48.835 16.564 48.835 45.158v2.268H0v.168c.09.852.262 1.68.387 2.526 1.587 7.103 8.934 15.843 24.192 15.843 10.08 0 17.179-3.402 20.726-9.908h26.69C64.758 97.248 47.434 104.75 24.58 104.75c-3.725 0-7.29-.188-10.689-.567.064.074.114.16.175.235a64.94 64.94 0 0 0 4.425 4.891c.245.245.524.463.773.705a66.557 66.557 0 0 0 4.146 3.687c.629.507 1.305.97 1.954 1.453 1.113.835 2.229 1.657 3.392 2.415.784.51 1.594.98 2.401 1.453 1.1.654 2.21 1.285 3.349 1.869a67.726 67.726 0 0 0 6.116 2.734c.948.366 1.9.721 2.865 1.043 1.187.396 2.394.732 3.611 1.06.985.266 1.964.544 2.97.766 1.287.275 2.605.476 3.92.677.968.151 1.923.34 2.905.443 1.725.185 3.483.255 5.249.299.561.016 1.11.087 1.674.087C99.265 128 128 99.342 128 64c0-35.345-28.735-64-64.185-64zM47.581 55.633c0-4.107-5.255-16.846-23.57-16.846-16.836 0-22.286 10.89-23.527 15.235-.1.63-.208 1.258-.289 1.896h47.386v-.285" fill="#c60b46"/></svg>