<svg xmlns="http://www.w3.org/2000/svg" viewBox="0 0 298 71.748918"><path d="M206.28 59.68c-12.827 0-17.77-11.808-17.77-23.808s4.943-23.8 17.77-23.8c12.816 0 17.773 11.8 17.773 23.8S219.096 59.68 206.28 59.68m0-59.68c-20.2 0-31.862 15.136-31.862 35.872 0 20.744 11.663 35.877 31.863 35.877 20.19 0 31.852-15.134 31.852-35.878 0-20.736-11.66-35.87-31.85-35.87M0 2.013h50.615v12.073H14.08v15.018h34.07v11.768H14.08V57.67h36.535v12.067H0V2.013zM83.472 37.35H70.726V14.072h12.746c8.86 0 14.752 3.857 14.752 11.644 0 7.785-5.892 11.637-14.752 11.637m-26.82 32.385h14.074v-20.32h12.746c17.25 0 28.828-8.473 28.828-23.7 0-15.23-11.577-23.702-28.828-23.702h-26.82v67.722zM257.905 2.013H243.45v67.724h13.803V42.305c0-7.51-.268-14.17-.523-20.058 1.627 3.39 6.57 13.577 8.85 17.403l17.965 30.087H298V2.013h-13.803V28.76c0 7.5.276 14.86.523 20.735-1.627-3.39-6.557-13.57-8.87-17.393l-17.945-30.09zM128.29 47.33c0 9.102 7.57 12.64 15.623 12.64 5.257 0 13.793-1.525 13.793-8.516 0-7.383-10.43-8.778-20.492-11.456-10.552-2.794-20.715-6.752-20.715-19.3C116.5 6.707 129.73 0 142.09 0c14.27 0 27.396 6.23 27.396 22.034h-14.082c-.478-8.236-6.8-10.35-13.987-10.35-4.794 0-10.83 2.014-10.83 7.77 0 5.266 3.444 6.078 20.582 10.49 4.99 1.247 20.618 4.264 20.618 19.778 0 12.557-9.87 21.937-28.465 21.937-15.128 0-29.307-7.468-29.12-24.33h14.084z" fill="#003f98"/></svg>
