<svg xmlns="http://www.w3.org/2000/svg" version="1" viewBox="0 0 166.61016 252.23727" height="125.139" width="519.758" clip-rule="evenodd" fill-rule="evenodd" image-rendering="optimizeQuality" shape-rendering="geometricPrecision" text-rendering="geometricPrecision"><path d="M284.689 0C213.69 0 172.715 53.206 172.715 126.115c0 72.916 40.976 126.122 111.974 126.122 70.995 0 111.983-53.206 111.983-126.122C396.672 53.206 355.685 0 284.689 0zm0 209.809c-45.088 0-62.48-41.515-62.48-83.694 0-42.18 17.392-83.695 62.48-83.695 45.096 0 62.489 41.514 62.489 83.695 0 42.18-17.393 83.694-62.49 83.694zm-675.697-7.086h128.432v42.44h-177.946V7.065h177.946v42.44h-128.432v52.805h119.776v41.387h-119.776zm149.647 42.439h49.494v-71.424h44.848c60.59 0 101.306-29.803 101.306-83.337 0-53.535-40.715-83.336-101.306-83.336h-94.343v238.097zm94.342-113.844h-44.848V49.485h44.848c31.115 0 51.813 13.55 51.813 40.916 0 27.364-20.698 40.917-51.813 40.917zM466.23 7.066h-50.838v238.097h48.502v-96.45c0-26.37-.957-49.804-1.842-70.502 5.723 11.912 23.064 47.734 31.134 61.186l63.137 105.766h50.81V7.066h-48.5v94.052c0 26.358.954 52.21 1.85 72.9-5.73-11.904-23.086-47.726-31.156-61.178L466.229 7.066zM10.5 166.385c0 32 26.619 44.467 54.927 44.467 18.51 0 48.51-5.393 48.51-29.98 0-25.942-36.689-30.836-72.062-40.271-37.106-9.8-72.79-23.741-72.79-67.853C-30.915 23.584 15.555 0 59.01 0c50.19 0 96.322 21.891 96.322 77.476h-49.497c-1.69-28.977-23.91-36.39-49.175-36.39-16.856 0-38.082 7.074-38.082 27.284 0 18.529 12.1 21.404 72.404 36.897 17.51 4.37 72.449 14.978 72.449 69.546 0 44.112-34.678 77.117-100.044 77.117-53.217 0-103.058-26.26-102.393-85.545H10.5z" fill="#084da5" fill-rule="nonzero"/></svg>