<?xml version="1.0" encoding="UTF-8" standalone="no"?>
<svg
   xmlns:dc="http://purl.org/dc/elements/1.1/"
   xmlns:cc="http://creativecommons.org/ns#"
   xmlns:rdf="http://www.w3.org/1999/02/22-rdf-syntax-ns#"
   xmlns:svg="http://www.w3.org/2000/svg"
   xmlns="http://www.w3.org/2000/svg"
   version="1.1"
   id="svg4748"
   viewBox="0 0 300 73.748918"
   height="73.748917"
   width="300">
  <defs
     id="defs4750" />
  <metadata
     id="metadata4753">
    <rdf:RDF>
      <cc:Work
         rdf:about="">
        <dc:format>image/svg+xml</dc:format>
        <dc:type
           rdf:resource="http://purl.org/dc/dcmitype/StillImage" />
        <dc:title></dc:title>
      </cc:Work>
    </rdf:RDF>
  </metadata>
  <g
     transform="translate(-230.98971,-522.3902)"
     id="layer1">
    <g
       transform="matrix(2.6281465,0,0,-2.6281465,438.2711,583.07067)"
       id="g3414">
      <path
         id="path3416"
         style="fill:#003f98;fill-opacity:1;fill-rule:nonzero;stroke:none"
         d="m 0,0 c -4.881,0 -6.762,4.493 -6.762,9.059 0,4.566 1.881,9.056 6.762,9.056 4.876,0 6.762,-4.49 6.762,-9.056 C 6.762,4.493 4.876,0 0,0 m 0,22.708 c -7.686,0 -12.124,-5.759 -12.124,-13.649 0,-7.893 4.438,-13.651 12.124,-13.651 7.682,0 12.119,5.758 12.119,13.651 0,7.89 -4.437,13.649 -12.119,13.649" />
    </g>
    <g
       transform="matrix(2.6281465,0,0,-2.6281465,231.98971,525.40283)"
       id="g3418">
      <path
         id="path3420"
         style="fill:#003f98;fill-opacity:1;fill-rule:nonzero;stroke:none"
         d="m 0,0 19.259,0 0,-4.594 -13.902,0 0,-5.714 12.964,0 0,-4.478 -12.964,0 0,-6.391 13.902,0 0,-4.592 L 0,-25.769 0,0 Z" />
    </g>
    <g
       transform="matrix(2.6281465,0,0,-2.6281465,315.46174,560.74167)"
       id="g3422">
      <path
         id="path3424"
         style="fill:#003f98;fill-opacity:1;fill-rule:nonzero;stroke:none"
         d="m 0,0 -4.85,0 0,8.853 0,0.005 4.85,0 c 3.371,0 5.613,-1.467 5.613,-4.43 C 5.613,1.466 3.371,0 0,0 m -10.205,-12.322 5.355,0 0,7.732 4.85,0 c 6.564,0 10.969,3.224 10.969,9.018 0,5.795 -4.405,9.018 -10.969,9.018 l -10.205,0 0,-25.768 z" />
    </g>
    <g
       transform="matrix(2.6281465,0,0,-2.6281465,489.89471,525.40283)"
       id="g3426">
      <path
         id="path3428"
         style="fill:#003f98;fill-opacity:1;fill-rule:nonzero;stroke:none"
         d="m 0,0 -5.5,0 0,-25.769 5.252,0 0,10.438 c 0,2.857 -0.102,5.391 -0.199,7.632 0.619,-1.29 2.5,-5.166 3.367,-6.622 l 6.836,-11.448 5.5,0 0,25.769 -5.252,0 0,-10.177 c 0,-2.854 0.105,-5.654 0.199,-7.89 -0.619,1.29 -2.495,5.164 -3.375,6.618 L 0,0 Z" />
    </g>
    <g
       transform="matrix(2.6281465,0,0,-2.6281465,360.27875,570.72049)"
       id="g3430">
      <path
         id="path3432"
         style="fill:#003f98;fill-opacity:1;fill-rule:nonzero;stroke:none"
         d="m 0,0 c 0,-3.463 2.881,-4.809 5.945,-4.809 2,0 5.248,0.58 5.248,3.24 0,2.809 -3.968,3.34 -7.797,4.359 -4.015,1.063 -7.882,2.569 -7.882,7.344 0,5.323 5.035,7.875 9.738,7.875 5.43,0 10.424,-2.37 10.424,-8.384 l -5.358,0 c -0.182,3.134 -2.588,3.938 -5.322,3.938 -1.824,0 -4.121,-0.766 -4.121,-2.956 0,-2.004 1.311,-2.313 7.832,-3.992 1.898,-0.474 7.845,-1.622 7.845,-7.525 0,-4.778 -3.755,-8.347 -10.831,-8.347 -5.756,0 -11.151,2.841 -11.08,9.257 L 0,0 Z" />
    </g>
  </g>
</svg>
