<svg viewBox="0 0 173.539 156.934" xmlns="http://www.w3.org/2000/svg"><g fill="#002661"><path d="m67.563 50.724a7.937 7.937 0 0 1 -5.464-14.902l43.878-16.087a7.935 7.935 0 1 1 5.463 14.901zm0 23.75a7.937 7.937 0 0 1 -5.464-14.903l43.878-16.087a7.935 7.935 0 1 1 5.463 14.901zm0 23.75a7.937 7.937 0 0 1 -5.464-14.903l43.878-16.088a7.936 7.936 0 0 1 5.463 14.903z"/><path d="m19.248 117.958h14.719v4h-9.522v3.477h9.131v4.15h-9.131v3.591h9.676v4.03h-14.873zm37.591 0h5.237v19.259h-5.237zm24.341.618-.352 4.122c-4.23-2.448-10.715-1.668-10.829 4.753-.119 6.415 6.677 7.353 10.986 5.173l.271 4.207c-7.608 2.37-16.697-.041-16.657-9.38.038-9.149 9.202-11.679 16.581-8.875zm15.416-.298-.353 4.011c-2.639-1.454-7.649-1.492-7.649.79 0 3.38 8.932.94 8.932 8.177 0 7.119-8.502 7.198-14.018 5.547l.391-4.245c3.455 1.61 8.349 1.963 8.349-.829 0-3.066-8.971-1.339-8.971-8.22-.001-5.644 6.989-7.157 13.319-5.231zm15.8 0-.348 4.011c-2.642-1.454-7.649-1.492-7.649.79 0 3.38 8.932.94 8.932 8.177 0 7.119-8.506 7.198-14.021 5.547l.393-4.245c3.454 1.61 8.346 1.963 8.346-.829 0-3.066-8.968-1.339-8.968-8.22-.002-5.644 6.986-7.157 13.315-5.231zm24.114-.32h6.635l6.332 12.422v-12.422h4.814v19.259h-6.25l-6.678-12.657v12.657h-4.853zm-12.075-.464c5.44.004 9.59 3.188 9.59 10.135 0 6.641-4.171 10.058-9.59 10.058-5.41.002-9.556-3.338-9.556-10.058 0-6.948 4.124-10.135 9.556-10.135zm-4.195 10.134c0 2.936 1.259 6.258 4.194 6.253 2.936-.004 4.171-3.317 4.192-6.253.021-2.654-1.257-6.246-4.192-6.251-2.935-.001-4.194 3.318-4.194 6.251zm-77.461-1.555h2.873c1.293.021 2.459-.756 2.446-2.176-.008-1.258-1.04-2.152-2.37-2.133h-2.949zm-5.009-8.115h9.437c2.563 0 6.133 1.125 6.133 5.127 0 2.559-1.161 3.994-3.368 4.658.104-.008 1.26.496 1.738 1.943.019.048 2.699 7.514 2.73 7.531h-5.564l-1.98-5.787c-.304-.889-.965-1.477-1.903-1.477-.815 0-2.097-.053-2.097 0v7.264h-5.126z"/></g></svg>