<svg xmlns="http://www.w3.org/2000/svg" width="400" height="400" fill="none" viewBox="0 0 400 400"><g clip-path="url(#clip0_2_140)"><path fill="#18BCF2" d="M320 299C320 307.25 313.25 314 305 314H95C86.75 314 80 307.25 80 299V209C80 200.75 84.7812 189.218 90.6125 183.387L189.387 84.5934C195.219 78.7622 204.763 78.7622 210.594 84.5934L309.387 183.387C315.219 189.218 320 200.75 320 209V299Z"/><path fill="#F2F4F9" d="M239.994 158.656H159.987C156.669 158.656 153.987 161.337 153.987 164.656V314H165.987V170.656H233.994V182.656H183.987C180.669 182.656 177.987 185.337 177.987 188.656V212.656C177.987 215.975 180.669 218.656 183.987 218.656H233.994V230.656H183.987C180.669 230.656 177.987 233.337 177.987 236.656V260.656C177.987 263.975 180.669 266.656 183.987 266.656H233.994V278.656H183.987C180.669 278.656 177.987 281.337 177.987 284.656C177.987 287.975 180.669 290.656 183.987 290.656H239.994C243.312 290.656 245.994 287.975 245.994 284.656V260.656C245.994 257.337 243.312 254.656 239.994 254.656H189.987V242.656H239.994C243.312 242.656 245.994 239.975 245.994 236.656V212.656C245.994 209.337 243.312 206.656 239.994 206.656H189.987V194.656H239.994C243.312 194.656 245.994 191.975 245.994 188.656V164.656C245.994 161.337 243.312 158.656 239.994 158.656Z"/></g><defs><clipPath id="clip0_2_140"><rect width="400" height="400" fill="#fff"/></clipPath></defs></svg>