<svg version="1.1" viewBox="0 0 79.7 82.2" xmlns="http://www.w3.org/2000/svg"><path d="m12.3 81.4c13.5-8.31 23.9-18.3 28.5-27.1 2.06-4.02 2.76-6.66 2.79-10.5 0.0181-2.9-0.0505-3.37-0.798-5.48-1.55-4.39-4.59-8.87-9.34-13.8-7.14-7.4-18.5-15.8-31.1-23-3.62-2.07-3.44-2.06 3.44 0.207 26.4 8.69 45.2 20.3 51.6 31.9 3.49 6.35 3.59 13.2 0.294 20-1.57 3.23-3.73 6.06-7.05 9.24-5.86 5.61-14.4 10.6-25.4 14.9-3.92 1.53-11.5 3.99-13.5 4.39-0.854 0.173-0.811 0.118 0.583-0.741zm17.1-8.49c3.55-1.52 8.19-3.98 11.1-5.9 7.9-5.16 12.8-10.8 15-17.1 0.892-2.55 0.944-2.89 0.952-6.14 7e-3 -2.91-0.0874-3.73-0.606-5.29-3.04-9.15-13.1-18.2-29.3-26.3-4.26-2.13-7.54-3.6-7.69-3.44-0.0583 0.0583 0.697 0.682 1.68 1.39 2.95 2.11 7.69 6.02 10.7 8.82 7.54 6.98 12.5 13.7 14.4 19.3 0.669 2.04 0.757 2.69 0.746 5.49-9e-3 2.47-0.145 3.64-0.611 5.29-1.23 4.34-4.01 9.27-7.75 13.8-2.31 2.77-6.7 7.12-9.36 9.27-2.27 1.84-2.13 1.71-1.79 1.71 0.157 0 1.25-0.413 2.43-0.917zm39.6-12.5c-1.13-0.347-1.34-0.534-1.82-1.61-0.448-1.01-0.563-1.97-0.679-5.67l-0.14-4.46h5.63v3.85c0 3.95 0.192 4.88 1.01 4.88 1.01 0 1.1-0.469 1.1-5.7 0-5.96 0.299-5.38-3.79-7.4-3.79-1.87-3.75-1.78-3.74-8.33 9e-3 -4.67 0.0623-5.28 0.567-6.39 0.767-1.69 1.6-1.95 6.17-1.94 5.76 0.011 6.14 0.419 6.3 6.74l0.102 4.1h-5.48l-0.132-3.54c-0.114-3.05-0.199-3.58-0.612-3.84-0.39-0.238-0.575-0.176-0.992 0.332-0.45 0.549-0.513 1.05-0.513 4.15 0 2.09 0.124 3.8 0.303 4.19 0.208 0.456 1.22 1.14 3.22 2.2 4.17 2.18 4 1.82 4.09 8.71 0.114 7.99-0.214 9.17-2.73 9.86-1.53 0.416-6.36 0.332-7.89-0.138zm-59.2-41.3c0.473-0.0587 1.25-0.0587 1.72 0s0.086 0.107-0.86 0.107c-0.946 0-1.33-0.048-0.86-0.107z" fill="#006984" fill-opacity=".616" stroke-width=".265"/><path d="m44.6 43.3v-24.1h12.4v5.01l-4.63 0.153v14l4.63 0.153v4.99l-4.63 0.153v18.5l4.63 0.153v5.01h-12.4z" fill="#333" stroke-width=".265"/></svg>
