<svg viewBox="0 0 201.8 285.1" xmlns="http://www.w3.org/2000/svg"><g fill-rule="evenodd"><path d="m146.7 280.6c-28.9 0-52.4-23.5-52.3-52.5.1-28.9 23.2-51.9 51.7-52.3 30.1-.4 53.9 24.2 53.2 53.7-.7 28.4-24 51.3-52.6 51.1z" fill="#f4763b"/><path d="m50.3 217.5c-23.6 0-42.6-19-42.6-42.6s19.2-43 43.3-42.6c23.8.3 42.4 20.1 42 43.5-.5 23.2-19.7 42-42.7 41.7z" fill="#f78144"/><path d="m35.5 124c-17.1 0-30.7-13.7-31.2-30.2-.5-18.1 14.1-31.8 30.5-32.1 17-.4 31.9 13.1 31.9 31.1 0 17.8-14.4 31.2-31.2 31.2z" fill="#f88c4e"/><path d="m75.3 21.8c11.9 0 21.2 9.3 21.2 21.2 0 11.7-9.5 21.1-21.3 21.1-11.6 0-21.1-9.5-21-21.2.1-11.8 9.4-21.1 21.1-21.1zm36.1-13.6c6.5-.1 12.9 5 12.9 12.9 0 7.1-5.8 12.8-12.9 12.8-7.2 0-12.9-5.7-12.9-12.9 0-7.1 5.7-12.8 12.9-12.8zm29.1 16.1c-5.8 0-10.6-4.6-10.6-10.4s4.6-10.5 10.5-10.5c5.8 0 10.5 4.6 10.6 10.4 0 5.9-4.6 10.5-10.5 10.5z" fill="#f99859"/></g></svg>