<svg width="500" height="500" xmlns="http://www.w3.org/2000/svg" display="block"><g fill-rule="evenodd"><path d="M0 200v200h400V0H0v200M78.332 60.856c1.965 1.877 2.737 3.483 3.28 6.818.391 2.399 1.236 4.889 1.88 5.532 2.613 2.613 2.71 24.934.126 28.879-.686 1.046-1.453 3.616-1.705 5.709-.649 5.388-1.801 8.792-3.152 9.31-.638.245-1.161 1.211-1.161 2.146 0 1.002-.629 1.864-1.532 2.1-.843.221-1.75 1.267-2.015 2.326l-.483 1.924H18.634l-2.117-1.962c-1.409-1.305-2.117-2.788-2.117-4.432 0-1.359-.81-3.568-1.8-4.909-2.677-3.626-2.781-31.231-.132-34.831.918-1.246 1.891-3.706 2.164-5.466 1.105-7.143 7.343-10.597 20.418-11.306 6.915-.374 9.736-.843 10.831-1.8 3.794-3.315 28.992-3.345 32.451-.038m285.394 32.905c.51.392 2.37.627 4.135.523 3.252-.192 5.739 1.077 5.739 2.928 0 .559.541 1.224 1.201 1.478.661.253 1.806 1.728 2.544 3.277.739 1.549 1.951 3.01 2.693 3.245.877.278 1.515 1.631 1.82 3.858.259 1.887 1.212 5.16 2.118 7.274 1.22 2.845 1.775 6.365 2.138 13.55.375 7.426.842 10.292 1.988 12.2 2.081 3.466 2.209 38.734.159 43.906-.697 1.76-1.548 7.34-1.891 12.4-.739 10.923-1.366 14.151-2.86 14.724-.695.266-1.11 1.642-1.11 3.677 0 3.618-1.86 8.799-3.159 8.799-.463 0-.841.877-.841 1.948 0 2.968-1.417 6.052-2.78 6.052-.73 0-1.223.724-1.228 1.8-.01 2.399-4.535 10.2-5.916 10.2-.601 0-1.682.9-2.402 2-.721 1.1-1.899 2-2.617 2s-2.486.9-3.928 2c-1.442 1.1-3.186 2-3.876 2-.689 0-1.921.668-2.738 1.485-2.179 2.179-6.506 2.35-63.515 2.514l-51 .147v-2.073c0-1.954-.229-2.073-4-2.073-3.703 0-4-.144-4-1.944 0-1.405-.498-2.016-1.792-2.2-1.048-.15-1.906-.92-2.067-1.856-.152-.88-.727-1.96-1.278-2.4-1.338-1.069-2.863-4.004-2.863-5.511 0-.669-.9-2.116-2-3.216-1.56-1.56-2-2.819-2-5.721 0-2.802-.494-4.308-2-6.098-1.597-1.897-2-3.254-2-6.726 0-2.392-.427-5.033-.948-5.868-.715-1.145-.727-2.272-.05-4.589.607-2.077.707-6.645.311-14.117-.323-6.076-.318-13.456.009-16.4.328-2.945.614-8.814.637-13.042.036-6.844.261-8.012 2.041-10.636 1.663-2.45 2-3.893 2-8.551 0-5.484 1.51-10.325 3.221-10.325.428 0 .779-1.816.779-4.036 0-3.239.395-4.432 2-6.037 1.1-1.1 2-2.844 2-3.877 0-1.334.578-2.022 2-2.379 1.261-.316 2-1.067 2-2.031 0-.976.65-1.621 1.8-1.784 2.29-.326 2.974-3.576.847-4.028-.796-.169 1.676-.155 5.493.03 6.316.306 7.179.166 9.6-1.561 2.259-1.612 3.983-1.976 11.46-2.421 4.84-.288 10.78-1.123 13.2-1.855 2.561-.775 8.738-1.527 14.779-1.799 7.23-.325 10.714-.801 11.483-1.569.606-.607 2.73-1.538 4.719-2.07 1.989-.532 3.816-1.511 4.06-2.175.787-2.149 2.129-2.406 3.457-.662 1.577 2.07 10.653 2.862 12.702 1.108 2.525-2.162 6.951-2.854 18.319-2.866 7.82-.008 12.726-.376 14.843-1.113 3.089-1.075 4.689-.956 6.564.486M168.583 121c.919.99 2.604 2.447 3.744 3.237 1.438.998 2.073 2.161 2.073 3.8 0 1.3.662 3.025 1.472 3.835 1.046 1.046 1.619 3.215 1.981 7.498.28 3.315.878 6.995 1.328 8.179 1.635 4.3 1.939 19.616.501 25.202-.729 2.833-1.659 8.371-2.067 12.306-.574 5.553-1.106 7.495-2.377 8.68-1.111 1.034-1.638 2.532-1.638 4.653 0 2.227-.576 3.749-2 5.286-1.1 1.187-2 2.653-2 3.258s-.893 1.507-1.985 2.005c-1.091.497-2.195 1.568-2.453 2.381-.258.812-1.435 1.679-2.615 1.926-1.181.248-2.867.879-3.747 1.402-2.71 1.612-64.572 1.782-67.771.187-1.361-.679-2.828-1.235-3.259-1.235-1.315 0-4.615-4.265-5.107-6.6-.254-1.21-.765-2.2-1.135-2.2-4.906 0-5.664-52.214-.876-60.328.867-1.471 1.828-3.816 2.135-5.211.306-1.396 1.245-2.967 2.085-3.492.84-.524 1.528-1.387 1.528-1.916 0-1.304 3.19-3.453 5.125-3.453.864 0 3.086-.734 4.94-1.631 2.703-1.309 5.563-1.719 14.453-2.074 8.14-.324 12.356-.875 15.882-2.076 2.84-.967 8.393-1.888 13.6-2.256 8.313-.587 14.346-1.642 15.397-2.693 1.431-1.431 11.162-.419 12.786 1.33m34.836 79.663c1.199 1.199 1.628 3.334 2.136 10.619.507 7.26 1.003 9.734 2.435 12.144 1.184 1.992 1.942 4.861 2.22 8.4.262 3.344.948 6.051 1.815 7.167.767.986 1.625 3.021 1.906 4.523.282 1.501 1.024 2.926 1.649 3.166.625.239 1.529 1.894 2.009 3.677.697 2.589 1.241 3.241 2.703 3.241 1.561 0 1.781.339 1.494 2.294-.283 1.931-.007 2.377 1.739 2.816 1.307.328 2.075 1.074 2.075 2.014 0 1.159.813 1.616 3.626 2.038 2.293.344 3.982 1.113 4.593 2.091.935 1.498 2.323 1.547 43.929 1.547h42.963l2.196 1.889 2.195 1.888-1.393 3.649c-.766 2.006-1.724 6.826-2.129 10.711-.44 4.22-1.389 8.339-2.358 10.232-.892 1.743-1.622 4.335-1.622 5.759 0 1.653-.723 3.37-2 4.748-1.1 1.187-2 2.849-2 3.693 0 2.224-1.47 4.631-2.828 4.631-.732 0-1.172.789-1.172 2.1 0 2.33-5.363 7.94-11.978 12.528-2.359 1.636-108.261 2.157-111.269.547-2.652-1.42-7.953-7.426-7.953-9.011 0-.833-.704-1.698-1.564-1.923-1.149-.3-1.709-1.385-2.115-4.09-.34-2.264-1.192-4.2-2.214-5.028-2.802-2.268-3.954-34.08-2.339-64.571.678-12.799 1.1-14.488 3.632-14.54.33-.006.602-1.722.604-3.812.006-4.727 1.352-9.757 2.756-10.295.583-.224 1.269-1.451 1.524-2.727.582-2.907 9.842-12.585 13.006-13.594 3.451-1.099 9.972-.277 11.729 1.479" fill="#fff"/><path d="M46.289 60.773c-2.455 2.045-1.44 2.061 1.892.03 1.56-.951 2.089-1.598 1.308-1.6-.722-.002-2.162.705-3.2 1.57M82.425 73.4c.014.33.554 1.299 1.2 2.153 1.199 1.584 1.565.793.689-1.488-.488-1.273-1.936-1.783-1.889-.665M85.096 88c0 4.62.132 6.51.294 4.2.161-2.31.161-6.09 0-8.4-.162-2.31-.294-.42-.294 4.2M357.8 92.961c-3.775.994-3.204 1.439 1.847 1.439 2.446 0 4.252-.317 4.013-.703-.719-1.163-3.103-1.462-5.86-.736m11.8 1.105c0 .288 1.08 1.753 2.4 3.256 1.32 1.504 2.4 3.223 2.4 3.82 0 .598.521 1.287 1.158 1.531.637.245 1.535 1.846 1.997 3.559.461 1.713 1.56 3.767 2.442 4.565.983.89 1.603 2.465 1.603 4.075 0 2.627.664 4.586 2.823 8.328l1.153 2 .012-2.534c.007-1.393-.724-4.251-1.624-6.35-.9-2.099-1.847-5.359-2.106-7.246-.314-2.294-.936-3.577-1.878-3.876-.774-.246-1.856-1.53-2.404-2.852-.548-1.323-1.601-2.841-2.339-3.374-.738-.532-1.568-1.574-1.844-2.316-.499-1.339-3.793-3.585-3.793-2.586m-60.499.989c-.45.3-1.05 1.175-1.334 1.945-.284.77-1.061 1.4-1.726 1.4-1.863 0-7.641 2.485-7.641 3.287 0 1.249 7.375.802 8.854-.536.759-.687 3.616-1.565 6.348-1.951 2.732-.386 5.199-.952 5.483-1.257.283-.306-.837-.311-2.489-.012-2.558.462-3.277.249-4.841-1.439-1.011-1.091-2.205-1.737-2.654-1.437m18.334.406c-1.41.516-3.012 1.389-3.56 1.939-1.638 1.647 9.19 1.327 12.365-.364 1.408-.751 4.36-1.6 6.56-1.888 3.026-.395 1.955-.535-4.4-.574-4.62-.029-9.554.37-10.965.887M83.34 100.413c-.55 1.206-.836 2.358-.635 2.559.543.543 2.244-2.924 1.917-3.907-.156-.466-.732.141-1.282 1.348m193.06 3.179c-9.117 1.704-10.647 2.697-4.252 2.757 2.941.028 6.361-.369 7.6-.882 1.239-.513 4.952-1.375 8.252-1.916l6-.983-6-.012c-3.3-.006-8.52.46-11.6 1.036m-27.6 4.621L246 110l4.376.248c3.317.188 4.605-.066 5.324-1.049.521-.713 1.972-1.604 3.224-1.979 1.871-.561 1.421-.692-2.524-.738-3.664-.042-5.463.368-7.6 1.731m-14.628 4.827c-.287.748-1.253 1.36-2.147 1.36-1.086 0-1.625.525-1.625 1.585 0 1.023-.709 1.762-2 2.086-1.422.357-2 1.045-2 2.379 0 1.033-.9 2.777-2 3.877-1.41 1.41-2 2.87-2 4.948v2.948l2-2.947c1.1-1.621 2-3.495 2-4.164 0-1.972 1.499-4.222 5.327-7.995 1.978-1.95 3.455-3.971 3.282-4.491-.192-.576-.519-.413-.837.414m-79.372 6.939c-.88.369-2.86 1.028-4.4 1.464-2.509.711-2.58.802-.687.875 1.162.045 3.682-.63 5.6-1.5 3.313-1.504 2.857-2.251-.513-.839m-140.4.535c0 .996 1.552 2.848 3.6 4.295.92.649.58-.046-.8-1.636-1.32-1.521-2.49-2.917-2.6-3.102-.11-.186-.2.014-.2.443m110.8 4.715c-3.231 1.479-1.299 1.481 2.108.002 1.481-.642 2.152-1.153 1.492-1.135-.66.019-2.28.528-3.6 1.133m48.337 2.572c.382 2.761.438 2.816.702.702.157-1.264-.03-2.614-.416-3-.402-.402-.524.578-.286 2.298M385.897 136c.084 8.121.366 10.372 1.503 11.978 1.202 1.699 1.4 3.92 1.4 15.743 0 12.043-.175 13.94-1.4 15.163-1.175 1.173-1.464 3.408-1.8 13.879-.365 11.401-.556 12.679-2.2 14.767-1.398 1.775-1.8 3.324-1.8 6.937 0 3.852-.343 5.021-2 6.809-1.1 1.187-2 2.976-2 3.975 0 2.646-.813 4.349-2.076 4.349-.674 0-1.308 1.27-1.625 3.254-.346 2.163-1.155 3.67-2.41 4.492-1.039.681-1.889 1.693-1.889 2.248 0 1.953-8.144 10.006-10.12 10.006-1.109 0-1.88.476-1.88 1.16 0 .638-.63 1.527-1.4 1.976-.875.509-1.005.824-.347.84.58.013 2.234-.876 3.676-1.976 1.442-1.1 3.21-2 3.928-2s1.896-.9 2.617-2c.72-1.1 1.801-2 2.402-2 1.381 0 5.906-7.801 5.916-10.2.005-1.076.498-1.8 1.228-1.8 1.363 0 2.78-3.084 2.78-6.052 0-1.071.378-1.948.841-1.948 1.299 0 3.159-5.181 3.159-8.799 0-2.035.415-3.411 1.11-3.677 1.494-.573 2.121-3.801 2.86-14.724.343-5.06 1.194-10.64 1.891-12.4 1.982-5 1.932-40.807-.061-43.622-.956-1.35-1.56-4.262-1.903-9.178-.471-6.735-.497-6.555-.4 2.8m-289.018-7.556c-1.497.649-2.517 1.384-2.269 1.633.249.249 1.294.001 2.321-.551 1.028-.552 2.949-1.264 4.269-1.583 2.17-.524 2.208-.584.4-.63-1.1-.028-3.224.481-4.721 1.131m122.742 8.316c-.672 1.298-1.163 3.728-1.093 5.4.126 2.992.133 2.998.453.414.18-1.461 1.011-3.055 1.872-3.593 1.578-.986 2.181-4.581.768-4.581-.429 0-1.329 1.062-2 2.36M178.918 150c.268 2.2.621 4.15.785 4.333.626.702.149-5.212-.544-6.733-.49-1.077-.569-.293-.241 2.4m37.27 3.6c-1.574 2.472-1.763 3.736-1.621 10.8l.162 8 .248-7.2c.211-6.102.5-7.41 1.892-8.573 1.109-.928 1.555-2.097 1.372-3.6l-.27-2.227-1.783 2.8m-35.904 9.2c-.002 3.96.133 5.681.301 3.824.167-1.857.169-5.097.004-7.2-.165-2.103-.303-.584-.305 3.376M77.3 168.9c-.691 3.457-.607 17.694.112 18.822.324.507.588-4.083.588-10.2 0-12.27.009-12.165-.7-8.622m101.557 4.357c-.294 1.173-.381 2.286-.192 2.475.189.188.584-.617.878-1.789.294-1.173.381-2.286.192-2.475-.189-.188-.584.617-.878 1.789M213.586 178c-.212 2.64-.194 8.76.042 13.6l.427 8.8.373-9.2c.204-5.06.186-11.18-.042-13.6l-.414-4.4-.386 4.8M175 192.77c-2.037 1.984-1.72 2.79.342.87.958-.893 1.588-1.76 1.4-1.928-.188-.168-.972.308-1.742 1.058m20.009 6.196c.995.191 2.435.184 3.2-.016.765-.201-.049-.357-1.809-.348-1.76.009-2.386.172-1.391.364m-5.855 1.369c-.853.624-1.34 1.346-1.081 1.604.259.259 1.124-.251 1.923-1.134 1.699-1.878 1.35-2.073-.842-.47M171.6 202.4c-.796.88-1.045 1.6-.552 1.6.493 0 1.281-.72 1.752-1.6.471-.88.719-1.6.552-1.6-.167 0-.956.72-1.752 1.6m41.551 5.978c-.343 1.832-.212 3.281.349 3.842.495.495.9 2.968.9 5.495 0 3.747.365 5.01 1.975 6.84l1.974 2.245.026-2.737c.014-1.505-.574-3.399-1.306-4.208-.864-.955-1.502-3.556-1.818-7.414-.559-6.835-1.308-8.285-2.1-4.063M90.24 214.482c1.428 1.534 66.725 1.673 68.252.146.763-.763.348-.8-1.923-.173-3.589.991-63.486.652-65.769-.373-1.347-.604-1.436-.541-.56.4m128.269 17.14c-.11 2.445 1.743 5.978 3.136 5.978 1.395 0 .771-3.135-.789-3.97-.849-.455-1.7-1.637-1.891-2.628-.271-1.405-.371-1.268-.456.62m3.942 7.831c-.059 1.683 1.363 4.59 2.812 5.747.551.44 1.126 1.52 1.278 2.4.161.936 1.019 1.706 2.067 1.856 1.294.184 1.792.795 1.792 2.2 0 1.651.383 1.944 2.544 1.944h2.544l-2.744-2.402c-5.589-4.893-6.344-5.808-6.344-7.682 0-1.188-.466-1.916-1.226-1.916-.674 0-1.551-.81-1.949-1.8-.586-1.457-.733-1.523-.774-.347m15.949 16.141v2.17l55.8-.319c56.04-.32 59.4-.495 59.4-3.085 0-.63-89.099-.587-106 .051-1.76.067-4.55-.128-6.2-.432-2.865-.529-3-.457-3 1.615m-69.101 1.637c-.275.715-.468 1.9-.43 2.634.038.734.386.273.773-1.025.754-2.525.488-3.774-.343-1.609" fill="#e3f5fc"/><path d="M355.1 98.843c-1.573 1.573-9.41 2.72-18.722 2.741-4.634.01-7.787.395-8.8 1.074-2.425 1.625-11.331 2.942-19.903 2.942-6.718 0-8.054.232-10.118 1.758-2.148 1.588-3.562 1.791-14.568 2.091-6.704.183-12.549.62-12.989.971-1.889 1.504-11.161 3.18-17.6 3.18-6.266 0-7.209.202-9.346 2-1.307 1.1-2.877 2-3.489 2-1.254 0-6.765 5.235-6.765 6.427 0 .425-.72 1.493-1.6 2.373-.88.88-1.6 2.346-1.6 3.258 0 .911-.862 3.161-1.916 5-1.062 1.854-2.166 5.466-2.478 8.112-.31 2.624-1.199 6.404-1.976 8.4-1.069 2.747-1.548 7.231-1.972 18.43-.307 8.14-.892 16.304-1.299 18.142-.442 1.998-.453 4.893-.026 7.2.393 2.122.973 9.175 1.288 15.674.476 9.796.832 12.144 2.083 13.734.83 1.055 1.74 3.658 2.024 5.784.303 2.273 1.289 4.798 2.394 6.127 1.033 1.244 1.878 2.913 1.878 3.708 0 .796.9 2.037 2 2.757 1.1.721 2 1.843 2 2.492 0 .65.384 1.182.853 1.182.47 0 2.034.9 3.476 2l2.622 2h54.427c45.706 0 54.575-.18 55.357-1.121.512-.617 2.536-1.596 4.498-2.175 1.962-.579 3.567-1.522 3.567-2.096 0-.573.86-1.434 1.912-1.913 1.051-.479 2.304-1.732 2.783-2.783.479-1.052 1.418-1.912 2.088-1.912.669 0 1.217-.67 1.217-1.488 0-.819.844-2.733 1.877-4.254 1.032-1.521 2.116-3.721 2.409-4.889.293-1.169 1.204-2.765 2.024-3.547.925-.883 1.699-3.149 2.042-5.981.304-2.507 1.218-5.404 2.031-6.438 1.031-1.31 1.648-3.929 2.037-8.641.323-3.911 1.235-8.28 2.163-10.362 2.31-5.179 2.523-56.652.244-59.17-.888-.981-1.68-3.928-2.199-8.182-.46-3.769-1.285-7.028-1.905-7.526-.602-.483-1.523-2.733-2.046-5-.524-2.267-1.391-4.122-1.928-4.122-.536 0-1.542-1.417-2.236-3.15-.891-2.228-2.109-3.553-4.16-4.526-1.595-.757-3.085-1.859-3.312-2.45-.582-1.518-6.78-1.393-8.341.169" fill="#19529f"/><path d="M359.851 97.353c1.459.192 3.363 1.061 4.232 1.93.87.87 2.466 1.917 3.547 2.328 1.211.461 2.462 1.985 3.255 3.969.709 1.771 1.728 3.22 2.264 3.22.537 0 1.404 1.855 1.928 4.122.523 2.267 1.444 4.517 2.046 5 .62.498 1.445 3.757 1.905 7.526.519 4.254 1.311 7.201 2.199 8.182 2.279 2.518 2.066 53.991-.244 59.17-.928 2.082-1.84 6.451-2.163 10.362-.389 4.712-1.006 7.331-2.037 8.641-.813 1.034-1.727 3.931-2.031 6.438-.343 2.832-1.117 5.098-2.042 5.981-.82.782-1.731 2.378-2.024 3.547-.293 1.168-1.377 3.368-2.409 4.889-1.033 1.521-1.877 3.435-1.877 4.254 0 .818-.548 1.488-1.217 1.488-.67 0-1.609.86-2.088 1.912-.479 1.051-1.732 2.304-2.783 2.783-1.052.479-1.912 1.34-1.912 1.913 0 .574-1.605 1.517-3.567 2.096-1.962.579-3.986 1.558-4.498 2.175-.782.941-9.651 1.121-55.357 1.121h-54.427l-2.622-2c-1.442-1.1-3.006-2-3.476-2-.469 0-.853-.532-.853-1.182 0-.649-.9-1.771-2-2.492-1.1-.72-2-1.961-2-2.757 0-.795-.845-2.464-1.878-3.708-1.105-1.329-2.091-3.854-2.394-6.127-.284-2.126-1.194-4.729-2.024-5.784-1.251-1.59-1.607-3.938-2.083-13.734-.315-6.499-.895-13.552-1.288-15.674-.427-2.307-.416-5.202.026-7.2.407-1.838.992-10.002 1.299-18.142.424-11.199.903-15.683 1.972-18.43.777-1.996 1.666-5.776 1.976-8.4.312-2.646 1.416-6.258 2.478-8.112 1.054-1.839 1.916-4.089 1.916-5 0-.912.72-2.378 1.6-3.258.88-.88 1.6-1.948 1.6-2.373 0-1.2 5.516-6.427 6.782-6.427.621 0 2.139-.889 3.373-1.975 2.811-2.472-.096-3.069-3.042-.625-5.918 4.91-10.35 10.169-11.172 13.256-.489 1.839-1.373 3.887-1.964 4.551-.591.663-1.635 3.723-2.319 6.8-.684 3.076-1.766 7.573-2.404 9.993-1.108 4.206-1.996 12.108-3.73 33.2-1.031 12.545 1.569 39.541 4.327 44.939.636 1.243 1.405 3.414 1.708 4.823.303 1.41 1.197 3.39 1.986 4.4.789 1.011 1.678 2.615 1.976 3.565.297.949 2.699 3.739 5.338 6.2l4.799 4.473 5.771.017c3.174.01 28.421.002 56.104-.017l50.332-.034 4.34-2.483c7.39-4.229 14.575-12.265 16.131-18.045.481-1.788 1.417-3.701 2.078-4.249.661-.549 1.782-3.021 2.491-5.494.708-2.472 1.579-4.861 1.935-5.308.355-.448 1.234-4.203 1.953-8.346.719-4.143 1.64-8.156 2.048-8.918 2.647-4.946 2.981-59.679.41-67.252-.663-1.952-1.734-6.061-2.379-9.13-1.035-4.918-2.802-9.007-7.847-18.156-.756-1.371-2.016-2.828-2.8-3.238-.784-.41-1.841-1.264-2.35-1.896-.539-.671-2.708-1.255-5.2-1.399-2.351-.137-3.082-.091-1.624.101m-12.769 1.433c-1.605.591-7.725 1.484-13.6 1.986s-12.542 1.435-14.815 2.073c-2.274.639-8.214 1.497-13.2 1.909-5.578.46-10.108 1.271-11.771 2.107-1.837.924-5.94 1.558-12.8 1.979l-10.096.619 12.189-.171c11.152-.157 12.392-.321 14.568-1.93 2.064-1.526 3.4-1.758 10.118-1.758 8.572 0 17.478-1.317 19.903-2.942 1.013-.679 4.166-1.064 8.8-1.074 9.312-.021 17.149-1.168 18.722-2.741 1.637-1.637-3.621-1.674-8.018-.057M261.6 111.007c-1.54.701-5.86 1.515-9.6 1.808l-6.8.532 7.085.126c6.846.123 15.991-1.499 17.675-3.135 1.281-1.243-5.323-.715-8.36.669" fill="#5471a2"/><path d="M351.6 96.868c-3.08.415-6.68 1.099-8 1.519-1.32.421-6.54 1.169-11.6 1.663s-9.35 1.044-9.533 1.224c-1.113 1.088 20.539-1.151 24.96-2.582 5.496-1.779 17.772-1.901 19.136-.191.57.715 1.678 1.636 2.462 2.046.784.41 2.044 1.867 2.8 3.238 5.045 9.149 6.812 13.238 7.847 18.156.645 3.069 1.716 7.178 2.379 9.13 2.571 7.573 2.237 62.306-.41 67.252-.408.762-1.329 4.775-2.048 8.918-.719 4.143-1.598 7.898-1.953 8.346-.356.447-1.227 2.836-1.935 5.308-.709 2.473-1.83 4.945-2.491 5.494-.661.548-1.597 2.461-2.078 4.249-1.556 5.78-8.741 13.816-16.131 18.045l-4.34 2.483-50.332.034c-27.683.019-52.93.027-56.104.017l-5.771-.017-4.799-4.473c-2.639-2.461-5.041-5.251-5.338-6.2-.298-.95-1.187-2.554-1.976-3.565-.789-1.01-1.683-2.99-1.986-4.4-.303-1.409-1.072-3.58-1.708-4.823-2.758-5.398-5.358-32.394-4.327-44.939 1.734-21.092 2.622-28.994 3.73-33.2.638-2.42 1.72-6.917 2.404-9.993.684-3.077 1.728-6.137 2.319-6.8.591-.664 1.475-2.712 1.964-4.551.613-2.303 2.228-4.668 5.187-7.6 7.336-7.266 7.06-7.128 15.128-7.565 4.173-.226 9.288-1.069 11.845-1.951 3.158-1.09 8.29-1.771 17.2-2.282 6.984-.401 13.779-1.161 15.099-1.689 3.1-1.24 1.228-1.963-2.193-.847-1.434.468-7.827 1.228-14.207 1.688-6.453.466-13.907 1.507-16.8 2.346-2.86.83-8.216 1.711-11.902 1.959-8.297.558-15.132 5.215-18.733 12.762-4.375 9.172-5.365 11.469-5.365 12.448 0 .606-.699 3.481-1.553 6.389-2.747 9.347-5.013 30.191-5.096 46.886-.152 30.513 6.117 50.515 18.526 59.115l3.142 2.177 55.674-.064c30.62-.036 56.311-.305 57.09-.598 7.294-2.743 20.217-15.635 20.217-20.17 0-.536.866-2.479 1.925-4.318 12.819-22.255 14.956-89.322 3.648-114.481-6.551-14.573-11.502-17.546-25.973-15.593m-37.041 5.572c-1.013.406-5.458 1.079-9.879 1.495-4.421.416-8.266.984-8.545 1.263-.278.278 1.287.313 3.48.078a452.25 452.25 0 0 1 9.602-.883c3.09-.25 7.23-.956 9.2-1.57l3.583-1.116-2.8-.003c-1.54-.001-3.629.33-4.641.736" fill="#7590b7"/><path d="M64.8 64.115c-3.393.899-8.403 1.396-14.414 1.431-8.463.05-9.455.217-12.158 2.054-2.496 1.696-3.86 2-8.969 2h-6.026l-1.734 3.397c-.953 1.869-2.31 3.82-3.016 4.336-1.113.813-1.283 3.38-1.283 19.385v18.447l2.614 2.617 2.614 2.618 21.7.237c26.329.288 28.689-.413 31.024-9.211.493-1.855 1.511-3.717 2.263-4.138 1.227-.687 1.369-2.614 1.377-18.627L78.8 70.8l-2.2-3.112c-1.21-1.711-2.2-3.38-2.2-3.709 0-1.252-4.604-1.187-9.6.136m80.605 62.811c-3.185 1.678-10.289 2.664-19.233 2.669-5.308.004-8.399.364-9.6 1.121-2.293 1.443-10.938 2.884-17.309 2.884-5.025 0-9.663 2.539-9.663 5.29 0 .492-.803 1.915-1.784 3.162-1.259 1.601-1.927 3.831-2.271 7.59-.27 2.944-1.288 6.974-2.278 9.019-2.338 4.83-2.305 32.955.043 36.539.721 1.1 1.562 3.428 1.869 5.173.307 1.744 1.607 4.367 2.89 5.827 1.282 1.461 2.331 3.003 2.331 3.428 0 1.431 67.739 1.006 68.289-.428.254-.66.952-1.2 1.552-1.2 1.406 0 6.958-6.354 6.962-7.968.002-.678.701-2.377 1.555-3.777.853-1.4 1.958-4.82 2.455-7.6.496-2.78 1.416-5.851 2.043-6.824 2.187-3.392 1.935-38.64-.292-40.867-1.001-1.001-1.764-2.759-1.764-4.064 0-3.996-.96-7.3-2.12-7.3-.616 0-1.462-.9-1.88-2-.926-2.435-17.48-2.947-21.795-.674m48.462 78.158c-3.066.533-4.239 1.121-4.541 2.277-.224.857-1.154 1.753-2.067 1.992-1.053.275-1.659 1.085-1.659 2.216 0 .981-.707 2.423-1.572 3.206-.864.782-2.149 3.408-2.855 5.835-.705 2.428-1.755 5.173-2.333 6.102-.578.928-1.258 4.108-1.513 7.065-.254 2.958-1.101 6.558-1.882 8-2.085 3.854-2.168 50.074-.1 56.223.74 2.2 1.577 5.507 1.862 7.349.284 1.841 1.186 4.121 2.006 5.065.819.945 1.722 2.78 2.007 4.079.286 1.299 1.388 2.93 2.45 3.626 1.061.696 1.93 1.915 1.93 2.709 0 .95.81 1.623 2.362 1.964 1.3.285 3.31 1.264 4.467 2.174 2.018 1.587 2.741 1.635 17.438 1.15 8.433-.279 30.022-.574 47.976-.656 17.953-.083 32.824-.445 33.047-.806.223-.36 1.992-1.054 3.932-1.543 2.198-.553 3.702-1.442 3.993-2.359.257-.808 1.114-1.675 1.905-1.926.79-.251 1.844-1.35 2.341-2.441.498-1.092 1.243-1.985 1.658-1.985.414 0 1.34-1.769 2.058-3.93.718-2.162 1.776-4.111 2.352-4.332.576-.221 1.484-2.142 2.019-4.27.535-2.127 1.439-4.408 2.009-5.068.57-.66 1.229-3.453 1.464-6.206.254-2.971 1.11-6.161 2.104-7.846 2.276-3.859 2.489-13.678.275-12.703-.77.339-2.21.558-3.2.486-.99-.072-2.79-.097-4-.056s-13.36.197-27 .347c-13.64.151-26.96.655-29.6 1.121-8.336 1.472-16.213 1.135-17.386-.743-.736-1.179-1.865-1.6-4.288-1.6-2.464 0-3.899-.552-5.723-2.2a538.01 538.01 0 0 0-6.071-5.363c-2-1.739-4.102-4.079-4.673-5.2-.57-1.12-1.852-2.83-2.848-3.799-1.21-1.177-1.811-2.703-1.811-4.6 0-1.901-.37-2.838-1.122-2.838-1.224 0-2.878-3.951-2.878-6.874 0-1.009-.692-3.025-1.538-4.48-.846-1.455-1.793-4.446-2.103-6.646-.31-2.2-1.238-6.668-2.062-9.928-.823-3.26-1.503-7.22-1.509-8.8-.018-4.211-.581-4.612-5.321-3.788" fill="#9fa0a5"/><path d="M60.278 62.836c-1.387.607-6.247 1.428-10.8 1.823l-8.278.719 8.854.111c6.133.077 10.558-.321 14.4-1.295 5.459-1.384 9.946-1.498 9.946-.252 0 .349.99 2.035 2.2 3.746l2.2 3.112-.008 17.861c-.008 16.013-.15 17.94-1.377 18.627-.752.421-1.77 2.283-2.263 4.138-2.335 8.798-4.695 9.499-31.024 9.211l-21.7-.237-2.614-2.618-2.614-2.617V96.718c0-16.005.17-18.572 1.283-19.385.706-.516 2.063-2.467 3.016-4.336l1.734-3.397h6.026c5.109 0 6.473-.304 8.969-2 3.531-2.399.738-3.034-3.537-.805-1.26.657-3.551 1.199-5.091 1.205-3.65.012-8.8 1.457-8.8 2.47 0 .437-.713 1.77-1.583 2.962-6.486 8.88-6.074 40.081.618 46.773l2.235 2.234 21.224.489c14.934.344 22.036.219 23.965-.421 2.91-.966 7.941-5.192 7.941-6.67 0-.486.869-2.72 1.932-4.966 5.131-10.847 4.674-38.269-.768-46.124L74.182 61.6l-5.691.065c-3.13.036-6.826.563-8.213 1.171m87.322 62.358c-4.84.541-10.06 1.412-11.6 1.936-1.54.523-7.547 1.301-13.349 1.73-5.802.429-11.742 1.268-13.2 1.864-1.458.597-5.171 1.328-8.251 1.624-10.732 1.033-10.478.914-13.457 6.337-9.799 17.837-9.632 57.572.294 70.006l2.037 2.551 34.073.055c37.063.06 35.814.206 40.146-4.681 7.958-8.979 11.662-24.017 11.693-47.469.013-10.244-.994-19.364-2.336-21.147-.331-.44-1.081-2.57-1.667-4.733-2.539-9.374-5.116-10.228-24.383-8.073m19.6 2.406c.418 1.1 1.264 2 1.88 2 1.16 0 2.12 3.304 2.12 7.3 0 1.305.763 3.063 1.764 4.064 2.227 2.227 2.479 37.475.292 40.867-.627.973-1.547 4.044-2.043 6.824-.497 2.78-1.602 6.2-2.455 7.6-.854 1.4-1.553 3.099-1.555 3.777-.004 1.614-5.556 7.968-6.962 7.968-.6 0-1.298.54-1.552 1.2-.55 1.434-68.289 1.859-68.289.428 0-.425-1.049-1.967-2.331-3.428-1.283-1.46-2.583-4.083-2.89-5.827-.307-1.745-1.148-4.073-1.869-5.173-2.348-3.584-2.381-31.709-.043-36.539.99-2.045 2.008-6.075 2.278-9.019.344-3.759 1.012-5.989 2.271-7.59.981-1.247 1.784-2.67 1.784-3.162 0-2.751 4.638-5.29 9.663-5.29 6.371 0 15.016-1.441 17.309-2.884 1.201-.757 4.292-1.117 9.6-1.121 8.944-.005 16.048-.991 19.233-2.669 4.315-2.273 20.869-1.761 21.795.674m26.313 76.098c-7.483 2.296-13.817 12.122-16.697 25.902-.782 3.74-1.915 8.06-2.519 9.6-.855 2.183-1.097 8.97-1.097 30.8v28l2.297 6.8c2.897 8.575 6.133 14.358 9.868 17.637 5.712 5.016 3.735 4.851 56.457 4.719l48.091-.121 4.076-1.864c4.503-2.06 11.914-8.977 13.658-12.749.617-1.332 1.48-2.962 1.92-3.622 2.298-3.452 5.584-12.264 6.408-17.185.515-3.072 1.264-5.98 1.665-6.463.401-.483 1.134-3.604 1.63-6.934 1.188-7.987.682-8.869-5.136-8.953-4.206-.061-4.337-.006-2.387 1.016 1.568.821 2.526.869 3.996.2 1.063-.485 2.095-.881 2.295-.881 1.253 0 .196 10.59-1.313 13.148-.994 1.685-1.85 4.875-2.104 7.846-.235 2.753-.894 5.546-1.464 6.206-.57.66-1.474 2.941-2.009 5.068-.535 2.128-1.443 4.049-2.019 4.27-.576.221-1.634 2.17-2.352 4.332-.718 2.161-1.644 3.93-2.058 3.93-.415 0-1.16.893-1.658 1.985-.497 1.091-1.551 2.19-2.341 2.441-.791.251-1.648 1.118-1.905 1.926-.291.917-1.795 1.806-3.993 2.359-1.94.489-3.709 1.183-3.932 1.543-.223.361-15.094.723-33.047.806-17.954.082-39.543.377-47.976.656-14.697.485-15.42.437-17.438-1.15-1.157-.91-3.167-1.889-4.467-2.174-1.552-.341-2.362-1.014-2.362-1.964 0-.794-.869-2.013-1.93-2.709-1.062-.696-2.164-2.327-2.45-3.626-.285-1.299-1.188-3.134-2.007-4.079-.82-.944-1.722-3.224-2.006-5.065-.285-1.842-1.122-5.149-1.862-7.349-2.068-6.149-1.985-52.369.1-56.223.781-1.442 1.628-5.042 1.882-8 .255-2.957.935-6.137 1.513-7.065.578-.929 1.628-3.674 2.333-6.102.706-2.427 1.991-5.053 2.855-5.835.865-.783 1.572-2.225 1.572-3.206 0-1.131.606-1.941 1.659-2.216.913-.239 1.841-1.126 2.062-1.971.297-1.136 1.526-1.74 4.709-2.317 4.807-.872 5.17-.585 5.17 4.072 0 1.434.674 5.275 1.497 8.535.824 3.26 1.752 7.728 2.062 9.928.31 2.2 1.257 5.191 2.103 6.646.846 1.455 1.538 3.471 1.538 4.48 0 2.923 1.654 6.874 2.878 6.874.752 0 1.122.937 1.122 2.838 0 1.897.601 3.423 1.811 4.6.996.969 2.278 2.679 2.848 3.799.571 1.121 2.673 3.461 4.673 5.2 2 1.74 4.732 4.153 6.071 5.363 1.824 1.648 3.259 2.2 5.723 2.2 2.423 0 3.552.421 4.288 1.6 1.176 1.882 9.084 2.216 17.386.734 2.76-.493 15.172-.839 29.2-.815 14.304.025 24.897-.276 25.6-.726.777-.498-11.616-.79-35.2-.828-37.077-.061-42.964-.388-45.415-2.522-7.706-6.71-14.531-14.989-15.798-19.168-.313-1.031-1.218-2.955-2.011-4.275-.793-1.32-1.697-3.84-2.01-5.6-.312-1.76-1.263-4.756-2.113-6.658-.85-1.902-2.051-7.302-2.669-12-1.317-10.027-2.259-14.145-3.603-15.765-1.123-1.353-.845-1.359-5.668.121" fill="#afb0b4"/><path d="M350.8 95.957c-3.08.339-7.22 1.034-9.2 1.547-1.98.512-8.64 1.464-14.8 2.116-6.16.651-13.54 1.716-16.4 2.366-2.86.649-6.28 1.19-7.6 1.2-1.32.011-6.9.881-12.4 1.934s-14.118 2.155-19.151 2.449c-5.149.302-10.398 1.064-12 1.742-1.567.663-6.261 1.561-10.431 1.995-7.641.795-10.077 1.738-14.601 5.652-2.287 1.979-6.962 8.527-7.027 9.842-.022.44-.925 2.6-2.008 4.8-1.082 2.2-1.971 4.617-1.975 5.37-.004.754-.684 3.094-1.51 5.2-.827 2.107-1.766 6.17-2.087 9.03-.321 2.86-1.263 9.34-2.094 14.4-1.676 10.2-2.097 38.161-.675 44.8.424 1.98 1.352 6.84 2.063 10.8 2.284 12.724 9.49 25.228 17.6 30.542 2.593 1.699 113.745 1.703 116.791.004.933-.521 3.093-1.719 4.8-2.664 1.708-.944 4.005-2.635 5.105-3.757 4.765-4.858 5.6-5.818 5.6-6.438 0-.361.9-1.726 2-3.033s2-3.021 2-3.807c0-.787.659-2.29 1.464-3.339 2.129-2.774 5.233-11.812 8.079-23.527 4.392-18.081 4.442-69.045.079-81.361-.892-2.519-1.622-5.152-1.622-5.85 0-1.667-4.538-11.068-7.393-15.318-4.351-6.474-9.832-8.097-22.607-6.695m17.238 2.58c19.517 14.292 23.358 98.073 5.887 128.405-1.059 1.839-1.925 3.782-1.925 4.318 0 4.535-12.923 17.427-20.217 20.17-.779.293-26.47.562-57.09.598l-55.674.064-3.142-2.177c-12.409-8.6-18.678-28.602-18.526-59.115.083-16.695 2.349-37.539 5.096-46.886.854-2.908 1.553-5.783 1.553-6.389 0-.979.99-3.276 5.365-12.448 3.601-7.547 10.436-12.204 18.733-12.762 3.686-.248 9.042-1.129 11.902-1.959 2.86-.829 10.284-1.879 16.498-2.332 6.214-.453 14.134-1.538 17.6-2.412 3.466-.873 7.922-1.609 9.902-1.635 1.98-.025 5.22-.395 7.2-.821 5.906-1.272 12.701-2.266 21.6-3.163 4.62-.466 9.48-1.189 10.8-1.608 8.579-2.723 20.614-2.648 24.438.152" fill="#97afca"/><path d="M55.78 61.615c-3.862.804-9.442 1.696-12.4 1.982-20.65 1.994-25.884 4.895-28.124 15.589-.506 2.413-1.445 5.935-2.087 7.828-3.138 9.242.131 28.845 5.796 34.758L21.099 124H70.196l3.11-3.4C84.65 108.197 85.954 69.651 75.323 61c-1.751-1.425-11.166-1.129-19.543.615m20.584 3.132c5.442 7.855 5.899 35.277.768 46.124-1.063 2.246-1.932 4.48-1.932 4.966 0 1.478-5.031 5.704-7.941 6.67-1.929.64-9.031.765-23.965.421l-21.224-.489-2.235-2.234c-6.692-6.692-7.104-37.893-.618-46.773.87-1.192 1.583-2.525 1.583-2.962 0-1.013 5.15-2.458 8.8-2.47 1.54-.006 3.812-.538 5.048-1.183 1.277-.665 6.803-1.559 12.782-2.066 5.793-.492 11.621-1.373 12.952-1.958 1.33-.584 4.979-1.092 8.109-1.128l5.691-.065 2.182 3.147M340.8 96.587c-2.86.685-4.728 1.41-4.152 1.612.577.202 2.737-.082 4.8-.63 2.064-.548 6.272-1.253 9.352-1.566l5.6-.568-5.2-.047c-2.86-.026-7.54.514-10.4 1.199m24.069-.622c5.967 1.808 13.375 11.956 16.047 21.983.508 1.905.559 1.654.231-1.127-.233-1.969-.902-4.129-1.487-4.8-.584-.672-1.825-2.841-2.756-4.821-3.62-7.696-8.037-12.067-12.059-11.931l-2.045.069 2.069.627m-35.858 3.009c1.216.184 3.016.179 4-.011s-.011-.34-2.211-.334c-2.2.006-3.005.161-1.789.345m-16.424 1.36c-3.914 1.052-5.736 2.066-3.715 2.066.626 0 2.396-.38 3.933-.845 1.537-.465 5.135-1.137 7.995-1.495l5.2-.65-4.8-.051c-2.64-.028-6.516.411-8.613.975m-11.187 2.631c.99.19 2.61.19 3.6 0 .99-.191.18-.347-1.8-.347s-2.79.156-1.8.347m-11.4 1.06c-3.782.768-7.716 2.268-6 2.288.66.007 4.26-.653 8-1.468 4.231-.922 5.742-1.48 4-1.476-1.54.003-4.24.299-6 .656m-15.8 2.954c1.43.177 3.77.177 5.2 0 1.43-.178.26-.323-2.6-.323-2.86 0-4.03.145-2.6.323m-16.2 1.777c-1.76.833-2.726 1.544-2.147 1.579.579.036 1.839-.357 2.8-.873.961-.516 3.907-1.187 6.547-1.49l4.8-.553-4.4-.089c-2.817-.056-5.551.457-7.6 1.426m-7.791 2.21c.995.191 2.435.184 3.2-.016.765-.201-.049-.357-1.809-.348-1.76.009-2.386.172-1.391.364m-13.517 2.935c-4.645 3.547-9.284 9.274-9.865 12.178-.368 1.843-.313 1.983.269.683 3.166-7.079 10.335-13.703 16.034-14.817l2.87-.561-2.885-.092c-2.135-.068-3.805.61-6.423 2.609m144.973 7.552c-.036.579.317 1.765.783 2.637.467.871 1.147 3.098 1.512 4.947l.665 3.363.066-2.8c.062-2.586-2.881-10.508-3.026-8.147m-221.728.469c-.255.259-5.655.998-12 1.642-6.345.644-13.157 1.685-15.137 2.313-1.98.629-8.16 1.514-13.733 1.969-5.573.454-10.793 1.178-11.6 1.609-.807.43-4.878 1.196-9.046 1.702-9.496 1.152-12.651 3.983-15.204 13.643-.523 1.98-1.551 5.4-2.284 7.6-1.096 3.288-1.333 7.418-1.333 23.216v19.216l2.343 5.984c1.337 3.416 3.562 7.281 5.185 9.008l2.843 3.023 35.376-.223 35.377-.224 3.28-3.2c18.633-18.182 18.27-84.843-.476-87.334-1.721-.228-3.336-.203-3.591.056m8.639 4.745c1.288 1.467 2.821 4.437 3.407 6.6.586 2.163 1.336 4.293 1.667 4.733 4.828 6.416 2.287 46.967-3.76 60-2.417 5.208-6.857 10.777-9.887 12.399-1.305.698-10.909.939-35.856.898l-34.073-.055-2.037-2.551c-9.926-12.434-10.093-52.169-.294-70.006 2.979-5.423 2.725-5.304 13.457-6.337 3.08-.296 6.793-1.027 8.251-1.624 1.458-.596 7.398-1.435 13.2-1.864 5.802-.429 11.809-1.207 13.349-1.73 3.223-1.095 18.082-2.87 25.317-3.025 4.629-.099 5.055.052 7.259 2.562m55.906 3.859c-.705 1.007-1.282 2.546-1.282 3.421 0 1.077.514.584 1.588-1.523 1.8-3.532 1.62-4.648-.306-1.898m160.587 7.874c0 3.3.141 4.65.314 3 .172-1.65.172-4.35 0-6-.173-1.65-.314-.3-.314 3m-164.131 2.633c-.489.59-1.068 3.209-1.286 5.82-.373 4.462-.355 4.525.295 1.044.381-2.036 1.118-4.497 1.638-5.468 1.093-2.043.662-2.973-.647-1.396m164.758 22.1c-.052 9.422.049 16.982.225 16.8.723-.754 1.261-29.319.594-31.533-.489-1.623-.754 3.148-.819 14.733m-167.11-7.933c0 1.54.164 2.17.365 1.4.202-.77.202-2.03 0-2.8-.201-.77-.365-.14-.365 1.4m-1.902 6.946c-1.564 4.443-1.555 50.823.011 54.254 1.432 3.136 2.171 1.192.844-2.217-1.727-4.433-1.974-36.64-.356-46.316 1.431-8.559 1.247-10.677-.499-5.721m168.39 25.454c.003 3.52.144 4.86.313 2.979.169-1.882.166-4.762-.005-6.4-.172-1.639-.311-.099-.308 3.421M384 196.673c0 1.25-.536 4.04-1.191 6.2-1.541 5.078-1.516 6.125.073 3.127 1.286-2.425 2.574-11.6 1.629-11.6-.281 0-.511 1.023-.511 2.273m-191.949 5.814c-7.31 3.242-14.329 13.634-16.152 23.913-.429 2.42-1.561 6.74-2.516 9.6-1.652 4.95-1.736 6.607-1.759 34.419l-.024 29.218 2.288 5.982c4.913 12.847 7.748 17.073 14.112 21.037l2.8 1.744 51.2-.292 51.2-.293 3.293-1.921c8.118-4.735 18.191-19.81 20.264-30.326.517-2.623 1.417-6.028 2.001-7.568 2.203-5.813 3.197-17.762 1.576-18.947-1.145-.838-9.717-1.054-41.887-1.06-51.076-.009-47.374.444-54.821-6.708-5.57-5.349-8.575-9.292-9.762-12.807-.283-.837-1.538-3.44-2.789-5.785-1.251-2.344-2.275-5.053-2.275-6.018 0-.965-.874-4.302-1.943-7.415-1.069-3.113-2.333-9.191-2.809-13.507-1.593-14.446-3.81-16.897-11.997-13.266m7.13 1.09c1.344 1.62 2.286 5.738 3.603 15.765.618 4.698 1.819 10.098 2.669 12 .85 1.902 1.801 4.898 2.113 6.658.313 1.76 1.217 4.28 2.01 5.6.793 1.32 1.698 3.244 2.011 4.275 1.267 4.177 8.114 12.484 15.79 19.159 2.563 2.229 9.73 2.583 50.549 2.499 37.507-.077 40.786.024 41.485 1.273.85 1.517-.553 12.878-1.771 14.346-.401.483-1.15 3.391-1.665 6.463-.824 4.921-4.11 13.733-6.408 17.185-.44.66-1.303 2.29-1.92 3.622-1.744 3.772-9.155 10.689-13.658 12.749l-4.076 1.864-48.091.121c-52.722.132-50.745.297-56.457-4.719-3.735-3.279-6.971-9.062-9.868-17.637L173.2 298v-28c0-21.83.242-28.617 1.097-30.8.604-1.54 1.737-5.86 2.519-9.6 3.369-16.123 10.511-25.395 20.886-27.117.276-.046.942.447 1.479 1.094m181.677 7.223c-.071 1.32-.686 3.84-1.369 5.6a240.18 240.18 0 0 0-2.486 6.8c-.685 1.98-1.787 4.23-2.448 5-.742.864-.857 1.4-.3 1.4 1.117 0 3.345-4.171 3.345-6.262 0-.848.52-1.974 1.156-2.502 1.309-1.086 3.15-8.919 2.595-11.041-.211-.803-.42-.377-.493 1.005m-161.314 17.031c.172 1.888.795 4.01 1.384 4.716.59.706 1.612 2.732 2.272 4.502.66 1.771 1.588 3.348 2.063 3.506.475.158-.392-2.332-1.927-5.534-1.534-3.202-3.086-6.901-3.447-8.221-.556-2.03-.609-1.871-.345 1.031m153.256 3.974c0 .92-.9 2.742-2 4.049-1.1 1.307-2 2.755-2 3.216 0 .462-.663 1.31-1.473 1.885s-1.943 1.945-2.517 3.045c-.728 1.394-.16 1.044 1.873-1.156 1.604-1.736 2.917-3.54 2.917-4.008 0-.468.688-1.281 1.528-1.805 1.524-.952 3.052-5.518 2.148-6.422-.262-.261-.476.277-.476 1.196m-146.376 10.334c-.026 1.015 3.903 6.061 5.121 6.576.409.173 1.58 1.216 2.6 2.317 1.445 1.559 2.786 2.055 6.056 2.239l4.199.235-3.771-.586c-2.206-.344-4.697-1.402-6-2.549-4.116-3.623-6.361-5.96-7.274-7.571-.498-.88-.917-1.178-.931-.661M360 247.816c-2.322 1.63-2.459 1.867-.8 1.389 1.1-.317 2.519-1.07 3.152-1.672 2.029-1.927.543-1.749-2.352.283m-5.076 3.203c-1.268 1.269-5.399 1.416-50.752 1.808l-49.372.427 49.772-.027c46.052-.025 49.875-.13 51.152-1.408.76-.759 1.201-1.561.981-1.781-.22-.22-1.021.222-1.781.981" fill="#c8c7cb"/><path d="M55.959 59.132c-3.72.288-6.86 1.006-8.172 1.868-1.347.885-3.686 1.402-6.359 1.406-16.796.024-25.521 3.93-26.725 11.965-.299 1.99-1.299 4.641-2.223 5.89-2.667 3.607-2.57 30.66.12 33.525.99 1.054 1.8 2.871 1.8 4.038 0 1.231 1.041 3.306 2.483 4.948l2.483 2.828h25.851c26.336 0 28.383-.148 28.383-2.057 0-.598.658-1.439 1.463-1.87 2.327-1.245 5.829-8.821 6.619-14.319.398-2.775 1.263-6.087 1.921-7.36 1.682-3.252 1.707-22.11.033-24.5-.64-.913-1.522-3.885-1.96-6.604-1.652-10.26-4.629-11.389-25.717-9.758M75.323 61c10.631 8.651 9.327 47.197-2.017 59.6l-3.11 3.4H21.099l-2.134-2.228c-5.665-5.913-8.934-25.516-5.796-34.758.642-1.893 1.581-5.415 2.087-7.828 2.24-10.694 7.474-13.595 28.124-15.589 2.958-.286 8.538-1.178 12.4-1.982 8.377-1.744 17.792-2.04 19.543-.615m274.098 33.987c1.882.169 4.762.166 6.4-.005 1.639-.172.099-.311-3.421-.308-3.52.003-4.86.144-2.979.313m15.437.156c2.826.553 8.742 4.421 8.742 5.716 0 .369.9 1.996 2 3.617 1.188 1.751 2 2.415 2 1.636 0-.722-.72-2.032-1.6-2.912-.88-.88-1.6-1.947-1.6-2.372 0-2.736-5.056-6.426-8.683-6.336-3.677.091-3.686.098-.859.651M336.8 96.861c-2.03 1.155-2.25 1.438-.8 1.028 1.1-.312 3.8-1.014 6-1.56l4-.993-3.2-.034c-1.784-.02-4.439.67-6 1.559m-17.818 2.116c1.42.177 3.94.18 5.6.007 1.66-.173.498-.318-2.582-.321-3.08-.004-4.438.138-3.018.314m-9.9 1.018c-.945.381-1.994 1.139-2.331 1.685-.45.728-.206.818.918.341.842-.359 3.151-1.115 5.131-1.682 3.585-1.027 3.588-1.031.8-1.034-1.54-.002-3.573.308-4.518.69M295 102.965c.99.19 2.61.19 3.6 0 .99-.191.18-.347-1.8-.347s-2.79.156-1.8.347m-10.2 1.021c-1.54.331-3.7.987-4.8 1.457l-2 .856 2.148.05c1.181.028 3.161-.339 4.4-.816 1.239-.476 3.692-1.157 5.452-1.512l3.2-.646-2.8.005c-1.54.002-4.06.275-5.6.606m-26.2 3.309c-1.43.413-2.6 1.113-2.6 1.556 0 .486.714.413 1.8-.184.99-.545 4.68-1.222 8.2-1.505l6.4-.514-5.6-.052c-3.08-.028-6.77.286-8.2.699m119 1.336c0 .414.677 1.613 1.503 2.665.827 1.051 1.686 2.629 1.908 3.508.352 1.393.415 1.357.496-.289.051-1.036-.807-2.954-1.907-4.261s-2-2.038-2-1.623m-144.238 1.535c2.58.902 1.875 3.431-2.065 7.413-3.847 3.887-5.563 6.822-4.57 7.815.26.26.473.023.473-.526 0-4.329 10.998-13.136 17.165-13.746 4.74-.469 4.702-.481-1.965-.611-3.74-.073-7.52-.256-8.4-.407-.88-.151-1.167-.123-.638.062m148.25 8.874c-.007.572.577 2.178 1.296 3.569.719 1.391 1.574 4.343 1.9 6.56l.592 4.031.1-3.748c.055-2.061-.275-4.581-.734-5.6-1.539-3.415-3.142-5.862-3.154-4.812m-226.021 1.653c-2.309 1.049-6.01 1.583-13.2 1.906-7.652.343-10.896.84-13.857 2.124-2.741 1.189-5.542 1.677-9.621 1.677-7.606 0-18.625 1.417-21.229 2.729-1.146.578-3.691 1.256-5.656 1.508-2.142.274-3.979 1.038-4.589 1.91-.56.799-1.743 2.295-2.631 3.324-.887 1.029-1.817 2.829-2.065 4-.249 1.171-1.168 3.649-2.043 5.506-3.738 7.941-3.784 52.74-.059 57.779.844 1.141 1.793 2.89 2.109 3.885 2.34 7.375 6.004 8.087 41.65 8.095 37.659.009 40.587-.641 45.476-10.096.67-1.296 1.782-2.824 2.471-3.396.769-.639 1.253-2.323 1.253-4.364 0-2.293.479-3.734 1.542-4.645.909-.778 1.705-2.741 1.937-4.778.216-1.901.828-6.337 1.359-9.857 1.671-11.08 1.795-18.765.456-28.4-.703-5.06-1.478-10.869-1.721-12.908-.265-2.218-1.072-4.277-2.008-5.124-.861-.779-1.565-2.426-1.565-3.66 0-1.235-.45-2.607-1-3.049-.55-.442-2.308-1.896-3.906-3.231-3.469-2.899-8.059-3.226-13.103-.935m13.644 4.248c13.69 14.112 10.275 69.128-5.231 84.259l-3.28 3.2-35.377.224-35.376.223-2.843-3.023c-1.623-1.727-3.848-5.592-5.185-9.008l-2.343-5.984v-19.216c0-15.798.237-19.928 1.333-23.216.733-2.2 1.761-5.62 2.284-7.6 2.553-9.66 5.708-12.491 15.204-13.643 4.168-.506 8.239-1.272 9.046-1.702.807-.431 6.027-1.155 11.6-1.609 5.573-.455 11.753-1.34 13.733-1.969 1.98-.628 8.792-1.669 15.137-2.313 6.345-.644 11.745-1.383 12-1.642 1.28-1.302 6.865.512 9.298 3.019m54.811 4.769c-.902 1.479-1.605 3.59-1.561 4.69.066 1.688.176 1.589.703-.633.343-1.448 1.264-3.34 2.046-4.205.783-.864 1.204-1.79.938-2.057-.267-.267-1.224.725-2.126 2.205m-3.948 9.772c-.494.596-1.063 3.926-1.264 7.4l-.366 6.318.779-5.551c.429-3.054 1.313-6.142 1.966-6.863.653-.722 1.187-1.554 1.187-1.849 0-.914-1.358-.592-2.302.545M386.6 163.195c-.181 14.502.281 18.475 1.714 14.74.978-2.549.533-27.965-.514-29.387-.814-1.106-1.037 1.617-1.2 14.647M216.202 157c-.437.55-.987 6.4-1.224 13l-.43 12 .974-10c.536-5.5 1.403-10.786 1.926-11.747 1.744-3.201.757-5.777-1.246-3.253m-1.478 37.8c.001 7.04.123 9.813.272 6.162.148-3.651.148-9.411-.002-12.8-.15-3.389-.271-.402-.27 6.638m169.924 3.808c-.256 2.974-.822 5.854-1.259 6.4-.436.546-1.062 1.892-1.39 2.992-.579 1.938-.54 1.928 1.26-.327 1.827-2.29 2.988-9.164 2.184-12.931-.181-.848-.539.892-.795 3.866m-199.3 6.261c-3.503 3.227-6.38 6.586-6.682 7.8-.291 1.172-1.188 3.031-1.993 4.131-.863 1.179-1.677 4.136-1.981 7.2-.349 3.511-1 5.665-2.004 6.631-.818.787-1.516 2.047-1.551 2.8-.034.753-.44 7.129-.901 14.169-1.869 28.535-.358 59.341 3.011 61.388.532.323 1.218 2.254 1.523 4.291.405 2.7.972 3.813 2.093 4.106.845.221 1.537 1.03 1.537 1.797 0 1.578 5.889 8.131 8.547 9.511 2.169 1.126 106.324 1.297 109.263.179 3.139-1.193 13.39-11.51 13.39-13.476 0-.957.705-2.117 1.566-2.578.902-.482 1.801-2.092 2.12-3.797.306-1.628 1.221-3.514 2.034-4.191.814-.676 1.817-3.03 2.23-5.23.413-2.2 1.352-5.194 2.086-6.654.735-1.46 1.611-5.78 1.947-9.6.337-3.82 1.196-8.026 1.91-9.346 4.112-7.607 4.156-7.6-45.808-7.6-41.544 0-42.931-.049-43.866-1.547-.611-.978-2.3-1.747-4.593-2.091-2.331-.35-3.626-.947-3.626-1.673 0-.621-.94-1.486-2.089-1.923-1.743-.663-2.031-1.188-1.738-3.18.302-2.06.098-2.386-1.496-2.386-1.355 0-1.985-.586-2.367-2.2-.286-1.21-1.161-2.92-1.943-3.8-.783-.88-1.827-3.118-2.319-4.974-.493-1.855-1.446-3.681-2.12-4.058-.81-.454-1.226-1.883-1.229-4.227-.006-4.213-1.227-8.598-2.941-10.56-.878-1.004-1.431-4.255-1.896-11.145-.827-12.272-1.611-13.436-9.052-13.436h-4.91l-6.152 5.669m14.421-3.429c1.826 1.161 3.414 6.472 4.279 14.313.476 4.316 1.74 10.394 2.809 13.507 1.069 3.113 1.943 6.45 1.943 7.415 0 .965 1.024 3.674 2.275 6.018 1.251 2.345 2.506 4.948 2.789 5.785 1.187 3.515 4.192 7.458 9.762 12.807 7.447 7.152 3.745 6.699 54.821 6.708 32.17.006 40.742.222 41.887 1.06 1.621 1.185.627 13.134-1.576 18.947-.584 1.54-1.484 4.945-2.001 7.568-2.073 10.516-12.146 25.591-20.264 30.326l-3.293 1.921-51.2.293-51.2.292-2.8-1.744c-6.364-3.964-9.199-8.19-14.112-21.037l-2.288-5.982.024-29.218c.023-27.812.107-29.469 1.759-34.419.955-2.86 2.087-7.18 2.516-9.6 2.557-14.421 16.883-29.4 23.87-24.96m15.736 12.401c.212 4.224 2.895 9.868 2.895 6.09 0-.666-.383-1.594-.851-2.062-.468-.468-1.171-2.61-1.563-4.76l-.714-3.909.233 4.641m165.004 2.855c-.272 1.703-1.038 3.547-1.702 4.098-.664.551-1.207 1.37-1.207 1.821 0 .45.9-.152 2-1.339 1.329-1.435 2-3.083 2-4.917 0-3.647-.477-3.5-1.091.337M218.494 225.7c-.172 3.851.897 7.146 2.612 8.045 1.656.868 1.662.851.239-.753-.801-.902-1.749-3.385-2.106-5.516-.362-2.158-.693-2.945-.745-1.776m157.653 1.897c-.502 1.101-.585 2.003-.184 2.003.787 0 2.005-3.099 1.44-3.664-.189-.188-.754.559-1.256 1.661m-153.696 8.951c-.111 2.075 1.587 5.052 2.882 5.052 1.27 0 1.274-.075.05-1-.727-.55-1.673-1.9-2.102-3-.429-1.1-.802-1.573-.83-1.052m141.993 8.652c-1.688 1.98-3.648 3.628-4.357 3.663-.911.045-.978.187-.23.486 1.148.459 4.172-2.054 6.676-5.549 2.386-3.331 1.353-2.638-2.089 1.4m-138.044-.945c0 .647.81 1.934 1.8 2.859 5.013 4.682 7.404 6.48 8.544 6.423 1.081-.055 1.089-.127.056-.522-.66-.252-1.945-1.252-2.855-2.222-.911-.97-1.991-1.905-2.4-2.078-.41-.173-1.735-1.513-2.945-2.976-1.265-1.53-2.2-2.161-2.2-1.484m129.828 6.877c-.532.852-1.791 1.707-2.798 1.899-1.632.313-1.652.363-.183.46 2.041.135 4.682-1.705 4.26-2.969-.19-.571-.69-.332-1.279.61M244 254.4c.66.427 2.28.775 3.6.775 1.32 0 2.94-.348 3.6-.775.848-.548-.209-.775-3.6-.775s-4.448.227-3.6.775" fill="#e8e7ea"/></g></svg>