<svg xmlns="http://www.w3.org/2000/svg" xmlns:xlink="http://www.w3.org/1999/xlink" viewBox="0 0 256 256" version="1"><path d="M256 128.006C256 57.31 198.691 0 127.998 0 57.336 0 .05 57.263 0 127.916v99.055C.038 243.013 13.049 256 29.1 256h98.95C198.72 255.972 256 198.682 256 128.006" fill="#294172"/><path d="M73.797 136.267h46.002v46.003c0 25.393-20.609 46.003-46.002 46.003-25.394 0-46.003-20.61-46.003-46.003 0-25.394 20.61-46.003 46.003-46.003z" id="a" fill="none" stroke="#3c6eb4" stroke-width="28.085"/><use transform="rotate(180 119.689 136.311)" xlink:href="#a" width="100%" height="100%"/><path d="M133.872 122.259v59.946c0 33.176-26.898 60.075-60.075 60.075-5.033 0-8.611-.568-13.27-1.786-6.794-1.778-12.347-7.348-12.349-13.827 0-7.832 5.685-13.529 14.182-13.529 4.045 0 5.512.777 11.437.777 17.492 0 31.68-14.168 31.71-31.66v-27.553a4.474 4.474 0 0 0-4.48-4.47l-20.83-.003c-7.762 0-14.032-6.19-14.032-13.974-.004-7.83 6.335-13.996 14.18-13.996" id="b" fill="#fff"/><use transform="rotate(180 119.689 136.311)" xlink:href="#b" width="100%" height="100%"/></svg>