<svg xmlns="http://www.w3.org/2000/svg" viewBox="0 0 435 240"><path fill="#0079B2" d="M1 236.535v-85.596h43.641v8.323H9.815v27.335h26.529v8.313H9.815v41.625zM53.06 161.633v-9.476h9.51v9.476h-9.51zm-.436 76.305V176.35h10.455v61.588H52.624zM85.077 237.797H76.85v-85.655h8.256v30.957c3.867-5.521 8.792-8.294 14.774-8.294 3.33 0 6.468.772 9.434 2.297 2.964 1.526 5.393 3.684 7.317 6.437 1.907 2.771 3.415 6.097 4.491 10.016 1.091 3.899 1.631 8.078 1.631 12.516 0 10.566-2.291 18.724-6.868 24.484-4.56 5.759-10.059 8.634-16.456 8.634-6.364 0-10.729-3.028-14.354-9.105l.002 7.713zm-.016-31.066c0 7.386.167 12.521 1.919 15.804 2.875 5.385 6.78 8.075 11.688 8.075 4.008 0 7.458-1.977 10.372-5.959 2.912-3.958 4.371-9.855 4.371-17.717 0-8.038-1.406-13.978-4.199-17.798-2.792-3.82-6.174-5.741-10.127-5.741-4.006 0-7.455 1.98-10.368 5.94-2.916 3.958-3.656 9.891-3.656 17.396zM172.59 220.334l6.638 4.301c-3.19 9.207-13.438 13.896-22.625 13.898-6.86.003-13.173-2.837-17.5-8.316-3.851-4.872-6.067-13.321-6.468-23.337-.411-10.366 2.181-18.409 6.533-24.132 4.366-5.724 10.011-8.592 16.963-8.592 6.727 0 12.229 2.81 16.479 8.414 4.271 5.601 6.404 13.498 6.404 23.653 0 .635-.018 1.562-.049 2.789h-37.521c.31 6.773 2.136 11.563 4.729 15.29 2.869 4.118 7.484 5.295 11.938 5.235 4.016-.049 10.893-2.225 14.479-9.203zm-30.733-20.663h28.09c-.368-5.166-1.401-8.308-3.155-10.886-2.728-4.011-6.242-6.037-10.562-6.037-3.913 0-7.212 1.604-9.881 4.811s-4.201 6.747-4.492 12.112zM190.877 236.475v-60.602h8.965v8.34c2.498-4.371 9.699-10.18 20.703-9.484l.01 8.301c-8.435-.637-14.095 5.392-16.662 9.523-2.195 3.536-3 7.266-3 11.675v32.247h-10.016zM228.926 237.301v-81.482h14.871l33.662 56.925v-56.758l11.891-.167v81.482h-10.741l-36.513-61.191v61.191zM338.893 218.693l8.68 6.104c-4.842 10.073-12.57 12.988-22.852 13.355-8.854.312-15.412-3.316-19.668-9.982-3.357-5.33-5.045-12.073-5.045-20.188 0-9.721 2.209-17.328 6.633-22.824 4.404-5.499 9.99-8.251 16.736-8.251 7.584 0 13.57 2.878 17.951 8.643 4.379 5.76 5.465 12.57 5.285 24.451H312.24c.098 4.594 1.186 10.182 3.26 12.727 2.082 2.556 6.273 3.839 9.369 3.839 5.053 0 12.262-3.588 14.024-7.874zm-3.959-18.181c-.1-4.502-1.209-7.344-3.121-9.677-1.91-2.329-5.604-3.806-8.354-3.806-2.949 0-6.645 2.28-8.561 4.743-1.906 2.444-2.445 4.497-2.412 8.737l22.448.003zM386.109 178.262v10.788h-11.123v24.823c0 3.855-.537 13.122 3.447 13.122l8.412-.002-.01 10.396c-3.545.056-14.34 1.863-21.211-3.58-1.494-1.185-2.537-3.604-2.982-6.271-.316-1.881-.311-5.809-.311-11.565V189.13h-7.482v-10.788h7.482v-18.521l12.652-.064v18.504h11.126v.001z"/><path fill="#CCD626" d="M331.463 104.858c-13.035-8.447-29.082-20.026-33.033-24.541-8.592-10.596-12.107-20.237-24.551-25.77-16.381-7.289-28.096-7.588-44.953-7.652-8.393-.031-23.712.454-30.232.387-.895-1.812 8.771-3.271 11.826-3.701 21.769-3.098 35.642-1.526 51.058-.643 8.104.634 11.062 1.913 16.918 1.718 8.4-.103 16.566-2.864 25.557-3.261 14.982-.657 18.287 10.43 28.395 10.43 5.008-4.765 25.186-24.739 28.514-28.082 7.912-7.938 15.982-15.245 22.596-21.919 9.186-9.269 7.857 24.274 7.453 28.909-1.414 16.194-10.469 28.672-13.115 31.661-.42.479.01 1.717.631 1.691 14.867-.602 28.014-4.191 33.545-6.338 7.592-2.947 12.562-7.52 19.283-11.021 6.09-3.175-1.783 8.976-4.734 11.789-7.145 7.979-13.482 13.645-22.857 20.112-3.154 2.178-10.729 6.246-17.451 8.877-9.105 3.563-12.863 5.693-11.76 9.037.512 1.777 2.447 3.595 3.602 5.343 3.771 5.705 8.01 11.57 11.084 16.758 1.502 2.533 4.598 6.47 7.352 10.373 1.6 2.267 3.062 4.646 3.24 6.985.512 6.803-5.248 2.146-11.51-2.994-4.426-3.629-9.516-7.304-11-8.262-4.189-3.028-6.146-6.193-14.283-5.776-3.223.165-10.215.488-13.635-1.951-1.909-1.007-9.221-6.51-17.94-12.159zm-33.33-44.031a4.275 4.275 0 0 0 4.268-4.268 4.274 4.274 0 0 0-4.268-4.264 4.274 4.274 0 0 0-4.264 4.264 4.278 4.278 0 0 0 4.264 4.268z"/></svg>
