<svg viewBox="0 0 32 32" xmlns="http://www.w3.org/2000/svg"><path d="m16.2 1.3c4.2.2 8.3 1.1 11.7 4 5.2 4.3 5.5 10.2.7 14.9-6.5 6.4-20 6-26.1-.8-3.7-4.1-3.3-9.7.7-13.4 3.7-3.4 8.1-4.6 13-4.7zm-1.1 22c4.8 0 8.4-1 11.4-3.1 5.4-3.7 5.6-10 .4-14-2.7-2.1-5.7-3.1-9.1-3.4-5.4-.4-10.5.7-14.4 4.9-3 3.2-2.9 7.3-.1 10.5 3.3 3.9 7.8 4.9 11.8 5.1z" fill="#1a447a"/><path d="m25.5 6.3v13.1h-18.9v-13.1zm-15.9 4.2h12.8v-2.8h-12.8zm12.8 4.5h-12.8v2.8h12.8zm-2.3-.7c.7-1 1.4-2 2.2-3.1h-2.1c-.5.6-.9 1.1-1.4 1.7-.6-.6-1.2-1.1-1.7-1.6h-2.4c-.3.5-.8 1.1-1.3 1.9-.6-.8-1.1-1.3-1.4-1.7h-2.4c1 1.1 1.8 2 2.6 2.9h2.4c.5-.5 1.1-1 1.8-1.7.5.6 1 1.2 1.3 1.7.8-.1 1.5-.1 2.4-.1z" fill="#1a447a"/><path d="m0 30.3 1-4.4h3l-.2.7h-2.1l-.2 1.1h2.1l-.2.7h-2.1l-.4 1.9zm4.5-3.1h.9l-.7 3.2h-.9zm.2-1.3h.9l-.2.8h-.8zm.8 4.4.9-4.4h.9l-.3 1.5c.2-.1.3-.2.4-.3s.3-.1.4-.1c.3 0 .6.1.8.3.3.3.4.7.4 1.1 0 .3 0 .6-.1.8-.1.3-.2.5-.4.7s-.3.3-.5.4-.4.1-.6.1c-.5 0-.8-.2-1-.6l-.1.5zm1.2-1.3c0 .2.1.4.2.5s.3.2.4.2.3-.1.4-.2.2-.3.3-.5.1-.5.1-.7-.1-.4-.2-.5-.3-.2-.4-.2c-.2 0-.4.1-.6.3-.1.4-.2.7-.2 1.1zm5.7 0h-2.2v.1c0 .2.1.4.2.5s.3.2.4.2c.3 0 .5-.1.7-.4l.8.1c-.2.3-.4.5-.6.7s-.5.2-.8.2c-.4 0-.8-.1-1-.4-.3-.3-.4-.6-.4-1.1 0-.4.1-.8.4-1.2.3-.5.8-.7 1.4-.7.4 0 .7.1.9.4s.3.6.3 1c0 .3-.1.5-.1.6zm-.7-.5s0-.1 0 0c0-.3 0-.5-.2-.6-.1-.1-.2-.2-.4-.2s-.3.1-.5.2c-.1.1-.2.3-.3.6zm1.6-1.3h.8l-.1.6c.3-.5.6-.7 1-.7.1 0 .3 0 .4.1l-.3.7h-.3c-.1 0-.3.1-.5.2s-.3.3-.4.5-.2.5-.3.9l-.2 1h-.9zm4.9 1.2h-1.7l-.4 2h-.9l.9-4.4h.9l-.4 1.7h1.7l.4-1.7h.9l-.9 4.4h-.9zm1.5.6c0-.6.2-1.1.5-1.4.3-.4.8-.5 1.3-.5s.8.1 1.1.4.4.6.4 1c0 .5-.2 1-.5 1.3-.3.4-.8.6-1.3.6-.3 0-.6-.1-.8-.2s-.4-.3-.5-.5-.2-.4-.2-.7zm2.5-.6c0-.2-.1-.4-.2-.5s-.3-.2-.5-.2-.4.1-.5.2-.3.3-.3.5c-.1.2-.1.4-.1.6s.1.4.2.5.3.2.5.2.4-.1.6-.3c.1-.2.3-.6.3-1zm1.8-1.2h.8l-.1.4c.3-.3.7-.5 1-.5.2 0 .4 0 .6.2.1.1.2.2.3.4.1-.2.3-.3.5-.4s.4-.2.6-.2c.3 0 .5.1.6.2s.2.3.2.5c0 .1 0 .3-.1.6l-.4 2h-.9l.4-2c0-.2.1-.4.1-.4 0-.1 0-.2-.1-.2-.1-.1-.1-.1-.2-.1-.2 0-.4.1-.6.3-.1.2-.2.5-.3.9l-.3 1.5h-.9l.4-1.9c0-.2.1-.4.1-.4 0-.1 0-.2-.1-.2-.1-.1-.1-.1-.2-.1s-.2 0-.3.1-.2.1-.3.2-.1.2-.2.4c0 .1-.1.2-.1.5l-.3 1.5h-.9zm7.9 1.8h-2.2v.1c0 .2.1.4.2.5s.3.2.4.2c.3 0 .5-.1.7-.4l.8.1c-.2.3-.4.5-.6.7s-.5.2-.8.2c-.4 0-.8-.1-1-.4-.3-.3-.4-.6-.4-1.1 0-.4.1-.8.4-1.2.3-.5.8-.7 1.4-.7.4 0 .7.1.9.4s.3.6.3 1c0 .3 0 .5-.1.6zm-.7-.5s0-.1 0 0c0-.3-.1-.5-.2-.6s-.2-.2-.4-.2-.3.1-.5.2-.2.3-.3.6z" fill="#1d3d73"/></svg>