<?xml version="1.0" encoding="utf-8"?>
<!-- Generator: Adobe Illustrator 22.0.1, SVG Export Plug-In . SVG Version: 6.00 Build 0)  -->
<svg version="1.1" id="Layer_1" xmlns="http://www.w3.org/2000/svg" xmlns:xlink="http://www.w3.org/1999/xlink" x="0px" y="0px"
	 viewBox="0 0 32 32" style="enable-background:new 0 0 32 32;" xml:space="preserve">
<style type="text/css">
	.st0{fill:#1A447A;}
	.st1{fill:#1D3D73;}
</style>
<g>
	<path class="st0" d="M16.2,1.3c4.2,0.2,8.3,1.1,11.7,4c5.2,4.3,5.5,10.2,0.7,14.9c-6.5,6.4-20,6-26.1-0.8C-1.2,15.3-0.8,9.7,3.2,6
		C6.9,2.6,11.3,1.4,16.2,1.3z M15.1,23.3c4.8,0,8.4-1,11.4-3.1c5.4-3.7,5.6-10,0.4-14c-2.7-2.1-5.7-3.1-9.1-3.4
		C12.4,2.4,7.3,3.5,3.4,7.7c-3,3.2-2.9,7.3-0.1,10.5C6.6,22.1,11.1,23.1,15.1,23.3z"/>
	<path class="st0" d="M25.5,6.3c0,4.4,0,8.7,0,13.1c-6.3,0-12.5,0-18.9,0c0-4.3,0-8.6,0-13.1C12.8,6.3,19.1,6.3,25.5,6.3z M9.6,10.5
		c4.4,0,8.6,0,12.8,0c0-1,0-1.9,0-2.8c-4.3,0-8.5,0-12.8,0C9.6,8.7,9.6,9.6,9.6,10.5z M22.4,15c-4.3,0-8.5,0-12.8,0c0,1,0,1.9,0,2.8
		c4.3,0,8.5,0,12.8,0C22.4,16.9,22.4,16,22.4,15z M20.1,14.3c0.7-1,1.4-2,2.2-3.1c-0.9,0-1.5,0-2.1,0c-0.5,0.6-0.9,1.1-1.4,1.7
		c-0.6-0.6-1.2-1.1-1.7-1.6c-0.8,0-1.4,0-2.4,0c-0.3,0.5-0.8,1.1-1.3,1.9c-0.6-0.8-1.1-1.3-1.4-1.7c-0.9,0-1.5,0-2.4,0
		c1,1.1,1.8,2,2.6,2.9c0.8,0,1.6,0,2.4,0c0.5-0.5,1.1-1,1.8-1.7c0.5,0.6,1,1.2,1.3,1.7C18.5,14.3,19.2,14.3,20.1,14.3z"/>
</g>
<g>
	<path class="st1" d="M0,30.3L1,25.9H4l-0.2,0.7H1.7l-0.2,1.1h2.1l-0.2,0.7H1.3l-0.4,1.9H0z"/>
	<path class="st1" d="M4.5,27.2h0.9l-0.7,3.2H3.8L4.5,27.2z M4.7,25.9h0.9l-0.2,0.8H4.6L4.7,25.9z"/>
	<path class="st1" d="M5.5,30.3l0.9-4.4h0.9L7,27.4c0.2-0.1,0.3-0.2,0.4-0.3c0.1-0.1,0.3-0.1,0.4-0.1c0.3,0,0.6,0.1,0.8,0.3
		C8.9,27.6,9,28,9,28.4c0,0.3,0,0.6-0.1,0.8c-0.1,0.3-0.2,0.5-0.4,0.7c-0.2,0.2-0.3,0.3-0.5,0.4s-0.4,0.1-0.6,0.1
		c-0.5,0-0.8-0.2-1-0.6l-0.1,0.5H5.5z M6.7,29c0,0.2,0.1,0.4,0.2,0.5c0.1,0.1,0.3,0.2,0.4,0.2c0.1,0,0.3-0.1,0.4-0.2
		c0.1-0.1,0.2-0.3,0.3-0.5c0.1-0.2,0.1-0.5,0.1-0.7c0-0.2-0.1-0.4-0.2-0.5c-0.1-0.1-0.3-0.2-0.4-0.2c-0.2,0-0.4,0.1-0.6,0.3
		C6.8,28.3,6.7,28.6,6.7,29z"/>
	<path class="st1" d="M12.4,29h-2.2c0,0,0,0.1,0,0.1c0,0.2,0.1,0.4,0.2,0.5c0.1,0.1,0.3,0.2,0.4,0.2c0.3,0,0.5-0.1,0.7-0.4l0.8,0.1
		c-0.2,0.3-0.4,0.5-0.6,0.7s-0.5,0.2-0.8,0.2c-0.4,0-0.8-0.1-1-0.4c-0.3-0.3-0.4-0.6-0.4-1.1c0-0.4,0.1-0.8,0.4-1.2
		c0.3-0.5,0.8-0.7,1.4-0.7c0.4,0,0.7,0.1,0.9,0.4s0.3,0.6,0.3,1C12.5,28.7,12.4,28.9,12.4,29z M11.7,28.5
		C11.7,28.5,11.7,28.4,11.7,28.5c0-0.3,0-0.5-0.2-0.6c-0.1-0.1-0.2-0.2-0.4-0.2s-0.3,0.1-0.5,0.2c-0.1,0.1-0.2,0.3-0.3,0.6H11.7z"/>
	<path class="st1" d="M13.3,27.2h0.8L14,27.8c0.3-0.5,0.6-0.7,1-0.7c0.1,0,0.3,0,0.4,0.1l-0.3,0.7c-0.1,0-0.2,0-0.3,0
		c-0.1,0-0.3,0.1-0.5,0.2c-0.2,0.1-0.3,0.3-0.4,0.5c-0.1,0.2-0.2,0.5-0.3,0.9l-0.2,1h-0.9L13.3,27.2z"/>
	<path class="st1" d="M18.2,28.4h-1.7l-0.4,2h-0.9l0.9-4.4H17l-0.4,1.7h1.7l0.4-1.7h0.9l-0.9,4.4h-0.9L18.2,28.4z"/>
	<path class="st1" d="M19.7,29c0-0.6,0.2-1.1,0.5-1.4c0.3-0.4,0.8-0.5,1.3-0.5c0.5,0,0.8,0.1,1.1,0.4s0.4,0.6,0.4,1
		c0,0.5-0.2,1-0.5,1.3c-0.3,0.4-0.8,0.6-1.3,0.6c-0.3,0-0.6-0.1-0.8-0.2c-0.2-0.1-0.4-0.3-0.5-0.5S19.7,29.3,19.7,29z M22.2,28.4
		c0-0.2-0.1-0.4-0.2-0.5c-0.1-0.1-0.3-0.2-0.5-0.2c-0.2,0-0.4,0.1-0.5,0.2s-0.3,0.3-0.3,0.5c-0.1,0.2-0.1,0.4-0.1,0.6
		c0,0.2,0.1,0.4,0.2,0.5c0.1,0.1,0.3,0.2,0.5,0.2c0.2,0,0.4-0.1,0.6-0.3C22,29.2,22.2,28.8,22.2,28.4z"/>
	<path class="st1" d="M24,27.2h0.8l-0.1,0.4c0.3-0.3,0.7-0.5,1-0.5c0.2,0,0.4,0,0.6,0.2c0.1,0.1,0.2,0.2,0.3,0.4
		c0.1-0.2,0.3-0.3,0.5-0.4s0.4-0.2,0.6-0.2c0.3,0,0.5,0.1,0.6,0.2s0.2,0.3,0.2,0.5c0,0.1,0,0.3-0.1,0.6l-0.4,2h-0.9l0.4-2
		c0-0.2,0.1-0.4,0.1-0.4c0-0.1,0-0.2-0.1-0.2c-0.1-0.1-0.1-0.1-0.2-0.1c-0.2,0-0.4,0.1-0.6,0.3c-0.1,0.2-0.2,0.5-0.3,0.9l-0.3,1.5
		h-0.9l0.4-1.9c0-0.2,0.1-0.4,0.1-0.4c0-0.1,0-0.2-0.1-0.2c-0.1-0.1-0.1-0.1-0.2-0.1c-0.1,0-0.2,0-0.3,0.1c-0.1,0.1-0.2,0.1-0.3,0.2
		c-0.1,0.1-0.1,0.2-0.2,0.4c0,0.1-0.1,0.2-0.1,0.5l-0.3,1.5h-0.9L24,27.2z"/>
	<path class="st1" d="M31.9,29h-2.2c0,0,0,0.1,0,0.1c0,0.2,0.1,0.4,0.2,0.5c0.1,0.1,0.3,0.2,0.4,0.2c0.3,0,0.5-0.1,0.7-0.4l0.8,0.1
		c-0.2,0.3-0.4,0.5-0.6,0.7s-0.5,0.2-0.8,0.2c-0.4,0-0.8-0.1-1-0.4c-0.3-0.3-0.4-0.6-0.4-1.1c0-0.4,0.1-0.8,0.4-1.2
		c0.3-0.5,0.8-0.7,1.4-0.7c0.4,0,0.7,0.1,0.9,0.4s0.3,0.6,0.3,1C32,28.7,32,28.9,31.9,29z M31.2,28.5C31.2,28.5,31.2,28.4,31.2,28.5
		c0-0.3-0.1-0.5-0.2-0.6c-0.1-0.1-0.2-0.2-0.4-0.2s-0.3,0.1-0.5,0.2s-0.2,0.3-0.3,0.6H31.2z"/>
</g>
</svg>
