<?xml version="1.0" standalone="no"?>
<!DOCTYPE svg PUBLIC "-//W3C//DTD SVG 20010904//EN"
 "http://www.w3.org/TR/2001/REC-SVG-20010904/DTD/svg10.dtd">
<svg version="1.0" xmlns="http://www.w3.org/2000/svg"
 width="400.000000pt" height="400.000000pt" viewBox="0 0 400.000000 400.000000"
 preserveAspectRatio="xMidYMid meet">

<g transform="translate(0.000000,400.000000) scale(0.100000,-0.100000)"
fill="#000000" stroke="none">
<path d="M2510 2683 c-1008 -43 -1657 -128 -2110 -274 -225 -72 -379 -175
-395 -262 -51 -270 712 -467 2125 -548 272 -16 1870 -24 1870 -10 0 8 -147 11
-527 11 -828 1 -1321 19 -1733 66 -705 79 -1164 214 -1275 374 -24 34 -27 47
-23 91 5 44 11 57 54 100 193 196 867 352 1783 414 124 8 272 15 331 15 152 0
320 12 314 21 -5 8 -253 9 -414 2z m-1343 -159 c-3 -3 -12 -4 -19 -1 -8 3 -5
6 6 6 11 1 17 -2 13 -5z m-138 -33 c-451 -119 -651 -255 -609 -413 31 -115
218 -217 562 -308 134 -36 72 -32 -102 6 -546 120 -761 284 -592 453 92 91
325 185 632 255 185 41 259 46 109 7z m-239 -13 c-339 -101 -515 -191 -565
-289 -19 -36 -19 -102 -1 -138 26 -49 106 -112 199 -156 84 -40 305 -114 345
-116 9 0 12 -3 6 -5 -17 -7 -273 53 -393 92 -256 84 -373 176 -353 280 3 15
26 49 51 74 99 97 304 175 696 263 39 9 50 5 15 -5z"/>
<path d="M2797 2443 c-52 -4 -61 -26 -14 -31 51 -6 58 -32 55 -218 l-3 -169
-132 178 c-73 97 -138 186 -145 197 -11 18 -24 20 -105 20 -87 0 -111 -8 -80
-27 7 -4 23 -21 35 -37 21 -28 22 -37 22 -253 0 -136 -4 -232 -10 -244 -6 -11
-21 -19 -35 -19 -35 0 -31 -16 6 -24 49 -10 149 -7 149 4 0 6 -8 10 -18 10
-11 0 -26 8 -36 19 -14 16 -16 43 -14 219 l3 201 190 -249 c104 -138 194 -249
200 -247 6 2 11 112 13 307 2 264 5 307 19 322 9 10 22 18 30 18 7 0 13 7 13
15 0 15 -26 17 -143 8z"/>
<path d="M2007 2158 c-62 -202 -83 -258 -104 -276 -14 -13 -24 -24 -22 -26 11
-9 119 -15 119 -7 0 5 -9 13 -20 16 -23 7 -25 27 -8 90 l12 46 76 -3 c83 -3
90 -10 105 -90 6 -30 4 -39 -9 -43 -53 -17 -52 -16 -31 -25 34 -13 225 -23
225 -11 0 5 -9 12 -19 16 -22 7 -29 25 -152 363 -41 111 -78 202 -84 202 -6 0
-46 -114 -88 -252z m91 -40 l31 -88 -65 0 c-35 0 -64 3 -64 8 -1 22 54 181 60
175 4 -4 21 -47 38 -95z"/>
<path d="M1685 2373 c-102 -8 -145 -15 -145 -24 0 -5 7 -9 15 -9 29 0 35 -39
35 -225 l0 -186 -26 -24 c-19 -18 -23 -26 -13 -29 14 -4 313 -26 315 -23 1 1
4 43 8 92 l6 90 -18 -35 c-54 -104 -111 -136 -170 -94 -21 15 -22 20 -22 207
0 158 3 197 16 215 8 12 22 22 30 22 8 0 14 7 14 15 0 8 -1 14 -2 13 -2 -1
-21 -3 -43 -5z"/>
<path d="M894 2317 c-10 -28 0 -72 18 -75 21 -4 36 43 21 66 -14 22 -32 26
-39 9z"/>
<path d="M960 2321 c0 -6 5 -13 10 -16 6 -4 10 -80 10 -196 0 -108 4 -189 9
-189 5 0 11 5 13 11 2 7 15 4 35 -7 29 -17 32 -17 58 0 36 23 55 73 55 141 0
102 -45 164 -96 130 l-24 -15 0 75 0 75 -35 0 c-19 0 -35 -4 -35 -9z m124
-168 c21 -78 17 -175 -10 -209 -14 -18 -14 -18 -29 0 -15 20 -22 176 -9 210 8
21 41 20 48 -1z"/>
<path d="M725 2313 c-33 -2 -64 -8 -69 -14 -6 -6 -4 -9 6 -9 25 0 28 -21 28
-170 0 -110 -3 -142 -15 -154 -24 -23 -19 -26 48 -25 34 1 55 3 46 6 -10 2
-20 14 -23 26 -10 37 -7 135 4 142 16 10 39 -13 49 -49 7 -24 9 -9 9 64 0 73
-2 88 -9 64 -10 -36 -33 -59 -49 -49 -17 10 -12 121 6 139 30 30 70 10 90 -45
12 -34 12 -34 13 24 l1 57 -37 -2 c-21 -1 -65 -3 -98 -5z"/>
<path d="M1262 2188 c-19 -19 -22 -20 -22 -5 0 13 -9 17 -42 17 -33 0 -39 -3
-30 -12 15 -15 17 -254 2 -263 -24 -15 -6 -25 47 -25 54 0 55 1 40 18 -22 24
-24 198 -3 227 13 18 14 18 25 -3 16 -30 39 -28 47 5 14 52 -26 78 -64 41z"/>
<path d="M1370 2180 c-95 -102 -30 -321 88 -295 98 21 125 210 44 298 -37 39
-94 38 -132 -3z m97 -17 c14 -48 9 -229 -6 -247 -19 -23 -36 -20 -49 9 -15 32
-16 219 -2 246 16 29 48 24 57 -8z"/>
<path d="M870 2191 c0 -6 5 -13 10 -16 14 -9 13 -222 -1 -231 -15 -9 9 -24 41
-24 l25 0 -3 127 c-2 71 -5 134 -7 141 -5 14 -65 17 -65 3z"/>
<path d="M1385 1458 c-9 -26 -25 -132 -21 -136 10 -10 26 11 26 34 0 17 5 24
20 24 11 0 20 5 20 10 0 6 -7 10 -15 10 -9 0 -15 9 -15 25 0 18 5 25 20 25 11
0 20 5 20 10 0 15 -50 12 -55 -2z"/>
<path d="M1497 1463 c-2 -5 -7 -26 -11 -48 -4 -22 -9 -53 -12 -69 -5 -21 -3
-27 7 -24 15 5 41 136 28 144 -4 2 -10 1 -12 -3z"/>
<path d="M1567 1448 c-3 -13 -9 -47 -13 -75 -6 -49 -5 -53 14 -53 49 0 84 38
61 66 -9 11 -9 18 -1 26 17 17 15 45 -4 52 -31 12 -52 6 -57 -16z m48 -19 c0
-7 -8 -15 -17 -17 -12 -2 -15 2 -11 18 6 23 28 22 28 -1z m-7 -62 c2 -10 -4
-20 -13 -23 -21 -8 -25 -3 -18 24 6 25 26 24 31 -1z"/>
<path d="M1696 1462 c-2 -4 -7 -25 -11 -47 -3 -22 -9 -52 -11 -67 -5 -26 -3
-28 30 -28 20 0 36 5 36 10 0 6 -9 10 -20 10 -15 0 -20 7 -20 25 0 18 5 25 20
25 11 0 20 5 20 10 0 6 -7 10 -15 10 -8 0 -15 9 -15 20 0 13 7 20 20 20 11 0
20 5 20 10 0 12 -47 14 -54 2z"/>
<path d="M1801 1413 c-14 -69 -14 -93 -1 -93 6 0 10 8 10 18 0 9 5 24 10 32 7
12 12 8 21 -17 13 -39 34 -45 25 -7 -4 14 -1 41 5 59 15 40 1 65 -36 65 -19 0
-24 -8 -34 -57z m53 28 c9 -14 -5 -41 -21 -41 -10 0 -13 6 -9 16 3 9 6 20 6
25 0 12 17 12 24 0z"/>
<path d="M1946 1449 c-44 -35 -30 -129 20 -129 64 0 97 122 39 144 -25 9 -30
8 -59 -15z m62 -36 c4 -40 -13 -73 -37 -73 -33 0 -41 51 -15 88 22 32 48 24
52 -15z"/>
<path d="M2095 1458 c-10 -30 -24 -132 -19 -137 7 -8 24 20 24 42 0 10 8 17
19 17 23 0 51 25 51 45 0 34 -65 62 -75 33z m45 -32 c0 -13 -7 -26 -15 -30
-11 -4 -15 2 -15 24 0 20 5 30 15 30 9 0 15 -9 15 -24z"/>
<path d="M2205 1460 c-3 -5 3 -10 15 -10 16 0 20 -5 17 -17 -13 -45 -18 -113
-8 -113 9 0 13 14 27 93 5 27 11 37 25 37 11 0 19 5 19 10 0 6 -20 10 -44 10
-25 0 -48 -4 -51 -10z"/>
<path d="M2331 1399 c-11 -65 -9 -91 4 -77 6 6 25 104 25 129 0 11 -4 19 -9
19 -4 0 -13 -32 -20 -71z"/>
<path d="M2425 1445 c-46 -45 -24 -125 33 -125 29 0 28 18 0 22 -14 2 -26 13
-32 30 -12 35 14 78 49 78 14 0 25 5 25 10 0 20 -51 10 -75 -15z"/>
<path d="M2625 1458 c-9 -28 -25 -132 -20 -136 9 -10 17 6 22 47 3 23 9 41 12
41 4 0 17 -20 29 -46 12 -25 26 -43 31 -40 5 3 12 27 16 53 3 27 9 58 12 71 3
12 1 22 -5 22 -6 0 -14 -24 -19 -52 l-9 -53 -27 53 c-28 54 -35 60 -42 40z"/>
<path d="M2771 1407 c-6 -35 -11 -69 -11 -75 0 -15 56 -16 65 -2 3 6 -4 10
-18 10 -20 0 -23 4 -19 25 3 16 11 25 23 25 11 0 19 5 19 10 0 6 -7 10 -15 10
-8 0 -15 9 -15 20 0 13 7 20 20 20 11 0 20 5 20 10 0 6 -13 10 -29 10 -28 0
-29 -3 -40 -63z"/>
<path d="M2885 1460 c-3 -5 3 -10 15 -10 16 0 20 -5 16 -17 -3 -10 -8 -39 -12
-65 -8 -58 12 -67 21 -10 15 87 16 92 36 92 10 0 19 5 19 10 0 6 -20 10 -44
10 -25 0 -48 -4 -51 -10z"/>
<path d="M3010 1411 c0 -99 16 -116 45 -51 21 46 35 44 35 -6 0 -37 14 -45 29
-15 25 46 50 121 42 126 -5 3 -17 -19 -27 -47 l-18 -53 -10 53 c-5 28 -12 52
-16 52 -5 0 -16 -20 -27 -45 -10 -25 -21 -45 -25 -45 -5 0 -8 20 -8 45 0 25
-4 45 -10 45 -6 0 -10 -26 -10 -59z"/>
<path d="M3215 1445 c-49 -48 -20 -136 39 -121 26 6 56 51 56 83 0 28 -29 63
-51 63 -11 0 -31 -11 -44 -25z m60 -44 c0 -54 -27 -79 -51 -46 -24 32 1 99 35
93 12 -2 16 -15 16 -47z"/>
<path d="M3367 1453 c-3 -10 -8 -36 -12 -58 -3 -22 -8 -48 -11 -57 -4 -12 0
-18 10 -18 10 0 16 9 16 24 0 38 19 41 31 7 6 -17 15 -31 20 -31 12 0 11 12 0
44 -7 18 -6 28 5 36 17 15 18 42 2 58 -18 18 -56 15 -61 -5z m41 -25 c-4 -27
-28 -36 -28 -10 0 20 8 32 22 32 5 0 8 -10 6 -22z"/>
<path d="M3497 1460 c-9 -22 -28 -133 -23 -138 10 -10 26 11 26 34 0 33 13 30
27 -7 7 -17 17 -28 22 -25 7 5 5 19 -6 40 -15 33 -15 36 6 61 31 40 26 53 -8
21 l-29 -28 -4 28 c-3 20 -6 24 -11 14z"/>
<path d="M3628 1465 c-11 -17 -31 -135 -24 -142 10 -11 16 1 27 61 10 57 9
100 -3 81z"/>
<path d="M3697 1463 c-3 -5 -8 -30 -12 -58 -4 -27 -9 -58 -12 -67 -2 -10 0
-18 6 -18 5 0 13 24 18 53 l9 52 27 -53 c15 -29 32 -50 36 -47 5 2 12 26 16
52 3 27 9 58 12 71 3 12 0 22 -5 22 -6 0 -14 -20 -18 -45 -3 -25 -10 -45 -14
-45 -4 0 -15 18 -25 40 -19 43 -31 55 -38 43z"/>
<path d="M3864 1446 c-31 -26 -38 -82 -15 -110 16 -19 70 -21 76 -3 9 28 9 42
0 45 -6 1 -11 -6 -13 -18 -7 -41 -52 -15 -52 30 0 32 28 60 59 60 12 0 19 4
16 10 -11 17 -43 11 -71 -14z"/>
</g>
</svg>
