<?xml version="1.0" encoding="UTF-8" standalone="no"?>
<svg
   version="1.0"
   viewBox="0 0 400.000000 400.000000"
   preserveAspectRatio="xMidYMid meet"
   id="svg30"
   sodipodi:docname="fibrolan.svg"
   inkscape:version="1.3 (0e150ed6c4, 2023-07-21)"
   xmlns:inkscape="http://www.inkscape.org/namespaces/inkscape"
   xmlns:sodipodi="http://sodipodi.sourceforge.net/DTD/sodipodi-0.dtd"
   xmlns="http://www.w3.org/2000/svg"
   xmlns:svg="http://www.w3.org/2000/svg">
  <defs
     id="defs30" />
  <sodipodi:namedview
     id="namedview30"
     pagecolor="#ffffff"
     bordercolor="#000000"
     borderopacity="0.25"
     inkscape:showpageshadow="2"
     inkscape:pageopacity="0.0"
     inkscape:pagecheckerboard="0"
     inkscape:deskcolor="#d1d1d1"
     inkscape:document-units="pt"
     inkscape:zoom="2.199375"
     inkscape:cx="266.43933"
     inkscape:cy="266.66667"
     inkscape:window-width="2560"
     inkscape:window-height="1369"
     inkscape:window-x="4472"
     inkscape:window-y="-8"
     inkscape:window-maximized="1"
     inkscape:current-layer="svg30" />
  <path
     d="M 251,131.7 C 150.2,136 85.3,144.5 40,159.1 17.5,166.3 2.1,176.6 0.5,185.3 c -5.1,27 71.2,46.7 212.5,54.8 27.2,1.6 187,2.4 187,1 0,-0.8 -14.7,-1.1 -52.7,-1.1 C 264.5,239.9 215.2,238.1 174,233.4 103.5,225.5 57.6,212 46.5,196 c -2.4,-3.4 -2.7,-4.7 -2.3,-9.1 0.5,-4.4 1.1,-5.7 5.4,-10 19.3,-19.6 86.7,-35.2 178.3,-41.4 12.4,-0.8 27.2,-1.5 33.1,-1.5 15.2,0 32,-1.2 31.4,-2.1 -0.5,-0.8 -25.3,-0.9 -41.4,-0.2 z m -134.3,15.9 c -0.3,0.3 -1.2,0.4 -1.9,0.1 -0.8,-0.3 -0.5,-0.6 0.6,-0.6 1.1,-0.1 1.7,0.2 1.3,0.5 z m -13.8,3.3 c -45.1,11.9 -65.1,25.5 -60.9,41.3 3.1,11.5 21.8,21.7 56.2,30.8 13.4,3.6 7.2,3.2 -10.2,-0.6 C 33.4,210.4 11.9,194 28.8,177.1 38,168 61.3,158.6 92,151.6 c 18.5,-4.1 25.9,-4.6 10.9,-0.7 z M 79,152.2 c -33.9,10.1 -51.5,19.1 -56.5,28.9 -1.9,3.6 -1.9,10.2 -0.1,13.8 2.6,4.9 10.6,11.2 19.9,15.6 8.4,4 30.5,11.4 34.5,11.6 0.9,0 1.2,0.3 0.6,0.5 -1.7,0.7 -27.3,-5.3 -39.3,-9.2 -25.6,-8.4 -37.3,-17.6 -35.3,-28 0.3,-1.5 2.6,-4.9 5.1,-7.4 9.9,-9.7 30.4,-17.5 69.6,-26.3 3.9,-0.9 5,-0.5 1.5,0.5 z"
     id="path1"
     style="fill:#000000;stroke:none;stroke-width:0.1" />
  <path
     d="m 279.7,155.7 c -5.2,0.4 -6.1,2.6 -1.4,3.1 5.1,0.6 5.8,3.2 5.5,21.8 l -0.3,16.9 -13.2,-17.8 C 263,170 256.5,161.1 255.8,160 c -1.1,-1.8 -2.4,-2 -10.5,-2 -8.7,0 -11.1,0.8 -8,2.7 0.7,0.4 2.3,2.1 3.5,3.7 2.1,2.8 2.2,3.7 2.2,25.3 0,13.6 -0.4,23.2 -1,24.4 -0.6,1.1 -2.1,1.9 -3.5,1.9 -3.5,0 -3.1,1.6 0.6,2.4 4.9,1 14.9,0.7 14.9,-0.4 0,-0.6 -0.8,-1 -1.8,-1 -1.1,0 -2.6,-0.8 -3.6,-1.9 -1.4,-1.6 -1.6,-4.3 -1.4,-21.9 l 0.3,-20.1 19,24.9 c 10.4,13.8 19.4,24.9 20,24.7 0.6,-0.2 1.1,-11.2 1.3,-30.7 0.2,-26.4 0.5,-30.7 1.9,-32.2 0.9,-1 2.2,-1.8 3,-1.8 0.7,0 1.3,-0.7 1.3,-1.5 0,-1.5 -2.6,-1.7 -14.3,-0.8 z"
     id="path2"
     style="fill:#000000;stroke:none;stroke-width:0.1" />
  <path
     d="m 200.7,184.2 c -6.2,20.2 -8.3,25.8 -10.4,27.6 -1.4,1.3 -2.4,2.4 -2.2,2.6 1.1,0.9 11.9,1.5 11.9,0.7 0,-0.5 -0.9,-1.3 -2,-1.6 -2.3,-0.7 -2.5,-2.7 -0.8,-9 l 1.2,-4.6 7.6,0.3 c 8.3,0.3 9,1 10.5,9 0.6,3 0.4,3.9 -0.9,4.3 -5.3,1.7 -5.2,1.6 -3.1,2.5 3.4,1.3 22.5,2.3 22.5,1.1 0,-0.5 -0.9,-1.2 -1.9,-1.6 -2.2,-0.7 -2.9,-2.5 -15.2,-36.3 -4.1,-11.1 -7.8,-20.2 -8.4,-20.2 -0.6,0 -4.6,11.4 -8.8,25.2 z m 9.1,4 3.1,8.8 h -6.5 c -3.5,0 -6.4,-0.3 -6.4,-0.8 -0.1,-2.2 5.4,-18.1 6,-17.5 0.4,0.4 2.1,4.7 3.8,9.5 z"
     id="path3"
     style="fill:#000000;stroke:none;stroke-width:0.1" />
  <path
     d="m 168.5,162.7 c -10.2,0.8 -14.5,1.5 -14.5,2.4 0,0.5 0.7,0.9 1.5,0.9 2.9,0 3.5,3.9 3.5,22.5 v 18.6 l -2.6,2.4 c -1.9,1.8 -2.3,2.6 -1.3,2.9 1.4,0.4 31.3,2.6 31.5,2.3 0.1,-0.1 0.4,-4.3 0.8,-9.2 l 0.6,-9 -1.8,3.5 c -5.4,10.4 -11.1,13.6 -17,9.4 -2.1,-1.5 -2.2,-2 -2.2,-20.7 0,-15.8 0.3,-19.7 1.6,-21.5 0.8,-1.2 2.2,-2.2 3,-2.2 0.8,0 1.4,-0.7 1.4,-1.5 0,-0.8 -0.1,-1.4 -0.2,-1.3 -0.2,0.1 -2.1,0.3 -4.3,0.5 z"
     id="path4"
     style="fill:#000000;stroke:none;stroke-width:0.1" />
  <path
     d="m 89.4,168.3 c -1,2.8 0,7.2 1.8,7.5 2.1,0.4 3.6,-4.3 2.1,-6.6 -1.4,-2.2 -3.2,-2.6 -3.9,-0.9 z"
     id="path5"
     style="fill:#000000;stroke:none;stroke-width:0.1" />
  <path
     d="m 96,167.9 c 0,0.6 0.5,1.3 1,1.6 0.6,0.4 1,8 1,19.6 0,10.8 0.4,18.9 0.9,18.9 0.5,0 1.1,-0.5 1.3,-1.1 0.2,-0.7 1.5,-0.4 3.5,0.7 2.9,1.7 3.2,1.7 5.8,0 3.6,-2.3 5.5,-7.3 5.5,-14.1 0,-10.2 -4.5,-16.4 -9.6,-13 L 103,182 v -7.5 -7.5 h -3.5 c -1.9,0 -3.5,0.4 -3.5,0.9 z m 12.4,16.8 c 2.1,7.8 1.7,17.5 -1,20.9 -1.4,1.8 -1.4,1.8 -2.9,0 -1.5,-2 -2.2,-17.6 -0.9,-21 0.8,-2.1 4.1,-2 4.8,0.1 z"
     id="path6"
     style="fill:#000000;stroke:none;stroke-width:0.1" />
  <path
     d="m 72.5,168.7 c -3.3,0.2 -6.4,0.8 -6.9,1.4 -0.6,0.6 -0.4,0.9 0.6,0.9 2.5,0 2.8,2.1 2.8,17 0,11 -0.3,14.2 -1.5,15.4 -2.4,2.3 -1.9,2.6 4.8,2.5 3.4,-0.1 5.5,-0.3 4.6,-0.6 -1,-0.2 -2,-1.4 -2.3,-2.6 -1,-3.7 -0.7,-13.5 0.4,-14.2 1.6,-1 3.9,1.3 4.9,4.9 0.7,2.4 0.9,0.9 0.9,-6.4 0,-7.3 -0.2,-8.8 -0.9,-6.4 -1,3.6 -3.3,5.9 -4.9,4.9 -1.7,-1 -1.2,-12.1 0.6,-13.9 3,-3 7,-1 9,4.5 1.2,3.4 1.2,3.4 1.3,-2.4 l 0.1,-5.7 -3.7,0.2 c -2.1,0.1 -6.5,0.3 -9.8,0.5 z"
     id="path7"
     style="fill:#000000;stroke:none;stroke-width:0.1" />
  <path
     d="m 126.2,181.2 c -1.9,1.9 -2.2,2 -2.2,0.5 0,-1.3 -0.9,-1.7 -4.2,-1.7 -3.3,0 -3.9,0.3 -3,1.2 1.5,1.5 1.7,25.4 0.2,26.3 -2.4,1.5 -0.6,2.5 4.7,2.5 5.4,0 5.5,-0.1 4,-1.8 -2.2,-2.4 -2.4,-19.8 -0.3,-22.7 1.3,-1.8 1.4,-1.8 2.5,0.3 1.6,3 3.9,2.8 4.7,-0.5 1.4,-5.2 -2.6,-7.8 -6.4,-4.1 z"
     id="path8"
     style="fill:#000000;stroke:none;stroke-width:0.1" />
  <path
     d="m 137,182 c -9.5,10.2 -3,32.1 8.8,29.5 9.8,-2.1 12.5,-21 4.4,-29.8 -3.7,-3.9 -9.4,-3.8 -13.2,0.3 z m 9.7,1.7 c 1.4,4.8 0.9,22.9 -0.6,24.7 -1.9,2.3 -3.6,2 -4.9,-0.9 -1.5,-3.2 -1.6,-21.9 -0.2,-24.6 1.6,-2.9 4.8,-2.4 5.7,0.8 z"
     id="path9"
     style="fill:#000000;stroke:none;stroke-width:0.1" />
  <path
     d="m 87,180.9 c 0,0.6 0.5,1.3 1,1.6 1.4,0.9 1.3,22.2 -0.1,23.1 -1.5,0.9 0.9,2.4 4.1,2.4 h 2.5 L 94.2,195.3 C 94,188.2 93.7,181.9 93.5,181.2 93,179.8 87,179.5 87,180.9 Z"
     id="path10"
     style="fill:#000000;stroke:none;stroke-width:0.1" />
  <path
     d="m 138.5,254.2 c -0.9,2.6 -2.5,13.2 -2.1,13.6 1,1 2.6,-1.1 2.6,-3.4 0,-1.7 0.5,-2.4 2,-2.4 1.1,0 2,-0.5 2,-1 0,-0.6 -0.7,-1 -1.5,-1 -0.9,0 -1.5,-0.9 -1.5,-2.5 0,-1.8 0.5,-2.5 2,-2.5 1.1,0 2,-0.5 2,-1 0,-1.5 -5,-1.2 -5.5,0.2 z"
     id="path11"
     style="fill:#000000;stroke:none;stroke-width:0.1" />
  <path
     d="m 149.7,253.7 c -0.2,0.5 -0.7,2.6 -1.1,4.8 -0.4,2.2 -0.9,5.3 -1.2,6.9 -0.5,2.1 -0.3,2.7 0.7,2.4 1.5,-0.5 4.1,-13.6 2.8,-14.4 -0.4,-0.2 -1,-0.1 -1.2,0.3 z"
     id="path12"
     style="fill:#000000;stroke:none;stroke-width:0.1" />
  <path
     d="m 156.7,255.2 c -0.3,1.3 -0.9,4.7 -1.3,7.5 -0.6,4.9 -0.5,5.3 1.4,5.3 4.9,0 8.4,-3.8 6.1,-6.6 -0.9,-1.1 -0.9,-1.8 -0.1,-2.6 1.7,-1.7 1.5,-4.5 -0.4,-5.2 -3.1,-1.2 -5.2,-0.6 -5.7,1.6 z m 4.8,1.9 c 0,0.7 -0.8,1.5 -1.7,1.7 -1.2,0.2 -1.5,-0.2 -1.1,-1.8 0.6,-2.3 2.8,-2.2 2.8,0.1 z m -0.7,6.2 c 0.2,1 -0.4,2 -1.3,2.3 -2.1,0.8 -2.5,0.3 -1.8,-2.4 0.6,-2.5 2.6,-2.4 3.1,0.1 z"
     id="path13"
     style="fill:#000000;stroke:none;stroke-width:0.1" />
  <path
     d="m 169.6,253.8 c -0.2,0.4 -0.7,2.5 -1.1,4.7 -0.3,2.2 -0.9,5.2 -1.1,6.7 -0.5,2.6 -0.3,2.8 3,2.8 2,0 3.6,-0.5 3.6,-1 0,-0.6 -0.9,-1 -2,-1 -1.5,0 -2,-0.7 -2,-2.5 0,-1.8 0.5,-2.5 2,-2.5 1.1,0 2,-0.5 2,-1 0,-0.6 -0.7,-1 -1.5,-1 -0.8,0 -1.5,-0.9 -1.5,-2 0,-1.3 0.7,-2 2,-2 1.1,0 2,-0.5 2,-1 0,-1.2 -4.7,-1.4 -5.4,-0.2 z"
     id="path14"
     style="fill:#000000;stroke:none;stroke-width:0.1" />
  <path
     d="m 180.1,258.7 c -1.4,6.9 -1.4,9.3 -0.1,9.3 0.6,0 1,-0.8 1,-1.8 0,-0.9 0.5,-2.4 1,-3.2 0.7,-1.2 1.2,-0.8 2.1,1.7 1.3,3.9 3.4,4.5 2.5,0.7 -0.4,-1.4 -0.1,-4.1 0.5,-5.9 1.5,-4 0.1,-6.5 -3.6,-6.5 -1.9,0 -2.4,0.8 -3.4,5.7 z m 5.3,-2.8 c 0.9,1.4 -0.5,4.1 -2.1,4.1 -1,0 -1.3,-0.6 -0.9,-1.6 0.3,-0.9 0.6,-2 0.6,-2.5 0,-1.2 1.7,-1.2 2.4,0 z"
     id="path15"
     style="fill:#000000;stroke:none;stroke-width:0.1" />
  <path
     d="m 194.6,255.1 c -4.4,3.5 -3,12.9 2,12.9 6.4,0 9.7,-12.2 3.9,-14.4 -2.5,-0.9 -3,-0.8 -5.9,1.5 z m 6.2,3.6 c 0.4,4 -1.3,7.3 -3.7,7.3 -3.3,0 -4.1,-5.1 -1.5,-8.8 2.2,-3.2 4.8,-2.4 5.2,1.5 z"
     id="path16"
     style="fill:#000000;stroke:none;stroke-width:0.1" />
  <path
     d="m 209.5,254.2 c -1,3 -2.4,13.2 -1.9,13.7 0.7,0.8 2.4,-2 2.4,-4.2 0,-1 0.8,-1.7 1.9,-1.7 2.3,0 5.1,-2.5 5.1,-4.5 0,-3.4 -6.5,-6.2 -7.5,-3.3 z m 4.5,3.2 c 0,1.3 -0.7,2.6 -1.5,3 -1.1,0.4 -1.5,-0.2 -1.5,-2.4 0,-2 0.5,-3 1.5,-3 0.9,0 1.5,0.9 1.5,2.4 z"
     id="path17"
     style="fill:#000000;stroke:none;stroke-width:0.1" />
  <path
     d="m 220.5,254 c -0.3,0.5 0.3,1 1.5,1 1.6,0 2,0.5 1.7,1.7 -1.3,4.5 -1.8,11.3 -0.8,11.3 0.9,0 1.3,-1.4 2.7,-9.3 0.5,-2.7 1.1,-3.7 2.5,-3.7 1.1,0 1.9,-0.5 1.9,-1 0,-0.6 -2,-1 -4.4,-1 -2.5,0 -4.8,0.4 -5.1,1 z"
     id="path18"
     style="fill:#000000;stroke:none;stroke-width:0.1" />
  <path
     d="m 233.1,260.1 c -1.1,6.5 -0.9,9.1 0.4,7.7 0.6,-0.6 2.5,-10.4 2.5,-12.9 0,-1.1 -0.4,-1.9 -0.9,-1.9 -0.4,0 -1.3,3.2 -2,7.1 z"
     id="path19"
     style="fill:#000000;stroke:none;stroke-width:0.1" />
  <path
     d="m 242.5,255.5 c -4.6,4.5 -2.4,12.5 3.3,12.5 2.9,0 2.8,-1.8 0,-2.2 -1.4,-0.2 -2.6,-1.3 -3.2,-3 -1.2,-3.5 1.4,-7.8 4.9,-7.8 1.4,0 2.5,-0.5 2.5,-1 0,-2 -5.1,-1 -7.5,1.5 z"
     id="path20"
     style="fill:#000000;stroke:none;stroke-width:0.1" />
  <path
     d="m 262.5,254.2 c -0.9,2.8 -2.5,13.2 -2,13.6 0.9,1 1.7,-0.6 2.2,-4.7 0.3,-2.3 0.9,-4.1 1.2,-4.1 0.4,0 1.7,2 2.9,4.6 1.2,2.5 2.6,4.3 3.1,4 0.5,-0.3 1.2,-2.7 1.6,-5.3 0.3,-2.7 0.9,-5.8 1.2,-7.1 0.3,-1.2 0.1,-2.2 -0.5,-2.2 -0.6,0 -1.4,2.4 -1.9,5.2 l -0.9,5.3 -2.7,-5.3 c -2.8,-5.4 -3.5,-6 -4.2,-4 z"
     id="path21"
     style="fill:#000000;stroke:none;stroke-width:0.1" />
  <path
     d="m 277.1,259.3 c -0.6,3.5 -1.1,6.9 -1.1,7.5 0,1.5 5.6,1.6 6.5,0.2 0.3,-0.6 -0.4,-1 -1.8,-1 -2,0 -2.3,-0.4 -1.9,-2.5 0.3,-1.6 1.1,-2.5 2.3,-2.5 1.1,0 1.9,-0.5 1.9,-1 0,-0.6 -0.7,-1 -1.5,-1 -0.8,0 -1.5,-0.9 -1.5,-2 0,-1.3 0.7,-2 2,-2 1.1,0 2,-0.5 2,-1 0,-0.6 -1.3,-1 -2.9,-1 -2.8,0 -2.9,0.3 -4,6.3 z"
     id="path22"
     style="fill:#000000;stroke:none;stroke-width:0.1" />
  <path
     d="m 288.5,254 c -0.3,0.5 0.3,1 1.5,1 1.6,0 2,0.5 1.6,1.7 -0.3,1 -0.8,3.9 -1.2,6.5 -0.8,5.8 1.2,6.7 2.1,1 1.5,-8.7 1.6,-9.2 3.6,-9.2 1,0 1.9,-0.5 1.9,-1 0,-0.6 -2,-1 -4.4,-1 -2.5,0 -4.8,0.4 -5.1,1 z"
     id="path23"
     style="fill:#000000;stroke:none;stroke-width:0.1" />
  <path
     d="m 301,258.9 c 0,9.9 1.6,11.6 4.5,5.1 2.1,-4.6 3.5,-4.4 3.5,0.6 0,3.7 1.4,4.5 2.9,1.5 2.5,-4.6 5,-12.1 4.2,-12.6 -0.5,-0.3 -1.7,1.9 -2.7,4.7 l -1.8,5.3 -1,-5.3 c -0.5,-2.8 -1.2,-5.2 -1.6,-5.2 -0.5,0 -1.6,2 -2.7,4.5 -1,2.5 -2.1,4.5 -2.5,4.5 -0.5,0 -0.8,-2 -0.8,-4.5 0,-2.5 -0.4,-4.5 -1,-4.5 -0.6,0 -1,2.6 -1,5.9 z"
     id="path24"
     style="fill:#000000;stroke:none;stroke-width:0.1" />
  <path
     d="m 321.5,255.5 c -4.9,4.8 -2,13.6 3.9,12.1 2.6,-0.6 5.6,-5.1 5.6,-8.3 0,-2.8 -2.9,-6.3 -5.1,-6.3 -1.1,0 -3.1,1.1 -4.4,2.5 z m 6,4.4 c 0,5.4 -2.7,7.9 -5.1,4.6 -2.4,-3.2 0.1,-9.9 3.5,-9.3 1.2,0.2 1.6,1.5 1.6,4.7 z"
     id="path25"
     style="fill:#000000;stroke:none;stroke-width:0.1" />
  <path
     d="m 336.7,254.7 c -0.3,1 -0.8,3.6 -1.2,5.8 -0.3,2.2 -0.8,4.8 -1.1,5.7 -0.4,1.2 0,1.8 1,1.8 1,0 1.6,-0.9 1.6,-2.4 0,-3.8 1.9,-4.1 3.1,-0.7 0.6,1.7 1.5,3.1 2,3.1 1.2,0 1.1,-1.2 0,-4.4 -0.7,-1.8 -0.6,-2.8 0.5,-3.6 1.7,-1.5 1.8,-4.2 0.2,-5.8 -1.8,-1.8 -5.6,-1.5 -6.1,0.5 z m 4.1,2.5 c -0.4,2.7 -2.8,3.6 -2.8,1 0,-2 0.8,-3.2 2.2,-3.2 0.5,0 0.8,1 0.6,2.2 z"
     id="path26"
     style="fill:#000000;stroke:none;stroke-width:0.1" />
  <path
     d="m 349.7,254 c -0.9,2.2 -2.8,13.3 -2.3,13.8 1,1 2.6,-1.1 2.6,-3.4 0,-3.3 1.3,-3 2.7,0.7 0.7,1.7 1.7,2.8 2.2,2.5 0.7,-0.5 0.5,-1.9 -0.6,-4 -1.5,-3.3 -1.5,-3.6 0.6,-6.1 3.1,-4 2.6,-5.3 -0.8,-2.1 l -2.9,2.8 -0.4,-2.8 c -0.3,-2 -0.6,-2.4 -1.1,-1.4 z"
     id="path27"
     style="fill:#000000;stroke:none;stroke-width:0.1" />
  <path
     d="m 362.8,253.5 c -1.1,1.7 -3.1,13.5 -2.4,14.2 1,1.1 1.6,-0.1 2.7,-6.1 1,-5.7 0.9,-10 -0.3,-8.1 z"
     id="path28"
     style="fill:#000000;stroke:none;stroke-width:0.1" />
  <path
     d="m 369.7,253.7 c -0.3,0.5 -0.8,3 -1.2,5.8 -0.4,2.7 -0.9,5.8 -1.2,6.7 -0.2,1 0,1.8 0.6,1.8 0.5,0 1.3,-2.4 1.8,-5.3 l 0.9,-5.2 2.7,5.3 c 1.5,2.9 3.2,5 3.6,4.7 0.5,-0.2 1.2,-2.6 1.6,-5.2 0.3,-2.7 0.9,-5.8 1.2,-7.1 0.3,-1.2 0,-2.2 -0.5,-2.2 -0.6,0 -1.4,2 -1.8,4.5 -0.3,2.5 -1,4.5 -1.4,4.5 -0.4,0 -1.5,-1.8 -2.5,-4 -1.9,-4.3 -3.1,-5.5 -3.8,-4.3 z"
     id="path29"
     style="fill:#000000;stroke:none;stroke-width:0.1" />
  <path
     d="m 386.4,255.4 c -3.1,2.6 -3.8,8.2 -1.5,11 1.6,1.9 7,2.1 7.6,0.3 0.9,-2.8 0.9,-4.2 0,-4.5 -0.6,-0.1 -1.1,0.6 -1.3,1.8 -0.7,4.1 -5.2,1.5 -5.2,-3 0,-3.2 2.8,-6 5.9,-6 1.2,0 1.9,-0.4 1.6,-1 -1.1,-1.7 -4.3,-1.1 -7.1,1.4 z"
     id="path30"
     style="fill:#000000;stroke:none;stroke-width:0.1" />
</svg>
