<?xml version="1.0" encoding="UTF-8" standalone="no"?>
<!-- Created with Inkscape (http://www.inkscape.org/) -->

<svg
   xmlns:dc="http://purl.org/dc/elements/1.1/"
   xmlns:cc="http://creativecommons.org/ns#"
   xmlns:rdf="http://www.w3.org/1999/02/22-rdf-syntax-ns#"
   xmlns:svg="http://www.w3.org/2000/svg"
   xmlns="http://www.w3.org/2000/svg"
   xmlns:sodipodi="http://sodipodi.sourceforge.net/DTD/sodipodi-0.dtd"
   xmlns:inkscape="http://www.inkscape.org/namespaces/inkscape"
   width="375.77475"
   height="103.53556"
   id="svg3128"
   version="1.1"
   inkscape:version="0.92.1 r15371"
   sodipodi:docname="logo-fb-full.svg"
   inkscape:export-filename="/home/andrew/Documents/FB Logo and text red.png"
   inkscape:export-xdpi="299.85715"
   inkscape:export-ydpi="299.85715">
  <defs
     id="defs3130">
    <marker
       style="overflow:visible"
       id="Arrow2Lend"
       refX="0"
       refY="0"
       orient="auto"
       inkscape:stockid="Arrow2Lend">
      <path
         transform="matrix(-1.1,0,0,-1.1,-1.1,0)"
         d="M 8.7185878,4.0337352 -2.2072895,0.01601326 8.7185884,-4.0017078 c -1.7454984,2.3720609 -1.7354408,5.6174519 -6e-7,8.035443 z"
         style="font-size:12px;fill-rule:evenodd;stroke-width:0.625;stroke-linejoin:round"
         id="path3894"
         inkscape:connector-curvature="0" />
    </marker>
    <marker
       style="overflow:visible"
       id="Arrow1Lend"
       refX="0"
       refY="0"
       orient="auto"
       inkscape:stockid="Arrow1Lend">
      <path
         transform="matrix(-0.8,0,0,-0.8,-10,0)"
         style="fill-rule:evenodd;stroke:#000000;stroke-width:1.00000003pt;marker-start:none"
         d="M 0,0 5,-5 -12.5,0 5,5 Z"
         id="path3876"
         inkscape:connector-curvature="0" />
    </marker>
    <marker
       style="overflow:visible"
       id="Arrow1Lstart"
       refX="0"
       refY="0"
       orient="auto"
       inkscape:stockid="Arrow1Lstart">
      <path
         transform="matrix(0.8,0,0,0.8,10,0)"
         style="fill-rule:evenodd;stroke:#000000;stroke-width:1.00000003pt;marker-start:none"
         d="M 0,0 5,-5 -12.5,0 5,5 Z"
         id="path3873"
         inkscape:connector-curvature="0" />
    </marker>
    <inkscape:perspective
       id="perspective10"
       inkscape:persp3d-origin="0.5 : 0.33333333 : 1"
       inkscape:vp_z="1 : 0.5 : 1"
       inkscape:vp_y="0 : 1000 : 0"
       inkscape:vp_x="0 : 0.5 : 1"
       sodipodi:type="inkscape:persp3d" />
    <clipPath
       id="clipPath20"
       clipPathUnits="userSpaceOnUse">
      <path
         id="path22"
         d="M 0,0 H 8588.97 V 6120 H 0 Z"
         inkscape:connector-curvature="0" />
    </clipPath>
    <inkscape:perspective
       sodipodi:type="inkscape:persp3d"
       inkscape:vp_x="0 : 0.5 : 1"
       inkscape:vp_y="0 : 1000 : 0"
       inkscape:vp_z="1 : 0.5 : 1"
       inkscape:persp3d-origin="0.5 : 0.33333333 : 1"
       id="perspective3663" />
    <inkscape:perspective
       sodipodi:type="inkscape:persp3d"
       inkscape:vp_x="0 : 0.5 : 1"
       inkscape:vp_y="0 : 1000 : 0"
       inkscape:vp_z="1 : 0.5 : 1"
       inkscape:persp3d-origin="0.5 : 0.33333333 : 1"
       id="perspective3685" />
    <inkscape:perspective
       sodipodi:type="inkscape:persp3d"
       inkscape:vp_x="0 : 0.5 : 1"
       inkscape:vp_y="0 : 1000 : 0"
       inkscape:vp_z="1 : 0.5 : 1"
       inkscape:persp3d-origin="0.5 : 0.33333333 : 1"
       id="perspective3707" />
    <inkscape:perspective
       sodipodi:type="inkscape:persp3d"
       inkscape:vp_x="0 : 0.5 : 1"
       inkscape:vp_y="0 : 1000 : 0"
       inkscape:vp_z="1 : 0.5 : 1"
       inkscape:persp3d-origin="0.5 : 0.33333333 : 1"
       id="perspective3738" />
    <inkscape:perspective
       sodipodi:type="inkscape:persp3d"
       inkscape:vp_x="0 : 0.5 : 1"
       inkscape:vp_y="0 : 1000 : 0"
       inkscape:vp_z="1 : 0.5 : 1"
       inkscape:persp3d-origin="0.5 : 0.33333333 : 1"
       id="perspective3760" />
    <inkscape:perspective
       sodipodi:type="inkscape:persp3d"
       inkscape:vp_x="0 : 0.5 : 1"
       inkscape:vp_y="0 : 1000 : 0"
       inkscape:vp_z="1 : 0.5 : 1"
       inkscape:persp3d-origin="0.5 : 0.33333333 : 1"
       id="perspective3782" />
    <inkscape:perspective
       sodipodi:type="inkscape:persp3d"
       inkscape:vp_x="0 : 0.5 : 1"
       inkscape:vp_y="0 : 1000 : 0"
       inkscape:vp_z="1 : 0.5 : 1"
       inkscape:persp3d-origin="0.5 : 0.33333333 : 1"
       id="perspective3811" />
    <inkscape:perspective
       sodipodi:type="inkscape:persp3d"
       inkscape:vp_x="0 : 0.5 : 1"
       inkscape:vp_y="0 : 1000 : 0"
       inkscape:vp_z="1 : 0.5 : 1"
       inkscape:persp3d-origin="0.5 : 0.33333333 : 1"
       id="perspective5650" />
    <inkscape:perspective
       sodipodi:type="inkscape:persp3d"
       inkscape:vp_x="0 : 0.5 : 1"
       inkscape:vp_y="0 : 1000 : 0"
       inkscape:vp_z="1 : 0.5 : 1"
       inkscape:persp3d-origin="0.5 : 0.33333333 : 1"
       id="perspective5872" />
    <inkscape:perspective
       sodipodi:type="inkscape:persp3d"
       inkscape:vp_x="0 : 0.5 : 1"
       inkscape:vp_y="0 : 1000 : 0"
       inkscape:vp_z="1 : 0.5 : 1"
       inkscape:persp3d-origin="0.5 : 0.33333333 : 1"
       id="perspective6281" />
    <inkscape:perspective
       sodipodi:type="inkscape:persp3d"
       inkscape:vp_x="0 : 0.5 : 1"
       inkscape:vp_y="0 : 1000 : 0"
       inkscape:vp_z="1 : 0.5 : 1"
       inkscape:persp3d-origin="0.5 : 0.33333333 : 1"
       id="perspective6686" />
    <inkscape:perspective
       sodipodi:type="inkscape:persp3d"
       inkscape:vp_x="0 : 0.5 : 1"
       inkscape:vp_y="0 : 1000 : 0"
       inkscape:vp_z="1 : 0.5 : 1"
       inkscape:persp3d-origin="0.5 : 0.33333333 : 1"
       id="perspective7091" />
    <inkscape:perspective
       sodipodi:type="inkscape:persp3d"
       inkscape:vp_x="0 : 0.5 : 1"
       inkscape:vp_y="0 : 1000 : 0"
       inkscape:vp_z="1 : 0.5 : 1"
       inkscape:persp3d-origin="0.5 : 0.33333333 : 1"
       id="perspective7684" />
    <inkscape:perspective
       sodipodi:type="inkscape:persp3d"
       inkscape:vp_x="0 : 0.5 : 1"
       inkscape:vp_y="0 : 1000 : 0"
       inkscape:vp_z="1 : 0.5 : 1"
       inkscape:persp3d-origin="0.5 : 0.33333333 : 1"
       id="perspective8087" />
    <inkscape:perspective
       sodipodi:type="inkscape:persp3d"
       inkscape:vp_x="0 : 0.5 : 1"
       inkscape:vp_y="0 : 1000 : 0"
       inkscape:vp_z="1 : 0.5 : 1"
       inkscape:persp3d-origin="0.5 : 0.33333333 : 1"
       id="perspective8490" />
    <inkscape:perspective
       sodipodi:type="inkscape:persp3d"
       inkscape:vp_x="0 : 0.5 : 1"
       inkscape:vp_y="0 : 1000 : 0"
       inkscape:vp_z="1 : 0.5 : 1"
       inkscape:persp3d-origin="0.5 : 0.33333333 : 1"
       id="perspective8515" />
    <inkscape:perspective
       sodipodi:type="inkscape:persp3d"
       inkscape:vp_x="0 : 0.5 : 1"
       inkscape:vp_y="0 : 1000 : 0"
       inkscape:vp_z="1 : 0.5 : 1"
       inkscape:persp3d-origin="0.5 : 0.33333333 : 1"
       id="perspective8870" />
    <inkscape:perspective
       sodipodi:type="inkscape:persp3d"
       inkscape:vp_x="0 : 0.5 : 1"
       inkscape:vp_y="0 : 1000 : 0"
       inkscape:vp_z="1 : 0.5 : 1"
       inkscape:persp3d-origin="0.5 : 0.33333333 : 1"
       id="perspective8892" />
    <inkscape:perspective
       sodipodi:type="inkscape:persp3d"
       inkscape:vp_x="0 : 0.5 : 1"
       inkscape:vp_y="0 : 1000 : 0"
       inkscape:vp_z="1 : 0.5 : 1"
       inkscape:persp3d-origin="0.5 : 0.33333333 : 1"
       id="perspective8929" />
    <inkscape:perspective
       sodipodi:type="inkscape:persp3d"
       inkscape:vp_x="0 : 0.5 : 1"
       inkscape:vp_y="0 : 1000 : 0"
       inkscape:vp_z="1 : 0.5 : 1"
       inkscape:persp3d-origin="0.5 : 0.33333333 : 1"
       id="perspective8953" />
    <inkscape:perspective
       sodipodi:type="inkscape:persp3d"
       inkscape:vp_x="0 : 0.5 : 1"
       inkscape:vp_y="0 : 1000 : 0"
       inkscape:vp_z="1 : 0.5 : 1"
       inkscape:persp3d-origin="0.5 : 0.33333333 : 1"
       id="perspective9165" />
    <inkscape:perspective
       sodipodi:type="inkscape:persp3d"
       inkscape:vp_x="0 : 0.5 : 1"
       inkscape:vp_y="0 : 1000 : 0"
       inkscape:vp_z="1 : 0.5 : 1"
       inkscape:persp3d-origin="0.5 : 0.33333333 : 1"
       id="perspective10-1" />
  </defs>
  <sodipodi:namedview
     id="base"
     pagecolor="#ffffff"
     bordercolor="#666666"
     borderopacity="1.0"
     inkscape:pageopacity="0.0"
     inkscape:pageshadow="2"
     inkscape:zoom="5.6"
     inkscape:cx="102.11489"
     inkscape:cy="60.006243"
     inkscape:document-units="px"
     inkscape:current-layer="layer1"
     showgrid="false"
     fit-margin-top="0"
     fit-margin-left="0"
     fit-margin-right="0"
     fit-margin-bottom="0"
     inkscape:window-width="3840"
     inkscape:window-height="2082"
     inkscape:window-x="0"
     inkscape:window-y="0"
     inkscape:window-maximized="1"
     inkscape:measure-start="343.665,311.008"
     inkscape:measure-end="343.665,288.508" />
  <metadata
     id="metadata3133">
    <rdf:RDF>
      <cc:Work
         rdf:about="">
        <dc:format>image/svg+xml</dc:format>
        <dc:type
           rdf:resource="http://purl.org/dc/dcmitype/StillImage" />
        <dc:title></dc:title>
      </cc:Work>
    </rdf:RDF>
  </metadata>
  <g
     inkscape:label="Layer 1"
     inkscape:groupmode="layer"
     id="layer1"
     transform="translate(574.8974,-269.81217)">
    <g
       id="g7542"
       transform="matrix(0.20502091,0,0,0.20502091,-457.17786,296.80364)">
      <circle
         r="252.5"
         cy="120.84773"
         cx="-321.68311"
         id="path4773"
         style="fill:#bd1220;fill-opacity:1;stroke:none;stroke-width:3.30583239" />
      <circle
         r="247.5"
         cy="120.84773"
         cx="-321.68311"
         id="path4773-3"
         style="fill:#ffffff;fill-opacity:1;stroke:none;stroke-width:3.24037027" />
      <circle
         r="230"
         cy="120.84773"
         cx="-321.68311"
         id="path4773-6"
         style="fill:#bd1220;fill-opacity:1;stroke:none;stroke-width:3.01125336" />
      <path
         inkscape:export-ydpi="6.4400001"
         inkscape:export-xdpi="6.4400001"
         inkscape:export-filename="/home/andrew/Downloads/logo-fb-full-white.s.png"
         id="B"
         style="fill:none;stroke-width:2.05123162"
         d="M -475.52549,243.92164 V 72.64378 a 74.869955,74.869955 0 0 1 74.86995,-74.8699539 h 157.94485 a 74.869955,74.869955 0 0 1 57.28778,123.0739139 74.869955,74.869955 0 0 1 -57.28778,123.0739 h -130.25323 v -49.22956 h 130.25323 a 25.640403,25.640403 0 0 0 0,-51.2808 H -372.96392 V 98.284183 h 130.25323 a 25.640397,25.640397 0 0 0 0,-51.28079 h -157.94485 a 25.640395,25.640395 0 0 0 -25.6404,25.640387 v 171.27786 z"
         inkscape:connector-curvature="0" />
      <g
         style="stroke:none"
         transform="matrix(0.76915252,0,0,0.76915252,-13.187454,-27.004011)"
         id="g4807">
        <path
           inkscape:connector-curvature="0"
           d="M -583.86817,338.41477 V 134.91634 a 88.954402,88.954402 0 0 1 88.9544,-88.954399 h 187.65724 a 88.954402,88.954402 0 0 1 68.06469,146.226409 88.954402,88.954402 0 0 1 -68.06469,146.22642 z"
           style="fill:#ffffff;stroke:none;stroke-width:2.43710685"
           id="B-solid" />
        <path
           inkscape:connector-curvature="0"
           d="m -462.01284,338.4917 v -58.50981 h 154.75631 a 30.463835,30.473852 0 0 0 0,-60.9477 h -154.75631 v -53.63398 h 154.75631 a 30.463835,30.473855 0 0 0 0,-60.9477 h -187.65724 a 30.463835,30.473852 0 0 0 -30.46384,30.47385 V 338.4917 Z"
           style="fill:#bd1220;fill-opacity:1;stroke:none;stroke-width:2.43710685"
           id="F" />
      </g>
      <g
         inkscape:export-ydpi="6.4400001"
         inkscape:export-xdpi="6.4400001"
         inkscape:export-filename="/home/andrew/Downloads/logo-fb-full-white.s.png"
         id="text3201"
         style="font-style:normal;font-variant:normal;font-weight:normal;font-stretch:normal;font-size:94.19029999px;line-height:0%;font-family:'Nimbus Sans L';-inkscape-font-specification:'Nimbus Sans L';letter-spacing:0px;word-spacing:0px;fill:#bd1220;fill-opacity:1;stroke:none;stroke-width:7.84919071"
         transform="scale(0.98962222,1.0104866)"
         aria-label="FireBrick">
        <path
           inkscape:connector-curvature="0"
           id="path5984"
           style="font-style:normal;font-variant:normal;font-weight:normal;font-stretch:normal;font-size:293.35629272px;line-height:1.25;font-family:'Lucida Sans Unicode';-inkscape-font-specification:'Lucida Sans Unicode';fill:#bd1220;fill-opacity:1;stroke-width:7.84919071"
           d="M 42.44456,17.112286 H 165.3448 V 41.46315 H 71.379116 v 63.02577 h 84.798304 v 24.35086 H 71.379116 V 230.97017 H 42.44456 Z" />
        <path
           inkscape:connector-curvature="0"
           id="path5986"
           style="font-style:normal;font-variant:normal;font-weight:normal;font-stretch:normal;font-size:293.35629272px;line-height:1.25;font-family:'Lucida Sans Unicode';-inkscape-font-specification:'Lucida Sans Unicode';fill:#bd1220;fill-opacity:1;stroke-width:7.84919071"
           d="m 189.1227,70.540946 h 26.35623 V 230.97017 H 189.1227 Z m 0,-62.452804 h 26.35623 V 41.46315 H 189.1227 Z" />
        <path
           inkscape:connector-curvature="0"
           id="path5988"
           style="font-style:normal;font-variant:normal;font-weight:normal;font-stretch:normal;font-size:293.35629272px;line-height:1.25;font-family:'Lucida Sans Unicode';-inkscape-font-specification:'Lucida Sans Unicode';fill:#bd1220;fill-opacity:1;stroke-width:7.84919071"
           d="m 363.44624,95.178291 q -4.44045,-2.578326 -9.74034,-3.724249 -5.15666,-1.289164 -11.45923,-1.289164 -22.3455,0 -34.37769,14.610522 -11.88896,14.46727 -11.88896,41.68295 v 84.51182 H 269.48056 V 70.540946 h 26.49946 v 24.923826 q 8.30795,-14.610518 21.6293,-21.629297 13.32136,-7.162019 32.37233,-7.162019 2.72156,0 6.01609,0.429721 3.29453,0.286481 7.30526,1.002683 z" />
        <path
           inkscape:connector-curvature="0"
           id="path5990"
           style="font-style:normal;font-variant:normal;font-weight:normal;font-stretch:normal;font-size:293.35629272px;line-height:1.25;font-family:'Lucida Sans Unicode';-inkscape-font-specification:'Lucida Sans Unicode';fill:#bd1220;fill-opacity:1;stroke-width:7.84919071"
           d="m 522.29983,144.1665 v 12.89163 H 401.11848 q 1.71888,27.21568 16.3294,41.53971 14.75376,14.1808 40.96675,14.1808 15.18348,0 29.36427,-3.72425 14.32404,-3.72425 28.3616,-11.17275 v 24.92383 q -14.1808,6.01609 -29.0778,9.16738 -14.897,3.15129 -30.22372,3.15129 -38.38842,0 -60.87716,-22.3455 -22.3455,-22.3455 -22.3455,-60.44744 0,-39.3911 21.19958,-62.452803 21.34282,-23.204941 57.43939,-23.204941 32.37233,0 51.13681,20.913095 18.90773,20.769859 18.90773,56.579949 z m -26.35622,-7.73498 q -0.28649,-21.6293 -12.17544,-34.52093 -11.74571,-12.891635 -31.2264,-12.891635 -22.05902,0 -35.38037,12.461915 -13.17812,12.46191 -15.18348,35.09389 z" />
        <path
           inkscape:connector-curvature="0"
           id="path5992"
           style="font-style:normal;font-variant:normal;font-weight:normal;font-stretch:normal;font-size:293.35629272px;line-height:1.25;font-family:'Lucida Sans Unicode';-inkscape-font-specification:'Lucida Sans Unicode';fill:#bd1220;fill-opacity:1;stroke-width:7.84919071"
           d="m 595.63888,128.83978 v 78.35249 h 46.40988 q 23.34819,0 34.52093,-9.59711 11.31599,-9.74034 11.31599,-29.65076 0,-20.05365 -11.31599,-29.50751 -11.17274,-9.59711 -34.52093,-9.59711 z m 0,-87.949592 v 64.458172 h 42.82887 q 21.19958,0 31.51289,-7.878223 10.45655,-8.021461 10.45655,-24.350864 0,-16.186162 -10.45655,-24.207623 -10.31331,-8.021462 -31.51289,-8.021462 z M 566.70433,17.112286 h 73.91203 q 33.08853,0 50.99357,13.751076 17.90505,13.751076 17.90505,39.104623 0,19.623932 -9.16738,31.226405 -9.16739,11.60247 -26.92919,14.46728 21.34281,4.58369 33.08852,19.19421 11.88896,14.46727 11.88896,36.23981 0,28.64808 -19.4807,44.26128 -19.48069,15.6132 -55.43402,15.6132 h -76.77684 z" />
        <path
           inkscape:connector-curvature="0"
           id="path5994"
           style="font-style:normal;font-variant:normal;font-weight:normal;font-stretch:normal;font-size:293.35629272px;line-height:1.25;font-family:'Lucida Sans Unicode';-inkscape-font-specification:'Lucida Sans Unicode';fill:#bd1220;fill-opacity:1;stroke-width:7.84919071"
           d="m 859.6309,95.178291 q -4.44045,-2.578326 -9.74034,-3.724249 -5.15665,-1.289164 -11.45923,-1.289164 -22.3455,0 -34.37769,14.610522 -11.88895,14.46727 -11.88895,41.68295 v 84.51182 H 765.66522 V 70.540946 h 26.49947 v 24.923826 q 8.30794,-14.610518 21.62929,-21.629297 13.32136,-7.162019 32.37233,-7.162019 2.72157,0 6.01609,0.429721 3.29453,0.286481 7.30526,1.002683 z" />
        <path
           inkscape:connector-curvature="0"
           id="path5996"
           style="font-style:normal;font-variant:normal;font-weight:normal;font-stretch:normal;font-size:293.35629272px;line-height:1.25;font-family:'Lucida Sans Unicode';-inkscape-font-specification:'Lucida Sans Unicode';fill:#bd1220;fill-opacity:1;stroke-width:7.84919071"
           d="m 887.5628,70.540946 h 26.35623 V 230.97017 H 887.5628 Z m 0,-62.452804 h 26.35623 V 41.46315 H 887.5628 Z" />
        <path
           inkscape:connector-curvature="0"
           id="path5998"
           style="font-style:normal;font-variant:normal;font-weight:normal;font-stretch:normal;font-size:293.35629272px;line-height:1.25;font-family:'Lucida Sans Unicode';-inkscape-font-specification:'Lucida Sans Unicode';fill:#bd1220;fill-opacity:1;stroke-width:7.84919071"
           d="m 1084.3751,76.700283 v 24.637347 q -11.1728,-6.159339 -22.4888,-9.167387 -11.1727,-3.151288 -22.6319,-3.151288 -25.6401,0 -39.82087,16.329405 -14.1808,16.18616 -14.1808,45.55044 0,29.36428 14.1808,45.69368 14.18077,16.18616 39.82087,16.18616 11.4592,0 22.6319,-3.00805 11.316,-3.15129 22.4888,-9.31062 v 24.35086 q -11.0295,5.15666 -22.9185,7.73498 -11.7457,2.57833 -25.0671,2.57833 -36.2398,0 -57.58258,-22.77522 -21.34282,-22.77522 -21.34282,-61.45012 0,-39.24787 21.48606,-61.736604 21.62934,-22.48874 59.15824,-22.48874 12.1755,0 23.7779,2.578327 11.6025,2.435087 22.4888,7.4485 z" />
        <path
           inkscape:connector-curvature="0"
           id="path6000"
           style="font-style:normal;font-variant:normal;font-weight:normal;font-stretch:normal;font-size:293.35629272px;line-height:1.25;font-family:'Lucida Sans Unicode';-inkscape-font-specification:'Lucida Sans Unicode';fill:#bd1220;fill-opacity:1;stroke-width:7.84919071"
           d="m 1129.4958,8.088142 h 26.4995 V 139.72605 l 78.6389,-69.185104 h 33.6615 l -85.0848,75.057954 88.6658,85.37127 h -34.3777 l -81.5037,-78.35249 v 78.35249 h -26.4995 z" />
      </g>
    </g>
  </g>
</svg>
