<svg xmlns="http://www.w3.org/2000/svg" viewBox="0 0 375.775 103.536"><g transform="translate(117.72 26.991) scale(.20502)"><circle r="252.5" cy="120.848" cx="-321.683" fill="#bd1220"/><circle r="247.5" cy="120.848" cx="-321.683" fill="#fff"/><circle r="230" cy="120.848" cx="-321.683" fill="#bd1220"/><path d="M-475.525 243.922V72.644a74.87 74.87 0 0 1 74.87-74.87h157.944a74.87 74.87 0 0 1 57.288 123.074 74.87 74.87 0 0 1-57.288 123.074h-130.253v-49.23h130.253a25.64 25.64 0 0 0 0-51.28h-130.253V98.283h130.253a25.64 25.64 0 0 0 0-51.28h-157.945a25.64 25.64 0 0 0-25.64 25.64v171.278z" fill="none"/><path d="M-462.271 233.289V76.767a68.42 68.42 0 0 1 68.42-68.42h144.336a68.42 68.42 0 0 1 52.353 112.471 68.42 68.42 0 0 1-52.353 112.47z" fill="#fff"/><path d="M-368.546 233.348v-45.003h119.031a23.431 23.439 0 0 0 0-46.878h-119.03v-41.253h119.03a23.431 23.439 0 0 0 0-46.878h-144.337a23.431 23.439 0 0 0-23.431 23.439v156.573z" fill="#bd1220"/><g style="line-height:0%;-inkscape-font-specification:'Nimbus Sans L'" aria-label="FireBrick" font-weight="400" font-size="293.356" font-family="Lucida Sans Unicode" letter-spacing="0" word-spacing="0" fill="#bd1220" stroke-width="7.849"><path style="line-height:1.25;-inkscape-font-specification:'Lucida Sans Unicode'" d="M42.004 17.292H163.63v24.606h-92.99v63.687h83.918v24.606H70.638v103.201H42.004zM187.16 71.28h26.083v162.112H187.16zm0-63.107h26.083v33.725H187.16zM359.674 96.176q-4.394-2.605-9.639-3.763-5.103-1.303-11.34-1.303-22.114 0-34.021 14.764-11.766 14.62-11.766 42.12v85.398h-26.224V71.281h26.224v25.185q8.222-14.764 21.405-21.856 13.183-7.237 32.037-7.237 2.693 0 5.953.434 3.26.29 7.23 1.013zM516.88 145.678v13.027H396.956q1.7 27.501 16.16 41.975 14.6 14.33 40.541 14.33 15.026 0 29.06-3.763 14.175-3.764 28.067-11.29v25.185q-14.034 6.08-28.776 9.263-14.742 3.185-29.91 3.185-37.99 0-60.245-22.58-22.114-22.58-22.114-61.081 0-39.805 20.98-63.108 21.12-23.448 56.843-23.448 32.036 0 50.606 21.132 18.712 20.988 18.712 57.173zm-26.083-7.816q-.284-21.856-12.05-34.883-11.623-13.027-30.902-13.027-21.83 0-35.013 12.593-13.041 12.593-15.026 35.462zM589.457 130.19v79.175h45.929q23.106 0 34.162-9.698 11.199-9.842 11.199-29.961 0-20.264-11.199-29.817-11.056-9.698-34.162-9.698zm0-88.871v65.134h42.385q20.98 0 31.186-7.96 10.348-8.106 10.348-24.607 0-16.356-10.348-24.461-10.207-8.106-31.186-8.106zm-28.634-24.027h73.145q32.745 0 50.465 13.895 17.719 13.895 17.719 39.515 0 19.83-9.072 31.554-9.073 11.724-26.65 14.619 21.121 4.631 32.745 19.395 11.766 14.619 11.766 36.62 0 28.948-19.279 44.725-19.279 15.777-54.859 15.777h-75.98zM850.71 96.176q-4.395-2.605-9.64-3.763-5.103-1.303-11.34-1.303-22.113 0-34.02 14.764-11.766 14.62-11.766 42.12v85.398h-26.225V71.281h26.225v25.185q8.222-14.764 21.405-21.856 13.183-7.237 32.036-7.237 2.693 0 5.954.434 3.26.29 7.23 1.013zM878.352 71.28h26.083v162.112h-26.083zm0-63.107h26.083v33.725h-26.083zM1073.122 77.505V102.4q-11.057-6.224-22.256-9.263-11.056-3.185-22.397-3.185-25.374 0-39.407 16.501-14.034 16.356-14.034 46.028 0 29.672 14.034 46.173 14.033 16.356 39.407 16.356 11.34 0 22.397-3.04 11.199-3.184 22.256-9.408v24.606q-10.915 5.211-22.681 7.816-11.624 2.606-24.807 2.606-35.864 0-56.985-23.014-21.121-23.014-21.121-62.095 0-39.66 21.263-62.384 21.405-22.724 58.544-22.724 12.05 0 23.531 2.605 11.482 2.46 22.256 7.527zM1117.774 8.173H1144v133.018l77.822-69.91h33.313l-84.202 75.845 87.745 86.266h-34.02l-80.658-79.174v79.174h-26.225z"/></g></g></svg>
