<?xml version="1.0" encoding="UTF-8" standalone="no"?>
<svg xmlns="http://www.w3.org/2000/svg"><rect id="backgroundrect" width="100%" height="100%" x="0" y="0" fill="none" stroke="none" class="" style=""/><g class="currentLayer" style=""><title>Layer 1</title><g transform="translate(117.72 26.991) scale(0.20502 0.20502)" id="svg_1" class=""><circle r="97.6044" cy="-16.2949" cx="-449.189" fill="#bd1220" id="svg_2" transform=""/><circle r="95.6716" cy="-16.2949" cx="-449.189" fill="#fff" id="svg_3" transform=""/><circle r="88.907" cy="-16.2949" cx="-449.189" fill="#bd1220" id="svg_4" transform=""/><path d="M -522.547 39.9327 V -38.3173 a 35.7011 34.2051 0 0 1 35.7011 -34.2051 h 75.3142 a 35.7011 34.2051 0 0 1 27.3173 56.2276 a 35.7011 34.2051 0 0 1 -27.3173 56.2276 h -62.11 v -22.4912 h 62.11 a 12.2262 11.7139 0 0 0 0 -23.4278 h -62.11 V -26.6039 h 62.11 a 12.2262 11.7139 0 0 0 0 -23.4278 h -75.3147 a 12.2262 11.7139 0 0 0 -12.2262 11.7139 v 78.2501 Z" fill="none" id="svg_5" transform=""/><path d="M -516.227 35.0749 V -36.4337 a 32.6255 31.2584 0 0 1 32.6255 -31.2584 h 68.8254 a 32.6255 31.2584 0 0 1 24.9641 51.3835 a 32.6255 31.2584 0 0 1 -24.9641 51.383 Z" fill="#fff" id="svg_6" transform=""/><path d="M -471.535 35.1019 v -20.5601 h 56.7589 a 11.1729 10.7083 0 0 0 0 -21.4167 h -56.7584 v -18.8468 h 56.7584 a 11.1729 10.7083 0 0 0 0 -21.4167 h -68.8258 a 11.1729 10.7083 0 0 0 -11.1729 10.7083 v 71.5319 Z" fill="#bd1220" id="svg_7" transform=""/><g style="line-height:0%;-inkscape-font-specification:'Nimbus Sans L'" id="svg_8" transform=""><path style="line-height:1.25;-inkscape-font-specification:'Lucida Sans Unicode'" d="M -275.768 -63.6055 H -217.772 v 11.2415 H -262.113 v 29.096 h 40.0156 v 11.2415 h -40.0165 v 47.1484 H -275.768 Z M -206.552 -38.9405 h 12.4375 v 74.0625 H -206.552 Z m 0 -28.8311 h 12.4375 v 15.4076 H -206.552 Z m 82.2618 40.205 q -2.09524 -1.19012 -4.59627 -1.71916 q -2.43332 -0.595289 -5.40738 -0.595289 q -10.5449 0 -16.2226 6.74508 q -5.61051 6.67929 -5.61051 19.2429 v 39.0149 h -12.5047 V -38.94 h 12.5047 v 11.506 q 3.92059 -6.74508 10.2068 -9.98513 q 6.2862 -3.3063 15.2766 -3.3063 q 1.28413 0 2.83864 0.198277 q 1.5545 0.132489 3.44756 0.462799 Z m 74.9623 22.6155 v 5.95152 H -106.512 q 0.81063 12.5641 7.70575 19.1767 q 6.96188 6.5468 19.3316 6.5468 q 7.16502 0 13.857 -1.71916 q 6.75922 -1.71962 13.3835 -5.15795 v 11.506 q -6.69199 2.77771 -13.7216 4.23189 q -7.02959 1.4551 -14.2623 1.4551 q -18.1152 0 -28.7273 -10.3159 q -10.5449 -10.3159 -10.5449 -27.9055 q 0 -18.1853 10.0041 -28.8315 q 10.0709 -10.7125 27.1051 -10.7125 q 15.2761 0 24.131 9.65436 q 8.92265 9.58858 8.92265 26.1201 Z m -12.4375 -3.57082 q -0.135423 -9.98513 -5.74594 -15.9366 q -5.54233 -5.95152 -14.7353 -5.95152 q -10.4094 0 -16.6956 5.75324 q -6.21849 5.75324 -7.16502 16.2012 Z m 47.0452 -3.50503 v 36.1719 h 21.9008 q 11.0179 0 16.2899 -4.43063 q 5.34015 -4.49642 5.34015 -13.688 q 0 -9.25781 -5.34015 -13.6222 q -5.27196 -4.43063 -16.2899 -4.43063 Z m 0 -40.6016 v 29.7571 h 20.2109 q 10.0041 0 14.8708 -3.63661 q 4.93435 -3.70331 4.93435 -11.242 q 0 -7.4724 -4.93435 -11.1753 q -4.86712 -3.70331 -14.8708 -3.70331 Z m -13.6539 -10.977 h 34.8785 q 15.6142 0 24.0638 6.34807 q 8.44915 6.34807 8.44915 18.0528 q 0 9.05953 -4.3259 14.4158 q -4.32638 5.35623 -12.7078 6.67884 q 10.0714 2.11572 15.6142 8.8608 q 5.61051 6.67884 5.61051 16.7302 q 0 13.2252 -9.19302 20.4331 q -9.19302 7.20788 -26.159 7.20788 h -36.2304 Z M 109.856 -27.5665 q -2.09572 -1.19012 -4.59675 -1.71916 q -2.43332 -0.595289 -5.40738 -0.595289 q -10.5444 0 -16.2221 6.74508 q -5.61051 6.67929 -5.61051 19.2429 v 39.0149 h -12.5052 V -38.94 h 12.5052 v 11.506 q 3.92059 -6.74508 10.2068 -9.98513 q 6.2862 -3.3063 15.2761 -3.3063 q 1.28413 0 2.83911 0.198277 q 1.5545 0.132489 3.44756 0.462799 Z m 13.1808 -11.374 h 12.4375 v 74.0625 h -12.4375 Z m 0 -28.8311 h 12.4375 v 15.4076 h -12.4375 Z m 92.8744 31.675 V -24.723 q -5.27243 -2.8435 -10.6126 -4.23189 q -5.27196 -1.4551 -10.6798 -1.4551 q -12.0994 0 -18.7909 7.53865 q -6.69199 7.4724 -6.69199 21.0283 q 0 13.5559 6.69199 21.0946 q 6.69151 7.4724 18.7909 7.4724 q 5.40738 0 10.6798 -1.38885 q 5.34015 -1.45464 10.6126 -4.29814 v 11.2415 q -5.20472 2.3807 -10.8152 3.57082 q -5.5428 1.19058 -11.829 1.19058 q -17.1014 0 -27.1728 -10.5142 q -10.0714 -10.5142 -10.0714 -28.3687 q 0 -18.1191 10.1391 -28.5008 q 10.2068 -10.3817 27.9162 -10.3817 q 5.74594 0 11.2206 1.19012 q 5.47509 1.12388 10.6126 3.43878 Z m 21.2919 -31.675 H 249.709 v 60.7706 l 37.1087 -31.9391 h 15.885 l -40.151 34.6505 l 41.8404 39.4115 h -16.2221 L 249.709 -1.04944 v 36.1714 h -12.5052 Z" aria-label="FireBrick" font-weight="400" font-size="293.356" font-family="Lucida Sans Unicode" letter-spacing="0" word-spacing="0" fill="#bd1220" stroke-width="7.849" id="svg_9" transform=""/></g></g></g></svg>
