<svg xmlns="http://www.w3.org/2000/svg" viewBox="0 0 124.579 64.585" version="1"><path d="M114.585 31.845c-1.718 9.746-18.133 17.982-35.206 18.396-17.076.42-29.52-7.143-27.797-16.884 1.725-9.745 16.965-17.981 34.033-18.4 13.447-.328 25.098 4.387 28.144 11.122.42 1.089 1.035 2.711.979 4.156a10.26 10.26 0 0 1-.153 1.61zm-6.89 15.517C96.275 54.825 77.86 59.755 59.87 59.755c-12.425 0-24.715-2.697-33.06-6.693 0 0 .207.019.242-.037.03-.057 27.262-44.316 27.262-44.316s-3.733-1.257-6.178.915c-1.426 1.224-5.63 2.954-9.166 3.91-6.06 1.692-6.435 1.671-8.822 2.35-2.925.831-4.173 4.425-4.173 4.425s12.338-2.276 12.443-2.3c.106-.028.351-.14.351-.14s-.197.16-.255.25c-.06.092-18.52 30.617-18.564 30.687-.048.07.06.215.06.215C13.837 44.417 9.3 38.578 9.846 32.346c1.327-15.14 26.42-27.409 54.822-27.409 11.388 0 21.71 1.992 29.913 5.352.271.108 1.082.386 1.348.499-.3-.04-1.147-.242-1.452-.277-3.139-.36-6.529-.496-10.139-.405-21.396.534-40.498 11.123-42.659 23.642-2.158 12.525 13.436 22.245 34.84 21.709 11.464-.286 22.933-3.36 31.112-8.182.448-.265 2.112-1.367 2.743-1.777-.325.316-1.921 1.372-2.678 1.864zM65.035 0C30.668 0 1.58 14.943.061 32.292c-1.52 17.347 25.112 32.293 59.476 32.293 34.366 0 63.463-14.946 64.979-32.293C126.036 14.942 99.403 0 65.034 0" fill="#231f20"/></svg>