<svg xmlns="http://www.w3.org/2000/svg" viewBox="0 0 128 90.203"><path d="M0 56.876h36.257V33.34H0v23.536zm46.16-33.342h35.58V0H46.16v23.534zm0 66.669h35.58V66.681H46.16v23.522zm45.474-33.327h36.363V33.34H91.634v23.536zM14.88.001C7.329 1.961 1.383 10.31 0 20.908v2.626h36.257V0H14.881M0 66.678v2.9c1.317 10.165 6.836 18.245 13.947 20.625h22.31V66.678H0m128-43.144v-2.648c-1.389-10.59-7.328-18.924-14.88-20.885H91.633v23.533H128m-13.94 66.669c7.097-2.372 12.616-10.446 13.94-20.595v-2.93H91.641v23.525h22.419" fill="#ed1b2d"/></svg>