<svg id="图层_1" xmlns="http://www.w3.org/2000/svg" viewBox="0 0 275.8 67.3"><style>.st0{display:none}.st1{fill:#a7a6a6}.st1,.st2{display:inline}.st3{fill:#d70c18}.st4{fill:#fff}.st5{fill:#4c4948}.st6{fill:#a7a6a6}</style><g class="st0"><path class="st1" d="M266.6 36.9l.8 16.5h6.6l-2.3-40.5h-9.2c-.9 2.6-8.7 26.4-9.7 30.6l-.4 1.5-.3-1.5c-.9-4.3-8.4-27.9-9.2-30.6h-9.3l-2.7 40.5h6.3l.9-16.2c.3-4.6.5-10.5.7-17.6v-.3s9.5 30.8 10.3 33.6h5.3c.9-2.8 11.7-33.6 11.7-33.6v.3c0 5.4.2 11.5.5 17.3z"/><g class="st2"><circle class="st3" cx="34.1" cy="33.7" r="32.8"/><path class="st3" d="M68 17.3c0-3-2.5-5.5-5.5-5.5h-4c2.7 3 4.8 6.5 6.3 10.4 1.9-.8 3.2-2.7 3.2-4.9z"/><path class="st4" d="M24.8 54.4h8.7c2.4 0 4.4-2 4.4-4.4s-2-4.4-4.4-4.4h-8.7c-2.4 0-4.4 2-4.4 4.4 0 2.5 2 4.4 4.4 4.4zM26.1 39.2h20.7c2.7 0 4.9-2.2 4.9-4.9s-2.2-4.9-4.9-4.9H26.1c-2.7 0-4.9 2.2-4.9 4.9 0 2.6 2.2 4.9 4.9 4.9zM58.5 11.9H27.6c-3 0-5.5 2.5-5.5 5.5s2.5 5.5 5.5 5.5h34.9c.8 0 1.6-.2 2.3-.5-1.4-4-3.6-7.5-6.3-10.5z"/><g><path class="st5" d="M106.4 19.7v-7.3H81.1v41.5h8.5V37.2h15.6v-7.3H89.6V19.7zM125.3 29.3c-6.1-2.2-7.2-3.7-7.2-6 0-2 1.6-4.3 6.2-4.3 3.2 0 5.6.9 7.1 1.6l1.7.9 2.5-6.9-1.1-.6c-1.5-.8-4.7-2.1-9.9-2.1-4.3 0-8 1.2-10.7 3.3-2.7 2.2-4.2 5.2-4.2 8.6 0 5.6 3.9 9.7 11.9 12.3 5.6 2 6.7 3.8 6.7 6.3 0 3.2-2.6 5.1-7 5.1-2.9 0-6.2-.9-8.7-2.3l-1.6-.9-2.5 7 1 .7c2.6 1.6 7.2 2.7 11.4 2.7 11.1 0 16-6.3 16-12.6-.1-7.6-5.9-10.7-11.6-12.8z"/></g></g><path class="st1" d="M181.9 12.9c-12.6 0-21.1 8.4-21.1 20.8 0 12.2 7.7 19.8 20.1 19.8 4.4 0 8.6-.9 10.5-1.8l-1.8-4.9c-2 .8-4.7 1.2-7.5 1.2-8.8 0-14.3-5.7-14.3-14.8 0-9.3 5.5-15.1 14.4-15.1 3.4 0 5.7.7 7.4 1.4l1.8-5c-1.6-.7-5.1-1.6-9.5-1.6zM210.5 12.8c-11 0-18.7 8.5-18.7 20.7 0 12 7.3 20 18.2 20 11.4 0 18.8-8.1 18.8-20.8-.1-11.9-7.4-19.9-18.3-19.9zm-.2 35.5c-6.8 0-11.5-6.2-11.5-15 0-9.2 4.6-15.3 11.5-15.3 7.8 0 11.4 7.8 11.4 15.1 0 9.1-4.6 15.2-11.4 15.2zM149.3 46.2c-2.3 0-3.9 1.7-3.9 4.1s1.6 4.1 3.9 4.1 3.9-1.7 3.9-4.1c0-2.3-1.6-4.1-3.9-4.1z"/></g><g class="st0"><g class="st2"><circle class="st3" cx="34" cy="33.5" r="32.8"/><path class="st3" d="M67.9 17.2c0-3-2.5-5.5-5.5-5.5h-4c2.7 3 4.8 6.5 6.3 10.4 1.9-.9 3.2-2.7 3.2-4.9z"/><path class="st4" d="M24.7 54.3h8.7c2.4 0 4.4-2 4.4-4.4s-2-4.4-4.4-4.4h-8.7c-2.4 0-4.4 2-4.4 4.4 0 2.4 2 4.4 4.4 4.4zM26.1 39h20.7c2.7 0 4.9-2.2 4.9-4.9s-2.2-4.9-4.9-4.9H26.1c-2.7 0-4.9 2.2-4.9 4.9-.1 2.7 2.2 4.9 4.9 4.9zM58.4 11.7H27.5c-3 0-5.5 2.5-5.5 5.5s2.5 5.5 5.5 5.5h34.9c.8 0 1.6-.2 2.3-.5-1.4-4-3.6-7.5-6.3-10.5z"/><g><path class="st5" d="M106.3 19.6v-7.3H81v41.4h8.5V37h15.6v-7.3H89.5V19.6zM127.4 29.2c-6.1-2.2-7.2-3.7-7.2-6 0-2 1.6-4.3 6.2-4.3 3.2 0 5.6.9 7.1 1.6l1.7.9 2.5-6.9-1.1-.6c-1.5-.8-4.7-2.1-9.9-2.1-4.3 0-8 1.2-10.7 3.3-2.7 2.2-4.2 5.2-4.2 8.6 0 5.6 3.9 9.7 11.9 12.3 5.6 2 6.7 3.8 6.7 6.3 0 3.2-2.6 5.1-7 5.1-2.9 0-6.2-.9-8.7-2.3l-1.6-.9-2.5 7 1 .7c2.6 1.6 7.2 2.7 11.4 2.7 11.1 0 16-6.3 16-12.6-.1-7.6-5.9-10.8-11.6-12.8z"/></g><path class="st6" d="M174.4 12.7c-12.6 0-21.1 8.4-21.1 20.8 0 12.2 7.7 19.8 20.1 19.8 4.4 0 8.6-.9 10.5-1.8l-1.8-4.9c-2 .8-4.7 1.2-7.5 1.2-8.8 0-14.3-5.7-14.3-14.8 0-9.3 5.5-15.1 14.4-15.1 3.4 0 5.7.7 7.4 1.4l1.8-5c-1.6-.6-5.1-1.6-9.5-1.6zM203 12.6c-11 0-18.7 8.5-18.7 20.7 0 12 7.3 20 18.2 20 11.4 0 18.8-8.1 18.8-20.8-.1-11.9-7.4-19.9-18.3-19.9zm-.3 35.6c-6.8 0-11.5-6.2-11.5-15 0-9.2 4.6-15.3 11.5-15.3 7.8 0 11.4 7.8 11.4 15.1.1 9-4.5 15.2-11.4 15.2zM147 46.1c-2.3 0-3.9 1.7-3.9 4.1s1.6 4.1 3.9 4.1 3.9-1.7 3.9-4.1-1.6-4.1-3.9-4.1z"/></g><path class="st1" d="M264 12.8h-9.3c-.5 1.7-3.7 11.6-6.2 19.8-1.6 4.9-2.9 9.2-3.3 10.8l-.2.9-.2-.9c-.4-1.6-1.7-5.9-3.3-10.8-2.5-8.2-5.6-18.1-6.2-19.8H226l-2.7 40.5h6.3l.9-16.2c.3-4.6.5-10.5.7-17.6v-.3s9.5 30.8 10.3 33.6h6.8c.8-2.8 10.3-33.6 10.3-33.6v.3c.2 7 .5 12.9.7 17.6l.9 16.2h6.3L264 12.8z"/></g><circle class="st3" cx="34" cy="33.4" r="32.8"/><path class="st3" d="M67.8 17c0-3-2.5-5.5-5.5-5.5h-4c2.7 3 4.8 6.5 6.3 10.4 1.9-.8 3.2-2.7 3.2-4.9z"/><path class="st4" d="M24.6 54.1h8.7c2.4 0 4.4-2 4.4-4.4 0-2.4-2-4.4-4.4-4.4h-8.7c-2.4 0-4.4 2-4.4 4.4 0 2.5 2 4.4 4.4 4.4zM26 38.9h20.7c2.7 0 4.9-2.2 4.9-4.9s-2.2-4.9-4.9-4.9H26c-2.7 0-4.9 2.2-4.9 4.9 0 2.6 2.2 4.9 4.9 4.9zM58.4 11.6h-31c-3 0-5.5 2.5-5.5 5.5s2.5 5.5 5.5 5.5h34.9c.8 0 1.6-.2 2.3-.5-1.4-4-3.5-7.5-6.2-10.5z"/><g><path class="st5" d="M106.3 19.4v-7.3H80.9v41.5h8.5V36.9H105v-7.3H89.4V19.4zM126.3 29c-6.1-2.2-7.2-3.7-7.2-6 0-2 1.6-4.3 6.2-4.3 3.2 0 5.6.9 7.1 1.6l1.7.9 2.5-6.9-1.1-.6c-1.5-.8-4.7-2.1-9.9-2.1-4.3 0-8 1.2-10.7 3.3-2.7 2.2-4.2 5.2-4.2 8.6 0 5.6 3.9 9.7 11.9 12.3 5.6 2 6.7 3.8 6.7 6.3 0 3.2-2.6 5.1-7 5.1-2.9 0-6.2-.9-8.7-2.3L112 44l-2.5 7 1 .7c2.6 1.6 7.2 2.7 11.4 2.7 11.1 0 16-6.3 16-12.6-.1-7.6-5.9-10.7-11.6-12.8z"/></g><path class="st6" d="M173.3 12.6c-12.6 0-21.1 8.4-21.1 20.8 0 12.2 7.7 19.8 20.1 19.8 4.4 0 8.6-.9 10.5-1.8l-1.8-4.9c-2 .8-4.7 1.2-7.5 1.2-8.8 0-14.3-5.7-14.3-14.8 0-9.3 5.5-15.1 14.4-15.1 3.4 0 5.7.7 7.4 1.4l1.8-5c-1.6-.7-5.1-1.6-9.5-1.6zM201.9 12.5c-11 0-18.7 8.5-18.7 20.7 0 12 7.3 20 18.2 20 11.4 0 18.8-8.1 18.8-20.8-.1-11.9-7.4-19.9-18.3-19.9zm-.2 35.5c-6.8 0-11.5-6.2-11.5-15 0-9.2 4.6-15.3 11.5-15.3 7.8 0 11.4 7.8 11.4 15.1 0 9.1-4.6 15.2-11.4 15.2zM145.9 45.9c-2.3 0-3.9 1.7-3.9 4.1s1.6 4.1 3.9 4.1 3.9-1.7 3.9-4.1c0-2.3-1.6-4.1-3.9-4.1zM262.9 12.7h-9.3c-.5 1.7-3.7 11.6-6.2 19.8-1.6 4.9-2.9 9.2-3.3 10.8l-.2.9-.2-.9c-.4-1.6-1.7-5.9-3.3-10.8-2.5-8.2-5.6-18.1-6.2-19.8h-9.3l-2.7 40.5h6.3l.9-16.2c.3-4.6.5-10.5.7-17.6v-.3s9.5 30.8 10.3 33.6h6.8c.8-2.8 10.3-33.6 10.3-33.6v.3c.2 7 .5 12.9.7 17.6l.9 16.2h6.3l-2.5-40.5z"/></svg>