<svg xmlns="http://www.w3.org/2000/svg" id="fs_1" viewBox="0 0 66.6 65.6"><style id="st394">.st0{display:none}.st1{fill:#a7a6a6}.st1,.st2{display:inline}.st3{fill:#d70c18}.st4{fill:#fff}.st5{fill:#4c4948}</style><circle class="st3" cx="32.8" cy="32.8" r="32.8" id="circle3832" fill="#d70c18"/><path class="st3" d="M66.6 16.4c0-3-2.5-5.5-5.5-5.5h-4c2.7 3 4.8 6.5 6.3 10.4 1.9-.8 3.2-2.7 3.2-4.9z" id="path3834" fill="#d70c18"/><path class="st4" d="M23.4 53.5h8.7c2.4 0 4.4-2 4.4-4.4 0-2.4-2-4.4-4.4-4.4h-8.7c-2.4 0-4.4 2-4.4 4.4 0 2.5 2 4.4 4.4 4.4zm1.4-15.2h20.7c2.7 0 4.9-2.2 4.9-4.9s-2.2-4.9-4.9-4.9H24.8c-2.7 0-4.9 2.2-4.9 4.9 0 2.6 2.2 4.9 4.9 4.9zM57.2 11h-31c-3 0-5.5 2.5-5.5 5.5s2.5 5.5 5.5 5.5h34.9c.8 0 1.6-.2 2.3-.5-1.4-4-3.5-7.5-6.2-10.5z" id="path3836" fill="#fff"/></svg>
