<?xml version="1.0" encoding="utf-8"?>
<!-- Generator: Adobe Illustrator 22.0.0, SVG Export Plug-In . SVG Version: 6.00 Build 0)  -->
<svg version="1.1" id="图层_1" xmlns="http://www.w3.org/2000/svg" xmlns:xlink="http://www.w3.org/1999/xlink" x="0px" y="0px"
	 viewBox="0 0 275.8 67.3" style="enable-background:new 0 0 275.8 67.3;" xml:space="preserve">
<style type="text/css">
	.st0{display:none;}
	.st1{display:inline;fill:#A7A6A6;}
	.st2{display:inline;}
	.st3{fill:#D70C18;}
	.st4{fill:#FFFFFF;}
	.st5{fill:#4C4948;}
	.st6{fill:#A7A6A6;}
</style>
<g class="st0">
	<path class="st1" d="M266.6,36.9l0.8,16.5h6.6l-2.3-40.5h-9.2c-0.9,2.6-8.7,26.4-9.7,30.6l-0.4,1.5l-0.3-1.5
		c-0.9-4.3-8.4-27.9-9.2-30.6h-9.3l-2.7,40.5h6.3l0.9-16.2c0.3-4.6,0.5-10.5,0.7-17.6v-0.3c0,0,9.5,30.8,10.3,33.6h5.3
		c0.9-2.8,11.7-33.6,11.7-33.6v0.3C266.1,25,266.3,31.1,266.6,36.9z"/>
	<g class="st2">
		<g>
			<g>
				<circle class="st3" cx="34.1" cy="33.7" r="32.8"/>
				<g>
					<path class="st3" d="M68,17.3c0-3-2.5-5.5-5.5-5.5h-4c2.7,3,4.8,6.5,6.3,10.4C66.7,21.4,68,19.5,68,17.3z"/>
				</g>
				<g>
					<path class="st4" d="M24.8,54.4h8.7c2.4,0,4.4-2,4.4-4.4s-2-4.4-4.4-4.4h-8.7c-2.4,0-4.4,2-4.4,4.4
						C20.4,52.5,22.4,54.4,24.8,54.4z"/>
					<path class="st4" d="M26.1,39.2h20.7c2.7,0,4.9-2.2,4.9-4.9s-2.2-4.9-4.9-4.9H26.1c-2.7,0-4.9,2.2-4.9,4.9
						C21.2,36.9,23.4,39.2,26.1,39.2z"/>
					<g>
						<path class="st4" d="M58.5,11.9L58.5,11.9L58.5,11.9h-0.2H27.6c-3,0-5.5,2.5-5.5,5.5s2.5,5.5,5.5,5.5h34.9
							c0.8,0,1.6-0.2,2.3-0.5C63.4,18.4,61.2,14.9,58.5,11.9z"/>
					</g>
				</g>
			</g>
		</g>
		<g>
			<polygon class="st5" points="106.4,19.7 106.4,12.4 81.1,12.4 81.1,53.9 89.6,53.9 89.6,37.2 105.2,37.2 105.2,29.9 89.6,29.9 
				89.6,19.7 			"/>
			<path class="st5" d="M125.3,29.3c-6.1-2.2-7.2-3.7-7.2-6c0-2,1.6-4.3,6.2-4.3c3.2,0,5.6,0.9,7.1,1.6l1.7,0.9l2.5-6.9l-1.1-0.6
				c-1.5-0.8-4.7-2.1-9.9-2.1c-4.3,0-8,1.2-10.7,3.3c-2.7,2.2-4.2,5.2-4.2,8.6c0,5.6,3.9,9.7,11.9,12.3c5.6,2,6.7,3.8,6.7,6.3
				c0,3.2-2.6,5.1-7,5.1c-2.9,0-6.2-0.9-8.7-2.3l-1.6-0.9l-2.5,7l1,0.7c2.6,1.6,7.2,2.7,11.4,2.7c11.1,0,16-6.3,16-12.6
				C136.8,34.5,131,31.4,125.3,29.3z"/>
		</g>
	</g>
	<path class="st1" d="M181.9,12.9c-12.6,0-21.1,8.4-21.1,20.8c0,12.2,7.7,19.8,20.1,19.8c4.4,0,8.6-0.9,10.5-1.8l-1.8-4.9
		c-2,0.8-4.7,1.2-7.5,1.2c-8.8,0-14.3-5.7-14.3-14.8c0-9.3,5.5-15.1,14.4-15.1c3.4,0,5.7,0.7,7.4,1.4l1.8-5
		C189.8,13.8,186.3,12.9,181.9,12.9z"/>
	<path class="st1" d="M210.5,12.8c-11,0-18.7,8.5-18.7,20.7c0,12,7.3,20,18.2,20c11.4,0,18.8-8.1,18.8-20.8
		C228.7,20.8,221.4,12.8,210.5,12.8z M210.3,48.3c-6.8,0-11.5-6.2-11.5-15c0-9.2,4.6-15.3,11.5-15.3c7.8,0,11.4,7.8,11.4,15.1
		C221.7,42.2,217.1,48.3,210.3,48.3z"/>
	<path class="st1" d="M149.3,46.2c-2.3,0-3.9,1.7-3.9,4.1s1.6,4.1,3.9,4.1c2.3,0,3.9-1.7,3.9-4.1C153.2,48,151.6,46.2,149.3,46.2z"
		/>
</g>
<g class="st0">
	<g class="st2">
		<g>
			<g>
				<g>
					<circle class="st3" cx="34" cy="33.5" r="32.8"/>
					<g>
						<path class="st3" d="M67.9,17.2c0-3-2.5-5.5-5.5-5.5h-4c2.7,3,4.8,6.5,6.3,10.4C66.6,21.2,67.9,19.4,67.9,17.2z"/>
					</g>
					<g>
						<path class="st4" d="M24.7,54.3h8.7c2.4,0,4.4-2,4.4-4.4s-2-4.4-4.4-4.4h-8.7c-2.4,0-4.4,2-4.4,4.4
							C20.3,52.3,22.3,54.3,24.7,54.3z"/>
						<path class="st4" d="M26.1,39h20.7c2.7,0,4.9-2.2,4.9-4.9s-2.2-4.9-4.9-4.9H26.1c-2.7,0-4.9,2.2-4.9,4.9
							C21.1,36.8,23.4,39,26.1,39z"/>
						<g>
							<path class="st4" d="M58.4,11.7L58.4,11.7L58.4,11.7h-0.2H27.5c-3,0-5.5,2.5-5.5,5.5s2.5,5.5,5.5,5.5h34.9
								c0.8,0,1.6-0.2,2.3-0.5C63.3,18.2,61.1,14.7,58.4,11.7z"/>
						</g>
					</g>
				</g>
			</g>
			<g>
				<polygon class="st5" points="106.3,19.6 106.3,12.3 81,12.3 81,53.7 89.5,53.7 89.5,37 105.1,37 105.1,29.7 89.5,29.7 
					89.5,19.6 				"/>
				<path class="st5" d="M127.4,29.2c-6.1-2.2-7.2-3.7-7.2-6c0-2,1.6-4.3,6.2-4.3c3.2,0,5.6,0.9,7.1,1.6l1.7,0.9l2.5-6.9l-1.1-0.6
					c-1.5-0.8-4.7-2.1-9.9-2.1c-4.3,0-8,1.2-10.7,3.3c-2.7,2.2-4.2,5.2-4.2,8.6c0,5.6,3.9,9.7,11.9,12.3c5.6,2,6.7,3.8,6.7,6.3
					c0,3.2-2.6,5.1-7,5.1c-2.9,0-6.2-0.9-8.7-2.3l-1.6-0.9l-2.5,7l1,0.7c2.6,1.6,7.2,2.7,11.4,2.7c11.1,0,16-6.3,16-12.6
					C138.9,34.4,133.1,31.2,127.4,29.2z"/>
			</g>
		</g>
		<path class="st6" d="M174.4,12.7c-12.6,0-21.1,8.4-21.1,20.8c0,12.2,7.7,19.8,20.1,19.8c4.4,0,8.6-0.9,10.5-1.8l-1.8-4.9
			c-2,0.8-4.7,1.2-7.5,1.2c-8.8,0-14.3-5.7-14.3-14.8c0-9.3,5.5-15.1,14.4-15.1c3.4,0,5.7,0.7,7.4,1.4l1.8-5
			C182.3,13.7,178.8,12.7,174.4,12.7z"/>
		<path class="st6" d="M203,12.6c-11,0-18.7,8.5-18.7,20.7c0,12,7.3,20,18.2,20c11.4,0,18.8-8.1,18.8-20.8
			C221.2,20.6,213.9,12.6,203,12.6z M202.7,48.2c-6.8,0-11.5-6.2-11.5-15c0-9.2,4.6-15.3,11.5-15.3c7.8,0,11.4,7.8,11.4,15.1
			C214.2,42,209.6,48.2,202.7,48.2z"/>
		<path class="st6" d="M147,46.1c-2.3,0-3.9,1.7-3.9,4.1s1.6,4.1,3.9,4.1c2.3,0,3.9-1.7,3.9-4.1S149.3,46.1,147,46.1z"/>
	</g>
	<path class="st1" d="M264,12.8h-9.3c-0.5,1.7-3.7,11.6-6.2,19.8c-1.6,4.9-2.9,9.2-3.3,10.8l-0.2,0.9l-0.2-0.9
		c-0.4-1.6-1.7-5.9-3.3-10.8c-2.5-8.2-5.6-18.1-6.2-19.8H226l-2.7,40.5h6.3l0.9-16.2c0.3-4.6,0.5-10.5,0.7-17.6v-0.3
		c0,0,9.5,30.8,10.3,33.6h1.5h3.8h1.5c0.8-2.8,10.3-33.6,10.3-33.6v0.3c0.2,7,0.5,12.9,0.7,17.6l0.9,16.2h6.3L264,12.8z"/>
</g>
<g>
	<g>
		<g>
			<g>
				<g>
					<circle class="st3" cx="34" cy="33.4" r="32.8"/>
					<g>
						<path class="st3" d="M67.8,17c0-3-2.5-5.5-5.5-5.5h-4c2.7,3,4.8,6.5,6.3,10.4C66.5,21.1,67.8,19.2,67.8,17z"/>
					</g>
					<g>
						<path class="st4" d="M24.6,54.1h8.7c2.4,0,4.4-2,4.4-4.4c0-2.4-2-4.4-4.4-4.4h-8.7c-2.4,0-4.4,2-4.4,4.4
							C20.2,52.2,22.2,54.1,24.6,54.1z"/>
						<path class="st4" d="M26,38.9h20.7c2.7,0,4.9-2.2,4.9-4.9c0-2.7-2.2-4.9-4.9-4.9H26c-2.7,0-4.9,2.2-4.9,4.9
							C21.1,36.6,23.3,38.9,26,38.9z"/>
						<g>
							<path class="st4" d="M58.4,11.6C58.4,11.6,58.4,11.6,58.4,11.6L58.4,11.6l-0.2,0H27.4c-3,0-5.5,2.5-5.5,5.5
								c0,3,2.5,5.5,5.5,5.5h34.9c0.8,0,1.6-0.2,2.3-0.5C63.2,18.1,61.1,14.6,58.4,11.6z"/>
						</g>
					</g>
				</g>
			</g>
			<g>
				<polygon class="st5" points="106.3,19.4 106.3,12.1 80.9,12.1 80.9,53.6 89.4,53.6 89.4,36.9 105,36.9 105,29.6 89.4,29.6 
					89.4,19.4 				"/>
				<path class="st5" d="M126.3,29c-6.1-2.2-7.2-3.7-7.2-6c0-2,1.6-4.3,6.2-4.3c3.2,0,5.6,0.9,7.1,1.6l1.7,0.9l2.5-6.9l-1.1-0.6
					c-1.5-0.8-4.7-2.1-9.9-2.1c-4.3,0-8,1.2-10.7,3.3c-2.7,2.2-4.2,5.2-4.2,8.6c0,5.6,3.9,9.7,11.9,12.3c5.6,2,6.7,3.8,6.7,6.3
					c0,3.2-2.6,5.1-7,5.1c-2.9,0-6.2-0.9-8.7-2.3l-1.6-0.9l-2.5,7l1,0.7c2.6,1.6,7.2,2.7,11.4,2.7c11.1,0,16-6.3,16-12.6
					C137.8,34.2,132,31.1,126.3,29z"/>
			</g>
		</g>
		<path class="st6" d="M173.3,12.6c-12.6,0-21.1,8.4-21.1,20.8c0,12.2,7.7,19.8,20.1,19.8c4.4,0,8.6-0.9,10.5-1.8l-1.8-4.9
			c-2,0.8-4.7,1.2-7.5,1.2c-8.8,0-14.3-5.7-14.3-14.8c0-9.3,5.5-15.1,14.4-15.1c3.4,0,5.7,0.7,7.4,1.4l1.8-5
			C181.2,13.5,177.7,12.6,173.3,12.6z"/>
		<path class="st6" d="M201.9,12.5c-11,0-18.7,8.5-18.7,20.7c0,12,7.3,20,18.2,20c11.4,0,18.8-8.1,18.8-20.8
			C220.1,20.5,212.8,12.5,201.9,12.5z M201.7,48c-6.8,0-11.5-6.2-11.5-15c0-9.2,4.6-15.3,11.5-15.3c7.8,0,11.4,7.8,11.4,15.1
			C213.1,41.9,208.5,48,201.7,48z"/>
		<path class="st6" d="M145.9,45.9c-2.3,0-3.9,1.7-3.9,4.1s1.6,4.1,3.9,4.1c2.3,0,3.9-1.7,3.9-4.1C149.8,47.7,148.2,45.9,145.9,45.9
			z"/>
	</g>
	<path class="st6" d="M262.9,12.7h-9.3c-0.5,1.7-3.7,11.6-6.2,19.8c-1.6,4.9-2.9,9.2-3.3,10.8l-0.2,0.9l-0.2-0.9
		c-0.4-1.6-1.7-5.9-3.3-10.8c-2.5-8.2-5.6-18.1-6.2-19.8h-9.3l-2.7,40.5h6.3l0.9-16.2c0.3-4.6,0.5-10.5,0.7-17.6l0-0.3
		c0,0,9.5,30.8,10.3,33.6h1.5h3.8h1.5c0.8-2.8,10.3-33.6,10.3-33.6l0,0.3c0.2,7,0.5,12.9,0.7,17.6l0.9,16.2h6.3L262.9,12.7z"/>
</g>
</svg>
