<svg viewBox="0 0 122.2 99.3" xmlns="http://www.w3.org/2000/svg"><path d="m60.7 99.3c-.5-.5-1.1-.8-1.3-1.1-12.4-12.6-25.1-25.5-37.4-38.1-3-3-5.9-6.2-8.9-9.1-1.3-1.3-1.6-2.4 0-3.8 10.8-10.5 21.2-21.2 32-31.7l14.5-14.5c1.3-1.3 2.4-1.1 3.5 0 15.3 15.6 30.7 31.5 46 47.1 1.9 2.2 1.9 2.4 0 4.6-14.5 14.4-28.8 28.6-43.3 43.2l-2.7 2.7c-.8-.1-1.6.2-2.4.7z" fill="#b7b7b7"/><path d="m93.9 45.2h26.4c2.3 0 2.6.6 1.9 2.8-1.7 4.7-4.7 8.3-8.7 11.3-5.1 4-11 6.6-17 8.7-17.8 6-35.9 7-54.2 5.5-7.4-.6-14.7-2.1-21.7-4.7-5.7-2.1-11.1-4.7-15.5-9.3-3-3.2-4.9-7.2-5.1-11.5-.2-4.2 1.9-7.4 4.9-10 3.4-3 7.4-4.9 11.5-6.4 11.7-4.2 23.6-5.5 35.9-6.2 10.2-.6 20.4-.2 30.6.8 5.9.6 11.7 1.7 17.4 3 3.2.6 6.2 1.7 9.4 2.6 3.4 1.1 6.6 2.8 9.3 4.9.2.2.6.8.4 1.1 0 .4-.6.6-.9.8-2.5.4-4.9.9-7.2 1.3-5.3.9-10.6 1.7-15.7 2.6-1.1.2-2.1.2-2.8-.8-1.9-2.3-4.5-3-7.2-4-7-1.9-14-2.6-21.1-2.8-7.2 0-14.2 0-21.1 1.5-4.2.9-8.3 2.1-11.9 4.7-1.9 1.3-3.2 3-3.6 5.3-.6 2.5 1.1 5.5 3.6 7 3.2 2.1 7 3 10.6 3.8 8.5 1.7 17.2 1.5 25.7.9 4.9-.4 9.8-1.5 14.5-2.5.4 0 .8-.6 1.1-.8-.6-.2-.9-.8-1.5-.8h-15.3c-1.1 0-1.5-.6-1.5-1.5v-5.9c0-1.1.6-1.7 1.7-1.5h9.6c5.6.1 11.6.1 17.5.1z" fill="#243165"/></svg>