<svg xmlns="http://www.w3.org/2000/svg" viewBox="0 0 279.639 316.135"><path fill="#c3797d" d="M.38 232.4L0 81.73l134.92 84.5-.7 149.87z"/><path fill="#999" d="M144.3 166.15l135.34-84.4-.22 151.8-134.7 82.6z"/><path fill="#c3797d" d="M5.54 74.36L140.7 0l132.67 73.9-134.4 83.8z"/><path d="M224.55 222.56l-14.4 9v-11.6q0-7.63 2.12-13.84 2.1-6.22 8.9-16.94l6.77-10.94q4.3-6.68 6.18-11.4 1.96-4.77 1.96-8.46 0-6.7-4.97-7.74-4.9-1.1-13.02 4-5.95 3.72-12.74 10.6-6.7 6.82-14 16.44V167.5q7.07-8.7 14.3-15.34 7.3-6.68 15.08-11.53 13.87-8.66 22.24-6.58 8.44 2.04 8.44 14.02 0 5.73-2.72 12.62-2.7 6.8-9.5 17.52l-6.62 10.62q-3.54 5.76-5.05 8.74-1.43 2.84-2.04 5.1-.45 1.86-.67 4.27-.24 2.4-.24 6.32v9.26zM209.7 242.9l15.3-9.55v19.14l-15.3 9.54V242.9z" fill="#fff" fill-opacity=".02"/></svg>