<?xml version="1.0" encoding="UTF-8" standalone="no"?>
<svg
   viewBox="0 0 55.5 82.95"
   version="1.1"
   id="svg12"
   sodipodi:docname="genie.svg"
   inkscape:version="1.4 (e7c3feb100, 2024-10-09)"
   xmlns:inkscape="http://www.inkscape.org/namespaces/inkscape"
   xmlns:sodipodi="http://sodipodi.sourceforge.net/DTD/sodipodi-0.dtd"
   xmlns="http://www.w3.org/2000/svg"
   xmlns:svg="http://www.w3.org/2000/svg"
   xmlns:rdf="http://www.w3.org/1999/02/22-rdf-syntax-ns#"
   xmlns:cc="http://creativecommons.org/ns#"
   xmlns:dc="http://purl.org/dc/elements/1.1/">
  <sodipodi:namedview
     id="namedview12"
     pagecolor="#ffffff"
     bordercolor="#000000"
     borderopacity="0.25"
     inkscape:showpageshadow="2"
     inkscape:pageopacity="0.0"
     inkscape:pagecheckerboard="0"
     inkscape:deskcolor="#d1d1d1"
     inkscape:zoom="7.0714286"
     inkscape:cx="91"
     inkscape:cy="41.434343"
     inkscape:window-width="1920"
     inkscape:window-height="1043"
     inkscape:window-x="0"
     inkscape:window-y="0"
     inkscape:window-maximized="1"
     inkscape:current-layer="圖層_2" />
  <defs
     id="defs1">
    <style
       id="style1">.cls-1{fill:#2fa6d9;}.cls-2{fill:#595757;}</style>
  </defs>
  <title
     id="title1">資產 3</title>
  <g
     id="圖層_2"
     data-name="圖層 2">
    <g
       id="圖層_1-2"
       data-name="圖層 1">
      <path
         class="cls-1"
         d="M 49.92,53.41 A 32,32 0 0 0 32.86,46.74 C 32.02,46.66 22.94,46.17 19.55,45.81 16.16,45.45 12.34,45.37 9.14,43.69 A 4.74,4.74 0 0 1 7.2,42.05 c -0.94,-1.55 -0.12,-3.34 1,-4.5 a 4.54,4.54 0 0 1 1.67,-1.22 c 0.8,-0.25 1.19,0.18 1.85,0.42 A 26.25,26.25 0 0 0 28,42 c 12.33,0 22.32,-7.49 22.32,-16.72 0,-5.64 -3.73,-10.62 -9.44,-13.65 a 7.6,7.6 0 0 1 3.35,-1.91 2,2 0 0 1 1.05,0.09 v 0 l 0.6,0.27 A 8.66,8.66 0 0 0 49.05,10.66 7.57,7.57 0 0 0 53.3,9.38 4.48,4.48 0 0 0 55.53,5.53 4.63,4.63 0 0 0 54.65,2.75 6,6 0 0 0 52.35,0.89 L 51.92,0.67 A 8.76,8.76 0 0 0 50.5,0.2 a 6.58,6.58 0 0 0 -5.81,1.32 5.09,5.09 0 0 0 -2.2,4.14 4.9,4.9 0 0 0 0.1,1 v 0 c 0.05,0.52 -0.25,0.68 -3.07,3.18 l -0.87,0.77 A 28.22,28.22 0 0 0 28,8.56 C 15.63,8.56 5.64,16 5.64,25.28 A 13.35,13.35 0 0 0 8,32.69 2,2 0 0 1 8,33.29 2.22,2.22 0 0 1 7.33,34.56 C 6.66,35.4 5.84,36.12 5.17,36.97 a 12.77,12.77 0 0 0 -1.5,2.49 11.26,11.26 0 0 0 -1,6.69 q 0.08,0.41 0.18,0.81 a 10.39,10.39 0 0 0 4.15,5.66 12.59,12.59 0 0 0 1.34,0.85 27.72,27.72 0 0 0 10.45,2.8 c 3.9,0.37 9.94,0.27 10.48,0.26 a 27.43,27.43 0 0 1 14.86,3.84 c 3.32,2.12 6.18,5.71 5,9.87 C 47,78 36,80.16 29.22,80.16 18.06,80.15 9,74.87 9,68.34 c 0,-4.29 3.93,-8 9.79,-10.1 A 20,20 0 0 0 13.11,57.43 C 5.88,57.43 0,61.05 0,65.52 0,70.31 3.75,75 9,78.16 c 0.74,0.41 1.5,0.8 2.27,1.14 A 43.53,43.53 0 0 0 28.54,83 C 40.33,82.79 50.33,77.88 54.2,71 57.78,64.68 55.18,57.77 49.92,53.41 Z M 47.2,2.31 a 1.93,1.93 0 0 1 1.81,-1 2,2 0 0 1 1.92,1 6.62,6.62 0 0 1 0.51,3 A 6.27,6.27 0 0 1 50.85,8.43 2,2 0 0 1 49,9.32 2,2 0 0 1 47.09,8.54 6.94,6.94 0 0 1 46.57,5.35 6.21,6.21 0 0 1 47.2,2.31 Z m -28.9,23 v 0 c 0,-8.17 4.32,-14.8 9.66,-14.8 5.34,0 9.66,6.63 9.66,14.8 v 0 c 0,8.17 -4.32,14.79 -9.66,14.79 -5.34,0 -9.66,-6.65 -9.66,-14.82 z"
         id="path4" />
    </g>
  </g>
  <metadata
     id="metadata12">
    <rdf:RDF>
      <cc:Work
         rdf:about="">
        <dc:title>資產 3</dc:title>
      </cc:Work>
    </rdf:RDF>
  </metadata>
</svg>
