<svg viewBox="0 0 594.663 622.505" xmlns="http://www.w3.org/2000/svg" xmlns:xlink="http://www.w3.org/1999/xlink"><linearGradient id="a"><stop offset="0" stop-color="#fff"/><stop offset=".342" stop-color="#fff"/><stop offset=".52" stop-color="#bebdf3"/><stop offset=".754" stop-color="#8f82f9"/><stop offset=".871" stop-color="#9f99c7"/><stop offset="1" stop-color="#524c76"/></linearGradient><linearGradient id="b" gradientUnits="userSpaceOnUse" x1="412.954711" x2="294.938412" xlink:href="#a" y1="485.472261" y2="-43.678602"/><linearGradient id="c" gradientUnits="userSpaceOnUse" x1="-67.692405" x2="323.017307" xlink:href="#a" y1="-1398.279811" y2="648.020587"/><radialGradient id="d" cx="332.723" cy="590.59" gradientTransform="matrix(-.06604 4.19027 -3.57375 -.05627 2168.154 -1171.421)" gradientUnits="userSpaceOnUse" r="218.022" xlink:href="#a"/><radialGradient id="e" cx="49.53" cy="320.086" gradientTransform="matrix(3.28737 0 0 2.51965 111.69 -642.721)" gradientUnits="userSpaceOnUse" r="31.949" xlink:href="#a"/><g fill-rule="evenodd" stroke-width="4"><path d="m25.757 521.914c.068-26.26 22.392-62.924 54.112-96.233 21.198-22.26 42.727-41.799 89.657-81.813-32.462-17.813-82.95-39.304-108.284-67.45-9.373-10.413-26.363-34.007-23.068-65.53 6.717-64.244 86.016-161.744 198.731-182.358 37.504-6.858 80.564-1.907 116.003 14.025 111.18 49.985 247.148 174.162 263.877 234.795 5.888 21.342 4.757 55.36-5.395 74.32-12.581 23.498-56.135 71.225-115.725 120.473-93.499 77.274-224.52 160.249-322.352 174.21-31.611 4.512-63.908-.193-86.573-12.982-35.46-20.01-47.232-46.723-51.37-54.73-11.003-21.293-9.637-48.267-9.613-56.726zm263.142-295.04c1.208-14.89 59.594-.066 55.905 11.725-3.892 12.44-57.29 5.355-55.905-11.725z" fill="url(#c)" transform="translate(-25.691 -25.521)"/><path d="m201.125 319.265c-30.724 25.941-51.152 43.432-76.763 66.84-61.676 56.37-103.582 99.279-81.977 157.932 24.923 67.661 79.556 64.23 143.622 51.654 165.136-32.57 436.592-241.26 422.756-318.342-11.196-62.37-162.855-186.374-252.649-230.5-28.052-13.785-60.382-20.915-92.809-19.39-123.47 5.83-219.894 118.244-214.969 179.151 4.792 59.256 154.556 110.888 152.789 112.655zm-18.534-206.863c-37.153 41.336-13.398 121.311 48.215 164.903 72.096 51.007 188.845 60.242 212.078 20.905 43.335-73.373-3.98-150.955-74.61-185.563-69.796-34.199-162.523-26.012-185.683-.245z" fill="url(#b)" transform="translate(-25.691 -25.521)"/><path d="m309.296 275.57c52.159 7.25 97.117-13.638 104.147-65.143 5.355-39.234-54.69-82.1-90.79-91.987-30.146-8.256-95.595 2.36-100.008 59.378-4.586 59.272 56.237 93.525 86.65 97.753zm-25.543-98.58c-34.279 53.103 49.77 69.43 62.638 59.745 55.477-41.752-47.536-83.142-62.638-59.745z" fill="url(#e)" transform="translate(-25.691 -25.521)"/><path d="m253.353 41.57c-60.634 6.39-72.247 14.194-127.176 55.753-18.41 13.928-52.294 47.819-60.975 88.025-3.307 15.313.602 28.533 11.63 37.804 35.313 29.688 94.416 53.774 142.904 77.057 14.203 6.82 4.8 19.186-18.104 39.013-57.791 50.032-135.927 110.934-141.381 157.342-2.57 21.868 4.916 51.583 31.46 66.79 31.006 17.764 95.371 6.17 138.35-9.835 62.806-23.388 145.308-75.004 210.807-125.741 68.11-52.76 131.437-119.773 134.57-130.703 3.847-13.422 3.463-25.818-3.96-40.07-11.658-22.383-27.244-39.014-43.979-57.63-44.902-47.338-92.412-88.934-149.254-120.81-41.048-23.017-77.165-42.025-124.892-36.995zm89.067 106.13c43.805 21.178 88.79 76.806-.39 108.824-24.25 8.707-101.159-21.382-98.804-62.444 3.433-60.655 45.707-72.24 99.194-46.38z" fill="url(#d)" transform="translate(-25.691 -25.521)"/></g></svg>