<svg xmlns="http://www.w3.org/2000/svg" viewBox="0 0 1120 604"><path clip-rule="evenodd" fill-rule="evenodd" d="M30.72 566.456h-1.802v-3.052l-3.62-3.063-7.226-13.788-7.226-13.776-5.423-13.776-1.803-12.256-1.803-12.243L0 482.258l1.817-13.788 1.803-13.775-1.803-4.584 1.803-10.724 5.409-10.724 7.24-12.231 7.226-13.788 1.802-1.52H27.1l1.818-4.608 3.605-4.584 5.423-3.064 10.846-6.128 7.226-3.064h5.423l1.817-1.52h9.029l7.225 1.52 3.62 1.544 5.423 1.52 3.606 1.532 5.423 1.532 3.62 3.064 3.606 3.064 3.62 1.52 7.226 6.128 3.62 1.544 5.423 4.584-7.226 22.955-1.817 3.064h-3.606l-1.817 1.532h-3.606l-1.817-1.532-1.803-1.52-9.029-9.18-1.817-1.544-3.606-6.115-3.62-1.532-1.802-1.532-9.043-3.064-12.65-4.596H50.596l-1.803 3.064H46.99l-3.62 3.064-5.423 3.064-3.606 4.596-3.62 4.595-1.802 6.116-1.818 7.648-1.803 6.128v7.648l-1.802 4.608 1.802 3.052v10.723l-1.802 1.52 1.802 4.608 1.803 7.648v3.064l1.818 3.064 1.802 9.192 1.803 6.116v3.051l3.62 4.596 1.803 9.192 3.62 7.648 5.423 7.66 3.606 7.66 5.423 7.648 5.423 4.596 1.817 3.064 3.606 1.532 9.043 6.127 3.605 1.52 7.226 1.532h5.423l5.423-1.532 3.62-1.52 5.423-3.064 5.423-6.127 5.423-7.648 3.606-9.192 1.803-1.532-1.803-4.596 5.423-12.256 1.802-1.52v-4.596l1.803-1.532-1.803-3.064 3.606-18.371 1.817-4.584 1.803-3.064 3.62-3.064h3.606l5.423-1.52h3.62l5.423 1.52 1.803 1.532 3.62 9.18 1.803 3.064 1.803 3.064 12.648 32.147v3.064l5.423 13.776 1.818 4.608 1.802 3.052v6.128l1.803 6.115 1.803 1.532 1.817 6.128 1.803 4.584v6.128l-1.803 3.064v1.532l-1.817 3.052-3.606 1.544v9.18l-5.423 1.531-10.845-24.5-3.606-3.05-18.086-33.692v-4.584l-3.606-3.064-3.62-7.648-1.803 3.052-9.043 24.5-1.803 1.532v3.064l-1.803 1.531-9.028 15.308-10.846 9.18-1.803 4.596h-5.423l-1.803 1.52h-3.62l-3.62 4.608H81.33l-10.846-1.544-10.846-1.52-12.649-10.724-12.649-10.724-3.62-4.584z"/><path d="M189.745 437.855l1.803-4.596v-4.596l1.803-3.064-1.803-1.52v-24.512l1.803-3.064-1.803-3.064v-3.051l-1.803-3.064 1.803-1.532-1.803-4.584v-6.128l-5.423-16.852-3.605-7.66-1.803-1.52-1.803 6.128V376.6l1.803 13.788 1.803 10.723v10.712l1.803 1.532v6.116l1.802 6.128 1.803 6.128zm90.359 12.255v3.064l-1.803 3.052v4.596l-1.803 3.064-1.803 3.064v3.064l-1.803 3.064-1.803 1.52-1.802 3.064-1.803 1.544-3.606 6.116-3.62 4.596-5.409 4.584-3.62 3.063H244.018v1.545l-1.803 1.52-7.226 1.544h-9.028l-9.029-3.064-9.028-4.608v-1.52l-1.803-1.544h-3.606l-5.423-6.116-7.226-7.66 1.803 3.064v1.532l-1.803 4.596-1.803 3.064v3.064l-3.605 4.583-1.803 3.065v1.544l-3.606 4.583-1.803 3.064-1.802 3.064v3.064l-1.803 3.064h-7.212v-6.128l1.803-1.532-1.803-1.532 1.803-4.596v-7.66l1.803-1.52v-4.607l1.803-1.52v-4.596l1.803-3.064 1.803-1.532v-1.52l1.802-4.608 1.803-3.064v-3.064l1.803-1.52v-1.532l-1.803-1.532v-4.596l-3.605-3.064-7.226-13.788-5.423-13.775-3.606-16.84-3.62-16.84v-1.544l-1.803-1.52v-1.531l-1.803-6.128v-3.052l1.803-3.064-1.803-3.064v-1.544l-1.802-22.968v-10.711l1.802-10.712 1.803-7.672 1.803-6.116 1.803-4.596 3.606-3.064 3.605-1.52h10.846l3.606 3.052 3.606 4.596 3.62 4.596 1.802 3.052v3.064l1.803 1.544 1.803 3.064 3.62 10.712 3.606 9.191 1.803 9.18-1.803 1.532 1.803 4.596 1.803 6.116 1.802 6.128v15.319l1.803 1.52v15.32l-1.803 3.064 1.803 4.596v21.436l-1.803 6.127v7.648l-1.802 4.596 5.423 6.128 3.605 4.596 5.423 4.584 7.226 3.064 5.423 1.544h10.846l5.408-1.544 3.62-3.064 5.423-6.116h1.803l1.803-1.532v-6.128l3.606-1.532v-3.052h1.803l-1.803-1.544 3.605-4.583v-4.609l3.606-6.115 1.803-4.596 1.803-3.064v-3.064l3.605-3.064v-1.52l1.803-3.064h1.803l3.606-1.532h1.803v3.052l1.802 3.064-1.802 6.128-1.803 6.128v6.128l-1.803 1.52v3.063l-1.803 3.064v1.544z" clip-rule="evenodd" fill-rule="evenodd"/><path clip-rule="evenodd" fill-rule="evenodd" d="M263.835 450.11V443.984l3.62-3.064v-4.596l1.803-4.596 3.62-6.116 1.803-3.064 1.802-1.52v-3.064l1.803-6.127 1.818-6.128 1.802-4.584 1.803-6.128 1.818-1.544-1.818-1.52 7.24-12.256 1.803-4.584 1.803-1.544v-3.064l1.803-3.052V365.9l1.817-4.596 1.803-3.063 1.803-1.52v-3.064l7.24-10.712 1.803-3.064 1.803-4.596 1.803-3.052 1.817-1.544 1.803-1.52 1.803-1.544h1.817l1.803-1.52H332.5v1.52h1.818v1.544l1.802 1.52-1.802 4.596-1.818 4.596-3.605 6.128v4.584l-1.803 6.128-3.62 7.647-1.803 3.064v3.052l-1.817 3.064v4.608l-1.803 1.52v3.064l-1.803 4.596-1.817 4.596-1.803 3.064-1.803 7.648-1.803 7.66-1.817 6.128-1.803 6.115v10.712h1.803l1.817-1.532 1.803-4.584 3.606-1.532v-1.52l1.817-4.608v-1.52l1.803-1.531V414.9l1.803-3.064h1.817l-1.817-3.064 1.817-3.064 3.606-7.648 3.62-7.66 1.802-6.128 3.62-7.66 1.803-3.064 1.803-3.064 1.818-3.052 5.422-3.064h1.803l1.803 1.532 3.62 1.532 1.803 1.532 1.803 3.064v1.52l3.62 6.128 1.803 3.064 1.817 1.532 3.606 3.064 3.62 3.064H383.11l1.802-3.064 1.803-3.064 1.803-4.596v-1.52l3.62-3.064 3.62-4.608V365.9l3.606-3.064v-1.532l1.803-3.063 1.817-1.52h1.803l1.803 1.52h1.817v10.723l-1.817 6.128v3.064l-1.803 3.064v1.52l-1.803 3.064v1.532l-1.817 3.064-1.803 4.596v1.52l-1.803 1.544-1.803 4.584-1.817 4.596-3.606 3.064-5.423 3.064-5.422 3.064-5.423 1.531h-5.409l-5.423-1.531-5.423-1.532-3.62-3.064-3.606-3.064-3.62-4.584-1.803-3.064-1.817-1.544-1.803 1.544-1.802 3.064v3.052l-3.62 6.128-1.803 4.595v1.52l-1.818 1.544h-1.803v6.116l-1.802 9.18-5.423 9.18-7.226 10.724-3.62 6.127-3.606 1.532-1.817 1.532-5.423 1.532-5.423-1.532-5.409-1.532h-1.817l-1.803-1.532-1.802-6.127v-7.66l-1.818-7.648-1.803 3.064v6.128l-1.802 1.52h-3.621v4.596l-3.605 3.064v3.063l-1.817 1.532v1.532l-1.803 3.052-1.803 3.064v1.544h-1.817l-1.803 1.52-1.803-1.52-1.817-3.064v-3.064l-1.803-3.064 1.803-3.064 1.817-6.127-1.817-3.064h1.817z"/><path clip-rule="evenodd" fill-rule="evenodd" d="M395.76 356.72l3.605-9.191 1.803-1.52v-3.064l5.423-18.384v-3.064l5.423-16.827 1.817-4.596 1.803-4.596 1.803-1.532 3.62-1.532 3.605-1.532 5.423-1.532h3.62l3.606 1.532 3.62 1.532 1.803 1.532v3.064l1.817 1.532 1.803 4.596 1.803 6.116 3.62 3.064 1.803 4.595 3.62 9.192 3.606 12.244 1.817 6.116 1.803 7.672 1.803 6.104v3.063l1.817 3.064 1.803 3.064 7.226-13.775v-4.584l1.802-3.064 1.818-3.064v-3.064l1.803-3.064v-6.128l1.802-1.52 3.62-4.608 1.803-4.584 1.818-3.064 1.802-1.531 3.606-4.596h1.817l1.803 1.532h1.803V318.445l-1.803 10.724v3.064l-3.62 1.52v9.192l-1.803 3.064-1.803 3.064v1.52l-1.802 6.128-1.818 1.52v4.595l-3.605 6.128-3.62 6.128-1.803 6.128v3.052l-1.818 3.064v1.532l-1.802 3.064v1.52h-1.803l-1.803 1.544v6.128l-5.423 6.116-1.817 3.064h-3.606l-1.817 1.532h-1.803l-1.803-1.532-1.803-1.532-1.817-1.532-9.029-6.116-3.62-4.608-3.62-4.584-1.803-3.064-5.423-4.596v-7.66l1.818-1.52 1.803-3.064 1.802-3.064h3.62l1.803 1.52 3.62 1.544v-4.596l-1.817-4.596-3.606-4.595-1.817-7.648-3.605-6.128-1.803-3.052-3.62-4.596-3.62-1.532-3.606 1.532v4.596l-3.62 3.052-3.606 12.256-3.62 13.763-3.62 4.608-1.803 3.064v1.52l-1.803 6.128-1.817 6.128h-1.803v3.064l-1.803 1.52-3.62 3.064v3.064l-1.803 3.064-1.803 1.532-1.817 4.596-1.803 1.532H381.308v-3.064l1.803-3.064-1.803-3.052v-4.608l1.803-4.584v-3.064l1.802-1.532v-4.596l1.803-4.584 1.803-3.064 5.423-13.788 1.817-4.595z"/><path clip-rule="evenodd" fill-rule="evenodd" d="M493.343 301.606l1.803-1.532v-3.064l5.423-18.372 1.803-1.532v-1.532l3.62-16.84 1.803-6.115 1.817-3.064 3.606-1.532 1.803-1.532 3.62-1.532 7.226-1.532h1.803l5.422 1.532 1.803 1.532 1.818 1.532v1.532l1.802 1.532v1.532l3.62 4.584 1.803 6.128 1.803 1.532 1.803 6.115 3.62 7.66 5.423 12.244 1.803 6.128 1.817 9.192v6.116l1.803 3.064v3.063l1.803 3.052 7.226-13.775v-4.584l3.62-3.064v-3.064l1.803-3.064v-3.064l1.802-3.052v-3.064l1.803-3.064 3.62-3.064 1.818-4.596 1.802-3.064 1.803-3.051 1.803-3.064h5.437v3.064l1.803 3.051v1.532l-3.62 10.724v3.064l-1.817 1.532v6.116l-1.803 3.064v3.064l-1.803 3.064-1.803 1.532v4.584l-1.802 3.064-1.818 3.064-1.803 6.115-5.422 7.672v9.18l-3.606 1.532v4.584l-1.817 1.544-1.803 1.52-1.803 7.672-5.423 6.103-1.803 1.532-1.817 1.532h-3.606l-3.62-1.532v-1.532h-1.803l-9.043-7.647-3.605-3.064-5.423-4.584v-3.064l-7.24-4.596 1.817-6.116v-3.064l1.803-4.608 3.62-1.52h1.802l3.62 1.52 1.803 1.544h1.803v-4.608l-1.803-6.115-3.62-4.596-3.605-6.116-3.62-6.128-1.803-3.064-1.818-6.128h-3.605l-3.62 1.532-1.803 4.596-1.803 3.064-3.606 10.712-5.423 13.787-1.817 6.128-1.803 1.52v1.544l-1.803 6.116-3.62 7.66h-1.803v4.584l-3.62 3.064-1.803 3.064-1.802 3.052v1.531l-1.818 3.064-3.605 3.064h-3.62V365.9h-1.803v-1.532l1.803-4.595-1.803-1.532 1.803-4.584v-7.648l3.62-3.064v-4.596l1.803-3.064v-4.596l5.422-12.244 3.62-4.595v-3.064zM621.648 96.454l3.606 1.532 5.423 3.064 9.028 3.064 1.817 3.064 3.62 4.584 1.803 3.064 3.606 7.647 1.803 1.532 1.817 3.064 1.817 6.128 1.803 3.064 1.803 1.532v4.596l3.606 1.532 1.817 3.052v1.532l1.803 1.532 3.62 6.128 3.606 7.648 3.62 1.532 3.62 4.596 1.803 3.063v1.532l5.408 7.66h1.817v1.52l1.818 3.064 5.408 4.596 7.24 9.18v1.532l7.212 7.66 3.62 4.596 3.62 3.064 1.803 1.52 1.803 1.531v1.532l9.043 10.724 10.846 9.18 1.802-3.064v-9.18l-1.802-3.064v-4.596l1.802-6.115-1.802-1.532-1.803-12.256-1.817-3.064v-13.776l-1.803-3.052-1.818-7.66-3.605-10.723v-3.064l-1.803-6.116v-6.128l-3.62-3.052-1.817-9.192-3.606-6.128v-3.064l-1.803-3.064-5.423-10.711-3.62-9.18 1.803-3.064v-3.064l-1.803-1.532 1.803-3.064 1.817-4.596 9.029-6.116 1.803-1.532 1.817-3.064h3.62l1.803 1.532 3.605 1.532 1.818 1.532 1.803 1.532 1.817 7.648 5.408 7.66 1.803 7.66 3.635 7.648 3.605 7.647v3.064l3.606 4.596 1.817 3.064 5.423 10.724 1.803 4.584 1.803 3.064 1.803 3.064v3.064l1.803 1.532 1.802 1.52 1.818 1.532 1.803 3.064v4.596h1.802v1.532l1.803 1.531 1.803 1.532 3.635 3.064v3.064l1.802 3.052 5.409 6.128 7.24 10.712 7.226 7.66v-9.192l-1.817-9.18-1.803-13.776v-3.064l-1.803-3.063-3.606-15.308-3.62-15.308 1.803-3.064-3.62-4.596-10.846-42.87-3.606-10.713-3.605-9.18-1.818-1.531-5.408-15.32v-3.064l1.803-1.52 1.803-7.66 1.802-3.052h3.62l1.803 1.52 1.803 4.596 1.803 1.532 1.817 3.064 1.818 3.052 1.802 3.064v1.532l1.803 3.064 1.803 1.532v1.532l3.62 4.596v4.596l3.62 1.532 3.606 15.295 1.803 1.532 5.423 13.788 3.62 9.18v4.596l1.803 3.064v1.532l1.803 6.115 1.802 4.596-1.802 3.064 5.437 10.724v7.648l3.606 12.244v9.191l3.605 4.596 1.818 15.308v3.052l1.802 9.192 1.818 7.66-1.818 6.115-1.802 4.596v3.064l-1.818 1.532h-1.803l-3.605 1.532-3.62 4.584-3.62 3.064h-3.606l-5.423 1.532-3.62-1.532-3.606-1.532-7.24-7.648-3.606-3.064-1.803-1.532-1.802-1.532-1.818-1.532-1.817-3.064-1.803-1.52-1.803-3.063-1.802-1.532-1.803-3.064-3.62-3.064-3.606-6.128-5.409-6.116-5.437-6.128 1.817 3.064-1.817 4.584 1.817 1.532 1.803 15.32-1.803 1.532 1.803 3.064-1.803 3.051h1.803v1.532l1.817 1.532v3.064l1.803 18.372v18.372l1.803 4.596v4.583l-1.803 1.532v1.532l-1.803 3.064-1.817 1.532-1.803 1.532-3.62 1.532h-3.605l-7.24-3.064-9.03-7.66-10.845-9.18-3.62-3.063-3.606-4.596-3.62-3.052-1.803-1.532-1.817-1.532-10.832-10.724-10.846-12.244-5.422-4.596-3.606-3.064-3.62-1.52-18.072-21.447h-7.24l-7.211-6.116-3.62-6.128-5.424-7.648v-1.532l-5.422-6.127-1.818-4.596-1.803-1.532-5.408-9.18-3.62-10.712-3.62-6.128v-4.596l-3.606-1.532-1.803-4.596-1.817-6.115-1.803-6.128-1.817-9.18v-1.532l1.817-1.532 1.803-1.532h1.817l3.606-1.532zM845.72 165.345v-4.596l3.62-4.584v-4.596l1.802-3.064 1.803-6.116 1.803-4.596 1.817-1.532v-3.064l1.803-6.128 3.62-4.596v-6.115l1.803-6.116 3.606-1.532-1.803-1.532 5.423-12.256 3.62-3.064v-3.064l1.803-1.532V84.21l1.802-3.064 1.803-3.064 1.818-4.596 1.817-1.52v-1.531l5.408-12.256 1.803-3.064 3.62-4.596 1.818-1.532 1.802-1.52 1.803-1.532v-1.532l1.803-1.532h3.62l1.803-1.532h5.423l1.803 1.532v1.532h1.803v6.116l-1.803 6.128-3.606 4.596v6.128l-3.62 6.115-1.803 6.128-1.817 3.064v3.064l-1.803 3.052-1.803 4.596-1.803 3.064v1.532l-1.802 6.128v4.596l-3.62 1.532v7.648l-1.818 7.647-3.605 6.128-1.803 6.128 1.803 3.064-1.803 3.064 1.803 4.584h1.802l1.803-1.532 1.817-3.052 1.803-3.064 1.818-1.532v-4.596l1.802-1.532 1.803-1.532v-1.532l1.803-1.532v-3.064l1.803-4.583 3.62-6.128 3.62-9.18 1.803-6.128 3.606-7.66v-3.064l1.817-3.052 3.62-3.064 3.606-1.532 1.803-1.532 3.62 1.532 3.62 1.532 1.803 1.532v3.052l1.802 1.532 3.62 6.128 1.818 3.064 1.803 1.532 1.802 3.064 5.423 3.064 3.62 1.532h3.606l3.606-1.532 3.62-1.532 1.817-4.596 1.803-4.596V93.39l1.803-3.064 3.606-4.584 1.817-4.596 1.817-1.532 1.803-3.064v-3.064h1.803l1.803-1.52h1.802l1.818 1.52v1.532l1.803 1.532v3.064l-1.803 6.128-1.818 6.116 1.818 3.064-3.62 1.532v4.596l-1.803 3.064-1.803 1.532v4.596l-1.803 1.52-1.817 1.532v6.128l-3.62 4.583-3.606 3.064-3.62 3.064-5.423 1.532-5.409 1.532h-10.845l-5.438-1.532-3.605-3.064-5.423-4.596-3.62-4.583-1.803-1.532-1.803-3.064v1.532l-1.803 3.064-1.803 4.583-1.817 4.596-1.817 4.596-1.803 3.064-1.803 1.532h-1.803l1.803 3.064v3.064l-1.803 7.648-5.423 10.712-7.226 9.192-5.423 6.127-1.817 1.532-3.605 1.532-3.606 1.532h-5.438l-5.408-1.532-1.817-1.532-1.803-1.532-1.817-4.596-1.803-9.191v-6.116l-1.803 1.532-1.803 3.052v4.596h-3.62v3.064l-1.803 1.532-1.817 4.595-1.803 1.532v1.532l-1.803 3.064v1.52l-1.803 3.064-1.803 1.532-1.817 1.532h-3.62l-1.803-4.596 1.803-3.052-1.803-1.532 1.803-4.596 1.803-4.595-1.803-4.596h1.803z"/><path clip-rule="evenodd" fill-rule="evenodd" d="M1089.68 140.857l1.802 4.596-1.803 4.584v7.66l-1.802 7.648v9.191l-1.818 3.064-1.802 4.596v7.648l-5.423 9.18-5.423 4.596-3.62 3.064-3.606 1.532h-3.62l-1.803-1.532v-1.532l-1.817-3.064v-18.372l3.62-3.052-1.803-1.532v-4.596l1.803-3.063-1.803-1.532v-3.064l1.803-9.18 1.817-10.724 1.803-3.052-1.803-3.064v-3.064l3.606-16.84 3.605-10.711-1.802-4.596v-4.596h-1.803v-6.128l-1.803-1.532v-4.596l-1.803-6.116v-4.596l-1.817-1.532v-1.532l-1.803-1.532v-1.52l-1.817-3.063v-3.064l-1.803-4.596-3.606-4.596-1.803-3.064h-1.817v3.064l-1.803 6.128-3.62 6.128V78.082l-3.606 6.128-1.802 9.18-1.818 1.532-1.817 1.532v3.064l-5.408 12.244-3.62 3.064-1.803 3.064h-1.803l-7.212 3.064h-3.634l-3.606-3.064-5.423-4.596v-3.052l-1.803-1.532h-1.817l-1.803-3.064-7.225-9.192h-1.803l-1.818 1.532v3.064l-3.605 4.596-3.606 3.064v4.584l-3.634 3.064-1.803 4.596-3.606 1.52v4.595l-1.803 1.532-1.817 1.532h-1.803l-3.62-1.532v-1.532l1.803-4.596-1.803-3.051 1.803-1.532 1.817-6.128-1.817-4.584 3.62-1.532v-6.128l1.817-1.532h1.803l-1.803-3.064 1.803-3.064 1.803-3.064 1.803-4.584 3.62-4.596-1.817-3.064 3.634-12.243 3.606-13.788 3.605-3.052 1.818-1.532 3.62-1.532h5.408l3.62 1.532 1.803 3.052v1.532l1.818 1.532 1.802 3.064v1.532l1.803 6.128 5.423 13.775 3.62 9.192v1.52l1.803 1.532h1.803l1.803-1.532 1.803-6.116 3.62-7.66 1.803-4.583 1.802-6.128v-1.532l1.803-3.064 1.803-4.596 1.817-9.18 1.818-6.128v-3.052l5.408-12.255 1.803-6.128v-6.116l1.817-3.064 3.62-3.064 3.606-3.064L1058.945 0h7.24l1.803 1.532v3.064l3.605 4.596v6.116l1.818 1.532 7.225 27.563 1.803 7.648 1.818 7.66v1.532l1.802 6.128 1.818-1.532 1.802-1.532v-7.66l1.803-4.596 5.423-9.18v-6.116l3.62-6.128v-1.532l3.606-4.595 1.803-3.064v-1.532l1.803-3.064 1.817-1.532 1.817-4.584 1.803-1.532h5.409v3.064l1.817 3.052-1.817 7.66-1.803 4.596v4.595l-1.803 1.532-1.803 4.584-1.803 6.128-1.817 1.532v1.532l-1.817 4.584-1.803 4.596v1.532l-1.803 1.532v1.532l-1.803 3.064v1.532l-1.803 4.596v3.051l-1.817 4.596-1.803 3.064-1.817 7.648-3.606 12.256v36.743z"/></svg>
