<?xml version="1.0" encoding="UTF-8" standalone="no"?>
<!-- Generator: Adobe Illustrator 16.0.3, SVG Export Plug-In . SVG Version: 6.00 Build 0)  -->

<svg
   xmlns:dc="http://purl.org/dc/elements/1.1/"
   xmlns:cc="http://creativecommons.org/ns#"
   xmlns:rdf="http://www.w3.org/1999/02/22-rdf-syntax-ns#"
   xmlns:svg="http://www.w3.org/2000/svg"
   xmlns="http://www.w3.org/2000/svg"
   xmlns:sodipodi="http://sodipodi.sourceforge.net/DTD/sodipodi-0.dtd"
   xmlns:inkscape="http://www.inkscape.org/namespaces/inkscape"
   version="1.1"
   id="Capa_1"
   x="0px"
   y="0px"
   width="296.43912mm"
   height="160.00188mm"
   viewBox="0 0 1120.3997 604.73151"
   enable-background="new 0 0 595.28 841.89"
   xml:space="preserve"
   sodipodi:docname="gw4.svg"
   inkscape:version="0.92.3 (2405546, 2018-03-11)"><metadata
   id="metadata31"><rdf:RDF><cc:Work
       rdf:about=""><dc:format>image/svg+xml</dc:format><dc:type
         rdf:resource="http://purl.org/dc/dcmitype/StillImage" /><dc:title></dc:title></cc:Work></rdf:RDF></metadata><defs
   id="defs29" /><sodipodi:namedview
   pagecolor="#ffffff"
   bordercolor="#666666"
   borderopacity="1"
   objecttolerance="10"
   gridtolerance="10"
   guidetolerance="10"
   inkscape:pageopacity="0"
   inkscape:pageshadow="2"
   inkscape:window-width="1920"
   inkscape:window-height="1018"
   id="namedview27"
   showgrid="false"
   inkscape:zoom="1.0108209"
   inkscape:cx="848.93569"
   inkscape:cy="385.20881"
   inkscape:window-x="-8"
   inkscape:window-y="-8"
   inkscape:window-maximized="1"
   inkscape:current-layer="Capa_1"
   showguides="false"
   units="mm"
   fit-margin-top="0"
   fit-margin-left="0"
   fit-margin-right="0"
   fit-margin-bottom="0" />
<polygon
   points="261.067,443.479 260.942,443.479 260.942,443.228 260.691,442.976 260.19,441.842 259.689,440.709 259.313,439.576 259.188,438.568 259.063,437.561 258.937,436.554 259.063,435.42 259.188,434.287 259.063,433.91 259.188,433.028 259.563,432.146 260.065,431.14 260.566,430.006 260.691,429.881 260.816,429.881 260.942,429.502 261.192,429.125 261.568,428.873 262.32,428.369 262.821,428.117 263.197,428.117 263.323,427.992 263.949,427.992 264.45,428.117 264.701,428.244 265.077,428.369 265.327,428.495 265.703,428.621 265.954,428.873 266.204,429.125 266.455,429.25 266.956,429.754 267.207,429.881 267.583,430.258 267.082,432.146 266.956,432.398 266.706,432.398 266.58,432.524 266.33,432.524 266.204,432.398 266.079,432.273 265.453,431.518 265.327,431.391 265.077,430.888 264.826,430.762 264.701,430.636 264.074,430.384 263.197,430.006 262.947,430.006 262.696,430.006 262.445,430.006 262.32,430.258 262.195,430.258 261.944,430.51 261.568,430.762 261.318,431.14 261.067,431.518 260.942,432.021 260.816,432.65 260.691,433.154 260.691,433.783 260.566,434.162 260.691,434.413 260.691,435.295 260.566,435.42 260.691,435.799 260.816,436.428 260.816,436.68 260.942,436.932 261.067,437.688 261.192,438.191 261.192,438.442 261.443,438.82 261.568,439.576 261.819,440.205 262.195,440.835 262.445,441.465 262.821,442.094 263.197,442.472 263.323,442.724 263.573,442.85 264.2,443.354 264.45,443.479 264.951,443.605 265.327,443.605 265.703,443.479 265.954,443.354 266.33,443.102 266.706,442.598 267.082,441.969 267.332,441.213 267.457,441.087 267.332,440.709 267.708,439.701 267.833,439.576 267.833,439.198 267.958,439.072 267.833,438.82 268.083,437.309 268.209,436.932 268.334,436.68 268.585,436.428 268.835,436.428 269.211,436.303 269.462,436.303 269.838,436.428 269.963,436.554 270.214,437.309 270.339,437.561 270.464,437.813 271.341,440.457 271.341,440.709 271.717,441.842 271.843,442.221 271.968,442.472 271.968,442.976 272.093,443.479 272.218,443.605 272.344,444.109 272.469,444.486 272.469,444.738 272.469,444.99 272.344,445.242 272.344,445.368 272.218,445.619 271.968,445.746 271.968,446.501 271.592,446.627 270.84,444.612 270.59,444.361 269.336,441.59 269.336,441.213 269.086,440.961 268.835,440.332 268.71,440.583 268.083,442.598 267.958,442.724 267.958,442.976 267.833,443.102 267.207,444.361 266.455,445.116 266.33,445.494 265.954,445.494 265.829,445.619 265.578,445.619 265.327,445.998 264.576,445.998 263.824,445.871 263.072,445.746 262.195,444.864 261.318,443.982 261.067,443.605 "
   id="polygon10"
   transform="matrix(14.422716,0,0,12.158584,-3734.5748,-4825.6204)"
   style="clip-rule:evenodd;fill-rule:evenodd" />
<path
   d="m 189.74537,437.85478 1.8028,-4.596 v -1.53196 -1.51984 -1.54409 l 1.80287,-3.06404 -1.80287,-1.51984 v -12.2558 -12.25592 l 1.80287,-3.06392 -1.80287,-3.06405 v -3.0518 l -1.8028,-3.06392 1.8028,-1.53202 -1.8028,-4.5838 v -4.6081 -1.51984 l -5.423,-16.85166 -3.60565,-7.6601 -1.80282,-1.51966 -1.80282,6.12793 v 4.58381 3.0638 1.53199 3.06396 4.59596 1.51984 3.06397 l 1.80282,13.78784 1.80282,10.72385 v 6.11584 3.06392 1.53208 l 1.80284,1.53196 v 6.11572 l 1.80281,6.12796 1.80291,6.12797 z m 90.35829,12.25568 v 3.06392 l -1.80283,3.0518 v 3.06404 1.53196 l -1.80284,3.06392 -1.80285,3.06404 v 3.06393 l -1.80283,3.06404 -1.80286,1.51984 -1.80281,3.06392 -1.80287,1.54408 -3.60567,6.11584 -3.62012,4.596 -5.40849,4.58376 -3.62011,3.06392 h -1.80281 -1.80289 -1.80279 -1.8029 v 1.5442 l -1.8028,1.51984 -7.22578,1.54408 h -3.6057 -5.42292 l -9.02865,-3.06392 -9.02857,-4.60812 v -1.51984 l -1.80287,-1.54408 h -3.60567 l -5.42294,-6.11584 -7.22579,-7.65992 1.80283,3.06392 v 1.53208 l -1.80283,4.59588 -1.80281,3.06404 v 1.51984 1.54408 l -3.60567,4.58376 -1.80291,3.06404 v 1.54408 l -3.60565,4.58388 -1.80282,3.06393 -1.80282,3.06392 v 1.53184 1.53196 l -1.80286,3.06404 h -1.80285 -1.80284 -3.6057 v -1.54421 -1.51983 -3.0638 l 1.80288,-1.53209 -1.80288,-1.53183 1.80288,-4.59601 v -4.59588 -3.06404 l 1.80282,-1.51984 v -4.608 l 1.80284,-1.51984 v -3.06404 -1.53196 l 1.80285,-3.06392 1.80286,-1.53208 v -1.51984 l 1.80282,-4.608 1.80282,-3.06405 v -3.06392 l 1.80284,-1.51984 v -1.53196 l -1.80284,-1.53208 v -1.53196 -1.53196 -1.53196 l -3.60564,-3.06404 -7.22581,-13.78776 -5.42298,-13.77553 -3.6056,-16.83968 -3.6201,-16.83968 v -1.54421 l -1.80286,-1.51984 v -1.53196 l -1.80285,-6.12792 v -3.05182 l 1.80285,-3.06397 -1.80285,-3.06397 v -1.54413 l -1.80286,-22.96763 v -10.71156 l 1.80286,-10.71175 1.80285,-7.67206 1.80286,-6.1158 1.80281,-4.59595 3.60566,-3.06397 3.60568,-1.51983 h 5.42295 5.42295 l 3.60565,3.05182 3.60567,4.59595 3.62012,4.59595 1.80287,3.05183 v 3.06396 l 1.80281,1.54414 1.80283,3.06396 3.6201,10.71175 3.60568,9.1919 1.80288,9.17976 -1.80288,1.53198 1.80288,4.59579 1.80281,6.11579 1.80286,6.12794 v 1.54413 4.5838 4.59599 3.06392 1.53196 l 1.80284,1.51984 v 4.60813 4.58376 1.5442 4.58376 l -1.80284,3.06404 1.80284,4.59588 v 7.65992 13.77577 l -1.80284,6.12772 v 1.51984 6.12796 l -1.80286,4.59588 5.42297,6.12796 3.60564,4.596 5.42293,4.58376 7.22581,3.06405 5.42293,1.54408 h 5.42294 5.42296 l 5.40848,-1.54408 3.62015,-3.06405 5.4229,-6.11572 h 1.80288 l 1.80282,-1.53208 v -3.06392 -3.06392 l 3.60569,-1.53208 v -3.0518 h 1.8028 l -1.8028,-1.54408 3.60568,-4.58376 v -4.60812 l 3.60569,-6.1156 1.80281,-4.596 1.80287,-3.06393 v -3.06404 l 3.60569,-3.06392 v -1.51984 l 1.80283,-3.06404 h 1.80281 l 3.6057,-1.53196 h 1.80284 v 1.53196 1.51984 l 1.80282,3.06404 -1.80282,6.12796 -1.80284,6.12785 v 3.06404 3.06392 l -1.80286,1.51972 v 3.06392 l -1.80284,3.06392 v 1.5442 z"
   id="path12"
   inkscape:connector-curvature="0"
   style="clip-rule:evenodd;fill-rule:evenodd;stroke-width:13.24234962" />
<polygon
   points="277.23,433.91 277.23,433.658 277.23,433.406 277.481,433.154 277.481,432.776 277.606,432.398 277.857,431.895 277.982,431.643 278.107,431.518 278.107,431.266 278.232,430.762 278.358,430.258 278.483,429.881 278.608,429.377 278.734,429.25 278.608,429.125 279.11,428.117 279.235,427.74 279.36,427.613 279.36,427.361 279.485,427.11 279.485,426.984 279.611,426.606 279.736,426.354 279.861,426.229 279.861,425.977 280.363,425.096 280.488,424.844 280.613,424.466 280.738,424.215 280.864,424.088 280.989,423.963 281.114,423.836 281.24,423.836 281.365,423.711 281.49,423.711 281.741,423.711 281.866,423.711 281.991,423.711 281.991,423.836 282.117,423.836 282.117,423.963 282.242,424.088 282.117,424.466 281.991,424.844 281.741,425.348 281.741,425.6 281.741,425.725 281.616,426.229 281.365,426.858 281.24,427.11 281.24,427.361 281.114,427.613 281.114,427.992 280.989,428.117 280.989,428.369 280.864,428.747 280.738,429.125 280.613,429.377 280.488,430.006 280.363,430.636 280.237,431.14 280.112,431.643 280.112,431.895 280.112,432.146 280.112,432.524 280.237,432.524 280.363,432.398 280.488,432.021 280.738,431.895 280.738,431.77 280.864,431.391 280.864,431.266 280.989,431.14 280.989,431.014 281.114,430.762 281.24,430.762 281.114,430.51 281.24,430.258 281.49,429.629 281.741,428.999 281.866,428.495 282.117,427.865 282.242,427.613 282.367,427.361 282.493,427.11 282.869,426.858 282.994,426.858 283.119,426.984 283.37,427.11 283.495,427.236 283.62,427.488 283.62,427.613 283.871,428.117 283.996,428.369 284.122,428.495 284.372,428.747 284.623,428.999 284.873,428.999 285.249,428.999 285.5,428.999 285.625,428.747 285.75,428.495 285.875,428.117 285.875,427.992 286.126,427.74 286.377,427.361 286.377,426.984 286.627,426.732 286.627,426.606 286.752,426.354 286.878,426.229 287.003,426.229 287.128,426.354 287.254,426.354 287.254,426.48 287.254,426.732 287.254,427.236 287.128,427.74 287.128,427.992 287.003,428.244 287.003,428.369 286.878,428.621 286.878,428.747 286.752,428.999 286.627,429.377 286.627,429.502 286.502,429.629 286.377,430.006 286.251,430.384 286.001,430.636 285.625,430.888 285.249,431.14 284.873,431.266 284.498,431.266 284.122,431.14 283.746,431.014 283.495,430.762 283.245,430.51 282.994,430.133 282.869,429.881 282.743,429.754 282.618,429.881 282.493,430.133 282.493,430.384 282.242,430.888 282.117,431.266 282.117,431.391 281.991,431.518 281.866,431.518 281.866,431.643 281.866,431.77 281.866,432.021 281.741,432.776 281.365,433.531 280.864,434.413 280.613,434.917 280.363,435.043 280.237,435.169 279.861,435.295 279.485,435.169 279.11,435.043 278.984,435.043 278.859,434.917 278.734,434.413 278.734,433.783 278.608,433.154 278.483,433.406 278.483,433.658 278.483,433.91 278.358,434.035 278.232,434.035 278.107,434.035 278.107,434.162 278.107,434.413 277.857,434.665 277.857,434.917 277.731,435.043 277.731,435.169 277.606,435.42 277.481,435.672 277.481,435.799 277.355,435.799 277.23,435.924 277.105,435.799 276.979,435.547 276.979,435.295 276.854,435.043 276.979,434.791 277.105,434.287 276.979,434.035 277.105,434.035 "
   id="polygon14"
   transform="matrix(14.422716,0,0,12.158584,-3734.5748,-4825.6204)"
   style="clip-rule:evenodd;fill-rule:evenodd" />
<polygon
   points="286.377,426.229 286.627,425.473 286.752,425.348 286.752,425.096 287.128,423.584 287.128,423.459 287.128,423.332 287.504,421.948 287.63,421.57 287.755,421.192 287.88,421.066 288.131,420.94 288.381,420.814 288.757,420.688 289.008,420.688 289.258,420.814 289.509,420.94 289.634,421.066 289.634,421.192 289.634,421.318 289.76,421.444 289.885,421.822 290.01,422.325 290.261,422.577 290.386,422.955 290.637,423.711 290.887,424.718 291.013,425.221 291.138,425.852 291.263,426.354 291.263,426.606 291.389,426.858 291.514,427.11 292.015,425.977 292.015,425.6 292.14,425.348 292.266,425.096 292.266,424.844 292.391,424.592 292.391,424.34 292.391,424.088 292.516,423.963 292.767,423.584 292.892,423.207 293.018,422.955 293.143,422.829 293.393,422.451 293.519,422.451 293.644,422.577 293.769,422.577 293.769,422.703 293.769,422.955 293.769,423.081 293.644,423.963 293.644,424.215 293.393,424.34 293.393,424.844 293.393,425.096 293.268,425.348 293.143,425.6 293.143,425.725 293.018,426.229 292.892,426.354 292.892,426.732 292.642,427.236 292.391,427.74 292.266,428.244 292.266,428.495 292.14,428.747 292.14,428.873 292.015,429.125 292.015,429.25 291.89,429.25 291.765,429.377 291.765,429.881 291.389,430.384 291.263,430.636 291.013,430.636 290.887,430.762 290.762,430.762 290.637,430.636 290.512,430.51 290.386,430.384 289.76,429.881 289.509,429.502 289.258,429.125 289.133,428.873 288.757,428.495 288.757,428.117 288.757,427.865 288.883,427.74 289.008,427.488 289.133,427.236 289.384,427.236 289.509,427.361 289.76,427.488 289.76,427.11 289.634,426.732 289.384,426.354 289.258,425.725 289.008,425.221 288.883,424.97 288.632,424.592 288.381,424.466 288.131,424.592 288.131,424.97 287.88,425.221 287.63,426.229 287.379,427.361 287.128,427.74 287.003,427.992 287.003,428.117 286.878,428.621 286.752,429.125 286.627,429.125 286.627,429.25 286.627,429.377 286.502,429.502 286.251,429.754 286.251,430.006 286.126,430.258 286.001,430.384 285.875,430.762 285.75,430.888 285.5,430.888 285.375,430.888 285.375,430.762 285.375,430.636 285.5,430.384 285.375,430.133 285.375,429.754 285.5,429.377 285.5,429.125 285.625,428.999 285.625,428.621 285.75,428.244 285.875,427.992 286.251,426.858 286.377,426.48 "
   id="polygon16"
   transform="matrix(14.422716,0,0,12.158584,-3734.5748,-4825.6204)"
   style="clip-rule:evenodd;fill-rule:evenodd" />
<polygon
   points="293.143,421.696 293.268,421.57 293.268,421.318 293.644,419.807 293.769,419.681 293.769,419.555 294.02,418.17 294.145,417.667 294.271,417.415 294.521,417.289 294.646,417.163 294.897,417.037 295.398,416.911 295.523,416.911 295.899,417.037 296.024,417.163 296.15,417.289 296.15,417.415 296.275,417.541 296.275,417.667 296.526,418.044 296.651,418.548 296.776,418.674 296.901,419.177 297.152,419.807 297.528,420.814 297.653,421.318 297.779,422.074 297.779,422.577 297.904,422.829 297.904,423.081 298.029,423.332 298.53,422.199 298.53,421.822 298.781,421.57 298.781,421.318 298.906,421.066 298.906,420.814 299.031,420.563 299.031,420.311 299.156,420.059 299.407,419.807 299.533,419.429 299.658,419.177 299.783,418.926 299.908,418.674 300.033,418.674 300.159,418.674 300.285,418.674 300.285,418.8 300.285,418.926 300.41,419.177 300.41,419.303 300.159,420.185 300.159,420.437 300.033,420.563 300.033,421.066 299.908,421.318 299.908,421.57 299.783,421.822 299.658,421.948 299.658,422.325 299.533,422.577 299.407,422.829 299.282,423.332 298.906,423.963 298.906,424.466 298.906,424.718 298.656,424.844 298.656,425.096 298.656,425.221 298.53,425.348 298.405,425.473 298.28,426.104 297.904,426.606 297.779,426.732 297.653,426.858 297.528,426.858 297.403,426.858 297.152,426.732 297.152,426.606 297.027,426.606 296.4,425.977 296.15,425.725 295.774,425.348 295.774,425.096 295.272,424.718 295.398,424.215 295.398,424.088 295.398,423.963 295.523,423.584 295.774,423.459 295.899,423.459 296.15,423.584 296.275,423.711 296.4,423.711 296.4,423.332 296.275,422.829 296.024,422.451 295.774,421.948 295.523,421.444 295.398,421.192 295.272,420.688 295.022,420.688 294.771,420.814 294.646,421.192 294.521,421.444 294.271,422.325 293.895,423.459 293.769,423.963 293.644,424.088 293.644,424.215 293.519,424.718 293.268,425.348 293.143,425.348 293.143,425.6 293.143,425.725 292.892,425.977 292.767,426.229 292.642,426.48 292.642,426.606 292.516,426.858 292.266,427.11 292.015,427.11 292.015,426.984 291.89,426.984 291.89,426.858 292.015,426.48 291.89,426.354 292.015,425.977 292.015,425.6 292.015,425.348 292.266,425.096 292.266,424.718 292.391,424.466 292.391,424.088 292.767,423.081 293.018,422.703 293.018,422.451 "
   id="polygon18"
   transform="matrix(14.422716,0,0,12.158584,-3734.5748,-4825.6204)"
   style="clip-rule:evenodd;fill-rule:evenodd" />
<polygon
   points="302.039,404.823 302.289,404.949 302.665,405.201 303.291,405.453 303.417,405.705 303.668,406.082 303.793,406.334 304.043,406.963 304.168,407.089 304.294,407.341 304.42,407.845 304.545,408.097 304.67,408.223 304.67,408.349 304.67,408.601 304.92,408.727 305.046,408.978 305.046,409.104 305.171,409.23 305.422,409.734 305.672,410.363 305.923,410.489 306.174,410.867 306.299,411.119 306.299,411.245 306.674,411.875 306.8,411.875 306.8,412 306.926,412.252 307.301,412.63 307.803,413.385 307.803,413.511 308.303,414.141 308.554,414.519 308.805,414.771 308.93,414.896 309.055,415.022 309.055,415.148 309.682,416.03 310.434,416.785 310.559,416.533 310.559,416.281 310.559,416.03 310.559,415.778 310.434,415.526 310.434,415.148 310.559,414.645 310.434,414.519 310.309,413.511 310.183,413.259 310.183,412.252 310.183,412.126 310.058,411.875 309.932,411.245 309.682,410.363 309.682,410.111 309.557,409.608 309.557,409.356 309.557,409.104 309.306,408.853 309.18,408.097 308.93,407.593 308.93,407.341 308.805,407.089 308.429,406.208 308.178,405.453 308.303,405.201 308.303,404.949 308.178,404.823 308.303,404.571 308.429,404.193 309.055,403.69 309.18,403.564 309.306,403.312 309.557,403.312 309.682,403.438 309.932,403.564 310.058,403.69 310.183,403.816 310.309,404.445 310.684,405.075 310.809,405.705 311.061,406.334 311.311,406.963 311.311,407.215 311.561,407.593 311.687,407.845 312.063,408.727 312.188,409.104 312.313,409.356 312.438,409.608 312.438,409.86 312.563,409.986 312.688,410.111 312.814,410.237 312.939,410.489 312.939,410.867 313.064,410.867 313.064,410.993 313.189,411.119 313.314,411.245 313.566,411.497 313.566,411.749 313.691,412 314.066,412.504 314.568,413.385 315.069,414.015 315.069,413.259 314.943,412.504 314.818,411.371 314.818,411.119 314.693,410.867 314.443,409.608 314.192,408.349 314.317,408.097 314.066,407.719 313.314,404.193 313.064,403.312 312.814,402.557 312.688,402.431 312.313,401.171 312.313,400.919 312.438,400.794 312.563,400.164 312.688,399.913 312.939,399.913 313.064,400.038 313.189,400.416 313.314,400.542 313.44,400.794 313.566,401.045 313.691,401.297 313.691,401.423 313.816,401.675 313.941,401.801 313.941,401.927 314.192,402.305 314.192,402.683 314.443,402.809 314.693,404.067 314.818,404.193 315.194,405.327 315.445,406.082 315.445,406.46 315.57,406.712 315.57,406.838 315.695,407.341 315.82,407.719 315.695,407.971 316.072,408.853 316.072,409.482 316.322,410.489 316.322,411.245 316.572,411.623 316.698,412.882 316.698,413.133 316.823,413.889 316.949,414.519 316.823,415.022 316.698,415.4 316.698,415.652 316.572,415.778 316.447,415.778 316.197,415.904 315.946,416.281 315.695,416.533 315.445,416.533 315.069,416.659 314.818,416.533 314.568,416.407 314.066,415.778 313.816,415.526 313.691,415.4 313.566,415.274 313.44,415.148 313.314,414.896 313.189,414.771 313.064,414.519 312.939,414.393 312.814,414.141 312.563,413.889 312.313,413.385 311.938,412.882 311.561,412.378 311.687,412.63 311.561,413.007 311.687,413.133 311.812,414.393 311.687,414.519 311.812,414.771 311.687,415.022 311.812,415.022 311.812,415.148 311.938,415.274 311.938,415.526 312.063,417.037 312.063,418.548 312.188,418.926 312.188,419.303 312.063,419.429 312.063,419.555 311.938,419.807 311.812,419.933 311.687,420.059 311.436,420.185 311.311,420.185 311.186,420.185 310.684,419.933 310.058,419.303 309.306,418.548 309.055,418.296 308.805,417.918 308.554,417.667 308.429,417.541 308.303,417.415 307.552,416.533 306.8,415.526 306.424,415.148 306.174,414.896 305.923,414.771 304.67,413.007 304.545,413.007 304.42,413.007 304.294,413.007 304.168,413.007 303.668,412.504 303.417,412 303.041,411.371 303.041,411.245 302.665,410.741 302.539,410.363 302.414,410.237 302.039,409.482 301.788,408.601 301.537,408.097 301.537,407.719 301.287,407.593 301.162,407.215 301.036,406.712 300.911,406.208 300.785,405.453 300.785,405.327 300.911,405.201 301.036,405.075 301.162,405.075 301.412,404.949 "
   id="polygon20"
   transform="matrix(14.422716,0,0,12.158584,-3734.5748,-4825.6204)"
   style="clip-rule:evenodd;fill-rule:evenodd" />
<polygon
   points="317.575,410.489 317.575,410.363 317.575,410.111 317.826,409.734 317.826,409.356 317.951,409.104 318.076,408.601 318.201,408.223 318.327,408.097 318.327,407.845 318.452,407.341 318.703,406.963 318.703,406.46 318.828,405.957 319.078,405.831 318.953,405.705 319.329,404.697 319.58,404.445 319.58,404.193 319.705,404.067 319.705,403.816 319.83,403.564 319.955,403.312 320.081,402.934 320.207,402.809 320.207,402.683 320.582,401.675 320.707,401.423 320.958,401.045 321.084,400.919 321.209,400.794 321.334,400.668 321.334,400.542 321.459,400.416 321.71,400.416 321.835,400.29 322.086,400.29 322.211,400.29 322.336,400.416 322.336,400.542 322.461,400.542 322.461,400.794 322.461,401.045 322.336,401.549 322.086,401.927 322.086,402.179 322.086,402.305 322.086,402.431 321.835,402.934 321.71,403.438 321.584,403.69 321.584,403.942 321.459,404.193 321.334,404.571 321.209,404.823 321.209,404.949 321.084,405.453 321.084,405.831 320.833,405.957 320.833,406.586 320.707,407.215 320.457,407.719 320.332,408.223 320.457,408.475 320.332,408.727 320.457,409.104 320.582,409.104 320.707,408.978 320.833,408.727 320.958,408.475 321.084,408.349 321.084,407.971 321.209,407.845 321.334,407.719 321.334,407.593 321.459,407.467 321.459,407.341 321.459,407.215 321.584,406.838 321.835,406.334 322.086,405.579 322.211,405.075 322.461,404.445 322.461,404.193 322.587,403.942 322.838,403.69 323.088,403.564 323.213,403.438 323.464,403.564 323.715,403.69 323.84,403.816 323.84,403.942 323.84,404.067 323.965,404.193 324.216,404.697 324.342,404.949 324.467,405.075 324.592,405.327 324.968,405.579 325.219,405.705 325.469,405.705 325.719,405.579 325.97,405.453 326.096,405.075 326.221,404.697 326.221,404.571 326.346,404.319 326.596,403.942 326.722,403.564 326.848,403.438 326.973,403.186 326.973,402.934 327.098,402.934 327.223,402.809 327.348,402.809 327.474,402.934 327.474,403.06 327.599,403.186 327.599,403.438 327.474,403.942 327.348,404.445 327.474,404.697 327.223,404.823 327.223,405.075 327.223,405.201 327.098,405.453 326.973,405.579 326.973,405.957 326.848,406.082 326.722,406.208 326.722,406.712 326.471,407.089 326.221,407.341 325.97,407.593 325.594,407.719 325.219,407.845 324.842,407.845 324.467,407.845 324.09,407.719 323.84,407.467 323.464,407.089 323.213,406.712 323.088,406.586 322.963,406.334 322.963,406.46 322.838,406.712 322.713,407.089 322.587,407.467 322.461,407.845 322.336,408.097 322.211,408.223 322.086,408.223 322.211,408.475 322.211,408.727 322.086,409.356 321.71,410.237 321.209,410.993 320.833,411.497 320.707,411.623 320.457,411.749 320.207,411.875 319.83,411.875 319.455,411.749 319.329,411.623 319.204,411.497 319.078,411.119 318.953,410.363 318.953,409.86 318.828,409.986 318.703,410.237 318.703,410.489 318.703,410.615 318.578,410.615 318.452,410.615 318.452,410.867 318.327,410.993 318.201,411.371 318.076,411.497 318.076,411.623 317.951,411.875 317.951,412 317.826,412.252 317.701,412.378 317.575,412.504 317.449,412.504 317.324,412.504 317.199,412.126 317.324,411.875 317.199,411.749 317.324,411.371 317.449,410.993 317.324,410.615 317.449,410.615 "
   id="polygon22"
   transform="matrix(14.422716,0,0,12.158584,-3734.5748,-4825.6204)"
   style="clip-rule:evenodd;fill-rule:evenodd" />
<polygon
   points="334.49,408.475 334.615,408.853 334.49,409.23 334.49,409.86 334.365,410.489 334.365,410.993 334.365,411.245 334.239,411.497 334.114,411.875 334.114,412.126 334.114,412.504 333.738,413.259 333.362,413.637 333.111,413.889 332.861,414.015 332.61,414.015 332.485,413.889 332.485,413.763 332.359,413.511 332.359,413.133 332.359,412.126 332.359,412 332.61,411.749 332.485,411.623 332.485,411.497 332.485,411.245 332.61,410.993 332.485,410.867 332.485,410.615 332.61,409.86 332.736,408.978 332.861,408.727 332.736,408.475 332.736,408.223 332.986,406.838 333.236,405.957 333.111,405.579 333.111,405.201 332.986,405.201 332.986,404.697 332.861,404.571 332.861,404.193 332.736,403.69 332.736,403.438 332.736,403.312 332.61,403.186 332.61,403.06 332.485,402.934 332.485,402.809 332.359,402.557 332.359,402.431 332.359,402.305 332.234,401.927 331.984,401.549 331.859,401.297 331.733,401.297 331.733,401.549 331.608,402.053 331.357,402.557 331.357,402.683 331.357,402.809 331.357,402.934 331.357,403.312 331.107,403.816 330.982,404.571 330.856,404.697 330.73,404.823 330.73,404.949 330.73,405.075 330.355,406.082 330.104,406.334 329.979,406.586 329.854,406.586 329.354,406.838 329.102,406.838 328.852,406.586 328.476,406.208 328.476,406.082 328.476,405.957 328.351,405.831 328.225,405.831 328.1,405.579 327.599,404.823 327.474,404.823 327.348,404.949 327.348,405.201 327.098,405.579 326.848,405.831 326.848,405.957 326.848,406.208 326.596,406.46 326.471,406.838 326.221,406.963 326.221,407.341 326.096,407.467 325.97,407.593 325.845,407.593 325.594,407.467 325.594,407.341 325.719,406.963 325.594,406.712 325.719,406.586 325.845,406.082 325.719,405.705 325.97,405.579 325.97,405.453 325.97,405.201 325.97,405.075 326.096,404.949 326.221,404.949 326.096,404.697 326.221,404.445 326.346,404.193 326.471,403.816 326.722,403.438 326.596,403.186 326.848,402.179 327.098,401.045 327.348,400.794 327.474,400.668 327.725,400.542 328.1,400.542 328.351,400.668 328.476,400.919 328.476,401.045 328.602,401.171 328.727,401.423 328.727,401.549 328.852,402.053 329.228,403.186 329.479,403.942 329.479,404.067 329.604,404.193 329.729,404.193 329.854,404.067 329.979,403.564 330.23,402.934 330.355,402.557 330.48,402.053 330.48,401.927 330.605,401.675 330.73,401.297 330.856,400.542 330.982,400.038 330.982,399.787 331.357,398.779 331.482,398.275 331.482,398.149 331.482,397.772 331.608,397.52 331.859,397.268 332.109,397.016 332.359,396.89 332.61,396.89 332.861,396.89 332.986,397.016 332.986,397.268 333.236,397.646 333.236,398.149 333.362,398.275 333.863,400.542 333.988,401.171 334.114,401.801 334.114,401.927 334.239,402.431 334.365,402.305 334.49,402.179 334.49,401.927 334.49,401.549 334.615,401.171 334.991,400.416 334.991,400.164 334.991,399.913 335.242,399.409 335.242,399.283 335.492,398.905 335.617,398.653 335.617,398.527 335.742,398.275 335.868,398.149 335.994,397.772 336.119,397.646 336.369,397.646 336.494,397.646 336.494,397.772 336.494,397.898 336.62,398.149 336.494,398.779 336.369,399.157 336.369,399.283 336.369,399.409 336.369,399.535 336.244,399.661 336.119,400.038 335.994,400.542 335.868,400.668 335.868,400.794 335.742,401.171 335.617,401.549 335.617,401.675 335.492,401.801 335.492,401.927 335.367,402.179 335.367,402.305 335.242,402.683 335.242,402.934 335.116,403.312 334.991,403.564 334.865,404.193 334.615,405.201 334.615,405.705 334.615,406.208 334.615,406.712 334.615,406.963 334.615,407.089 334.615,407.467 334.615,407.593 334.615,407.719 334.615,407.971 334.615,408.223 "
   id="polygon24"
   transform="matrix(14.422716,0,0,12.158584,-3734.5748,-4825.6204)"
   style="clip-rule:evenodd;fill-rule:evenodd" />
</svg>