<?xml version="1.0" encoding="UTF-8" standalone="no"?>
<!-- Created with Inkscape (http://www.inkscape.org/) -->

<svg
   xmlns:dc="http://purl.org/dc/elements/1.1/"
   xmlns:cc="http://creativecommons.org/ns#"
   xmlns:rdf="http://www.w3.org/1999/02/22-rdf-syntax-ns#"
   xmlns:svg="http://www.w3.org/2000/svg"
   xmlns="http://www.w3.org/2000/svg"
   xmlns:sodipodi="http://sodipodi.sourceforge.net/DTD/sodipodi-0.dtd"
   xmlns:inkscape="http://www.inkscape.org/namespaces/inkscape"
   width="38.535091"
   height="41.42556"
   viewBox="0 0 38.535092 41.42556"
   id="svg2"
   version="1.1"
   inkscape:version="0.92.1 r15371"
   sodipodi:docname="greenbone.svg">
  <defs
     id="defs4" />
  <sodipodi:namedview
     id="base"
     pagecolor="#ffffff"
     bordercolor="#666666"
     borderopacity="1.0"
     inkscape:pageopacity="0.0"
     inkscape:pageshadow="2"
     inkscape:zoom="15.572868"
     inkscape:cx="16.026823"
     inkscape:cy="21.559087"
     inkscape:document-units="px"
     inkscape:current-layer="layer1"
     showgrid="false"
     showguides="true"
     inkscape:guide-bbox="true"
     inkscape:window-width="1916"
     inkscape:window-height="1018"
     inkscape:window-x="0"
     inkscape:window-y="0"
     inkscape:window-maximized="0"
     fit-margin-top="0"
     fit-margin-left="0"
     fit-margin-right="0"
     fit-margin-bottom="0" />
  <metadata
     id="metadata7">
    <rdf:RDF>
      <cc:Work
         rdf:about="">
        <dc:format>image/svg+xml</dc:format>
        <dc:type
           rdf:resource="http://purl.org/dc/dcmitype/StillImage" />
        <dc:title />
      </cc:Work>
    </rdf:RDF>
  </metadata>
  <g
     inkscape:label="Ebene 1"
     inkscape:groupmode="layer"
     id="layer1"
     transform="translate(-197.37293,-958.15429)">
    <path
       d="m 203.07593,995.29483 c -2.01337,-0.49905 -4.02264,-2.54386 -4.99352,-5.07701 l -0.29066,-0.76005 0.9401,-2.06724 c 2.60652,-5.73289 5.37118,-9.76561 9.56312,-13.94926 2.64799,-2.64139 4.81579,-4.47073 8.34535,-7.04583 2.17617,-1.58961 2.31167,-1.58961 1.73338,0 -0.42629,1.16981 -0.3825,1.62916 0.15214,1.62916 0.71621,0 1.09632,-1.27223 1.64393,-5.50322 0.13321,-1.03782 0.28358,-2.1258 0.33213,-2.41587 l 0.0893,-0.5287 0.39664,0.37171 c 0.21967,0.20492 0.57903,0.68911 0.80039,1.07744 0.22146,0.39074 0.75599,1.26807 1.18576,1.9507 1.28465,2.04057 1.53504,2.82562 1.70672,5.35694 0.15865,2.38097 0.34452,3.22865 0.70159,3.22865 0.35517,0 0.51968,-0.65347 0.63274,-2.52069 0.0586,-0.94827 0.15864,-1.72501 0.22325,-1.72501 0.36344,0 2.21997,3.42294 2.52716,4.66136 0.10422,0.41981 0.35527,1.02768 0.55767,1.34922 0.43635,0.69733 0.44702,0.80208 0.10662,1.08392 -0.40315,0.33384 -0.83359,1.4077 -0.84186,2.10271 -0.0125,0.88389 -0.24629,0.40319 -0.38418,-0.78497 -0.18179,-1.57292 -0.2131,-1.6309 -0.92941,-1.8251 -0.35697,-0.0983 -1.21954,-0.18598 -1.91275,-0.19894 -1.18464,-0.0183 -1.32197,0.0149 -2.17209,0.53103 -2.30988,1.39707 -3.56315,2.78766 -3.56315,3.9534 0,0.70148 0.18587,1.15252 0.98805,2.40996 0.85181,1.33436 0.78491,1.55747 -0.74355,2.51836 -1.4492,0.91281 -2.61899,2.02397 -3.92608,3.72605 -1.21958,1.59128 -1.86311,2.02338 -4.24169,2.86284 -1.09464,0.38658 -2.22415,0.84834 -2.51242,1.02535 -0.52626,0.3262 -1.31367,1.36634 -2.30759,3.05355 -0.36115,0.61211 -0.73288,1.01705 -1.10888,1.21117 -0.70206,0.35934 -1.91503,0.4949 -2.69825,0.30078 z m -1.45809,-6.52617 c 0.17173,-0.12958 0.59559,-0.31132 0.94429,-0.40311 0.87724,-0.23624 1.02758,-0.39904 1.02758,-1.12121 0,-0.5204 -0.10468,-0.73346 -0.6103,-1.23858 -0.33624,-0.33434 -0.75364,-0.61028 -0.92881,-0.61028 -0.39077,0 -0.90218,0.98216 -1.16561,2.23303 -0.26523,1.27156 0.004,1.69121 0.73285,1.14015 z m 8.6106,-9.66128 c 0.41141,-0.25053 0.79381,-0.31507 1.8967,-0.31507 1.62856,0 2.19872,-0.2006 2.9257,-1.02768 0.54691,-0.62448 1.43084,-2.32416 1.43084,-2.75684 0,-0.13556 -0.11077,-0.57606 -0.24866,-0.97926 -0.31141,-0.91462 -1.07391,-1.6019 -1.92344,-1.73979 -0.5831,-0.0917 -0.65409,-0.15459 -0.74594,-0.65181 -0.0586,-0.309 -0.19831,-0.54881 -0.31967,-0.54881 -0.22554,0 -1.76644,1.78133 -2.06959,2.39343 -1.00398,2.02762 -1.83754,4.2369 -1.89617,5.03499 -0.0769,1.03598 0.0693,1.12777 0.95023,0.59084"
       style="fill:#66c430;fill-opacity:1;fill-rule:nonzero;stroke:none;stroke-width:0.83064979"
       id="path3353"
       inkscape:connector-curvature="0" />
    <g
       id="g3355"
       transform="matrix(2.0884251,0,0,-2.0846971,124.51181,1008.5638)"
       style="fill:#66c430;fill-opacity:1;stroke:#66c430;stroke-opacity:1">
      <path
         d="m 37.6189,6.3649 c -0.9641,0.239 -1.9262,1.2181 -2.3911,2.431 l -0.1391,0.364 0.4501,0.9898 c 1.2481,2.7451 2.5719,4.6761 4.5791,6.6793 1.2679,1.2648 2.306,2.1407 3.996,3.3738 1.042,0.7611 1.1069,0.7611 0.83,0.0011 -0.2041,-0.5601 -0.1831,-0.7801 0.0728,-0.7801 0.343,0 0.525,0.6092 0.7872,2.6351 0.0638,0.4969 0.1358,1.018 0.159,1.1568 l 0.0428,0.2532 0.19,-0.178 c 0.1051,-0.0981 0.2772,-0.33 0.3832,-0.5159 0.106,-0.1871 0.362,-0.6072 0.5678,-0.9341 0.6151,-0.9771 0.735,-1.3529 0.8172,-2.565 0.076,-1.1401 0.165,-1.546 0.3359,-1.546 0.1701,0 0.2489,0.3129 0.303,1.207 0.0281,0.4541 0.076,0.826 0.1069,0.826 0.174,0 1.063,-1.639 1.2101,-2.232 0.0499,-0.201 0.1701,-0.4921 0.267,-0.646 0.2089,-0.334 0.2141,-0.3841 0.0511,-0.5191 -0.1931,-0.1598 -0.3992,-0.6741 -0.4031,-1.0068 -0.006,-0.4233 -0.1179,-0.1931 -0.184,0.3758 -0.087,0.7532 -0.102,0.781 -0.445,0.874 -0.171,0.047 -0.584,0.089 -0.9159,0.0952 -0.5672,0.0088 -0.633,-0.0071 -1.04,-0.2543 -1.1061,-0.6689 -1.7062,-1.3348 -1.7062,-1.8929 0,-0.3359 0.089,-0.5519 0.4731,-1.154 0.4079,-0.639 0.3759,-0.7458 -0.356,-1.2059 -0.694,-0.4371 -1.2541,-0.9692 -1.88,-1.7841 -0.5839,-0.762 -0.892,-0.9689 -2.031,-1.3708 -0.5241,-0.1851 -1.065,-0.4063 -1.203,-0.491 -0.252,-0.1562 -0.629,-0.6542 -1.105,-1.4621 -0.1729,-0.2931 -0.3509,-0.487 -0.5309,-0.58 -0.3362,-0.172 -0.917,-0.237 -1.292,-0.144 z m -0.6982,3.1249 c 0.0822,0.0621 0.2852,0.1491 0.4521,0.1931 0.4201,0.1131 0.4921,0.191 0.4921,0.5368 0,0.2492 -0.0502,0.3513 -0.2922,0.5931 -0.161,0.1601 -0.3609,0.2922 -0.4448,0.2922 -0.1871,0 -0.432,-0.4703 -0.5581,-1.0692 -0.127,-0.6089 0.0019,-0.8099 0.3509,-0.546 z m 4.123,4.6262 c 0.197,0.1199 0.3801,0.1508 0.9082,0.1508 0.7798,0 1.0528,0.0961 1.4009,0.4921 0.2619,0.299 0.6851,1.1128 0.6851,1.3201 0,0.0649 -0.053,0.2758 -0.119,0.4688 -0.1491,0.438 -0.5142,0.7671 -0.921,0.8331 -0.2792,0.044 -0.3132,0.074 -0.3572,0.3121 -0.028,0.148 -0.0949,0.2628 -0.153,0.2628 -0.108,0 -0.8459,-0.853 -0.991,-1.1461 -0.4808,-0.9708 -0.8799,-2.0287 -0.908,-2.4108 -0.0368,-0.4961 0.0332,-0.54 0.455,-0.2829 z"
         style="fill:#66c430;fill-opacity:1;stroke:#66c430;stroke-width:0.21600001;stroke-linecap:butt;stroke-linejoin:bevel;stroke-miterlimit:10.00000095;stroke-dasharray:none;stroke-opacity:1"
         id="path3357"
         inkscape:connector-curvature="0" />
    </g>
    <path
       d="m 215.92928,965.89514 c -0.1024,-0.16754 0.18826,-4.59681 0.33033,-5.0148 0.0438,-0.1314 0.35049,0.25933 0.74115,0.94429 0.36533,0.64118 0.78093,1.33253 0.92533,1.53504 0.36942,0.52621 0.11246,1.13599 -0.78972,1.88134 -0.94594,0.78139 -1.08394,0.85424 -1.20709,0.65413"
       style="fill:#70bf00;fill-opacity:1;fill-rule:nonzero;stroke:none;stroke-width:0.83064979"
       id="path3359"
       inkscape:connector-curvature="0" />
    <g
       id="g3361"
       transform="matrix(2.0884251,0,0,-2.0884251,124.51181,1008.5874)"
       style="fill:#66c430;fill-opacity:1">
      <path
         d="m 43.7734,20.4423 c -0.049,0.0803 0.0902,2.2011 0.1582,2.4013 0.021,0.0629 0.1678,-0.1242 0.3549,-0.4522 0.1749,-0.307 0.3739,-0.638 0.4431,-0.735 0.1769,-0.252 0.0538,-0.544 -0.3782,-0.9008 -0.4529,-0.3742 -0.519,-0.4091 -0.578,-0.3133 z"
         style="fill:#66c430;stroke:#66c430;stroke-width:0.99690002;stroke-linecap:butt;stroke-linejoin:bevel;stroke-miterlimit:10.00000095;stroke-dasharray:none;stroke-opacity:1;fill-opacity:1"
         id="path3363"
         inkscape:connector-curvature="0" />
    </g>
    <path
       inkscape:connector-curvature="0"
       id="path3369"
       style="fill:#66c430;fill-opacity:1;stroke:#66c430;stroke-width:1.05256629;stroke-linecap:butt;stroke-linejoin:bevel;stroke-miterlimit:10.00000095;stroke-dasharray:none;stroke-opacity:1"
       d="m 211.46402,998.58865 -0.53694,-0.32809 0.98386,-0.50499 c 1.97732,-1.01288 11.28752,-7.96525 11.93702,-8.9136 0.33018,-0.48013 0.36171,-0.67248 0.30491,-1.81505 -0.0835,-1.62438 -0.69754,-2.99668 -1.50367,-3.35193 -0.33811,-0.14786 -0.48618,-0.3047 -0.4298,-0.45277 0.0478,-0.12321 0.16457,-0.53881 0.26273,-0.92287 0.15684,-0.62883 0.14034,-0.74599 -0.16687,-1.15929 -0.83954,-1.1384 -1.07992,-1.58532 -1.17578,-2.19096 -0.14201,-0.88967 0.13136,-1.7854 0.68918,-2.2555 0.51146,-0.43022 2.54788,-1.26559 3.78402,-1.54982 0.73116,-0.16875 0.81281,-0.15851 1.13422,0.16519 0.30073,0.29907 0.34271,0.49496 0.31556,1.44916 -0.0397,1.26997 -0.13387,1.14258 1.86246,2.48523 1.13652,0.76499 1.37627,1.00891 1.77119,1.79625 1.28647,2.57754 -0.0545,5.89563 -3.80114,9.40021 -1.1503,1.07554 -5.03498,4.05572 -7.84579,6.01634 -1.42264,0.99471 -3.53592,2.04248 -4.61584,2.29121 -1.17975,0.27337 -2.36619,0.20884 -2.96932,-0.15872 z" />
    <path
       d="m 230.58888,979.21686 c -0.90872,-0.39896 -1.04017,-0.75606 -0.72696,-1.98858 0.2693,-1.06498 0.49076,-1.13359 1.76887,-0.54873 1.35746,0.61983 1.51667,1.34258 0.52626,2.38688 -0.55767,0.58909 -0.56777,0.58909 -1.56817,0.15043"
       style="fill:#66c430;fill-opacity:1;fill-rule:nonzero;stroke:none;stroke-width:0.83064979"
       id="path3371"
       inkscape:connector-curvature="0" />
    <path
       inkscape:connector-curvature="0"
       id="path3375"
       style="fill:none;stroke:#66c430;stroke-width:1.05256629;stroke-linecap:butt;stroke-linejoin:bevel;stroke-miterlimit:10.00000095;stroke-dasharray:none;stroke-opacity:1"
       d="m 230.58898,979.21683 c -0.90868,-0.39909 -1.04025,-0.75601 -0.72698,-1.98859 0.2694,-1.06489 0.49078,-1.1336 1.76889,-0.54884 1.35748,0.61984 1.51662,1.34265 0.52629,2.38707 -0.55761,0.58893 -0.56785,0.58893 -1.5682,0.15036 z" />
    <path
       d="m 232.30564,984.43525 c -0.20244,-0.28766 -0.20244,-0.41317 -0.008,-0.96256 0.12136,-0.34871 0.22375,-0.90807 0.22375,-1.24672 0,-0.64351 0.32327,-1.59551 0.60158,-1.76654 0.0875,-0.0548 0.48419,0.11903 0.87904,0.38592 0.58251,0.39256 0.7205,0.57248 0.7205,0.94851 0,0.54516 -0.67495,2.272 -1.04665,2.68583 -0.35696,0.39248 -1.07918,0.36939 -1.36991,-0.044"
       style="fill:#66c430;fill-opacity:1;fill-rule:nonzero;stroke:none;stroke-width:0.83064979"
       id="path3377"
       inkscape:connector-curvature="0" />
    <g
       id="g3379"
       transform="matrix(2.0884251,0,0,-2.0884251,124.5121,1008.5879)">
      <path
         d="m 51.6149,11.5648 c -0.0969,0.1378 -0.0969,0.1978 -0.0039,0.4609 0.0581,0.167 0.1071,0.4348 0.1071,0.597 0,0.3081 0.1548,0.7639 0.288,0.8458 0.042,0.0261 0.2319,-0.0569 0.421,-0.1848 0.2789,-0.1879 0.3449,-0.2741 0.3449,-0.4541 0,-0.2611 -0.3231,-1.0879 -0.5011,-1.2861 -0.171,-0.1879 -0.5168,-0.1769 -0.656,0.0213 z"
         style="fill:none;stroke:#66c430;stroke-width:0.50400001;stroke-linecap:butt;stroke-linejoin:bevel;stroke-miterlimit:10.00000095;stroke-dasharray:none;stroke-opacity:1"
         id="path3381"
         inkscape:connector-curvature="0" />
    </g>
    <path
       d="m 219.82878,959.2216 c 0.11485,-0.45758 0,0.94364 0,1.41545 0,0.36764 -0.12787,0.95907 -0.3155,1.33668 -0.19652,0.39256 -0.3156,0.95442 -0.39255,1.33444 -0.0817,0.40544 -0.23624,0.75007 -0.23624,1.18043 v 1.17986 c 0,0.36947 -0.0857,0.81453 -0.15682,1.10044 -0.0917,0.36532 -0.0792,0.76844 -0.0792,1.17811 0,0.39423 0.7873,0 1.18039,0 0.58848,0 0.59257,-0.40552 0.70742,-0.86487 0.0883,-0.35527 0.013,-0.91704 0.0776,-1.17803 0.0858,-0.34222 0,-0.82475 0,-1.17993 v -1.17986 c 0,-0.35934 0.15864,-0.75589 0.15864,-1.17803 0,-0.26522 0.0776,-0.72225 0.0776,-1.10052 V 959.929 c 0,-0.48185 -0.0172,-0.8205 -0.15696,-1.1005 -0.1024,-0.20419 -0.40072,-0.23559 -0.62866,-0.23559 l -0.2356,0.62869 z"
       style="fill:#87d050;fill-opacity:1;fill-rule:evenodd;stroke:none;stroke-width:0.83064979"
       id="path3383"
       inkscape:connector-curvature="0" />
    <path
       d="m 226.75693,967.58062 c -0.006,0.17759 -0.0231,0.74168 0.0568,1.05725 0.0603,0.24803 0.0603,0.51143 0.16452,0.72225 0.11487,0.22793 0.10239,0.57248 0.1669,0.83347 0.0568,0.21913 0.24043,0.59092 0.33456,0.77915 0.15034,0.29837 0.12311,0.55288 0.33381,0.83289 0.14447,0.19246 0.22555,0.72881 0.33213,0.94429 0.13381,0.26697 0.21141,0.55935 0.28,0.8353 0.0711,0.28832 0.25284,0.50968 0.33213,0.83289 0.0793,0.31789 0.30071,0.49972 0.39076,0.72283 0.12076,0.30717 0.25218,0.40312 0.33142,0.72283 0.0568,0.2232 0.21968,0.42563 0.27831,0.6661 0.067,0.26747 0.39425,0.56409 0.55768,0.77898 0.15446,0.209 0.27522,0.38418 0.38827,0.61211 0.15216,0.30659 0.44282,0.72042 0.66609,0.9437 0.19002,0.18997 0.24446,0.46583 0.44508,0.66834 0.1415,0.14213 0.26704,0.4238 0.33395,0.55529 0.12962,0.26107 0.30311,0.46998 0.50143,0.66651 0.19005,0.19014 0.44691,0.41973 0.60974,0.50089 0.25695,0.12966 0.37352,0.21547 0.61152,0.33442 0.18407,0.0917 0.38478,0.27112 0.50143,0.38841 0.13141,0.13382 0.45935,0.18349 0.60973,0.22319 -2.29105,5.3155 1.77127,-3.66923 -0.0545,-1.66836 -0.27768,0.0689 -0.51561,-0.0899 -0.66774,-0.16687 -0.18179,-0.0924 -0.30732,-0.25094 -0.44521,-0.389 -0.16931,-0.1687 -0.16512,-0.38417 -0.22137,-0.61152 -0.0605,-0.24205 0,-0.58312 0,-0.83348 0,-0.31963 -0.0166,-0.53452 -0.11077,-0.72216 -0.13968,-0.2801 -0.0586,-0.44947 -0.2776,-0.66843 -0.19652,-0.19412 -0.10658,-0.3031 -0.44459,-0.38891 -0.23205,-0.0581 -0.33037,-0.15217 -0.61212,-0.22311 -0.1439,-0.0357 -0.43038,-0.26946 -0.55528,-0.33218 -0.17353,-0.0876 -0.42211,-0.22975 -0.61213,-0.27768 -0.21309,-0.0548 -0.29245,-0.33866 -0.33396,-0.50138 -0.0568,-0.22561 -0.15262,-0.44282 -0.22136,-0.72225 -0.084,-0.33035 -0.22372,-0.47655 -0.22372,-0.77907 0,-0.22793 -0.14629,-0.56833 -0.22146,-0.72283 -0.0982,-0.19421 -0.13381,-0.4115 -0.27761,-0.55521 -0.16521,-0.1653 -0.24626,-0.437 -0.33392,-0.61219 -0.1089,-0.21729 -0.22136,-0.37769 -0.22136,-0.60978 0,-0.12725 -0.18826,-0.46774 -0.22385,-0.61219 -0.0686,-0.27934 -0.12962,-0.53859 -0.22137,-0.72216 -0.10419,-0.20667 -0.18354,-0.35112 -0.33391,-0.50147 -0.14029,-0.13788 -0.19414,-0.36108 -0.33442,-0.49905 -0.12315,-0.12543 -0.17352,-0.41964 -0.22147,-0.61211 -0.0395,-0.15441 -0.40075,-0.4257 -0.50076,-0.50088 -0.12312,-0.0923 -0.2362,-0.5263 -0.27827,-0.60969 -0.0414,-0.0859 -0.0752,-0.11306 -0.1107,-0.16746 l -0.16691,0.38833 z"
       style="fill:#87d050;fill-opacity:1;fill-rule:evenodd;stroke:none;stroke-width:0.83064979"
       id="path3385"
       inkscape:connector-curvature="0" />
    <path
       d="m 222.1867,981.62682 c 0,-0.22967 0.81045,0.3257 0.94425,0.39257 0.1794,0.0893 0.51561,0.48235 0.6287,0.70796 0.12962,0.25875 0.3818,0.45943 0.54931,0.62872 0.25284,0.25218 0.24805,0.75365 0.31495,1.02294 0.0734,0.29488 0.34691,0.61634 0.47244,0.86496 0.17289,0.34455 0.23562,0.58428 0.23562,1.0212 0,0.37994 0.0776,0.83115 0.0776,1.25677 0,0.47414 0.0479,0.92767 -0.15695,1.33668 -0.19005,0.38244 -0.29833,0.59982 -0.47184,0.94429 -0.18996,0.3801 -0.45936,0.7725 -0.70795,1.0212 -0.35936,0.36108 -0.75191,0.51799 -1.02122,0.78729 -0.33452,0.33392 -1.08397,0.5263 -1.49296,0.62872 -0.4807,0.11903 -1.03598,0.50079 -1.4161,0.78504 -0.44522,0.33451 -0.76425,0.58893 -1.25745,0.78729 -0.42387,0.16929 -0.77904,0.62457 -1.1005,0.78555 -0.29893,0.14802 -0.43861,0.36117 -0.70803,0.62814 -0.24031,0.24039 -0.50554,0.26996 -0.70793,0.47239 -0.30494,0.30493 -0.58083,0.42388 -0.78505,0.62872 -0.17996,0.17933 -0.58909,0.34455 -0.86487,0.55113 -0.25696,0.19188 -0.85603,0.33218 -1.10051,0.39248 -0.35934,0.0901 -0.58261,0.25277 -0.86499,0.39257 -0.33383,0.16754 -0.54691,0.23208 -0.78731,0.47231 -0.31728,0.31905 -0.82462,-0.15442 -0.8643,-0.31366 -0.12733,-0.51151 0.0941,-0.72466 0.3155,-0.9437 0.238,-0.23798 0.75191,-0.33857 1.02122,-0.47181 0.2445,-0.1231 0.74944,-0.29662 0.94365,-0.39306 0.25098,-0.12493 0.64343,-0.38418 0.86489,-0.55114 0.28598,-0.21489 0.55529,-0.39663 0.8643,-0.62872 0.30491,-0.22975 0.51801,-0.28175 0.8649,-0.62863 0.28176,-0.27952 0.63046,-0.33633 1.02301,-0.62822 0.32615,-0.24679 0.50137,-0.36989 0.8649,-0.55164 0.49257,-0.24637 0.75599,-0.52812 1.17807,-1.02128 0.15037,-0.17518 0.72219,-0.41549 0.94365,-0.47173 0.40963,-0.1025 0.49489,-0.35934 0.94418,-0.47181 0.30072,-0.0756 0.58251,-0.44946 0.78503,-0.54947 0.29652,-0.14852 0.43213,-0.33442 0.70801,-0.47239 0.0586,-0.0291 0.37173,-0.69916 0.39249,-0.78729 0.061,-0.24388 0.37001,-0.58021 0.47241,-0.78505 0.16282,-0.32553 0.1083,-0.68911 0.2356,-0.9442 0.14858,-0.29596 0.15685,-0.59084 0.15685,-1.0212 v -1.17985 c 0,-0.29655 -0.3717,-0.53876 -0.54931,-0.62864 -0.17766,-0.0876 -0.54528,-0.67258 -0.62876,-0.78505 -0.29244,-0.39065 -0.63045,-0.0859 -0.78729,-0.70804 -0.0941,-0.38002 -0.0794,-0.68313 -0.0794,-1.10053 0,-0.0772 0.14868,-0.22137 0.15863,-0.23615 l 0.39257,-0.23566 z"
       style="fill:#87d050;fill-opacity:1;fill-rule:nonzero;stroke:none;stroke-width:0.83064979"
       id="path3387"
       inkscape:connector-curvature="0" />
    <path
       d="m 211.58112,971.86129 c 0.0189,-0.0191 -0.0379,0.0382 -0.0562,0.0565 -0.10479,0.10483 -0.28827,0.60804 -0.49904,0.88805 -0.19005,0.25218 -0.20483,0.42803 -0.44522,0.66767 -0.15446,0.15517 -0.30072,0.48901 -0.38837,0.6666 -0.17756,0.35286 -0.51968,0.73114 -0.72279,1.00052 -0.29424,0.39248 -0.31489,0.63046 -0.50086,1.00226 -0.12133,0.24213 -0.15681,0.62631 -0.22375,0.8873 -0.0627,0.25518 -0.0538,0.54948 -0.0538,0.83547 v 0.94411 c 0,0.38426 -0.0131,0.48851 0.16691,0.66835 0.21727,0.21729 0.50733,-0.29231 0.55528,-0.39066 0.16522,-0.32977 0.31321,-0.69559 0.38837,-1.00052 0.0693,-0.27345 0,-0.65771 0,-0.94361 0,-0.39722 -0.0314,-0.7353 0.1675,-1.00044 0.19594,-0.2634 0.20012,-0.50969 0.44462,-0.8353 0.25278,-0.33625 0.40731,-0.73945 0.66599,-1.00044 0.36174,-0.35933 0.66246,-0.88331 1.00286,-1.22196 0.18586,-0.18582 0.35457,-0.46766 0.49907,-0.61153 0.22554,-0.22552 0.25276,-0.28416 0.38827,-0.55587 0.14626,-0.29247 0.28006,-0.34871 0.28006,-0.66834 0,-0.386 -0.20898,-0.2776 -0.55767,-0.2776 -0.34279,0 -0.60973,0 -0.83356,0.16687 l -0.2776,0.72284 z"
       style="fill:#87d050;fill-opacity:1;fill-rule:nonzero;stroke:none;stroke-width:0.83064979"
       id="path3389"
       inkscape:connector-curvature="0" />
    <path
       d="m 197.96168,990.42805 c -0.007,-0.17526 0.22144,-0.55288 0.33392,-0.83297 0.1024,-0.26099 0.28,-0.39664 0.38887,-0.61211 0.1125,-0.22552 0.30251,-0.41325 0.44462,-0.55529 0.17518,-0.17576 0.34687,-0.6121 0.55529,-0.88971 0.19423,-0.25941 0.36762,-0.47006 0.44522,-0.77915 0.1,-0.39896 0.47828,-0.73529 0.66833,-1.11116 0.18347,-0.36939 0.56776,-0.95848 0.83288,-1.22371 0.44941,-0.44863 0.75839,-1.12121 1.16741,-1.61196 0.4512,-0.54108 0.77316,-1.18459 1.11127,-1.77776 0.49067,-0.85781 1.14669,-1.63098 1.61192,-2.44734 0.46833,-0.81869 1.18465,-1.73149 1.77953,-2.44543 0.29246,-0.35112 0.6873,-0.70805 0.88981,-1.11116 0.13972,-0.2801 0.35517,-0.46774 0.55528,-0.66834 0.2114,-0.21082 0.52039,-0.4743 0.77907,-0.6661 0.24447,-0.18407 0.41149,-0.40129 0.6097,-0.6666 0.18178,-0.24205 0.35767,-0.38176 0.50147,-0.66776 0.15695,-0.31548 0.36353,-0.3404 0.44461,-0.66659 0.0587,-0.23798 0.25095,-0.5008 0.33452,-0.66834 0.0811,-0.16281 0.35278,-0.42563 0.49904,-0.49906 0.28826,-0.14387 0.55528,-0.22137 0.77903,-0.39074 0.19174,-0.14378 0.45517,-0.25451 0.72223,-0.38824 0.3055,-0.15218 0.54519,-0.21082 0.77734,-0.44465 0.24447,-0.24446 0.6511,-0.39074 0.94595,-0.6121 0.39663,-0.29663 0.80636,-0.40312 1.22365,-0.6097 0.35516,-0.17942 0.68491,-0.40918 0.94425,-0.66851 0.20659,-0.20658 0.66187,-0.44041 0.8897,-0.55529 0.26522,-0.13365 0.4488,-0.34447 0.55539,-0.55587 0.12723,-0.25459 0.16092,-0.48834 0.27761,-0.72217 0.12135,-0.2403 0.30489,-0.4179 0.44522,-0.55587 0.21903,-0.22078 -0.10071,-0.4949 -0.22147,-0.55711 -0.20304,-0.10059 -0.52627,-0.049 -0.72282,0 -0.2048,0.0523 -0.42806,0.35286 -0.61209,0.44456 -0.2836,0.14212 -0.32327,0.37836 -0.50087,0.5577 -0.17338,0.17344 -0.2362,0.31141 -0.49904,0.44282 -0.20303,0.10242 -0.37832,0.30069 -0.55588,0.39007 -0.2107,0.10475 -0.4908,0.27594 -0.72222,0.3345 -0.21725,0.0523 -0.38479,0.24629 -0.55767,0.33218 -0.25278,0.12726 -0.51621,0.35095 -0.66658,0.5013 -0.10001,0.10009 -0.41138,0.26057 -0.55529,0.33159 -0.20898,0.10475 -0.39903,0.34281 -0.55528,0.50138 -0.22794,0.22802 -0.44701,0.39082 -0.66834,0.44523 -0.24271,0.0606 -0.40733,0.29596 -0.55591,0.44465 -0.12073,0.12136 -0.4404,0.20484 -0.61153,0.33384 -0.20071,0.15034 -0.29664,0.24271 -0.44518,0.38899 -0.19186,0.19412 -0.36945,0.29588 -0.49907,0.55529 -0.12551,0.25027 -0.35697,0.41134 -0.50143,0.55521 -0.2042,0.20483 -0.47354,0.3487 -0.66598,0.44522 -0.26284,0.1315 -0.41138,0.30078 -0.61213,0.50072 -0.19002,0.19014 -0.26702,0.32387 -0.44459,0.49972 -0.22375,0.22319 -0.34271,0.4115 -0.61212,0.61152 -0.15864,0.11904 -0.2776,0.38833 -0.44462,0.61211 -0.20658,0.27769 -0.43861,0.38426 -0.66594,0.61152 -0.18826,0.18831 -0.40963,0.40968 -0.55592,0.55587 -0.26931,0.26698 -0.44279,0.47838 -0.66833,0.77915 -0.14799,0.19595 -0.21908,0.38418 -0.38838,0.55529 -0.12962,0.12718 -0.24211,0.42795 -0.33381,0.61211 -0.11489,0.22967 -0.26945,0.3149 -0.38897,0.55529 -0.13973,0.2776 -0.29007,0.35693 -0.44463,0.66593 -0.11896,0.24047 -0.30072,0.37836 -0.38837,0.55587 -0.15266,0.30252 -0.40723,0.53461 -0.55757,0.8353 -0.14629,0.29247 -0.3825,0.54707 -0.55531,0.72292 -0.21317,0.21073 -0.28236,0.44871 -0.44519,0.60969 -0.1439,0.1462 -0.11069,0.44465 -0.27771,0.61161 -0.12723,0.12958 -0.33202,0.54939 -0.38827,0.77899 -0.0522,0.2114 -0.34458,0.51217 -0.44521,0.6121 -0.14148,0.14213 -0.30899,0.50736 -0.38835,0.6661 -0.12314,0.2462 -0.30901,0.45104 -0.44461,0.72283 -0.15267,0.30244 -0.27173,0.48419 -0.39067,0.72217 -0.13799,0.27827 -0.29005,0.49963 -0.49907,0.77906 -0.23381,0.31141 -0.30729,0.55762 -0.44459,0.83356 -0.1445,0.28599 -0.15037,0.49083 -0.22375,0.77907 -0.0462,0.18174 -0.18358,0.42147 -0.2777,0.61152 -0.11067,0.21963 -0.25685,0.45769 -0.33203,0.6097 -0.11076,0.22145 -0.17349,0.47015 -0.22326,0.66851 -0.0527,0.20475 -0.0568,0.49722 -0.0568,0.77715 0,0.34871 0.0545,0.54707 0.1131,0.77907 0.0439,0.17286 0.29005,0.3463 0.38837,0.44465 0.0876,0.0875 0.029,0.1172 0.0562,0.22145 l -0.0562,-0.94429 z"
       style="fill:#87d050;fill-opacity:1;fill-rule:nonzero;stroke:none;stroke-width:0.83064979"
       id="path3391"
       inkscape:connector-curvature="0" />
    <path
       d="m 216.52846,960.07652 c -0.48848,-0.30086 -0.38837,0.12078 -0.38837,0.61153 0,0.25277 -0.0562,0.47231 -0.0562,0.77724 0,0.20658 -0.16692,0.55529 -0.22147,0.77898 -0.0692,0.27353 -0.21488,0.58029 -0.28,0.83306 -0.0709,0.28824 -0.20479,0.49316 -0.27757,0.77898 -0.0604,0.24446 -0.0546,0.47829 -0.0546,0.77907 v 0.83298 c 0,0.22369 0.19244,0.5263 0.27771,0.6121 0.10887,0.1089 0.58071,0.054 0.77904,0.054 0.28239,0 0.16522,-0.46582 0.16522,-0.72274 0,-0.35046 -0.0249,-0.49491 -0.16522,-0.77675 -0.0877,-0.17526 0,-0.63278 0,-0.8353 v -0.83347 c 0,-0.24222 0.16522,-0.45287 0.16522,-0.77915 0,-0.16447 0.15863,-0.53635 0.22315,-0.66593 0.10887,-0.21489 0.0982,-0.61626 0.1675,-0.88971 0.0853,-0.34223 -0.0503,-0.44282 -0.33441,-0.55529"
       style="fill:#87d050;fill-opacity:1;fill-rule:nonzero;stroke:none;stroke-width:0.83064979"
       id="path3393"
       inkscape:connector-curvature="0" />
    <path
       d="m 211.52846,978.29151 c -0.0255,0 -0.1025,-0.0141 -0.17169,-0.0224 -0.17529,-0.0233 -0.29006,-0.0565 -0.43393,-0.12376 -0.3138,-0.14794 -0.39077,-0.39423 -0.26347,-0.83298 0.11309,-0.38235 0.28827,-0.80805 0.55114,-1.34266 0.59316,-1.19879 1.33502,-2.20753 1.82747,-2.48331 0.0941,-0.0523 0.16522,-0.0673 0.67496,-0.14387 0.39892,-0.059 0.7536,-0.0689 0.9211,-0.0233 0.44631,0.11903 0.7305,0.48012 0.93528,1.18634 0.10251,0.35045 0.10658,0.66609 0.0106,1.04196 -0.20061,0.79153 -0.83764,1.59776 -1.69607,2.14482 -0.18994,0.12128 -0.59724,0.32379 -0.80387,0.39905 -0.16929,0.0631 -0.43213,0.13365 -0.63935,0.17103 -0.13141,0.0249 -0.79148,0.0465 -0.91224,0.0291"
       style="fill:#ffffff;fill-opacity:1;fill-rule:nonzero;stroke:none;stroke-width:0.83064979"
       id="path3397"
       inkscape:connector-curvature="0" />
    <path
       d="m 210.74643,996.686 c -0.6873,-0.12318 -1.24736,-0.56177 -1.93227,-1.52075 -0.18178,-0.25459 -0.76429,-1.10468 -0.77434,-1.13375 -0.007,-0.0166 0.66186,-1.15494 0.80565,-1.37407 0.25935,-0.3865 0.71463,-0.87733 1.05084,-1.12769 0.37771,-0.28242 0.7536,-0.46998 1.17986,-0.59134 0.0728,-0.0208 0.26515,-0.059 0.42618,-0.0852 0.43633,-0.0714 0.83536,-0.18424 1.38884,-0.39082 0.66191,-0.24629 1.23431,-0.50313 1.90448,-0.85424 1.01464,-0.52863 1.4829,-0.87733 1.87127,-1.39059 0.18587,-0.24679 0.32974,-0.48244 0.58898,-0.96912 0.315,-0.58901 0.45289,-0.81279 0.72051,-1.16565 0.22555,-0.29654 0.58901,-0.67657 0.86021,-0.90391 0.92759,-0.77085 1.93818,-1.04671 2.77343,-0.75839 0.26765,0.0918 0.49319,0.23209 0.78973,0.4802 0.1356,0.11712 0.17109,0.17336 0.13142,0.21547 -0.0337,0.0332 -0.19654,0.0498 -0.56419,0.0606 -0.40491,0.0108 -0.5867,0.0291 -0.77432,0.0739 -0.43864,0.10175 -0.72691,0.31299 -0.88973,0.65347 -0.12554,0.25692 -0.15457,0.42147 -0.18587,1.01464 -0.0189,0.36349 -0.0503,0.48485 -0.14866,0.60388 -0.0769,0.0918 -0.25456,0.1545 -0.44042,0.15633 -0.15686,0 -0.28176,0.0299 -0.41142,0.0923 -0.26762,0.13324 -0.43045,0.34223 -0.63524,0.82052 -0.17939,0.41964 -0.38837,0.69741 -0.67185,0.89984 -0.14207,0.10242 -0.22386,0.1403 -0.48898,0.22793 -0.53463,0.17934 -1.02772,0.43028 -1.77724,0.90641 -0.45518,0.28823 -0.77665,0.44456 -1.21117,0.59308 -0.38011,0.13141 -0.57843,0.17112 -0.93778,0.19188 -0.50555,0.0316 -0.75589,0.11064 -1.1342,0.36341 -0.29833,0.19836 -0.78502,0.66012 -1.29883,1.23252 -0.67017,0.74775 -1.09882,1.31542 -1.09882,1.45746 0,0.0291 0.007,0.0316 0.0479,0.0233 0.0273,0 0.0965,-0.0399 0.15277,-0.0773 0.10419,-0.0706 0.15456,-0.11064 0.63696,-0.52804 0.52805,-0.45353 0.94605,-0.73114 1.39714,-0.92111 0.45528,-0.19188 0.78501,-0.26705 1.32197,-0.29421 0.16512,-0.008 0.35517,-0.0299 0.43452,-0.0465 0.37772,-0.0772 0.72279,-0.232 1.01704,-0.45528 0.24032,-0.18174 0.3114,-0.2256 0.57653,-0.36939 0.41978,-0.22967 0.96261,-0.46001 1.6499,-0.70215 0.93779,-0.32976 1.30063,-0.51799 1.62449,-0.84352 0.18168,-0.18183 0.27173,-0.31141 0.43455,-0.62872 0.15035,-0.29239 0.22316,-0.4091 0.34448,-0.55944 0.15684,-0.19413 0.39249,-0.35934 0.618,-0.43692 0.0546,-0.0183 0.20254,-0.0498 0.33037,-0.0731 0.33392,-0.0548 0.44878,-0.0959 0.56594,-0.20243 0.1687,-0.15276 0.22973,-0.3718 0.30251,-1.0781 0.0438,-0.44465 0.0734,-0.63221 0.11489,-0.74941 0.11305,-0.32387 0.28,-0.39257 0.95251,-0.39257 0.55941,0 0.71812,0.0399 0.7974,0.19429 0.0379,0.0731 0.0403,0.0899 0.0379,0.30892 -0.002,0.33226 -0.0687,0.82051 -0.15457,1.13849 -0.15441,0.56351 -0.47409,1.11473 -0.95838,1.64742 -0.24272,0.26764 -1.02115,0.89985 -1.80437,1.46818 -0.47002,0.3404 -0.98573,0.69151 -2.37271,1.61204 -1.39067,0.92534 -1.80855,1.21175 -2.3058,1.57466 -0.51739,0.38003 -1.02951,0.7897 -1.45098,1.15918 -0.15278,0.13373 -0.32207,0.26348 -0.48072,0.36581 -0.91463,0.59907 -1.60612,0.93365 -2.18215,1.05676 -0.22784,0.0482 -0.58718,0.0631 -0.7642,0.0316"
       style="fill:#ffffff;fill-opacity:1;fill-rule:nonzero;stroke:none;stroke-width:0.83064979"
       id="path3399"
       inkscape:connector-curvature="0" />
    <rect
       style="opacity:1;fill:#66c430;fill-opacity:1;stroke:#66c430;stroke-width:0.82679528;stroke-linejoin:miter;stroke-miterlimit:4;stroke-dasharray:none;stroke-opacity:1"
       id="rect885"
       width="0.21215613"
       height="1.1111556"
       x="226.15836"
       y="967.45325" />
    <path
       d="m 232.03217,985.75964 c -0.17757,0 -1.17807,1.30122 -2.22413,2.88834 -2.8196,4.20018 -10.53867,9.62767 -15.17281,10.76432 -2.9339,0.1356 -3.08015,0.3273 -3.84027,-0.62295 -1.03838,-1.0608 -2.55448,-4.16809 -4.11027,-3.08417 -0.47589,0.34037 -1.44318,0.70967 -2.14655,0.82277 -3.74912,0.1504 -7.61239,-3.64009 -7.21576,-7.51415 2.87178,-8.4105 8.63365,-15.33978 15.56532,-20.68601 2.26791,-1.60373 1.96895,-1.72268 2.04416,-5.13557 l 0.43452,-3.68164 0.0438,-1.15084 c 0.72039,-0.0729 1.55399,1.09222 1.96715,1.72269 0.29246,0.44706 0.80458,1.08632 1.136,1.41609 0.59331,0.59558 0.9336,0.52207 0.9336,-1.63281 0,-2.14713 -0.0414,-1.7339 0.76669,-1.7339 3.25184,1.08812 3.79048,5.13375 5.9146,7.51008 0.63696,0.24446 2.27621,2.90079 2.6521,4.30019 0.17109,0.63711 0.65771,1.57059 1.08158,2.0738 0.42447,0.50329 0.77083,1.18816 0.77083,1.52432 0,0.33451 0.15446,1.05086 0.34272,1.59194 0.31739,0.9104 0.43632,0.97502 1.63514,0.90217 l 1.29056,-0.0797 v 2.02105 c 4.64652,3.12051 -0.3736,9.41276 -1.86899,7.78361 z m -8.61057,7.50177 c 3.89479,-2.7605 10.03904,-8.14469 6.93107,-13.07368 -0.32555,-0.32553 -1.24669,-0.97494 -2.04648,-1.44259 -1.23611,-0.72474 -1.42613,-0.96497 -1.26981,-1.58953 0.28648,-1.13841 -0.11903,-2.29102 -0.80397,-2.29102 -0.91702,0 -4.02439,1.16565 -4.67202,1.75226 -0.9205,0.83297 -0.78909,3.0636 0.23863,4.0137 0.79148,0.73529 0.82878,1.0609 0.27518,2.40589 -0.15625,0.37836 -0.0793,0.54524 0.25108,0.54524 0.83947,0 1.77068,1.94829 1.77068,3.70885 0,1.35745 -0.52402,1.68356 -1.24681,2.35614 -2.6438,1.99032 -8.98648,7.05658 -11.48402,8.25298 -0.81703,0 -0.59147,0.5411 0.38828,0.93772 4.22092,0.86483 8.36608,-3.37441 11.66819,-5.57596 z m -9.56301,2.12414 c 2.45374,-2.22656 5.48186,-3.63609 8.0156,-5.85376 0.70326,-0.71029 1.09811,-1.44741 1.20698,-2.25787 0.15875,-1.16914 0.1356,-1.20287 -0.79377,-1.20287 -0.87914,0 -0.96501,0.0918 -1.05256,1.1674 -0.0836,0.99387 -0.21725,1.18218 -0.90398,1.26159 -0.54761,0.0623 -0.94605,0.39888 -1.24497,1.04421 -0.33803,0.73529 -0.81044,1.07569 -2.07378,1.49293 -0.8981,0.29911 -1.8902,0.77258 -2.2034,1.05683 -0.31321,0.28168 -0.9525,0.51384 -1.42017,0.51384 -0.98155,0 -1.91275,0.43036 -2.91326,1.33843 -1.15909,1.05667 -0.78729,0.30086 0.58492,-1.18808 0.99811,-1.08391 1.50364,-1.39533 2.26143,-1.39533 0.53924,0 1.48289,-0.34214 2.101,-0.76187 0.61621,-0.41981 1.46215,-0.84776 1.87775,-0.95259 0.45708,-0.11479 0.89571,-0.55346 1.1023,-1.10468 0.23212,-0.60969 0.56185,-0.91695 0.99631,-0.91695 0.50322,0 0.64941,-0.19413 0.64941,-0.87077 0,-1.12371 0.51212,-1.61611 1.69607,-1.62857 0.90228,-0.009 0.91881,-0.0316 0.347,-0.466 -1.4161,-1.07154 -3.63195,0.0249 -4.84554,2.39942 -0.72459,1.41841 -1.11116,1.77958 -2.83205,2.65035 -1.09644,0.55346 -2.44732,1.04188 -3.00499,1.08574 -1.13191,0.15268 -2.05302,0.89794 -2.6859,1.86946 l -0.77665,1.30122 0.65169,0.95433 c 1.48482,2.17619 2.59597,2.27439 5.26056,0.46359 z m -7.60603,-0.6519 c 1.05436,-1.39067 1.49127,-2.99241 2.98015,-4.11612 0.38419,-0.19005 1.72916,-0.69558 2.98841,-1.12362 3.15765,-0.51558 3.95153,-3.67737 6.11525,-5.41085 1.86899,-0.98565 2.957,-1.8109 2.957,-2.23893 0,-0.26756 -0.37409,-0.9756 -0.83109,-1.57467 -1.56406,-2.05071 -1.06921,-3.50634 1.87953,-5.52631 1.66888,-1.14189 1.86481,-1.20054 3.50645,-1.02942 0.95421,0.0983 1.81263,0.25517 1.90437,0.34688 0.0924,0.0918 0.23621,0.875 0.31975,1.7417 0.16272,1.69785 0.46766,1.83997 0.54103,0.25277 0.0272,-0.56185 0.315,-1.19223 0.68083,-1.48894 0.62039,-0.50371 0.62218,-0.52863 0.0521,-1.23252 -0.31968,-0.39481 -0.58071,-1.03599 -0.58071,-1.42606 0,-0.87733 -2.14899,-4.79335 -2.72318,-4.79335 -0.28599,0 -0.16104,1.52665 -0.20072,2.52069 -0.0313,0.80623 -0.14799,1.55639 -0.25868,1.66703 -0.53453,0.53461 -0.86487,-0.41142 -0.86487,-2.47932 0,-2.7296 -0.33392,-3.81534 -1.91274,-6.21293 -0.69977,-0.89394 -1.00638,-2.00502 -1.7896,-2.81324 -0.57015,-0.51559 -0.59559,-0.48657 -0.75015,0.80639 -0.69965,5.86015 -1.07149,7.41355 -1.76645,7.41355 -0.57245,0 -0.64114,-0.63046 -0.16691,-1.5475 0.26691,-0.51982 0.46942,-1.77717 0.3818,-1.77717 -10.01833,6.98194 -16.04961,12.70603 -21.06614,24.71465 1.24261,4.45885 5.38658,7.48039 8.60461,5.32729 z m -5.50491,-6.43612 c 0,-0.81454 0.66359,-2.65277 1.04844,-2.90487 0.177,-0.11969 0.65532,0.11895 1.06263,0.52622 0.9631,0.96264 0.83766,2.13593 -0.24219,2.28038 -0.42795,0.0565 -0.91284,0.2315 -1.07557,0.38825 -0.47005,0.45353 -0.79331,0.33458 -0.79331,-0.28998 z m 8.62893,-8.95333 c -0.43213,-0.43218 -0.21665,-1.4788 0.71033,-3.43955 0.51392,-1.08633 0.93361,-2.09033 0.93361,-2.23063 0,-0.13963 0.50324,-0.8412 1.11533,-1.55813 1.13365,-1.32364 1.29647,-1.38229 1.29647,-0.29007 0,0.37596 0.60383,0.54699 0.959,0.54699 1.01468,0 1.92101,1.31193 1.92101,2.77586 -2.1595,5.67434 -4.30617,2.44145 -6.31536,3.88238 -0.21725,0.29421 -0.49496,0.43625 -0.62039,0.31315 z m 6.136,-4.83895 c -0.45349,-1.60614 -1.21538,-1.31126 -2.38688,-1.14023 -0.64115,0.0942 -2.04655,2.24724 -2.55629,3.91186 -0.19652,0.64716 0.10659,0.97917 1.29057,0.97917 2.05063,-0.0149 4.10607,-2.14482 3.6526,-3.7508 z m 17.19623,6.12771 c -0.22794,0.33624 -0.38659,1.03357 -0.35278,1.5475 0.0331,0.51375 -0.0752,1.107 -0.24278,1.31774 -0.47175,0.59732 -0.0248,1.32846 0.81045,1.32846 2.84873,-0.32794 1.53921,-6.13186 -0.21489,-4.1937 z m -0.31725,-1.81506 c 0.61567,-0.36349 0.52625,-1.76056 -0.12375,-1.96307 -0.30075,-0.0917 -0.78913,-0.29837 -1.08577,-0.45761 -0.7873,-0.41972 -1.13838,-0.68263 -1.51428,0.71037 -0.38179,1.42199 -0.006,2.03825 0.92112,2.10927 1.48479,0.66012 0.56833,0.64534 1.80268,-0.39896 z m -14.36888,-15.47301 c -0.27121,-0.22552 -0.79979,-1.05492 -1.1716,-1.83989 l -0.67843,-1.42664 -0.2066,1.86705 c -0.30074,2.70667 -0.3114,4.20201 -0.0272,4.20201 0.7891,-0.61211 2.72907,-1.75234 2.08384,-2.80253"
       style="fill:#000000;fill-opacity:1;fill-rule:nonzero;stroke:none;stroke-width:0.83064979"
       id="path3395"
       inkscape:connector-curvature="0" />
  </g>
</svg>
