<svg viewBox="0 0 290 58.3" xmlns="http://www.w3.org/2000/svg"><path d="m191.9 58.3c-.2-.1-1.2-.2-2.2-.2-1-.1-1.8-.2-1.9-.2s-.6-.1-1.2-.2c-1.4-.2-3.4-.7-4.4-1-5.1-1.8-8.1-3.8-10.9-7.1-1.7-2.1-3.6-5.5-4.1-7.6-.1-.2-.2-.5-.2-.7-.3-.7-.7-2.4-1.2-4.6-.1-.4-.2-1.3-.2-1.9-.1-.6-.2-1.5-.2-1.8-.2-1-.2-7.3.1-8.6.1-.6.2-1.3.2-1.6s.1-.7.1-1c.1-.2.2-.8.3-1.3s.3-1.2.4-1.6.3-1 .4-1.4.2-.7.3-.8.1-.2.1-.4c0-.1.1-.4.2-.5s.2-.3.2-.4c0-.3 1.3-2.8 2.1-3.9 2.6-3.9 6.5-7 11.1-8.8.4-.1.8-.3.9-.4s.6-.2 1.1-.4c.5-.1 1.1-.3 1.4-.4s.7-.2.8-.2c.2 0 .4-.1.6-.1.1-.1.6-.2 1-.2s1-.1 1.3-.2c2.4-.6 10.9-.9 14.9-.6 1.7.1 3.7.4 4.6.6.3.1.8.2 1.1.2.3.1.7.1.9.2s.9.3 1.6.5c4.8 1.5 8.7 4.3 11.3 8.3.9 1.4 2.2 4.1 2.7 5.7.1.3.2.6.2.7.1.2.5 1.7.6 2.3.1.3.2.8.2 1.2.7 3.7 1.1 9.1.8 12.3-.1.9-.2 1.9-.2 2.4-.2 2.3-1.2 6.9-1.9 8.4-.1.2-.2.4-.2.5s-.1.3-.2.5-.5.9-.8 1.7c-.4.7-1 1.8-1.4 2.4-.7 1-1 1.4-2.3 2.9-.6.7-3.2 2.7-4.1 3.2-.8.4-3.2 1.6-3.9 1.9-.3.1-.7.3-1 .4-.2.1-.5.2-.6.2s-.4.1-.6.2c-1.4.6-5.1 1.2-9 1.6-1.8-.2-8.2-.1-8.8-.2zm7.6-9.6c.8-.1 1.6-.2 1.9-.2.2-.1.9-.2 1.5-.4 2.7-.7 5.3-2.4 6.9-4.4.8-1.1 1.8-2.9 2.2-4.1.2-.5.4-1.1.5-1.4s.2-.7.2-.9.1-.7.2-1c.4-1.3.4-8.2-.1-10.8-.2-1-.5-2.5-.6-3.1-.1-.3-.2-.7-.2-1-.1-.3-.2-.6-.2-.7-.1-.1-.2-.6-.4-1-1.4-3.8-4-6.8-7.2-8.3-1.2-.6-2-.9-2.6-1-.2-.1-.7-.2-1-.2-3.3-.8-7.6-.6-10.4.4-2.4.9-3.9 1.8-5.6 3.5-2.1 2-3.3 4.1-4.3 7.2-.7 2.4-.9 4.1-1 8.4-.1 3.7.1 5.5.5 7.5.1.4.2.9.2 1.1s.3.8.5 1.4c1 2.6 2.3 4.5 4.2 5.9 1.2.9 3.2 2 4.1 2.2.2 0 .4.1.5.2 0 .1.2.1.3.1s.5.1.8.2c1.8.4 5.8.7 9.1.4zm-199.4 8c-.1 0-.1-12.5-.1-27.7v-27.5h12.7v11.5c0 11.2 0 11.5.2 11.6.3.2 26.9.2 27.2 0 .2-.1.2-.4.2-11.6v-11.5h12.7v55.2h-12.6v-11c0-7.9-.1-11.1-.2-11.2-.2-.2-27.2-.2-27.4 0-.1.1-.1 3.3-.2 11.2v11h-6.2c-3.4.1-6.3.1-6.3 0zm54.7 0v-.2c.1 0 .2-.4.4-.8.3-.8.9-2.3 1.7-4.1.7-1.7 1.4-3.2 1.8-4.4.2-.5.4-1.1.5-1.3 6-14.8 12.6-29.4 18.4-44.3.1-.2.5-.2 6.9-.2h6.8l.3.6c.1.3.3.6.3.7 7.4 15.8 13.5 32.3 21 48.1.1.1.4.9.8 1.8s.8 1.7.8 1.9c.1.1.2.5.4.9.1.3.3.8.4.9.1.2.1.4.1.4s-3.2.1-6.9.1h-7.1c-4.8-12.5-10-25.7-14.9-38.2-.1-.3-.3-.7-.4-.9s-.1-.4-.1-.5-.1-.3-.2-.5-.3-.6-.5-.9c-.2-.4-.4-.6-.5-.6-.3 0-.3.1-1 1.9-4.2 11.3-8.6 22.5-13 33.7-.7 1.5-1.3 3.1-1.9 4.6-.3.7-.5 1.3-.6 1.3-.2.1-13.4.1-13.5 0zm81.7 0c-.3-.1-1.2-.2-1.8-.2-.6-.1-1.3-.2-1.5-.3s-.5-.1-.7-.1c-.6 0-3-.7-4.5-1.3-2-.8-3.5-1.8-5.2-3.5-1.9-1.9-3.2-3.9-4.5-7-.7-1.7-.7-1.8-1-4.6-.1-.7-.1-8.6-.1-19.6v-18.5h12.7v17.4c0 19.4 0 19.4.8 21.2 1 2.4 2.7 4.1 5.1 5.3.4.2.8.4.9.4.3.1 1.8.6 2.8.8 2.2.5 2.4.5 13.4.6l10.8.1.1 9.6h-13.3c-7.5-.2-13.7-.3-14-.3zm96.3 0s-.1-12.5-.1-27.7v-27.5h17.6l.3.5c8.4 13.2 9.1 14.4 25.6 39.4.8 1.2 1.2 1.7 1.2 1.7 0-.1.1-9.6.1-20.9v-20.6h12.5v55.1h-8.4c-4.6 0-8.4 0-8.5-.1-8.4-12.3-16.6-24.7-24.9-37-1.1-1.6-2-2.9-2.1-3s-.3-.1-.4-.1c-.2 0-.2.9-.3 20.1l-.1 20.1h-6.2c-3.5.1-6.3.1-6.3 0"/></svg>