<svg xmlns="http://www.w3.org/2000/svg" xmlns:xlink="http://www.w3.org/1999/xlink" viewBox="0 0 65 65" fill="#fff" fill-rule="evenodd" stroke="#000" stroke-linecap="round" stroke-linejoin="round"><use xlink:href="#A" x=".5" y=".5"/><symbol id="A" overflow="visible"><g stroke="#284a6a" fill="none"><path d="M31.766 23.7l-6.65-7.518" stroke-width=".26"/><path d="M10.793 17.908l5.205 7.6" stroke-width=".13"/><g stroke-width=".26"><path d="M31.766 23.7l6.578-7.6m1.374 15.987l7.807-6.578m-7.807 6.568l7.807 6.867m-9.108 8.676l-6.65-7.373m-6.65 7.373l6.65-7.373m-15.76-1.592l7.518-6.578m-7.517-6.58l7.518 6.578m8.24-8.386l-15.76 1.807m15.76-1.806l15.76 1.807"/><path d="M39.718 32.077L38.343 16.1m1.375 15.977l-1.3 15.542"/><path d="M47.525 38.944l-15.76 1.3m-15.758-1.6l15.76 1.6"/><path d="M25.116 47.62l-1.6-15.542m1.6-15.905l-1.6 15.903"/></g><g stroke-width=".13"><path d="M8.778 27.522l7.23-2.024m1.517-14.746l7.6 5.422m1.726-8.82l-1.735 8.82m1.735-8.82L38.343 16.1"/><path d="M36.609 7.354l1.734 8.746m7.592-5.348l-7.6 5.35m14.395 1.806L38.343 16.1m9.182 9.398l5.205-7.6m-5.205 7.6l7.373 2.024m-7.373-2.024l7.23 10.988M36.609 7.354l-11.494 8.82"/><path d="M47.525 25.498l-1.6-14.747m1.6 28.193l7.23-2.458"/><path d="M47.525 38.944l7.373-11.422m-7.373 11.422l5.205 7.012m-5.205-7.012l-1.6 14.168m-7.508-5.492l7.518 5.494"/><path d="M38.417 47.62l14.313-1.663M38.417 47.62l-1.724 8.88m1.724-8.88L26.851 56.5m-1.735-8.88l1.735 8.9"/><path d="M25.116 47.62l11.577 8.88m-11.567-8.88l-7.6 5.494m7.6-5.494l-14.333-1.592m5.214-7.373l-5.214 7.373"/><path d="M16.007 38.655l1.518 14.458m-1.518-14.458l-7.3-2.24m7.3-10.917l-7.3 10.916"/><path d="M16.007 38.655l-7.23-11.132m8.748-16.77L16.007 25.5"/><path d="M10.793 17.908l14.313-1.735"/></g></g><g stroke="#24405d" stroke-width=".101"><path d="M17.525 10.752L11.959 8.15m5.566 2.602l-.432-6.072m9.758 2.674L17.093 4.68" fill="none"/><path d="M26.851 7.354l-4.193-5.132m4.193 5.132L28.585 1.2m-11.06 9.552l5.132-8.53m13.952 5.132L28.585 1.2" fill="none"/><path d="M36.609 7.354L34.793.993m-7.952 6.36l7.952-6.36m1.816 6.36l4.194-5.133m5.133 8.53l-5.143-8.528" fill="none"/><path d="M45.935 10.752l.506-6.072m-9.832 2.674l9.83-2.675m-.504 6.073l5.7-2.892m-5.7 2.892l9.903 1.518" fill="none"/><path d="M52.73 17.908l3.108-5.638m-3.108 5.638L51.645 7.86m1.085 10.048l6.506-.506m-6.506.506l8.9 5.06" fill="none"/><path d="M54.898 27.522l4.337-10.12m-4.337 10.12l6.723-4.554m-6.723 4.554l7.518 1.518m-7.663 7.446l7.663-7.446" fill="none"/><path d="M54.753 36.486l7.88-1.446m-7.735-7.518l7.735 7.518m-7.88 1.446l6.723 4.482m-8.746 4.988l8.747-4.988" fill="none"/><path d="M52.73 45.956l6.434.65m-4.4-10.12l4.4 10.12m-6.424-.65l3.036 5.7m-3.036-5.7l-1.147 9.976" fill="none"/><path d="M51.573 55.932l-5.638-2.82m0 0l.434 6.3m-.434-6.3l9.83-1.446m-9.83 1.446l-5.142 8.675" fill="none"/><path d="M36.693 56.5l4.1 5.277m-4.1-5.277l9.687 2.892M36.693 56.5l-1.9 6.506m1.9-6.506l-8.096 6.506" fill="none"/><path d="M26.851 56.5l1.735 6.506M26.851 56.5l7.942 6.506M26.851 56.5l-4.12 5.277m-5.206-8.665l5.205 8.675" fill="none"/><path d="M26.851 56.5l-9.83 3.036m.504-6.424l-.506 6.434m.506-6.434l-5.638 3.108m-1.094-10.192l1.084 10.193" fill="none"/><path d="M17.525 53.112L7.623 51.74m3.17-5.712l-3.18 5.7m3.18-5.7l-6.506.65m6.506-.65L1.839 41.04m6.867-4.626L1.839 41.04m6.867-4.626L.899 35.04" fill="none"/><path d="M8.706 36.414l-4.4 10.265m4.472-19.157L.898 35.04" fill="none"/><path d="M8.706 36.414L.899 29.04m7.88-1.518L2.056 23.04" fill="none"/><path d="M8.778 27.522L.898 29.04m7.88-1.518l-4.482-10.12" fill="none"/><path d="M10.793 17.908l-6.506-.506m6.506.506L2.056 23.04m8.737-5.132l-3.1-5.348m3.1 5.348l1.157-9.76" fill="none"/><path d="M17.525 10.752L7.693 12.56" fill="none"/></g><g stroke="none" fill-rule="nonzero"><path d="M19.655 35.835l.053-7.6 7.605.053-.053 7.6zm8.228-8.372l.053-7.6 7.605.053-.053 7.6zm-.002 16.67l.053-7.6 7.605.053-.053 7.6zm8.3-8.37l.053-7.6 7.605.053-.053 7.6z" fill="#256ea5"/><path d="M35.743 18.744l.037-5.277 5.3.037-.037 5.277zm-13.25-.001l.037-5.277 5.3.037-.037 5.277zm-9.172 9.4l.037-5.277 5.3.037-.037 5.277zM13.315 41.4l.055-5.277 5.298.055-.055 5.277zm31.598-.1l.037-5.277 5.3.037-.037 5.277zm.107-13.12l.055-5.277 5.298.055-.055 5.277z" fill="#3378bc"/><path d="M9.026 19.63l.024-3.47 3.463.024-.024 3.47zm6.77-7.062l.024-3.47 3.463.024-.024 3.47zm9.32-3.493l.024-3.47 3.463.024-.024 3.47zM6.987 29.24l.024-3.47 3.44.024-.024 3.47zM50.98 16.208l3.47-.024.024 3.463-3.47.024zm-6.773-7.18l3.47-.024.024 3.463-3.47.024zm-9.35-3.406l3.47-.024.024 3.463-3.47.024zm18.14 20.186l3.47-.024.024 3.463-3.47.024z" fill="#169bd6"/><path d="M22.42 50.4l.037-5.277 5.3.037-.037 5.277zm13.25 0l.037-5.277 5.3.037-.037 5.277z" fill="#3378bc"/><path d="M50.957 47.73l.024-3.47 3.463.024-.024 3.47zm-6.698 7.134l.024-3.47 3.463.024-.024 3.47zm-9.32 3.42l.024-3.47 3.463.024-.024 3.47zM52.995 38.12l.024-3.47 3.463.024-.024 3.47zM9.033 44.26l3.47-.024.024 3.463-3.47.024zm6.772 7.108l3.47-.024.024 3.463-3.47.024zm9.276 3.405l3.47-.024.024 3.463-3.47.024zM7.013 34.66l3.47-.024.024 3.463-3.47.024z" fill="#169bd6"/><g fill="#00a8da"><use xlink:href="#C"/><use xlink:href="#C" x="2.474" y="5.678"/><use xlink:href="#C" x="-3.348" y="-5.024"/><use xlink:href="#C" x="-47.244" y="-9.319"/><use xlink:href="#C" x="-58.237" y="11.645"/><use xlink:href="#C" x="-7.57" y="-9.318"/><use xlink:href="#C" x="-57.144" y="5.676"/><use xlink:href="#C" x="-36.472" y="-15.142"/><use xlink:href="#C" x="-54.816" y="-0.002"/><use xlink:href="#C" x="-51.394" y="-5.096"/><path d="M16.123 3.73l1.88-.013.013 1.916-1.88.013zM27.735.034l1.88-.013.013 1.916-1.88.013z"/><use xlink:href="#C" x="-12.667" y="-12.667"/><use xlink:href="#C" x="3.422" y="11.574"/><path d="M33.85 1.88L33.863 0l1.916.013-.013 1.88z"/><use xlink:href="#C" x="-18.417" y="-15.215"/><use xlink:href="#C" x="-7.572" y="38.581"/><use xlink:href="#C" x="3.422" y="17.616"/><use xlink:href="#C" x="-47.246" y="38.58"/><use xlink:href="#C" x="2.474" y="23.668"/><use xlink:href="#C" x="-18.419" y="44.478"/><use xlink:href="#C" x="-0.001" y="29.336"/><use xlink:href="#C" x="-3.349" y="34.432"/><path d="M45.493 58.534l1.88-.013.013 1.916-1.88.013zm-11.542 3.55l1.88-.013.013 1.916-1.88.013z"/><use xlink:href="#C" x="-42.077" y="42.148"/><use xlink:href="#C" x="-54.889" y="29.262"/><use xlink:href="#C" x="-57.146" y="23.658"/><use xlink:href="#C" x="-51.469" y="34.43"/><use xlink:href="#C" x="-58.237" y="17.615"/><use xlink:href="#C" x="-30.43" y="45.642"/><use xlink:href="#C" x="-36.544" y="44.404"/></g></g></symbol><defs ><path id="C" d="M58.237 18.332l.013-1.88 1.916.013-.013 1.88z"/></defs></svg>