<svg xmlns="http://www.w3.org/2000/svg" viewBox="0 0 2.4851974 2.4671232"><defs><clipPath id="a"><path stroke-width=".08" d="M2.6 77.1h39.7v39.4H2.6z"/></clipPath></defs><g transform="matrix(.0626 0 0 .0626 -.163 -4.826)" clip-path="url(#a)"><g clip-rule="evenodd" fill-rule="evenodd"><path d="M0 0h192.74v192.74H0V0z" fill="#fff"/><path d="M78.44 105.96h4.84V86.33h-4.84v19.63zm-10.88-12.1H54.8v-7.53h-4.85v19.63h4.84V97.5h12.76v8.46h4.83V86.33h-4.84v7.53zm40.25-7.53H86.45v4.17h8.27v15.46h4.85V90.5h8.26v-4.17zm11.5 0h-4.76l-9.08 19.63h4.84c.6-1.3 1.2-2.6 1.82-3.9h9.6l1.82 3.9h4.84l-9.07-19.63zm-5.5 12.1l3.1-6.8 3.14 6.8h-6.24zm61.56-4.57H162.6v-7.53h-4.85v19.63h4.84V97.5h12.76v8.46h4.84V86.33h-4.84v7.53zm9.68-7.53v19.63h4.84V86.33h-4.84zm-43.15 18.02c-2.97.18-5.42-2.27-5.95-5.05-.67-3.18-.67-7.08 1.75-9.55 2.17-1.9 5.7-1.94 8.08-.4 1.38.88 1.9 2.67 2.54 3.95h5.4c-.6-3.48-3.32-6.35-6.7-7.27-4.03-1.1-8.62-1.05-12.38.97-3.5 1.85-4.98 6.03-4.7 9.8.03 3.7 1.9 7.53 5.36 9.1 3.84 1.75 8.42 1.76 12.36.3 3.4-1.25 5.8-4.53 6.2-8.1h-5.45c-.43 2.85-2.3 5.9-5.45 6.18-.35.05-.7.07-1.06.07zM38.44 91.78c-1.62-5.8-6.62-10.43-12.5-11.73-1.63-.28-2.97-2.38-3.66-3.03-.88 1.77-2.66 2.98-4.58 3.33-6.44 1.6-10.4 7.37-12.1 13.4-.33 1.26-2.32 2.2-2.64 2.78 2 .92 3.1 2.98 3.5 5.05 1.76 5.6 6.7 9.9 12.37 11.2 1.64.26 3 2.36 3.67 3 .93-1.97 2.98-3.08 5.05-3.47 5.57-1.75 9.9-6.64 11.2-12.32.26-1.64 2.36-2.98 3-3.66-1.76-.87-2.97-2.62-3.32-4.54zm-6.37-5.43c-2.73 0-5.47 0-8.2.02v-3.85c3.05.3 6 1.7 8.2 3.83zM22.38 89c4.92-.1 8.6 5.73 6.5 10.16-1.7 4.36-7.95 5.68-11.27 2.4-3.12-2.68-2.93-7.87.03-10.58 1.26-1.23 3-2 4.76-2zm-1.54-6.47v3.82H12.7c2.2-2.13 5.1-3.5 8.14-3.82zm-10.5 20.95c-2.57-4.26-2.54-9.88 0-14.14 1.74 0 3.48 0 5.23.02-3.95 3.6-3.96 10.52.05 14.12h-5.3zm12.05 6.9c-3.57-.06-7.1-1.5-9.72-3.92h19.46c-2.6 2.5-6.16 3.94-9.75 3.93zm12.07-6.9h-5.3c3.9-3.5 4-10.1.3-13.78-.76-.65 1.08-.22 1.57-.34h3.4c2.56 4.26 2.55 9.85.03 14.12z"/><path d="M22.4 99.05c2.32.12 3.73-3.02 2.1-4.68-1.43-1.77-4.6-.85-4.88 1.4-.33 1.66 1.07 3.32 2.77 3.28z"/></g></g></svg>