<?xml version="1.0" encoding="utf-8"?>
<!-- Generator: Adobe Illustrator 17.1.0, SVG Export Plug-In . SVG Version: 6.00 Build 0)  -->
<!DOCTYPE svg PUBLIC "-//W3C//DTD SVG 1.1//EN" "http://www.w3.org/Graphics/SVG/1.1/DTD/svg11.dtd">
<svg version="1.1" id="Capa_1" xmlns="http://www.w3.org/2000/svg" xmlns:xlink="http://www.w3.org/1999/xlink" x="0px" y="0px"
	 viewBox="0 0 283.9 81.1" enable-background="new 0 0 283.9 81.1" xml:space="preserve">
<rect x="0" y="0" fill="#D10A11" width="283.9" height="81.1"/>
<g>
	<path fill="#FFFFFF" d="M161.7,32.2h-8.5c-4.8,0-7.6,1.2-7.6,6.2v5.1c0,5.1,2.8,6.2,7.6,6.2h8.5c4.8,0,7.6-1.2,7.6-6.2v-5.1
		C169.3,33.4,166.5,32.2,161.7,32.2z M163.9,41.9c0,2.5-0.5,3.5-3,3.5h-6.8c-2.5,0-3-1-3-3.5v-1.9c0-2.1,0.5-3.5,3.3-3.5h6.2
		c2.8,0,3.3,1.3,3.3,3.5V41.9z"/>
	<path fill="#FFFFFF" d="M218.1,38.9c-5.7,0-6.3,0-6.3-1.5c0-0.9,0.8-1.3,2-1.3h5.9c2.4,0,2.6,0.5,2.6,1.8h5.3v-0.5
		c0-3-0.6-5.1-6.7-5.1h-7.4c-6.7,0-7,2.4-7,5.5c0,4.2,0.9,5.2,8.9,5.2c6.8,0,7.4,0.1,7.4,1.6c0,1.3-1.1,1.5-2.3,1.5H214
		c-1.5,0-2.3-0.1-2.3-2h-5.3v1.2c0,3.7,1.9,4.7,6.7,4.7h6.4c7,0,8.6-0.8,8.6-5.4C228.2,39.4,226.3,38.9,218.1,38.9z"/>
	<polygon fill="#FFFFFF" points="98.1,38.4 87,38.4 87,32.3 81.7,32.3 81.7,49.6 87,49.6 87,43 98.1,43 98.1,49.6 103.4,49.6 
		103.4,32.3 98.1,32.3 	"/>
	<rect x="106.4" y="32.3" fill="#FFFFFF" width="5.3" height="17.3"/>
	<polygon fill="#FFFFFF" points="128.8,43.4 122.8,32.3 114.7,32.3 114.7,49.6 119.8,49.6 119.9,37.1 126.8,49.6 130.8,49.6 
		137.8,37.1 137.8,49.6 142.9,49.6 142.9,32.3 134.8,32.3 	"/>
	<rect x="172" y="32.3" fill="#FFFFFF" width="5.3" height="17.3"/>
	<polygon fill="#FFFFFF" points="198.4,44.9 188.5,32.3 180.3,32.3 180.3,49.6 185.6,49.6 185.6,37 195.5,49.6 203.7,49.6 
		203.7,32.3 198.4,32.3 	"/>
	<path fill="#FFFFFF" d="M245.1,32.3h-6.9l-9.3,17.3h5.9l1.5-3.1H247l1.6,3.1h5.9L245.1,32.3z M238.3,42.8l3.3-6.5l3.4,6.5H238.3z"
		/>
</g>
<g>
	<circle fill="#FFFFFF" cx="47.5" cy="42" r="24.5"/>
	<g>
		<path fill="#D10A11" d="M47.5,22.4c-10.8,0-19.6,8.8-19.6,19.6c0,10.8,8.8,19.6,19.6,19.6c10.8,0,19.6-8.8,19.6-19.6
			C67.1,31.2,58.3,22.4,47.5,22.4z M45.6,52.5l-4.3-4.3v-3.1l4.3,4.3V52.5z M46.8,42l-3.7,3.7v-4.9l-2.5,2.4v4.9l-4.3,4.3V37.8
			l4.3-4.3v4.3l2.5-2.5V31l3.7-3.7V42z M53.6,48.2l-4.3,4.3v-3.1l4.3-4.3V48.2z M58.5,52.5l-4.3-4.3v-4.9l-2.5-2.4v4.9L48.1,42V27.3
			l3.7,3.7v4.3l2.5,2.5v-4.3l4.3,4.3V52.5z"/>
		<path fill="#D10A11" d="M47.5,18.1c-13.2,0-23.9,10.7-23.9,23.9C23.6,55.2,34.3,66,47.5,66C60.7,66,71.4,55.2,71.4,42
			C71.4,28.8,60.7,18.1,47.5,18.1z M47.5,63.5C35.6,63.5,26,53.9,26,42c0-11.9,9.6-21.5,21.5-21.5c11.9,0,21.5,9.6,21.5,21.5
			C68.9,53.9,59.3,63.5,47.5,63.5z"/>
	</g>
</g>
</svg>
