<svg viewBox="0 0 283.9 81.1" xmlns="http://www.w3.org/2000/svg"><path d="m0 0h283.9v81.1h-283.9z" fill="#d10a11"/><path d="m161.7 32.2h-8.5c-4.8 0-7.6 1.2-7.6 6.2v5.1c0 5.1 2.8 6.2 7.6 6.2h8.5c4.8 0 7.6-1.2 7.6-6.2v-5.1c0-5-2.8-6.2-7.6-6.2zm2.2 9.7c0 2.5-.5 3.5-3 3.5h-6.8c-2.5 0-3-1-3-3.5v-1.9c0-2.1.5-3.5 3.3-3.5h6.2c2.8 0 3.3 1.3 3.3 3.5zm54.2-3c-5.7 0-6.3 0-6.3-1.5 0-.9.8-1.3 2-1.3h5.9c2.4 0 2.6.5 2.6 1.8h5.3v-.5c0-3-.6-5.1-6.7-5.1h-7.4c-6.7 0-7 2.4-7 5.5 0 4.2.9 5.2 8.9 5.2 6.8 0 7.4.1 7.4 1.6 0 1.3-1.1 1.5-2.3 1.5h-6.5c-1.5 0-2.3-.1-2.3-2h-5.3v1.2c0 3.7 1.9 4.7 6.7 4.7h6.4c7 0 8.6-.8 8.6-5.4.1-5.2-1.8-5.7-10-5.7zm-120-.5h-11.1v-6.1h-5.3v17.3h5.3v-6.6h11.1v6.6h5.3v-17.3h-5.3m8.3 0h5.3v17.3h-5.3zm22.4 11.1-6-11.1h-8.1v17.3h5.1l.1-12.5 6.9 12.5h4l7-12.5v12.5h5.1v-17.3h-8.1m37.2 0h5.3v17.3h-5.3zm26.4 12.6-9.9-12.6h-8.2v17.3h5.3v-12.6l9.9 12.6h8.2v-17.3h-5.3m46.7 0h-6.9l-9.3 17.3h5.9l1.5-3.1h10.7l1.6 3.1h5.9zm-6.8 10.5 3.3-6.5 3.4 6.5z" fill="#fff"/><circle cx="47.5" cy="42" fill="#fff" r="24.5"/><g fill="#d10a11"><path d="m47.5 22.4c-10.8 0-19.6 8.8-19.6 19.6s8.8 19.6 19.6 19.6 19.6-8.8 19.6-19.6-8.8-19.6-19.6-19.6zm-1.9 30.1-4.3-4.3v-3.1l4.3 4.3zm1.2-10.5-3.7 3.7v-4.9l-2.5 2.4v4.9l-4.3 4.3v-14.6l4.3-4.3v4.3l2.5-2.5v-4.3l3.7-3.7zm6.8 6.2-4.3 4.3v-3.1l4.3-4.3zm4.9 4.3-4.3-4.3v-4.9l-2.5-2.4v4.9l-3.6-3.8v-14.7l3.7 3.7v4.3l2.5 2.5v-4.3l4.3 4.3v14.7z"/><path d="m47.5 18.1c-13.2 0-23.9 10.7-23.9 23.9s10.7 24 23.9 24 23.9-10.8 23.9-24-10.7-23.9-23.9-23.9zm0 45.4c-11.9 0-21.5-9.6-21.5-21.5s9.6-21.5 21.5-21.5 21.5 9.6 21.5 21.5c-.1 11.9-9.7 21.5-21.5 21.5z"/></g></svg>