<svg viewBox="0 0 32 32.136692" xmlns="http://www.w3.org/2000/svg"><g fill="#004990"><path d="m19.263 3.12c-.782.8-2.076 2.496-3.13 1.57.216-.83.898-2.86-.275-1.32-.717.58-1.237 1.767-2.305 1.544-1.6.514.44-2.348-.366-2.067l-2.91 2.922c-.275 1.29-2.593.302-3.703.602-1.545.04 1.17.968 1.655 1.416 1 .17.776 1.054.783 1.803v16.87c-.914.493-2.584 1.402-.726 1.162h3.737c.076-3.12-.104-6.26.145-9.37.448-2.47 3.194-4.02 5.57-3.368 2.108.478 3.773 2.552 3.505 4.748-.02 2.25-.002 4.5-.008 6.75-.893.527-2.537 1.495-.684 1.24h3.697c-.058-3.283.123-6.58-.104-9.855-.566-3.59-4.472-6.032-7.963-5.21-1.713.3-3.13 1.446-4.144 2.788-.08-2.48-.014-5.03-.036-7.538.366-.5 2.216-1.754.45-1.452-1.022-.348 1.43-.168 1.832-.212 2.636-.004 5.272.003 7.908 0l.93-3.662c-.93.73-1.596 2.03-2.705 2.387-1.543.392-.993-.83-.638-1.9.246-.92-.303.056-.52.154z"/><path d="m1.13 16.072c-.09-6.354 4.354-12.44 10.454-14.256 5.616-1.83 12.202.136 15.886 4.764 4.006 4.722 4.514 11.98 1.243 17.228-3.01 5.136-9.3 8.047-15.158 6.99-6.267-.96-11.484-6.36-12.28-12.64-.097-.69-.145-1.39-.145-2.086zm-1.13 0c-.085 6.373 4.044 12.518 9.96 14.876 5.68 2.41 12.678 1.073 17.074-3.253 4.518-4.22 6.17-11.148 4.06-16.955-2.04-6.006-7.921-10.466-14.274-10.71-6.17-.4-12.32 3.21-15.066 8.736-1.154 2.25-1.756 4.777-1.754 7.306z"/></g></svg>