<svg xmlns="http://www.w3.org/2000/svg" viewBox="0 0 433.701 433.701"><path d="M216.85 432.851c-2.147 0-4.285-.039-6.419-.101l44.143-121.318h60.75c10.663 0 22.368-8.197 26.015-18.212l47.892-131.546c7.835-21.537-4.501-39.157-27.418-39.157h-84.279l-70.715 194.316h-.026l-40.089 110.153C71.594 404.375.85 318.878.85 216.851c0-99.086 66.721-182.58 157.683-208.027l-41.365 113.693h-.012L48.389 311.432l45.778.004 58.481-160.531h34.404l-58.481 160.531 45.761.008 54.498-149.77c7.84-21.537-4.497-39.157-27.393-39.157h-38.481l44.186-121.44c3.221-.143 6.454-.227 9.708-.227 119.294 0 216 96.706 216 216.001 0 119.292-96.706 216-216 216zM347.542 150.79h-34.395L264.98 282.948h34.396l48.166-132.158z" fill="#4987CE"/></svg>