<svg viewBox="0 0 433.701 433.701" xmlns="http://www.w3.org/2000/svg"><path d="m216.85 432.851c-2.147 0-4.285-.039-6.419-.101l44.143-121.318h60.75c10.663 0 22.368-8.197 26.015-18.212l47.892-131.546c7.835-21.537-4.501-39.157-27.418-39.157h-84.279l-70.715 194.316h-.026l-40.089 110.153c-95.11-22.611-165.854-108.108-165.854-210.135 0-99.086 66.721-182.58 157.683-208.027l-41.365 113.693h-.012l-68.767 188.915 45.778.004 58.481-160.531h34.404l-58.481 160.531 45.761.008 54.498-149.77c7.84-21.537-4.497-39.157-27.393-39.157h-38.481l44.186-121.44c3.221-.143 6.454-.227 9.708-.227 119.294 0 216 96.706 216 216.001 0 119.292-96.706 216-216 216zm130.692-282.061h-34.395l-48.167 132.158h34.396z" fill="#4987ce"/></svg>