<?xml version="1.0" encoding="UTF-8" standalone="no"?>
<svg
   xmlns:dc="http://purl.org/dc/elements/1.1/"
   xmlns:cc="http://creativecommons.org/ns#"
   xmlns:rdf="http://www.w3.org/1999/02/22-rdf-syntax-ns#"
   xmlns:svg="http://www.w3.org/2000/svg"
   xmlns="http://www.w3.org/2000/svg"
   version="1.1"
   id="svg3538"
   viewBox="0 0 1372.9464 573.37965"
   height="161.82048mm"
   width="387.47598mm">
  <defs
     id="defs3540" />
  <metadata
     id="metadata3543">
    <rdf:RDF>
      <cc:Work
         rdf:about="">
        <dc:format>image/svg+xml</dc:format>
        <dc:type
           rdf:resource="http://purl.org/dc/dcmitype/StillImage" />
        <dc:title></dc:title>
      </cc:Work>
    </rdf:RDF>
  </metadata>
  <g
     transform="translate(435.04467,-285.29078)"
     id="layer1">
    <g
       transform="matrix(7.4464891,0,0,7.4464891,2804.5105,-1839.1239)"
       id="g3646">
      <path
         d="m -375.89589,299.46828 -55.205,0 0,-10.23425 55.205,0 0,10.23425 z m 3.94375,-14.1775 -63.0925,0 0,18.11875 63.0925,0 0,-18.11875 z"
         style="fill:#00b188;fill-opacity:1;fill-rule:nonzero;stroke:none"
         id="path3346" />
      <g
         id="g3348"
         transform="matrix(1.25,0,0,-1.25,-431.10089,333.35578)">
        <path
           d="m 0,0 -3.155,0 0,14.495 3.155,0 0,-5.728 5.637,0 0,5.728 3.155,0 0,-14.495 -3.155,0 0,6.007 L 0,6.007 0,0"
           style="fill:#231f20;fill-opacity:1;fill-rule:nonzero;stroke:none"
           id="path3350" />
      </g>
      <g
         id="g3352"
         transform="matrix(1.25,0,0,-1.25,-414.13839,325.41203)">
        <path
           d="M 0,0 3.758,0 C 3.688,1.066 3.248,1.809 2.018,1.809 1.09,1.809 0.278,1.414 0,0 Z m 2.389,-6.587 c -3.201,0 -5.381,2.018 -5.381,5.333 0,3.225 2.134,5.451 4.964,5.451 3.085,0 4.616,-2.064 4.616,-5.149 l 0,-1.16 -6.588,0 c 0.372,-1.599 1.624,-2.016 2.877,-2.016 1.09,0 1.878,0.231 2.852,0.835 l 0.117,0 0,-2.389 C 5.011,-6.286 3.827,-6.587 2.389,-6.587"
           style="fill:#231f20;fill-opacity:1;fill-rule:nonzero;stroke:none"
           id="path3354" />
      </g>
      <g
         id="g3356"
         transform="matrix(1.25,0,0,-1.25,-395.61089,325.76078)">
        <path
           d="m 0,0 -1.624,-6.076 -2.76,0 -3.155,10.205 0,0.116 3.016,0 1.716,-6.1 1.624,6.1 2.459,0 1.647,-6.1 1.74,6.1 2.9,0 0,-0.116 -3.155,-10.205 -2.761,0 L 0,0"
           style="fill:#231f20;fill-opacity:1;fill-rule:nonzero;stroke:none"
           id="path3358" />
      </g>
      <g
         id="g3360"
         transform="matrix(1.25,0,0,-1.25,-379.75089,333.64578)">
        <path
           d="m 0,0 c -2.505,0 -3.526,0.997 -3.526,3.339 l 0,11.387 3.062,0 0,-11.178 c 0,-0.719 0.278,-0.974 0.881,-0.974 0.209,0 0.511,0.069 0.696,0.139 l 0.047,0 0,-2.528 C 0.905,0.093 0.464,0 0,0"
           style="fill:#231f20;fill-opacity:1;fill-rule:nonzero;stroke:none"
           id="path3362" />
      </g>
      <g
         id="g3364"
         transform="matrix(1.25,0,0,-1.25,-373.48714,325.41203)">
        <path
           d="M 0,0 3.758,0 C 3.688,1.066 3.248,1.809 2.018,1.809 1.091,1.809 0.278,1.414 0,0 Z m 2.389,-6.587 c -3.201,0 -5.381,2.018 -5.381,5.333 0,3.225 2.134,5.451 4.964,5.451 3.085,0 4.616,-2.064 4.616,-5.149 l 0,-1.16 -6.588,0 c 0.371,-1.599 1.624,-2.016 2.876,-2.016 1.091,0 1.879,0.231 2.854,0.835 l 0.116,0 0,-2.389 C 5.011,-6.286 3.828,-6.587 2.389,-6.587"
           style="fill:#231f20;fill-opacity:1;fill-rule:nonzero;stroke:none"
           id="path3366" />
      </g>
      <g
         id="g3368"
         transform="matrix(1.25,0,0,-1.25,-349.53714,320.45453)">
        <path
           d="m 0,0 2.273,0 0,-2.458 -2.273,0 0,-4.198 c 0,-0.905 0.348,-1.323 1.276,-1.323 0.255,0 0.58,0.024 0.928,0.14 l 0.069,0 0,-2.412 c -0.394,-0.14 -0.997,-0.301 -1.878,-0.301 -2.483,0 -3.457,1.136 -3.457,3.757 l 0,4.337 -3.92,0 0,-4.198 c 0,-0.905 0.348,-1.323 1.275,-1.323 0.256,0 0.581,0.024 0.929,0.14 l 0.069,0 0,-2.412 c -0.394,-0.14 -0.998,-0.301 -1.878,-0.301 -2.483,0 -3.457,1.136 -3.457,3.757 l 0,4.337 -1.578,0 0,2.458 1.578,0 0,2.829 3.062,0 0,-2.829 3.92,0 0,2.829 L 0,2.829 0,0"
           style="fill:#231f20;fill-opacity:1;fill-rule:nonzero;stroke:none"
           id="path3370" />
      </g>
      <g
         id="g3372"
         transform="matrix(1.25,0,0,-1.25,-333.79964,324.13703)">
        <path
           d="m 0,0 c 1.602,0 2.366,0.904 2.366,2.203 0,1.346 -0.764,2.25 -2.366,2.25 l -1.995,0 L -1.995,0 0,0 Z m 5.568,2.203 c 0,-3.155 -2.111,-4.87 -5.313,-4.87 l -2.25,0 0,-4.708 -3.153,0 0,14.495 5.403,0 c 3.202,0 5.313,-1.716 5.313,-4.917"
           style="fill:#231f20;fill-opacity:1;fill-rule:nonzero;stroke:none"
           id="path3374" />
      </g>
      <g
         id="g3376"
         transform="matrix(1.25,0,0,-1.25,-318.43214,329.29703)">
        <path
           d="m 0,0 0,0.881 c -0.464,0.254 -1.066,0.347 -1.693,0.347 -0.997,0 -1.6,-0.37 -1.6,-1.205 0,-0.859 0.603,-1.23 1.507,-1.23 0.858,0 1.508,0.441 1.786,1.207 z m 0.093,-2.227 c -0.673,-0.812 -1.669,-1.206 -2.738,-1.206 -2.017,0 -3.665,1.228 -3.665,3.41 0,2.017 1.648,3.362 4.013,3.362 0.742,0 1.509,-0.116 2.297,-0.347 l 0,0.184 c 0,1.114 -0.626,1.6 -2.272,1.6 -1.045,0 -2.042,-0.3 -2.901,-0.788 l -0.115,0 0,2.459 c 0.788,0.463 2.181,0.858 3.548,0.858 3.109,0 4.802,-1.484 4.802,-4.082 l 0,-6.47 -2.969,0 0,1.02"
           style="fill:#231f20;fill-opacity:1;fill-rule:nonzero;stroke:none"
           id="path3378" />
      </g>
      <g
         id="g3380"
         transform="matrix(1.25,0,0,-1.25,-312.66214,326.92078)">
        <path
           d="m 0,0 c 0,3.317 2.344,5.404 5.406,5.404 1.09,0 2.11,-0.232 2.876,-0.788 l 0,-2.621 -0.117,0 C 7.492,2.505 6.704,2.807 5.8,2.807 4.269,2.807 3.109,1.762 3.109,0 c 0,-1.762 1.16,-2.783 2.691,-2.783 0.904,0 1.692,0.302 2.365,0.813 l 0.117,0 0,-2.621 C 7.516,-5.148 6.496,-5.38 5.406,-5.38 2.344,-5.38 0,-3.317 0,0"
           style="fill:#231f20;fill-opacity:1;fill-rule:nonzero;stroke:none"
           id="path3382" />
      </g>
      <g
         id="g3384"
         transform="matrix(1.25,0,0,-1.25,-296.07714,327.50078)">
        <path
           d="m 0,0 0,-4.684 -3.061,0 0,14.495 3.061,0 0,-8.256 3.086,4.082 3.479,0 0,-0.116 -3.711,-4.685 3.711,-5.404 0,-0.116 -3.503,0 L 0,0"
           style="fill:#231f20;fill-opacity:1;fill-rule:nonzero;stroke:none"
           id="path3386" />
      </g>
      <g
         id="g3388"
         transform="matrix(1.25,0,0,-1.25,-279.28839,329.29703)">
        <path
           d="m 0,0 0,0.881 c -0.463,0.254 -1.067,0.347 -1.693,0.347 -0.997,0 -1.6,-0.37 -1.6,-1.205 0,-0.859 0.603,-1.23 1.506,-1.23 0.86,0 1.509,0.441 1.787,1.207 z m 0.093,-2.227 c -0.673,-0.812 -1.671,-1.206 -2.737,-1.206 -2.019,0 -3.665,1.228 -3.665,3.41 0,2.017 1.646,3.362 4.014,3.362 0.742,0 1.506,-0.116 2.295,-0.347 l 0,0.184 c 0,1.114 -0.626,1.6 -2.273,1.6 -1.043,0 -2.042,-0.3 -2.9,-0.788 l -0.116,0 0,2.459 c 0.789,0.463 2.181,0.858 3.549,0.858 3.11,0 4.803,-1.484 4.803,-4.082 l 0,-6.47 -2.97,0 0,1.02"
           style="fill:#231f20;fill-opacity:1;fill-rule:nonzero;stroke:none"
           id="path3390" />
      </g>
      <g
         id="g3392"
         transform="matrix(1.25,0,0,-1.25,-269.02339,322.54203)">
        <path
           d="M 0,0 C 0.556,1.137 1.369,1.786 2.506,1.786 2.923,1.786 3.34,1.693 3.501,1.6 l 0,-2.922 -0.115,0 C 3.038,-1.182 2.621,-1.09 2.041,-1.09 1.09,-1.09 0.348,-1.647 0.092,-2.713 l 0,-5.938 -3.061,0 0,10.321 L 0,1.67 0,0"
           style="fill:#231f20;fill-opacity:1;fill-rule:nonzero;stroke:none"
           id="path3394" />
      </g>
      <g
         id="g3396"
         transform="matrix(1.25,0,0,-1.25,-254.49714,328.97828)">
        <path
           d="m 0,0 0,3.317 c -0.51,0.742 -1.182,1.066 -1.949,1.066 -1.344,0 -2.249,-0.975 -2.249,-2.737 0,-1.762 0.905,-2.713 2.249,-2.713 0.767,0 1.439,0.325 1.949,1.067 z m 0.092,-2.436 c -0.649,-0.835 -1.67,-1.298 -3.061,-1.298 -2.645,0 -4.338,2.411 -4.338,5.38 0,2.969 1.693,5.404 4.338,5.404 1.345,0 2.319,-0.418 2.969,-1.183 l 0,5.125 3.062,0 0,-14.494 -2.97,0 0,1.066"
           style="fill:#231f20;fill-opacity:1;fill-rule:nonzero;stroke:none"
           id="path3398" />
      </g>
      <g
         id="g3400"
         transform="matrix(1.25,0,0,-1.25,-435.04464,339.27328)">
        <path
           d="m 0,0 8.954,0 0,-1.762 -6.936,0 0,-4.429 6.286,0 0,-1.717 -6.286,0 0,-4.824 6.936,0 0,-1.762 -8.954,0 L 0,0"
           style="fill:#231f20;fill-opacity:1;fill-rule:nonzero;stroke:none"
           id="path3402" />
      </g>
      <g
         id="g3404"
         transform="matrix(1.25,0,0,-1.25,-414.60339,344.37453)">
        <path
           d="m 0,0 c 2.296,0 3.572,-1.508 3.572,-3.988 l 0,-6.425 -1.925,0 0,6.378 c 0,1.322 -0.673,2.273 -2.134,2.273 -1.206,0 -2.227,-0.766 -2.575,-1.855 l 0,-6.796 -1.925,0 0,10.204 1.925,0 0,-1.484 C -2.459,-0.742 -1.438,0 0,0"
           style="fill:#231f20;fill-opacity:1;fill-rule:nonzero;stroke:none"
           id="path3406" />
      </g>
      <g
         id="g3408"
         transform="matrix(1.25,0,0,-1.25,-403.67089,344.63578)">
        <path
           d="m 0,0 2.621,0 0,-1.647 -2.621,0 0,-5.496 c 0,-1.159 0.603,-1.554 1.693,-1.554 0.301,0 0.626,0.046 0.858,0.139 l 0.07,0 0,-1.646 c -0.278,-0.116 -0.673,-0.209 -1.206,-0.209 -2.39,0 -3.34,1.091 -3.34,3.084 l 0,5.682 -1.763,0 0,1.647 1.763,0 0,2.712 L 0,2.712 0,0"
           style="fill:#231f20;fill-opacity:1;fill-rule:nonzero;stroke:none"
           id="path3410" />
      </g>
      <g
         id="g3412"
         transform="matrix(1.25,0,0,-1.25,-396.36464,349.76578)">
        <path
           d="M 0,0 5.08,0 C 5.011,1.507 4.268,2.666 2.691,2.666 1.23,2.666 0.278,1.576 0,0 Z m 3.039,-6.309 c -2.993,0 -5.034,1.995 -5.034,5.195 0,3.201 1.902,5.427 4.663,5.427 2.807,0 4.268,-2.018 4.268,-5.009 l 0,-0.882 -7.006,0 c 0.209,-2.064 1.532,-3.061 3.364,-3.061 1.137,0 1.948,0.255 2.853,0.928 l 0.07,0 0,-1.694 C 5.382,-6.054 4.291,-6.309 3.039,-6.309"
           style="fill:#231f20;fill-opacity:1;fill-rule:nonzero;stroke:none"
           id="path3414" />
      </g>
      <g
         id="g3416"
         transform="matrix(1.25,0,0,-1.25,-382.44714,346.60703)">
        <path
           d="m 0,0 c 0.441,1.09 1.416,1.739 2.528,1.739 0.442,0 0.836,-0.069 0.998,-0.162 l 0,-1.901 -0.069,0 C 3.178,-0.186 2.714,-0.116 2.25,-0.116 1.207,-0.116 0.325,-0.811 0,-1.971 l 0,-6.656 -1.925,0 0,10.204 L 0,1.577 0,0"
           style="fill:#231f20;fill-opacity:1;fill-rule:nonzero;stroke:none"
           id="path3418" />
      </g>
      <g
         id="g3420"
         transform="matrix(1.25,0,0,-1.25,-370.26964,355.47703)">
        <path
           d="m 0,0 c 1.902,0 3.016,1.507 3.016,3.572 0,2.04 -1.114,3.57 -3.016,3.57 -1.044,0 -2.018,-0.626 -2.528,-1.622 l 0,-3.921 C -2.018,0.603 -1.044,0 0,0 Z m 0.325,8.882 c 3.038,0 4.662,-2.482 4.662,-5.31 0,-2.831 -1.624,-5.312 -4.662,-5.312 -1.253,0 -2.32,0.649 -2.853,1.346 l 0,-5.057 -1.926,0 0,14.124 1.926,0 0,-1.159 c 0.533,0.719 1.6,1.368 2.853,1.368"
           style="fill:#231f20;fill-opacity:1;fill-rule:nonzero;stroke:none"
           id="path3422" />
      </g>
      <g
         id="g3424"
         transform="matrix(1.25,0,0,-1.25,-358.78714,346.60703)">
        <path
           d="m 0,0 c 0.44,1.09 1.415,1.739 2.528,1.739 0.441,0 0.835,-0.069 0.997,-0.162 l 0,-1.901 -0.069,0 C 3.178,-0.186 2.714,-0.116 2.25,-0.116 1.206,-0.116 0.325,-0.811 0,-1.971 l 0,-6.656 -1.925,0 0,10.204 L 0,1.577 0,0"
           style="fill:#231f20;fill-opacity:1;fill-rule:nonzero;stroke:none"
           id="path3426" />
      </g>
      <g
         id="g3428"
         transform="matrix(1.25,0,0,-1.25,-350.90089,339.47578)">
        <path
           d="m 0,0 c 0.673,0 1.229,-0.533 1.229,-1.206 0,-0.673 -0.556,-1.206 -1.229,-1.206 -0.649,0 -1.23,0.533 -1.23,1.206 C -1.23,-0.533 -0.649,0 0,0"
           style="fill:#231f20;fill-opacity:1;fill-rule:nonzero;stroke:none"
           id="path3430" />
      </g>
      <path
         d="m -352.08964,357.39078 2.4075,0 0,-12.755 -2.4075,0 0,12.755 z"
         style="fill:#231f20;fill-opacity:1;fill-rule:nonzero;stroke:none"
         id="path3432" />
      <g
         id="g3434"
         transform="matrix(1.25,0,0,-1.25,-341.09964,349.94078)">
        <path
           d="m 0,0 c 1.461,-0.463 3.084,-1.066 3.084,-3.014 0,-2.088 -1.716,-3.155 -3.919,-3.155 -1.346,0 -2.691,0.325 -3.457,0.928 l 0,1.832 0.093,0 c 0.859,-0.788 2.134,-1.136 3.34,-1.136 1.09,0 2.065,0.418 2.065,1.299 0,0.904 -0.811,1.113 -2.413,1.646 -1.438,0.464 -3.038,0.998 -3.038,2.922 0,1.972 1.623,3.131 3.688,3.131 1.206,0 2.273,-0.255 3.131,-0.835 l 0,-1.856 -0.069,0 C 1.671,2.435 0.695,2.83 -0.511,2.83 -1.717,2.83 -2.39,2.296 -2.39,1.577 -2.39,0.765 -1.648,0.534 0,0"
           style="fill:#231f20;fill-opacity:1;fill-rule:nonzero;stroke:none"
           id="path3436" />
      </g>
      <g
         id="g3438"
         transform="matrix(1.25,0,0,-1.25,-332.66214,349.76578)">
        <path
           d="M 0,0 5.079,0 C 5.01,1.507 4.268,2.666 2.69,2.666 1.229,2.666 0.278,1.576 0,0 Z m 3.038,-6.309 c -2.992,0 -5.033,1.995 -5.033,5.195 0,3.201 1.902,5.427 4.662,5.427 2.808,0 4.268,-2.018 4.268,-5.009 l 0,-0.882 -7.005,0 c 0.209,-2.064 1.531,-3.061 3.363,-3.061 1.138,0 1.949,0.255 2.853,0.928 l 0.07,0 0,-1.694 C 5.382,-6.054 4.291,-6.309 3.038,-6.309"
           style="fill:#231f20;fill-opacity:1;fill-rule:nonzero;stroke:none"
           id="path3440" />
      </g>
    </g>
  </g>
</svg>
