<svg version="1.2" baseProfile="tiny" xmlns="http://www.w3.org/2000/svg" viewBox="0 0 512 512"><title>Artboard 1</title><path fill="#00B188" d="M478.3 140.7H33.7V57.9h444.5l.1 82.8zm31.4-114.2H2.3v145.7h507.4V26.5z"/><path fill="#231F20" d="M17.6 268H2.8v-70.6h14.7v28h28v-28h14.7V268H45.5v-29.4h-28V268M83.4 237.1h18.2c-.3-5.2-2.5-8.7-8.4-8.7-4.5 0-8.5 1.9-9.8 8.7zm11.5 32.2c-15.5 0-26-9.8-26-25.8 0-15.6 10.3-26.3 24-26.3 14.9 0 22.3 10 21.8 24.9v5.3H83.4c1.8 8 7.8 10 13.9 10 4.9.1 9.7-1.3 13.8-4.1h.7V265c-4.2 2.9-9.9 4.4-16.9 4.3M154.4 238.6l-7.9 29.4H133l-15.4-49.5v-.5h14.7l8.4 29.6 7.8-29.6h12l8 29.6 8.6-29.6h14.1v.6L175.8 268h-13.5l-7.9-29.4M217.1 269.3c-12.1 0-17-4.8-17-16.2v-54.3h14.7v53.4c0 3.4 1.3 4.7 4 4.7 1.1 0 2.1-.3 3.1-.7h.2v12.2c-1.8.6-3.7.9-5.6.9M240.5 237.1h18.2c-.3-5.2-2.5-8.7-8.4-8.7-4.5 0-8.4 1.9-9.8 8.7zm11.6 32.2c-15.5 0-26-9.8-26-25.8 0-15.6 10.3-26.3 24-26.3 14.9 0 22.3 10 22.1 24.9v5.3h-31.6c1.8 8 7.8 10 13.9 10 4.9.1 9.7-1.3 13.8-4.1h1V265c-4.5 2.9-10.3 4.4-17.2 4.3M332.5 218h11.8v11.8H334v20.6c0 4.4 1.6 6.5 5.8 6.5 1.4 0 2.9-.2 4.2-.7h.3v11.7c-3 1-6.2 1.5-9.3 1.5-12.3 0-17.2-5.5-17.2-18.2v-21.4h-19.1v20.6c0 4.4 1.7 6.5 6.2 6.5 1.5 0 3.1-.2 4.5-.7h1v11.7c-3 1-6.2 1.5-9.3 1.5-12.3 0-17.2-5.5-17.2-18.2v-21.4h-7.4V218h7.4v-13.2h14.7V218h19.1v-13.2h14.7l.1 13.2"/><g><path fill="#231F20" d="M27.4 331.3c7.9 0 11.8-4.4 11.8-10.9 0-6.7-3.8-11.2-11.8-11.2h-9.9v22.1h9.9zM54.5 321c0 15.2-10.2 23.5-25.7 23.5H17.6v22.1H2.8V296h25.9c15.5 0 25.7 8.3 25.7 23.8M86.7 351.1v-4.3c-2.5-1.2-5.4-1.8-8.2-1.7-4.8 0-7.7 1.8-7.7 5.9s2.9 5.9 7.3 5.9c3.8.3 7.4-2.1 8.6-5.8zm.5 10.8c-3.3 3.9-8.2 6-13.2 5.9-9.7 0-17.7-5.9-17.7-16.5 0-9.7 8-16.2 19.4-16.2 3.8 0 7.5.6 11.1 1.7v-1.5c0-5.4-3-7.7-11-7.7-4.9 0-9.8 1.3-14.1 3.7v-11.9c5.2-2.7 11-4.2 16.9-4.1 14.8 0 22.9 7.2 22.9 19.7v31.6H86.7v-4.4M110 342.4c0-16 11.3-26.1 26.1-26.1 4.9-.2 9.8 1.1 13.9 3.8v12.7h-.6c-3.3-2.5-7.3-3.9-11.4-3.9-7.4 0-13 5-13 13.5s5.6 13.4 13 13.4c4.1 0 8.1-1.4 11.4-3.9h.6v12.6c-4.1 2.7-9 4-13.9 3.8-14.7.1-26.1-9.9-26.1-25.9M173.5 344.6v22.1h-14.7V296h14.7v40.4l15.2-19.8h17.2v.6l-18.3 22.7 18.3 26.2v.6h-17.7L173.4 344M238.3 351.1v-4.3c-2.5-1.2-5.4-1.8-8.2-1.7-4.8 0-7.7 1.8-7.7 5.9s2.9 5.9 7.3 5.9c3.8.3 7.3-2.1 8.6-5.8zm.4 10.8c-3.3 3.9-8.2 6-13.2 5.9-9.8 0-17.7-5.9-17.7-16.5 0-9.7 8-16.2 19.4-16.2 3.8 0 7.5.6 11.1 1.7v-1.5c0-5.4-3-7.7-11-7.7-4.9 0-9.8 1.3-14.1 3.7v-11.9c5.2-2.7 11-4.2 16.9-4.1 14.8 0 22.9 7.2 22.9 19.7v31.6h-14.7v-4.4M277.3 325c2.7-5.5 6.6-8.6 12.1-8.6 1.6 0 3.3.3 4.8.9v14h-.5c-2-.8-4.2-1.2-6.4-1.1-4.5 0-8 2.7-9.3 7.8v28.6h-14.7v-50H278v8.8M333.9 349.9v-16c-2-3.2-5.6-5.2-9.4-5.2-6.5 0-10.9 4.7-10.9 13.2S318 355 324.5 355c3.9.1 7.4-1.8 9.4-5.1zm.5 11.8c-3.1 4-8.1 6.3-14.8 6.3-12.8 0-21-11.7-21-26s8.2-26.1 21-26.1c6.5 0 11.2 2 14.3 5.7V296h14.7v70.6h-14.7v-4.4"/></g><g><path fill="#231F20" d="M326.2 395.5c3.2-.5 6.2 1.8 6.6 5s-1.8 6.2-5 6.6c-.5.1-1.1.1-1.7 0-3.2.5-6.2-1.8-6.6-5s1.8-6.2 5-6.6c.6-.1 1.1-.1 1.7 0M2.8 397.7h42.5v8.8H11.6V427h30.7v8.8H11.6v23.4h33.7v7.3H2.8v-68.8M80.8 416.8c11 0 17.2 7.3 17.2 19.2v30.5h-8.8v-30.7c0-6.4-3.1-10.9-10-10.9-5.5 0-10.4 3.6-12 8.9V468H57v-49.8h10.2v6.8c3.1-5.1 8.7-8.2 14.7-8.1M122.9 418.2h13.2v7.3h-13.2v26.8c0 5.7 3 7.6 8.5 7.6 1.5 0 2.9-.2 4.3-.7h.4v7.9c-1.9.7-3.9 1.1-5.9 1-11.6 0-16.1-5.2-16.1-14.8v-27.8h-8.8v-7.3h8.8V405h8.8v13.2M151.3 437.2h24.4c-.3-7.2-3.9-12.8-11.5-12.8-7 0-11.5 5.2-12.9 12.8zM166 468c-14.4 0-24.2-9.6-24.2-25s9.2-26.1 22.4-26.1c13.5 0 20.5 9.7 20.2 24.1v3.6H151c1 10.5 7.3 15.3 16.1 15.3 5.1.3 10-1.6 13.7-5.1h.6v8.8c-4.2 3.1-9.4 4.4-15.4 4.4M205.5 425.4c1.9-5 6.8-8.4 12.2-8.4 1.6-.1 3.3.2 4.8.8v9.1h-.3c-1.9-.7-4-1.1-6-1-5.3 0-10 3.7-11.2 8.9V468h-8.8v-49.8h8.8v7.3M252.2 459.5c9.2 0 14.5-7.2 14.5-17.2s-5.4-17.2-14.5-17.2c-5.2.1-9.9 3.1-12.2 7.8v18.9c2.3 4.7 7 7.7 12.2 7.7zm.8-42.3c13.8 0 21.3 11.8 21.3 25.3s-7.4 25.3-21.3 25.3c-5.1 0-9.9-2.4-13-6.4v24.1h-8.8v-67.3h8.8v5.5c3.1-4.1 7.9-6.5 13-6.5M296.3 425.4c1.9-5 6.8-8.4 12.2-8.4 1.6-.1 3.3.2 4.8.8v9.1h-.3c-1.9-.7-4-1.1-6-1-5.3 0-10 3.7-11.2 8.9V468H287v-49.8h8.8v7.3M322 468h8.8v-49.8H322V468zM363.5 438.4c7.2 2.2 15.1 5.1 15.1 14.5 0 10-8.4 15.2-19.2 15.2-6.6 0-13.2-1.6-17-4.5v-8.8h.5c4.2 3.8 10.5 5.5 16.4 5.5 5.3 0 10.1-2 10.1-6.3 0-4.2-4-5.4-11.8-7.9-7.1-2.2-14.9-4.8-14.9-14.1 0-9.5 8-15.1 18.1-15.1 5.4-.2 10.7 1.2 15.4 4v8.9h-.3c-4.2-3.4-9.4-5.2-14.8-5.1-5.9 0-9.2 2.6-9.2 6-.1 4 3.6 5.1 11.6 7.7M396.3 437.2h24.4c-.3-7.2-3.9-12.8-11.5-12.8-7 0-11.5 5.2-12.9 12.8zM411 468c-14.4 0-24.2-9.6-24.2-25s9.2-26.1 22.4-26.1c13.5 0 20.5 9.7 19.7 24.1v3.6H396c1 10.5 7.3 15.3 16.1 15.3 5.1.3 10.1-1.5 13.8-5.1v8.8c-3.7 3.1-8.9 4.4-14.9 4.4"/></g></svg>