<svg xmlns="http://www.w3.org/2000/svg" viewBox="0 0 133.461 67.049728"><path fill="#0fa2d3" d="M0 0v66.88c3.198948-.0501 6.400103.008 9.599519-.00098 1.290769-.004 3.21449.24435 4.269427-.67817C15.497281 64.7769 14.72 60.49205 14.72 58.56V37.12h14.720001l.000044 19.84.442246 8.5326 3.08936 1.34488 7.977139.0237 3.124839-1.24508.406367-5.77607.000005-13.12v-46.72h-14.72l-.32 20.16-.465752 8.29267-3.062114 1.24258-7.973287-.0171-2.812476-1.4381L14.72 19.52001v-19.52H0m59.200002 0v48.64l.000224 12.47991c.0012 1.43722-.350791 3.73152.678926 4.90904 1.38667 1.5857 5.443799.85105 7.32085.85105h37.760003c2.71522 0 6.16205.53659 8.74246-.44901 3.45163-1.31835 6.30808-5.32152 8.85754-7.87099 2.23936-2.23935 4.48681-4.47095 6.71644-6.72 1.32585-1.33739 2.87659-2.71478 3.63251-4.48.71758-1.67567.53021-3.65923.53096-5.44l.0001-8.96v-32.96h-15.04001v34.88l-.00001 10.24c-.00018 1.86385.23386 3.97536-.40635 5.76-1.06445 2.96719-5.1884 7.12192-8.2336 8.01608-1.90472.55929-4.11574.30387-6.08004.30392V.00002h-14.72v59.2h-14.72001v-59.2H59.200002"/></svg>
