<svg viewBox="0 0 347.3 189" xmlns="http://www.w3.org/2000/svg"><path d="m39.1 8.9c1 4.4.4 8.9.4 13.4.1 19.3.1 38.6 0 58 0 3.4.7 4.6 4.3 4.5 10-.2 20-.2 30 0 3.7.1 4.3-1.3 4.3-4.6-.1-22.2.1-44.3-.2-66.5-.1-5 1.4-6.1 6.1-5.9 9 .4 18 .4 27 0 4.5-.2 5.9.9 5.8 5.7-.2 34.5-.1 69-.1 103.4 0 19.8-.1 39.6.1 59.5 0 3.8-1.1 4.8-4.8 4.7-9.8-.3-19.7-.3-29.5 0-3.9.1-4.6-1.3-4.6-4.8.2-22.3 0-44.6.2-67 0-4.3-1.3-5.3-5.3-5.2-9.2.3-18.3.3-27.5 0-4.4-.2-6 .9-5.9 5.7.3 22 0 44 .2 66 0 4.1-1 5.4-5.2 5.3-11.1-.2-22.2-.1-33.4-.1v-2c1-1.7.5-3.6.5-5.4v-159.6c0-5.5 0-5.6 5.3-5.5 10.8.2 21.6-.5 32.3.4z" fill="#00b0ea"/><path d="m39.1 8.9c-10.7 0-21.3.2-32 0-4.3-.1-5.2 1.4-5.2 5.4.1 53 .1 106 0 159 0 1.9.8 4-1 5.7.1-57 .1-114 .1-171 11.2 0 22.4-.1 33.6 0 1.5 0 3.3-.9 4.5.9z" fill="#0eb4eb"/><path d="m155.3 94c0-27.2.1-54.3-.1-81.5 0-3.8 1-4.8 4.7-4.7 9.8.3 19.7.3 29.5 0 4.2-.1 4.8 1.4 4.8 5.1-.1 47.7 0 95.3-.2 143 0 5 1.4 6.1 6.1 5.9 9.5-.4 19-.2 28.5-.1 2.9 0 4-.6 3.9-3.9-.1-48.2 0-96.3-.2-144.5 0-4.2.8-5.8 5.4-5.6 9.1.4 18.3.4 27.5 0 4.7-.2 6.1.9 6.1 5.9-.2 47.5 0 95-.3 142.5 0 4.9 1.7 5.3 5.9 5.7 9.1 1 15.2-2.7 21.9-8.8 8.4-7.6 11.3-15.5 11.1-26.8-.7-37.8-.2-75.6-.4-113.5 0-4.3 1.2-5.2 5.2-5.1 9.8.3 19.7.2 29.5.1 2.8 0 4.1.4 4.1 3.7-.1 39-.1 78 0 117 0 2-.6 3.4-2 4.8-15.2 15.2-30.4 30.4-45.5 45.6-1.5 1.6-3.2 2.1-5.3 2.1-45.3 0-90.6-.1-136 0-3.8 0-4.3-1.5-4.3-4.7.1-27.2.1-54.7.1-82.2z" fill="#00b0ea"/></svg>