<svg viewBox="0 0 1000 400" xmlns="http://www.w3.org/2000/svg"><path d="m0 0v27.367h194.648v-27.367zm222.227 0v27.367h277.382s-28.333-27.367-65.859-27.367zm331.796 0v27.367h167.813l-9.961-27.367zm288.125 0-9.96 27.367h166.289v-27.367zm-842.148 53.222v27.368h194.648v-27.368zm222.227.039v27.328h309.57s-3.616-21.063-9.922-27.328zm331.796 0v27.328h186.211l-9.218-27.328zm268.204 0-9.22 27.328h185.47v-27.328zm-766.29 53.183v27.406h84.297v-27.406zm222.227 0v27.406h84.297v-27.406zm166.29 0v27.406h84.296s5.352-14.473 5.352-27.406h-89.649zm165.507 0v27.406h149.453l-9.96-27.406h-139.494zm193.906 0-10 27.406h150.196v-27.406h-140.197zm-747.93 53.261v27.367h84.297v-27.367zm222.227 0v27.367h215.313s18.01-14.042 23.75-27.367zm331.797 0v27.367h84.297v-15.234l5.351 15.234h154.414l5.743-15.234v15.234h84.297v-27.367h-158.243l-8.398 23.18-8.438-23.18zm-554.024 53.223v27.367h84.297v-27.367zm222.227 0v27.367h239.063c-5.74-13.282-23.75-27.367-23.75-27.367zm331.797 0v27.367h84.297v-27.367h-84.298zm99.61 0 10.195 27.367h115.78l9.688-27.367h-135.664zm150.195 0v27.367h84.297v-27.367zm-803.829 53.222v27.367h84.297v-27.367zm222.227 0v27.367h84.297v-27.367zm166.29 0v27.367h89.648c0-12.916-5.352-27.367-5.352-27.367h-84.297zm165.507 0v27.367h84.297v-27.367h-84.298zm118.75 0 9.883 27.367h77.617l9.96-27.367zm131.055 0v27.367h84.297v-27.367zm-858.243 53.222v27.406h194.649v-27.406zm220.704 0v27.406h299.648c6.306-6.276 9.922-27.406 9.922-27.406zm333.32 0v27.406h138.71v-27.406zm192.344 0 10.156 27.406h39.492l9.531-27.406h-59.18zm111.875 0v27.406h140.234v-27.406zm-858.243 53.261v27.367h194.649v-27.367zm220.704 0v27.328h211.523c37.526 0 65.86-27.328 65.86-27.328h-277.384zm333.32 0v27.367h138.71v-27.367zm211.601 0 9.766 27.29 1.68.038 9.922-27.328zm92.618 0v27.367h140.234v-27.367z" fill="#1f70c1"/></svg>