<svg xmlns="http://www.w3.org/2000/svg" viewBox="0 0 1000 400"><path fill="#1f70c1" d="M0 0v27.367h194.648V0H0zm222.227 0v27.367h277.382S471.276 0 433.75 0H222.227zm331.796 0v27.367h167.813L711.875 0H554.023zm288.125 0l-9.96 27.367h166.289V0H842.148zM0 53.222V80.59h194.648V53.222H0zm222.227.039v27.328h309.57s-3.616-21.063-9.922-27.328H222.227zm331.796 0v27.328h186.211l-9.218-27.328H554.023zm268.204 0l-9.22 27.328h185.47V53.261h-176.25zm-766.29 53.183v27.406h84.297v-27.406H55.937zm222.227 0v27.406h84.297v-27.406h-84.297zm166.29 0v27.406h84.296s5.352-14.473 5.352-27.406h-89.649zm165.507 0v27.406h149.453l-9.96-27.406H609.96zm193.906 0l-10 27.406h150.196v-27.406H803.866zm-747.93 53.261v27.367h84.297v-27.367H55.937zm222.227 0v27.367h215.313s18.01-14.042 23.75-27.367H278.164zm331.797 0v27.367h84.297v-15.234l5.351 15.234h154.414l5.743-15.234v15.234h84.297v-27.367H785.82l-8.398 23.18-8.438-23.18H609.961zM55.937 212.928v27.367h84.297v-27.367H55.937zm222.227 0v27.367h239.063c-5.74-13.282-23.75-27.367-23.75-27.367H278.164zm331.797 0v27.367h84.297v-27.367H609.96zm99.61 0l10.195 27.367h115.78l9.688-27.367H709.57zm150.195 0v27.367h84.297v-27.367h-84.297zM55.937 266.15v27.367h84.297V266.15H55.937zm222.227 0v27.367h84.297V266.15h-84.297zm166.29 0v27.367h89.648c0-12.916-5.352-27.367-5.352-27.367h-84.297zm165.507 0v27.367h84.297V266.15H609.96zm118.75 0l9.883 27.367h77.617l9.96-27.367h-97.46zm131.055 0v27.367h84.297V266.15h-84.297zM1.523 319.372v27.406h194.649v-27.406H1.523zm220.704 0v27.406h299.648c6.306-6.276 9.922-27.406 9.922-27.406h-309.57zm333.32 0v27.406h138.71v-27.406h-138.71zm192.344 0l10.156 27.406h39.492l9.531-27.406h-59.18zm111.875 0v27.406H1000v-27.406H859.766zM1.523 372.633V400h194.649v-27.367H1.523zm220.704 0v27.328H433.75c37.526 0 65.86-27.328 65.86-27.328H222.226zm333.32 0V400h138.71v-27.367h-138.71zm211.601 0l9.766 27.29 1.68.038 9.922-27.328h-21.368zm92.618 0V400H1000v-27.367H859.766z"/></svg>