<svg xmlns="http://www.w3.org/2000/svg" viewBox="0 0 865.5 231.2"><path d="M865.5 54.1c0 5.9-4.6 10.5-10.6 10.5s-10.7-4.6-10.7-10.5c0-5.8 4.7-10.4 10.7-10.4 6 0 10.6 4.6 10.6 10.4zm-18.7 0c0 4.6 3.4 8.3 8.1 8.3 4.6 0 7.9-3.7 7.9-8.2 0-4.6-3.4-8.4-8-8.4-4.5 0-8 3.7-8 8.3zm6.4 5.4h-2.4V49.1c.9-.2 2.3-.3 4-.3 2 0 2.8.3 3.6.8.6.4 1 1.3 1 2.3 0 1.1-.9 2-2.2 2.4v.1c1 .4 1.6 1.1 1.9 2.5.3 1.6.5 2.2.8 2.6h-2.6c-.3-.4-.5-1.3-.8-2.5-.2-1.1-.8-1.6-2.2-1.6h-1.1v4.1zm.1-5.9h1.1c1.3 0 2.4-.4 2.4-1.5 0-.9-.7-1.6-2.2-1.6-.6 0-1.1.1-1.3.1v3zM43.3 64.9H0c0-19.8 20.7-38.4 43.3-38.4v38.4z"/><path fill="#59873C" d="M427.4 44.1v43.6c15.6 10.6 25.8 27.4 25.8 46.5 0 32-28.6 58-64 58s-64-26-64-58c0-19.1 10.2-36 25.9-46.6V44c-37.9 14.3-64.7 49.3-64.7 90.1 0 53.6 46 97.1 102.8 97.1S492 187.7 492 134.1c0-40.8-26.7-75.7-64.6-90"/><path d="M167.8 37.1c-25.3 0-51.7 11.1-63.6 23.9V0H64.9V134.2c0 58.7 41.2 97.1 102.8 97.1 56.8 0 102.8-43.4 102.8-97.1.1-53.6-45.9-97.1-102.7-97.1m0 155.1c-35.3 0-64-26-64-58 0-35.1 28.7-58 64-58 35.4 0 64 26 64 58s-28.7 58-64 58"/><path fill="#59873C" d="M389.3 33.2c-6.8 0-13.4.5-19.9 1.6v107.9h39.7V34.8c-6.4-1.1-13-1.6-19.8-1.6"/><path d="M611.1 189.3h-104v38.3h108.7c23 0 53.5-11.5 53.5-49.8 0-34.9-22.8-46-38.6-51-23.3-7.4-52-16.4-68.7-21.8-6.5-2.1-12.7-4.5-12.7-12.7 0-10.6 10.8-11.4 19.2-11.4h90.3V42.4h-94.5c-28.4 0-57.6 13.5-57.6 49.9 0 36.1 23 44.8 41 50.5 24.1 7.7 43.2 13.8 66.7 21.3 6 1.9 12.4 5.3 12.4 12.5 0 11.4-10.8 12.7-15.7 12.7M792 189.3H688v38.3h108.7c23 0 53.5-11.5 53.5-49.8 0-34.9-22.8-46-38.6-51-23.3-7.4-52-16.4-68.7-21.8-6.5-2.1-12.7-4.5-12.7-12.7 0-10.6 10.8-11.4 19.2-11.4h90.3V42.4h-94.5c-28.4 0-57.6 13.5-57.6 49.9 0 36.1 23 44.8 41 50.5 24.1 7.7 43.2 13.8 66.7 21.3 6 1.9 12.4 5.3 12.4 12.5-.1 11.4-10.9 12.7-15.7 12.7M43.3 83.6H0V187.4c0 19.8 20.7 38.4 43.3 38.4V83.6z"/></svg>