<!DOCTYPE svg PUBLIC "-//W3C//DTD SVG 20010904//EN" "http://www.w3.org/TR/2001/REC-SVG-20010904/DTD/svg10.dtd">
<svg version="1.0" xmlns="http://www.w3.org/2000/svg" width="294px" height="34px" viewBox="0 0 2940 340" preserveAspectRatio="xMidYMid meet">
<g id="layer101" fill="#000000" stroke="none">
 <path d="M0 175 l0 -165 165 0 165 0 0 165 0 165 -165 0 -165 0 0 -165z m110 125 c0 -11 5 -20 10 -20 6 0 10 9 10 20 0 16 7 20 30 20 23 0 30 -4 30 -20 0 -11 7 -20 15 -20 8 0 15 9 15 20 0 17 7 20 45 20 l45 0 0 -145 0 -145 -45 0 c-38 0 -45 3 -45 20 0 11 -7 20 -15 20 -8 0 -15 -9 -15 -20 0 -16 -7 -20 -30 -20 -23 0 -30 4 -30 20 0 11 -4 20 -10 20 -5 0 -10 -9 -10 -20 0 -17 -7 -20 -45 -20 l-45 0 0 145 0 145 45 0 c38 0 45 -3 45 -20z"/>
 <path d="M103 248 c-6 -7 -17 -27 -26 -44 -15 -28 -14 -33 6 -70 22 -38 25 -39 80 -42 l57 -3 22 45 22 46 -21 37 c-21 36 -25 38 -76 41 -35 2 -57 -2 -64 -10z"/>
 <path d="M440 301 c0 -5 7 -11 15 -15 12 -4 15 -26 15 -105 0 -85 -3 -102 -17 -110 -14 -8 0 -10 52 -10 39 1 62 3 53 6 -16 4 -18 18 -18 114 0 90 3 109 15 109 8 0 15 5 15 10 0 6 -28 10 -65 10 -36 0 -65 -4 -65 -9z"/>
 <path d="M580 301 c0 -5 7 -11 15 -15 12 -4 15 -26 15 -105 0 -85 -3 -102 -17 -110 -14 -8 -5 -10 39 -11 l56 0 30 73 31 72 15 -37 c9 -21 23 -54 30 -73 15 -34 16 -35 73 -34 32 0 51 3 43 6 -26 10 -30 25 -30 121 0 86 2 94 20 99 43 11 17 23 -50 23 -67 0 -93 -12 -50 -23 18 -5 20 -13 19 -94 0 -48 -3 -83 -5 -78 -3 6 -21 50 -42 99 -20 48 -41 89 -46 90 -4 0 -27 -43 -49 -98 l-42 -99 -3 59 c-4 76 5 124 23 124 8 0 15 5 15 10 0 6 -20 10 -45 10 -25 0 -45 -4 -45 -9z"/>
 <path d="M988 294 c-54 -29 -74 -113 -43 -174 26 -50 73 -71 154 -68 l71 3 0 43 c0 47 -10 54 -29 18 -20 -37 -56 -49 -91 -31 -55 29 -64 132 -15 181 31 31 56 30 94 -2 29 -24 31 -25 31 -5 0 11 -10 27 -22 35 -28 20 -114 20 -150 0z"/>
 <path d="M1235 277 c-85 -85 -31 -227 87 -227 133 0 187 157 82 239 -20 16 -41 21 -81 21 -49 0 -59 -4 -88 -33z m129 -9 c25 -35 22 -152 -4 -178 -27 -27 -44 -25 -70 7 -19 24 -21 38 -18 94 2 37 10 74 17 83 19 23 57 20 75 -6z"/>
 <path d="M1560 301 c0 -5 9 -11 20 -14 18 -5 20 -13 20 -99 0 -96 -4 -111 -30 -121 -8 -3 26 -6 76 -6 102 -1 124 10 124 66 0 37 -23 58 -72 67 -37 7 -38 8 -38 47 0 32 4 42 20 46 43 11 17 23 -50 23 -38 0 -70 -4 -70 -9z m141 -155 c13 -27 -3 -66 -26 -66 -11 0 -15 12 -15 45 0 51 22 63 41 21z"/>
 <path d="M1834 277 c-31 -28 -37 -41 -41 -83 -8 -89 56 -151 145 -141 57 6 94 34 110 83 18 54 7 101 -33 141 -30 30 -39 33 -89 33 -50 0 -60 -4 -92 -33z m121 -1 c13 -10 20 -30 23 -75 5 -67 -10 -117 -38 -126 -45 -14 -72 26 -72 107 0 90 37 131 87 94z"/>
 <path d="M2130 200 c-23 -61 -49 -117 -57 -125 -13 -13 -7 -15 49 -15 41 0 58 3 49 9 -12 8 -10 19 9 70 12 34 24 61 27 61 2 0 11 -16 19 -35 13 -31 13 -39 -1 -64 -8 -16 -20 -31 -27 -34 -7 -3 19 -6 57 -6 46 0 65 2 55 8 -12 8 -12 17 3 65 10 31 22 56 26 56 4 0 16 -25 27 -56 16 -48 17 -56 4 -64 -10 -6 35 -10 128 -10 l142 0 0 43 0 42 -20 -33 c-16 -26 -26 -32 -55 -32 -35 0 -35 0 -35 46 0 52 16 56 40 8 l15 -29 3 37 c2 21 2 55 0 75 l-3 38 -15 -29 c-8 -16 -21 -31 -27 -34 -18 -5 -17 72 0 86 25 21 97 -13 97 -45 0 -7 5 -13 10 -13 11 0 13 33 4 68 -6 21 -11 22 -115 22 -100 0 -139 -10 -89 -23 19 -5 21 -12 18 -109 -3 -102 -3 -103 -28 -103 -23 0 -29 11 -69 118 -25 64 -49 116 -55 114 -6 -2 -23 -34 -37 -72 l-26 -68 -29 72 c-16 39 -34 71 -40 71 -6 0 -30 -50 -54 -110z"/>
 <path d="M2680 301 c0 -5 7 -11 15 -15 12 -4 15 -26 15 -105 0 -85 -3 -102 -17 -110 -13 -8 8 -10 78 -11 107 0 125 8 135 57 5 26 2 36 -19 56 l-26 23 40 52 c21 29 39 55 39 57 0 3 -18 5 -39 5 -37 0 -42 -4 -80 -57 l-41 -58 0 48 c0 35 4 47 15 47 8 0 15 5 15 10 0 6 -28 10 -65 10 -36 0 -65 -4 -65 -9z m148 -143 c27 -27 7 -78 -30 -78 -15 0 -18 8 -18 45 0 37 3 45 18 45 10 0 23 -5 30 -12z"/>
 </g>
<g id="layer102" fill="#808080" stroke="none">
 </g>

</svg>