<svg xmlns="http://www.w3.org/2000/svg" viewBox="0 0 105 123"><path fill="#A1CD6D" d="M22.1 54.4l-17.3-13c-.5-.4-.8-.9-.8-1.3 0-.5.3-.9.8-1.3l17.3-13c1.3-1 3.6-1 5 0l17.3 13c.5.4.8.8.8 1.3s-.3.9-.8 1.3l-17.3 13c-1.4 1-3.7 1-5 0"/><path fill="#74CEE2" d="M22.1 96.3l-17.3-13c-.5-.4-.8-.8-.8-1.3s.3-.9.8-1.3l17.3-13c1.3-1 3.6-1 5 0l17.3 13c.5.4.8.8.8 1.3s-.3.9-.8 1.3l-17.3 13c-1.4 1-3.7 1-5 0"/><path fill="#F1E955" d="M50 33.5l-17.3-13c-.5-.4-.8-.9-.8-1.3 0-.5.3-.9.8-1.3L50 4.9c1.3-1 3.7-1 5 0l17.3 13c.5.4.8.9.8 1.3 0 .5-.3.9-.8 1.3L55 33.5c-1.3 1-3.7 1-5 0"/><path fill="#65C4B9" d="M50 75.4l-17.3-13c-.5-.4-.8-.9-.8-1.3 0-.5.3-.9.8-1.3l17.3-13c1.3-1 3.7-1 5 0l17.3 13c.5.4.8.9.8 1.3 0 .5-.3.9-.8 1.3L55 75.4c-1.3 1-3.7 1-5 0"/><path fill="#0083C4" d="M50 118.1l-17.3-13c-.5-.4-.8-.9-.8-1.3 0-.5.3-.9.8-1.3l17.3-13c1.3-1 3.7-1 5 0l17.3 13c.5.4.8.9.8 1.3 0 .5-.3.9-.8 1.3l-17.3 13c-1.3 1-3.7 1-5 0"/><path fill="#7CC04B" d="M78 54.4l-17.3-13c-.5-.4-.8-.9-.8-1.3 0-.5.3-.9.8-1.3l17.3-13c1.3-1 3.6-1 5 0l17.3 13c.5.4.8.8.8 1.3s-.3.9-.8 1.3L83 54.4c-1.4 1-3.7 1-5 0"/><path fill="#009ED9" d="M78 96.3l-17.3-13c-.5-.4-.8-.9-.8-1.3 0-.5.3-.9.8-1.3l17.3-13c1.3-1 3.6-1 5 0l17.3 13c.5.4.8.8.8 1.3s-.3.9-.8 1.3L83 96.3c-1.4 1-3.7 1-5 0"/></svg>