<svg viewBox="0 0 105 123" xmlns="http://www.w3.org/2000/svg"><path d="m22.1 54.4-17.3-13c-.5-.4-.8-.9-.8-1.3 0-.5.3-.9.8-1.3l17.3-13c1.3-1 3.6-1 5 0l17.3 13c.5.4.8.8.8 1.3s-.3.9-.8 1.3l-17.3 13c-1.4 1-3.7 1-5 0" fill="#a1cd6d"/><path d="m22.1 96.3-17.3-13c-.5-.4-.8-.8-.8-1.3s.3-.9.8-1.3l17.3-13c1.3-1 3.6-1 5 0l17.3 13c.5.4.8.8.8 1.3s-.3.9-.8 1.3l-17.3 13c-1.4 1-3.7 1-5 0" fill="#74cee2"/><path d="m50 33.5-17.3-13c-.5-.4-.8-.9-.8-1.3 0-.5.3-.9.8-1.3l17.3-13c1.3-1 3.7-1 5 0l17.3 13c.5.4.8.9.8 1.3 0 .5-.3.9-.8 1.3l-17.3 13c-1.3 1-3.7 1-5 0" fill="#f1e955"/><path d="m50 75.4-17.3-13c-.5-.4-.8-.9-.8-1.3 0-.5.3-.9.8-1.3l17.3-13c1.3-1 3.7-1 5 0l17.3 13c.5.4.8.9.8 1.3 0 .5-.3.9-.8 1.3l-17.3 13c-1.3 1-3.7 1-5 0" fill="#65c4b9"/><path d="m50 118.1-17.3-13c-.5-.4-.8-.9-.8-1.3 0-.5.3-.9.8-1.3l17.3-13c1.3-1 3.7-1 5 0l17.3 13c.5.4.8.9.8 1.3 0 .5-.3.9-.8 1.3l-17.3 13c-1.3 1-3.7 1-5 0" fill="#0083c4"/><path d="m78 54.4-17.3-13c-.5-.4-.8-.9-.8-1.3 0-.5.3-.9.8-1.3l17.3-13c1.3-1 3.6-1 5 0l17.3 13c.5.4.8.8.8 1.3s-.3.9-.8 1.3l-17.3 13c-1.4 1-3.7 1-5 0" fill="#7cc04b"/><path d="m78 96.3-17.3-13c-.5-.4-.8-.9-.8-1.3 0-.5.3-.9.8-1.3l17.3-13c1.3-1 3.6-1 5 0l17.3 13c.5.4.8.8.8 1.3s-.3.9-.8 1.3l-17.3 13c-1.4 1-3.7 1-5 0" fill="#009ed9"/></svg>