<?xml version="1.0" encoding="utf-8"?>
<!-- Generator: Adobe Illustrator 18.1.1, SVG Export Plug-In . SVG Version: 6.00 Build 0)  -->
<svg version="1.2" baseProfile="tiny" id="Layer_1" xmlns="http://www.w3.org/2000/svg" xmlns:xlink="http://www.w3.org/1999/xlink"
	 x="0px" y="0px" width="792px" height="213px" viewBox="0 0 792 213" xml:space="preserve">
<g>
	<path fill="#010101" d="M116.5,94.4v74.2H98.3V99.4c0-6.6-1.2-11.5-3.6-14.6c-2.4-3.2-6.1-4.7-11.2-4.7c-3.9,0-8,1.1-12.2,3.3
		c-4.2,2.2-8.5,5.5-12.8,10v75.3H40.6V66.4h16.6v13.7c6-5.4,11.5-9.2,16.5-11.5c5-2.3,10.2-3.5,15.5-3.5c8.6,0,15.4,2.6,20.2,7.7
		C114.1,77.8,116.5,85.1,116.5,94.4"/>
	<path fill="#010101" d="M175.7,27.5v15c-4.3-0.3-6-0.5-7.5-0.6c-1.5-0.2-2.9-0.2-4-0.2c-4.2,0-7.1,1-8.9,2.9
		c-1.8,1.9-2.7,5.2-2.7,9.7v12.1H175v15.3h-22.3v87h-18v-87V66.4V51.8c0-8.4,2.2-14.7,6.6-19.1c4.4-4.4,10.8-6.6,19.2-6.6
		c1.7,0,3.7,0.1,5.9,0.4C168.5,26.6,170.9,27,175.7,27.5"/>
	<path fill="#010101" d="M221.4,64.6c13.3,0,23.7,4.5,31.1,13.6c7.4,9.1,11.1,21.8,11.1,38.2c0,16.4-3.7,29.2-11.1,38.3
		c-7.4,9.1-17.7,13.7-31.1,13.7c-13.3,0-23.7-4.6-31.2-13.7c-7.4-9.1-11.2-21.9-11.2-38.3c0-16.4,3.7-29.1,11.2-38.2
		C197.7,69.1,208.1,64.6,221.4,64.6 M221.4,80.3c-7.8,0-13.7,3.1-17.7,9.2c-4,6.1-6,15.1-6,27c0,12,2,21,6,27.2
		c4,6.2,9.9,9.2,17.7,9.2c7.7,0,13.6-3.1,17.6-9.2c4-6.2,6.1-15.2,6.1-27c0-11.9-2-21-6-27.1C235.1,83.3,229.2,80.3,221.4,80.3"/>
	<rect x="380.5" y="26.3" fill="#010101" width="17.9" height="142.4"/>
	<rect x="4.2" y="26.3" fill="#010101" width="17.9" height="142.4"/>
	<path fill="#010101" d="M298.1,168.7v-11.1c2.9,3.2,6.1,5.7,9.6,7.4c4.4,2.2,9.4,3.3,15,3.3c12.6,0,22.4-4.6,29.4-13.8
		c7-9.2,10.6-22.1,10.6-38.6c0-15.7-3.6-28.1-10.9-37.3c-7.3-9.2-17-13.8-29.3-13.8c-5,0-9.5,1.1-13.7,3.2
		c-4.1,2.1-7.7,5.2-10.8,9.3V26.3h-17.9v142.4H298.1z M337.9,143.9c-4.2,6.2-10.2,9.3-18,9.3c-4.1,0-7.9-1-11.5-3.1
		c-3.6-2.1-7.1-5.2-10.4-9.3V91.9c3.3-4,6.7-7.1,10.2-9.1c3.5-2,7.2-3,11-3c8.2,0,14.3,3.2,18.6,9.5c4.2,6.4,6.3,15.6,6.3,27.8
		C344.2,128.8,342.1,137.6,337.9,143.9"/>
	<path fill="#010101" d="M458,64.6c13.3,0,23.7,4.5,31,13.6c7.4,9.1,11.1,21.8,11.1,38.2c0,16.4-3.7,29.2-11.1,38.3
		c-7.4,9.1-17.7,13.7-31,13.7c-13.3,0-23.7-4.6-31.1-13.7c-7.4-9.1-11.2-21.9-11.2-38.3c0-16.4,3.7-29.1,11.2-38.2
		C434.3,69.1,444.6,64.6,458,64.6 M458,80.3c-7.8,0-13.7,3.1-17.7,9.2c-4,6.1-6,15.1-6,27c0,12,2,21,6,27.2c4,6.2,9.9,9.2,17.7,9.2
		c7.7,0,13.6-3.1,17.6-9.2c4.1-6.2,6.1-15.2,6.1-27c0-11.9-2-21-6-27.1C471.7,83.3,465.7,80.3,458,80.3"/>
	<polygon fill="#010101" points="506.1,64.6 526.8,64.6 545.7,98.9 564.8,64.6 584.4,64.6 555.7,113.8 588.1,168 567.2,168 
		545.3,127.7 523.2,168 503.4,168 535.6,113.8 	"/>
	<path fill="#9CCE6F" d="M648,95.4l-30.6-23c-0.9-0.7-1.4-1.5-1.4-2.3c0-0.8,0.5-1.7,1.4-2.3c0,0,30.6-23,30.6-23
		c2.3-1.8,6.4-1.8,8.8,0c0,0,30.6,23,30.6,23c0.9,0.7,1.4,1.5,1.4,2.3c0,0.8-0.5,1.7-1.4,2.3l-30.6,23
		C654.5,97.1,650.4,97.1,648,95.4"/>
	<path fill="#5ECDE2" d="M648,169.6l-30.6-23c-0.9-0.7-1.4-1.5-1.4-2.3c0-0.8,0.5-1.7,1.4-2.3c0,0,30.6-23,30.6-23
		c2.3-1.8,6.4-1.8,8.8,0c0,0,30.6,23,30.6,23c0.9,0.7,1.4,1.5,1.4,2.3c0,0.8-0.5,1.7-1.4,2.3l-30.6,23
		C654.5,171.4,650.4,171.4,648,169.6"/>
	<path fill="#F4EB5A" d="M697.5,58.4l-30.6-23c-0.9-0.7-1.4-1.5-1.4-2.4c0-0.8,0.5-1.6,1.4-2.3c0,0,30.6-23,30.6-23
		c2.4-1.8,6.5-1.8,8.8,0l30.6,23c0.9,0.7,1.4,1.5,1.4,2.3c0,0.8-0.5,1.7-1.4,2.4l-30.6,23C704,60.2,699.9,60.2,697.5,58.4"/>
	<path fill="#4BC5B9" d="M697.5,132.7l-30.6-23c-0.9-0.7-1.4-1.5-1.4-2.3c0-0.8,0.5-1.7,1.4-2.3c0,0,30.6-23,30.6-23
		c2.4-1.8,6.5-1.8,8.8,0l30.6,23c0.9,0.7,1.4,1.5,1.4,2.3c0,0.8-0.5,1.7-1.4,2.3l-30.6,23C704,134.4,699.9,134.4,697.5,132.7"/>
	<path fill="#0081C3" d="M697.5,208.2l-30.6-23c-0.9-0.7-1.4-1.5-1.4-2.4c0-0.8,0.5-1.7,1.4-2.3c0,0,30.6-23,30.6-23
		c2.4-1.8,6.5-1.8,8.8,0l30.6,23c0.9,0.7,1.4,1.5,1.4,2.3c0,0.8-0.5,1.7-1.4,2.4l-30.6,23C704,210,699.9,210,697.5,208.2"/>
	<path fill="#71C14E" d="M747,95.4l-30.6-23c-0.9-0.7-1.4-1.5-1.4-2.3c0-0.8,0.5-1.7,1.4-2.3c0,0,30.6-23,30.6-23
		c2.3-1.8,6.4-1.8,8.8,0c0,0,30.6,23,30.6,23c0.9,0.7,1.4,1.5,1.4,2.3c0,0.8-0.5,1.7-1.4,2.3l-30.6,23
		C753.5,97.1,749.3,97.1,747,95.4"/>
	<path fill="#009CD8" d="M747,169.6l-30.6-23c-0.9-0.7-1.4-1.5-1.4-2.3c0-0.8,0.5-1.7,1.4-2.3c0,0,30.6-23,30.6-23
		c2.3-1.8,6.4-1.8,8.8,0c0,0,30.6,23,30.6,23c0.9,0.7,1.4,1.5,1.4,2.3c0,0.8-0.5,1.7-1.4,2.3l-30.6,23
		C753.5,171.4,749.3,171.4,747,169.6"/>
</g>
<g>
</g>
<g>
</g>
<g>
</g>
<g>
</g>
<g>
</g>
<g>
</g>
</svg>
