<?xml version="1.0" encoding="utf-8"?>
<!-- Generator: Adobe Illustrator 18.1.1, SVG Export Plug-In . SVG Version: 6.00 Build 0)  -->
<svg version="1.1" id="Calque_1" xmlns="http://www.w3.org/2000/svg" xmlns:xlink="http://www.w3.org/1999/xlink" x="0px" y="0px"
	 width="32px" height="32px" viewBox="0 0 32 32" enable-background="new 0 0 32 32" xml:space="preserve">
<g>
	<path d="M4.6,15.4v3H3.9v-2.8c0-0.3,0-0.5-0.1-0.6c-0.1-0.1-0.2-0.2-0.5-0.2c-0.2,0-0.3,0-0.5,0.1c-0.2,0.1-0.3,0.2-0.5,0.4v3.1
		H1.5v-4.2h0.7v0.6c0.2-0.2,0.5-0.4,0.7-0.5c0.2-0.1,0.4-0.1,0.6-0.1c0.4,0,0.6,0.1,0.8,0.3C4.5,14.8,4.6,15.1,4.6,15.4"/>
	<path d="M7,12.7v0.6c-0.2,0-0.2,0-0.3,0c-0.1,0-0.1,0-0.2,0c-0.2,0-0.3,0-0.4,0.1c-0.1,0.1-0.1,0.2-0.1,0.4v0.5H7v0.6H6.1v3.5H5.4
		v-3.5v-0.6v-0.6c0-0.3,0.1-0.6,0.3-0.8c0.2-0.2,0.4-0.3,0.8-0.3c0.1,0,0.2,0,0.2,0C6.7,12.7,6.8,12.7,7,12.7"/>
	<path d="M8.9,14.2c0.5,0,1,0.2,1.3,0.6c0.3,0.4,0.5,0.9,0.5,1.6c0,0.7-0.1,1.2-0.5,1.6c-0.3,0.4-0.7,0.6-1.3,0.6
		c-0.5,0-1-0.2-1.3-0.6c-0.3-0.4-0.5-0.9-0.5-1.6c0-0.7,0.2-1.2,0.5-1.6C7.9,14.4,8.3,14.2,8.9,14.2 M8.9,14.9
		c-0.3,0-0.6,0.1-0.7,0.4c-0.2,0.2-0.2,0.6-0.2,1.1c0,0.5,0.1,0.9,0.2,1.1c0.2,0.3,0.4,0.4,0.7,0.4c0.3,0,0.6-0.1,0.7-0.4
		c0.2-0.3,0.2-0.6,0.2-1.1c0-0.5-0.1-0.9-0.2-1.1C9.4,15,9.2,14.9,8.9,14.9"/>
	<rect x="15.4" y="12.7" width="0.7" height="5.8"/>
	<rect x="0" y="12.7" width="0.7" height="5.8"/>
	<path d="M12,18.5V18c0.1,0.1,0.2,0.2,0.4,0.3c0.2,0.1,0.4,0.1,0.6,0.1c0.5,0,0.9-0.2,1.2-0.6c0.3-0.4,0.4-0.9,0.4-1.6
		c0-0.6-0.1-1.1-0.4-1.5c-0.3-0.4-0.7-0.6-1.2-0.6c-0.2,0-0.4,0-0.6,0.1c-0.2,0.1-0.3,0.2-0.4,0.4v-2.1h-0.7v5.8H12z M13.6,17.5
		c-0.2,0.3-0.4,0.4-0.7,0.4c-0.2,0-0.3,0-0.5-0.1c-0.1-0.1-0.3-0.2-0.4-0.4v-2c0.1-0.2,0.3-0.3,0.4-0.4c0.1-0.1,0.3-0.1,0.4-0.1
		c0.3,0,0.6,0.1,0.8,0.4c0.2,0.3,0.3,0.6,0.3,1.1C13.9,16.8,13.8,17.2,13.6,17.5"/>
	<path d="M18.5,14.2c0.5,0,1,0.2,1.3,0.6c0.3,0.4,0.5,0.9,0.5,1.6c0,0.7-0.2,1.2-0.5,1.6c-0.3,0.4-0.7,0.6-1.3,0.6
		c-0.5,0-1-0.2-1.3-0.6c-0.3-0.4-0.5-0.9-0.5-1.6c0-0.7,0.2-1.2,0.5-1.6C17.6,14.4,18,14.2,18.5,14.2 M18.5,14.9
		c-0.3,0-0.6,0.1-0.7,0.4c-0.2,0.2-0.2,0.6-0.2,1.1c0,0.5,0.1,0.9,0.2,1.1c0.2,0.3,0.4,0.4,0.7,0.4c0.3,0,0.6-0.1,0.7-0.4
		c0.2-0.3,0.2-0.6,0.2-1.1c0-0.5-0.1-0.9-0.2-1.1C19.1,15,18.8,14.9,18.5,14.9"/>
	<polygon points="20.5,14.2 21.3,14.2 22.1,15.6 22.9,14.2 23.7,14.2 22.5,16.2 23.8,18.4 23,18.4 22.1,16.8 21.2,18.4 20.4,18.4 
		21.7,16.2 	"/>
	<path fill="#8ED52C" d="M26.3,15.5L25,14.6c0,0-0.1-0.1-0.1-0.1c0,0,0-0.1,0.1-0.1c0,0,1.2-0.9,1.2-0.9c0.1-0.1,0.3-0.1,0.4,0
		c0,0,1.2,0.9,1.2,0.9c0,0,0.1,0.1,0.1,0.1c0,0,0,0.1-0.1,0.1l-1.2,0.9C26.5,15.6,26.4,15.6,26.3,15.5"/>
	<path fill="#38C9E5" d="M26.3,18.5L25,17.6c0,0-0.1-0.1-0.1-0.1c0,0,0-0.1,0.1-0.1c0,0,1.2-0.9,1.2-0.9c0.1-0.1,0.3-0.1,0.4,0
		c0,0,1.2,0.9,1.2,0.9c0,0,0.1,0.1,0.1,0.1c0,0,0,0.1-0.1,0.1l-1.2,0.9C26.5,18.6,26.4,18.6,26.3,18.5"/>
	<path fill="#EFE83F" d="M28.3,14L27,13C27,13,27,13,27,13c0,0,0-0.1,0.1-0.1c0,0,1.2-0.9,1.2-0.9c0.1-0.1,0.3-0.1,0.4,0l1.2,0.9
		c0,0,0.1,0.1,0.1,0.1c0,0,0,0.1-0.1,0.1L28.6,14C28.5,14.1,28.4,14.1,28.3,14"/>
	<path fill="#22C3B1" d="M28.3,17L27,16.1C27,16,27,16,27,16c0,0,0-0.1,0.1-0.1c0,0,1.2-0.9,1.2-0.9c0.1-0.1,0.3-0.1,0.4,0l1.2,0.9
		c0,0,0.1,0.1,0.1,0.1c0,0,0,0.1-0.1,0.1L28.6,17C28.5,17.1,28.4,17.1,28.3,17"/>
	<path fill="#0075C5" d="M28.3,20.1L27,19.1c0,0-0.1-0.1-0.1-0.1c0,0,0-0.1,0.1-0.1c0,0,1.2-0.9,1.2-0.9c0.1-0.1,0.3-0.1,0.4,0
		l1.2,0.9c0,0,0.1,0.1,0.1,0.1c0,0,0,0.1-0.1,0.1l-1.2,0.9C28.5,20.2,28.4,20.2,28.3,20.1"/>
	<path fill="#6FBC35" d="M30.3,15.5L29,14.6c0,0-0.1-0.1-0.1-0.1c0,0,0-0.1,0.1-0.1c0,0,1.2-0.9,1.2-0.9c0.1-0.1,0.3-0.1,0.4,0
		c0,0,1.2,0.9,1.2,0.9c0,0,0.1,0.1,0.1,0.1c0,0,0,0.1-0.1,0.1l-1.2,0.9C30.6,15.6,30.4,15.6,30.3,15.5"/>
	<path fill="#00A1DC" d="M30.3,18.5L29,17.6c0,0-0.1-0.1-0.1-0.1c0,0,0-0.1,0.1-0.1c0,0,1.2-0.9,1.2-0.9c0.1-0.1,0.3-0.1,0.4,0
		c0,0,1.2,0.9,1.2,0.9c0,0,0.1,0.1,0.1,0.1c0,0,0,0.1-0.1,0.1l-1.2,0.9C30.6,18.6,30.4,18.6,30.3,18.5"/>
</g>
</svg>
