<?xml version="1.0" encoding="UTF-8"?>
<svg enable-background="new 0 0 200 67.4" version="1.1" viewBox="0 0 200 67.4" xml:space="preserve" xmlns="http://www.w3.org/2000/svg">
<style type="text/css">
	.st0{fill:#E52B38;}
</style>

	<path class="st0" d="m17.8 4h-11.3c-0.2 0-0.4 0.1-0.4 0.3l-0.6 3.3c0 0.1 0 0.2 0.1 0.3 0 0.1 0.2 0.2 0.3 0.2 0.7 0 1.4 0.3 1.8 0.8 0.4 0.4 0.5 1 0.4 1.6l-6 30c-0.4 1.8 0 3.4 1 4.6s2.5 1.9 4.2 1.9h10.9c0.2 0 0.4-0.1 0.4-0.3l0.7-3.3c0-0.1 0-0.2-0.1-0.3s-0.2-0.2-0.3-0.2c-0.7 0-1.2-0.2-1.6-0.7-0.4-0.4-0.5-1.1-0.3-1.7l6-30c0.4-1.8 0-3.4-1-4.6s-2.5-1.9-4.2-1.9m65.6 38.9h-2.8c-0.6 0-1-0.2-1.4-0.6-0.3-0.4-0.4-0.8-0.4-1.4 0-0.2 0-0.4 0.1-0.6 0 0 2.6-13.4 3.1-15.6h4.9c0.2 0 0.4-0.1 0.4-0.3l0.8-3.7v-0.1c0-0.1 0-0.2-0.1-0.3s-0.2-0.2-0.3-0.2h-4.8c0.2-0.9 1.8-9.2 1.8-9.2v-0.1c0-0.1 0-0.2-0.1-0.3s-0.2-0.2-0.3-0.2h-5.9c-0.2 0-0.4 0.1-0.4 0.3l-1.1 3.3c-1.1 3.5-3.5 6-7.4 6h-3.8c-0.2 0-0.4 0.1-0.4 0.3l-0.7 3.7c0 0.1 0 0.2 0.1 0.3s0.2 0.2 0.3 0.2h2c-0.2 0.9-3.1 15.7-3.1 15.7-0.1 0.5-0.1 0.9-0.1 1.4 0 1.4 0.4 2.6 1.2 3.6 0.9 1.2 2.3 1.8 3.9 1.8h13.8c0.2 0 0.4-0.1 0.4-0.3l0.7-3.4c0-0.1 0-0.2-0.1-0.3-0.1 0.1-0.2 0-0.3 0m25.5-15.8s-0.6 2.7-0.7 3.3h-4.6c0.1-0.8 0.7-3.4 0.7-3.4 0.3-1.4 1.3-2.3 2.7-2.3 0.7 0 1.2 0.2 1.6 0.7 0.3 0.3 0.4 0.7 0.4 1.2-0.1 0.1-0.1 0.3-0.1 0.5m5.9-7h-17.8c-3.5 0-6.9 2.8-7.6 6.3l-2.6 13.9c-0.4 1.7 0 3.4 1 4.6s2.5 1.9 4.2 1.9h17.8c3.6 0 6.8-2.7 7.5-6.3l0.4-1.5c0-0.1 0-0.3-0.1-0.4s-0.2-0.2-0.3-0.2l-10.3 0.1c-0.2 0-0.4 0.1-0.4 0.3-0.1 0.7-0.4 1.6-0.4 1.6-0.3 1.4-1.5 2.5-2.9 2.5-0.6 0-1-0.2-1.3-0.6s-0.4-0.8-0.4-1.4c0-0.2 0-0.4 0.1-0.6 0 0 0.9-4.3 1.2-5.6h15.3c0.2 0 0.4-0.1 0.4-0.3l1.6-7.8c0.4-1.8 0-3.4-1-4.6-1.2-1.2-2.7-1.9-4.4-1.9m68.9 6.8-2.7 13.6c-0.3 1.4-1.3 2.3-2.7 2.3-0.7 0-1.2-0.2-1.6-0.7-0.4-0.4-0.5-1.1-0.3-1.7l2.7-13.5c0.3-1.4 1.3-2.3 2.7-2.3 0.7 0 1.2 0.2 1.6 0.7 0.3 0.3 0.4 0.9 0.3 1.6m13.2-5c-1-1.2-2.5-1.9-4.2-1.9h-20.8c-3.5 0-6.9 2.8-7.6 6.3l-2.8 13.9c-0.4 1.8 0 3.4 1 4.6s2.5 1.9 4.2 1.9h20.8c3.5 0 6.9-2.8 7.6-6.3l2.8-13.9c0.4-1.7 0-3.3-1-4.6m-43.3-1.8h-29.8c-0.2 0-0.4 0.1-0.4 0.3l-0.7 3.7c0 0.1 0 0.2 0.1 0.3s0.2 0.2 0.3 0.2c0.7 0 1.3 0.2 1.7 0.6 0.3 0.4 0.4 0.9 0.3 1.4l-0.4 1.8-2.8 13.7c-0.3 1.5-0.1 2.7 0.5 3.6 0.7 0.8 1.7 1.2 3.3 1.2h10.3c0.2 0 0.4-0.1 0.4-0.3 0 0 4.2-21.4 4.3-22.1h2.5c0.7 0 1.2 0.3 1.6 0.7s0.5 1 0.4 1.6l-0.6 2.8-2.4 12.3c-0.3 1.6-0.1 2.9 0.6 3.8 0.6 0.7 1.5 1.1 2.8 1.1h1.3 0.1 10.9c0.2 0 0.4-0.1 0.4-0.3l0.7-3.3c0-0.1 0-0.2-0.1-0.3s-0.2-0.2-0.3-0.2c-0.7 0-1.4-0.3-1.7-0.7-0.3-0.3-0.3-0.7-0.3-1.1l2.8-14.3c0.4-1.7 0-3.4-1-4.6-1.2-1.2-2.8-1.9-4.8-1.9m-98.4 0h-29.8c-0.2 0-0.4 0.1-0.4 0.3l-0.7 3.7v0.1c0 0.1 0 0.2 0.1 0.3s0.2 0.2 0.3 0.2c0.7 0 1.3 0.2 1.7 0.6 0.2 0.3 0.3 0.6 0.3 1v0.4l-0.4 1.8-2.8 13.8c-0.1 0.5-0.2 1-0.2 1.4 0 0.9 0.2 1.6 0.7 2.2 0.7 0.8 1.7 1.2 3.3 1.2h10.3c0.2 0 0.4-0.1 0.4-0.3 0 0 4.2-21.4 4.3-22.1h2.5c0.7 0 1.2 0.3 1.6 0.7s0.5 1 0.4 1.6l-0.6 2.9-2.4 12.2c-0.3 1.6-0.1 2.9 0.6 3.8 0.6 0.7 1.5 1.1 2.8 1.1h1.3 0.1 10.9c0.2 0 0.4-0.1 0.4-0.3l0.7-3.3c0-0.1 0-0.2-0.1-0.3s-0.2-0.1-0.3-0.1c-0.7 0-1.4-0.3-1.7-0.7-0.3-0.3-0.3-0.7-0.3-1.1l2.8-14.4c0.4-1.7 0-3.4-1-4.6-1.1-1.4-2.8-2.1-4.8-2.1"/>
	<path class="st0" d="m182 58.6v-3.4h1.9c1.2 0 2 0.6 2 1.7 0 1-0.7 1.7-1.9 1.7h-2zm-2.4 5.6h2.5v-3.4h1.9c2.5 0 4.5-1.3 4.5-3.9 0-2.3-1.6-3.9-4.3-3.9h-4.6v11.2zm-9 0.1c3 0 4.9-1.7 4.9-5v-6.3h-2.5v6.4c0 1.8-0.9 2.7-2.4 2.7s-2.4-0.9-2.4-2.8v-6.3h-2.5v6.4c0 3.3 1.9 4.9 4.9 4.9m-14.4-2.2c-2 0-3.4-1.6-3.4-3.5s1.4-3.5 3.3-3.5c2 0 3.4 1.6 3.4 3.5 0.1 1.9-1.3 3.5-3.3 3.5m0 2.3c3.4 0 6-2.6 6-5.8s-2.5-5.7-5.9-5.7-6 2.6-6 5.8c0 3.1 2.4 5.7 5.9 5.7m-16.1-6v-3.2h2.4c1.2 0 1.9 0.5 1.9 1.6 0 0.9-0.7 1.6-1.9 1.6h-2.4zm-2.5 5.8h2.5v-3.6h1.9l2.4 3.6h2.9l-2.7-4c1.4-0.5 2.4-1.7 2.4-3.5 0-1.1-0.3-1.9-1-2.6s-1.8-1.1-3.3-1.1h-5.1v11.2zm-8.7 0.2c2 0 3.6-0.8 4.8-1.8v-4.8h-4.8v2.1h2.5v1.6c-0.6 0.4-1.4 0.7-2.3 0.7-2 0-3.4-1.5-3.4-3.5 0-1.9 1.4-3.5 3.2-3.5 1.3 0 2.1 0.4 2.9 1.1l1.5-1.9c-1.2-1-2.4-1.5-4.4-1.5-3.4 0-5.9 2.6-5.9 5.8s2.4 5.7 5.9 5.7"/>

</svg>
