<svg viewBox="-153 -46 652 652" style="enable-background:new -153-46 652 652" xml:space="preserve" xmlns="http://www.w3.org/2000/svg"><path d="M-138.68 138.61H2.38v283.44h-141.06Zm0-108.02H2.38v74h-141.06Zm359.42 250.4c0 22.46 6.27 38.98 18.5 49.88 12.22 10.9 27.74 16.2 46.57 16.2 16.52 0 30.07-5.3 41.3-15.54 11.23-10.24 16.51-28.08 16.51-52.85 0-22.8-5.94-39.64-17.5-50.54-11.57-10.9-25.77-16.2-42.29-16.2-18.17 0-33.03 5.3-44.93 16.2-12.22 10.9-18.16 28.4-18.16 52.85M79.34 529.41v-390.8H211.5v41.96c18.16-17.51 35.01-29.4 50.2-35.68a181.36 181.36 0 0 1 68.39-12.56c49.22 0 87.21 14.54 114.3 43.61 27.09 29.07 40.3 64.75 40.3 107.36 0 47.24-14.53 83.25-43.93 108.03-29.4 24.77-66.4 37.33-111.33 37.33-21.8 0-41.62-2.98-59.46-8.6a145.02 145.02 0 0 1-47.9-25.43v134.78z" style="fill:#ff9e16;stroke-width:3.30348"/></svg>
