<?xml version="1.0" encoding="UTF-8"?>
<svg version="1.2" viewBox="0 0 572.64 265.55" xmlns="http://www.w3.org/2000/svg">
<g transform="translate(0 -526.45)">
<path d="m48.125 780.06c0 2.3555-0.5 4.3555-1.543 5.9648-1.0391 1.6211-3.1484 2.4414-6.4023 2.4414h-31.371c-5.875 0-8.8086-2.8008-8.8086-8.4062v-199.63c0-5.5938 2.9336-8.4024 8.8086-8.4024h31.371c3.2539 0 5.3633 0.8086 6.4023 2.4297 1.043 1.6406 1.543 3.6055 1.543 5.9727" fill="#0f0c0c"/>
<path d="m195.17 678.03 70.227 101.17c1.4648 2.3594 1.7578 4.4766 0.85938 6.3984-0.85938 1.9102-2.7891 2.875-5.7227 2.875h-37.555c-2.9297 0-5.2266-0.51953-6.832-1.5508-1.6211-1.0234-3.1914-2.7148-4.668-5.0742l-44.152-68.902-44.164 68.902c-2.6524 4.4062-6.6172 6.625-11.93 6.625h-37.094c-2.9648 0-4.7891-0.89844-5.543-2.6562-0.71484-1.7539-0.34766-3.9688 1.1094-6.6172l70.227-101.17-66.238-97.168c-1.4922-2.0469-1.8438-4.0469-1.1133-5.9414 0.74219-1.9297 2.5625-2.8906 5.5273-2.8906h37.531c3.2578 0 5.375 0.51953 6.4062 1.5391 1.0469 1.0352 2.4336 2.7383 4.1836 5.082l41.535 64.062 41.07-64.062c1.4727-2.3438 2.8047-4.0469 3.9844-5.082 1.1797-1.0195 3.0976-1.5391 5.7461-1.5391h39.316c3.5078 0 5.5859 0.88282 6.1836 2.6445 0.58203 1.7734 0.14453 3.8242-1.3242 6.1875" fill="#0f0c0c"/>
<path d="m336.66 780.06c0 2.3555-0.50391 4.3555-1.5234 5.9648-1.0391 1.6211-3.1641 2.4414-6.4102 2.4414h-31.363c-5.8789 0-8.8281-2.8008-8.8281-8.4062v-199.63c0-5.5938 2.9492-8.4024 8.8281-8.4024h31.363c3.2461 0 5.3711 0.8086 6.4102 2.4297 1.0195 1.6406 1.5234 3.6055 1.5234 5.9727" fill="#0f0c0c"/>
<path d="m499.77 689.97h-53.906c-11.199 0-20.012 2.5703-26.492 7.7226-6.5 5.1562-9.7266 14.957-9.7266 29.371 0 9.707 2.0039 16.418 5.9766 20.109 3.9688 3.6797 11.09 5.5078 21.395 5.5078 4.7227 0 9.8828-0.57422 15.48-1.7539 5.5977-1.1836 11.18-2.8203 16.789-4.8633 5.5781-2.0781 11.023-4.3633 16.344-6.8633 5.3047-2.4766 10-4.9102 14.141-7.2656zm2.6484 73.305c-11.203 8.5391-23.797 15.461-37.777 20.781-13.996 5.3008-28.484 7.9414-43.512 7.9414-11.77 0-21.57-1.543-29.375-4.6445-7.7891-3.0781-13.984-7.3438-18.555-12.816-4.5586-5.4336-7.7969-11.988-9.7031-19.645-1.9258-7.6484-2.8633-16.195-2.8633-25.609-0.32031-25.93 6.4492-44.684 20.297-56.34 13.848-11.625 34.754-17.434 62.746-17.434h56.523v-11.602c0-6.5195-0.66796-12.105-2.0078-16.703-1.3164-4.6055-3.7305-8.3984-7.2578-11.363-3.5469-2.9844-8.2656-5.0625-14.141-6.2383-5.8945-1.1992-13.41-1.8086-22.527-1.8086-3.5547 0-7.8711 0.17188-13.039 0.45704-5.1406 0.28906-10.457 0.57812-15.906 0.875-5.4375 0.30468-10.879 0.74218-16.352 1.3164-5.4453 0.60156-10.383 1.0391-14.789 1.3242-4.418 0.60156-7.4258 0.67578-9.043 0.24609-1.6406-0.46093-2.7266-2.293-3.3164-5.5156l-3.9805-16.156c-0.59766-2.9141-0.29297-5.3203 0.88672-7.2227 1.168-1.8789 4.2656-3.8516 9.2734-5.8984 4.7305-1.7344 10.305-3.207 16.789-4.3555 6.4688-1.1758 13.086-2.1133 19.879-2.8438 6.7656-0.7461 13.465-1.3203 20.105-1.7578 6.625-0.43359 12.559-0.64453 17.887-0.64453 19.121 0 34.352 1.918 45.703 5.7188 11.336 3.8359 19.941 9.2227 25.852 16.133 5.875 6.918 9.707 15.387 11.48 25.402 1.7617 10.02 2.6367 21.188 2.6367 33.566v85.254c0 4.4258 0.23047 7.8672 0.66797 10.363 0.45312 2.5156 1.1758 4.4375 2.2109 5.7617 1.043 1.3242 2.5664 2.2891 4.6524 2.8633 2.0469 0.59766 4.8398 1.043 8.3711 1.3242 3.2539 0.29688 5.4375 0.88672 6.6172 1.7578 1.1875 0.88672 1.7812 2.5078 1.7812 4.8672v18.562c0 5.0078-3.5312 8.082-10.617 9.2734-3.5039 0.57031-7.0586 1.0938-10.59 1.5312-3.5391 0.45703-6.8984 0.66797-10.156 0.66797-10.309 0-18.621-1.918-24.938-5.75-6.3594-3.8203-10.688-10.875-13.059-21.18" fill="#0f0c0c"/>
<path d="m58.344 526.45c2.3672 0 3.2344 1.6133 1.9336 3.5898l-10.418 15.797c-1.3008 1.9766-4.3047 3.5938-6.668 3.5938h-38.891c-2.3672 0-3.2266-1.6133-1.918-3.582l10.543-15.82c1.3086-1.9688 4.3164-3.5781 6.6836-3.5781" fill="#e31735"/>
<path d="m346.88 526.45c2.3672 0 3.2344 1.6133 1.9375 3.5898l-10.422 15.797c-1.3008 1.9766-4.3008 3.5938-6.668 3.5938h-38.891c-2.3672 0-3.2266-1.6133-1.918-3.582l10.543-15.82c1.3125-1.9688 4.3164-3.5781 6.6875-3.5781" fill="#3fa6c5"/>
</g>
</svg>
