<svg viewBox="0 0 125 21" xmlns="http://www.w3.org/2000/svg">
<path d="M15.692 14.398h.001c-.865 5.445-3.608 6.596-8.702 6.596-4.517 0-7.655-.477-6.87-5.417l.311-1.965h4.893l-.115.729c-.16 1.01-.251 1.74-.042 2.162.22.506.838.729 2.218.729 1.381 0 2.11-.168 2.566-.673.344-.421.513-1.01.655-1.909l2.218-13.977h5.044l-2.177 13.724zm19.342 6.456h-4.795l.098-1.094c-1.665.842-4.435 1.374-6.192 1.374-1.23 0-3.105-.195-4.104-1.178-.804-.786-1.07-1.796-.785-3.593.668-4.209 4.548-4.462 8.062-4.462 1.38 0 3.206.198 3.982.365l.13-.814c.174-1.095.213-1.656-.019-1.937-.295-.365-.773-.505-2.079-.505h-.827c-.728 0-1.414.057-1.869.393-.308.196-.471.59-.563 1.178l-.05.309h-5.144l.076-.477c.633-3.985 4.556-4.351 8.395-4.351 2.786 0 5.056.085 6.275 1.263.916.87 1.213 2.162.83 4.575l-1.42 8.953zm-4.534-3.537l.414-2.61c-.885-.112-2.223-.225-3.076-.225-2.333 0-3.016.505-3.222 1.796-.08.505-.046.927.185 1.207.315.392.814.561 2.07.561 1.204 0 2.868-.365 3.629-.73zm24.889 3.537h-5.094l1.367-8.616c.174-1.094.147-1.712-.168-2.105-.288-.393-.889-.561-1.843-.561-.929 0-2.622.393-3.424.701l-1.679 10.581h-5.095l2.303-14.511h4.743l-.079 1.291c1.598-.897 4.065-1.572 5.946-1.572 1.882 0 3.283.506 3.997 1.544.733 1.067.724 2.555.371 4.772l-1.345 8.476zm12.217-16.839h-5.094l.636-4.014h5.095l-.638 4.014zm-2.672 16.839h-5.095l2.302-14.511h5.094l-2.302 14.511zm17.962-4.378h.001c-.656 4.126-4.15 4.63-7.287 4.63-2.484 0-4.066-.168-4.912-1.15-.658-.758-.818-1.965-.501-3.957l1.069-6.737h-2.109l.464-2.919h2.108l.446-2.805 5.222-.954-.599 3.76h6.352l-.462 2.919h-6.351l-1.15 7.241c-.173 1.094.05 1.431 1.004 1.431h.326c1.154 0 1.449-.28 1.602-1.234l.151-.954h4.744l-.115.73zm14.709 4.378h.001-13.578l.553-3.48 8.325-7.549h-6.725l.552-3.481h12.723l-.543 3.424-8.311 7.606h7.555l-.552 3.48zm19.001 0h-4.796l.1-1.094c-1.665.842-4.435 1.374-6.193 1.374-1.229 0-3.105-.195-4.103-1.178-.805-.786-1.07-1.796-.786-3.593.669-4.209 4.548-4.462 8.062-4.462 1.381 0 3.207.198 3.982.365l.13-.814c.174-1.095.213-1.656-.019-1.937-.294-.365-.773-.505-2.079-.505h-.827c-.727 0-1.414.057-1.869.393-.308.196-.47.59-.563 1.178l-.051.309h-5.144l.076-.477c.632-3.985 4.556-4.351 8.395-4.351 2.785 0 5.056.085 6.274 1.263.918.87 1.215 2.162.832 4.575l-1.421 8.953zm-4.534-3.537l.414-2.61c-.886-.112-2.223-.225-3.077-.225-2.333 0-3.015.505-3.222 1.796-.08.505-.046.927.187 1.207.313.392.814.561 2.069.561 1.204 0 2.868-.365 3.629-.73zm9.81-8.841c-1.719 0-3.119-1.496-3.119-3.464 0-1.948 1.4-3.464 3.119-3.464 1.719 0 3.119 1.516 3.119 3.464 0 1.968-1.4 3.464-3.119 3.464zm0-6.21c-1.374 0-2.41 1.258-2.41 2.745 0 1.488 1.055 2.745 2.41 2.745 1.381 0 2.41-1.257 2.41-2.745 0-1.487-1.02-2.745-2.41-2.745zm.769 4.559l-.096-.672c-.025-.191-.051-.633-.181-.787-.104-.124-.252-.134-.441-.134h-.562v1.593h-.63v-3.705h1.279c.561 0 1.218.192 1.218.979 0 .376-.182.682-.475.845.259.143.31.393.354.72.051.392.137.796.207 1.161h-.674zm-.604-3.1h-.675v.931h.649c.44 0 .561-.229.561-.48 0-.231-.077-.451-.534-.451z" fill="#000"/>
</svg>
