<svg xmlns="http://www.w3.org/2000/svg" viewBox="0 0 128 110.92703" id="svg2"><style id="style3">.st0{fill:#fff}.st1{fill:#007ec5}.st2{fill:#231f20}</style><g transform="matrix(.675 0 0 .67535 -69.208 -1.567)" id="g3219"><path id="path14" class="st0" d="M103.81 86.33c11.29.28 65.85 2.53 93.54 2.43 27.68.1 82.25-2.14 93.54-2.43.78-.02 1.17.37 1.22.95.04-.94.05-1.89.05-2.85 0-.95-.02-1.89-.05-2.85-.05.6-.44.97-1.22.96-11.29-.3-65.87-2.55-93.54-2.41-27.7-.13-82.25 2.11-93.54 2.41-.77.02-1.16-.33-1.23-.91-.03.92-.05 1.86-.05 2.8 0 .94.02 1.88.05 2.8.07-.56.46-.92 1.23-.9" fill="#fff"/><path id="path16" class="st0" d="M103.17 74.92c.22-.84.85-1.27 1.71-1.24.85.02 64.15 3.64 92.47 3.87 28.3-.24 91.62-3.86 92.47-3.87.87-.03 1.52.44 1.72 1.31-.27-2.01-.62-3.99-1.04-5.95.02.77-.62 1.27-1.36 1.27-11.76-.22-72.92-1.56-91.8-1.56-18.86 0-80.02 1.34-91.78 1.56-.77 0-1.41-.54-1.36-1.32-.42 1.96-.76 3.94-1.03 5.93" fill="#fff"/><path id="path18" class="st0" d="M105.94 62.52c.28-.6.67-.89 1.36-.87 11.71.65 90.06 5.03 90.06 5.03s78.36-4.38 90.09-5.03c.64 0 1.02.25 1.29.8-.57-1.81-1.22-3.6-1.94-5.36.33.96-.17 1.56-1.11 1.57-1.98 0-42.64.51-42.64.51h-91.38s-40.67-.51-42.63-.51c-.94-.02-1.44-.6-1.14-1.5-.72 1.74-1.38 3.55-1.96 5.36" fill="#fff"/><path id="path20" class="st0" d="M288.73 106.43c-.27.55-.65.81-1.29.79-11.73-.64-90.09-5.03-90.09-5.03s-78.35 4.39-90.06 5.03c-.69.02-1.07-.25-1.36-.86.58 1.81 1.24 3.59 1.96 5.35-.3-.91.2-1.51 1.12-1.51 1.98-.02 42.64-.5 42.64-.5h91.38s40.67.48 42.64.5c.94 0 1.44.64 1.11 1.56.73-1.76 1.38-3.52 1.95-5.33" fill="#fff"/><path id="path22" class="st0" d="M291.55 93.88c-.2.87-.85 1.34-1.72 1.31-.85-.03-64.17-3.64-92.47-3.87-28.31.23-91.61 3.84-92.47 3.87-.86.04-1.49-.4-1.71-1.26.27 2.01.6 4.01 1.04 5.97-.05-.81.6-1.36 1.36-1.34 11.76.22 72.92 1.56 91.78 1.56 18.88 0 80.04-1.34 91.8-1.56.74-.02 1.38.5 1.36 1.27.41-1.94.76-3.93 1.03-5.95" fill="#fff"/><path id="path24" class="st1" d="M197.35 2.32c41.3 0 76.52 22.93 89.4 54.69.4.99-.1 1.66-1.07 1.66-1.98 0-42.64.51-42.64.51h-91.38s-40.67-.51-42.64-.51c-.97 0-1.47-.67-1.07-1.66 12.88-31.75 48.1-54.69 89.4-54.69" fill="#007ec5"/><path id="path26" class="st1" d="M197.35 68.75c18.88 0 80.04 1.34 91.8 1.56.81 0 1.49-.6 1.34-1.48-.18-1.07-1.36-5.28-1.64-6.11-.27-.76-.67-1.09-1.41-1.07-11.73.65-90.09 5.03-90.09 5.03S119 62.3 107.29 61.65c-.76-.02-1.16.32-1.42 1.07-.3.84-1.46 5.04-1.64 6.11-.15.87.52 1.48 1.34 1.48 11.76-.22 72.92-1.56 91.78-1.56" fill="#007ec5"/><path id="path28" class="st1" d="M197.35 80.13c27.68-.13 82.25 2.11 93.54 2.41.85.02 1.22-.44 1.22-1.11 0-1.34-.4-5.45-.54-6.3-.15-.97-.84-1.51-1.76-1.46-.85.02-64.17 3.64-92.47 3.87-28.31-.24-91.61-3.86-92.47-3.87-.92-.05-1.61.49-1.76 1.46-.15.85-.54 4.96-.54 6.3-.02.67.37 1.12 1.23 1.11 11.3-.3 65.86-2.54 93.55-2.41" fill="#007ec5"/><path id="path30" class="st1" d="M197.35 166.57c41.3 0 76.52-22.94 89.4-54.7.4-1.01-.1-1.66-1.07-1.66-1.98-.02-42.64-.5-42.64-.5h-91.38s-40.67.48-42.64.5c-.97 0-1.47.65-1.07 1.66 12.88 31.76 48.1 54.7 89.4 54.7" fill="#007ec5"/><path id="path32" class="st1" d="M197.35 100.12c18.88 0 80.04-1.34 91.8-1.56.81-.02 1.49.6 1.34 1.49-.18 1.05-1.36 5.28-1.64 6.1-.27.77-.67 1.09-1.41 1.07-11.73-.66-90.09-5.03-90.09-5.03s-78.35 4.37-90.06 5.03c-.76.02-1.16-.3-1.42-1.07-.3-.82-1.46-5.05-1.64-6.1-.15-.89.52-1.51 1.34-1.49 11.76.22 72.92 1.56 91.78 1.56" fill="#007ec5"/><path id="path34" class="st1" d="M197.35 88.74c27.68.12 82.25-2.13 93.54-2.41.85-.02 1.22.42 1.22 1.1 0 1.33-.4 5.43-.54 6.3-.15.97-.84 1.49-1.76 1.46-.85-.03-64.17-3.64-92.47-3.87-28.31.23-91.61 3.84-92.47 3.87-.92.04-1.61-.48-1.76-1.46-.15-.87-.54-4.98-.54-6.3-.02-.68.37-1.12 1.23-1.1 11.3.28 65.86 2.53 93.55 2.41" fill="#007ec5"/></g></svg>