<svg viewBox="0 0 116.46713 64.166374" xmlns="http://www.w3.org/2000/svg"><g fill="#014ea0"><path d="m28.913 25.762c.06.466.148 1.13.148 1.13h16.102l-.872-6.578c.113-.147 15.313-20.314 15.313-20.314h-16.211s-9.708 12.877-11.065 14.68l4.525-14.68h-16.123l-8.288 26.893h16.118s.198-.644.352-1.131m16.29 2.946h-15.902l.51 3.837h16.102l-.51-3.837zm1.458 9.489-.508-3.837h-16.104l.507 3.837zm.783 5.905-.543-4.091h-16.1l.537 4.091zm-22.925-4.092h-16.118l-1.258 4.092h16.115l1.262-4.091zm1.746-5.65h-16.12l-1.185 3.837h16.12zm1.74-5.652h-16.12l-1.182 3.837h16.116zm79.874-1.815 8.29-26.893h-16.12l-8.288 26.893h16.117zm-.56 1.815h-16.118l-1.184 3.837h16.121zm-20.864 15.394h16.12l1.263-4.091h-16.12zm19.121-9.742h-16.115l-1.181 3.837h16.116l1.181-3.837zm-38.232-22.016-4.485 14.549h16.116l4.488-14.549h10.825l3.732-12.304h-37.551l-3.733 12.305h10.608m-9.79 31.757h16.119l1.26-4.091h-16.12l-1.26 4.091zm19.121-9.742h-16.116l-1.184 3.837h16.116zm1.741-5.652h-16.12l-1.18 3.837h16.12zm-62.92 23.295v7.305l-4.048-7.305h-3.111v11.848h2.896v-7.452c.695 1.244 4.18 7.452 4.18 7.452h2.978v-11.848zm8.545 6.868h6.088v-2.43h-6.088v-1.966h6.638v-2.472h-9.651v11.847h9.956v-2.501h-6.943v-2.479zm7.48-6.868v2.473h3.768v9.375h3.09v-9.375h3.75v-2.473zm38.145 1.033c.002.002.002.004.002.007.005 0 .005 0 .008.002z"/><path d="m65.412 51.655c-1.84 0-3.277.468-4.26 1.39-1.31 1.078-1.978 2.719-1.978 4.866 0 2.107.666 3.747 1.985 4.872.976.917 2.409 1.383 4.253 1.383 1.846 0 3.278-.466 4.262-1.39 1.304-1.118 1.97-2.758 1.97-4.865 0-2.146-.669-3.782-1.977-4.868-.984-.92-2.414-1.388-4.255-1.388m-2.313 3.438c.579-.65 1.336-.965 2.313-.965.978 0 1.73.317 2.3.968.568.655.856 1.602.856 2.815 0 1.218-.288 2.17-.856 2.82-.567.65-1.322.967-2.3.967-.977 0-1.734-.317-2.313-.968-.576-.651-.869-1.601-.869-2.819s.293-2.166.87-2.818m20.305 7.545-.064-1.008v-.765c0-.848-.126-1.471-.395-1.901-.197-.321-.601-.531-.999-.741.549-.243.997-.57 1.263-1.038.32-.552.482-1.127.482-1.71l-.258-1.288-.685-1.023a3.455 3.455 0 0 0 -1.29-.852c-.498-.19-1.205-.294-2.107-.31h-6.38v11.848h3.015v-4.467h2.477c.888 0 1.267.167 1.43.309.225.195.347.638.36 1.283l.013 1.062.118 1.026.222.795.17-.008h3.112v-.585l-.12-.123zm-7.418-8.203h2.815l1.18.18c.423.199.628.585.628 1.187 0 .55-.205.89-.64 1.073l-1.24.169h-2.743zm21.429-2.432h-3.97c-.131.053-3.496 3.303-4.614 4.384v-4.384h-3.03v11.848h3.03v-3.94c.11-.1.747-.7.997-.93.28.362 3.786 4.87 3.786 4.87h3.95s-5.308-6.591-5.565-6.905l5.415-4.943m9.835 5.78c-.515-.368-1.247-.651-2.229-.865l-2.163-.473-1.574-.45c-.325-.166-.471-.39-.471-.712 0-.361.158-.636.492-.841.364-.227.866-.339 1.496-.339.572 0 1.053.089 1.427.264.535.255.82.671.857 1.271l.014.211h2.966l-.011-.234c-.048-1.28-.574-2.273-1.563-2.95-.967-.66-2.148-.995-3.511-.995-1.629 0-2.886.36-3.737 1.065-.873.717-1.312 1.632-1.312 2.718 0 1.199.464 2.092 1.377 2.659.52.33 1.43.626 2.776.903l1.329.272 1.64.508c.296.165.43.38.43.675 0 .545-.298.9-.94 1.108l-1.435.174c-.96 0-1.64-.213-2.015-.63-.203-.222-.34-.577-.415-1.049l-.03-.193h-2.917v.228c0 1.254.503 2.257 1.494 2.977.971.703 2.313 1.06 3.988 1.06 1.642 0 2.936-.365 3.85-1.08.927-.73 1.4-1.665 1.4-2.772 0-1.088-.41-1.931-1.213-2.51m-52.12-5.78-1.257 6.423c-.392-1.394-1.816-6.423-1.816-6.423h-2.725s-1.422 5.03-1.819 6.423l-1.252-6.423h-3.139l2.905 11.848h2.7l1.97-7.908c.351 1.425 1.965 7.908 1.965 7.908h2.701l2.903-11.848zm-48.342-1.136h102.027v-5.185h-102.027z"/></g></svg>