<svg xmlns="http://www.w3.org/2000/svg" version="1.1" id="svg8"><defs id="defs4"><style id="style2">.c{fill:#1a1a18}</style></defs><g id="g4528" transform="scale(.17173)" style="stroke-width:5.82307482"><path style="fill:#1a1a18;stroke-width:5.82307482" data-name="Ebene 1" id="a" d="M115.66 0 0 115.65l115.66 115.66 115.66-115.66Zm97.23 115.65-47.06 47.06c1.15-2.46 1.75-5.09 1.75-7.71 0-8.95-6.21-16.67-18.18-18.89l-8.43-1.6c-4.35-.79-6.21-3.01-6.21-6.03 0-3.46 3.38-6.74 8.61-6.74 7.37 0 9.84 4.63 10.4 7.58l12.23-5.07c-1.94-7-8.13-14.93-22.55-14.93-5.33 0-10.35 1.64-14.29 4.48 4.8-6.58 9.71-12.9 15.2-18.39 15.82-15.82 24.9-20.65 26.76-21.54l41.77 41.77Zm-51.64-51.64c-1.85.89-10.93 5.71-26.76 21.54-8.26 8.26-15.25 18.34-22.43 28.46l-7.95-15.84c6.4-3.72 9.04-11.02 9.04-17.74 0-11.17-7.98-19.68-20.39-19.68H73.33l42.33-42.32 45.59 45.59zM98.97 80.52c0 4.43-3.1 7.63-8.87 7.63h-8.25V72.89h8.25c5.77 0 8.87 2.92 8.87 7.63zm-80.54 35.13 49.42-49.42v57.39h14.01v-23.41h8.34l12.67 26.34c-3.64 4.7-7.46 9.23-11.63 13.41-15.87 15.87-25.66 20.69-27.14 21.37l-45.67-45.67Zm55.55 55.55c1.49-.68 11.28-5.52 27.14-21.37 7.73-7.72 14.25-16.69 20.6-25.64-.49 1.69-.78 3.47-.78 5.35 0 9.32 6.47 16.41 17.11 18.45l8.59 1.6c4.17.8 6.74 3.11 6.74 6.3 0 3.9-3.36 6.56-8.87 6.56-8.43 0-12.32-4.85-12.98-10.47l-12.5 5.18c1.9 8.37 9.47 17.7 25.31 17.7 4.63 0 8.61-.96 11.91-2.57l-40.59 40.59-41.69-41.69z" class="c"/><path style="fill:#1a1a18;stroke-width:5.82307482" data-name="Layer 1" id="b" d="M483.84 60.56h-21.77v107.3h65.94v-17.73h-44.17Zm252.37 101.08L703.08 60.56h-42.14v107.3h21.77V66.78l33.12 101.08h42.15V60.56h-21.77ZM613.52 60.56h-38.19l-34.52 107.31h21.77l8.37-26.28h46.97l8.37 26.28h21.77L613.54 60.56Zm-36.82 62.98 17.73-55.21 17.73 55.21Zm266.79 21.93c-4.67 4.15-10.52 6.22-17.57 6.22-9.33 0-16.8-3.32-22.39-9.95-5.6-6.63-8.4-15.81-8.4-27.53s2.69-20.89 8.09-27.53c5.39-6.63 12.6-9.95 21.62-9.95 7.46 0 13.45 2.02 17.96 6.07 4.51 4.04 7.33 9.95 8.48 17.73h22.55c-.73-6.32-2.57-12.05-5.52-17.18-2.95-5.13-6.64-9.49-11.04-13.06-4.41-3.58-9.46-6.35-15.16-8.32-5.7-1.97-11.66-2.95-17.88-2.95-7.57 0-14.52 1.45-20.84 4.35-6.32 2.9-11.74 6.82-16.25 11.74-4.51 4.93-8.04 10.76-10.57 17.5-2.54 6.74-3.81 13.95-3.81 21.62 0 7.67 1.27 14.88 3.81 21.62s6.09 12.57 10.65 17.5c4.56 4.93 10.03 8.84 16.41 11.74 6.38 2.9 13.35 4.35 20.92 4.35 6.22 0 12.18-.96 17.88-2.88 5.7-1.92 10.78-4.67 15.24-8.24 4.46-3.58 8.16-7.93 11.12-13.06 2.95-5.13 4.79-10.86 5.52-17.18h-22.55c-.83 7.47-3.58 13.27-8.24 17.42zm141.78-52.88c-2.54-6.74-6.07-12.57-10.57-17.5-4.51-4.92-9.93-8.84-16.25-11.74-6.32-2.9-13.32-4.35-21-4.35s-14.67 1.45-20.99 4.35c-6.32 2.9-11.74 6.82-16.25 11.74-4.51 4.93-8.04 10.76-10.57 17.5-2.54 6.74-3.81 13.95-3.81 21.62 0 7.67 1.27 14.88 3.81 21.62s6.06 12.57 10.57 17.5c4.51 4.93 9.93 8.84 16.25 11.74 6.32 2.9 13.32 4.35 20.99 4.35 7.67 0 14.67-1.45 21-4.35 6.32-2.9 11.74-6.82 16.25-11.74s8.03-10.75 10.57-17.5c2.54-6.74 3.81-13.94 3.81-21.62 0-7.68-1.27-14.88-3.81-21.62zm-26.9 49.14c-5.55 6.64-12.52 9.95-20.92 9.95-8.4 0-15.37-3.32-20.92-9.95-5.55-6.63-8.32-15.81-8.32-27.53s2.77-20.89 8.32-27.53c5.54-6.63 12.52-9.95 20.92-9.95 8.4 0 15.37 3.32 20.92 9.95 5.54 6.64 8.32 15.81 8.32 27.53s-2.78 20.89-8.32 27.53zm67.49-74.95 22.86 101.08h40.13l22.86-101.08v101.08h21.77V60.56h-41.83l-22.86 101.08-22.87-101.08h-41.83v107.3h21.77zM906.05 208.3l-5.03-.89c-3.98-.69-7.52-2.18-7.52-6.39 0-4.21 3.48-6.5 8.9-6.5s9.13 2.27 9.4 7.47h5.36c-.33-8.3-7.02-12.17-14.77-12.17s-14.21 3.84-14.21 11.26 5.7 10.07 11.01 11.01l5.03.88c4.18.75 8.02 2.21 8.02 6.58s-3.37 7.05-9.24 7.05-10.29-2.65-10.67-9.13h-5.36c.28 9.57 7.8 13.83 16.04 13.83 8.24 0 14.55-4.29 14.55-11.81 0-7.52-5.67-10.18-11.5-11.2zm66.56 0-5.03-.89c-3.98-.69-7.52-2.18-7.52-6.39 0-4.21 3.48-6.5 8.9-6.5s9.13 2.27 9.4 7.47h5.36c-.33-8.3-7.02-12.17-14.77-12.17s-14.21 3.84-14.21 11.26 5.7 10.07 11.01 11.01l5.03.88c4.18.75 8.02 2.21 8.02 6.58s-3.37 7.05-9.24 7.05-10.29-2.65-10.67-9.13h-5.36c.28 9.57 7.8 13.83 16.04 13.83 8.24 0 14.55-4.29 14.55-11.81 0-7.52-5.67-10.18-11.5-11.2zm14.74-12.88h12.72v35.06h5.31v-35.06h12.72v-4.76h-30.75zm42.41 16.7h17.97v-4.76h-17.97v-11.94h19.91v-4.76h-25.22v39.82h25.5v-4.75h-20.19zm47.42 14.68-11.72-36.14h-9.43v39.82h5.25v-36.17l11.73 36.17h8.35l11.72-36.17v36.17h5.26v-39.82h-9.43zm45.73-18.5-5.03-.89c-3.98-.69-7.52-2.18-7.52-6.39 0-4.21 3.48-6.5 8.9-6.5s9.13 2.27 9.4 7.47h5.36c-.33-8.3-7.02-12.17-14.77-12.17s-14.21 3.84-14.21 11.26 5.7 10.07 11.01 11.01l5.03.88c4.18.75 8.02 2.21 8.02 6.58s-3.37 7.05-9.24 7.05-10.29-2.65-10.67-9.13h-5.36c.28 9.57 7.8 13.83 16.04 13.83 8.24 0 14.55-4.29 14.55-11.81 0-7.52-5.67-10.18-11.5-11.2zm-187.3-.46-11.51-17.18h-6.01l14.87 22.21v17.61h5.3v-17.61l14.87-22.21h-6.01z" class="c"/></g></svg>
