<?xml version="1.0" encoding="utf-8"?>
<!-- Generator: Adobe Illustrator 16.0.0, SVG Export Plug-In . SVG Version: 6.00 Build 0)  -->
<!DOCTYPE svg PUBLIC "-//W3C//DTD SVG 1.1//EN" "http://www.w3.org/Graphics/SVG/1.1/DTD/svg11.dtd">
<svg version="1.1" id="Ebene_1" xmlns="http://www.w3.org/2000/svg" xmlns:xlink="http://www.w3.org/1999/xlink" x="0px" y="0px"
	 viewBox="0 0 405.882 144" enable-background="new 0 0 405.882 144" xml:space="preserve">
<g>
	<g>
		<defs>
			<rect id="SVGID_1_" y="28.907" width="403.758" height="101.238"/>
		</defs>
		<clipPath id="SVGID_2_">
			<use xlink:href="#SVGID_1_"  overflow="visible"/>
		</clipPath>
		<polygon clip-path="url(#SVGID_2_)" fill-rule="evenodd" clip-rule="evenodd" fill="#1D1D1B" points="3.973,73.591 3.973,29.421 
			14.258,29.421 14.258,65.298 47.362,65.298 47.362,73.591 3.973,73.591 		"/>
		<path clip-path="url(#SVGID_2_)" fill-rule="evenodd" clip-rule="evenodd" fill="#1D1D1B" d="M89.62,38.013l9.501,17.918h-19.35
			L89.62,38.013L89.62,38.013z M70.228,73.591l5.162-9.678h28.028l5.294,9.678h11.543l-25.339-44.17h-9.895l-25.036,44.17H70.228
			L70.228,73.591z"/>
		<path clip-path="url(#SVGID_2_)" fill-rule="evenodd" clip-rule="evenodd" fill="#1D1D1B" d="M133.055,73.591v-44.17h7.031
			l31.153,26.031c1.041,0.871,1.995,1.693,2.818,2.43c0.782,0.783,1.521,1.561,2.216,2.387c-0.177-2.473-0.264-4.252-0.35-5.297
			c-0.043-0.998-0.087-1.816-0.087-2.34V29.421h9.202v44.17h-7.031l-32.499-27.295c-0.78-0.689-1.435-1.299-2.038-1.863
			c-0.565-0.562-1.131-1.129-1.648-1.736c0.17,1.387,0.259,2.689,0.346,3.861c0.042,1.215,0.083,2.297,0.083,3.168v23.865H133.055
			L133.055,73.591z"/>
		<path clip-path="url(#SVGID_2_)" fill-rule="evenodd" clip-rule="evenodd" fill="#1D1D1B" d="M241.572,37.271h-27.729v28.027
			h27.729v-9.502l10.239,2.129v5.252c0,3.992-0.739,6.768-2.254,8.199c-1.522,1.473-4.43,2.215-8.642,2.215h-26.42
			c-4.25,0-7.158-0.742-8.631-2.215c-1.525-1.432-2.26-4.207-2.26-8.199V39.831c0-3.992,0.734-6.727,2.26-8.199
			c1.473-1.473,4.381-2.211,8.631-2.211h26.42c4.212,0,7.119,0.738,8.642,2.211c1.515,1.473,2.254,4.207,2.254,8.199v4.211
			l-10.239,1.648V37.271L241.572,37.271z"/>
		<path clip-path="url(#SVGID_2_)" fill-rule="evenodd" clip-rule="evenodd" fill="#1D1D1B" d="M280.488,37.271h33.886v28.027
			h-33.886V37.271L280.488,37.271z M270.25,63.177c0,3.992,0.736,6.768,2.258,8.199c1.475,1.473,4.383,2.215,8.637,2.215h32.541
			c4.293,0,7.201-0.742,8.676-2.215c1.523-1.432,2.26-4.207,2.26-8.199V39.831c0-3.992-0.736-6.727-2.26-8.199
			c-1.475-1.473-4.383-2.211-8.676-2.211h-32.541c-4.254,0-7.162,0.738-8.637,2.211c-1.521,1.473-2.258,4.207-2.258,8.199V63.177
			L270.25,63.177z"/>
		<path clip-path="url(#SVGID_2_)" fill-rule="evenodd" clip-rule="evenodd" fill="#1D1D1B" d="M342.889,73.591v-44.17h8.282
			l20.827,26.725l20.348-26.725h8.243v44.17h-9.503V46.343c0-0.566,0.049-1.215,0.092-2.043c0.084-0.781,0.174-1.691,0.299-2.688
			c-0.559,1.127-1.078,2.082-1.473,2.82c-0.434,0.734-0.824,1.344-1.129,1.82l-16.618,22.043h-2.039l-16.659-22.131
			c-0.609-0.865-1.127-1.646-1.564-2.383c-0.432-0.736-0.823-1.434-1.086-2.127c0.09,0.912,0.129,1.734,0.177,2.475
			c0.042,0.779,0.086,1.477,0.086,2.213v27.248H342.889L342.889,73.591z"/>
		<path clip-path="url(#SVGID_2_)" fill-rule="evenodd" clip-rule="evenodd" fill="#1D1D1B" d="M10.395,123.962
			c-1.39,0-2.602-0.131-3.6-0.432c-1-0.262-1.91-0.652-2.822-1.086v-3.254h0.217c0.825,0.824,1.822,1.432,2.907,1.867
			c1.085,0.43,2.124,0.65,3.123,0.65c1.431,0,2.517-0.264,3.253-0.869c0.737-0.609,1.086-1.387,1.086-2.385
			c0-0.783-0.172-1.393-0.565-1.91c-0.391-0.479-0.994-0.826-1.817-1.088c-0.613-0.17-1.175-0.297-1.654-0.428
			c-0.518-0.088-1.127-0.264-1.863-0.438c-0.696-0.174-1.303-0.391-1.824-0.697c-0.522-0.258-1-0.605-1.432-1.037
			c-0.39-0.436-0.696-0.957-0.912-1.521c-0.259-0.607-0.344-1.256-0.344-2.037c0-1.561,0.607-2.904,1.863-3.947
			c1.216-1.088,2.777-1.648,4.686-1.648c1.13,0,2.17,0.131,3.126,0.342c0.954,0.219,1.866,0.525,2.688,0.916v3.125H16.34
			c-0.609-0.566-1.434-1.045-2.388-1.477c-0.952-0.434-1.995-0.609-3.081-0.609c-1.173,0-2.167,0.264-2.907,0.824
			c-0.736,0.564-1.127,1.305-1.127,2.215c0,0.824,0.216,1.52,0.649,1.996c0.438,0.479,1.086,0.822,1.91,1.086
			c0.561,0.129,1.216,0.301,2.039,0.475c0.783,0.215,1.432,0.393,1.952,0.523c1.35,0.432,2.344,1.041,2.953,1.863
			c0.647,0.824,0.957,1.865,0.957,3.082c0,0.779-0.178,1.518-0.479,2.254c-0.307,0.74-0.743,1.391-1.305,1.912
			c-0.648,0.561-1.344,0.996-2.126,1.301C12.605,123.831,11.61,123.962,10.395,123.962L10.395,123.962z"/>
		<polygon clip-path="url(#SVGID_2_)" fill-rule="evenodd" clip-rule="evenodd" fill="#1D1D1B" points="33.607,108.993 
			25.713,129.083 23.02,129.083 25.665,122.923 20.33,108.993 23.02,108.993 27.014,119.839 31.003,108.993 33.607,108.993 		"/>
		<path clip-path="url(#SVGID_2_)" fill-rule="evenodd" clip-rule="evenodd" fill="#1D1D1B" d="M42.11,123.962
			c-0.996,0-1.905-0.131-2.776-0.389c-0.822-0.262-1.56-0.52-2.125-0.824v-2.777h0.129c0.218,0.176,0.477,0.391,0.738,0.564
			c0.305,0.215,0.695,0.436,1.172,0.65c0.389,0.172,0.867,0.348,1.346,0.521c0.52,0.131,1.041,0.215,1.563,0.215
			c0.391,0,0.823-0.041,1.256-0.129c0.478-0.131,0.781-0.221,0.997-0.391c0.306-0.174,0.521-0.389,0.655-0.652
			c0.169-0.215,0.211-0.562,0.211-0.998c0-0.605-0.129-1.041-0.474-1.346c-0.307-0.303-0.871-0.561-1.65-0.777
			c-0.307-0.09-0.738-0.176-1.26-0.262c-0.473-0.088-0.951-0.217-1.386-0.346c-1.13-0.305-1.955-0.828-2.431-1.477
			c-0.52-0.693-0.78-1.518-0.78-2.473c0-1.346,0.519-2.428,1.517-3.256c0.999-0.824,2.301-1.258,3.951-1.258
			c0.824,0,1.646,0.131,2.471,0.305c0.827,0.217,1.519,0.475,2.082,0.783v2.645h-0.128c-0.608-0.521-1.344-0.908-2.081-1.217
			c-0.782-0.26-1.565-0.43-2.343-0.43c-0.827,0-1.521,0.17-2.081,0.518c-0.526,0.35-0.827,0.869-0.827,1.564
			c0,0.607,0.173,1.082,0.478,1.387c0.349,0.303,0.866,0.566,1.603,0.738c0.349,0.088,0.78,0.176,1.216,0.307
			c0.435,0.08,0.914,0.168,1.43,0.297c1.087,0.262,1.909,0.738,2.431,1.348c0.565,0.65,0.827,1.521,0.827,2.604
			c0,0.607-0.133,1.215-0.349,1.779c-0.263,0.564-0.65,1.043-1.128,1.475c-0.52,0.434-1.128,0.736-1.781,0.998
			C43.932,123.876,43.108,123.962,42.11,123.962L42.11,123.962z"/>
		<path clip-path="url(#SVGID_2_)" fill-rule="evenodd" clip-rule="evenodd" fill="#1D1D1B" d="M57.558,123.962
			c-1.343,0-2.387-0.344-3.167-1.125c-0.737-0.785-1.129-1.998-1.129-3.646v-8.115h-1.65v-2.082h1.65v-4.207h2.517v4.207h4.512
			v2.082h-4.512v6.988c0,0.736,0,1.301,0.043,1.736c0,0.389,0.131,0.779,0.306,1.125c0.129,0.305,0.345,0.52,0.691,0.697
			c0.349,0.129,0.781,0.217,1.345,0.217c0.389,0,0.781-0.045,1.173-0.176c0.39-0.129,0.648-0.219,0.822-0.305h0.13v2.215
			c-0.474,0.131-0.953,0.215-1.431,0.303C58.382,123.962,57.951,123.962,57.558,123.962L57.558,123.962z"/>
		<path clip-path="url(#SVGID_2_)" fill-rule="evenodd" clip-rule="evenodd" fill="#1D1D1B" d="M66.233,114.681
			c0.087-0.609,0.177-1.176,0.396-1.652c0.17-0.479,0.475-0.908,0.823-1.301c0.388-0.344,0.78-0.652,1.258-0.867
			c0.478-0.174,0.997-0.303,1.689-0.303c0.654,0,1.216,0.129,1.65,0.303c0.479,0.215,0.827,0.475,1.127,0.867
			c0.262,0.305,0.437,0.74,0.611,1.215c0.125,0.479,0.214,1.086,0.214,1.738H66.233L66.233,114.681z M72.614,123.876
			c0.392-0.088,0.824-0.172,1.298-0.303c0.35-0.088,0.741-0.217,1.174-0.391c0.433-0.176,0.781-0.305,1.085-0.434v-2.689h-0.174
			c-0.174,0.17-0.434,0.348-0.736,0.52c-0.304,0.219-0.694,0.393-1.13,0.607c-0.431,0.172-0.909,0.348-1.431,0.477
			c-0.521,0.131-1.041,0.176-1.606,0.176c-1.518,0-2.69-0.436-3.557-1.35c-0.867-0.908-1.304-2.213-1.304-3.945H76.43v-1.305
			c0-1.168-0.169-2.166-0.432-2.99c-0.263-0.779-0.693-1.475-1.215-2.039c-0.521-0.562-1.129-0.957-1.823-1.217
			c-0.693-0.303-1.521-0.434-2.43-0.434c-1.995,0-3.642,0.738-4.901,2.127c-1.261,1.434-1.868,3.342-1.868,5.727
			c0,2.43,0.653,4.295,1.953,5.6c1.255,1.299,3.079,1.949,5.422,1.949C71.749,123.962,72.223,123.962,72.614,123.876L72.614,123.876
			z"/>
		<path clip-path="url(#SVGID_2_)" fill-rule="evenodd" clip-rule="evenodd" fill="#1D1D1B" d="M98.039,123.659v-8.5
			c0-0.656,0-1.305-0.085-1.871c-0.042-0.561-0.128-1.039-0.306-1.344c-0.172-0.348-0.431-0.609-0.736-0.781
			c-0.349-0.172-0.781-0.258-1.345-0.258c-0.479,0-1.043,0.17-1.605,0.479c-0.562,0.301-1.17,0.775-1.823,1.344
			c0.042,0.17,0.042,0.346,0.042,0.561c0,0.176,0.047,0.434,0.047,0.695v9.676h-2.52v-8.5c0-0.656,0-1.305-0.04-1.871
			c-0.088-0.561-0.177-1.039-0.347-1.344c-0.174-0.348-0.437-0.609-0.74-0.781c-0.345-0.172-0.783-0.258-1.3-0.258
			c-0.564,0-1.13,0.17-1.694,0.518c-0.565,0.348-1.173,0.736-1.69,1.256v10.98H81.38v-14.666h2.516v1.605
			c0.651-0.648,1.259-1.127,1.907-1.473c0.652-0.35,1.344-0.566,2.081-0.566c0.868,0,1.653,0.217,2.302,0.609
			c0.694,0.391,1.215,1.041,1.562,1.951c0.74-0.824,1.477-1.473,2.168-1.91c0.694-0.434,1.479-0.65,2.3-0.65
			c0.655,0,1.217,0.131,1.737,0.305c0.521,0.217,0.953,0.52,1.344,0.953c0.392,0.432,0.695,0.998,0.911,1.695
			c0.219,0.646,0.305,1.475,0.305,2.471v9.676H98.039L98.039,123.659z"/>
		<path clip-path="url(#SVGID_2_)" fill-rule="evenodd" clip-rule="evenodd" fill="#1D1D1B" d="M110.624,123.962
			c-1,0-1.912-0.131-2.778-0.389c-0.826-0.262-1.562-0.52-2.126-0.824v-2.777h0.129c0.216,0.176,0.479,0.391,0.783,0.564
			c0.258,0.215,0.652,0.436,1.126,0.65c0.393,0.172,0.866,0.348,1.345,0.521c0.522,0.131,1.044,0.215,1.564,0.215
			c0.436,0,0.826-0.041,1.258-0.129c0.479-0.131,0.782-0.221,0.997-0.391c0.306-0.174,0.523-0.389,0.692-0.652
			c0.131-0.215,0.178-0.562,0.178-0.998c0-0.605-0.129-1.041-0.476-1.346c-0.31-0.303-0.87-0.561-1.652-0.777
			c-0.302-0.09-0.738-0.176-1.216-0.262c-0.518-0.088-0.996-0.217-1.426-0.346c-1.134-0.305-1.957-0.828-2.432-1.477
			c-0.525-0.693-0.783-1.518-0.783-2.473c0-1.346,0.521-2.428,1.521-3.256c0.997-0.824,2.297-1.258,3.991-1.258
			c0.779,0,1.603,0.131,2.426,0.305c0.827,0.217,1.522,0.475,2.084,0.783v2.645h-0.127c-0.609-0.521-1.345-0.908-2.087-1.217
			c-0.78-0.26-1.559-0.43-2.342-0.43c-0.825,0-1.514,0.17-2.035,0.518c-0.566,0.35-0.871,0.869-0.871,1.564
			c0,0.607,0.178,1.082,0.521,1.387c0.304,0.303,0.823,0.566,1.56,0.738c0.349,0.088,0.784,0.176,1.216,0.307
			c0.434,0.08,0.913,0.168,1.432,0.297c1.085,0.262,1.91,0.738,2.43,1.348c0.567,0.65,0.825,1.521,0.825,2.604
			c0,0.607-0.129,1.215-0.347,1.779c-0.261,0.564-0.654,1.043-1.127,1.475c-0.521,0.434-1.085,0.736-1.781,0.998
			C112.446,123.876,111.621,123.962,110.624,123.962L110.624,123.962z"/>
		<path clip-path="url(#SVGID_2_)" fill-rule="evenodd" clip-rule="evenodd" fill="#2581C4" d="M4.58,85.216
			c-1.953,0-3.512,1.566-3.512,3.518c0,1.91,1.559,3.469,3.512,3.469h395.447c1.909,0,3.47-1.559,3.47-3.469
			c0-1.951-1.561-3.518-3.47-3.518H4.58L4.58,85.216z"/>
	</g>
</g>
</svg>
