<svg viewBox="0 0 500 105" xmlns="http://www.w3.org/2000/svg"><path d="m209.972 23.363c-8.939 0-19.104 4.144-25.315 12.44l.004-.017-.004.004.004-11.124h-21.318v77.634h21.314v-44.175c0-7.95 6.165-16.402 17.578-16.402 8.821 0 17.948 6.136 17.948 16.402v44.175h21.319v-48.125c0-17.856-12.775-30.812-31.53-30.812m183.043 1.296-19.271 52.881-19.272-52.88h-24.353l31.942 77.609h23.36l31.943-77.61zm-293.315 23.395c3.63-4.875 9.413-7.736 16.397-7.736 7.682 0 13.51 4.387 16.524 10.863l-37.245 15.452c-1.017-7.93 1.012-14.133 4.324-18.579m40.956 30.375c-8.972 6.64-14.099 8.224-22.281 8.224-7.362 0-13.128-2.286-17.192-6.296l54.5-22.608c-1.189-8.426-4.387-15.952-9.308-21.676-7.16-8.316-17.759-12.716-30.664-12.716-23.44 0-41.116 17.293-41.116 40.132 0 23.433 17.717 40.128 43.465 40.128 14.426 0 29.177-6.837 36.077-14.825zm-68.093 4.294h-48.453v-81.278h-21.608v100.852h70.061zm383.081-41.1c-11.905 0-20.55 9.023-20.55 21.856 0 12.255 9.158 21.857 20.836 21.857 11.91 0 20.55-9.27 20.55-21.857 0-12.254-9.153-21.856-20.836-21.856m0 61.98c-23.314 0-41.582-17.368-41.582-40.124 0-22.499 18.394-40.123 41.868-40.123 23.315 0 41.578 17.368 41.578 40.123 0 22.496-18.39 40.124-41.864 40.124m-164.121-61.98c-11.905 0-20.545 9.023-20.545 21.856 0 12.255 9.153 21.857 20.835 21.857 11.905 0 20.545-9.27 20.545-21.857 0-12.254-9.152-21.856-20.835-21.856m0 61.98c-23.314 0-41.578-17.368-41.578-40.124 0-22.499 18.39-40.123 41.868-40.123 23.31 0 41.578 17.368 41.578 40.123 0 22.496-18.393 40.124-41.868 40.124" fill="#e60012"/></svg>