<?xml version="1.0" encoding="UTF-8" standalone="no"?><!DOCTYPE svg PUBLIC "-//W3C//DTD SVG 1.1//EN" "http://www.w3.org/Graphics/SVG/1.1/DTD/svg11.dtd"><svg viewBox="0 0 324 324" version="1.1" xmlns="http://www.w3.org/2000/svg" xmlns:xlink="http://www.w3.org/1999/xlink" xml:space="preserve" xmlns:serif="http://www.serif.com/" style="fill-rule:evenodd;clip-rule:evenodd;stroke-linejoin:round;stroke-miterlimit:2;"><path d="M180.558,111.558l31.042,31.042l-12.217,12.417l-31.042,-31.042l12.217,-12.417Zm56.775,-56.679l31.042,31.042l-12.317,12.417l-31.042,-31.042l12.317,-12.417Zm-2,111.558l31.242,31.042l-12.317,12.417l-32.046,-31.042l13.121,-12.417Zm56.779,-56.687l31.042,31.046l-12.217,12.417l-31.042,-31.042l12.217,-12.421Zm-122.875,-23.029l31.242,-31.046l12.321,12.317l-31.046,31.042l-12.517,-12.312Zm54.875,54.875l31.046,-31.042l12.417,12.217l-31.042,31.042l-12.421,-12.217Zm54.779,54.879l31.042,-31.246l12.421,12.321l-32.042,31.042l-11.421,-12.117Zm-166.433,-52.771l31.046,-31.042l12.417,12.217l-31.042,31.042l-12.421,-12.217Zm54.779,54.779l31.246,-31.042l12.217,12.212l-31.042,31.042l-12.421,-12.213Zm54.875,54.875l31.046,-31.242l12.417,12.317l-31.242,32.042l-12.221,-13.117Z" style="fill:#585757;fill-rule:nonzero;"/><path d="M67.096,224.917l31.246,31.046l-12.221,12.417l-31.242,-31.242l12.217,-12.221Zm56.779,-56.675l31.042,31.046l-12.213,12.317l-31.042,-31.042l12.212,-12.321Zm-1.7,111.558l31.042,31.046l-12.317,12.317l-31.042,-31.042l12.317,-12.321Zm56.575,-56.683l31.042,31.042l-12.217,12.321l-31.042,-31.042l12.217,-12.321Zm-166.433,-53.075l31.042,31.042l-12.313,12.221l-31.046,-31.042l12.317,-12.221Zm56.783,-56.679l31.042,31.042l-12.317,12.317l-31.042,-31.042l12.317,-12.317Zm56.579,-56.683l31.042,31.042l-12.017,12.421l-31.042,-31.042l12.017,-12.421Zm56.583,-56.679l31.242,31.042l-12.317,12.321l-32.046,-31.042l13.121,-12.321Zm-67.804,32.042l31.042,-31.042l12.321,12.221l-31.042,31.042l-12.321,-12.221Zm-56.775,56.787l31.042,-31.042l12.417,12.317l-31.042,31.042l-12.417,-12.317Zm-56.683,56.779l31.042,-31.042l12.321,12.013l-31.042,31.246l-12.321,-12.217Zm54.679,54.675l31.042,-31.042l12.417,12.317l-31.042,31.042l-12.417,-12.317Zm54.875,54.879l31.046,-31.042l12.321,12.217l-31.046,31.042l-12.321,-12.217Zm54.679,54.875l31.246,-31.042l12.317,12.017l-31.042,31.246l-12.521,-12.221Z" style="fill:#db202e;fill-rule:nonzero;"/></svg>