<svg height="16pt" preserveAspectRatio="xMidYMid meet" viewBox="0 0 16 16" width="16pt" xmlns="http://www.w3.org/2000/svg"><g transform="matrix(.002286 0 0 -.002286 0 16)"><path d="m3811 6866-133-133 339-336 338-336 135 134 134 134-311 308c-171 169-324 320-340 335l-29 28z"/><path d="m2812 6641-333-335 133-133 133-133 332 332c183 183 333 337 333 342 0 9-257 268-263 265-1-1-152-153-335-338z"/><path d="m5010 5680c-71-72-130-135-130-138 0-4 150-157 333-340l332-332 134 135 134 134-336 337-336 336z"/><path d="m4000 5455-335-335 134-130c74-72 136-130 139-130 2 0 154 150 337 333l334 334-132 131c-73 73-134 132-137 132s-156-151-340-335z"/><path d="m2599 5645c-68-69-126-131-128-137-4-11 648-668 663-668 9 0 255 250 256 260 0 3-150 155-334 339l-333 333z"/><path d="m1587 5413c-180-181-329-330-331-333-3-4 55-66 128-139l133-132 337 337 336 337-129 128c-71 71-133 129-138 129s-156-147-336-327z"/><path d="m6192 4487-132-132 338-337 337-337 132 134 131 135-334 335c-184 184-336 335-337 335s-62-60-135-133z"/><path d="m5184 4265-332-333 136-132 136-131 335 335 336 336-130 130c-71 71-134 129-140 129-5 0-159-151-341-334z"/><path d="m3784 4456c-67-68-124-128-128-134s139-156 328-346l334-334 133 135 133 134-335 335c-183 184-336 334-339 334s-60-56-126-124z"/><path d="m2766 4219-330-330 129-129c72-72 134-130 138-130 11 0 667 655 667 666 0 12-251 254-264 254-6 0-159-149-340-331z"/><path d="m1361 4408-132-131 336-336 335-335 134 133 134 134-333 334c-183 183-335 333-337 333-3 0-65-59-137-132z"/><path d="m358 4182-337-337 133-131 133-132 337 337 337 337-131 130c-72 71-132 130-134 131-1 1-153-149-338-335z"/><path d="m6373 3081-332-336 130-131 131-131 339 335 340 336-133 133c-73 73-135 132-138 132-3-1-155-153-337-338z"/><path d="m4958 3259c-123-123-139-143-119-151 6-1 156-148 335-325 179-178 329-323 333-323 5 0 66 59 137 131l129 131-334 334c-184 184-338 333-344 333-5-1-67-59-137-130z"/><path d="m3959 3036-336-334 133-133 134-134 337 337 338 338-130 130c-72 71-132 130-135 130s-156-151-341-334z"/><path d="m2546 3219-128-130 336-337 337-337 129 132c72 72 130 134 130 137 0 9-660 666-668 666-5 0-66-59-136-131z"/><path d="m1540 2995-334-334 132-131c72-71 134-130 136-130 8 0 666 660 666 668s-252 262-260 262c-3 0-156-151-340-335z"/><path d="m128 3181-128-127 337-337 337-337 133 133 133 132-332 332c-183 183-337 333-343 333-5-1-67-58-137-129z"/><path d="m5147 1852-337-337 127-133c71-72 133-132 138-132 8 0 675 665 675 673 0 1-60 62-133 135l-132 132z"/><path d="m3739 2034-133-134 336-336 337-336 113 115c62 63 121 124 131 135 18 20 12 26-316 355l-334 335z"/><path d="m2728 1809c-181-181-328-332-328-336 0-3 59-65 131-136l131-129 336 337 336 336-129 129c-72 72-134 130-140 129-5 0-157-149-337-330z"/><path d="m1322 1997-133-133 333-332c183-183 335-334 338-337 4-2 65 55 138 128l132 132-338 338-337 337z"/><path d="m3912 617-333-333 135-132 134-132 333 336c184 184 333 339 332 343-3 13-243 246-256 249-7 1-162-147-345-331z"/><path d="m2512 807-132-132 329-330c181-181 334-331 340-333s69 55 140 126l129 129-336 336-337 337z"/></g></svg>