<svg xmlns="http://www.w3.org/2000/svg" xmlns:xlink="http://www.w3.org/1999/xlink" width="190" height="189.125"><defs><filter color-interpolation-filters="sRGB" id="c"><feGaussianBlur stdDeviation="1.628"/></filter><linearGradient xlink:href="#a" id="d" gradientUnits="userSpaceOnUse" gradientTransform="translate(196.35 -38.224) scale(1.09126)" x1="61.429" y1="362.143" x2="116.429" y2="408.571"/><linearGradient id="a"><stop offset="0" stop-color="#c7f994"/><stop offset="1" stop-color="#87cf3e"/></linearGradient><linearGradient xlink:href="#b" id="e" gradientUnits="userSpaceOnUse" gradientTransform="translate(0 80)" x1="70.492" y1="416.389" x2="113.642" y2="375.88"/><linearGradient id="b"><stop offset="0" stop-color="#3d3d3d"/><stop offset="1" stop-opacity=".114"/></linearGradient><filter color-interpolation-filters="sRGB" id="f"><feGaussianBlur stdDeviation=".401"/></filter><filter color-interpolation-filters="sRGB" id="g"><feGaussianBlur stdDeviation=".16"/></filter></defs><path transform="matrix(1.58456 0 0 1.58456 -435.119 -640.77)" d="M331.79 510.933c-21.29 0-39.765-16.14-39.765-37.41l-.02-21.993v-6.586h-13.497v-36.651l56.92.268 17.806.038c21.309 0 39.765 16.121 39.765 37.411v64.923H331.79z" style="marker:none" opacity=".26" fill-rule="evenodd" overflow="visible" filter="url(#c)" enable-background="accumulate"/><path d="M354.825 425.265V375.82c0-16.52-14.487-29.91-32.36-29.91h-18.552v-.04l-50.176-.22v18.042h7.703c5.376 0 6.326 3.711 6.326 8.848l.04 31.894c0 16.52 14.486 29.91 32.34 29.91h44.083c5.65 0 10.596-3.579 10.596-9.08z" fill="url(#d)" fill-rule="evenodd" transform="matrix(1.51933 0 0 1.51933 -363.933 -504.006)"/><path transform="translate(-59.185 -648.896) scale(1.59302)" d="M142.938 500.531c-10.752-7.41-18.367-15.92-24.782-27.187-12.644-23.358-9.688-34.954-41-37.688-9.036 0-15.051-2-24.562-2v3.313s3.758 1.907 7.062 1.907c4.927 0 5.782 3.418 5.782 8.125l.03 29.155c0 15.138 13.296 27.406 29.657 27.406H135.5c2.964 0 5.626-1.167 7.438-3.03z" opacity=".175" fill="url(#e)" filter="url(#f)"/><path transform="translate(-59.185 -648.896) scale(1.59302)" d="M105.518 438.54c-3.836 0-7.245 1.425-9.984 4.191-2.738 2.766-4.176 6.218-4.176 10.115v19.694h8.933v-19.694c0-1.494.488-2.661 1.554-3.738 1.07-1.081 2.203-1.57 3.673-1.57 1.502 0 2.618.487 3.69 1.57 1.066 1.077 1.554 2.244 1.554 3.738v19.694h8.933v-19.694c0-1.494.487-2.661 1.553-3.738 1.072-1.083 2.188-1.57 3.69-1.57 1.47 0 2.604.489 3.673 1.57 1.067 1.077 1.554 2.244 1.554 3.738l.049 23.012c0 4.909-4.675 9.046-10.681 9.046l-28.806-.113c-4.634 0-8.593-4.511-8.593-10.309v-43.335h-8.447v45.002c0 4.775 1.747 8.962 5.146 12.348 2.905 2.867 6.399 4.564 10.325 4.984v.162h32.074c4.929 0 9.259-1.833 12.752-5.39H134c2.971-3.052 4.708-6.71 5.13-10.825l-.032-24.582c0-3.897-1.437-7.349-4.175-10.115-2.74-2.766-6.148-4.19-9.985-4.19-3.766 0-7.061 1.4-9.726 3.964-2.657-2.56-5.93-3.965-9.694-3.965z" style="marker:none" fill-opacity=".08" fill-rule="evenodd" overflow="visible" filter="url(#g)" enable-background="accumulate"/><path d="M107.772 50.08c-6.112 0-11.543 2.27-15.906 6.678-4.362 4.405-6.652 9.905-6.652 16.112v31.374h14.23V72.87c0-2.38.777-4.24 2.476-5.955 1.704-1.721 3.508-2.5 5.852-2.5 2.392 0 4.17.775 5.877 2.5 1.699 1.716 2.475 3.576 2.475 5.955v31.374h14.23V72.87c0-2.38.777-4.24 2.475-5.955 1.708-1.725 3.486-2.5 5.878-2.5 2.343 0 4.148.779 5.852 2.5 1.699 1.716 2.475 3.576 2.475 5.955l.077 36.659c0 7.82-7.447 14.41-17.014 14.41l-45.888-.18c-7.383 0-13.69-7.186-13.69-16.422V38.303H57.064v71.69c0 7.606 2.783 14.276 8.198 19.67 4.628 4.568 10.194 7.529 16.447 8.198h51.096c7.851 0 14.75-2.92 20.314-8.585h.026c4.733-4.863 7.5-10.69 8.172-17.247l-.051-39.16c0-6.206-2.29-11.706-6.652-16.111-4.363-4.408-9.794-6.677-15.906-6.677-6 0-11.249 2.23-15.493 6.316-4.233-4.079-9.445-6.316-15.442-6.316z" style="marker:none" fill="#fff" fill-rule="evenodd" overflow="visible" enable-background="accumulate"/><path d="M99.403 123.807v14.054h33.426c7.851 0 14.708-2.929 20.273-8.594h.048c4.733-4.863 7.494-10.678 8.166-17.235v-7.977H147.12v5.46c0 7.82-7.43 14.387-16.998 14.387l-30.719-.095z" style="marker:none" opacity=".3" fill="#52a800" fill-rule="evenodd" overflow="visible" enable-background="accumulate"/><path d="M91.644 166.311c-32.346 0-60.417-24.522-60.417-56.84l-.03-39.24V60.224H10.69V10.366l86.481.407 27.053.058c32.376 0 60.417 24.493 60.417 56.84v98.64H91.644zm79.82-26.46v-72.18c0-24.114-21.148-43.662-47.24-43.662H97.142v-.058l-73.245-.32v23.416H32.1c5.571 0 12.274 5.235 12.274 12.917l.058 49.479c0 24.114 21.148 43.662 47.211 43.662h64.351c8.25 0 15.469-5.225 15.469-13.254z" style="marker:none" fill="#fff" fill-rule="evenodd" overflow="visible" enable-background="accumulate"/></svg>