<svg xmlns="http://www.w3.org/2000/svg" viewBox="0 0 218.29834 256" version="1"><path d="M106.614.005c-6.997 0-8.17.087-12.82 1.303C88.058 2.83 84.711 4.742 80.8 8.696c-1.999 1.956-2.998 3.216-3.954 4.824-2.39 4.128-3.955 8.822-4.91 15.166-.522 3.086-.566 4.216-.522 11.864 0 8.04.956 32.55 1.52 39.894.392 4.867.218 5.388-3.867 11.081-1.434 2-3.433 4.91-4.433 6.475-2.737 4.216-6.605 9.648-9.778 13.82-5.866 7.561-7.344 10.342-11.038 20.381-3.563 9.821-5.736 14.689-10.994 24.9-2.695 5.129-3.39 7.302-3.52 10.952-.174 3.129.26 7.475.739 8.257.39.521.869.652 1.825.391-.13.13-.218.217-.304.26-1.521 1-3.26 3.13-4.346 5.824-.044.043-.044.13-.087.174-.391.608-.826 1.651-1.347 3.26-1.565 4.432-2.868 6.387-5.215 7.648-2 1.086-3.78 1.347-8.996 1.347-5.388 0-6.562.26-8.17 1.651-2.868 2.434-3.302 7.257-1.347 13.95 1.782 6.04 1.695 8.822-.608 15.6-1.26 3.738-1.434 4.52-1.434 6.128 0 1.217.13 2.13.39 2.695.566 1.173 2.348 2.607 4.086 3.346 1.955.739 11.777 3.172 18.817 4.563 10.907 2.216 14.819 3.39 24.944 7.43 8.996 3.564 12.82 4.868 15.862 5.346 1.434.217 4.389-.043 5.736-.565 1.608-.565 3.13-1.608 6.475-4.432 5.91-4.954 9.126-6.519 15.732-7.562 2.477-.391 4.737-.434 23.64-.434 11.473 0 21.598.086 22.511.217 2.13.26 2.955.956 4.737 4.085 2.738 4.91 6.084 7.083 12.168 7.996 2.868.434 7.779.478 10.038.13 4.954-.825 7.432-2.303 13.038-7.909 6.518-6.562 12.602-10.69 21.163-14.428 4.346-1.912 6.301-2.998 11.43-6.475 6.3-4.259 7.517-5.606 7.517-8.387 0-2.912-1.564-4.737-7.344-8.561-5.519-3.65-7.996-5.867-10.3-9.256-1.607-2.39-2.172-4.216-2.39-7.78-.086-1.65-.26-2.78-.477-3.476-.218-2.477-1.217-5.301-2.999-6.214-2.477-1.304-3.346-.913-4.172-.391 2.781-3.13 3.694-4.607 4.607-7.301 1.608-4.78 1.26-10.125-1.521-24.032-3.216-16.166-8.692-27.725-19.99-42.24-7.171-9.256-10.083-13.863-17.08-26.987-3.476-6.562-4.475-8.822-5.3-12.342-1.218-5.084-1.783-9.647-2.695-22.64-.87-12.125-1.478-17.123-2.608-21.338-2.998-11.473-11.994-20.164-24.553-23.771C116.131.309 113.828.005 106.614.005z" fill="#fff"/><path d="M133.3 71.714c0 6.061-7.22 7.341-10.722 9.514-3.26 3.02-22.023 11.544-26.998 11.544-7.993-1.69-17.725-13.62-18.98-21.541 0-4.612 5.868-8.307 9.152-11.326 3.26-3.018 7.027-5.868 13.45-4.66 4.975 0 12.751 2.366 16.011 5.385 6.52 2.173 18.087 3.574 18.087 11.084zM1.835 233.679c7.425 3.38 24.728 7.703 30.813 8.428 4.081 1.69 31.031 7.969 37.237 7.969 9.201-6.52 10.722-16.397 8.139-26.395-11.471-18.522-20.334-42.791-41.778-51.147-2.149 1.063-3.912 3.937-4.684 4.42-1.546.99-3.26 3.139-4.347 5.82-1.135 2.8-2.174 6.23-3.439 11.229-2.478 4.974-12.593.483-19.522 4.105-2.526 7.655 1.785 26.54-2.42 35.57zm199.613-28.375c4.636 3.791 11.905 6.617 15.19 12.92-6.255 7.462-11.64 10.094-19.561 13.861-10.867 5.168-17.677 10.022-22.651 13.402-4.975 4.347-16.518 7.004-21.758 6.28-3.309-2.174-7.028-28.569-5.82-37.19 0-4.588-5.627-22.965 3.38-34.17 8.718-1.666 16.204 6.303 21.734 11.736 4.564-3.067 11.785-7.776 17.243-8.959 1.787-.41 1.859-2.27 5.602-.314 1.787.942 2.825 3.888 3.019 6.4.314 4.056.724 12.653 3.622 16.034z" fill="#f8bf11"/><path d="M64.115 255.871c-3.043-.483-6.883-1.69-15.866-5.312-10.142-4.106-14.03-5.072-24.946-7.486-7.027-1.208-16.882-3.743-18.807-4.516-1.74-.7-3.55-2.15-4.102-3.333-.258-.531-.394-1.473-.394-2.68 0-1.642.175-2.367 1.44-6.11 2.298-6.81 2.409-9.587.622-15.624-1.979-6.69-1.516-11.519 1.335-13.958 1.61-1.376 2.785-1.618 8.162-1.618 5.226 0 6.991-.265 9.015-1.376 2.33-1.28 3.642-3.212 5.187-7.655.99-2.874 1.642-4.01 2.27-4.01.507 0 .942 1.257.942 2.778 0 1.352-1.521 7.051-2.27 8.524-.797 1.594-1.884 2.826-3.137 3.55-2.337 1.377-6.841 1.739-11.782.99-3.156-.507-4.967-.386-6.175.338-1.787 1.087-2.079 3.526-.782 6.545 2.511 5.82 2.992 7.075 3.523 9.031.63 2.343.732 4.395.336 6.834-.394 2.415-1.087 3.937-3.137 6.81-1.058 1.498-2.026 3.091-2.154 3.574-.362 1.304.171 2.294 1.61 3.043 1.222.604 18.648 5.12 30.96 7.897 3.79.966 10.697 2.656 15.333 3.863 4.661 1.208 9.49 2.174 10.747 2.415 3.888.483 7.486 0 9.973-1.449 3.453-2.173 5.868-7.172 6.158-12.992.193-3.84-.652-7.292-2.898-11.76-1.715-3.43-2.56-4.757-10.698-17.049-14.368-21.637-20.599-28.857-25.911-29.968-1.715-.338-2.85-.145-5.144.893-2.197.99-2.946 1.039-3.477.242-.507-.773-.918-5.096-.773-8.235.169-3.646.87-5.82 3.526-10.988 5.264-10.19 7.413-15.068 11.011-24.873 3.695-10.046 5.192-12.823 11.012-20.405 3.188-4.13 7.052-9.587 9.78-13.79a286.73 286.73 0 0 1 4.468-6.495c4.057-5.7 4.25-6.23 3.864-11.084-.58-7.317-1.546-31.852-1.546-39.87-.024-7.63.024-8.79.507-11.88.99-6.318 2.536-11.059 4.95-15.164.918-1.603 1.957-2.871 3.913-4.846 3.912-3.946 7.293-5.84 13.016-7.337C98.436.115 99.62-.006 106.599 0c7.196.007 9.49.291 14.851 1.831 12.558 3.608 21.565 12.307 24.584 23.76 1.11 4.226 1.714 9.25 2.583 21.372.918 12.968 1.474 17.532 2.705 22.651.821 3.478 1.811 5.772 5.289 12.316 7.003 13.137 9.9 17.725 17.073 26.95 11.301 14.537 16.759 26.08 19.995 42.26 2.777 13.91 3.115 19.246 1.521 24.052-.966 2.898-1.908 4.347-5.216 7.993-6.955 7.704-14.706 12.533-20.02 12.533-4.829 0-9.248-3.284-12.412-9.249-1.473-3.284-1.28-5.916-5.505-4.974-2.053.555-3.743 3.043-4.25 6.254-.387 2.294-.315 11.085.096 13.282.169.99.749 3.936 1.232 6.52.869 4.468.917 4.95.917 9.539 0 4.226-.096 5.506-.797 10.142-.652 4.347-.772 5.844-.7 8.21.097 2.754.145 3.02.966 4.734.99 2.173 3.163 4.588 5.047 5.796 4.154 2.656 9.95 2.897 14.827.483 1.377-.725 3.381-2.174 6.762-4.83 5.482-4.443 9.563-7.269 12.654-8.838 1.183-.58 4.033-1.667 6.327-2.415 9.514-3.067 13.861-4.903 16.276-6.907 2.874-2.342 4.25-4.878 3.743-6.786-.652-2.366-3.38-4.057-8.96-5.506-4.201-1.11-5.215-1.617-6.93-3.501-1.521-1.666-2.705-4.057-3.574-7.245-.845-3.115-.966-8.162-.241-10.142.507-1.4 1.014-2.053 1.593-2.053.677 0 1.015 1.184 1.208 4.347.241 3.526.797 5.385 2.415 7.752 2.294 3.405 4.733 5.602 10.263 9.273 5.771 3.815 7.365 5.65 7.365 8.573 0 2.777-1.231 4.129-7.51 8.355-5.144 3.477-7.076 4.588-11.422 6.472-8.573 3.743-14.659 7.896-21.203 14.417-5.602 5.554-8.041 7.244-13.04 7.969-2.246.241-7.148.241-10.022-.242-6.085-.724-9.394-2.898-12.17-7.969-1.763-3.14-2.585-3.864-4.71-4.105-.917 0-11.06-.242-22.554-.242-18.885 0-21.155.242-23.594.483-6.616 1.208-9.876 2.657-15.769 7.486-3.332 2.898-4.854 3.864-6.472 4.589-1.328.483-4.298.724-5.723.483zm21.782-15.575c.531-.46 1.328-1.522 1.787-2.367.724-1.352.82-1.763.893-3.84.17-3.815-.652-5.964-3.356-8.814-1.86-1.956-2.126-2.801-1.063-3.284.99-.435 2.246.12 4.492 2.004 4.25 3.598 6.761 4.202 16.034 4.009 9.974-.242 15.407-1.28 20.889-4.033 3.55-1.787 5.892-3.815 8.862-7.752 2.101-2.753 3.043-3.694 4.226-4.177 1.956-.821 2.995.772 2.947 4.564-.025 1.763-.218 2.873-1.015 5.82-2.173 7.848-2.85 12.267-2.245 14.513.362 1.304 1.497 2.294 2.535 2.197.725-.072.749-.12.942-1.521.097-.797.507-3.502.918-6.037.386-2.512.869-5.772 1.086-7.245.507-3.815.894-15.648.918-28.495.024-11.084.024-11.108.604-12.799.458-1.304.869-1.956 1.81-2.898 1.474-1.449 2.85-1.98 5.965-2.197l2.077-.17.29-1.472c.7-3.357 2.705-5.265 6.665-6.327 1.28-.338 2.56-.46 5.313-.46 3.984 0 5.095.242 8.693 1.981 1.618.773 3.019 1.038 3.019.58 0-.363-1.956-2.198-3.526-3.309-.82-.603-2.246-1.376-3.14-1.738-1.23-.508-1.69-.821-1.738-1.184-.048-.29.314-1.907.797-3.622 1.4-5.071 1.86-8.283 1.884-13.113.048-7.945-1.353-13.209-5.965-22.12-4.274-8.259-8.79-14.32-12.364-16.59-1.039-.628-2.27-1.063-2.27-.797 0 .097.87 1.377 1.908 2.874 4.926 6.979 10.045 15.89 12.219 21.323 1.763 4.347 3.09 10.24 3.501 15.6.7 8.79-1.69 16.3-5.795 18.136-.821.386-1.739.531-3.743.58-3.188.12-3.623-.049-4.468-1.74l-.604-1.207-.144-9.66c-.266-16.445-1.039-19.246-9.66-34.822-2.656-4.781-3.188-6.037-4.323-10.384-2.318-8.935-4.564-14.175-8.09-18.908-5.384-7.196-6.085-10.19-3.936-16.832 1.377-4.322 1.353-6.544-.096-8.017-1.063-1.087-1.884-1.473-6.738-3.018-7.365-2.343-10.77-4.444-11.712-7.22-.941-2.73-.265-7.173 1.425-9.37 1.208-1.594 2.753-2.27 5.12-2.27 1.57.024 2.197.144 3.284.627 1.666.797 2.994 1.932 3.67 3.212.725 1.377.7 4.637-.048 7.027-1.231 3.888-1.183 3.478-.314 4.25 1.57 1.401 4.057 1.522 5.144.218.942-1.111 1.231-2.246 1.352-5.434.145-3.477-.217-5.795-1.642-10.166-1.956-5.989-3.912-7.728-9.828-8.694-4.42-.724-6.835-.145-9.056 2.15-3.478 3.622-5.216 9.393-4.516 15.189.386 3.212.314 3.357-1.497 2.777-1.618-.507-5.168-.918-7.22-.845-2.198.097-2.391-.097-2.391-2.56-.025-10.022-3.043-15.48-8.573-15.43-3.84 0-6.955 2.921-8.114 7.558-.459 1.81-.362 7.003.145 10.021 1.038 5.941 3.284 8.911 5.047 6.593.724-.99 1.352-2.246 1.352-2.656 0-.17-.555-.556-1.207-.87-.725-.338-1.377-.87-1.666-1.352-1.377-2.198-2.053-6.134-1.474-8.235.75-2.656 4.396-4.298 6.907-3.115 2.125 1.014 4.395 5.7 4.154 8.645-.194 2.343-.628 3.067-2.753 4.637-1.063.773-2.778 2.173-3.84 3.115-1.063.942-2.367 2.029-2.898 2.415-2.705 1.956-4.226 4.25-4.226 6.423 0 1.425.58 2.198 2.39 3.091 1.426.725 2.705 1.98 4.058 3.96 1.81 2.609 3.96 3.43 8.886 3.406 6.013-.024 11.399-1.304 21.493-5.071 5.482-2.053 7.003-2.705 7.317-3.188.893-1.304 1.932-2.222 2.56-2.222.845 0 1.593.797 1.593 1.667 0 1.473-2.27 2.68-10.142 5.36-2.318.797-5.916 2.246-7.97 3.212-4.153 1.98-5.312 2.391-8.04 2.922-2.246.435-7.438.483-10.288.097-2.318-.314-3.719-.145-3.598.459.12.628 5.482 4.805 6.713 5.264 1.739.604 5.168.725 7.39.217 3.356-.724 13.958-5.288 19.222-8.234 1.763-.99 2.753-1.4 3.38-1.4 1.063-.025 1.884.651 1.884 1.496 0 .918-1.787 2.488-3.743 3.309-3.453 1.4-4.177 1.787-7.606 3.96-4.685 2.995-6.738 4.492-9.829 7.196-3.308 2.874-4.25 3.26-7.92 3.309-2.923.024-3.816-.266-5.724-1.908-1.497-1.28-5.071-5.723-6.085-7.583-1.063-1.932-3.43-4.612-4.057-4.612-.41 0-.46.097-1.16 3.14-.482 2.173-2.27 6.278-5.167 11.953-3.478 6.834-3.647 7.438-3.647 14.61 0 5.989.145 5.481-2.777 9.538-3.574 5.023-9.128 18.136-10.456 24.753-1.014 4.95-1.715 13.378-1.521 18.111.144 3.767-.049 4.878-.942 5.434-.918.58-2.005-.024-4.25-2.246-3.526-3.55-4.661-6.496-4.637-12.123.024-3.574.338-6.327 1.038-8.983.604-2.27.628-2.922.073-2.801-.58.096-1.884 2.777-2.512 5.168-.386 1.424-.53 2.897-.627 5.892-.097 3.67-.073 4.202.507 6.761.724 3.212 2.1 6.207 4.008 8.718 2.922 3.864 17.725 17 27.578 24.511 2.367 1.787 4.999 4.033 5.868 4.975 5.216 5.65 4.202 10.818-2.922 14.803-1.11.628-2.028 1.183-2.028 1.231 0 .049.917 1.328 2.028 2.802 4.081 5.505 6.448 9.538 7.269 12.364.555 1.86.531 4.54-.073 6.254-.241.773-.386 1.4-.29 1.4.097 0 .604-.482 1.136-.844zm4.177-179.811c-.748-1.425.652-2.657 3.043-2.657.845 0 1.594.097 1.666.242.17.29-.652.724-1.376.724-.435 0-.676.242-1.038 1.039-.387.845-.604 1.038-1.256 1.086-.58.049-.821-.048-1.039-.434zm14.32-1.039c-1.4-.507-2.487-1.207-2.221-1.473.072-.072.893-.193 1.811-.29 2.173-.193 2.994.121 2.994 1.087 0 .483-.169.821-.458.99-.266.121-.508.242-.556.218-.024 0-.748-.242-1.57-.532zm-50.277 67.689c2.318-2.39 2.97-3.598 2.825-5.313-.072-1.183-.53-1.593-1.497-1.352-.7.17-1.086.894-1.714 3.091-.266 1.063-.7 1.763-1.69 2.874-1.329 1.497-1.57 2.052-1.04 2.584.556.555 1.015.29 3.116-1.884zm92.876-40.763c.507-.314 1.521-2.801 1.521-3.743 0-.748-.145-1.087-.749-1.642-.41-.386-.845-.7-.965-.7-.121 0-1.063-.387-2.101-.894a12.6 12.6 0 0 1-3.454-2.415c-.869-.82-1.714-1.521-1.86-1.521-.144 0-.337.29-.434.628-.265 1.11.121 2.825 1.135 4.854.87 1.81 1.183 2.173 3.188 3.815 2.15 1.763 2.946 2.101 3.719 1.618zM88.89 54.037c.29-.748.217-1.328-.531-3.767-.314-1.063-.773-1.956-1.256-2.487-.7-.749-.82-.797-1.376-.507-.797.434-.725 1.4.217 2.463.7.797 1.304 2.318 1.594 4.057.193 1.11.966 1.255 1.352.241zm34.026-.676c.53-.628.144-3.622-.58-4.733-.749-1.135-2.487-2.174-3.864-2.318-.917-.121-1.087-.049-1.352.41-.338.628-.17.821 1.014 1.183 1.497.483 2.874 2.536 3.236 4.806.145.845.266 1.014.7 1.014.314 0 .676-.169.846-.362zm1.617-32.528c1.74-1.2 1.86-1.254 3.526-1.297 2.125-.056 2.584-.234 2.584-.983 0-1.166-4.009-4.72-5.699-5.035-1.69-.319-2.294.599-2.632 4.035-.145 1.285-.314 1.821-.87 2.51-.748.948-.869 1.506-.386 1.984.483.495 1.521.13 3.477-1.214z"/></svg>