<?xml version="1.0" standalone="no"?>
<svg viewBox="0 0 335 200" version="1.0" xmlns="http://www.w3.org/2000/svg" preserveAspectRatio="xMidYMid meet">
<rect width="100%" height="100%" fill="white"/>
<g transform="translate(0.000000,203.000000) scale(0.100000,-0.100000)"
fill="#2596be" stroke="#2596be">
<path d="M40 1655 l0 -45 198 0 c175 1 195 2 178 15 -11 8 -34 15 -52 15 -30
0 -54 23 -35 34 4 3 104 4 222 3 183 -2 214 -4 214 -17 0 -10 -14 -17 -43 -21
-23 -3 -48 -11 -54 -17 -9 -9 293 -11 1317 -10 l1329 3 4 43 3 42 -1640 0
-1641 0 0 -45z"/>
<path d="M40 1475 l0 -65 200 0 200 0 0 65 0 65 -200 0 -200 0 0 -65z"/>
<path d="M640 1475 l0 -65 1340 0 1340 0 0 65 0 65 -1340 0 -1340 0 0 -65z"/>
<path d="M40 1235 l0 -105 200 0 200 0 0 105 0 105 -200 0 -200 0 0 -105z"/>
<path d="M647 1333 c-4 -3 -7 -51 -7 -105 l0 -98 299 0 299 0 10 29 c16 47 78
107 134 131 43 18 65 22 123 18 38 -3 85 -12 102 -22 45 -23 102 -82 119 -122
14 -34 15 -34 78 -34 61 0 64 1 74 28 16 45 68 98 124 126 59 30 147 34 210
12 55 -20 114 -71 138 -121 l22 -45 70 0 70 0 -4 61 c-3 45 -10 65 -23 75 -30
22 -9 29 93 29 l97 0 3 -28 3 -28 30 25 c56 48 158 58 227 22 42 -22 83 -66
104 -114 l19 -43 127 3 127 3 0 100 0 100 -1331 3 c-732 1 -1334 -1 -1337 -5z"/>
<path d="M2751 1254 c-20 -15 -61 -91 -61 -115 0 -5 45 -9 100 -9 62 0 100 4
100 10 0 21 -31 85 -52 107 -25 27 -55 29 -87 7z"/>
<path d="M1457 1249 c-19 -11 -57 -80 -57 -104 0 -12 15 -15 80 -15 65 0 80 3
80 15 0 26 -39 94 -59 105 -23 12 -22 12 -44 -1z"/>
<path d="M2084 1245 c-23 -15 -54 -73 -54 -99 0 -13 14 -16 84 -16 l85 0 -16
45 c-13 39 -52 85 -72 85 -4 0 -16 -7 -27 -15z"/>
<path d="M40 915 l0 -145 1234 0 1234 0 1 145 2 145 -66 0 -65 0 0 -32 c-1
-75 -69 -171 -148 -209 -57 -27 -158 -30 -213 -7 -82 35 -147 119 -158 203
l-6 40 -52 3 c-50 3 -53 2 -53 -21 0 -50 -34 -122 -79 -167 -102 -102 -251
-103 -361 -4 -49 44 -66 75 -81 144 l-11 50 -290 0 -290 0 4 -89 c2 -53 9 -96
17 -105 11 -13 37 -16 140 -16 150 0 161 5 236 103 47 62 75 83 75 55 0 -7
-13 -58 -29 -113 l-28 -100 -360 -3 c-301 -2 -362 0 -366 12 -4 10 6 15 35 19
64 9 73 23 76 137 l4 100 -201 0 -201 0 0 -145z"/>
<path d="M1392 997 c17 -205 156 -206 175 -2 l6 65 -93 0 -93 0 5 -63z"/>
<path d="M2020 1015 c0 -62 36 -154 66 -167 40 -18 69 3 93 67 12 31 21 76 21
100 l0 45 -90 0 -90 0 0 -45z"/>
<path d="M2684 1004 c16 -137 94 -216 155 -155 26 26 61 124 61 171 l0 40
-111 0 -112 0 7 -56z"/>
<path d="M3064 1013 c-13 -97 -62 -169 -134 -199 -67 -29 -189 -16 -232 23
-17 15 -18 14 -18 -25 l0 -42 319 0 320 0 -2 143 -2 142 -122 3 -122 3 -7 -48z"/>
<path d="M40 510 l0 -190 1640 0 1640 0 -2 188 -3 187 -317 3 -318 2 0 -88 c0
-62 4 -94 15 -108 30 -40 22 -44 -105 -44 -98 0 -120 3 -120 15 0 7 8 18 18
24 14 8 18 27 20 105 l4 96 -1236 0 -1236 0 0 -190z m1148 118 c2 -38 0 -48
-12 -48 -9 0 -16 8 -16 17 0 20 -28 53 -47 53 -10 0 -13 -28 -13 -134 0 -127
1 -134 21 -139 42 -11 6 -27 -61 -27 -67 0 -103 16 -61 27 20 5 21 12 21 139
0 96 -3 134 -12 134 -19 0 -48 -31 -48 -52 0 -10 -7 -18 -15 -18 -11 0 -15 11
-15 43 0 24 3 47 7 51 4 3 61 5 127 4 l121 -3 3 -47z m272 -98 c0 -93 4 -150
10 -150 6 0 10 -7 10 -15 0 -11 -12 -15 -49 -15 -54 0 -70 10 -46 30 21 18 22
252 0 273 -19 20 -9 27 37 27 l38 0 0 -150z m-130 40 c19 -10 44 -72 38 -92
-3 -8 -21 -11 -51 -9 -51 3 -56 -4 -37 -53 11 -29 41 -34 60 -11 14 16 30 20
30 6 0 -4 -11 -20 -25 -35 -33 -35 -83 -36 -116 0 -20 22 -24 36 -24 89 0 53
4 67 24 89 26 27 67 34 101 16z m290 0 c17 -9 40 -58 40 -86 0 -10 -15 -14
-50 -14 -55 0 -64 -15 -34 -58 18 -26 31 -28 56 -5 27 24 35 7 11 -25 -27 -36
-85 -43 -118 -12 -44 41 -40 162 8 195 25 17 60 19 87 5z m202 -7 c22 -20 23
-46 3 -63 -21 -18 -45 -5 -45 24 0 32 -16 42 -29 17 -16 -29 -13 -103 5 -129
17 -24 43 -29 62 -10 17 17 25 3 13 -21 -13 -23 -45 -34 -87 -29 -73 8 -98
136 -39 198 33 35 87 41 117 13z m169 7 c50 -27 64 -124 26 -181 -18 -27 -30
-35 -61 -37 -50 -4 -82 18 -97 67 -31 105 48 195 132 151z m139 0 c0 -7 6 -7
19 0 28 15 67 12 81 -5 12 -14 15 -14 30 0 25 22 66 19 84 -7 11 -16 16 -46
16 -100 0 -42 5 -80 10 -83 28 -17 0 -24 -95 -24 -96 0 -131 8 -105 24 5 3 10
42 10 86 0 71 -2 80 -17 77 -16 -3 -18 -16 -18 -96 l0 -92 -47 0 c-36 0 -48 4
-48 15 0 8 5 15 10 15 6 0 10 35 10 84 0 47 -4 88 -10 91 -22 13 -8 25 30 25
22 0 40 -5 40 -10z"/>
<path d="M1270 534 c-13 -34 -13 -34 15 -34 25 0 31 13 19 44 -9 24 -23 19
-34 -10z"/>
<path d="M1567 554 c-4 -4 -7 -18 -7 -31 0 -17 6 -23 21 -23 16 0 20 5 17 27
-3 26 -18 39 -31 27z"/>
<path d="M1926 544 c-3 -9 -6 -46 -6 -84 0 -49 4 -71 16 -81 24 -20 34 4 34
83 0 74 -6 98 -25 98 -7 0 -16 -7 -19 -16z"/>
<path d="M2254 527 c-3 -8 -4 -45 -2 -83 2 -53 6 -69 18 -69 12 0 16 17 18 83
2 69 0 82 -13 82 -9 0 -18 -6 -21 -13z"/>
</g>

</svg>
