<svg viewBox="-13.81 -4.642 45 45" xml:space="preserve" xmlns="http://www.w3.org/2000/svg"><path d="M-9.623 32.957h-.493V31.2h-.972v-.381h2.441v.381h-.976v1.757m1.764-2.138h2.167v.364h-1.675v.477h.977v.365h-.977v.53h1.695v.402h-2.187v-2.138m3.73.381v1.356h1.33v-.46l.492.103v.253c0 .402-.128.505-.525.505h-1.264c-.399 0-.525-.103-.525-.505v-1.127c0-.403.126-.506.525-.506h1.264c.397 0 .525.103.525.506v.202l-.493.08V31.2h-1.33m3.025-.381h.492v.829h1.54v-.83h.496v2.14H.926v-.92H-.613v.92h-.492v-2.14m3.792 0h.335l1.49 1.26c.085.071.168.146.241.233a6.894 6.894 0 0 1-.02-.37v-1.122h.443v2.138h-.337l-1.554-1.322a1.771 1.771 0 0 1-.176-.174c.016.166.02.278.02.34v1.156h-.442v-2.138m5.684 1.737v-1.357H6.746v1.356zm-1.592-1.737h1.56c.397 0 .524.103.524.506v1.127c0 .402-.127.505-.525.505h-1.56c-.397 0-.524-.103-.524-.505v-1.127c0-.403.127-.506.525-.506m3.307 0h.492v1.737h1.589v.401h-2.08v-2.138m4.982 1.737v-1.357h-1.625v1.356zm-1.592-1.737h1.56c.397 0 .525.103.525.506v1.127c0 .402-.128.505-.526.505h-1.559c-.398 0-.525-.103-.525-.505v-1.127c0-.403.127-.506.525-.506m3.755.381v1.356h1.538v-.477h-.804v-.365h1.284v.738c0 .402-.126.505-.525.505h-1.46c-.399 0-.525-.103-.525-.505v-1.127c0-.403.126-.506.525-.506h1.46c.386 0 .525.1.525.485v.05l-.48.086v-.24h-1.538m3.245 1.757h.493v-2.138h-.493zm1.654-2.138h2.167v.364h-1.674v.477h.976v.365h-.976v.53h1.694v.402h-2.187v-2.138m3.73.373v.46h1.321c.398 0 .53.103.53.505v.295c0 .402-.132.505-.53.505h-1.309c-.398 0-.529-.103-.529-.505v-.058l.435-.091v.253h1.498v-.49h-1.322c-.397 0-.525-.103-.525-.505v-.236c0-.403.128-.506.525-.506h1.203c.377 0 .525.1.525.468v.046l-.435.103v-.244h-1.387" fill="#7b7979"/><path d="M27.731 25.271h.08c.09 0 .17-.022.17-.093 0-.06-.04-.1-.158-.1a.478.478 0 0 0-.092.007zm0 .34h-.113v-.6a1.161 1.161 0 0 1 .213-.019c.11 0 .162.018.206.048a.15.15 0 0 1 .065.127c0 .074-.06.12-.13.142v.007c.06.019.09.067.11.145a.43.43 0 0 0 .048.15h-.117a.384.384 0 0 1-.053-.157c-.016-.067-.06-.097-.153-.097h-.076zm.108-.787a.478.478 0 0 0-.491.47c0 .264.213.473.5.473a.47.47 0 0 0 .487-.47c0-.26-.21-.473-.491-.473zm.009-.1c.346 0 .62.25.62.57 0 .324-.274.577-.624.577-.347 0-.625-.253-.625-.577 0-.32.278-.57.625-.57h.004m-2.956 4.55v-.309c.41-.062.473-.154.294-.453l-.63-1.01c-.21.31-.42.66-.589.948-.189.32-.136.433.326.515v.31h-1.975v-.31c.598-.093.767-.206 1.155-.659.273-.309.547-.7.862-1.123l-.914-1.462c-.315-.495-.43-.588-.998-.67v-.309h2.343v.31c-.389.071-.442.164-.273.411l.546.855c.22-.309.4-.607.546-.855.168-.268.105-.34-.325-.412v-.309h1.922v.31c-.599.081-.714.133-1.092.525-.232.247-.473.587-.83 1.07l1.019 1.566c.357.546.567.68 1.092.752v.31h-2.48m-5.073-4.276c-.505 0-.977.588-.977 1.752 0 1.277.472 2.266 1.208 2.266.494 0 .956-.33.956-1.813 0-1.339-.42-2.204-1.177-2.204zm.158-.38c1.397 0 2.342 1.071 2.342 2.307 0 1.658-1.218 2.472-2.385 2.472-1.575 0-2.405-1.154-2.405-2.287 0-1.668 1.334-2.492 2.437-2.492h.01m-4.798 4.655v-.309c.505-.062.568-.113.568-.834v-1.74c0-.732-.316-1.041-.81-1.041-.325 0-.62.165-.914.391v2.462c0 .66.064.7.557.762v.31h-2.436v-.31c.672-.082.725-.103.725-.793V26.04c0-.628-.053-.67-.588-.773V25a10.926 10.926 0 0 0 1.743-.402v.783c.21-.144.431-.31.673-.464.305-.195.536-.298.84-.298.84 0 1.366.597 1.366 1.617v1.967c0 .66.063.69.63.762v.31h-2.353m-5.17-2.462c-.2.102-.494.247-.714.36-.357.165-.547.36-.547.72 0 .557.4.784.673.784.2 0 .41-.093.588-.237zm.893 2.585a.893.893 0 0 1-.588-.206.86.86 0 0 1-.263-.412c-.41.268-.914.618-1.156.618-.84 0-1.365-.66-1.365-1.298 0-.525.262-.793.82-.999.62-.217 1.418-.474 1.66-.67v-.268c0-.68-.284-1.06-.726-1.06a.492.492 0 0 0-.4.185c-.115.144-.21.381-.303.7-.064.237-.2.31-.39.31-.24 0-.577-.227-.577-.485 0-.175.126-.298.346-.463.368-.247 1.083-.618 1.681-.731.39 0 .704.092.967.298.43.32.525.752.525 1.319v1.771c0 .474.168.608.347.608a.878.878 0 0 0 .368-.093l.105.31-1.05.566m-6.147-.124v-.309c.64-.082.714-.134.714-.803v-4.52c0-.649-.052-.93-.672-1v-.28a11.907 11.907 0 0 0 1.828-.36v6.16c0 .69.074.741.725.803v.31H4.755m-2.71-.001v-.309c.64-.082.714-.134.714-.803v-4.52c0-.649-.053-.67-.672-.742v-.278a11.908 11.908 0 0 0 1.828-.36v5.9c0 .69.073.741.725.803v.31H2.045m-2.06-4.255c-.43 0-.83.464-.924 1.278.483 0 .945-.01 1.44-.031.167 0 .23-.042.23-.206 0-.526-.273-1.04-.735-1.04zm1.85 3.296c-.641.876-1.43 1.082-1.829 1.082-1.355 0-2.122-1.02-2.122-2.204 0-.763.305-1.401.746-1.834.452-.463 1.03-.741 1.576-.741h.01c.935 0 1.66.793 1.66 1.617 0 .206-.063.32-.283.36-.179.02-1.471.124-2.585.165.032 1.215.725 1.782 1.47 1.782.41 0 .81-.144 1.178-.474l.179.247m-7.04.958v-.34c.82-.072.862-.144.851-1.143l-.02-4.048h-.043l-2.416 5.46h-.263l-2.217-5.347h-.031l-.137 2.77c-.042.856-.042 1.33-.01 1.69.031.464.252.556.956.618v.34h-2.5v-.34c.598-.051.798-.216.871-.608.063-.329.137-.834.21-1.915l.158-2.08c.084-1.226.01-1.34-.904-1.422v-.33h2.007l2.164 4.738 2.196-4.738h1.996v.33c-.872.082-.924.144-.903 1.07l.105 3.812c.02 1 .063 1.061.914 1.143v.34h-2.984M9.06 17.019c-.3 0-.632.001-.986.006l.494-.815Zm18.13 4.305c.006-.352-.137-.672-.376-.96l-9.76-16.385V2.758h-1.782v1.154L8.568 15.024 1.865 3.912V2.758H.082V3.98l-9.76 16.384c-.24.288-.382.608-.377.96h3.21s-.415-.82 1.657-1.627c.002-.002.482-1.467.482-1.467s-2.002.355-3.556 1.119l7.594-12.82-4.278 13.086.849-.32 4.18-12.91v11.071a72.323 72.323 0 0 0-3.519.516l-.375 1.246s6.135-1.255 9.231-1.151l-.273-.97s-1.161-.02-3.282.17V6.197l3.836 11.852.731-.033L2.718 6.574l5.491 9.045-.857 1.421c-.325.01-.662.02-1.005.035l.304.94s1.997-.123 3.781.021c.013.003.317-.99.317-.99s-.37-.014-.973-.022l-.848-1.405 5.486-9.038-3.728 11.46.75.02 3.836-11.862v11.07c-2.121-.19-3.283-.173-3.283-.173l-.27.972c3.093-.105 9.236 1.151 9.236 1.151l-.383-1.245a71.733 71.733 0 0 0-3.517-.517V6.385l4.179 12.91.844.303-4.27-13.069 7.59 12.82c-1.554-.764-3.556-1.12-3.556-1.12s.48 1.465.483 1.467c2.072.807 1.657 1.627 1.657 1.627h3.21" fill="#21236a"/></svg>