<?xml version="1.0" encoding="UTF-8" standalone="no"?>
<!-- Created with Inkscape (http://www.inkscape.org/) -->

<svg
   version="1.1"
   id="svg2"
   viewBox="0 0 59.528 59.528"
   sodipodi:docname="MikroTik-logo-2021.ai"
   xmlns:inkscape="http://www.inkscape.org/namespaces/inkscape"
   xmlns:sodipodi="http://sodipodi.sourceforge.net/DTD/sodipodi-0.dtd"
   xmlns="http://www.w3.org/2000/svg"
   xmlns:svg="http://www.w3.org/2000/svg">
  <defs
     id="defs6">
    <clipPath
       clipPathUnits="userSpaceOnUse"
       id="clipPath18">
      <path
         d="M 0,173.126 H 356.278 V 0 H 0 Z"
         id="path16" />
    </clipPath>
  </defs>
  <sodipodi:namedview
     id="namedview4"
     pagecolor="#ffffff"
     bordercolor="#000000"
     borderopacity="0.25"
     inkscape:showpageshadow="2"
     inkscape:pageopacity="0.0"
     inkscape:pagecheckerboard="0"
     inkscape:deskcolor="#d1d1d1"
     showgrid="false" />
  <g
     id="g10"
     inkscape:groupmode="layer"
     inkscape:label="Page 1"
     transform="matrix(1.3333333,0,0,-1.3333333,-142.91408,177.03676)">
    <g
       id="g12">
      <g
         id="g14"
         clip-path="url(#clipPath18)">
        <g
           id="g20"
           transform="translate(142.83756,104.65057)">
          <path
             d="m 0,0 c 0,-0.724 -0.395,-1.391 -1.03,-1.74 l -2.697,-1.477 c -0.33,-0.181 -0.734,0.058 -0.734,0.434 V 7.804 c 0,0.377 -0.403,0.616 -0.733,0.435 l -4.874,-2.671 c -0.635,-0.348 -1.03,-1.014 -1.03,-1.739 V -6.672 c 0,-0.362 -0.197,-0.695 -0.515,-0.869 l -0.765,-0.418 c -0.593,-0.325 -1.312,-0.325 -1.906,10e-4 l -0.76,0.417 c -0.317,0.174 -0.515,0.507 -0.515,0.869 V 3.829 c 0,0.724 -0.394,1.391 -1.03,1.739 l -10.069,5.519 v 0.522 c 0,0.724 0.395,1.39 1.03,1.738 l 1.111,0.609 c 0.594,0.325 1.312,0.325 1.905,0 l 8.33,-4.565 c 0.594,-0.326 1.312,-0.326 1.905,0 l 3.85,2.109 c 0.343,0.188 0.343,0.681 0,0.869 l -8.649,4.741 c -0.344,0.188 -0.344,0.682 0,0.87 l 2.894,1.586 c 0.593,0.325 1.312,0.325 1.906,0 L -1.031,13.348 C -0.395,13 0,12.333 0,11.608 Z m -22.197,-2.782 c 0,-0.377 -0.404,-0.616 -0.734,-0.435 l -2.697,1.478 c -0.636,0.348 -1.03,1.015 -1.03,1.739 v 7.989 c 0,0.376 0.403,0.615 0.733,0.434 l 3.213,-1.759 c 0.317,-0.175 0.515,-0.508 0.515,-0.87 z M 7.209,16.615 c -0.054,0.125 -0.111,0.244 -0.176,0.351 -0.065,0.106 -0.142,0.213 -0.229,0.319 -0.45,0.553 -1.183,1.094 -2.12,1.608 l -7.54,4.133 -7.541,4.133 c -0.937,0.514 -1.797,0.846 -2.526,0.94 -0.14,0.018 -0.276,0.028 -0.406,0.028 -0.806,0 -1.815,-0.356 -2.933,-0.968 l -7.54,-4.133 -7.54,-4.133 c -0.937,-0.514 -1.67,-1.055 -2.12,-1.608 -0.087,-0.106 -0.164,-0.213 -0.229,-0.319 -0.065,-0.107 -0.123,-0.226 -0.176,-0.351 -0.279,-0.646 -0.408,-1.517 -0.408,-2.544 V -2.462 c 0,-1.225 0.181,-2.232 0.584,-2.895 0.403,-0.663 1.231,-1.315 2.349,-1.927 l 7.54,-4.134 7.54,-4.133 c 0.937,-0.513 1.798,-0.845 2.527,-0.939 0.14,-0.018 0.276,-0.029 0.406,-0.029 0.13,0 0.266,0.011 0.406,0.029 0.729,0.094 1.589,0.426 2.526,0.939 l 15.081,8.267 c 1.117,0.612 1.946,1.264 2.349,1.927 0.065,0.107 0.122,0.226 0.176,0.35 0.279,0.647 0.408,1.518 0.408,2.545 v 16.533 c 0,1.027 -0.129,1.898 -0.408,2.544"
             style="display:inline;fill:#272d33;fill-opacity:1;fill-rule:nonzero;stroke:none"
             id="path22"
             sodipodi:nodetypes="sccssccssccccssccsccccccccccccsssccssccsscccccccsccccccsssccccscccccssc" />
        </g>
      </g>
    </g>
  </g>
</svg>
