<svg xmlns="http://www.w3.org/2000/svg" viewBox="0 0 810.53064 196.91068"><defs><clipPath id="a"><path d="M0 147.683h607.898V0H0z"/></clipPath></defs><path d="M166.182 63.547L80.129 180.813 55.759 63.547H34.027L0 194.167h14.49L44.123 74.158h.44l25.244 120.01h14.931l86.71-118.18h.44l-32.269 118.18h14.71l33.588-130.62zM202.01 99.77l-24.368 94.397h13.83L215.84 99.77zM235.715 99.751l-24.086 94.416h13.831l8.781-34.21 24.147-16.831 30.076 51.041h15.148l-34.247-57.993 53.566-36.404h-18.44l-66.299 46.101-.439-.366L249.57 99.75z" fill="#231f20"/><g clip-path="url(#a)" transform="matrix(1.33333 0 0 -1.33333 0 196.91)"><path d="M248.311 72.856L230.036 2.058h10.373l9.55 37.046c3.456 13.309 13.335 25.794 31.94 26.068 1.976 0 3.952-.137 5.928-.137l2.305 8.644c-1.812.138-3.787.138-5.598.138-15.148.137-24.203-7.135-30.789-17.29h-.33l4.281 16.329zM351.726 45.415c0-16.465-12.02-38.142-34.74-38.142-17.288 0-25.52 9.329-25.52 23.049 0 16.601 12.513 37.32 35.235 37.32 16.628 0 25.025-9.056 25.025-22.227m10.373 1.783c0 17.425-13.83 27.716-33.588 27.716-30.295 0-47.418-22.228-47.418-45.415C281.093 11.8 293.113 0 315.01 0c31.448 0 47.09 23.325 47.09 47.198M461.635 72.905l6.742 27.133H366.956l-6.702-27.169h32.536l-.002-.008h36.273l.003.008zM389.563 59.89L375.188 2.076h36.224l14.41 57.793.006.025h-36.264zM503.33 72.905l6.775 27.133h-32.6l-6.821-27.169zm-35.876-13.02l-14.316-57.81h32.599l14.317 57.81zM523.6 100.038L499.233 2.074h32.6l5.104 20.307 7.41 5.487 11.525-25.794h35.398l-21.733 42.534L607.9 73.283h-39.021L544.84 52.43h-.33l11.69 47.61zM165.518 147.683c3.984-27.659 18.832-44.453 49.086-45.84-28.507-10.899-57.895 14.738-49.087 45.84" fill="#231f20" fill-rule="evenodd"/><path d="M149.697 142.815c.345.074.382-.158.405-.406.967-17.642 8.408-31.013 18.256-40.162 9.726-9.036 23.09-16.55 41.783-16.226-34.958-13.924-71.684 19.53-60.444 56.794" fill="#231f20" fill-rule="evenodd"/></g></svg>