<svg xmlns="http://www.w3.org/2000/svg" viewBox="0 0 586.02655 127.73303"><path d="M209.034 12.9c-.353-1.617-4.913-4.942-6.929-6.446-2.022-1.523-2.652-2.021-4.835-3.242C195.092 2 190.449-.421 188.955.063c-.884.283-1.719 2.3-2.836 5.005a162.084 162.084 0 0 1-2.974 6.768c-1.319 2.826-2.3 5.18-2.095 7.006.107.919 1.099 1.67 2.446 2.842 1.343 1.182 2.5 2.002 4.468 3.282a61.149 61.149 0 0 0 6.147 3.54c2.139 1.088 4.088 1.747 5.566 1.977 1.47.215 2.223.283 3.194-.727.981-1.022 1.289-1.91 1.841-3.35a143.664 143.664 0 0 1 1.894-4.708c.689-1.576 1.173-3.3 1.593-4.452.492-1.388 1.058-3.258.835-4.347M549.449 59.8c-.455-3.272-2.3-4.683-5.514-4.24-4.775.646-9.985 8.907-16.171 24.552-3.848 9.716-4.048 13.896-3.716 16.777.42 3.525 2.573 6.499 5.102 7.212.884.24 1.749.297 2.584.186 3.804-.523 6.562-6.7 8.755-11.393 2.626-5.61 2.505-5.746 4.804-12.513 3.227-9.46 4.776-16.265 4.156-20.582zm-147.492.107c-.472-3.271-2.313-4.683-5.53-4.239-4.762.645-9.967 8.906-16.173 24.551-3.833 9.717-4.033 13.897-3.697 16.778.4 3.525 2.554 6.499 5.098 7.211a6.435 6.435 0 0 0 2.569.19c3.824-.526 6.567-6.704 8.76-11.396 2.621-5.61 2.505-5.746 4.814-12.514 3.217-9.459 4.78-16.265 4.16-20.581zm-200.556 54.027c0-.522.244-2.016.728-4.477.391-2.06.942-4.565 1.616-7.524a377.806 377.806 0 0 1-9.795 8.071c-3.647 2.895-7.172 5.479-10.6 7.764-3.419 2.29-6.636 4.13-9.61 5.533-2.984 1.396-5.527 2.108-7.641 2.108-1.319 0-2.989-.453-5.005-1.381-2.124-.996-4.048-2.13-5.786-3.434-1.842-1.356-3.428-2.865-4.747-4.535-1.317-1.665-1.962-3.296-1.962-4.868a185.09 185.09 0 0 1 2.5-9.727 327.1 327.1 0 0 1-10.118 8.34c-3.632 2.895-7.167 5.488-10.586 7.764-3.433 2.285-6.635 4.13-9.624 5.526-2.984 1.417-5.527 2.115-7.626 2.115-1.319 0-2.984-.458-5.005-1.386a31.794 31.794 0 0 1-5.796-3.419c-1.847-1.372-3.418-2.876-4.737-4.546-1.318-1.67-1.977-3.295-1.977-4.867.791-3.594 1.841-7.687 3.159-12.247a371.948 371.948 0 0 1 4.346-14.018 443.54 443.54 0 0 1 4.941-14.15c1.709-4.66 3.35-8.96 4.936-12.905-1.762 2.098-4.09 4.657-6.982 7.63-2.895 2.985-6.191 6.915-9.878 11.783-3.686 4.873-7.627 10.913-11.85 18.11-4.21 7.198-8.423 15.968-12.632 26.329-.528 1.748-1.806 2.636-3.824 2.636-1.049 0-2.339-.2-3.871-.591-1.549-.405-3.165-1.025-4.888-1.845a45.123 45.123 0 0 1-5.26-3.091c-1.8-1.24-3.486-2.734-5.072-4.483 0-.62.336-2.475.996-5.595.659-3.12 1.616-7.09 2.895-11.918 1.265-4.82 2.784-10.225 4.546-16.188a391.537 391.537 0 0 1 5.918-18.432c-2.109 2.276-4.736 5.195-7.895 8.745-3.164 3.565-6.539 7.856-10.146 12.906-3.589 5.057-7.277 10.907-11.055 17.582-3.77 6.67-7.334 14.219-10.659 22.642-.538 1.846-1.764 2.773-3.688 2.773-1.503 0-3.187-.435-5.072-1.255-1.895-.845-3.819-1.933-5.796-3.296-1.978-1.357-4.048-2.705-5.918-4.545-.737-.724-2.061-2.364-2.881-3.834 0-.527.244-2.021.727-4.482.484-2.446 1.158-5.541 2.032-9.268.888-3.74 1.962-7.992 3.227-12.782A344.452 344.452 0 0 1 10.4 72.133a375.14 375.14 0 0 1 5.527-16.127c1.857-5.05 2.798-7.848 5.113-12.218.205-.376 1.025-1.562 1.67-1.87.674-.312 1.801-.151 2.339.069 2.422.951 3.286 1.235 7.187 3.442a69.241 69.241 0 0 1 10.049 6.875c.82.674 1.816 1.533 1.939 2.514.063.606-.338 1.631-.743 2.676a491.177 491.177 0 0 0-1.962 5.303 272.956 272.956 0 0 0-3.028 8.829c5.528-6.583 10.118-11.857 13.765-15.797 3.633-3.955 6.66-7.021 9.081-9.218 2.408-2.193 4.41-3.74 5.987-4.614 1.587-.875 3.027-1.534 4.346-1.978.791 0 2.124.444 4.009 1.318 1.895.874 3.911 1.954 6.065 3.232a93.874 93.874 0 0 1 6.122 3.955c1.924 1.358 3.281 2.477 4.078 3.35.697.699.795 1.709.268 3.028a426.522 426.522 0 0 0-3.096 8.486 368.821 368.821 0 0 0-2.974 8.76c5.88-6.754 10.807-12.179 14.747-16.25 3.955-4.092 7.187-7.227 9.687-9.419 2.505-2.192 4.453-3.647 5.855-4.346 1.41-.699 2.5-1.05 3.295-1.05 1.143 0 2.851.566 5.138 1.709 2.275 1.142 4.575 2.544 6.903 4.209 2.324 1.67 4.347 3.38 6.055 5.142 1.72 1.748 2.568 3.281 2.568 4.599 0 .269-.044.591-.136.996-.078.391-.2.904-.39 1.509-.699 2.3-1.603 4.83-2.691 7.759-1.113 2.988-2.26 6.085-3.497 9.287a2738.364 2738.364 0 0 1-3.686 9.619c-1.225 3.199-2.329 6.201-3.281 9.014-.971 2.812-1.763 5.258-2.383 7.373-.605 2.109-.913 3.643-.913 4.614 0 .523.255.781.79.781.958 0 2.408-.566 4.347-1.708 1.924-1.148 4.145-2.637 6.645-4.483a223 223 0 0 0 7.833-6.055 332.676 332.676 0 0 0 7.827-6.509c2.035-1.752 3.906-3.363 5.615-4.843.161-.483.323-.982.483-1.48a358.808 358.808 0 0 1 5.396-15.204 889.248 889.248 0 0 1 5.136-13.238c1.534-3.862 2.339-5.855 3.486-8.222 1.143-2.369 1.803-3.565 2.769-3.795.928-.224 2.466.03 4.575 1.172 2.1 1.143 3.701 2.178 6.026 3.809 2.314 1.626 4.399 3.335 6.245 5.126 1.84 1.803 2.774 3.36 2.774 4.679 0 .259-.045.595-.137.986-.083.4-.215.898-.39 1.519a212.988 212.988 0 0 1-2.705 7.763 987.308 987.308 0 0 1-3.483 9.282 2015.5 2015.5 0 0 0-3.686 9.605 262.662 262.662 0 0 0-3.296 9.028 158.32 158.32 0 0 0-2.368 7.373c-.62 2.1-.927 3.648-.927 4.6 0 .527.268.795.79.795.972 0 2.422-.566 4.346-1.708 1.939-1.143 4.146-2.637 6.646-4.483a237.021 237.021 0 0 0 7.846-6.05 332.585 332.585 0 0 0 7.828-6.527c1.425-1.227 2.782-2.38 4.052-3.473a343.106 343.106 0 0 1 3.925-13.33 373.054 373.054 0 0 1 5.528-16.117c1.861-5.044 2.802-7.857 5.112-12.218.205-.375 1.025-1.571 1.67-1.87.674-.322 1.802-.146 2.344.069 2.423.957 3.281 1.235 7.183 3.427a69.731 69.731 0 0 1 10.048 6.89c.812.674 1.817 1.533 1.924 2.505.084.615-.322 1.627-.727 2.69a567.036 567.036 0 0 0-1.963 5.298 277.893 277.893 0 0 0-3.027 8.829c5.532-6.593 10.117-11.857 13.75-15.812 3.647-3.94 6.675-7.021 9.096-9.213 2.407-2.193 4.4-3.725 5.986-4.6 1.573-.874 3.028-1.533 4.346-1.977.792 0 2.124.444 4.009 1.318 1.895.875 3.916 1.949 6.055 3.227a91.62 91.62 0 0 1 6.133 3.942c1.923 1.362 3.28 2.49 4.077 3.363.698.699.795 1.709.269 3.028a342.188 342.188 0 0 0-3.096 8.491 321.005 321.005 0 0 0-2.974 8.755c5.884-6.767 10.806-12.172 14.751-16.265 3.95-4.077 7.183-7.211 9.683-9.404 2.505-2.192 4.453-3.647 5.855-4.346 1.396-.712 2.5-1.06 3.295-1.06 1.142 0 2.852.576 5.127 1.719 2.285 1.134 4.585 2.545 6.914 4.215 2.329 1.665 4.346 3.374 6.055 5.121 1.724 1.763 2.569 3.296 2.569 4.615 0 .259-.04.595-.138.986-.077.4-.2.898-.385 1.519-.704 2.299-1.602 4.829-2.696 7.763-1.113 2.983-2.27 6.08-3.496 9.282-1.22 3.204-2.46 6.401-3.687 9.605a271.675 271.675 0 0 0-3.281 9.028c-.966 2.812-1.762 5.26-2.382 7.373-.615 2.1-.913 3.648-.913 4.6 0 .527.254.795.79.795.958 0 1.495-1.225 3.365-2.451 1.87-1.235 4.009-2.836 6.42-4.799a225.9 225.9 0 0 0 7.52-6.446 306.894 306.894 0 0 0 7.49-6.899c.489-.458.958-.918 1.431-1.362 2.739-5.059 5.567-10.561 9.468-15.904 9.057-12.387 16.977-21.186 24.565-25.907 4.229-2.72 8.477-4.375 12.769-4.967 8.1-1.117 14.102 2.154 17.988 9.81.85 1.665 1.44 3.672 1.778 5.997 1.112 7.792-.484 17.87-4.79 30.218-.191.499-.391.997-.606 1.509 5.503-1.386 13.52-7.104 16.587-9.809 2.841-2.476 8.208-7.456 9.795-9.258 2.568-2.92 7.818-8.945 10.103-12.24 1.816-2.638 6.918-10.202 7.846-12.364.927-2.168 2.584-4.951 3.404-5.761 1.073-1.045 1.465-1.06 2.446-.885 1.186.2 2.544 1.236 4.506 3.12a143.613 143.613 0 0 1 5.84 5.972c1.939 2.1 3.648 4.024 5.143 5.771 1.478 1.749 1.962 2.423 2.177 3.15.62 2.178.283 5.059.254 6.269-.025 1.035.175 3.271.39 6.46.215 3.189.366 5.015.635 8.609.269 3.594 1.021 8.247.645 12.876-.245 2.813-.728 6.553-2.178 10.303-1.265 3.296-3.35 6.03-5.908 7.748 4.292-2.553 8.368-5.688 12.5-8.983a288.2 288.2 0 0 0 4.76-3.902l.045-.03c6.6-5.742 7.612-10.171 13.735-19.062 8.408-12.216 15.483-21.191 23.07-25.913 4.225-2.715 8.492-4.37 12.785-4.961 5.057-.704 9.29.323 12.71 3.051.648-2.275 1.967-5.028 2.528-5.932.728-1.186 1.079-1.24 2.037-1.143 1.127.123 2.622 1.06 4.867 2.838 2.261 1.762 5.519 4.506 7.305 6.176 1.778 1.68 2.393 2.324 2.759 3.066 1.089 2.178 1.157 5.02.484 7.52-1.832 6.084-4.654 15.098-8.463 27.017-1.455 4.413-1.937 8.178-1.44 11.275.323 2.03.904 3.28 1.739 3.763.83.474 2.959-1.073 6.376-4.652 3.053-3.228 5.435-6.201 7.154-8.946 1.025-1.67 1.699-2.52 2.021-2.52.645 0 1.504.606 2.554 1.792 1.05 1.196 1.655 2.223 1.777 3.053.177 1.063-.307 2.412-1.455 4.023a748.502 748.502 0 0 0-3.565 5.098c-1.816 2.749-5.233 6.889-10.223 12.431-5.005 5.556-8.41 9.043-10.225 10.484-3.282 2.5-6.632 3.755-10.088 3.755-2.705 0-5.304-.865-7.779-2.598-2.505-1.723-4.023-4.385-4.6-7.965-.282-1.791-.321-3.753-.136-5.907-5.136 5.61-9.511 9.657-13.105 12.177-3.59 2.5-7.397 3.75-11.383 3.75-3.993 0-9.39-1.372-12.417-4.116-3.026-2.744-4.883-6.255-5.566-10.561-.298-1.841-.42-4.478-.244-7.481a217.393 217.393 0 0 1-9.444 7.696c-3.686 2.841-7.357 5.326-10.951 7.602-3.594 2.26-7.671 4.238-11.129 5.38-3.456 1.134-6.537 1.48-9.511 1.48-2.554 0-5.351-.615-8.433-1.841a52.26 52.26 0 0 1-8.69-4.482c-2.72-1.763-5.09-3.603-7.106-5.527-2.016-1.938-3.202-3.555-3.555-4.873 0-.172.176-.552.528-1.113a18.61 18.61 0 0 1 1.25-1.792 21.16 21.16 0 0 1 1.455-1.642c.468-.482.845-.727 1.118-.727.523 0 1.573.406 3.16 1.187 1.572.79 4.208 1.855 7.895 1.855 2.022 0 3.755-.658 5.195-1.708 1.455-1.05 3.297-2.96 4.185-4.747 1.264-2.52 2.114-5.547 2.705-7.792.508-1.949 1.035-4.63 1.25-7.169.308-3.676.43-7.241.362-10.737a286.35 286.35 0 0 0-.338-10.132c-1.426 2.085-2.759 4.385-4.409 6.714-.957 1.348-6.137 7.505-7.28 8.716-2.33 2.475-9.848 9.072-14.048 12.07-7.613 5.464-15.805 8.877-24.644 11.007-8.461 14.486-19.014 22.587-31.645 24.335-6.065.835-11.168-.43-15.298-3.794-4.126-3.364-6.66-8.315-7.597-14.854-.338-2.324-.43-4.76-.284-7.319a409.48 409.48 0 0 1-8.355 7.588c-3.5 3.071-6.904 5.84-10.2 8.291-3.31 2.446-6.416 4.453-9.335 6.001-2.906 1.543-5.411 2.485-7.505 2.485-1.319 0-2.989-.468-5.005-1.381a32.914 32.914 0 0 1-5.801-3.434c-1.845-1.356-3.418-2.865-4.736-4.535-1.319-1.665-1.978-3.296-1.978-4.868.796-3.604 1.846-7.68 3.159-12.242a372.716 372.716 0 0 1 4.351-14.032 447.749 447.749 0 0 1 4.936-14.156 488.707 488.707 0 0 1 4.937-12.9c-1.763 2.108-4.092 4.653-6.983 7.64-2.89 2.99-6.191 6.916-9.872 11.788-3.687 4.868-7.642 10.894-11.857 18.092-4.208 7.2-8.422 15.986-12.63 26.342-.528 1.753-1.802 2.626-3.825 2.626-1.048 0-2.352-.19-3.886-.595-1.534-.386-3.159-1.006-4.867-1.841a40.373 40.373 0 0 1-5.264-3.095c-1.803-1.226-3.496-2.715-5.069-4.477 0-.607.333-2.477.981-5.587.66-3.12 1.627-7.09 2.905-11.918 1.265-4.83 2.784-10.225 4.532-16.197a417.882 417.882 0 0 1 5.932-18.432 595.598 595.598 0 0 0-7.895 8.759c-3.159 3.55-6.539 7.857-10.141 12.9-3.609 5.045-7.295 10.908-11.06 17.583-3.77 6.66-7.334 14.209-10.669 22.642-.527 1.846-1.752 2.758-3.686 2.758-1.495 0-3.174-.415-5.059-1.25-1.9-.835-3.824-1.923-5.801-3.281a75.532 75.532 0 0 1-5.918-4.55c-.732-.722-2.056-2.359-2.88-3.834" fill="#f7921b"/></svg>