<svg xmlns="http://www.w3.org/2000/svg" viewBox="0 0 178.80211 199.67054"><g fill-rule="evenodd"><path d="M59.702 155.172H0l29.85-51.87h59.455zm59.457 0H178.8l-29.854-51.87H89.305zm0-103.488L89.304 0 59.702 51.684 89.305 103.3l29.854-51.616" fill="#ed192d"/><path d="M7.683 180.023l5.46 18.886h4.95l5.46-18.887v18.886h4.73v-25.522h-7.365l-5.332 17.967-5.27-17.967H2.858v25.52h4.825zm117.41-6.635h-5.14v25.52h5.14zm50.85 0h-5.172v25.52h5.174zm-140.423 0h-5.142v25.52h5.142zm128.142 10h-10.19v-10h-5.174v25.52h5.173V187.8h10.192v11.11h5.014v-25.522h-5.014zm-120.587 15.52h5.27v-21.106h6.19v-4.414H36.884v4.414h6.19zm43.39.763c6.51 0 10.19-2.953 10.19-8.728v-17.554h-5.14v18.095c0 2.19-1.906 3.966-5.05 3.966-3.904 0-5.046-2.19-5.046-3.967v-18.095h-5.05v17.554c0 6.19 3.905 8.73 10.095 8.73zm17.33-.76h7.333c4.73 0 7.683-2.826 7.683-6.826 0-3.236-2.412-6.06-4.952-6.697 2.222-.54 4-2.855 4-5.682 0-3.777-2.73-6.317-7.873-6.317H98.433v25.52zm5.778-3.873h-6v-7.363h6c2.095 0 3.875 1.268 3.875 3.68 0 2.096-1.59 3.683-3.875 3.683zm.412-17.52c1.366 0 2.953 1.236 2.953 3.013 0 1.493-1.08 3.175-3.27 3.175h-6.094v-6.19zm-46.722 10.696c4.095.635 6.38 1.46 6.38 3.87 0 1.686-1.557 3.272-5.015 3.272-3.493 0-5.27-1.905-5.27-4.19h-4.92c0 4.412 2.92 8.38 10.38 8.38 7.14 0 10.19-3.778 10.19-8.062 0-4-2.635-6.54-7.238-7.46-4.634-.858-7.683-1.048-7.683-4 0-1.905 1.81-3.047 4.54-3.047 2.92 0 4.697 1.364 4.697 3.872h4.953c0-4.096-3.047-8.188-9.87-8.188-4.636 0-9.46 2.728-9.46 7.775 0 4.223 3.046 6.825 8.316 7.778zm71.83 0c4.19.635 6.508 1.46 6.508 3.87 0 1.686-1.682 3.272-5.046 3.272-3.46 0-5.27-1.905-5.27-4.19h-4.92c0 4.412 2.825 8.38 10.41 8.38 7.145 0 10.16-3.778 10.16-8.062 0-4-2.603-6.54-7.333-7.46-4.506-.858-7.553-1.048-7.553-4 0-1.905 1.777-3.047 4.507-3.047 2.953 0 4.602 1.364 4.602 3.872h5.047c0-4.096-3.048-8.188-9.872-8.188-4.6 0-9.553 2.728-9.553 7.775 0 4.223 3.144 6.825 8.317 7.778z" fill="#231f20"/></g></svg>