<?xml version="1.0" encoding="UTF-8"?>
<svg id="_레이어_2" data-name="레이어 2" xmlns="http://www.w3.org/2000/svg" viewBox="0 0 525.34 178.97">
  <defs>
    <style>
      .cls-1 {
        fill: #66964d;
      }

      .cls-2 {
        fill: #fff;
      }

      .cls-3 {
        fill: #58595b;
      }
    </style>
  </defs>
  <g id="Layer_1" data-name="Layer 1">
    <g>
      <g>
        <path class="cls-1" d="M188.4,178.45v-114.41c0-7.34,5.96-13.3,13.31-13.3h13.88v119.44c0,4.57-3.71,8.27-8.27,8.27h-18.92Z"/>
        <path class="cls-1" d="M216.23,14.23c0,7.86-6.38,14.23-14.23,14.23s-14.23-6.37-14.23-14.23,6.37-14.23,14.23-14.23,14.23,6.37,14.23,14.23"/>
        <path class="cls-2" d="M83.02,81.27s33.28,96.83,33.42,97.18h29.56s-41.54-114.91-41.54-114.91c-3.29-9.12-7.47-12.84-12.3-12.84h-27.85l-31.68,91.06-12.75,36.64,30.94.04,31.81-97.18h.4Z"/>
        <path class="cls-1" d="M0,158.05c0,11.08,8.85,20.07,19.87,20.36l12.75-36.64,31.67-91.06h27.86c4.83,0,9.01,3.72,12.31,12.83l36.07,99.81,4.4,12.12,1.07,2.99h7.02c7.03,0,12.73-5.69,12.73-12.72V47.97c0-11.29-9.15-20.42-20.41-20.42H0v130.49Z"/>
        <path class="cls-1" d="M83.02,81.27h-.4l-31.81,97.18h65.63c-.21-.56-33.42-97.18-33.42-97.18Z"/>
      </g>
      <g>
        <path class="cls-3" d="M302.43,79.05c2.12,0,4.19.62,6.22,1.87,2.03,1.24,3.46,3.39,4.28,6.43l17.97,64.95,17.55-67.16c.64-2.49,1.91-4.19,3.8-5.11,1.89-.92,3.98-1.15,6.29-.69,2.39.46,4.12,1.59,5.18,3.39,1.06,1.8,1.22,3.94.48,6.43l-22.8,81.54c-.83,3.04-2.26,5.18-4.28,6.43-2.03,1.24-4.1,1.87-6.22,1.87s-4.19-.62-6.22-1.87c-2.03-1.24-3.46-3.48-4.28-6.7l-18.1-67.58-18.93,67.85c-.83,3.04-2.28,5.18-4.35,6.43-2.07,1.24-4.17,1.87-6.29,1.87s-4.33-.62-6.36-1.87c-2.03-1.24-3.46-3.43-4.28-6.56l-22.25-80.57c-.74-2.67-.53-4.93.62-6.77,1.15-1.84,2.97-3.09,5.46-3.73,2.3-.55,4.49-.5,6.56.14,2.07.65,3.48,2.4,4.22,5.25l17,67.58,18.1-65.09c.83-3.04,2.26-5.18,4.28-6.43,2.03-1.24,4.15-1.87,6.36-1.87Z"/>
        <path class="cls-3" d="M409.67,79.05c2.39,0,4.47.55,6.22,1.66,1.75,1.11,3.27,3.27,4.56,6.5l31.09,80.15c1.01,2.67,1.01,4.98,0,6.91-1.01,1.93-2.67,3.27-4.98,4.01-2.3.74-4.58.83-6.84.28-2.26-.55-3.89-2.3-4.91-5.25l-8.02-22.11h-34.83l-8.15,22.66c-1.01,2.67-2.56,4.26-4.63,4.77-2.07.51-4.21.39-6.43-.35-2.21-.74-3.82-1.98-4.84-3.73-1.02-1.75-1.02-3.92,0-6.5l31.09-80.85c1.2-3.22,2.7-5.39,4.49-6.5,1.8-1.11,3.85-1.66,6.15-1.66ZM409.39,101.16c-.74,2.76-1.45,5.23-2.14,7.39-.69,2.17-1.59,4.82-2.69,7.95l-7.32,20.04h24.32l-7.19-20.04c-1.2-3.22-2.14-5.99-2.83-8.29-.69-2.3-1.41-4.65-2.14-7.05Z"/>
        <path class="cls-3" d="M519.12,79.88c2.12,0,3.68.74,4.7,2.21,1.01,1.47,1.52,3.23,1.52,5.25s-.51,3.78-1.52,5.25c-1.02,1.48-2.58,2.21-4.7,2.21h-41.04v27.78h38.14c2.12,0,3.68.74,4.7,2.21,1.01,1.47,1.52,3.23,1.52,5.25s-.51,3.78-1.52,5.25c-1.01,1.47-2.58,2.21-4.7,2.21h-38.14v33.86c0,2.67-.88,4.61-2.62,5.8-1.75,1.2-3.82,1.8-6.22,1.8s-4.47-.6-6.22-1.8c-1.75-1.2-2.62-3.13-2.62-5.8v-80.02c0-4.33.85-7.32,2.56-8.98,1.7-1.66,4.77-2.49,9.19-2.49h46.99Z"/>
      </g>
    </g>
  </g>
</svg>