<svg xmlns="http://www.w3.org/2000/svg" viewBox="0 0 192.756 192.756"><g fill-rule="evenodd" clip-rule="evenodd"><path fill="#fff" d="M0 0h192.756v192.756H0V0z"/><path fill="#0c0e0f" d="M13.766 158.541v-19.002h7.601l11.039 10.496 11.762-10.496h7.239v19.002h-5.972V145.15l-13.029 10.676L20.1 145.15v13.391h-6.334z"/><path d="M100.088 139.539h8.324l8.867 5.973 9.592-5.973h8.506l-13.936 9.049 15.022 9.953h-8.145l-10.496-7.238-11.218 7.238h-8.145l15.201-9.953-13.572-9.049z"/><path fill="#0c0e0f" d="M140.986 158.541l15.744-19.002h6.334l15.747 19.002h-7.241l-11.582-14.297-12.304 14.297h-6.698z"/><path fill="#1ea89c" d="M13.766 8.337h58.453L54.484 45.074H13.766V8.337zm80.17 0h26.24l-26.24 54.29V8.337zm-80.17 43.614h37.641l-4.162 8.505H13.766v-8.505zm0 15.201h30.222l-4.344 8.686H13.766v-8.686zm0 15.02h22.621l-3.981 8.686h-18.64v-8.686zm0 15.383H29.51l-15.744 32.574V97.555zM144.062 8.518h34.928v36.917h-34.928V8.518zm0 43.433h34.928v8.867h-34.928v-8.867zm0 15.201h34.928V76.2h-34.928v-9.048zm0 15.02h34.928v9.049h-34.928v-9.049zm0 15.383h34.928v32.935h-34.928V97.555zM72.219 62.627l-32.575 67.502h32.575V62.627zm44.699 0l-32.574 67.502h32.574V62.627z"/><path fill="#0c0e0f" d="M13.766 184.42h165.045v-4.162H13.766v4.162z"/><path d="M75.115 139.613c10.612 0 19.27 3.32 19.27 9.643 0 6.324-8.658 9.645-19.27 9.645-10.613 0-19.271-3.32-19.271-9.645 0-6.322 8.657-9.643 19.271-9.643zm0 1.643c6.508 0 11.817 3.363 11.817 7.486s-5.309 7.486-11.817 7.486c-6.509 0-11.818-3.363-11.818-7.486s5.309-7.486 11.818-7.486z"/><path d="M75.115 145.217a3.287 3.287 0 0 1 3.279 3.281 3.287 3.287 0 0 1-3.279 3.279 3.287 3.287 0 0 1-3.28-3.279 3.287 3.287 0 0 1 3.28-3.281z" fill="#1ea89c"/><path d="M21.517 166.166h5.142v-1.41H14.483v1.41h5.127v9.428h1.907v-9.428zm6.6 9.428H38.98v-1.455h-8.956v-3.379h8.282v-1.426h-8.282v-3.197h8.824v-1.381H28.117v10.838zm26.774-4.188H52.91c-.318 1.816-2.188 3.031-4.843 3.031-3.421 0-5.422-1.605-5.422-4.262 0-2.658 1.982-4.264 5.403-4.264 2.581 0 4.338 1.051 4.712 2.777h1.982c-.28-2.508-2.898-4.219-6.675-4.219-4.619 0-7.404 2.252-7.404 5.705 0 3.451 2.785 5.705 7.385 5.705 3.832.002 6.488-1.772 6.843-4.473zm2.226 4.188h1.906v-5.045h8.227v5.045h1.907v-10.838H67.25v4.367h-8.227v-4.367h-1.906v10.838zm15.144 0h1.87v-9.246l8.489 9.246h2.58v-10.838h-1.851v9.246l-8.508-9.246h-2.58v10.838zm15.313-5.418c0 3.451 2.786 5.705 7.385 5.705 4.619 0 7.406-2.254 7.406-5.705 0-3.453-2.787-5.705-7.387-5.705-4.618 0-7.404 2.252-7.404 5.705zm1.982 0c0-2.658 1.982-4.264 5.403-4.264 3.441 0 5.421 1.605 5.421 4.264 0 2.641-1.963 4.262-5.403 4.262-3.438 0-5.421-1.606-5.421-4.262zm15.165 5.418h10.17v-1.455h-8.264v-9.383h-1.906v10.838zm10.881-5.418c0 3.451 2.787 5.705 7.387 5.705 4.617 0 7.404-2.254 7.404-5.705 0-3.453-2.787-5.705-7.387-5.705-4.617 0-7.404 2.252-7.404 5.705zm1.982 0c0-2.658 1.982-4.264 5.404-4.264 3.439 0 5.422 1.605 5.422 4.264 0 2.641-1.963 4.262-5.404 4.262-3.44 0-5.422-1.606-5.422-4.262zm26.027-1.998h1.945c-.262-2.131-2.881-3.707-6.395-3.707-4.469 0-7.162 2.236-7.162 5.705 0 3.422 2.73 5.705 6.938 5.705 2.373 0 4.188-.738 5.234-2.104l.188 1.816h1.326v-5.809h-6.057v1.426h4.281c-.242 1.951-2.168 3.227-4.953 3.227-3.068 0-5.031-1.635-5.031-4.262s1.945-4.264 5.086-4.264c2.45.001 4.096.825 4.6 2.267zm5.366 7.416h1.908v-10.838h-1.908v10.838zm5.142 0h10.863v-1.455h-8.957v-3.379h8.284v-1.426h-8.284v-3.197h8.827v-1.381h-10.733v10.838zm12.676-3.662c.057 2.611 2.113 3.949 6.152 3.949 3.795 0 5.852-1.293 5.852-3.395 0-1.816-1.346-2.506-4.188-2.941l-2.973-.467c-1.627-.254-2.395-.584-2.395-1.471 0-1.096 1.197-1.727 3.535-1.727 2.336 0 3.496.631 3.627 2.027h1.906c-.037-2.207-1.926-3.438-5.385-3.438-3.738 0-5.703 1.23-5.703 3.271 0 1.637 1.273 2.492 3.908 2.867l3.348.48c1.59.227 2.318.631 2.318 1.531 0 1.141-1.309 1.832-3.738 1.832-2.787 0-4.172-.811-4.246-2.521h-2.018v.003z"/></g></svg>