<svg xmlns="http://www.w3.org/2000/svg" viewBox="0 0 594.206 87.7" fill="#008880" xmlns:v="https://vecta.io/nano"><path d="M395.8 43.9c-.6-.4-.6-1.2 0-1.5l44.3-36.9c.6-.4.4-.8-.2-.8h-32.4c-.8 0-1.7.4-2.3.8L378.7 28a1.65 1.65 0 0 1-1.9 0L350.5 5.5c-.6-.4-1.5-.8-2.3-.8h-32.4c-.8 0-.8.4-.2.8l44.3 36.9c.6.4.6 1.2 0 1.5l-46.6 39.4c-.6.4-.9.8-.9 1h1.3 30.5c.8 0 1.7-.4 2.3-.8L377 58a1.65 1.65 0 0 1 1.9 0l30.7 25.5c.6.4 1.5.8 2.3.8h30.5 1.3s-.4-.4-.9-1z"/><path d="M593.5 84.3c.8 0 .9-.4.4-1L533.3 5.7c-.4-.6-1.3-1-2.1-1h-25c-.8 0-1.5.4-2.1 1l-60.4 77.6c-.4.6-.2 1 .4 1h28.4c.8 0 1.5-.4 1.9-1l43.4-57.8c.4-.6 1.1-.6 1.5 0l43.2 57.8c.4.6 1.3 1 1.9 1zM292.7 43.8c0 17.5-21.8 29.2-48.9 29.2-26.9 0-48.7-11.9-48.7-29.2s21.8-29.2 48.7-29.2c27.2 0 48.9 11.9 48.9 29.2m25.2 0C317.9 19.6 284.8 0 244 0s-73.9 19.6-73.9 43.8 33.1 44 73.9 44 73.9-19.9 73.9-44M121 4.8c-.8 0-1.5.4-1.9 1L78.2 64.9c-.4.6-.9.6-1.5 0L35.6 6c-.4-.6-1.3-1-1.9-1H1.1C.5 4.8 0 5.4 0 6.2v77c0 .8.6 1.3 1.3 1.3H28c.8 0 1.3-.6 1.3-1.3V31.7c0-.8.4-.8.8-.2L67 83.3c.4.6 1.3 1 1.9 1h17.2c.8 0 1.5-.4 1.9-1l36.9-52c.4-.6.8-.4.8.2V83c0 .8.6 1.3 1.3 1.3h26.5c.8 0 1.3-.6 1.3-1.3V6.2c0-.8-.6-1.3-1.3-1.3H121z"/></svg>
