<svg viewBox="0 0 100 100" xmlns="http://www.w3.org/2000/svg"><path d="m59.9 61.5-9.9-5.7-3.1-1.8a5 5 0 0 1 0-8l3.1-1.7-9.8-5.7a15.1 15.1 0 0 0 0 23l1.7 1.3 8.1 4.6 27.2 15.7a15.1 15.1 0 0 0 22.8-13v-40.4a15.1 15.1 0 0 0 -22.8-13l-27.2 15.8 8.1 4.7 1.7 1.3 22.4-13a5 5 0 0 1 2.6-.7 5 5 0 0 1 5 5v40.3a5 5 0 0 1 -7.6 4.3l-22.4-13" fill="#00a1f4"/><path d="m50 44.2 3.1 1.8a5 5 0 0 1 0 8l-3.1 1.8 9.9 5.7a15.1 15.1 0 0 0 0-23l-1.7-1.3-8.2-4.7-27.2-15.7a15.2 15.2 0 0 0 -22.8 13v40.4a15.1 15.1 0 0 0 22.8 13l27.2-15.7-8.2-4.7-1.7-1.3-22.4 13a5 5 0 0 1 -7.6-4.4v-40.3a5 5 0 0 1 5-5 5 5 0 0 1 2.6.7l22.4 13z" fill="#15325f"/></svg>