<svg xmlns="http://www.w3.org/2000/svg" viewBox="0 0 302 81.992517"><path d="M1 3.458h24.144c5.523 0 12.034 5.16 14.937 7.995L82.44 58.42V3.46h14.39v74.987H71.64c-4.49-.15-8.895-1.073-14.03-6.12L15.32 25.274v53.172H1V3.458zM301 78.957c-17.234 2.352-34.67 2.585-52.14 1.116-10.23-.903-20.247-3.008-29.428-7.802-11.59-6.006-15.285-19.508-15.13-31.747.128-11.297 3.488-23.358 13.568-29.927 6.608-4.336 13.665-5.76 21.164-7.12 20.47-3.607 40.98-2.793 60.95-.603V13.57c-23.55-4.578-48.428-3.44-56.88 7.382-5.283 6.732-6.034 13.428-6.034 19.067 0 10.16 3.476 25.578 24.125 28.573 13.47 1.977 26.807.477 39.805-1.89v12.254zM153.52 67.294c2.037.02 34.495.17 45.637 0v11.204c-22.443.864-44.007 1.24-66.678.3-19.24-.796-22.553-10.47-22.925-19.763V3.457h88.528v10.677H140.81v19.09h52.2v10.422h-52.2c0 5.64.187 12.033.24 13.184.307 7.27 3.68 9.945 12.47 10.464" fill="#1414a0"/></svg>
