<svg xmlns="http://www.w3.org/2000/svg" viewBox="0 0 115.97252 128"><path d="M0 100.055h4.596l10.62 14.09v-14.09h4.929v22.776h-4.232L4.93 108.455v14.376H0v-22.776m34.775 12.76c-.286-2.187-1.585-3.677-3.646-3.677-2.044 0-3.376 1.458-3.772 3.677zm-12.236 1.458v-.063c0-4.945 3.534-9.003 8.59-9.003 5.785 0 8.448 4.486 8.448 9.383 0 .397-.032.84-.063 1.3H27.436c.492 2.219 2.03 3.392 4.232 3.392 1.664 0 2.853-.523 4.216-1.775l2.806 2.488c-1.601 1.997-3.947 3.218-7.085 3.218-5.215 0-9.066-3.646-9.066-8.94m20.114 3.645v-8.194h-2.077v-4.2h2.077V101.1h4.913v4.422h4.09v4.2h-4.09v7.386c0 1.142.491 1.68 1.585 1.68a5.09 5.09 0 0 0 2.44-.602v3.931c-1.045.618-2.25.999-3.898.999-2.996 0-5.04-1.19-5.04-5.2m48.167-3.706v-.062c0-2.87-1.95-4.787-4.247-4.787-2.299 0-4.2 1.918-4.2 4.787v.063c0 2.869 1.901 4.786 4.2 4.786 2.298 0 4.247-1.886 4.247-4.786zm-13.313-8.685h4.929v2.489c1.189-1.617 2.837-2.806 5.404-2.806 4.042 0 7.894 3.154 7.894 8.94v.063c0 5.785-3.788 8.939-7.894 8.939-2.63 0-4.247-1.189-5.404-2.568V128h-4.93v-22.475m33.554 8.685v-.062c0-2.87-1.95-4.787-4.249-4.787-2.298 0-4.216 1.918-4.216 4.787v.063c0 2.869 1.918 4.786 4.216 4.786 2.299 0 4.248-1.886 4.248-4.786zm-13.315-8.685h4.93v2.489c1.188-1.617 2.837-2.806 5.404-2.806 4.042 0 7.894 3.154 7.894 8.94v.063c0 5.785-3.789 8.939-7.894 8.939-2.63 0-4.247-1.189-5.404-2.568V128h-4.93v-22.475m-30.241 7.845l-3.011-7.338-3.012 7.338zm-5.183-13.314h4.486l9.462 22.776h-5.183l-2.092-5.071h-8.987l-2.076 5.071h-5.088l9.478-22.776" fill="#211e1e"/><path d="M0 0v95.97h44.902V38.388h25.66V95.97h44.903V0H0" fill="#0067c5"/></svg>