<svg xmlns="http://www.w3.org/2000/svg" viewBox="0 0 256 205.022" version="1"><g fill-rule="evenodd"><path d="M50.119 12.57c-.373 0-.827.107-1.363.403-1.782.988-.852 2.818-.852 2.818L81.4 86.605h8.114L51.652 13.561s-.415-.993-1.533-.991zm60.362 135.543l25.442 53.828s1.448 2.838 4.49 3.081h.837c.819-.062 1.74-.303 2.756-.82 5.502-2.8 2.727-7.186 2.726-7.186l-25.334-48.903H110.48z" fill="#777"/><path d="M240.114 8.709C228.212 2.996 216.734.448 205.343 0h-7.51c-16.46.616-32.896 5.144-50.334 10.363-32.347 9.675-61.12 14.912-93.444 1.724 3.522 6.292 5.285 9.437 8.808 15.724 3.235 5.784 6.474 11.566 9.71 17.347 3.522 6.291 5.283 9.434 8.806 15.724 25.736 7.274 47.048-2.16 69.918-13.593 27.462-13.721 52.268-26.065 83.645-18.913-26.517-13.278-50.555-9.987-78.281-2.465 27.145-13.82 52.702-24.567 83.453-17.202zM52.078 121.749c0 5.305 0 10.441.163 13.137-.57.975-2.855 1.877-4.812 1.877-.082 0-2.775-4.163-6.608-8.897l-18.846-23.335c-4.649-5.875-7.423-9.219-8.892-10.444-.407.815-.407 2.201-.407 5.221v15.832c0 6.609.325 12.726 1.223 14.931.735 1.712 2.61 2.202 4.732 2.608l2.284.328c.652.654.49 2.369 0 2.854-4.405-.16-7.668-.245-10.931-.245-3.019 0-6.037.086-9.136.245-.49-.485-.653-2.2 0-2.854l1.386-.245c2.203-.49 3.752-.979 4.486-2.69.816-2.206 1.143-8.323 1.143-14.932V94.413c0-4.486 0-5.79-.571-6.933-.572-1.387-1.795-2.204-4.65-2.774l-2.284-.328c-.204-.233-.324-.632-.358-1.06v-.51c.049-.606.273-1.162.683-1.284 3.835.159 7.913.243 11.26.243 2.772 0 5.139-.081 6.852-.244.817 3.671 6.119 9.87 13.46 18.603l6.853 8.079c3.672 4.243 5.956 7.096 7.833 8.975.326-.818.326-2.207.326-3.672v-11.262c0-6.608-.326-12.727-1.225-14.934-.734-1.71-2.528-2.198-4.73-2.606l-2.204-.328c-.652-.653-.489-2.366 0-2.854 4.406.159 7.588.243 10.933.243 3.017 0 5.955-.082 9.137-.244.49.49.651 2.202 0 2.856l-1.47.244c-2.12.49-3.67.978-4.406 2.693-.895 2.202-1.223 8.322-1.223 14.933l-.001 19.5z" fill="#f26711"/><path d="M71.46 112.69c1.144 0 2.447-.165 3.347-.733.407-.25.568-1.066.568-1.875 0-2.694-1.548-4.49-4.322-4.49-3.427 0-6.363 3.263-6.363 5.873 0 1.144 1.14 1.226 3.752 1.226h3.018zm-5.383 3.59c-1.876 0-2.04.162-2.04 1.468 0 6.12 3.916 12.076 11.502 12.076 2.285 0 5.386-.487 7.588-4.242a1.844 1.844 0 0 1 2.121 1.874c-3.345 6.937-9.382 9.306-14.277 9.306-11.013 0-16.967-7.754-16.967-16.648 0-10.28 7.423-18.278 17.62-18.278 8.484 0 13.052 5.467 13.052 11.752 0 1.55-.407 2.692-2.935 2.692H66.077zm34.685-8.892c-1.06 0-1.142.08-1.142 1.877V121.5c0 4.572 0 9.631 5.71 9.631 1.143 0 2.447-.57 3.428-1.223.814.243 1.304 1.14 1.14 2.12-2.284 2.447-6.689 4.734-11.746 4.734-6.772 0-9.137-3.917-9.137-9.306v-18.191c0-1.716-.082-1.877-1.55-1.877h-2.528c-.898-.333-1.143-1.96-.49-2.533 2.527-.894 4.812-2.366 6.77-3.67 1.468-1.06 3.509-2.771 6.037-6.367.57-.324 2.04-.24 2.448.41v6.12c0 1.55.082 1.631 1.55 1.631h7.261c.408.325.652.818.652 1.551 0 .898-.244 2.364-1.06 2.858h-7.343z" fill="#f26711"/><path d="M130.223 121.828c0 6.365.817 10.362 7.181 10.362 6.037 0 9.218-4.65 9.218-11.26 0-7.099-4.08-12.075-11.91-12.075-4.488 0-4.488.081-4.488 3.347v9.625zm0-18.848c0 2.123.083 2.283 4.325 2.283 7.015 0 9.626-4.485 9.626-9.381 0-7.099-4.406-10.608-10.035-10.608-3.833 0-3.916.656-3.916 4.245v13.46zm-11.258-7.916c0-8.239-.163-9.134-3.59-9.545l-2.202-.328c-.734-.409-.898-2.855.326-2.937 6.201-.407 12.156-.735 20.315-.735 7.83 0 13.054.9 16.641 3.021 3.508 2.121 5.628 5.55 5.628 10.36 0 6.856-5.79 9.548-8.32 10.203-.816.16-1.633.489-1.633.896 0 .244.41.487 1.145.653 6.444 1.388 11.909 5.627 11.991 13.54.082 7.508-4.404 11.916-9.543 13.713-5.141 1.794-11.258 2.039-16.235 2.039-2.936 0-6.036-.33-8.403-.33-3.999 0-7.996.085-12.645.247-.651-.49-.651-2.61 0-2.854l2.366-.49c3.67-.734 4.16-1.306 4.16-8.65l-.001-28.803zm58.092 41.859c-7.503 0-12.155-2.122-13.867-3.1-1.55-1.794-2.61-7.669-2.61-13.218.57-1.06 2.448-1.143 3.1-.246 1.631 5.304 7.096 12.81 14.031 12.81 6.036 0 8.811-4.16 8.811-8.239 0-6.609-6.199-10.525-11.095-12.972-5.873-2.941-12.237-7.833-12.317-15.914 0-9.218 7.098-15.585 18.927-15.585 2.691 0 6.035.328 9.3 1.308 1.06.326 1.793.487 2.773.651.65 1.795 1.469 6.202 1.469 11.67-.409.976-2.449 1.06-3.182.247-1.388-4.165-4.897-10.122-10.77-10.122-5.383 0-8.32 3.51-8.32 7.588 0 3.754 3.342 7.18 7.421 9.301l5.387 2.859c5.057 2.692 11.502 7.423 11.502 16.398 0 10.037-8.242 16.564-20.56 16.564z" fill="#777"/><path d="M215.536 120.846c0 4.49.164 7.427 1.631 9.141 1.471 1.633 3.835 2.366 6.772 2.366 14.112 0 18.926-12.562 18.926-23.661 0-14.688-7.75-23.418-22.517-23.418-2.199 0-3.752.408-4.24 1.064-.49.65-.572 2.2-.572 4.728v29.782-.002zm-11.665-25.863c0-7.751-.163-9.3-3.916-9.709l-1.55-.162c-.814-.408-.814-2.776.165-2.858 6.853-.407 13.214-.736 21.863-.736 6.69 0 13.377.658 19.008 2.695C250.129 88.047 256 97.675 256 107.873c0 10.935-5.22 19.75-14.6 24.398-5.548 2.777-12.24 3.833-20.641 3.833-3.833 0-7.916-.49-10.85-.49-3.918 0-8.079.085-12.727.246-.652-.488-.652-2.446 0-2.853l2.529-.408c3.67-.652 4.16-1.223 4.16-8.732V94.983z" fill="#777"/></g></svg>