<svg xmlns="http://www.w3.org/2000/svg" viewBox="0 0 256 37.001"><path d="M0 35.97V1.072h9.472L25.426 22.51V1.072h9.472V35.97h-9.472L9.472 14.377V35.97zm46.115 0V1.072h23.182V8.8h-13.71v5.858h13.211v7.602h-13.21v5.983h13.709v7.727zm48.607 0h-9.721V8.8h-9.223V1.072h28.167V8.8h-9.223zm32.281-19.443h18.695c0 13.375-7.033 20.474-18.457 20.474-11.057 0-19.357-6.752-19.357-18.08C107.884 7.23 115.414 0 127.023 0c13.124 0 16.711 9.772 16.711 9.772l-8.994 3.578s-2.106-5.508-8.029-5.508c-4.335 0-8.93 3.273-8.93 10.923 0 6.406 4.108 10.83 9.397 10.83 4.73 0 7.063-2.702 7.428-6.088h-7.603zm68.674-15.451l-12.775 34.897h9.783l2.182-6.48h12.65l2.181 6.48h9.846l-12.9-34.897h-10.967zm5.484 9.036l4.175 12.525h-8.257l4.082-12.525zm24.179-9.036v34.897h9.472v-13.46h.748l8.724 13.46H256l-10.999-14.348c3.8-.598 7.961-3.5 7.961-9.737 0-6.127-3.86-10.812-13.258-10.812H225.34zm9.472 6.98h2.493c4.906 0 6.107 1.789 6.107 4.361 0 3.097-1.98 4.363-6.107 4.363h-2.493V8.055zM154.049 35.97V1.072h23.182V8.8h-13.71v5.858h13.211v7.602h-13.211v5.983h13.71v7.727z" fill="#6b0e89"/></svg>