<svg xmlns="http://www.w3.org/2000/svg" viewBox="0 0 1022.2332 268.99997"><path d="M.6 266.75c.3-1.24 2.27-10.7 4.34-21L8.7 227h815.33l41.85-50.12c23.02-27.57 41.7-50.62 41.53-51.22-.1-.6-7.2-16.07-15.7-34.4-8.5-18.3-15.4-33.52-15.4-33.78 0-.26 10.3-.48 22.9-.48H922l4.06 10.25c2.24 5.64 5.5 15.2 7.22 21.25 1.73 6.05 3.35 11.63 3.6 12.4.25.8 2.7-2.18 5.72-7 6.67-10.6 15.88-23.96 20.84-30.24 2.1-2.66 3.83-5.25 3.83-5.75s10.05-.9 23.5-.9c12.93 0 23.5.3 23.5.5 0 .3-12.74 15.9-28.32 34.7l-28.32 34.1 30.8 68c16.92 37.4 31.47 69.4 32.32 71.1.84 1.7 1.53 3.3 1.53 3.5 0 .2-10.52.35-23.38.35h-23.4l-1.1-2.77c-.6-1.5-3.08-8.15-5.5-14.75-11.17-30.25-30.53-78.9-36.8-92.33l-3.35-7.23-30.7 38.8c-16.9 21.33-33.06 42.15-35.92 46.3-2.86 4.1-8.88 12-13.38 17.5s-8.8 11-9.57 12.23l-1.4 2.23H0L.6 267z" fill="#009ddc"/><path d="M816.05 37.48c-.28-.28 1.12-8.72 3.13-18.75L822.82.5l21.82-.27c20.55-.25 21.78-.17 21.07 1.5-.4.97-2.3 9.53-4.2 19.02L858 38h-20.7c-11.4 0-20.95-.23-21.2-.52zm-31.82 163.95c0-.86 2.5-14.47 5.56-30.25l8.5-44.18c1.6-8.53 4.3-22.48 6-31l5.1-26.75L811.6 58h20.8c16.95 0 20.83.25 20.83 1.37 0 .75-1.33 8.06-2.95 16.25-1.63 8.18-7.72 39.4-13.55 69.38-5.82 29.97-10.82 55.3-11.1 56.25-.48 1.6-2.37 1.75-20.96 1.75-17.88 0-20.44-.2-20.44-1.57zm-160.58-1.18c.3-1.5 6.42-33.13 13.57-70.25 7.15-37.13 13.24-68.5 13.53-69.75.52-2.24.6-2.25 20.5-2.25 11 0 19.98.4 19.98.9 0 .48-.9 5.25-2 10.6-2.48 12.07-2.46 12.72.27 9 7.2-9.82 16.85-17.6 26.54-21.42 10.92-4.3 27.24-4.37 36.8-.14 9.83 4.35 18.6 15.6 21.94 28.2 2.96 11.1 2.08 18.95-7.6 68.26-4.97 25.35-9.27 46.9-9.56 47.85-.47 1.6-2.36 1.75-20.95 1.75-18.07 0-20.44-.2-20.44-1.6 0-.88 3.87-21.47 8.6-45.75 9.2-47.2 9.68-52.07 5.75-58.8-3.3-5.64-6.62-7.3-15.35-7.7-6.74-.3-8.65 0-13.34 2.15-3.1 1.38-7.4 4.4-9.6 6.72-7.8 7.97-9.4 13.1-17.1 51.98-3.9 19.52-7.7 39.44-8.6 44.25L665 203h-41.95l.58-2.75zM12.7 201.27c.74-1.8 4.27-19.7 25.58-129.27C44.86 38.17 50.72 8.14 51.3 5.25L52.38 0h46.58l19.54 51.75c16.68 44.2 25.52 70.1 30.73 90.1.62 2.4 1.3 4.2 1.5 4 .18-.2 1.76-11.16 3.5-24.35 3.1-23.74 4.44-31.22 16.05-90.24C173.56 14.63 176.23.8 176.23.5c0-.27 9.68-.5 21.5-.5 18.15 0 21.5.23 21.5 1.45 0 .8-3.4 18.92-7.55 40.25l-14.95 76.8c-4.07 20.9-9.22 47.45-11.45 59-2.23 11.55-4.28 22-4.57 23.25l-.5 2.25h-46.5l-18.1-47.75c-21-54.98-21.6-56.7-28.7-80.7-5.3-17.83-5.3-17.9-5.9-13-3.8 31.6-7 51.32-13.8 86.45-4.4 22.82-8.5 44.42-9.1 48l-1.2 6.5-22.3.27c-21 .25-22.3.17-21.6-1.5zm394.8 2.67c-18-2.34-28.2-12.66-29.06-29.36-.36-6.98.62-13.47 7.2-47.73 4.17-21.8 7.6-40.15 7.6-40.75 0-.73-3.36-1.1-9.84-1.1-5.4 0-10.05-.2-10.3-.47-.27-.27.7-6.23 2.14-13.25l2.62-12.78 10.54-.28 10.53-.28 4.15-21.37c2.3-11.76 4.15-22.1 4.15-22.97 0-1.42 2.43-1.6 21.07-1.6 19.6 0 21.03.12 20.55 1.75-.28.96-2.1 10.07-4.07 20.25-1.96 10.17-3.8 19.74-4.13 21.25l-.58 2.75h13.58c7.9 0 13.58.4 13.58.95 0 1.24-3.95 22.04-4.6 24.27-.45 1.5-2.26 1.76-14.16 2l-13.65.28-7.27 38c-4.74 24.83-7.05 39.16-6.66 41.34.9 5.38 5 7.25 15.3 7.06 10-.2 9.3-2.02 6 16.83-1.8 9.9-2.7 13.35-4 13.73-2.1.65-20 2.54-22.6 2.4-1.1-.06-4.8-.48-8.3-.92zm-86.27-94.28c0-6.2-.48-8.3-3.1-13.53-2.53-5.08-4-6.72-8.14-9.08-9.2-5.25-22.1-4.7-31.6 1.34-7.4 4.6-15.6 16.3-18.7 26.3l-.7 2.2h62.1v-7.4zm-56.82 95.4c-22.1-5.45-37.9-19.7-44.8-40.48-2.4-7.38-2.7-9.43-2.7-23.58 0-11.34.5-17.34 1.7-22.36 5.4-21.28 16.9-39.24 32.4-50.3 13.9-9.9 28.5-14.47 46.4-14.48 12.7 0 21.8 1.92 31.9 6.78 24.2 11.64 36.8 42.54 31.56 77.1l-.5 3.26h-104v4.82c0 9.83 4.8 20.64 11.4 25.68 7 5.35 20.48 7.12 29.86 3.92 5.03-1.7 13.24-8.32 14.23-11.46.6-1.87 1.64-1.96 22.1-1.96h21.48l-3.6 6.87c-10.23 19.47-27.06 32.1-48.7 36.55-10.5 2.15-29.1 1.98-38.62-.37zm285.7-30.54c10.4-4.82 19.8-17.94 23.8-33.02 2.3-8.5 3-25.02 1.5-32.66-3.2-16.5-12.7-25.3-27.1-25.26-8.6.04-15.7 3.47-22.8 10.94-17.53 18.6-21.3 60.03-6.72 75.35 4.9 5.15 9.96 7.08 18.7 7.1 5.9 0 8.6-.52 12.8-2.45zM525.8 207c-8-.87-21-4.98-27.1-8.52-13-7.57-23.3-20.27-28.1-34.77-2.5-7.5-2.75-9.5-2.8-24.2-.1-13.8.2-17.1 2.2-24 6.7-23.3 21.2-41.9 40.4-52 13.55-7.1 24.5-9.7 40.8-9.6 43.6.3 72.4 33.6 67.05 77.5-3.8 31.4-20.13 55.7-45.55 67.9-14.1 6.8-31.1 9.6-47 7.9z" fill="#919195"/></svg>