<svg xmlns="http://www.w3.org/2000/svg" viewBox="0 0 210 297" shape-rendering="geometricPrecision" text-rendering="geometricPrecision" image-rendering="optimizeQuality" fill-rule="evenodd" clip-rule="evenodd"><defs><style><![CDATA[
    .str0 {stroke:#008E41;stroke-width:0.2}
    .fil0 {fill:#008E41}
    .fil2 {fill:#008E41;fill-rule:nonzero}
    .fil1 {fill:#FEFEFE;fill-rule:nonzero}
   ]]></style></defs><g id="Layer_x0020_1"><g id="_393920288"><path id="_396347072" class="fil0" d="M7.473 70.586h89.9c3.098 0 5.612 2.513 5.612 5.613v44.735c0 3.1-2.514 5.613-5.613 5.613h-89.9c-3.1 0-5.612-2.513-5.612-5.613V76.2c0-3.1 2.513-5.614 5.613-5.614z"/><path id="_393919280" class="fil1" d="M14.28 116.645V85.843h4.692v4.376c2.267-3.387 5.534-5.08 9.802-5.08 1.86 0 3.564.337 5.118 1 1.565.674 2.723 1.545 3.496 2.634.782 1.08 1.316 2.366 1.633 3.85.19.972.288 2.665.288 5.08v18.94H34.08v-18.74c0-2.12-.197-3.714-.603-4.774-.406-1.05-1.13-1.89-2.16-2.514-1.038-.634-2.246-.95-3.642-.95-2.228 0-4.14.712-5.762 2.118-1.614 1.416-2.416 4.09-2.416 8.04v16.82H14.28zm55.107-9.92l5.396.663c-.85 3.158-2.425 5.604-4.722 7.346-2.306 1.733-5.247 2.604-8.82 2.604-4.506 0-8.08-1.386-10.714-4.158-2.643-2.773-3.96-6.664-3.96-11.673 0-5.188 1.336-9.208 4-12.07 2.673-2.86 6.128-4.297 10.386-4.297 4.12 0 7.485 1.406 10.09 4.208 2.613 2.802 3.92 6.753 3.92 11.832 0 .317-.01.782-.03 1.396h-22.97c.188 3.386 1.148 5.98 2.87 7.772 1.724 1.802 3.862 2.703 6.437 2.703 1.91 0 3.543-.504 4.9-1.514 1.356-1 2.425-2.604 3.217-4.812zM52.25 98.278h17.197c-.228-2.585-.89-4.536-1.97-5.823-1.664-2.01-3.822-3.02-6.466-3.02-2.395 0-4.415.802-6.048 2.406-1.634 1.604-2.535 3.753-2.713 6.436zm41.484 13.692l.752 4.614c-1.465.307-2.782.465-3.94.465-1.9 0-3.367-.296-4.416-.9-1.04-.594-1.772-1.386-2.198-2.366-.426-.97-.644-3.03-.644-6.16v-17.72h-3.83v-4.06h3.83V78.21l5.198-3.13v10.763h5.248v4.06h-5.248v18.01c0 1.494.09 2.445.268 2.87.188.426.485.763.9 1.02.417.248 1.01.377 1.783.377.584 0 1.346-.07 2.297-.208z"/><path id="_393917960" class="fil2" d="M108.982 127.294V84.69h4.752v4c1.12-1.564 2.386-2.742 3.802-3.524 1.406-.782 3.12-1.178 5.13-1.178 2.633 0 4.95.683 6.96 2.03 2.02 1.356 3.534 3.267 4.554 5.732 1.03 2.465 1.544 5.168 1.544 8.11 0 3.147-.564 5.99-1.703 8.513-1.127 2.525-2.77 4.456-4.93 5.802-2.158 1.337-4.425 2.01-6.8 2.01-1.744 0-3.298-.366-4.684-1.1-1.386-.73-2.515-1.662-3.406-2.78v14.99h-5.218zm4.723-27.03c0 3.96.802 6.892 2.406 8.793 1.605 1.89 3.555 2.84 5.832 2.84 2.317 0 4.307-.98 5.96-2.95 1.654-1.96 2.486-5 2.486-9.118 0-3.932-.812-6.862-2.426-8.823-1.614-1.95-3.545-2.93-5.782-2.93-2.228 0-4.198 1.04-5.91 3.118-1.714 2.08-2.565 5.11-2.565 9.07zm28.336 15.228V84.69h5.23v30.802h-5.23zm13.18 0V84.69h4.692v4.377c2.267-3.387 5.535-5.08 9.802-5.08 1.86 0 3.564.337 5.12 1 1.563.674 2.72 1.545 3.494 2.634.782 1.08 1.317 2.367 1.633 3.853.19.97.288 2.663.288 5.08v18.94h-5.227V96.75c0-2.12-.197-3.713-.603-4.773-.406-1.05-1.13-1.89-2.16-2.514-1.038-.634-2.246-.95-3.642-.95-2.228 0-4.14.712-5.762 2.118-1.614 1.417-2.416 4.09-2.416 8.04v16.822h-5.218zm32.078 2.554l5.08.753c.207 1.563.8 2.702 1.76 3.425 1.298.96 3.07 1.445 5.308 1.445 2.426 0 4.287-.485 5.604-1.445 1.317-.97 2.198-2.327 2.664-4.06.277-1.07.396-3.297.376-6.703-2.277 2.684-5.12 4.03-8.525 4.03-4.237 0-7.515-1.525-9.83-4.584-2.318-3.05-3.487-6.723-3.487-10.99 0-2.94.535-5.653 1.595-8.139 1.07-2.486 2.613-4.406 4.633-5.763 2.02-1.346 4.396-2.03 7.12-2.03 3.632 0 6.632 1.476 8.99 4.416V84.69h4.82v26.624c0 4.792-.495 8.198-1.465 10.198-.98 2-2.523 3.584-4.642 4.742-2.12 1.16-4.723 1.743-7.822 1.743-3.673 0-6.643-.832-8.9-2.485-2.268-1.654-3.357-4.14-3.278-7.465zm4.317-18.504c0 4.04.802 6.99 2.415 8.84 1.604 1.863 3.614 2.783 6.03 2.783 2.396 0 4.406-.92 6.03-2.762 1.623-1.85 2.435-4.742 2.435-8.693 0-3.772-.83-6.614-2.505-8.524-1.673-1.91-3.693-2.872-6.05-2.872-2.316 0-4.286.94-5.92 2.832-1.623 1.88-2.435 4.683-2.435 8.396z"/><path id="_393918080" class="fil0 str0" d="M141.144 80.874l8.925-5.152-8.926-5.15 2.98 5.15-2.98 5.152zm8.24-5.152h-4.86l-2.44-4.22 7.3 4.22z"/></g></g></svg>