<?xml version="1.0" encoding="UTF-8"?>
<svg version="1.1" viewBox="0 0 48.266 14.511" xmlns="http://www.w3.org/2000/svg" xmlns:cc="http://creativecommons.org/ns#" xmlns:dc="http://purl.org/dc/elements/1.1/" xmlns:rdf="http://www.w3.org/1999/02/22-rdf-syntax-ns#">
<metadata>
<rdf:RDF>
<cc:Work rdf:about="">
<dc:format>image/svg+xml</dc:format>
<dc:type rdf:resource="http://purl.org/dc/dcmitype/StillImage"/>
<dc:title/>
</cc:Work>
</rdf:RDF>
</metadata>
<g transform="translate(-39.499 -229.45)">
<g transform="translate(.13229 -.13228)">
<g transform="matrix(.35278 0 0 -.35278 58.84 241.12)">
<path d="m0 0c0-1.538 0.262-2.552 0.749-3.227 0.636-0.826 1.61-1.276 2.883-1.276 1.422 0 2.77 0.413 4.043 0.976 0.262 0.112 0.524 0.187 0.786 0.187 0.936 0 1.835-0.788 1.835-1.763 0-0.713-0.3-1.351-0.974-1.689-1.797-0.863-3.706-1.276-5.69-1.276-2.172 0-4.044 0.713-5.429 2.102-1.348 1.351-2.059 3.227-2.059 5.441v4.728c0 2.177 0.711 4.052 2.059 5.403 1.385 1.389 3.257 2.102 5.429 2.102 2.208 0 4.081-0.713 5.428-2.102 1.348-1.351 2.097-3.226 2.097-5.403v-1.764c0-1.351-1.086-2.439-2.433-2.439zm7.301 3.565c0 3.114-1.273 4.578-3.669 4.578-2.359 0-3.632-1.426-3.632-4.578z"/>
</g>
<g transform="matrix(.35278 0 0 -.35278 66.22 241.61)">
<path d="m0 0-3.969-5.854c-0.374-0.525-0.973-0.826-1.572-0.826-1.011 0-1.947 0.864-1.947 1.952 0 0.375 0.113 0.75 0.337 1.088l4.905 6.942-4.792 6.755c-0.225 0.337-0.337 0.713-0.337 1.088 0 1.013 0.861 1.951 1.947 1.951 0.598 0 1.197-0.3 1.572-0.826l3.856-5.666 3.856 5.666c0.375 0.563 1.011 0.826 1.61 0.826 1.048 0 1.91-0.863 1.91-1.951 0-0.375-0.113-0.751-0.337-1.088l-4.792-6.755 4.904-6.942c0.262-0.338 0.374-0.713 0.374-1.088 0-1.051-0.898-1.952-1.984-1.952-0.599 0-1.198 0.263-1.572 0.826z"/>
</g>
<g transform="matrix(.35278 0 0 -.35278 74.854 242.81)">
<path d="m0 0c0-1.05-0.674-1.951-1.648-2.289-1.834-0.638-3.968-0.976-6.065-0.976-2.284 0-4.081 0.563-5.354 1.652-1.273 1.088-1.946 2.627-1.946 4.465 0 1.839 0.673 3.265 1.946 4.315 1.273 1.088 3.07 1.651 5.354 1.651h3.857v1.314c0 1.576-1.161 2.814-3.108 2.814-1.76 0-2.733-0.225-4.043-1.013-0.3-0.188-0.712-0.338-1.049-0.338-1.011 0-1.834 0.751-1.834 1.689 0 0.675 0.299 1.351 0.936 1.726 2.021 1.163 3.781 1.501 6.477 1.501 4.193 0 6.477-3.04 6.477-6.379zm-3.856 5.254h-3.857c-3.257 0-3.444-1.764-3.444-2.402 0-0.675 0.187-2.552 3.444-2.552 1.273 0 2.658 0.188 3.857 0.488z"/>
</g>
<g transform="matrix(.35278 0 0 -.35278 80.306 239.53)">
<path d="m0 0c0 2.289-1.348 3.64-3.669 3.64-1.236 0-2.471-0.188-3.632-0.488v-13.771c0-1.089-0.861-1.952-1.909-1.952-1.086 0-1.947 0.863-1.947 1.952v14.559c0 1.051 0.636 1.951 1.647 2.289 1.835 0.638 3.819 0.976 5.841 0.976 2.209 0 4.081-0.713 5.429-2.102 1.347-1.35 2.096-3.227 2.096-5.403v-10.319c0-1.089-0.861-1.952-1.947-1.952s-1.909 0.863-1.909 1.952z"/>
</g>
<g transform="matrix(.35278 0 0 -.35278 84.172 240.8)">
<path d="m0 0c-2.022 0.751-3.594 2.326-3.594 5.141 0 3.302 2.733 5.666 6.477 5.666 2.546 0 3.856-0.375 5.091-0.938 0.749-0.3 1.236-0.976 1.236-1.764 0-0.975-0.786-1.801-1.797-1.801-0.262 0-0.636 0.075-0.899 0.188-0.936 0.45-2.471 0.75-3.706 0.75-1.535 0-2.546-0.75-2.546-2.026 0-0.976 0.749-1.576 1.535-1.839l3.669-1.201c2.471-0.825 3.969-2.514 3.969-5.253 0-3.302-2.658-5.892-6.665-5.892-2.209 0-4.005 0.413-5.391 1.051-0.711 0.338-1.161 0.976-1.161 1.726 0 0.976 0.824 1.877 1.873 1.877 0.262 0 0.599-0.113 0.861-0.225 1.011-0.526 2.246-0.864 3.894-0.864 1.796 0 2.732 0.676 2.732 1.952 0 1.388-1.123 1.838-2.508 2.326z"/>
</g>
<g transform="matrix(.35278 0 0 -.35278 60.374 230.01)">
<path d="m0 0s-2.153 0.826-5.069 0.826c-5.284 0-8.064-2.891-9.413-4.75-1.276-1.759-2.08-3.591-2.687-6.126-0.58-2.422-0.673-5.452-0.773-7.866-0.252-6.068 0.315-16.747-2.296-16.747-1.342 0-2.258 2.068-2.567 2.86-0.126 0.322-1.147 3.293-2.409 8.91-0.786 3.499-2.652 11.929-3.195 13.823-0.25 0.873-0.882 3.189-2.112 5.198-1.611 2.632-4.36 3.96-6.745 3.96-2.317 0-4.457-1.6-5.243-2.376-2.393-2.363-3.174-5.813-3.426-7.183-0.272-1.479-0.606-4.57-0.606-4.57-0.48-3.685-1.283-10.069-1.465-11.407-0.936-6.887-2.891-7.998-4.775-8.612-0.443-0.144-1.291-0.211-1.583-0.211-1.226 0-2.198 0.357-2.198 0.357-0.133 0.052-0.381 0.151-0.67 0.151-0.168 0-0.328-0.033-0.476-0.098-0.397-0.173-0.577-0.412-0.639-0.523-0.767-1.182-0.827-2.451-0.827-2.811 0-0.869 0.53-1.161 0.69-1.229 0.046-0.02 1.134-0.485 2.738-0.734 4.816-0.748 7.831 2.094 8.646 2.89 0.768 0.75 2.093 2.295 2.966 5.314 0.557 1.926 0.881 3.815 1.127 5.914 0.185 1.583 1.398 12.066 1.646 13.534 0.261 1.544 0.657 3.148 1.418 4.615 0.537 1.036 1.46 2.146 2.82 2.146 0.524 0 1.005-0.16 1.428-0.475 1.305-0.968 2.083-3.257 2.343-4.246 0.348-1.328 2.838-11.826 3.232-13.654 2.652-12.306 4.44-14.441 6.912-15.674 1.415-0.705 4.196-1.491 6.717 0.502 2.83 2.236 2.904 6.6 3.097 9.25 0.197 2.73 0.204 4.914 0.218 5.894 0.135 9.747 0.214 12.749 2.81 16.508 1.397 2.023 4.263 3.453 9.014 1.977 0.116-0.036 0.372-0.098 0.583-0.098 0.923 0 1.305 0.937 1.543 1.869 0.162 0.63 0.609 2.444-0.774 2.892" fill="#ee2426"/>
</g>
</g>
</g>
</svg>
