<svg xmlns="http://www.w3.org/2000/svg" viewBox="0 0 739.397 180.397" version="1"><path d="M547.396 60.474c18.025 0 30.789 10.436 34.577 28.003h-70.275c3.937-16.818 18-28.003 35.698-28.003zm40.346 63.428l-1.003 1.554c-9.167 14.373-19.214 23.95-38.483 23.95-23.794 0-37.251-19.406-38.39-38.354h102.37v-5.825c0-22.228-6.586-40.544-19.004-52.974-11.321-11.327-26.759-17.072-45.836-17.072-41.579 0-67.422 27.15-67.422 70.857 0 19.994 6.92 37.92 19.461 50.48 12.263 12.25 29.044 18.737 48.536 18.737 27.218 0 51.136-13.445 63.992-35.977l1.015-1.788-25.236-13.588zm-338.228 22.772c-10.343 0-20.154-4.117-27.62-11.576-7.626-7.638-12.002-18.149-12.002-28.857 0-10.926 4.24-21.183 11.94-28.877 7.44-7.446 17.283-11.544 27.682-11.544 10.43 0 20.272 4.098 27.713 11.544 7.7 7.694 11.922 17.951 11.922 28.877 0 22.29-17.766 40.433-39.635 40.433zm49.421-89.427c-12.93-12.943-30.486-20.08-49.42-20.08-38.868 0-69.316 30.343-69.316 69.074 0 18.75 7.062 36.137 19.919 49.006 12.943 12.93 30.498 20.05 49.396 20.05 18.935 0 36.49-7.12 49.421-20.05 12.857-12.87 19.932-30.257 19.932-49.006 0-18.762-7.075-36.15-19.932-48.994zm133.571-20.548l-33.977 77.467L364.793 36.7h-33.29l66.995 142.493L465.795 36.7h-33.29zM647.33 0h28.758v171.624H647.33V0zm63.296 0h28.771v171.624h-28.77V0zM114.18 7.907v102.469L0 4.812v166.764h29.464V74.84l114.193 105.558V7.907h-29.476z" fill="red"/></svg>