<?xml version="1.0" encoding="UTF-8" standalone="no"?>
<svg
   xmlns:dc="http://purl.org/dc/elements/1.1/"
   xmlns:cc="http://creativecommons.org/ns#"
   xmlns:rdf="http://www.w3.org/1999/02/22-rdf-syntax-ns#"
   xmlns:svg="http://www.w3.org/2000/svg"
   xmlns="http://www.w3.org/2000/svg"
   height="127.2"
   width="254.60001"
   xml:space="preserve"
   viewBox="0 0 254.60001 127.2"
   y="0px"
   x="0px"
   id="layer"
   version="1.1"><metadata
   id="metadata93"><rdf:RDF><cc:Work
       rdf:about=""><dc:format>image/svg+xml</dc:format><dc:type
         rdf:resource="http://purl.org/dc/dcmitype/StillImage" /><dc:title></dc:title></cc:Work></rdf:RDF></metadata><defs
   id="defs91" />
<style
   id="style2"
   type="text/css">
	.st0{fill-rule:evenodd;clip-rule:evenodd;fill:#008FB6;}
	.st1{fill-rule:evenodd;clip-rule:evenodd;fill:#231815;}
</style>
<g
   transform="translate(-20.2,-256.6)"
   id="g86">
	<path
   style="clip-rule:evenodd;fill:#008fb6;fill-rule:evenodd"
   id="path4"
   d="m 113.5,377.9 c 2.4,3.2 7.7,5.8 10.8,5.8 6.8,0 11.8,-3.9 12.8,-10.9 h -27.4 z"
   class="st0" />
	<path
   style="clip-rule:evenodd;fill:#008fb6;fill-rule:evenodd"
   id="path6"
   d="m 45.3,383.8 c 6.7,0 11.7,-3.9 12.8,-10.9 H 32.5 c 1.1,7 6.2,10.9 12.8,10.9"
   class="st0" />
	<path
   style="clip-rule:evenodd;fill:#008fb6;fill-rule:evenodd"
   id="path8"
   d="m 187.7,383.8 c 6.7,0 11.8,-3.9 12.8,-10.9 h -25.4 c 1,7 6.1,10.9 12.6,10.9"
   class="st0" />
	<path
   style="clip-rule:evenodd;fill:#008fb6;fill-rule:evenodd"
   id="path10"
   d="m 250.8,383.8 c 6.5,0 11.7,-3.9 12.8,-10.9 H 238 c 1,7 6,10.9 12.8,10.9"
   class="st0" />
	<path
   style="clip-rule:evenodd;fill:#008fb6;fill-rule:evenodd"
   id="path12"
   d="m 263.3,266.1 c -1.5,-6.1 -6.4,-9.4 -12.5,-9.4 -6.3,0 -11,3.3 -12.5,9.4 h -7.4 c -1.4,-4.6 -5.3,-8.4 -11.2,-8.4 H 156 c -5.9,0 -9.8,3.7 -11.2,8.4 h -7.9 c -1.5,-6.1 -6.2,-9.4 -12.5,-9.4 -6,0 -10.9,3.3 -12.5,9.4 h -53 l -2.7,-3.7 c -2.1,-3.1 -7.5,-5.8 -10.8,-5.8 -6.1,0 -11,3.3 -12.5,9.4 H 20.2 v 2.4 H 274.8 V 266 h -11.5 z"
   class="st0" />
	<polygon
   style="clip-rule:evenodd;fill:#008fb6;fill-rule:evenodd"
   id="polygon14"
   points="237.8,347.1 237.8,368 200.7,368 200.7,347.1 174.9,347.1 174.9,368 137.3,368 137.3,347.1 90.4,347.1 106.1,368 58.3,368 58.3,347.1 32.3,347.1 32.3,368 20.2,368 20.2,370.5 274.8,370.5 274.8,368 263.8,368 263.8,347.1 "
   class="st0" />
	<path
   style="clip-rule:evenodd;fill:#008fb6;fill-rule:evenodd"
   id="path16"
   d="M 263.8,291.1 V 271 h -26 v 20.1 h -37.1 v -9.2 h 18.9 c 7.8,0 11.3,-5.3 11.7,-10.9 h -87.1 c 0.4,5.6 4,10.9 11.7,10.9 h 18.9 v 9.2 H 137.2 V 271 h -26 v 20.1 H 77.4 L 62.5,271 H 32.3 v 20.1 H 20.2 v 2.4 h 254.6 v -2.4 z"
   class="st0" />
	<path
   style="clip-rule:evenodd;fill:#008fb6;fill-rule:evenodd"
   id="path18"
   d="M 263.8,316.4 V 296 h -26 v 20.4 H 200.7 V 296 h -25.8 v 20.4 H 137.3 V 296 h -26 v 20.4 H 96.1 L 81,295.9 H 32.3 v 20.4 H 20.2 v 2.4 h 254.6 v -2.4 h -11 z M 58.3,304.6 h 0.3 l 8.8,11.8 h -9.2 v -11.8 z"
   class="st0" />
	<polygon
   style="clip-rule:evenodd;fill:#008fb6;fill-rule:evenodd"
   id="polygon20"
   points="237.8,321.2 237.8,342.2 200.7,342.2 200.7,321.2 174.9,321.2 174.9,342.2 137.3,342.2 137.3,321.2 111.3,321.2 111.3,336.7 111.1,336.7 99.7,321.2 71.1,321.2 86.8,342.2 58.3,342.2 58.3,321.2 32.3,321.2 32.3,342.2 20.2,342.2 20.2,344.6 274.8,344.6 274.8,342.2 263.8,342.2 263.8,321.2 "
   class="st0" />
	
	
	
	
	
	
	
	
	
	
	
	
	
	
	
	
	
	
	
	
	
	
	
	
	
	
	
	
	
	
	
	
</g>
</svg>