<?xml version="1.0" encoding="UTF-8" standalone="no"?>
<svg
   xmlns:dc="http://purl.org/dc/elements/1.1/"
   xmlns:cc="http://creativecommons.org/ns#"
   xmlns:rdf="http://www.w3.org/1999/02/22-rdf-syntax-ns#"
   xmlns:svg="http://www.w3.org/2000/svg"
   xmlns="http://www.w3.org/2000/svg"
   id="svg68"
   height="1093.8226"
   viewBox="0 0 1568.0935 1093.8226"
   version="1.2">
  <metadata
     id="metadata74">
    <rdf:RDF>
      <cc:Work
         rdf:about="">
        <dc:format>image/svg+xml</dc:format>
        <dc:type
           rdf:resource="http://purl.org/dc/dcmitype/StillImage" />
        <dc:title>nnn-svg</dc:title>
      </cc:Work>
    </rdf:RDF>
  </metadata>
  <defs
     id="defs72" />
  <title
     id="title62">nnn-svg</title>
  <style
     id="style64">
		.s0 { fill: #024da0 } 
		.s1 { fill: #a8cb3a } 
	</style>
  <path
     style="fill:#024da0"
     d="M 1050.4935,447.9 Q 977.59349,384.2 904.49349,321.2 c -4.5,-2.6 -8.3,-6.4 -11,-11 -2.6,-4.5 -4,-9.7 -4,-14.9 0,-5.3 1.4,-10.5 4,-15 2.7,-4.6 6.5,-8.3 11,-11 97.20001,-84.4 194.20001,-169.1 292.10001,-252.6 q 4.5,-3.5 9.4,-6.3 4.9,-2.8 10.3,-4.8 5.3,-2 10.9,-3.1 5.6,-1.1 11.3,-1.3 c 96.7,-1.2 193.4,0 290.2,0 18.6,0 36.1,0 39.4,29.7 q -1.5,2.9 -3.2,5.7 -1.8,2.8 -3.7,5.5 -1.9,2.7 -4.1,5.3 -2.1,2.5 -4.3,4.9 -227.5,198.9 -455.7,396.7 c -3.1,3.2 -6.7,5.8 -10.8,7.5 -4,1.7 -8.4,2.5 -12.8,2.4 -4.4,-0.2 -8.7,-1.2 -12.7,-3.1 -4,-1.9 -7.5,-4.6 -10.3,-7.9 z m 331.1,645.2 q -13.3,-0.6 -26.5,-1 -13.3,-0.3 -26.5,-0.3 -13.3,0 -26.5,0.3 -13.3,0.4 -26.5,1 c -9.9,1.1 -19.9,0.9 -29.8,-0.3 -9.9,-1.2 -19.6,-3.6 -29,-7 -9.4,-3.5 -18.3,-8 -26.6,-13.5 -8.4,-5.4 -16,-11.8 -22.9,-19 -84.4,-76.9 -171.70001,-150.5 -257.80001,-225.5 -27.4,-23.6 -27.2,-36.1 0,-59.9 45.4,-39.6 91.30001,-78.3 136.00001,-117.9 3.5,-4.2 7.8,-7.6 12.7,-9.9 5,-2.3 10.3,-3.5 15.8,-3.5 5.4,0 10.8,1.2 15.8,3.5 4.9,2.3 9.2,5.7 12.7,9.9 148.5,129.7 298,259.4 446,388.7 9.7,8.2 11.4,25.7 16.8,38.6 q -4.3,2.6 -8.8,4.9 -4.5,2.2 -9.1,4 -4.7,1.9 -9.5,3.3 -4.8,1.4 -9.7,2.5 c -48.7,2.1 -97.7,1.1 -146.6,1.1 z"
     class="s0"
     id="Fill-4" />
  <path
     style="fill:#a8cb3a"
     d="m 370.99349,15.1 q 290.2,250.4 579.4,501.9 c 25.8,23.5 26,35.8 0,58 q -290.4,252.6 -581.5,504.2 -3.9,3 -8.2,5.3 -4.3,2.3 -8.9,3.9 -4.6,1.6 -9.4,2.4 -4.8,0.9 -9.7,0.9 c -49.9,1.4 -99.8,0 -149.7,0 H 39.393494 q -4.9,-1 -9.7,-2.5 -4.8,-1.5 -9.4,-3.3 -4.7,-1.9 -9.2,-4.2 -4.4999997,-2.2 -8.7999997,-4.8 c 5.5,-13.2 7.6,-30.2 17.2999997,-38.7 C 155.09349,918.8 291.79349,800.7 428.19349,682.1 c 40.2,-34.7 80.2,-69.1 120.2,-104.1 32.6,-28.5 32.6,-34.9 0,-62.5 q -263.5,-229 -526.899996,-457.7 -3.9,-3 -7.2,-6.6 -3.4,-3.6 -6.0999997,-7.6 -2.7,-4.1 -4.7,-8.5 -2,-4.5 -3.30000001,-9.2 C -1.9065057,6.8 13.393494,0 31.193494,0 H 337.19349 q 4.7,0.4 9.3,1.6 4.6,1.2 8.9,3.1 4.3,1.9 8.2,4.5 4,2.6 7.4,5.9 z"
     class="s1"
     id="Fill-1" />
</svg>
