<svg xmlns="http://www.w3.org/2000/svg" version="1" viewBox="0 0 256 70.81"><path class="fil0" d="M77.206 4.206c3.54 1.443 5.899 3.54 7.472 5.113 2.228 2.228 3.932 4.719 5.767 8.782 1.049 2.622 2.622 6.816 2.622 16.386 0 9.568-1.049 13.37-2.228 16.778-1.18 3.408-3.147 6.947-5.768 9.7-3.932 3.932-7.865 6.03-13.24 7.733-4.98 1.442-12.714 2.229-25.56 2.098-11.928-.131-15.205-.394-21.235-1.311-2.621-.393-7.995-1.966-11.01-3.408-2.36-1.31-5.637-3.802-7.472-5.9-2.097-2.62-4.063-6.029-4.85-9.306C.918 48.118 0 44.055 0 34.487c0-7.996 1.18-13.502 2.228-16.123 1.442-3.408 4.326-7.734 6.16-9.438 4.065-3.802 8.522-5.9 13.633-7.21C27.265.275 33.163.014 46.271.014 58.461-.118 63.574.8 68.817 1.718c-.524-.132 4.326.655 8.389 2.49zM62.526 19.15c-.525-1.573-1.836-3.932-2.622-4.98-.918-1.181-2.753-2.492-4.326-3.147-1.442-.656-5.637-1.573-8.651-1.573-2.884 0-6.03.263-8.651 1.18-1.705.524-3.67 1.704-4.458 2.883-.786 1.05-2.359 2.884-3.277 5.375-.523 1.442-1.441 6.816-1.441 15.074 0 8.127.524 13.501 1.441 17.434.263 1.31.787 3.67 2.885 5.768 2.359 2.228 3.538 2.359 5.112 2.883 1.703.394 5.505.918 8.389.918 3.015 0 6.816-.393 8.388-1.18 1.574-.656 3.41-2.228 4.327-3.408 1.048-1.442 1.966-3.277 2.62-5.243.525-1.574 1.18-8.913 1.18-17.172 0-8.127-.261-13.239-.917-14.812zM195.31 2.11h-42.602v9.83h7.734L134.62 28.85V11.94h9.963V2.11H96.474v9.83h10.094v47.452H96.474v9.83h46.928v-9.83h-8.783V41.827l6.424-3.933 18.35 21.498h-6.815v9.83h48.368v-9.83h-10.093l-30.935-33.426 22.545-14.025h12.846zm50.727 57.282V11.94H256V2.11h-50.335v9.83h11.142v47.452h-11.142v9.83H256v-9.83z" fill="#ef2b2d"/></svg>