<?xml version="1.0" encoding="UTF-8" standalone="no"?>
<svg
   xmlns:dc="http://purl.org/dc/elements/1.1/"
   xmlns:cc="http://creativecommons.org/ns#"
   xmlns:rdf="http://www.w3.org/1999/02/22-rdf-syntax-ns#"
   xmlns:svg="http://www.w3.org/2000/svg"
   xmlns="http://www.w3.org/2000/svg"
   xmlns:xlink="http://www.w3.org/1999/xlink"
   version="1.0"
   width="321"
   height="230">
  <path
     d="m 254.12325,76.07995 c -5.46064,-0.20052 -9.74704,-4.80372 -9.56466,-10.27218 0.0841,-2.64754 1.21583,-5.0947 3.13905,-6.90149 1.93101,-1.80627 4.45313,-2.74648 7.10068,-2.64688 5.46845,0.19137 9.75604,4.7869 9.57234,10.2637 -0.0828,2.6392 -1.19901,5.08622 -3.13004,6.90083 -1.94002,1.79845 -4.46215,2.7388 -7.11751,2.65602 l 1.4e-4,0 z m 2.2983,-8.98258 c 2.43032,0 4.40267,-1.31476 4.40267,-2.92951 0,-1.62323 -1.97247,-2.93866 -4.40267,-2.93866 -2.43154,0 -4.3962,1.31543 -4.3962,2.93866 0,1.61475 1.96466,2.92951 4.3962,2.92951"
     style="fill:#73ba25;fill-rule:nonzero" />
  <path
     d="m 141.77912,133.03489 0.35143,-0.033 0.057,-0.41614 c -0.09,-0.32674 -0.30193,-0.62036 -0.62933,-4.67085 -0.2779,-3.58485 -0.84123,-13.41571 4.10688,-18.29079 1.91955,-1.90255 4.85041,-3.59305 7.16205,-4.13988 9.48006,-2.311 21.7856,-0.71053 32.29451,11.44029 5.42256,6.27899 8.08447,9.14514 9.41536,10.42718 l 0.4568,0.42444 0.55566,0.40029 c 0.43263,0.24489 18.06175,8.36159 18.06175,8.36159 l 0.3591,-0.09 0.009,-0.38313 c -0.11419,-0.1307 -11.17005,-14.41297 -9.211,-26.17923 1.55162,-9.37406 9.01444,-8.53296 19.32807,-7.35745 3.3723,0.38378 7.21025,0.82473 11.17889,0.91476 11.0799,0.0654 23.01883,-1.96775 30.37628,-5.18533 4.76036,-2.08196 7.79775,-3.45417 9.7008,-5.18534 0.68506,-0.56333 1.04416,-1.49393 1.41208,-2.47405 l 0.25374,-0.66103 c 0.30959,-0.79237 0.75873,-2.49055 0.95543,-3.41349 0.09,-0.40795 0.13068,-0.84941 -0.15604,-1.0695 l -1.02013,0.18774 c -3.22511,1.9354 -11.30192,5.62627 -18.86243,5.77335 -9.36588,0.19539 -28.24469,-9.42356 -30.21258,-10.44433 L 227.5347,80.7509 c -0.47445,-1.1273 -3.3076,-7.83127 -3.90392,-9.24336 13.58824,8.94909 24.85586,13.89785 33.48717,14.6654 9.6031,0.85708 17.09125,-4.38477 20.2922,-6.62289 0.62803,-0.42444 1.10249,-0.76755 1.29789,-0.84057 l 0.20423,-0.33493 c -0.53162,-3.37231 -5.55327,-19.70354 -9.34169,-23.62333 -1.05301,-1.07781 -1.89423,-2.12262 -3.59305,-3.11923 -13.72648,-8.001978 -46.3154,-12.83653 -47.8417,-13.056617 l -0.26139,0.07353 -0.0977,0.228399 c 0,0 -0.12302,6.761123 -0.13954,7.512835 -3.33177,-1.110809 -27.52531,-8.925574 -50.2105,-9.717299 -19.22893,-0.677658 -45.49818,-1.592418 -82.619074,21.22216 l -1.09431,0.68571 C 66.255426,69.47353 54.202957,82.89808 47.899279,98.51058 c -1.97607,4.90744 -4.637854,15.98864 -2.00907,26.41582 1.143159,4.56497 3.258113,9.13748 6.116594,13.23681 6.442691,9.25934 17.261843,15.40894 28.914033,16.44543 16.44542,1.46925 28.906364,-5.9199 33.339984,-19.75304 3.04556,-9.54541 0,-23.54914 -11.67688,-30.69405 -9.496574,-5.8222 -19.720034,-4.4913 -25.640064,-0.57982 -5.14415,3.41297 -8.05901,8.70419 -8.00198,14.52651 0.1142,10.31299 9.00678,15.80025 15.39243,15.80856 1.86122,0 3.72309,-0.31843 5.82986,-1.00414 0.74353,-0.22905 1.45341,-0.50617 2.22916,-0.9883 l 0.23723,-0.15473 0.15473,-0.09 -0.057,0.0247 c 1.46159,-0.98011 2.34335,-2.59644 2.34335,-4.32774 0,-0.47381 -0.0735,-0.95542 -0.20423,-1.43742 -0.75107,-2.60474 -3.33178,-4.18873 -6.01006,-3.69906 l -0.3591,0.0735 -0.4898,0.16305 -0.71052,0.23723 c -1.46978,0.36729 -2.58059,0.39211 -2.80898,0.39964 -0.75107,-0.0489 -4.43428,-1.15069 -4.43428,-5.18469 l 0,-0.0488 c 0.009,-1.4781 0.60452,-2.51524 0.93126,-3.07857 1.13485,-1.79652 4.27058,-3.56005 8.50815,-3.18458 5.55326,0.47329 9.55425,3.32347 12.207854,8.69653 2.46639,4.99695 1.82134,11.13771 -1.65763,15.64487 -3.454174,4.46727 -9.602464,6.36149 -17.784644,5.47076 -8.2474,-0.90593 -15.22042,-5.65032 -19.123707,-13.04011 -3.821442,-7.21857 -4.03399,-15.7844 -0.54683,-22.36532 8.353417,-15.75972 24.120657,-15.59667 32.768467,-14.10208 12.803534,2.21266 24.423244,12.46028 29.592084,26.0892 0.82472,2.17211 1.24904,3.89497 1.61632,5.46258 l 0.55566,2.35985 14.46053,7.06305 0.19669,0.13888 3.9e-4,-1.3e-4 z M 244.5675,56.11496 c -2.72649,2.53108 -4.28708,5.98525 -4.41778,9.70899 -0.25242,7.67524 5.774,14.14261 13.44872,14.42882 3.74025,0.12238 7.28378,-1.19266 10.00273,-3.74024 2.71895,-2.53941 4.27942,-5.98525 4.41777,-9.70081 0.2614,-7.68354 -5.76515,-14.1591 -13.45624,-14.43636 -3.72374,-0.12237 -7.27625,1.19202 -9.9952,3.7396"
     style="fill:#73ba25;fill-rule:evenodd" />
  <path
     d="m 284.78051,152.07213 -0.16152,0 c -0.1867,0 -0.34854,-0.16185 -0.34854,-0.34854 l 0,-2.50132 -0.54768,0.83376 c -0.0621,0.087 -0.17428,0.12426 -0.27368,0.12426 l -0.0625,0 c -0.0994,0 -0.21154,-0.0373 -0.27367,-0.12426 l -0.5601,-0.83376 0,2.50132 c 0,0.18669 -0.16185,0.34854 -0.36097,0.34854 l -0.16154,0 c -0.18669,0 -0.34854,-0.16185 -0.34854,-0.34854 l 0,-2.98687 -1.6803,0 0,2.98687 c 0,0.18669 -0.17427,0.34854 -0.37307,0.34854 l -0.14943,0 c -0.1867,0 -0.34855,-0.16185 -0.34855,-0.34854 l 0,-2.98687 -1.25687,0 c -0.18669,0 -0.33611,-0.12458 -0.33611,-0.32339 l 0,-0.17426 c 0,-0.19913 0.14942,-0.3237 0.33611,-0.3237 l 4.40559,0 c 0.17428,0 0.28611,0.0621 0.34856,0.16185 l 0.83376,1.25687 0.83378,-1.25687 c 0.0621,-0.0873 0.16185,-0.16185 0.34855,-0.16185 l 0.5601,0 0,3.83307 c 0,0.18669 -0.17428,0.34854 -0.3734,0.34854"
     style="fill:#73ba25" />
  <path
     d="m 140.72655,146.83277 c -6.02344,0 -9.35885,5.10236 -9.35885,8.6369 l 0,4.53017 c 0,5.18966 4.24374,8.41293 8.18895,8.41293 l 13.81415,0 c 1.72999,0 2.09096,1.1323 2.09096,2.09063 l 0,2.92474 c 0,0.31096 -0.0497,3.12388 -2.09096,3.12388 l -18.85438,0 c -1.867,0 -3.22327,1.29415 -3.22327,3.07383 l 0,0.80894 c 0,1.76726 1.34385,3.07416 3.22327,3.07416 l 19.88759,0 c 5.18966,0 8.54993,-3.60941 8.54993,-9.20975 l 0,-4.89082 c 0,-5.2521 -3.78337,-7.604 -7.52945,-7.604 l -13.59017,0 c -2.05369,0 -2.97444,-1.51845 -2.97444,-2.61348 l 0,-2.68833 c 0,-1.70482 1.1323,-2.67559 3.12354,-2.67559 l 15.0589,0 c 1.84184,0 3.22328,-1.31931 3.22328,-3.07416 l 0,-0.80893 c 0,-1.74241 -1.4063,-3.07385 -3.28539,-3.07385 l -16.22881,0"
     id="S"
     style="fill:#73ba25" />
  <path
     d="m 197.26547,146.83277 c -1.7797,0 -3.22326,1.44357 -3.22326,3.22326 l 0,23.14815 c 0,1.84181 -1.50601,3.33541 -3.33542,3.33541 l -10.50389,0 c -1.84183,0 -3.33543,-1.4936 -3.33543,-3.33541 l 0,-23.14815 c 0,-1.77969 -1.43113,-3.22326 -3.22326,-3.22326 l -1.02047,0 c -1.79212,0 -3.22327,1.41872 -3.22327,3.22326 l 0,24.03162 c 0,5.58792 4.39317,9.64527 10.45388,9.64527 l 11.22584,0 c 6.06071,0 10.45387,-4.05735 10.45387,-9.64527 l 0,-24.03162 c 0,-1.80454 -1.41871,-3.22326 -3.22326,-3.22326 l -1.02048,0"
     style="fill:#73ba25" />
  <use
     transform="translate(76.656545,0)"
     xlink:href="#S" />
  <path
     d="m 249.16209,146.83277 c -1.77938,0 -3.1484,1.319 -3.1484,3.07383 l 0,30.52819 c 0,1.74241 1.319,3.07416 3.08627,3.07416 l 24.33046,0 c 1.86699,0 3.22359,-1.29447 3.22359,-3.07416 l 0,-0.80894 c 0,-1.76726 -1.34417,-3.07383 -3.22359,-3.07383 0,0 -19.02865,0 -19.92487,0 0,-0.7965 0,-6.98179 0,-7.77829 0.89622,0 14.59854,0 14.59854,0 1.86667,0 3.22326,-1.29446 3.22326,-3.08659 l 0,-0.79649 c 0,-1.7797 -1.35659,-3.08627 -3.22326,-3.08627 0,0 -13.70232,0 -14.59854,0 0,-0.79649 0,-7.19334 0,-7.98983 0.89622,0 18.91682,0 18.91682,0 1.867,0 3.22359,-1.29446 3.22359,-3.07416 l 0,-0.80892 c 0,-1.7797 -1.35659,-3.07384 -3.22359,-3.07384 l -23.24753,0"
     style="fill:#73ba25" />
  <path
     d="m 42.309263,161.35612 c -3.036651,0 -5.513263,2.36463 -5.513263,5.28937 l 0,11.51195 c 0,2.96201 2.389494,5.37636 5.326597,5.37636 l 7.442252,0 c 2.937103,0 5.33902,-2.41435 5.33902,-5.37636 l 0,-11.51195 c 0,-2.91231 -2.476599,-5.28937 -5.513261,-5.28937 l -7.081345,0 z m -1.605453,16.35305 0,-10.50358 c 0,-1.23234 1.00808,-2.24039 2.240167,-2.24039 l 5.799492,0 c 1.207204,0 2.240134,1.02079 2.240134,2.24039 l 0,10.50358 c 0,1.23235 -1.008048,2.24038 -2.240134,2.24038 l -5.84929,0 c -1.232086,0 -2.190369,-0.98318 -2.190369,-2.24038"
     style="fill:#73ba25" />
  <path
     d="m 71.779776,161.21943 c -2.15309,0 -3.75857,0.77165 -5.06534,1.39387 -0.78404,0.37309 -1.46852,0.69678 -2.00367,0.69678 -0.22401,0 -0.43559,-0.0994 -0.54761,-0.27368 l -0.485353,-0.94592 c -0.112019,-0.24883 -0.60983,-0.73436 -1.232086,-0.73436 l -0.721818,0 c -0.696936,0 -1.269427,0.62253 -1.269427,1.40628 l 0,29.18433 c 0,0.90832 0.709393,1.63027 1.630336,1.63027 l 0.634712,0 c 0.89606,0 1.630336,-0.73437 1.630336,-1.63027 l 0,-9.68255 c 0,-0.2861 0.18667,-0.58495 0.36091,-0.58495 0.53515,0 1.21963,0.29885 2.01613,0.67225 1.29431,0.58494 2.91222,1.33142 5.06531,1.33142 l 0.67192,0 c 3.79579,0 6.16044,-2.1652 6.16044,-5.65003 l 0,-11.13855 c 0,-3.43482 -2.41435,-5.66247 -6.16044,-5.66247 l -0.68435,0 0,0 0,-0.0124 z m -7.44238,16.26576 0,-10.0432 c 0,-1.38144 1.08276,-2.46436 2.46418,-2.46436 l 5.42615,0 c 1.38145,0 2.46405,1.08292 2.46405,2.46436 l 0,10.0432 c 0,1.35659 -1.09503,2.46436 -2.46405,2.46436 l -5.42615,0 c -1.35654,0 -2.46418,-1.10777 -2.46418,-2.46436"
     style="fill:#73ba25" />
  <path
     d="m 89.650966,161.35612 c -3.03657,0 -5.51304,2.36463 -5.51304,5.28937 l 0,11.42465 c 0,2.96201 2.40191,5.47608 5.23936,5.47608 l 7.67887,0 c 0.94561,0 1.63028,-0.64739 1.63028,-1.54329 l 0,-0.49798 c 0,-0.8959 -0.68467,-1.54296 -1.63028,-1.54296 l -6.29743,0 c -1.76727,0 -2.70076,-0.85895 -2.70076,-2.51407 0,0 0,-2.87473 0,-3.33542 0.5104,0 11.37526,0 11.37526,0 1.816974,0 2.912004,-1.11987 2.912004,-3.01171 l 0,-4.43044 c 0,-2.91232 -2.476474,-5.28907 -5.513044,-5.28907 l -7.16848,0 -0.0127,-0.0252 z m -1.60543,5.79946 c 0,-1.21961 0.95835,-2.19038 2.19037,-2.19038 l 5.98616,0 c 1.23234,0 2.19037,0.95834 2.19037,2.19038 0,0 0,3.099 0,3.55939 -0.48522,0 -9.88135,0 -10.3669,0 0,-0.46039 0,-3.55939 0,-3.55939"
     style="fill:#73ba25" />
  <path
     d="m 118.17578,161.21943 c -2.14066,0 -3.75851,0.75922 -5.05298,1.38145 -0.80892,0.37309 -1.5057,0.7092 -2.0658,0.7092 -0.24882,0 -0.34854,-0.0248 -0.53524,-0.36098 l -0.44795,-0.82135 c -0.24883,-0.51007 -0.68435,-0.77163 -1.28173,-0.77163 l -0.63497,0 c -0.7589,0 -1.30657,0.58493 -1.30657,1.40628 l 0,19.1408 c 0,0.90865 0.72163,1.64302 1.63027,1.64302 l 0.63465,0 c 0.89622,0 1.63027,-0.73437 1.63027,-1.64302 l 0,-14.48606 c 0,-1.35659 1.10777,-2.46436 2.46437,-2.46436 l 5.42606,0 c 1.35659,0 2.46405,1.10777 2.46405,2.46436 l 0,14.48606 c 0,0.90865 0.72194,1.64302 1.63059,1.64302 l 0.63465,0 c 0.8959,0 1.63027,-0.73437 1.63027,-1.64302 l 0,-15.02131 c 0,-3.43481 -2.41435,-5.66246 -6.16044,-5.66246 l -0.68435,0"
     style="fill:#73ba25" />
</svg>