<svg viewBox="0 0 40000 9200" xmlns="http://www.w3.org/2000/svg"><path d="m33817 8423c0 63 8 153 50 204 30 35 64 53 110 53s81-16 110-51c42-50 49-148 49-210s-7-148-50-198c-29-34-61-51-106-51-47 0-83 17-113 53-42 50-50 137-50 200zm-1567-7c0-55-7-130-44-174-27-31-57-45-98-45-34 0-57 14-78 40-35 43-40 138-40 190 0 53 6 137 42 180 22 27 47 42 82 42 39 0 68-15 93-44 37-44 43-135 43-189zm-1774-201c-8-22-19-43-33-57-29-29-66-37-106-37-52 0-90 19-122 61-7 10-13 21-19 34h280zm-1824 0c-8-22-19-43-33-57-29-29-66-37-106-37-52 0-90 19-122 61-7 10-13 21-19 34h280zm-8950 0c-8-22-19-43-33-57-29-29-66-37-106-37-52 0-90 19-122 61-7 10-13 21-19 34h280zm-2795 0c-8-22-19-43-33-57-29-29-66-37-106-37-52 0-90 19-122 61-7 10-13 21-19 34h280zm18765-469c24-17 50-32 76-45 91-44 192-60 292-60 102 0 210 16 298 69 46 28 85 62 118 102 50-46 106-88 165-116 88-41 186-55 282-55 151 0 292 43 398 154 114 121 144 296 144 456v919h-690v-843c0-19-2-61-15-77l-2-4c-14-19-29-32-53-32-31 0-55 9-75 33-29 34-33 108-33 150v773h-690v-816c0-21 0-70-6-90-5-15-13-27-25-36-11-9-24-12-39-12-31 0-55 10-75 34-30 35-35 114-35 158v763h-690v-1498h655zm-2545 678c0-218 73-410 232-563 168-161 385-220 615-220 253 0 497 66 669 260 129 146 186 322 186 515 0 218-71 411-230 564-169 163-393 220-623 220-208 0-411-48-574-182-185-153-275-355-275-594zm-843 677c-16 12-33 22-49 31-89 47-187 68-287 68-203 0-372-77-488-244-114-163-159-353-159-549 0-201 42-409 181-562 124-137 283-204 468-204 86 0 170 14 250 46 16 7 31 14 47 22v-537h695v1998h-657v-69zm-2086-465c6 12 12 23 20 32 34 38 73 54 124 54 35 0 68-8 98-25 22-12 47-40 62-60l1-1zm738 0 288 26-71 122c-76 131-177 247-313 319-149 79-343 97-509 97-150 0-319-17-455-83-122-60-217-153-288-268-80-129-113-275-113-426 0-218 68-413 227-565 167-160 386-216 613-216 163 0 345 20 491 96 126 66 223 161 290 286 75 141 97 308 97 466v147h-257zm-2562 0c6 12 12 23 20 32 33 38 73 54 124 54 35 0 68-8 98-25 22-12 47-40 62-60l1-1zm738 0 288 26-71 122c-76 131-177 247-313 319-149 79-343 97-509 97-150 0-319-17-455-83-122-60-217-153-288-268-80-129-112-275-112-426 0-218 68-413 227-565 167-160 386-216 613-216 163 0 345 20 491 96 126 66 223 161 290 286 75 141 97 308 97 466v147h-258zm-2028-927c68-49 148-68 232-68 101 0 200 34 289 80l74 39-227 516-82-34c-28-12-77-30-108-30-36 0-60 13-80 42-57 85-63 284-63 382v533h-692v-1498h657zm-1615 33v138h711v548h-710v742h-750v-1999h1579v571zm-2412 388c-4-7-9-14-16-19-27-18-61-24-94-24-14 0-53 2-67 10 40 17 136 29 177 33zm67 579c-2-2-6-4-8-5-37-18-150-36-192-43-19-3-38-6-58-10 10 26 26 55 48 70 27 18 67 23 99 23s76-4 102-24l3-2c1-2 4-5 6-9zm-519-116c-23-7-44-14-65-22-87-33-158-89-213-162-60-79-88-169-88-267 0-104 30-199 96-281 65-81 152-136 251-170 120-42 261-52 388-52 117 0 265 4 377 40 85 27 162 71 225 134 66 66 112 150 145 236l43 110-356 34c19 6 37 13 55 20 92 38 172 95 229 177 54 77 82 164 82 258 0 98-31 189-84 271-62 96-155 161-258 206-134 57-297 71-442 71-178 0-415-17-568-119-125-83-202-202-235-347l-23-100zm-1229-463c-4-7-10-14-16-19-27-18-61-24-94-24-14 0-53 2-67 10 40 17 137 29 177 33zm67 579c-2-2-6-4-8-5-37-18-150-36-192-43-19-3-38-6-58-10 10 26 26 55 48 70 27 18 67 23 99 23s76-4 102-24l3-2c2-2 5-5 6-9zm-519-116c-23-7-44-14-65-22-87-33-158-89-213-162-60-79-89-169-89-267 0-104 30-199 96-281 65-81 152-136 250-170 120-42 261-52 388-52 117 0 265 4 377 40 85 27 162 71 225 134 66 66 112 150 145 236l42 110-356 34c19 6 38 13 55 20 92 38 172 95 229 177 54 77 82 164 82 258 0 98-31 189-83 271-62 96-155 161-258 206-134 57-298 71-442 71-178 0-416-17-568-119-125-83-202-202-235-347l-23-100zm-1500 43c6 12 12 23 20 32 33 38 73 54 124 54 35 0 68-8 99-25 22-12 47-40 62-60l1-1zm738 0 288 26-71 122c-76 131-177 247-313 319-149 79-342 97-509 97-150 0-318-17-455-83-122-60-217-153-288-268-80-129-112-275-112-426 0-218 68-413 227-565 167-160 386-216 613-216 163 0 345 20 491 96 126 66 223 161 290 286 75 141 96 308 96 466v147h-257zm-2349-1465h690v1998h-690zm-1184 1465c6 12 12 23 20 32 34 38 73 54 124 54 35 0 68-8 99-25 22-12 47-40 62-60l1-1zm738 0 288 26-71 122c-76 131-177 247-313 319-149 79-342 97-509 97-150 0-319-17-455-83-122-60-217-153-288-268-80-129-113-275-113-426 0-218 68-413 227-565 167-160 386-216 613-216 163 0 345 20 491 96 126 66 223 161 290 286 75 141 96 308 96 466v147h-256zm-2028-927c69-49 148-68 232-68 101 0 200 34 289 80l75 39-227 516-82-34c-28-12-77-30-108-30-36 0-60 13-80 42-57 85-63 284-63 382v533h-692v-1498h657v38zm-3710 170 197-708h670l200 712 136-711h722l-443 1998h-696l-252-899-250 899h-695l-447-1998h725zm2784-208v1498h-690v-1998h690z" fill="#a6a6a6"/><path d="m35108 7761h474v192c68-80 137-138 207-171 69-34 153-51 252-51 106 0 189 19 251 56s112 93 151 166c80-86 152-145 218-176s147-47 243-47c142 0 253 42 332 126 80 84 120 215 120 394v828h-508v-753c0-60-12-105-35-133-34-46-76-68-126-68-60 0-108 22-144 65s-55 113-55 208v682h-509v-726c0-58-3-97-10-118-11-33-29-60-56-80-26-20-58-30-94-30-58 0-106 22-144 66s-56 116-56 216v673h-509v-1319zm-1382 662c0 118 24 206 72 262s107 85 180 85 133-28 179-83c47-56 70-145 70-268 0-115-23-200-71-256-47-56-106-84-176-84-74 0-135 28-183 85-47 57-71 143-71 259zm-508 1c0-202 68-367 205-498 136-130 320-196 552-196 265 0 466 77 601 230 109 124 163 276 163 456 0 203-67 369-202 499-135 129-322 194-561 194-212 0-385-54-516-162-162-132-242-307-242-523zm-878-9c0-104-22-181-66-232s-100-77-167-77c-59 0-108 24-148 74-40 49-60 131-60 246 0 108 21 187 62 237s92 75 153 75c65 0 119-25 162-76 43-49 64-132 64-247zm510-1154v1818h-476v-195c-66 83-127 139-182 169-73 38-155 57-244 57-180 0-318-68-414-205-95-137-143-303-143-498 0-219 53-386 158-502s239-174 401-174c79 0 151 13 215 39 65 27 122 66 172 119v-628zm-2263 1044c-10-98-37-169-80-211s-99-64-169-64c-81 0-146 32-194 96-31 40-50 99-59 178h502zm516 241h-1020c9 81 31 141 67 181 49 57 113 85 193 85 50 0 98-12 143-37 28-16 57-43 89-82l501 46c-77 132-169 227-277 285-108 57-264 86-466 86-176 0-314-24-415-74-100-49-184-127-250-235-66-107-99-234-99-378 0-206 66-373 199-501 133-127 316-191 550-191 190 0 340 29 449 86s194 140 251 248c57 109 86 250 86 424v57zm-2340-241c-10-98-37-169-80-211s-99-64-169-64c-81 0-146 32-194 96-31 40-50 99-59 178h502zm516 241h-1020c9 81 31 141 66 181 49 57 113 85 193 85 50 0 98-12 143-37 28-16 57-43 89-82l501 46c-77 132-169 227-277 285-108 57-264 86-466 86-176 0-314-24-415-74-101-49-184-127-250-235-66-107-99-234-99-378 0-206 67-373 199-501 133-127 316-191 550-191 190 0 340 29 449 86 110 57 194 140 251 248 57 109 86 250 86 424zm-2762-785h476v215c46-94 93-158 142-193s109-52 181-52c75 0 158 23 247 70l-158 359c-60-25-108-37-143-37-67 0-118 27-155 82-52 77-79 221-79 433v443h-511zm-1706-500h1398v391h-831v317h711v368h-711v742h-567zm-2539 1453 504-46c21 59 50 102 87 127 38 25 87 38 150 38 68 0 121-14 159-44 29-21 44-48 44-80 0-36-19-65-57-85-27-14-100-31-218-52-176-30-299-59-368-85s-126-70-173-132-70-133-70-212c0-87 25-162 76-224 51-63 121-110 210-141s208-47 358-47c158 0 274 12 349 36s138 61 188 112 92 119 125 205l-480 46c-12-42-33-73-62-93-40-26-88-39-144-39-57 0-99 10-125 31s-39 45-39 74c0 33 17 57 49 73 33 17 105 32 216 45 169 19 294 46 377 80 82 34 145 82 189 145s66 132 66 207c0 76-23 150-69 222s-119 129-218 172-235 64-406 64c-242 0-414-34-517-103-106-70-172-168-201-294zm-1681 0 504-46c21 59 50 102 87 127 38 25 87 38 150 38 68 0 121-14 158-44 29-21 44-48 44-80 0-36-19-65-57-85-27-14-100-31-218-52-176-30-298-59-368-85-69-26-126-70-173-132s-70-133-70-212c0-87 25-162 76-224 51-63 121-110 210-141s208-47 358-47c158 0 274 12 349 36s138 61 188 112 92 119 125 205l-481 46c-12-42-33-73-62-93-40-26-88-39-144-39-57 0-99 10-125 31-26 20-39 45-39 74 0 33 17 57 49 73 33 17 105 32 216 45 169 19 294 46 377 80 82 34 145 82 189 145s66 132 66 207c0 76-23 150-69 222s-119 129-218 172-235 64-406 64c-242 0-415-34-517-103-104-70-170-168-199-294zm-779-409c-10-98-37-169-80-211s-99-64-169-64c-81 0-146 32-194 96-31 40-50 99-59 178h502zm517 241h-1020c9 81 31 141 67 181 49 57 113 85 193 85 50 0 98-12 143-37 28-16 57-43 89-82l501 46c-77 132-169 227-277 285-108 57-264 86-466 86-176 0-314-24-415-74-100-49-184-127-250-235-66-107-99-234-99-378 0-206 66-373 199-501 133-127 316-191 550-191 190 0 340 29 449 86 110 57 194 140 252 248 57 109 86 250 86 424v57zm-2425-1285h509v1818h-509zm-886 1044c-10-98-37-169-80-211s-99-64-170-64c-81 0-146 32-194 96-31 40-50 99-59 178h503zm516 241h-1020c9 81 31 141 67 181 49 57 113 85 193 85 50 0 98-12 143-37 28-16 57-43 89-82l501 46c-77 132-169 227-277 285-108 57-264 86-466 86-176 0-314-24-415-74-100-49-184-127-250-235-66-107-99-234-99-378 0-206 67-373 199-501 133-127 316-191 550-191 190 0 340 29 449 86 110 57 194 140 251 248 57 109 86 250 86 424v57zm-2762-785h476v215c46-94 93-158 142-193s109-52 181-52c75 0 158 23 247 70l-158 359c-60-25-108-37-143-37-66 0-118 27-155 82-52 77-79 221-79 433v443h-511zm-958 0h509v1318h-509zm0-500h509v343h-509zm-2931 0h537l193 1015 283-1015h533l285 1016 194-1016h534l-403 1818h-555l-321-1145-319 1145h-554z"/><path d="m15550 3666c-63-42-137-53-216-53-81 0-144 17-200 53zm-5978 810c0 140 16 373 113 486 62 73 127 102 223 102 70 0 111-28 155-82 87-106 100-414 100-541 0-136-14-392-107-504-48-58-92-92-168-92-90 0-147 31-204 99-97 113-112 393-112 532zm-6887-820c0 294 31 778 234 1015 156 182 357 244 594 244 231 0 444-54 597-234 201-237 226-815 226-1106 0-287-34-715-235-943-160-182-365-243-605-243-233 0-422 68-576 245-204 237-235 727-235 1022zm-2685-5c0-951 245-1867 937-2553 691-686 1607-930 2564-930 955 0 1895 229 2591 914 687 676 930 1581 930 2522 0 644-94 1320-400 1897-273 516-672 920-1184 1205-567 316-1221 423-1864 423-627 0-1284-85-1854-361-536-259-948-666-1250-1174-349-588-470-1269-470-1943zm15182 1640c50 20 105 29 168 29 61 0 119-9 174-29zm2980-1504v-1891h2388v177c26-15 52-30 79-43 326-170 691-233 1056-233 526 0 1013 153 1380 537 394 412 503 996 503 1545v3149h-2510v-2781c0-61-7-243-43-293-23-26-73-27-104-27-69 0-113 18-156 71-79 97-91 432-91 548v2482h-2502v-1422l-60 104c-260 447-607 841-1070 1087-505 268-1153 331-1717 331-510 0-1075-58-1538-284-419-205-746-526-989-921-96-156-172-318-231-486-94 363-256 704-518 990-429 469-979 701-1617 701-287 0-570-46-837-152v1682h-2518v-6762h2396v124c301-152 629-223 967-223 695 0 1277 270 1683 835 203 282 342 590 430 913 124-374 332-714 637-1007 567-544 1312-741 2085-741 554 0 1162 69 1660 328 433 225 769 556 997 986 111 211 188 440 240 676zm17717-1809v-82h608v-624l2502-1272v1896h907v2047h-907v1099c0 19 0 45 1 72 101-15 219-52 299-77l494-157 217 2024-369 81c-405 89-821 144-1237 144-361 0-790-34-1112-208-283-152-491-387-619-680-153-348-175-831-175-1207v-1091h-608v-448l-292 663-384-160c-71-30-223-89-302-89-75 0-113 20-154 82-166 246-185 890-185 1175v1861h-2510v-4773l-1059 4774h-2467l-724-2579-719 2580h-2464l-1510-6762h2625l356 1872 522-1872h2377l529 1887 361-1887h2615l-361 1629h2317v30c195-90 408-129 627-129 277 0 548 71 801 181z"/><path d="m38566 687v1629h907v1207h-907v1519c0 182 18 303 53 363 54 91 150 137 286 137 122 0 293-35 513-105l122 1137c-409 90-791 134-1146 134-412 0-716-52-911-157-194-105-338-265-433-478-93-214-140-561-140-1039v-1511h-608v-1207h608v-787zm-6090 1629h1551v700c150-305 304-514 462-629 160-114 355-171 588-171 246 0 513 76 803 227l-513 1167c-195-81-351-121-465-121-216 0-386 90-505 267-171 251-257 721-257 1409v1442h-1665v-4291zm-8840-1629h1748l628 3304 921-3304h1734l928 3310 633-3310h1740l-1314 5922h-1806l-1046-3728-1039 3728h-1803zm-5052 1629h1543v699c230-287 462-491 698-613 236-123 522-185 860-185 458 0 815 135 1074 407 258 270 387 689 387 1256v2729h-1665v-2362c0-270-50-460-150-572s-240-168-420-168c-198 0-361 76-484 226-123 152-186 422-186 813v2062h-1656v-4292zm-2439 1770c-32-320-119-548-259-686s-323-207-552-207c-264 0-474 105-633 313-100 130-164 323-191 580zm1682 786h-3321c31 263 101 460 217 590 159 186 369 279 627 279 164 0 319-40 465-120 90-51 187-141 290-269l1631 149c-250 430-551 740-903 926-352 188-859 281-1517 281-573 0-1022-80-1351-241-327-160-599-415-816-764-215-350-323-761-323-1232 0-671 216-1216 649-1630 431-415 1029-623 1791-623 619 0 1106 94 1464 280s631 455 819 809c187 353 280 813 280 1380v185zm-8677-396c0 342 72 594 215 759s325 248 544 248c192 0 352-78 483-237 129-158 194-427 194-806 0-350-68-606-202-771-136-164-300-245-495-245-211 0-386 83-527 248-142 166-212 433-212 804zm-1661 3761v-5921h1551v633c214-267 411-448 590-542 240-127 508-190 800-190 577 0 1022 219 1339 659 315 440 473 984 473 1631 0 715-172 1261-516 1637-344 377-778 564-1304 564-255 0-487-43-696-128-211-87-398-214-563-383v2041h-1674zm-5227-4581c0 597 112 1027 336 1287 225 260 530 392 916 392 395 0 703-128 920-383 218-256 326-714 326-1377 0-557-114-963-340-1220-227-258-534-386-922-386-372 0-671 131-896 392-227 260-340 692-340 1295zm-1839-4c0-966 271-1719 813-2256 542-539 1297-808 2265-808 992 0 1756 265 2293 793 537 529 805 1271 805 2223 0 692-116 1259-351 1701-234 442-574 787-1017 1034-444 247-996 369-1658 369-671 0-1228-106-1669-318-440-214-798-550-1071-1010s-410-1036-410-1728z" fill="#fff"/></svg>