<?xml version="1.0" encoding="UTF-8" standalone="no"?>
<svg
   viewBox="0 0 241.92633 290.07794"
   version="1.1"
   id="svg289"
   xmlns="http://www.w3.org/2000/svg"
   xmlns:svg="http://www.w3.org/2000/svg"
   xmlns:rdf="http://www.w3.org/1999/02/22-rdf-syntax-ns#"
   xmlns:cc="http://creativecommons.org/ns#"
   xmlns:dc="http://purl.org/dc/elements/1.1/">
  <defs
     id="defs283">
    <clipPath
       clipPathUnits="userSpaceOnUse"
       id="clipPath32">
      <path
         d="M 0,0 H 792 V 612 H 0 Z"
         id="path30" />
    </clipPath>
    <clipPath
       clipPathUnits="userSpaceOnUse"
       id="clipPath60">
      <path
         d="M 0,0 H 792 V 612 H 0 Z"
         id="path58" />
    </clipPath>
    <clipPath
       clipPathUnits="userSpaceOnUse"
       id="clipPath82">
      <path
         d="M 0,0 H 792 V 612 H 0 Z"
         id="path80" />
    </clipPath>
    <clipPath
       clipPathUnits="userSpaceOnUse"
       id="clipPath106">
      <path
         d="M 0,0 H 792 V 612 H 0 Z"
         id="path104" />
    </clipPath>
    <clipPath
       clipPathUnits="userSpaceOnUse"
       id="clipPath126">
      <path
         d="M 0,0 H 792 V 612 H 0 Z"
         id="path124" />
    </clipPath>
    <clipPath
       clipPathUnits="userSpaceOnUse"
       id="clipPath146">
      <path
         d="M 0,0 H 792 V 612 H 0 Z"
         id="path144" />
    </clipPath>
    <clipPath
       clipPathUnits="userSpaceOnUse"
       id="clipPath166">
      <path
         d="M 0,0 H 792 V 612 H 0 Z"
         id="path164" />
    </clipPath>
  </defs>
  <metadata
     id="metadata286">
    <rdf:RDF>
      <cc:Work
         rdf:about="">
        <dc:format>image/svg+xml</dc:format>
        <dc:type
           rdf:resource="http://purl.org/dc/dcmitype/StillImage" />
      </cc:Work>
    </rdf:RDF>
  </metadata>
  <g
     id="layer1"
     transform="translate(2.4795578,53.153574)">
    <g
       id="g168"
       transform="matrix(7.6363222,0,0,-7.6363222,118.48207,98.268602)"
       style="fill:#43b0e8;fill-opacity:1">
      <path
         d="m 0,0 c -1.424,0 -2.583,-1.159 -2.583,-2.583 0,-1.424 1.159,-2.583 2.583,-2.583 1.424,0 2.583,1.159 2.583,2.583 C 2.583,-1.159 1.424,0 0,0"
         style="fill:#43b0e8;fill-opacity:1;fill-rule:nonzero;stroke:none"
         id="path170" />
    </g>
    <g
       id="g172"
       transform="matrix(7.6363222,0,0,-7.6363222,-2.4795578,-2.9676642)"
       style="fill:#43b0e8;fill-opacity:1">
      <path
         d="m 0,0 2.685,-2.685 c 3.37,3.371 8.023,5.458 13.155,5.458 5.132,0 9.785,-2.087 13.156,-5.458 L 31.681,0 C 27.623,4.058 22.019,6.572 15.84,6.572 9.662,6.572 4.059,4.058 0,0"
         style="fill:#43b0e8;fill-opacity:1;fill-rule:nonzero;stroke:none"
         id="path174" />
    </g>
    <g
       id="g176"
       transform="matrix(7.6363222,0,0,-7.6363222,34.42679,33.935634)"
       style="fill:#43b0e8;fill-opacity:1">
      <path
         d="m 0,0 2.685,-2.685 c 2.132,2.132 5.076,3.453 8.322,3.453 3.247,0 6.191,-1.321 8.323,-3.453 L 22.015,0 C 19.195,2.82 15.301,4.567 11.007,4.567 6.713,4.567 2.82,2.82 0,0"
         style="fill:#43b0e8;fill-opacity:1;fill-rule:nonzero;stroke:none"
         id="path178" />
    </g>
    <g
       id="g180"
       transform="matrix(7.6363222,0,0,-7.6363222,71.329314,70.839684)"
       style="fill:#43b0e8;fill-opacity:1">
      <path
         d="m 0,0 2.685,-2.685 c 0.894,0.894 2.128,1.448 3.49,1.448 1.362,0 2.596,-0.554 3.49,-1.448 L 12.35,0 C 10.768,1.582 8.583,2.562 6.175,2.562 3.766,2.562 1.582,1.582 0,0"
         style="fill:#43b0e8;fill-opacity:1;fill-rule:nonzero;stroke:none"
         id="path182" />
    </g>
    <g
       id="g184"
       transform="matrix(7.6363222,0,0,-7.6363222,191.12413,65.076563)"
       style="fill:#072342;fill-opacity:1">
      <path
         d="m 0,0 c 1.421,-1.946 2.263,-4.341 2.263,-6.93 0,-6.493 -5.283,-11.775 -11.776,-11.775 -6.493,0 -11.776,5.282 -11.776,11.775 0,2.589 0.842,4.984 2.264,6.93 l -2.708,2.708 c -2.098,-2.654 -3.354,-6.001 -3.354,-9.638 0,-8.587 6.986,-15.574 15.574,-15.574 8.588,0 15.575,6.987 15.575,15.574 0,3.637 -1.257,6.984 -3.354,9.638 z"
         style="fill:#072342;fill-opacity:1;fill-rule:nonzero;stroke:none"
         id="path186" />
    </g>
  </g>
</svg>
