<svg viewBox="0 0 256 220.73" xmlns="http://www.w3.org/2000/svg" xmlns:xlink="http://www.w3.org/1999/xlink"><linearGradient id="a"><stop offset="0" stop-color="#fff68e"/><stop offset=".5" stop-color="#faea82"/><stop offset="1" stop-color="#d6aa4a"/></linearGradient><radialGradient id="b" cx="497.432" cy="348.199" gradientTransform="matrix(.39649 0 0 .77025 199.236 17.699)" gradientUnits="userSpaceOnUse" r="9.247" xlink:href="#a"/><radialGradient id="c" cx="488.701" cy="285.966" gradientTransform="matrix(.32864 0 0 .92928 199.236 17.699)" gradientUnits="userSpaceOnUse" r="7.616" xlink:href="#a"/><radialGradient id="d" cx="501.065" cy="394.906" gradientTransform="matrix(.46705 0 0 .65388 199.236 17.699)" gradientUnits="userSpaceOnUse" r="8.932" xlink:href="#a"/><radialGradient id="e" cx="338.417" cy="292.828" gradientTransform="matrix(.3594 0 0 .84976 199.236 17.699)" gradientUnits="userSpaceOnUse" r="7.609" xlink:href="#a"/><radialGradient id="f" cx="471.22446" cy="245.884348" gradientUnits="userSpaceOnUse" r="4.588487" xlink:href="#a"/><radialGradient id="g" cx="178.34" cy="341.682" gradientTransform="matrix(.476 0 0 .64158 199.236 17.699)" gradientUnits="userSpaceOnUse" r="10.078" xlink:href="#a"/><radialGradient id="h" cx="509.232" cy="353.121" gradientTransform="matrix(.5475 0 0 .5578 199.236 17.699)" gradientUnits="userSpaceOnUse" r="248.781" xlink:href="#a"/><radialGradient id="i" cx="507.447" cy="320.435" gradientTransform="matrix(.5514 0 0 .55387 199.236 17.699)" gradientUnits="userSpaceOnUse" r="25.233" xlink:href="#a"/><radialGradient id="j" cx="429.496" cy="326.186" gradientTransform="matrix(.65364 0 0 .46723 199.236 17.699)" gradientUnits="userSpaceOnUse" r="23.596" xlink:href="#a"/><radialGradient id="k" cx="551.649" cy="183.26" gradientTransform="matrix(.52102 0 0 .58615 199.236 17.699)" gradientUnits="userSpaceOnUse" r="9.608" xlink:href="#a"/><radialGradient id="l" cx="364.332" cy="234.706" gradientTransform="matrix(.69902 0 0 .4369 199.236 17.699)" gradientUnits="userSpaceOnUse" r="21.186" xlink:href="#a"/><radialGradient id="m" cx="359.248" cy="159.949" gradientTransform="matrix(1 0 0 1.0475 0 -7.597)" gradientUnits="userSpaceOnUse" r="145.693"><stop offset="0" stop-color="#fff68e"/><stop offset=".731" stop-color="#eed26a"/><stop offset="1" stop-color="#d6aa4a"/></radialGradient><path d="m146.08 0c-2.158 5.018-1.554 10.873-3.127 16.088-.363 1.201-1.55 4.83-3.288 4.58-3.552-.515-1.712-7.34-5.811-7.476l1.287 9.975c-6.16.774-5.32-8.842-7.82-12.749-2.885-4.507-3.58 2.045-3.387 4.061.123 1.293.384 2.573.539 3.862.27 2.242.333 4.194.05 6.435-5.886-.07-3.726-7.817-8.044-9.01l.321 9.332c-6.525-.055-9.499-5.945-12.364-10.94-1.196-2.085-2.787-6.114-5.654-4.827 1.34 5.797 4.514 11.345 4.838 17.375.083 1.56-1.388 5.517-3.55 4.79-4.997-1.684-4.326-10.749-8.49-13.134-.841-.482-2.17-.061-3.095-.021.003 4.808 2.118 10.621 3.8 15.122.36.969 1.376 4.373-.733 4.31-3.77-.114-4.708-7.423-8.537-6.562.469 1.972 1.64 3.572 2.293 5.47.399 1.16 1.138 2.332 1.352 3.54.468 2.639-2.875 2.853-4.61 2.341-4.1-1.208-7.043-4.56-9.975-7.49-.812-.812-2.956-3.671-4.309-2.373-1.504 1.443 1.45 3.98 2.288 4.947 2.504 2.895 5.214 6.286 6.41 9.975.514 1.585.615 3.837-.959 4.925-1.561 1.079-4.1-.88-5.36-1.708-3.858-2.539-7.693-6.974-12.55-7.078l-1.137 2.896 3.097 4.183 8.015 9.01-9.33-3.862c.376 2.44 6.22 5.395 5.07 7.91-.682 1.49-4.063 1.514-5.392 1.325-4.758-.678-8.124-4.22-12.55-5.49-3.907-1.121-3.18 1.91-.964 3.66a69.82 69.82 0 0 1 2.252 1.884 70.131 70.131 0 0 1 3.861 3.582c1.952 1.95 3.662 4.037 5.47 6.113l-9.331-.322v.644l9.01 4.183-1.61 6.435c-2.601-.007-4.71-.715-7.078-1.745-1.614-.702-3.313-1.869-5.149-1.74-2.19.154-3.493 2.155-2.025 4.024 2.2 2.802 6.608 4.398 9.424 6.582 1.075.833 2.632 2.257 1.416 3.68-2.4 2.81-8.87-.795-12.032.139v.644c2.934 1.712 8.951 2.69 10.678 5.847 1.35 2.47-2.49 8.068-5.208 7.849-2.423-.196-4.649-2.93-6.436-4.365-4.276-3.435-8.851-7.476-13.835-9.846-8.547-4.064-17.036 2.41-23.811 6.628.867 2.734 4.287-.176 6.435.311 2.892.656 5.089 3.346 6.943 5.48 8.957 10.317 16.455 22.014 19.805 35.395.881 3.522 2.386 7.737-.246 10.894-.706.845-1.759.956-2.537 1.655-.583.522-.552 1.262.246 1.506 1.474.451 3.623-.234 5.07-.583 4.723-1.138 10.114-3.686 12.259-8.324 1.334-2.885 1.803-8.499 5.116-9.653.733 3.093 4.21 7.184 3.872 10.297-.3 2.765-3.212 5.968-4.915 8.015-.603.725-2.059 2.314-1.188 3.355.867 1.036 2.656-1.195 3.196-1.705 2.442-2.306 7.78-5.948 9.229-.656 1.26 4.602-2.789 12.041-4.81 16.088-.564 1.126-3.155 4.646-2.143 5.901 1.166 1.447 3.607-2.324 4.127-3.005 2.028-2.656 9.13-10.528 12.903-7.699 4.602 3.45 3.015 5.917 1.271 10.595-.491 1.318-2.306 4.622-1.072 5.875 1.194 1.212 2.761.102 3.372-1.055 1.104-2.093 4.075-8.315 7.047-6.727 1.86.994 4.706 2.68 5.788 4.536 1.692 2.903.22 8.696-.23 11.85-.26 1.817-2.213 7.484-.592 8.797 1.498 1.212 2.709-2.433 3.158-3.327 1.585-3.147 3.409-6.37 5.768-9.009.847-.947 2.044-2.534 3.484-2.265 7.473 1.4-.162 8.844 2.905 12.644.62.77 2.303.714 3.208.883l3.861-9.975c1.964.757 4.853 1.019 6.3 2.643 1.218 1.365 1.457 3.67 1.809 5.401.984 4.846 1.523 9.557.9 14.48.612.44 1.577 1.46 2.398.937 1.039-.663 1.171-3.367 1.526-4.477 1.136-3.55 2.867-6.944 4.476-10.296 1.06-2.209 3.95-4.56 6.035-1.52 2.14 3.12 1.283 8.575 2.62 12.138 3.417-1.685 3.79-8.799 3.86-12.227l4.433.646 2.662 5.467 4.81 13.836c2.49-.952 1.702-5.74 1.981-8.044.379-3.124 1.104-9.399 3.394-11.724.923-.937 2.76-1.016 3.957-1.468 1.366 3.33 2.115 7.105 3.767 10.291.645 1.242 2.113 2.581 3.598 1.82 1.422-.73 1.368-2.388 1.186-3.745-.448-3.334-1.207-6.613-1.472-9.975 6.379-.45 10.12 4.707 14.129 9.01 1.548 1.662 2.897 3.864 5.177 4.504l-3.308-9.653-1.84-9.01c2.314-.968 7.213-5.703 9.652-5.013 3.634 1.027 6.41 11.152 10.921 8.772 1.924-1.015.93-2.735.026-4.08-1.346-2.003-5.392-6.814-4.954-9.33.325-1.864 3.448-4.036 5.269-4.01 4.172.057 11.424 3.232 13.836 6.583l2.896-.322c-.434-5.76-9.068-8.388-10.302-14.157a4.314 4.314 0 0 1 .038-1.84c.918-3.697 3.142-2.082 5.437-1.089.716.31 2.28 1.104 2.873.219.653-.977-.504-2.265-.929-3.082-.866-1.668-1.66-3.595-1.3-5.47 3.006.786 4.861 2.574 7.4 4.263.6.4 1.926 1.4 2.683.842.797-.586-.38-1.77-.758-2.21-1.134-1.314-4.606-4.489-4.264-6.406.232-1.293 2.415-2.68 3.305-3.568 2.942-2.937 6.292-5.93 8.687-9.331h.322c5.684 6.63 23.5 1.98 21.237-8.044-1.417.202-2.734 1.316-4.183.817-6.338-2.185-4.806-12.337-11.906-12.4-.523-6.619-3.182-13.233-6.39-18.985-1.472-2.637-4.53-5.05-5.598-7.735-.592-1.489-.491-3.849-.56-5.457 3.722-.58 1.887-4.348.532-6.435-1.51-2.327-3.108-5.086-5.067-7.05-2.408-2.41-5.993-3.983-5.684-8.073.287-3.81 6.852-3.326 7.966-6.757-1.946.083-3.87.566-5.792.885-4.78.797-5.613-.811-3.38-5.068 1.95-3.72 5.054-6.542 7.793-9.653.877-.996 3.58-3.265 2.187-4.707-1.15-1.192-3.05.628-4.025 1.274-3.552 2.355-7.518 4.095-11.584 5.355-1.21.375-4.782 1.772-5.186-.374-.546-2.897 4.939-3.438 4.22-6.697-2.193.522-6.505 3.985-8.613 2.38-2.537-1.933 1.188-6.864 1.587-9.136.403-2.302-1.448-2.386-2.75-.947-.456.504-.87 1.056-1.29 1.59-.728.924-1.331 1.82-1.804 2.896-5.27-3.077 4.7-6.652 2.824-9.5-.668-1.014-1.902.001-2.502.527-1.251 1.095-5.954 6.514-6.977 2.536-1.131-4.4 1.153-9.684 2.337-13.834.309-1.084 1.704-4.009.35-4.788-1.976-1.136-2.842 2.698-3.305 3.822-1.426 3.462-3.782 6.472-6.563 8.954-.916.817-2.47 2.404-3.842 2.026-1.992-.548-1.999-6.073-1.937-7.762.03-.804.482-2.192-.303-2.775-1.025-.76-1.56.765-1.713 1.49-.498 2.368-1.968 9.136-5.48 4.699-3.177-4.016 1.737-12.345-4.743-14.032l-3.54 11.262c-4.241-.926-3.3-6.99-2.252-10.297l-1.93-.643c-.305 1.312-.737 2.591-1.189 3.86-1.714 4.814-4.006 5.75-5.775.323-1.35-4.144-.872-8.613-1.544-12.871-.268-1.698-.427-3.42-2.111-4.183z"/><path d="m389.042 30.214c-.246 11.919-3.845 20.849-17.103 20.857l4.588 18.773c-4.978-5.218-6.794-12.52-9.038-19.19-1.425-4.233-3.24-8.487-3.894-12.932h-.417c.156 7.531 1.744 15.004.23 22.527-.832 4.136-3.163 7.35-4.401 11.263h-.417l2.502-18.355c-9.312.736-17.352 2.147-23.455-6.674-1.325-1.917-2.349-4.112-3.243-6.258h-.417c1.046 6.98 7.262 15.125-.037 20.98-1.115.894-2.402 1.443-3.717 1.964l6.594 9.995 3.835 5.023c-10.554-6.99-16.832-19.163-22.11-30.453h-.417c1.346 8.985 6.807 17.107 8.165 26.281.472 3.188 1.707 7.697-1.073 10.012l-3.337-15.852c-4.86 2.52-8.599 10.1-15.018 9.03-2.73-.456-4.94-2.666-7.509-3.607 1.21 3.821 4.557 7.435 2.648 11.68-.706 1.57-2.085 2.775-3.065 4.172l13.35 5.006c-2.437 2.914-7.508.626-10.43-.744-5.538-2.596-10.467-6.026-15.434-9.564-2.823-2.01-6.145-4.877-9.595-5.544 2.125 4.556 7.578 8.417 11.263 11.751 3.047 2.757 5.323 5.944 7.893 9.107 2.53 3.115 5.838 6.63 4.622 10.846-4.437-4.474-8.312-7.726-15.018-6.16-2.434.569-4.487 1.999-7.091 1.934-4.638-.114-9.118-2.476-13.35-4.117 2.457 5.267 8.932 8.104 10.313 14.183 1.015 4.466-2.206 10.166-2.804 14.6l14.184 2.086v.834c-12.163 3.218-20.733-3.462-32.121-5.423v.418c7.68 3.633 16.386 9.771 21.863 16.269 1.992 2.363 4.434 5.107 4.417 8.343-2.24-1.816-6.475-6.56-9.594-6.081-2.488.381-3.31 3.143-3.64 5.246-.888 5.679-.949 11.777-.949 17.521-2.39-2.087-2.086-4.994-2.086-7.926-2.968 1.955-6.174 4.407-10.011 3.638-3.882-.778-7.748-5.559-10.43-8.226-5.297-5.27-11.17-10.468-18.771-11.504-3.965-.54-15.97.018-10.604 6.072.553.624 1.107 1.273 1.86 1.665 2.825 1.473 8.853-.405 12.08-.405v.417l-10.428 2.086c4.19 8.781 13.263.909 18.355 6.257-3.479-1.028-9.453-1.028-12.932 0l5.828 7.509 2.678 3.503 9.849 1.086v.417h-8.76c.517 4.594 5.83 3.343 9.177 2.92v.417l-7.092 1.251c1.114 2.586 3.836 10.252 6.42 11.428 2.023.919 4.834-.858 6.512-1.833-2.303 4.199-6.419 2.506-4.171 8.343l6.674-3.337c-1.487 1.677-3.988 3.004-4.992 5.012-1.16 2.317.798 6.516 1.655 8.754l6.674-5.006-6.352 7.13.512 7.47c5.592-2.328 10.123-6.46 12.509-12.097.99-2.338 1.093-5.265 2.272-7.453.863-1.6 3.355-1.342 3.857-3.07.96-3.31-1.083-5.997.551-9.5h.418l1.251 6.674c4.214-1.183 6.725-7.81 7.926-11.68h.834c1.164 5.352-3.68 8.82-5.423 13.349 2.945.681 8.241 2.11 7.926 5.84l-10.429-3.754 7.926 17.52h.418c3.816-5.767 7.503-14.94 12.931-19.19 1.896 6.154-4.672 11.156-7.091 16.27 3.577-.978 10.063-5.781 13.349-3.754-4.597 1.914-8.682 4.672-12.059 8.343-1.11 1.207-3.143 3.234-3.119 5.006.025 1.812 2.253 4.004 3.257 5.423 3.646 5.15 8.053 10.57 13.59 13.766 2.265-4.307 4.18-8.614 5.37-13.35.545-2.173.458-5.1 2.555-6.257 2.042 11.51-6.19 24.196-8.76 35.042 7.842-6.651 12.578-17.405 22.526-21.693-.228 5.363-8.85 8.202-9.312 14.178-.162 2.096 2.444 3.187 3.89 4.188 4.045 2.802 7.468 5.918 12.097 7.79 1.665.673 3.238 2.088 4.785.473 2.812-2.936 3.053-8.643 2.605-12.445-.285-2.408-1.285-6.09.536-7.926l2.904 17.103-1.653 20.024h.418c3.9-9.911 7.355-20.683 15.017-28.367.046 5.227-5.868 12.58-7.926 17.52 7.823 3.66 16.99 5.87 25.447 7.51.662-5.24.469-10.305-.9-15.435-.612-2.298-2.623-5.37-1.186-7.51 5.174 11.135 10.838 22.428 10.846 35.042h.417c.005-7.65 1.339-15.453 2.837-22.944.274-1.368.668-7.005 2.6-7.005 2.11 0 1.284 3.377 1.075 4.502-.949 5.121-2.101 10.27-2.757 15.435l17.937-.448 6.246-1.113-.167-6.365-8.582-15.017c3.264-.745 6.488 5.064 8.004 7.508 5.524 8.91 9.246 20.265 11.603 30.453h.417c-1.09-13.789-4.684-26.512-2.92-40.464 4.06 1.63 1.872 11.903 2.385 15.852.165 1.27-.025 4.59 1.501 5.094 1.428.471 3.93-.758 5.291-1.202 4.91-1.6 9.498-3.909 14.184-6.052 1.79-.82 4.327-1.82 4.455-4.1.452-8.035-6.776-10.319-11.547-14.598 4.21-.438 7.283 2.324 10.429 4.766 4.698 3.647 9.326 7.787 13.166 12.337 2.212 2.622 3.85 6.14 6.44 8.343-1.427-4.48-4.868-8.688-6.988-12.931-4.11-8.225-7.284-17.134-8.447-26.281h.418l7.926 20.858c4.308-1.465 7.805-6.583 10.59-10.012 1.254-1.542 2.806-2.962 2.759-5.006 7.003-2.519-1.977-8.076-3.338-10.429 4.85-.729 9.214 3.964 13.766 5.006-2.029-4.348-5.559-10.029-4.588-15.018h.834l2.92 8.343c7.308-6.756 15.96-13.689 21.4-22.109 7.683-11.891 7.634-26.93 2.26-39.63-1.472-3.477-2.874-8.408-5.468-11.201-3.692-3.975-6.887 2.715-7.346 5.778 1.814.272 3.473.882 5.004 1.919 5.657 3.829 5.949 10.54 3.567 16.436-1.009 2.5-2.879 4.734-3.059 7.509-.223 3.437 1.626 6.703 2.22 10.012.987 5.492-1.701 11.34-5.646 14.978-3.66 3.376-8.79 5.238-13.766 4.502-2.302-.34-4.75-2.513-7.09-1.648-3.67 1.356-4.383 6.908-6.676 9.7-1.035-6.272 3.726-9.883 4.72-15.435.517-2.887-1.597-7.667-2.497-10.429-.712-2.185-1.812-8.332-5.139-7.08-2.148.81-3.227 3.249-4.487 4.994-2.971 4.12-5.674 9.164-10.952 10.43 1.94-5.007 7.198-9.196 10.14-13.767 5.837-9.067 12.027-24.396 4.298-34.206-2.33-2.956-6.068-5.045-9.432-6.625-4.63-2.174-9.723-2.85-14.6-4.222v-.834l5.84-.834-1.252-9.178-3.755 1.252c.043-15.273 15.328-23.605 25.864-31.704l-1.926 5.423 5.2 7.926 10.492 16.269-4.171-.417c.804 5.975 2.232 11.573.125 17.52-1.354 3.823-4.684 7.01-5.693 10.846-.509 1.935.418 3.896.42 5.84.003 2.713-.929 5.319-1.527 7.927 7.472-3.556 8.9-14.457 16.687-17.104-.636-3.692-2.204-7.025-2.466-10.846-.565-8.243 1.064-16.392-.22-24.612-1.406-8.996-5.322-17.056-8.578-25.447l3.755 1.669c.864-5.77 5.619-8.889 8.76-13.349-4.823 1.755-12.23 7.734-17.52 4.585-3.649-2.172-4.973-6.953-8.76-8.757l-5.007 20.024h-.417c-2.2-9.245 2.526-17.99 4.589-26.698-6.357 5.142-10.797 11.63-19.606 12.932l12.097-8.798 2.776-4.061-3.61-3.12-9.178-6.548 4.172.835 1.668-13.35h-.417a24.744 24.744 0 0 1 -3.374 4.59c-1.725 1.86-3.987 4.838-6.46 5.688-4.853 1.668-11.555-3.983-16.03-5.272v19.19c-4.261-.712-3.707-5.015-3.752-8.76-.099-8.247-.356-16.36-.002-24.613h-.417c-1.249 9.274-4.29 22.49-13.35 27.115 2.594-4.163 5.06-7.72 6.434-12.514.405-1.413 1.591-3.827.102-4.948-4.204-3.165-10.651-.46-14.105-5.488-3.395-4.94-1.167-11.236-3.276-16.262z" fill="url(#m)" transform="matrix(.77133 0 0 .77133 -153.676 -13.652)"/><path d="m126.775 16.41.322.322zm-.322.965.322.322z" fill="#0f0d06"/><path d="m165.065 18.662.322.322z" fill="#0e0b05"/><path d="m144.794 19.306.322.322z" fill="#0f0d06"/><path d="m164.743 19.95.322.321z" fill="#0d0b05"/><path d="m144.472 20.271.322.322z" fill="#0f0d06"/><path d="m91.381 22.845.322.322z" fill="#fff"/><path d="m142.863 22.845.322.322zm-.321.322.321.322zm7.4.322.322.322zm-44.082.322.322.321zm44.726 0 .321.321zm-58.24.321.322.322zm15.767 0 .321.322zm43.116 0 .322.322z" fill="#0f0d06"/><path d="m109.078 25.098.322.321zm28.959 0 .322.321z" fill="#0f0e07"/><path d="m188.876 25.098.321.321z" fill="#0d0b05"/><path d="m188.66 25.634.108.214z" fill="#fff"/><path d="m92.346 25.741.322.322zm65.962 0 .322.322z" fill="#0f0d06"/><path d="m106.504 27.028.322.322z" fill="#0f0e07"/><path d="m188.232 27.028.322.322z" fill="#0e0b05"/><path d="m93.955 29.924.322.322zm1.609 0 .322.322zm.322.644.321.321z" fill="#0f0e07"/><path d="m143.507 31.855-5.148 23.167c3.965-2.417 4.803-11.228 5.148-15.445h.322c.689 3.71 1.023 7.426 2.533 10.94.598 1.392 1.254 3.245 2.937 3.218l-4.12-14.48z"/><path d="m131.923 32.176.322.322zm-27.35.644.322.322zm-1.608 1.287.321.322zm-1.61.644.322.321zm41.187.965.321.322z" fill="#0f0e07"/><path d="m111.974 36.038c.068 8.227 4.137 15.716 2.574 24.132 1.544-.944 1.588-3.149 1.608-4.827.046-3.893-.632-7.708-.643-11.583h.322c1.12 3.889 4.16 11.622 8.688 12.227-.544-2.09-2.254-3.672-3.4-5.47-2.544-3.994-5.035-12.054-9.15-14.48z"/><path d="m99.103 36.36.322.321z" fill="#0f0e07"/><path d="m112.617 36.36.322.321z" fill="#0f0e08"/><path d="m156.7 36.681.32.322z" fill="#0f0d06"/><path d="m142.22 37.325.322.321zm15.766 0 .322.321z" fill="#0f0e07"/><path d="m185.336 37.325.322.321z" fill="#0f0d06"/><path d="m157.664 37.646.322.322zm-1.93.322.322.322zm1.609 0 .321.322z" fill="#0f0e07"/><path d="m113.905 38.29.321.322zm21.236.322.322.321z" fill="#0f0e08"/><path d="m187.267 38.612.322.321z" fill="#0d0b05"/><path d="m155.734 39.255.322.322z" fill="#0f0e07"/><path d="m177.936 39.577c-3.578 5.618-7.842 13.283-13.193 17.375v.322c4.057-.724 8.441-5.85 9.653-9.653h.322c-.047 5.724-2.678 11.792-.322 17.375h.322c1.712-5.792.82-12.625 2.294-18.662.462-1.894 2.166-5.05.924-6.757z"/><path d="m94.92 40.22.322.322z" fill="#0f0e07"/><path d="m115.192 40.542.321.322zm-17.697.644.321.322zm-2.253.322.322.321zm7.4 0 .323.321zm42.795 0 .322.321zm-2.574.643.322.322z" fill="#0f0e08"/><path d="m177.936 42.151.321.322z" fill="#0f0d06"/><path d="m197.563 42.473.322.322zm-120.661.322.321.321z" fill="#fff"/><path d="m116.479 42.795.321.321z" fill="#0f0e08"/><path d="m197.563 42.795.322.321z" fill="#0e0b05"/><path d="m175.361 43.438.322.322z" fill="#0f0e07"/><path d="m105.217 44.082.322.321z" fill="#0f0e08"/><path d="m165.709 44.082.321.321z" fill="#0f0e07"/><path d="m108.113 44.725.321.322z" fill="#0e0d08"/><path d="m108.434 45.047.322.322z" fill="#0f0e08"/><path d="m174.074 45.047.322.322z" fill="#0f0e07"/><path d="m108.756 45.369.322.322z" fill="#010101"/><path d="m82.372 45.69.321.322z" fill="#0f0e07"/><path d="m194.989 45.69.322.322zm-.322.322.322.322zm-134.497.644.322.322z" fill="#0f0d06"/><path d="m78.832 46.656.322.322z" fill="#0f0e07"/><path d="m117.122 46.978.322.321z" fill="#0e0d08"/><path d="m174.718 47.3.322.321z" fill="#0f0e07"/><path d="m190.163 47.3.321.321z" fill="#0f0d06"/><path d="m193.38 47.3.322.321z" fill="#0e0b05"/><path d="m174.396 47.621.322.322z" fill="#0f0e07"/><path d="m114.226 48.908.322.322z" fill="#0e0d08"/><path d="m195.31 49.23.323.322z" fill="#0f0d06"/><path d="m115.835 49.873.322.322z" fill="#0e0d08"/><path d="m185.98 50.195.321.322z" fill="#0e0b05"/><path d="m120.983 50.517.322.322z" fill="#0e0d08"/><path d="m201.103 51.16.321.322z" fill="#0f0d06"/><path d="m218.478 51.16.322.322z" fill="#fff"/><path d="m121.627 51.482.322.322z" fill="#0e0d08"/><path d="m171.822 51.482.322.322z" fill="#0f0e07"/><path d="m218.478 51.482.322.322z" fill="#0e0b05"/><path d="m217.19 51.804.323.322zm.966 0 .322.322z" fill="#0d0b05"/><path d="m171.179 52.126.321.322z" fill="#0f0e07"/><path d="m217.834 52.126.322.322z" fill="#0e0b05"/><path d="m120.018 52.448.322.321z" fill="#0e0d08"/><path d="m156.7 52.448c-1.9 4.285-2.828 8.267-6.758 11.261v.644c2.825.743 4.792-2.801 5.47-5.148h.322c.28 2.162.542 6.657 2.896 7.4l-1.58-7.4z"/><path d="m202.068 52.448.322.321z" fill="#0f0d06"/><path d="m217.513 52.448.321.321z" fill="#0d0b05"/><path d="m87.842 52.77c.695 7.914 11.34 13.263 9.974 21.88 1.712-1 1.262-2.866.687-4.505-1.188-3.391-3.176-6.358-4.548-9.653 3.08 2.81 7.628 5.987 11.905 4.183l-6.752-2.798z"/><path d="m217.19 52.77.323.321z" fill="#0e0b05"/><path d="m216.869 53.091.322.322z" fill="#0d0b05"/><path d="m196.598 53.413.322.322z" fill="#0f0d06"/><path d="m213.973 53.413.322.322z" fill="#0d0b05"/><path d="m216.547 53.413.322.322z" fill="#0e0b05"/><path d="m120.983 53.735.322.321z" fill="#0e0d08"/><path d="m169.891 53.735.322.321z" fill="#0f0e07"/><path d="m216.225 53.735.322.321z" fill="#0d0b05"/><path d="m87.842 54.056.321.322zm81.728 0 .321.322z" fill="#0f0e08"/><path d="m215.904 54.056.321.322z" fill="#0e0b05"/><path d="m90.094 54.378.322.322z" fill="#0f0e07"/><path d="m215.582 54.378.322.322z" fill="#0d0b05"/><path d="m72.075 54.7.322.322z" fill="#0f0e07"/><path d="m168.926 54.7.322.322zm-.322.322.322.321z" fill="#0f0e08"/><path d="m67.892 55.343.322.322z" fill="#0f0e07"/><path d="m122.592 55.343.322.322z" fill="#0e0d08"/><path d="m132.245 55.343c-.973 3.203-3.705 9.456-2.574 12.55h.643l2.253-7.723h.322c.795 2.913 1.627 7.33 5.148 7.722l-5.148-12.549z"/><path d="m68.214 55.665.322.322z" fill="#0f0e08"/><path d="m214.295 55.665.322.322z" fill="#0d0b05"/><path d="m68.536 55.987.322.322z" fill="#0f0e07"/><path d="m78.832 55.987.322.322zm86.877 0 .321.322z" fill="#0f0e08"/><path d="m68.858 56.309.321.322z" fill="#0f0e07"/><path d="m74.65 56.309.321.322z" fill="#0f0e08"/><path d="m155.09 56.309.322.322zm1.93 0 .323.322z" fill="#0e0d08"/><path d="m165.387 56.309.322.322z" fill="#0f0e08"/><path d="m69.18 56.63.321.322z" fill="#0f0e07"/><path d="m165.065 56.63.322.322zm-71.753.644.321.322z" fill="#0e0d08"/><path d="m173.43 57.274.323.322z" fill="#0f0e08"/><path d="m90.094 58.24.322.321zm64.031.321.322.322z" fill="#0e0d08"/><path d="m79.797 58.883.322.322zm-8.044.322.322.321z" fill="#0f0e08"/><path d="m95.564 59.205.322.321zm18.984 0 .322.321z" fill="#0e0d08"/><path d="m195.31 59.205.323.321z" fill="#0f0d06"/><path d="m115.192 59.848.321.322zm17.375.322.322.322zm23.167 0 .322.322zm-63.388 1.287.322.322z" fill="#0e0d08"/><path d="m211.077 61.457.322.322z" fill="#0d0b05"/><path d="m96.53 62.422.321.322z" fill="#0e0d08"/><path d="m209.468 62.422.322.322z" fill="#0d0b05"/><path d="m93.312 62.744.321.322zm59.526.322.322.322z" fill="#0e0d08"/><path d="m110.687 63.388 1.609 13.514h.643l-.322-9.653c2.099 1.46 4.938 5.062 7.723 3.86-1.075-1.163-2.632-1.368-3.86-2.362-1.997-1.616-3.05-5.143-5.793-5.36z"/><path d="m95.564 64.031.322.322zm54.378.322.322.322zm-55.343.322.321.321zm34.75 0 .322.321z" fill="#0e0d08"/><path d="m174.074 64.675.322.321zm.644 0 .322.321z" fill="#0f0e08"/><path d="m181.475 65.318c-3.394 3.404-6.229 5.741-10.94 7.079v.643c2.787.801 5.482-.745 7.722-2.252-.366 1.89-2.775 6.835-.965 8.044l3.09-9.33z"/><path d="m113.583 65.64.322.322zm-36.681.322.321.321zm51.804 0 .321.321zm29.924 0 .321.321z" fill="#0e0d08"/><path d="m180.51 65.962.321.321z" fill="#0f0d06"/><path d="m55.022 66.605.321.322z" fill="#0f0e07"/><path d="m137.071 66.605.322.322z" fill="#0e0d08"/><path d="m72.397 66.927.322.322z" fill="#0f0e08"/><path d="m211.399 66.927.322.322z" fill="#0d0b05"/><path d="m95.886 67.249.321.321zm1.287 0 .322.321zm33.141 0 .322.321zm-55.987.321.322.322z" fill="#0e0d08"/><path d="m178.58 68.214.32.322zm1.93.322.321.322z" fill="#0f0e08"/><path d="m200.78 68.536.323.322z" fill="#0f0d06"/><path d="m54.056 68.858.322.321z" fill="#010101"/><path d="m115.192 69.18.321.321zm-17.054.321.322.322zm19.306 0 .322.322z" fill="#0e0d08"/><path d="m55.022 69.823.321.322z" fill="#0f0e07"/><path d="m176.327 69.823.322.322z" fill="#0f0e08"/><path d="m116.479 70.145.321.321zm3.539.321.322.322z" fill="#0e0d08"/><path d="m177.614 70.788.322.322z" fill="#0f0e08"/><path d="m118.087 71.11.322.322zm.644.322.322.321zm54.378 0 .322.321z" fill="#0e0d08"/><path d="m193.702 71.432.322.321zm-137.072.321.322.322z" fill="#0f0e07"/><path d="m439.1 129.497c9.545-2.299 19.982-3.657 29.619-1.669-1.436-4.983-5.156-9.076-8.456-12.932-1.129-1.318-2.567-3.757-4.478-3.901-2.263-.172-4.238 2.01-5.838 3.271-4.686 3.692-8.725 9.625-10.846 15.23z" fill="url(#l)" transform="matrix(.77133 0 0 .77133 -153.676 -13.652)"/><path d="m175.04 72.397.321.322z" fill="#0e0d08"/><path d="m192.415 72.397.322.322z" fill="#0f0e07"/><path d="m126.453 72.719-1.93 9.974c1.615-1.224 1.99-5.13 2.252-7.078l2.896 3.217c-.338-2.169-1.605-4.624-3.218-6.113z"/><path d="m170.535 73.04.322.322z" fill="#0e0d08"/><path d="m177.614 73.04.322.322zm22.202.322.321.322z" fill="#0f0e08"/><path d="m157.986 73.684-6.113 6.114 5.791-4.183.966 5.791c1.125-1.649.535-6.168-.644-7.722m-68.214.965v.322c2.712 2.737 4.944 6.506 6.637 9.975.932 1.91.668 4.014 2.694 5.148-.161-3.762-1.77-6.615-3.217-9.975 2.279 1.33 5.334 3.318 8.044 2.574v-.643c-3.652-1.623-6.479-3.004-9.653-5.532-1.353-1.077-2.737-2.47-4.505-1.869z"/><path d="m193.38 74.328.322.321zm-65.318.643.322.322zm-37.968.322.322.322zm38.29.322.322.321z" fill="#0e0d08"/><path d="m201.746 75.615.322.321z" fill="#0f0e08"/><path d="m127.419 75.936.321.322z" fill="#0e0d08"/><path d="m188.876 75.936.321.322z" fill="#0f0e08"/><path d="m204.964 75.936.322.322z" fill="#0f0d06"/><path d="m58.883 76.258.322.322z" fill="#0f0e08"/><path d="m155.09 76.258.322.322zm2.574 0 .322.322zm18.985 0 .321.322zm-82.372.322.322.322zm32.176 0 .322.322z" fill="#0e0d08"/><path d="m214.617 76.58.321.322z" fill="#0f0d06"/><path d="m190.484 76.902.322.321z" fill="#0f0e08"/><path d="m155.412 77.223.322.322z" fill="#0e0d08"/><path d="m68.214 77.545c.302 2.714 2.523 3.727 4.505 5.225 2.72 2.057 5.246 4.284 7.324 7.002 1.354 1.77 2.188 4.831 3.937 6.114-.376-4.731-3.167-10.299-7.722-12.227v-.322c4.632.898 9.243 2.62 13.836.643v-.643l-5.47-.215z"/><path d="m92.025 77.545.321.322zm61.135.322.321.322zm24.132 0 .322.322zm-81.085.322.322.321zm56.631 0 .322.321z" fill="#0e0d08"/><path d="m206.573 78.189.321.321z" fill="#0f0d06"/><path d="m186.623 78.51.322.322z" fill="#0f0e08"/><path d="m481.65 119.485.835 10.012 9.177 1.251c-1.536-4.052-5.919-9.676-10.011-11.263z" fill="url(#k)" transform="matrix(.77133 0 0 .77133 -153.676 -13.652)"/><path d="m129.67 78.832.323.322z" fill="#0e0d08"/><path d="m139.967 78.832-2.896 5.47 3.218-3.54 1.93 3.218z"/><path d="m176.97 78.832.322.322z" fill="#0e0d08"/><path d="m217.834 78.832.322.322z" fill="#0d0b05"/><path d="m92.99 79.154.322.322zm4.505 0 .321.322z" fill="#0e0d08"/><path d="m204.642 79.154.322.322z" fill="#0f0d06"/><path d="m58.24 79.476.321.322z" fill="#0f0e08"/><path d="m139.002 79.798.322.321zm-39.899.321.322.322zm-1.93.644.322.322zm61.778 0 .322.322zm61.78 0 .321.322zm-80.442.322.322.321zm80.763 0 .322.321zm-142.542.321.322.322zm142.864 0 .321.322zm-149.942.322.321.322zm70.144 0 .322.322z" fill="#0e0d08"/><path d="m57.596 82.372.322.321z" fill="#0f0e08"/><path d="m72.397 82.372.322.321z" fill="#0e0d08"/><path d="m186.945 82.372.322.321z" fill="#0d0b05"/><path d="m124.844 82.693.322.322zm13.515.322.321.322z" fill="#0e0d08"/><path d="m57.274 83.659.322.321z" fill="#0f0e08"/><path d="m78.51 83.659.322.321zm18.985 0 .321.321zm-1.61.321.322.322z" fill="#0e0d08"/><path d="m185.98 83.98.321.322z" fill="#0d0b05"/><path d="m199.816 83.98.321.322z" fill="#0f0e08"/><path d="m205.607 84.302.322.322z" fill="#0d0b05"/><path d="m75.615 84.946.321.322zm20.914.322.322.321z" fill="#0e0d08"/><path d="m224.913 85.911.322.322z" fill="#0d0b05"/><path d="m170.857 86.555-5.47 4.182 4.826-2.574-.643 3.862c1.368-.955 1.878-3.954 1.287-5.47z"/><path d="m203.033 105.86c2.44-1.162 3.61-3.943 4.268-6.435.812-3.067 1.865-11.153-2.03-12.676-2.142-.838-5.72.127-8.03.127-2.09 0-6.55-.319-8.171 1.24-1.496 1.439-.378 6.864.724 8.325 1.144 1.518 3.867 1.819 5.517 2.592 3.289 1.542 5.935 3.621 7.722 6.827z" fill="#fff"/><path d="m212.043 86.876.321.322z" fill="#0f0d06"/><path d="m223.626 86.876.322.322zm1.93 0-.321.644z" fill="#0d0b05"/><path d="m206.25 87.198.323.322z" fill="#020202"/><path d="m225.557 87.198.321.322z" fill="#fff"/><path d="m58.883 87.52.322.322z" fill="#0f0e08"/><path d="m168.926 87.52.322.322z" fill="#0e0d08"/><path d="m50.195 87.842.322.321z" fill="#0f0e07"/><path d="m188.554 87.842.322.321zm18.019 0 .321.321zm-107.791.321.321.322zm71.11 0 .321.322z" fill="#0e0d08"/><path d="m52.126 88.485.322.322z" fill="#0f0e08"/><path d="m167.317 88.485.322.322z" fill="#0e0d08"/><path d="m206.894 88.485.322.322z" fill="#020202"/><path d="m217.834 88.485v2.896c5.835-2.11 7.157 6.426.966 6.114l1.287 7.4c4.311-2.012 6.297-11.714 2.756-15.342-1.068-1.095-3.562-.954-5.009-1.068z" fill="#fff"/><path d="m48.265 88.807.321.322z" fill="#0f0e07"/><path d="m81.728 89.129.322.321zm86.555 0 .321.321zm16.088 0 .322.321z" fill="#0e0d08"/><path d="m207.216 89.129.322.321zm15.445 0 .322.321z" fill="#020202"/><path d="m49.23 89.45.322.322z" fill="#0f0e07"/><path d="m183.727 89.45.322.322zm-85.267.322.322.322z" fill="#0e0d08"/><path d="m201.424 89.772c-.659.678-1.62 1.17-2.105 2-3.4 5.814 9.452 5.964 5.82-.323-.413-.716-1.147-1.182-1.784-1.677l-1.93.965z"/><path d="m201.746 89.772v.322h1.287z" fill="#020202"/><path d="m207.538 89.772.322.322z" fill="#010101"/><path d="m50.195 90.094.322.322z" fill="#0f0e07"/><path d="m200.566 90.309.108.214z" fill="#020202"/><path d="m200.995 90.201.215.108zm.43.215v.321l1.608-.321z" fill="#010101"/><path d="m203.677 90.094.321.322z" fill="#020202"/><path d="m200.137 90.416.322.321z" fill="#010101"/><path d="m204.32 90.416.322.321z" fill="#050505"/><path d="m51.16 90.737.322.322z" fill="#0f0e07"/><path d="m199.816 90.737.321.322z" fill="#010101"/><path d="m218.8 90.737.965.644v-.322z" fill="#020202"/><path d="m219.121 90.737.322.322z" fill="#050505"/><path d="m219.443 90.737.322.322z" fill="#010101"/><path d="m220.087 90.737.321.322z" fill="#020202"/><path d="m220.408 90.737.322.322z" fill="#010101"/><path d="m82.693 91.06.322.321z" fill="#0e0d08"/><path d="m133.854 91.06c0 1.638-.316 3.298 1.287 4.182v-3.217l3.861 1.287z"/><path d="m134.497 91.06.322.321z" fill="#0e0d08"/><path d="m218.156 91.06.322.321z" fill="#020202"/><path d="m218.478 91.06.643.643v-.644zm1.609 0 .321.321z" fill="#010101"/><path d="m135.463 91.381.321.322z" fill="#0e0d08"/><path d="m199.172 91.381.322.322z" fill="#010101"/><path d="m217.19 91.381.323.322z" fill="#0f0e08"/><path d="m217.513 91.381.321.322z" fill="#050505"/><path d="m153.481 95.564 1.61-2.896 1.93 1.287c-1.414-3.784-3.517-1.074-3.54 1.609z"/><path d="m205.286 91.703.321.322zm11.905 0 .322.322z" fill="#010101"/><path d="m114.548 92.025c.569 2.077 1.46 3.85 3.218 5.148l-1.93-4.183 3.86.322c-.997-1.808-3.332-1.287-5.148-1.287z"/><path d="m119.053 92.025.321.321zm16.088 0 .322.321z" fill="#0e0d08"/><path d="m216.869 92.025.322.321z" fill="#fff"/><path d="m53.413 92.346.322.322z" fill="#0f0e08"/><path d="m156.056 92.346.321.322z" fill="#0e0d08"/><path d="m216.547 92.346.322.322z" fill="#fff"/><path d="m136.428 92.668.322.322z" fill="#0e0d08"/><path d="m98.138 93.955 4.505 5.47-2.574-4.505 3.86-.643-.321-1.287z"/><path d="m115.835 92.99.322.322z" fill="#0e0d08"/><path d="m205.607 92.99.322.322z" fill="#050505"/><path d="m216.225 92.99v.965h.322z" fill="#fff"/><path d="m114.87 93.312.322.321z" fill="#0e0d08"/><path d="m216.225 93.955.322.322z" fill="#050505"/><path d="m83.659 94.277.321.322zm14.479 0 .322.322z" fill="#0e0d08"/><path d="m216.225 94.277v.965h.322z" fill="#fff"/><path d="m205.07 94.813.108.215zm17.913-.214.321.321z" fill="#010101"/><path d="m83.015 94.92.322.322zm51.16 0 .322.322zm-77.223.322.322.322zm58.883 0 .322.322z" fill="#0e0d08"/><path d="m199.494 95.242.322.322z" fill="#050505"/><path d="m57.274 95.564.322.322z" fill="#0f0e08"/><path d="m216.547 95.564.322.322z" fill="#fff"/><path d="m203.998 95.886.322.321z" fill="#010101"/><path d="m216.547 95.886.322.321z" fill="#050505"/><path d="m200.78 96.207.323.322z" fill="#020202"/><path d="m201.103 96.207.321.322zm2.145.108.214.107z" fill="#010101"/><path d="m216.869 96.207.322.322z" fill="#fff"/><path d="m222.124 96.422.108.214z" fill="#010101"/><path d="m222.339 96.207.322.322z" fill="#050505"/><path d="m58.24 96.53.321.321z" fill="#010101"/><path d="m202.068 96.53.322.321z" fill="#050505"/><path d="m217.19 96.53.323.321z" fill="#fff"/><path d="m189.84 96.851.323.322z" fill="#010101"/><path d="m217.513 96.851.321.322z" fill="#fff"/><path d="m218.156 96.851.322.322z" fill="#010101"/><path d="m65.64 102.965v.643l9.331 3.218c-.19-2.446-3.352-3.175-5.47-3.54l6.435-5.791c-3.42-.402-7.524 3.765-10.296 5.47z"/><path d="m217.834 97.173.322.322z" fill="#050505"/><path d="m218.156 97.173.322.322z" fill="#fff"/><path d="m218.478 97.173.322.322z" fill="#020202"/><path d="m219.765 97.173v.322h.965z" fill="#010101"/><path d="m59.205 97.495.321.321z" fill="#0f0e08"/><path d="m207.538 97.495.322.321zm12.227 0 .322.321z" fill="#0e0d08"/><path d="m192.415 97.816.322.322z" fill="#010101"/><path d="m79.154 101.677v.644l7.079 2.544 4.183 2.926c-.458-3.417-4.084-3.991-6.436-5.792 2.99-.563 7.046-.61 8.366-3.86z"/><path d="m186.301 98.46.322.322z" fill="#0e0d08"/><path d="m194.024 98.46.322.322z" fill="#010101"/><path d="m71.753 98.782.322.321zm18.02.321.32.322zm1.93 0 .322.322zm132.245 0 .322.322zm-163.135.322.322.322z" fill="#0e0d08"/><path d="m223.948 99.425.322.322z" fill="#020202"/><path d="m70.145 99.747.321.322zm20.914 0 .322.322zm115.835.322.322.321zm12.227 0 .322.321zm-149.942.321.322.322z" fill="#0e0d08"/><path d="m210.112 100.39.322.322zm-183.727.644.321.322z" fill="#0f0d06"/><path d="m219.121 101.034.322.322z" fill="#010101"/><path d="m59.526 101.677.322.322z" fill="#0e0d08"/><path d="m124.523 103.93.965-2.253c-1.37.219-2.448 1.277-.965 2.253z"/><path d="m66.927 102 .322.321z" fill="#0e0d08"/><path d="m28.315 102.321.322.322z" fill="#0f0d06"/><path d="m195.954 102.321.322.322z" fill="#0f0e08"/><path d="m84.624 102.643.322.322z" fill="#0e0d08"/><path d="m219.443 102.643.322.322z" fill="#010101"/><path d="m60.492 102.965.321.321z" fill="#0e0d08"/><path d="m196.92 102.965.321.321z" fill="#0f0e07"/><path d="m205.607 102.965.322.321z" fill="#0e0d08"/><path d="m11.905 103.286.322.322z" fill="#0e0b05"/><path d="m29.602 103.286.322.322z" fill="#0f0d06"/><path d="m52.77 103.286.321.322z" fill="#0f0e08"/><path d="m222.017 103.286.322.322z" fill="#020202"/><path d="m86.876 103.608.322.322z" fill="#0e0d08"/><path d="m136.106 103.608-.322 2.252c1.007-.589 1.178-1.117.966-2.252z"/><path d="m136.75 103.608.321.322z" fill="#0e0d08"/><path d="m149.62 105.86.966-2.252c-1.249.361-2.284 1.258-.966 2.252z"/><path d="m205.286 103.608.321.322z" fill="#010101"/><path d="m221.695 103.608.322.322z" fill="#020202"/><path d="m85.267 104.252.322.321z" fill="#0e0d08"/><path d="m202.068 104.252.322.321z" fill="#010101"/><path d="m208.503 104.252.322.321z" fill="#0f0e07"/><path d="m221.052 104.252.322.321zm-.322.321.322.322z" fill="#010101"/><path d="m88.807 104.895.322.322z" fill="#0e0d08"/><path d="m31.855 105.217.321.322z" fill="#0f0d06"/><path d="m202.711 105.217.322.322z" fill="#0e0d08"/><path d="m18.662 105.539.322.321z" fill="#0e0b05"/><path d="m136.428 105.539.322.321zm12.549 0 .322.321z" fill="#0e0d08"/><path d="m159.273 107.791v1.287l3.218-2.252z"/><path d="m89.129 107.147.321.322zm71.431 0 .322.322zm1.61 0 .32.322z" fill="#0e0d08"/><path d="m174.718 107.147v3.862c1.208-1.184 1.208-2.678 0-3.862z"/><path d="m217.513 107.147.321.322z" fill="#0f0d06"/><path d="m230.705 107.147.322.322z" fill="#0d0b05"/><path d="m160.239 107.47.321.321zm1.608 0 .322.321zm12.55 0 .32.321z" fill="#0e0d08"/><path d="m206.573 107.47.321.321z" fill="#0f0e07"/><path d="m215.904 107.791.321.322z" fill="#0f0d06"/><path d="m159.917 108.756.322.322zm-46.012.322.321.322z" fill="#0e0d08"/><path d="m111.33 113.583 3.862.965-2.143-2.065 1.177-3.083c-1.551.804-2.502 2.507-2.896 4.183z"/><path d="m217.834 109.4.322.322z" fill="#0e0d05"/><path d="m464.547 177.887v.417c10.497 1.327 15.224-3.69 22.944-9.594-1.109 2.987-6.615 6.822-6.47 9.594.156 2.968 4.823 3.242 6.887 2.424 3.943-1.563 6.436-5.918 7.293-9.933 1.778-8.334-9.164-15.158-16.014-9.838-5.872 4.56-8.465 12.35-14.64 16.93z" fill="url(#j)" transform="matrix(.77133 0 0 .77133 -153.676 -13.652)"/><path d="m19.306 110.043.322.322z" fill="#010101"/><path d="m53.091 116.479c.417 2.4 2.797 1.111 4.505.994 2.454-.168 7.01.627 8.366 2.867l2.252-.322c-.576-3.642-5.826-3.635-8.688-3.861 2.107-2.13 5.125-2.764 5.792-6.114z"/><path d="m228.453 110.043.321.322z" fill="#0d0b05"/><path d="m37.325 110.365.321.322z" fill="#0f0e07"/><path d="m232.314 110.687.321.322z" fill="#0d0b05"/><path d="m28.637 111.009.322.321z" fill="#0f0d06"/><path d="m112.296 111.009.321.321zm-49.552.321.322.322zm49.873.322.322.322z" fill="#0e0d08"/><path d="m39.577 112.296.322.321z" fill="#0f0e07"/><path d="m61.457 112.296.322.321zm2.574 0 .322.321z" fill="#0e0d08"/><path d="m19.95 112.617.321.322z" fill="#0e0b05"/><path d="m127.419 112.617-3.54 4.505 4.505 1.609-3.218-1.93c.67-1.405 3.298-2.625 2.253-4.184z"/><path d="m227.487 112.617.322.322z" fill="#0e0d05"/><path d="m47.943 112.94.322.321z" fill="#0f0e07"/><path d="m60.492 112.94.321.321zm50.517 0 .321.321z" fill="#0e0d08"/><path d="m40.864 113.261.322.322zm6.435 0 .322.322z" fill="#0f0e07"/><path d="m62.744 113.583.322.322zm36.36 0 .321.322z" fill="#0e0d08"/><path d="m99.425 113.583-3.861 3.54c1.507.508 4.987 2.49 6.113.964l-4.182-1.608zm83.337 0 4.505 3.54v.643l-4.183 2.252c2.201-.18 4.079-.848 5.792-2.252-1.252-2.12-3.695-3.717-6.114-4.183z"/><path d="m41.83 113.905.321.321z" fill="#0f0e07"/><path d="m228.13 113.905.323.321z" fill="#010101"/><path d="m233.6 113.905.323.321zm-212.364.321.322.322z" fill="#0d0b05"/><path d="m125.488 114.226.322.322zm1.609 0 .322.322zm57.596 0 .321.322z" fill="#0e0d08"/><path d="m212.686 114.226.322.322zm15.445 0 .322.322z" fill="#0e0d05"/><path d="m97.816 114.548.322.322zm1.287 0 .322.322zm26.063 0 .322.322z" fill="#0e0d08"/><path d="m21.88 114.87.322.322z" fill="#0e0b05"/><path d="m79.476 114.87c-1.948 4.367-4.948 7.923-8.366 11.257-1.962 1.914-5.02 3.692-5.792 6.44l14.158-3.005 7.4-1.5c-4.412-3.143-12.15.355-16.41 2.253 2.926-5.875 8.672-8.205 9.975-15.123l-.322-.322z"/><path d="m98.782 114.87.321.322zm26.062 0 .322.322zm59.205 0 .322.322zm-123.88.322.323.321z" fill="#0e0d08"/><path d="m138.359 118.087 1.93.322v-3.217c-1.396.452-1.555 1.578-1.93 2.895z"/><path d="m55.665 115.513.322.322z" fill="#0f0e08"/><path d="m185.014 115.513.322.322zm-106.182.322.322.322z" fill="#0e0d08"/><path d="m22.845 116.157.322.322z" fill="#0e0b05"/><path d="m60.813 116.157.322.322zm64.353.322.322.321z" fill="#0e0d08"/><path d="m228.453 116.479.321.321z" fill="#010101"/><path d="m188.232 116.8.322.322z" fill="#0f0e08"/><path d="m208.825 116.8.322.322z" fill="#0f0e07"/><path d="m99.103 117.122.322.322z" fill="#0e0d08"/><path d="m221.052 117.122.322.322z" fill="#0f0d06"/><path d="m96.851 117.444.322.322zm41.508 0 .321.322z" fill="#0e0d08"/><path d="m153.481 117.444.322 3.54c1.493-.791 2.468-1.895 2.896-3.54l-2.252 1.609z"/><path d="m66.927 117.766.322.321zm86.233 0 .321.321zm2.574 0 .322.321z" fill="#0e0d08"/><path d="m188.554 117.766.322.321z" fill="#0f0e08"/><path d="m221.695 117.766.322.321z" fill="#0e0d05"/><path d="m24.132 118.087.322.322z" fill="#0e0b05"/><path d="m98.782 118.087.321.322zm56.63 0 .322.322zm29.924.322.322.322z" fill="#0e0d08"/><path d="m209.147 119.053.321.322z" fill="#0e0d05"/><path d="m227.809 119.053.322.322z" fill="#010101"/><path d="m235.21 119.375.321.321z" fill="#0d0b05"/><path d="m227.487 120.018.322.322z" fill="#010101"/><path d="m78.51 120.34.322.322z" fill="#0e0d08"/><path d="m32.82 120.662.322.321z" fill="#0e0b05"/><path d="m216.869 120.983.322.322z" fill="#020202"/><path d="m207.216 121.305.322.322z" fill="#0d0b05"/><path d="m216.547 121.305.322.322zm-9.653.322.322.322z" fill="#0e0d05"/><path d="m108.113 124.201.643-2.252c-1.38.401-2.139 1.396-.643 2.252z"/><path d="m26.385 122.27.321.322z" fill="#0f0d06"/><path d="m107.147 122.27.322.322zm-32.82.322.322.322z" fill="#0e0d08"/><path d="m213.973 122.592.322.322z" fill="#0e0d05"/><path d="m74.006 122.914.321.322z" fill="#0e0d08"/><path d="m225.878 122.914.322.322zm-13.514.322.322.321z" fill="#010101"/><path d="m225.557 123.236.321.321z" fill="#0e0d05"/><path d="m165.709 123.88-.322 4.504-2.896-1.93c.302 1.952 1.667 2.878 3.54 3.217l.321-5.792z"/><path d="m209.468 123.88v.321h.966z" fill="#010101"/><path d="m86.233 133.854c2.13-.091 9.546.194 10.618-1.287l-7.079-.965 3.861-7.401c-2.34.732-6.36 7.383-7.4 9.653m26.063 27.993c2.426-1.39 5.586-5.534 6.757-8.044-2.576.772-3.703 3.296-5.47 5.149l-.966-6.758c7.526-.657 10.831-8.879 15.261-13.823 2.696-3.008 6.073-4.312 9.515-6.126-2.028-2.427-4.85.138-6.757 1.605-5.107 3.933-8.054 8.699-12.549 13.196l2.575-6.757h-.322c-1.398 3.357-3.069 6.941-6.435 8.688l1.287-4.505h-.322c-1.353 3.232-2.879 4.824-6.436 4.827l3.218-7.401h-.322l-4.183 7.079-1.287-.322 3.218-6.113h-.322c-1.627 2.603-3.342 6.306-6.757 5.47l2.896-5.47c-1.612 1.261-2.31 4.28-4.213 5.03-.868.341-2.504-.294-2.156-1.442.453-1.492 2.908-2.961 3.876-4.232 3.295-4.327 5.967-11.382 10.859-14.044 4.006-2.18 10.102.582 14.48.529 2.507-.031 5.363-.891 6.113-3.539-2.046-.22-3.98 1.1-6.114 1.104-5.408.008-14.282-2.685-18.929.986-4.23 3.342-4.47 7.826-7.131 12.067-1.3 2.07-3.595 3.471-5.47 4.964-.696.553-1.955 1.357-1.691 2.416.324 1.304 2.542 2.003 3.619 2.496a36.207 36.207 0 0 0 7.722 2.53c1.406.287 3.499.24 4.692 1.105 2.179 1.58 1.443 6.96 1.744 9.335z"/><path d="m223.626 125.166.322.322zm-5.47.322.322.322zm4.505 0 .322.322z" fill="#010101"/><path d="m52.126 125.81-.322 1.93 1.287-1.93z"/><path d="m128.062 125.81.322.322z" fill="#0e0d08"/><path d="m219.443 125.81.322.322z" fill="#010101"/><path d="m166.352 126.132.322.321z" fill="#0e0d08"/><path d="m483.32 192.905c-.958-2.83-.52-6.25-2.358-8.742-2.402-3.258-7.788-2.982-11.409-2.937-1.25.015-3.334-.061-4.143 1.126-.965 1.414.791 4.873 1.17 6.381 1.57 6.25 2.971 14.87 8.398 19.058 3.567 2.752 10.744.948 13.72-2 4.749-4.702 6.03-15.69 1.207-20.767-5.965-6.278-5.874 4.89-6.586 7.88z" fill="url(#i)" transform="matrix(.77133 0 0 .77133 -153.676 -13.652)"/><path d="m28.959 126.453.322.322z" fill="#0f0d06"/><path d="m109.078 126.453.322.322z" fill="#0e0d08"/><path d="m59.205 126.775.321.322z" fill="#0f0e08"/><path d="m70.145 126.775.321.322zm22.201 0 .322.322z" fill="#0e0d08"/><path d="m52.77 127.097.321.322z" fill="#0f0e08"/><path d="m60.813 127.097.322.322zm9.01 0 .322.322zm44.403 0 .322.322zm-44.725.322.322.321z" fill="#0e0d08"/><path d="m52.448 127.74.321.322z" fill="#0f0e08"/><path d="m90.416 127.74.321.322zm17.375 0 .322.322z" fill="#0e0d08"/><path d="m130.636 127.74.322.322z" fill="#0e0b05"/><path d="m222.66 127.74.323.322z" fill="#0e0d08"/><path d="m509.183 183.727-2.23 10.43-1.58 5.404 2.976 2.104-.835-3.754h.418c1.929 4.632 3.962 5.423 8.76 5.423l-2.92-6.258c1.924 2.214 2.621 5.342 5.84 5.84l-2.92-5.423c2.67 2.898 3.988 4.9 7.926 2.92v-.834c-6.95-3.307-7.582-14.43-15.435-15.852z" fill="url(#h)" transform="matrix(.77133 0 0 .77133 -153.676 -13.652)"/><path d="m187.589 130.636.965-2.252c-1.315.382-2.005 1.12-.965 2.252z"/><path d="m89.772 128.706.322.321z" fill="#0e0d08"/><path d="m217.513 128.706.321.321z" fill="#0e0d05"/><path d="m111.009 129.027.321.322z" fill="#0f0e08"/><path d="m205.286 129.027.321.322z" fill="#010101"/><path d="m235.531 129.027.322.322z" fill="#0d0b05"/><path d="m79.476 129.35.321.321z" fill="#0e0d08"/><path d="m110.687 129.35.322.321zm-58.561.321.322.322zm1.287 0 .322.322zm56.952 0 .322.322z" fill="#0f0e08"/><path d="m90.094 129.993.322.322zm15.445 0 .321.322z" fill="#0e0d08"/><path d="m57.596 130.315.322.321z" fill="#0f0e08"/><path d="m197.885 130.315.322.321z" fill="#0f0e07"/><path d="m219.121 130.315.322.321z" fill="#010101"/><path d="m57.274 130.958.322.322z" fill="#0f0e08"/><path d="m109.4 130.958.322.322z" fill="#0f0e07"/><path d="m144.15 130.958 3.54 3.861 1.609-3.861-1.61 2.574zm32.499 0-.322 4.826-3.218-1.93c-.18 2.121 3.07 4.532 4.827 5.47l-.644-8.366z"/><path d="m87.52 131.602.322.321zm5.47 0 .322.321zm-5.792.321.322.322z" fill="#0e0d08"/><path d="m196.92 131.923.321.322z" fill="#0f0e07"/><path d="m37.646 132.567.322.322z" fill="#0f0d06"/><path d="m57.918 132.889.321.321z" fill="#0f0e08"/><path d="m86.233 132.889.322.321z" fill="#0e0d08"/><path d="m131.602 132.889.321.321z" fill="#0f0d06"/><path d="m196.276 132.889.322.321zm2.252.321.322.322z" fill="#0f0e07"/><path d="m146.08 133.532.323.322zm98.782 0 .322.322zm-141.254.322.322.322z" fill="#0e0d08"/><path d="m195.633 133.854.321.322z" fill="#0f0e07"/><path d="m34.75 134.176.322.321zm95.243 0 .321.321z" fill="#0f0d06"/><path d="m132.567 134.176.322.321z" fill="#0e0d08"/><path d="m33.785 134.497.322.322z" fill="#0f0d06"/><path d="m146.724 134.497.322.322zm27.672 0 .322.322z" fill="#0e0d08"/><path d="m197.241 135.141.322.322z" fill="#0f0e07"/><path d="m130.314 135.784.322.322z" fill="#0e0d08"/><path d="m33.785 136.106.322.322z" fill="#0f0d06"/><path d="m207.216 136.106.322.322zm-137.393.322.322.322z" fill="#0e0d08"/><path d="m89.45 136.428c-1.008 4.82-4.452 9.159-7.54 12.87-1.472 1.77-3.735 3.547-4.365 5.792 5.332-1.536 11.327-6.953 17.054-6.435-1.473-2.853-8.344 1.105-10.94 1.609 2.087-3.093 4.94-5.788 6.284-9.331.564-1.487.92-3.486-.493-4.505z"/><path d="m105.86 136.428.322.322z" fill="#0f0e07"/><path d="m126.775 136.428.322.322z" fill="#0e0d08"/><path d="m37.646 136.75.322.322zm1.287 0 .322.322z" fill="#0f0d06"/><path d="m89.129 137.072.321.321z" fill="#0e0d08"/><path d="m193.058 137.072.322.321z" fill="#0f0e07"/><path d="m207.538 137.393.322.322zm18.662.322.322.322z" fill="#010101"/><path d="m247.437 137.715.321.322z" fill="#0f0e08"/><path d="m127.74 138.037.322.322z" fill="#0e0d08"/><path d="m59.205 138.359.321.321z" fill="#0f0e08"/><path d="m36.36 138.68.321.322z" fill="#0f0d06"/><path d="m124.523 138.68.321.322z" fill="#0e0d08"/><path d="m36.038 139.002.321.322z" fill="#0f0d06"/><path d="m176.97 139.002.322.322z" fill="#0e0d08"/><path d="m161.204 144.15c-1.361-1.357-2.747-3.232-4.827-2.896l6.114 7.401 1.609-9.331c-2.452.388-2.332 2.82-2.896 4.826z"/><path d="m243.575 139.324.322.322z" fill="#0f0e07"/><path d="m55.343 139.646.322.321zm6.757 0 .322.321z" fill="#0f0e08"/><path d="m130.958 142.542-.322-1.61h-.965l.322 4.184c1.874-.325 3.824-3.695 4.183-5.47z"/><path d="m225.878 139.646.322.321z" fill="#010101"/><path d="m67.57 139.967.322.322zm55.987 0 .322.322zm2.575 0 .321.322zm37.968 0 .321.322z" fill="#0e0d08"/><path d="m193.702 139.967.322.322z" fill="#0f0e07"/><path d="m250.976 140.29.322.32z" fill="#0d0b05"/><path d="m100.069 140.61.321.323z" fill="#0e0d08"/><path d="m235.853 140.61.322.323z" fill="#0e0b05"/><path d="m70.145 140.933.321.321zm17.375 0 .322.321z" fill="#0e0d08"/><path d="m111.76 141.147.107.215z"/><path d="m192.415 141.254.322.322z" fill="#0f0e07"/><path d="m228.13 141.254.323.322zm9.975 0 .322.322z" fill="#0d0b05"/><path d="m89.45 141.576.322.322zm21.88 0 .322.322zm-24.454.644.322.322zm138.037 0 .322.322z" fill="#0e0d08"/><path d="m227.809 142.22.322.322z" fill="#0d0b05"/><path d="m245.184 142.22.322.322z" fill="#0f0d06"/><path d="m42.151 142.542.322.321z"/><path d="m97.816 142.542.322.321z" fill="#0e0d08"/><path d="m189.84 142.542.323.321z" fill="#0f0e07"/><path d="m41.508 142.863.321.322zm.643 0 .322.322z" fill="#0f0d06"/><path d="m108.434 142.863.322.322z" fill="#0f0e08"/><path d="m121.627 142.863.322.322zm102.964 0 .322.322zm-63.387.644.322.322zm48.908 0 .322.322z" fill="#0e0d08"/><path d="m47.621 143.829.322.321z" fill="#0f0e07"/><path d="m120.662 144.15.321.322zm41.829 0 .322.322z" fill="#0e0d08"/><path d="m67.892 144.472.322.322z" fill="#0f0e08"/><path d="m102.965 144.472.321.322z" fill="#0e0b05"/><path d="m107.147 144.472.322.322z" fill="#0e0d08"/><path d="m110.043 144.472.322.322z" fill="#0f0e08"/><path d="m122.914 144.472.322.322z" fill="#0e0d08"/><path d="m229.096 144.472.322.322z" fill="#0d0b05"/><path d="m94.92 144.794.322.322zm19.628 0 .322.322z" fill="#0e0d08"/><path d="m142.863 144.794-1.609 4.183h-.321l-2.574-3.54 2.252 7.401h.322c.856-2.15 3.886-6.105 1.93-8.044z"/><path d="m159.595 144.794.322.322z" fill="#0e0d08"/><path d="m109.722 145.116.321.321z" fill="#0f0e08"/><path d="m206.573 145.116.321.321z" fill="#0f0d06"/><path d="m98.46 145.437.322.322z" fill="#0d0b05"/><path d="m142.22 145.437.322.322z" fill="#0e0d08"/><path d="m58.24 145.76.321.32z" fill="#0f0e08"/><path d="m108.756 145.76.322.32z" fill="#0f0e07"/><path d="m114.548 145.76.322.32zm2.896 0 .322.32z" fill="#0e0d08"/><path d="m39.255 146.08.322.323z" fill="#0f0d06"/><path d="m118.087 146.08.322.323zm93.956 0 .321.323zm-128.063.323.322.321zm128.384 0 .322.321z" fill="#0e0d08"/><path d="m38.29 146.724.322.322z" fill="#0f0d06"/><path d="m102.321 146.724.322.322z" fill="#0d0b05"/><path d="m106.504 146.724.322.322z" fill="#0f0d06"/><path d="m118.087 146.724.322.322z" fill="#0e0d08"/><path d="m177.614 147.046 1.93 10.618c-2.05-1.791-8.376-10.048-10.94-7.078 5.92 1.886 8.387 8.802 13.514 11.905l-1.604-6.114-1.935-9.653z"/><path d="m212.686 146.724.322.322z" fill="#0e0d08"/><path d="m218.8 147.046.321.322z" fill="#010101"/><path d="m226.844 147.046.321.322z" fill="#0e0b05"/><path d="m37.325 147.368.321.322z" fill="#0d0b05"/><path d="m45.69 147.368.322.322z" fill="#0f0e07"/><path d="m85.267 147.368.322.322z" fill="#0e0d08"/><path d="m101.034 147.368.322.322zm.965 0 .322.322z" fill="#0d0b05"/><path d="m107.791 147.368.322.322z" fill="#0e0b05"/><path d="m214.295 147.368.322.322z" fill="#010101"/><path d="m226.522 147.368.322.322z" fill="#0d0b05"/><path d="m83.015 147.69.322.322z" fill="#0e0d08"/><path d="m100.39 147.69.322.322zm4.505 0 .322.322z" fill="#0d0b05"/><path d="m62.422 148.012.322.321z" fill="#0f0e08"/><path d="m114.87 148.333.322.322z" fill="#0f0e07"/><path d="m44.725 148.655.322.322z" fill="#0f0d06"/><path d="m106.826 148.655.321.322z" fill="#0e0b05"/><path d="m114.226 148.655.322.322z" fill="#0f0e07"/><path d="m87.842 148.977.321.322z" fill="#0e0d08"/><path d="m210.755 148.977.322.322z" fill="#0f0d06"/><path d="m99.425 149.299.322.321z" fill="#0e0d08"/><path d="m194.667 149.299c-1.63 3.989 2.348 8.27 3.861 11.905-4.183-2.156-7.897-5.75-12.87-5.792v1.287c7.165.626 10.986 7.956 16.732 11.262-.054-5.997-5.202-12.893-7.08-18.662z"/><path d="m204.32 149.299.322.321z" fill="#0f0d06"/><path d="m85.911 149.62.322.322z" fill="#0e0d08"/><path d="m212.043 149.62.321.322z" fill="#0f0d06"/><path d="m224.27 149.62.321.322z" fill="#0e0b05"/><path d="m117.766 149.942.321.322z" fill="#0e0d08"/><path d="m223.948 149.942.322.322z" fill="#0d0b05"/><path d="m67.892 150.264.322.322zm110.044 0 .321.322z" fill="#0f0e08"/><path d="m223.626 150.264.322.322z" fill="#0e0b05"/><path d="m67.57 150.586.322.321z" fill="#0f0e08"/><path d="m103.286 150.586.322.321zm13.514 0 .322.321z" fill="#0e0d08"/><path d="m206.25 150.586.323.321z" fill="#0f0d06"/><path d="m67.249 150.907.321.322zm-.322.322.322.322z" fill="#0f0e08"/><path d="m141.254 151.23.322.32z" fill="#0e0d08"/><path d="m66.605 151.55.322.323z" fill="#0f0e08"/><path d="m79.797 151.55.322.323z" fill="#0e0d08"/><path d="m179.544 151.873.322.321z" fill="#0f0e08"/><path d="m194.346 152.838.321.322z" fill="#0f0e07"/><path d="m65.318 153.16.322.322z" fill="#0f0e08"/><path d="m81.406 153.16.322.322zm-.643.322.322.321z" fill="#0e0d08"/><path d="m129.35 154.125-2.253.322c.759 1.804 2.098 3.262 2.727 5.148.698 2.09.245 4.972 2.421 6.114 1.008-2.263 3.484-5.951 2.896-8.366-1.828.899-2.694 2.855-2.896 4.826h-.322z"/><path d="m64.353 154.447.322.322z" fill="#0f0e08"/><path d="m99.425 154.447c0 6.314-.859 12.252-2.574 18.34 2.239.082 3.412-2.246 4.625-3.86 2.396-3.19 4.798-6.706 8.567-8.367v-.321c-3.822-.495-8.6 5.22-9.974 8.365h-.322c1.133-4.379 2.14-9.853.322-14.157z"/><path d="m118.731 154.447.322.322z" fill="#0e0d08"/><path d="m211.399 154.447.322.322z" fill="#0e0b05"/><path d="m219.121 154.447.322.322z" fill="#0d0b05"/><path d="m154.125 161.526-7.4-5.149c.411 1.317 1.457 1.71 2.432 2.614 1.92 1.78 3.596 5.946 6.255 6.396l.644-10.618c-2.597.99-1.931 4.476-1.931 6.757z"/><path d="m195.31 154.769.323.321z" fill="#0f0e07"/><path d="m218.8 154.769.321.321z" fill="#0e0b05"/><path d="m129.67 155.09.323.322z" fill="#0e0d08"/><path d="m178.9 155.412.323.322z" fill="#0f0e08"/><path d="m127.74 155.734.322.322z" fill="#0e0d08"/><path d="m175.361 155.734.322.322zm2.253.322.322.321z" fill="#0f0e08"/><path d="m177.936 156.377.321.322z" fill="#0f0e07"/><path d="m116.479 156.7.321.32zm31.532 0 .322.32z" fill="#0e0d08"/><path d="m191.45 157.02.321.323z" fill="#0f0e08"/><path d="m64.996 157.343.322.321z" fill="#0f0e07"/><path d="m135.14 157.343.323.321zm-19.627.643.322.322z" fill="#0e0d08"/><path d="m177.292 157.986.322.322z" fill="#0f0e08"/><path d="m198.528 157.986.322.322z" fill="#0f0d06"/><path d="m213.973 157.986.322.322z" fill="#0e0b05"/><path d="m215.582 157.986.322.322z" fill="#010101"/><path d="m65.64 158.308.322.322z" fill="#0f0e07"/><path d="m215.26 158.308.322.322z" fill="#0e0b05"/><path d="m148.977 158.63.322.322z" fill="#0e0d08"/><path d="m194.346 158.63.321.322z" fill="#0f0d06"/><path d="m214.938 158.63.322.322z" fill="#0e0b05"/><path d="m81.406 159.273.322.322zm48.265 0 .322.322zm20.593.644.322.322z" fill="#0e0d08"/><path d="m81.085 160.56.321.322z" fill="#0f0e08"/><path d="m153.16 160.882.321.322z" fill="#0e0d08"/><path d="m172.466 160.882c-2.27 4.023 1.038 12.312 1.608 16.732h-.321c-1.794-3.788-5.248-6.917-8.044-9.975-.395-.431-2.433-3.207-3.162-2.04-.76 1.218 2.965 4.107 3.664 4.936 2.571 3.048 4.894 6.495 6.84 9.975 1.126 2.011 2.107 4.701 4.241 5.791-1.61-8.3-4.16-16.92-4.183-25.419z"/><path d="m194.346 160.882.321.322z" fill="#0f0d06"/><path d="m106.504 161.204.322.322z" fill="#010101"/><path d="m108.113 161.204.321.322zm23.489 0 .321.322z" fill="#0e0d08"/><path d="m180.51 161.204.321.322z" fill="#0f0e07"/><path d="m171.822 161.526.322.321z" fill="#0f0e08"/><path d="m213.651 161.526.322.321z" fill="#0e0b05"/><path d="m112.296 161.847.321.322z" fill="#0e0d08"/><path d="m131.923 161.847.322.322z" fill="#0f0e08"/><path d="m206.25 162.17.323.32zm4.184 0 .321.32z" fill="#0e0b05"/><path d="m106.504 162.49.322.323zm45.69 0 .322.323z" fill="#0e0d08"/><path d="m195.954 162.49.322.323z" fill="#0f0d06"/><path d="m80.441 162.813.322.321z" fill="#0f0e08"/><path d="m207.86 163.134.321.322z" fill="#0e0b05"/><path d="m98.782 163.456.321.322z" fill="#0e0d08"/><path d="m69.823 163.778.322.322z" fill="#0f0e07"/><path d="m153.16 163.778.321.322zm18.662 0 .322.322z" fill="#0f0e08"/><path d="m213.651 163.778.322.322z" fill="#0d0b05"/><path d="m283.919 230.449-4.59 12.932 9.595-6.675c-.167-3.224-1.913-5.339-5.005-6.257z" fill="url(#g)" transform="matrix(.77133 0 0 .77133 -153.676 -13.652)"/><path d="m104.573 164.421.322.322zm49.23.322.322.322z" fill="#0e0d08"/><path d="m79.154 166.03.322.322z" fill="#0f0e08"/><path d="m199.816 166.03.321.322z" fill="#0f0d06"/><path d="m164.421 166.352.322.322z" fill="#0f0e08"/><path d="m93.955 166.674.322.322z" fill="#0e0d08"/><path d="m118.731 166.674-.322.322c1.575 4.324 3.124 7.908 3.887 12.548.355 2.156.135 4.961 1.905 6.436 1.809-3.433 2.46-7.416 4.113-10.94.948-2.023 2.496-3.8 2-6.114-3.092 1.521-4.918 8.39-5.791 11.584-1.596-4.254-1.108-11.646-5.792-13.836z"/><path d="m163.134 167.317.322.322zm.322.322.322.322z" fill="#0f0e08"/><path d="m99.747 167.96.322.323z" fill="#0e0d08"/><path d="m163.778 167.96.322.323z" fill="#0f0e08"/><path d="m74.327 168.283.322.321z" fill="#0f0e07"/><path d="m81.085 168.283.321.321z" fill="#0f0e08"/><path d="m99.747 168.283.322.321z" fill="#fff"/><path d="m164.1 168.283.321.321z" fill="#0f0e08"/><path d="m207.86 168.283.321.321z" fill="#010101"/><path d="m101.356 168.604.321.322zm27.993.322.322.322z" fill="#0e0d08"/><path d="m172.466 168.926.321.322z" fill="#0f0e07"/><path d="m130.314 169.248.322.322z" fill="#0e0d08"/><path d="m166.996 169.248.321.322z" fill="#0f0e08"/><path d="m167.317 169.57.322.321z" fill="#0f0d06"/><path d="m76.258 169.891.322.322zm24.132 0 .322.322z" fill="#0f0e07"/><path d="m140.61 169.891c3.64 7.226 6.333 14.022 8.367 21.88 2.269-1.271 1.957-3.518 1.932-5.791-.059-5.295 1.975-10.567 1.607-15.767-1.519.52-1.79 2.076-2.054 3.54-.634 3.51-.646 7.135-1.485 10.618-1.745-4.054-3.128-13.64-8.366-14.48z"/><path d="m141.576 169.891.322.322z" fill="#0e0d08"/><path d="m193.058 169.891.322.322z" fill="#0f0d06"/><path d="m120.018 170.213.322.322z" fill="#0e0d08"/><path d="m166.03 170.213.322.322zm-85.589.322.322.322z" fill="#0f0e07"/><path d="m104.895 170.535.322.322z" fill="#0e0d08"/><path d="m151.23 170.535.32.322z" fill="#0f0e08"/><path d="m206.25 170.535.323.322z" fill="#0f0d06"/><path d="m65.318 170.857.322.322z" fill="#0d0b05"/><path d="m150.907 171.179.322.321zm-65.318.643.322.322z" fill="#0f0e08"/><path d="m127.74 171.822.322.322zm1.93 0 .323.322z" fill="#0e0d08"/><path d="m167.317 171.822.322.322zm-82.05.322.322.322z" fill="#0f0e07"/><path d="m194.024 172.144.322.322z" fill="#0f0d06"/><path d="m204.964 172.144.322.322z" fill="#0d0b05"/><path d="m84.946 172.466.321.321z" fill="#0f0e08"/><path d="m129.35 172.466.32.321z" fill="#0e0d08"/><path d="m143.829 172.466.321.321z" fill="#0f0e08"/><path d="m469.553 241.295-2.92 5.006 9.178 4.171z" fill="url(#f)" transform="matrix(.77133 0 0 .77133 -153.676 -13.652)"/><path d="m170.213 172.787.322.322z" fill="#0f0e07"/><path d="m129.027 173.11.322.32z" fill="#0e0d08"/><path d="m142.542 173.43.321.323z" fill="#0f0e08"/><path d="m62.1 173.753.322.321z" fill="#0d0b05"/><path d="m87.842 173.753.321.321z" fill="#0f0e08"/><path d="m61.457 174.074.322.322z" fill="#fff"/><path d="m126.775 174.074.322.322z" fill="#0e0d08"/><path d="m142.863 174.074.322.322z" fill="#0f0e08"/><path d="m203.355 174.074.322.322z" fill="#0e0b05"/><path d="m143.185 174.718.322.322zm1.93 0 .322.322zm-1.608.643.322.322zm1.93 0 .322.322zm-19.305.322.321.322zm1.608 0 .322.322z" fill="#0f0e08"/><path d="m183.727 175.683.322.322z" fill="#0f0d06"/><path d="m145.76 176.005.32.322z" fill="#0f0e08"/><path d="m206.573 176.327.321.322z" fill="#010101"/><path d="m81.085 176.649.321.321z" fill="#0f0e07"/><path d="m117.444 176.97.322.322z"/><path d="m170.857 176.97.322.322z" fill="#0f0e07"/><path d="m125.488 177.292.322.322z" fill="#0f0e08"/><path d="m185.98 177.292.321.322z" fill="#0f0d06"/><path d="m86.555 177.614.321.322z" fill="#0f0e07"/><path d="m118.087 177.614.322.322z" fill="#0f0e08"/><path d="m187.267 178.257.322.322zm-20.593.322.322.322zm.643 0 .322.322z" fill="#0f0d06"/><path d="m79.154 178.9.322.323z" fill="#0f0e07"/><path d="m124.844 178.9.322.323z" fill="#0f0e08"/><path d="m172.144 178.9.322.323zm-81.728 1.288.321.322z" fill="#0f0e07"/><path d="m130.636 180.188.322.322zm-52.77.322.323.321z" fill="#0f0e08"/><path d="m176.005 180.51.322.321z" fill="#0f0d06"/><path d="m147.69 180.831.321.322zm-55.987.322.322.322z" fill="#0f0e07"/><path d="m173.43 181.153.323.322z" fill="#0f0d06"/><path d="m153.803 181.475.322.322z" fill="#0f0e07"/><path d="m92.346 181.797.322.322z" fill="#0f0e08"/><path d="m191.771 182.119.322.321z" fill="#0e0b05"/><path d="m76.58 182.44.322.322z" fill="#0f0e07"/><path d="m122.592 182.44.322.322z" fill="#0f0e08"/><path d="m142.22 182.44.322.322z" fill="#0f0e07"/><path d="m192.093 182.44.322.322z" fill="#0e0b05"/><path d="m104.252 182.762.321.322zm44.081.322.322.322zm-53.734.322.321.321zm63.065 0 .322.321zm-62.1.643.322.322zm60.17.322.322.322zm-43.438.322.321.321zm46.334 0 .321.321zm-46.656.643.322.322zm-13.192.322.321.322zm4.183 0 .321.322zm56.308 0 .322.322zm-59.526.322.322.321zm33.785.321.322.322z" fill="#0f0e07"/><path d="m318.96 260.067-.835 12.932c3.667-3.916 9.78-12.145.835-12.932z" fill="url(#e)" transform="matrix(.77133 0 0 .77133 -153.676 -13.652)"/><path d="m113.583 186.945.322.322z" fill="#0f0e07"/><path d="m185.98 188.232.321.322z" fill="#0e0b05"/><path d="m198.85 188.232.322.322z" fill="#0d0b05"/><path d="m151.23 188.554.32.322z" fill="#0f0e07"/><path d="m184.693 188.876.321.321z" fill="#0e0b05"/><path d="m134.82 189.52.32.32zm13.513 0 .322.32z" fill="#0f0e07"/><path d="m182.44 189.84.322.323z" fill="#0d0b05"/><path d="m150.264 190.806.322.322z" fill="#0f0e07"/><path d="m159.595 190.806.322.322z" fill="#0f0d06"/><path d="m180.51 190.806.321.322z" fill="#0e0b05"/><path d="m112.94 191.128.32.322zm37.002 0 .322.322z" fill="#0f0e07"/><path d="m179.866 191.128.322.322z" fill="#0e0b05"/><path d="m142.542 191.771.321.322z" fill="#0f0e07"/><path d="m159.917 191.771.322.322zm2.574 0 .322.322z" fill="#0f0d06"/><path d="m94.277 192.415.322.322z" fill="#0d0b05"/><path d="m117.766 192.737.321.322zm18.34.643.322.322z" fill="#0f0e07"/><path d="m174.396 193.38.322.322zm-.965.322.322.322z" fill="#0e0b05"/><path d="m201.746 194.024.322.322zm.644 0 .321.322z" fill="#0d0b05"/><path d="m171.179 194.346.321.321z" fill="#0f0d06"/><path d="m429.089 272.582c1.607 3.45 5.253 7 8.343 9.177l-3.754-11.68z" fill="url(#d)" transform="matrix(.77133 0 0 .77133 -153.676 -13.652)"/><path d="m163.778 194.99.322.32zm-55.987.643.322.321z" fill="#0f0d06"/><path d="m127.74 195.633.322.321z" fill="#0f0e07"/><path d="m177.936 195.954.321.322z" fill="#0d0b05"/><path d="m130.636 196.276.322.322z" fill="#0f0d06"/><path d="m178.58 198.528.32.322zm.32.322.323.322z" fill="#0d0b05"/><path d="m358.172 290.52h.418l3.754-13.35-4.748-.806-.258 3.726z" fill="url(#c)" transform="matrix(.77133 0 0 .77133 -153.676 -13.652)"/><path d="m179.223 199.172.321.322zm3.217 1.287.322.322z" fill="#0d0b05"/><path d="m392.796 279.673 4.59 13.35c1.03-2.387 4.207-11.603 1.952-13.515-1.746-1.48-4.647-.336-6.542.165z" fill="url(#b)" transform="matrix(.77133 0 0 .77133 -153.676 -13.652)"/><path d="m149.942 201.746.322.322z" fill="#0d0b05"/><path d="m181.475 201.746.322.322zm-15.123 1.287.322.322z" fill="#010101"/><path d="m183.084 203.355.322.322zm-33.464.322.322.322zm33.786 0 .643.643z" fill="#0d0b05"/><path d="m183.727 203.677.322.322z" fill="#fff"/><path d="m167.96 204.32.323.322z" fill="#0e0b05"/><path d="m124.2 204.642.323.322z" fill="#0d0b05"/><path d="m219.596 126c-1.272-.23-2.268-1.178-2.268-2.156 0-.924.591-1.856 3.001-4.73 1.922-2.291 1.69-2.23-1.867.488-3.933 3.007-6.75 4.152-10.675 4.34-1.823.086-3.315.041-3.315-.102s.538-.712 1.194-1.264c.657-.553 2.861-3.236 4.9-5.963 3.72-4.98 5.537-6.668 7.93-7.37 3.781-1.11 8.65 1.812 9.747 5.849 1.017 3.747-2.287 9.781-5.907 10.786-.779.217-1.501.371-1.605.344a30.6 30.6 0 0 0 -1.135-.221z" fill="#fef666"/><path d="m214.492 147.571c-1.238-.343-2.832-1.636-3.991-3.236-1.381-1.906-2.355-4.514-3.992-10.686-.716-2.704-1.389-5.195-1.494-5.537-.528-1.725 3.232-2.602 7.83-1.827 3.618.61 4.948 1.824 5.597 5.108.246 1.24.493 2.426.55 2.634.056.208.323-.787.592-2.21.3-1.584.82-2.974 1.34-3.578l.85-.988 1.38.93c2.166 1.462 3.392 4.33 3.37 7.883-.033 5.027-2.103 8.944-5.594 10.585-1.728.812-5.095 1.294-6.438.922z" fill="#fef67a"/></svg>