<svg xmlns="http://www.w3.org/2000/svg" viewBox="0 0 154.42 154.42">
  <defs>
    <style>
      .a{fill:#e32a30;}.b{fill:#a4a4a4;}
    </style>
  </defs>
  <path d="M145.54 52.66c-2.14 2.93-4.42 5.64-7.84 6.57-.56-.51-1.11-1-1.66-1.54a168 168 0 0 1-16.25-17.81 164.68 164.68 0 0 1-12.89-18.42c-.39-.65-.77-1.3-1.15-2 1.64-3.14 4.78-4.79 8.1-6.25a47 47 0 0 0 7.23-3.53C109.85 14 91 15.35 90.45 26c-.29 5.16 11.29 17.83 16.3 24.08l.71.88.58.73c5 6.24 14.92 20.27 20 21.09 10.55 1.7 15.92-16.37 22.48-26.43a47 47 0 0 0-4.98 6.31z" class="a"/>
  <path d="M142.32 74.14c-3.39 4.64-7 8.94-12.44 10.41-.89-.81-1.76-1.62-2.64-2.44a266.42 266.42 0 0 1-25.77-28.25 261 261 0 0 1-20.43-29.2c-.61-1-1.22-2.06-1.82-3.1 2.61-5 7.58-7.6 12.84-9.91 3.94-1.74 8.05-3.31 11.46-5.59C85.73 12.8 55.91 15 55 31.88c-.47 8.19 17.9 28.27 25.85 38.18l1.12 1.39.92 1.15c8 9.89 23.65 32.14 31.75 33.44 16.72 2.69 25.24-26 35.64-41.9-3 2.86-5.42 6.52-7.96 10z" class="b"/>
  <path d="M138.45 105c-5.23 7.16-10.8 13.78-19.17 16.05-1.37-1.24-2.72-2.51-4.06-3.77a410.78 410.78 0 0 1-39.73-43.59A402.49 402.49 0 0 1 44 28.68c-.94-1.59-1.89-3.17-2.81-4.78 4-7.69 11.68-11.71 19.8-15.28C67.07 5.94 73.41 3.52 78.65 0 51.21 10.38 5.24 13.73 3.77 39.8c-.72 12.62 27.6 43.58 39.85 58.86l1.73 2.15 1.42 1.77c12.29 15.25 36.46 49.55 48.94 51.56 25.79 4.16 38.92-40 54.94-64.6-4.55 4.38-8.28 10.04-12.2 15.46z"/>
</svg>
