<svg xmlns="http://www.w3.org/2000/svg" viewBox="0 0 63.713856 85.523458"><path d="M62.587 28.653L30.283 52.61 24.2 43.344 49.673 24.63l-.035-1.75c-.633-5.014-3.1-7.52-7.445-7.52-5.102 0-9.73 2.71-13.893 8.16-4.135 5.452-7.497 11.75-10.12 18.98-2.58 7.11-3.796 13.435-3.675 18.973.116 5.538 2.666 8.307 7.624 8.307 1.572 0 3.367-.438 5.347-1.312 1.97-.843 3.72-2.07 5.178-3.583l1.595-1.605 9.617 6.85-3.176 2.97c-8.867 8.28-17.068 12.423-24.62 12.423-6.324 0-10.71-2.128-13.15-6.416C.45 74.825-.45 69.342.208 62.727c.63-6.646 2.243-13.498 4.81-20.58C7.85 34.742 11.22 27.95 15.15 21.772c3.9-6.182 8.59-11.31 13.997-15.36C34.563 2.33 40.55.2 47.097 0c4.55 0 8.148 1.164 10.808 3.467 2.62 2.333 4.37 5.392 5.18 9.182.804 3.816.836 7.897.102 12.328l-.6 3.675" fill="#b4131d" fill-rule="evenodd"/></svg>
