<svg viewBox="0 0 95 98" xmlns="http://www.w3.org/2000/svg" fill-rule="evenodd" clip-rule="evenodd" stroke-linejoin="round" stroke-miterlimit="1.414"><path d="M94.747 9.007h-7.29V7.49H10.768a3.87 3.87 0 00-.87.11h-.022l-.379.135-.067.022-.044.023-.067.044-.29.156-.067.022v.023l-.134.067-.111.089-.045.044-.067.045-.044.022v.023l-.045.044-.067.045-.044.044-.045.045-.111.11-.023.046-.067.067-.044.022h.022l-.067.067-.022.022v.023l-.045.044v.023l-.044.044-.023.045H.29v-.513C1.427 3.634 5.707 0 10.768 0h83.979v9.007z" fill="#e3e4e5" fill-rule="nonzero"/><path d="M87.457 7.517l7.29-3.924v7.491l-7.268 3.901h-.022V7.517z" fill="url(#_Linear1)" fill-rule="nonzero" transform="translate(0 -.004)"/><path d="M2.006 4.663L8.672 8.23l-.067.045-.044.022v.023l-.045.044-.067.045-.044.044-.045.045-.111.111-.023.045-.067.067-.044.022h.022l-.067.067-.022.022v.023l-.045.044v.023l-.044.044-.067.112-.022.022-.067.111-.045.067V9.3l-.156.268v.022l-.022.067-.023.045-.022.044v.023l-.134.423c0-.022-.111.58-.111.87v3.923L0 11.084v-.022c0-2.386.736-4.593 2.006-6.399z" fill="url(#_Linear2)" fill-rule="nonzero" transform="translate(0 -.004)"/><path fill="#939292" fill-rule="nonzero" d="M14.58 14.98h65.587v7.492H14.58z"/><path d="M0 88.37h7.29v1.495h76.689c.312 0 .558-.022.847-.112h.023l.401-.133.045-.023.044-.022.089-.022.268-.156.067-.045h.022l.111-.09.112-.066v-.022l.067-.045.067-.044.022-.023.067-.044.067-.067.022-.022v-.023l.045-.022.111-.112v-.022l.045-.022.044-.067.045-.045.044-.066.023-.023.044-.067.045-.067h.022l.022-.022h7.625v.513c-1.137 4.86-5.395 8.47-10.456 8.47H0v-8.983z" fill="#e3e4e5" fill-rule="nonzero"/><path d="M7.29 89.869L0 93.77v-7.49l7.245-3.902h.045v7.491z" fill="url(#_Linear3)" fill-rule="nonzero" transform="translate(0 -.004)"/><path d="M92.741 92.7l-6.666-3.567.067-.044.022-.023.067-.044.067-.067.022-.022v-.023l.045-.022.111-.112v-.022l.045-.022.044-.067.045-.045.044-.066.023-.023.044-.067.045-.067h.022l.067-.111.089-.134.045-.067.134-.289.022-.023.022-.044v-.023l.022-.044v-.023l.023-.022.134-.423s.111-.602.111-.892v-3.901l7.29 3.879v.022a11.405 11.405 0 01-2.006 6.398z" fill="url(#_Linear4)" fill-rule="nonzero" transform="translate(0 -.004)"/><path fill="#aaabab" fill-rule="nonzero" d="M7.29 29.962h28.023v7.49H7.29z"/><path d="M21.156 37.457L7.29 30.011v-.045h14.112l13.911 7.446v.045H21.156z" fill="url(#_Linear5)" fill-rule="nonzero" transform="translate(0 -.004)"/><path fill="#aaabab" fill-rule="nonzero" d="M59.412 29.962h28.045v7.49H59.412z"/><path d="M73.568 37.457l13.889-7.446v-.045H73.323l-13.911 7.446v.045h14.156z" fill="url(#_Linear6)" fill-rule="nonzero" transform="translate(0 -.004)"/><path fill="#aaabab" fill-rule="nonzero" d="M59.412 59.925h28.045v7.49H59.412z"/><path d="M73.568 59.929l13.889 7.423v.067H73.323l-13.911-7.468v-.022h14.156z" fill="url(#_Linear7)" fill-rule="nonzero" transform="translate(0 -.004)"/><path fill="#aaabab" fill-rule="nonzero" d="M7.29 59.925h28.023v7.49H7.29z"/><path d="M21.156 59.929L7.29 67.352v.067h14.112l13.911-7.468v-.022H21.156z" fill="url(#_Linear8)" fill-rule="nonzero" transform="translate(0 -.004)"/><path d="M35.313 37.457L0 18.552v-7.49l35.313 18.904v7.491z" fill="url(#_Linear9)" fill-rule="nonzero" transform="translate(0 -.004)"/><path d="M59.412 37.457l35.335-18.905v-7.49L59.412 29.966v7.491z" fill="url(#_Linear10)" fill-rule="nonzero" transform="translate(0 -.004)"/><path fill="#939292" fill-rule="nonzero" d="M14.714 74.906h65.587v7.468H14.714z"/><path d="M59.412 59.929l35.335 18.882v7.491L59.412 67.419v-7.49z" fill="url(#_Linear11)" fill-rule="nonzero" transform="translate(0 -.004)"/><path d="M35.313 59.929L0 78.811v7.491l35.313-18.883v-7.49z" fill="url(#_Linear12)" fill-rule="nonzero" transform="translate(0 -.004)"/><path d="M94.747 44.944H73.412l6.733-3.612v-7.49L59.412 44.944v7.49h.022l20.733 11.08v-7.491l-6.733-3.59h21.313v-7.49zM14.58 33.842v7.49l6.755 3.612H0v7.49h21.312l-6.732 3.589v7.49l20.733-11.08v-7.489L14.58 33.842z" fill="#d94f00" fill-rule="nonzero"/><defs><linearGradient id="_Linear7" x1="0" y1="0" x2="1" y2="0" gradientUnits="userSpaceOnUse" gradientTransform="rotate(14.583 -200.132 225.55) scale(47.7229)"><stop offset="0" stop-color="#aaabab"/><stop offset=".1" stop-color="#aaabab"/><stop offset="1" stop-color="#4e4e4e"/></linearGradient><linearGradient id="_Linear1" x1="0" y1="0" x2="1" y2="0" gradientUnits="userSpaceOnUse" gradientTransform="scale(6.07145) rotate(74.148 6.74 10.363)"><stop offset="0" stop-color="#e4e4e4"/><stop offset="1" stop-color="#a2a2a2"/></linearGradient><linearGradient id="_Linear3" x1="0" y1="0" x2="1" y2="0" gradientUnits="userSpaceOnUse" gradientTransform="scale(-6.07036) rotate(74.141 9.553 -7.983)"><stop offset="0" stop-color="#e4e4e4"/><stop offset="1" stop-color="#a2a2a2"/></linearGradient><linearGradient id="_Linear4" x1="0" y1="0" x2="1" y2="0" gradientUnits="userSpaceOnUse" gradientTransform="rotate(-68.508 111.047 -20.309) scale(6.25409)"><stop offset="0" stop-color="#e4e4e4"/><stop offset="1" stop-color="#a2a2a2"/></linearGradient><linearGradient id="_Linear5" x1="0" y1="0" x2="1" y2="0" gradientUnits="userSpaceOnUse" gradientTransform="rotate(-165.416 24.738 17.017) scale(47.7227)"><stop offset="0" stop-color="#aaabab"/><stop offset=".1" stop-color="#aaabab"/><stop offset="1" stop-color="#4e4e4e"/></linearGradient><linearGradient id="_Linear6" x1="0" y1="0" x2="1" y2="0" gradientUnits="userSpaceOnUse" gradientTransform="scale(47.7236) rotate(-14.583 3.78 -3.706)"><stop offset="0" stop-color="#aaabab"/><stop offset=".1" stop-color="#aaabab"/><stop offset="1" stop-color="#4e4e4e"/></linearGradient><linearGradient id="_Linear2" x1="0" y1="0" x2="1" y2="0" gradientUnits="userSpaceOnUse" gradientTransform="rotate(111.493 .384 5.322) scale(6.25449)"><stop offset="0" stop-color="#e4e4e4"/><stop offset="1" stop-color="#a2a2a2"/></linearGradient><linearGradient id="_Linear8" x1="0" y1="0" x2="1" y2="0" gradientUnits="userSpaceOnUse" gradientTransform="rotate(165.416 18.508 31.669) scale(47.7221)"><stop offset="0" stop-color="#aaabab"/><stop offset=".1" stop-color="#aaabab"/><stop offset="1" stop-color="#4e4e4e"/></linearGradient><linearGradient id="_Linear9" x1="0" y1="0" x2="1" y2="0" gradientUnits="userSpaceOnUse" gradientTransform="translate(0 24.259) scale(35.3155)"><stop offset="0" stop-color="#fefefe"/><stop offset=".23" stop-color="#fefefe"/><stop offset="1" stop-color="#b0b0b0"/></linearGradient><linearGradient id="_Linear10" x1="0" y1="0" x2="1" y2="0" gradientUnits="userSpaceOnUse" gradientTransform="rotate(180 47.368 12.13) scale(35.3154)"><stop offset="0" stop-color="#fefefe"/><stop offset=".23" stop-color="#fefefe"/><stop offset="1" stop-color="#b0b0b0"/></linearGradient><linearGradient id="_Linear11" x1="0" y1="0" x2="1" y2="0" gradientUnits="userSpaceOnUse" gradientTransform="rotate(180 47.368 36.557) scale(35.3154)"><stop offset="0" stop-color="#fefefe"/><stop offset=".23" stop-color="#fefefe"/><stop offset="1" stop-color="#b0b0b0"/></linearGradient><linearGradient id="_Linear12" x1="0" y1="0" x2="1" y2="0" gradientUnits="userSpaceOnUse" gradientTransform="translate(0 73.113) scale(35.3155)"><stop offset="0" stop-color="#fefefe"/><stop offset=".23" stop-color="#fefefe"/><stop offset="1" stop-color="#b0b0b0"/></linearGradient></defs></svg>