<?xml version="1.0" encoding="UTF-8" standalone="no"?>
<!DOCTYPE svg PUBLIC "-//W3C//DTD SVG 1.1//EN" "http://www.w3.org/Graphics/SVG/1.1/DTD/svg11.dtd">
<svg width="100%" height="100%" viewBox="0 0 95 98" version="1.1" xmlns="http://www.w3.org/2000/svg" xmlns:xlink="http://www.w3.org/1999/xlink" xml:space="preserve" xmlns:serif="http://www.serif.com/" style="fill-rule:evenodd;clip-rule:evenodd;stroke-linejoin:round;stroke-miterlimit:1.41421;">
    <g transform="matrix(1,0,0,1,0,-0.00415471)">
        <path d="M94.747,9.011L87.457,9.011L87.457,7.495L10.768,7.495C10.456,7.495 10.21,7.539 9.898,7.606L9.876,7.606L9.497,7.74L9.43,7.762L9.386,7.785L9.319,7.829L9.029,7.985L8.962,8.007L8.962,8.03L8.828,8.097L8.717,8.186L8.672,8.23L8.605,8.275L8.561,8.297L8.561,8.32L8.516,8.364L8.449,8.409L8.405,8.453L8.36,8.498L8.249,8.609L8.226,8.654L8.159,8.721L8.115,8.743L8.137,8.743L8.07,8.81L8.048,8.832L8.048,8.855L8.003,8.899L8.003,8.922L7.959,8.966L7.936,9.011L0.29,9.011L0.29,8.498C1.427,3.638 5.707,0.004 10.768,0.004L94.747,0.004L94.747,9.011Z" style="fill:rgb(227,228,229);fill-rule:nonzero;"/>
    </g>
    <g transform="matrix(1,0,0,1,0,-0.00415471)">
        <path d="M87.457,7.517L94.747,3.593L94.747,11.084L87.479,14.985L87.457,14.985L87.457,7.517Z" style="fill:url(#_Linear1);fill-rule:nonzero;"/>
    </g>
    <g transform="matrix(1,0,0,1,0,-0.00415471)">
        <path d="M2.006,4.663L8.672,8.23L8.605,8.275L8.561,8.297L8.561,8.32L8.516,8.364L8.449,8.409L8.405,8.453L8.36,8.498L8.249,8.609L8.226,8.654L8.159,8.721L8.115,8.743L8.137,8.743L8.07,8.81L8.048,8.832L8.048,8.855L8.003,8.899L8.003,8.922L7.959,8.966L7.892,9.078L7.87,9.1L7.803,9.211L7.758,9.278L7.758,9.3L7.602,9.568L7.602,9.59L7.58,9.657L7.557,9.702L7.535,9.746L7.535,9.769L7.401,10.192C7.401,10.17 7.29,10.772 7.29,11.062L7.29,14.985L0,11.084L0,11.062C0,8.676 0.736,6.469 2.006,4.663Z" style="fill:url(#_Linear2);fill-rule:nonzero;"/>
    </g>
    <g transform="matrix(1,0,0,1,0,-0.00415471)">
        <rect x="14.58" y="14.985" width="65.587" height="7.491" style="fill:rgb(147,146,146);fill-rule:nonzero;"/>
    </g>
    <g transform="matrix(1,0,0,1,0,-0.00415471)">
        <path d="M0,88.375L7.29,88.375L7.29,89.869L83.979,89.869C84.291,89.869 84.537,89.847 84.826,89.757L84.849,89.757L85.25,89.624L85.295,89.601L85.339,89.579L85.428,89.557L85.696,89.401L85.763,89.356L85.785,89.356L85.896,89.267L86.008,89.2L86.008,89.178L86.075,89.133L86.142,89.089L86.164,89.066L86.231,89.022L86.298,88.955L86.32,88.933L86.32,88.91L86.365,88.888L86.476,88.776L86.476,88.754L86.521,88.732L86.565,88.665L86.61,88.62L86.654,88.554L86.677,88.531L86.721,88.464L86.766,88.397L86.788,88.397L86.81,88.375L94.435,88.375L94.435,88.888C93.298,93.748 89.04,97.359 83.979,97.359L0,97.359L0,89.958L0,89.869L0,88.375Z" style="fill:rgb(227,228,229);fill-rule:nonzero;"/>
    </g>
    <g transform="matrix(1,0,0,1,0,-0.00415471)">
        <path d="M7.29,89.869L0,93.77L0,89.958L0,89.869L0,86.28L7.245,82.378L7.29,82.378L7.29,89.869Z" style="fill:url(#_Linear3);fill-rule:nonzero;"/>
    </g>
    <g transform="matrix(1,0,0,1,0,-0.00415471)">
        <path d="M92.741,92.7L86.075,89.133L86.142,89.089L86.164,89.066L86.231,89.022L86.298,88.955L86.32,88.933L86.32,88.91L86.365,88.888L86.476,88.776L86.476,88.754L86.521,88.732L86.565,88.665L86.61,88.62L86.654,88.554L86.677,88.531L86.721,88.464L86.766,88.397L86.788,88.397L86.855,88.286L86.944,88.152L86.989,88.085L87.123,87.796L87.145,87.773L87.167,87.729L87.167,87.706L87.189,87.662L87.189,87.639L87.212,87.617L87.346,87.194C87.346,87.194 87.457,86.592 87.457,86.302L87.457,82.401L94.747,86.28L94.747,86.302C94.725,88.687 93.989,90.894 92.741,92.7Z" style="fill:url(#_Linear4);fill-rule:nonzero;"/>
    </g>
    <g transform="matrix(1,0,0,1,0,-0.00415471)">
        <rect x="7.29" y="29.966" width="28.023" height="7.491" style="fill:rgb(170,171,171);fill-rule:nonzero;"/>
    </g>
    <g transform="matrix(1,0,0,1,0,-0.00415471)">
        <path d="M21.156,37.457L7.29,30.011L7.29,29.966L21.402,29.966L35.313,37.412L35.313,37.457L21.156,37.457Z" style="fill:url(#_Linear5);fill-rule:nonzero;"/>
    </g>
    <g transform="matrix(1,0,0,1,0,-0.00415471)">
        <rect x="59.412" y="29.966" width="28.045" height="7.491" style="fill:rgb(170,171,171);fill-rule:nonzero;"/>
    </g>
    <g transform="matrix(1,0,0,1,0,-0.00415471)">
        <path d="M73.568,37.457L87.457,30.011L87.457,29.966L73.323,29.966L59.412,37.412L59.412,37.457L73.568,37.457Z" style="fill:url(#_Linear6);fill-rule:nonzero;"/>
    </g>
    <g transform="matrix(1,0,0,1,0,-0.00415471)">
        <rect x="59.412" y="59.929" width="28.045" height="7.491" style="fill:rgb(170,171,171);fill-rule:nonzero;"/>
    </g>
    <g transform="matrix(1,0,0,1,0,-0.00415471)">
        <path d="M73.568,59.929L87.457,67.352L87.457,67.419L73.323,67.419L59.412,59.951L59.412,59.929L73.568,59.929Z" style="fill:url(#_Linear7);fill-rule:nonzero;"/>
    </g>
    <g transform="matrix(1,0,0,1,0,-0.00415471)">
        <rect x="7.29" y="59.929" width="28.023" height="7.491" style="fill:rgb(170,171,171);fill-rule:nonzero;"/>
    </g>
    <g transform="matrix(1,0,0,1,0,-0.00415471)">
        <path d="M21.156,59.929L7.29,67.352L7.29,67.419L21.402,67.419L35.313,59.951L35.313,59.929L21.156,59.929Z" style="fill:url(#_Linear8);fill-rule:nonzero;"/>
    </g>
    <g transform="matrix(1,0,0,1,0,-0.00415471)">
        <path d="M35.313,37.457L0,18.552L0,11.062L35.313,29.966L35.313,37.457Z" style="fill:url(#_Linear9);fill-rule:nonzero;"/>
    </g>
    <g transform="matrix(1,0,0,1,0,-0.00415471)">
        <path d="M59.412,37.457L94.747,18.552L94.747,11.062L59.412,29.966L59.412,37.457Z" style="fill:url(#_Linear10);fill-rule:nonzero;"/>
    </g>
    <g transform="matrix(1,0,0,1,0,-0.00415471)">
        <rect x="14.714" y="74.91" width="65.587" height="7.468" style="fill:rgb(147,146,146);fill-rule:nonzero;"/>
    </g>
    <g transform="matrix(1,0,0,1,0,-0.00415471)">
        <path d="M59.412,59.929L94.747,78.811L94.747,86.302L59.412,67.419L59.412,59.929Z" style="fill:url(#_Linear11);fill-rule:nonzero;"/>
    </g>
    <g transform="matrix(1,0,0,1,0,-0.00415471)">
        <path d="M35.313,59.929L0,78.811L0,86.302L35.313,67.419L35.313,59.929Z" style="fill:url(#_Linear12);fill-rule:nonzero;"/>
    </g>
    <g transform="matrix(1,0,0,1,0,-0.00415471)">
        <path d="M94.747,44.948L73.412,44.948L80.145,41.336L80.145,33.846L59.412,44.948L59.412,52.438L59.434,52.438L80.167,63.518L80.167,56.027L73.434,52.438L94.747,52.438L94.747,44.948Z" style="fill:rgb(217,79,0);fill-rule:nonzero;"/>
    </g>
    <g transform="matrix(1,0,0,1,0,-0.00415471)">
        <path d="M14.58,33.846L14.58,41.336L21.335,44.948L0,44.948L0,52.438L21.312,52.438L14.58,56.027L14.58,63.518L35.313,52.438L35.313,52.416L35.313,44.948L14.58,33.846Z" style="fill:rgb(217,79,0);fill-rule:nonzero;"/>
    </g>
    <defs>
        <linearGradient id="_Linear1" x1="0" y1="0" x2="1" y2="0" gradientUnits="userSpaceOnUse" gradientTransform="matrix(1.65841,5.84056,-5.84056,1.65841,90.2635,6.36912)"><stop offset="0" style="stop-color:rgb(228,228,228);stop-opacity:1"/><stop offset="1" style="stop-color:rgb(162,162,162);stop-opacity:1"/></linearGradient>
        <linearGradient id="_Linear2" x1="0" y1="0" x2="1" y2="0" gradientUnits="userSpaceOnUse" gradientTransform="matrix(-2.29154,5.81958,-5.81958,-2.29154,5.47686,6.9145)"><stop offset="0" style="stop-color:rgb(228,228,228);stop-opacity:1"/><stop offset="1" style="stop-color:rgb(162,162,162);stop-opacity:1"/></linearGradient>
        <linearGradient id="_Linear3" x1="0" y1="0" x2="1" y2="0" gradientUnits="userSpaceOnUse" gradientTransform="matrix(-1.65885,-5.83931,5.83931,-1.65885,4.4731,91.0027)"><stop offset="0" style="stop-color:rgb(228,228,228);stop-opacity:1"/><stop offset="1" style="stop-color:rgb(162,162,162);stop-opacity:1"/></linearGradient>
        <linearGradient id="_Linear4" x1="0" y1="0" x2="1" y2="0" gradientUnits="userSpaceOnUse" gradientTransform="matrix(2.29131,-5.81924,5.81924,2.29131,89.2594,90.4576)"><stop offset="0" style="stop-color:rgb(228,228,228);stop-opacity:1"/><stop offset="1" style="stop-color:rgb(162,162,162);stop-opacity:1"/></linearGradient>
        <linearGradient id="_Linear5" x1="0" y1="0" x2="1" y2="0" gradientUnits="userSpaceOnUse" gradientTransform="matrix(-46.185,-12.0168,12.0168,-46.185,44.3937,39.7156)"><stop offset="0" style="stop-color:rgb(170,171,171);stop-opacity:1"/><stop offset="0.1" style="stop-color:rgb(170,171,171);stop-opacity:1"/><stop offset="1" style="stop-color:rgb(78,78,78);stop-opacity:1"/></linearGradient>
        <linearGradient id="_Linear6" x1="0" y1="0" x2="1" y2="0" gradientUnits="userSpaceOnUse" gradientTransform="matrix(46.1861,-12.0159,12.0159,46.1861,50.342,39.7152)"><stop offset="0" style="stop-color:rgb(170,171,171);stop-opacity:1"/><stop offset="0.1" style="stop-color:rgb(170,171,171);stop-opacity:1"/><stop offset="1" style="stop-color:rgb(78,78,78);stop-opacity:1"/></linearGradient>
        <linearGradient id="_Linear7" x1="0" y1="0" x2="1" y2="0" gradientUnits="userSpaceOnUse" gradientTransform="matrix(46.1854,12.0159,-12.0159,46.1854,50.3425,57.6569)"><stop offset="0" style="stop-color:rgb(170,171,171);stop-opacity:1"/><stop offset="0.1" style="stop-color:rgb(170,171,171);stop-opacity:1"/><stop offset="1" style="stop-color:rgb(78,78,78);stop-opacity:1"/></linearGradient>
        <linearGradient id="_Linear8" x1="0" y1="0" x2="1" y2="0" gradientUnits="userSpaceOnUse" gradientTransform="matrix(-46.1844,12.0166,-12.0166,-46.1844,44.3935,57.6564)"><stop offset="0" style="stop-color:rgb(170,171,171);stop-opacity:1"/><stop offset="0.1" style="stop-color:rgb(170,171,171);stop-opacity:1"/><stop offset="1" style="stop-color:rgb(78,78,78);stop-opacity:1"/></linearGradient>
        <linearGradient id="_Linear9" x1="0" y1="0" x2="1" y2="0" gradientUnits="userSpaceOnUse" gradientTransform="matrix(35.3155,0,0,35.3155,-0.000283467,24.2587)"><stop offset="0" style="stop-color:rgb(254,254,254);stop-opacity:1"/><stop offset="0.23" style="stop-color:rgb(254,254,254);stop-opacity:1"/><stop offset="1" style="stop-color:rgb(176,176,176);stop-opacity:1"/></linearGradient>
        <linearGradient id="_Linear10" x1="0" y1="0" x2="1" y2="0" gradientUnits="userSpaceOnUse" gradientTransform="matrix(-35.3154,4.32489e-15,-4.32489e-15,-35.3154,94.736,24.2587)"><stop offset="0" style="stop-color:rgb(254,254,254);stop-opacity:1"/><stop offset="0.23" style="stop-color:rgb(254,254,254);stop-opacity:1"/><stop offset="1" style="stop-color:rgb(176,176,176);stop-opacity:1"/></linearGradient>
        <linearGradient id="_Linear11" x1="0" y1="0" x2="1" y2="0" gradientUnits="userSpaceOnUse" gradientTransform="matrix(-35.3154,4.32489e-15,-4.32489e-15,-35.3154,94.736,73.1133)"><stop offset="0" style="stop-color:rgb(254,254,254);stop-opacity:1"/><stop offset="0.23" style="stop-color:rgb(254,254,254);stop-opacity:1"/><stop offset="1" style="stop-color:rgb(176,176,176);stop-opacity:1"/></linearGradient>
        <linearGradient id="_Linear12" x1="0" y1="0" x2="1" y2="0" gradientUnits="userSpaceOnUse" gradientTransform="matrix(35.3155,0,0,35.3155,-0.000283467,73.1133)"><stop offset="0" style="stop-color:rgb(254,254,254);stop-opacity:1"/><stop offset="0.23" style="stop-color:rgb(254,254,254);stop-opacity:1"/><stop offset="1" style="stop-color:rgb(176,176,176);stop-opacity:1"/></linearGradient>
    </defs>
</svg>
