<svg xmlns="http://www.w3.org/2000/svg" viewBox="0 0 256 33.28" version="1"><path d="M110.517 21.651h16.916l-8.944-14.39-16.417 26.019h-7.471l19.968-31.254C115.437.763 116.884 0 118.489 0c1.552 0 2.999.737 3.84 1.973l20.047 31.307h-7.471l-3.526-5.815h-17.126l-3.736-5.814zm77.609 5.814V.315h-6.34v29.808c0 .815.315 1.604.92 2.21a3.24 3.24 0 0 0 2.315.947h28.913l3.735-5.815h-29.543zM83.236 22.6c6.156 0 11.154-4.973 11.154-11.129S89.392.316 83.236.316H55.499V33.28h6.338V6.13h20.978c2.946 0 5.314 2.394 5.314 5.34 0 2.947-2.368 5.34-5.314 5.34l-17.874-.026L83.867 33.28h9.208L80.342 22.599h2.894zM16.485 33.28C7.385 33.28 0 25.914 0 16.812 0 7.708 7.385.316 16.485.316h19.16c9.102 0 16.482 7.392 16.482 16.495 0 9.102-7.38 16.469-16.482 16.469h-19.16zm18.733-5.814c5.896 0 10.671-4.761 10.671-10.654S41.114 6.13 35.22 6.13H16.91c-5.894 0-10.671 4.788-10.671 10.68 0 5.894 4.777 10.655 10.67 10.655h18.31zm120.39 5.815c-9.102 0-16.494-7.367-16.494-16.47 0-9.102 7.392-16.494 16.495-16.494h22.756l-3.71 5.814H156.03c-5.893 0-10.681 4.788-10.681 10.68 0 5.894 4.788 10.655 10.68 10.655h22.862l-3.735 5.815h-19.547zm77.53-5.815a10.654 10.654 0 0 1-10.26-7.76h27.098l3.735-5.814h-30.833c1.263-4.473 5.393-7.761 10.26-7.761h18.6L255.5.316h-22.782c-9.103 0-16.495 7.392-16.495 16.495 0 9.102 7.392 16.469 16.495 16.469h19.546L256 27.465h-22.862" fill="#ea1b22"/></svg>