<svg xmlns="http://www.w3.org/2000/svg" xml:space="preserve" viewBox="0 0 1000 210"><defs><linearGradient id="b" x1="0" x2="1" y1="0" y2="0" gradientTransform="rotate(29.56 -324.22 433.712) scale(202.76384)" gradientUnits="userSpaceOnUse" spreadMethod="pad"><stop offset="0" stop-color="#5cb9e9"/><stop offset=".902" stop-color="#0061a7"/><stop offset="1" stop-color="#0061a7"/></linearGradient><linearGradient id="d" x1="0" x2="1" y1="0" y2="0" gradientTransform="matrix(-103.97642 -59.3071 59.3071 -103.97644 324.104 253.57)" gradientUnits="userSpaceOnUse" spreadMethod="pad"><stop offset="0" stop-color="#84cfec"/><stop offset="1" stop-color="#0056a5"/></linearGradient><linearGradient id="f" x1="0" x2="1" y1="0" y2="0" gradientTransform="matrix(123.9854 0 0 -123.9854 100.665 168.615)" gradientUnits="userSpaceOnUse" spreadMethod="pad"><stop offset="0" stop-color="#84cfec"/><stop offset="1" stop-color="#0056a5"/></linearGradient><linearGradient id="g" x1="0" x2="1" y1="0" y2="0" gradientTransform="matrix(123.9854 0 0 -123.9854 100.665 168.615)" gradientUnits="userSpaceOnUse" spreadMethod="pad"><stop offset="0" stop-color="#84cfec"/><stop offset="1" stop-color="#0056a5"/></linearGradient><linearGradient id="h" x1="0" x2="1" y1="0" y2="0" gradientTransform="rotate(82.919 46.4 192.3) scale(257.77562)" gradientUnits="userSpaceOnUse" spreadMethod="pad"><stop offset="0" stop-color="#84cfec"/><stop offset=".29" stop-color="#0056a5"/><stop offset=".939" stop-color="#0056a5"/><stop offset="1" stop-color="#0056a5"/></linearGradient><clipPath id="c" clipPathUnits="userSpaceOnUse"><path d="M136.085 263.352h124.178V155.701H136.085Z"/></clipPath><clipPath id="e" clipPathUnits="userSpaceOnUse"><path d="M100.665 222.498H224.65V114.731H100.665Z"/></clipPath><radialGradient id="a" cx="0" cy="0" r="1" fx="0" fy="0" gradientTransform="translate(240.866 345.401) scale(130.14829)" gradientUnits="userSpaceOnUse" spreadMethod="pad"><stop offset="0" stop-color="#84cfec"/><stop offset=".725" stop-color="#0056a5"/><stop offset="1" stop-color="#0056a5"/></radialGradient></defs><path fill="#4f5569" d="M530.233 73.305v27.139l61.516.052-3.74 17.611h-57.776v38.847h-28.11V55.628h99.163l-3.757 17.677zm263.055-17.678-47.701 101.327h20.311l9.368-20.485h54.094l9.706 20.485h32.22s-41.968-83.675-45.453-90.829c-3.723-7.61-6.417-10.498-13.592-10.498zm8.565 22.743 19.138 40.427h-37.637zM410.231 55.627 362.52 156.954h20.324l9.367-20.485h54.095L456 156.954h32.23s-41.98-83.675-45.465-90.829c-3.712-7.61-6.404-10.498-13.59-10.498zm8.567 22.743 19.138 40.427h-37.637zm-115.233 81.817c36.23 0 52.978-13.269 52.978-32.556 0-16.87-15.178-25.447-48.497-34.546-19.836-5.417-32.2-6.567-32.2-13.25 0-6.424 11.59-9.85 29.38-8.97 22.329 1.106 36.623 10.48 36.623 10.48l8.787-14.033s-20.039-14.917-52.048-14.917c-34.853 0-53.146 10.625-53.146 30.128 0 19.297 20.82 25.965 51.22 34.667 18.7 5.353 29.476 6.35 29.476 13.5 0 5.491-5.638 12.427-30.487 11.187-23.917-1.192-44.659-14.99-44.659-14.99l-10.596 12.893s22.772 20.407 63.17 20.407M979.242 55.628v60.442l-64.218-51.252c-8.753-6.98-12.782-9.19-22.591-9.19h-7.248v101.328h20.772V97.378l63.747 50.845c8.752 6.982 13.24 8.733 23.049 8.733H1000V55.628Zm-360.526-.001v101.327h28.107v-34.292h30.807s11.443 15.11 15.99 21.07c4.126 5.406 10.998 13.222 22.298 13.222h18.997l-29.83-37.463c13.155-3.832 23.752-12.212 23.752-30.341v-.011c-.012-31.189-31.32-33.512-53.173-33.512H647.15zm28.107 17.466.326.207h29.668c14.915 0 21.612 5.21 21.612 15.839v.01c0 10.628-6.697 15.84-21.612 15.84h-29.668l-.326.206z"/><path fill="url(#a)" d="M124.455 308.629c20.696 43.487 65.043 73.545 116.412 73.545 51.363 0 95.711-30.058 116.408-73.545h-2.798c-25.543 35.053-66.918 57.84-113.61 57.84-46.696 0-88.07-22.787-113.613-57.84z" transform="translate(-101.329 -101.332) scale(.81418)"/><path fill="url(#b)" d="M209.729 155.494c-.458 0-25.593.087-51.014 19.088-15.265 11.42-21.544 23.135-23.72 33.85-10.776 53.02 94.044 74.1 134.208 87.18 21.99 7.162 24.986 16.754 24.805 24.349-.427 17.75-25.47 33.694-25.58 33.695 20.412-.32 48.051-12.467 64.691-31.177 6.23-6.996 11.88-16.587 13.104-23.45 6.062-31.684-23.441-47.902-58.243-60.049-27.169-9.477-49.595-16.028-68.654-21.892-30.273-9.313-35.401-18.223-35.168-27.86.27-11.229 12.12-25.397 25.578-33.734z" transform="translate(-101.329 -101.332) scale(.81418)"/><g clip-path="url(#c)" opacity=".7" transform="matrix(1.08558 0 0 -1.08558 -101.329 311.157)"><path fill="url(#d)" d="M209.736 155.494c-19.586 12.077-26.189 23.698-27.916 32.387-2.352 11.796 6.092 21.759 35.104 30.832 19.018 5.948 41.469 12.399 68.65 21.883 22.788 7.956 42.403 16.367 52.87 30.25 9.725 12.898 7.779 28.183 7.779 28.183 6.062-31.684-23.441-47.902-58.243-60.049-27.169-9.477-49.595-16.028-68.654-21.892-30.273-9.315-35.402-18.223-35.17-27.86.27-11.229 12.122-25.397 25.58-33.734z" transform="matrix(.75 0 0 -.75 0 379.973)"/></g><g clip-path="url(#e)" opacity=".7" transform="matrix(1.08558 0 0 -1.08558 -101.329 311.157)"><path fill="url(#g)" d="M203.589 160.925c-8.902 2.572-19.828 5.815-32.856 9.684-10.031 2.975-22.802 7.516-34.679 12.772-31.816 14.068-35.838 31.121-35.021 39.117-6.346-38.921 71.039-54.519 100.869-64.234 16.493-5.372 18.741-12.565 18.604-18.261-.31-12.879-17.898-24.49-19.116-25.232 2.524 1.441 20.814 12.194 22.888 23.463 1.957 10.736-3.646 17.804-20.689 22.691"/></g><path fill="url(#h)" d="M240.867 124.459c-51.37 0-95.716 30.058-116.412 73.543h2.799c25.544-35.052 66.917-57.836 113.613-57.836 46.692 0 88.067 22.784 113.61 57.836h2.798c-20.697-43.485-65.045-73.543-116.408-73.543z" transform="translate(-101.329 -101.332) scale(.81418)"/></svg>