<svg xmlns="http://www.w3.org/2000/svg" version="1.2"><defs><linearGradient id="b" x1="277.7" x2="1315.2" y1="540.5" y2="1128.9" gradientUnits="userSpaceOnUse"><stop offset="0" stop-color="#7fb8e7"/><stop offset=".1" stop-color="#70acdd"/><stop offset=".7" stop-color="#2c76b3"/><stop offset="1" stop-color="#1261a3"/></linearGradient><linearGradient id="c" x1="1174" x2="562.4" y1="759.6" y2="410.7" gradientUnits="userSpaceOnUse"><stop offset="0" stop-color="#9dceea"/><stop offset="1" stop-color="#2257a1"/></linearGradient><linearGradient id="d" x1="1089" x2="1018.9" y1="687.9" y2="804.5" gradientUnits="userSpaceOnUse"><stop offset=".1" stop-color="#fff"/><stop offset="1" stop-color="#fff" stop-opacity="0"/></linearGradient><linearGradient id="e" x1="787" x2="1146.2" y1="923.9" y2="1209.7" gradientUnits="userSpaceOnUse"><stop offset="0" stop-color="#fff"/><stop offset="1" stop-color="#0e69b1"/></linearGradient><linearGradient id="f" x1="57.1" x2="1029.5" y1="1024.1" y2="1024.1" gradientUnits="userSpaceOnUse"><stop offset="0" stop-color="#9dceea"/><stop offset="1" stop-color="#2257a1"/></linearGradient><linearGradient id="g" x1="57.1" x2="1029.5" y1="925.3" y2="925.3" gradientUnits="userSpaceOnUse"><stop offset="0" stop-color="#9dceea"/><stop offset="1" stop-color="#2257a1"/></linearGradient><linearGradient id="h" x1="629.2" x2="815.9" y1="-11.7" y2="1491.6" gradientUnits="userSpaceOnUse"><stop offset="0" stop-color="#9dceea"/><stop offset=".1" stop-color="#87b9dd"/><stop offset=".1" stop-color="#689bcb"/><stop offset=".3" stop-color="#4e82bb"/><stop offset=".4" stop-color="#3a6fb0"/><stop offset=".5" stop-color="#2c61a7"/><stop offset=".7" stop-color="#2459a2"/><stop offset=".9" stop-color="#2257a1"/></linearGradient><radialGradient id="a" cx="684.4" cy="1299" r="765.5" gradientUnits="userSpaceOnUse"><stop offset="0" stop-color="#9dceea"/><stop offset="0" stop-color="#9bcce9"/><stop offset=".3" stop-color="#679aca"/><stop offset=".6" stop-color="#4176b4"/><stop offset=".9" stop-color="#2a5fa6"/><stop offset="1" stop-color="#2257a1"/></radialGradient></defs><path d="M684.8 1515.6c-301.9 0-563.1-177-684.7-432.4h16.5c149.8 206 393.7 340 668.2 340 274.5 0 517.6-134 668.2-340h16.4c-122.3 255.4-382.7 431.7-684.6 432.4z" style="fill:url(#a)"/><path d="M845.6 1348.8c.7 0 148.2-94.1 150.5-198.3.8-44.6-16.4-101-145.8-143.3C613.4 930.4-3 806.6 60.5 494.7c12.6-62.6 50.2-131.6 139.6-199 151.4-112.8 300.4-112 300.4-112-79.2 49.4-149 132.4-150.6 198.2-1.6 56.4 29 108.9 207.1 163.8 112.1 34.4 243.9 72.8 403.8 128.5 204.7 71.3 378.1 166.1 342.8 352.5-7.1 40.8-40 97.2-76.9 137.9-97.2 109.7-260.4 181-381.1 184.2z" style="fill:url(#b)"/><path d="M1304.4 1026.7c35.2-186.4-138.1-281.2-342.8-352.5-160-55.7-291.7-94.1-403.9-128.5-178-54.9-208.6-107.4-207-163.8 1.6-65.8 71.4-148.8 150.6-198.2C386 255 347.6 323.2 337.4 374.1c-14.2 68.9 36 127.7 206.2 181 112.2 35.2 243.9 72.8 403.9 128.5 134.1 47 249.4 96.3 311.4 177.8 56.4 75.2 45.5 165.3 45.5 165.3z" style="opacity:.7;fill:url(#c)"/><path d="M946.7 683.6c193.7 66.6 374.9 154.3 350.6 328.3-12.6 89.3-93.3 124.5-97.3 130 29.1-39.2 33.8-55.6 40.8-92.4C1270.6 870 1110.6 795.6 935 738.4c-52.6-17.2-116.9-39.2-165.5-54.8-99.6-32.9-75.3-83.1 9.4-56.4 54.9 17.2 119.2 39.1 167.8 56.4z" style="opacity:.8;fill:url(#d)"/><path d="M1200 1141.1c-79.2 108.9-250.9 196.7-353.7 206.1 18.1-10.2 164-94.8 180.4-184.1 15.7-83.9-28.2-139.5-162.3-177.9-27.5-7.8-56.5-16.4-88.6-25.8l159.2-221c175.6 57.2 335.6 131.6 305.8 311.1-7 36-11.7 53.2-40.8 91.6z" style="opacity:.3;fill:url(#e)"/><g style="opacity:.7"><path d="M847.1 1347.2s-.8 0 0 0q-1.1 0 0 0z" style="fill:url(#f)"/><path d="M864.4 985.2c-69.8-20.4-155.3-45.4-258-76-78.5-23.5-178.8-58.7-272.2-100.3C84.8 698.5 53.5 565.3 59.7 502.6c-49.4 304.8 556.9 427 791.4 503 129.4 42.3 146.6 98.7 145.8 143.4-2.3 101-140.4 191.9-149.8 197.4 19.6-11 163.2-95.6 179.6-184.1 14.9-83.1-29-138.7-162.3-177.1z" style="fill:url(#g)"/></g><path d="M1369.4 432.8H1353c-150.6-206-393.7-340-668.2-340-274.5 0-518.4 134-668.2 340H.1C121.7 177.4 382.9.4 684.8.4c301.9 0 562.3 177 684.6 432.4z" style="fill:url(#h)"/></svg>