<?xml version="1.0" encoding="UTF-8"?>
<svg id="Layer_1" xmlns="http://www.w3.org/2000/svg" viewBox="0 0 506.51 42.93">
  <defs>
    <style>
      .cls-1, .cls-2 {
        fill: #bcd640;
      }

      .cls-3, .cls-2 {
        fill-rule: evenodd;
      }

      .cls-3, .cls-4 {
        fill: #00295f;
      }
    </style>
  </defs>
  <path class="cls-4" d="M14.42,26.65H3.84v14.6H.93V2.09h14.21c8.62,0,14.55,4.42,14.55,11.97v.11c0,8.22-7.11,12.48-15.27,12.48ZM26.78,14.23c0-6.21-4.81-9.46-11.86-9.46H3.84v19.19h10.74c7.27,0,12.2-3.8,12.2-9.62v-.11Z"/>
  <path class="cls-4" d="M72.72,41.25l-4.98-10.97h-23.11l-4.98,10.97h-3.02L54.87,1.81h2.8l18.24,39.45h-3.19ZM56.22,5l-10.35,22.66h20.65l-10.3-22.66Z"/>
  <path class="cls-4" d="M105.29,41.92c-11.19,0-19.47-8.9-19.47-20.14v-.11c0-11.08,8.28-20.25,19.58-20.25,6.99,0,11.19,2.57,15.22,6.27l-2.07,2.13c-3.41-3.3-7.33-5.76-13.2-5.76-9.4,0-16.51,7.67-16.51,17.51v.11c0,9.9,7.22,17.62,16.56,17.62,5.65,0,9.51-2.18,13.48-6.1l1.96,1.9c-4.14,4.08-8.62,6.83-15.55,6.83Z"/>
  <path class="cls-4" d="M163.2,41.25l-16.11-19.81-9.74,9.85v9.96h-2.91V2.09h2.91v25.74l24.95-25.74h3.97l-17.12,17.29,17.85,21.88h-3.8Z"/>
  <path class="cls-4" d="M180.04,41.25V2.09h27.86v2.69h-24.95v15.39h22.44v2.69h-22.44v15.72h25.23v2.69h-28.14Z"/>
  <path class="cls-4" d="M236.89,4.77v36.48h-2.91V4.77h-13.65v-2.69h30.21v2.69h-13.65Z"/>
  <path class="cls-1" d="M280.9,29.5h-6.55v11.75h-8.62V2.09h16c9.34,0,14.99,5.54,14.99,13.54v.11c0,9.06-7.05,13.76-15.83,13.76ZM288,15.79c0-3.86-2.69-5.93-6.99-5.93h-6.66v11.97h6.83c4.31,0,6.83-2.57,6.83-5.93v-.11Z"/>
  <path class="cls-1" d="M402.65,41.53h-7.5l-8.84-25.63-8.84,25.63h-7.5l-13.37-39.45h9.23l8.11,26.52,8.78-26.63h7.39l8.78,26.63,8.11-26.52h9.01l-13.37,39.45Z"/>
  <path class="cls-1" d="M428,41.25V2.09h29.54v7.67h-20.98v7.95h18.46v7.66h-18.46v8.23h21.26v7.67h-29.82Z"/>
  <path class="cls-1" d="M494.86,41.25l-8.39-12.53h-6.77v12.53h-8.62V2.09h17.9c9.23,0,14.77,4.87,14.77,12.93v.11c0,6.32-3.41,10.3-8.39,12.14l9.57,13.99h-10.07ZM495.03,15.46c0-3.69-2.57-5.6-6.77-5.6h-8.56v11.25h8.73c4.2,0,6.6-2.24,6.6-5.54v-.11Z"/>
  <path class="cls-2" d="M329.77,1.58c10.22,1.01,18.2,9.64,18.2,20.12s-7.98,19.11-18.2,20.12v-8.16c5.74-.96,10.11-5.95,10.11-11.96s-4.37-11-10.11-11.96V1.58h0Z"/>
  <path class="cls-3" d="M327.75,41.92c-11.17,0-20.22-9.05-20.22-20.22s9.05-20.22,20.22-20.22v10.11h0c5.58,0,10.11,4.53,10.11,10.11s-4.53,10.11-10.11,10.11h0s0,10.11,0,10.11h0Z"/>
</svg>