<svg xmlns="http://www.w3.org/2000/svg" viewBox="0 0 153 158"><path fill="#406E88" d="M141.6 84.5c.6-3.4 3.8-6.2 7.2-6.3l.4-49.1c.1-12.6-10-23-22.5-23.1l-99.8-.9C14.3 5 4.1 15.2 4 27.9l-.8 100.9c-.1 12.7 10 23 22.5 23.1l99.9.8c12.5.1 22.7-10.1 22.8-22.7l.3-31.9c-1 .6-2.2.9-3.3.9-3.5 0-5.8-2.9-5.2-6.4l1.4-8.1M23.2 96.2l-1.4 8.1c-.6 3.5-4 6.4-7.5 6.3-3.5 0-5.8-2.9-5.2-6.4l1.5-8.1c.6-3.5 4-6.4 7.5-6.3 3.4 0 5.7 2.9 5.1 6.4m21.4.2l-5.1 28.3c-.6 3.5-4 6.4-7.5 6.3-3.5 0-5.8-2.9-5.2-6.4L32 96.3c.6-3.5 4-6.4 7.5-6.3 3.5 0 5.8 2.9 5.1 6.4m23.8-12.7l-9.8 54.2c-.6 3.5-4 6.4-7.5 6.3-3.5 0-5.8-2.9-5.2-6.4l9.8-54.2c.6-3.5 4-6.4 7.5-6.3 3.6 0 5.9 2.8 5.2 6.4M94.6 58l-13.2 73c-.6 3.5-4 6.3-7.5 6.3s-5.8-2.9-5.2-6.4l13.2-73c.6-3.5 4-6.3 7.5-6.3 3.5.1 5.8 3 5.2 6.4m22.7-6.7l-9.8 54.2c-.6 3.5-4 6.4-7.5 6.3s-5.8-2.9-5.2-6.4l9.8-54.2c.6-3.5 4-6.4 7.5-6.3 3.5 0 5.8 2.9 5.2 6.4m19.1 13.2l-5.1 28.3c-.6 3.5-4 6.4-7.5 6.3-3.5 0-5.8-2.9-5.2-6.4l5.1-28.3c.6-3.5 4-6.4 7.5-6.3 3.5 0 5.9 2.9 5.2 6.4"/></svg>