<?xml version="1.0" encoding="utf-8"?>
<!-- Generator: Adobe Illustrator 18.1.1, SVG Export Plug-In . SVG Version: 6.00 Build 0)  -->
<svg version="1.1" id="Calque_1" xmlns="http://www.w3.org/2000/svg" xmlns:xlink="http://www.w3.org/1999/xlink" x="0px" y="0px"
	 width="32px" height="32px" viewBox="0 0 32 32" enable-background="new 0 0 32 32" xml:space="preserve">
<g>
	<polyline fill="#346D87" points="31.9,18.2 2.3,24.5 0.1,13.8 29.7,7.5 31.9,18.2 	"/>
	<path fill="#FFFFFF" d="M20.6,18.7l0.2,0c0,0-0.1-0.6-0.1-0.7c0.1,0,0.7,0.6,0.7,0.6l0.2,0l-0.2-0.9l-0.2,0c0,0,0.1,0.6,0.1,0.7
		c-0.1,0-0.7-0.6-0.7-0.6l-0.2,0L20.6,18.7"/>
	<path fill="#FFFFFF" d="M21.7,18.5l0.7-0.2l0-0.1c0,0-0.5,0.1-0.6,0.1l-0.1-0.3l0.5-0.1l0-0.1l-0.5,0.1c0,0,0-0.2,0-0.2
		c0,0,0.6-0.1,0.6-0.1l0-0.1l-0.7,0.2L21.7,18.5"/>
	<path fill="#FFFFFF" d="M22.4,17.6c0,0,0.3-0.1,0.3-0.1c0,0,0.2,0.8,0.2,0.8l0.2,0c0,0-0.2-0.7-0.2-0.8c0,0,0.3-0.1,0.3-0.1l0-0.1
		l-0.8,0.2L22.4,17.6"/>
	<path fill="#FFFFFF" d="M23.8,18.1l0.2,0c0,0,0.1-0.7,0.1-0.7c0,0.1,0.4,0.7,0.4,0.7l0.2,0l0.1-1l-0.2,0c0,0-0.1,0.6-0.1,0.7
		c0-0.1-0.4-0.6-0.4-0.6l-0.2,0c0,0-0.1,0.6-0.1,0.7c0-0.1-0.4-0.6-0.4-0.6l-0.2,0L23.8,18.1"/>
	<path fill="#FFFFFF" d="M25.2,16.8c-0.2,0-0.3,0.1-0.3,0.2c-0.1,0.1-0.1,0.2-0.1,0.4c0,0.1,0.1,0.2,0.2,0.3
		c0.1,0.1,0.2,0.1,0.4,0.1c0.4-0.1,0.4-0.4,0.4-0.6C25.8,17,25.6,16.7,25.2,16.8 M25.1,17.6c-0.1,0-0.1-0.1-0.1-0.2l0,0
		c0-0.1,0-0.2,0-0.3c0-0.1,0.1-0.1,0.2-0.1l0,0c0.2,0,0.4,0.1,0.4,0.3c0,0.2-0.1,0.4-0.3,0.4C25.3,17.6,25.2,17.6,25.1,17.6"/>
	<path fill="#FFFFFF" d="M26.1,17.6l0.2,0c0,0-0.1-0.3-0.1-0.4l0.3-0.1c0.1,0,0.1,0,0.2,0.2l0,0c0,0.1,0,0.1,0.1,0.1l0,0l0.2,0l0,0
		c0,0,0-0.1-0.1-0.2c0-0.1-0.1-0.2-0.1-0.2c0.1-0.1,0.1-0.1,0.1-0.2c0-0.1-0.1-0.2-0.3-0.2l-0.5,0.1L26.1,17.6 M26.1,16.8
		c0,0,0.3-0.1,0.3-0.1c0.1,0,0.1,0,0.2,0.1c0,0,0,0.1-0.1,0.2c0,0-0.3,0.1-0.3,0.1C26.2,17,26.1,16.8,26.1,16.8"/>
	<path fill="#FFFFFF" d="M27.1,17.4l0.2,0c0,0-0.1-0.3-0.1-0.3c0,0,0.1-0.1,0.1-0.2c0,0,0.4,0.3,0.4,0.3l0.2,0c0,0-0.5-0.4-0.6-0.4
		c0,0,0.3-0.5,0.3-0.5l-0.2,0c0,0-0.3,0.5-0.4,0.5l-0.1-0.4l-0.2,0L27.1,17.4"/>
	<path fill="#FFFFFF" d="M28,16.5c0,0.2,0.3,0.2,0.3,0.2l0.2,0c0.1,0,0.2,0,0.2,0.1c0,0,0,0.1,0,0.1c0,0-0.1,0.1-0.2,0.1
		c-0.1,0-0.3,0-0.3-0.1l0,0l-0.2,0l0,0c0,0.1,0.1,0.2,0.1,0.2c0.1,0.1,0.3,0.1,0.4,0c0.1,0,0.2-0.1,0.3-0.2c0-0.1,0-0.1,0-0.2
		c0-0.2-0.3-0.2-0.3-0.2c0,0-0.2,0-0.2,0c-0.1,0-0.1,0-0.1-0.1c0,0,0-0.1,0-0.1c0,0,0.1-0.1,0.1-0.1c0.2,0,0.2,0,0.3,0.1l0,0l0.2,0
		l0,0c0-0.2-0.2-0.3-0.4-0.2C28.1,16.2,27.9,16.3,28,16.5"/>
	<path fill="#FFFFFF" d="M12.3,15.6c-0.2-0.1-0.5-0.2-0.7-0.1c-0.3,0.1-0.5,0.2-0.7,0.5l0-0.2c-0.1-0.1-0.2-0.1-0.3-0.1
		c-0.1,0-0.2,0.1-0.2,0.2l0.8,3.9l0.6-0.1l-0.3-1.4c0.3,0.2,0.5,0.2,0.8,0.2c0.3-0.1,0.5-0.2,0.6-0.4c0.2-0.3,0.1-0.8,0.1-1.3
		C12.7,16.3,12.6,15.9,12.3,15.6 M11.9,18c-0.5,0.1-0.7-0.3-0.8-0.8c-0.1-0.5-0.1-1,0.4-1.1c0.5-0.1,0.7,0.3,0.8,0.8
		C12.4,17.4,12.4,17.9,11.9,18"/>
	<path fill="#FFFFFF" d="M15.2,17.8l-0.1-0.3c-0.2,0.3-0.3,0.4-0.7,0.4c-0.3,0.1-0.6,0-0.8-0.1c-0.2-0.1-0.3-0.3-0.4-0.6
		c-0.1-0.5,0.1-0.9,0.8-1l0.7-0.2l0-0.2c-0.1-0.4-0.3-0.5-0.7-0.4c-0.3,0.1-0.4,0.2-0.6,0.4l-0.4-0.3c0.2-0.4,0.5-0.5,0.9-0.6
		c0.8-0.2,1.2,0.1,1.4,0.7l0.4,1.9L15.2,17.8 M14.9,16.5l-0.7,0.1c-0.3,0.1-0.5,0.3-0.4,0.5c0.1,0.3,0.2,0.4,0.6,0.3
		c0.2,0,0.4-0.1,0.5-0.3c0.1-0.1,0.1-0.2,0-0.4L14.9,16.5z"/>
	<path fill="#FFFFFF" d="M17,16.9c-0.2,0-0.3,0-0.4-0.3L16,13.4c-0.1-0.1-0.2-0.1-0.3-0.1c-0.1,0-0.2,0.1-0.2,0.2l0.7,3.2
		c0.1,0.4,0.4,0.7,0.9,0.6l0.3-0.1l-0.1-0.5L17,16.9"/>
	<path fill="#FFFFFF" d="M19.5,16.5c-0.1,0.2-0.4,0.4-0.8,0.5c-0.4,0.1-0.7,0-0.9-0.2c-0.3-0.2-0.5-0.6-0.6-1.1
		c-0.1-0.5-0.1-0.9,0.1-1.2c0.1-0.2,0.4-0.4,0.8-0.5c0.4-0.1,0.7,0,0.9,0.2c0.3,0.2,0.5,0.6,0.6,1C19.7,15.8,19.7,16.2,19.5,16.5
		 M18.7,14.7c-0.1-0.1-0.3-0.1-0.4-0.1c-0.2,0-0.3,0.1-0.4,0.2c-0.1,0.2-0.1,0.5,0,0.8c0.1,0.3,0.2,0.6,0.4,0.7
		c0.1,0.1,0.3,0.1,0.4,0.1c0.2,0,0.3-0.1,0.4-0.3c0.1-0.2,0.1-0.5,0-0.8C19,15.1,18.9,14.8,18.7,14.7"/>
	<path fill="#FFFFFF" d="M23.9,15.4c-0.2,0-0.3,0-0.4-0.3l-0.7-3.2c-0.1-0.1-0.2-0.1-0.3-0.1c-0.1,0-0.2,0.1-0.2,0.2l0.7,3.2
		c0.1,0.4,0.4,0.7,0.9,0.6l0.3-0.1l-0.1-0.5L23.9,15.4"/>
	<path fill="#FFFFFF" d="M22,16.3l-0.1-0.3c-0.2,0.3-0.3,0.4-0.7,0.4c-0.3,0.1-0.6,0-0.8-0.1c-0.2-0.1-0.3-0.3-0.3-0.6
		c-0.1-0.5,0.1-0.9,0.8-1l0.7-0.2l0-0.2c-0.1-0.4-0.3-0.5-0.7-0.4c-0.3,0.1-0.4,0.2-0.6,0.4l-0.4-0.3c0.2-0.4,0.5-0.5,0.9-0.6
		c0.8-0.2,1.2,0.1,1.4,0.7l0.4,1.9L22,16.3 M21.7,15.1L21,15.2c-0.3,0.1-0.5,0.3-0.4,0.5c0.1,0.3,0.2,0.4,0.6,0.3
		c0.2,0,0.4-0.1,0.5-0.3c0.1-0.1,0.1-0.2,0-0.4L21.7,15.1z"/>
	<path fill="#FFFFFF" d="M25.3,13.1l-0.1-0.4l-0.5,0.1L24.5,12c-0.1-0.1-0.2-0.1-0.3-0.1c-0.1,0-0.2,0.1-0.2,0.2l0.2,0.9L23.8,13
		l0.1,0.4l0.3-0.1l0.3,1.6c0.1,0.4,0.4,0.7,0.9,0.6l0.3-0.1L25.7,15l-0.2,0c-0.2,0-0.3-0.1-0.4-0.3l-0.3-1.5L25.3,13.1"/>
	<path fill="#FFFFFF" d="M28.1,14.7c-0.1,0.2-0.4,0.4-0.8,0.5c-0.4,0.1-0.7,0-0.9-0.2c-0.3-0.2-0.5-0.6-0.6-1.1
		c-0.1-0.5-0.1-0.9,0.1-1.2c0.1-0.2,0.4-0.4,0.8-0.5c0.4-0.1,0.7,0,0.9,0.2c0.3,0.2,0.5,0.6,0.6,1C28.3,14,28.3,14.4,28.1,14.7
		 M27.2,12.9c-0.1-0.1-0.3-0.1-0.4-0.1c-0.2,0-0.3,0.1-0.4,0.2c-0.1,0.2-0.1,0.5,0,0.8c0.1,0.3,0.2,0.6,0.4,0.7
		c0.1,0.1,0.3,0.1,0.4,0.1c0.2,0,0.3-0.1,0.4-0.3c0.1-0.2,0.1-0.5,0-0.8C27.5,13.3,27.4,13,27.2,12.9"/>
	<path fill="#FFFFFF" d="M29.3,16.5c-0.1,0-0.3-0.1-0.3-0.2c0-0.2,0.1-0.3,0.2-0.3c0.1,0,0.3,0.1,0.3,0.2
		C29.5,16.4,29.4,16.5,29.3,16.5 M29.2,16c-0.1,0-0.2,0.2-0.2,0.3c0,0.1,0.2,0.2,0.3,0.2c0.1,0,0.2-0.2,0.2-0.3
		C29.4,16.1,29.3,16,29.2,16 M29.3,16.4l-0.1-0.1l0,0l0,0.1l0,0l-0.1-0.3l0.1,0c0.1,0,0.1,0,0.1,0.1c0,0,0,0.1,0,0.1L29.3,16.4
		L29.3,16.4z M29.2,16.1L29.2,16.1l0,0.1l0.1,0C29.3,16.2,29.3,16.2,29.2,16.1C29.3,16.2,29.3,16.1,29.2,16.1"/>
	<path fill="#FFFFFF" d="M8.9,17.7c0-0.1,0.1-0.3,0.2-0.3l-0.4-1.8c-0.1-0.5-0.6-0.8-1-0.7l-3.7,0.8c-0.5,0.1-0.8,0.6-0.7,1l0.8,3.7
		c0.1,0.5,0.6,0.8,1,0.7l3.7-0.8c0.5-0.1,0.8-0.6,0.7-1l-0.2-1.2c0,0-0.1,0-0.1,0.1C9.1,18.2,9,18.1,9,18L8.9,17.7 M4.7,19.1l0,0.3
		c0,0.1-0.1,0.3-0.2,0.3c-0.1,0-0.2-0.1-0.2-0.2l0-0.3c0-0.1,0.1-0.3,0.2-0.3C4.6,18.9,4.7,18.9,4.7,19.1 M5.5,18.9l0,1.1
		c0,0.1-0.1,0.3-0.2,0.3c-0.1,0-0.2-0.1-0.2-0.2L5,19c0-0.1,0.1-0.3,0.2-0.3C5.4,18.7,5.5,18.8,5.5,18.9 M6.3,18.3l0.1,2.1
		c0,0.1-0.1,0.3-0.2,0.3c-0.1,0-0.2-0.1-0.2-0.2l-0.1-2.1c0-0.1,0.1-0.3,0.2-0.3C6.1,18,6.3,18.1,6.3,18.3 M7,17.1l0.1,2.8
		c0,0.1-0.1,0.3-0.2,0.3c-0.1,0-0.2-0.1-0.2-0.2l-0.1-2.8c0-0.1,0.1-0.3,0.2-0.3C6.9,16.9,7,17,7,17.1 M7.8,16.7l0.1,2.1
		c0,0.1-0.1,0.3-0.2,0.3c-0.1,0-0.2-0.1-0.2-0.2l-0.1-2.1c0-0.1,0.1-0.3,0.2-0.3C7.7,16.5,7.8,16.5,7.8,16.7 M8.6,17l0,1.1
		c0,0.1-0.1,0.3-0.2,0.3c-0.1,0-0.2-0.1-0.2-0.2l0-1.1c0-0.1,0.1-0.3,0.2-0.3C8.5,16.8,8.6,16.9,8.6,17"/>
</g>
</svg>
