<?xml version="1.0" encoding="utf-8"?>
<!-- Generator: Adobe Illustrator 18.1.1, SVG Export Plug-In . SVG Version: 6.00 Build 0)  -->
<svg version="1.2" baseProfile="tiny" id="Calque_1"
	 xmlns="http://www.w3.org/2000/svg" xmlns:xlink="http://www.w3.org/1999/xlink" x="0px" y="0px" width="295px" height="158px"
	 viewBox="0 0 295 158" xml:space="preserve">
<polyline fill="#356D87" points="294.3,99.9 21.1,158 0,58.9 273.2,0.8 294.3,99.9 "/>
<path fill="#FFFFFF" d="M190,104.8l1.5-0.3c0,0-1.2-5.5-1.3-6.2c0.5,0.4,6.2,5.2,6.2,5.2l1.6-0.3l-1.8-8.4l-1.5,0.3
	c0,0,1.2,5.5,1.3,6.2c-0.5-0.4-6.2-5.2-6.2-5.2l-1.6,0.3L190,104.8"/>
<path fill="#FFFFFF" d="M199.9,102.7l6.8-1.4l-0.3-1.3c0,0-5,1.1-5.3,1.1l-0.5-2.3l5-1.1l-0.3-1.3l-5,1.1c-0.1-0.2-0.4-1.8-0.4-2.1
	c0.3-0.1,5.2-1.1,5.2-1.1l-0.3-1.3l-6.7,1.4L199.9,102.7"/>
<path fill="#FFFFFF" d="M206.5,93.9c0,0,2.7-0.6,3-0.6c0.1,0.3,1.5,7.1,1.5,7.1l1.5-0.3c0,0-1.4-6.8-1.5-7.1c0.3-0.1,3-0.6,3-0.6
	l-0.3-1.3l-7.4,1.6L206.5,93.9"/>
<path fill="#FFFFFF" d="M219.3,98.5l1.5-0.3c0,0,0.6-6.2,0.7-6.9c0.4,0.6,3.5,6,3.5,6l1.5-0.3l1-9l-1.5,0.3c0,0-0.5,6-0.6,6.7
	c-0.4-0.6-3.4-5.9-3.4-5.9l-1.6,0.3c0,0-0.6,6-0.7,6.7c-0.4-0.7-3.3-5.9-3.3-5.9l-1.6,0.3L219.3,98.5"/>
<path fill="#FFFFFF" d="M232.4,86.8c-1.4,0.3-2.5,1-3.1,2c-0.6,0.9-0.8,2.2-0.5,3.4c0.3,1.3,0.9,2.3,1.9,2.9c1,0.7,2.2,0.8,3.6,0.5
	c3.4-0.7,4-3.3,3.6-5.4C237.5,88.2,235.8,86,232.4,86.8 M231.5,93.9c-0.6-0.4-1.1-1.1-1.3-2l0,0c-0.2-0.9-0.1-1.7,0.3-2.4
	c0.4-0.7,1.2-1.1,2.1-1.3l0,0c1.9-0.4,3.3,0.5,3.7,2.4c0.4,1.9-0.5,3.3-2.4,3.7C233.1,94.4,232.2,94.3,231.5,93.9"/>
<path fill="#FFFFFF" d="M240.4,94.1l1.5-0.3c0,0-0.7-3.2-0.7-3.4l2.9-0.6c0.8-0.2,1.4,0,1.8,1.5l0.1,0.3c0.2,0.8,0.3,1.1,0.6,1.3
	l0.1,0l1.6-0.3l-0.3-0.2c-0.3-0.2-0.4-0.6-0.8-2c-0.2-0.9-0.7-1.4-1.3-1.5c0.6-0.5,0.9-1.3,0.7-2.2c-0.2-1.1-1.1-2.2-2.8-1.8l-5,1.1
	L240.4,94.1 M240.4,86.7c0.3-0.1,3.2-0.7,3.2-0.7c0.8-0.2,1.3,0.1,1.5,0.9c0.1,0.4,0.1,1.2-1.1,1.4c0,0-2.9,0.6-3.1,0.7
	C240.8,88.7,240.4,86.9,240.4,86.7"/>
<path fill="#FFFFFF" d="M249.9,92.1l1.5-0.3c0,0-0.6-2.6-0.6-2.7c0.1-0.1,0.9-1.2,1-1.4c0.2,0.2,4,3.2,4,3.2l2-0.4
	c0,0-4.9-3.8-5.1-4c0.2-0.2,3.2-4.4,3.2-4.4l-2.1,0.4c0,0-3.1,4.3-3.4,4.8l-0.8-3.9l-1.5,0.3L249.9,92.1"/>
<path fill="#FFFFFF" d="M257.6,84.1c0.4,1.9,2.3,1.8,3,1.7l1.9-0.1c1,0,1.5,0.2,1.6,0.8c0.1,0.3,0,0.5-0.1,0.8
	c-0.3,0.4-0.8,0.7-1.6,0.9c-0.9,0.2-2.4,0.3-2.8-1.2l0-0.1l-1.5,0.3l0,0.1c0.2,0.8,0.6,1.5,1.2,1.9c1,0.7,2.3,0.6,3.2,0.4
	c0.7-0.2,2-0.6,2.7-1.6c0.4-0.6,0.5-1.2,0.3-2c-0.4-1.8-2.3-1.7-3-1.7c0,0-2,0.1-2,0.1c-1.1,0-1.3-0.4-1.4-0.7
	c-0.1-0.3,0-0.5,0.1-0.8c0.2-0.4,0.7-0.7,1.3-0.8c1.8-0.4,2.3,0.3,2.5,0.9l0,0.1l1.4-0.3l0-0.2c-0.5-1.7-1.9-2.4-4.1-1.9
	C258.4,81.2,257.3,82.5,257.6,84.1"/>
<path fill="#FFFFFF" d="M112.7,76c-1.7-1.2-4.2-1.6-6.8-1c-2.8,0.6-4.7,1.8-6.1,4.6L99.5,78c-0.8-0.7-1.8-1-2.8-0.8
	c-1,0.2-1.8,0.9-2.2,1.8l7.6,35.7l5.2-1.1l-2.8-13.3c2.4,1.9,4.6,2.2,7.4,1.6c2.6-0.5,4.6-1.9,5.7-3.7c2-3.2,1.4-7.8,0.5-11.8
	C117.1,82.5,115.8,78.1,112.7,76 M109.3,97.5c-4.7,1-6.2-3-7.2-7.6c-1-4.7-1.1-8.9,3.5-9.9c4.7-1,6.2,2.9,7.2,7.6
	C113.8,92.2,114,96.5,109.3,97.5"/>
<path fill="#FFFFFF" d="M139.6,95.6l-0.5-2.4c-1.5,2.3-3.1,3.5-6.3,4.2c-3.2,0.7-5.5,0.4-7.4-0.9c-1.6-1.1-2.8-3-3.2-5.2
	c-0.9-4.4,1.4-8.2,7.3-9.5l6.8-1.4l-0.4-1.9c-0.7-3.3-2.7-4.6-6.7-3.7c-2.8,0.6-4.1,1.6-5.1,3.7l-4.1-2.5c1.8-3.4,4.2-4.8,8.4-5.7
	c7-1.5,11.2,0.8,12.5,6.8l3.7,17.6L139.6,95.6 M137.1,84l-6,1.3c-3,0.6-4.3,2.4-3.8,4.8c0.5,2.4,2.3,3.4,5.5,2.7
	c2-0.4,3.4-0.9,4.5-2.5c0.6-0.9,0.7-2.3,0.3-4.1L137.1,84z"/>
<path fill="#FFFFFF" d="M156.8,87.3c-2.1,0.4-3-0.4-3.4-2.5l-6.2-29.4c-0.8-0.7-1.8-1-2.9-0.8c-1.1,0.2-1.9,0.9-2.3,1.9l6.3,29.7
	c0.8,3.9,3.7,6.8,8.6,5.8l3.2-0.7l-1-4.5L156.8,87.3"/>
<path fill="#FFFFFF" d="M179.6,84.2c-1.3,2.1-3.5,4-7,4.7c-3.5,0.7-6.3-0.1-8.3-1.5c-3-2.1-4.3-5.3-5.2-9.7c-0.9-4.4-1-7.9,0.8-11
	c1.3-2.1,3.5-4,7-4.7c3.5-0.7,6.3,0.1,8.4,1.5c3,2.1,4.3,5.3,5.2,9.7C181.4,77.6,181.5,81.1,179.6,84.2 M172,67.4
	c-1.2-0.8-2.6-1-4.1-0.7c-1.5,0.3-2.7,1.1-3.4,2.3c-1.2,1.9-0.8,4.7-0.2,7.6c0.6,2.9,1.4,5.6,3.3,6.8c1.2,0.8,2.6,1.1,4.1,0.8
	c1.5-0.3,2.7-1.2,3.5-2.4c1.2-1.9,0.8-4.7,0.2-7.6C174.7,71.4,173.9,68.7,172,67.4"/>
<path fill="#FFFFFF" d="M220,73.8c-2.1,0.4-3-0.4-3.4-2.5L210.3,42c-0.8-0.7-1.8-1-2.9-0.8c-1.1,0.2-1.9,0.9-2.3,1.9l6.3,29.7
	c0.8,3.9,3.7,6.8,8.6,5.8l3.2-0.7l-1-4.5L220,73.8"/>
<path fill="#FFFFFF" d="M202.1,82.3l-0.5-2.4c-1.5,2.3-3.1,3.5-6.3,4.2c-3.2,0.7-5.5,0.4-7.4-0.9c-1.6-1.1-2.8-3-3.2-5.2
	c-0.9-4.4,1.4-8.2,7.2-9.5l6.8-1.4l-0.4-1.9c-0.7-3.3-2.7-4.6-6.7-3.7c-2.8,0.6-4.1,1.6-5.1,3.7l-4.1-2.5c1.8-3.4,4.2-4.8,8.4-5.7
	c7-1.5,11.2,0.8,12.5,6.8l3.7,17.6L202.1,82.3 M199.6,70.7l-6,1.3c-3,0.6-4.3,2.4-3.8,4.8c0.5,2.4,2.3,3.4,5.5,2.7
	c2-0.4,3.4-0.9,4.5-2.5c0.6-0.9,0.7-2.3,0.3-4.1L199.6,70.7z"/>
<path fill="#FFFFFF" d="M232.9,53l-0.9-4l-5,1.1l-1.7-8c-0.8-0.7-1.8-1-2.9-0.8c-1.1,0.2-1.9,0.9-2.3,1.9l1.7,8l-2.9,0.6l0.9,4
	l2.9-0.6l3.1,14.5c0.8,3.8,3.8,6.8,8.6,5.8l3.1-0.7l-1-4.5l-2.1,0.5c-1.9,0.4-3.1-0.5-3.5-2.5l-3-14.2L232.9,53"/>
<path fill="#FFFFFF" d="M258.4,67.4c-1.3,2.1-3.5,4-7,4.7c-3.5,0.7-6.3-0.1-8.3-1.5c-3-2.1-4.3-5.3-5.2-9.7c-0.9-4.4-1-7.9,0.8-11
	c1.3-2.1,3.5-4,7-4.7c3.5-0.7,6.3,0.1,8.4,1.5c3,2.1,4.3,5.3,5.2,9.7C260.2,60.9,260.3,64.3,258.4,67.4 M250.8,50.7
	c-1.2-0.8-2.6-1-4.1-0.7c-1.5,0.3-2.7,1.1-3.4,2.3c-1.2,1.9-0.8,4.7-0.2,7.6c0.6,2.9,1.4,5.6,3.3,6.8c1.2,0.8,2.6,1.1,4.1,0.8
	c1.5-0.3,2.7-1.2,3.5-2.4c1.2-1.9,0.8-4.7,0.2-7.6C253.5,54.7,252.7,52,250.8,50.7"/>
<path fill="#FFFFFF" d="M269.8,84.3c-1.4,0.3-2.7-0.6-3-2c-0.3-1.4,0.6-2.8,1.9-3.1c1.4-0.3,2.7,0.6,3,2
	C272,82.7,271.2,84.1,269.8,84.3 M268.8,79.6c-1.2,0.2-1.9,1.4-1.6,2.6c0.3,1.2,1.4,2,2.5,1.7c1.2-0.2,1.9-1.4,1.6-2.6
	C271.1,80.2,269.9,79.4,268.8,79.6 M270.1,83.1l-0.9-1l-0.4,0.1l0.2,1.1l-0.4,0.1l-0.6-2.8l0.9-0.2c0.5-0.1,0.9,0.2,1,0.7
	c0.1,0.4-0.1,0.7-0.4,0.9l0.9,1L270.1,83.1z M269.1,80.7l-0.5,0.1l0.2,1l0.5-0.1c0.3-0.1,0.5-0.3,0.4-0.6
	C269.7,80.8,269.4,80.7,269.1,80.7"/>
<path fill="#FFFFFF" d="M82,95c0-1.2,0.8-2.4,2-2.7l-3.5-16.6c-0.9-4.3-5.1-7-9.3-6.1l-33.8,7.2c-4.2,0.9-6.9,5.1-6,9.4l7.3,34.1
	c0.9,4.3,5.1,7,9.3,6.1l33.8-7.2c4.2-0.9,6.9-5.1,6-9.4l-2.3-10.8c-0.3,0.3-0.7,0.5-1.1,0.5c-1.2,0.3-2.2-0.6-2.2-1.8L82,95
	 M42.9,107.8l0.1,2.8c0,1.2-0.9,2.4-2.1,2.7c-1.2,0.3-2.2-0.5-2.2-1.8l-0.1-2.8c0-1.2,0.9-2.4,2-2.7
	C41.8,105.7,42.8,106.5,42.9,107.8 M50.1,106.2l0.4,9.9c0,1.2-0.9,2.4-2,2.7c-1.2,0.3-2.2-0.5-2.2-1.8l-0.4-9.9c0-1.2,0.9-2.4,2-2.7
	C49.1,104.2,50.1,105,50.1,106.2 M57.2,100.2l0.7,19c0.1,1.2-0.9,2.4-2,2.7c-1.2,0.3-2.2-0.5-2.2-1.8l-0.7-19c0-1.2,0.9-2.4,2-2.7
	C56.2,98.1,57.2,98.9,57.2,100.2 M64.1,89.6l1,25.6c0,1.2-0.9,2.4-2.1,2.7c-1.2,0.3-2.2-0.5-2.2-1.8l-1-25.6c0-1.2,0.9-2.4,2-2.7
	C63.1,87.5,64.1,88.3,64.1,89.6 M71.3,85.6l0.7,19c0,1.2-0.9,2.4-2,2.7s-2.2-0.6-2.2-1.8l-0.7-19c0-1.2,0.9-2.4,2.1-2.7
	C70.3,83.6,71.3,84.4,71.3,85.6 M78.7,88.6l0.4,9.9c0,1.2-0.9,2.4-2,2.7c-1.2,0.3-2.2-0.5-2.2-1.8l-0.4-9.9c0-1.2,0.9-2.4,2.1-2.7
	C77.7,86.6,78.7,87.4,78.7,88.6"/>
</svg>
