<svg viewBox="0 0 153 158" xmlns="http://www.w3.org/2000/svg"><path d="m141.6 84.5c.6-3.4 3.8-6.2 7.2-6.3l.4-49.1c.1-12.6-10-23-22.5-23.1l-99.8-.9c-12.6-.1-22.8 10.1-22.9 22.8l-.8 100.9c-.1 12.7 10 23 22.5 23.1l99.9.8c12.5.1 22.7-10.1 22.8-22.7l.3-31.9c-1 .6-2.2.9-3.3.9-3.5 0-5.8-2.9-5.2-6.4zm-118.4 11.7-1.4 8.1c-.6 3.5-4 6.4-7.5 6.3-3.5 0-5.8-2.9-5.2-6.4l1.5-8.1c.6-3.5 4-6.4 7.5-6.3 3.4 0 5.7 2.9 5.1 6.4m21.4.2-5.1 28.3c-.6 3.5-4 6.4-7.5 6.3-3.5 0-5.8-2.9-5.2-6.4l5.2-28.3c.6-3.5 4-6.4 7.5-6.3 3.5 0 5.8 2.9 5.1 6.4m23.8-12.7-9.8 54.2c-.6 3.5-4 6.4-7.5 6.3-3.5 0-5.8-2.9-5.2-6.4l9.8-54.2c.6-3.5 4-6.4 7.5-6.3 3.6 0 5.9 2.8 5.2 6.4m26.2-25.7-13.2 73c-.6 3.5-4 6.3-7.5 6.3s-5.8-2.9-5.2-6.4l13.2-73c.6-3.5 4-6.3 7.5-6.3 3.5.1 5.8 3 5.2 6.4m22.7-6.7-9.8 54.2c-.6 3.5-4 6.4-7.5 6.3s-5.8-2.9-5.2-6.4l9.8-54.2c.6-3.5 4-6.4 7.5-6.3 3.5 0 5.8 2.9 5.2 6.4m19.1 13.2-5.1 28.3c-.6 3.5-4 6.4-7.5 6.3-3.5 0-5.8-2.9-5.2-6.4l5.1-28.3c.6-3.5 4-6.4 7.5-6.3 3.5 0 5.9 2.9 5.2 6.4" fill="#406e88"/></svg>