<svg xmlns="http://www.w3.org/2000/svg" viewBox="0 0 208 49">
  <rect width="100%" height="100%" fill="none"/>
  <g class="currentLayer">
    <path fill="#fff" color="#000" d="M0 0h208v49H0z"/>
    <path d="M93.42 25.43c2.8 2.3-.7 6.36-11.73 11.54 13.77-4.17 18.44-11.78 15.1-14.69l-3.37 3.15z" fill="#c23c40" stroke="#c23c40" stroke-width=".4" stroke-miterlimit="2.61"/>
    <path d="M10.5 39.97V9.57h8.02c6.34 0 11.31 2.44 11.31 8.2 0 4.37-2.86 7.89-8.63 7.89h-7.42v14.31H10.5zm3.28-15.81h4.09c4.64 0 8.5-1.17 8.5-6.62 0-5.02-4.19-6.7-9.11-6.7h-3.48v13.32zm35.48 14.4l-9.4-23.54-5.75 14.83-4.06 10.23h-3.37L39.1 8.83h.1l12.63 31.22h-2.02l-.56-1.5zm46.95-.07l-9.4-23.53-5.74 14.83L77 40.02h-3.38L86.06 8.77h.1l12.63 31.22h-2.02l-.56-1.5zM67.26 22.9a5.07 5.07 0 002.83-4.8c0-5.68-4.46-7.28-8.07-7.28h-5.3v29.14h-3.29V9.57h8.82c7.46 0 11.31 3.42 11.31 8.49 0 1.78-.56 3.42-1.75 4.7l-4.55.15zm-4.54 1.68l.61.84 10.18 14.54h-4.08l-10.8-15 4.1-.38zM99.15 9.57h6.43c10.98 0 18.2 5.2 18.2 16.1 0 7.17-5.49 14.3-14.21 14.3H99.15V9.57zm3.29 28.9h5.11c7.23 0 12.48-4.7 12.48-13 0-10.04-5.82-14.4-14.26-14.4h-3.33v27.4zm33.68-14.12v15.62h-3.28v-15.3l-11.08-15.1h3.71l9.9 13.18 9.53-13.18h1.5l-10.28 14.78zm13.2 15.62V9.57h2.87l17.83 23.36h.1V9.57h1.87V40.8h-.1l-20.6-26.74h-.09v25.9h-1.88zm26.65 0V9.57h17.27v1.5h-13.98v12.67h13.23v1.5h-13.23v13.23h14.54v1.5h-17.83z"/>
    <path d="M96.79 22.28c-1.39-1.2-4.34-1.96-9.06-1.96-16.11 0-47.63 6.34-64.4 16.52C41.08 28.5 65.45 23.2 81.57 23.22c6.1 0 10.14.81 11.85 2.21l3.37-3.15z" fill="#c23c40" stroke="#c23c40" stroke-width=".4" stroke-miterlimit="2.61"/>
    <path d="M194.36 10.26a1.44 1.44 0 112.87 0c0 .85-.63 1.47-1.42 1.47-.81 0-1.45-.62-1.45-1.47zm1.45 1.76a1.76 1.76 0 100-3.52 1.76 1.76 0 100 3.52zm-.38-1.62h.36l.53.88h.35l-.58-.9c.3-.03.53-.2.53-.56 0-.4-.24-.58-.72-.58h-.78v2.04h.31v-.88zm0-.26V9.5h.42c.22 0 .45.05.45.3 0 .32-.24.34-.5.34h-.37z"/>
  </g>
</svg>
