<svg xmlns="http://www.w3.org/2000/svg" xml:space="preserve" viewBox="0 0 231.622 212.452"><g style="display:inline"><path d="M17.065 24.592v16.582H-4.423l.025-16.582h21.463M68.673 83.971v8.458l-61.662.268v-8.726h61.662M53.003 64.178c1.464 2.975 3.79 4.701 8.298 5.103h7.372v11.478H7.011V69.281h7.373c3.232-.703 5.097-1.941 6.522-5.103h32.097M101.15 44.385c-3.002 9.67-12.147 14.595-23.094 14.843H52.588v1.739H21.756V44.385h79.393M69.344 24.37l32.813.222.027 11.805a26.923 26.923 0 0 1-.297 4.777h-80.13V24.592h30.161v12.544c-.11.378.398 1.432 1.015 1.314h11.72c3.007-.598 4.234-2.234 4.69-4.734V24.37M-4.394 21.381l.011-7.06c.467-3.724 1.523-6.89 3.063-9.522H99.29c2.173 3.895 3.22 8.744 2.854 14.214l.005 2.368H68.14c-.806-1.133-1.981-2.032-3.488-2.41l-42.182.042c-1.71.163-3.361 1.065-4.443 2.368h-22.42M.493 1.588c3.763-4.155 9.15-6.345 15.41-6.704h66.939c5.682.443 10.393 2.855 13.683 6.704H.493" style="fill:#231f20;fill-opacity:1;fill-rule:nonzero;stroke:none;stroke-width:.162761" transform="matrix(2.17203 0 0 2.17203 9.607 11.111)"/></g></svg>