<?xml version="1.0" encoding="UTF-8" standalone="no"?>
<!-- Created with Inkscape (http://www.inkscape.org/) -->

<svg
   width="231.62247"
   height="212.45189"
   viewBox="0 0 231.62247 212.45189"
   version="1.1"
   id="svg1"
   xml:space="preserve"
   xmlns="http://www.w3.org/2000/svg"
   xmlns:svg="http://www.w3.org/2000/svg"><defs
     id="defs1" /><g
     id="layer1"
     style="display:inline"
     transform="translate(-36.90377,-47.757435)"><g
       id="g1"
       transform="matrix(2.1720295,0,0,2.1720295,46.510573,58.868775)"><path
         id="path1"
         d="M 17.064737,24.592191 V 41.174148 H -4.4229609 l 0.024797,-16.581957 H 17.064737"
         style="fill:#231f20;fill-opacity:1;fill-rule:nonzero;stroke:none;stroke-width:0.162761" /><path
         id="path2"
         d="m 68.673413,83.971433 v 8.457858 L 7.0110188,92.696963 v -8.72553 H 68.673413"
         style="fill:#231f20;fill-opacity:1;fill-rule:nonzero;stroke:none;stroke-width:0.162761" /><path
         id="path35"
         d="m 53.002593,64.178178 c 1.4642,2.974789 3.789896,4.701035 8.298221,5.10273 h 7.372599 V 80.759436 H 7.0110188 V 69.280908 H 14.38357 c 3.232439,-0.702478 5.097846,-1.941091 6.522008,-5.10273 h 32.097015"
         style="fill:#231f20;fill-opacity:1;fill-rule:nonzero;stroke:none;stroke-width:0.162761" /><path
         id="path36"
         d="M 101.14934,44.384778 C 98.14786,54.054426 89.003275,58.979908 78.056276,59.227956 H 52.58804 v 1.738779 H 21.756168 V 44.384778 h 79.393172"
         style="fill:#231f20;fill-opacity:1;fill-rule:nonzero;stroke:none;stroke-width:0.162761" /><path
         id="path37"
         d="m 69.343501,24.370347 32.813649,0.221844 0.0273,11.805239 c 0.0394,1.686044 -0.0636,3.278175 -0.29704,4.776718 H 21.756168 V 24.592191 h 30.161783 v 12.544013 c -0.110026,0.377606 0.397952,1.431811 1.015305,1.314134 h 11.718813 c 3.007829,-0.598799 4.234887,-2.234712 4.691432,-4.734563 v -9.345428"
         style="fill:#231f20;fill-opacity:1;fill-rule:nonzero;stroke:none;stroke-width:0.162761" /><path
         id="path38"
         d="m -4.3937143,21.381399 0.010809,-7.06042 c 0.4673023,-3.723814 1.5233464,-6.89066 3.0632147,-9.5221846 H 99.29028 c 2.17319,3.8955288 3.21909,8.7446746 2.85402,14.2144286 l 0.005,2.368176 H 68.140044 c -0.80632,-1.133632 -1.981131,-2.032562 -3.487975,-2.410819 l -42.182518,0.04264 c -1.710296,0.163249 -3.360858,1.064296 -4.442244,2.368176 H -4.3937143"
         style="fill:#231f20;fill-opacity:1;fill-rule:nonzero;stroke:none;stroke-width:0.162761" /><path
         id="path39"
         d="M 0.49273645,1.5875136 C 4.2559568,-2.5672952 9.6429668,-4.756923 15.902229,-5.115649 h 66.939488 c 5.681996,0.442548 10.393122,2.854671 13.683343,6.7031626 H 0.49273645"
         style="fill:#231f20;fill-opacity:1;fill-rule:nonzero;stroke:none;stroke-width:0.162761" /></g></g></svg>
