<?xml version="1.0" encoding="utf-8"?>
<!-- Generator: Adobe Illustrator 19.2.1, SVG Export Plug-In . SVG Version: 6.00 Build 0)  -->
<svg version="1.1" id="layer" xmlns="http://www.w3.org/2000/svg" xmlns:xlink="http://www.w3.org/1999/xlink" x="0px" y="0px"
	 viewBox="0 0 652 652" style="enable-background:new 0 0 652 652;" xml:space="preserve">
<style type="text/css">
	.st0{fill:#FFA400;}
	.st1{fill:#2E2A25;}
	.st2{fill:#A0A1A2;}
</style>
<path class="st0" d="M157.1,250.2c-6.1,18.4-25.9,28.3-44.3,22.2c-18.4-6.1-28.3-25.9-22.2-44.2c6.1-18.4,25.9-28.3,44.3-22.2
	C153.3,212,163.2,231.8,157.1,250.2"/>
<path class="st0" d="M239.2,210.7c-5.3,15.8-22.3,24.4-38.1,19.1c-15.8-5.2-24.4-22.3-19.2-38.2c5.2-15.8,22.3-24.4,38.1-19.1
	C235.9,177.8,244.4,194.9,239.2,210.7"/>
<path class="st0" d="M317.6,203.2c-4.3,13-18.3,20-31.3,15.7c-13-4.3-20-18.3-15.7-31.3c4.3-13,18.3-20,31.3-15.7
	C314.8,176.2,321.9,190.2,317.6,203.2"/>
<path class="st0" d="M372.8,245c-3.3,10-14.1,15.4-24.1,12.1c-10-3.3-15.4-14.1-12.1-24.1c3.3-10,14.1-15.4,24.1-12.1
	C370.7,224.2,376.1,235,372.8,245"/>
<path class="st0" d="M400.3,296.1c-2,5.8-8.3,9-14.1,7.1c-5.9-1.9-9-8.3-7.1-14.1c1.9-5.9,8.3-9,14.1-7.1
	C399,283.9,402.2,290.2,400.3,296.1"/>
<path class="st1" d="M69.6,437c-4,0-10.6-0.6-16.3-1.4v34.4c0,2.2-1.8,4-4,4H25.3c-2.2,0-4.2-1.8-4.2-4V330.6c0-3.2,0.8-4.6,6.2-5.8
	c11.3-2.8,27.1-5.2,42.4-5.2c32.2,0,49.9,18.7,49.9,50.9v15.5C119.6,417.3,103.2,437,69.6,437 M87.3,370.6
	c0-14.1-3.6-24.3-17.7-24.3c-6.6,0-12.5,0.4-16.3,1v62.1c4.8,0.6,11.6,1.2,16.3,1.2c14.1,0,17.7-10.5,17.7-24.5V370.6z"/>
<path class="st1" d="M217.2,388.3h-63.5v0.4c0,11.3,4.8,21.7,20.5,21.7c12.5,0,30.2-1,38.2-1.8h0.6c2.2,0,3.8,1,3.8,3.2v15.1
	c0,3.2-0.8,4.6-4.2,5.4c-12.7,3.2-23.5,4.8-40.8,4.8c-24.1,0-49.9-12.7-49.9-51.1V372c0-32,18.7-52.3,50.3-52.3
	c32.6,0,49.1,22.3,49.1,52.3v11.5C221.4,386.5,219.8,388.3,217.2,388.3 M190,367.6c0-14.7-6.8-22.1-17.9-22.1
	c-10.9,0-18.3,7.6-18.3,22.1v0.8H190V367.6z"/>
<path class="st1" d="M275.9,437c-4,0-10.6-0.6-16.3-1.4v34.4c0,2.2-1.8,4-4,4h-24.1c-2.2,0-4.2-1.8-4.2-4V330.6
	c0-3.2,0.8-4.6,6.2-5.8c11.3-2.8,27.1-5.2,42.4-5.2c32.2,0,49.9,18.7,49.9,50.9v15.5C325.8,417.3,309.5,437,275.9,437 M293.6,370.6
	c0-14.1-3.6-24.3-17.7-24.3c-6.6,0-12.5,0.4-16.3,1v62.1c4.8,0.6,11.6,1.2,16.3,1.2c14.1,0,17.7-10.5,17.7-24.5V370.6z"/>
<path class="st2" d="M359.7,435.3h-24.3c-2.2,0-4.2-2-4.2-4.2V286.6c0-2.2,2-4,4.2-4h24.3c2.2,0,3.8,1.8,3.8,4v144.4
	C363.4,433.3,361.9,435.3,359.7,435.3"/>
<path class="st2" d="M401.8,435.3h-24.3c-2.2,0-4-1.8-4-4v-106c0-2.2,1.8-4,4-4h24.3c2.2,0,4,1.8,4,4v106
	C405.8,433.5,404,435.3,401.8,435.3"/>
<path class="st2" d="M508.9,435.3h-24.1c-2.2,0-4-2-4-4.2v-66.3c0-13.9-2.6-18.5-14.7-18.5c-5.8,0-11.9,2.8-18.7,6.4v78.4
	c0,2.2-1.8,4.2-4,4.2h-24.1c-2.2,0-4.2-2-4.2-4.2V325.2c0-2.2,1.8-4,4-4h22.3c2.2,0,4,1.8,4,4v4.8c11-7.8,19.7-10.3,32.4-10.3
	c28.8,0,35.2,20.1,35.2,45.2v66.3C513,433.3,511.1,435.3,508.9,435.3"/>
<path class="st2" d="M620.3,325.4l-37,50.3l36.8,55.3c0.4,0.4,0.4,1,0.4,1.6c0,1.4-1,2.6-2.6,2.6h-30c-2.2,0-3.4-0.4-5-2.8
	l-28.6-46.8v45.4c0,2.2-1.8,4.2-4,4.2h-24.1c-2.2,0-4.2-2-4.2-4.2V286.6c0-2.2,2-4,4.2-4h24.1c2.2,0,4,1.8,4,4v83.2l30.2-45.6
	c1.6-2.4,3.6-3,5.2-3h28.4c1.8,0,3,1,3,2.2C621.1,324,620.9,324.6,620.3,325.4"/>
</svg>
