<svg version="1.1" id="layer" xmlns="http://www.w3.org/2000/svg" x="0" y="0" viewBox="0 0 652 652" xml:space="preserve"><style>.st0{fill:#ffa400}.st1{fill:#2e2a25}.st2{fill:#a0a1a2}</style><path class="st0" d="M157.1 250.2c-6.1 18.4-25.9 28.3-44.3 22.2-18.4-6.1-28.3-25.9-22.2-44.2 6.1-18.4 25.9-28.3 44.3-22.2 18.4 6 28.3 25.8 22.2 44.2M239.2 210.7c-5.3 15.8-22.3 24.4-38.1 19.1-15.8-5.2-24.4-22.3-19.2-38.2 5.2-15.8 22.3-24.4 38.1-19.1 15.9 5.3 24.4 22.4 19.2 38.2M317.6 203.2c-4.3 13-18.3 20-31.3 15.7-13-4.3-20-18.3-15.7-31.3 4.3-13 18.3-20 31.3-15.7 12.9 4.3 20 18.3 15.7 31.3M372.8 245c-3.3 10-14.1 15.4-24.1 12.1-10-3.3-15.4-14.1-12.1-24.1 3.3-10 14.1-15.4 24.1-12.1 10 3.3 15.4 14.1 12.1 24.1M400.3 296.1c-2 5.8-8.3 9-14.1 7.1-5.9-1.9-9-8.3-7.1-14.1 1.9-5.9 8.3-9 14.1-7.1 5.8 1.9 9 8.2 7.1 14.1"/><path class="st1" d="M69.6 437c-4 0-10.6-.6-16.3-1.4V470c0 2.2-1.8 4-4 4h-24c-2.2 0-4.2-1.8-4.2-4V330.6c0-3.2.8-4.6 6.2-5.8 11.3-2.8 27.1-5.2 42.4-5.2 32.2 0 49.9 18.7 49.9 50.9V386c0 31.3-16.4 51-50 51m17.7-66.4c0-14.1-3.6-24.3-17.7-24.3-6.6 0-12.5.4-16.3 1v62.1c4.8.6 11.6 1.2 16.3 1.2 14.1 0 17.7-10.5 17.7-24.5v-15.5zM217.2 388.3h-63.5v.4c0 11.3 4.8 21.7 20.5 21.7 12.5 0 30.2-1 38.2-1.8h.6c2.2 0 3.8 1 3.8 3.2v15.1c0 3.2-.8 4.6-4.2 5.4-12.7 3.2-23.5 4.8-40.8 4.8-24.1 0-49.9-12.7-49.9-51.1v-14c0-32 18.7-52.3 50.3-52.3 32.6 0 49.1 22.3 49.1 52.3v11.5c.1 3-1.5 4.8-4.1 4.8M190 367.6c0-14.7-6.8-22.1-17.9-22.1-10.9 0-18.3 7.6-18.3 22.1v.8H190v-.8zM275.9 437c-4 0-10.6-.6-16.3-1.4V470c0 2.2-1.8 4-4 4h-24.1c-2.2 0-4.2-1.8-4.2-4V330.6c0-3.2.8-4.6 6.2-5.8 11.3-2.8 27.1-5.2 42.4-5.2 32.2 0 49.9 18.7 49.9 50.9V386c0 31.3-16.3 51-49.9 51m17.7-66.4c0-14.1-3.6-24.3-17.7-24.3-6.6 0-12.5.4-16.3 1v62.1c4.8.6 11.6 1.2 16.3 1.2 14.1 0 17.7-10.5 17.7-24.5v-15.5z"/><path class="st2" d="M359.7 435.3h-24.3c-2.2 0-4.2-2-4.2-4.2V286.6c0-2.2 2-4 4.2-4h24.3c2.2 0 3.8 1.8 3.8 4V431c-.1 2.3-1.6 4.3-3.8 4.3M401.8 435.3h-24.3c-2.2 0-4-1.8-4-4v-106c0-2.2 1.8-4 4-4h24.3c2.2 0 4 1.8 4 4v106c0 2.2-1.8 4-4 4M508.9 435.3h-24.1c-2.2 0-4-2-4-4.2v-66.3c0-13.9-2.6-18.5-14.7-18.5-5.8 0-11.9 2.8-18.7 6.4v78.4c0 2.2-1.8 4.2-4 4.2h-24.1c-2.2 0-4.2-2-4.2-4.2V325.2c0-2.2 1.8-4 4-4h22.3c2.2 0 4 1.8 4 4v4.8c11-7.8 19.7-10.3 32.4-10.3 28.8 0 35.2 20.1 35.2 45.2v66.3c0 2.1-1.9 4.1-4.1 4.1M620.3 325.4l-37 50.3 36.8 55.3c.4.4.4 1 .4 1.6 0 1.4-1 2.6-2.6 2.6h-30c-2.2 0-3.4-.4-5-2.8l-28.6-46.8V431c0 2.2-1.8 4.2-4 4.2h-24.1c-2.2 0-4.2-2-4.2-4.2V286.6c0-2.2 2-4 4.2-4h24.1c2.2 0 4 1.8 4 4v83.2l30.2-45.6c1.6-2.4 3.6-3 5.2-3h28.4c1.8 0 3 1 3 2.2 0 .6-.2 1.2-.8 2"/></svg>
