<svg version="1" xmlns="http://www.w3.org/2000/svg" viewBox="0 0 712 712"><path d="M91.7 43.6c-.1.1-2.3.5-4.9.8-7.5 1-19 5.9-23.4 10.1-.6.5-2.2 1.9-3.5 3.1-3.5 3-7.9 8.2-7.9 9.3 0 .5-.4 1.1-.8 1.3-1.9.7-6.8 13.3-7.9 19.8-.9 5.8-.9 469 .1 467.3.6-1.2 4.7-15 7.1-24.6.7-2.6 1.2-4.2 5-17.7 2-6.9 3.8-13.2 4-14 .2-.8 1.8-6.6 3.5-12.8 1.8-6.2 3.3-11.9 3.4-12.5.1-.7.4-1.7.8-2.2.3-.6.9-2.6 1.4-4.5 1-4.5.8-3.7 2.8-10.1.9-3.1 1.8-6.5 2.1-7.5.2-1.1 2.9-10.7 6-21.4 3-10.7 6.9-24.5 8.6-30.5 5.2-18.8 8-28.8 9.9-35.5 2.2-7.4 3.9-14 4.1-15.5 0-.6.7-2.5 1.4-4.3.8-1.7 1.2-3.2 1-3.2-.3 0 0-1.2.6-2.8.6-1.5 1.2-3.4 1.4-4.2.2-.8 1.5-5.6 2.9-10.5 1.5-5 2.8-9.7 3-10.5.7-2.8 3.4-12.4 7.6-27 2.3-8 4.6-16.5 5.2-19 .5-2.5 1.4-4.9 1.9-5.5.6-.6 16.6-1 43-1h42l-.6 2.5c-1 4.2-5.6 21.4-6.2 23-.3.8-.7 2.1-.9 2.9-.1.8-.6 2.6-1 4s-.8 2.9-.9 3.3c-.2.5-.3.9-.5 1-.1.2-.3 1.1-.5 2-.3 1.4 0 1.6 1.5.8 1.1-.6 2.2-1.5 2.5-2 1.1-1.8 13.7-11.3 22.5-17.1 7.5-4.9 14.3-8.9 23-13.5 2.8-1.4 15.9-6.6 17.5-6.8.5-.1 1.5-.4 2-.7.8-.5 3.4-1.3 8-2.5.6-.1 2.5-.5 4.4-.9 1.9-.3 3.8-.8 4.3-1.1 1.6-1 29.8-1.2 37.8-.3 8.4.9 22.9 3.7 24.5 4.7.5.4 1.6.7 2.4.8 2.3.4 12.4 4.7 18.1 7.7 7.5 4.1 13.4 8.4 19.9 14.8 15.4 15.2 22.3 29.6 27.5 56.9 1.4 7.4 1.5 27.2.1 37-.8 5.6-3.5 19-4.2 21-.3.8-.7 2.2-.9 3-1.2 7-6.1 22.8-7.4 24.5-.5.5-.8 1.4-.9 2-.1 3.7-13 29.6-20.6 41.5-5.4 8.5-16.5 23.8-21 28.9-5.9 6.7-15 16.5-17.8 19-1.6 1.4-4.3 3.9-6 5.4-16.4 14.7-43.7 30.7-63.2 37.1-26.9 8.7-57.5 9.4-85 2-11.2-3-10.4-2.8-14-4.4-9.9-4.2-12.4-5.9-19.5-13.1-4.8-4.8-6.1-6.6-9-12.2-1.4-2.6-2.8-4.7-3.2-4.7-.6 0-2 4.2-3.3 9.5-.1.5-.5 1.7-.8 2.5-.3.8-1.3 4.2-2.2 7.5-1.9 7.2-2 7.6-3.9 14-.8 2.7-2.6 9.3-4.1 14.5-1.4 5.2-3.9 14-5.5 19.5-3.5 12-12.1 42.6-12.4 44-.1.5-1 3.7-2 7s-1.9 6.7-2.1 7.6c-.2.8-1.1 4-2 7-.9 3-1.8 6.3-2 7.4l-.5 2.1 258.3-.1c279.7-.1 261.8.2 274.4-5.7 15.1-7 27.5-24.5 28.9-40.8.6-6.9.7-447.7.1-448.7-.3-.5-.2-1.5.2-2.2 1.5-2.3 0-4.9-3.2-5.6-5.9-1.5-7.2-1.6-16.9-2-11.6-.4-21.4 1.4-30.1 5.6-5.5 2.6-13.7 8.8-13.7 10.4 0 .3-.9 1.6-2.1 2.8-4.3 4.6-13.1 26.1-16.3 39.7-1.1 4.5-2.8 10.7-3.3 12-.3.8-.7 1.9-.9 2.5-.1.5-1.2 4.4-2.4 8.5s-2.3 8.2-2.5 9c-.3.8-.7 2.4-1 3.5-.6 2-.3 2 24.2 2 13.6 0 25.5.1 26.4.3 1.3.3 2 2 4.4 11.2.1.3.4 1.2.8 2 .3.8 2.2 6.7 4.2 13s3.9 12.1 4.2 12.9c.3.8-5.9 7.6-16.5 18.1l-17 16.7-25.3-.1c-15.4-.1-25.7.3-26.5.9-.7.5-1.5 2.1-1.8 3.5-.6 2.7-.9 3.8-6.1 22-2 6.9-3.7 13.2-3.9 14-.3.8-1.4 4.9-2.6 9-1.1 4.1-2.3 8.4-2.5 9.5-.3 1.1-.9 3.1-1.4 4.5-.6 1.4-1.7 5.4-2.6 9-.9 3.6-1.9 7.2-2.2 8-.3.8-.7 1.9-.8 2.5-.2.5-2.4 8.6-5 18-2.6 9.3-4.8 17.4-4.9 18-.1.5-.8 2-1.4 3.3-.7 1.2-1.1 2.2-.8 2.2.2 0-.7 3.9-2.1 8.7-2.5 8.9-4.1 14.6-4.7 17.3-.2.8-1.2 4.2-2.2 7.5-1 3.3-1.9 6.5-2 7.1-.1.6-1 3.8-2 7-2 6.9-2.1 7.3-2.7 9.9-.3 1.1-1.3 4.7-2.3 8-1 3.3-1.9 6.4-2 7-.1.5-1.2 4.4-2.4 8.5s-2.3 7.9-2.5 8.5c-.1.5-.8 3-1.5 5.5s-1.3 4.8-1.2 5.2c.1.5-.8.8-2.1.8-23.3.3-89 0-89.4-.3-.2-.3.4-3.1 1.3-6.3 1-3.3 1.9-6.4 2-6.9.1-.6 2.5-9.3 5.4-19.5 2.9-10.2 5.4-19.6 5.6-20.9.3-1.3.9-3.2 1.4-4.1.5-.9 1.1-2.8 1.4-4.1.2-1.3 2.1-8.3 4.1-15.4 2-7.2 4-14.4 4.5-16 .5-1.7 1.8-6.4 3-10.5s2.3-8.2 2.6-9c.2-.8 1.7-6.5 3.4-12.5 1.7-6.1 3.2-11.5 3.4-12 2-7.5 2.8-10.2 3.3-11.5.3-.8.8-2.4 1-3.5.3-1.9 2.7-10.2 8-28.2 1.3-4.5 2.6-9 2.8-10 .1-1 2.4-9 4.9-17.8 2.5-8.7 4.3-16.1 4.1-16.4-.8-.8-32.8-.7-35.3.1-2 .7-2.2.5-1.6-2 .4-1.5 1-3.4 1.4-4.2.5-.8.8-1.7.8-2 0-.8 2-8.2 7.9-29 3.1-10.7 5.6-20 5.7-20.5.1-.6.4-1.5.7-2 .4-.6 1-2.8 1.4-5 .4-2.2 1.1-4.6 1.7-5.3.6-.6.7-1.2.4-1.2-.4 0-.3-.8.3-1.7.8-1.6 2.9-1.8 19.2-1.8h18.3l.8-3c.5-1.7 1.1-4.1 1.4-5.5.3-1.4 2.1-8.1 4-15 2-6.9 4.2-14.9 5-17.7 5-18 6.4-22.7 10.7-34.3 4.4-11.9 5-13.3 10.3-24.2 4.6-9.4 10.8-19.7 14.3-24 17.3-21.1 30.2-30.8 53.8-40.4 9-3.6 18-6.2 24.2-7 2-.2 4.3-.6 5.1-.9 6.6-1.8 38.9-3.3 51-2.2 2.1.2 2.5-.2 2.3-2.5-.4-6.3-9.1-19.5-17-25.9-5.2-4.2-15.8-9.6-20.3-10.4-1.8-.3-3.8-.9-4.4-1.3-.9-.5-529.3-1.1-529.9-.6z"/><path d="M263.7 332.6c-.1.1-3.6.4-7.7.7-4.1.4-8.2.8-9 1-.8.2-3.3.7-5.5 1.2-2.2.4-4.4 1-5 1.4-.5.3-1.6.6-2.3.7-1.3.2-5.5 2-12.2 5.2-17.4 8.3-33.4 24.7-42.9 43.9-3.8 7.8-8.4 20.1-9.6 25.8-2.1 10.3-3.1 18.8-2.8 24 .2 3.3.4 6.7.4 7.5.2 4.8 7.2 21 9.2 21 .4 0 .7.5.7 1.2 0 1 5.3 6.5 9.1 9.3 3.5 2.6 12.2 5.8 19.4 7.1 5.3.9 26.7 1.1 33 .2 6.3-.9 19.7-4.6 20.9-5.9.6-.5 1.5-.9 2.2-.9 1.2 0 15.4-7.8 16.4-9 .3-.3 2-1.6 3.8-2.9 4.1-2.9 13.3-12.1 16.9-16.9 1.6-2 3.3-4.3 4-5 2.6-2.7 10.4-18.2 13.2-26.3 11.7-33.1 7.7-57.7-12.1-73.4-2.9-2.3-12.6-6.4-18.3-7.7-4.9-1.1-21.1-2.8-21.8-2.2z"/></svg>
