<svg xmlns="http://www.w3.org/2000/svg" version="1" viewBox="0 0 363.59053 404.94176"><path d="M258.895 2.288c-23.458 5.25-41.339 14.928-57.579 31.004-12.303 12.303-13.78 15.584-13.78 31.824 0 6.562-.491 7.218-5.74 9.514-3.118 1.149-6.562 2.297-7.875 2.297-2.788 0-13.287-17.389-13.451-22.31 0-4.921-17.06-18.536-32.48-25.918-29.528-13.944-64.468-14.272-94.16-.82-11.155 4.92-11.975 6.561-7.71 14.927 2.133 4.101 2.133 5.742.656 9.679C23.004 61.507 7.42 72.17-9.148 77.09l-7.054 2.132 4.593 3.773c2.625 2.133 5.741 4.594 6.89 5.578 3.609 2.952 2.132 7.218-4.922 15.256-7.381 8.366-13.779 12.467-19.356 12.467-2.953 0-3.281.984-3.281 12.63 0 18.373 3.773 33.63 12.467 51.346 10.17 20.505 27.723 38.55 47.736 48.884 12.795 6.562 13.943 6.89 28.05 6.89 17.553 0 24.935 1.312 24.935 4.265 0 1.312.656 2.296 1.476 2.296s0 4.593-1.804 10.17c-9.678 31.333-5.741 66.765 10.499 94.488 2.952 5.25 11.646 15.748 19.52 23.458 11.647 11.811 16.569 15.42 29.528 21.654 43.635 21.49 92.847 15.091 129.592-16.732 8.202-7.054 20.833-22.802 25.427-31.66 2.132-4.101 1.968-4.594-2.461-7.218-14.272-8.53-13.123-31.66 2.133-38.55 3.772-1.64 8.366-3.117 10.498-3.117 3.445 0 3.609-.656 3.609-11.154 0-12.796-4.593-32.645-10.663-45.768-2.788-6.233-3.444-9.022-1.968-9.35 1.148-.328 5.741-1.313 10.17-2.297 13.78-2.952 26.575-8.366 39.534-17.06 10.335-6.89 12.14-8.858 12.14-12.795 0-4.757 7.053-14.764 10.334-14.764 1.148 0 3.117-.82 4.429-1.64 2.133-1.477 1.64-2.46-2.953-6.234-8.038-6.726-8.366-13.78-1.476-33.136l5.577-15.584 10.827.492c10.335.656 10.99.492 10.99-2.953 0-1.968-.82-5.085-1.804-6.89-1.312-2.46-1.312-4.429.328-7.381 1.805-3.445 1.805-6.07-.492-17.225-6.397-31.003-25.754-58.234-53.313-74.966-7.874-4.922-8.858-5.086-12.303-2.789-2.133 1.312-8.366 3.609-13.944 4.921l-10.17 2.297-2.789-8.858c-1.476-4.922-4.1-9.679-5.741-10.499-4.101-2.297-25.099-1.804-36.745.82zm50.688 48.064c15.092 7.054 27.56 19.357 35.105 34.613 5.905 11.975 6.07 12.631 6.07 31.332 0 18.7-.165 19.357-6.07 31.332-7.546 15.255-20.013 27.558-35.269 34.776-10.498 4.921-12.303 5.25-29.2 5.25-20.832-.165-30.347-3.117-44.29-13.616-17.389-13.287-27.067-31.332-28.38-53.805-1.968-33.465 17.881-62.336 50.197-72.999 7.218-2.46 12.795-2.952 25.099-2.624 13.45.492 17.388 1.312 26.738 5.741zM104.696 67.577c5.25 2.46 11.975 6.233 14.764 8.366 3.609 2.788 5.905 3.444 8.53 2.46 4.1-1.476 23.622-.164 26.903 1.969 1.64.984 1.64 2.624.164 7.71-1.149 3.609-1.969 8.694-1.969 11.482 0 2.953-1.64 6.89-3.773 9.515-3.445 4.1-3.609 5.085-2.296 14.107 3.28 19.685-5.25 44.127-20.177 58.727-4.758 4.757-13.452 10.663-20.342 13.944l-11.975 5.741-2.132 9.022c-1.805 7.71-2.789 9.023-5.906 9.023-2.132 0-6.397 1.148-9.514 2.788-5.413 2.46-6.234 2.46-13.123-.164-7.874-2.953-10.007-7.382-9.35-18.208.163-4.594-.657-5.414-8.859-9.515-11.155-5.413-20.34-13.615-27.067-24.278-6.07-9.186-11.482-25.426-11.482-33.628 0-3.117-.82-5.578-1.805-5.578-1.312 0-1.312-.656-.164-2.132.82-.984 2.46-5.906 3.445-10.663.984-4.757 2.953-10.827 4.265-13.615 2.133-4.101 2.297-5.906.656-10.499-2.789-7.546.164-11.483 15.584-21.161 9.186-5.742 13.123-7.382 15.092-6.234 1.804.985 5.741.492 11.975-1.476 13.943-4.757 35.597-3.609 48.556 2.297zm110.564 148.62c35.76 11.155 58.89 48.393 52.82 84.974-1.476 8.694-1.476 12.795-.163 15.256 1.148 1.968 1.312 6.397.82 10.662-1.148 6.89-1.476 7.218-7.71 8.202-4.921.82-9.186 3.61-16.24 10.007-27.067 24.77-64.468 28.379-94.816 8.858-5.905-3.609-9.842-4.921-15.42-4.921-10.006 0-17.06-5.906-19.356-16.076-1.313-5.906-.985-7.874 1.476-11.483 2.625-3.937 2.789-5.25.984-10.99-2.788-8.859-2.788-30.84 0-41.175 6.562-24.606 25.755-44.783 51.017-53.477 11.483-3.937 33.628-3.937 46.588.164z"/><path d="M283.5 58.062c-.82.328-3.608.984-6.069 1.476-6.561 1.477-9.514 5.414-9.514 12.796 0 5.085-.656 6.725-3.281 7.382-2.625.656-3.28 2.296-3.28 7.053s.655 6.398 3.28 7.054c3.117.82 3.28 2.297 3.28 37.894v37.073h26.247v-37.073c0-35.597.164-37.074 3.281-37.894 2.625-.656 3.281-2.297 3.281-7.218 0-6.233-.164-6.397-5.905-6.397-5.086 0-5.742-.492-5.25-3.773.328-2.789 1.805-3.773 5.906-4.101 5.085-.492 5.249-.82 5.249-7.874v-7.218l-7.71.164c-4.429 0-8.53.328-9.514.656zM85.175 89.23c-5.577 3.773-5.905 3.773-5.905.82 0-2.953-1.149-3.28-13.944-3.28H51.383l.328 51.18.492 51.345 13.615.492 13.452.492v-20.013l5.085 3.773c3.609 2.789 7.218 3.773 13.287 3.773 6.89 0 8.694-.656 11.975-4.43 5.25-6.069 6.07-13.45 5.414-48.555l-.493-30.184-5.413-4.757c-6.89-6.233-15.42-6.398-23.95-.656zm1.969 42.487l.328 30.675-3.61-.492c-3.772-.492-3.772-.82-4.264-29.035-.328-20.013.164-29.2 1.476-30.84 4.593-5.413 5.577-.82 6.07 29.692z" fill="#900"/></svg>