<?xml version="1.0" encoding="UTF-8" standalone="no"?>
<!-- Created with Inkscape (http://www.inkscape.org/) -->
<svg
   xmlns:svg="http://www.w3.org/2000/svg"
   xmlns="http://www.w3.org/2000/svg"
   version="1.0"
   width="744.09448"
   height="210.47244"
   id="svg7217">
  <defs
     id="defs7219" />
  <g
     transform="translate(-2886.3153,1478.3352)"
     id="layer1">
    <g
       transform="translate(17.716541,17.735121)"
       id="g13813">
      <path
         d="M 3363.6745,-1395.1264 L 3363.6745,-1478.2502 L 3388.1017,-1478.2502 L 3423.8841,-1440.9381 L 3423.8841,-1478.2502 L 3452.5271,-1478.2502 L 3452.5271,-1395.1264 L 3429.5787,-1395.1264 L 3392.3514,-1432.3537 L 3392.3514,-1395.1264 L 3363.6745,-1395.1264"
         style="fill:#231f20;fill-rule:nonzero;stroke:none"
         id="path8" />
      <path
         d="M 3150.187,-1395.1264 L 3150.187,-1478.2502 L 3178.8216,-1478.2502 L 3178.8216,-1449.5225 L 3204.6256,-1449.5225 L 3204.6256,-1478.2502 L 3233.3536,-1478.2502 L 3233.3536,-1395.1264 L 3204.6256,-1395.1264 L 3204.6256,-1426.5741 L 3178.8216,-1426.5741 L 3178.8216,-1395.1264 L 3150.187,-1395.1264"
         style="fill:#231f20;fill-rule:nonzero;stroke:none"
         id="path10" />
      <path
         d="M 3495.789,-1478.3352 L 3525.8766,-1478.3352 L 3543.0454,-1456.8318 L 3560.2992,-1478.3352 L 3590.387,-1478.3352 L 3558.8543,-1438.2183 L 3594.7217,-1395.2114 L 3560.2992,-1395.2114 L 3543.0454,-1418.0748 L 3525.8766,-1395.2114 L 3491.4543,-1395.2114 L 3527.2365,-1438.2183 L 3495.789,-1478.3352"
         style="fill:#231f20;fill-rule:nonzero;stroke:none"
         id="path12" />
      <path
         d="M 3134.8118,-1381.2725 C 3127.9273,-1385.5222 3118.4165,-1386.457 3109.7131,-1386.457 C 3085.2349,-1386.457 3065.2953,-1368.6084 3065.2953,-1344.895 C 3065.2953,-1321.2668 3085.2349,-1303.333 3109.7131,-1303.333 C 3118.9263,-1303.333 3127.1198,-1304.5231 3134.4037,-1309.1126 L 3134.4037,-1331.9759 C 3130.7575,-1325.1765 3123.8816,-1323.3916 3115.7901,-1323.3916 C 3103.9505,-1323.3916 3094.3377,-1333.0808 3094.3377,-1344.895 C 3094.3377,-1356.7092 3103.9505,-1366.4835 3115.7901,-1366.4835 C 3123.4735,-1366.4835 3130.5621,-1364.0187 3134.4037,-1357.8991 L 3134.4037,-1380.7624 L 3134.8118,-1381.2725"
         style="fill:#231f20;fill-rule:nonzero;stroke:none"
         id="path14" />
      <path
         d="M 3229.1039,-1303.333 L 3229.1039,-1386.457 L 3253.4886,-1386.457 L 3289.3049,-1349.1447 L 3289.3049,-1386.457 L 3317.9395,-1386.457 L 3317.9395,-1303.333 L 3294.9741,-1303.333 L 3257.7382,-1340.5603 L 3257.7382,-1303.333 L 3229.1039,-1303.333"
         style="fill:#231f20;fill-rule:nonzero;stroke:none"
         id="path16" />
      <path
         d="M 3345.0525,-1303.333 L 3345.0525,-1364.9536 L 3323.5065,-1364.9536 L 3323.5065,-1386.457 L 3395.2412,-1386.457 L 3395.2412,-1364.9536 L 3373.6527,-1364.9536 L 3373.6527,-1303.333 L 3345.0525,-1303.333"
         style="fill:#231f20;fill-rule:nonzero;stroke:none"
         id="path18" />
      <path
         d="M 3514.2326,-1364.9536 C 3513.8076,-1364.9536 3513.3826,-1364.9536 3513.1276,-1364.9536 C 3502.5885,-1363.7637 3495.194,-1354.4993 3495.194,-1343.5351 C 3495.194,-1331.6361 3504.7982,-1323.3916 3516.6974,-1323.3916 C 3524.7718,-1323.3916 3531.6562,-1325.1765 3535.3111,-1331.9759 L 3535.3111,-1309.1126 C 3528.0016,-1304.5231 3519.7572,-1303.333 3510.5778,-1303.333 C 3486.0996,-1303.333 3466.211,-1319.8219 3466.211,-1343.5351 C 3466.211,-1367.1635 3486.0996,-1386.457 3510.5778,-1386.457 C 3510.9178,-1386.457 3511.0878,-1386.457 3511.4279,-1386.457 L 3594.9767,-1386.457 L 3594.9767,-1364.9536 L 3573.3883,-1364.9536 L 3573.3883,-1303.333 L 3544.8303,-1303.333 L 3544.8303,-1364.9536 L 3514.2326,-1364.9536"
         style="fill:#231f20;fill-rule:nonzero;stroke:none"
         id="path20" />
      <path
         d="M 3094.7456,-1345.235 L 3094.7456,-1345.235 z "
         style="fill:none;stroke:#231f20;stroke-width:0.30597767;stroke-linecap:butt;stroke-linejoin:miter;stroke-miterlimit:3.86400008;stroke-dasharray:none"
         id="path22" />
      <path
         d="M 3459.9216,-1395.1264 L 3488.6495,-1395.1264 L 3488.6495,-1478.2502 L 3459.9216,-1478.2502 L 3459.9216,-1395.1264 z "
         style="fill:#231f20;fill-rule:nonzero;stroke:none;stroke-width:0.036;stroke-linecap:butt;stroke-linejoin:miter;stroke-miterlimit:3.86400008;stroke-dasharray:none"
         id="path24" />
      <path
         d="M 2972.3122,-1444.7628 L 2980.412,-1444.6778 L 2980.412,-1435.1585 C 2980.412,-1431.9287 2982.1289,-1428.6989 2984.6617,-1427.084 C 2993.7645,-1423.0893 3000.037,-1414.0801 3000.037,-1403.4558 C 3000.037,-1393.5115 2994.1724,-1384.7571 2985.775,-1380.5074 C 2983.2422,-1378.8925 2980.412,-1374.9828 2980.412,-1371.838 L 2980.412,-1355.1793 L 2980.412,-1355.2643 C 2980.412,-1350.2496 2984.4576,-1346.0849 2989.5148,-1346.0849 C 3021.0815,-1346.0849 3046.8857,-1371.923 3046.8857,-1403.4558 C 3046.8857,-1435.1585 3021.0815,-1460.9967 2989.5148,-1460.9967 C 2984.4576,-1460.9967 2980.412,-1455.3021 2980.412,-1450.3724 L 2980.412,-1442.7228 L 2968.3684,-1443.1479 L 2968.3684,-1451.7322 C 2968.3684,-1456.8318 2964.2207,-1460.8267 2959.2656,-1460.8267 L 2927.2909,-1460.8267 L 2925.8715,-1478.2502 L 3046.8857,-1478.2502 C 3053.1582,-1478.2502 3058.4194,-1472.9807 3058.4194,-1466.7763 L 3058.4194,-1316.1671 C 3058.4194,-1309.8776 3052.9543,-1304.013 3046.6816,-1304.013 L 2897.543,-1304.013 C 2891.2706,-1304.013 2886.3153,-1309.2826 2886.3153,-1315.5722 L 2886.3153,-1466.7763 C 2886.3153,-1472.9807 2891.4745,-1478.2502 2897.747,-1478.2502 L 2926.4835,-1478.2502 L 2928.2004,-1460.8267 L 2914.0403,-1460.8267 C 2908.9747,-1460.8267 2904.929,-1456.8318 2904.929,-1451.7322 L 2904.929,-1330.9561 C 2904.929,-1326.0263 2908.9747,-1321.9467 2914.0403,-1321.9467 L 2959.3675,-1321.9467 C 2964.3226,-1321.9467 2968.3684,-1324.4966 2968.3684,-1329.5112 L 2968.3684,-1371.838 C 2968.3684,-1374.9828 2966.9574,-1377.8726 2964.3226,-1379.4025 C 2954.7098,-1383.1422 2948.7432,-1392.5766 2948.7432,-1403.4558 C 2948.7432,-1413.145 2953.9024,-1421.4744 2961.7898,-1425.8941 C 2964.3226,-1427.509 2968.3684,-1431.9287 2968.3684,-1435.1585 L 2968.3684,-1444.2527 L 2975.7543,-1444.2527 L 2974.4369,-1417.0547 C 2967.051,-1417.0547 2960.8805,-1411.0203 2960.8805,-1403.4558 C 2960.8805,-1396.1463 2966.9574,-1390.0267 2974.3435,-1390.0267 C 2981.8228,-1390.0267 2987.8999,-1396.1463 2987.8999,-1403.4558 C 2987.8999,-1411.0203 2981.9248,-1417.0547 2974.4369,-1417.0547 L 2972.3122,-1444.7628"
         style="fill:#231f20;fill-rule:nonzero;stroke:none;stroke-width:0.036;stroke-linecap:butt;stroke-linejoin:miter;stroke-miterlimit:3.86400008;stroke-dasharray:none"
         id="path26" />
      <path
         d="M 3069.851,-1452.1573 L 3069.851,-1395.1264 L 3101.4177,-1395.1264 L 3101.4177,-1420.8796 L 3117.201,-1420.8796 C 3132.9844,-1420.8796 3145.8354,-1433.7136 3145.8354,-1449.5225 C 3145.8354,-1465.3314 3132.9844,-1478.1652 3117.201,-1478.1652 L 3069.851,-1478.2502 L 3069.851,-1449.8623 L 3101.4177,-1449.6075 L 3101.4177,-1459.5518 L 3108.7017,-1459.5518 C 3114.1668,-1459.5518 3118.7224,-1454.9621 3118.7224,-1449.5225 C 3118.7224,-1444.0827 3114.1668,-1439.4932 3108.7017,-1439.4932 L 3101.4177,-1439.4932 L 3101.4177,-1450.8824 L 3069.851,-1452.1573"
         style="fill:#231f20;fill-rule:nonzero;stroke:none;stroke-width:0.036;stroke-linecap:butt;stroke-linejoin:miter;stroke-miterlimit:3.86400008;stroke-dasharray:none"
         id="path28" />
      <path
         d="M 3281.0097,-1478.1652 C 3257.7382,-1476.9754 3238.1131,-1459.8916 3238.1131,-1437.0283 C 3238.1131,-1413.315 3257.6363,-1395.1264 3282.1229,-1395.1264 C 3282.9305,-1395.1264 3358.1075,-1395.1264 3358.1075,-1395.1264 L 3358.1075,-1415.1 L 3323.7105,-1415.1 L 3323.7105,-1426.5741 L 3356.6965,-1426.5741 L 3356.6965,-1446.7177 L 3323.7105,-1446.7177 L 3323.7105,-1458.1069 L 3358.1075,-1458.1069 L 3358.1075,-1478.2502 L 3280.8055,-1478.2502 L 3282.021,-1456.9168 C 3291.9397,-1457.0868 3298.2123,-1447.9076 3298.2123,-1436.8584 C 3298.2123,-1425.8941 3292.4413,-1416.9699 3282.2249,-1416.8849 C 3273.5216,-1416.8849 3266.3396,-1425.8941 3266.3396,-1436.8584 C 3266.3396,-1447.9076 3273.5216,-1457.0018 3282.2249,-1457.0018 L 3281.0097,-1478.1652"
         style="fill:#231f20;fill-rule:nonzero;stroke:none;stroke-width:0.036;stroke-linecap:butt;stroke-linejoin:miter;stroke-miterlimit:3.86400008;stroke-dasharray:none"
         id="path30" />
      <path
         d="M 3180.139,-1364.8686 C 3188.8337,-1364.8686 3196.2198,-1355.8592 3196.2198,-1344.81 C 3196.2198,-1333.7609 3188.9357,-1324.7514 3180.241,-1324.7514 C 3171.5376,-1324.7514 3164.3557,-1333.7609 3164.3557,-1344.81 C 3164.3557,-1355.8592 3171.5376,-1364.9536 3180.241,-1364.9536 L 3180.8444,-1386.627 C 3156.3577,-1386.627 3136.1206,-1368.6084 3136.1206,-1344.895 C 3136.1206,-1321.2668 3156.0602,-1303.333 3180.5385,-1303.333 C 3205.0251,-1303.333 3225.0581,-1321.2668 3225.0581,-1344.895 C 3225.0581,-1368.6084 3205.1271,-1386.457 3180.6404,-1386.457 L 3180.139,-1364.8686"
         style="fill:#231f20;fill-rule:nonzero;stroke:none;stroke-width:0.036;stroke-linecap:butt;stroke-linejoin:miter;stroke-miterlimit:3.86400008;stroke-dasharray:none"
         id="path32" />
      <path
         d="M 3428.1338,-1334.8657 L 3419.7195,-1334.8657 L 3426.9439,-1354.9243 L 3434.0834,-1334.8657 L 3426.7739,-1334.8657 L 3426.5189,-1316.1671 L 3439.863,-1316.1671 L 3444.1127,-1303.333 L 3475.6454,-1303.333 L 3442.8378,-1386.457 L 3411.1351,-1386.457 L 3411.3051,-1386.457 L 3378.1574,-1303.333 L 3409.6902,-1303.333 L 3414.0249,-1316.1671 L 3427.7938,-1316.1671 L 3428.1338,-1334.8657"
         style="fill:#231f20;fill-rule:nonzero;stroke:none;stroke-width:0.036;stroke-linecap:butt;stroke-linejoin:miter;stroke-miterlimit:3.86400008;stroke-dasharray:none"
         id="path34" />
    </g>
  </g>
</svg>
