<svg version="1" xmlns="http://www.w3.org/2000/svg" viewBox="0 0 900 900"><path d="M0 450v450h900V0H0v450zm338.7-324.1c-1.7 4.7.5 7.7 8.8 11.6 3.8 1.8 12.9 4.8 20 6.5 15.6 3.9 20.7 6.3 26.3 12.4 9.4 10.2 10.4 16.1 10 58.9l-.3 33.9-14.5 4.4c-45.6 14.1-76.7 31.8-101.6 57.7-33.6 35-49.4 80.1-51.1 146.3-.5 19.1-.3 24.8 1.1 33.3 2.9 17.4 7.8 31.8 17.1 50.2 11.8 23.7 24.6 41.1 45.5 62 28.5 28.5 61.1 49.1 95 59.9l8.5 2.7.3 12.9c.5 24.5-3.7 47.5-11.9 64.1-4.2 8.6-10.8 15.9-15.1 16.7-1.3.2-7 1.4-12.8 2.6-20.4 4.2-21 4.3-25.1 3.1-3.2-1-4.4-.9-6.9.4-3.5 1.8-7 6.9-7 10.2 0 1.3-.3 2.3-.6 2.3-1.7 0-20.1-8.3-33.7-15.2-54-27.5-102-71.4-135-123.6-35.6-56.1-53.7-118.7-53.7-185.7 0-44.9 7.6-85.8 23.4-126.3 32.3-82.8 93.3-148.7 174-187.8 12.7-6.2 37.1-16.2 39.8-16.4.3 0 .1 1.3-.5 2.9zm231.5.5c52.9 19.2 103.4 53.6 140.5 95.9 57.5 65.5 87.5 144.7 87.4 231.2 0 64.3-16.4 123.8-49.4 179-24 40.3-59.5 78.3-99.3 106.3-17.6 12.5-45.5 27.8-63.6 35.2l-5.6 2.3-4.4-3.6c-6.8-5.5-10.9-6.8-25.8-7.8-14.2-1.1-28.8-3.9-32.4-6.3-3.6-2.3-9.7-22.2-15.7-50.6-1.6-7.7-2.3-15.2-2.7-28.1l-.4-17.5 6.4-1.8c11.6-3.2 33.1-11.7 47.4-18.7 59.5-29.2 96.8-74.9 108.6-133 2-10.2 2.3-14.2 2.3-38.9 0-29.9-.8-37.2-6.6-62-10.7-45.5-30.9-83.4-59.8-112-26.3-26-56.9-43.2-89.9-50.6l-8.3-1.9.3-36 .3-36 2.6-6.1c1.4-3.3 3.8-7.7 5.5-9.7 5.2-6.6 25.5-15.5 42.7-18.7 10.2-1.9 13.9-6 10.7-12.1-.6-1-.9-1.9-.6-1.9.3 0 4.7 1.5 9.8 3.4zM403.5 632.8c-.7.7-16.1-7.5-24.9-13.3-4.4-3-12-8.8-16.8-13-41.5-35.9-67.8-99.6-67.8-164 0-78.6 38.3-140.7 100.5-163.1l9-3.2.3 178.1c.1 97.9 0 178.2-.3 178.5zm114-343.6c35.6 21 63.8 57.2 78.4 100.6 22.5 67.2 15.6 140.2-18.1 191.3-7.5 11.3-25.9 30.1-36.8 37.6-9.9 6.7-23.4 13.6-32.9 16.8-4.2 1.4-7.9 2.5-8.4 2.5-.4 0-.7-80.5-.7-179V280l5.8 2.6c3.1 1.4 8.9 4.3 12.7 6.6z"/></svg>
