<svg viewBox="0 0 900 900" xmlns="http://www.w3.org/2000/svg"><path d="m0 450v450h900v-900h-900zm339-324c-2 5 0 8 8 11l21 7c15 4 20 6 26 12 9 11 10 16 10 59v34l-15 5c-46 14-77 31-102 57-33 35-49 80-51 147l1 33a221 221 0 0 0 63 112c29 29 61 49 95 60l9 3v13c0 24-4 47-12 64-4 8-11 16-15 16l-13 3c-20 4-21 4-25 3-3-1-5-1-7 1-3 1-7 6-7 10l-1 2-33-15a351 351 0 0 1 -166-436 347 347 0 0 1 214-204zm231 0a350 350 0 0 1 179 507 357 357 0 0 1 -163 141l-6 2-4-3c-7-6-11-7-26-8-14-1-29-4-32-6-4-3-10-23-16-51-2-8-2-15-3-28v-18l6-1 48-19c59-29 96-75 108-133 2-10 3-14 3-39 0-30-1-37-7-62-11-45-31-83-60-112-26-26-57-43-90-51l-8-1v-36l1-36 2-7 6-9c5-7 25-16 42-19 11-2 14-6 11-12l-1-2zm-166 507a129 129 0 0 1 -42-26c-42-36-68-100-68-164 0-79 38-141 101-164l9-3zm114-344c35 21 63 57 78 101 22 67 15 140-18 191-8 11-26 30-37 38a155 155 0 0 1 -41 19l-1-179v-179l6 3z" fill="#fff"/><g fill="#31435c"><path d="m317 775a349 349 0 0 1 21-651v2c-2 7 6 12 29 18 17 5 21 7 27 14 8 9 9 10 9 53v38l-20 6c-44 15-71 30-95 56-21 21-34 44-42 74-9 29-13 82-9 107 5 29 23 66 46 93 30 36 70 64 108 77l12 4v14c0 33-7 60-19 73l-5 5-18 4c-15 3-19 4-22 3h-7c-3 2-7 8-7 11 0 2-1 2-8-1z"/><path d="m393 627c-21-11-39-26-53-45-48-63-59-157-27-226a151 151 0 0 1 83-77l7-2v355zm107-168v-178l11 5c42 22 76 67 89 120 6 21 7 32 8 56a196 196 0 0 1 -34 124c-7 9-26 27-34 33-11 7-35 18-39 18z"/><path d="m577 773c-4-4-12-7-25-8l-30-5c-4-2-5-2-8-8a302 302 0 0 1 -15-76v-13l8-2 49-20c57-30 94-74 105-131 2-10 3-15 3-39 0-32-1-40-7-63-15-63-45-107-93-139-17-11-40-21-58-24l-7-2 1-36v-36l3-6 6-10c7-7 21-13 45-19 6-1 9-4 8-9v-3l7 2a352 352 0 0 1 227 293 347 347 0 0 1 -198 349c-16 8-18 8-21 5z"/></g></svg>