<?xml version="1.0" standalone="no"?>
<!DOCTYPE svg PUBLIC "-//W3C//DTD SVG 20010904//EN"
 "http://www.w3.org/TR/2001/REC-SVG-20010904/DTD/svg10.dtd">
<svg version="1.0" xmlns="http://www.w3.org/2000/svg" viewBox="0 0 450.000000 76.000000" preserveAspectRatio="xMidYMid meet">
<g transform="translate(0.000000,76.000000) scale(0.100000,-0.100000)" fill="#055b8c" stroke="none">
<path d="M1673 750 c-50 -10 -92 -31 -114 -56 -31 -36 -39 -86 -39 -233 0
-132 2 -151 23 -191 40 -79 62 -85 344 -88 253 -3 300 2 347 39 54 43 61 70
61 244 0 194 -10 224 -91 265 -47 24 -56 25 -269 27 -121 1 -239 -2 -262 -7z
m422 -165 c23 -22 25 -32 25 -120 0 -88 -2 -98 -25 -120 -23 -24 -28 -25 -179
-25 -182 0 -201 6 -217 64 -18 65 -6 172 21 201 23 25 26 25 187 25 161 0 164
0 188 -25z"/>
<path d="M10 466 l0 -286 85 0 85 0 0 75 0 75 201 0 c185 0 204 2 234 20 53
33 70 80 70 190 0 109 -17 150 -75 185 -33 19 -54 20 -317 23 l-283 3 0 -285z
m485 128 c11 -12 15 -30 13 -62 -4 -65 -21 -72 -190 -72 l-138 0 0 75 0 75
149 0 c125 0 152 -3 166 -16z"/>
<path d="M750 465 l0 -285 85 0 84 0 3 73 3 72 155 3 c188 3 192 2 198 -87 l4
-61 84 0 84 0 0 58 c0 89 -15 130 -55 149 l-34 16 32 21 c44 30 57 60 57 138
0 95 -22 145 -74 169 -37 17 -70 19 -333 19 l-293 0 0 -285z m518 133 c7 -7
12 -33 12 -60 0 -37 -4 -50 -20 -58 -12 -6 -80 -9 -177 -8 l-158 3 -2 68 -2
67 168 0 c116 0 171 -4 179 -12z"/>
<path d="M2380 465 l0 -285 85 0 85 0 0 100 0 100 210 0 210 0 0 65 0 65 -210
0 -210 0 0 55 0 55 210 0 210 0 0 65 0 65 -295 0 -295 0 0 -285z"/>
<path d="M3030 190 l0 -180 175 0 175 0 0 40 0 40 -120 0 -120 0 0 140 0 140
-55 0 -55 0 0 -180z"/>
<path d="M3410 190 l0 -180 55 0 55 0 0 180 0 180 -55 0 -55 0 0 -180z"/>
<path d="M3570 190 l0 -180 50 0 50 0 0 131 c0 76 4 129 9 127 5 -1 55 -60
110 -130 l101 -128 85 0 85 0 0 180 0 180 -55 0 -55 0 0 -132 0 -131 -102 131
-103 131 -87 0 -88 1 0 -180z"/>
<path d="M4110 330 l0 -40 190 0 190 0 0 40 0 40 -190 0 -190 0 0 -40z"/>
<path d="M4110 190 l0 -40 190 0 190 0 0 40 0 40 -190 0 -190 0 0 -40z"/>
<path d="M10 50 l0 -40 1480 0 1480 0 0 40 0 40 -1480 0 -1480 0 0 -40z"/>
<path d="M4110 50 l0 -40 190 0 190 0 0 40 0 40 -190 0 -190 0 0 -40z"/>
</g>
</svg>
