<svg xmlns="http://www.w3.org/2000/svg" viewBox="0 0 128 94.847359"><path d="M90.203.082V.009h-2.866c-.108 0-.204-.009-.31-.009v.01H29.529C9.835.01 0 7.955 0 23.846V67.61C0 83.4 9.837 91.3 29.529 91.3h57.573v-.028c19.621-.024 29.44-7.911 29.44-23.664V23.845c0-15.025-8.784-22.939-26.339-23.763zM83.902 69.09H36.15V21.72h47.752v47.37z" fill="#27387d"/><path d="M81.054 72.543s43.898 25.216 53.042 45.215h34.16c-2.832-6.715-19.113-36.586-87.202-45.215z" fill="#ec2727" stroke="#fff" stroke-width="1.433" transform="matrix(.82611 0 0 .82665 -11.89 -3.09)"/></svg>