<svg xmlns="http://www.w3.org/2000/svg" viewBox="-31.275 -31.275 935.9525 780.94185"><path d="M357.134-31.275s-160.876 0-275.93 114.036c0 0-114.036 114.036-114.036 274.908 0 0 0 161.89 113.017 275.926 0 0 114.036 113.017 274.912 114.036V617.304s-106.912-1.018-182.258-77.382c0 0-75.345-75.345-75.345-182.253 0 0 0-106.909 76.364-182.254 0 0 75.345-75.345 183.276-75.345 0 0 105.89 0 182.253 75.345 0 0 75.345 74.327 77.382 181.236h130.327S746.077 195.779 633.06 82.76c0 0-116.073-114.036-275.926-114.036" fill="#0059a2"/><path d="M362.225 449.305s5.09 24.436 13.236 41.745h528.438v-91.636H353.06s1.018 22.4 9.164 49.89m345.162 300.363h196.512V658.03H490.515s98.763 84.509 216.872 91.636m-257.6-129.309H903.9v-91.636H389.715s6.11 17.31 19.346 39.71l40.727 51.926" fill="#be002d"/></svg>