<?xml version="1.0" encoding="utf-8"?>
<!-- Generator: Adobe Illustrator 24.0.1, SVG Export Plug-In . SVG Version: 6.00 Build 0)  -->
<svg version="1.1" id="Layer_1" xmlns="http://www.w3.org/2000/svg" xmlns:xlink="http://www.w3.org/1999/xlink" x="0px" y="0px"
	 viewBox="0 0 200 51.23" style="enable-background:new 0 0 200 51.23;" xml:space="preserve">
<style type="text/css">
	.st0{fill-rule:evenodd;clip-rule:evenodd;fill:url(#SVGID_1_);}
	.st1{fill-rule:evenodd;clip-rule:evenodd;fill:#00AEEF;}
</style>
<g>
	<linearGradient id="SVGID_1_" gradientUnits="userSpaceOnUse" x1="1.3955" y1="25.8435" x2="192.778" y2="25.8435">
		<stop  offset="0" style="stop-color:#0F73C3"/>
		<stop  offset="1" style="stop-color:#00B6F1"/>
	</linearGradient>
	<path class="st0" d="M124.91,36.33c-2.41-0.28-2.25-2-2.25-3.91c0-0.58,0-6.86,0-8.52h5.09v-4.07h-5.09v-4.26h-5.75v4.25h-4.07
		v4.07h4.07v10.56c0,5.66,3.95,6.41,6.52,6.41c2.29,0,4.36-0.45,4.36-0.45s-0.01-4.15-0.01-4.48
		C126.66,36.3,125.9,36.45,124.91,36.33L124.91,36.33z M183.59,19.42c-2.83,0-5.45,0.64-8,1.94c-1.74-1.29-4.03-1.91-6.98-1.91
		c-2.86,0-7.44,0.67-10.44,1.52l-0.24,0.07v19.54h5.83V24.17c1.15-0.52,2.86-0.87,4.25-0.87c3.67,0,4.42,1.98,4.42,3.9v13.38h5.92
		V24.71c1.08-0.77,3.01-1.41,4.33-1.41c3.46,0,4.3,1.91,4.3,3.9v13.38h5.79V26.62C192.78,24.45,191.97,19.42,183.59,19.42
		L183.59,19.42z M52.22,19.83V36.4c-1.76,0.5-3.43,0.76-4.95,0.66c-3.17-0.22-4.06-1.09-4.06-4.69V19.83h-6c0,0-0.06,13.14,0,14.6
		c0.05,1.45-0.15,6.44,10.08,6.44c5.01,0,10.93-1.13,10.93-1.13v-19.9H52.22L52.22,19.83z M73.61,19.45c-1.94,0-6.17,0.28-9.16,0.99
		c0,0.54,0,4.52,0,4.52s3.41-1.78,9.47-1.78c1.87,0,4.01,0.69,4.01,3.49c0,0.77-0.01,0.91-0.01,0.91s-7.03,0.09-7.8,0.09
		c-4.41,0-7.77,2.49-7.69,6.49c0.1,5.18,5.06,6.62,9.75,6.62c7.74,0,11.54-1.06,11.54-1.06l0-14.22
		C83.71,21.92,80.7,19.45,73.61,19.45L73.61,19.45L73.61,19.45z M77.92,36.39c-1.5,0.39-3.55,0.82-6,0.55
		c-2.08-0.23-4.02-0.72-4.02-2.76c0-1.48,0.94-2.71,4.7-2.71c0,0,4.12,0,5.31,0V36.39L77.92,36.39z M26.46,36.41
		c0-0.12,0-0.17,0-0.22c2.68-1.45,4.78-2.99,4.78-10.49c0-9.58-3.29-14.9-14.82-14.9C4.76,10.8,1.4,16.3,1.4,25.69
		c0,10.1,3.85,15.02,15.02,15.02c0.25,0,17.75,0,17.75,0v-4.3H26.46L26.46,36.41L26.46,36.41z M16.41,36.32
		c-6.57,0-8.19-4.92-8.19-10.63c0-5.73,1.62-10.44,8.19-10.44c6.23,0,8.04,4.72,8.04,10.44C24.45,31.33,22.92,36.32,16.41,36.32
		L16.41,36.32z M146.97,19.86v16.57c-1.76,0.5-3.43,0.76-4.95,0.66c-3.17-0.22-4.06-1.08-4.06-4.69l0-12.54h-6
		c0,0-0.06,13.14,0,14.6c0.05,1.45-0.15,6.44,10.08,6.44c5.01,0,10.93-1.13,10.93-1.13v-19.9H146.97L146.97,19.86z M94.84,40.56
		V23.99c1.76-0.5,3.43-0.76,4.95-0.66c3.17,0.22,4.06,1.08,4.06,4.69l0,12.54h6c0,0,0.05-13.14,0-14.6
		c-0.05-1.45,0.15-6.44-10.08-6.44c-5.01,0-10.93,1.13-10.93,1.13v19.9H94.84L94.84,40.56z"/>
	<g>
		<g>
			<g>
				<g>
					<path class="st1" d="M197.62,38.21c0-0.44-0.33-0.66-1.01-0.66h-0.91v2.42h0.46v-1.04h0.45l0.49,1.04h0.51l-0.54-1.11
						C197.42,38.79,197.62,38.55,197.62,38.21z M196.54,38.64h-0.39v-0.8h0.37c0.43,0,0.62,0.12,0.62,0.42
						C197.15,38.54,196.95,38.64,196.54,38.64z"/>
				</g>
			</g>
			<path class="st1" d="M198.07,37.3c-0.41-0.42-0.94-0.64-1.52-0.64c-0.57,0-1.09,0.21-1.49,0.61c-0.42,0.42-0.65,0.97-0.65,1.53
				c0,0.56,0.22,1.09,0.63,1.5c0.41,0.42,0.94,0.64,1.51,0.64c0.56,0,1.1-0.23,1.52-0.64c0.4-0.39,0.62-0.92,0.62-1.51
				C198.69,38.23,198.46,37.69,198.07,37.3z M197.87,40.1c-0.37,0.36-0.82,0.55-1.33,0.55c-0.47,0-0.94-0.2-1.29-0.55
				c-0.35-0.36-0.55-0.82-0.55-1.3c0-0.48,0.2-0.96,0.57-1.33c0.34-0.34,0.8-0.53,1.3-0.53c0.51,0,0.97,0.19,1.32,0.55
				c0.34,0.34,0.53,0.81,0.53,1.32C198.4,39.3,198.21,39.76,197.87,40.1z"/>
		</g>
	</g>
</g>
</svg>
