<?xml version="1.0" encoding="UTF-8" standalone="no"?>
<!DOCTYPE svg PUBLIC "-//W3C//DTD SVG 1.1//EN" "http://www.w3.org/Graphics/SVG/1.1/DTD/svg11.dtd">
<svg version="1.1" xmlns="http://www.w3.org/2000/svg" xmlns:xlink="http://www.w3.org/1999/xlink" preserveAspectRatio="xMidYMid meet" viewBox="138.19215388576094 71.10800867082732 70.61601950410221 70.61612425807049"><defs><path d="M142.28 74.53C147.73 69.47 156.56 73.42 161.88 76.63C165.3 78.69 168.63 81.2 171.81 83.96C176.75 80.22 186.83 73.05 195 72.35C190.11 73.33 182.73 77.62 173.02 86.26C206 65.48 192.42 87.57 182.9 100.64C162.19 78.99 144.04 72.02 140.03 77.83C140.5 76.61 141.23 75.5 142.28 74.53ZM150 138.48C154.9 137.5 162.27 133.21 171.98 124.57C139.01 145.35 152.58 123.26 162.1 110.19C182.81 131.84 200.96 138.81 204.97 133C204.5 134.22 203.77 135.34 202.72 136.31C197.27 141.36 188.44 137.42 183.12 134.21C179.7 132.14 176.37 129.63 173.19 126.87C168.25 130.61 158.18 137.78 150 138.48Z" id="j21oVcpA0Q"></path><path d="M141.61 135.64C136.55 130.18 140.5 121.35 143.71 116.04C145.77 112.62 148.28 109.29 151.05 106.11C147.3 101.16 140.13 91.09 139.43 82.92C140.42 87.81 144.7 95.19 153.35 104.89C132.57 71.92 154.65 85.5 167.73 95.01C146.08 115.73 139.1 133.87 144.91 137.88C143.69 137.42 142.58 136.69 141.61 135.64ZM203.39 75.19C208.45 80.65 204.5 89.48 201.29 94.8C199.23 98.22 196.72 101.55 193.95 104.73C197.7 109.67 204.87 119.74 205.57 127.91C204.58 123.02 200.3 115.65 191.65 105.94C212.43 138.91 190.35 125.33 177.27 115.82C198.92 95.1 205.9 76.96 200.09 72.95C201.31 73.41 202.42 74.15 203.39 75.19Z" id="e3zHgRA3XH"></path></defs><g><g><use xlink:href="#j21oVcpA0Q" opacity="1" fill="#93bf2c" fill-opacity="1"></use><g><use xlink:href="#j21oVcpA0Q" opacity="1" fill-opacity="0" stroke="#000000" stroke-width="1" stroke-opacity="0"></use></g></g><g><use xlink:href="#e3zHgRA3XH" opacity="1" fill="#0d0d10" fill-opacity="1"></use><g><use xlink:href="#e3zHgRA3XH" opacity="1" fill-opacity="0" stroke="#000000" stroke-width="1" stroke-opacity="0"></use></g></g></g></svg>
