<?xml version="1.0" encoding="iso-8859-1"?>
<!-- Generator: Adobe Illustrator 16.0.0, SVG Export Plug-In . SVG Version: 6.00 Build 0)  -->
<!DOCTYPE svg PUBLIC "-//W3C//DTD SVG 1.1//EN" "http://www.w3.org/Graphics/SVG/1.1/DTD/svg11.dtd">
<svg version="1.1" id="Layer_1" xmlns="http://www.w3.org/2000/svg" xmlns:xlink="http://www.w3.org/1999/xlink" x="0px" y="0px"
	 viewBox="0 0 192.756 192.756" style="enable-background:new 0 0 192.756 192.756;"
	 xml:space="preserve">
<g>
	<polygon style="fill-rule:evenodd;clip-rule:evenodd;" points="0,0 192.756,0 192.756,192.756 0,192.756 0,0 	"/>
	<path style="fill-rule:evenodd;clip-rule:evenodd;fill:#E6C337;" d="M54.839,92.822c0-4.932,4.089-9.021,9.02-9.021
		c5.051,0,9.02,4.09,9.02,9.021c0,5.053-3.968,9.022-9.02,9.022C58.929,101.844,54.839,97.875,54.839,92.822L54.839,92.822z"/>
	<path style="fill-rule:evenodd;clip-rule:evenodd;fill:#678485;" d="M54.839,114.834c0-4.932,4.089-9.021,9.02-9.021
		c5.051,0,9.02,4.09,9.02,9.021c0,5.053-3.968,9.021-9.02,9.021C58.929,123.855,54.839,119.887,54.839,114.834L54.839,114.834z"/>
	<path style="fill-rule:evenodd;clip-rule:evenodd;fill:#7E7F82;" d="M54.839,48.918c0-5.053,4.089-9.022,9.02-9.022
		c5.051,0,9.02,3.969,9.02,9.022c0,4.931-3.968,9.021-9.02,9.021C58.929,57.939,54.839,53.849,54.839,48.918L54.839,48.918z"/>
	<path style="fill-rule:evenodd;clip-rule:evenodd;fill:#7E7F82;" d="M76.727,92.822c0-4.932,4.088-9.021,9.019-9.021
		c5.051,0,9.02,4.09,9.02,9.021c0,5.053-3.969,9.022-9.02,9.022C80.815,101.844,76.727,97.875,76.727,92.822L76.727,92.822z"/>
	<path style="fill-rule:evenodd;clip-rule:evenodd;fill:#7E7F82;" d="M33.073,114.834c0-4.932,3.969-9.021,9.02-9.021
		c4.93,0,9.02,4.09,9.02,9.021c0,5.053-4.089,9.021-9.02,9.021C37.042,123.855,33.073,119.887,33.073,114.834L33.073,114.834z"/>
	<path style="fill-rule:evenodd;clip-rule:evenodd;fill:#B36754;" d="M54.839,70.93c0-5.052,4.089-9.142,9.02-9.142
		c5.051,0,9.02,4.09,9.02,9.142c0,4.932-3.968,9.021-9.02,9.021C58.929,79.951,54.839,75.862,54.839,70.93L54.839,70.93z"/>
	<path style="fill-rule:evenodd;clip-rule:evenodd;fill:#FFFFFF;" d="M76.727,70.93c0-5.052,3.968-9.142,9.019-9.142
		c4.931,0,9.02,4.09,9.02,9.142c0,4.932-4.089,9.021-9.02,9.021C80.695,79.951,76.727,75.862,76.727,70.93L76.727,70.93z"/>
	<path style="fill-rule:evenodd;clip-rule:evenodd;fill:#7E7F82;" d="M33.073,70.93c0-5.052,4.089-9.142,9.02-9.142
		c5.051,0,9.02,4.09,9.02,9.142c0,4.932-3.968,9.021-9.02,9.021C37.162,79.951,33.073,75.862,33.073,70.93L33.073,70.93z"/>
	<path style="fill-rule:evenodd;clip-rule:evenodd;fill:#7E7F82;" d="M11.667,70.93c0-5.052,3.968-9.142,9.019-9.142
		c4.931,0,9.02,4.09,9.02,9.142c0,4.932-4.089,9.021-9.02,9.021C15.635,79.951,11.667,75.862,11.667,70.93L11.667,70.93z"/>
	<path style="fill-rule:evenodd;clip-rule:evenodd;fill:#FFFFFF;stroke:#FFFFFF;stroke-width:0.2188;stroke-miterlimit:2.6131;" d="
		M76.847,147.07v-12.75c0-4.451,1.202-4.211,5.532-4.211c1.323,0,3.367,0,3.367,0v2.285h-6.374l0.12,14.676H76.847L76.847,147.07z"
		/>
	<path style="fill-rule:evenodd;clip-rule:evenodd;fill:#FFFFFF;stroke:#FFFFFF;stroke-width:0.2188;stroke-miterlimit:2.6131;" d="
		M76.847,147.07v-12.75c0-4.451,1.202-4.211,5.532-4.211c1.323,0,3.367,0,3.367,0v2.285h-6.374l0.12,14.676H76.847L76.847,147.07z"
		/>
	<path style="fill-rule:evenodd;clip-rule:evenodd;fill:#FFFFFF;" d="M110.279,144.545c3.367,0,4.088-1.203,4.088-5.895
		c0-1.564,0-5.053,0-6.014c0-0.121-1.803,0-4.088,0c-3.488,0-4.33,0.602-4.33,6.014
		C105.949,143.943,107.033,144.545,110.279,144.545L110.279,144.545z M114.367,129.99v-6.135h2.646v23.215h-2.646v-2.406
		c0,0-0.48,2.406-5.051,2.406c-5.652,0-6.133-3.488-6.133-8.541c0-4.932,0.48-8.539,6.133-8.539H114.367L114.367,129.99z"/>
	<path style="fill:none;stroke:#FFFFFF;stroke-width:4.677252e-04;stroke-miterlimit:2.6131;" d="M110.279,144.545
		c3.367,0,4.088-1.203,4.088-5.895c0-1.564,0-5.053,0-6.014c0,0-1.803,0-4.088,0c-3.488,0-4.33,0.602-4.33,6.014
		C105.949,143.943,107.033,144.545,110.279,144.545L110.279,144.545z M114.367,129.99v-6.135h2.646v23.215h-2.646v-2.406
		c0,0-0.48,2.406-5.051,2.406c-5.652,0-6.133-3.488-6.133-8.541c0-4.932,0.48-8.539,6.133-8.539H114.367L114.367,129.99z"/>
	<path style="fill-rule:evenodd;clip-rule:evenodd;fill:#FFFFFF;stroke:#FFFFFF;stroke-width:0.2188;stroke-miterlimit:2.6131;" d="
		M156.939,147.07v-12.75c0-4.451,1.203-4.211,5.412-4.211c1.322,0,3.488,0,3.488,0v2.285h-6.375v14.676H156.939L156.939,147.07z"/>
	
		<path style="fill-rule:evenodd;clip-rule:evenodd;fill:#FFFFFF;stroke:#FFFFFF;stroke-width:4.677252e-04;stroke-miterlimit:2.6131;" d="
		M93.082,144.664c2.044,0,4.209-0.119,4.209-3.127v-3.127c0,0-2.405,0-4.209,0c-2.405,0-3.368,0.119-3.368,2.887
		C89.714,144.424,90.797,144.664,93.082,144.664L93.082,144.664z M97.291,144.906c-0.841,2.043-2.886,2.043-4.81,2.043
		c-3.247,0-5.412-0.721-5.412-5.291c0-4.932,2.043-5.654,5.652-5.654h4.691c0-3.246-1.204-3.488-7.457-3.488v-2.525
		c5.893,0,9.98-0.121,9.98,5.773v11.307h-2.645V144.906L97.291,144.906z"/>
	
		<path style="fill-rule:evenodd;clip-rule:evenodd;fill:#FFFFFF;stroke:#FFFFFF;stroke-width:4.677252e-04;stroke-miterlimit:2.6131;" d="
		M147.199,144.664c2.043,0,4.209-0.119,4.209-3.127v-3.127c0,0-2.285,0-4.209,0c-2.406,0-3.367,0.119-3.367,2.887
		C143.832,144.424,144.914,144.664,147.199,144.664L147.199,144.664z M151.408,144.906c-0.842,2.043-2.887,2.043-4.691,2.043
		c-3.246,0-5.531-0.721-5.531-5.291c0-4.932,2.045-5.654,5.652-5.654h4.689c0-3.246-1.082-3.488-7.455-3.488v-2.525
		c5.893,0,9.982-0.121,9.982,5.773v11.307h-2.646V144.906L151.408,144.906z"/>
	
		<path style="fill-rule:evenodd;clip-rule:evenodd;fill:#FFFFFF;stroke:#FFFFFF;stroke-width:4.677252e-04;stroke-miterlimit:2.6131;" d="
		M178.586,136.365c-0.119-1.564-0.602-4.33-4.209-4.33c-3.486,0-4.449,2.887-4.689,4.33H178.586L178.586,136.365z M180.992,138.771
		h-11.305c0,8.539,9.02,5.652,11.064,4.33v2.766c-0.844,0.361-2.887,1.324-5.895,1.324c-10.701,0.361-10.102-17.441-0.6-17.441
		C182.436,129.75,180.992,138.771,180.992,138.771L180.992,138.771z"/>
	<path style="fill-rule:evenodd;clip-rule:evenodd;fill:#FFFFFF;stroke:#FFFFFF;stroke-width:0.2188;stroke-miterlimit:2.6131;" d="
		M76.847,147.07v-12.75c0-4.451,1.202-4.211,5.532-4.211c1.323,0,3.367,0,3.367,0v2.285h-6.374l0.12,14.676H76.847L76.847,147.07z"
		/>
	
		<polygon style="fill-rule:evenodd;clip-rule:evenodd;fill:#FFFFFF;stroke:#FFFFFF;stroke-width:0.2869;stroke-miterlimit:2.6131;" points="
		140.465,129.99 136.496,147.07 134.09,147.07 130.002,134.199 126.154,147.07 123.748,147.07 119.539,129.99 122.186,129.99 
		125.191,142.018 129.039,129.99 131.205,129.99 135.172,142.018 137.939,129.99 140.465,129.99 	"/>
</g>
</svg>
