<?xml version="1.0" encoding="UTF-8" standalone="no"?>
<svg
   xmlns:dc="http://purl.org/dc/elements/1.1/"
   xmlns:cc="http://creativecommons.org/ns#"
   xmlns:rdf="http://www.w3.org/1999/02/22-rdf-syntax-ns#"
   xmlns:svg="http://www.w3.org/2000/svg"
   xmlns="http://www.w3.org/2000/svg"
   viewBox="0 0 582.14716 108.988"
   height="108.988"
   width="582.14716"
   xml:space="preserve"
   id="svg3680"
   version="1.1"><metadata
     id="metadata3686"><rdf:RDF><cc:Work
         rdf:about=""><dc:format>image/svg+xml</dc:format><dc:type
           rdf:resource="http://purl.org/dc/dcmitype/StillImage" /><dc:title></dc:title></cc:Work></rdf:RDF></metadata><defs
     id="defs3684"><clipPath
       id="clipPath3696"
       clipPathUnits="userSpaceOnUse"><path
         id="path3694"
         d="M 0,193 H 542 V 0 H 0 Z" /></clipPath></defs><g
     transform="matrix(1.3333333,0,0,-1.3333333,-68.810798,180.00133)"
     id="g3688"><g
       id="g3692"
       clip-path="url(#clipPath3696)"><g
         id="g3698"
         transform="translate(247.9248,80.6025)"><path
           d="m 0,0 c -1.745,-3.731 -4.303,-6.651 -7.674,-8.776 -2.849,-1.784 -5.852,-2.764 -9.015,-2.926 -3.16,-0.174 -7.036,-0.236 -11.644,-0.236 h -0.389 v 51.06 h 0.389 c 4.242,0 7.885,-0.08 10.941,-0.216 3.038,-0.147 5.96,-0.993 8.734,-2.524 3.831,-2.153 6.677,-5.139 8.525,-8.961 C 1.71,23.605 2.636,19.011 2.636,13.634 2.636,8.276 1.756,3.728 0,0 m 6.306,47.94 c -4.381,2.82 -9.075,4.591 -14.082,5.329 -5.003,0.719 -10.382,1.084 -16.127,1.084 h -25.31 v -81.588 h 25.533 c 5.625,0 10.942,0.384 15.935,1.173 4.976,0.788 9.585,2.541 13.827,5.289 5.07,3.213 9.285,7.822 12.614,13.835 3.321,6.015 4.971,12.815 4.971,20.421 0,7.884 -1.544,14.741 -4.652,20.573 -3.107,5.826 -7.336,10.459 -12.709,13.884"
           style="fill:#ef3120;fill-opacity:1;fill-rule:nonzero;stroke:none"
           id="path3700" /></g><path
         d="m 389.147,53.26 h 20.499 v 81.741 h -20.499 z"
         style="fill:#ef3120;fill-opacity:1;fill-rule:nonzero;stroke:none"
         id="path3702" /><g
         id="g3704"
         transform="translate(469.4785,134.9551)"><path
           d="M 0,0 V -46.736 L -26.025,0 h -25.159 v -81.588 h 18.73 v 56.879 L -0.988,-81.588 H 18.74 V 0 Z"
           style="fill:#ef3120;fill-opacity:1;fill-rule:nonzero;stroke:none"
           id="path3706" /></g><g
         id="g3708"
         transform="translate(333.7598,134.9551)"><path
           d="M 0,0 H -17.372 L -31.068,-54.749 -42.309,0 h -21.264 l 20.656,-81.588 h 22.472 z"
           style="fill:#ef3120;fill-opacity:1;fill-rule:nonzero;stroke:none"
           id="path3710" /></g><g
         id="g3712"
         transform="translate(93.1201,104.3828)"><path
           d="m 0,0 c -0.631,-1.422 -1.607,-2.648 -2.929,-3.673 -1.386,-1.132 -3.078,-1.874 -5.067,-2.218 -1.987,-0.349 -4.41,-0.522 -7.262,-0.522 h -5.871 v 21.981 h 6.855 c 2.336,0 4.301,-0.08 5.876,-0.227 1.561,-0.143 2.989,-0.492 4.268,-1.031 1.826,-0.814 3.124,-1.956 3.913,-3.434 C 0.575,9.399 0.96,7.632 0.96,5.583 0.96,3.294 0.649,1.419 0,0 M 70.139,30.572 H 53.961 L 28.663,-44.334 6.497,-16.336 c 4.71,2.301 8.478,5.402 11.288,9.294 2.811,3.885 4.213,8.957 4.213,15.209 0,4.414 -0.848,8.06 -2.561,10.935 -1.723,2.866 -4.043,5.226 -6.968,7.087 -2.85,1.79 -5.95,2.972 -9.316,3.536 -3.365,0.567 -7.303,0.847 -11.837,0.847 h -32.828 v -81.588 h 20.383 v 29.918 h 7.357 L 8.966,-51.016 h 17.429 7.547 12.904 z"
           style="fill:#ef3120;fill-opacity:1;fill-rule:nonzero;stroke:none"
           id="path3714" /></g><g
         id="g3716"
         transform="translate(168.9951,134.9551)"><path
           d="m 0,0 h -0.087 l -8.889,-31.263 5.844,-18.874 h -11.209 l -4.207,-14.797 H 1.369 l 5.093,-16.654 h 21.094 z"
           style="fill:#ef3120;fill-opacity:1;fill-rule:nonzero;stroke:none"
           id="path3718" /></g><g
         id="g3720"
         transform="translate(361.5439,134.9551)"><path
           d="m 0,0 -11.841,-54.749 -11.728,49.442 -9.165,-36.549 10.319,-39.732 H 0.049 L 20.708,0 Z"
           style="fill:#ef3120;fill-opacity:1;fill-rule:nonzero;stroke:none"
           id="path3722" /></g></g></g></svg>