<svg xmlns="http://www.w3.org/2000/svg" viewBox="0 0 582.14716 108.988"><defs><clipPath id="a"><path d="M0 193h542V0H0z"/></clipPath></defs><g clip-path="url(#a)" transform="matrix(1.33333 0 0 -1.33333 -68.81 180)"><path d="M247.925 80.603c-1.745-3.73-4.303-6.65-7.674-8.776-2.848-1.784-5.85-2.764-9.014-2.926-3.16-.173-7.036-.235-11.644-.235h-.39v51.06h.39c4.242 0 7.885-.08 10.94-.216 3.04-.148 5.96-.994 8.735-2.525 3.83-2.153 6.677-5.14 8.525-8.96 1.843-3.817 2.77-8.41 2.77-13.788 0-5.358-.88-9.906-2.637-13.634m6.306 47.94c-4.38 2.82-9.074 4.59-14.08 5.33-5.004.718-10.383 1.083-16.128 1.083h-25.31V53.368h25.533c5.625 0 10.942.384 15.935 1.173 4.976.79 9.585 2.542 13.827 5.29 5.07 3.213 9.285 7.822 12.614 13.835 3.322 6.015 4.972 12.815 4.972 20.42 0 7.885-1.544 14.742-4.652 20.574-3.107 5.825-7.336 10.458-12.71 13.883M389.147 53.26h20.5V135h-20.5zM469.478 134.955V88.22l-26.025 46.735h-25.158V53.367h18.73v56.88l31.466-56.88h19.73v81.588zM333.76 134.955h-17.372l-13.696-54.75-11.24 54.75h-21.265l20.656-81.588h22.472zM93.12 104.383c-.63-1.422-1.607-2.648-2.93-3.673-1.385-1.132-3.077-1.874-5.066-2.218-1.987-.35-4.41-.522-7.262-.522h-5.87v21.98h6.854c2.336 0 4.3-.08 5.876-.226 1.56-.143 2.99-.492 4.268-1.03 1.826-.815 3.124-1.957 3.913-3.435.792-1.478 1.177-3.245 1.177-5.294 0-2.29-.31-4.164-.96-5.583m70.14 30.572h-16.18L121.784 60.05 99.617 88.046c4.71 2.3 8.478 5.402 11.288 9.294 2.81 3.886 4.213 8.958 4.213 15.21 0 4.414-.848 8.06-2.56 10.935-1.724 2.866-4.044 5.226-6.97 7.087-2.85 1.79-5.95 2.972-9.315 3.536-3.365.567-7.303.847-11.837.847H51.608V53.367H71.99v29.918h7.358l22.738-29.918H139.966zM168.995 134.955h-.087l-8.89-31.263 5.845-18.874h-11.21l-4.206-14.797h19.917l5.093-16.653h21.094zM361.544 134.955l-11.84-54.75-11.73 49.443-9.164-36.55 10.32-39.73h22.463l20.66 81.587z" fill="#ef3120"/></g></svg>