<svg viewBox="0 0 192.756 192.756" xmlns="http://www.w3.org/2000/svg"><g clip-rule="evenodd" fill-rule="evenodd"><path d="m0 0h192.756v192.756h-192.756z"/><path d="m54.84 92.822c0-4.932 4.088-9.02 9.02-9.02 5.05 0 9.02 4.09 9.02 9.02 0 5.053-3.97 9.022-9.02 9.022-4.93 0-9.02-3.97-9.02-9.022z" fill="#e6c337"/><path d="m54.84 114.834c0-4.932 4.088-9.02 9.02-9.02 5.05 0 9.02 4.09 9.02 9.02 0 5.053-3.97 9.02-9.02 9.02-4.93 0-9.02-3.967-9.02-9.02z" fill="#678485"/><path d="m54.84 48.918c0-5.053 4.088-9.022 9.02-9.022 5.05 0 9.02 3.97 9.02 9.022 0 4.93-3.97 9.02-9.02 9.02-4.93 0-9.02-4.09-9.02-9.02zm21.887 43.904c0-4.932 4.088-9.02 9.02-9.02 5.05 0 9.02 4.09 9.02 9.02 0 5.053-3.97 9.022-9.02 9.022-4.932 0-9.02-3.97-9.02-9.022zm-43.654 22.012c0-4.932 3.97-9.02 9.02-9.02 4.93 0 9.02 4.09 9.02 9.02 0 5.053-4.09 9.02-9.02 9.02-5.05 0-9.02-3.967-9.02-9.02z" fill="#7e7f82"/><path d="m54.84 70.93c0-5.052 4.088-9.142 9.02-9.142 5.05 0 9.02 4.09 9.02 9.142 0 4.932-3.97 9.02-9.02 9.02-4.93 0-9.02-4.088-9.02-9.02z" fill="#b36754"/><path d="m76.727 70.93c0-5.052 3.968-9.142 9.02-9.142 4.93 0 9.02 4.09 9.02 9.142 0 4.932-4.09 9.02-9.02 9.02-5.052 0-9.02-4.088-9.02-9.02z" fill="#fff"/><path d="m33.073 70.93c0-5.052 4.09-9.142 9.02-9.142 5.05 0 9.02 4.09 9.02 9.142 0 4.932-3.968 9.02-9.02 9.02-4.93 0-9.02-4.088-9.02-9.02zm-21.406 0c0-5.052 3.968-9.142 9.02-9.142 4.93 0 9.02 4.09 9.02 9.142 0 4.932-4.09 9.02-9.02 9.02-5.052 0-9.02-4.088-9.02-9.02z" fill="#7e7f82"/><g fill="#fff"><path d="m76.847 147.07v-12.75c0-4.45 1.202-4.21 5.532-4.21h3.366v2.284h-6.374l.12 14.676h-2.645z" stroke="#fff" stroke-miterlimit="2.613" stroke-width=".219"/><path d="m76.847 147.07v-12.75c0-4.45 1.202-4.21 5.532-4.21h3.366v2.284h-6.374l.12 14.676h-2.645z" stroke="#fff" stroke-miterlimit="2.613" stroke-width=".219"/><path d="m110.28 144.545c3.366 0 4.087-1.203 4.087-5.895v-6.014c0-.12-1.803 0-4.088 0-3.49 0-4.33.602-4.33 6.014 0 5.293 1.083 5.895 4.33 5.895zm4.087-14.555v-6.135h2.646v23.215h-2.646v-2.406s-.48 2.406-5.05 2.406c-5.653 0-6.134-3.488-6.134-8.54 0-4.933.48-8.54 6.133-8.54h5.05z"/></g></g><path d="m110.28 144.545c3.366 0 4.087-1.203 4.087-5.895v-6.014h-4.088c-3.49 0-4.33.602-4.33 6.014 0 5.293 1.083 5.895 4.33 5.895zm4.087-14.555v-6.135h2.646v23.215h-2.646v-2.406s-.48 2.406-5.05 2.406c-5.653 0-6.134-3.488-6.134-8.54 0-4.933.48-8.54 6.133-8.54h5.05z" fill="none"/><g clip-rule="evenodd" fill="#fff" fill-rule="evenodd"><path d="m156.94 147.07v-12.75c0-4.45 1.202-4.21 5.41-4.21h3.49v2.284h-6.376v14.676h-2.525z" stroke="#fff" stroke-miterlimit="2.613" stroke-width=".219"/><path d="m93.082 144.664c2.044 0 4.21-.12 4.21-3.127v-3.127h-4.21c-2.405 0-3.368.12-3.368 2.887 0 3.127 1.083 3.367 3.368 3.367zm4.21.242c-.842 2.043-2.887 2.043-4.81 2.043-3.248 0-5.413-.722-5.413-5.292 0-4.932 2.042-5.654 5.65-5.654h4.692c0-3.246-1.204-3.488-7.457-3.488v-2.525c5.893 0 9.98-.12 9.98 5.774v11.307h-2.644v-2.164zm49.908-.242c2.042 0 4.208-.12 4.208-3.127v-3.127h-4.21c-2.405 0-3.366.12-3.366 2.887 0 3.127 1.082 3.367 3.367 3.367zm4.208.242c-.842 2.043-2.887 2.043-4.69 2.043-3.247 0-5.532-.722-5.532-5.292 0-4.932 2.045-5.654 5.652-5.654h4.69c0-3.246-1.083-3.488-7.456-3.488v-2.525c5.893 0 9.982-.12 9.982 5.774v11.307h-2.646v-2.164zm27.178-8.541c-.12-1.564-.602-4.33-4.21-4.33-3.485 0-4.448 2.887-4.688 4.33zm2.406 2.406h-11.305c0 8.54 9.02 5.653 11.064 4.33v2.767c-.843.36-2.886 1.324-5.894 1.324-10.7.362-10.102-17.44-.6-17.44 8.18 0 6.736 9.02 6.736 9.02z"/><path d="m76.847 147.07v-12.75c0-4.45 1.202-4.21 5.532-4.21h3.366v2.284h-6.374l.12 14.676h-2.645z" stroke="#fff" stroke-miterlimit="2.613" stroke-width=".219"/><path d="m140.465 129.99-3.97 17.08h-2.405l-4.088-12.87-3.848 12.87h-2.406l-4.21-17.08h2.648l3.005 12.028 3.85-12.028h2.165l3.967 12.028 2.767-12.028z" stroke="#fff" stroke-miterlimit="2.613" stroke-width=".287"/></g></svg>