<svg version="1.1" id="Layer_1" x="0" y="0" xml:space="preserve" viewBox="0 0 84.6 124.9" xmlns="http://www.w3.org/2000/svg"><style id="style1">.st0{fill:#2790cd}</style><path d="M32.9 46.4c0-.9.2-1.8.6-2.6.6-1.3 1.8-2.5 3.3-3.4 1.5-.9 3.5-1.4 5.6-1.4 2.8 0 5.3 1 7 2.4.8.7 1.5 1.5 1.9 2.4.4.8.6 1.7.6 2.6h8.9c0-2.3-.6-4.6-1.6-6.6-1.5-3-3.9-5.4-6.8-7.1-2.9-1.7-6.4-2.6-10-2.6-4.9 0-9.4 1.7-12.8 4.5-1.7 1.4-3.1 3.2-4.1 5.2-1 2-1.6 4.3-1.6 6.6z" id="path10" style="fill:#2790cd;fill-opacity:1"/><path d="M8.5 124.9h13l21.1-52 23.7 52h12.4L42.2 46.8z" id="path4" style="fill:#2790cd;fill-opacity:1"/><path class="st0" d="M18.7 37.5c0-2.2.6-4.2 1.7-6.1 1.6-2.9 4.5-5.6 8.3-7.5 3.8-1.9 8.5-3.1 13.5-3.1 6.7 0 12.8 2.1 17 5.2 2.1 1.6 3.7 3.4 4.8 5.3 1.1 1.9 1.7 4 1.7 6.1h6.7c0-3.4-.9-6.6-2.5-9.4-2.4-4.3-6.4-7.7-11.1-10.1-4.8-2.4-10.4-3.8-16.5-3.8-8.1 0-15.5 2.4-21 6.5-2.8 2.1-5 4.5-6.7 7.4-1.6 2.9-2.5 6.1-2.5 9.4h6.6z" id="path2" style="fill:#2790cd;fill-opacity:1"/><path class="st0" d="M4.5 28.7c0-3.2 1-6.3 2.8-9.1 2.7-4.3 7.5-8.1 13.6-10.9C27 6 34.4 4.4 42.4 4.4c10.7 0 20.3 2.9 27.1 7.4 3.4 2.3 6.1 4.9 7.9 7.8 1.8 2.9 2.8 5.9 2.8 9.1h4.4c0-4.1-1.3-8.1-3.5-11.5-3.4-5.2-8.8-9.5-15.5-12.5C58.9 1.7 50.9 0 42.3 0 30.8 0 20.4 3.1 12.7 8.2c-3.8 2.6-7 5.6-9.2 9.1C1.3 20.8 0 24.7 0 28.8h4.5z" id="path3"/></svg>