<svg data-name="Layer 1" xmlns="http://www.w3.org/2000/svg" viewBox="0 0 28.48 9.66">
  <path d="M3.6 9.55L2.35 5.63H1.5v3.92H0V0h2.41c1.74 0 2.44.84 2.44 2.82 0 1.18-.24 2-1.11 2.5l1.42 4.24zm-1.17-8.2H1.5v2.92h.93c.8 0 .93-.67.93-1.46s-.12-1.45-.93-1.45m5.74 8.19v-.6a1.82 1.82 0 0 1-.43.47 1.31 1.31 0 0 1-.81.24 1.58 1.58 0 0 1-1.33-.59 2.45 2.45 0 0 1-.43-1.58 2.05 2.05 0 0 1 .66-1.58 2.25 2.25 0 0 1 1.62-.48h.63v-1c0-.52-.24-.82-.68-.82a.59.59 0 0 0-.47.2.9.9 0 0 0-.21.66H5.3a2.06 2.06 0 0 1 .6-1.53 2.2 2.2 0 0 1 1.49-.58 2 2 0 0 1 1.5.52 2.22 2.22 0 0 1 .62 1.66v5zm-.08-3.12h-.47a1 1 0 0 0-.74.21 1.19 1.19 0 0 0-.28.79c0 .63.25 1 .74 1s.75-.36.75-.94zm4.72-2.67a1.14 1.14 0 0 0-1.18 1.22v4.57h-1.39V2.48h1.37v.75a2.08 2.08 0 0 1 .62-.56 2.11 2.11 0 0 1 1.1-.29v1.38zm.94-2.93a.78.78 0 1 1 .78.79.78.78 0 0 1-.78-.79m.08 1.87h1.41v6.88h-1.41zm3.41 6.42a2 2 0 0 1-.71-1.72V3.76h-.91V2.67h.91v-2h1.42v2h1v1.09h-1v3.57c0 .66.34 1 1 1V9.6a2.62 2.62 0 0 1-1.71-.48m5 .43v-.6a1.82 1.82 0 0 1-.43.47 1.31 1.31 0 0 1-.8.24 1.58 1.58 0 0 1-1.33-.59 2.45 2.45 0 0 1-.44-1.58 2.05 2.05 0 0 1 .66-1.58 2.25 2.25 0 0 1 1.62-.48h.63v-1c0-.52-.24-.82-.68-.82a.59.59 0 0 0-.47.2.9.9 0 0 0-.21.66h-1.46a2.06 2.06 0 0 1 .6-1.53 2.2 2.2 0 0 1 1.49-.58 2 2 0 0 1 1.5.52 2.22 2.22 0 0 1 .62 1.66v5zm-.08-3.13h-.47a1 1 0 0 0-.74.21 1.19 1.19 0 0 0-.28.79c0 .63.25 1 .74 1s.75-.36.75-.94zm4.9 3.13V4.47c0-.55-.31-.82-.7-.82s-.7.27-.7.82v5.08h-1.42V2.48h1.37V3a1.64 1.64 0 0 1 .47-.44 1.41 1.41 0 0 1 .71-.19 1.55 1.55 0 0 1 1.29.55 2.09 2.09 0 0 1 .4 1.53v5.1z" fill="#231f20"/>
</svg>
