<svg version="1.2" baseProfile="tiny" xmlns="http://www.w3.org/2000/svg" width="300" height="300" viewBox="0 0 300 300"><path fill="#FFF" d="M265.7 227.1c-5.5-1.2-11.3-2-17.1-2-10 0-19.2 1.7-25.9 4.5-.7.4-1.3 1.2-1.3 2 0 .3.1.7.2.9.8 2.3-.5 4.8-7 6.2-9.7 2.1-15.8 12.1-19.3 15.4-4.1 3.9-15.7 6.3-13.9 4 1.4-1.8 6.6-7.5 9.7-13.6 2.8-5.5 5.4-7 8.8-12.2 1-1.5 5-6.9 6.1-11.2 1.3-4.2.9-9.4 1.4-11.5.7-3.1 3.6-9.8 3.8-13.6.1-2.1-9 3.1-13.3 3.1s-8.5-2.6-12.4-2.8c-4.8-.2-7.8 3.7-12.1 3-2.5-.4-4.5-2.5-8.8-2.7-6.1-.2-13.6 3.4-27.7 3-13.8-.5-26.6-17.5-28.3-20.2-2-3.2-4.5-3.2-7.3-.7-2.7 2.5-6.1.5-7-1.1-1.8-3.2-6.7-12.4-14.2-14.4-10.4-2.7-15.6 5.7-15 12.5.7 6.8 5.1 8.7 7.2 12.4 2 3.6 3.1 6 6.9 7.6 2.7 1.1 3.7 2.8 2.9 5-.7 1.9-3.5 2.4-5.4 2.5-4 .2-6.7-.9-8.7-2.2-2.3-1.5-4.3-3.6-6.3-7.1-2.4-3.9-6.1-5.6-10.5-5.6-2.1 0-4 .5-5.7 1.4-6.8 3.6-15 5.7-23.7 5.7h-9.9c18.9 56.1 72 96.5 134.6 96.5 49.9 0 93.8-25.8 119.2-64.8"/><path fill="#010101" d="M265.7 227.1c-5.5-1.3-11.3-2.1-17.1-2.1-10 0-19.2 1.7-25.9 4.5-.7.4-1.3 1.1-1.3 2 0 .3.1.7.2.9.8 2.3-.5 4.8-7 6.3-9.7 2.1-15.8 12.1-19.3 15.4-4.1 3.9-15.7 6.3-13.9 4 1.4-1.8 6.6-7.5 9.7-13.6 2.8-5.5 5.4-7 8.8-12.2 1-1.5 5-6.9 6.1-11.2 1.3-4.2.9-9.4 1.4-11.5.7-3.1 3.6-9.8 3.8-13.6.1-2.1-9 3.1-13.3 3.1s-8.5-2.6-12.4-2.7c-4.8-.2-7.8 3.7-12.1 3-2.5-.4-4.5-2.5-8.8-2.7-6.1-.2-13.6 3.4-27.7 3-13.8-.5-26.6-17.5-28.3-20.2-2-3.2-4.5-3.2-7.3-.7-2.7 2.5-6.1.5-7-1.1-1.8-3.2-6.7-12.4-14.2-14.4-10.4-2.7-15.6 5.7-15 12.5.7 6.8 5.1 8.7 7.2 12.3 2 3.6 3.1 6 6.9 7.6 2.7 1.1 3.7 2.8 2.9 5-.7 1.9-3.5 2.4-5.4 2.5-4 .2-6.7-.9-8.7-2.2-2.3-1.5-4.3-3.6-6.3-7.1-2.4-3.9-6.1-5.6-10.5-5.6-2.1 0-4 .6-5.7 1.4-6.8 3.6-15 5.7-23.7 5.7h-9.9c-4.8-14.2-7.4-29.5-7.4-45.3 0-78.4 63.6-141.9 142-141.9s142 63.5 142 141.9c-.1 28.4-8.4 54.8-22.8 77"/><path fill="#010101" d="M177.7 214.1c.7.7 2 3.1.5 6.1-.9 1.6-1.8 2.7-3.5 4.1-2 1.6-5.9 3.5-11.2 0-2.9-1.8-3.1-2.4-7-1.9-2.8.4-4-2.5-3-4.9 1-2.4 5.2-4.3 10.4-1.2 2.4 1.4 6 4.3 9.2 1.7 1.3-1 2.1-1.8 4-3.9.1-.1.2-.1.3-.1.2 0 .3.1.3.1"/><path fill="#E93643" d="M135.4 75.7c-16.4 1.2-18.1 3-21.2 6.2-4.3 4.6-10-6-10-6-3.4-.7-7.6-6.2-5.3-11.4 2.2-5.1 6.3-3.6 7.6-2 1.5 1.9 4.9 5.1 9.2 5 4.3-.1 9.3-1 16.2-1 7 0 11.7 2.6 12 4.9.1 1.9-.7 3.7-8.5 4.3m17.3-27.1c-.3 0-.5-.2-.5-.4s.1-.3.3-.4c3.2-1.7 7.9-3 13.3-3.6 1.6-.2 3.2-.3 4.7-.3h.8c9.1.2 16.4 3.8 16.3 8.1-.1 4.2-7.6 7.5-16.7 7.3-2.9-.1-5.7-.5-8.1-1.2-.3-.1-.5-.3-.5-.6s.2-.5.5-.6c5.7-1.3 9.5-3.5 9.2-5.5-.4-2.7-7.8-4.1-16.6-3.3-.9.2-1.8.4-2.7.5m73.9 63.7c-1.4 4.7-3.4 10.7-12.3 15.3-1.3.7-1.8-.4-1.2-1.4 3.4-5.7 4-7.1 4.9-9.4 1.4-3.3 2.1-8-.6-17.7-5.3-19.2-16.5-44.9-24.6-53.2-7.8-8-22-10.3-34.8-7-4.7 1.2-13.9 6-31 2.1-29.6-6.7-34 8.1-35.7 14.6-1.7 6.5-5.8 24.8-5.8 24.8-1.4 7.5-3.1 20.5 42.8 29.2 21.4 4.1 22.5 9.6 23.4 13.6 1.7 7.1 4.4 11.2 7.5 13.2s0 3.7-3.4 4.1c-9.1 1-42.8-8.7-62.7-20-16.3-10-16.6-18.9-12.8-26.5-24.6-2.7-43.1 2.3-46.5 14-5.8 20 44 54.2 100.6 71.3 59.5 18 120.6 5.4 127.4-31.9 3.2-17.2-11.1-29.7-35.2-35.1"/><g fill="#010101"><path d="M287 219.6h1.3l1.9 3.2h1.2l-2.1-3.2c1.1-.1 1.9-.7 1.9-2 0-1.5-.9-2.1-2.6-2.1h-2.8v7.3h1.1c.1-.1.1-3.2.1-3.2zm0-1v-2.3h1.5c.8 0 1.6.2 1.6 1.1 0 1.1-.8 1.2-1.8 1.2H287z"/><path d="M295.5 219.1c0 4-3.2 7.2-7.2 7.2s-7.2-3.2-7.2-7.2 3.2-7.2 7.2-7.2 7.2 3.2 7.2 7.2m-7.2-5.9c-3.3 0-5.9 2.6-5.9 5.9 0 3.2 2.6 5.9 5.9 5.9 3.2 0 5.9-2.6 5.9-5.9 0-3.3-2.6-5.9-5.9-5.9"/></g></svg>