<svg xmlns="http://www.w3.org/2000/svg" viewBox="0 0 300 266"><path d="M186.4 258.3c0-.5 9-14 19.5-29 3.7-5.3 5-8.4 5.4-12.7.3-3.1 1.6-9.3 2.9-13.9 1.4-4.6 2.2-8.6 1.9-8.9-.3-.3-2.8.2-5.5 1.1-5.9 2.1-9.8 2.2-16.6.4-4.3-1.1-5.9-1-10.2.6-4.9 1.9-5.5 1.9-10 0-4.5-1.8-5.5-1.8-16.3.1-20.2 3.5-26.7 1.6-40.2-12.3-8.4-8.6-11.5-10.4-13.1-7.8-.4.6-1.9 1.2-3.4 1.2-2 0-3.7-1.5-6.4-5.8-2-3.2-5.1-6.8-6.9-8.1-9.7-6.9-20.7-1.9-20.7 9.4 0 4.7 9.3 18.8 14.1 21.2 6.2 3.2 2.7 8-5.1 7-4-.5-5.8-1.8-11.3-7.6-5.8-6.3-6.9-7-11-7-2.5 0-6.6 1-9.2 2.2-6.7 3-15.4 4.7-24.5 4.7H12l-1.8-6.6c-4.1-15-4.8-20.9-4.8-39.4 0-14.1.5-21.5 2.1-28.7 8.5-39.2 30.3-71 63.3-92.5C87 15.4 101.9 9.3 120.9 5.2c13.6-2.9 43.9-3 57.1-.2 44.9 9.7 82.1 38 101.5 77.3 10.8 22 15 39.9 15 65 0 24.5-4.1 42.6-14.4 63.8-7.5 15.4-6.4 14.6-17.3 13.2-9.8-1.2-22.7-.2-31 2.5-3.7 1.2-4.7 2.2-5.2 4.9-.5 2.9-1.6 3.8-7.5 6-5 1.9-9 4.7-14.4 10-4.1 4-8.5 7.8-9.8 8.5-2.8 1.5-8.5 2.9-8.5 2.1zm27.6-74.7c25.6-3.9 43.4-14.4 50.8-30 6.3-13.3 3.6-25.6-7.7-34.2-5.4-4.1-19.2-10.1-23.3-10.1-1.1 0-3.1 2.1-4.5 4.9-2.3 4.3-8.6 10.1-11 10.1-.4 0 .8-2.9 2.7-6.5 2-3.8 3.5-8.2 3.5-10.7 0-11.1-12-43.7-21.7-58.7-4.5-7-6.7-9.2-11.7-11.9-8.7-4.7-19-5.3-32.5-1.8-8.1 2.1-11.9 2.4-19.5 1.9-31.3-2.3-30.1-2.3-35.2.4-6.7 3.2-8.8 7.1-12.9 24-4.4 18.3-4.5 23.9-.5 28.7 4.1 4.9 17.2 10.9 30.4 13.9 15.7 3.6 26.4 6.8 29.4 8.7 1.4.9 3.2 3.4 4 5.4 3.3 8.8 5.1 12.4 7.1 14.2 1.2 1.1 2.1 2.6 2.1 3.3 0 8.3-59.4-10.2-74.7-23.3-6.6-5.7-8.5-9.8-7.7-16.8l.7-5.7-15.3.6c-12.8.4-16 .9-20.7 3.1C30 100.8 30.7 113.6 48 130c25.3 24 77.1 47.4 118.2 53.4 14.2 2.1 34.6 2.2 47.8.2zM106.6 72.5c-4.1-4.2-5.7-6.7-5.7-9.1 0-5.7 4.1-8.7 7.5-5.4 5.1 5 6.9 5.4 18.2 4.7 11.9-.8 18.8.6 20 3.9 1.2 3-.9 3.9-11 5.1-10.9 1.2-16.3 2.7-18.3 5.1-2.3 2.7-4.8 1.7-10.7-4.3zm64.6-18.1c-5.3-.4-5.6-1.8-.7-3.2 4.5-1.3 6.9-4.6 4.5-6.1-2.6-1.6-11.4-2.6-15.2-1.8-2.3.5-3.3.4-2.8-.4 1.2-2 13.4-4 20.3-3.3 7.2.7 13.1 3.2 14.2 6.2 1.9 4.9-8.8 9.5-20.3 8.6zm-4.1 168.8c-2.1-1.3-5.1-2.3-6.6-2.3-3.4 0-4.8-2.7-2.8-5.2 1.8-2.2 7.7-2.1 11.5 0 4 2.3 7.3 2.1 9.8-.6 2.8-3.1 4-2.9 4 .7 0 3.7-5.8 9.7-9.4 9.7-1.5 0-4.4-1-6.5-2.3zm0 0"/><path fill="#CA0000" d="M174.6 32.4c-4.8 0-10.1.7-16 2.2-8.1 2.1-11.9 2.4-19.5 1.9-31.3-2.3-30-2.3-35.2.4-6.7 3.3-8.8 7.2-12.9 24.1-4.4 18.3-4.5 23.9-.5 28.7 4.1 4.9 17.2 10.9 30.4 13.9 15.7 3.6 26.4 6.8 29.4 8.7 1.4.9 3.2 3.4 4 5.4 3.3 8.8 5.1 12.4 7.1 14.2 1.2 1.1 2.2 2.6 2.2 3.3 0 8.3-59.4-10.2-74.7-23.3-6.6-5.7-8.5-9.8-7.7-16.8l.7-5.7-15.4.6c-12.8.4-16 .9-20.7 3.1-15.9 7.7-15.1 20.5 2.2 36.9 25.3 24 77.1 47.4 118.2 53.4 14.1 2.1 34.6 2.1 47.8.1 25.6-3.9 43.3-14.4 50.7-29.9 6.3-13.3 3.6-25.6-7.7-34.2-5.4-4.1-19.2-10.1-23.3-10.1-1.1 0-3.1 2.1-4.6 4.9-2.3 4.3-8.6 10.1-11 10.1-.4 0 .8-2.9 2.7-6.5 2-3.8 3.5-8.2 3.5-10.7 0-11.1-12-43.7-21.7-58.7-4.5-7-6.7-9.3-11.7-12-4.7-2.6-10.1-4-16.3-4zm-.1 7c1 0 2 0 2.8.1 7.2.7 13.1 3.2 14.2 6.2 1.9 5-8.8 9.7-20.3 8.7-5.3-.4-5.6-1.8-.7-3.2 4.5-1.3 6.9-4.6 4.5-6.1-2.6-1.6-11.3-2.6-15.2-1.8-2.3.5-3.3.4-2.8-.4 1-1.8 10.5-3.5 17.5-3.5zm-69.3 17.2c1-.1 2.2.3 3.2 1.4 5.1 5 6.8 5.4 18.2 4.7 11.9-.8 18.8.5 20.1 3.8 1.2 3-.9 3.9-11 5.1-10.9 1.2-16.3 2.7-18.3 5.1-2.3 2.8-4.9 1.9-10.8-4.1-4.2-4.2-5.6-6.7-5.6-9.1 0-4.1 1.9-6.7 4.2-6.9zm0 0"/></svg>