<?xml version="1.0" encoding="utf-8"?>
<!-- Generator: Adobe Illustrator 18.1.1, SVG Export Plug-In . SVG Version: 6.00 Build 0)  -->
<svg version="1.2" baseProfile="tiny" id="Calque_1"
	 xmlns="http://www.w3.org/2000/svg" xmlns:xlink="http://www.w3.org/1999/xlink" x="0px" y="0px" width="300px" height="300px"
	 viewBox="0 0 300 300" xml:space="preserve">
<g>
	<path fill="#FFFFFF" d="M265.7,227.1c-5.5-1.2-11.3-2-17.1-2c-10,0-19.2,1.7-25.9,4.5c-0.7,0.4-1.3,1.2-1.3,2
		c0,0.3,0.1,0.7,0.2,0.9c0.8,2.3-0.5,4.8-7,6.2c-9.7,2.1-15.8,12.1-19.3,15.4c-4.1,3.9-15.7,6.3-13.9,4c1.4-1.8,6.6-7.5,9.7-13.6
		c2.8-5.5,5.4-7,8.8-12.2c1-1.5,5-6.9,6.1-11.2c1.3-4.2,0.9-9.4,1.4-11.5c0.7-3.1,3.6-9.8,3.8-13.6c0.1-2.1-9,3.1-13.3,3.1
		s-8.5-2.6-12.4-2.8c-4.8-0.2-7.8,3.7-12.1,3c-2.5-0.4-4.5-2.5-8.8-2.7c-6.1-0.2-13.6,3.4-27.7,3c-13.8-0.5-26.6-17.5-28.3-20.2
		c-2-3.2-4.5-3.2-7.3-0.7c-2.7,2.5-6.1,0.5-7-1.1c-1.8-3.2-6.7-12.4-14.2-14.4c-10.4-2.7-15.6,5.7-15,12.5c0.7,6.8,5.1,8.7,7.2,12.4
		c2,3.6,3.1,6,6.9,7.6c2.7,1.1,3.7,2.8,2.9,5c-0.7,1.9-3.5,2.4-5.4,2.5c-4,0.2-6.7-0.9-8.7-2.2c-2.3-1.5-4.3-3.6-6.3-7.1
		c-2.4-3.9-6.1-5.6-10.5-5.6c-2.1,0-4,0.5-5.7,1.4c-6.8,3.6-15,5.7-23.7,5.7l-9.9,0c18.9,56.1,72,96.5,134.6,96.5
		C196.4,291.9,240.3,266.1,265.7,227.1"/>
	<path fill="#010101" d="M265.7,227.1c-5.5-1.3-11.3-2.1-17.1-2.1c-10,0-19.2,1.7-25.9,4.5c-0.7,0.4-1.3,1.1-1.3,2
		c0,0.3,0.1,0.7,0.2,0.9c0.8,2.3-0.5,4.8-7,6.3c-9.7,2.1-15.8,12.1-19.3,15.4c-4.1,3.9-15.7,6.3-13.9,4c1.4-1.8,6.6-7.5,9.7-13.6
		c2.8-5.5,5.4-7,8.8-12.2c1-1.5,5-6.9,6.1-11.2c1.3-4.2,0.9-9.4,1.4-11.5c0.7-3.1,3.6-9.8,3.8-13.6c0.1-2.1-9,3.1-13.3,3.1
		s-8.5-2.6-12.4-2.7c-4.8-0.2-7.8,3.7-12.1,3c-2.5-0.4-4.5-2.5-8.8-2.7c-6.1-0.2-13.6,3.4-27.7,3c-13.8-0.5-26.6-17.5-28.3-20.2
		c-2-3.2-4.5-3.2-7.3-0.7c-2.7,2.5-6.1,0.5-7-1.1c-1.8-3.2-6.7-12.4-14.2-14.4c-10.4-2.7-15.6,5.7-15,12.5c0.7,6.8,5.1,8.7,7.2,12.3
		c2,3.6,3.1,6,6.9,7.6c2.7,1.1,3.7,2.8,2.9,5c-0.7,1.9-3.5,2.4-5.4,2.5c-4,0.2-6.7-0.9-8.7-2.2c-2.3-1.5-4.3-3.6-6.3-7.1
		c-2.4-3.9-6.1-5.6-10.5-5.6c-2.1,0-4,0.6-5.7,1.4c-6.8,3.6-15,5.7-23.7,5.7h-9.9c-4.8-14.2-7.4-29.5-7.4-45.3
		c0-78.4,63.6-141.9,142-141.9c78.4,0,142,63.5,142,141.9C288.4,178.5,280.1,204.9,265.7,227.1"/>
	<path fill="#010101" d="M177.7,214.1c0.7,0.7,2,3.1,0.5,6.1c-0.9,1.6-1.8,2.7-3.5,4.1c-2,1.6-5.9,3.5-11.2,0
		c-2.9-1.8-3.1-2.4-7-1.9c-2.8,0.4-4-2.5-3-4.9c1-2.4,5.2-4.3,10.4-1.2c2.4,1.4,6,4.3,9.2,1.7c1.3-1,2.1-1.8,4-3.9
		c0.1-0.1,0.2-0.1,0.3-0.1C177.6,214,177.7,214.1,177.7,214.1"/>
	<path fill="#E93643" d="M135.4,75.7c-16.4,1.2-18.1,3-21.2,6.2c-4.3,4.6-10-6-10-6c-3.4-0.7-7.6-6.2-5.3-11.4
		c2.2-5.1,6.3-3.6,7.6-2c1.5,1.9,4.9,5.1,9.2,5c4.3-0.1,9.3-1,16.2-1c7,0,11.7,2.6,12,4.9C144,73.3,143.2,75.1,135.4,75.7
		 M152.7,48.6L152.7,48.6c-0.3,0-0.5-0.2-0.5-0.4c0-0.2,0.1-0.3,0.3-0.4c3.2-1.7,7.9-3,13.3-3.6c1.6-0.2,3.2-0.3,4.7-0.3h0.8
		c9.1,0.2,16.4,3.8,16.3,8.1c-0.1,4.2-7.6,7.5-16.7,7.3c-2.9-0.1-5.7-0.5-8.1-1.2c-0.3-0.1-0.5-0.3-0.5-0.6c0-0.3,0.2-0.5,0.5-0.6
		c5.7-1.3,9.5-3.5,9.2-5.5c-0.4-2.7-7.8-4.1-16.6-3.3C154.5,48.3,153.6,48.5,152.7,48.6 M226.6,112.3c-1.4,4.7-3.4,10.7-12.3,15.3
		c-1.3,0.7-1.8-0.4-1.2-1.4c3.4-5.7,4-7.1,4.9-9.4c1.4-3.3,2.1-8-0.6-17.7c-5.3-19.2-16.5-44.9-24.6-53.2c-7.8-8-22-10.3-34.8-7
		c-4.7,1.2-13.9,6-31,2.1c-29.6-6.7-34,8.1-35.7,14.6c-1.7,6.5-5.8,24.8-5.8,24.8c-1.4,7.5-3.1,20.5,42.8,29.2
		c21.4,4.1,22.5,9.6,23.4,13.6c1.7,7.1,4.4,11.2,7.5,13.2s0,3.7-3.4,4.1c-9.1,1-42.8-8.7-62.7-20c-16.3-10-16.6-18.9-12.8-26.5
		c-24.6-2.7-43.1,2.3-46.5,14c-5.8,20,44,54.2,100.6,71.3c59.5,18,120.6,5.4,127.4-31.9C265,130.2,250.7,117.7,226.6,112.3"/>
	<g id="g3880">
		<path fill="#010101" d="M287,219.6h1.3l1.9,3.2h1.2l-2.1-3.2c1.1-0.1,1.9-0.7,1.9-2c0-1.5-0.9-2.1-2.6-2.1h-2.8v7.3h1.1
			C287,222.7,287,219.6,287,219.6z M287,218.6v-2.3h1.5c0.8,0,1.6,0.2,1.6,1.1c0,1.1-0.8,1.2-1.8,1.2H287z"/>
		<path fill="#010101" d="M295.5,219.1c0,4-3.2,7.2-7.2,7.2s-7.2-3.2-7.2-7.2c0-4,3.2-7.2,7.2-7.2S295.5,215.1,295.5,219.1
			 M288.3,213.2c-3.3,0-5.9,2.6-5.9,5.9c0,3.2,2.6,5.9,5.9,5.9c3.2,0,5.9-2.6,5.9-5.9C294.2,215.8,291.6,213.2,288.3,213.2"/>
	</g>
</g>
<g>
</g>
<g>
</g>
<g>
</g>
<g>
</g>
<g>
</g>
<g>
</g>
</svg>
