<svg viewBox="0 0 200 36.093" xmlns="http://www.w3.org/2000/svg"><path d="m78.927 17.952c0 6.68 4.95 11.612 13.215 11.612 3.486 0 6.78-.55 10.183-2.14l3.09 4.226c-4.276 2.262-8.393 3.443-14.72 3.443-13.19 0-22.888-6.35-22.888-17.14v-.003c0-10.784 9.7-17.14 22.89-17.14 6.325 0 9.96.928 14.418 2.838l-3.175 4.856c-3.37-1.796-6.312-2.163-9.798-2.163-8.264 0-13.215 4.92-13.215 11.604m50.333-17.14c-12.772 0-21.984 6.357-21.984 17.144 0 10.79 9.212 17.142 21.984 17.142 12.77 0 21.98-6.35 21.98-17.143 0-10.788-9.21-17.145-21.98-17.145m0 28.954c-7.028 0-10.907-5.28-10.907-11.816s3.88-11.81 10.907-11.81c7.023 0 10.903 5.274 10.903 11.81 0 6.535-3.88 11.815-10.903 11.815m55.186-9.326v13.797h10.554v-32.557h-10.554v12.408h-16.133v-12.41h-10.533v32.56h10.533v-13.8h16.133zm-134.118 13.797h11.116v-32.557h-11.116zm-31.878-17.657-.004 3.115c5.23 4.04 10.557 9.415 14.464 14.542h12.44c-4.33-5.084-10.967-11.127-15.858-14.167 5.74-.24 12.143-2.562 12.143-9.15 0-8.462-9.04-10.005-18.176-10.005-7.465 0-14.346.34-18.46.68v32.642h10.366v-27.732c1.92-.205 3.983-.433 8.143-.433 5.34 0 8.044 1.762 8.044 4.847 0 2.626-1.12 5.774-13.105 5.66" fill="#d7063b"/></svg>