<?xml version="1.0" encoding="UTF-8"?>
<svg version="1.1" xmlns="http://www.w3.org/2000/svg" width="360" height="360">
<path d="M0 0 C118.8 0 237.6 0 360 0 C360 118.8 360 237.6 360 360 C241.2 360 122.4 360 0 360 C0 241.2 0 122.4 0 0 Z " fill="#D2232A" transform="translate(0,0)"/>
<path d="M0 0 C0.75473099 -0.0065712 1.50946198 -0.0131424 2.2870636 -0.01991272 C4.80197242 -0.03972318 7.31682079 -0.05133639 9.83178711 -0.0612793 C10.69350462 -0.06535482 11.55522213 -0.06943035 12.44305229 -0.07362938 C17.01964963 -0.09454065 21.5962167 -0.10881033 26.17285156 -0.11816406 C30.8628624 -0.12913214 35.552386 -0.16340372 40.2422266 -0.20333576 C43.87581647 -0.22974073 47.50929562 -0.23787768 51.14297295 -0.24144554 C52.86862855 -0.24626429 54.59428084 -0.25774042 56.31984138 -0.27648354 C74.60651899 -0.46247783 93.92575479 2.15807988 107.79663086 15.17700195 C110.13485467 17.68186978 112.01968573 20.24963337 113.79663086 23.17700195 C114.21041992 23.83442383 114.62420898 24.4918457 115.05053711 25.16918945 C120.17927855 35.21223019 119.42917573 50.31169903 116.17163086 60.86450195 C115.43847531 62.66034987 114.64815559 64.43416162 113.79663086 66.17700195 C113.3725293 67.05485352 112.94842773 67.93270508 112.51147461 68.8371582 C104.31820891 83.96845392 88.51508698 91.40271704 72.78100586 96.36450195 C69.79663086 97.17700195 69.79663086 97.17700195 67.79663086 97.17700195 C68.28389648 97.98137695 68.77116211 98.78575195 69.27319336 99.61450195 C79.94003903 117.28001509 90.22853359 135.16916605 100.51708984 153.05664062 C104.57764846 160.10326663 108.71020202 167.09733682 112.96459961 174.02856445 C114.37671732 176.45535949 115.66603889 178.86231055 116.91113281 181.3737793 C117.26585159 182.08786957 117.62057037 182.80195984 117.98603821 183.53768921 C118.25353378 184.07866241 118.52102936 184.61963562 118.79663086 185.17700195 C111.24350262 185.47925572 103.69100538 185.70969998 96.13319397 185.85056019 C92.62250124 185.91820604 89.11596496 186.00976279 85.60766602 186.15771484 C63.13483503 187.08006365 63.13483503 187.08006365 57.83282471 184.0574646 C54.42773802 180.76212436 53.21376043 176.57785816 51.79663086 172.17700195 C50.65560629 170.11135959 49.46547679 168.0720289 48.22631836 166.0637207 C47.03968941 163.9983092 45.85484229 161.93187314 44.67163086 159.86450195 C43.35830674 157.57907097 42.04449359 155.29392096 40.73022461 153.0090332 C39.74578369 151.29707764 39.74578369 151.29707764 38.74145508 149.55053711 C35.75708888 144.37378941 32.74759484 139.2118503 29.73413086 134.05200195 C29.17040771 133.08584961 28.60668457 132.11969727 28.02587891 131.12426758 C24.97265105 125.89389121 21.91136497 120.66834129 18.84350586 115.4465332 C18.19776611 114.34519043 17.55202637 113.24384766 16.88671875 112.10913086 C15.64347373 109.98892987 14.39796408 107.87005475 13.14990234 105.75268555 C12.59375244 104.80345215 12.03760254 103.85421875 11.46459961 102.8762207 C10.97241943 102.03921631 10.48023926 101.20221191 9.97314453 100.33984375 C8.79663086 98.17700195 8.79663086 98.17700195 7.79663086 95.17700195 C8.88459961 95.13961914 9.97256836 95.10223633 11.09350586 95.0637207 C27.83235121 94.36794136 45.37023865 91.45546092 57.79663086 79.17700195 C64.28518607 71.40781084 67.51345975 62.97635917 67.21459961 52.8293457 C66.36842755 47.45971179 63.65955876 43.72944187 59.54663086 40.30200195 C50.30879517 36.52288735 40.74366185 36.83467122 30.94897461 36.76293945 C29.32515 36.7442013 27.70133485 36.72462598 26.07752991 36.70425415 C21.83128473 36.65320623 17.58500807 36.61343532 13.33862305 36.57611084 C8.99447011 36.53589851 4.650445 36.4848853 0.30639648 36.43481445 C-8.19677098 36.33837945 -16.70000239 36.25387233 -25.20336914 36.17700195 C-24.07640505 32.73446797 -22.9810848 29.4798535 -21.25024414 26.29418945 C-20.88092773 25.60711914 -20.51161133 24.92004883 -20.13110352 24.2121582 C-19.548125 23.14288086 -19.548125 23.14288086 -18.95336914 22.05200195 C-18.14491314 20.55002392 -17.33762807 19.04741505 -16.53149414 17.54418945 C-16.13639648 16.8078125 -15.74129883 16.07143555 -15.33422852 15.31274414 C-13.23665232 11.35125955 -11.26660605 7.32850852 -9.29711914 3.30200195 C-7.13683058 -0.8951301 -4.31919916 0.01614552 0 0 Z " fill="#FEFDFD" transform="translate(162.203369140625,77.822998046875)"/>
<path d="M0 0 C18.15 0 36.3 0 55 0 C53.79555387 3.01111532 52.65158516 5.82199701 51.21643066 8.69412231 C50.87159134 9.38662079 50.52675201 10.07911926 50.17146301 10.79260254 C49.61189156 11.90870911 49.61189156 11.90870911 49.04101562 13.04736328 C48.64403976 13.84306732 48.2470639 14.63877136 47.83805847 15.45858765 C46.52946215 18.08017033 45.21795561 20.70028433 43.90625 23.3203125 C42.99455253 25.14438119 42.08297381 26.96850924 41.17150879 28.79269409 C39.26293796 32.61130878 37.35292446 36.42919744 35.44189453 40.24658203 C32.99111944 45.14242871 30.5439468 50.04006567 28.09784698 54.93824959 C26.21713889 58.70327651 24.33452916 62.46735 22.45133972 66.23113632 C21.54808301 68.03698224 20.64542142 69.84312596 19.74336243 71.64957047 C18.48383486 74.17116118 17.22175528 76.69145806 15.95898438 79.21142578 C15.58593674 79.95954529 15.2128891 80.70766479 14.82853699 81.47845459 C13.34226837 84.4388383 11.8399899 87.24001515 10 90 C7.59555054 90.36076355 7.59555054 90.36076355 4.54052734 90.34057617 C3.39949554 90.34034958 2.25846375 90.34012299 1.08285522 90.33988953 C-0.77186905 90.31666374 -0.77186905 90.31666374 -2.6640625 90.29296875 C-3.92640717 90.28872391 -5.18875183 90.28447906 -6.48934937 90.28010559 C-9.84661351 90.26613137 -13.20326932 90.23917302 -16.56036377 90.20599365 C-19.98550148 90.17531352 -23.41070201 90.1616047 -26.8359375 90.14648438 C-33.5574605 90.11334641 -40.27869511 90.06309539 -47 90 C-42.27400377 80.50717492 -37.51878293 71.03281628 -32.625 61.625 C-32.07046143 60.55773682 -31.51592285 59.49047363 -30.94458008 58.39086914 C-27.23285478 51.27952999 -23.39755239 44.25027233 -19.46191406 37.26098633 C-16.16603273 31.37847249 -13.13213482 25.39339198 -10.1796875 19.33203125 C-6.90630206 12.82632435 -3.42720319 6.42600597 0 0 Z " fill="#FEFDFD" transform="translate(107,173)"/>
<path d="M0 0 C4.11932996 4.4282797 5.36698293 8.4808672 5.5625 14.5 C5.20518575 22.43420869 3.1489312 27.21062449 -2.5625 32.6875 C-12.75619735 41.02953323 -24.15265966 43.0135124 -37 42 C-43.18851138 40.43498628 -48.20209143 37.14970654 -52 32 C-54.56987377 26.62662758 -55.02917995 21.23381923 -53.23046875 15.58203125 C-49.46236743 6.9939558 -42.77224303 0.52018558 -34.3125 -3.5 C-23.69090908 -7.59956141 -9.18739564 -7.61241353 0 0 Z " fill="#FEFCFC" transform="translate(171,126)"/>
</svg>
