<svg version="1.2" baseProfile="tiny" xmlns="http://www.w3.org/2000/svg" viewBox="0 0 410.9 229.7"><path d="M0 129.7h402v-20.5H0v20.5zM223.5 0l-.5 1.5-5.9 20.3h13.4L207 92.9h24.4l23.4-71.3h13.4L274.9.1 223.5 0zM160.9 0l-7 21.7h15.4l-22.7 71.2h23.8l23.1-71.3h13.7L213.9 0h-53zM127.3.1L97.1 92.9h24L151.3.1h-24zM402 71.5h-37.4L387.9.1h-24.1l-29.6 92.8H402V71.5zM296.1 0l-52.3 92.9h24.7l7.5-13.5h26.4L301 92.9h23.8L333.6 0h-37.5zm8.3 60.2h-17.8l22-39.9-4.2 39.9zM109.5 21.3c0 2.9-.5 6-1.5 9.1-5.3 16.4-17 26.4-32 28.4l-2.2.2L88 93H63.3L50.4 57.7 39.8 92.9h-24l10.8-33.5H0V40.2h32.5L45.7.1h41.4c7.9 0 14.4 3 18.4 8.4 2.7 3.6 4 8 4 12.8zm-23.2 4.5c0-1.6-.4-2.9-1.2-4.1-1.2-1.7-3.4-2.6-5.9-2.6H62.3l-6.4 21.1h14.8c6.4 0 13.1-5 15.1-11.2.3-1.1.5-2.2.5-3.2z"/><path fill-rule="evenodd" fill="#E3006B" d="M410.9 158.1v71.6h-50.6v-71.6h50.6z"/><path fill-rule="evenodd" fill="#94127D" d="M353.4 158.1v71.6h-50.6v-71.6h50.6z"/><path fill-rule="evenodd" fill="#005EA8" d="M295.9 158.1v71.6h-50.6v-71.6h50.6z"/><path fill-rule="evenodd" fill="#008CD1" d="M238.3 158.1v71.6h-50.5v-71.6h50.5z"/><path fill-rule="evenodd" fill="#008F4F" d="M8.8 229.7h172v-71.6H8.8v71.6z"/></svg>