<svg xmlns="http://www.w3.org/2000/svg" height="32pt" viewBox="0 0 40 32">
  <g fill-rule="evenodd">
    <path d="M16.71.031c-.003.016-.21.04-.456.051-.305.016-.465.035-.5.066-.027.024-.168.051-.336.063-.156.012-.3.035-.316.047a.908.908 0 0 1-.258.05c-.125.012-.25.04-.285.067a.468.468 0 0 1-.207.043.363.363 0 0 0-.2.047c-.027.027-.132.058-.234.07-.098.012-.195.04-.215.063-.02.023-.09.043-.156.043-.078 0-.129.015-.14.046-.012.032-.06.051-.141.051-.082 0-.145.02-.184.063-.035.043-.098.062-.176.062-.066 0-.136.024-.16.051-.02.027-.09.047-.16.047-.078 0-.125.016-.14.047-.008.027-.051.05-.094.05a.21.21 0 0 0-.133.063c-.031.035-.082.063-.114.063a.133.133 0 0 0-.093.05c-.024.028-.094.047-.168.047-.078 0-.13.016-.14.047-.013.027-.052.05-.09.05a.21.21 0 0 0-.134.063c-.03.036-.082.063-.109.063-.027 0-.094.043-.144.098-.051.054-.125.097-.165.097-.039 0-.085.02-.109.047a.136.136 0 0 1-.094.047c-.03 0-.082.031-.113.066-.031.036-.082.063-.113.063-.028 0-.094.043-.145.098-.05.05-.12.093-.156.093-.039 0-.11.051-.16.114-.055.062-.125.113-.164.113-.035 0-.117.05-.176.11-.059.062-.129.112-.16.112-.027 0-.14.094-.254.208-.113.117-.234.21-.266.21-.074 0-1.273 1.2-1.273 1.274 0 .031-.094.148-.207.262-.117.113-.211.23-.211.257 0 .028-.07.122-.16.207-.086.086-.16.188-.16.223s-.047.11-.11.16c-.066.055-.113.121-.113.164 0 .04-.02.086-.047.11-.027.023-.05.062-.05.093 0 .032-.048.102-.11.165-.066.062-.113.136-.113.183 0 .04-.02.082-.047.09-.028.012-.051.05-.051.09a.202.202 0 0 1-.063.133c-.035.03-.062.082-.062.113 0 .027-.023.07-.05.094a.164.164 0 0 0-.048.097c0 .032-.02.075-.047.094-.027.024-.05.094-.05.16 0 .078-.02.137-.063.176-.035.031-.062.082-.062.113a.15.15 0 0 1-.051.098c-.027.02-.047.09-.047.16 0 .066-.02.137-.047.16-.027.02-.047.07-.047.11a.586.586 0 0 1-.066.191.594.594 0 0 0-.063.211.194.194 0 0 1-.05.129.168.168 0 0 0-.047.113c0 .04-.02.086-.043.098-.028.015-.051.062-.059.11-.008.066-.027.077-.144.085-.079.008-.153.035-.188.074-.031.036-.082.063-.11.063a.145.145 0 0 0-.097.047c-.023.027-.094.047-.164.047-.082 0-.133.02-.144.05-.008.024-.051.047-.09.047a.201.201 0 0 0-.13.063.19.19 0 0 1-.128.066c-.04 0-.082.02-.09.047-.012.027-.055.047-.102.047-.046 0-.09.023-.101.05-.008.024-.05.048-.09.048-.035 0-.117.05-.176.113-.062.058-.133.11-.16.11-.031 0-.101.05-.16.113-.063.062-.137.113-.164.113-.031 0-.106.043-.164.094-.055.054-.125.097-.153.097-.027 0-.171.121-.32.274-.148.148-.293.27-.32.27-.067 0-.418.355-.418.417 0 .027-.121.172-.274.32-.148.149-.27.293-.27.32 0 .028-.042.098-.097.157-.05.055-.093.129-.093.16s-.051.106-.114.164c-.062.059-.113.133-.113.16 0 .032-.02.075-.047.094a.145.145 0 0 0-.047.098c0 .031-.031.082-.066.113a.202.202 0 0 0-.063.133c0 .043-.023.086-.05.094-.028.011-.047.062-.047.14 0 .067-.02.137-.047.16a.166.166 0 0 0-.047.114c0 .039-.031.093-.067.129a.22.22 0 0 0-.062.16c0 .054-.023.12-.05.14-.028.024-.048.094-.048.176 0 .07-.02.168-.043.211a.998.998 0 0 0-.062.254c-.012.094-.04.195-.067.223-.027.035-.05.175-.062.433-.012.219-.035.39-.05.399-.048.011-.048 1.5 0 1.515.015.004.038.18.05.395.012.258.035.402.062.433a.537.537 0 0 1 .067.223c.012.094.039.211.062.254.024.047.043.14.043.215 0 .078.02.148.047.172.028.023.051.09.051.16 0 .078.02.137.062.176.043.039.067.097.067.175 0 .079.015.13.047.141.027.008.047.05.047.094 0 .043.023.097.046.117.028.023.051.086.051.145a.22.22 0 0 0 .063.16c.035.03.066.09.066.129 0 .039.02.082.047.09.027.011.047.054.047.093 0 .043.047.121.113.184.063.058.113.133.113.164 0 .027.02.07.047.094.028.02.047.066.047.101s.074.13.16.215c.09.086.16.18.16.215s.044.105.098.156c.153.149.137.184-.37.688-.255.257-.462.488-.462.52 0 .03-.031.081-.066.112a.201.201 0 0 0-.063.13c0 .038-.023.081-.05.093-.028.012-.047.059-.047.137 0 .066-.02.137-.043.16-.028.02-.051.125-.059.254a.729.729 0 0 1-.078.308c-.086.137-.094 5.832-.008 5.93.035.035.063.145.078.29.012.132.04.25.067.269.023.02.043.09.043.156s.023.137.046.16c.028.024.051.067.051.094 0 .031.028.082.063.113.035.035.066.09.066.125 0 .04.043.106.094.149.055.043.098.105.098.14 0 .078.261.34.34.34.035 0 .097.043.14.094.043.055.11.097.145.097.039 0 .093.032.125.067.035.035.086.062.113.062.031 0 .074.024.098.047.02.028.074.051.113.051.039 0 .086.02.101.043.012.023.102.05.196.063.097.011.199.042.226.07.082.07 1.524.07 1.606 0 .027-.028.133-.059.226-.07.094-.012.184-.04.2-.063.011-.023.078-.043.148-.043.07 0 .137-.023.16-.05.05-.063.27-.063.32 0 .024.027.094.05.16.05.07 0 .137.02.16.047.028.031.098.047.208.047.129 0 .183.015.226.066.09.098 1.606.098 1.696 0 .046-.05.101-.066.226-.066.11 0 .18-.016.207-.047.051-.063.461-.067.578-.004.043.023.16.05.254.063.094.011.192.039.223.062.031.031.16.055.336.063.168.011.293.03.3.054.016.047 1.376.047 1.391 0 .004-.023.133-.043.297-.055.184-.007.309-.03.34-.062a.574.574 0 0 1 .234-.063c.098-.011.196-.039.215-.062.02-.023.082-.043.14-.043.056 0 .122-.023.145-.05a.177.177 0 0 1 .114-.048c.043 0 .09-.027.109-.062.05-.094.348-.094.426 0 .035.039.094.062.164.062.058 0 .125.02.144.043.02.028.102.055.18.067.078.011.149.035.16.054.012.016.074.028.145.028.086 0 .133.02.156.058.027.051.086.063.375.082.191.012.352.036.36.051.015.051 1.18.043 1.195-.008.011-.03.34-.039 1.468-.043 1.438-.003 1.454-.007 1.5-.074.067-.101.747-.101.856 0 .094.09 1.707.106 1.805.016.07-.063.347-.067.433-.008.04.027.211.055.45.066.21.012.386.036.394.055.016.043 1.375.04 1.387-.004.007-.015.168-.039.355-.05.277-.016.356-.032.399-.083.039-.043.097-.058.218-.058.11 0 .184-.016.207-.047.024-.027.094-.047.16-.047.079 0 .13-.02.141-.05.012-.032.063-.048.164-.048.102 0 .153.016.164.047.012.032.063.051.14.051.067 0 .138.02.161.047.023.027.094.047.16.047.074 0 .137.023.172.058.043.051.121.067.398.082.188.012.348.036.352.055.016.043 1.152.04 1.164-.004.008-.023.137-.043.3-.055.2-.011.306-.03.349-.066.085-.078.851-.078.937 0 .043.035.156.055.395.07.187.012.34.036.347.055.016.04 1.278.04 1.293 0 .004-.02.164-.043.352-.055.277-.015.355-.03.398-.082.04-.043.098-.058.223-.058.11 0 .18-.016.207-.047.027-.035.105-.047.305-.047.195 0 .273.012.3.047.024.027.094.047.157.047.07 0 .14.027.187.07.113.106 1.703.106 1.817 0a.27.27 0 0 1 .167-.07c.055 0 .118-.02.141-.047.024-.027.09-.047.16-.047.067 0 .137-.023.16-.05a.145.145 0 0 1 .094-.048c.028 0 .102-.05.16-.113.063-.058.137-.11.172-.11.074 0 .438-.366.438-.445 0-.03.043-.097.097-.148.051-.05.094-.117.094-.145 0-.03.031-.078.067-.113.035-.031.062-.082.062-.113 0-.027.023-.07.047-.094.027-.023.05-.094.05-.16s.02-.137.044-.156c.027-.024.05-.16.066-.426.012-.219.035-.406.05-.426.016-.015.032-.2.032-.41 0-.402.07-.566.242-.566.086 0 .848-.77.848-.86 0-.039.02-.082.047-.09.027-.011.047-.05.047-.093 0-.04.023-.09.047-.11.03-.023.05-.093.05-.164 0-.086.016-.133.059-.156.05-.023.062-.086.078-.375.012-.191.04-.352.055-.36.02-.003.031-.128.031-.277 0-.148-.012-.27-.031-.277-.016-.004-.043-.164-.055-.352-.016-.277-.031-.355-.078-.398-.04-.035-.059-.098-.059-.172 0-.078-.02-.129-.05-.14-.024-.008-.047-.051-.047-.094 0-.043-.02-.098-.047-.118a.144.144 0 0 1-.047-.093c0-.032-.05-.102-.113-.164-.063-.059-.114-.133-.114-.164 0-.079-.23-.309-.324-.32-.055-.009-.078-.036-.086-.098-.004-.051-.039-.106-.07-.122-.082-.042-.082-.136 0-.207.035-.035.066-.085.066-.113 0-.031.02-.074.047-.097.028-.024.047-.09.047-.165 0-.078.02-.132.047-.14.023-.012.055-.082.062-.16.012-.075.043-.157.07-.176.028-.024.048-.098.048-.188 0-.082.02-.18.043-.21.023-.036.05-.196.062-.352.012-.16.035-.3.055-.32.047-.047.039-1.34-.008-1.391-.059-.055-.055-1.453 0-1.469.055-.02.055-1.23 0-1.285-.059-.055-.055-1.43 0-1.484.05-.051.055-1.246.004-1.297-.02-.02-.043-.184-.055-.367-.012-.23-.031-.34-.058-.356-.028-.015-.043-.086-.043-.195 0-.13-.016-.184-.067-.227-.043-.039-.062-.101-.062-.18 0-.066-.024-.136-.047-.16a.153.153 0 0 1-.05-.109c0-.043-.02-.082-.048-.094-.027-.008-.047-.05-.047-.093a.207.207 0 0 0-.066-.133c-.035-.031-.063-.082-.063-.114a.164.164 0 0 0-.046-.097.133.133 0 0 1-.051-.094.145.145 0 0 0-.047-.098c-.027-.02-.047-.07-.05-.105 0-.04-.052-.117-.11-.18-.063-.062-.114-.133-.114-.16 0-.066-.992-1.059-1.058-1.059-.024 0-.094-.042-.149-.093a.517.517 0 0 0-.175-.106c-.051-.004-.078-.035-.086-.086-.004-.043-.059-.125-.117-.187-.063-.063-.11-.137-.11-.168a.15.15 0 0 0-.05-.098c-.028-.02-.048-.09-.048-.16 0-.09-.015-.133-.062-.16-.035-.02-.066-.066-.066-.106a.168.168 0 0 0-.047-.117.145.145 0 0 1-.047-.097.154.154 0 0 0-.047-.094.16.16 0 0 1-.05-.11c0-.039-.048-.109-.114-.16-.063-.054-.11-.125-.11-.164 0-.039-.023-.09-.046-.11-.028-.023-.051-.066-.051-.093 0-.031-.05-.105-.113-.164-.059-.059-.11-.137-.11-.168 0-.035-.074-.129-.16-.215-.09-.082-.16-.18-.16-.215 0-.074-1.188-1.261-1.262-1.261-.031 0-.125-.07-.21-.16-.087-.086-.184-.16-.22-.16-.03 0-.105-.048-.167-.11-.06-.063-.13-.113-.16-.113-.028 0-.098-.051-.16-.114-.06-.058-.141-.109-.18-.109-.036 0-.079-.023-.086-.05-.012-.024-.055-.048-.098-.048a.168.168 0 0 1-.117-.046.133.133 0 0 0-.094-.051c-.031 0-.082-.028-.113-.063-.032-.035-.082-.062-.114-.062a.133.133 0 0 1-.093-.051.186.186 0 0 0-.114-.047c-.039 0-.09-.02-.113-.047-.02-.027-.086-.05-.144-.05-.055 0-.122-.02-.141-.047a.166.166 0 0 0-.113-.047.207.207 0 0 1-.13-.067.238.238 0 0 0-.16-.062c-.058 0-.12-.02-.144-.047-.023-.027-.09-.05-.16-.05-.067 0-.137-.02-.16-.048-.024-.031-.098-.047-.207-.047-.125 0-.18-.015-.223-.066-.047-.05-.102-.063-.258-.063a.626.626 0 0 1-.258-.043c-.035-.023-.191-.054-.347-.066-.156-.012-.301-.031-.32-.047-.02-.015-.231-.039-.47-.05-.28-.016-.448-.04-.48-.067-.031-.027-.176-.043-.433-.05l-.391-.012-.52-.52c-.289-.29-.546-.52-.574-.52-.027 0-.125-.074-.21-.16-.087-.09-.18-.16-.208-.16-.027 0-.12-.074-.21-.16-.087-.09-.184-.16-.22-.16-.035 0-.109-.05-.167-.113-.063-.063-.137-.114-.168-.114a.146.146 0 0 1-.102-.047.129.129 0 0 0-.094-.046c-.03 0-.105-.051-.164-.114-.062-.062-.14-.113-.18-.113-.042 0-.081-.02-.093-.047-.008-.027-.05-.047-.09-.047a.162.162 0 0 1-.113-.05.164.164 0 0 0-.098-.047.145.145 0 0 1-.094-.047.171.171 0 0 0-.117-.051.133.133 0 0 1-.11-.063.133.133 0 0 0-.109-.062.17.17 0 0 1-.113-.05.164.164 0 0 0-.098-.048.145.145 0 0 1-.093-.047.171.171 0 0 0-.117-.05.133.133 0 0 1-.11-.063.125.125 0 0 0-.11-.062.17.17 0 0 1-.113-.051C23.165.98 23.095.96 23.023.96c-.082 0-.132-.016-.144-.047-.012-.031-.063-.05-.14-.05-.079 0-.137-.02-.177-.063a.22.22 0 0 0-.16-.063.323.323 0 0 1-.16-.047.314.314 0 0 0-.164-.05c-.055 0-.117-.02-.137-.043-.02-.024-.117-.051-.214-.063a.574.574 0 0 1-.235-.07c-.031-.028-.113-.047-.199-.047a.463.463 0 0 1-.207-.047.342.342 0 0 0-.184-.05.597.597 0 0 1-.222-.048 1.552 1.552 0 0 0-.367-.058c-.176-.008-.282-.027-.32-.063-.044-.035-.177-.05-.552-.07-.273-.012-.503-.035-.507-.05-.016-.044-2.207-.044-2.223 0m2.469 2.773c.11.027.27.047.355.047.086 0 .223.02.309.043.086.027.234.062.332.078.258.047.484.101.594.14.05.016.144.043.207.059.144.035.406.121.535.18a.541.541 0 0 0 .133.043c.02 0 .074.02.12.042.208.102.32.149.407.168.047.012.086.036.086.051 0 .016.015.028.035.028.039 0 .582.253.605.285.008.011.09.054.176.097.09.047.196.106.242.133l.32.207c.134.086.298.2.368.254.074.05.172.125.219.16.613.442 1.328 1.16 1.953 1.97l.234.304.254-.004c.14 0 .477-.012.746-.027a8.39 8.39 0 0 1 1.606.082c.097.02.27.046.382.066a.833.833 0 0 1 .243.059.772.772 0 0 0 .175.05.96.96 0 0 1 .23.067.445.445 0 0 0 .165.043c.039 0 .102.023.137.047a.225.225 0 0 0 .101.046c.067.004.805.34.84.387a.865.865 0 0 0 .098.059c.316.16.812.535 1.144.863.258.254.586.621.586.656 0 .012.043.067.094.125.168.184.168.34 0 .41-.05.024-.094.055-.094.07 0 .016-.015.028-.035.028a.928.928 0 0 0-.191.113.829.829 0 0 1-.192.11c-.02 0-.031.011-.031.027 0 .047-.164.102-.242.082-.043-.012-.078-.031-.078-.043 0-.105-.95-1.12-1.047-1.12-.008 0-.074-.048-.149-.106a1.481 1.481 0 0 0-.343-.22.34.34 0 0 1-.094-.054c-.024-.031-.277-.148-.656-.312-.055-.024-.2-.07-.32-.106l-.356-.101c-.36-.106-1.11-.188-1.711-.188-.617 0-1.375.078-1.672.176a1.005 1.005 0 0 1-.305.039l-.152-.012-.078-.238a3.444 3.444 0 0 0-.121-.328.393.393 0 0 1-.043-.149c0-.062-.113-.32-.16-.355-.008-.012-.082-.098-.16-.195-.372-.454-.95-1.024-1.243-1.227a.54.54 0 0 1-.136-.113c0-.012-.051-.055-.118-.102-.05-.031-.101-.066-.152-.101-.21-.16-.34-.25-.363-.25-.02 0-.055-.02-.078-.047a2.872 2.872 0 0 0-.473-.274c-.043-.02-.086-.043-.094-.058a2.245 2.245 0 0 0-.355-.18.525.525 0 0 1-.094-.047c-.102-.058-.348-.164-.387-.164a.256.256 0 0 1-.11-.047.237.237 0 0 0-.128-.047.259.259 0 0 1-.129-.046.248.248 0 0 0-.129-.047.495.495 0 0 1-.152-.051.96.96 0 0 0-.23-.067c-.079-.011-.153-.03-.16-.046-.009-.016-.079-.036-.153-.047A2.7 2.7 0 0 1 20 4.113a6.062 6.062 0 0 0-.848-.144c-.187-.02-.375-.04-.558-.067-.594-.082-2.051.024-2.805.203-.078.02-.215.047-.305.067a.686.686 0 0 0-.191.055.525.525 0 0 1-.172.046 1.155 1.155 0 0 0-.223.07.534.534 0 0 1-.148.048.248.248 0 0 0-.129.046.259.259 0 0 1-.129.047c-.039 0-.094.02-.129.047a.27.27 0 0 1-.113.047.616.616 0 0 0-.168.067.51.51 0 0 1-.16.062c-.027 0-.063.023-.086.05a.164.164 0 0 1-.098.048c-.027 0-.07.02-.093.047a.28.28 0 0 1-.133.066c-.051.012-.094.031-.094.047 0 .012-.04.043-.086.058-.105.043-.434.227-.457.258a1.206 1.206 0 0 1-.242.164.855.855 0 0 0-.16.11.997.997 0 0 1-.153.113c-.02 0-.125.09-.492.414-.367.32-.531.496-.922.988l-.066.082c-.016.02-.074.102-.125.184a3.338 3.338 0 0 1-.113.156.685.685 0 0 0-.059.098c-.02.043-.066.125-.102.176-.05.086-.34.652-.464.93a1.11 1.11 0 0 0-.067.19c-.015.06-.039.118-.066.177a.364.364 0 0 0-.043.136.58.58 0 0 1-.043.16c-.051.114-.098.32-.164.711-.024.153-.051.301-.078.45-.024.117-.036.496-.032.945.004.62 0 .754-.039.773-.066.035-.703.125-.875.125-.082 0-.238.02-.347.043-.13.031-.262.055-.391.078-.355.063-.844.184-1.004.25a.824.824 0 0 1-.16.047.623.623 0 0 0-.184.063.868.868 0 0 1-.164.062c-.02 0-.078.02-.129.047l-.343.168a3.949 3.949 0 0 0-.938.606c-.191.16-.277.242-.379.382-.101.137-.14.188-.191.246-.055.067-.274.504-.274.543 0 .024-.02.079-.043.122-.148.289-.164 1.492-.02 1.683a.519.519 0 0 1 .048.14c.02.114.039.157.176.454a1 1 0 0 1 .066.183c0 .02.012.04.027.04.016 0 .047.039.067.085.05.122.097.2.218.352.055.07.102.14.102.156 0 .024.648.664.742.735.16.117.301.203.531.316.102.05.223.11.27.137a.42.42 0 0 0 .145.043c.03 0 .101.023.156.054.09.055.543.059 7.683.075l7.59.015.04.078c.097.192.046.993-.067 1.067-.078.05-14.89.027-15.04-.024a.852.852 0 0 0-.237-.047 1.44 1.44 0 0 1-.325-.07 2.52 2.52 0 0 1-.492-.183 2.59 2.59 0 0 0-.219-.082c-.039-.012-.07-.036-.07-.051 0-.02-.016-.031-.035-.031-.125 0-.727-.438-1.098-.797-.289-.282-.789-.903-.789-.977 0-.008-.05-.09-.113-.183a.724.724 0 0 1-.113-.227c0-.031-.012-.059-.028-.059-.015 0-.039-.03-.05-.07a2.132 2.132 0 0 0-.063-.168c-.094-.207-.18-.434-.18-.477a.4.4 0 0 0-.047-.136.55.55 0 0 1-.046-.192 1.02 1.02 0 0 0-.047-.238c-.059-.164-.07-1.262-.016-1.441.02-.063.047-.176.063-.254.05-.278.382-1.051.476-1.121.012-.012.059-.078.11-.157.23-.355 1.03-1.125 1.171-1.125.02 0 .036-.011.036-.027s.03-.043.07-.066c.058-.032.113-.063.168-.098.148-.098.867-.45.918-.45a.258.258 0 0 0 .105-.05.288.288 0 0 1 .13-.047.288.288 0 0 0 .128-.047.243.243 0 0 1 .129-.05c.035 0 .105-.02.152-.043a.795.795 0 0 1 .235-.07c.078-.012.152-.032.16-.048.008-.015.082-.035.168-.047.082-.011.203-.039.273-.066a.774.774 0 0 1 .219-.043 1.7 1.7 0 0 0 .293-.05 4.14 4.14 0 0 1 .344-.063l.148-.02.04-.293c.019-.164.05-.449.066-.636.015-.192.035-.36.046-.38.016-.023.04-.14.055-.261.012-.125.04-.242.051-.262.012-.023.043-.11.062-.199.067-.289.184-.652.254-.793a.516.516 0 0 0 .043-.125c0-.11.473-1.027.723-1.402.98-1.489 2.36-2.606 4.113-3.34l.227-.098c.062-.027.21-.082.336-.12.12-.04.254-.083.289-.099.125-.054.703-.207.976-.253.098-.02.223-.047.278-.067a4.18 4.18 0 0 1 .398-.062c.16-.016.305-.04.328-.051.117-.078 2.262-.067 2.61.008m16.3 10.36c1.196.374 1.387 2.222.286 2.76-.258.126-.32.247-.13.247.118.004.497.328.637.547.473.754.102 2.039-.644 2.226-.152.04-.113.121.113.23.957.462 1.008 2.032.09 2.614-.402.25.098.23-5.328.23h-4.836l-.176-.07c-.652-.258-.992-.746-.992-1.422 0-.62.375-1.246.828-1.39.164-.051.145-.137-.047-.23-.808-.395-1.043-1.575-.465-2.313.137-.172.45-.407.582-.438l.102-.02-.074-.077a.407.407 0 0 0-.137-.098c-.289-.09-.648-.547-.742-.938-.203-.843.18-1.566.996-1.87.227-.087 9.66-.075 9.937.011m-9.89.266c-.063.023-.152.062-.203.082-.621.25-.813 1.367-.332 1.914.16.18.324.285.574.367.308.098 9.453.094 9.758-.004 1.02-.324 1.136-1.789.183-2.297l-.164-.09-4.851-.007c-3.97-.004-4.875.003-4.965.035m5.48.851c.227.094.29.328.14.508l-.085.102h-2.41c-2.348 0-2.41 0-2.477-.063a.327.327 0 0 1 .137-.555c.121-.03 4.621-.023 4.695.008m3.79.051c.1.066.156.211.128.332-.07.324-.707.316-.77-.012-.058-.308.348-.511.641-.32m-9.238 2.04c-1.148.257-1.113 2.073.047 2.386.25.062 9.418.062 9.672-.004 1.168-.305 1.168-2.074 0-2.387-.172-.047-9.512-.039-9.719.004m5.586.957c.14.168.098.402-.086.488-.172.082-4.648.082-4.816 0-.188-.086-.223-.347-.07-.511l.07-.075h4.82l.082.098m3.684-.012c.164.172.148.348-.04.473-.296.203-.69 0-.632-.324.047-.242.492-.34.672-.149M25.59 19.34c-1.024.379-1.11 1.797-.14 2.293l.187.097h9.703l.183-.085c.985-.461.907-1.965-.117-2.313-.242-.082-9.597-.074-9.816.008m5.62.941c.142.16.09.414-.097.489-.183.078-4.664.07-4.82-.008-.215-.11-.207-.489.012-.551.058-.016 1.062-.027 2.465-.023l2.367.003.074.09m3.703.02c.246.273-.07.597-.473.484-.21-.058-.289-.234-.199-.437.094-.2.508-.23.672-.047M5.668 23.379c.605.094.84.191 1.121.476.652.653.461 1.782-.367 2.165l-.207.093c-.117.055-.098.121.047.164.574.168.71.477.851 1.903.078.793-.05 1.058-.508 1.058-.433 0-.636-.441-.648-1.425 0-.086-.016-.215-.031-.286a7.257 7.257 0 0 1-.063-.28c-.101-.497-.36-.602-1.492-.602-.55 0-.59.003-.621.062-.023.04-.035.453-.035 1.125v1.066l-.082.106a.58.58 0 0 1-.922 0c-.066-.09-.066-.102-.066-2.707V23.68l.09-.121c.175-.23.218-.239 1.445-.243.922 0 1.152.008 1.488.063m12.492.008c.285.148.27.05.281 1.773.012 1.735-.011 1.637.293 1.356l.48-.446.481-.433c.098-.086.235-.211.305-.278.29-.273.484-.3.719-.101.3.258.25.336-.88 1.273-.26.219-.398.36-.398.41 0 .028.286.36.543.633.711.75.989 1.074 1.012 1.172.082.317-.32.606-.621.45-.082-.044-.223-.184-.484-.485a72.099 72.099 0 0 0-1.059-1.203 4.649 4.649 0 0 1-.18-.211c-.191-.246-.199-.227-.21.754-.008.789-.016.898-.067.976-.21.32-.7.278-.852-.078-.07-.156-.07-.168-.062-2.71.012-2.958-.016-2.72.328-2.868.172-.07.203-.07.371.016m9.328.273c.176.121.18.133.184.797v.613l.383.012c.476.012.578.078.582.375.004.29-.157.387-.633.387-.375 0-.344-.114-.324 1.226.02 1.442.015 1.434.578 1.434h.351l.106.113c.289.305.055.613-.527.688-.672.086-1.141-.09-1.348-.504-.035-.07-.07-.145-.106-.215-.058-.113-.086-.672-.086-1.688-.003-1.132.016-1.054-.242-1.054-.672 0-.668-.727.004-.762l.266-.012.015-.133c.02-.164.082-.761.098-.925.031-.317.438-.52.7-.352m-23.739.485c-.035.066-.05 1.593-.016 1.683.04.098 1.496.059 1.774-.05.687-.27.758-1.235.113-1.56-.285-.14-1.805-.202-1.871-.073m20.191.93c.29.023.594.093.72.167.026.016.07.035.097.047.16.07.351.324.351.457-.007.211-.37.32-.644.192-.496-.235-1.422-.22-1.637.027-.27.308.063.629.754.73.082.012.156.032.168.047.008.016.09.035.184.047.09.016.18.035.199.05.02.016.09.04.16.06.473.117.793.316.965.601.168.285.117.887-.098 1.156a1.51 1.51 0 0 1-.484.41c-.051.024-.117.059-.145.075-.847.48-2.89.02-2.77-.625.055-.293.34-.313.934-.055a.523.523 0 0 0 .149.043c.027 0 .097.02.164.047.32.137 1.027.043 1.242-.16.215-.2.133-.621-.14-.707a.631.631 0 0 1-.137-.067.316.316 0 0 0-.153-.043.783.783 0 0 1-.207-.043 3.154 3.154 0 0 0-.281-.078c-.41-.086-.871-.223-.898-.265-.012-.016-.043-.032-.075-.032-.277 0-.593-.484-.593-.91-.004-.863.785-1.289 2.175-1.172m7.942.004c.27.027.566.11.66.176.023.02.102.058.168.094.125.062.543.453.621.578.703 1.144.336 2.676-.762 3.176a1.824 1.824 0 0 1-.734.203c-1.035.12-1.89-.282-2.285-1.07a1.277 1.277 0 0 1-.117-.282.575.575 0 0 0-.055-.156c-.043-.09-.055-.203-.055-.606 0-.402.012-.52.055-.605a.509.509 0 0 0 .055-.16c0-.125.25-.54.464-.758.485-.504 1.106-.688 1.985-.59m4.992-.004c.492.113.41.758-.102.813-.957.101-1.097.363-1.097 2.117 0 1.012-.024 1.172-.18 1.172-.02 0-.055.02-.074.047-.113.136-.52.043-.68-.16l-.074-.094V25.41l.074-.094c.278-.355.86-.261.93.149l.023.133.18-.184c.215-.215.367-.3.586-.336.227-.035.273-.035.414-.004m-25.879.102c2.137.648 1.809 3.902-.41 4.09-1.465.125-2.399-.625-2.473-1.993-.086-1.511 1.356-2.558 2.883-2.097m5.008-.004c.5.152.703.387.59.676-.074.195-.254.207-.719.05-.867-.296-1.621.297-1.621 1.274 0 1.062.77 1.61 1.762 1.25.375-.137.46-.137.574-.016.426.457-.508.961-1.594.864-2.094-.196-2.402-3.395-.39-4.082.355-.122 1.019-.13 1.398-.016m-6.207.656c-.883.461-.871 2.29.02 2.735.144.074.652.105.804.046.984-.355 1.055-2.293.102-2.78-.22-.114-.707-.114-.926 0m21.277.015c-.254.136-.52.43-.52.57a.277.277 0 0 1-.046.121c-.113.164-.113 1.11 0 1.332.023.051.047.102.047.121 0 .043.222.367.261.383.016.004.043.027.067.047.195.195.777.254 1.055.11.894-.462.878-2.227-.024-2.684-.168-.082-.68-.086-.84 0"/>
    <path d="M17.117 2.758c-.281.012-.562.039-.625.058a.996.996 0 0 1-.254.036c-.078 0-.203.015-.273.035l-.352.078c-.37.07-.61.133-.68.168a.317.317 0 0 1-.136.039c-.04 0-.117.02-.172.043a5.378 5.378 0 0 1-.324.113 5.2 5.2 0 0 0-.328.117c-.07.032-.141.059-.207.09-.32.13-.907.41-.918.442-.004.015-.024.027-.043.027-.04 0-.606.332-.778.457-.07.05-.23.164-.359.258-1.004.738-2.031 1.953-2.492 2.953-.024.058-.055.117-.086.176-.016.03-.031.062-.043.093-.012.028-.047.11-.082.18a.72.72 0 0 0-.063.168.204.204 0 0 1-.03.094c-.083.144-.27.781-.356 1.21l-.079.337a1.442 1.442 0 0 0-.046.32c0 .164-.09.965-.11.984a.984.984 0 0 1-.219.04 6.163 6.163 0 0 0-.71.132 8.426 8.426 0 0 1-.305.063.725.725 0 0 0-.207.062.13.13 0 0 1-.082.031c-.067-.003-.477.122-.586.18a.462.462 0 0 1-.149.043.283.283 0 0 0-.117.047.258.258 0 0 1-.105.05c-.059 0-.774.352-.832.407-.024.024-.055.04-.07.04a.683.683 0 0 0-.25.171c-.004.012-.024.023-.04.023-.117 0-.8.633-1.062.985-.266.36-.277.379-.426.68-.144.3-.168.367-.305.863-.062.23-.074 1.344-.02 1.547.028.093.06.234.071.32.012.082.031.16.051.168.016.012.027.047.027.086 0 .058.075.262.18.492.023.05.05.125.063.168.011.04.03.07.046.07s.04.043.051.098c.012.05.027.094.043.094.012 0 .04.039.063.09.109.25.445.703.77 1.043.187.195.773.695.816.695.007 0 .082.039.156.094.078.05.176.109.219.129a.953.953 0 0 1 .125.058c.027.016.101.055.168.082.066.027.168.074.226.098a.989.989 0 0 0 .215.07.47.47 0 0 1 .148.047c.02.016.133.043.254.059.121.015.262.043.313.062.16.063 14.96.05 15.023-.016.067-.066.074-.992.012-1.078-.04-.05-.559-.054-7.617-.062-7.137-.008-7.578-.012-7.668-.067a.401.401 0 0 0-.153-.054c-.05 0-.496-.207-.648-.297-.27-.168-.395-.27-.695-.567-.192-.187-.348-.351-.348-.367a.877.877 0 0 0-.102-.156 1.435 1.435 0 0 1-.222-.352c-.016-.046-.047-.085-.063-.085-.015 0-.027-.02-.027-.04a1 1 0 0 0-.066-.183c-.18-.39-.247-.61-.297-.953-.067-.485-.024-1.094.093-1.317a.407.407 0 0 0 .043-.129c0-.039.055-.156.133-.293.016-.027.047-.085.07-.128.02-.047.051-.094.063-.114.223-.289.309-.394.375-.457a5.16 5.16 0 0 1 .445-.375.823.823 0 0 0 .086-.054c.086-.079.38-.247.61-.356l.343-.168a.402.402 0 0 1 .13-.047c.019 0 .093-.031.163-.062a.623.623 0 0 1 .184-.063.824.824 0 0 0 .16-.047c.152-.062.621-.18.988-.246.094-.02.278-.054.399-.078a4.66 4.66 0 0 1 .469-.062c.28-.02.699-.078.761-.11.035-.02.043-.16.04-.773-.005-.422.007-.836.027-.945l.082-.45c.07-.414.113-.601.164-.71A.58.58 0 0 0 9.8 9.2c0-.032.02-.095.043-.137.027-.06.05-.118.066-.176.012-.055.043-.137.067-.192.023-.054.074-.164.109-.25.144-.328.375-.758.445-.828.02-.023.04-.05.04-.066s.046-.09.1-.168c.056-.067.106-.137.153-.211a1.01 1.01 0 0 1 .082-.106c.02-.02.102-.12.188-.226.289-.363.758-.82 1.066-1.04.059-.042.106-.09.106-.105s.015-.027.035-.027c.015 0 .12-.07.23-.156.11-.086.23-.164.274-.176.039-.016.07-.035.07-.047 0-.016.074-.066.168-.113.09-.047.18-.098.266-.149a.86.86 0 0 1 .175-.093c.043-.02.086-.04.13-.067a.717.717 0 0 1 .093-.05.556.556 0 0 0 .098-.047.525.525 0 0 1 .093-.047l.18-.082a.885.885 0 0 1 .176-.063.256.256 0 0 0 .11-.047.237.237 0 0 1 .128-.047c.04 0 .098-.023.13-.046a.236.236 0 0 1 .12-.047.694.694 0 0 0 .16-.047c.098-.043.184-.07.504-.149l.305-.078a6.06 6.06 0 0 1 .863-.148c.16-.016.395-.043.528-.063.308-.039 1.218-.039 1.55 0 .145.02.383.047.532.067.363.043.652.09.847.144l.578.145c.07.02.172.054.23.078a.444.444 0 0 0 .15.047c.027 0 .097.02.156.047l.28.113c.243.094.786.351.977.46.227.13.516.302.578.34.215.141.532.368.602.426.055.051.113.098.176.145.254.184.883.805 1.16 1.148.113.141.215.258.223.27.039.031.16.289.16.34 0 .027.02.094.043.148.023.059.078.211.125.344l.078.238.133.012a.92.92 0 0 0 .254-.027c.125-.04.543-.106.968-.16.637-.079 1.934-.004 2.371.136.063.02.168.047.239.059.12.023.37.101.511.156.356.145.704.316.84.406a.569.569 0 0 0 .125.075c.024 0 .278.19.461.343.235.2.574.555.762.801.2.266.266.3.394.203a.674.674 0 0 1 .106-.066c.016 0 .527-.332.59-.387.078-.066-.051-.414-.156-.414-.016 0-.028-.016-.028-.035 0-.047-.234-.32-.527-.617-.356-.36-.867-.75-1.203-.922a.865.865 0 0 1-.098-.059c-.035-.047-.773-.383-.84-.387a.225.225 0 0 1-.101-.046.301.301 0 0 0-.137-.047.445.445 0 0 1-.164-.043.96.96 0 0 0-.23-.067.772.772 0 0 1-.176-.05.994.994 0 0 0-.243-.06c-.132-.019-.265-.042-.398-.065a8.548 8.548 0 0 0-1.605-.082c-.262.015-.59.027-.73.027l-.255.004-.234-.305c-.649-.836-1.176-1.367-1.934-1.941-.433-.332-.71-.524-.758-.524a.054.054 0 0 1-.047-.027c-.007-.027-.253-.176-.44-.27a.363.363 0 0 1-.099-.058c-.02-.024-.652-.324-.93-.438-.058-.027-.152-.066-.206-.09a3.738 3.738 0 0 0-.32-.113 5.576 5.576 0 0 1-.29-.098c-.125-.054-.683-.199-1.023-.265-.117-.024-.234-.05-.352-.078a1.46 1.46 0 0 0-.257-.035c-.07 0-.227-.02-.352-.047-.27-.055-1.324-.078-2.05-.047m1.827.078c.88.113 1.41.21 1.907.363.113.035.265.078.335.098.07.02.157.05.192.066.074.035.308.117.453.164.059.016.113.043.121.063.012.015.043.027.067.027.117 0 1.074.508 1.632.867.645.414 1.434 1.102 1.985 1.735.07.078.164.187.207.238.093.106.18.219.258.336.03.043.066.082.105.121.031.027.055.066.055.086 0 .148.117.172.722.14.664-.038 1.586-.015 1.938.051.129.024.316.059.414.075.367.066.98.242 1.234.355.465.207 1.13.574 1.313.73l.222.18c.52.418 1.239 1.246 1.176 1.352-.015.027-.125.11-.246.187a5.523 5.523 0 0 0-.258.168c-.203.172-.359.2-.422.067-.128-.274-1.304-1.371-1.468-1.371-.012 0-.102-.047-.2-.106a3.303 3.303 0 0 0-.375-.18 2.414 2.414 0 0 1-.222-.097 2.332 2.332 0 0 0-.274-.094c-.113-.031-.222-.066-.336-.102a8.85 8.85 0 0 0-.832-.16c-.261-.039-1.675-.039-1.953 0-.386.059-.765.125-.902.168-.172.051-.223.028-.25-.117a.709.709 0 0 0-.05-.172 3.81 3.81 0 0 1-.157-.469c-.043-.168-.145-.316-.434-.652-.39-.453-1.613-1.539-1.73-1.539-.008 0-.09-.05-.176-.113a.928.928 0 0 0-.191-.114c-.02 0-.035-.011-.035-.027 0-.015-.04-.047-.086-.066-.051-.02-.153-.07-.235-.117a7.517 7.517 0 0 0-1.207-.559c-.726-.281-1.527-.457-2.601-.574-.356-.04-1.192-.04-1.54 0-1.093.125-1.628.238-2.386.504-.121.043-.27.09-.324.109a.306.306 0 0 0-.125.059c-.008.02-.04.03-.067.03-.043 0-.484.192-.586.259-.027.015-.136.074-.242.129a4.766 4.766 0 0 0-.289.16c-.05.035-.117.074-.145.086-.144.066-.843.578-1.085.793-.383.34-1.22 1.28-1.22 1.375 0 .011-.046.09-.1.172-.157.23-.169.25-.364.648-.074.152-.148.305-.227.457a.48.48 0 0 0-.043.129c0 .02-.023.078-.05.133-.028.05-.063.144-.078.207-.016.07-.04.14-.06.21-.05.145-.1.36-.148.61l-.082.414c-.023.113-.039.535-.043 1.043l-.003.848-.305.02c-.168.011-.383.038-.477.058-.097.02-.222.031-.285.031a2.29 2.29 0 0 0-.324.047 9.492 9.492 0 0 1-.371.078c-.281.055-.55.121-.586.145a.868.868 0 0 1-.172.05 2.115 2.115 0 0 0-.484.165.264.264 0 0 1-.094.03.858.858 0 0 0-.168.06c-.07.034-.203.097-.29.136-.913.418-1.523 1.031-1.91 1.934-.03.074-.081.328-.128.632-.059.375.078 1.2.258 1.555l.16.324a3.923 3.923 0 0 0 2.117 1.922c.336.125.352.125 7.992.13 5.684 0 7.375.007 7.406.038.051.055.051.926 0 .98-.054.051-14.609.055-14.957.005-.445-.067-1.046-.239-1.128-.32a.127.127 0 0 0-.075-.032c-.023 0-.183-.082-.355-.184-.29-.171-.332-.199-.43-.28-.023-.016-.117-.095-.215-.173a5.456 5.456 0 0 1-.715-.73c-.054-.074-.109-.137-.125-.137-.015 0-.027-.012-.027-.031 0-.016-.07-.133-.156-.262-.133-.203-.223-.367-.438-.805a.532.532 0 0 1-.047-.128.392.392 0 0 0-.042-.125.793.793 0 0 1-.067-.192c-.02-.086-.043-.168-.066-.25-.188-.62-.184-1.45.004-2.055.023-.082.046-.164.046-.183 0-.04.051-.164.2-.485.035-.078.14-.257.23-.398.207-.324.442-.578.89-.984.106-.098.466-.348.497-.348.008 0 .043-.02.07-.043.067-.062.582-.328.817-.426.105-.043.238-.097.293-.125.058-.023.117-.047.136-.047.02 0 .082-.02.14-.043.142-.058.638-.203 1.067-.304.14-.035.285-.063.43-.086.336-.055.574-.102.61-.125.011-.008.035-.223.046-.473.012-.25.04-.558.067-.68l.078-.418c.062-.324.164-.707.261-.976.168-.484.188-.527.38-.93.203-.43.546-1.011.687-1.172.02-.02.055-.07.082-.109.027-.04.062-.086.078-.105.02-.02.078-.094.129-.165.242-.324.879-.953 1.297-1.28.133-.106.25-.2.258-.208.039-.043.328-.238.625-.418.09-.054.175-.11.265-.168.153-.097 1.059-.539 1.106-.539.027 0 .058-.012.07-.027.008-.02.063-.047.121-.063.133-.043.371-.125.453-.16.067-.031.38-.129.672-.21 1.137-.321 2.828-.458 3.91-.321m8.078 20.824c-.175.117-.226.223-.253.516l-.043.515c-.036.403-.008.372-.329.395-.359.027-.468.113-.468.371s.12.352.492.387l.207.015.02 1.266c.019 1.195.023 1.277.09 1.441.19.493.406.672.878.735.875.117 1.492-.266 1.098-.684l-.106-.113h-.351c-.563 0-.559.008-.578-1.434-.02-1.343-.051-1.226.324-1.226.476 0 .637-.098.633-.387-.004-.293-.098-.355-.578-.375l-.387-.016v-.609c-.004-.66-.008-.676-.184-.797a.513.513 0 0 0-.465 0m.5.113l.118.11v.61c0 .71-.043.648.414.648.48 0 .687.226.476.511l-.07.098h-.379c-.492 0-.45-.129-.437 1.32.011 1.516.023 1.535.628 1.485.383-.032.57.148.454.43-.145.347-1.282.382-1.641.054-.324-.305-.356-.469-.375-1.95-.008-.698-.027-1.284-.043-1.296-.016-.016-.145-.031-.29-.04-.32-.015-.405-.07-.405-.276 0-.235.14-.336.465-.336.335 0 .324.023.367-.715.035-.551.058-.613.242-.707.172-.086.348-.067.476.054m-4.421 1.305c-1.313.106-1.825 1.3-.872 2.024.04.03.098.054.13.054.03 0 .062.016.074.032.027.042.453.171.93.273.105.023.234.059.28.078.051.02.126.035.169.035.437 0 .73.535.445.82-.2.2-.899.29-1.254.16l-.36-.116a2.007 2.007 0 0 1-.304-.118c-.285-.183-.664.075-.563.387.055.168.489.469.672.469.04 0 .11.02.156.043.258.129 1.38.129 1.72 0 .421-.164.613-.293.84-.57.386-.473.202-1.258-.36-1.567-.192-.105-.774-.281-1.25-.379a1.346 1.346 0 0 1-.266-.078.547.547 0 0 0-.16-.043c-.297-.008-.488-.398-.3-.617.148-.172 1.132-.293 1.296-.16.023.02.09.043.152.054a.85.85 0 0 1 .192.075c.21.136.633.02.64-.172.008-.34-.492-.63-1.199-.688-.387-.031-.383-.031-.808.004m8 0c-.149.016-.317.05-.372.078a.546.546 0 0 1-.148.051.533.533 0 0 0-.172.078c-.07.043-.16.094-.203.11-.094.043-.512.46-.55.554-.02.04-.067.133-.11.207a1.296 1.296 0 0 0-.102.242.468.468 0 0 1-.05.141c-.016.02-.043.176-.063.344-.031.32.004.887.063.957.015.023.039.086.05.14.016.06.059.168.102.243.043.074.09.168.11.207.25.562 1.25.968 2.163.875.957-.102 1.72-.785 1.825-1.649.011-.09.035-.218.054-.289.055-.226-.058-.805-.242-1.203-.176-.39-.8-.957-1.055-.96a.373.373 0 0 1-.129-.048c-.082-.043-.675-.117-.84-.11-.035.005-.183.02-.331.032m5.375 0c-.243.04-.383.117-.602.344l-.191.191-.016-.136c-.043-.41-.648-.512-.926-.16l-.074.093v3.559l.074.093c.211.266.543.297.785.07l.149-.136v-.992c0-1.742.144-2.027 1.066-2.117.36-.032.551-.293.418-.57-.105-.227-.312-.297-.683-.239m-12.137.11c.558.183.789.43.629.671-.063.098-.301.114-.457.036-.305-.153-.364-.16-.907-.16-.664 0-.828.074-.94.433-.063.207.28.465.73.543.09.016.195.043.242.062.043.016.144.047.222.063.254.055.528.137.559.164.02.016.059.031.094.031.199 0 .62.328.726.57.282.633-.152 1.31-1.027 1.594-.246.082-1.297.082-1.484 0a.932.932 0 0 0-.192-.054.577.577 0 0 1-.195-.063.868.868 0 0 0-.164-.062c-.113-.004-.367-.309-.367-.438 0-.215.246-.332.46-.219.051.028.11.047.13.047a.99.99 0 0 1 .163.067c.07.03.157.062.188.062s.098.02.145.047c.113.059.636.098.91.066.5-.054.804-.488.566-.812-.156-.215-.273-.262-1.297-.5-.324-.078-.539-.145-.57-.18a.164.164 0 0 0-.086-.031c-.273 0-.59-.465-.59-.863 0-.617.34-.957 1.137-1.121.246-.051 1.172-.02 1.375.047m7.894.011c1.211.395 1.754 1.781 1.172 2.98-.14.29-.16.321-.367.52-.516.5-1.531.727-2.23.496a2.13 2.13 0 0 1-1.055-.71c-.578-.7-.48-2.122.191-2.797.516-.516 1.54-.735 2.29-.489m4.804.008c.082.082.113.285.066.434-.039.117-.214.203-.425.203-.344 0-.692.18-.856.445-.16.254-.16.273-.18 1.516-.015 1.312-.003 1.242-.261 1.375-.219.11-.516.023-.613-.188-.09-.18-.079-3.472.011-3.617.219-.363.79-.266.848.148.039.27.043.274.156.106.305-.465.98-.695 1.254-.422m-5.86.535c-1.042.399-1.148 2.309-.163 2.836.343.18.945.082 1.226-.203.66-.672.512-2.152-.265-2.566-.133-.075-.665-.114-.797-.067m.738.106c.883.414.91 2.234.039 2.672-.312.156-.84.101-1.117-.122-.067-.054-.285-.367-.285-.41 0-.02-.024-.07-.047-.12-.121-.231-.121-1.079 0-1.34a.608.608 0 0 0 .047-.133c0-.13.304-.438.543-.555.207-.102.59-.098.82.008" fill="#8a8a8a"/>
    <path d="M16.734 2.84c-.363.047-.672.094-.898.137l-.125.027.176.004c.097 0 .21-.016.258-.04.046-.027.25-.05.496-.062.23-.011.457-.035.507-.054.114-.043 1.332-.043 1.446 0 .047.015.258.039.472.05.215.008.446.04.512.063a.919.919 0 0 0 .29.043l.163-.004-.125-.027a18.99 18.99 0 0 0-.96-.141c-.485-.063-1.712-.059-2.212.004m-1.297.223a.695.695 0 0 1-.187.042c-.074 0-.137.02-.566.16-.18.06-.184.063-.075.063.067.004.133-.02.157-.047.02-.023.09-.047.156-.047a.595.595 0 0 0 .207-.046.922.922 0 0 1 .266-.07c.171-.02.359-.11.218-.102a.698.698 0 0 0-.175.046m4.683-.011a.62.62 0 0 0 .246.07c.106.012.235.043.281.067a.44.44 0 0 0 .184.046.3.3 0 0 1 .16.051.335.335 0 0 0 .16.043c.098-.004.098-.004.016-.031-.262-.09-.672-.2-1.008-.27-.086-.02-.09-.015-.039.024m-5.758.308a.529.529 0 0 1-.144.063c-.196.058-.399.137-.43.168a.123.123 0 0 1-.074.027c-.043 0-.957.45-1.102.54l-.265.167c-.297.18-.586.375-.625.418a14.95 14.95 0 0 1-.258.207c-.418.328-1.055.957-1.297 1.281-.04.055-.082.11-.129.165-.027.035-.055.07-.078.105-.027.04-.063.09-.082.11-.14.16-.484.745-.688 1.171l-.175.364c-.063.117-.063.171-.004.12a.248.248 0 0 0 .062-.132.313.313 0 0 1 .07-.145.183.183 0 0 0 .047-.113c0-.035.024-.086.051-.113a.196.196 0 0 0 .047-.11c0-.035.02-.07.043-.082.027-.008.055-.054.066-.097a.364.364 0 0 1 .067-.13.163.163 0 0 0 .047-.105c0-.031.023-.066.047-.074.027-.012.05-.035.05-.055 0-.027.11-.207.16-.254.04-.039.149-.214.168-.265.012-.031.036-.055.055-.055.02 0 .031-.023.031-.047 0-.027.02-.058.043-.074.02-.012.125-.133.227-.262.219-.273.832-.898.883-.898.02 0 .035-.012.035-.027 0-.012.074-.082.164-.153.094-.07.2-.156.238-.191.047-.04.094-.078.14-.11.071-.05.138-.097.204-.148a.963.963 0 0 1 .203-.121c.043-.016.074-.04.074-.055s.032-.047.07-.062a1.57 1.57 0 0 0 .173-.094c.062-.04.125-.078.191-.113.05-.028.258-.133.46-.242.2-.106.384-.192.403-.192.024 0 .059-.02.082-.047.02-.027.07-.047.114-.047.039 0 .093-.023.12-.05a.208.208 0 0 1 .114-.047c.039 0 .121-.028.187-.063a.543.543 0 0 1 .188-.066c.039 0 .086-.02.11-.047.046-.055-.028-.07-.083-.02m6.934.02c.023.027.07.047.11.047.038 0 .12.031.187.066a.521.521 0 0 0 .187.063c.035 0 .086.023.114.047.027.027.082.05.12.05.044 0 .094.02.114.047.023.028.058.047.082.047.02 0 .203.086.402.192.153.082.309.164.461.242.067.035.13.074.192.113.054.035.129.074.172.094.039.015.07.047.07.062 0 .016.031.04.07.055a.883.883 0 0 1 .207.121c.07.055.164.121.203.148.07.047.168.122.254.2.028.02.094.07.153.109.074.05.14.11.199.168a.478.478 0 0 0 .117.098c.035 0 1.102 1.101 1.102 1.14 0 .008.03.047.066.086.121.137.148.172.168.227.012.027.035.054.055.054.015 0 .03.02.03.043 0 .024.024.055.048.063.027.012.05.039.05.062 0 .125.31.282.368.184.035-.055 2.054-.043 2.21.016.07.023.223.043.337.043.113-.004.156-.012.097-.016a5.588 5.588 0 0 1-.32-.059c-.305-.062-1.274-.09-1.938-.05-.605.03-.722.007-.722-.141 0-.02-.024-.059-.055-.086a1.018 1.018 0 0 1-.105-.121 3.064 3.064 0 0 0-.258-.336 15.89 15.89 0 0 0-.528-.59 11.083 11.083 0 0 0-.543-.515c-.617-.543-.996-.813-1.742-1.247-.25-.144-.96-.488-1.008-.488a.112.112 0 0 1-.07-.027c-.031-.031-.234-.11-.43-.168a.529.529 0 0 1-.144-.063c-.055-.05-.129-.035-.082.02m-4.387.43c-.133.011-.277.039-.32.062-.086.04-.074.04.512-.027.132-.016.472-.031.753-.031.457 0 .68.015 1.215.078l.16.02-.109-.052c-.125-.062-1.734-.097-2.21-.05m-.915.144a.491.491 0 0 1-.223.05c-.09 0-.199.02-.246.044a.82.82 0 0 1-.246.066c-.09.016-.18.043-.199.07-.047.055-.027.055.16-.003.254-.078.7-.18 1.059-.239l.144-.027-.195-.004c-.125 0-.215.012-.254.043m3.445-.012c.36.059.805.16 1.059.239.191.062.254.062.172.004a.598.598 0 0 0-.219-.07.966.966 0 0 1-.242-.067.64.64 0 0 0-.242-.043.491.491 0 0 1-.223-.05c-.039-.032-.129-.044-.254-.044l-.195.004.144.027m-4.66.32c-.039.06-.004.063.13.016l.124-.047h-.117c-.066-.003-.129.012-.137.032m6.067.015c.058.028.117.04.125.028.03-.028-.067-.078-.157-.075-.07 0-.07.004.032.047m-6.356.094a.227.227 0 0 1-.113.047.478.478 0 0 0-.16.062 1.096 1.096 0 0 1-.2.079c-.046.011-.085.035-.085.054 0 .016-.036.032-.079.032a.208.208 0 0 0-.128.046.144.144 0 0 1-.094.047.3.3 0 0 0-.125.067.302.302 0 0 1-.133.062c-.031.004-.059.02-.07.051a.097.097 0 0 1-.078.047.129.129 0 0 0-.094.047c-.024.027-.059.047-.082.047-.02 0-.07.03-.114.066-.039.035-.093.063-.117.063-.023 0-.05.023-.062.05-.008.024-.04.047-.063.047a.069.069 0 0 0-.062.043c-.012.027-.051.055-.09.063a.643.643 0 0 0-.176.117.527.527 0 0 1-.125.097c-.027 0-.297.22-.469.391a.865.865 0 0 1-.187.152c-.012 0-.024.024-.024.047 0 .028-.015.051-.03.051-.036 0-.29.242-.29.274a.522.522 0 0 1-.094.101c-.156.152-.593.738-.632.848-.008.031-.032.058-.047.058-.016 0-.051.047-.078.102-.032.07-.07.137-.11.203-.035.05-.07.117-.082.145-.015.03-.031.062-.05.093a1.029 1.029 0 0 0-.06.13c-.023.054-.05.109-.081.163a.36.36 0 0 0-.047.149c0 .035-.024.074-.047.082-.027.011-.05.05-.05.094 0 .039-.028.132-.063.199a.618.618 0 0 0-.067.191c0 .035-.02.094-.046.129-.028.031-.047.117-.047.184 0 .07-.024.148-.047.171-.031.032-.047.106-.047.2l.004.152.027-.113c.05-.211.102-.403.133-.496.016-.055.043-.149.059-.211.02-.07.046-.14.078-.207a.495.495 0 0 0 .05-.133c0-.02.02-.078.043-.129.028-.05.13-.254.227-.457.195-.398.207-.418.363-.648.055-.082.102-.16.102-.172 0-.094.836-1.035 1.219-1.375.242-.215.941-.727 1.085-.793.051-.028.098-.055.145-.086.055-.035.184-.106.29-.16.105-.055.214-.114.241-.13.102-.066.543-.257.586-.257.028 0 .059-.012.067-.031a.356.356 0 0 1 .125-.063c.277-.082.367-.125.261-.129a.288.288 0 0 0-.16.047m6.582-.016c.043.016.16.06.254.098.094.035.184.07.274.102.054.02.113.047.136.066.024.02.051.024.059.012.035-.031-.02-.086-.086-.086a.544.544 0 0 1-.18-.063.572.572 0 0 0-.168-.066.227.227 0 0 1-.113-.047.288.288 0 0 0-.16-.047c-.094.004-.094.004-.016.031m.992.415c.133.066.305.16.383.207.082.046.184.097.235.117.046.02.086.05.086.066s.015.027.035.027c.015 0 .101.051.191.114.086.062.168.113.176.113.066 0 .93.719 1.25 1.04.64.648.851.913.914 1.151.059.235.121.364.125.254a.298.298 0 0 0-.047-.16.273.273 0 0 1-.047-.136c-.004-.09-.11-.274-.234-.395a.528.528 0 0 1-.09-.11c0-.058-1.074-1.132-1.133-1.132a.415.415 0 0 1-.11-.09c-.113-.11-.28-.23-.323-.23-.02 0-.032-.012-.032-.028 0-.031-.375-.293-.418-.293-.02 0-.03-.015-.03-.035 0-.02-.044-.047-.099-.066-.05-.02-.093-.043-.093-.059s-.043-.043-.09-.063a.986.986 0 0 1-.274-.16.13.13 0 0 0-.082-.035.303.303 0 0 1-.125-.062.3.3 0 0 0-.125-.067.144.144 0 0 1-.093-.047.195.195 0 0 0-.121-.046c-.043 0 .023.046.171.125m7.325 2.535c.023.02.125.05.226.066.102.012.23.047.281.074.051.028.13.051.176.051.043 0 .106.02.14.047a.278.278 0 0 0 .15.047c.046 0 .105.023.124.047a.17.17 0 0 0 .114.05c.039 0 .09.02.113.047.02.028.055.047.074.047.02 0 .09.032.156.067a.56.56 0 0 0 .164.062c.024 0 .055.024.063.047.012.027.043.05.07.05.031 0 .09.028.137.063a.273.273 0 0 0 .121.063c.02 0 .047.023.059.05.007.028.03.047.05.047.032 0 .184.098.278.176.02.02.093.074.16.13.2.155 1.004.98 1.004 1.027 0 .023.136.218.172.242.027.02-.043.156-.082.156-.016 0-.098.05-.188.11a.844.844 0 0 1-.187.113c-.016 0-.036.023-.047.05-.008.024-.04.047-.063.047-.027 0-.07.02-.097.047-.051.055-.18.008-.18-.062 0-.02-.027-.059-.055-.086a.85.85 0 0 1-.117-.137c-.187-.258-.754-.82-.832-.82a.626.626 0 0 1-.125-.098.524.524 0 0 0-.176-.113c-.035-.012-.074-.04-.086-.063a.067.067 0 0 0-.062-.047c-.024 0-.063-.02-.086-.047a.12.12 0 0 0-.086-.046c-.027 0-.082-.032-.129-.067a.282.282 0 0 0-.125-.062c-.027 0-.07-.024-.094-.051a.221.221 0 0 0-.125-.047c-.039 0-.09-.02-.113-.047-.02-.027-.078-.047-.121-.047h-.086l.078.04c.047.023.168.074.273.117.13.054.254.117.375.183.098.059.188.106.2.106.164 0 1.34 1.097 1.468 1.37.063.133.22.106.422-.066.02-.015.133-.09.258-.168.121-.078.23-.16.246-.187.063-.106-.656-.934-1.176-1.352-.074-.058-.148-.12-.222-.18-.184-.156-.848-.523-1.313-.73a6.28 6.28 0 0 0-.867-.273c-.348-.09-.355-.09-.312-.043m-3.93.71c0 .028.012.06.031.07.016.009.04.075.051.15.023.156.078.18.25.128.074-.023.2-.054.277-.066l.145-.024-.18-.007c-.113 0-.2.015-.238.043-.129.097-.238.011-.238-.188 0-.043-.024-.094-.051-.113-.04-.035-.047-.031-.047.008m1.7.101c-.192.04-.153.04.495.04.657.003.692 0 .512-.04-.238-.05-.73-.05-1.008 0m-.851.102c-.059.047-.055.047.066.023.094-.015.191-.031.29-.043.155-.023.155-.023-.067-.027-.164-.004-.246.008-.29.047m2.372-.02c.09.012.218.035.289.047.117.02.125.02.066-.027-.047-.04-.125-.051-.289-.047l-.226.004.16.023m.543.094c.125.02.175.035.523.145.098.03.18.046.188.039.023-.024-.207-.118-.297-.118a.297.297 0 0 1-.157-.05c-.035-.028-.125-.043-.222-.043l-.16.004.125.023m-20.32.172c-.192.512-.298.887-.216.773a.532.532 0 0 0 .07-.203.935.935 0 0 1 .071-.223.427.427 0 0 0 .043-.16c0-.039.024-.093.05-.12.036-.04.071-.204.04-.204a.668.668 0 0 0-.059.137m-.293.95c-.011.062-.027.124-.043.187-.011.043-.007.07.012.07.043 0 .082-.184.063-.293-.008-.063-.016-.059-.032.039m-.082.395a1.881 1.881 0 0 1-.054.304 4.9 4.9 0 0 0-.067.653c-.011.257-.035.48-.047.488-.039.023-.277.07-.62.129a4.184 4.184 0 0 0-.384.074c-.058.02-.12.035-.18.047-.046.008-.007.015.079.015a.58.58 0 0 0 .242-.039c.047-.023.191-.05.32-.062.133-.012.32-.05.414-.082l.176-.063.024-.203c.008-.11.02-.312.023-.453 0-.137.024-.316.05-.402a.947.947 0 0 0 .04-.34c-.008-.121-.012-.145-.016-.066m.961.226c-.09.223-.144 1.387-.09 1.926l.024.23-.399.012c-.226.008-.418.027-.441.047-.027.02-.18.043-.344.05-.16.012-.312.032-.336.051-.023.02-.132.043-.246.06a.829.829 0 0 0-.273.065c-.063.047-.063.047.015.032.086-.02.172-.035.258-.055.13-.023.258-.05.387-.082a2.29 2.29 0 0 1 .324-.047c.063 0 .188-.012.285-.031.094-.02.309-.047.477-.059l.305-.02-.012-.484c-.012-.554.039-1.421.094-1.574.046-.14.027-.25-.028-.12m-2.515 1.51a.691.691 0 0 1-.125.044l-.106.023.133.004c.082.004.148-.016.172-.043.039-.05-.027-.074-.074-.027m-.38.105a1.054 1.054 0 0 1-.175.063c-.152.039-.379.117-.508.18l-.098.046h.086c.047 0 .102-.02.125-.047.02-.027.079-.046.125-.046a.289.289 0 0 0 .145-.047.718.718 0 0 1 .191-.067c.13-.023.297-.113.211-.113a.275.275 0 0 0-.101.031m-1.258.496c-.227.118-.438.23-.469.258a.187.187 0 0 1-.07.047c-.031 0-.39.25-.496.348-.45.406-.684.66-.89.984-.09.14-.196.32-.231.399-.149.32-.2.445-.2.484 0 .02-.023.101-.046.183-.211.676-.188 1.485.058 2.278.008.027.016 0 .016-.063a.335.335 0 0 0-.04-.175c-.023-.036-.054-.192-.066-.344a2.322 2.322 0 0 0-.05-.363c-.043-.11-.043-.563 0-.672.02-.047.043-.196.054-.332a.913.913 0 0 1 .063-.309.327.327 0 0 0 .043-.164c0-.055.02-.117.047-.14a.128.128 0 0 0 .046-.09c0-.032.032-.106.067-.172a.56.56 0 0 0 .062-.164c0-.028.024-.055.051-.067.027-.012.043-.035.047-.066 0-.043.102-.215.16-.274.008-.008.059-.078.11-.152.05-.074.101-.133.117-.133.015 0 .027-.015.027-.035 0-.04.473-.512.516-.512.015 0 .031-.011.031-.027 0-.012.07-.074.16-.129a.715.715 0 0 0 .16-.129c0-.016.024-.035.055-.047a.866.866 0 0 0 .152-.082 2.81 2.81 0 0 1 .41-.226c.047-.024.086-.051.086-.067 0-.015.024-.027.051-.027a.56.56 0 0 0 .164-.067.584.584 0 0 1 .157-.062c.023 0 .054-.023.078-.05.066-.079 0-.056-.43.16m1.668.417c-.027.028-.098.047-.156.047a.371.371 0 0 0-.172.047.585.585 0 0 1-.184.066.327.327 0 0 0-.152.067c-.047.055.004.062.09.015.086-.05.328-.132.484-.164a.868.868 0 0 0 .172-.05.799.799 0 0 1 .133-.047c.093-.02.093-.024-.035-.024-.079-.004-.153.016-.18.043m-.918.32c-.024.028-.059.047-.082.047-.047 0-.332.149-.383.196a.116.116 0 0 1-.07.031.643.643 0 0 0-.262.168c-.004.012-.027.023-.05.023-.02 0-.067.028-.098.063-.032.035-.075.066-.094.066-.02 0-.059.024-.086.055-.027.031-.11.11-.184.172a.545.545 0 0 0-.132.152c0 .02-.024.035-.047.035-.028 0-.051.012-.051.024 0 .015-.05.082-.11.152-.171.2-.175.203-.21.29-.016.042-.043.081-.059.081s-.04.04-.05.094a.284.284 0 0 1-.067.129.166.166 0 0 0-.047.113c0 .04-.02.09-.047.11-.027.023-.047.09-.047.156.004.105.008.11.027.039.243-.828.989-1.613 1.942-2.047.402-.184.422-.195.332-.195-.047 0-.102.02-.125.047m-2.242 2.386c-.074.172-.063 1.102.011 1.23l.06.098-.02-.113c-.09-.539-.094-.918-.016-1.125.055-.14.02-.226-.035-.09m.066 1.461c0 .082.016.149.047.172.027.02.047.07.047.106 0 .058.09.285.16.406.016.027.066.125.113.215.043.093.094.168.11.168.015 0 .035.035.043.074.011.039.062.121.117.176a.626.626 0 0 1 .098.125c0 .047.625.683.671.683.016 0 .079.043.133.098.059.055.14.105.18.117.039.008.074.027.074.043 0 .035.508.285.582.285.035 0 .082.024.11.051.027.027.101.047.183.043l.133-.004-.113-.023c-.883-.196-1.871-1.035-2.34-1.989-.055-.105-.106-.214-.16-.324a4.23 4.23 0 0 1-.168-.492c-.008-.035-.016-.004-.02.07m-.898.504c0 .028.011.055.027.067.016.007.04.058.05.105.044.184.298.688.5.996.087.13.157.246.157.262 0 .02.012.031.027.031.016 0 .07.063.125.137.141.187.504.562.715.73.098.078.192.157.215.172.098.082.14.11.43.281.172.102.332.184.355.184a.127.127 0 0 1 .074.031c.028.028.223.106.383.153.055.02.059.015.024-.028a.313.313 0 0 0-.145-.07 1.483 1.483 0 0 1-.375-.152.45.45 0 0 0-.097-.047.7.7 0 0 1-.094-.047c-.043-.027-.086-.047-.13-.07-.042-.024-.089-.047-.097-.055a1.054 1.054 0 0 0-.16-.113c-.078-.055-.16-.11-.18-.13l-.156-.128c-.223-.176-.785-.762-.785-.813 0-.011-.027-.047-.063-.074-.035-.031-.066-.078-.066-.102A.07.07 0 0 0 3.7 18.5a.076.076 0 0 1-.047-.066.106.106 0 0 0-.043-.075.953.953 0 0 1-.129-.199c-.039-.078-.078-.152-.117-.226l-.047-.094a.532.532 0 0 0-.043-.098c-.074-.125-.168-.347-.168-.406 0-.035-.02-.086-.046-.106-.04-.03-.047-.03-.047.012m3.82 2.317c.055.03 1.734.039 7.508.039l7.441.004-.011.453-.008.457h-7.637c-4.586 0-7.57.011-7.46.031.272.043 15.046.059 15.1.016.063-.055.063-.934 0-.989-.027-.023-2.105-.035-7.523-.043-5.879-.004-7.465 0-7.41.032m-.602.875c.06.015.118.03.176.05.07.02.074.02.035-.03-.027-.036-.086-.052-.175-.052-.13.004-.13.004-.036.032m20.817 3.289c-.121.062-.207.168-.207.25 0 .047.023.027.078-.067a.422.422 0 0 1 .477-.168c.183.055.21.164.21.805 0 .66-.015.629.356.629.305 0 .465.043.55.14.067.086.075.262.009.29-.028.011-.047.035-.047.066 0 .043-.063.05-.403.05-.515 0-.468-.14-.457 1.372l.008 1.238.078.094c.137.18.473.265.692.18.035-.016.093-.008.144.02a.349.349 0 0 0 .121.042c.028 0 .04.055.04.168 0 .172-.067.281-.169.281a.257.257 0 0 0-.113.047c-.055.04-.164.05-.492.05-.418 0-.488-.01-.7-.136a.51.51 0 0 0-.105-.047c-.031-.011-.055-.039-.055-.066 0-.023-.023-.05-.046-.063-.028-.007-.051-.035-.051-.058 0-.043-.125-.211-.125-.168-.004.043.164.285.246.367.36.328 1.496.293 1.64-.055.118-.28-.07-.46-.453-.43-.605.051-.617.032-.628-1.484-.012-1.449-.055-1.32.437-1.32h.379l.07-.098c.211-.285.004-.511-.476-.511-.457 0-.414.062-.414-.649v-.61l-.118-.109c-.128-.12-.308-.14-.476-.05m-.242.687c0 .64-.043.73-.367.73-.325 0-.465.102-.465.337 0 .207.086.261.406.277.144.008.273.023.289.039.016.012.035.582.043 1.262l.016 1.242.007-1.254c.008-1.441.04-1.324-.336-1.324-.308 0-.39-.055-.39-.25-.004-.192.18-.297.515-.297.297 0 .317-.031.317-.574 0-.25-.008-.45-.02-.45-.008 0-.015.118-.015.262m-3.516.723c.117.004.32.004.45 0 .128-.008.03-.012-.216-.012s-.351.004-.234.012m8.027 0c.11.004.282.004.383 0 .102-.008.012-.012-.199-.012-.215 0-.297.004-.184.012m5.372.004c.308.031.398.105.398.324 0 .164-.008.184-.094.234-.054.032-.097.07-.097.086 0 .02-.114.032-.25.032-.176.003-.282.019-.375.062-.07.035-.141.063-.153.066-.058 0-.375.356-.394.442a.467.467 0 0 1-.059.133c-.023.027-.039.43-.05 1.23-.02 1.36-.009 1.309-.301 1.402-.2.063-.415-.015-.5-.18-.063-.128-.09-3.245-.032-3.464.09-.324.567-.402.762-.129.039.055.07.078.07.055-.008-.32-.648-.364-.832-.055-.09.145-.101 3.438-.011 3.617.097.211.394.297.613.188.258-.133.246-.063.262-1.375.02-1.242.02-1.262.18-1.516.163-.266.51-.445.855-.445.32 0 .449-.117.445-.41-.008-.23-.105-.309-.398-.313l-.235-.004.196.02m-13.965.058c-.38.117-.692.348-.813.598-.082.16-.086.203-.02.148.028-.023.047-.062.047-.086 0-.093.243-.375.356-.41.035-.011.062-.035.062-.05 0-.016.024-.032.055-.032s.09-.02.125-.047a.678.678 0 0 1 .207-.066.89.89 0 0 0 .223-.066l.078-.04h-.078c-.047 0-.152.024-.242.051m1.41-.011c.05.023.16.05.234.066a.643.643 0 0 1 .207.066c.04.028.086.047.11.047.175 0 .359.383.238.492-.063.06-.324.075-.324.024 0-.016-.047-.04-.106-.05a.558.558 0 0 1-.168-.067.424.424 0 0 0-.207-.04l-.144.005.129.023c.152.031.402.121.445.16.07.07.367.035.422-.05.156-.243-.074-.493-.617-.669-.207-.066-.368-.07-.22-.007m6.626.015c-.504.164-.926.508-1.14.938-.134.258-.15.316-.075.254.027-.024.05-.055.05-.075 0-.171.477-.757.708-.867.023-.012.066-.031.094-.047.12-.07.28-.136.402-.16.164-.035.289-.101.187-.097-.035 0-.136.027-.226.054m1.27-.012c.042.024.136.051.206.063a.545.545 0 0 1 .192.07.258.258 0 0 0 .101.043c.051 0 .426.262.426.297 0 .012.024.024.05.024.028 0 .048.023.048.05 0 .024.011.047.027.047.043 0 .293.383.293.453 0 .032.024.07.047.078.031.012.05.063.05.122 0 .054.024.144.055.195.07.121.082 1 .016 1.078a.527.527 0 0 0-.059.195c-.011.082-.042.157-.066.164-.023.012-.043.055-.043.098 0 .043-.02.09-.039.106a.392.392 0 0 0-.09.117.676.676 0 0 1-.117.16c-.04.039-.074.086-.074.11 0 .019-.012.038-.031.038-.016 0-.067.032-.11.075a.72.72 0 0 1-.168.117.392.392 0 0 0-.117.09c-.016.02-.063.039-.105.039-.043 0-.086.023-.098.047-.012.03-.059.05-.117.05a.457.457 0 0 0-.2.051c-.136.07-1.078.07-1.214 0a.457.457 0 0 0-.2-.05c-.058 0-.105-.02-.117-.052-.012-.023-.054-.046-.101-.046-.043 0-.09-.024-.102-.047-.008-.028-.027-.051-.043-.051-.113 0-.61-.488-.61-.598 0-.02-.019-.05-.042-.07a.283.283 0 0 1-.067-.133c-.02-.086-.113-.199-.113-.137 0 .036.215.45.262.504.71.864 1.945 1.047 3.004.45.11-.059.468-.41.52-.504.183-.336.28-.582.316-.809.183-1.133-.364-2.105-1.364-2.418-.222-.07-.324-.078-.207-.015m4.192.023c-.157.078-.313.23-.438.422-.11.168-.11.168-.148-.078-.008-.047-.012-.024-.016.054-.008.22.09.332.14.172.028-.093.18-.32.216-.32.011 0 .023-.023.023-.047 0-.027.016-.05.035-.05.02 0 .074-.028.117-.063a.295.295 0 0 1 .137-.063.15.15 0 0 0 .098-.05c.054-.067-.016-.06-.164.023m-12.903.473c-.035.023.055.03.27.027.219 0 .289-.008.227-.027-.141-.036-.442-.036-.497 0m8.02 0c-.043.02.008.027.164.03.152 0 .207-.007.176-.03-.059-.036-.25-.036-.34 0m-8.461.113c-.242.172-.344.496-.191.605.03.024.054.055.054.07 0 .032.047.06.211.137l.18.086a.49.49 0 0 0 .207.047c.066 0 .152.024.187.047.032.027.114.047.176.047h.113l-.128-.047c-.07-.027-.2-.062-.29-.078-.453-.082-.792-.336-.73-.543a.63.63 0 0 1 .461-.422c.066-.02.063-.023-.035-.023a.419.419 0 0 0-.215.074M31 25.766c-.02.027-.055.047-.074.047-.035.003-.211.144-.211.171a.44.44 0 0 1-.082.106c-.121.129-.242.387-.235.504v.101l.024-.097c.098-.395.387-.723.758-.852.05-.02.043-.023-.04-.027-.054 0-.117.02-.14.047m.82-.02c1.04.367 1.149 2.305.157 2.832-.188.102-.77.102-.961 0-.246-.133-.54-.515-.602-.797-.008-.035-.016-.011-.016.055-.003.066.016.133.043.156.028.02.047.063.047.09 0 .027.051.11.114.176a.5.5 0 0 1 .113.152c0 .016.02.027.047.027s.047.016.047.028c0 .055.246.2.34.2.054 0 .113.015.136.038.02.02.117.04.215.04.094 0 .191-.02.21-.04.024-.023.087-.039.145-.039.055 0 .122-.02.145-.039.023-.023.094-.078.156-.117a.853.853 0 0 0 .188-.188c.043-.058.086-.105.101-.105.016 0 .032-.027.032-.063 0-.035.02-.082.046-.109a.363.363 0 0 0 .067-.156c.012-.059.039-.153.066-.211.063-.137.051-.938-.011-1.004a.152.152 0 0 1-.043-.102c0-.12-.27-.586-.364-.625a.375.375 0 0 1-.078-.07c-.027-.035-.07-.063-.09-.063-.02 0-.054-.019-.074-.046-.023-.028-.086-.047-.14-.047-.083.004-.09.008-.036.027m-9.996.547c.012.5.258.75.969.973.203.066.27.066.18.004a.643.643 0 0 0-.207-.067.65.65 0 0 1-.203-.066.28.28 0 0 0-.133-.043c-.035 0-.078-.024-.086-.047-.012-.027-.04-.05-.063-.05-.047 0-.312-.235-.312-.278a.396.396 0 0 0-.055-.121 1.204 1.204 0 0 1-.074-.336l-.02-.242.004.273m7.613.3c-.046.165-.03.227.028.118a.38.38 0 0 0 .027-.168c-.012-.098-.015-.094-.055.05m.895.177c-.059.105-.043.78.016.855.047.059.047.055.027-.035a2.012 2.012 0 0 1-.016-.68c.043-.183.032-.246-.027-.14m-.953.421c0 .22.008.309.012.2a3.456 3.456 0 0 0 0-.403c-.004-.11-.012-.02-.012.203m-5.422-.293a.746.746 0 0 0 .234.067c.047 0 .11.023.137.05a.285.285 0 0 0 .156.047c.055 0 .121.02.145.047.02.028.062.047.094.047.097 0 .449.32.449.41a.26.26 0 0 0 .047.122c.066.085.066.519 0 .605a.277.277 0 0 0-.047.121.167.167 0 0 1-.04.106c-.023.023-.073.093-.12.152-.09.125-.364.324-.489.355-.046.012-.085.035-.085.051 0 .02-.047.035-.098.035a.572.572 0 0 0-.215.051c-.172.07-1.156.07-1.328-.004a.713.713 0 0 0-.23-.047c-.06 0-.126-.023-.149-.05a.177.177 0 0 0-.113-.047.22.22 0 0 1-.121-.047c-.028-.028-.063-.051-.079-.051a.67.67 0 0 1-.144-.121c-.125-.129-.172-.36-.074-.36a.12.12 0 0 0 .082-.046c.023-.028.082-.047.129-.047.05 0 .105.02.129.047.023.027.078.047.125.047.046 0 .113.023.148.046.035.028.086.051.11.051.027 0 .105.031.18.063.07.035.194.062.288.066.086 0 .176.016.195.035.047.047.47.055.524.008a.5.5 0 0 1 .183-.05.472.472 0 0 0 .184-.063c.047-.04.094-.082.145-.121.05-.043.097-.09.097-.106 0-.015.02-.05.047-.078.129-.129-.047-.652-.219-.652a.297.297 0 0 1-.109-.063.35.35 0 0 0-.18-.066.312.312 0 0 1-.164-.047c-.035-.027-.125-.047-.207-.043-.148.004-.148.004-.035.027.938.203 1.223.696.629 1.078-.238.157-1.016.192-1.273.059a.362.362 0 0 0-.145-.047.732.732 0 0 1-.188-.062.99.99 0 0 0-.164-.067.402.402 0 0 1-.128-.047c-.215-.113-.461.004-.461.22 0 .128.253.433.367.437.02 0 .094.03.164.062.07.035.156.063.195.063a.932.932 0 0 1 .192.054c.187.082 1.238.082 1.484 0 .875-.285 1.309-.96 1.027-1.593-.105-.243-.527-.57-.726-.57a.168.168 0 0 1-.094-.032c-.031-.031-.355-.125-.512-.148-.078-.012-.066-.004.051.046m-.785.454c.058.015.117.03.176.05.07.02.074.02.035-.03-.028-.036-.086-.052-.176-.052-.129.004-.129.004-.035.032m6.23.285c0 .027.02.105.043.175l.047.13.004-.114c0-.062-.02-.14-.047-.176-.035-.047-.047-.05-.047-.015m-2.66.707c0 .027.024.105.047.176l.047.128v-.117c0-.062-.02-.14-.043-.176-.04-.046-.05-.05-.05-.011" fill="#c7c7c7"/>
    <path d="M17.137 2.855a3.33 3.33 0 0 1-.496.051c-.246.012-.45.035-.496.063a.773.773 0 0 1-.27.043.647.647 0 0 0-.254.043.773.773 0 0 1-.238.066.946.946 0 0 0-.258.067.485.485 0 0 1-.203.046c-.067 0-.137.024-.156.047-.024.028-.094.051-.16.051-.07 0-.137.02-.16.047a.157.157 0 0 1-.11.047.543.543 0 0 0-.188.066.521.521 0 0 1-.187.063.208.208 0 0 0-.113.047.199.199 0 0 1-.121.05c-.043 0-.094.02-.114.047-.023.028-.058.047-.082.047-.02 0-.203.086-.402.192-.152.082-.309.164-.461.242-.055.027-.14.078-.191.113a1.465 1.465 0 0 1-.172.094c-.04.015-.07.047-.07.062 0 .016-.032.04-.07.055a.883.883 0 0 0-.208.121c-.066.05-.133.098-.203.148-.04.028-.102.075-.14.11-.04.035-.145.12-.239.191a.807.807 0 0 0-.164.153c0 .015-.016.027-.035.027-.051 0-.664.625-.883.898-.102.13-.207.25-.227.262a.112.112 0 0 0-.043.074c0 .024-.011.047-.03.047-.02 0-.044.024-.056.055a1.45 1.45 0 0 1-.167.265c-.04.036-.153.211-.172.262-.012.031-.036.059-.051.059-.02 0-.035.027-.035.058 0 .036-.02.086-.047.11a.364.364 0 0 0-.067.129c-.011.043-.039.09-.066.097-.023.012-.043.047-.043.082a.178.178 0 0 1-.05.11.208.208 0 0 0-.048.113c0 .035-.02.086-.046.113a.313.313 0 0 0-.07.145.248.248 0 0 1-.063.133c-.024.02-.043.078-.043.125 0 .05-.024.113-.047.14a.199.199 0 0 0-.05.121c0 .043-.02.114-.044.16a.935.935 0 0 0-.07.223.514.514 0 0 1-.055.184.703.703 0 0 0-.058.238c-.012.11-.04.203-.06.207-.019.008-.034.102-.034.227 0 .117-.024.27-.047.343-.027.07-.05.243-.05.383a8.95 8.95 0 0 1-.024.457l-.024.203-.176.063c-.097.031-.28.07-.414.082-.128.012-.273.039-.32.062a.742.742 0 0 1-.246.047c-.105 0-.18.016-.203.047-.024.027-.094.047-.172.047a.394.394 0 0 0-.2.047.603.603 0 0 1-.19.066.718.718 0 0 0-.192.067.289.289 0 0 1-.145.047c-.046 0-.105.02-.125.046-.023.028-.082.047-.128.047a.186.186 0 0 0-.13.051c-.023.024-.054.047-.077.047-.02 0-.09.027-.157.062a.56.56 0 0 1-.164.067c-.027 0-.05.012-.05.027 0 .016-.04.043-.087.067a2.81 2.81 0 0 0-.41.226.866.866 0 0 1-.152.082c-.031.012-.055.031-.055.047 0 .012-.074.07-.16.129a.545.545 0 0 0-.16.129c0 .016-.016.027-.031.027-.043 0-.516.473-.516.512 0 .02-.012.035-.027.035-.016 0-.067.059-.117.133-.051.074-.102.144-.11.152-.058.059-.16.23-.16.274-.004.031-.02.054-.047.066-.027.012-.05.04-.05.067a.56.56 0 0 1-.063.164.547.547 0 0 0-.067.171c0 .028-.02.07-.046.09-.028.024-.047.086-.047.14 0 .06-.02.134-.043.165a.913.913 0 0 0-.063.309 1.632 1.632 0 0 1-.054.332c-.043.109-.043.562 0 .671.015.047.039.211.05.364.012.152.043.308.067.344a.38.38 0 0 1 .043.18c0 .062.02.132.047.155.027.02.046.07.046.106 0 .059.094.281.168.406.016.028.036.07.043.098l.047.094c.016.027.07.128.117.226.051.094.11.188.13.2.027.019.038.046.042.074 0 .027.02.054.047.066a.07.07 0 0 1 .047.063c0 .023.031.07.067.101.035.027.062.063.062.074 0 .051.563.637.785.813.067.054.137.113.156.129.02.02.102.074.18.129.082.05.152.101.16.113.008.008.055.031.098.055.047.023.098.05.144.078.13.074.16.09.207.11.028.007.09.038.145.062.05.023.14.054.2.066.054.012.12.039.14.062.02.024.094.047.164.047.078 0 .156.02.191.055.059.05.473.055 7.692.055h7.625l.008-.457.011-.453-7.441-.004c-6.387 0-7.45-.008-7.52-.047a.577.577 0 0 0-.226-.047c-.09 0-.172-.02-.2-.047a.178.178 0 0 0-.109-.05c-.074 0-.586-.25-.586-.286 0-.016-.031-.035-.07-.043a.545.545 0 0 1-.176-.117.443.443 0 0 0-.137-.098c-.046 0-.671-.636-.671-.683a.626.626 0 0 0-.098-.125.545.545 0 0 1-.117-.176c-.008-.04-.028-.074-.043-.074-.016 0-.067-.075-.11-.168a5.69 5.69 0 0 0-.113-.215c-.07-.121-.16-.348-.16-.406 0-.036-.02-.086-.047-.106-.031-.023-.05-.094-.05-.172a.57.57 0 0 0-.052-.226c-.082-.149-.082-1.11-.003-1.258a.513.513 0 0 0 .054-.211c0-.063.024-.129.051-.152.027-.02.047-.07.047-.11 0-.039.02-.09.047-.113a.284.284 0 0 0 .066-.129c.012-.055.035-.094.051-.094.016 0 .043-.039.059-.082.035-.086.039-.09.21-.289a.676.676 0 0 0 .11-.152c0-.012.023-.024.05-.024.024 0 .048-.015.048-.035 0-.015.058-.086.132-.152.075-.063.157-.14.184-.172.027-.031.066-.055.086-.055.02 0 .062-.03.094-.066.03-.035.078-.063.097-.063.024 0 .047-.011.051-.023a.643.643 0 0 1 .262-.168.116.116 0 0 0 .07-.031c.05-.047.336-.195.383-.195.023 0 .059-.02.082-.047.023-.028.078-.047.129-.047.047 0 .105-.02.125-.047a.327.327 0 0 1 .152-.067.585.585 0 0 0 .184-.066.371.371 0 0 1 .172-.047c.058 0 .129-.02.156-.047.027-.027.105-.047.184-.047.07 0 .16-.02.195-.043.035-.027.156-.054.273-.066.114-.016.223-.039.246-.059.024-.02.176-.039.336-.05.164-.008.317-.032.344-.051.023-.02.215-.04.441-.047l.399-.012-.024-.23c-.054-.567.004-1.762.102-1.945a.696.696 0 0 0 .043-.247c0-.101.02-.18.05-.21.024-.024.048-.102.048-.172 0-.067.02-.153.046-.184a.248.248 0 0 0 .047-.129c0-.035.032-.121.067-.191a.568.568 0 0 0 .062-.2c0-.039.024-.082.051-.093.024-.008.047-.047.047-.082a.36.36 0 0 1 .047-.149 2.14 2.14 0 0 0 .082-.164c.015-.043.043-.101.058-.129.02-.03.036-.062.051-.093.012-.028.047-.094.082-.145.035-.055.082-.144.11-.203.027-.055.062-.102.078-.102.015 0 .039-.027.047-.058.039-.11.476-.696.632-.844a.621.621 0 0 0 .094-.105c0-.032.254-.274.29-.274.015 0 .03-.023.03-.05 0-.024.012-.048.024-.048a.865.865 0 0 0 .187-.152c.172-.168.442-.39.47-.39a.527.527 0 0 0 .124-.098.643.643 0 0 1 .176-.117c.039-.008.078-.036.09-.063a.069.069 0 0 1 .062-.043c.024 0 .055-.023.063-.047.012-.027.039-.05.062-.05.024 0 .078-.028.117-.063.043-.035.094-.066.114-.066.023 0 .058-.02.082-.047a.129.129 0 0 1 .094-.047.097.097 0 0 0 .078-.047c.011-.031.039-.047.07-.05a.302.302 0 0 0 .133-.063.3.3 0 0 1 .125-.067c.027 0 .07-.02.094-.047a.208.208 0 0 1 .128-.046c.043 0 .079-.016.079-.032 0-.02.039-.043.086-.054.05-.012.136-.047.199-.079a.478.478 0 0 1 .16-.062c.027 0 .078-.02.113-.047a.292.292 0 0 1 .164-.047c.063 0 .11-.02.121-.047.012-.03.063-.05.141-.05.07 0 .145-.02.164-.043.02-.028.11-.055.2-.07a.82.82 0 0 0 .245-.067.68.68 0 0 1 .246-.043.491.491 0 0 0 .223-.05c.04-.032.137-.048.277-.048a1 1 0 0 0 .356-.054c.207-.086 2.277-.086 2.484 0a1 1 0 0 0 .356.054c.14 0 .238.016.277.047a.491.491 0 0 0 .223.05c.09 0 .199.02.242.044a.966.966 0 0 0 .242.066.598.598 0 0 1 .219.07.314.314 0 0 0 .148.044c.051 0 .11.023.137.05.027.024.09.047.14.047.051 0 .122.02.153.047a.227.227 0 0 0 .113.047c.028 0 .102.031.168.066a.531.531 0 0 0 .184.063c.035 0 .074.023.082.05.012.024.055.048.094.048.043 0 .097.02.125.046a.144.144 0 0 0 .093.047.3.3 0 0 1 .125.067.303.303 0 0 0 .125.062.13.13 0 0 1 .082.035c.047.047.16.114.274.16.047.02.09.047.09.063s.043.04.093.059c.055.02.098.046.098.066 0 .02.012.035.031.035.043 0 .418.262.418.293 0 .016.012.027.032.027.043 0 .21.122.324.23.05.052.097.09.11.09.058 0 1.132 1.075 1.132 1.134 0 .011.043.058.09.109.125.121.23.305.234.394 0 .043.02.106.047.137.027.035.047.11.047.164 0 .059.023.121.047.145.027.02.05.07.05.113 0 .2.11.285.239.188a.526.526 0 0 1 .254-.047c.12 0 .219-.02.258-.047.043-.035.144-.047.336-.05.152 0 .39-.02.53-.048.329-.058.712-.058.993 0 .121.028.355.051.512.051.207 0 .308.012.355.047.035.027.133.047.223.047.094 0 .187.023.222.047a.3.3 0 0 0 .16.05c.055 0 .153.028.215.063a.564.564 0 0 0 .2.066c.039 0 .093.02.113.047a.166.166 0 0 0 .113.047.2.2 0 0 1 .125.05c.024.024.067.048.094.048.023 0 .082.027.125.062.047.035.102.067.129.067a.12.12 0 0 1 .086.046c.023.028.062.047.086.047.027 0 .054.02.062.047.012.024.051.051.086.063.04.008.121.062.176.113a.626.626 0 0 0 .125.098c.078 0 .645.562.832.82a.85.85 0 0 0 .117.137c.028.027.055.066.055.086 0 .07.129.117.18.062a.162.162 0 0 1 .097-.047c.024 0 .055-.023.063-.047.011-.027.031-.05.047-.05.015 0 .101-.051.187-.114.09-.058.172-.11.188-.11.039 0 .109-.136.082-.155a1.028 1.028 0 0 1-.172-.242c0-.047-.805-.872-1.004-1.028a5.75 5.75 0 0 1-.16-.129 1.625 1.625 0 0 0-.285-.183c-.032-.012-.055-.036-.055-.055 0-.02-.02-.035-.043-.035-.027 0-.082-.028-.125-.063a.295.295 0 0 0-.137-.062.086.086 0 0 1-.07-.051c-.008-.023-.04-.047-.063-.047a.56.56 0 0 1-.164-.062.645.645 0 0 0-.156-.067c-.02 0-.055-.02-.074-.047a.166.166 0 0 0-.113-.046.17.17 0 0 1-.114-.051c-.02-.024-.078-.047-.125-.047a.278.278 0 0 1-.148-.047.263.263 0 0 0-.14-.047.447.447 0 0 1-.177-.05.88.88 0 0 0-.257-.071.586.586 0 0 1-.23-.063.717.717 0 0 0-.274-.042c-.11 0-.258-.024-.328-.047-.157-.059-2.176-.07-2.211-.016-.059.098-.368-.059-.368-.184 0-.023-.023-.05-.05-.062-.024-.008-.047-.04-.047-.063s-.016-.043-.031-.043c-.02 0-.043-.027-.055-.054a.484.484 0 0 0-.078-.121c-.125-.14-.157-.18-.157-.192 0-.039-1.066-1.14-1.101-1.14a.478.478 0 0 1-.117-.098 1.413 1.413 0 0 0-.2-.168c-.058-.039-.124-.09-.152-.11a4.059 4.059 0 0 0-.254-.199c-.07-.05-.136-.097-.203-.148a.883.883 0 0 0-.207-.121c-.039-.016-.07-.04-.07-.055s-.031-.047-.07-.062a1.465 1.465 0 0 1-.172-.094 3.082 3.082 0 0 0-.192-.113c-.152-.078-.308-.16-.46-.242a3.223 3.223 0 0 0-.403-.192c-.023 0-.059-.02-.082-.047-.02-.027-.07-.047-.113-.047a.199.199 0 0 1-.121-.05.208.208 0 0 0-.114-.047.521.521 0 0 1-.187-.063.543.543 0 0 0-.188-.066.157.157 0 0 1-.11-.047c-.019-.027-.085-.047-.14-.047a.352.352 0 0 1-.164-.047.3.3 0 0 0-.16-.05.456.456 0 0 1-.184-.047 1.035 1.035 0 0 0-.27-.067.86.86 0 0 1-.257-.066.617.617 0 0 0-.246-.043.946.946 0 0 1-.297-.047 2.532 2.532 0 0 0-.512-.063 3.217 3.217 0 0 1-.472-.05c-.11-.043-1.352-.04-1.457.003m9.996 20.887c-.246.067-.293.192-.293.797 0 .61-.012.633-.317.633-.335 0-.52.105-.515.297 0 .195.082.25.39.25.375 0 .344-.117.344 1.324 0 1.05.008 1.262.051 1.312a.371.371 0 0 1 .047.172.36.36 0 0 0 .062.192.273.273 0 0 1 .063.12c0 .024.023.052.05.06.024.011.047.038.047.062 0 .027.024.055.055.066a.51.51 0 0 1 .106.047c.21.125.28.137.699.137.328 0 .437-.012.492-.05a.257.257 0 0 1 .113-.048c.102 0 .168-.11.168-.281 0-.113-.011-.168-.039-.168a.349.349 0 0 1-.12-.043c-.052-.027-.11-.035-.145-.02-.22.087-.555 0-.692-.18l-.078-.093-.008-1.238c-.011-1.512-.058-1.371.457-1.371.34 0 .403-.008.403-.051 0-.027.02-.059.047-.066.066-.028.058-.204-.008-.29-.086-.097-.246-.14-.551-.14-.371 0-.356.031-.356-.629 0-.605-.03-.758-.175-.793-.04-.012-.094-.023-.117-.031a.52.52 0 0 0-.18.023m-4.168 1.442a.89.89 0 0 1-.223.066.678.678 0 0 0-.207.066.248.248 0 0 1-.125.047c-.031 0-.055.016-.055.032 0 .015-.027.039-.062.05-.113.035-.355.317-.355.41 0 .024-.02.063-.047.086-.063.051-.067.504-.004.594a.631.631 0 0 1 .066.137c.027.094.262.324.328.324.024 0 .051.024.063.05.008.024.05.048.086.048.039 0 .097.02.133.043a.65.65 0 0 0 .203.066.643.643 0 0 1 .207.067c.039.027.136.046.218.046.094 0 .164.02.188.051.027.031.098.047.191.047.082 0 .176.02.211.047s.11.047.164.047a.35.35 0 0 1 .18.066.297.297 0 0 0 .11.063c.171 0 .347.523.218.652-.027.027-.047.063-.047.078 0 .016-.047.063-.097.106-.051.039-.098.082-.145.12a.472.472 0 0 1-.184.063.5.5 0 0 0-.183.051c-.055.047-.477.04-.524-.008-.02-.02-.109-.035-.195-.035a.827.827 0 0 1-.289-.066.818.818 0 0 0-.18-.063.243.243 0 0 1-.109-.05.317.317 0 0 0-.148-.047c-.047 0-.102-.02-.125-.047-.024-.028-.079-.047-.13-.047-.046 0-.105.02-.128.047a.12.12 0 0 1-.082.047c-.102 0-.051.238.078.363a.6.6 0 0 0 .144.117c.016 0 .047.023.075.05a.195.195 0 0 0 .12.048c.04 0 .094.023.114.047.023.027.09.05.148.05.063 0 .164.02.23.047.173.074 1.157.074 1.329.004a.572.572 0 0 1 .215-.05c.05 0 .098-.016.098-.036 0-.015.039-.039.085-.05.125-.032.399-.227.489-.356.047-.059.097-.129.12-.152a.167.167 0 0 0 .04-.106c0-.031.023-.086.047-.121.066-.086.066-.52 0-.605a.26.26 0 0 1-.047-.122c0-.09-.352-.41-.45-.41a.129.129 0 0 1-.093-.047c-.024-.027-.09-.047-.145-.047a.285.285 0 0 1-.156-.046.202.202 0 0 0-.129-.051.914.914 0 0 1-.242-.063.934.934 0 0 0-.27-.062.303.303 0 0 1-.164-.05.413.413 0 0 0-.187-.048.49.49 0 0 1-.207-.047c-.059-.027-.121-.058-.18-.086-.164-.078-.21-.105-.21-.136 0-.016-.024-.047-.055-.07-.153-.11-.047-.442.195-.606.21-.14 1.23-.164 1.445-.031.035.02.113.05.168.062.059.012.106.035.106.05 0 .06.273.036.332-.026.11-.122-.075-.489-.246-.489a.25.25 0 0 1-.106-.043.52.52 0 0 0-.191-.066 1.625 1.625 0 0 1-.246-.067c-.164-.062-1.063-.062-1.176-.003m8.023-.004a.914.914 0 0 1-.191.062c-.121.024-.281.09-.402.16-.028.016-.07.035-.094.047-.23.11-.707.696-.707.867 0 .02-.024.051-.051.075-.027.02-.047.09-.047.156s-.02.148-.047.18c-.066.09-.066.835 0 .925a.349.349 0 0 1 .047.18c0 .066.02.137.047.156a.333.333 0 0 1 .066.13c.012.05.04.109.067.132.023.02.043.05.043.07 0 .11.496.598.61.598.015 0 .034.023.042.05.012.028.059.048.102.048.047 0 .09.023.101.047.012.03.059.05.117.05.059 0 .145.02.2.051.136.07 1.078.07 1.214 0a.457.457 0 0 1 .2-.05c.058 0 .105-.02.117-.052.012-.023.055-.046.098-.046.042 0 .09-.02.105-.04a.392.392 0 0 1 .117-.09.72.72 0 0 0 .168-.116c.043-.043.094-.075.11-.075.02 0 .03-.02.03-.039 0-.023.036-.07.075-.11.04-.038.094-.108.117-.16a.392.392 0 0 1 .09-.116c.02-.016.04-.063.04-.106s.019-.086.042-.098c.023-.007.055-.082.066-.164a.527.527 0 0 1 .06-.195c.065-.078.054-.957-.017-1.078a.446.446 0 0 1-.054-.195c0-.059-.02-.11-.051-.122-.023-.007-.047-.046-.047-.078 0-.07-.25-.453-.293-.453-.016 0-.027-.023-.027-.047 0-.027-.02-.05-.047-.05s-.05-.012-.05-.024c0-.035-.376-.297-.427-.297a.258.258 0 0 1-.101-.043.545.545 0 0 0-.192-.07.93.93 0 0 1-.214-.066c-.11-.055-.938-.059-1.032-.004m5.395.008a.15.15 0 0 1-.098.05.295.295 0 0 0-.137.063.285.285 0 0 1-.117.062c-.02 0-.035.024-.035.051 0 .023-.012.047-.023.047-.035 0-.188.227-.215.32-.051.157-.145.051-.145-.168 0-.468-.707-.562-.832-.11-.058.22-.031 3.337.032 3.466.085.164.3.242.5.18.292-.094.28-.044.3-1.403.012-.8.028-1.203.051-1.23a.467.467 0 0 0 .059-.133c.02-.082.336-.442.394-.442.012-.003.082-.03.153-.066.093-.043.199-.059.375-.063.136 0 .25-.011.25-.03 0-.016.042-.055.097-.087.153-.09.14-.379-.02-.484-.136-.086-.523-.102-.59-.023m-4.566.515c.079.012.16.04.18.067.02.023.055.043.074.043.02 0 .063.027.09.062a.375.375 0 0 0 .078.07c.094.04.364.504.364.625 0 .035.02.082.043.102.062.066.074.867.011 1.004a1.096 1.096 0 0 0-.066.21.363.363 0 0 1-.067.157.173.173 0 0 0-.046.11c0 .035-.016.062-.032.062-.015 0-.058.047-.101.105a.853.853 0 0 1-.188.188c-.062.039-.133.094-.156.117a.278.278 0 0 1-.145.04c-.058 0-.12.015-.144.038-.02.02-.117.04-.211.04-.098 0-.195-.02-.215-.04-.023-.023-.082-.039-.137-.039-.093 0-.34-.144-.34-.2 0-.01-.019-.026-.046-.026-.028 0-.047-.012-.047-.028a.5.5 0 0 0-.113-.152c-.063-.067-.114-.149-.114-.176 0-.027-.02-.07-.047-.09-.027-.023-.05-.097-.05-.172 0-.074-.02-.16-.047-.195-.035-.047-.047-.156-.047-.434 0-.277.012-.39.047-.433a.312.312 0 0 0 .047-.164c.004-.121.125-.38.242-.504a.44.44 0 0 0 .082-.106c0-.027.176-.168.21-.172.02 0 .055-.019.075-.046.023-.028.094-.051.156-.051a.531.531 0 0 0 .18-.031c.062-.028.152-.024.48.02" fill="#fff"/>
    <path d="M25.543 13.152c-.816.305-1.2 1.028-.996 1.871.094.391.453.848.742.938a.407.407 0 0 1 .137.098l.074.078-.102.02c-.132.03-.445.265-.582.437-.578.738-.343 1.918.465 2.312.192.094.211.18.047.23-.453.145-.828.77-.828 1.391 0 .676.34 1.164.992 1.422l.176.07h4.836c5.426 0 4.926.02 5.328-.23.918-.582.867-2.152-.09-2.613-.226-.11-.265-.192-.113-.23.746-.188 1.117-1.473.644-2.227-.14-.219-.52-.543-.636-.547-.192 0-.13-.121.129-.246 1.101-.54.91-2.387-.286-2.762-.277-.086-9.71-.098-9.937-.012m10.027.34c.953.508.836 1.973-.183 2.297-.305.098-9.45.102-9.758.004a1.209 1.209 0 0 1-.574-.367c-.48-.547-.29-1.664.332-1.914.066-.028.133-.055.203-.082.09-.032.996-.04 4.965-.035l4.851.007.164.09m-9.195.781a.327.327 0 0 0-.137.555c.067.063.13.063 2.477.063h2.41l.086-.102c.148-.18.086-.414-.14-.508-.075-.031-4.575-.039-4.696-.008m8.02.036c-.137.078-.204.203-.176.343.062.328.699.336.77.012.066-.289-.305-.512-.594-.355m.945 2.058c1.168.313 1.168 2.082 0 2.387-.254.066-9.422.07-9.672.004-1.16-.313-1.195-2.13-.047-2.387.207-.043 9.547-.05 9.719-.004m-9.106.938c-.152.164-.117.425.07.511.169.082 4.645.082 4.817 0 .184-.086.227-.32.086-.488l-.082-.098h-4.82l-.07.075m8.085-.008c-.164.129-.136.394.051.508.285.175.695-.043.621-.328-.058-.235-.46-.344-.672-.18m1.086 2.035c1.024.348 1.102 1.852.117 2.313l-.183.085h-9.703l-.188-.097c-.969-.496-.883-1.914.14-2.293.22-.082 9.575-.09 9.817-.008m-13.52.73c0 .25.005.344.012.215a8.463 8.463 0 0 0 0-.445c-.007-.121-.011-.016-.011.23m4.414.149c-.215.062-.223.441-.008.55.156.079 4.637.087 4.82.009.188-.075.235-.329.098-.489l-.074-.09-2.367-.003c-1.403-.004-2.407.007-2.465.023m8.074.008c-.262.12-.223.484.062.566.403.113.72-.21.473-.484-.105-.121-.363-.16-.535-.082M2.96 23.379a.67.67 0 0 0-.227.18l-.09.12v2.618c0 2.605 0 2.617.067 2.707a.58.58 0 0 0 .922 0l.082-.106v-1.066c0-.672.012-1.086.035-1.125.031-.059.07-.062.621-.062 1.133 0 1.39.105 1.492.601.016.082.043.211.063.281.015.07.031.2.031.285.012.985.215 1.426.648 1.426.457 0 .586-.265.508-1.058-.14-1.426-.277-1.735-.851-1.903-.145-.043-.164-.109-.047-.164l.207-.093c1.11-.516.976-2.098-.215-2.528-.484-.18-2.914-.262-3.246-.113m14.828-.008c-.344.149-.316-.09-.328 2.867-.008 2.543-.008 2.555.059 2.711a.49.49 0 0 0 .855.078c.05-.078.059-.187.066-.976.012-.98.02-1 .211-.754.059.074.118.14.18.21.094.098.809.911 1.059 1.204.261.3.402.441.484.484.3.157.703-.133.621-.449-.023-.098-.3-.422-1.012-1.172-.257-.273-.543-.605-.543-.633 0-.05.137-.191.399-.41 1.129-.937 1.18-1.015.879-1.273-.235-.2-.43-.172-.719.101-.07.067-.207.192-.305.278-.097.086-.312.281-.48.433l-.48.446c-.305.28-.282.379-.294-1.356-.011-1.723.004-1.625-.28-1.773-.169-.086-.2-.086-.372-.016m-12.586.75c1.164.145 1.18 1.55.02 1.723-.356.054-1.465.039-1.489-.016-.035-.09-.02-1.617.016-1.683.04-.075.938-.09 1.453-.024m4.66.984c-2.398.282-2.297 3.98.114 4.168 1.472.114 2.449-.714 2.449-2.082 0-1.398-1.059-2.261-2.563-2.086m5.11 0c-2.301.27-2.278 3.95.023 4.165 1.086.097 2.02-.407 1.594-.864-.113-.12-.2-.12-.574.016-.993.36-1.762-.188-1.762-1.25 0-.977.754-1.57 1.621-1.274.57.192.785.118.734-.257-.047-.371-.832-.63-1.636-.536m-4.25.723c.953.488.882 2.426-.106 2.781-.148.059-.656.028-.8-.047-.891-.445-.903-2.273-.02-2.734.219-.113.707-.113.926 0m12.777-.055c.04.004.098.004.129-.003.031-.008-.004-.012-.074-.012-.07 0-.094.008-.055.015" fill="#e96645"/>
  </g>
</svg>
