<svg xmlns="http://www.w3.org/2000/svg" viewBox="0 0 1000 311.166"><defs><clipPath id="a"><path d="M430.311 715.04H594V792H430.311v-76.96z"/></clipPath></defs><g clip-path="url(#a)" fill="#6c3c97" transform="matrix(7.55785 0 0 -7.55785 -3370.794 5860.601)"><path d="M466.883 761.872c0 3.755-3.021 6.779-6.715 6.779h-3.33v-13.498h3.33c3.694 0 6.715 3.026 6.715 6.719m15.148-26.91h-12.224l-9.705 13.469h-3.264v-13.44h-10.773v40.375h15.433c8.897 0 16.159-6.05 16.159-13.494 0-4.54-2.784-8.595-7.021-11.076l11.395-15.833"/><path d="M494.18 759.449c-2.845 0-5.265-3.867-5.265-8.654s2.42-8.659 5.265-8.659c2.911 0 5.327 3.872 5.327 8.659 0 4.787-2.416 8.654-5.327 8.654m16.582-8.654c0-9.145-7.437-16.468-16.582-16.468-9.142 0-16.524 7.323-16.524 16.468 0 9.138 7.382 16.465 16.524 16.465 9.145 0 16.582-7.327 16.582-16.465m25.281 15.795l-12.41-12.408v12.45h-10.77v-31.64h10.77v12.834l12.956-12.834h13.557l-16.464 16.466 13.637 13.632v-18.776c0-6.234 3.75-11.987 13.19-11.987 4.482 0 8.595 2.542 10.594 4.842l4.843-4.177h2.3v31.598h-10.772v-20.458c-1.213-2.117-2.903-3.448-5.515-3.448-2.65 0-3.866 1.571-3.866 6.596v17.31h-22.05z"/></g></svg>
