<svg xmlns="http://www.w3.org/2000/svg" viewBox="0 0 70 70"><rect fill="none" height="72" width="72" y="-1" x="-1"/><g><path d="M35 1L1 35l34 34 34-34L35 1zm28.6 34L49.8 48.8c.3-.7.5-1.5.5-2.3 0-2.6-1.8-4.9-5.3-5.6l-2.5-.5c-1.3-.2-1.8-.9-1.8-1.8 0-1 1-2 2.5-2 2.2 0 2.9 1.4 3.1 2.2l3.6-1.5c-.6-2.1-2.4-4.4-6.6-4.4-1.6 0-3 .5-4.2 1.3 1.4-1.9 2.9-3.8 4.5-5.4 4.7-4.7 7.3-6.1 7.9-6.3L63.6 35zM48.4 19.8c-.5.3-3.2 1.7-7.9 6.3-2.4 2.4-4.5 5.4-6.6 8.4l-2.3-4.7c1.9-1.1 2.7-3.2 2.7-5.2 0-3.3-2.3-5.8-6-5.8h-5.7L35 6.4l13.4 13.4zm-18.3 4.9c0 1.3-.9 2.2-2.6 2.2h-2.4v-4.5h2.4c1.7 0 2.6.9 2.6 2.3zM6.4 35l14.5-14.5v16.9H25v-6.9h2.5l3.7 7.7c-1.1 1.4-2.2 2.7-3.4 3.9-4.7 4.7-7.5 6.1-8 6.3L6.4 35zm16.4 16.3c.4-.2 3.3-1.6 8-6.3 2.3-2.3 4.2-4.9 6.1-7.5-.1.5-.2 1-.2 1.6 0 2.7 1.9 4.8 5 5.4l2.5.5c1.2.2 2 .9 2 1.9 0 1.1-1 1.9-2.6 1.9-2.5 0-3.6-1.4-3.8-3.1l-3.7 1.5c.6 2.5 2.8 5.2 7.4 5.2 1.4 0 2.5-.3 3.5-.8L35.1 63.5 22.8 51.3z" fill="#B5B9BC"/></g></svg>