<svg viewBox="673 108.9 598.60803 575.95748" xmlns="http://www.w3.org/2000/svg"><path d="m977.3 356.3s-2.8-16.5 4.5-23.6 19.4.6 19.4.6l35 20.3s28.3 16.5 35 17.5c6.4.9 13.1-1.9 15.9-8.5 2.2-5.2-2.1-11-3.2-12.8-2-3.2-8.1-10.3-8.1-10.3l-31.3-32.2s-16.3-15.1-16.9-24c-.4-6.2 21.7-19.5 21.7-19.5s22.1-11.4 44.2-24 8.3-29.5 1.5-30.7-35.6 4.9-35.6 4.9-29.8 6.2-52.8 7.4-30.7-15.4-30.7-15.4-11-19.1-15.6-28.3-6.9-11-14.3-7.3c-5.9 2.9 3.9 24 3.9 24s5.8 13.1 8.6 18.9c2.8 5.9 3.7 10.7-1.8 13.5s-9.5-7.6-9.5-7.6l-16-29.2s-5.1-8-7-10.4c-8.9-11.3-30.3 13.2-30.4 17.3-.2 13.3 16.7-.2 21.2 9.1 2.5 5.2 8.2 17.8 9.8 21.2 1.5 3.4 11.1 27.7-6.1 34.7-17.2 7.1-87.8 38.7-179.7 38.7-31.8 0-47.4-3.8-47.4-3.8s-31.2-9-12.8 17.3c0 0 13 15.9 17 28.7 6.5 20.8 2.6 52.5-1.7 63.6s-16.7 24.4-16.7 24.4 6.9 158.7 3.9 177.2c-3.1 19.5 2.3 35.3 2.3 35.3s1.4 14.1 18.1 24.7c13 8.3 13.6-2.3 13.6-9.1s-7.7-17-12.8-22.2c-5.1-5.1-3.4-14.9-3.4-14.9l15.2-174.4s4.2-17.5 15.1-3.9c8.9 11-2.3 23-2.3 23s6.9 127.2 6.9 144.5c0 20.2-2.1 31.6-.4 38.4s11.6 16.2 23.6 20.2c11.9 4 10.2-5.7 10.2-5.7s-1.9-15.7-11.1-19.6c-6-2.6-5.1-31.3-5.1-31.3l3.4-101.1s-2.4-79.4 34-89.4c30.2-8.3 91.4 5.1 91.4 5.1s43.3 6.6 52.3 40.9c10 37.9 23.2 154.2 23.2 154.2s11.9 58.9 48.7 47.9c1.3-.4 2.5-.9 2.5-.9s9.8-4-6.3-14.7c-16-10.7-20.4-10.2-27.7-46.2s-10.7-139.8-11.2-148.1-1.9-23.3-1.9-23.3 2.2-9.6 7.8-2.4c6.4 8.1 14.4 48 14.4 48s14.7 87.3 17.1 99.2c1.6 7.9 5.6 42.1 27.1 58.5 16.5 12.7 40.5 3.8 40.5 3.8s6.8-13.6-12.2-15.6c-16.7-1.7-26.2-8.3-32.6-27.3-6.3-18.7-44.4-245.3-44.4-245.3z"/><path d="m1065.7 611c-3.6-6.7-29-55.9-27.5-97.1.3-7 1.1-13.9 2.3-20.8 6.1-37 3-43.4-33-110.6l6-10.8c35.9 67.1 39.1 73.6 33 110.6-1.2 6.9-2.1 13.8-2.3 20.8-1.5 41.8 24.6 91.8 27.6 97.4 22.3 41.4 61.7 72.7 94.2 72.7 14 0 24.8-5.8 31.6-15.7-5.6 16.6-18.4 26.9-37.1 26.9-32.7 0-72.7-31.4-94.8-73.4z" fill="#ee9601" stroke="#ee9601" stroke-miterlimit="3.86" stroke-width=".91"/><path d="m1102.5 630.2c21.7-9.8 40.6-12.1 65.3-5.9 26.5 6.7 37.4 22.1 28.5 37 4.7-11.2-9.6-23.9-36.3-30.7-24.2-6.1-39.5-6.4-57.5-.4zm-99.3-265.1s-83.8-63-94.3-98.1c-1.9-6.1-27.6 7.3-27.6 7.3s61.8 66.4 108.3 93.6c4.5 2.7 7.7 2.5 9.8 1.4 2.8-1.2 3.8-4.2 3.8-4.2z" fill="#ee9601"/><path d="m989.7 371.5c0-6.6 5.3-12 12-12 6.6 0 11.9 5.4 11.9 12s-5.3 12-11.9 12-12-5.4-12-12z" fill="none" stroke="#000" stroke-miterlimit="3.86" stroke-width="6.13"/><path d="m1177.1 108.9 15.4 6.4-8 18.1-44.4 77 29-83.3zm47.6 28.5 12.5 10.9-13.4 14.6-66.7 58.7 54.2-69.7zm38.6 42.4 8.3 14.4-17.4 9.5-82.1 33.9 73.8-48.3z" fill="#ee9601"/></svg>