<svg xmlns="http://www.w3.org/2000/svg" viewBox="0 0 8.025 7.744"><defs><radialGradient fx="0" fy="0" cx="0" cy="0" r="1" gradientUnits="userSpaceOnUse" gradientTransform="matrix(12.02043 0 0 -10.49538 403.316 51.632)" spreadMethod="pad" id="f"><stop offset="0" stop-color="#61626d"/><stop offset=".33" stop-color="#3f444f"/><stop offset=".546" stop-color="#242d38"/><stop offset=".753" stop-color="#242d38"/><stop offset=".802" stop-color="#61626d"/><stop offset="1" stop-color="#61626d"/></radialGradient><linearGradient x2="1" gradientUnits="userSpaceOnUse" gradientTransform="matrix(22.07584 0 0 -22.07584 394.653 49.63)" id="e"><stop offset="0" stop-color="#242d38"/><stop offset="1" stop-color="#8c8a92"/></linearGradient><radialGradient fx="0" fy="0" cx="0" cy="0" r="1" gradientUnits="userSpaceOnUse" gradientTransform="matrix(13.4537 0 0 -11.46527 407.159 63.096)" spreadMethod="pad" id="d"><stop offset="0" stop-color="#61626d"/><stop offset=".33" stop-color="#3f444f"/><stop offset=".546" stop-color="#242d38"/><stop offset=".753" stop-color="#242d38"/><stop offset=".802" stop-color="#61626d"/><stop offset="1" stop-color="#61626d"/></radialGradient><linearGradient x2="1" gradientUnits="userSpaceOnUse" gradientTransform="matrix(21.88918 0 0 -21.88918 394.016 65.419)" id="c"><stop offset="0" stop-color="#242d38"/><stop offset="1" stop-color="#8c8a92"/></linearGradient><radialGradient fx="0" fy="0" cx="0" cy="0" r="1" gradientUnits="userSpaceOnUse" gradientTransform="matrix(11.3987 0 0 -10.17105 410.537 59.656)" spreadMethod="pad" id="b"><stop offset="0" stop-color="#61626d"/><stop offset=".177" stop-color="#61626d"/><stop offset=".736" stop-color="#303843"/><stop offset=".812" stop-color="#242d38"/><stop offset="1" stop-color="#242d38"/></radialGradient><linearGradient x2="1" gradientUnits="userSpaceOnUse" gradientTransform="matrix(22.69687 0 0 -22.69687 394.035 57.525)" id="a"><stop offset="0" stop-color="#242d38"/><stop offset="1" stop-color="#8c8a92"/></linearGradient></defs><path d="M394.035 61.415c.195-2.629 2.564-4.48 6.119-5.328l7.192-1.73c1.863-.44 2.795-.455 3.15-2.048 3.846.257 5.467.939 6.236 1.312v.212c0 2.288-1.766 3.814-5.295 4.663l-9.381 2.229c-1.309.368-1.987.94-2.515 2.016-3.898-.281-4.825-.976-5.506-1.326" fill="url(#a)" transform="matrix(.35278 0 0 -.35278 -139 24.182)"/><path d="M394.146 61.307a.533.533 0 0 0-.041-.022c.334-2.75 3.616-4.095 6.343-4.742l7.383-1.765c1.831-.432 2.921-.763 3.366-2.337 3.424.253 4.769.825 5.568 1.21v.045c0 2.181-1.703 3.65-5.203 4.49l-9.645 2.279c-1.336.371-2.105.948-2.685 2.026-3.372-.261-4.443-.838-5.086-1.184" fill="url(#b)" transform="matrix(.35278 0 0 -.35278 -139 24.182)"/><path d="M394.016 62.44v-.067c1.394.556 4.778 1.477 11.361 1.477 4.655 0 6.846-.57 10.528-1.559v5.026c-3.033.631-4.471 1.23-10.425 1.23-7.496 0-11.464-2.138-11.464-6.107" fill="url(#c)" transform="matrix(.35278 0 0 -.35278 -139 24.182)"/><path d="M394.087 63.134c1.67.562 5.092 1.325 11.322 1.325 4.707 0 6.984-.546 10.491-1.458v4.127c-.435.089-.841.179-1.233.264-2.301.505-4.119.905-9.152.905-5.078 0-11.102-.91-11.428-5.163" fill="url(#d)" transform="matrix(.35278 0 0 -.35278 -139 24.182)"/><path d="M404.842 51.25c-3.575 0-6.482.559-10.188 1.368v-5.059c2.972-.559 4.809-.963 10.188-.963 6.863 0 12.123 2.081 11.879 6.067-1.483-.604-4.157-1.413-11.879-1.413" fill="url(#e)" transform="matrix(.35278 0 0 -.35278 -139 24.182)"/><path d="M394.741 47.819l.212-.039c2.744-.488 4.726-.84 9.924-.84 4.184 0 11.142.642 11.827 4.835-1.766-.596-4.824-1.207-11.827-1.207-3.62 0-6.637.535-10.136 1.244z" fill="url(#f)" transform="matrix(.35278 0 0 -.35278 -139 24.182)"/></svg>
