<?xml version="1.0" encoding="UTF-8" standalone="no"?>
<svg
   xmlns:dc="http://purl.org/dc/elements/1.1/"
   xmlns:cc="http://creativecommons.org/ns#"
   xmlns:rdf="http://www.w3.org/1999/02/22-rdf-syntax-ns#"
   xmlns:svg="http://www.w3.org/2000/svg"
   xmlns="http://www.w3.org/2000/svg"
   id="svg2990"
   version="1.1"
   viewBox="0 0 8.025342 7.7438247">
  <defs
     id="defs2984">
    <radialGradient
       fx="0"
       fy="0"
       cx="0"
       cy="0"
       r="1"
       gradientUnits="userSpaceOnUse"
       gradientTransform="matrix(12.02043,0,0,-10.495376,403.31576,51.631853)"
       spreadMethod="pad"
       id="radialGradient3345">
      <stop
         style="stop-opacity:1;stop-color:#61626d"
         offset="0"
         id="stop3333" />
      <stop
         style="stop-opacity:1;stop-color:#3f444f"
         offset="0.32967"
         id="stop3335" />
      <stop
         style="stop-opacity:1;stop-color:#242d38"
         offset="0.54624273"
         id="stop3337" />
      <stop
         style="stop-opacity:1;stop-color:#242d38"
         offset="0.752747"
         id="stop3339" />
      <stop
         style="stop-opacity:1;stop-color:#61626d"
         offset="0.80242323"
         id="stop3341" />
      <stop
         style="stop-opacity:1;stop-color:#61626d"
         offset="1"
         id="stop3343" />
    </radialGradient>
    <linearGradient
       x1="0"
       y1="0"
       x2="1"
       y2="0"
       gradientUnits="userSpaceOnUse"
       gradientTransform="matrix(22.075838,0,0,-22.075838,394.65338,49.629388)"
       spreadMethod="pad"
       id="linearGradient3317">
      <stop
         style="stop-opacity:1;stop-color:#242d38"
         offset="0"
         id="stop3313" />
      <stop
         style="stop-opacity:1;stop-color:#8c8a92"
         offset="1"
         id="stop3315" />
    </linearGradient>
    <radialGradient
       fx="0"
       fy="0"
       cx="0"
       cy="0"
       r="1"
       gradientUnits="userSpaceOnUse"
       gradientTransform="matrix(13.453705,0,0,-11.465274,407.15876,63.095512)"
       spreadMethod="pad"
       id="radialGradient3297">
      <stop
         style="stop-opacity:1;stop-color:#61626d"
         offset="0"
         id="stop3285" />
      <stop
         style="stop-opacity:1;stop-color:#3f444f"
         offset="0.32967"
         id="stop3287" />
      <stop
         style="stop-opacity:1;stop-color:#242d38"
         offset="0.54624273"
         id="stop3289" />
      <stop
         style="stop-opacity:1;stop-color:#242d38"
         offset="0.752747"
         id="stop3291" />
      <stop
         style="stop-opacity:1;stop-color:#61626d"
         offset="0.80242323"
         id="stop3293" />
      <stop
         style="stop-opacity:1;stop-color:#61626d"
         offset="1"
         id="stop3295" />
    </radialGradient>
    <linearGradient
       x1="0"
       y1="0"
       x2="1"
       y2="0"
       gradientUnits="userSpaceOnUse"
       gradientTransform="matrix(21.889182,0,0,-21.889182,394.01575,65.418784)"
       spreadMethod="pad"
       id="linearGradient3269">
      <stop
         style="stop-opacity:1;stop-color:#242d38"
         offset="0"
         id="stop3265" />
      <stop
         style="stop-opacity:1;stop-color:#8c8a92"
         offset="1"
         id="stop3267" />
    </linearGradient>
    <radialGradient
       fx="0"
       fy="0"
       cx="0"
       cy="0"
       r="1"
       gradientUnits="userSpaceOnUse"
       gradientTransform="matrix(11.398695,0,0,-10.171052,410.53725,59.655866)"
       spreadMethod="pad"
       id="radialGradient3249">
      <stop
         style="stop-opacity:1;stop-color:#61626d"
         offset="0"
         id="stop3239" />
      <stop
         style="stop-opacity:1;stop-color:#61626d"
         offset="0.17744681"
         id="stop3241" />
      <stop
         style="stop-opacity:1;stop-color:#303843"
         offset="0.736264"
         id="stop3243" />
      <stop
         style="stop-opacity:1;stop-color:#242d38"
         offset="0.81177269"
         id="stop3245" />
      <stop
         style="stop-opacity:1;stop-color:#242d38"
         offset="1"
         id="stop3247" />
    </radialGradient>
    <linearGradient
       x1="0"
       y1="0"
       x2="1"
       y2="0"
       gradientUnits="userSpaceOnUse"
       gradientTransform="matrix(22.696868,0,0,-22.696868,394.03519,57.524947)"
       spreadMethod="pad"
       id="linearGradient3223">
      <stop
         style="stop-opacity:1;stop-color:#242d38"
         offset="0"
         id="stop3219" />
      <stop
         style="stop-opacity:1;stop-color:#8c8a92"
         offset="1"
         id="stop3221" />
    </linearGradient>
  </defs>
  <metadata
     id="metadata2987">
    <rdf:RDF>
      <cc:Work
         rdf:about="">
        <dc:format>image/svg+xml</dc:format>
        <dc:type
           rdf:resource="http://purl.org/dc/dcmitype/StillImage" />
        <dc:title></dc:title>
      </cc:Work>
    </rdf:RDF>
  </metadata>
  <g
     transform="translate(-109.63151,-169.95993)"
     id="layer1">
    <g
       transform="matrix(0.35277777,0,0,-0.35277777,-29.368574,194.14179)"
       id="g3209">
      <g
         id="g3215">
        <g
           id="g3217">
          <path
             d="m 394.035,61.415 c 0.195,-2.629 2.564,-4.48 6.119,-5.328 v 0 l 7.192,-1.73 c 1.863,-0.44 2.795,-0.455 3.15,-2.048 v 0 c 3.846,0.257 5.467,0.939 6.236,1.312 v 0 0.212 c 0,2.288 -1.766,3.814 -5.295,4.663 v 0 l -9.381,2.229 c -1.309,0.368 -1.987,0.94 -2.515,2.016 v 0 c -3.898,-0.281 -4.825,-0.976 -5.506,-1.326"
             style="fill:url(#linearGradient3223);stroke:none"
             id="path3225" />
        </g>
      </g>
    </g>
    <g
       transform="matrix(0.35277777,0,0,-0.35277777,-29.368574,194.14179)"
       id="g3229">
      <g
         id="g3235">
        <g
           id="g3237">
          <path
             d="m 394.146,61.307 c -0.013,-0.008 -0.027,-0.015 -0.041,-0.022 v 0 c 0.334,-2.75 3.616,-4.095 6.343,-4.742 v 0 l 7.383,-1.765 c 1.831,-0.432 2.921,-0.763 3.366,-2.337 v 0 c 3.424,0.253 4.769,0.825 5.568,1.21 v 0 0.045 c 0,2.181 -1.703,3.65 -5.203,4.49 v 0 l -9.645,2.279 c -1.336,0.371 -2.105,0.948 -2.685,2.026 v 0 c -3.372,-0.261 -4.443,-0.838 -5.086,-1.184"
             style="fill:url(#radialGradient3249);stroke:none"
             id="path3251" />
        </g>
      </g>
    </g>
    <g
       transform="matrix(0.35277777,0,0,-0.35277777,-29.368574,194.14179)"
       id="g3255">
      <g
         id="g3261">
        <g
           id="g3263">
          <path
             d="m 394.016,62.44 v -0.067 c 1.394,0.556 4.778,1.477 11.361,1.477 v 0 c 4.655,0 6.846,-0.57 10.528,-1.559 v 0 5.026 c -3.033,0.631 -4.471,1.23 -10.425,1.23 v 0 c -7.496,0 -11.464,-2.138 -11.464,-6.107"
             style="fill:url(#linearGradient3269);stroke:none"
             id="path3271" />
        </g>
      </g>
    </g>
    <g
       transform="matrix(0.35277777,0,0,-0.35277777,-29.368574,194.14179)"
       id="g3275">
      <g
         id="g3281">
        <g
           id="g3283">
          <path
             d="m 394.087,63.134 c 1.67,0.562 5.092,1.325 11.322,1.325 v 0 c 4.707,0 6.984,-0.546 10.491,-1.458 v 0 4.127 c -0.435,0.089 -0.841,0.179 -1.233,0.264 v 0 c -2.301,0.505 -4.119,0.905 -9.152,0.905 v 0 c -5.078,0 -11.102,-0.91 -11.428,-5.163"
             style="fill:url(#radialGradient3297);stroke:none"
             id="path3299" />
        </g>
      </g>
    </g>
    <g
       transform="matrix(0.35277777,0,0,-0.35277777,-29.368574,194.14179)"
       id="g3303">
      <g
         id="g3309">
        <g
           id="g3311">
          <path
             d="m 404.842,51.25 c -3.575,0 -6.482,0.559 -10.188,1.368 v 0 -5.059 c 2.972,-0.559 4.809,-0.963 10.188,-0.963 v 0 c 6.863,0 12.123,2.081 11.879,6.067 v 0 c -1.483,-0.604 -4.157,-1.413 -11.879,-1.413"
             style="fill:url(#linearGradient3317);stroke:none"
             id="path3319" />
        </g>
      </g>
    </g>
    <g
       transform="matrix(0.35277777,0,0,-0.35277777,-29.368574,194.14179)"
       id="g3323">
      <g
         id="g3329">
        <g
           id="g3331">
          <path
             d="m 394.741,47.819 0.212,-0.039 c 2.744,-0.488 4.726,-0.84 9.924,-0.84 v 0 c 4.184,0 11.142,0.642 11.827,4.835 v 0 c -1.766,-0.596 -4.824,-1.207 -11.827,-1.207 v 0 c -3.62,0 -6.637,0.535 -10.136,1.244 v 0 z"
             style="fill:url(#radialGradient3345);stroke:none"
             id="path3347" />
        </g>
      </g>
    </g>
  </g>
</svg>
