<svg xmlns="http://www.w3.org/2000/svg" width="91.026" height="30.223" viewBox="0 0 91.026 30.223"><path fill="#034EA2" d="M90.97 7.196c1.24 7.106-18.106 16.412-43.214 20.785-25.105 4.374-46.462 2.155-47.7-4.954C-1.18 15.92 18.17 6.616 43.274 2.244 68.38-2.13 89.734.088 90.97 7.196z"/><g fill="#FFF"><path d="M67.34 17.745l-.13-7.39h2.33v9.314h-3.35l-2.324-7.644h-.05l.13 7.643H61.63v-9.314h3.495l2.163 7.39M24.987 11.228l-1.29 8.54h-2.54l1.745-9.412h4.186l1.737 9.41h-2.53L25.04 11.23M35.962 17.55l1.163-7.194h3.838l.204 9.41h-2.352l-.062-8.46h-.05l-1.572 8.46h-2.387l-1.574-8.46h-.052l-.06 8.46h-2.356l.208-9.41h3.84l1.162 7.194M17.194 17.112c.092.228.064.52.02.698-.078.313-.29.632-.916.632-.59 0-.948-.338-.948-.855v-.91h-2.524l-.002.728c0 2.098 1.652 2.73 3.422 2.73 1.702 0 3.104-.58 3.327-2.15.114-.812.03-1.344-.01-1.545-.397-1.97-3.97-2.558-4.235-3.66-.045-.19-.032-.39-.01-.496.065-.3.27-.63.86-.63.55 0 .875.34.875.853v.58H19.4v-.66c0-2.05-1.84-2.37-3.173-2.37-1.674 0-3.042.553-3.292 2.085-.068.423-.078.8.02 1.272.412 1.923 3.755 2.48 4.24 3.698zM47.796 17.095c.093.226.063.51.02.688-.076.312-.286.626-.908.626-.582 0-.937-.34-.937-.844v-.903h-2.5l-.002.72c0 2.076 1.637 2.703 3.39 2.703 1.683 0 3.072-.574 3.29-2.128.115-.807.034-1.332-.007-1.53-.394-1.95-3.93-2.533-4.193-3.624-.045-.188-.032-.386-.01-.487.068-.302.27-.625.853-.625.545 0 .863.332.863.842v.575h2.33v-.655c0-2.028-1.826-2.346-3.146-2.346-1.655 0-3.012.545-3.257 2.066-.068.417-.075.787.022 1.257.405 1.903 3.715 2.456 4.194 3.662zM55.7 18.36c.654 0 .858-.453.903-.684.02-.102.024-.238.022-.36v-6.964h2.38v6.75c.005.174-.012.53-.02.62-.167 1.756-1.556 2.326-3.285 2.326-1.73 0-3.12-.57-3.286-2.327-.008-.088-.025-.444-.02-.617v-6.75h2.378v6.963c0 .122.004.26.022.36.05.23.25.683.907.683zM75.333 18.26c.682 0 .92-.43.964-.682.017-.108.022-.24.02-.358v-1.366h-.965V14.48h3.337v2.526c-.003.176-.007.306-.035.62-.157 1.712-1.642 2.323-3.31 2.323-1.67 0-3.154-.612-3.313-2.324-.027-.314-.03-.444-.034-.62L72 13.043c0-.167.02-.463.04-.62.208-1.76 1.634-2.325 3.305-2.325 1.67 0 3.13.563 3.303 2.325.03.3.02.62.02.62v.314h-2.372v-.527c.002 0-.003-.224-.03-.358-.04-.208-.222-.686-.94-.686-.685 0-.886.452-.936.686-.03.124-.04.292-.04.444v4.304c-.002.12.005.25.024.358.04.252.278.682.96.682z"/></g></svg>