<?xml version="1.0" encoding="UTF-8"?>
<svg version="1.1" xmlns="http://www.w3.org/2000/svg" >
<path d="M0 0 C132 0 264 0 400 0 C400 132 400 264 400 400 C268 400 136 400 0 400 C0 268 0 136 0 0 Z " fill="#FEFEFE" transform="translate(0,0)"/>
<path d="M0 0 C13.19028897 9.74260698 25.21436687 22.79481494 30.16796875 38.765625 C32.16386309 42.28929347 32.42591127 42.5151269 36.0625 43.56640625 C37.70335893 43.92220687 39.34976067 44.25310987 41 44.5625 C58.38519711 48.52368415 71.43862385 58.32651176 81 73.5 C84.45869152 79.33161659 86.27654363 85.47738052 88 92 C88.19851563 92.68835938 88.39703125 93.37671875 88.6015625 94.0859375 C89.07285113 96.3499711 89.09647612 98.43962393 89.0625 100.75 C89.04896484 101.94882813 89.04896484 101.94882813 89.03515625 103.171875 C89.02355469 103.77515625 89.01195312 104.3784375 89 105 C90.07507813 105.15662109 90.07507813 105.15662109 91.171875 105.31640625 C100.61006417 107.59773651 108.51943806 115.30592955 114 123 C121.54254199 136.64009173 123.67516348 151.86848437 119.4375 167.0625 C117.25142869 173.12038071 114.10477751 178.06553342 110 183 C109.47664063 183.63550781 108.95328125 184.27101563 108.4140625 184.92578125 C100.31391065 193.83594828 88.88804952 199.21285938 76.91964149 200.16560745 C71.17229639 200.41737156 65.42287337 200.3447887 59.671875 200.29296875 C57.82814888 200.28736192 55.98441825 200.28309697 54.14068604 200.28010559 C49.32712094 200.26874234 44.51383463 200.23935017 39.70037842 200.20599365 C34.77294687 200.17510738 29.84546954 200.16156089 24.91796875 200.14648438 C15.27852447 200.11447094 5.63928557 200.06337979 -4 200 C-2.71034824 198.62437146 -1.37310707 197.29233607 0 196 C0.66 196 1.32 196 2 196 C2.28746094 195.4225 2.57492188 194.845 2.87109375 194.25 C3.58402315 192.82907497 4.30441488 191.41184749 5.03515625 190 C5.54369141 189.01 5.54369141 189.01 6.0625 188 C6.40410156 187.34 6.74570313 186.68 7.09765625 186 C7.99555555 184.0098509 8.49869979 182.11886934 9 180 C10.1781855 179.99453156 10.1781855 179.99453156 11.38017273 179.98895264 C18.83747752 179.95084694 26.29429509 179.89374295 33.7512846 179.81609726 C37.5836357 179.77684161 41.41576457 179.7445473 45.24829102 179.72900391 C48.95741146 179.7136908 52.66591998 179.67899304 56.3747654 179.63169098 C57.77904711 179.61702621 59.18341626 179.60896771 60.58777428 179.60811615 C71.60603458 179.59473468 84.23702719 178.94088629 92.5703125 170.7734375 C98.4833435 163.43869413 100.43566534 156.23436005 100.34765625 146.91796875 C99.48852315 139.70704261 95.52912886 133.58513125 90 129 C85.18736328 125.32017282 80.93137136 123.9506395 75.125 122.75 C73.949375 122.49089844 73.949375 122.49089844 72.75 122.2265625 C70.8357872 121.80636945 68.91820316 121.40158373 67 121 C67.0314209 119.95042114 67.0314209 119.95042114 67.06347656 118.87963867 C67.14762934 115.64907736 67.19897071 112.41874774 67.25 109.1875 C67.30027344 107.53717773 67.30027344 107.53717773 67.3515625 105.85351562 C67.49181545 93.96707796 64.25918773 84.65170358 56 76 C46.93880023 67.34989436 36.09890747 63.79568392 23.75 63.9375 C23.00492188 63.94201172 22.25984375 63.94652344 21.4921875 63.95117188 C19.6614236 63.96290754 17.83070127 63.9808415 16 64 C15.79246094 63.07960938 15.58492187 62.15921875 15.37109375 61.2109375 C10.60813127 41.64094104 1.37177912 25.98856065 -16 15 C-27.47115104 8.59912573 -38.6916949 5.77647035 -51.75 5.6875 C-52.53004395 5.68186035 -53.31008789 5.6762207 -54.11376953 5.67041016 C-72.40105725 5.89866274 -88.31096242 14.18615221 -101 27 C-107.45639046 33.89294356 -111.5600809 41.2282063 -115 50 C-115.33 50.825 -115.66 51.65 -116 52.5 C-119.227932 62.183796 -118.75789163 72.8916412 -119 83 C-120.97419922 83.03867188 -120.97419922 83.03867188 -122.98828125 83.078125 C-136.93780272 83.4439783 -136.93780272 83.4439783 -150 88 C-150.85722656 88.43441406 -151.71445313 88.86882812 -152.59765625 89.31640625 C-164.55821693 95.93710877 -171.19423152 105.39946873 -176 118 C-179.07529057 131.52448228 -176.85568408 145.43130868 -169.83984375 157.3359375 C-162.17565666 168.43355023 -151.34979093 175.91863847 -138 178.375 C-131.36154456 179.20032149 -124.67513902 179.59949166 -118 180 C-118 186.6 -118 193.2 -118 200 C-141.00490364 200.4727035 -160.71068758 197.38753174 -178 181 C-192.11359255 167.01332825 -198.19508572 150.5645291 -198.3125 130.9375 C-198.31856603 121.54189472 -198.01013856 113.6271527 -194 105 C-193.51402344 103.93136719 -193.02804688 102.86273438 -192.52734375 101.76171875 C-183.66590536 83.93409683 -169.81668911 71.83763595 -151.1953125 64.96484375 C-146.97510194 63.61863415 -143.45356257 62.85861706 -139 63 C-138.99742187 62.319375 -138.99484375 61.63875 -138.9921875 60.9375 C-138.29418026 43.44078506 -129.41440751 26.9084399 -118 14 C-116.81470703 12.65421875 -116.81470703 12.65421875 -115.60546875 11.28125 C-102.47817991 -2.73168801 -85.65559116 -10.9927032 -67 -15 C-66.26136719 -15.18433594 -65.52273437 -15.36867188 -64.76171875 -15.55859375 C-41.91295111 -19.21051842 -18.99143244 -12.78130625 0 0 Z " fill="#198FCD" transform="translate(239,98)"/>
<path d="M0 0 C2.42578125 1.96875 2.42578125 1.96875 4 4 C3.36898742 8.21464713 1.06548274 11.63353192 -1.0625 15.25 C-1.43955078 15.8996875 -1.81660156 16.549375 -2.20507812 17.21875 C-3.13234115 18.81505091 -4.06558456 20.40787529 -5 22 C-8.71427781 22 -9.26632545 21.14196523 -12 18.75 C-19.2563833 12.96133177 -27.08985418 10.2008556 -36.41015625 10.53515625 C-40.5902136 11.28542295 -43.8338496 13.20633788 -47 16 C-48.8736257 19.74725139 -48.51725648 23.91872023 -48 28 C-43.4539219 36.28035653 -33.17990089 39.96637639 -25.00097656 43.93383789 C-12.60238868 49.96443358 -0.29752619 56.84113044 4.9375 70.375 C7.68453255 80.29865509 5.92190363 89.62628605 2 99 C-3.35349514 108.44189922 -12.40663561 115.43861105 -22.79798889 118.53591919 C-29.45286816 120.19322262 -35.86035705 120.25745401 -42.69140625 120.1953125 C-43.87725815 120.1924826 -45.06311005 120.18965271 -46.28489685 120.18673706 C-50.04420384 120.17560994 -53.80326593 120.15051898 -57.5625 120.125 C-60.12304342 120.11496056 -62.68359059 120.1058364 -65.24414062 120.09765625 C-71.49618702 120.07569504 -77.74805209 120.04121676 -84 120 C-84 113.07 -84 106.14 -84 99 C-82.48647949 98.98541748 -80.97295898 98.97083496 -79.41357422 98.95581055 C-73.78882428 98.89776193 -68.1644719 98.82052854 -62.54003906 98.73754883 C-60.1074876 98.70433053 -57.67485963 98.67628901 -55.2421875 98.65356445 C-51.74185642 98.61996242 -48.24222445 98.56764166 -44.7421875 98.51171875 C-43.65759247 98.50532883 -42.57299744 98.4989389 -41.45553589 98.49235535 C-34.67112386 98.36077485 -30.1651135 97.54967476 -24.75 93.1875 C-21.96967916 89.71209895 -21.17057684 86.36461474 -20.625 82 C-21.34256818 76.25945458 -24.65780047 73.10408417 -29.015625 69.64453125 C-33.82597115 65.961421 -38.88921786 63.28516838 -44.3125 60.625 C-57.15948298 54.08834155 -67.53591338 47.47108348 -74.875 34.75 C-77.68615519 25.37948269 -76.27128231 16.67646061 -72 8 C-66.39038522 -2.24521284 -55.9860097 -7.24559268 -45.203125 -10.55078125 C-29.44564582 -13.76374243 -13.13560673 -8.64334296 0 0 Z " fill="#395380" transform="translate(225,178)"/>
<path d="M0 0 C0.75917725 0.00386719 1.51835449 0.00773437 2.30053711 0.01171875 C8.01133714 0.09926854 13.41492348 0.73027378 18.9375 2.25 C19.2675 3.24 19.5975 4.23 19.9375 5.25 C19.37546875 5.11722656 18.8134375 4.98445313 18.234375 4.84765625 C8.55927968 2.8146991 -1.21403001 2.61654443 -11.0625 2.25 C-7.31017734 -0.25154844 -4.34300791 -0.0525572 0 0 Z " fill="#3690BF" transform="translate(188.0625,100.75)"/>
<path d="M0 0 C0.66 0.33 1.32 0.66 2 1 C-3.94 6.94 -9.88 12.88 -16 19 C-16.66 18.67 -17.32 18.34 -18 18 C-6.66287016 5.33029613 -6.66287016 5.33029613 0 0 Z " fill="#E4FAFE" transform="translate(149,114)"/>
<path d="M0 0 C0 0.66 0 1.32 0 2 C-0.66386719 2.19335938 -1.32773438 2.38671875 -2.01171875 2.5859375 C-6.4319331 3.88941677 -10.7356148 5.24407668 -15 7 C-16.32676508 7.35858516 -17.65835921 7.7018576 -19 8 C-19 7.34 -19 6.68 -19 6 C-17.06305322 5.18618205 -15.12542289 4.37399084 -13.1875 3.5625 C-12.10855469 3.11003906 -11.02960938 2.65757813 -9.91796875 2.19140625 C-6.24320654 0.69100133 -4.03005276 0 0 0 Z " fill="#3794C5" transform="translate(167,85)"/>
<path d="M0 0 C-1.46966358 3.39859703 -3.38037514 5.64963709 -6 8.25 C-6.70125 8.95640625 -7.4025 9.6628125 -8.125 10.390625 C-10 12 -10 12 -12 12 C-10.53033642 8.60140297 -8.61962486 6.35036291 -6 3.75 C-5.29875 3.04359375 -4.5975 2.3371875 -3.875 1.609375 C-2 0 -2 0 0 0 Z " fill="#E4FAFD" transform="translate(82,190)"/>
<path d="M0 0 C0.69287109 0.00451172 1.38574219 0.00902344 2.09960938 0.01367188 C3.79561068 0.02536844 5.49156703 0.04330076 7.1875 0.0625 C7.1875 0.3925 7.1875 0.7225 7.1875 1.0625 C5.90552734 1.15337891 5.90552734 1.15337891 4.59765625 1.24609375 C2.94056641 1.37177734 2.94056641 1.37177734 1.25 1.5 C0.14785156 1.58121094 -0.95429688 1.66242188 -2.08984375 1.74609375 C-4.72359903 1.76668084 -4.72359903 1.76668084 -5.8125 3.0625 C-8.14547433 3.10342937 -10.47955225 3.10491723 -12.8125 3.0625 C-12.8125 2.4025 -12.8125 1.7425 -12.8125 1.0625 C-8.52952469 0.00630997 -4.38264354 -0.05452092 0 0 Z " fill="#3B94C3" transform="translate(184.8125,81.9375)"/>
<path d="M0 0 C0.99 0.33 1.98 0.66 3 1 C-0.465 3.97 -0.465 3.97 -4 7 C-4.66 6.67 -5.32 6.34 -6 6 C-4.02 4.02 -2.04 2.04 0 0 Z " fill="#248CC3" transform="translate(126,107)"/>
<path d="M0 0 C3.3 0 6.6 0 10 0 C10.33 0.99 10.66 1.98 11 3 C7.37 2.34 3.74 1.68 0 1 C0 0.67 0 0.34 0 0 Z " fill="#489ECB" transform="translate(197,103)"/>
<path d="M0 0 C0 0.66 0 1.32 0 2 C-2.97 2.66 -5.94 3.32 -9 4 C-9 3.34 -9 2.68 -9 2 C-5.62902617 0.50178941 -3.79557881 0 0 0 Z " fill="#2F8FC1" transform="translate(167,85)"/>
</svg>
