<svg xmlns="http://www.w3.org/2000/svg" viewBox="0 0 167.19499 38.31506"><path d="M155.394 9.835v28.48h11.8V3.59s0-3.592-3.59-3.592H132.9v38.314h12.4V9.834zM127.514 0h-12.4v38.314h12.4zM97.58 38.314s1.71 0 2.395-1.453L113.83 0h-12.485L91.17 28.822V.685A.677.677 0 0 0 90.482 0H79.877c-.428 0-.684.342-.684 1.368v36.946zM61.49 28.822H51.484v-5.475h9.92zM74.062 5.046a4.964 4.964 0 0 0-4.96-4.96L39.255 0v8.895h22.15v5.9l-17.532-.17a4.965 4.965 0 0 0-4.96 4.96v13.77a4.964 4.964 0 0 0 4.96 4.96h30.19zM.512 28.736H21.81v-5.39H4.96A4.963 4.963 0 0 1 0 18.387V4.962A4.963 4.963 0 0 1 4.96 0h28.137v8.896H12.144v5.73h16.59a4.964 4.964 0 0 1 4.96 4.96v13.768a4.963 4.963 0 0 1-4.96 4.96H.515z" clip-rule="evenodd" fill="#255398" fill-rule="evenodd"/></svg>
