<?xml version="1.0" encoding="UTF-8" standalone="no"?>
<svg
   xmlns:dc="http://purl.org/dc/elements/1.1/"
   xmlns:cc="http://creativecommons.org/ns#"
   xmlns:rdf="http://www.w3.org/1999/02/22-rdf-syntax-ns#"
   xmlns:svg="http://www.w3.org/2000/svg"
   xmlns="http://www.w3.org/2000/svg"
   version="1.1"
   id="svg2"
   xml:space="preserve"
   viewBox="0 0 61.18425 60.719468"><metadata
     id="metadata8"><rdf:RDF><cc:Work
         rdf:about=""><dc:format>image/svg+xml</dc:format><dc:type
           rdf:resource="http://purl.org/dc/dcmitype/StillImage" /><dc:title></dc:title></cc:Work></rdf:RDF></metadata><defs
     id="defs6" /><text
     y="167.21609"
     x="-420.6568"
     id="text156"
     style="font-variant:normal;font-weight:normal;font-stretch:normal;font-size:12px;font-family:'Source Sans Pro';-inkscape-font-specification:SourceSansPro-Regular;writing-mode:lr-tb;fill:#ffffff;fill-opacity:1;fill-rule:nonzero;stroke:none;stroke-width:1.33333325"><tspan
       style="stroke-width:1.33333325"
       id="tspan154"
       y="167.21609"
       x="-420.6568 -414.24881 -407.39679 -399.57278 -393.74078 -387.41681 -384.2608 -378.33279 -372.00879 -364.24481 -357.18881 -350.84079 -343.1008 -336.77679 -329.94879 -327.5488 -320.75677 -313.9288 -305.96078 -298.58078 -290.84079 -284.2048 -278.22879 -271.8208 -269.42078 -262.4368 -256.25681">SCHLEIFENBAUER PRODUCTS BV </tspan></text>
<text
     y="167.21609"
     x="-253.87094"
     id="text160"
     style="font-variant:normal;font-weight:300;font-stretch:normal;font-size:9.33333302px;font-family:'GSGEOZ +HelveticaNeue-Light';-inkscape-font-specification:HelveticaNeue-Light;writing-mode:lr-tb;fill:#ffffff;fill-opacity:1;fill-rule:nonzero;stroke:none;stroke-width:1.33333325"><tspan
       style="stroke-width:1.33333325"
       id="tspan158"
       y="167.21609"
       x="-253.87094 -249.20427">• </tspan></text>
<text
     y="167.21609"
     x="-246.60934"
     id="text164"
     style="font-variant:normal;font-weight:normal;font-stretch:normal;font-size:12px;font-family:'Source Sans Pro';-inkscape-font-specification:SourceSansPro-Regular;writing-mode:lr-tb;fill:#ffffff;fill-opacity:1;fill-rule:nonzero;stroke:none;stroke-width:1.33333325"><tspan
       style="stroke-width:1.33333325"
       id="tspan162"
       y="167.21609"
       x="-246.60934 -237.99333 -229.37733 -221.24133 -218.25334 -213.22534 -207.75334 -201.22534 -198.16534 -192.21335 -189.26134 -185.87733 -179.92534 -173.36133 -166.89334 -160.84534 -154.31732 -148.36536 -144.87335 -142.01733 -136.06534 -129.53735">www.schleifenbauer.eu </tspan></text>
<text
     y="167.21609"
     x="-127.16399"
     id="text168"
     style="font-variant:normal;font-weight:300;font-stretch:normal;font-size:9.33333302px;font-family:'GSGEOZ +HelveticaNeue-Light';-inkscape-font-specification:HelveticaNeue-Light;writing-mode:lr-tb;fill:#ffffff;fill-opacity:1;fill-rule:nonzero;stroke:none;stroke-width:1.33333325"><tspan
       style="stroke-width:1.33333325"
       id="tspan166"
       y="167.21609"
       x="-127.16399 -122.49734">• </tspan></text>
<text
     y="167.21609"
     x="-119.90228"
     id="text172"
     style="font-variant:normal;font-weight:normal;font-stretch:normal;font-size:12px;font-family:'Source Sans Pro';-inkscape-font-specification:SourceSansPro-Regular;writing-mode:lr-tb;fill:#ffffff;fill-opacity:1;fill-rule:nonzero;stroke:none;stroke-width:1.33333325"><tspan
       style="stroke-width:1.33333325"
       id="tspan170"
       y="167.21609"
       x="-119.90228 -116.95025 -110.38625 -106.99026 -100.48626 -90.322258 -85.294273 -79.822258 -73.294273 -70.234276 -64.282249 -61.330257 -57.934261 -51.982265 -45.41827 -38.950253 -32.902279 -26.374264 -20.422268 -16.942257 -14.074276 -8.1222801 -1.5942646">info@schleifenbauer.eu </tspan></text>
<g
     transform="matrix(1.3333333,0,0,-1.3333333,20.898797,59.171566)"
     id="g696"
     style="image-rendering:auto"><path
       id="path698"
       style="fill:#4cb7dd;fill-opacity:1;fill-rule:nonzero;stroke:none"
       d="m 0,0 c 7.354,3.475 10.911,9.471 13.331,16.412 1.016,2.913 2.272,5.744 3.435,8.606 1.061,2.611 3.114,3.721 5.835,3.872 2.311,0.129 3.276,1.053 3.227,2.955 -0.048,1.831 -1.12,2.609 -3.483,2.673 -4.574,0.124 -8.019,-1.903 -10.037,-5.86 C 10.393,24.901 9.071,20.845 7.287,17.015 6.018,14.292 4.654,11.55 2.897,9.134 0.745,6.175 -2.434,4.597 -6.154,4.649 c -1.06,0.015 -2.41,0.543 -3.116,1.307 -5.883,6.365 -7.85,13.838 -5.329,22.163 2.574,8.499 8.468,13.705 17.092,15.702 3.775,0.874 7.583,0.732 11.528,-0.506 -0.27,-0.301 -0.392,-0.538 -0.585,-0.638 C 7.721,39.739 4.349,34.856 2.086,29.046 0.794,25.728 -0.518,22.417 -1.797,19.095 c -1.186,-3.08 -3.297,-4.773 -6.705,-4.807 -1.875,-0.019 -2.858,-1.173 -2.761,-2.973 0.097,-1.801 1.11,-2.563 2.887,-2.641 4.601,-0.199 8.261,1.542 10.378,5.606 1.885,3.618 3.179,7.538 4.906,11.246 1.327,2.848 2.669,5.749 4.458,8.309 2.234,3.194 5.594,4.808 9.547,4.735 0.947,-0.017 2.143,-0.495 2.78,-1.177 6.045,-6.458 7.998,-14.059 5.394,-22.512 C 26.523,6.559 20.691,1.413 12.249,-0.586 8.356,-1.508 4.389,-1.327 0,0" /></g></svg>
