<svg viewBox="0 0 447 447" version="1.0" xmlns="http://www.w3.org/2000/svg" xmlns:xlink="http://www.w3.org/1999/xlink"><defs><filter id="filter961-8-4-8" x="-.515" y="-.448" width="2.03" height="1.9" color-interpolation-filters="sRGB"><feGaussianBlur stdDeviation="7.0875137"/></filter><filter id="filter961-8-4-6-1" x="-.515" y="-.448" width="2.03" height="1.9" color-interpolation-filters="sRGB"><feGaussianBlur stdDeviation="7.0875137"/></filter><filter id="filter961-8-4-5-4" x="-.515" y="-.448" width="2.03" height="1.9" color-interpolation-filters="sRGB"><feGaussianBlur stdDeviation="7.0875137"/></filter><filter id="filter961-8-4-7-3" x="-.515" y="-.448" width="2.03" height="1.9" color-interpolation-filters="sRGB"><feGaussianBlur stdDeviation="7.0875137"/></filter><filter id="filter961-26-6-7" x="-.515" y="-.448" width="2.03" height="1.9" color-interpolation-filters="sRGB"><feGaussianBlur stdDeviation="7.0875137"/></filter><filter id="filter961-26-3-2" x="-.515" y="-.448" width="2.03" height="1.9" color-interpolation-filters="sRGB"><feGaussianBlur stdDeviation="7.0875137"/></filter><filter id="filter961-26-4-0" x="-.515" y="-.448" width="2.03" height="1.9" color-interpolation-filters="sRGB"><feGaussianBlur stdDeviation="7.0875137"/></filter><filter id="filter961-26-46-1" x="-.515" y="-.448" width="2.03" height="1.9" color-interpolation-filters="sRGB"><feGaussianBlur stdDeviation="7.0875137"/></filter><filter id="filter961-8-4-0-7" x="-.515" y="-.448" width="2.03" height="1.9" color-interpolation-filters="sRGB"><feGaussianBlur stdDeviation="7.0875137"/></filter><filter id="filter4127" x="-.0347" y="-.014" width="1.07" height="1.03" color-interpolation-filters="sRGB"><feGaussianBlur stdDeviation="1.9431827"/></filter><filter id="filter961-7-76-87-3" x="-.515" y="-.448" width="2.03" height="1.9" color-interpolation-filters="sRGB"><feGaussianBlur stdDeviation="7.0875137"/></filter><filter id="filter961-7-76-13-1" x="-.515" y="-.448" width="2.03" height="1.9" color-interpolation-filters="sRGB"><feGaussianBlur stdDeviation="7.0875137"/></filter><filter id="filter961-7-76-9-5" x="-.515" y="-.448" width="2.03" height="1.9" color-interpolation-filters="sRGB"><feGaussianBlur stdDeviation="7.0875137"/></filter><filter id="filter961-7-76-3-7" x="-.515" y="-.448" width="2.03" height="1.9" color-interpolation-filters="sRGB"><feGaussianBlur stdDeviation="7.0875137"/></filter><filter id="filter961-7-76-18-0" x="-.515" y="-.448" width="2.03" height="1.9" color-interpolation-filters="sRGB"><feGaussianBlur stdDeviation="7.0875137"/></filter><filter id="filter961-7-76-1-2" x="-.515" y="-.448" width="2.03" height="1.9" color-interpolation-filters="sRGB"><feGaussianBlur stdDeviation="7.0875137"/></filter><radialGradient id="radialGradient8900" cx="278" cy="494" r="60" gradientTransform="matrix(.865 .694 -.68 .847 273 179)" gradientUnits="userSpaceOnUse"><stop stop-color="#fff" stop-opacity="0" offset="0"/><stop stop-opacity=".5" offset="1"/></radialGradient><radialGradient id="radialGradient8908" cx="278" cy="494" r="60" gradientTransform="matrix(.865 .694 -.68 .847 481 192)" gradientUnits="userSpaceOnUse"><stop stop-color="#fff" stop-opacity="0" offset="0"/><stop stop-opacity=".5" offset="1"/></radialGradient><radialGradient id="radialGradient8918" cx="278" cy="494" r="60" gradientTransform="matrix(.865 .694 -.68 .847 686 194)" gradientUnits="userSpaceOnUse"><stop stop-color="#fff" stop-opacity="0" offset="0"/><stop stop-opacity=".5" offset="1"/></radialGradient></defs><g transform="translate(-332 -132)"><g transform="translate(2.55e-5 -54.5)"><g transform="matrix(1.03 0 0 1.03 -8.99 -5.17)"><g transform="matrix(-.143 .248 -.248 -.143 675 371)"><g transform="translate(29.2 -561)"><circle cx="207" cy="790" r="63.5" fill="#ed1d1d"/><circle cx="207" cy="790" r="63.5" fill="url(#radialGradient8900)"/><ellipse transform="matrix(.816 0 0 .765 39.8 247)" cx="166" cy="717" rx="16.5" ry="19" fill="#fff" filter="url(#filter961-8-4-8)" opacity=".8"/></g><g transform="translate(29.2 -412)"><circle cx="207" cy="790" r="63.5" fill="#ed1d1d"/><circle cx="207" cy="790" r="63.5" fill="url(#radialGradient8900)"/><ellipse transform="matrix(.816 0 0 .765 39.8 247)" cx="166" cy="717" rx="16.5" ry="19" fill="#fff" filter="url(#filter961-8-4-6-1)" opacity=".8"/></g><g transform="translate(181 -561)"><circle cx="207" cy="790" r="63.5" fill="#ed1d1d"/><circle cx="207" cy="790" r="63.5" fill="url(#radialGradient8900)"/><ellipse transform="matrix(.816 0 0 .765 39.8 247)" cx="166" cy="717" rx="16.5" ry="19" fill="#fff" filter="url(#filter961-8-4-5-4)" opacity=".8"/></g><g transform="translate(187 -409)"><circle cx="207" cy="790" r="63.5" fill="#ed1d1d"/><circle cx="207" cy="790" r="63.5" fill="url(#radialGradient8900)"/><ellipse transform="matrix(.816 0 0 .765 39.8 247)" cx="166" cy="717" rx="16.5" ry="19" fill="#fff" filter="url(#filter961-8-4-7-3)" opacity=".8"/></g><g transform="translate(-205 -495)"><circle cx="415" cy="803" r="63.5" fill="#e4e4e4"/><circle cx="415" cy="803" r="63.5" fill="url(#radialGradient8908)"/><ellipse transform="matrix(.816 0 0 .765 248 261)" cx="166" cy="717" rx="16.5" ry="19" fill="#fff" filter="url(#filter961-26-6-7)" opacity=".8"/></g><g transform="translate(5.73 -494)"><circle cx="415" cy="803" r="63.5" fill="#e4e4e4"/><circle cx="415" cy="803" r="63.5" fill="url(#radialGradient8908)"/><ellipse transform="matrix(.816 0 0 .765 248 261)" cx="166" cy="717" rx="16.5" ry="19" fill="#fff" filter="url(#filter961-26-3-2)" opacity=".8"/></g><g transform="translate(-98.3 -393)"><circle cx="415" cy="803" r="63.5" fill="#e4e4e4"/><circle cx="415" cy="803" r="63.5" fill="url(#radialGradient8908)"/><ellipse transform="matrix(.816 0 0 .765 248 261)" cx="166" cy="717" rx="16.5" ry="19" fill="#fff" filter="url(#filter961-26-4-0)" opacity=".8"/></g><g transform="translate(-103 -596)"><circle cx="415" cy="803" r="63.5" fill="#e4e4e4"/><circle cx="415" cy="803" r="63.5" fill="url(#radialGradient8908)"/><ellipse transform="matrix(.816 0 0 .765 248 261)" cx="166" cy="717" rx="16.5" ry="19" fill="#fff" filter="url(#filter961-26-46-1)" opacity=".8"/></g><g transform="translate(105 -485)"><circle cx="207" cy="790" r="63.5" fill="#ed1d1d"/><circle cx="207" cy="790" r="63.5" fill="url(#radialGradient8900)"/><ellipse transform="matrix(.816 0 0 .765 39.8 247)" cx="166" cy="717" rx="16.5" ry="19" fill="#fff" filter="url(#filter961-8-4-0-7)" opacity=".8"/></g></g><g transform="rotate(60 553 411)" fill="#1414b8" stroke="#1414b8"><path transform="scale(1.07)" d="m585 338c-1.74 25.1-16.2 88-39.5 142-21.9 50.8-52 92.5-77.3 89-41.6-5.84-38.9-122-8.88-221 21.7-71.3 56.3-140 93.6-148 23.5-5.32 32.8 32.8 32.8 32.8s-3.18 0.884-3.18 0.884-7.74-36-31.2-30.3c-33.9 8.26-68.8 78.8-89.5 146-29 93.7-33.8 212 6.94 218 24.5 3.37 54.3-36.9 76.2-87.6 23.2-53.9 38.3-117 40-142" filter="url(#filter4127)" stroke-width="1px"/><path d="m624 361c-1.85 26.7-17.3 93.9-42.1 151-23.3 54.1-55.5 98.7-82.4 95-44.4-6.22-41.5-130-9.47-235 23.1-76 60.1-149 99.8-158 25.1-5.68 34.9 34.9 34.9 34.9s-3.39 0.943-3.39 0.943-8.25-38.4-33.2-32.3c-36.2 8.81-73.4 84.1-95.5 155-30.9 99.9-36.1 227 7.4 233 26.1 3.59 57.9-39.3 81.3-93.5 24.8-57.5 40.8-124 42.7-151" stroke-width="1.07px"/></g><g transform="matrix(.151 0 0 .151 639 264)"><circle cx="620" cy="805" r="63.5" fill="#1d28ed"/><circle cx="620" cy="805" r="63.5" fill="url(#radialGradient8918)"/><ellipse transform="matrix(.816 0 0 .765 453 266)" cx="166" cy="717" rx="16.5" ry="19" fill="#fff" filter="url(#filter961-7-76-1-2)" opacity=".8"/></g><g transform="rotate(30 557 415)" fill="#1414b8" stroke="#1414b8"><path transform="scale(1.07)" d="m585 338c-1.74 25.1-16.2 88-39.5 142-21.9 50.8-52 92.5-77.3 89-41.6-5.84-38.9-122-8.88-221 21.7-71.3 56.3-140 93.6-148 23.5-5.32 32.8 32.8 32.8 32.8s-3.18 0.884-3.18 0.884-7.74-36-31.2-30.3c-33.9 8.26-68.8 78.8-89.5 146-29 93.7-33.8 212 6.94 218 24.5 3.37 54.3-36.9 76.2-87.6 23.2-53.9 38.3-117 40-142" filter="url(#filter4127)" stroke-width="1px"/><path d="m624 361c-1.85 26.7-17.3 93.9-42.1 151-23.3 54.1-55.5 98.7-82.4 95-44.4-6.22-41.5-130-9.47-235 23.1-76 60.1-149 99.8-158 25.1-5.68 34.9 34.9 34.9 34.9s-3.39 0.943-3.39 0.943-8.25-38.4-33.2-32.3c-36.2 8.81-73.4 84.1-95.5 155-30.9 99.9-36.1 227 7.4 233 26.1 3.59 57.9-39.3 81.3-93.5 24.8-57.5 40.8-124 42.7-151" stroke-width="1.07px"/></g><g transform="matrix(.151 0 0 .151 603 175)"><circle cx="620" cy="805" r="63.5" fill="#1d28ed"/><circle cx="620" cy="805" r="63.5" fill="url(#radialGradient8918)"/><ellipse transform="matrix(.816 0 0 .765 453 266)" cx="166" cy="717" rx="16.5" ry="19" fill="#fff" filter="url(#filter961-7-76-18-0)" opacity=".8"/></g><g transform="translate(3.99 -5.17)" fill="#1414b8" stroke="#1414b8"><path transform="scale(1.07)" d="m585 338c-1.74 25.1-16.2 88-39.5 142-21.9 50.8-52 92.5-77.3 89-41.6-5.84-38.9-122-8.88-221 21.7-71.3 56.3-140 93.6-148 23.5-5.32 32.8 32.8 32.8 32.8s-3.18 0.884-3.18 0.884-7.74-36-31.2-30.3c-33.9 8.26-68.8 78.8-89.5 146-29 93.7-33.8 212 6.94 218 24.5 3.37 54.3-36.9 76.2-87.6 23.2-53.9 38.3-117 40-142" filter="url(#filter4127)" stroke-width="1px"/><path d="m624 361c-1.85 26.7-17.3 93.9-42.1 151-23.3 54.1-55.5 98.7-82.4 95-44.4-6.22-41.5-130-9.47-235 23.1-76 60.1-149 99.8-158 25.1-5.68 34.9 34.9 34.9 34.9s-3.39 0.943-3.39 0.943-8.25-38.4-33.2-32.3c-36.2 8.81-73.4 84.1-95.5 155-30.9 99.9-36.1 227 7.4 233 26.1 3.59 57.9-39.3 81.3-93.5 24.8-57.5 40.8-124 42.7-151" stroke-width="1.07px"/></g><g transform="matrix(.151 0 0 .151 529 116)"><circle cx="620" cy="805" r="63.5" fill="#1d28ed"/><circle cx="620" cy="805" r="63.5" fill="url(#radialGradient8918)"/><ellipse transform="matrix(.816 0 0 .765 453 266)" cx="166" cy="717" rx="16.5" ry="19" fill="#fff" filter="url(#filter961-7-76-3-7)" opacity=".8"/></g><g transform="rotate(-30 538 400)" fill="#1414b8" stroke="#1414b8"><path transform="scale(1.07)" d="m585 338c-1.74 25.1-16.2 88-39.5 142-21.9 50.8-52 92.5-77.3 89-41.6-5.84-38.9-122-8.88-221 21.7-71.3 56.3-140 93.6-148 23.5-5.32 32.8 32.8 32.8 32.8s-3.18 0.884-3.18 0.884-7.74-36-31.2-30.3c-33.9 8.26-68.8 78.8-89.5 146-29 93.7-33.8 212 6.94 218 24.5 3.37 54.3-36.9 76.2-87.6 23.2-53.9 38.3-117 40-142" filter="url(#filter4127)" stroke-width="1px"/><path d="m624 361c-1.85 26.7-17.3 93.9-42.1 151-23.3 54.1-55.5 98.7-82.4 95-44.4-6.22-41.5-130-9.47-235 23.1-76 60.1-149 99.8-158 25.1-5.68 34.9 34.9 34.9 34.9s-3.39 0.943-3.39 0.943-8.25-38.4-33.2-32.3c-36.2 8.81-73.4 84.1-95.5 155-30.9 99.9-36.1 227 7.4 233 26.1 3.59 57.9-39.3 81.3-93.5 24.8-57.5 40.8-124 42.7-151" stroke-width="1.07px"/></g><g transform="matrix(.151 0 0 .151 438 103)"><circle cx="620" cy="805" r="63.5" fill="#1d28ed"/><circle cx="620" cy="805" r="63.5" fill="url(#radialGradient8918)"/><ellipse transform="matrix(.816 0 0 .765 453 266)" cx="166" cy="717" rx="16.5" ry="19" fill="#fff" filter="url(#filter961-7-76-9-5)" opacity=".8"/></g><g transform="rotate(-60 544 404)" fill="#1414b8" stroke="#1414b8"><path transform="scale(1.07)" d="m585 338c-1.74 25.1-16.2 88-39.5 142-21.9 50.8-52 92.5-77.3 89-41.6-5.84-38.9-122-8.88-221 21.7-71.3 56.3-140 93.6-148 23.5-5.32 32.8 32.8 32.8 32.8s-3.18 0.884-3.18 0.884-7.74-36-31.2-30.3c-33.9 8.26-68.8 78.8-89.5 146-29 93.7-33.8 212 6.94 218 24.5 3.37 54.3-36.9 76.2-87.6 23.2-53.9 38.3-117 40-142" filter="url(#filter4127)" stroke-width="1px"/><path d="m624 361c-1.85 26.7-17.3 93.9-42.1 151-23.3 54.1-55.5 98.7-82.4 95-44.4-6.22-41.5-130-9.47-235 23.1-76 60.1-149 99.8-158 25.1-5.68 34.9 34.9 34.9 34.9s-3.39 0.943-3.39 0.943-8.25-38.4-33.2-32.3c-36.2 8.81-73.4 84.1-95.5 155-30.9 99.9-36.1 227 7.4 233 26.1 3.59 57.9-39.3 81.3-93.5 24.8-57.5 40.8-124 42.7-151" stroke-width="1.07px"/></g><g transform="matrix(.151 0 0 .151 350 137)"><circle cx="620" cy="805" r="63.5" fill="#1d28ed"/><circle cx="620" cy="805" r="63.5" fill="url(#radialGradient8918)"/><ellipse transform="matrix(.816 0 0 .765 453 266)" cx="166" cy="717" rx="16.5" ry="19" fill="#fff" filter="url(#filter961-7-76-13-1)" opacity=".8"/></g><g transform="rotate(-90 547 405)" fill="#1414b8" stroke="#1414b8"><path transform="scale(1.07)" d="m585 338c-1.74 25.1-16.2 88-39.5 142-21.9 50.8-52 92.5-77.3 89-41.6-5.84-38.9-122-8.88-221 21.7-71.3 56.3-140 93.6-148 23.5-5.32 32.8 32.8 32.8 32.8s-3.18 0.884-3.18 0.884-7.74-36-31.2-30.3c-33.9 8.26-68.8 78.8-89.5 146-29 93.7-33.8 212 6.94 218 24.5 3.37 54.3-36.9 76.2-87.6 23.2-53.9 38.3-117 40-142" filter="url(#filter4127)" stroke-width="1px"/><path d="m624 361c-1.85 26.7-17.3 93.9-42.1 151-23.3 54.1-55.5 98.7-82.4 95-44.4-6.22-41.5-130-9.47-235 23.1-76 60.1-149 99.8-158 25.1-5.68 34.9 34.9 34.9 34.9s-3.39 0.943-3.39 0.943-8.25-38.4-33.2-32.3c-36.2 8.81-73.4 84.1-95.5 155-30.9 99.9-36.1 227 7.4 233 26.1 3.59 57.9-39.3 81.3-93.5 24.8-57.5 40.8-124 42.7-151" stroke-width="1.07px"/></g><g transform="matrix(.151 0 0 .151 292 209)"><circle cx="620" cy="805" r="63.5" fill="#1d28ed"/><circle cx="620" cy="805" r="63.5" fill="url(#radialGradient8918)"/><ellipse transform="matrix(.816 0 0 .765 453 266)" cx="166" cy="717" rx="16.5" ry="19" fill="#fff" filter="url(#filter961-7-76-87-3)" opacity=".8"/></g></g></g></g></svg>
