<svg id="Layer_1" data-name="Layer 1" xmlns="http://www.w3.org/2000/svg" viewBox="0 0 1000 1000"><defs><style>.cls-1{fill:#74c050;}.cls-2{fill:#979e96;}</style></defs><path class="cls-1" d="M401.65,225.84C409,221.46,416.44,217,423.78,214c3,7.33,7.33,14.79,10.29,22.13-16.21,8.87-32.54,16.21-47.34,26.63-41.42,25.09-79.76,54.67-112.31,91.6-25.09,29.59-45.8,65-50.3,105-1.42,23.67,3,48.76,17.75,67.93,13.26,16.21,34,28.05,54.68,31,23.67,4.38,48.76,1.42,70.89-4.38,45.8-11.84,87.23-34,127.11-57.64,23.67-14.79,47.34-29.59,66.51-50.3,7.34-8.87,13.26-19.17,13.26-31,0-8.88-5.92-17.76-13.26-20.72-7.33-4.37-17.75-5.91-26.63-4.37-11.83,2.95-23.67,8.87-35.5,14.79-34,17.75-63.55,41.42-97.52,59.06C380.7,474,358.57,484.44,334.9,484.44c-14.8,0-29.59-5.92-38.47-17.76-7.34-8.87-10.29-19.17-8.87-31a94.13,94.13,0,0,1,19.17-48.76c19.17-26.63,45.8-45.8,73.85-62,47.34-31,99.06-56.22,153.74-70.89,29.58-7.34,59-11.84,88.64-10.3,42.84,1.42,85.69,14.8,121.19,39.89,41.42,29.58,72.43,76.81,75.39,128.53,4.38,42.84-8.88,85.68-28,124.14C776.7,565.86,756,592.49,733.85,616a639.52,639.52,0,0,1-56.21,53.26c-25.09,22.13-53.26,41.42-81.31,59.06s-59.06,32.54-90.18,45.8a236.31,236.31,0,0,1-28,11.83c-5.92-26.63-14.79-53.25-20.71-79.76,25.09-11.84,50.3-22.14,75.39-35.51,28.05-14.79,54.68-34,79.77-53.26,22.13-17.75,42.84-35.5,62-56.21,32.55-34,59.06-78.35,65-125.57,1.42-17.76,1.42-34-3-51.72-10.3-35.51-35.51-66.51-69.48-84.27-28-14.79-60.59-20.71-91.6-17.75-45.8,3-88.64,20.71-128.53,41.42-19.17,10.3-36.92,20.71-54.67,32.55-17.76,10.3-34,22.13-47.34,38.46-5.92,7.34-10.3,16.22-10.3,25.09,0,5.92,4.38,13.26,10.3,14.8,10.29,4.38,22.13,0,32.54-4.38,48.76-23.67,90.18-60.6,141.9-78.35,25.09-8.88,54.68-10.3,79.77,0,20.71,8.88,36.93,28.05,41.42,50.3,1.42,13.25,1.42,26.63-3,38.46-7.34,19.18-19.18,35.51-34,50.3-17.75,17.75-38.46,32.55-59.06,45.8C515,552.61,487,571.9,456,585.15a578.52,578.52,0,0,1-84.27,29.59c-32.54,8.88-66.51,10.3-99.06,3s-59-25.09-73.85-50.3c-13.25-20.71-19.17-45.8-19.17-69.47,1.42-28.05,7.34-56.22,19.17-81.31,20.71-42.84,51.72-81.3,88.65-112.31a615.84,615.84,0,0,1,115.27-79.77Z"/><path class="cls-2" d="M741.55,429.76V403.13A77.33,77.33,0,0,1,741.55,429.76Z"/></svg>
