<?xml version="1.0" encoding="UTF-8" standalone="no"?>
<svg
   xmlns:dc="http://purl.org/dc/elements/1.1/"
   xmlns:cc="http://creativecommons.org/ns#"
   xmlns:rdf="http://www.w3.org/1999/02/22-rdf-syntax-ns#"
   xmlns:svg="http://www.w3.org/2000/svg"
   xmlns="http://www.w3.org/2000/svg"
   xml:space="preserve"
   width="32"
   height="32"
   style="clip-rule:evenodd;fill-rule:evenodd;image-rendering:optimizeQuality;shape-rendering:geometricPrecision;text-rendering:geometricPrecision"
   viewBox="0 0 8.4666662 8.4666659"
   version="1.1"
   id="svg22"><metadata
     id="metadata26"><rdf:RDF><cc:Work
         rdf:about=""><dc:format>image/svg+xml</dc:format><dc:type
           rdf:resource="http://purl.org/dc/dcmitype/StillImage" /><dc:title></dc:title></cc:Work></rdf:RDF></metadata><defs
     id="defs4"><style
       type="text/css"
       id="style2"><![CDATA[
    .fil0 {fill:#009999}
   ]]></style></defs><g
     id="Ebene_x0020_1"
     transform="matrix(0.04325837,0,0,0.12110359,-0.26950964,1.2561881)"><metadata
       id="CorelCorpID_0Corel-Layer" /><path
       class="fil0"
       d="m 200.121,10.3466 v 5.8289 c -3.0198,-1.14 -5.7084,-1.7164 -8.0615,-1.7164 -1.3938,0 -2.5037,0.2581 -3.3382,0.7571 -0.8346,0.5033 -1.2605,1.1228 -1.2605,1.8541 0,0.9722 0.9421,1.8368 2.8392,2.6112 l 5.4805,2.6671 c 4.4309,2.1122 6.6291,4.9169 6.6291,8.4401 0,2.9295 -1.1658,5.2654 -3.5189,6.9947 -2.3359,1.7466 -5.4805,2.6112 -9.3951,2.6112 -1.8068,0 -3.4285,-0.0774 -4.8696,-0.2409 -1.4411,-0.1548 -3.0973,-0.4732 -4.9342,-0.9292 v -6.0999 c 3.3683,1.14 6.4355,1.7164 9.1972,1.7164 3.2952,0 4.9342,-0.955 4.9342,-2.8822 0,-0.9593 -0.6711,-1.7336 -2.0347,-2.3402 l -6.0871,-2.594 c -2.2455,-1.0152 -3.9146,-2.2455 -5.0073,-3.7038 -1.0754,-1.4712 -1.6218,-3.1575 -1.6218,-5.0847 0,-2.6973 1.1357,-4.8697 3.3812,-6.5216 2.2628,-1.639 5.2655,-2.4606 8.9994,-2.4606 1.2131,0 2.6112,0.1075 4.1599,0.3054 1.5615,0.2108 3.0628,0.4689 4.5082,0.7873 z"
       id="path7"
       style="fill:#009999" /><path
       class="fil0"
       d="m 27.7222,10.3466 v 5.8289 c -3.0199,-1.14 -5.7042,-1.7164 -8.0573,-1.7164 -1.3981,0 -2.5036,0.2581 -3.3382,0.7571 -0.8345,0.5033 -1.2604,1.1228 -1.2604,1.8541 0,0.9722 0.955,1.8368 2.8521,2.6112 l 5.4805,2.6671 c 4.4136,2.1122 6.6162,4.9169 6.6162,8.4401 0,2.9295 -1.1701,5.2654 -3.506,6.9947 -2.3531,1.7466 -5.4805,2.6112 -9.408,2.6112 -1.8068,0 -3.4329,-0.0774 -4.874,-0.2409 C 10.786,39.9989 9.147,39.6805 7.2973,39.2245 v -6.0999 c 3.3812,1.14 6.4484,1.7164 9.1929,1.7164 3.2952,0 4.9342,-0.955 4.9342,-2.8822 0,-0.9593 -0.6668,-1.7336 -2.0176,-2.3402 l -6.087,-2.594 C 11.057,26.0094 9.3879,24.7791 8.3125,23.3208 7.2198,21.8496 6.6864,20.1633 6.6864,18.2361 c 0,-2.6973 1.1271,-4.8697 3.3855,-6.5216 2.2456,-1.639 5.2525,-2.4606 8.9865,-2.4606 1.226,0 2.6069,0.1075 4.1727,0.3054 1.5487,0.2108 3.05,0.4689 4.4911,0.7873 z"
       id="path9"
       style="fill:#009999" /><polygon
       class="fil0"
       points="42.9291,9.8002 42.9291,39.8483 34.0028,39.8483 34.0028,9.8002 "
       id="polygon11"
       style="fill:#009999" /><polygon
       class="fil0"
       points="71.9576,39.8483 49.8335,39.8483 49.8335,9.8002 71.6866,9.8002 71.6866,15.3539 58.4241,15.3539 58.4241,22.0173 69.9272,22.0173 69.9272,27.0246 58.4241,27.0246 58.4241,34.0194 71.9576,34.0194 "
       id="polygon13"
       style="fill:#009999" /><polygon
       class="fil0"
       points="76.8918,39.8483 76.8918,9.8002 87.7882,9.8002 95.226,28.1947 103.008,9.8002 113.358,9.8002 113.358,39.8483 105.025,39.8483 105.025,20.0299 96.3789,40.1236 91.234,40.1236 82.9186,20.0299 82.9186,39.8483 "
       id="polygon15"
       style="fill:#009999" /><polygon
       class="fil0"
       points="142.374,39.8483 120.25,39.8483 120.25,9.8002 142.103,9.8002 142.103,15.3539 128.913,15.3539 128.913,22.0173 140.416,22.0173 140.416,27.0246 128.913,27.0246 128.913,34.0194 142.374,34.0194 "
       id="polygon17"
       style="fill:#009999" /><polygon
       class="fil0"
       points="173.424,39.8483 163.956,39.8483 153.331,20.5762 153.331,39.8483 147.308,39.8483 147.308,9.8002 157.052,9.8002 167.402,28.7411 167.402,9.8002 173.424,9.8002 "
       id="polygon19"
       style="fill:#009999" /></g></svg>