<svg clip-rule="evenodd" fill-rule="evenodd" image-rendering="optimizeQuality" shape-rendering="geometricPrecision" text-rendering="geometricPrecision" viewBox="0 0 8.4666662 8.4666659" xmlns="http://www.w3.org/2000/svg"><g fill="#099"><path d="m8.4 2.5v.72c-.14-.14-.26-.2-.36-.2-.06 0-.1.02-.15.08-.04.06-.06.13-.06.22 0 .12.04.23.12.32l.24.32c.2.26.3.6.3 1.02 0 .36-.06.64-.17.85-.1.2-.23.32-.4.32-.08 0-.15 0-.2-.03-.08-.02-.15-.06-.23-.1v-.75c.15.14.28.2.4.2.14 0 .2-.1.2-.34 0-.12 0-.2-.07-.3l-.27-.3c-.1-.12-.17-.27-.2-.45-.06-.18-.08-.38-.08-.62 0-.32.05-.6.14-.8.1-.18.23-.28.4-.28.04 0 .1 0 .17.03l.2.1z"/><path d="m.93 2.5v.72c-.13-.14-.25-.2-.35-.2-.06 0-.1.02-.14.08s-.06.13-.06.22c0 .12.04.23.13.32l.24.32c.2.26.3.6.3 1.02 0 .36-.06.64-.16.85-.1.2-.24.32-.4.32-.1 0-.16 0-.22-.03l-.2-.1v-.75c.13.14.27.2.38.2.15 0 .22-.1.22-.34 0-.12-.03-.2-.1-.3l-.25-.3c-.12-.13-.17-.27-.22-.45-.07-.18-.1-.38-.1-.62 0-.32.05-.6.15-.8.1-.18.22-.28.38-.28.06 0 .12 0 .2.03.05.04.12.07.18.1z"/><path d="m1.6 2.44v3.64h-.4v-3.64z"/><path d="m2.84 6.08h-.94v-3.64h.93v.68h-.57v.8h.5v.6h-.5v.86h.58z"/><path d="m3.06 6.08v-3.64h.47l.32 2.23.34-2.23h.43v3.64h-.36v-2.4l-.36 2.44h-.22l-.36-2.44v2.4z"/><path d="m5.9 6.08h-.97v-3.64h.95v.68h-.58v.8h.5v.6h-.5v.86h.6z"/><path d="m7.23 6.08h-.4l-.47-2.33v2.33h-.26v-3.64h.42l.45 2.3v-2.3h.26z"/></g></svg>