<svg xmlns="http://www.w3.org/2000/svg" viewBox="0 0 4.41 4.40" xmlns:v="https://vecta.io/nano"><path d="M1.924 4.392C1.171 4.288.519 3.812.207 3.137c-.09-.194-.101-.186.131-.097.978.376 1.929.842 2.478 1.215l.063.043-.055.019c-.144.05-.33.077-.567.082-.133.003-.283 0-.333-.007zm1.369-.499C2.588 3.566 1.365 3.121.374 2.83l-.308-.09-.021-.092c-.055-.243-.06-.549-.014-.823C.14 1.188.539.618 1.108.288A2.23 2.23 0 0 1 3.182.227a2.04 2.04 0 0 1 .572.42 2.1 2.1 0 0 1 .647 1.464l.009.208-.162-.035-1.345-.225c-.093-.012-.02.017.261.106l1.173.395.038.015-.026.12c-.037.169-.135.44-.177.488-.002.002-.098-.031-.215-.073-.889-.32-2.167-.697-3.185-.938l-.475-.103c-.009.009.465.218.808.357l.89.342 1.879.762.065.033-.09.099c-.139.155-.328.32-.361.317-.007-.001-.095-.04-.196-.087z" fill="#32ae49"/></svg>
