<svg viewBox="0 0 2.467 2.467" xmlns="http://www.w3.org/2000/svg"><g fill-rule="evenodd" clip-rule="evenodd"><path d="M.652.955H.548a.218.218 0 0 0-.22-.183C.261.772.2.793.2.868c0 .14.488.028.488.346 0 .178-.156.239-.312.239a.411.411 0 0 1-.244-.07l-.03.06H.008V1.15h.105c.015.117.112.198.246.198.058 0 .13-.032.13-.095 0-.16-.489-.031-.489-.35C0 .718.169.668.323.668c.078 0 .151.025.216.064L.558.681h.094v.274Zm.456-.277.131.464h.003l.135-.464h.41v.1h-.063c-.028 0-.045.018-.045.046v.464c0 .028.017.045.045.045h.063v.1H1.37c.001-.07-.024-.1.049-.1.028 0 .043-.017.043-.045v-.48h-.001l-.18.625h-.17L.934.796H.93v.492c0 .028.017.045.045.045h.05v.1H.691v-.1H.76c.028 0 .045-.017.045-.045V.824C.805.796.788.779.76.779H.692v-.1z" fill="#1e5585"/><path d="M2.365.68h.102v.305h-.105c0-.115-.064-.213-.191-.213-.125 0-.192.09-.192.289 0 .176.044.289.2.289.12 0 .183-.097.183-.201h.105c-.004.206-.126.305-.335.305-.233 0-.398-.133-.398-.393 0-.237.165-.392.383-.392.057 0 .176.027.225.075z" fill="#1e5585"/><path d="M.001 1.534h2.462v-.02H.001zm.029.263v-.192h.032l.073.096c.017.022.031.043.042.062a.746.746 0 0 1-.003-.078v-.08h.028v.192h-.03l-.073-.098a.503.503 0 0 1-.042-.065l-.002.002c.002.023.002.046.002.078v.083zm.398-.084c.002-.017.015-.04.046-.04.034 0 .041.024.041.04zm.116.02v-.014c0-.024-.014-.064-.067-.064-.05 0-.079.032-.079.075 0 .04.031.07.081.07a.156.156 0 0 0 .056-.01L.53 1.772a.131.131 0 0 1-.047.008c-.03 0-.055-.014-.055-.048zm.232-.108v.034h.042v.02H.776v.073c0 .016.005.027.022.027.007 0 .012-.002.018-.003v.02a.075.075 0 0 1-.026.003c-.014 0-.026-.004-.032-.01-.01-.008-.012-.02-.012-.036v-.075H.72v-.02h.026v-.025zm.247.034.022.07.013.043h.001c.003-.014.01-.028.014-.044l.027-.07h.026l.025.07.015.044.013-.045.024-.068h.03l-.054.138h-.027l-.025-.066a.31.31 0 0 1-.015-.045l-.016.045-.027.066h-.027l-.05-.138zm.463.12c-.03 0-.05-.021-.05-.052 0-.026.015-.053.05-.053.036 0 .05.03.05.053 0 .031-.022.053-.05.053zm0 .02c.038 0 .08-.022.08-.073 0-.041-.032-.071-.08-.071-.044 0-.08.027-.08.073 0 .044.034.071.078.071zm.277-.098L1.76 1.66h.026l.001.027h.002a.049.049 0 0 1 .046-.031l.008.001v.023h-.01a.04.04 0 0 0-.04.031c-.002.004-.002.008-.002.013v.074h-.03zm.3.02h.001a.162.162 0 0 1 .014-.016l.05-.046h.035l-.064.056.073.082h-.037l-.057-.067-.015.014v.053h-.03v-.203h.03zm.283.05a.108.108 0 0 0 .04.009c.022 0 .032-.01.032-.02 0-.012-.009-.019-.03-.025-.03-.01-.044-.023-.044-.039 0-.023.021-.041.056-.041.017 0 .032.004.041.009l-.007.018a.067.067 0 0 0-.034-.008c-.018 0-.028.008-.028.018 0 .012.01.017.032.025.028.007.043.02.043.041 0 .024-.022.041-.062.041a.12.12 0 0 1-.047-.009z"/></g></svg>
