<svg viewBox="0 0 128 31.130553" xmlns="http://www.w3.org/2000/svg"><path d="m.948 25.6.158-.157c1.896 0 3.792 0 5.69.158h5.371c2.054 0 3.476-.316 4.266-.79s1.106-1.422 1.106-2.844c0-.474 0-.948-.158-1.264-.158-.474-.316-.79-.474-1.106-.316-.316-.632-.632-1.106-.79s-1.106-.316-2.054-.474l-6.321-.632c-1.264-.158-2.37-.474-3.318-.948s-1.738-1.106-2.212-1.738c-.632-.632-.948-1.422-1.264-2.37-.474-.79-.632-1.738-.632-2.685v-.951c0-2.529.79-4.583 2.528-6.007 1.738-1.422 4.424-2.212 8.218-2.212h5.371c1.738 0 3.792 0 6.006.158.158 0 .158 0 .158.158l-.948 4.582-.158.158c-1.422 0-2.686 0-3.792-.158h-7.11c-1.737 0-3.001.316-3.791.79s-1.106 1.264-1.106 2.528c0 .474 0 .948.158 1.264l.474.948c.316.316.632.474 1.106.79.474.158 1.264.316 2.053.474l6.164.631c1.58.158 2.844.474 3.95 1.106.948.474 1.738 1.264 2.37 2.054.474.79.948 1.58 1.106 2.528s.316 1.738.316 2.528v.79c0 2.686-.948 4.74-2.686 6.322-1.738 1.422-4.582 2.212-8.376 2.212h-5.531c-2.054 0-6.164-.158-6.164-.158-.158 0-.158 0-.158-.158l.79-4.736m68.59 5.372c0 .158 0 .158-.158.158-1.58 0-3.16-.316-4.423-.632-1.58-.474-3.002-1.264-3.95-2.212-1.106-1.106-1.738-2.528-2.212-4.266s-.79-4.108-.79-6.796v-3.16c0-2.686.316-5.056.79-6.795.474-1.74 1.264-3.318 2.212-4.266 1.106-1.106 2.37-1.896 3.95-2.212 1.263-.316 2.686-.474 4.423-.632.158 0 .158 0 .158.158v4.582c0 .158 0 .158-.158.158a7 7 0 0 0 -2.053.316c-.948.158-1.58.632-2.212 1.264a6 6 0 0 0 -1.106 2.686 37.346 37.346 0 0 0 -.316 4.74v3.16c0 2.053.158 3.633.316 4.74.158 1.263.474 2.053 1.106 2.685.474.632 1.264 1.106 2.212 1.264.632.158 1.263.158 2.053.316.158 0 .158 0 .158.158zm2.835.157c-.158 0-.158 0-.158-.157v-4.583c0-.158 0-.158.158-.158.79 0 1.58-.158 2.054-.316.948-.158 1.58-.632 2.212-1.264a6 6 0 0 0 1.105-2.686c.158-1.264.316-2.844.316-4.74v-3.16c0-2.054-.158-3.634-.316-4.74-.157-1.264-.473-2.054-1.105-2.685-.474-.632-1.264-1.106-2.212-1.264-.632-.158-1.264-.158-2.054-.316-.158 0-.158 0-.158-.158v-4.745c0-.158 0-.158.158-.158 1.58.158 3.16.316 4.424.632 1.58.474 3.001 1.264 3.95 2.212 1.105 1.106 1.737 2.528 2.211 4.266s.79 4.108.79 6.795v3.16c0 2.686-.316 5.056-.79 6.796-.474 1.738-1.264 3.318-2.212 4.266-1.106 1.106-2.37 1.896-3.95 2.212-1.261.634-2.843.792-4.423.792m50.251-.791c-.158 0-.158 0-.158-.157v-19.441c0-.948 0-1.738-.158-2.528 0-.632-.316-1.264-.632-1.738s-.948-.79-1.58-1.106-1.895-.474-3.16-.474c-1.263 0-2.211.158-2.843.316s-1.264.474-1.58.948-.632.948-.79 1.58-.158 1.264-.158 2.054v20.226c0 .158 0 .158-.158.158h-5.214c-.158 0-.158 0-.158-.158v-19.278c0-.948 0-1.738-.158-2.528s-.316-1.264-.632-1.896c-.316-.474-.948-.79-1.58-1.106s-1.738-.316-3.002-.316-2.37.158-3.002.316c-.79.316-1.264.632-1.58 1.106s-.632 1.106-.632 1.896c-.632.79-.632 1.58-.632 2.528v19.44c0 .159 0 .159-.158.159h-5.371c-.158 0-.158 0-.158-.158v-20.543c0-3.476.948-6.006 2.844-7.428 1.895-1.422 4.581-2.212 8.216-2.212 1.896 0 3.476.316 5.056.948 1.422.632 2.528 1.422 3.318 2.37.79-.948 1.738-1.896 3.318-2.37 1.422-.632 3.16-.948 5.056-.948 3.633 0 6.48.79 8.375 2.212 1.739 1.422 2.687 3.95 2.687 7.428v20.543c0 .158 0 .158-.158.158h-5.218m-75.692-.001c-.158 0-.158 0-.158-.157v-19.441c0-.948 0-1.738-.158-2.528 0-.632-.316-1.264-.79-1.738s-1.106-.79-1.896-1.106c-.948-.316-2.054-.316-3.634-.316s-2.846.158-3.636.316c-.948.316-1.58.632-1.896 1.106-.474.474-.632 1.106-.79 1.896s-.158 1.58-.158 2.528v19.44c0 .159 0 .159-.158.159h-5.213c-.158 0-.158 0-.158-.158v-20.543c0-3.476.948-5.848 3.002-7.27 1.895-1.422 5.055-2.212 9.323-2.212 4.266 0 7.27.79 9.324 2.212 1.896 1.422 3.002 3.95 3.002 7.27v20.542c0 .158 0 .158-.158.158h-5.848z" fill="#575756"/></svg>