<svg viewBox="0 0 215.323 107.307" xmlns="http://www.w3.org/2000/svg"><path d="m171.208 106.492h8.207v-40.55h-8.207zm-159.235.73c-4.488 0-8.393-1.137-11.973-3.094l.807-4.476c4.405 1.06 7.093 1.548 9.696 1.548 5.867 0 8.224-2.525 8.224-5.375 0-3.175-1.387-4.72-7.812-7.165-7.902-2.935-10.757-6.02-10.757-11.645 0-6.995 5.54-11.805 14.012-11.805 3.417 0 6.678.65 10.422 2.608l-.977 4.477c-3.098-.89-5.548-1.22-7.822-1.22-4.636 0-6.918 2.197-6.918 5.055 0 2.842 1.627 4.395 8.062 6.673 7.655 2.762 10.668 6.267 10.668 12.047 0 7.157-5.775 12.373-15.633 12.373m38.552-35.818c-5.7 0-9.202 4.075-9.202 13.835 0 11.972 3.09 15.8 9.44 15.8 5.617 0 9.2-4.068 9.2-13.923 0-11.887-3.168-15.712-9.438-15.712m-.732 35.902c-10.513 0-17.103-5.457-17.103-20.28 0-14.895 7.33-21.897 18.808-21.897 10.422 0 17.105 5.452 17.105 20.11 0 14.987-7.42 22.067-18.81 22.067m43.445-6.549.893 4.845c-1.633.773-5.3 1.455-10.35 1.455-4.97 0-7.405-1.467-7.405-8.057v-33.355h8.385v30.092c0 4.743.73 5.35 2.935 5.463.82.04 5.542-.443 5.542-.443m29.517-13.238h-3.505c-9.447 0-11.802 3.092-11.802 7.332 0 3.905 2.182 6.347 6.262 6.347 2.85 0 6.03-1.467 9.045-4.067v-9.613zm1.785 18.972-.655-4.398c-3.575 3.1-7.405 5.213-12.535 5.213-7.977 0-12.21-4.075-12.21-11.238 0-8.302 6.433-13.847 20.675-13.847h2.94v-3.662c0-4.88-2.527-7.238-8.39-7.238-4.235 0-8.555 1.133-11.89 2.358l-1.222-5.125c4.23-1.878 9.445-3.345 15.387-3.345 10.183 0 14.42 4.89 14.42 12.295v28.987zm38.433-32.89c-1.545-.415-2.605-.573-3.42-.573-2.36 0-4.555 1.788-8.545 6.758v26.705h-8.39v-40.55h6.93l.727 6.842c4.39-5.7 7.16-7.575 10.093-7.575 1.06 0 2.28.248 3.582.898zm36.716 33.62c-4.473 0-8.388-1.137-11.96-3.094l.805-4.476c4.402 1.06 7.08 1.548 9.692 1.548 5.863 0 8.225-2.525 8.225-5.375 0-3.175-1.387-4.72-7.81-7.165-7.907-2.935-10.752-6.02-10.752-11.645 0-6.995 5.535-11.805 14.002-11.805 3.42 0 6.678.65 10.418 2.608l-.97 4.477c-3.098-.89-5.54-1.22-7.82-1.22-4.64 0-6.915 2.198-6.915 5.055 0 2.843 1.622 4.395 8.052 6.673 7.653 2.762 10.668 6.267 10.668 12.047 0 7.158-5.783 12.373-15.635 12.373" fill="#5c809b"/><path d="m167.323 22.846c.123-.67 1.745-4.7 1.745-4.7 2.01-4.528.733-7.773.733-7.773-1.185-4.397-4.588-7.835-4.588-7.835.165.123 1.2 2.875 1.2 2.875 2.385 6.588-4.01 10.368-4.01 10.368-1.647 1.087-4.338 3.68-4.338 3.68-3.772 3.687-2.632 8.207-2.632 8.207l.15.068a44.118 44.118 0 0 1 12.533 5.237c-2.538-4.937-.793-10.127-.793-10.127m13.117 21.353c-.42-5.43 3.055-9.503 3.055-9.503.357-.58 3.36-3.707 3.36-3.707 3.557-3.455 3.59-6.943 3.59-6.943.545-4.522-1.333-8.98-1.333-8.98.103.173.038 3.115.038 3.118-.243 6.997-7.585 8.122-7.585 8.122-1.94.398-5.405 1.8-5.405 1.8-4.518 1.87-5.385 5.973-5.483 6.56a44.865 44.865 0 0 1 9.763 9.533m26.28-8.997c.034.205-1.13 2.915-1.13 2.915-2.823 6.405-10.053 4.715-10.053 4.715-1.948-.345-5.685-.335-5.685-.333-5.275.06-7.573 4.113-7.573 4.113l.278.672a44.056 44.056 0 0 1 5.21 11.983c1.56-5.353 6.445-7.925 6.45-7.925.547-.393 4.495-2.198 4.495-2.198 4.585-1.882 5.907-5.102 5.907-5.102 2.18-4.003 2.1-8.84 2.1-8.84m-54.625-8.167c-4-3.647-4.293-8.955-4.293-8.955-.15-.665-.132-5-.128-5 .188-4.95-2.202-7.495-2.202-7.495-2.721-3.652-7.163-5.585-7.163-5.585.203.055 2.188 2.235 2.188 2.235 4.647 5.225.112 11.11.112 11.11-1.127 1.625-2.665 5.027-2.665 5.027-2.017 4.555.31 8.173.568 8.563a44.36 44.36 0 0 1 6.952-.47 43.47 43.47 0 0 1 6.63.57m-24.21-6.245c-.367-.564-1.982-4.59-1.982-4.59-1.663-4.667-4.823-6.14-4.823-6.14-3.897-2.37-8.73-2.517-8.73-2.517.208-.02 2.858 1.263 2.858 1.263 6.27 3.122 4.247 10.27 4.247 10.27-.44 1.925-.602 5.662-.602 5.662-.193 5.263 3.755 7.755 3.755 7.755l.187-.065a43.648 43.648 0 0 1 12.498-4.895c-5.133-1.875-7.408-6.742-7.408-6.742m-7.944 13.443c-5.438.14-9.333-3.52-9.333-3.52-.555-.387-3.535-3.535-3.535-3.535-3.272-3.72-6.765-3.915-6.765-3.915-4.49-.765-9.025.89-9.025.89.18-.093 3.112.113 3.118.113 6.975.585 7.737 7.97 7.737 7.97.3 1.955 1.537 5.485 1.537 5.485 1.773 4.962 6.356 5.815 6.356 5.815l.092-.078a44.784 44.784 0 0 1 9.817-9.225m-21.788 12.256c-.663-.152-4.6-1.97-4.6-1.97-4.415-2.257-7.728-1.147-7.728-1.147-4.455.948-8.065 4.17-8.065 4.17.135-.157 2.943-1.05 2.943-1.05 6.7-2.037 10.137 4.548 10.137 4.548.998 1.702 3.455 4.527 3.455 4.522 3.478 3.958 8.06 3.06 8.06 3.06l.115-.227a44.043 44.043 0 0 1 5.573-12.05c-4.973 2.092-9.89.145-9.89.145" fill="#ee7314"/></svg>