<svg viewBox="0 0 1000 235.173" xmlns="http://www.w3.org/2000/svg"><path d="m937.975 124.162c0-52.161-150.964-94.378-337.217-94.378-95.979 0-182.373 11.301-243.793 29.293 53.553-34.851 170.167-59.077 305.816-59.077 186.185 0 337.219 45.555 337.219 101.802 0 33.686-54.479 63.521-138.143 82.04 47.585-16.271 76.118-37.012 76.118-59.68" fill="#bd2d4f"/><path d="m76.699 117.557c-5.11-5.119-11.689-9.461-19.791-9.461-9.043 0-15.639 5.501-17.067 14.577-3.899 24.469 40.617 25.871 34.272 66.131-4.211 26.448-22.495 46.369-50.085 46.369-8.265 0-18.121-2.612-24.028-7.54l4.418-27.995c6.103 4.773 12.34 7.885 21.003 7.885 9.464 0 17.954-6.292 19.54-16.177 1.771-11.444-6.616-15.768-13.918-21.718-15.176-11.42-23.84-22.486-20.435-44.196 3.726-23.448 20.538-43.79 45.739-43.79 9.463 0 17.557 2.55 24.873 7.312zm45.17 40.859c2.085-13.248 9.202-49.559 28.671-49.559 19.533 0 15.209 36.311 13.092 49.559-1.871 11.835-9.202 49.523-28.741 49.523-19.485 0-14.913-37.688-13.022-49.523m32.992-76.774c-26.168 0-55.512 20.949-64.348 76.774-8.825 55.832 13.903 76.757 40.1 76.757 26.195 0 55.514-20.925 64.377-76.757 8.792-55.825-13.904-76.774-40.129-76.774zm95.606 2.335 22.428 89.811.502-.373c-.701-7.138-.053-14.811 1.166-22.503l10.565-66.935h29.389l-23.553 148.809h-27.751l-22.09-89.777-.425.397-.995 15.011-.769 6.112-10.815 68.257h-29.344l23.481-148.809zm114.116 0-23.541 148.808h-29.387l23.567-148.808zm90.528 28.053c-3.613-1.018-7.063-1.591-10.806-1.591-25.781 0-40.74 23.498-44.386 46.357-3.47 22.111 3.438 49.36 29.046 49.36 3.735 0 7.654-.985 11.575-2.177l-4.399 27.861c-4.625 1.749-9.25 2.519-14.005 2.519-42.345 0-59.75-38.274-53.542-77.318 5.84-36.909 36.216-74.797 76.238-74.797 5.099 0 9.848.986 14.55 2.767zm40.454-28.053 1.38 71.068c.122 10.476-1.163 21.125-1.829 31.564h.376c3.045-10.439 5.509-21.089 9.349-31.564l25.996-71.068h23.242l2.705 102.633h.389c2.634-10.439 4.46-20.697 7.912-31.177l22.877-71.456h30.779l-54.298 148.809h-25.436l-2.741-78.538c.478-9.079.113-18.136.156-27.216h-.347c-3.052 9.08-5.437 18.137-9.05 27.216l-29.379 78.538h-25.593l-6.412-148.809zm159.473 100.462h-20.658l12.583-39.623 6.66-22.53h.437l-.199 22.53zm-9.506-100.462-58.04 148.809h29.165l9.317-25.052h29.751l1.547 25.052h31.334l-12.136-148.809zm107.78 0-19.176 121.195h30.751l-4.375 27.613h-60.086l23.515-148.808zm73.476 0-19.123 121.195h30.736l-4.37 27.613h-60.136l23.543-148.808z" fill="#1e4164"/></svg>