<svg xmlns="http://www.w3.org/2000/svg" viewBox="0 0 28.326 21.881">
  <path d="M66.895 54.524c.017 3.84-.034 7.68.027 11.519.154 1.92 1.518 3.539 3.237 4.311q5.45 3.024 10.897 6.05c3.932-2.193 7.88-4.36 11.802-6.57 1.66-1.032 2.502-3.034 2.34-4.948V54.524zm18.426 13.03c-1.743 1.03-3.804.648-5.725.714l-7.684-.023c2.136-1.17 4.238-2.405 6.396-3.53 1.358-.472 2.818-.22 4.229-.291l8.449-.026c-1.888 1.05-3.781 2.115-5.665 3.156m-.164-5.434c-1.392.762-3.013.417-4.529.503l-8.592.026c2.112-1.147 4.174-2.395 6.322-3.472 1.638-.65 3.422-.332 5.137-.4l7.612.022c-1.98 1.107-3.982 2.214-5.95 3.32" class="cls-1" style="fill:#2006f7;stroke-width:0" transform="translate(-66.891 -54.524)"/>
</svg>
