<?xml version="1.0" encoding="UTF-8" standalone="no"?>
<svg
   xmlns:dc="http://purl.org/dc/elements/1.1/"
   xmlns:cc="http://creativecommons.org/ns#"
   xmlns:rdf="http://www.w3.org/1999/02/22-rdf-syntax-ns#"
   xmlns:svg="http://www.w3.org/2000/svg"
   xmlns="http://www.w3.org/2000/svg"
   xmlns:xlink="http://www.w3.org/1999/xlink"
   viewBox="0 0 200 200"
   id="svg64"
   version="1.1">
  <metadata
     id="metadata70">
    <rdf:RDF>
      <cc:Work
         rdf:about="">
        <dc:format>image/svg+xml</dc:format>
        <dc:type
           rdf:resource="http://purl.org/dc/dcmitype/StillImage" />
        <dc:title></dc:title>
      </cc:Work>
    </rdf:RDF>
  </metadata>
  <defs
     id="defs68" />
  <image
     y="0"
     x="0"
     id="image72"
     style="image-rendering:optimizeQuality"
     preserveAspectRatio="none"
     height="200"
     width="200" />
  <g
     id="g256">
    <path
       id="path312"
       d="m 53.507079,177.01145 c -0.350339,-0.56686 0.05106,-0.7345 0.940983,-0.39301 1.732417,0.66479 2.049387,1.38156 0.610955,1.38156 -0.517541,0 -1.215913,-0.44485 -1.551938,-0.98855 z m 90.305421,0.30544 c 0.72187,-0.28887 1.58437,-0.25335 1.91667,0.0789 0.33229,0.33229 -0.25834,0.56864 -1.3125,0.52522 -1.16495,-0.048 -1.4019,-0.28494 -0.60417,-0.60416 z M 25.507079,129.01145 c -0.350339,-0.56686 0.05106,-0.7345 0.940983,-0.39301 1.732417,0.66479 2.049387,1.38156 0.610955,1.38156 -0.517541,0 -1.215913,-0.44485 -1.551938,-0.98855 z"
       style="fill:#d1ebf8" />
    <path
       id="path310"
       d="M 146.96747,43.261758 C 146.20678,41.742791 144.10291,38.624266 142.2922,36.331703 140.48149,34.03914 139,31.831616 139,31.426094 c 0,-0.405522 -1.11162,-2.194718 -2.47026,-3.975991 l -2.47026,-3.238679 3.72026,-0.65903 c 2.04614,-0.362466 4.4706,-0.878568 5.38769,-1.146892 1.24943,-0.365563 3.07414,1.902351 7.2789,9.046831 7.29245,12.390931 7.22629,12.168792 3.86331,12.971777 -1.5453,0.368976 -3.51827,0.879787 -4.38437,1.135136 -0.99426,0.293133 -2.08455,-0.553758 -2.9578,-2.297488 z"
       style="fill:#b5e6fc" />
    <path
       id="path308"
       d="m 42,152.51113 c 0,-0.7662 0.45734,-1.67575 1.016312,-2.02121 0.558971,-0.34546 0.821824,-0.9428 0.584117,-1.32742 -0.237707,-0.38462 1.329953,-0.53126 3.483688,-0.32587 C 49.237853,149.04202 51,149.51574 51,149.88934 c 0,0.37359 -2.025,1.42978 -4.5,2.34708 -3.715065,1.3769 -4.5,1.42482 -4.5,0.27471 z M 181.72862,99.264827 C 181.99557,98.569172 181.75985,98 181.20481,98 c -0.55504,0 -1.49234,-1.2375 -2.08289,-2.75 -0.59055,-1.5125 -3.55114,-6.125 -6.57908,-10.25 -5.76477,-7.853396 -9.13529,-13.740883 -8.32843,-14.54774 0.26192,-0.261924 2.20428,-0.583334 4.31635,-0.714243 L 172.37088,69.5 l 8.27447,14 c 4.55096,7.7 8.29251,14.515234 8.31456,15.144965 0.022,0.62973 -1.70518,1.311402 -3.83828,1.514825 -2.8252,0.26943 -3.74657,0.0264 -3.39301,-0.894963 z M 141.50574,44.218575 C 140.40889,42.723359 139.47003,41.275 139.41937,41 c -0.39678,-2.15398 -1.82842,-3.874496 -2.77415,-3.333931 -0.62987,0.36002 -0.80142,0.276135 -0.38122,-0.186411 0.4202,-0.462546 -0.4112,-2.067636 -1.84755,-3.566866 -1.43635,-1.49923 -2.56765,-2.992929 -2.514,-3.319332 0.30042,-1.82766 -0.01,-2.645216 -0.81467,-2.147714 -0.50171,0.310079 -0.79848,-0.225863 -0.65948,-1.190983 0.43315,-3.007413 4.14234,-2.666479 6.46412,0.594154 1.15917,1.627903 2.10758,3.264624 2.10758,3.637157 0,0.372533 1.4625,2.553066 3.25,4.845629 4.33464,5.559407 5.94268,8.547512 5.22486,9.708974 -1.10282,1.7844 -3.96425,0.910935 -5.96912,-1.822102 z"
       style="fill:#a7e1fb" />
    <path
       id="path306"
       d="m 130.98788,39.713762 c -3.56833,-5.474161 -6.63696,-10.346419 -6.81916,-10.827239 -0.18221,-0.48082 0.90823,-1.345479 2.42319,-1.921466 2.94807,-1.120856 5.31668,0.20634 5.76009,3.227546 0.12008,0.818117 1.87635,3.42452 3.90283,5.792007 2.02648,2.367486 3.47811,4.638478 3.22585,5.046649 -0.25226,0.40817 0.23595,1.318605 1.08493,2.02319 0.84897,0.704584 1.94791,2.036549 2.44208,2.959921 0.72311,1.351147 0.27089,1.871477 -2.31671,2.665636 l -3.21522,0.986777 z"
       style="fill:#a6daf6" />
    <path
       id="path304"
       d="m 44.263311,146.67043 c 1.275703,-3.65422 1.814361,-3.81205 11.820278,-3.46356 L 64.5,143.5 l -4.961772,2.79796 c -3.574832,2.01587 -6.541222,2.85444 -10.612251,3 L 43.275496,149.5 Z M 173,101.60239 c 0,-0.78965 -0.3375,-1.58572 -0.75,-1.769057 C 171.23048,99.380215 165.75891,92 166.4425,92 c 0.29935,0 -0.46525,-1.150979 -1.69911,-2.557731 C 163.50952,88.035517 161.6,85.386 160.5,83.554453 c -1.1,-1.831546 -3.00614,-4.678607 -4.23587,-6.3268 l -2.23588,-2.996715 2.73588,-1.048421 c 6.43245,-2.464999 6.89569,-2.409141 8.62779,1.040346 0.90506,1.802425 4.11744,6.652137 7.13863,10.777137 3.02119,4.125 5.95501,8.587184 6.51961,9.915964 0.56459,1.32878 2.02178,3.301866 3.23819,4.384634 1.21641,1.082772 1.53665,1.743892 0.71165,1.469162 -0.825,-0.27473 -2.175,-0.17256 -3,0.22704 -3.62251,1.75459 -7,2.04679 -7,0.60559 z M 121.63157,42.400398 c -3.77764,-5.773279 -6.70264,-10.627527 -6.5,-10.787219 0.20264,-0.159691 2.1607,-0.984837 4.35125,-1.833656 l 3.98281,-1.543309 6.73233,10.131893 c 3.70278,5.572541 6.74802,10.492355 6.76719,10.93292 0.0346,0.794657 -6.18226,3.746171 -7.68303,3.647607 -0.43017,-0.02825 -3.87291,-4.774958 -7.65055,-10.548236 z"
       style="fill:#97d8f7" />
    <path
       id="path302"
       d="m 46.969566,141.53667 c 1.679274,-2.0234 20.448722,-2.29539 19.782552,-0.28667 -0.287399,0.8666 -3.580381,1.33793 -10.736212,1.53667 -9.189879,0.25524 -10.181823,0.11817 -9.04634,-1.25 z M 163.23683,99.575193 C 160.90657,96.59155 159,93.762051 159,93.287419 c 0,-0.474632 -1.33171,-2.420969 -2.95936,-4.325193 -1.62765,-1.904224 -2.97765,-3.977136 -3,-4.606471 -0.0223,-0.629334 -1.30602,-2.49884 -2.8526,-4.154457 l -2.81196,-3.010213 3.20036,-1.526147 c 3.18108,-1.516948 3.21769,-1.503962 6.07455,2.154457 1.58081,2.024333 3.47429,4.856862 4.20774,6.29451 0.73346,1.437648 2.4335,3.800148 3.77788,5.25 C 165.98099,90.813757 166.81483,92 166.48958,92 c -0.71563,0 4.69734,7.360852 5.76042,7.833333 1.68115,0.747177 0.58475,3.278997 -1.8151,4.191417 -1.4108,0.53639 -2.65423,0.97525 -2.76317,0.97525 -0.10894,0 -2.10465,-2.44116 -4.4349,-5.424807 z M 10.879092,97.25 c 0.522203,-0.9625 4.28505,-7.455298 8.361882,-14.42844 l 7.412422,-12.67844 6.423302,2.26148 c 5.835449,2.054512 12.362999,5.124534 15.711838,7.389553 2.612208,1.766792 -15.956414,12.322222 -29.392019,16.708046 -9.129026,2.980014 -9.7584926,3.035279 -8.517425,0.747801 z"
       style="fill:#89d8f9" />
    <path
       id="path300"
       d="m 67,140.97622 c 0,-0.75923 -3.154956,-1.00924 -10.002421,-0.79263 -10.225714,0.32347 -11.925542,-0.42768 -6.716101,-2.96785 1.769739,-0.86294 6.093852,-1.19101 13.180675,-1 L 74.009034,136.5 70.504517,139.29263 C 68.577033,140.82858 67,141.58619 67,140.97622 Z m 93.40183,-36.0847 C 159.46034,103.85119 159.02477,103 159.43391,103 c 0.63872,0 -0.64972,-1.82255 -5.44898,-7.707794 C 153.44322,94.62792 153,93.696419 153,93.222205 c 0,-0.474214 -1.575,-2.702241 -3.5,-4.951171 -1.925,-2.248929 -3.5,-4.431995 -3.5,-4.851258 0,-0.419262 -0.72551,-1.563977 -1.61225,-2.54381 -1.50474,-1.662718 -1.42651,-1.828133 1.17306,-2.480584 2.31521,-0.58108 3.17721,-0.209299 5.10728,2.202775 1.27709,1.596014 2.3425,3.351843 2.36758,3.901843 0.0251,0.55 1.37732,2.558002 3.00497,4.462226 1.62765,1.904224 2.95936,3.864802 2.95936,4.356839 0,0.492038 1.7945,3.14841 3.98777,5.903048 2.19328,2.754637 3.77529,5.352247 3.51559,5.772457 -1.08578,1.75683 -4.47009,1.69967 -6.10153,-0.10305 z m -40.9557,-47.804362 c 0.3103,-0.502063 -0.67565,-1.885441 -2.19098,-3.074173 -1.51533,-1.188732 -2.15943,-1.855864 -1.43133,-1.482515 1.08676,0.557255 1.09569,0.313504 0.0499,-1.361144 -0.70068,-1.121977 -1.6339,-1.817509 -2.07382,-1.545626 C 113.35993,49.895584 113,49.406828 113,48.537577 113,46.633433 108.09152,39 106.86711,39 c -2.46541,0 -0.31846,-2.868022 3.55608,-4.750419 l 4.42318,-2.148949 6.80303,10.199684 c 3.74166,5.609826 7.14785,10.449155 7.56931,10.754064 0.42146,0.304909 -1.26738,1.542409 -3.75296,2.75 -4.78848,2.326421 -6.9492,2.786869 -6.01962,1.282778 z"
       style="fill:#86cbf2" />
    <path
       id="path298"
       d="m 54.5,134.10801 c 4.754244,-2.92282 5.516088,-3.07319 15.5,-3.05936 l 10.5,0.0145 -2.805764,2.4684 C 75.078935,135.83244 74.151103,136 64.026024,136 c -5.974347,0 -11.686753,0.26593 -12.694237,0.59096 -1.007483,0.32503 0.418213,-0.7923 3.168213,-2.48295 z m 97.82448,-24.76582 c 0.3618,-0.3618 -0.9132,-2.57503 -2.83333,-4.9183 C 147.57102,102.08062 146,99.757639 146,99.261702 146,98.765764 144.38993,96.478998 142.42208,94.179999 140.45422,91.880999 139.13486,90 139.49017,90 c 0.35531,0 -0.28462,-1.306967 -1.42208,-2.90437 C 136.93064,85.498226 136,83.967675 136,83.694405 c 0,-0.273269 1.53849,-1.404583 3.41886,-2.514029 3.24754,-1.916098 3.49809,-1.929629 5,-0.270036 0.86963,0.960928 1.58114,2.090174 1.58114,2.509436 0,0.419263 1.575,2.602329 3.5,4.851258 1.925,2.24893 3.5,4.476957 3.5,4.951171 0,0.474214 0.44322,1.405715 0.98493,2.070001 4.79926,5.885244 6.0877,7.707794 5.44898,7.707794 -0.40914,0 0.0412,0.86756 1.00085,1.92791 1.67803,1.8542 1.62851,1.98801 -1.29535,3.5 -2.9645,1.533 -8.12613,2.22547 -6.81493,0.91428 z M 110.92581,60.25 c -0.77669,-1.5125 -2.20273,-3.477783 -3.16898,-4.367295 C 106.79057,54.993192 106,53.803282 106,53.23846 c 0,-0.564822 -1.29079,-2.408747 -2.86843,-4.097611 -1.57763,-1.688864 -2.59388,-3.345205 -2.25833,-3.680758 0.33556,-0.335553 -0.17365,-1.048706 -1.13157,-1.584784 -2.545789,-1.424695 -2.175823,-2.267559 2.00833,-4.575413 3.46567,-1.911558 3.86901,-1.944476 5.31963,-0.434141 2.89372,3.012851 5.93037,7.927329 5.93037,9.597634 0,0.910056 0.35993,1.432197 0.79985,1.160313 0.43992,-0.271883 1.37314,0.423649 2.07382,1.545626 1.04619,1.67521 1.03728,1.912225 -0.0499,1.32557 -0.7281,-0.392915 0.0262,0.443812 1.67618,1.859394 1.65,1.415581 2.55,2.596858 2,2.62506 -0.55,0.0282 -0.40315,0.42967 0.32633,0.892153 0.97518,0.618258 0.36437,1.408442 -2.30716,2.984687 -4.62225,2.72719 -4.89449,2.70216 -6.59336,-0.60619 z M 153.75,45.337719 c 0.6875,-0.277412 1.8125,-0.277412 2.5,0 0.6875,0.277413 0.125,0.504386 -1.25,0.504386 -1.375,0 -1.9375,-0.226973 -1.25,-0.504386 z"
       style="fill:#78c9f2" />
    <path
       id="path296"
       d="m 62.027494,129.25 c 1.81087,-1.2817 4.947782,-1.84273 11.722506,-2.09653 5.0875,-0.19059 9.25,0.0569 9.25,0.55 C 83,130.26533 80.120073,131 70.077494,131 c -10.296675,0 -10.469442,-0.0376 -8.05,-1.75 z M 137.41792,101.93375 C 128.99875,89.312779 128.79922,88.879337 130.52881,86.96817 131.50845,85.885676 132.91523,85 133.65499,85 c 0.73975,0 1.35259,-0.5625 1.36186,-1.25 0.0172,-1.279881 3.70484,3.943806 4.05913,5.75 0.10789,0.55 1.70992,2.768499 3.56009,4.929999 1.85016,2.161499 3.36393,4.335765 3.36393,4.831703 0,0.495937 1.62921,2.889938 3.62046,5.319998 1.99126,2.43007 3.22876,4.44993 2.75,4.48859 -0.47875,0.0387 -0.0627,0.38914 0.92454,0.77887 1.4512,0.57286 0.93292,1.12741 -2.7059,2.89529 l -4.5009,2.18671 z M 133,53.156908 c 0,-1.736316 18.16678,-7.572694 21.79954,-7.003461 2.18904,0.34301 2.1937,0.382331 0.45605,3.846553 L 153.5,53.5 143.25,53.784983 C 137.52593,53.944131 133,53.666802 133,53.156908 Z"
       style="fill:#68c6f2" />
    <path
       id="path294"
       d="m 131.75479,105.09585 -8.69489,-12.904158 3.6412,-2.777279 c 2.00266,-1.527503 3.30268,-2.22955 2.88894,-1.560104 -0.45707,0.739566 2.65717,6.328157 7.93659,14.242411 8.2036,12.29782 8.5851,13.10382 6.83111,14.43245 -1.02176,0.77397 -2.31906,1.42153 -2.8829,1.43903 -0.56384,0.0175 -4.93786,-5.77507 -9.72005,-12.87235 z M 119,60.514395 c 0,-0.267082 2.74175,-1.869635 6.09278,-3.561229 5.63829,-2.846199 6.94372,-3.089705 17.50038,-3.264395 6.27418,-0.103824 11.40743,-0.131227 11.40722,-0.0609 -2.1e-4,0.07033 -0.68142,1.757832 -1.5138,3.75 L 150.97316,61 H 134.98658 C 126.19396,61 119,60.781478 119,60.514395 Z"
       style="fill:#59c3f1" />
    <path
       id="path292"
       d="m 66.855817,125.75659 c 1.970136,-1.29899 4.732203,-1.74509 10.835166,-1.75 7.661729,-0.006 10.795436,0.95672 8.244531,2.53326 -0.603411,0.37293 -5.738134,0.74153 -11.410495,0.8191 -10.130709,0.13855 -10.26655,0.11017 -7.669202,-1.60236 z M 100.10529,66.25 C 98.418847,63.6375 95.230248,58.825113 93.019515,55.555806 90.808782,52.286499 89,49.345299 89,49.019805 c 0,-0.325493 1.847869,-2.012024 4.106375,-3.747847 3.462646,-2.661291 4.403634,-2.9704 6.002608,-1.971824 1.042927,0.651319 1.764667,1.578923 1.603857,2.061342 -0.1608,0.482418 0.96302,2.221029 2.49739,3.863579 C 104.7446,50.867606 106,52.673638 106,53.23846 c 0,0.564822 0.79057,1.754732 1.75683,2.644245 0.96625,0.889512 2.39229,2.854795 3.16898,4.367295 0.77668,1.5125 1.86738,2.75 2.42378,2.75 0.55639,0 -1.40092,1.8 -4.34959,4 -2.94867,2.2 -5.46634,4 -5.59483,4 -0.12849,0 -1.61344,-2.1375 -3.29988,-4.75 z M 49,32.42807 C 49,30.820212 54.366025,23 55.469295,23 58.663918,23 78,30.85264 78,32.150019 78,32.617508 71.475,33 63.5,33 55.525,33 49,32.742631 49,32.42807 Z"
       style="fill:#68baea" />
    <path
       id="path290"
       d="m 78.5,124 c -7.977966,-0.44322 -8.743717,-0.64636 -6.743181,-1.78883 1.489167,-0.85044 5.183269,-1.19059 10.860278,-1 7.830843,0.26289 8.4364,0.42353 6.743181,1.78883 -1.46105,1.17809 -3.791739,1.3927 -10.860278,1 z M 89.987073,65.34421 C 82.36754,54.191909 82.16704,53.292972 86.637156,50.324926 c 1.885227,-1.251744 2.3356,-0.880832 6.444855,5.307781 2.429894,3.659464 5.65138,8.501658 7.158859,10.760432 1.50748,2.258773 3.30748,3.966084 4,3.794023 0.69252,-0.17206 -0.31587,1.047151 -2.24087,2.70936 -1.925,1.662208 -3.77734,3.040485 -4.116311,3.062837 -0.338972,0.02235 -3.892449,-4.754464 -7.896616,-10.615149 z M 46.031803,37.75 c 0.01749,-0.6875 0.615941,-2.018819 1.329888,-2.958486 1.11793,-1.471377 3.453695,-1.726837 16.830239,-1.840705 13.984976,-0.119047 15.944343,0.07807 19.670113,1.978811 C 86.137919,36.090685 88,37.481502 88,38.020324 88,38.628791 80.042896,39 67,39 50.849705,39 46.007345,38.711327 46.031803,37.75 Z"
       style="fill:#57b5e9" />
    <path
       id="path288"
       d="m 75,119.5 c 0.937824,-1.13001 3.46484,-1.5 10.244889,-1.5 7.886618,0 8.845996,0.18556 7.755111,1.5 -0.937824,1.13001 -3.46484,1.5 -10.244889,1.5 C 74.868493,121 73.909115,120.81444 75,119.5 Z m 53.24874,-10.25 c -4.3427,-6.4625 -8.18961,-12.252359 -8.5487,-12.866353 -0.35908,-0.613994 0.20189,-1.889908 1.24661,-2.835363 1.83328,-1.659097 2.17802,-1.303255 9.89125,10.209756 4.39547,6.56082 8.65824,12.59525 9.47283,13.40983 1.30808,1.30809 1.26122,1.61836 -0.40127,2.6566 -1.03528,0.64654 -2.30591,1.17553 -2.82362,1.17553 -0.51771,0 -4.49441,-5.2875 -8.8371,-11.75 z M 94.722241,73.988569 C 92.81446,71.760443 92.46061,70.548605 93.994623,71.496677 94.974876,72.102507 97.366,76 96.757425,76 96.585306,76 95.669473,75.094856 94.722241,73.988569 Z M 89.872445,66.25 C 88.628574,64.663944 88.663944,64.628574 90.25,65.872445 c 0.9625,0.754844 1.75,1.542344 1.75,1.75 0,0.823034 -0.821186,0.293303 -2.127555,-1.372445 z M 113,65.097725 c 0,-0.5755 1.32765,-1.732921 2.95034,-2.572045 2.30977,-1.194428 6.48928,-1.510343 19.25,-1.455043 L 151.5,61.141274 147,63.28692 c -3.82829,1.825367 -6.70173,2.198751 -19.25,2.501408 C 117.92095,66.0254 113,65.794998 113,65.097725 Z M 87.278145,62.75 C 85.778962,60.811558 84.835903,59 85.325973,59 c 0.244204,0 1.181135,1.125 2.08207,2.5 1.685833,2.572906 1.591948,3.476346 -0.129898,1.25 z"
       style="fill:#48b7eb" />
    <path
       id="path286"
       d="m 126.5,115.26333 c -10.40641,-15.06482 -10.98474,-16.207163 -9.13936,-18.052537 0.87546,-0.87546 1.75375,-1.393531 1.95177,-1.151269 0.19801,0.242262 4.21017,6.136526 8.91591,13.098376 6.18495,9.15026 8.25325,12.96053 7.46378,13.75 -2.0245,2.0245 -3.17237,1.06988 -9.1921,-7.64457 z M 79,116 c 2.02256,-1.58207 4.10515,-1.95977 10.904988,-1.97776 8.342199,-0.0221 8.391466,-0.007 6.595012,1.97776 -1.560599,1.72444 -3.063075,1.99694 -10.904988,1.97776 L 76.5,117.95553 Z m 28,-45.829079 c 0,-0.569103 1.2375,-1.852875 2.75,-2.852827 2.42233,-1.601466 4.34632,-1.758518 16.14741,-1.318094 l 13.3974,0.5 -3.8974,1.942583 C 132.36634,69.953358 128.777,70.476357 119.25,70.79541 111.21155,71.064612 107,70.849913 107,70.170921 Z"
       style="fill:#36b6eb" />
    <path
       id="path284"
       d="M 84.59385,69.812699 77.012393,58.61571 79.180511,56.307855 c 2.759632,-2.937494 3.068179,-2.90221 4.584902,0.524305 0.6895,1.557688 3.04935,5.23896 5.244111,8.180606 C 91.204286,67.954411 93,70.790837 93,71.315935 c 0,0.525098 1.098655,1.972923 2.441456,3.217388 2.269341,2.103155 2.322213,2.364879 0.75,3.712567 -0.930301,0.797446 -2.214512,1.745528 -2.853803,2.10685 -0.719416,0.406608 -4.051376,-3.609835 -8.743803,-10.540041 z M 93.412313,44.25 C 93.968875,43.264197 88.715949,43 68.559017,43 54.501558,43 43,42.768894 43,42.486431 c 0,-0.282463 0.487459,-1.294963 1.083243,-2.25 0.985786,-1.580208 3.12252,-1.710035 23.75,-1.443032 20.468643,0.264947 22.909195,0.477906 25.166757,2.196009 2.119421,1.612971 2.287377,2.101117 1.103296,3.2066 -1.022094,0.954248 -1.207423,0.968729 -0.690983,0.05399 z"
       style="fill:#44ade5" />
    <path
       id="path282"
       d="m 123.2615,123.2192 c -2.1918,-3.14556 -6.10375,-8.83111 -8.69323,-12.63456 l -4.70814,-6.91536 4.25555,-4.084639 c 2.34055,-2.246553 3.67747,-3.309847 2.97092,-2.362877 -1.48844,1.994935 -0.63641,3.606596 9.61796,18.192836 6.50584,9.25417 6.68148,10.23806 2.25097,12.6092 -1.38723,0.74242 -2.45919,-0.1621 -5.69403,-4.8046 z M 82.5,113 c 0.339919,-0.55 4.443034,-1 9.118034,-1 5.412023,0 8.275474,0.36329 7.881966,1 -0.339919,0.55 -4.443034,1 -9.118034,1 -5.412023,0 -8.275474,-0.36329 -7.881966,-1 z M 102,74.035184 c 0,-2.185653 4.70116,-3.135426 16.4818,-3.329811 L 130.92832,70.5 l -4.21416,2.204813 c -3.5234,1.843412 -5.89428,2.212219 -14.46416,2.25 C 106.3013,74.981038 102,74.595125 102,74.035184 Z"
       style="fill:#29b4ea" />
    <path
       id="path280"
       d="M 81.03869,73.351918 C 75.439045,65.230375 73.927897,62.33786 74.669966,61.161437 c 0.535106,-0.84832 1.39077,-1.664729 1.901477,-1.814244 0.510706,-0.149515 4.228131,4.664846 8.260944,10.69858 4.375592,6.546586 7.803228,10.734811 8.5,10.386138 0.642187,-0.321357 0.10526,0.349998 -1.193171,1.491901 C 90.840785,83.065716 89.46386,84 89.079383,84 88.694907,84 85.076595,79.208363 81.03869,73.351918 Z M 82,53.622445 c 0,-0.207656 0.7875,-0.995156 1.75,-1.75 C 85.336056,50.628574 85.371426,50.663944 84.127555,52.25 82.821186,53.915748 82,54.445479 82,53.622445 Z M 46.75,46.228819 C 44.1375,45.359844 42,44.27787 42,43.824432 42,43.370995 53.778441,43 68.174314,43 H 94.348628 L 92,45.5 89.651372,48 70.575686,47.904387 C 56.066398,47.831662 50.36293,47.43056 46.75,46.228819 Z"
       style="fill:#37aae4" />
    <path
       id="path278"
       d="m 83.339629,111.75 c 1.484111,-1.38006 3.667832,-1.75 10.330172,-1.75 5.377511,0 8.223589,0.36348 7.830199,1 -0.33992,0.55 -4.551476,1 -9.359017,1 -4.807541,0 -9.178003,0.3375 -9.712138,0.75 -0.534136,0.4125 -0.124283,-0.0375 0.910784,-1 z m -6.948166,-33 c -3.8632,-5.6375 -7.310894,-10.735899 -7.661543,-11.329775 -0.350649,-0.593876 1.922844,-3.518876 5.052207,-6.5 3.129362,-2.981124 4.458578,-4.045602 2.953811,-2.365506 C 75.231172,60.234814 74,61.954541 74,62.376334 c 0,0.421793 3.243921,5.471774 7.208713,11.222179 5.117673,7.422507 7.655796,10.300281 8.75,9.920925 0.847708,-0.293897 0.07169,0.818999 -1.72449,2.473102 C 86.438046,87.646643 84.619026,89 84.191955,89 83.764884,89 80.254663,84.3875 76.391463,78.75 Z m 20.72601,-0.764837 c 3.567827,-3.077565 3.777107,-3.122887 15.250197,-3.302774 6.39799,-0.100314 11.63263,-0.07747 11.63252,0.05076 -1e-4,0.128235 -2.30556,1.401371 -5.12322,2.829193 -4.5276,2.294304 -6.12925,2.564184 -13.7802,2.321979 -4.76143,-0.150732 -9.318566,0.06238 -10.126961,0.473581 -0.808395,0.411202 0.158054,-0.656533 2.147664,-2.372744 z M 71.5,53.993017 c -7.250552,-0.408434 -9.971916,-1.031129 -14,-3.203439 l -5,-2.696455 17.75,-0.04656 c 9.7625,-0.02561 17.75,0.103125 17.75,0.286074 0,0.18295 -1.6875,1.64545 -3.75,3.25 -3.653964,2.842653 -3.980485,2.904381 -12.75,2.410382 z"
       style="fill:#26a7e3" />
    <path
       id="path276"
       d="m 122.83048,128.17852 c -1.39784,-1.48102 -2.82658,-3.58955 -3.17497,-4.68564 -0.34839,-1.09608 -1.66419,-3.11788 -2.92399,-4.49288 -1.25981,-1.375 -3.52011,-4.61424 -5.0229,-7.19832 -3.44461,-5.92305 -3.93536,-6.19777 -6.90242,-3.86388 -1.89966,1.49427 -4.42829,1.98154 -11.605478,2.23637 L 84.024111,110.5 87.526795,107 c 3.450623,-3.44798 3.638047,-3.50283 12.609935,-3.69029 7.93412,-0.16577 9.44577,-0.4878 11.73526,-2.5 L 114.5,98.5 l -2.29845,2.61602 -2.29845,2.61603 4.68666,6.88397 c 10.44429,15.34105 12.70823,18.31785 13.54019,17.80367 0.47853,-0.29575 0.87005,-0.302 0.87005,-0.0139 0,0.28811 -0.8163,0.9607 -1.814,1.49465 -1.41898,0.75942 -2.36743,0.38445 -4.35552,-1.72193 z M 86,126.5 c 1.291745,-1.375 2.573628,-2.5 2.848628,-2.5 0.275,0 -0.556883,1.125 -1.848628,2.5 -1.291745,1.375 -2.573628,2.5 -2.848628,2.5 -0.275,0 0.556883,-1.125 1.848628,-2.5 z m 8.5,-8.5 c 2.708649,-2.75 5.149816,-5 5.424816,-5 0.275004,0 -1.716167,2.25 -4.424816,5 -2.708649,2.75 -5.149816,5 -5.424816,5 -0.275,0 1.716167,-2.25 4.424816,-5 z M 77.735568,93.402234 c -0.328771,-0.328771 -0.411755,-1.116271 -0.184409,-1.75 C 77.778506,91.018505 77.042299,89.375 75.915143,88 L 73.86577,85.5 75.0497,88 c 1.117622,2.359984 1.086207,2.406819 -0.560932,0.836239 C 73.529094,87.921171 72.620713,86.050213 72.470143,84.678556 72.226073,82.455133 68.298666,76 67.189969,76 c -0.238652,0 0.292243,1.0125 1.179768,2.25 2.312968,3.225035 3.764054,5.75 3.304498,5.75 -0.217873,0 -2.324025,-2.809311 -4.680339,-6.242913 -2.356314,-3.433602 -3.464203,-5.571102 -2.461976,-4.75 1.681489,1.377607 1.737867,1.340437 0.729947,-0.481264 -1.222901,-2.210255 0.0035,-5.543425 2.023317,-5.499261 0.668149,0.01461 4.570655,4.976936 8.672235,11.027394 5.300757,7.819427 7.903529,10.849961 9,10.479138 0.84842,-0.286933 -0.01542,0.825739 -1.919645,2.472605 -3.576719,3.09332 -4.285197,3.413544 -5.302206,2.396535 z m 11.260956,-7.395739 c 0.58679,-1.096428 2.410658,-2.986995 4.053039,-4.20126 2.63946,-1.951436 4.019154,-2.175053 11.883787,-1.926083 5.19672,0.164513 9.76467,-0.182353 10.98214,-0.833924 3.68172,-1.970395 2.24551,-0.549182 -4.30686,4.261904 L 105.21727,88 h -8.643819 c -8.324554,0 -8.604412,-0.07363 -7.576927,-1.993505 z M 67.5,56.526086 l -4,-2.463667 8.25,-0.03121 c 4.5375,-0.01717 8.25,0.321767 8.25,0.753182 0,1.026206 -5.42181,4.217081 -7.154292,4.210485 C 72.105569,58.992059 69.7,57.881103 67.5,56.526086 Z"
       style="fill:#1aa4e2" />
    <path
       id="path274"
       d="M 100.40278,146.80953 C 98.806252,145.09416 98.175,144.07709 99,144.54938 c 0.825,0.47228 -0.525,-1.56744 -3,-4.53272 -2.475,-2.96528 -4.444793,-5.6446 -4.377319,-5.95404 0.286813,-1.31534 -0.906128,-3.00547 -1.752242,-2.48255 -0.505996,0.31273 -0.813239,0.19764 -0.682764,-0.25574 0.130476,-0.45338 -0.263242,-1.72433 -0.874929,-2.82433 -0.981864,-1.76569 0.04069,-3.21203 8.728305,-12.34563 5.412259,-5.6901 10.311779,-10.05434 10.887839,-9.69832 0.57606,0.35603 2.27694,2.76156 3.77973,5.34563 1.50279,2.58408 3.76309,5.82332 5.0229,7.19832 1.2598,1.375 2.57133,3.4 2.9145,4.5 0.34317,1.1 1.68821,3.07386 2.98896,4.38636 1.30076,1.3125 2.36502,2.72694 2.36502,3.14319 0,0.78709 -17.97532,16.8175 -20.34481,18.14354 -0.86964,0.48667 -2.38199,-0.35392 -4.25241,-2.36356 z M 93.387711,101.75 c 0.897924,-1.43716 2.569883,-1.75 9.352839,-1.75 7.54569,0 9.94529,0.84006 7.21668,2.52643 -0.57353,0.35446 -4.7823,0.71852 -9.35284,0.80902 -7.684887,0.15217 -8.227806,0.0329 -7.216679,-1.58545 z"
       style="fill:#01a7e5" />
    <path
       id="path272"
       d="M 64.048375,89.011386 C 59.621769,82.408577 56,76.834073 56,76.623601 c 0,-0.210472 2.1375,-2.095586 4.75,-4.189141 2.6125,-2.093556 4.428333,-3.438596 4.035184,-2.988979 -0.393149,0.449616 -0.206975,1.770818 0.41372,2.936002 1.047152,1.965741 0.99809,2.010856 -0.68034,0.625604 -0.994881,-0.821102 0.119018,1.316398 2.475332,4.75 C 69.35021,81.190689 71.495417,84 71.761023,84 72.02663,84 71.517788,82.9875 70.630263,81.75 68.404827,78.647015 66.86104,76 67.276758,76 c 1.040256,0 4.959695,6.549691 5.193385,8.678556 0.15057,1.371657 1.058951,3.242615 2.018625,4.157683 C 76.135907,90.406819 76.167322,90.359984 75.0497,88 l -1.18393,-2.5 2.036054,2.5 c 1.11983,1.375 1.937532,3.128315 1.817115,3.896256 -0.443314,2.827177 2.064306,2.047049 6.813993,-2.119852 2.680979,-2.352022 4.531275,-3.713904 4.11177,-3.026404 -0.587814,0.963332 1.268941,1.25 8.096281,1.25 4.872457,0 9.313287,-0.3375 9.868507,-0.75 0.55522,-0.4125 -1.00086,1.187438 -3.45796,3.555418 l -4.467448,4.305419 -9.383743,-0.189271 C 80.15134,94.737031 79.818785,94.810899 76.006673,97.874396 L 72.096751,101.0165 Z M 68.5,65 c 0.995486,-1.1 2.034975,-2 2.309975,-2 0.275,0 -0.314489,0.9 -1.309975,2 -0.995486,1.1 -2.034975,2 -2.309975,2 -0.275,0 0.314489,-0.9 1.309975,-2 z M 70,58.910649 c -2.433173,-1.990218 -2.437123,-2.013951 -0.147767,-0.887867 1.293727,0.636357 3.231945,0.926962 4.30715,0.645789 1.596887,-0.417595 1.738883,-0.250915 0.775323,0.910103 C 73.409579,61.41634 72.994711,61.360178 70,58.910649 Z"
       style="fill:#159bdd" />
    <path
       id="path270"
       d="m 84.57072,160.23166 c -1.688176,-2.2604 -1.716527,-2.50159 -0.226861,-1.92995 1.421925,0.54564 1.532959,0.33664 0.673903,-1.26852 -0.565684,-1.05699 -1.588597,-2.25825 -2.273139,-2.66945 -0.835597,-0.50195 -0.79359,-0.19162 0.127822,0.9443 0.846554,1.04364 0.95583,1.69196 0.285183,1.69196 -0.597993,0 -1.553093,-0.87042 -2.122444,-1.93426 -1.350959,-2.52429 -1.310872,-3.35416 0.119324,-2.47025 0.73775,0.45596 0.882095,0.27275 0.399865,-0.50751 -0.415054,-0.67157 -1.005679,-0.97001 -1.312499,-0.66319 -0.891112,0.89111 -3.243351,-1.51265 -3.226561,-3.29723 C 77.028636,146.71143 77.156551,146.69486 78,148 c 0.533156,0.825 0.96416,1.05 0.957786,0.5 -0.0064,-0.55 -1.392305,-2.575 -3.079849,-4.5 l -3.06826,-3.5 2.163256,3.25 c 1.18979,1.7875 1.671475,3.25 1.07041,3.25 -0.601064,0 -1.506759,-1.08868 -2.012655,-2.41928 -0.505896,-1.33061 -1.732258,-2.89193 -2.725249,-3.4696 -0.992992,-0.57766 -1.270712,-1.06399 -0.617157,-1.08071 0.653555,-0.0167 2.678555,-1.4182 4.5,-3.11438 1.821445,-1.69619 5.238759,-4.68731 7.59403,-6.64694 4.096889,-3.40869 4.342024,-3.48131 5.661325,-1.67706 0.758457,1.03725 1.124387,2.2979 0.813179,2.80145 -0.311208,0.50355 -0.09346,0.62359 0.483891,0.26677 0.868846,-0.53697 2.232383,1.32934 2.440036,3.33975 0.0284,0.275 1.911857,2.72932 4.185451,5.45404 2.273593,2.72472 3.458806,4.56762 2.633806,4.09534 -0.825,-0.47229 -0.193639,0.54489 1.40302,2.2604 1.59667,1.71551 3.39667,2.87106 4,2.56789 1.97762,-0.99374 -3.78265,3.56918 -9.641711,7.63755 C 91.60503,159.20685 88.60503,161 88.094643,161 c -0.510387,0 -1.077976,0.40835 -1.26131,0.90744 -0.183333,0.4991 -1.201509,-0.25501 -2.262613,-1.67578 z M 116,139.62244 c 0,-0.20765 0.7875,-0.99515 1.75,-1.75 1.58606,-1.24387 1.62143,-1.2085 0.37756,0.37756 C 116.82119,139.91575 116,140.44548 116,139.62244 Z M 103.06666,100 94.633324,99.5 99.924816,94.75 105.21631,90 h 8.89184 c 4.89052,0 8.89184,0.3375 8.89182,0.75 -3e-5,0.681903 -4.28452,4.413755 -9.47173,8.25 -1.57012,1.16119 -3.93309,1.38706 -10.46158,1 z M 66.718777,94.858234 C 64.27529,90.5657 65.013276,90.364625 67.77098,94.571546 c 1.236074,1.88565 1.905769,3.425609 1.488213,3.422131 -0.417556,-0.0035 -1.560744,-1.414427 -2.540416,-3.135443 z M 58.780566,82.929313 C 56.748788,79.668191 55.287382,77 55.532998,77 c 0.736479,0 7.804265,10.99607 7.355946,11.444389 -0.22783,0.227831 -2.0766,-2.253954 -4.108378,-5.515076 z"
       style="fill:#019ce1" />
    <path
       id="path268"
       d="M 60.25,167.99365 C 58.4625,165.25992 57,162.61615 57,162.1186 c 0,-0.49754 -0.675,-1.16364 -1.5,-1.48023 -0.825,-0.31658 -1.5,-1.08125 -1.5,-1.69926 0,-0.61801 -0.893869,-2.26002 -1.986375,-3.64892 -1.908987,-2.42688 -1.871807,-4.93861 0.05547,-3.74748 C 52.581094,151.85914 53,151.56648 53,150.89235 c 0,-0.67413 0.257646,-0.96804 0.572546,-0.65314 0.314901,0.3149 4.129911,-1.6338 8.4778,-4.33044 4.530275,-2.80977 8.798787,-4.76663 9.998189,-4.58359 2.089052,0.31881 6.861077,5.28077 6.900189,7.17482 0.01136,0.55 -0.415568,0.325 -0.948724,-0.5 -0.843449,-1.30514 -0.971364,-1.28857 -0.984687,0.12756 -0.0149,1.58404 2.861901,4.70619 3.721715,4.03911 0.236301,-0.18334 0.729639,10e-4 1.096305,0.41032 0.366667,0.40901 0.104167,0.41996 -0.583333,0.0243 -1.521141,-0.87538 -1.588522,-0.10236 -0.214816,2.46443 0.569351,1.06384 1.524451,1.93426 2.122444,1.93426 0.670647,0 0.561371,-0.64832 -0.285183,-1.69196 -0.921412,-1.13592 -0.963419,-1.44625 -0.127822,-0.9443 0.684542,0.4112 1.707455,1.61246 2.273139,2.66945 0.866404,1.61889 0.749037,1.81981 -0.744623,1.27474 -1.690314,-0.61684 -1.691394,-0.55372 -0.02314,1.35125 0.9625,1.09906 1.75,2.2814 1.75,2.62741 0,0.99391 -8.504756,5.71738 -14.170638,7.87025 l -5.160427,1.9608 -2.410562,-2.80882 c -1.986881,-2.31514 -2.133547,-2.37425 -0.834467,-0.33631 0.866852,1.35987 1.576094,2.82237 1.576094,3.25 0,1.91657 -1.751004,0.35768 -4.75,-4.22886 z M 57,158 c -1.742432,-2.2 -3.393059,-4 -3.668059,-4 -0.275,0 0.925627,1.8 2.668059,4 1.742432,2.2 3.393059,4 3.668059,4 0.275,0 -0.925627,-1.8 -2.668059,-4 z m 18.408043,-13.5 c -1.47095,-2.24495 -3.124925,-3.60946 -2.121252,-1.75 0.222654,0.4125 0.685088,1.5375 1.027632,2.5 0.342544,0.9625 1.097304,1.75 1.677245,1.75 0.583617,0 0.323021,-1.11628 -0.583625,-2.5 z M 57.26034,109.806 c -0.127953,-1.69861 0.07631,-1.78205 1.546115,-0.63159 1.525183,1.19381 1.556087,1.15039 0.310866,-0.43674 -1.127837,-1.43752 -1.680766,-1.53575 -3,-0.53297 -0.889526,0.67615 -1.273521,0.8254 -0.85332,0.33166 0.4202,-0.49373 -0.4798,-2.23599 -2,-3.87169 C 51.7438,103.02897 51.175,102.06263 52,102.51723 c 1.083887,0.59726 1.014535,0.27156 -0.25,-1.17408 -2.243077,-2.564327 -2.268463,-4.003931 -0.03907,-2.215595 1.186268,0.951585 1.035963,0.409391 -0.490146,-1.768086 -1.210591,-1.727292 -2.76801,-3.077292 -3.46093,-3 C 47.066934,94.436761 46.498249,94.275 46.49611,94 c -0.0021,-0.275 -1.045282,-1.9625 -2.318094,-3.75 -2.39817,-3.367919 -1.978608,-4.585435 0.516908,-1.5 1.261385,1.559566 1.288217,1.4892 0.24658,-0.646639 -0.98094,-2.01138 -0.887417,-2.554125 0.58179,-3.376335 0.962841,-0.538833 3.475197,-2.537747 5.583012,-4.442032 l 3.832392,-3.462336 4.021151,6.338671 C 61.171482,86.647598 62.99685,89.05 63.016223,88.5 c 0.01937,-0.55 1.117533,1.106385 2.440357,3.680857 1.322823,2.574471 3.348005,5.623728 4.500404,6.776127 l 2.09527,2.095266 3.937861,-3.164547 c 3.831132,-3.078783 4.184746,-3.159125 13.046952,-2.964333 5.827585,0.128091 9.623132,-0.226397 10.536012,-0.98402 3.511691,-2.914441 0.879341,0.147504 -4.807379,5.591953 C 91.336835,102.81409 89.73849,104.15 91.213823,102.5 l 2.682422,-3 -9.499812,0.17155 -9.499812,0.171549 -7.302692,5.748441 c -8.022167,6.31479 -10.111198,7.16678 -10.333589,4.21446 z m -1.464011,-5.76052 c -0.671341,-1.07499 -1.414279,-1.76086 -1.650975,-1.52417 -0.428595,0.4286 1.750732,3.47869 2.485565,3.47869 0.212316,0 -0.16325,-0.87953 -0.83459,-1.95452 z m -7.533503,-7.206468 c -0.12125,-1.609633 0.122652,-1.853534 0.988093,-0.988093 0.756822,0.756822 0.811779,1.486383 0.160988,2.137174 -0.65079,0.65079 -1.043048,0.258531 -1.149081,-1.149081 z M 104.5,90.110925 c 1.1,-1.295035 4.475,-4.21228 7.5,-6.482767 L 117.5,79.5 l 11,0.552327 c 6.05,0.303779 10.44091,0.641279 9.75758,0.75 -0.68334,0.10872 -4.14425,2.285192 -7.69091,4.836605 l -6.44849,4.638931 -9.13217,-0.200726 c -6.21621,-0.136633 -9.66762,0.212635 -10.80909,1.093835 -1.09841,0.847959 -0.98695,0.482259 0.32308,-1.060047 z m -44.472786,-21.581957 -2.254997,-2.400335 2.067211,-2.90313 c 4.364864,-6.129887 6.715391,-6.99908 10.459412,-3.867751 L 72.86025,61.5 67.571231,66.214652 62.282212,70.929303 Z M 63.5,61.995004 66.5,58.5 63.25,61.437091 c -1.7875,1.6154 -3.25,3.3779 -3.25,3.916667 0,0.538766 0.1125,0.789827 0.25,0.557913 0.1375,-0.231915 1.6,-1.994415 3.25,-3.916667 z"
       style="fill:#0194db" />
    <path
       id="path266"
       d="m 48.587978,166.44552 c -3.243762,-5.64717 -5.940551,-10.59984 -5.992864,-11.00592 -0.05231,-0.40609 1.538873,-1.30404 3.535968,-1.99545 3.478529,-1.2043 3.720106,-1.1367 5.75,1.60888 C 53.046487,156.62932 54,158.40136 54,158.99089 c 0,0.58953 0.675,1.3309 1.5,1.64748 0.825,0.31659 1.5,0.99522 1.5,1.50807 0,0.51285 1.562326,3.25238 3.471836,6.08784 1.90951,2.83546 3.37201,5.22752 3.25,5.3157 -0.12201,0.0882 -2.250047,0.83594 -4.728973,1.66172 l -4.507136,1.5014 z m 15.208532,3.54816 C 61.60448,166.14145 62.254903,166.14487 65,170 c 1.174904,1.65 1.768046,2.99715 1.318094,2.99368 -0.449952,-0.003 -1.584664,-1.35348 -2.521584,-3 z M 56,158 c -1.742432,-2.2 -2.943059,-4 -2.668059,-4 0.275,0 1.925627,1.8 3.668059,4 1.742432,2.2 2.943059,4 2.668059,4 -0.275,0 -1.925627,-1.8 -3.668059,-4 z M 41.556704,118.77749 C 39.03331,115.17484 39.78714,114.2407 42.58761,117.5 l 2.577676,3 -2.15911,-3.26176 c -1.18751,-1.79396 -2.552121,-3.01886 -3.032469,-2.72199 -0.480348,0.29687 -1.345938,-0.34325 -1.923534,-1.4225 -1.525933,-2.85123 -1.291074,-3.52966 0.680662,-1.96619 0.951959,0.75484 0.239146,-0.54006 -1.584029,-2.87756 C 35.32363,105.9125 33.57501,104 33.260983,104 c -0.314027,0 0.105339,0.7875 0.931925,1.75 2.200971,2.56287 3.038114,4.25 2.108827,4.25 -0.448964,0 -2.073955,-2.08214 -3.611092,-4.62697 -2.042875,-3.38212 -2.360284,-4.46024 -1.179772,-4.00723 1.267835,0.48651 1.156904,-0.0236 -0.516019,-2.37303 C 29.82278,97.346746 28.579454,96 28.231906,96 27.884358,96 28.14,96.54 28.8,97.2 c 0.66,0.66 1.2,1.663036 1.2,2.228969 0,0.565932 -1.017046,-0.05501 -2.260101,-1.379864 l -2.260102,-2.408832 8.010102,-4.08876 c 5.917723,-3.020706 8.385531,-3.822679 9.447332,-3.070137 1.131584,0.802 1.297756,0.646463 0.781385,-0.731376 -0.912919,-2.435949 -0.02526,-2.19149 1.345968,0.370677 0.797678,1.490475 0.808134,1.918692 0.03518,1.440983 -1.235012,-0.763279 -1.509944,0.694831 -0.349768,1.855007 0.4125,0.4125 0.760855,1.275 0.774123,1.916666 0.01327,0.641667 0.805202,1.103428 1.759854,1.026136 0.954653,-0.07729 2.726216,1.272708 3.936807,3 1.526109,2.177477 1.676414,2.719671 0.490146,1.768086 -2.229393,-1.788336 -2.204007,-0.348732 0.03907,2.215595 1.264535,1.44564 1.333887,1.77134 0.25,1.17408 -0.825,-0.4546 -0.2562,0.51174 1.264001,2.14744 1.5202,1.6357 2.4202,3.37796 2,3.87169 -0.420201,0.49374 -0.03621,0.34449 0.85332,-0.33166 1.319234,-1.00278 1.872163,-0.90455 3,0.53297 1.245221,1.58713 1.214317,1.63055 -0.310866,0.43674 -1.469801,-1.15046 -1.674068,-1.06702 -1.546115,0.63159 0.150011,1.99145 1.243645,2.25999 3.48966,0.85686 C 61.4375,110.23337 62,110.14261 62,110.46117 62,111.57259 46.728759,121 44.928399,121 c -0.998245,0 -2.515508,-1.00013 -3.371695,-2.22251 z m 7.694215,-22.926571 c -0.865441,-0.865441 -1.109343,-0.62154 -0.988093,0.988093 0.106033,1.407612 0.498291,1.799871 1.149081,1.149081 0.650791,-0.650791 0.595834,-1.380352 -0.160988,-2.137174 z M 81.946167,111.74051 85.392334,108 h -9.996167 c -6.441463,0 -10.422895,0.42673 -11.196167,1.2 -0.66,0.66 -1.2,0.9553 -1.2,0.65621 0,-0.29908 2.656324,-2.67434 5.902942,-5.27836 L 74.805883,99.843267 84.285807,99.671634 93.76573,99.5 88.98379,105 c -2.630067,3.025 -6.064856,6.62073 -7.632865,7.99051 -2.116102,1.84858 -1.962679,1.5264 0.595242,-1.25 z m -26.966223,-7.26468 c -0.69572,-0.83829 -1.071285,-1.71782 -0.83459,-1.95452 0.236696,-0.23669 0.979634,0.44918 1.650975,1.52417 1.451813,2.32472 0.967628,2.57996 -0.816385,0.43035 z M 119.5,78.377012 c 3.20098,-2.495772 12.92936,-7.887676 13.75,-7.620861 0.4125,0.134117 0.75,-0.152358 0.75,-0.636611 0,-0.484253 4.76536,-0.956582 10.58968,-1.04962 6.58568,-0.105199 10.36437,0.195413 9.99377,0.79505 -0.32775,0.530315 -0.0306,1.166037 0.66032,1.412715 1.73207,0.618393 1.38417,0.830695 -8.24377,5.030655 -8.06256,3.5171 -9.04037,3.705868 -19,3.667988 -9.7033,-0.0369 -10.34825,-0.158255 -8.5,-1.599316 z M 54.059544,65.466048 C 48.373838,61.938892 46.095088,59.037658 46.035435,55.25 46.015946,54.0125 45.589818,53 45.088484,53 c -1.496318,0 -0.56617,-3.177539 1.337655,-4.56965 0.972543,-0.711141 2.423931,-1.041378 3.225307,-0.733861 1.176799,0.45158 1.013848,1.063476 -0.847199,3.181316 L 46.5,53.5 l 2.808047,-2.478847 2.808048,-2.478846 5.29772,2.86575 c 2.913747,1.576163 6.152868,3.591644 7.198049,4.478847 1.04518,0.887203 1.703784,1.494296 1.463564,1.349095 C 65.38652,56.81959 60,62.261748 60,63.374182 c 0,0.55 1.440859,-0.321691 3.201909,-1.937091 L 66.403818,58.5 63.451909,62.066921 c -1.62355,1.961806 -3.233159,3.151263 -3.576909,2.643237 -0.360024,-0.532077 -0.926475,-0.435887 -1.33609,0.226884 -0.391099,0.632812 -0.167249,1.805856 0.497445,2.606763 1.62243,1.954909 1.320729,1.828952 -4.976811,-2.077757 z"
       style="fill:#008bd5" />
    <path
       id="path264"
       d="m 162.48436,127.83325 c -10.36314,-3.0764 -20.62196,-7.96253 -19.51596,-9.29517 1.67468,-2.01787 20.18219,-11.18892 27.0316,-13.39499 8.10084,-2.60914 19,-5.146409 19,-4.4231 0,0.29844 -3.7125,6.98119 -8.25,14.85055 -9.16762,15.89936 -8.20108,15.25047 -18.26564,12.26271 z m -136.077957,0.31819 c 0.28844,-0.4667 -0.377532,-1.8167 -1.479939,-3 C 23.824058,123.96815 23.21803,123 23.579734,123 c 0.361704,0 -0.501305,-1.51946 -1.917799,-3.37658 -1.416493,-1.85712 -2.388044,-3.56398 -2.159001,-3.79302 0.229043,-0.22904 -0.690417,-1.70458 -2.043246,-3.27896 C 16.10686,110.97705 15,109.08391 15,108.34446 15,107.60501 14.523442,107 13.940983,107 13.358524,107 13.160081,106.55 13.5,106 c 0.339919,-0.55 0.06648,-1 -0.60765,-1 -0.674126,0 -0.929588,-0.2961 -0.567693,-0.65799 0.361895,-0.3619 0.140967,-1.28097 -0.490951,-2.04238 -1.602399,-1.93078 -0.392965,-2.705828 7.416119,-4.752542 L 25.99965,95.778 l 1.966906,2.361 c 1.081798,1.29855 1.981877,1.8885 2.000175,1.311 C 29.985029,98.8725 29.46,97.86 28.8,97.2 28.14,96.54 27.884358,96 28.231906,96 c 0.347548,0 1.590874,1.346746 2.762946,2.99277 1.672923,2.3494 1.783854,2.85954 0.516019,2.37303 -1.180512,-0.45301 -0.863103,0.62511 1.179772,4.00723 1.537137,2.54483 3.162128,4.62697 3.611092,4.62697 0.929287,0 0.09214,-1.68713 -2.108827,-4.25 -0.826586,-0.9625 -1.245952,-1.75 -0.931925,-1.75 0.314027,0 2.062647,1.9125 3.885823,4.25 1.823175,2.3375 2.535988,3.6324 1.584029,2.87756 -1.971736,-1.56347 -2.206595,-0.88504 -0.680662,1.96619 0.577596,1.07925 1.443186,1.71937 1.923534,1.4225 0.480348,-0.29687 1.844959,0.92803 3.032469,2.72199 l 2.15911,3.26176 -2.577676,-3 c -2.674093,-3.11221 -3.368844,-2.82827 -1.522238,0.62215 0.585954,1.09486 2.020027,2.34381 3.186828,2.77544 1.768168,0.65409 0.92388,1.2424 -5.069873,3.53274 -3.95523,1.51138 -7.851278,2.84482 -8.657883,2.9632 -0.806605,0.11839 -1.77958,0.52827 -2.162166,0.91086 -0.989139,0.98914 -2.584615,0.86438 -1.955875,-0.15295 z M 54.55,116.17359 c 0.5225,-0.45452 3.26029,-2.47952 6.083977,-4.5 5.089828,-3.642 5.218818,-3.67339 15,-3.65041 L 85.5,108.04636 80.80821,112.52318 76.116419,117 H 64.85821 C 58.666194,117 54.0275,116.62812 54.55,116.17359 Z M 141.5,66.556317 c 8.75929,-3.993915 9.20947,-4.018824 10.97369,-0.607202 L 154.05136,69 145.27568,68.91807 136.5,68.83614 l 5,-2.279817 z M 48.5,51 c 0.995486,-1.1 2.034975,-2 2.309975,-2 0.275,0 -0.314489,0.9 -1.309975,2 -0.995486,1.1 -2.034975,2 -2.309975,2 -0.275,0 0.314489,-0.9 1.309975,-2 z m -5.91655,-2.643128 c -0.863466,-2.250157 -0.142921,-2.714106 2.992872,-1.927072 2.540816,0.637704 2.579204,0.738343 0.796571,2.088293 -2.439357,1.847271 -3.028328,1.822213 -3.789443,-0.161221 z"
       style="fill:#0082d1" />
    <path
       id="path262"
       d="m 135.27142,174.51652 c -10.89678,-2.81629 -18.71364,-6.14577 -30.15682,-12.84485 l -8.385394,-4.90899 3.385394,-2.62344 c 1.86197,-1.4429 6.70921,-5.50945 10.77165,-9.0368 6.6044,-5.73449 7.59831,-6.28092 9.38959,-5.16225 9.63063,6.01443 28.94027,14.05981 33.74482,14.05981 1.02372,0 2.13626,0.44488 2.47231,0.98862 0.46527,0.75283 -11.08899,22.19424 -11.83491,21.96221 -0.0869,-0.027 -4.31092,-1.12248 -9.38664,-2.43431 z M 46.897815,134.75 c -0.644903,-1.2375 -2.253158,-4.11926 -3.573899,-6.40392 l -2.401348,-4.15392 5.788716,-3.30091 c 5.453353,-3.10968 6.49871,-3.3325 18.043972,-3.84608 L 77.010512,116.5 l -3.755256,3.26097 c -6.926778,6.01504 -22.567544,16.05642 -24.09624,15.46981 -0.96442,-0.37008 -1.232965,-0.15945 -0.764044,0.59928 0.397684,0.64347 0.487337,1.16994 0.199229,1.16994 -0.288109,0 -1.051482,-1.0125 -1.696386,-2.25 z M 45.845204,77.179452 41.295287,74.5 l 3.40596,-6.184033 3.405959,-6.184033 7.008491,4.184033 7.00849,4.184033 -4.312093,3.80357 c -6.590162,5.812986 -6.866637,5.879428 -11.96689,2.875882 z"
       style="fill:#007acb" />
    <path
       id="path260"
       d="m 151.49143,153.45944 c -8.41743,-2.17618 -18.62356,-6.33041 -26.25894,-10.68826 l -7.2675,-4.14789 5.16989,-4.56165 c 7.152,-6.31055 7.25518,-6.34724 11.5543,-4.10833 2.09595,1.09153 6.51082,3.08148 9.81082,4.4221 l 6,2.43748 3.29519,8.20798 c 1.81236,4.51439 3.16236,8.55121 3,8.97071 -0.16235,0.4195 -2.54905,0.18004 -5.30376,-0.53214 z"
       style="fill:#0064bb" />
    <path
       id="path258"
       d="m 142.90162,133.66978 c -4.16873,-1.74338 -8.6192,-3.86961 -9.88995,-4.72495 l -2.31045,-1.55517 5.02842,-3.6912 5.02842,-3.6912 7.37097,3.18986 c 4.05403,1.75443 7.51486,3.28418 7.69073,3.39947 0.31414,0.20591 -2.97527,6.77905 -4.54052,9.07319 -0.57964,0.84957 -2.87297,0.30208 -8.37762,-2 z"
       style="fill:#0053b1" />
  </g>
</svg>
