<svg viewBox="0 0 200 200" xmlns="http://www.w3.org/2000/svg"><image height="200" image-rendering="optimizeQuality" preserveAspectRatio="none" width="200"/><path d="m53.507079 177.01145c-.350339-.56686.05106-.7345.940983-.39301 1.732417.66479 2.049387 1.38156.610955 1.38156-.517541 0-1.215913-.44485-1.551938-.98855zm90.305421.30544c.72187-.28887 1.58437-.25335 1.91667.0789.33229.33229-.25834.56864-1.3125.52522-1.16495-.048-1.4019-.28494-.60417-.60416zm-118.305421-48.30544c-.350339-.56686.05106-.7345.940983-.39301 1.732417.66479 2.049387 1.38156.610955 1.38156-.517541 0-1.215913-.44485-1.551938-.98855z" fill="#d1ebf8"/><path d="m146.96747 43.261758c-.76069-1.518967-2.86456-4.637492-4.67527-6.930055s-3.2922-4.500087-3.2922-4.905609-1.11162-2.194718-2.47026-3.975991l-2.47026-3.238679 3.72026-.65903c2.04614-.362466 4.4706-.878568 5.38769-1.146892 1.24943-.365563 3.07414 1.902351 7.2789 9.046831 7.29245 12.390931 7.22629 12.168792 3.86331 12.971777-1.5453.368976-3.51827.879787-4.38437 1.135136-.99426.293133-2.08455-.553758-2.9578-2.297488z" fill="#b5e6fc"/><path d="m42 152.51113c0-.7662.45734-1.67575 1.016312-2.02121.558971-.34546.821824-.9428.584117-1.32742s1.329953-.53126 3.483688-.32587c2.153736.20539 3.915883.67911 3.915883 1.05271 0 .37359-2.025 1.42978-4.5 2.34708-3.715065 1.3769-4.5 1.42482-4.5.27471zm139.72862-53.246303c.26695-.695655.03123-1.264827-.52381-1.264827s-1.49234-1.2375-2.08289-2.75-3.55114-6.125-6.57908-10.25c-5.76477-7.853396-9.13529-13.740883-8.32843-14.54774.26192-.261924 2.20428-.583334 4.31635-.714243l3.84012-.238017 8.27447 14c4.55096 7.7 8.29251 14.515234 8.31456 15.144965.022.62973-1.70518 1.311402-3.83828 1.514825-2.8252.26943-3.74657.0264-3.39301-.894963zm-40.22288-55.046252c-1.09685-1.495216-2.03571-2.943575-2.08637-3.218575-.39678-2.15398-1.82842-3.874496-2.77415-3.333931-.62987.36002-.80142.276135-.38122-.186411s-.4112-2.067636-1.84755-3.566866-2.56765-2.992929-2.514-3.319332c.30042-1.82766-.01-2.645216-.81467-2.147714-.50171.310079-.79848-.225863-.65948-1.190983.43315-3.007413 4.14234-2.666479 6.46412.594154 1.15917 1.627903 2.10758 3.264624 2.10758 3.637157s1.4625 2.553066 3.25 4.845629c4.33464 5.559407 5.94268 8.547512 5.22486 9.708974-1.10282 1.7844-3.96425.910935-5.96912-1.822102z" fill="#a7e1fb"/><path d="m130.98788 39.713762c-3.56833-5.474161-6.63696-10.346419-6.81916-10.827239-.18221-.48082.90823-1.345479 2.42319-1.921466 2.94807-1.120856 5.31668.20634 5.76009 3.227546.12008.818117 1.87635 3.42452 3.90283 5.792007 2.02648 2.367486 3.47811 4.638478 3.22585 5.046649-.25226.40817.23595 1.318605 1.08493 2.02319.84897.704584 1.94791 2.036549 2.44208 2.959921.72311 1.351147.27089 1.871477-2.31671 2.665636l-3.21522.986777z" fill="#a6daf6"/><path d="m44.263311 146.67043c1.275703-3.65422 1.814361-3.81205 11.820278-3.46356l8.416411.29313-4.961772 2.79796c-3.574832 2.01587-6.541222 2.85444-10.612251 3l-5.650481.20204zm128.736689-45.06804c0-.78965-.3375-1.58572-.75-1.769057-1.01952-.453118-6.49109-7.833333-5.8075-7.833333.29935 0-.46525-1.150979-1.69911-2.557731-1.23387-1.406752-3.14339-4.056269-4.24339-5.887816-1.1-1.831546-3.00614-4.678607-4.23587-6.3268l-2.23588-2.996715 2.73588-1.048421c6.43245-2.464999 6.89569-2.409141 8.62779 1.040346.90506 1.802425 4.11744 6.652137 7.13863 10.777137s5.95501 8.587184 6.51961 9.915964c.56459 1.32878 2.02178 3.301866 3.23819 4.384634 1.21641 1.082772 1.53665 1.743892.71165 1.469162s-2.175-.17256-3 .22704c-3.62251 1.75459-7 2.04679-7 .60559zm-51.36843-59.201992c-3.77764-5.773279-6.70264-10.627527-6.5-10.787219.20264-.159691 2.1607-.984837 4.35125-1.833656l3.98281-1.543309 6.73233 10.131893c3.70278 5.572541 6.74802 10.492355 6.76719 10.93292.0346.794657-6.18226 3.746171-7.68303 3.647607-.43017-.02825-3.87291-4.774958-7.65055-10.548236z" fill="#97d8f7"/><path d="m46.969566 141.53667c1.679274-2.0234 20.448722-2.29539 19.782552-.28667-.287399.8666-3.580381 1.33793-10.736212 1.53667-9.189879.25524-10.181823.11817-9.04634-1.25zm116.267264-41.961477c-2.33026-2.983643-4.23683-5.813142-4.23683-6.287774s-1.33171-2.420969-2.95936-4.325193-2.97765-3.977136-3-4.606471c-.0223-.629334-1.30602-2.49884-2.8526-4.154457l-2.81196-3.010213 3.20036-1.526147c3.18108-1.516948 3.21769-1.503962 6.07455 2.154457 1.58081 2.024333 3.47429 4.856862 4.20774 6.29451.73346 1.437648 2.4335 3.800148 3.77788 5.25s2.17822 2.636095 1.85297 2.636095c-.71563 0 4.69734 7.360852 5.76042 7.833333 1.68115.747177.58475 3.278997-1.8151 4.191417-1.4108.53639-2.65423.97525-2.76317.97525s-2.10465-2.44116-4.4349-5.424807zm-152.357738-2.325193c.522203-.9625 4.28505-7.455298 8.361882-14.42844l7.412422-12.67844 6.423302 2.26148c5.835449 2.054512 12.362999 5.124534 15.711838 7.389553 2.612208 1.766792-15.956414 12.322222-29.392019 16.708046-9.129026 2.980014-9.7584926 3.035279-8.517425.747801z" fill="#89d8f9"/><path d="m67 140.97622c0-.75923-3.154956-1.00924-10.002421-.79263-10.225714.32347-11.925542-.42768-6.716101-2.96785 1.769739-.86294 6.093852-1.19101 13.180675-1l10.546881.28426-3.504517 2.79263c-1.927484 1.53595-3.504517 2.29356-3.504517 1.68359zm93.40183-36.0847c-.94149-1.04033-1.37706-1.89152-.96792-1.89152.63872 0-.64972-1.82255-5.44898-7.707794-.54171-.664286-.98493-1.595787-.98493-2.070001s-1.575-2.702241-3.5-4.951171c-1.925-2.248929-3.5-4.431995-3.5-4.851258 0-.419262-.72551-1.563977-1.61225-2.54381-1.50474-1.662718-1.42651-1.828133 1.17306-2.480584 2.31521-.58108 3.17721-.209299 5.10728 2.202775 1.27709 1.596014 2.3425 3.351843 2.36758 3.901843.0251.55 1.37732 2.558002 3.00497 4.462226s2.95936 3.864802 2.95936 4.356839c0 .492038 1.7945 3.14841 3.98777 5.903048 2.19328 2.754637 3.77529 5.352247 3.51559 5.772457-1.08578 1.75683-4.47009 1.69967-6.10153-.10305zm-40.9557-47.804362c.3103-.502063-.67565-1.885441-2.19098-3.074173s-2.15943-1.855864-1.43133-1.482515c1.08676.557255 1.09569.313504.0499-1.361144-.70068-1.121977-1.6339-1.817509-2.07382-1.545626-.43997.271884-.7999-.216872-.7999-1.086123 0-1.904144-4.90848-9.537577-6.13289-9.537577-2.46541 0-.31846-2.868022 3.55608-4.750419l4.42318-2.148949 6.80303 10.199684c3.74166 5.609826 7.14785 10.449155 7.56931 10.754064s-1.26738 1.542409-3.75296 2.75c-4.78848 2.326421-6.9492 2.786869-6.01962 1.282778z" fill="#86cbf2"/><path d="m54.5 134.10801c4.754244-2.92282 5.516088-3.07319 15.5-3.05936l10.5.0145-2.805764 2.4684c-2.615301 2.30089-3.543133 2.46845-13.668212 2.46845-5.974347 0-11.686753.26593-12.694237.59096-1.007483.32503.418213-.7923 3.168213-2.48295zm97.82448-24.76582c.3618-.3618-.9132-2.57503-2.83333-4.9183s-3.49115-4.666251-3.49115-5.162188c0-.495938-1.61007-2.782704-3.57792-5.081703-1.96786-2.299-3.28722-4.179999-2.93191-4.179999s-.28462-1.306967-1.42208-2.90437c-1.13745-1.597404-2.06809-3.127955-2.06809-3.401225 0-.273269 1.53849-1.404583 3.41886-2.514029 3.24754-1.916098 3.49809-1.929629 5-.270036.86963.960928 1.58114 2.090174 1.58114 2.509436 0 .419263 1.575 2.602329 3.5 4.851258 1.925 2.24893 3.5 4.476957 3.5 4.951171s.44322 1.405715.98493 2.070001c4.79926 5.885244 6.0877 7.707794 5.44898 7.707794-.40914 0 .0412.86756 1.00085 1.92791 1.67803 1.8542 1.62851 1.98801-1.29535 3.5-2.9645 1.533-8.12613 2.22547-6.81493.91428zm-41.39867-49.09219c-.77669-1.5125-2.20273-3.477783-3.16898-4.367295-.96626-.889513-1.75683-2.079423-1.75683-2.644245s-1.29079-2.408747-2.86843-4.097611c-1.57763-1.688864-2.59388-3.345205-2.25833-3.680758.33556-.335553-.17365-1.048706-1.13157-1.584784-2.545789-1.424695-2.175823-2.267559 2.00833-4.575413 3.46567-1.911558 3.86901-1.944476 5.31963-.434141 2.89372 3.012851 5.93037 7.927329 5.93037 9.597634 0 .910056.35993 1.432197.79985 1.160313.43992-.271883 1.37314.423649 2.07382 1.545626 1.04619 1.67521 1.03728 1.912225-.0499 1.32557-.7281-.392915.0262.443812 1.67618 1.859394 1.65 1.415581 2.55 2.596858 2 2.62506-.55.0282-.40315.42967.32633.892153.97518.618258.36437 1.408442-2.30716 2.984687-4.62225 2.72719-4.89449 2.70216-6.59336-.60619zm42.82419-14.912281c.6875-.277412 1.8125-.277412 2.5 0 .6875.277413.125.504386-1.25.504386s-1.9375-.226973-1.25-.504386z" fill="#78c9f2"/><path d="m62.027494 129.25c1.81087-1.2817 4.947782-1.84273 11.722506-2.09653 5.0875-.19059 9.25.0569 9.25.55 0 2.56186-2.879927 3.29653-12.922506 3.29653-10.296675 0-10.469442-.0376-8.05-1.75zm75.390426-27.31625c-8.41917-12.620971-8.6187-13.054413-6.88911-14.96558.97964-1.082494 2.38642-1.96817 3.12618-1.96817.73975 0 1.35259-.5625 1.36186-1.25.0172-1.279881 3.70484 3.943806 4.05913 5.75.10789.55 1.70992 2.768499 3.56009 4.929999 1.85016 2.161499 3.36393 4.335765 3.36393 4.831703 0 .495937 1.62921 2.889938 3.62046 5.319998 1.99126 2.43007 3.22876 4.44993 2.75 4.48859-.47875.0387-.0627.38914.92454.77887 1.4512.57286.93292 1.12741-2.7059 2.89529l-4.5009 2.18671zm-4.41792-48.776842c0-1.736316 18.16678-7.572694 21.79954-7.003461 2.18904.34301 2.1937.382331.45605 3.846553l-1.75559 3.5-10.25.284983c-5.72407.159148-10.25-.118181-10.25-.628075z" fill="#68c6f2"/><path d="m131.75479 105.09585-8.69489-12.904158 3.6412-2.777279c2.00266-1.527503 3.30268-2.22955 2.88894-1.560104-.45707.739566 2.65717 6.328157 7.93659 14.242411 8.2036 12.29782 8.5851 13.10382 6.83111 14.43245-1.02176.77397-2.31906 1.42153-2.8829 1.43903s-4.93786-5.77507-9.72005-12.87235zm-12.75479-44.581455c0-.267082 2.74175-1.869635 6.09278-3.561229 5.63829-2.846199 6.94372-3.089705 17.50038-3.264395 6.27418-.103824 11.40743-.131227 11.40722-.0609-.00021.07033-.68142 1.757832-1.5138 3.75l-1.51342 3.622129h-15.98658c-8.79262 0-15.98658-.218522-15.98658-.485605z" fill="#59c3f1"/><path d="m66.855817 125.75659c1.970136-1.29899 4.732203-1.74509 10.835166-1.75 7.661729-.006 10.795436.95672 8.244531 2.53326-.603411.37293-5.738134.74153-11.410495.8191-10.130709.13855-10.26655.11017-7.669202-1.60236zm33.249473-59.50659c-1.686443-2.6125-4.875042-7.424887-7.085775-10.694194s-4.019515-6.210507-4.019515-6.536001c0-.325493 1.847869-2.012024 4.106375-3.747847 3.462646-2.661291 4.403634-2.9704 6.002608-1.971824 1.042927.651319 1.764667 1.578923 1.603857 2.061342-.1608.482418.96302 2.221029 2.49739 3.863579 1.53437 1.642551 2.78977 3.448583 2.78977 4.013405s.79057 1.754732 1.75683 2.644245c.96625.889512 2.39229 2.854795 3.16898 4.367295.77668 1.5125 1.86738 2.75 2.42378 2.75.55639 0-1.40092 1.8-4.34959 4s-5.46634 4-5.59483 4-1.61344-2.1375-3.29988-4.75zm-51.10529-33.82193c0-1.607858 5.366025-9.42807 6.469295-9.42807 3.194623 0 22.530705 7.85264 22.530705 9.150019 0 .467489-6.525.849981-14.5.849981s-14.5-.257369-14.5-.57193z" fill="#68baea"/><path d="m78.5 124c-7.977966-.44322-8.743717-.64636-6.743181-1.78883 1.489167-.85044 5.183269-1.19059 10.860278-1 7.830843.26289 8.4364.42353 6.743181 1.78883-1.46105 1.17809-3.791739 1.3927-10.860278 1zm11.487073-58.65579c-7.619533-11.152301-7.820033-12.051238-3.349917-15.019284 1.885227-1.251744 2.3356-.880832 6.444855 5.307781 2.429894 3.659464 5.65138 8.501658 7.158859 10.760432 1.50748 2.258773 3.30748 3.966084 4 3.794023.69252-.17206-.31587 1.047151-2.24087 2.70936-1.925 1.662208-3.77734 3.040485-4.116311 3.062837-.338972.02235-3.892449-4.754464-7.896616-10.615149zm-43.95527-27.59421c.01749-.6875.615941-2.018819 1.329888-2.958486 1.11793-1.471377 3.453695-1.726837 16.830239-1.840705 13.984976-.119047 15.944343.07807 19.670113 1.978811 2.275876 1.161065 4.137957 2.551882 4.137957 3.090704 0 .608467-7.957104.979676-21 .979676-16.150295 0-20.992655-.288673-20.968197-1.25z" fill="#57b5e9"/><path d="m75 119.5c.937824-1.13001 3.46484-1.5 10.244889-1.5 7.886618 0 8.845996.18556 7.755111 1.5-.937824 1.13001-3.46484 1.5-10.244889 1.5-7.886618 0-8.845996-.18556-7.755111-1.5zm53.24874-10.25c-4.3427-6.4625-8.18961-12.252359-8.5487-12.866353-.35908-.613994.20189-1.889908 1.24661-2.835363 1.83328-1.659097 2.17802-1.303255 9.89125 10.209756 4.39547 6.56082 8.65824 12.59525 9.47283 13.40983 1.30808 1.30809 1.26122 1.61836-.40127 2.6566-1.03528.64654-2.30591 1.17553-2.82362 1.17553s-4.49441-5.2875-8.8371-11.75zm-33.526499-35.261431c-1.907781-2.228126-2.261631-3.439964-.727618-2.491892.980253.60583 3.371377 4.503323 2.762802 4.503323-.172119 0-1.087952-.905144-2.035184-2.011431zm-4.849796-7.738569c-1.243871-1.586056-1.208501-1.621426.377555-.377555.9625.754844 1.75 1.542344 1.75 1.75 0 .823034-.821186.293303-2.127555-1.372445zm23.127555-1.152275c0-.5755 1.32765-1.732921 2.95034-2.572045 2.30977-1.194428 6.48928-1.510343 19.25-1.455043l16.29966.070637-4.5 2.145646c-3.82829 1.825367-6.70173 2.198751-19.25 2.501408-9.82905.237072-14.75.00667-14.75-.690603zm-25.721855-2.347725c-1.499183-1.938442-2.442242-3.75-1.952172-3.75.244204 0 1.181135 1.125 2.08207 2.5 1.685833 2.572906 1.591948 3.476346-.129898 1.25z" fill="#48b7eb"/><path d="m126.5 115.26333c-10.40641-15.06482-10.98474-16.207163-9.13936-18.052537.87546-.87546 1.75375-1.393531 1.95177-1.151269.19801.242262 4.21017 6.136526 8.91591 13.098376 6.18495 9.15026 8.25325 12.96053 7.46378 13.75-2.0245 2.0245-3.17237 1.06988-9.1921-7.64457zm-47.5.73667c2.02256-1.58207 4.10515-1.95977 10.904988-1.97776 8.342199-.0221 8.391466-.007 6.595012 1.97776-1.560599 1.72444-3.063075 1.99694-10.904988 1.97776l-9.095012-.02223zm28-45.829079c0-.569103 1.2375-1.852875 2.75-2.852827 2.42233-1.601466 4.34632-1.758518 16.14741-1.318094l13.3974.5-3.8974 1.942583c-3.03107 1.510775-6.62041 2.033774-16.14741 2.352827-8.03845.269202-12.25.054503-12.25-.624489z" fill="#36b6eb"/><path d="m84.59385 69.812699-7.581457-11.196989 2.168118-2.307855c2.759632-2.937494 3.068179-2.90221 4.584902.524305.6895 1.557688 3.04935 5.23896 5.244111 8.180606 2.194762 2.941645 3.990476 5.778071 3.990476 6.303169s1.098655 1.972923 2.441456 3.217388c2.269341 2.103155 2.322213 2.364879.75 3.712567-.930301.797446-2.214512 1.745528-2.853803 2.10685-.719416.406608-4.051376-3.609835-8.743803-10.540041zm8.818463-25.562699c.556562-.985803-4.696364-1.25-24.853296-1.25-14.057459 0-25.559017-.231106-25.559017-.513569s.487459-1.294963 1.083243-2.25c.985786-1.580208 3.12252-1.710035 23.75-1.443032 20.468643.264947 22.909195.477906 25.166757 2.196009 2.119421 1.612971 2.287377 2.101117 1.103296 3.2066-1.022094.954248-1.207423.968729-.690983.05399z" fill="#44ade5"/><path d="m123.2615 123.2192c-2.1918-3.14556-6.10375-8.83111-8.69323-12.63456l-4.70814-6.91536 4.25555-4.084639c2.34055-2.246553 3.67747-3.309847 2.97092-2.362877-1.48844 1.994935-.63641 3.606596 9.61796 18.192836 6.50584 9.25417 6.68148 10.23806 2.25097 12.6092-1.38723.74242-2.45919-.1621-5.69403-4.8046zm-40.7615-10.2192c.339919-.55 4.443034-1 9.118034-1 5.412023 0 8.275474.36329 7.881966 1-.339919.55-4.443034 1-9.118034 1-5.412023 0-8.275474-.36329-7.881966-1zm19.5-38.964816c0-2.185653 4.70116-3.135426 16.4818-3.329811l12.44652-.205373-4.21416 2.204813c-3.5234 1.843412-5.89428 2.212219-14.46416 2.25-5.9487.026225-10.25-.359688-10.25-.919629z" fill="#29b4ea"/><path d="m81.03869 73.351918c-5.599645-8.121543-7.110793-11.014058-6.368724-12.190481.535106-.84832 1.39077-1.664729 1.901477-1.814244.510706-.149515 4.228131 4.664846 8.260944 10.69858 4.375592 6.546586 7.803228 10.734811 8.5 10.386138.642187-.321357.10526.349998-1.193171 1.491901-1.298431 1.141904-2.675356 2.076188-3.059833 2.076188-.384476 0-4.002788-4.791637-8.040693-10.648082zm.96131-19.729473c0-.207656.7875-.995156 1.75-1.75 1.586056-1.243871 1.621426-1.208501.377555.377555-1.306369 1.665748-2.127555 2.195479-2.127555 1.372445zm-35.25-7.393626c-2.6125-.868975-4.75-1.950949-4.75-2.404387 0-.453437 11.778441-.824432 26.174314-.824432h26.174314l-2.348628 2.5-2.348628 2.5-19.075686-.095613c-14.509288-.072725-20.212756-.473827-23.825686-1.675568z" fill="#37aae4"/><path d="m83.339629 111.75c1.484111-1.38006 3.667832-1.75 10.330172-1.75 5.377511 0 8.223589.36348 7.830199 1-.33992.55-4.551476 1-9.359017 1s-9.178003.3375-9.712138.75c-.534136.4125-.124283-.0375.910784-1zm-6.948166-33c-3.8632-5.6375-7.310894-10.735899-7.661543-11.329775s1.922844-3.518876 5.052207-6.5c3.129362-2.981124 4.458578-4.045602 2.953811-2.365506-1.504766 1.680095-2.735938 3.399822-2.735938 3.821615s3.243921 5.471774 7.208713 11.222179c5.117673 7.422507 7.655796 10.300281 8.75 9.920925.847708-.293897.07169.818999-1.72449 2.473102-1.796177 1.654103-3.615197 3.00746-4.042268 3.00746s-3.937292-4.6125-7.800492-10.25zm20.72601-.764837c3.567827-3.077565 3.777107-3.122887 15.250197-3.302774 6.39799-.100314 11.63263-.07747 11.63252.05076-.0001.128235-2.30556 1.401371-5.12322 2.829193-4.5276 2.294304-6.12925 2.564184-13.7802 2.321979-4.76143-.150732-9.318566.06238-10.126961.473581-.808395.411202.158054-.656533 2.147664-2.372744zm-25.617473-23.992146c-7.250552-.408434-9.971916-1.031129-14-3.203439l-5-2.696455 17.75-.04656c9.7625-.02561 17.75.103125 17.75.286074 0 .18295-1.6875 1.64545-3.75 3.25-3.653964 2.842653-3.980485 2.904381-12.75 2.410382z" fill="#26a7e3"/><path d="m122.83048 128.17852c-1.39784-1.48102-2.82658-3.58955-3.17497-4.68564-.34839-1.09608-1.66419-3.11788-2.92399-4.49288-1.25981-1.375-3.52011-4.61424-5.0229-7.19832-3.44461-5.92305-3.93536-6.19777-6.90242-3.86388-1.89966 1.49427-4.42829 1.98154-11.605478 2.23637l-9.176611.32583 3.502684-3.5c3.450623-3.44798 3.638047-3.50283 12.609935-3.69029 7.93412-.16577 9.44577-.4878 11.73526-2.5l2.62801-2.30971-2.29845 2.61602-2.29845 2.61603 4.68666 6.88397c10.44429 15.34105 12.70823 18.31785 13.54019 17.80367.47853-.29575.87005-.302.87005-.0139 0 .28811-.8163.9607-1.814 1.49465-1.41898.75942-2.36743.38445-4.35552-1.72193zm-36.83048-1.67852c1.291745-1.375 2.573628-2.5 2.848628-2.5s-.556883 1.125-1.848628 2.5-2.573628 2.5-2.848628 2.5.556883-1.125 1.848628-2.5zm8.5-8.5c2.708649-2.75 5.149816-5 5.424816-5 .275004 0-1.716167 2.25-4.424816 5s-5.149816 5-5.424816 5 1.716167-2.25 4.424816-5zm-16.764432-24.597766c-.328771-.328771-.411755-1.116271-.184409-1.75.227347-.633729-.50886-2.277234-1.636016-3.652234l-2.049373-2.5 1.18393 2.5c1.117622 2.359984 1.086207 2.406819-.560932.836239-.959674-.915068-1.868055-2.786026-2.018625-4.157683-.24407-2.223423-4.171477-8.678556-5.280174-8.678556-.238652 0 .292243 1.0125 1.179768 2.25 2.312968 3.225035 3.764054 5.75 3.304498 5.75-.217873 0-2.324025-2.809311-4.680339-6.242913s-3.464203-5.571102-2.461976-4.75c1.681489 1.377607 1.737867 1.340437.729947-.481264-1.222901-2.210255.0035-5.543425 2.023317-5.499261.668149.01461 4.570655 4.976936 8.672235 11.027394 5.300757 7.819427 7.903529 10.849961 9 10.479138.84842-.286933-.01542.825739-1.919645 2.472605-3.576719 3.09332-4.285197 3.413544-5.302206 2.396535zm11.260956-7.395739c.58679-1.096428 2.410658-2.986995 4.053039-4.20126 2.63946-1.951436 4.019154-2.175053 11.883787-1.926083 5.19672.164513 9.76467-.182353 10.98214-.833924 3.68172-1.970395 2.24551-.549182-4.30686 4.261904l-6.39136 4.692868h-8.643819c-8.324554 0-8.604412-.07363-7.576927-1.993505zm-21.496524-29.480409-4-2.463667 8.25-.03121c4.5375-.01717 8.25.321767 8.25.753182 0 1.026206-5.42181 4.217081-7.154292 4.210485-.740139-.002817-3.145708-1.113773-5.345708-2.46879z" fill="#1aa4e2"/><path d="m100.40278 146.80953c-1.596528-1.71537-2.22778-2.73244-1.40278-2.26015.825.47228-.525-1.56744-3-4.53272s-4.444793-5.6446-4.377319-5.95404c.286813-1.31534-.906128-3.00547-1.752242-2.48255-.505996.31273-.813239.19764-.682764-.25574.130476-.45338-.263242-1.72433-.874929-2.82433-.981864-1.76569.04069-3.21203 8.728305-12.34563 5.412259-5.6901 10.311779-10.05434 10.887839-9.69832.57606.35603 2.27694 2.76156 3.77973 5.34563 1.50279 2.58408 3.76309 5.82332 5.0229 7.19832 1.2598 1.375 2.57133 3.4 2.9145 4.5s1.68821 3.07386 2.98896 4.38636c1.30076 1.3125 2.36502 2.72694 2.36502 3.14319 0 .78709-17.97532 16.8175-20.34481 18.14354-.86964.48667-2.38199-.35392-4.25241-2.36356zm-7.015069-45.05953c.897924-1.43716 2.569883-1.75 9.352839-1.75 7.54569 0 9.94529.84006 7.21668 2.52643-.57353.35446-4.7823.71852-9.35284.80902-7.684887.15217-8.227806.0329-7.216679-1.58545z" fill="#01a7e5"/><path d="m64.048375 89.011386c-4.426606-6.602809-8.048375-12.177313-8.048375-12.387785s2.1375-2.095586 4.75-4.189141c2.6125-2.093556 4.428333-3.438596 4.035184-2.988979-.393149.449616-.206975 1.770818.41372 2.936002 1.047152 1.965741.99809 2.010856-.68034.625604-.994881-.821102.119018 1.316398 2.475332 4.75s4.501521 6.242913 4.767127 6.242913c.265607 0-.243235-1.0125-1.13076-2.25-2.225436-3.102985-3.769223-5.75-3.353505-5.75 1.040256 0 4.959695 6.549691 5.193385 8.678556.15057 1.371657 1.058951 3.242615 2.018625 4.157683 1.647139 1.57058 1.678554 1.523745.560932-.836239l-1.18393-2.5 2.036054 2.5c1.11983 1.375 1.937532 3.128315 1.817115 3.896256-.443314 2.827177 2.064306 2.047049 6.813993-2.119852 2.680979-2.352022 4.531275-3.713904 4.11177-3.026404-.587814.963332 1.268941 1.25 8.096281 1.25 4.872457 0 9.313287-.3375 9.868507-.75s-1.00086 1.187438-3.45796 3.555418l-4.467448 4.305419-9.383743-.189271c-9.148999-.184535-9.481554-.110667-13.293666 2.95283l-3.909922 3.142104zm4.451625-24.011386c.995486-1.1 2.034975-2 2.309975-2s-.314489.9-1.309975 2-2.034975 2-2.309975 2 .314489-.9 1.309975-2zm1.5-6.089351c-2.433173-1.990218-2.437123-2.013951-.147767-.887867 1.293727.636357 3.231945.926962 4.30715.645789 1.596887-.417595 1.738883-.250915.775323.910103-1.525127 1.837666-1.939995 1.781504-4.934706-.668025z" fill="#159bdd"/><path d="m84.57072 160.23166c-1.688176-2.2604-1.716527-2.50159-.226861-1.92995 1.421925.54564 1.532959.33664.673903-1.26852-.565684-1.05699-1.588597-2.25825-2.273139-2.66945-.835597-.50195-.79359-.19162.127822.9443.846554 1.04364.95583 1.69196.285183 1.69196-.597993 0-1.553093-.87042-2.122444-1.93426-1.350959-2.52429-1.310872-3.35416.119324-2.47025.73775.45596.882095.27275.399865-.50751-.415054-.67157-1.005679-.97001-1.312499-.66319-.891112.89111-3.243351-1.51265-3.226561-3.29723.013323-1.41613.141238-1.4327.984687-.12756.533156.825.96416 1.05.957786.5-.0064-.55-1.392305-2.575-3.079849-4.5l-3.06826-3.5 2.163256 3.25c1.18979 1.7875 1.671475 3.25 1.07041 3.25-.601064 0-1.506759-1.08868-2.012655-2.41928-.505896-1.33061-1.732258-2.89193-2.725249-3.4696-.992992-.57766-1.270712-1.06399-.617157-1.08071.653555-.0167 2.678555-1.4182 4.5-3.11438 1.821445-1.69619 5.238759-4.68731 7.59403-6.64694 4.096889-3.40869 4.342024-3.48131 5.661325-1.67706.758457 1.03725 1.124387 2.2979.813179 2.80145s-.09346.62359.483891.26677c.868846-.53697 2.232383 1.32934 2.440036 3.33975.0284.275 1.911857 2.72932 4.185451 5.45404 2.273593 2.72472 3.458806 4.56762 2.633806 4.09534-.825-.47229-.193639.54489 1.40302 2.2604 1.59667 1.71551 3.39667 2.87106 4 2.56789 1.97762-.99374-3.78265 3.56918-9.641711 7.63755-3.156279 2.19163-6.156279 3.98478-6.666666 3.98478s-1.077976.40835-1.26131.90744c-.183333.4991-1.201509-.25501-2.262613-1.67578zm31.42928-20.60922c0-.20765.7875-.99515 1.75-1.75 1.58606-1.24387 1.62143-1.2085.37756.37756-1.30637 1.66575-2.12756 2.19548-2.12756 1.37244zm-12.93334-39.62244-8.433336-.5 5.291492-4.75 5.291494-4.75h8.89184c4.89052 0 8.89184.3375 8.89182.75-.00003.681903-4.28452 4.413755-9.47173 8.25-1.57012 1.16119-3.93309 1.38706-10.46158 1zm-36.347883-5.141766c-2.443487-4.292534-1.705501-4.493609 1.052203-.286688 1.236074 1.88565 1.905769 3.425609 1.488213 3.422131-.417556-.0035-1.560744-1.414427-2.540416-3.135443zm-7.938211-11.928921c-2.031778-3.261122-3.493184-5.929313-3.247568-5.929313.736479 0 7.804265 10.99607 7.355946 11.444389-.22783.227831-2.0766-2.253954-4.108378-5.515076z" fill="#019ce1"/><path d="m60.25 167.99365c-1.7875-2.73373-3.25-5.3775-3.25-5.87505 0-.49754-.675-1.16364-1.5-1.48023-.825-.31658-1.5-1.08125-1.5-1.69926s-.893869-2.26002-1.986375-3.64892c-1.908987-2.42688-1.871807-4.93861.05547-3.74748.511999.31643.930905.02377.930905-.65036s.257646-.96804.572546-.65314c.314901.3149 4.129911-1.6338 8.4778-4.33044 4.530275-2.80977 8.798787-4.76663 9.998189-4.58359 2.089052.31881 6.861077 5.28077 6.900189 7.17482.01136.55-.415568.325-.948724-.5-.843449-1.30514-.971364-1.28857-.984687.12756-.0149 1.58404 2.861901 4.70619 3.721715 4.03911.236301-.18334.729639.001 1.096305.41032.366667.40901.104167.41996-.583333.0243-1.521141-.87538-1.588522-.10236-.214816 2.46443.569351 1.06384 1.524451 1.93426 2.122444 1.93426.670647 0 .561371-.64832-.285183-1.69196-.921412-1.13592-.963419-1.44625-.127822-.9443.684542.4112 1.707455 1.61246 2.273139 2.66945.866404 1.61889.749037 1.81981-.744623 1.27474-1.690314-.61684-1.691394-.55372-.02314 1.35125.9625 1.09906 1.75 2.2814 1.75 2.62741 0 .99391-8.504756 5.71738-14.170638 7.87025l-5.160427 1.9608-2.410562-2.80882c-1.986881-2.31514-2.133547-2.37425-.834467-.33631.866852 1.35987 1.576094 2.82237 1.576094 3.25 0 1.91657-1.751004.35768-4.75-4.22886zm-3.25-9.99365c-1.742432-2.2-3.393059-4-3.668059-4s.925627 1.8 2.668059 4 3.393059 4 3.668059 4-.925627-1.8-2.668059-4zm18.408043-13.5c-1.47095-2.24495-3.124925-3.60946-2.121252-1.75.222654.4125.685088 1.5375 1.027632 2.5s1.097304 1.75 1.677245 1.75c.583617 0 .323021-1.11628-.583625-2.5zm-18.147703-34.694c-.127953-1.69861.07631-1.78205 1.546115-.63159 1.525183 1.19381 1.556087 1.15039.310866-.43674-1.127837-1.43752-1.680766-1.53575-3-.53297-.889526.67615-1.273521.8254-.85332.33166.4202-.49373-.4798-2.23599-2-3.87169-1.520201-1.6357-2.089001-2.60204-1.264001-2.14744 1.083887.59726 1.014535.27156-.25-1.17408-2.243077-2.564327-2.268463-4.003931-.03907-2.215595 1.186268.951585 1.035963.409391-.490146-1.768086-1.210591-1.727292-2.76801-3.077292-3.46093-3s-1.261605-.084469-1.263744-.359469c-.0021-.275-1.045282-1.9625-2.318094-3.75-2.39817-3.367919-1.978608-4.585435.516908-1.5 1.261385 1.559566 1.288217 1.4892.24658-.646639-.98094-2.01138-.887417-2.554125.58179-3.376335.962841-.538833 3.475197-2.537747 5.583012-4.442032l3.832392-3.462336 4.021151 6.338671c2.211633 3.486269 4.037001 5.888671 4.056374 5.338671.01937-.55 1.117533 1.106385 2.440357 3.680857 1.322823 2.574471 3.348005 5.623728 4.500404 6.776127l2.09527 2.095266 3.937861-3.164547c3.831132-3.078783 4.184746-3.159125 13.046952-2.964333 5.827585.128091 9.623132-.226397 10.536012-.98402 3.511691-2.914441.879341.147504-4.807379 5.591953-3.428865 3.282787-5.02721 4.618697-3.551877 2.968697l2.682422-3-9.499812.17155-9.499812.171549-7.302692 5.748441c-8.022167 6.31479-10.111198 7.16678-10.333589 4.21446zm-1.464011-5.76052c-.671341-1.07499-1.414279-1.76086-1.650975-1.52417-.428595.4286 1.750732 3.47869 2.485565 3.47869.212316 0-.16325-.87953-.83459-1.95452zm-7.533503-7.206468c-.12125-1.609633.122652-1.853534.988093-.988093.756822.756822.811779 1.486383.160988 2.137174-.65079.65079-1.043048.258531-1.149081-1.149081zm56.237174-6.728087c1.1-1.295035 4.475-4.21228 7.5-6.482767l5.5-4.128158 11 .552327c6.05.303779 10.44091.641279 9.75758.75-.68334.10872-4.14425 2.285192-7.69091 4.836605l-6.44849 4.638931-9.13217-.200726c-6.21621-.136633-9.66762.212635-10.80909 1.093835-1.09841.847959-.98695.482259.32308-1.060047zm-44.472786-21.581957-2.254997-2.400335 2.067211-2.90313c4.364864-6.129887 6.715391-6.99908 10.459412-3.867751l2.56141 2.142248-5.289019 4.714652-5.289019 4.714651zm3.472786-6.533964 3-3.495004-3.25 2.937091c-1.7875 1.6154-3.25 3.3779-3.25 3.916667 0 .538766.1125.789827.25.557913.1375-.231915 1.6-1.994415 3.25-3.916667z" fill="#0194db"/><path d="m48.587978 166.44552c-3.243762-5.64717-5.940551-10.59984-5.992864-11.00592-.05231-.40609 1.538873-1.30404 3.535968-1.99545 3.478529-1.2043 3.720106-1.1367 5.75 1.60888 1.165405 1.57629 2.118918 3.34833 2.118918 3.93786s.675 1.3309 1.5 1.64748c.825.31659 1.5.99522 1.5 1.50807s1.562326 3.25238 3.471836 6.08784 3.37201 5.22752 3.25 5.3157c-.12201.0882-2.250047.83594-4.728973 1.66172l-4.507136 1.5014zm15.208532 3.54816c-2.19203-3.85223-1.541607-3.84881 1.20349.00632 1.174904 1.65 1.768046 2.99715 1.318094 2.99368-.449952-.003-1.584664-1.35348-2.521584-3zm-7.79651-11.99368c-1.742432-2.2-2.943059-4-2.668059-4s1.925627 1.8 3.668059 4 2.943059 4 2.668059 4-1.925627-1.8-3.668059-4zm-14.443296-39.22251c-2.523394-3.60265-1.769564-4.53679 1.030906-1.27749l2.577676 3-2.15911-3.26176c-1.18751-1.79396-2.552121-3.01886-3.032469-2.72199s-1.345938-.34325-1.923534-1.4225c-1.525933-2.85123-1.291074-3.52966.680662-1.96619.951959.75484.239146-.54006-1.584029-2.87756-1.823176-2.3375-3.571796-4.25-3.885823-4.25s.105339.7875.931925 1.75c2.200971 2.56287 3.038114 4.25 2.108827 4.25-.448964 0-2.073955-2.08214-3.611092-4.62697-2.042875-3.38212-2.360284-4.46024-1.179772-4.00723 1.267835.48651 1.156904-.0236-.516019-2.37303-1.172072-1.646024-2.415398-2.99277-2.762946-2.99277s-.091906.54.568094 1.2 1.2 1.663036 1.2 2.228969c0 .565932-1.017046-.05501-2.260101-1.379864l-2.260102-2.408832 8.010102-4.08876c5.917723-3.020706 8.385531-3.822679 9.447332-3.070137 1.131584.802 1.297756.646463.781385-.731376-.912919-2.435949-.02526-2.19149 1.345968.370677.797678 1.490475.808134 1.918692.03518 1.440983-1.235012-.763279-1.509944.694831-.349768 1.855007.4125.4125.760855 1.275.774123 1.916666.01327.641667.805202 1.103428 1.759854 1.026136.954653-.07729 2.726216 1.272708 3.936807 3 1.526109 2.177477 1.676414 2.719671.490146 1.768086-2.229393-1.788336-2.204007-.348732.03907 2.215595 1.264535 1.44564 1.333887 1.77134.25 1.17408-.825-.4546-.2562.51174 1.264001 2.14744 1.5202 1.6357 2.4202 3.37796 2 3.87169-.420201.49374-.03621.34449.85332-.33166 1.319234-1.00278 1.872163-.90455 3 .53297 1.245221 1.58713 1.214317 1.63055-.310866.43674-1.469801-1.15046-1.674068-1.06702-1.546115.63159.150011 1.99145 1.243645 2.25999 3.48966.85686.687504-.42949 1.250004-.52025 1.250004-.20169 0 1.11142-15.271241 10.53883-17.071601 10.53883-.998245 0-2.515508-1.00013-3.371695-2.22251zm7.694215-22.926571c-.865441-.865441-1.109343-.62154-.988093.988093.106033 1.407612.498291 1.799871 1.149081 1.149081.650791-.650791.595834-1.380352-.160988-2.137174zm32.695248 15.889591 3.446167-3.74051h-9.996167c-6.441463 0-10.422895.42673-11.196167 1.2-.66.66-1.2.9553-1.2.65621 0-.29908 2.656324-2.67434 5.902942-5.27836l5.902941-4.734583 9.479924-.171633 9.479923-.171634-4.78194 5.5c-2.630067 3.025-6.064856 6.62073-7.632865 7.99051-2.116102 1.84858-1.962679 1.5264.595242-1.25zm-26.966223-7.26468c-.69572-.83829-1.071285-1.71782-.83459-1.95452.236696-.23669.979634.44918 1.650975 1.52417 1.451813 2.32472.967628 2.57996-.816385.43035zm64.520056-26.098818c3.20098-2.495772 12.92936-7.887676 13.75-7.620861.4125.134117.75-.152358.75-.636611s4.76536-.956582 10.58968-1.04962c6.58568-.105199 10.36437.195413 9.99377.79505-.32775.530315-.0306 1.166037.66032 1.412715 1.73207.618393 1.38417.830695-8.24377 5.030655-8.06256 3.5171-9.04037 3.705868-19 3.667988-9.7033-.0369-10.34825-.158255-8.5-1.599316zm-65.440456-12.910964c-5.685706-3.527156-7.964456-6.42839-8.024109-10.216048-.019489-1.2375-.445617-2.25-.946951-2.25-1.496318 0-.56617-3.177539 1.337655-4.56965.972543-.711141 2.423931-1.041378 3.225307-.733861 1.176799.45158 1.013848 1.063476-.847199 3.181316l-2.304247 2.622195 2.808047-2.478847 2.808048-2.478846 5.29772 2.86575c2.913747 1.576163 6.152868 3.591644 7.198049 4.478847 1.04518.887203 1.703784 1.494296 1.463564 1.349095-.688908-.416409-6.075428 5.025749-6.075428 6.138183 0 .55 1.440859-.321691 3.201909-1.937091l3.201909-2.937091-2.951909 3.566921c-1.62355 1.961806-3.233159 3.151263-3.576909 2.643237-.360024-.532077-.926475-.435887-1.33609.226884-.391099.632812-.167249 1.805856.497445 2.606763 1.62243 1.954909 1.320729 1.828952-4.976811-2.077757z" fill="#008bd5"/><path d="m162.48436 127.83325c-10.36314-3.0764-20.62196-7.96253-19.51596-9.29517 1.67468-2.01787 20.18219-11.18892 27.0316-13.39499 8.10084-2.60914 19-5.146409 19-4.4231 0 .29844-3.7125 6.98119-8.25 14.85055-9.16762 15.89936-8.20108 15.25047-18.26564 12.26271zm-136.077957.31819c.28844-.4667-.377532-1.8167-1.479939-3-1.102406-1.18329-1.708434-2.15144-1.34673-2.15144s-.501305-1.51946-1.917799-3.37658c-1.416493-1.85712-2.388044-3.56398-2.159001-3.79302s-.690417-1.70458-2.043246-3.27896c-1.352828-1.57439-2.459688-3.46753-2.459688-4.20698s-.476558-1.34446-1.059017-1.34446-.780902-.45-.440983-1 .06648-1-.60765-1c-.674126 0-.929588-.2961-.567693-.65799.361895-.3619.140967-1.28097-.490951-2.04238-1.602399-1.93078-.392965-2.705828 7.416119-4.752542l6.749825-1.769088 1.966906 2.361c1.081798 1.29855 1.981877 1.8885 2.000175 1.311s-.506731-1.59-1.166731-2.25-.915642-1.2-.568094-1.2 1.590874 1.346746 2.762946 2.99277c1.672923 2.3494 1.783854 2.85954.516019 2.37303-1.180512-.45301-.863103.62511 1.179772 4.00723 1.537137 2.54483 3.162128 4.62697 3.611092 4.62697.929287 0 .09214-1.68713-2.108827-4.25-.826586-.9625-1.245952-1.75-.931925-1.75s2.062647 1.9125 3.885823 4.25c1.823175 2.3375 2.535988 3.6324 1.584029 2.87756-1.971736-1.56347-2.206595-.88504-.680662 1.96619.577596 1.07925 1.443186 1.71937 1.923534 1.4225s1.844959.92803 3.032469 2.72199l2.15911 3.26176-2.577676-3c-2.674093-3.11221-3.368844-2.82827-1.522238.62215.585954 1.09486 2.020027 2.34381 3.186828 2.77544 1.768168.65409.92388 1.2424-5.069873 3.53274-3.95523 1.51138-7.851278 2.84482-8.657883 2.9632-.806605.11839-1.77958.52827-2.162166.91086-.989139.98914-2.584615.86438-1.955875-.15295zm28.143597-11.97785c.5225-.45452 3.26029-2.47952 6.083977-4.5 5.089828-3.642 5.218818-3.67339 15-3.65041l9.866023.02318-4.69179 4.47682-4.691791 4.47682h-11.258209c-6.192016 0-10.83071-.37188-10.30821-.82641zm86.95-49.617273c8.75929-3.993915 9.20947-4.018824 10.97369-.607202l1.57767 3.050885-8.77568-.08193-8.77568-.08193 5-2.279817zm-93-15.556317c.995486-1.1 2.034975-2 2.309975-2s-.314489.9-1.309975 2-2.034975 2-2.309975 2 .314489-.9 1.309975-2zm-5.91655-2.643128c-.863466-2.250157-.142921-2.714106 2.992872-1.927072 2.540816.637704 2.579204.738343.796571 2.088293-2.439357 1.847271-3.028328 1.822213-3.789443-.161221z" fill="#0082d1"/><path d="m135.27142 174.51652c-10.89678-2.81629-18.71364-6.14577-30.15682-12.84485l-8.385394-4.90899 3.385394-2.62344c1.86197-1.4429 6.70921-5.50945 10.77165-9.0368 6.6044-5.73449 7.59831-6.28092 9.38959-5.16225 9.63063 6.01443 28.94027 14.05981 33.74482 14.05981 1.02372 0 2.13626.44488 2.47231.98862.46527.75283-11.08899 22.19424-11.83491 21.96221-.0869-.027-4.31092-1.12248-9.38664-2.43431zm-88.373605-39.76652c-.644903-1.2375-2.253158-4.11926-3.573899-6.40392l-2.401348-4.15392 5.788716-3.30091c5.453353-3.10968 6.49871-3.3325 18.043972-3.84608l12.255256-.54517-3.755256 3.26097c-6.926778 6.01504-22.567544 16.05642-24.09624 15.46981-.96442-.37008-1.232965-.15945-.764044.59928.397684.64347.487337 1.16994.199229 1.16994-.288109 0-1.051482-1.0125-1.696386-2.25zm-1.052611-57.570548-4.549917-2.679452 3.40596-6.184033 3.405959-6.184033 7.008491 4.184033 7.00849 4.184033-4.312093 3.80357c-6.590162 5.812986-6.866637 5.879428-11.96689 2.875882z" fill="#007acb"/><path d="m151.49143 153.45944c-8.41743-2.17618-18.62356-6.33041-26.25894-10.68826l-7.2675-4.14789 5.16989-4.56165c7.152-6.31055 7.25518-6.34724 11.5543-4.10833 2.09595 1.09153 6.51082 3.08148 9.81082 4.4221l6 2.43748 3.29519 8.20798c1.81236 4.51439 3.16236 8.55121 3 8.97071-.16235.4195-2.54905.18004-5.30376-.53214z" fill="#0064bb"/><path d="m142.90162 133.66978c-4.16873-1.74338-8.6192-3.86961-9.88995-4.72495l-2.31045-1.55517 5.02842-3.6912 5.02842-3.6912 7.37097 3.18986c4.05403 1.75443 7.51486 3.28418 7.69073 3.39947.31414.20591-2.97527 6.77905-4.54052 9.07319-.57964.84957-2.87297.30208-8.37762-2z" fill="#0053b1"/></svg>