<svg xmlns="http://www.w3.org/2000/svg" xml:space="preserve" viewBox="0 0 56.7 21.4"><path d="m116 503.7-.1-43V418h5.9l5.9.1 1.2 2.8 1.5 2.9 2.8-1.9c6-4.5 10.5-5.8 16.3-4.8q12.4 2.2 15.7 19.3c.7 3.7 1 13.3.5 17.3q-1.2 10.5-7 16.6-4.6 5-10.3 6.3c-2.2.5-6 .5-8 0-2.1-.5-5.4-2.2-7.4-3.7l-1.6-1.2-.2 16v16.2H116m28.5-41.3c2.7-1.2 4.1-3.3 5-7.7.9-3.7.9-11.5 0-15.2q-1.6-7-5.5-9c-2.8-1.2-7.2.4-11.6 4.2l-1.2 1v21.7l1.3 1.5a12 12 0 0 0 5.1 3.9c1.7.5 5.3.3 6.9-.4m-134.2 14a59 59 0 0 1-20.4-5.9c-.4-.3-.3-.8 2-6.4 1.3-3.4 2.5-6.2 2.6-6.2l3.2 1.2a45 45 0 0 0 23 2.9q7-2.3 7.5-8.3c.5-5.5-3-8.8-14.4-13.7-4.6-2-11.4-5.5-13.3-6.9-2.3-1.7-5.3-5-6.6-7.2-2-3.5-3-8-2.8-12.6.6-10.4 6.6-17.2 17.4-19.5a61 61 0 0 1 30.7 3.4c.1.2-2.4 13-2.7 13.4q0 .4-4-.8c-9.1-2.5-17.6-3.3-20.7-1.9q-3.3 1.5-3.7 6c-.3 2.8.8 4.8 3.7 7a36 36 0 0 0 8 4c4.3 1.7 10.6 4.8 14.3 7.1q9.3 5.8 11 15.4c.3 2.7 0 7.8-.6 10.7-2.4 9.6-9.9 16-21 18-3 .5-10 .7-13.2.3m57.8 0q-4.5-.9-8-4.3a16 16 0 0 1-4.3-8c-.6-2-.6-2.2-.7-24.2v-22.2h15.3v18.9c0 11.6.1 19.4.3 20.3a11 11 0 0 0 2.3 5c1.3 1.5 2.6 2 5.2 2 2.3 0 2.5 0 4.6-1.1 1.3-.6 3.2-1.8 4.3-2.6l2-1.5v-41h15.2v58.2h-6.4l-6.4-.1-1.1-2.5L89 471l-2.4 1.4a24 24 0 0 1-13.5 4.5q-3.2 0-5.1-.3m128.8 0q-14.3-1.6-19.8-13a45 45 0 0 1-2.7-21q1.3-17.8 13.5-23.5a30 30 0 0 1 23.5 0c2.2 1.1 2.9 1.7 5 3.8 2.3 2.2 2.8 3 3.8 5a41 41 0 0 1 2.7 22l-.1 1.6h-33.6v1.4c0 .8.2 2.1.4 3 1.5 6.6 7.3 9.7 16.2 8.8a89 89 0 0 0 13.7-2.3l2.5 10c0 .4-8 2.8-10.8 3.4-5.3 1-9.8 1.3-14.3.8m11.5-38.2c-.2-5.4-2.7-9-6.6-10-2.2-.4-5.6-.1-7.2.7-3 1.5-5 5.2-5.5 10l-.2 1.8h19.7zm24.4 8.6v-29h12.4l.6 2.5.7 2.8s1-.5 2-1.3a33 33 0 0 1 7.5-4.5c1.7-.7 2.2-.7 5-.7 1.8 0 3.7.1 4.3.3 1.2.3 1.2.3 1 1.3L265 431l-1.6-.2c-5.2-1-8.6.2-13.3 4.7l-1.9 1.8V476h-15.4z" style="display:inline;fill:#000" transform="translate(1.2 -39.5)scale(.11701661)"/><path d="m-82.8 388.8-2.6-5.4 1.5-.9a29 29 0 0 0 10-9c.7-1 1.4-2.7 1.8-3.8l.6-1.9-1-3.4-4-12.7a1290 1290 0 0 1-10.1-31.3l-3.7-11.4-.2-.7h14.8l.6 1.8 5.4 19.2 5.3 18.9c.3.3.5-.5 1.7-4.8l8.6-30.2 1.4-4.7c0-.2 14.6-.3 14.6-.1l-13 39.3c-3 9-7.1 21-8.5 24.3a41 41 0 0 1-19 21.2l-1.5.8zm63.1-21.8-4-.5c-4.4-.8-11.9-3.9-11.6-4.8l2.4-8.1.7-2.4 1.2.6a29 29 0 0 0 14.2 3.2c3.6 0 4.1 0 5.3-.6q2.6-1.2 3.2-3.4c.5-1.6.5-2.3 0-4q-1.3-4.3-9.4-6.6c-7.5-2-10.1-3.3-13-6-3-3.1-4.2-6.8-3.7-12 .5-4.3 1.8-7.3 4.6-10 2.2-2.3 4.6-3.5 8.3-4.4a48 48 0 0 1 24.2 2.3c.2.2-1.3 8.4-2 11.2l-.2.7-1.8-.6c-5.2-1.8-12-2.8-14.9-2.2-3.4.7-4.5 3.3-2.5 5.9 1 1.2 2.8 2.1 6.5 3.2 4.4 1.3 6.2 2 9.7 3.8q10 5 9.3 16.2c-.3 4.4-1.3 7.3-3.5 10.5a21 21 0 0 1-13.9 7.7c-3 .4-6.4.5-9 .3m56.9 0a25 25 0 0 1-17.4-8.1 25 25 0 0 1-2.6-4.2A37 37 0 0 1 14 336c.1-5.7.6-8.8 2-12.8q5-15 21.8-15.9c4-.2 7.1.2 10.4 1.3q11.8 4 14 18.2c.4 2.6.5 9.3.2 12.8l-.2 2H45.3l-16.8.1v1.6q.6 9.4 9.2 11.7c3.6.9 10.8.3 17.9-1.5 1.6-.4 3.1-.7 3.2-.6l1.3 5 1.2 4.9-.9.4c-1.6.6-6 2-8.7 2.6a48 48 0 0 1-14.5 1.2M48 329q-.6-8.1-6-10c-4.3-1.5-9-.2-11.2 3a17 17 0 0 0-2.5 7.4l-.1 1.9h20zm-175.3 34.6-9.2-28.9-5.1-16.2-3-10c.1-.2 3.6-.2 7.7-.2l7.6.1 1.4 5.2 4.1 15.8 5.6 21.3q.3 1 .9-1.3l4-15 6.8-25.9c.2-.2 2.5-.2 7.8-.2l7.5.1-1.3 4-8.6 27-7.5 23.8-1 3.3h-16.8zm.6-66.6c-1.7-4.8-4-8.4-6.3-9.5a5 5 0 0 0-2-.4q-4.3.2-7.6 8.3c-1 2.7-.7 1.2.6-2.6q4-12.1 9.2-12.3c1.7 0 2.8.5 4.3 2.2q2.5 2.6 4.4 8c1 2.8 2.3 7.3 2.3 8q0 .3-2 .3h-2.2zm38.4 1.1c-.6-2.5-2.6-9.1-3.6-11.2q-3.1-6.9-6.8-9.3c-1.6-.9-3.7-1-5.2-.1-2.2 1.1-5 4.8-7 8.9q-1.2 3.1.5-2.3 4.2-12.5 9.7-15.1c3.2-1.6 7.2.4 10.4 5.4a83 83 0 0 1 7.8 23.7l.2 1H-88zm41.4-3C-50 280.4-55.5 270-61 267.4a8 8 0 0 0-6 .1 22 22 0 0 0-7.8 9.1l-1 1.6c0-.4 2.3-7 3.3-9.6 2.7-6.5 6.5-11.5 10-13.2q3.2-1.2 6.4.3c4.4 2.2 9 9.7 12.3 20.1 1.5 4.8 3.6 14.4 5 22.3v1l-3.5-.1h-3.5zm47 3.8-.6-3.9a94 94 0 0 0-12.4-35.4 15 15 0 0 0-8-5.9q-3-.5-6.5 1.8a23 23 0 0 0-7.4 9.5c-.8 1.6-1.5 2.8-1.5 2.6a89 89 0 0 1 2.8-8.3c3.7-9 8.1-15.2 12.4-17.3a10 10 0 0 1 6.6-.7c2.8.8 6.1 3.7 8.6 7.5 6.6 10 11 24.6 14.7 49.2l.2 1H.3m50-.5-.4-2.6c-1-6.5-4-19.6-5.6-25a65 65 0 0 0-11.9-24.3q-8.7-9.3-17.5-.7c-2 2-3.3 3.9-5.7 8-1.9 3.3-1.9 3.2-.2-1.6 2.2-6.2 6-13.3 9.3-17.5 3.8-4.7 8.7-7.2 12.7-6.4 8.3 1.7 15.8 13 21.7 33 3.3 11 5.2 20.3 7.4 36.6l.1 1.1h-4.9c-4.9 0-4.9 0-5-.6" style="display:inline;fill:#662d91;fill-opacity:1" transform="translate(49.4 -26.7)scale(.11701661)"/><text xml:space="preserve" x="-271.9" y="408.1" style="font-size:36.2576px;line-height:2;text-align:start;writing-mode:lr-tb;direction:ltr;text-anchor:start;fill:#662d91;fill-opacity:1;stroke-width:.188842" transform="matrix(.11817083 0 0 .11587367 49.4 -26.7)"><tspan x="-271.9" y="408.1" style="font-size:36.2576px;fill:#000;fill-opacity:1;stroke-width:.188842">OpenBMC</tspan></text></svg>
