<svg viewBox="0 0 287.485 75.845" xmlns="http://www.w3.org/2000/svg"><path d="m0 40.752 10.302-.965c.636 3.458 1.896 6.008 3.793 7.639 1.905 1.618 4.479 2.424 7.713 2.424 3.416 0 5.996-.731 7.749-2.167 1.732-1.47 2.589-3.145 2.589-5.062 0-1.245-.368-2.33-1.087-3.201-.732-.857-2.004-1.633-3.814-2.249-1.25-.477-4.082-1.239-8.492-2.359-5.689-1.4-9.684-3.153-11.957-5.21-3.225-2.927-4.843-6.492-4.843-10.667 0-2.687.743-5.229 2.284-7.546 1.511-2.353 3.715-4.142 6.585-5.384 2.86-1.194 6.286-1.818 10.368-1.818 6.596 0 11.562 1.46 14.912 4.362 3.342 2.957 5.083 6.836 5.247 11.703l-10.666.358c-.472-2.657-1.416-4.616-2.927-5.817-1.481-1.191-3.724-1.788-6.692-1.788-3.079 0-5.497.633-7.23 1.923-1.134.83-1.692 1.896-1.692 3.258 0 1.269.52 2.314 1.576 3.207 1.33 1.152 4.593 2.326 9.753 3.532 5.172 1.23 8.982 2.503 11.449 3.82 2.472 1.316 4.416 3.111 5.814 5.401 1.385 2.234 2.108 5.089 2.108 8.442 0 3.022-.848 5.883-2.523 8.514-1.675 2.63-4.052 4.62-7.113 5.912-3.073 1.257-6.892 1.93-11.467 1.93-6.662 0-11.792-1.557-15.358-4.671-3.56-3.097-5.688-7.609-6.381-13.521" fill="#a7a5a6"/><path d="m41.493 19.646h10.697l9.137 27.2 8.905-27.2h10.424l-13.398 36.837-2.455 6.721c-.887 2.243-1.723 3.942-2.523 5.119-.8 1.2-1.723 2.168-2.763 2.887-1.06.714-2.34 1.29-3.834 1.7-1.529.414-3.243.644-5.16.644-1.932 0-3.84-.23-5.718-.645l-.836-7.958c1.567.332 2.992.496 4.255.496 2.33 0 4.064-.687 5.178-2.057 1.126-1.41 1.986-3.19 2.58-5.322zm74.238 38.318h-10.071v-19.506c0-4.109-.21-6.757-.654-7.982-.442-1.209-1.126-2.153-2.117-2.827-.974-.666-2.168-1.004-3.533-1.004-1.77 0-3.341.49-4.757 1.454-1.415.953-2.368 2.216-2.887 3.775-.511 1.6-.78 4.506-.78 8.797v17.293h-10.052v-38.318h9.31v5.61c3.351-4.243 7.556-6.339 12.63-6.339 2.254 0 4.293.412 6.154 1.183 1.857.83 3.272 1.827 4.204 3.09a11.325 11.325 0 0 1 1.986 4.235c.373 1.561.567 3.855.567 6.796zm10.369-19.052c0 3.826.895 6.749 2.714 8.732 1.812 2.045 4.034 3.063 6.692 3.063 2.657 0 4.882-1.018 6.691-3.063 1.78-1.983 2.676-4.94 2.676-8.78 0-3.786-.896-6.68-2.676-8.683-1.81-2.004-4.034-3.043-6.691-3.043-2.658 0-4.88 1.04-6.692 3.043-1.819 2.004-2.715 4.93-2.715 8.731m-10.31-.51c0-3.399.838-6.624 2.493-9.792 1.654-3.138 4.004-5.545 7.047-7.217 3.043-1.664 6.44-2.473 10.186-2.473 5.805 0 10.544 1.875 14.237 5.638 3.706 3.765 5.567 8.522 5.567 14.259 0 5.796-1.876 10.58-5.614 14.399-3.733 3.798-8.451 5.73-14.122 5.73-3.506 0-6.847-.809-10.042-2.395-3.186-1.588-5.605-3.911-7.26-6.99-1.654-3.046-2.493-6.77-2.493-11.16" fill="#a7a5a6"/><path d="m167.678 0v49.471c0 2.36.174 3.921.505 4.668.347.782.863 1.358 1.565 1.75.714.39 2.033.594 3.939.594v1.48h-18.282v-1.48c1.714 0 2.88-.177 3.536-.55.603-.367 1.093-.925 1.448-1.753.359-.809.523-2.377.523-4.709v-33.758c0-4.25-.087-6.847-.269-7.83-.173-.973-.484-1.624-.887-1.97-.415-.368-.931-.57-1.561-.57-.681 0-1.56.25-2.607.665l-.696-1.448 10.98-4.56zm22.907 22.268c-1.445 0-2.888.373-4.342 1.25-1.454.864-2.637 2.339-3.535 4.46-.893 2.161-1.344 4.896-1.344 8.253 0 5.426 1.096 10.051 3.24 14.014 2.168 3.894 5.008 5.88 8.531 5.88 2.658 0 4.823-1.112 6.519-3.256 1.723-2.162 2.583-5.88 2.583-11.174 0-6.617-1.427-11.786-4.28-15.587-1.931-2.583-4.389-3.84-7.372-3.84m1.251-2.745c5.67 0 10.207 2.147 13.64 6.441 2.91 3.658 4.364 7.863 4.364 12.61 0 3.351-.789 6.732-2.398 10.136-1.61 3.416-3.813 5.999-6.644 7.73-2.82 1.742-5.94 2.61-9.395 2.61-5.65 0-10.129-2.242-13.44-6.706-2.801-3.763-4.208-8.003-4.208-12.712 0-3.428.848-6.805 2.541-10.168 1.717-3.404 3.948-5.88 6.731-7.537 2.774-1.588 5.71-2.404 8.81-2.404m33.283 2.057c-2.004 0-3.658.837-5.02 2.428-1.344 1.59-2.01 3.975-2.01 7.278 0 4.252.914 7.549 2.745 9.908 1.412 1.773 3.177 2.66 5.324 2.66 2.048 0 3.744-.785 5.052-2.32 1.32-1.538 1.974-3.933 1.974-7.205 0-4.306-.914-7.645-2.77-10.064-1.398-1.759-3.151-2.684-5.295-2.684m-7.433 36.383c-1.242 1.344-2.168 2.637-2.813 3.852-.645 1.135-.943 2.248-.943 3.219 0 1.335.77 2.449 2.34 3.422 2.715 1.657 6.633 2.52 11.748 2.52 4.868 0 8.448-.863 10.78-2.577 2.33-1.696 3.476-3.511 3.476-5.45 0-1.376-.693-2.376-2.081-2.974-1.416-.6-4.205-.946-8.406-1.033-6.11-.182-10.822-.537-14.1-.98m.334-13.679c-2.27-1.155-3.996-2.675-5.226-4.667-1.203-2.016-1.813-4.201-1.813-6.6 0-3.696 1.371-6.885 4.142-9.501 2.783-2.655 6.346-3.996 10.679-3.996 3.538 0 6.61.836 9.209 2.58h7.89c1.173 0 1.845.04 2.048.105.176.09.295.212.394.346.155.254.248.687.248 1.302 0 .71-.075 1.233-.21 1.481a.693.693 0 0 1 -.432.317c-.203.08-.875.116-2.06.116h-4.862c1.54 1.962 2.302 4.47 2.302 7.522 0 3.464-1.347 6.456-3.99 8.914-2.657 2.475-6.217 3.727-10.663 3.727-1.848 0-3.73-.272-5.662-.878-1.134 1.069-1.908 1.959-2.29 2.732-.415.794-.618 1.44-.618 1.962 0 .499.22.926.684 1.383.433.42 1.32.74 2.619.916.74.14 2.657.245 5.68.332 5.571.176 9.193.388 10.83.666 2.523.349 4.545 1.299 6.047 2.795 1.502 1.508 2.251 3.35 2.251 5.55 0 3.026-1.442 5.907-4.309 8.571-4.201 3.92-9.708 5.886-16.495 5.886-5.217 0-9.627-1.15-13.226-3.509-2.033-1.359-3.034-2.753-3.034-4.228 0-.624.147-1.29.425-1.941.45-1.022 1.385-2.36 2.789-4.154.185-.257 1.552-1.711 4.064-4.375-1.398-.878-2.395-1.618-2.963-2.305-.582-.666-.877-1.433-.877-2.266 0-.968.373-2.076 1.134-3.345.77-1.299 2.541-3.126 5.295-5.438m28.726-23.674h17.454v1.493h-.845c-1.233 0-2.147.287-2.762.792-.61.546-.905 1.203-.905 1.97 0 1.081.433 2.536 1.347 4.402l9.099 18.878 8.328-20.625c.46-1.135.693-2.221.693-3.347 0-.484-.117-.84-.287-1.078a2.15 2.15 0 0 0 -1.024-.705c-.454-.182-1.278-.287-2.434-.287v-1.493h12.073v1.493c-1.003.105-1.78.335-2.32.654-.553.338-1.147.932-1.792 1.807-.25.394-.734 1.418-1.397 3.132l-15.122 37.208c-1.475 3.628-3.401 6.34-5.796 8.188-2.39 1.863-4.691 2.753-6.904 2.753-1.61 0-2.927-.43-3.978-1.38-1.03-.91-1.546-1.965-1.546-3.174 0-1.129.37-2.01 1.122-2.717.75-.72 1.8-1.04 3.103-1.04.905 0 2.147.293 3.697.87 1.087.373 1.78.611 2.06.611.818 0 1.693-.441 2.676-1.278.961-.83 1.935-2.454 2.908-4.846l2.637-6.498-13.432-28.07c-.409-.85-1.066-1.89-1.953-3.15-.683-.94-1.242-1.586-1.675-1.935-.627-.406-1.64-.8-3.025-1.135z" fill="#231f20"/></svg>