<svg xmlns="http://www.w3.org/2000/svg" fill="none" viewBox="0 0 311.08 46.29"><path fill="#e62310" d="M125.41 46.27h15.65V.02h-15.65zM295.42 24.61 276.58.02h-15.65v46.25h15.65V20.54l18.76 25.73.08-.02v.02h15.66V.02h-15.66zM93.62.02h-18.5L67.64 17.2l11.8 6.07 4.15-10.13 8.62 21.9-14.48-7.45-11.85-6.1-10.16 24.78H70l7.3-17.66 16.5 17.66h18.48L93.67.02ZM223.67 15.77 211.91.02h-15.65l19.59 26.95v19.3h15.65v-19.3L251.1.01h-15.66zM32.63 0H0v12.75h.02v.72h16.63v32.8h.67v.02h14.3v-.02h.68v-32.8h16.65V0ZM172.36.02h-15.65v46.25h39.55V32.82h-23.9z"/></svg>
