<?xml version="1.0" encoding="UTF-8" standalone="no"?>

<svg
 xmlns:dc="http://purl.org/dc/elements/1.1/"
 xmlns:cc="http://creativecommons.org/ns#"
 xmlns:rdf="http://www.w3.org/1999/02/22-rdf-syntax-ns#"
 xmlns:svg="http://www.w3.org/2000/svg"
 xmlns="http://www.w3.org/2000/svg"
 version="1.1"
 width="500"
 height="230"
 viewBox="0 0 520 230">

<path id="technicolor"
 d="m 173.30314,31.66809 0,65.64455 7.01806,0 0,-26.36053 c 2.76957,-3.13245 7.52473,-6.07661 11.7253,-6.07661 5.36111,0 7.87392,2.99552 7.87392,8.81536 l 0,23.62178 7.01806,0 0,-25.50467 c 0,-7.51445 -4.41967,-12.83791 -13.09468,-12.83791 -4.91264,0 -9.59249,2.30056 -13.5226,6.33337 l 0,-33.63534 -7.01806,0 z m 188.63178,0 0,65.64455 7.10365,0 0,-65.64455 -7.10365,0 z m -96.7123,10.52709 c -2.50254,0 -4.45048,2.02325 -4.45048,4.53607 0,2.41352 1.94794,4.45047 4.45048,4.45047 2.49569,0 4.45048,-2.03695 4.45048,-4.45047 0,-2.51282 -1.95479,-4.53607 -4.45048,-4.53607 z m -191.456121,5.22076 -6.846889,5.13515 0,6.50455 -5.991028,5.81986 0,0.94145 5.991028,0 0,20.36949 c 0,8.23338 3.649385,11.81085 10.441498,11.81085 1.958214,0 3.930117,-0.23966 6.162203,-0.68465 l -0.684689,-5.73428 c -1.249557,0.17117 -2.095148,0.25662 -3.166686,0.25662 -3.926686,0 -5.905437,-1.38991 -5.905437,-4.8784 l 0,-21.13977 11.12619,0 0,-6.07661 -11.12619,0 0,-12.3244 z m 35.175891,11.55412 c -11.612328,0 -18.229846,9.38708 -18.229846,19.6848 0,10.83178 6.795537,19.34243 20.283906,19.34243 3.48507,0 7.94924,-0.88664 12.23882,-2.13962 l -1.2838,-5.99103 c -3.48164,1.16397 -7.22346,2.05406 -10.35592,2.05406 -9.64726,0 -13.228185,-4.85101 -14.036118,-11.29736 l 27.558728,0 c 0.26703,-1.33514 0.25662,-2.34164 0.25662,-3.59461 0,-10.20872 -5.79931,-18.05867 -16.43253,-18.05867 z m 43.39215,0 c -11.88277,0 -20.28391,8.84618 -20.28391,19.6848 0,10.83178 8.40114,19.34243 20.28391,19.34243 4.64562,0 9.44528,-1.70142 12.83792,-3.85135 l -2.39641,-5.39192 c -3.04345,1.79388 -6.77158,3.16668 -10.61268,3.16668 -6.88455,0 -13.26585,-5.12147 -13.26585,-13.26584 0,-8.59285 5.50832,-13.60819 12.83792,-13.60819 3.83768,0 7.4905,1.37965 10.52709,3.16669 l 2.90993,-5.39193 c -3.39264,-2.14992 -8.1923,-3.85137 -12.83792,-3.85137 z m 84.81583,0 c -5.00507,0 -9.93141,2.56073 -13.86495,6.50454 l 0,-5.73427 -6.67571,0 0,37.57231 7.01806,0 0,-26.36053 c 2.85858,-3.13245 7.27139,-6.07661 11.46854,-6.07661 5.45012,0 7.61716,2.99552 7.61716,8.81536 l 0,23.62178 7.01806,0 0,-25.50467 c 0,-7.51445 -3.91299,-12.83791 -12.58116,-12.83791 z m 60.85173,0 c -11.87593,0 -20.28391,8.84618 -20.28391,19.6848 0,10.83178 8.40798,19.34243 20.28391,19.34243 4.64561,0 9.35627,-1.70142 12.75233,-3.85135 l -2.39641,-5.39192 c -3.04002,1.79388 -6.68599,3.16668 -10.52709,3.16668 -6.88455,0 -13.35144,-5.12147 -13.35144,-13.26584 0,-8.59285 5.59734,-13.60819 12.9235,-13.60819 3.84453,0 7.48708,1.37965 10.52709,3.16669 l 2.82435,-5.39193 c -3.39606,-2.14992 -8.10672,-3.85137 -12.75233,-3.85137 z m 36.9732,0 c -11.43431,0 -19.00012,8.77086 -19.00012,19.51363 0,10.74276 7.56581,19.5136 19.00012,19.5136 11.4343,0 18.91453,-8.77084 18.91453,-19.5136 0,-10.74277 -7.48023,-19.51363 -18.91453,-19.51363 z m 61.10848,0 c -11.4343,0 -19.08571,8.77086 -19.08571,19.51363 0,10.74276 7.65141,19.5136 19.08571,19.5136 11.43087,0 18.91453,-8.77084 18.91453,-19.5136 0,-10.74277 -7.48366,-19.51363 -18.91453,-19.51363 z m 46.81559,0 c -4.90921,0 -9.86293,2.36218 -13.43701,7.01806 l 0,-6.33337 -6.67572,0 0,37.65789 7.01806,0 0,-25.67584 c 2.59498,-3.76236 7.64797,-5.73427 13.09467,-5.73427 l 0,-6.93247 z m -181.27137,0.68469 0,37.65789 7.01806,0 0,-37.65789 -7.01806,0 z m 73.3473,5.04957 c 7.15157,0 11.98205,5.53914 11.98205,13.77937 0,8.22996 -4.83048,13.77936 -11.98205,13.77936 -7.24402,0 -12.06764,-5.5494 -12.06764,-13.77936 0,-8.24023 4.82362,-13.77937 12.06764,-13.77937 z m 61.10848,0 c 7.1413,0 11.98205,5.53914 11.98205,13.77937 0,8.22996 -4.84075,13.77936 -11.98205,13.77936 -7.24059,0 -12.06764,-5.5494 -12.06764,-13.77936 0,-8.24023 4.82705,-13.77937 12.06764,-13.77937 z M 108.51445,64.8755 c 6.61068,0 9.90403,4.62165 10.35592,10.4415 l -21.054179,0 C 98.6207,68.87066 102.43442,64.8755 108.51445,64.8755 z"
 style="fill:#747577;fill-opacity:1;fill-rule:nonzero;stroke:none" />

<path id="color1"
 d="m 62.500165,136.26505 -31.249193,0 0,43.55647 31.249193,0 0,-43.55647 z"
 style="fill:#00b2e7;fill-opacity:1;fill-rule:nonzero;stroke:none" />
<path id="color2"
 d="m 93.750054,198.75072 0,-62.4846 -30.900004,0 -0.349195,0 0,62.4846 31.249199,0 z"
 style="fill:#0089cc;fill-opacity:1;fill-rule:nonzero;stroke:none" />
<path id="color3"
 d="m 124.99994,174.41829 0,-38.1508 -30.900011,0 -0.349191,0 0,38.1508 31.249202,0 z"
 style="fill:#074c97;fill-opacity:1;fill-rule:nonzero;stroke:none" />
<path id="color4"
 d="m 156.24982,182.52432 0,-46.25752 -30.89316,0 -0.35604,0 0,46.25752 31.2492,0 z"
 style="fill:#673584;fill-opacity:1;fill-rule:nonzero;stroke:none" />
<path id="color5"
 d="m 187.49935,196.94252 0,-60.67717 -30.90343,0 -0.34577,0 0,60.67717 31.2492,0 z"
 style="fill:#952c6e;fill-opacity:1;fill-rule:nonzero;stroke:none" />
<path id="color6"
 d="m 218.74926,190.63372 0,-54.3676 -30.89316,0 -0.35604,0 0,54.3676 31.2492,0 z"
 style="fill:#bf2457;fill-opacity:1;fill-rule:nonzero;stroke:none" />
<path id="color7"
 d="m 250.00117,178.91912 0,-42.6527 -30.9,0 -0.35262,0 0,42.6527 31.25262,0 z"
 style="fill:#e31d35;fill-opacity:1;fill-rule:nonzero;stroke:none" />
<path id="color8"
 d="m 281.249,191.53762 0,-55.2715 -30.89658,0 -0.35262,0 0,55.2715 31.2492,0 z"
 style="fill:#e96328;fill-opacity:1;fill-rule:nonzero;stroke:none" />
<path id="color9"
 d="m 312.49889,176.21769 0,-39.95157 -30.90344,0 -0.34576,0 0,39.95157 31.2492,0 z"
 style="fill:#fdc500;fill-opacity:1;fill-rule:nonzero;stroke:none" />
<path id="color10"
 d="m 343.74878,186.12512 0,-49.859 -30.90001,0 -0.3492,0 0,49.859 31.24921,0 z"
 style="fill:#ffe500;fill-opacity:1;fill-rule:nonzero;stroke:none" />
<path id="color11"
 d="m 374.99866,171.70588 0,-35.43946 -30.89316,0 -0.35604,0 0,35.43946 31.2492,0 z"
 style="fill:#d5d700;fill-opacity:1;fill-rule:nonzero;stroke:none" />
<path id="color12"
 d="m 406.24821,136.26505 -31.2492,0 0,29.13352 31.2492,0 0,-29.13352 z"
 style="fill:#99c027;fill-opacity:1;fill-rule:nonzero;stroke:none" />
<path id="color13"
 d="m 437.49846,180.72422 0,-44.45673 -30.89659,0 -0.35262,0 0,44.45673 31.24921,0 z"
 style="fill:#009341;fill-opacity:1;fill-rule:nonzero;stroke:none" />
<path id="color14"
 d="m 468.74971,192.44242 0,-56.17532 -30.91028,0 -0.34234,0 0,56.17532 31.25262,0 z"
 style="fill:#007f3f;fill-opacity:1;fill-rule:nonzero;stroke:none" />
 
 
<path id="color1b"
 d="m 81.197324,120.6411 -28.072242,0 c 0,0 -8.637348,6.04238 -21.875812,15.62464 l 31.249203,0 C 73.977277,126.57741 81.197324,120.6411 81.197324,120.6411"
 style="fill:#abddf5;fill-opacity:1;fill-rule:nonzero;stroke:none" />
<path id="color2b"
 d="m 109.28429,120.6411 -27.767559,0 -0.31838,0 c 0,0 -7.220043,5.93631 -18.698857,15.62464 l 31.249204,0 C 104.60786,125.26957 109.28429,120.6411 109.28429,120.6411"
 style="fill:#93c4e6;fill-opacity:1;fill-rule:nonzero;stroke:none" />
<path id="color3b"
 d="m 137.36235,120.6411 -27.76413,0 -0.31496,0 c 0,0 -4.67642,4.62847 -15.532165,15.62464 l 31.249195,0 c 7.5932,-9.60277 12.36206,-15.62464 12.36206,-15.62464"
 style="fill:#989fcb;fill-opacity:1;fill-rule:nonzero;stroke:none" />
<path id="color4b"
 d="m 165.44178,120.6411 -28.07909,0 c -2.95443,3.7316 -2.6292,3.31733 -12.36205,15.62464 l 31.2492,0 c 5.8849,-9.92118 9.19194,-15.62464 9.19194,-15.62464"
 style="fill:#b297c2;fill-opacity:1;fill-rule:nonzero;stroke:none" />
<path id="color5b"
 d="m 193.5219,120.6411 -27.76413,0 -0.31496,0 c 0,0 -3.30705,5.70346 -9.19195,15.62464 l 31.2492,0 c 3.89246,-9.82532 6.02184,-15.62464 6.02184,-15.62464"
 style="fill:#ca9bb5;fill-opacity:1;fill-rule:nonzero;stroke:none" />
<path id="color6b"
 d="m 221.6051,120.6411 -27.76413,0 -0.31838,0 c 0,0 -2.12939,5.79932 -6.02184,15.62464 l 31.2492,0 c 1.96848,-9.88355 2.85515,-15.62464 2.85515,-15.62464"
 style="fill:#dfa0a7;fill-opacity:1;fill-rule:nonzero;stroke:none" />
<path id="color7b"
 d="m 249.99949,120.6411 -28.08251,0 -0.31154,0 c 0,0 -0.88667,5.74109 -2.85857,15.62464 l 31.25262,0 c 0.0238,-9.35631 0,-15.23779 0,-15.60413 l 0,0 0,-0.01 0,-0.0107"
 style="fill:#f3a38c;fill-opacity:1;fill-rule:nonzero;stroke:none" />
<path id="color8b"
 d="m 277.7667,120.6411 -27.41151,0 -0.35604,0 0,0.0107 0,0 0,0.01 c 0,0.36623 0.0238,6.24771 0.004,15.60402 l 31.24578,0 c -1.90343,-9.78759 -3.48164,-15.62463 -3.48164,-15.62463"
 style="fill:#f7ba8e;fill-opacity:1;fill-rule:nonzero;stroke:none" />
<path id="color9b"
 d="m 305.84272,120.6411 -27.76414,0 -0.31154,0 c 0,0 1.57822,5.83695 3.48165,15.62464 l 31.2492,0 c -3.77264,-9.61648 -6.65517,-15.62464 -6.65517,-15.62464"
 style="fill:#ffe39d;fill-opacity:1;fill-rule:nonzero;stroke:none" />
<path id="color10b"
 d="m 333.91325,120.6411 -27.75045,0 -0.31837,0 c 0,0 2.88254,6.00816 6.65517,15.62464 l 31.2492,0 c -5.85752,-9.94169 -9.83555,-15.62464 -9.83555,-15.62464"
 style="fill:#fff2a3;fill-opacity:1;fill-rule:nonzero;stroke:none" />
<path id="color11b"
 d="m 362.32065,120.6411 -28.0791,0 -0.32865,0 c 0,0 3.97804,5.68295 9.83556,15.62464 l 31.2492,0 C 365.73382,124.50618 362.32065,120.6411 362.32065,120.6411"
 style="fill:#ececa3;fill-opacity:1;fill-rule:nonzero;stroke:none" />
<path id="color12b"
 d="m 390.4011,120.6411 -28.07908,0 c 0,0 3.41317,3.86508 12.67701,15.62464 l 31.24919,0 C 396.98096,126.85469 390.4011,120.6411 390.4011,120.6411"
 style="fill:#d3e2a2;fill-opacity:1;fill-rule:nonzero;stroke:none" />
<path id="color13b"
 d="m 418.48122,120.6411 -27.76413,0 -0.31496,0 c 0,0 6.57644,6.21359 15.84712,15.62464 l 31.24921,0 C 426.02992,126.56711 418.48122,120.6411 418.48122,120.6411"
 style="fill:#9acb9f;fill-opacity:1;fill-rule:nonzero;stroke:none" />
<path id="color14b"
 d="m 446.87493,120.6411 -28.0791,0 -0.31495,0 19.01723,15.62464 31.25262,0 c -13.53972,-9.8013 -21.8758,-15.62464 -21.8758,-15.62464"
 style="fill:#9bbd99;fill-opacity:1;fill-rule:nonzero;stroke:none" />

</svg>
