<svg xmlns="http://www.w3.org/2000/svg" viewBox="0 0 520 230"><path d="M173.303 31.668v65.645h7.018v-26.36c2.77-3.133 7.526-6.078 11.727-6.078 5.36 0 7.873 2.996 7.873 8.816v23.623h7.018V71.808c0-7.514-4.42-12.838-13.094-12.838-4.913 0-9.593 2.3-13.523 6.333V31.668h-7.017zm188.632 0v65.645h7.104V31.668h-7.105zm-96.712 10.527c-2.503 0-4.45 2.023-4.45 4.536 0 2.415 1.947 4.452 4.45 4.452 2.495 0 4.45-2.037 4.45-4.45 0-2.514-1.955-4.537-4.45-4.537zm-191.457 5.22l-6.846 5.136v6.506l-5.99 5.82v.94h5.99v20.37c0 8.234 3.65 11.81 10.44 11.81 1.96 0 3.93-.238 6.163-.683l-.684-5.735c-1.25.172-2.097.257-3.168.257-3.927 0-5.906-1.39-5.906-4.878v-21.14h11.127V59.74H73.766V47.416zm35.176 11.555c-11.612 0-18.23 9.387-18.23 19.685 0 10.832 6.796 19.342 20.284 19.342 3.486 0 7.95-.886 12.24-2.14l-1.285-5.99c-3.48 1.164-7.222 2.054-10.354 2.054-9.648 0-13.23-4.85-14.037-11.297h27.558c.267-1.335.257-2.34.257-3.594 0-10.21-5.8-18.06-16.433-18.06zm43.393 0c-11.883 0-20.284 8.846-20.284 19.685 0 10.832 8.402 19.342 20.285 19.342 4.645 0 9.445-1.7 12.837-3.85l-2.396-5.393c-3.043 1.794-6.772 3.167-10.613 3.167-6.884 0-13.265-5.12-13.265-13.265 0-8.593 5.508-13.608 12.837-13.608 3.838 0 7.49 1.38 10.528 3.166l2.91-5.392c-3.393-2.148-8.193-3.85-12.838-3.85zm84.815 0c-5.005 0-9.93 2.56-13.865 6.505V59.74h-6.675v37.573h7.018v-26.36c2.858-3.133 7.27-6.078 11.468-6.078 5.45 0 7.617 2.996 7.617 8.816v23.623h7.02V71.808c0-7.514-3.914-12.838-12.583-12.838zm60.852 0c-11.876 0-20.284 8.846-20.284 19.685 0 10.832 8.408 19.342 20.284 19.342 4.646 0 9.356-1.7 12.752-3.85l-2.396-5.393c-3.04 1.794-6.686 3.167-10.527 3.167-6.884 0-13.35-5.12-13.35-13.265 0-8.593 5.597-13.608 12.923-13.608 3.845 0 7.487 1.38 10.527 3.166l2.824-5.392c-3.396-2.148-8.106-3.85-12.752-3.85zm36.973 0c-11.434 0-19 8.77-19 19.514 0 10.742 7.566 19.513 19 19.513 11.435 0 18.915-8.77 18.915-19.513 0-10.743-7.48-19.514-18.915-19.514zm61.11 0c-11.436 0-19.087 8.77-19.087 19.514 0 10.742 7.65 19.513 19.086 19.513 11.43 0 18.914-8.77 18.914-19.513 0-10.743-7.483-19.514-18.914-19.514zm46.814 0c-4.91 0-9.864 2.362-13.438 7.018v-6.333h-6.675v37.658h7.018V71.637c2.595-3.763 7.648-5.734 13.094-5.734V58.97zm-181.272.685v37.658h7.018V59.655h-7.018zm73.347 5.05c7.152 0 11.982 5.538 11.982 13.78 0 8.23-4.83 13.778-11.982 13.778-7.244 0-12.067-5.55-12.067-13.78 0-8.24 4.823-13.78 12.067-13.78zm61.11 0c7.14 0 11.98 5.538 11.98 13.78 0 8.23-4.84 13.778-11.98 13.778-7.242 0-12.07-5.55-12.07-13.78 0-8.24 4.828-13.78 12.07-13.78zm-287.57.17c6.61 0 9.903 4.622 10.355 10.442H97.816c.805-6.446 4.618-10.44 10.698-10.44z" fill="#747577"/><path d="M62.5 136.265H31.25v43.557H62.5v-43.557z" fill="#00b2e7"/><path d="M93.75 198.75v-62.484H62.5v62.485h31.25z" fill="#0089cc"/><path d="M125 174.418v-38.15H93.75v38.15H125z" fill="#074c97"/><path d="M156.25 182.524v-46.257H125v46.257h31.25z" fill="#673584"/><path d="M187.5 196.943v-60.678h-31.25v60.678h31.25z" fill="#952c6e"/><path d="M218.75 190.634v-54.368H187.5v54.368h31.25z" fill="#bf2457"/><path d="M250 178.92v-42.654h-31.25v42.653H250z" fill="#e31d35"/><path d="M281.25 191.538v-55.272H250v55.272h31.25z" fill="#e96328"/><path d="M312.5 176.218v-39.952h-31.25v39.952h31.25z" fill="#fdc500"/><path d="M343.75 186.125v-49.86H312.5v49.86h31.25z" fill="#ffe500"/><path d="M375 171.706v-35.44h-31.251v35.44H375z" fill="#d5d700"/><path d="M406.248 136.265h-31.25V165.4h31.25v-29.135z" fill="#99c027"/><path d="M437.498 180.724v-44.457H406.25v44.457h31.248z" fill="#009341"/><path d="M468.75 192.442v-56.175h-31.253v56.175h31.253z" fill="#007f3f"/><path d="M81.197 120.64H53.125s-8.637 6.043-21.876 15.626h31.248c11.48-9.69 18.7-15.625 18.7-15.625" fill="#abddf5"/><path d="M109.284 120.64H81.197s-7.22 5.937-18.698 15.626h31.25c10.858-10.996 15.534-15.625 15.534-15.625" fill="#93c4e6"/><path d="M137.362 120.64h-28.079s-4.676 4.63-15.532 15.626H125c7.593-9.603 12.362-15.625 12.362-15.625" fill="#989fcb"/><path d="M165.442 120.64h-28.08c-2.954 3.733-2.63 3.318-12.36 15.626h31.248c5.885-9.92 9.192-15.625 9.192-15.625" fill="#b297c2"/><path d="M193.522 120.64h-28.079s-3.307 5.705-9.192 15.626h31.25c3.893-9.826 6.022-15.625 6.022-15.625" fill="#ca9bb5"/><path d="M221.605 120.64h-28.081s-2.13 5.8-6.022 15.626h31.25c1.968-9.884 2.855-15.625 2.855-15.625" fill="#dfa0a7"/><path d="M250 120.64h-28.395s-.886 5.742-2.858 15.626H250c.023-9.357 0-15.238 0-15.604v-.02" fill="#f3a38c"/><path d="M277.767 120.64H250v.022c0 .366.023 6.248.003 15.604h31.246c-1.904-9.788-3.483-15.625-3.483-15.625" fill="#f7ba8e"/><path d="M305.843 120.64H277.766s1.578 5.838 3.482 15.626h31.248c-3.773-9.617-6.655-15.625-6.655-15.625" fill="#ffe39d"/><path d="M333.913 120.64h-28.07s2.884 6.01 6.657 15.626h31.25c-5.86-9.942-9.837-15.625-9.837-15.625" fill="#fff2a3"/><path d="M362.32 120.64H333.913s3.98 5.684 9.836 15.626h31.25c-9.264-11.76-12.677-15.625-12.677-15.625" fill="#ececa3"/><path d="M390.4 120.64h-28.078s3.413 3.866 12.677 15.626h31.248c-9.267-9.41-15.847-15.625-15.847-15.625" fill="#d3e2a2"/><path d="M418.48 120.64H390.403s6.577 6.215 15.847 15.626h31.248c-11.468-9.7-19.017-15.625-19.017-15.625" fill="#9acb9f"/><path d="M446.875 120.64H418.48l19.018 15.626h31.253c-13.54-9.802-21.875-15.625-21.875-15.625" fill="#9bbd99"/></svg>