<?xml version="1.0" encoding="UTF-8" standalone="no"?>
<svg
   xmlns:dc="http://purl.org/dc/elements/1.1/"
   xmlns:cc="http://creativecommons.org/ns#"
   xmlns:rdf="http://www.w3.org/1999/02/22-rdf-syntax-ns#"
   xmlns:svg="http://www.w3.org/2000/svg"
   xmlns="http://www.w3.org/2000/svg"
   xmlns:sodipodi="http://sodipodi.sourceforge.net/DTD/sodipodi-0.dtd"
   xmlns:inkscape="http://www.inkscape.org/namespaces/inkscape"
   version="1.0"
   width="631.63818pt"
   height="642.25153pt"
   viewBox="0 0 631.63818 642.25153"
   preserveAspectRatio="xMidYMid meet"
   id="svg2"
   inkscape:version="0.91 r13725"
   sodipodi:docname="tegile.svg">
  <defs
     id="defs22" />
  <sodipodi:namedview
     pagecolor="#ffffff"
     bordercolor="#666666"
     borderopacity="1"
     objecttolerance="10"
     gridtolerance="10"
     guidetolerance="10"
     inkscape:pageopacity="0"
     inkscape:pageshadow="2"
     inkscape:window-width="640"
     inkscape:window-height="480"
     id="namedview20"
     showgrid="false"
     fit-margin-top="0"
     fit-margin-left="0"
     fit-margin-right="0"
     fit-margin-bottom="0"
     inkscape:zoom="0.28780488"
     inkscape:cx="392.99102"
     inkscape:cy="399.09477"
     inkscape:window-x="0"
     inkscape:window-y="32"
     inkscape:window-maximized="0"
     inkscape:current-layer="svg2" />
  <metadata
     id="metadata4">
Created by potrace 1.13, written by Peter Selinger 2001-2015
<rdf:RDF>
  <cc:Work
     rdf:about="">
    <dc:format>image/svg+xml</dc:format>
    <dc:type
       rdf:resource="http://purl.org/dc/dcmitype/StillImage" />
    <dc:title></dc:title>
  </cc:Work>
</rdf:RDF>
</metadata>
  <g
     transform="matrix(0.1,0,0,-0.1,-7.1071817,650.97569)"
     id="g6"
     style="fill:#000000;stroke:none">
    <path
       d="m 2127,6489 c -237,-58 -450,-227 -559,-444 -55,-109 -80,-211 -85,-350 -6,-143 11,-241 61,-365 55,-134 178,-285 302,-371 65,-44 197,-104 279,-125 97,-26 312,-26 410,0 498,130 770,652 590,1132 -97,258 -326,459 -597,524 -111,27 -291,26 -401,-1 z"
       id="path8"
       inkscape:connector-curvature="0" />
    <path
       d="m 4484,6061 c -140,-22 -254,-80 -354,-181 -197,-197 -243,-472 -120,-725 69,-143 198,-258 350,-312 59,-21 98,-28 186,-31 130,-5 201,10 314,65 104,50 223,170 273,274 91,187 89,404 -5,582 -47,89 -174,215 -264,260 -118,59 -266,85 -380,68 z"
       id="path10"
       inkscape:connector-curvature="0" />
    <path
       d="M 959,4520 C 736,4480 546,4385 392,4236 227,4077 131,3899 84,3667 62,3558 69,3327 98,3218 c 81,-300 279,-546 547,-678 611,-301 1322,22 1495,680 28,108 38,308 20,418 -56,349 -278,645 -597,794 -135,63 -253,90 -418,94 -77,1 -161,-1 -186,-6 z"
       id="path12"
       inkscape:connector-curvature="0" />
    <path
       d="m 5916,4190 c -117,-20 -244,-116 -294,-223 -115,-244 33,-524 301,-570 123,-21 256,23 347,114 88,88 134,231 112,345 -46,227 -247,371 -466,334 z"
       id="path14"
       inkscape:connector-curvature="0" />
    <path
       d="m 2769,2490 c -406,-65 -740,-307 -916,-665 -257,-523 -103,-1153 367,-1504 138,-103 307,-177 495,-216 108,-23 321,-24 437,-1 377,72 687,303 857,636 107,209 150,426 130,652 -46,528 -422,961 -939,1079 -97,23 -342,33 -431,19 z"
       id="path16"
       inkscape:connector-curvature="0" />
    <path
       d="m 5544,2480 c -92,-13 -211,-56 -293,-108 -347,-215 -452,-662 -240,-1019 48,-79 161,-192 244,-241 232,-137 500,-144 740,-19 59,31 102,65 165,127 97,97 139,163 184,287 30,84 31,95 31,238 0,138 -2,156 -28,230 -87,250 -275,423 -532,490 -69,18 -198,25 -271,15 z"
       id="path18"
       inkscape:connector-curvature="0" />
  </g>
</svg>
