<?xml version="1.0" encoding="UTF-8"?>
<svg width="631.64pt" height="642.25pt" version="1.0" viewBox="0 0 631.63818 642.25153" xmlns="http://www.w3.org/2000/svg">
<metadata>Created by potrace 1.13, written by Peter Selinger 2001-2015
<rdf:RDF>
<cc:Work rdf:about="">
<dc:format>image/svg+xml</dc:format>
<dc:type rdf:resource="http://purl.org/dc/dcmitype/StillImage"/>
<dc:title/>
</cc:Work>
</rdf:RDF>
</metadata>
<g transform="matrix(.1 0 0 -.1 -7.1072 650.98)">
<path d="m2127 6489c-237-58-450-227-559-444-55-109-80-211-85-350-6-143 11-241 61-365 55-134 178-285 302-371 65-44 197-104 279-125 97-26 312-26 410 0 498 130 770 652 590 1132-97 258-326 459-597 524-111 27-291 26-401-1z"/>
<path d="m4484 6061c-140-22-254-80-354-181-197-197-243-472-120-725 69-143 198-258 350-312 59-21 98-28 186-31 130-5 201 10 314 65 104 50 223 170 273 274 91 187 89 404-5 582-47 89-174 215-264 260-118 59-266 85-380 68z"/>
<path d="m959 4520c-223-40-413-135-567-284-165-159-261-337-308-569-22-109-15-340 14-449 81-300 279-546 547-678 611-301 1322 22 1495 680 28 108 38 308 20 418-56 349-278 645-597 794-135 63-253 90-418 94-77 1-161-1-186-6z"/>
<path d="m5916 4190c-117-20-244-116-294-223-115-244 33-524 301-570 123-21 256 23 347 114 88 88 134 231 112 345-46 227-247 371-466 334z"/>
<path d="m2769 2490c-406-65-740-307-916-665-257-523-103-1153 367-1504 138-103 307-177 495-216 108-23 321-24 437-1 377 72 687 303 857 636 107 209 150 426 130 652-46 528-422 961-939 1079-97 23-342 33-431 19z"/>
<path d="m5544 2480c-92-13-211-56-293-108-347-215-452-662-240-1019 48-79 161-192 244-241 232-137 500-144 740-19 59 31 102 65 165 127 97 97 139 163 184 287 30 84 31 95 31 238 0 138-2 156-28 230-87 250-275 423-532 490-69 18-198 25-271 15z"/>
</g>
</svg>
