<svg xmlns="http://www.w3.org/2000/svg" viewBox="0 0 138.32164 138.32164"><path d="M105.36 83.32c-.07-.03-.42-.1-.8-.18l-.67-.14 6.34-6.38 6.37-6.37h2.95v-.46c0-.26-.06-.84-.14-1.28l-.12-.8 5.15-5.18 5.17-5.17h3.45l-13.05 13-13.05 13-.75-.02c-.4 0-.8 0-.86-.03zm16.72-13l12.94-12.94h1.64c1.24 0 1.64.03 1.64.14 0 .27-22.4 22.55-23.4 23.3-1.3.94-2.77 1.66-4.24 2.08-.7.2-1.3.36-1.38.36-.07 0 5.7-5.8 12.8-12.93zM101.22 82l-1.04-.58c-.1-.07 1.74-1.97 5.4-5.63l5.53-5.54h3.46l-6.1 6.1c-3.34 3.36-6.14 6.1-6.2 6.1-.06 0-.53-.2-1.03-.46zm-3.18-2.28c-.35-.36-.7-.75-.8-.87-.13-.2.22-.57 4.04-4.4l4.2-4.2h3.4l-4.97 5.07c-2.7 2.8-5 5.06-5.1 5.06-.07 0-.4-.3-.75-.66zM5.6 70.55V62.9H0v-3.35h15.17v3.35H9.52v15.3h-3.9zm11.85-1.67v-9.33h13.7v3.35h-9.9v3.9h9.08v3.35h-9.08v4.7H31.6v3.35H17.45zm17.37 0v-9.33l5.54.04c5.34.02 5.58.03 6.3.27 2.48.85 3.97 3.43 3.45 6.04-.25 1.38-1.13 2.64-2.2 3.18l-.44.22.66.4c.72.4 1.12.9 1.33 1.58.07.23.17 1.53.2 2.9.1 2.64.23 3.28.7 3.4.16.05.24.17.24.34v.28h-4.4l-.1-.43c-.2-.74-.25-1.3-.35-3.33-.1-2.15-.24-2.64-.83-3.07-.47-.35-1.1-.42-3.8-.42h-2.5v7.25h-3.8v-9.33zm10.37-1.4c1.5-.9 1.47-3.6-.1-4.44-.3-.18-.8-.2-3.42-.25l-3.1-.04v5.1l3.03-.05 3.03-.02.54-.32zm8.35 1.4v-9.33l5.55.04c5.35.02 5.58.03 6.3.27 2.48.85 3.97 3.43 3.46 6.04-.28 1.38-1.16 2.64-2.23 3.18l-.44.22.64.4c.7.4 1.1.9 1.32 1.58.07.23.17 1.53.2 2.9.1 2.64.23 3.28.7 3.4.16.05.24.17.24.34v.28h-4.35l-.1-.43c-.2-.74-.26-1.3-.36-3.33-.1-2.15-.25-2.64-.85-3.07-.47-.35-1.1-.42-3.8-.42h-2.5v7.25h-3.8zm10.37-1.4c1.53-.9 1.5-3.6-.07-4.44-.3-.18-.8-.2-3.43-.25l-3.08-.04v5.1l3.02-.05 3.02-.02zm7.47 9.37l3.3-9.3 2.84-7.93 2.3-.03 2.28-.04 2.7 7.63 3.3 9.3.6 1.7-2.14-.02-2.16-.03-.57-1.88-.57-1.87h-6.92l-.2.55-.67 1.9L75 78.2h-4.1zm10.25-7.25l-1.15-3.67c-.37-1.15-.7-2.07-.72-2.04-.03.02-.58 1.67-1.22 3.66L77.4 71.2h4.75zm13.93 6.75L95 75.2l2.5-2.46 2.46-2.48 1.7.04 1.68.03-3.6 3.6-3.6 3.6zm-1.13-2.87c-.12-.35-.3-1.7-.32-2.4l-.03-.76.94-.04h1.87l.94.04-1.67 1.66c-1.1 1.1-1.68 1.6-1.7 1.5zm23.75-8.53c-.3-.6-.55-1.13-.55-1.2 0-.05 1.4-1.52 3.16-3.24l3.2-3.13 1.68.03 1.7.03-4.3 4.3-4.3 4.3zm-2.36-3.3l-.9-.9 1.76-1.7 1.76-1.67h3.44l-2.58 2.58-2.58 2.6-.9-.9zm-3.24-2.3l-1.1-.57c-.02-.02.3-.34.7-.7l.74-.7h3.45l-1.28 1.26c-.7.7-1.32 1.25-1.38 1.25-.06 0-.58-.27-1.15-.56zm-3.5-1.17c-.23-.05-.84-.13-1.37-.18l-.95-.08.26-.27c.24-.27.3-.27 1.98-.27h1.73l-.45.46c-.47.46-.54.5-1.2.33z" fill="#335189"/></svg>