<?xml version="1.0" encoding="UTF-8" standalone="no"?>
<!-- Created with Inkscape (http://www.inkscape.org/) -->
<svg xmlns:rdf="http://www.w3.org/1999/02/22-rdf-syntax-ns#" xmlns="http://www.w3.org/2000/svg" xml:space="preserve" viewBox="0 0 138.32172 25.998893" version="1.1" xmlns:cc="http://creativecommons.org/ns#" xmlns:dc="http://purl.org/dc/elements/1.1/"><metadata><rdf:RDF><cc:Work rdf:about=""><dc:format>image/svg+xml</dc:format><dc:type rdf:resource="http://purl.org/dc/dcmitype/StillImage"/><dc:title/></cc:Work></rdf:RDF></metadata><g transform="matrix(1.3333 0 0 -1.3333 -597.72 1079.9)"><path d="m527.32 790.47c-0.0474 0.017-0.31502 0.0761-0.59464 0.13134l-0.5084 0.10047 4.7768 4.78 4.7768 4.78h2.1996v0.35009c0 0.19254-0.045 0.62295-0.10009 0.95646l-0.10009 0.60639 3.8725 3.8754 3.8725 3.8754 1.2939-0.003 1.2939-0.003-9.7877-9.744-9.7877-9.744-0.56053 0.003c-0.30829 0.002-0.59934 0.0173-0.64677 0.0343zm12.547 9.7486 9.7012 9.7069h1.229c0.9344 0 1.229-0.0262 1.229-0.1093 0-0.19783-16.799-16.91-17.556-17.466-0.96886-0.71095-2.0688-1.2551-3.1741-1.5702-0.51664-0.1473-0.98225-0.26782-1.0347-0.26782-0.0524 0 4.2702 4.3681 9.6059 9.7069zm-15.652-8.7522c-0.37695 0.19288-0.72744 0.38564-0.77888 0.42835-0.062 0.0515 1.3046 1.4754 4.0521 4.2223l4.1456 4.1447h2.584l-4.5699-4.573c-2.5134-2.5152-4.6099-4.573-4.6588-4.573s-0.39734 0.1578-0.77428 0.35068zm-2.379 1.6985c-0.26216 0.27287-0.52979 0.56668-0.59474 0.6529-0.10771 0.14301 0.15748 0.43255 3.0229 3.3003l3.1409 3.1436h2.5618l-3.73-3.7965c-2.0515-2.088-3.7737-3.7965-3.8271-3.7965s-0.31163 0.22326-0.5738 0.49613zm-69.326 6.8811v5.7378h-4.2256v2.5022h11.383v-2.5022h-4.2256v-11.476h-2.932zm8.8822 1.2511v6.9889h10.262v-2.5022h-7.4162v-2.9336h6.8126v-2.5022h-6.8126v-3.5376h7.7612v-2.5022h-10.607zm13.022 0.005v6.9935l4.1609-0.0281c4.0048-0.0271 4.1816-0.0352 4.7138-0.2156 1.8708-0.63431 2.983-2.5706 2.5988-4.5246-0.20307-1.0327-0.86328-1.9718-1.6711-2.377l-0.33028-0.16565 0.50049-0.29658c0.52691-0.31224 0.82701-0.67421 0.98859-1.1924 0.0535-0.17167 0.12444-1.1469 0.15757-2.1672 0.0644-1.9828 0.16346-2.4694 0.52187-2.5632 0.11274-0.0295 0.17362-0.11754 0.17362-0.25107v-0.20565h-3.2704l-0.0826 0.32357c-0.14156 0.55442-0.18448 0.96675-0.25948 2.493-0.079 1.6081-0.17837 1.9735-0.62537 2.3-0.35367 0.2584-0.83377 0.31145-2.8551 0.3155l-1.8756 0.004v-5.4358h-2.8458v6.9935zm7.7829 1.0561c1.1464 0.67426 1.114 2.6817-0.0535 3.3213-0.23187 0.12702-0.59568 0.15183-2.5768 0.17573l-2.3068 0.0278v-3.8216l2.2637 0.0279 2.2637 0.0279 0.40977 0.241zm6.2735-1.0561v6.9935l4.1609-0.0281c4.0047-0.0271 4.1816-0.0352 4.7138-0.2156 1.8708-0.63431 2.983-2.5706 2.5988-4.5246-0.20306-1.0327-0.86328-1.9718-1.6711-2.377l-0.33027-0.16565 0.50048-0.29658c0.52692-0.31224 0.82701-0.67421 0.98859-1.1924 0.0535-0.17167 0.12444-1.1469 0.15758-2.1672 0.0644-1.9828 0.16346-2.4694 0.52186-2.5632 0.11275-0.0295 0.17363-0.11754 0.17363-0.25107v-0.20565h-3.2704l-0.0826 0.32357c-0.14156 0.55442-0.18448 0.96675-0.25949 2.493-0.079 1.6081-0.17837 1.9735-0.62536 2.3-0.35368 0.2584-0.83378 0.31145-2.8551 0.3155l-1.8756 0.004v-5.4358h-2.8458zm7.7829 1.0561c1.1464 0.67426 1.114 2.6817-0.0535 3.3213-0.23188 0.12702-0.59569 0.15183-2.5768 0.17573l-2.3068 0.0278v-3.8216l2.2637 0.0279 2.2637 0.0279zm5.6021-7.0358c0.19772 0.55761 1.3161 3.6929 2.4854 6.9674l2.1259 5.9535 1.7166 0.0216 1.7166 0.0216 2.0265-5.7123c1.1146-3.1418 2.2289-6.2876 2.4762-6.9909l0.44965-1.2786-1.6101 0.0235-1.6101 0.0235-0.42819 1.4021-0.4282 1.4021h-5.1901l-0.1447-0.40985c-0.0796-0.22541-0.30617-0.86606-0.50351-1.4237l-0.3588-1.0138h-3.0826zm7.6919 5.4358c-0.20837 0.65252-0.60189 1.8922-0.87449 2.7548-0.2726 0.86265-0.51327 1.5508-0.53481 1.5293-0.0215-0.0216-0.4341-1.2612-0.91681-2.7548l-0.87764-2.7157h3.5826zm10.442-5.069-0.42632 0.86694 1.8543 1.8554 1.8543 1.8554 1.27-0.024 1.27-0.024-2.698-2.6983-2.698-2.6983zm-0.85236 2.1617c-0.0856 0.26256-0.21808 1.2704-0.23747 1.8071l-0.0203 0.56084 0.706 0.0251c0.3883 0.0138 1.0172 0.0138 1.3974 0l0.69145-0.0251-1.2483-1.2463c-0.82509-0.82377-1.262-1.204-1.2889-1.1217zm17.827 6.3882c-0.22917 0.44639-0.42111 0.85045-0.42651 0.8979-0.005 0.0475 1.0633 1.1454 2.375 2.4399l2.3848 2.3536 1.2685-0.024 1.2685-0.024-3.2268-3.2276-3.2268-3.2275zm-1.7841 2.4806-0.67234 0.67668 1.3211 1.2629 1.3211 1.2629 1.2928 0.002 1.2928 0.002-1.9389-1.9414c-1.0664-1.0678-1.9401-1.9414-1.9416-1.9414-0.002 0-0.30529 0.3045-0.67507 0.67667zm-2.4281 1.7263c-0.42687 0.2207-0.79343 0.41212-0.81459 0.42538-0.0212 0.0133 0.21168 0.2541 0.51741 0.5352l0.55588 0.51109 1.2921 0.004 1.2921 0.004-0.94565-0.94912c-0.52011-0.52201-0.98512-0.94525-1.0334-0.94053-0.0482 0.005-0.43696 0.18914-0.86382 0.40984zm-2.6302 0.87845c-0.16601 0.0392-0.62425 0.0982-1.0183 0.13122l-0.71649 0.06 0.19255 0.20508c0.18617 0.19827 0.23557 0.20508 1.4886 0.20508h1.296l-0.33683-0.34513c-0.34992-0.35855-0.40542-0.37426-0.90547-0.25623z" stroke-width=".086259" fill="#335189"/></g></svg>
