<svg xmlns="http://www.w3.org/2000/svg" viewBox="0 0 138.32172 25.998893"><path d="M105.36 25.97c-.07-.03-.42-.1-.8-.18l-.67-.14 6.35-6.38 6.37-6.37h2.94v-.46c0-.25-.06-.83-.14-1.27l-.13-.8 5.15-5.18 5.17-5.17h3.45l-13.05 13-13.05 13-.75-.02c-.4 0-.8 0-.86-.03zm16.72-13L135.02.03h1.64c1.24 0 1.64.03 1.64.14 0 .27-22.4 22.55-23.4 23.3-1.3.94-2.77 1.66-4.24 2.08-.7.2-1.3.36-1.38.36-.07 0 5.7-5.8 12.8-12.93zm-20.86 11.67c-.5-.26-.97-.52-1.04-.57-.1-.07 1.74-1.97 5.4-5.63l5.53-5.53h3.45l-6.1 6.1c-3.34 3.36-6.14 6.1-6.2 6.1s-.53-.2-1.03-.46zm-3.18-2.27c-.35-.36-.7-.75-.8-.87-.13-.2.22-.57 4.04-4.4l4.2-4.2h3.4l-4.97 5.07c-2.72 2.8-5.02 5.06-5.1 5.06s-.4-.3-.76-.66zM5.6 13.2V5.55H0V2.2h15.17v3.35H9.52v15.3h-3.9zm11.85-1.67V2.2h13.7v3.35h-9.9v3.9h9.08v3.35h-9.08v4.7H31.6v3.35H17.45zm17.37 0V2.2l5.54.04c5.34.03 5.58.04 6.3.28 2.48.85 3.97 3.43 3.45 6.04-.26 1.37-1.14 2.63-2.2 3.17l-.45.22.66.4c.72.4 1.12.9 1.33 1.58.07.23.17 1.53.2 2.9.1 2.64.23 3.28.7 3.4.16.05.24.17.24.34v.28H46.2l-.1-.43c-.2-.74-.25-1.3-.35-3.33-.1-2.15-.24-2.64-.83-3.07-.47-.35-1.1-.42-3.8-.42h-2.5v7.25h-3.8v-9.33zm10.37-1.4c1.52-.9 1.48-3.6-.08-4.44-.3-.18-.8-.2-3.43-.25l-3.1-.03v5.1l3.03-.05 3.02-.03.54-.32zm8.36 1.4V2.2l5.55.04c5.35.03 5.58.04 6.3.28 2.48.85 3.97 3.43 3.46 6.04-.28 1.37-1.16 2.63-2.23 3.17l-.44.22.65.4c.7.4 1.1.9 1.32 1.58.07.23.17 1.53.2 2.9.1 2.64.23 3.28.7 3.4.16.05.24.17.24.34v.28h-4.35l-.1-.43c-.2-.74-.26-1.3-.36-3.33-.1-2.15-.24-2.64-.84-3.07-.47-.35-1.1-.42-3.8-.42h-2.5v7.25h-3.8zm10.37-1.4c1.53-.9 1.5-3.6-.07-4.44-.3-.18-.8-.2-3.43-.25l-3.08-.03v5.1l3.02-.05 3.02-.03zm7.47 9.37l3.32-9.3 2.83-7.93 2.3-.03 2.28-.03 2.7 7.63c1.5 4.2 2.97 8.38 3.3 9.32l.6 1.7-2.14-.03-2.16-.03-.57-1.88-.57-1.87h-6.92l-.2.55-.67 1.9-.47 1.35h-4.1zm10.26-7.25L80.5 8.58c-.37-1.15-.7-2.07-.72-2.04-.03.03-.58 1.68-1.22 3.67l-1.17 3.63h4.76zM95.58 19L95 17.86l2.5-2.47 2.46-2.48 1.7.04 1.68.03-3.6 3.6-3.6 3.6zm-1.13-2.87c-.12-.35-.3-1.7-.32-2.4l-.03-.76.94-.04h1.87l.93.04-1.67 1.66c-1.1 1.1-1.68 1.6-1.7 1.5zM118.2 7.6c-.3-.6-.55-1.13-.55-1.2 0-.05 1.4-1.52 3.16-3.24L124 .02l1.68.03 1.7.03-4.3 4.3-4.3 4.3zm-2.36-3.3l-.9-.9 1.76-1.7 1.76-1.67H121.9l-2.58 2.58-2.58 2.6-.9-.9zM112.6 2l-1.1-.57c-.02-.02.3-.34.7-.7l.74-.7h3.45l-1.27 1.26c-.7.7-1.32 1.25-1.38 1.25-.06 0-.58-.26-1.15-.55zM109.1.83c-.23-.05-.84-.13-1.37-.18l-.95-.08.26-.27c.24-.27.3-.27 1.98-.27h1.73l-.45.46c-.47.46-.54.5-1.2.33z" fill="#335189"/></svg>