<svg xmlns="http://www.w3.org/2000/svg" viewBox="0 0 256 256"><g fill="#4accd5"><path d="M74.661 255.718c-3.842-.944-7.253-3.727-9.233-7.533l-1.097-2.11-.235-27.195-.235-27.194-27.47-.235-27.47-.234-2.165-1.272c-2.346-1.377-4.61-3.714-5.925-6.12C.067 182.43 0 180.382 0 158.396v-23.912h121.148v121.438l-22.539.072c-12.396.039-23.173-.085-23.948-.275z"/><path d="M140.873 189.514c-.136-.353-.192-12.457-.125-26.899l.122-26.257 13.383-.29c13.818-.3 15.315-.487 21.758-2.722 16.288-5.65 27.19-23.187 25.97-41.774-1.256-19.15-12.563-32.838-30.457-36.872-4.518-1.018-14.009-1.038-18.512-.038-16.204 3.597-28.311 15.299-32.377 31.293-.592 2.33-.828 6.11-1.001 16.058-.203 11.665-.307 13.014-1 13.033-4.297.117-52.433-.107-52.57-.244-.41-.41-.036-28.435.43-32.13 3.908-31.012 23.728-58.596 52.188-72.63C132.82 3.071 145.842.052 162.001.001c15.836-.05 29.187 2.8 42.26 9.024 26.406 12.569 44.037 35.52 49.762 64.776 6.612 33.783-3.556 66.882-27.59 89.815-13.958 13.32-30.428 21.584-50 25.09-4.573.819-8.046 1.026-20.412 1.219-12.341.192-14.945.121-15.148-.41z"/></g></svg>
