<svg id="Layer_1" data-name="Layer 1" xmlns="http://www.w3.org/2000/svg" viewBox="0 0 210.66 251.52"><defs><style>.cls-1{fill:#4accd5;}.cls-2{isolation:isolate;}</style></defs><title>tplink</title><path class="cls-1" d="M63.63,207.44a11.67,11.67,0,0,1-7.39-6l-.88-1.69L55.17,178,55,156.19,33,156l-22-.19-1.73-1a13.52,13.52,0,0,1-4.74-4.9c-.61-1.12-.67-2.76-.67-20.36V110.36h97v97.25l-18,.06c-9.93,0-18.56-.07-19.18-.22Z" transform="translate(-0.41 -2.66)"/><path class="cls-1" d="M116.65,154.43c-.11-.28-.15-10-.1-21.54l.1-21,10.72-.23c11.07-.24,12.26-.39,17.42-2.18,13-4.52,21.77-18.57,20.8-33.45-1-15.36-10.07-26.36-24.4-29.56a45.63,45.63,0,0,0-14.82,0,33.8,33.8,0,0,0-25.93,25c-.47,1.87-.66,4.89-.8,12.86-.16,9.34-.25,10.42-.8,10.44-3.44.09-42-.09-42.1-.2-.33-.33,0-22.77.34-25.73a76,76,0,0,1,41.76-58.2,74.41,74.41,0,0,1,34.69-8c12.68,0,23.37,2.24,33.84,7.23C188.52,20,202.63,38.34,207.22,61.77c5.29,27-2.85,53.56-22.09,71.92a75.68,75.68,0,0,1-40,20.09c-3.66.66-6.44.82-16.35,1s-12,.1-12.13-.33Z" transform="translate(-0.41 -2.66)"/><g class="cls-2"><path d="M34.62,218.67a10.81,10.81,0,0,1-.09,1.47,3.59,3.59,0,0,1-.26,1,1.33,1.33,0,0,1-.43.55,1,1,0,0,1-.57.18H22.08v31.07a.76.76,0,0,1-.22.54,1.64,1.64,0,0,1-.74.39,8.38,8.38,0,0,1-1.4.24q-.88.09-2.19.09t-2.19-.09a8.38,8.38,0,0,1-1.4-.24,1.63,1.63,0,0,1-.74-.39.76.76,0,0,1-.22-.54V221.86H1.76a1,1,0,0,1-.59-.18,1.39,1.39,0,0,1-.41-.55,3.52,3.52,0,0,1-.26-1,10.73,10.73,0,0,1-.09-1.47,11.31,11.31,0,0,1,.09-1.52,3.54,3.54,0,0,1,.26-1,1.26,1.26,0,0,1,.41-.54,1,1,0,0,1,.59-.16H33.27a1,1,0,0,1,.57.16,1.21,1.21,0,0,1,.43.54,3.61,3.61,0,0,1,.26,1A11.39,11.39,0,0,1,34.62,218.67Z" transform="translate(-0.41 -2.66)"/></g><g class="cls-2"><path d="M70.52,227.16a13.39,13.39,0,0,1-1.17,5.75,11.26,11.26,0,0,1-3.42,4.21,15.91,15.91,0,0,1-5.51,2.61,29.32,29.32,0,0,1-7.69.89H49v12.3a.76.76,0,0,1-.22.54,1.63,1.63,0,0,1-.74.39,8.35,8.35,0,0,1-1.38.24q-.86.09-2.21.09t-2.19-.09a8.38,8.38,0,0,1-1.4-.24,1.5,1.5,0,0,1-.73-.39.8.8,0,0,1-.21-.54V218.26a2.56,2.56,0,0,1,.85-2.1,3.38,3.38,0,0,1,2.23-.7H53.52q1.59,0,3,.1T60,216A16.86,16.86,0,0,1,64,217.28a12,12,0,0,1,3.51,2.34,9.53,9.53,0,0,1,2.21,3.31A11.31,11.31,0,0,1,70.52,227.16Zm-9.5.57a6.14,6.14,0,0,0-.83-3.34,5.31,5.31,0,0,0-2-1.94,7.5,7.5,0,0,0-2.54-.79,22.44,22.44,0,0,0-2.75-.16H49v13.08h4.08a11.29,11.29,0,0,0,3.65-.51,6.36,6.36,0,0,0,2.4-1.42,6,6,0,0,0,1.42-2.17A7.66,7.66,0,0,0,61,227.73Z" transform="translate(-0.41 -2.66)"/></g><g class="cls-2"><path d="M90.77,239a5.4,5.4,0,0,1-.38,2.41,1.28,1.28,0,0,1-1.21.68H74.81a1.31,1.31,0,0,1-1.24-.7,5.41,5.41,0,0,1-.38-2.4,5.22,5.22,0,0,1,.38-2.35,1.31,1.31,0,0,1,1.24-.68H89.18a1.55,1.55,0,0,1,.71.15,1.24,1.24,0,0,1,.5.51,2.69,2.69,0,0,1,.29,1A10.24,10.24,0,0,1,90.77,239Z" transform="translate(-0.41 -2.66)"/><path d="M122.24,250.72a11,11,0,0,1-.09,1.5,4.06,4.06,0,0,1-.26,1,1.31,1.31,0,0,1-.43.58,1,1,0,0,1-.6.18H100.37a3.11,3.11,0,0,1-1.92-.58,2.21,2.21,0,0,1-.78-1.89v-35a.76.76,0,0,1,.22-.54,1.64,1.64,0,0,1,.74-.39,8.18,8.18,0,0,1,1.4-.24q.88-.09,2.19-.09a22,22,0,0,1,2.21.09,8.15,8.15,0,0,1,1.38.24,1.65,1.65,0,0,1,.74.39.76.76,0,0,1,.22.54v31h14.06a1.11,1.11,0,0,1,.6.16,1.22,1.22,0,0,1,.43.54,3.6,3.6,0,0,1,.26,1A11,11,0,0,1,122.24,250.72Z" transform="translate(-0.41 -2.66)"/><path d="M136.44,217.42a3.84,3.84,0,0,1-1.07,3.13q-1.07.86-4,.86t-4-.83a3.72,3.72,0,0,1-1-3,3.92,3.92,0,0,1,1.05-3.14q1.05-.88,4-.88t3.94.85A3.73,3.73,0,0,1,136.44,217.42ZM135.79,253a.74.74,0,0,1-.21.52,1.59,1.59,0,0,1-.71.37,7,7,0,0,1-1.33.22q-.83.07-2.11.07t-2.11-.07a7,7,0,0,1-1.33-.22,1.59,1.59,0,0,1-.71-.37.75.75,0,0,1-.21-.52V226.48a.75.75,0,0,1,.21-.52,1.69,1.69,0,0,1,.71-.39,6.8,6.8,0,0,1,1.33-.25,25,25,0,0,1,4.21,0,6.8,6.8,0,0,1,1.33.25,1.69,1.69,0,0,1,.71.39.74.74,0,0,1,.21.52Z" transform="translate(-0.41 -2.66)"/><path d="M173.9,253a.74.74,0,0,1-.21.52,1.58,1.58,0,0,1-.69.37,6.7,6.7,0,0,1-1.33.22q-.85.07-2.09.07c-.85,0-1.56,0-2.12-.07a6.7,6.7,0,0,1-1.33-.22,1.57,1.57,0,0,1-.69-.37.74.74,0,0,1-.21-.52V237.83a11.09,11.09,0,0,0-.33-3,5.6,5.6,0,0,0-1-1.89,4.1,4.1,0,0,0-1.61-1.22,5.69,5.69,0,0,0-2.3-.43,6.36,6.36,0,0,0-3.35,1,17.12,17.12,0,0,0-3.52,3V253a.74.74,0,0,1-.21.52,1.59,1.59,0,0,1-.71.37,7,7,0,0,1-1.33.22q-.83.07-2.11.07t-2.11-.07a7,7,0,0,1-1.33-.22,1.59,1.59,0,0,1-.71-.37.75.75,0,0,1-.21-.52V226.42a.82.82,0,0,1,.17-.52,1.28,1.28,0,0,1,.62-.37,5.62,5.62,0,0,1,1.16-.22,17.47,17.47,0,0,1,1.78-.07q1.1,0,1.83.07a4.69,4.69,0,0,1,1.12.22,1.26,1.26,0,0,1,.57.37.83.83,0,0,1,.17.52v3.07a19.43,19.43,0,0,1,5.2-3.57,13.28,13.28,0,0,1,5.51-1.19,13.9,13.9,0,0,1,5.3.89,9.15,9.15,0,0,1,3.49,2.43,9.29,9.29,0,0,1,1.92,3.59,18.14,18.14,0,0,1,.59,4.95Z" transform="translate(-0.41 -2.66)"/><path d="M211.07,253a.78.78,0,0,1-.19.52,1.36,1.36,0,0,1-.69.36,8.23,8.23,0,0,1-1.36.21c-.58,0-1.33.07-2.25.07s-1.71,0-2.3-.06a9.35,9.35,0,0,1-1.45-.19,2,2,0,0,1-1.43-1l-10.26-14V253a.74.74,0,0,1-.21.52,1.58,1.58,0,0,1-.71.37,7,7,0,0,1-1.33.22q-.83.07-2.11.07t-2.11-.07a7,7,0,0,1-1.33-.22,1.58,1.58,0,0,1-.71-.37.75.75,0,0,1-.21-.52V213.82a.8.8,0,0,1,.21-.54,1.57,1.57,0,0,1,.71-.4,6.66,6.66,0,0,1,1.33-.25,24.77,24.77,0,0,1,4.22,0,6.66,6.66,0,0,1,1.33.25,1.58,1.58,0,0,1,.71.4.8.8,0,0,1,.21.54v23.32l9.12-10.57a3.5,3.5,0,0,1,.62-.63,2.52,2.52,0,0,1,.92-.42,8.71,8.71,0,0,1,1.42-.22q.85-.07,2.16-.07t2.16.07a8,8,0,0,1,1.42.22,1.62,1.62,0,0,1,.74.37.78.78,0,0,1,.21.55,2.09,2.09,0,0,1-.26,1,5,5,0,0,1-.78,1.07l-9,8.82,10.43,13.91a6.4,6.4,0,0,1,.6,1A2,2,0,0,1,211.07,253Z" transform="translate(-0.41 -2.66)"/></g></svg>