<svg id="Layer_1" data-name="Layer 1" xmlns="http://www.w3.org/2000/svg" viewBox="0 0 320 320"><defs><style>.cls-1{fill:#4accd5;}</style></defs><title>aArtboard 1</title><path class="cls-1" d="M108.46,253.93a14.34,14.34,0,0,1-9.08-7.37l-1.08-2.08-.23-26.73-.21-26.81-27-.23-27-.23-2.13-1.23a16.62,16.62,0,0,1-5.83-6c-.75-1.38-.82-3.39-.82-25V134.61H154.22V254.14l-22.12.07c-12.2,0-22.81-.09-23.57-.27Z"/><path class="cls-1" d="M173.62,188.78c-.14-.34-.18-12.29-.12-26.47l.12-25.81,13.18-.28c13.61-.29,15.07-.48,21.41-2.68,16-5.56,26.76-22.82,25.56-41.11-1.23-18.88-12.38-32.4-30-36.33a56.08,56.08,0,0,0-18.21,0A41.54,41.54,0,0,0,153.7,86.82c-.58,2.3-.81,6-1,15.81-.2,11.48-.31,12.81-1,12.83-4.23.11-51.62-.11-51.74-.25-.41-.41,0-28,.42-31.62a93.41,93.41,0,0,1,51.32-71.53,91.45,91.45,0,0,1,42.64-9.83C210,2.22,223.09,5,236,11.11c26,12.45,43.34,35,49,63.79,6.5,33.18-3.5,65.83-27.15,88.39A93,93,0,0,1,208.63,188c-4.5.81-7.91,1-20.09,1.23s-14.75.12-14.91-.41Z"/><path d="M72.81,276.33a13.29,13.29,0,0,1-.11,1.81,4.41,4.41,0,0,1-.32,1.23,1.63,1.63,0,0,1-.53.68,1.23,1.23,0,0,1-.7.22H57.4v38.19a.93.93,0,0,1-.27.66,2,2,0,0,1-.91.48,10.3,10.3,0,0,1-1.72.29q-1.08.11-2.69.11t-2.69-.11a10.3,10.3,0,0,1-1.72-.29,2,2,0,0,1-.91-.48.93.93,0,0,1-.27-.66v-38.2H32.42a1.23,1.23,0,0,1-.73-.22,1.71,1.71,0,0,1-.5-.68,4.33,4.33,0,0,1-.32-1.23,13.19,13.19,0,0,1-.11-1.81,13.9,13.9,0,0,1,.11-1.87,4.35,4.35,0,0,1,.32-1.23,1.55,1.55,0,0,1,.5-.66,1.23,1.23,0,0,1,.73-.2H71.15a1.23,1.23,0,0,1,.7.2,1.49,1.49,0,0,1,.53.66,4.44,4.44,0,0,1,.32,1.23A14,14,0,0,1,72.81,276.33Z"/><path d="M116.93,286.77a16.46,16.46,0,0,1-1.44,7.07,13.84,13.84,0,0,1-4.2,5.17,19.55,19.55,0,0,1-6.77,3.21,36,36,0,0,1-9.45,1.09H90.48v15.12a.93.93,0,0,1-.27.66,2,2,0,0,1-.91.48,10.26,10.26,0,0,1-1.7.29,27.05,27.05,0,0,1-2.72.11,26.29,26.29,0,0,1-2.69-.11,10.3,10.3,0,0,1-1.72-.29,1.84,1.84,0,0,1-.9-.48,1,1,0,0,1-.26-.66v-42.6a3.15,3.15,0,0,1,1-2.58,4.15,4.15,0,0,1,2.74-.86H96q2,0,3.69.12t4.28.54a20.72,20.72,0,0,1,4.92,1.57,14.75,14.75,0,0,1,4.31,2.88,11.71,11.71,0,0,1,2.72,4.07A13.9,13.9,0,0,1,116.93,286.77Zm-11.68.7a7.55,7.55,0,0,0-1-4.1,6.53,6.53,0,0,0-2.46-2.38,9.22,9.22,0,0,0-3.12-1,27.58,27.58,0,0,0-3.38-.2H90.48v16.08h5a13.88,13.88,0,0,0,4.49-.63,7.82,7.82,0,0,0,2.95-1.75,7.37,7.37,0,0,0,1.75-2.67,9.41,9.41,0,0,0,.55-3.38Z"/><path d="M141.82,301.32a6.64,6.64,0,0,1-.47,3,1.57,1.57,0,0,1-1.49.84H122.2a1.61,1.61,0,0,1-1.52-.86,6.65,6.65,0,0,1-.47-2.95,6.42,6.42,0,0,1,.47-2.89,1.61,1.61,0,0,1,1.52-.84h17.66a1.91,1.91,0,0,1,.87.18,1.52,1.52,0,0,1,.61.63,3.31,3.31,0,0,1,.36,1.23A12.58,12.58,0,0,1,141.82,301.32Z"/><path d="M180.5,315.72a13.52,13.52,0,0,1-.11,1.84,5,5,0,0,1-.32,1.23,1.61,1.61,0,0,1-.53.71,1.23,1.23,0,0,1-.74.22H153.62a3.82,3.82,0,0,1-2.36-.71,2.72,2.72,0,0,1-1-2.32v-43a.93.93,0,0,1,.27-.66,2,2,0,0,1,.91-.48,10.05,10.05,0,0,1,1.72-.29q1.08-.11,2.69-.11a27,27,0,0,1,2.72.11,10,10,0,0,1,1.7.29,2,2,0,0,1,.91.48.93.93,0,0,1,.27.66v38.1h17.28a1.36,1.36,0,0,1,.74.2,1.5,1.5,0,0,1,.53.66,4.42,4.42,0,0,1,.32,1.23A13.52,13.52,0,0,1,180.5,315.72Z"/><path d="M197.95,274.8a4.72,4.72,0,0,1-1.32,3.85q-1.32,1.06-4.92,1.06t-4.92-1a4.57,4.57,0,0,1-1.23-3.69,4.82,4.82,0,0,1,1.29-3.86q1.29-1.08,4.92-1.08t4.84,1A4.58,4.58,0,0,1,197.95,274.8Zm-.8,43.73a.91.91,0,0,1-.26.64,2,2,0,0,1-.87.45,8.6,8.6,0,0,1-1.63.27q-1,.09-2.59.09t-2.59-.09a8.6,8.6,0,0,1-1.63-.27,2,2,0,0,1-.87-.45.92.92,0,0,1-.26-.64V285.93a.92.92,0,0,1,.26-.64,2.08,2.08,0,0,1,.87-.48,8.36,8.36,0,0,1,1.63-.31,30.72,30.72,0,0,1,5.17,0,8.36,8.36,0,0,1,1.63.31,2.08,2.08,0,0,1,.87.48.91.91,0,0,1,.26.64Z"/><path d="M244,318.53a.91.91,0,0,1-.26.64,1.94,1.94,0,0,1-.85.45,8.23,8.23,0,0,1-1.63.27q-1,.09-2.57.09a23,23,0,0,1-2.61-.09,8.23,8.23,0,0,1-1.63-.27,1.93,1.93,0,0,1-.85-.45.91.91,0,0,1-.26-.64V299.88a13.63,13.63,0,0,0-.41-3.69,6.88,6.88,0,0,0-1.23-2.32,5,5,0,0,0-2-1.5,7,7,0,0,0-2.83-.53,7.82,7.82,0,0,0-4.12,1.23,21,21,0,0,0-4.33,3.69v21.77a.91.91,0,0,1-.26.64,2,2,0,0,1-.87.45,8.6,8.6,0,0,1-1.63.27q-1,.09-2.59.09t-2.59-.09a8.6,8.6,0,0,1-1.63-.27,2,2,0,0,1-.87-.45.92.92,0,0,1-.26-.64V285.86a1,1,0,0,1,.21-.64,1.57,1.57,0,0,1,.76-.45,6.91,6.91,0,0,1,1.43-.27,21.47,21.47,0,0,1,2.19-.09q1.35,0,2.25.09a5.76,5.76,0,0,1,1.38.27,1.55,1.55,0,0,1,.7.45,1,1,0,0,1,.21.64v3.77a23.88,23.88,0,0,1,6.39-4.39,16.32,16.32,0,0,1,6.77-1.46,17.08,17.08,0,0,1,6.51,1.09,11.25,11.25,0,0,1,4.29,3,11.42,11.42,0,0,1,2.36,4.41,22.29,22.29,0,0,1,.73,6.08Z"/><path d="M289.67,318.53a1,1,0,0,1-.23.64,1.67,1.67,0,0,1-.85.44,10.11,10.11,0,0,1-1.67.26c-.71,0-1.63.09-2.77.09s-2.1,0-2.83-.07a11.49,11.49,0,0,1-1.78-.23,2.46,2.46,0,0,1-1.76-1.23l-12.61-17.21v17.32a.91.91,0,0,1-.26.64,1.94,1.94,0,0,1-.87.45,8.6,8.6,0,0,1-1.63.27q-1,.09-2.59.09t-2.59-.09a8.6,8.6,0,0,1-1.63-.27,1.94,1.94,0,0,1-.87-.45.92.92,0,0,1-.26-.64V270.37a1,1,0,0,1,.26-.66,1.93,1.93,0,0,1,.87-.49,8.19,8.19,0,0,1,1.63-.31,30.44,30.44,0,0,1,5.19,0,8.19,8.19,0,0,1,1.63.31,1.94,1.94,0,0,1,.87.49,1,1,0,0,1,.26.66V299l11.21-13a4.3,4.3,0,0,1,.76-.77,3.1,3.1,0,0,1,1.13-.52,10.71,10.71,0,0,1,1.75-.27q1-.09,2.65-.09t2.65.09a9.83,9.83,0,0,1,1.75.27,2,2,0,0,1,.91.45,1,1,0,0,1,.26.68,2.57,2.57,0,0,1-.32,1.23,6.14,6.14,0,0,1-1,1.32L275.9,299.27l12.82,17.1a7.87,7.87,0,0,1,.74,1.23A2.46,2.46,0,0,1,289.67,318.53Z"/></svg>