<?xml version="1.0" encoding="UTF-8" standalone="no"?>
<!-- Generator: Adobe Illustrator 25.2.0, SVG Export Plug-In . SVG Version: 6.00 Build 0)  -->

<svg
   version="1.1"
   id="Capa_1"
   x="0px"
   y="0px"
   viewBox="0 0 470.89998 312.70001"
   xml:space="preserve"
   sodipodi:docname="tredess-icon.svg"
   width="470.89999"
   height="312.70001"
   inkscape:version="1.3.2 (091e20e, 2023-11-25, custom)"
   xmlns:inkscape="http://www.inkscape.org/namespaces/inkscape"
   xmlns:sodipodi="http://sodipodi.sourceforge.net/DTD/sodipodi-0.dtd"
   xmlns="http://www.w3.org/2000/svg"
   xmlns:svg="http://www.w3.org/2000/svg"><defs
   id="defs17" /><sodipodi:namedview
   id="namedview17"
   pagecolor="#ffffff"
   bordercolor="#000000"
   borderopacity="0.25"
   inkscape:showpageshadow="2"
   inkscape:pageopacity="0.0"
   inkscape:pagecheckerboard="0"
   inkscape:deskcolor="#d1d1d1"
   showgrid="false"
   inkscape:zoom="1.2801998"
   inkscape:cx="201.14048"
   inkscape:cy="303.07769"
   inkscape:window-width="1718"
   inkscape:window-height="1360"
   inkscape:window-x="-7"
   inkscape:window-y="0"
   inkscape:window-maximized="1"
   inkscape:current-layer="Capa_1" />
<style
   type="text/css"
   id="style1">
	.st0{fill-rule:evenodd;clip-rule:evenodd;fill:#F4F4F4;}
	.st1{fill-rule:evenodd;clip-rule:evenodd;fill:#FF9933;}
	.st2{fill:#FF9933;}
</style>





<path
   class="st1"
   d="m 273.9,65.2 -81.4,0.2 V 0 h 159.4 c 55.1,0 109.4,25 109.4,88 0,33.7 -16.2,65.7 -49,78.4 v 0.9 c 33.3,7.9 42.9,45.1 45.5,74.9 0.9,13.1 2.2,59.1 13.1,70.5 h -80.6 c -7,-10.5 -8.3,-41.1 -9.2,-49.9 -2.2,-31.5 -7.4,-63.9 -45.5,-63.9 h -55.4 v -63 h 62 c 24.5,0 37.6,-13.1 37.6,-36.8 0,-23.2 -18.4,-33.7 -41.1,-33.7 h -64.8 z"
   id="path6" />
<polygon
   class="st0"
   points="93.2,312.6 174.7,312.6 174.7,65.2 252.4,65.2 252.4,0 0,0 0,65.2 93.2,65.2 "
   id="polygon6"
   style="fill:#000000;fill-opacity:1" />
<rect
   x="197.3"
   y="135.60001"
   class="st2"
   width="62.799999"
   height="62.799999"
   id="rect6" />














</svg>
