<?xml version="1.0" encoding="utf-8"?>
<!-- Generator: Adobe Illustrator 25.2.0, SVG Export Plug-In . SVG Version: 6.00 Build 0)  -->
<svg version="1.1" id="Capa_1" xmlns="http://www.w3.org/2000/svg" xmlns:xlink="http://www.w3.org/1999/xlink" x="0px" y="0px"
	 viewBox="0 0 1101 312.6" style="enable-background:new 0 0 1101 312.6;" xml:space="preserve">
<style type="text/css">
	.st0{fill-rule:evenodd;clip-rule:evenodd;fill:#F4F4F4;}
	.st1{fill-rule:evenodd;clip-rule:evenodd;fill:#FF9933;}
	.st2{fill:#FF9933;}
</style>
<path class="st0" d="M599.9,120.7c4.7-38-19.8-74-59.8-74c-37.7,0-61.3,30.9-61.3,66.9c0,39,22.3,66.7,62,66.7
	c27.7,0,51.2-15.4,57.4-43.1h-26.5c-4.9,14-14.7,21.1-30.9,21.1c-23.3,0-34.1-17.6-34.1-37.5L599.9,120.7z M506.8,102.3
	c0.7-18.9,14-33.6,33.3-33.6c18.9,0,30.9,15.9,31.9,33.6L506.8,102.3z"/>
<path class="st0" d="M633.2,114.8c0-22.8,9.3-46.1,35.5-46.1c21.6,0,35,16.7,35,44.6c0,22.1-10.5,44.9-35.5,44.9
	C644,158.2,633.2,136.6,633.2,114.8z M730.8,1.8h-27.9v64.7h-0.5c-8.6-14-26.2-19.8-42.2-19.8c-27.7,0-54.9,20.1-54.9,65.9
	c0,38,19.4,67.6,59.3,67.6c15.9,0,31.9-6.1,39.2-20.6h0.5v17.2h26.5V1.8z"/>
<path class="st0" d="M866.3,120.7c4.7-38-19.9-74-59.8-74c-37.8,0-61.3,30.9-61.3,66.9c0,39,22.3,66.7,62,66.7
	c27.7,0,51.2-15.4,57.3-43.1h-26.5c-4.9,14-14.7,21.1-30.9,21.1c-23.3,0-34.1-17.6-34.1-37.5L866.3,120.7z M773.1,102.3
	c0.7-18.9,14-33.6,33.3-33.6c18.9,0,30.9,15.9,31.8,33.6H773.1z"/>
<path class="st0" d="M870.9,136.1c0.5,29.9,24.3,44.1,56.1,44.1c26.2,0,56.6-11,56.6-41.2c0-25-20.6-32.4-40.9-37
	c-20.6-4.7-41.2-6.6-41.2-20.3c0-11,15-13,23-13c12.3,0,23.3,3.7,25.7,16.9h29.2c-3.4-28.2-27-39-52.9-39c-23,0-53,8.6-53,36.3
	c0,25.7,20.1,33.1,40.7,37.5c20.3,4.7,40.7,6.4,41.4,21.1c0.7,14.5-17.6,16.7-28.2,16.7c-15,0-27.2-5.9-28.7-22.1L870.9,136.1z"/>
<path class="st0" d="M988.2,136.1c0.5,29.9,24.3,44.1,56.1,44.1c26.2,0,56.6-11,56.6-41.2c0-25-20.6-32.4-40.9-37
	c-20.6-4.7-41.2-6.6-41.2-20.3c0-11,15-13,23-13c12.3,0,23.3,3.7,25.7,16.9h29.2c-3.4-28.2-27-39-52.9-39c-23,0-52.9,8.6-52.9,36.3
	c0,25.7,20.1,33.1,40.7,37.5c20.3,4.7,40.7,6.4,41.4,21.1c0.7,14.5-17.6,16.7-28.2,16.7c-14.9,0-27.2-5.9-28.7-22.1L988.2,136.1z"/>
<path class="st1" d="M273.9,65.2l-81.4,0.2V0h159.4C407,0,461.3,25,461.3,88c0,33.7-16.2,65.7-49,78.4v0.9
	c33.3,7.9,42.9,45.1,45.5,74.9c0.9,13.1,2.2,59.1,13.1,70.5h-80.6c-7-10.5-8.3-41.1-9.2-49.9c-2.2-31.5-7.4-63.9-45.5-63.9h-55.4
	v-63h62c24.5,0,37.6-13.1,37.6-36.8c0-23.2-18.4-33.7-41.1-33.7H273.9z"/>
<polygon class="st0" points="252.4,0 0,0 0,65.2 93.2,65.2 93.2,312.6 174.7,312.6 174.7,65.2 252.4,65.2 "/>
<rect x="197.3" y="135.6" class="st2" width="62.8" height="62.8"/>
<path class="st1" d="M1047.8,230.4c0-11.5,9.3-20.8,20.8-20.8c11.5,0,20.8,9.3,20.8,20.8c0,11.5-9.3,20.8-20.8,20.8c0,0,0,0,0,0
	C1057.1,251.3,1047.8,241.9,1047.8,230.4z"/>
<path class="st1" d="M992.7,230.4c0-10.9,8.8-19.7,19.7-19.7c10.9,0,19.7,8.8,19.7,19.7s-8.8,19.7-19.7,19.7c0,0,0,0,0,0
	C1001.5,250.2,992.7,241.3,992.7,230.4C992.7,230.5,992.7,230.5,992.7,230.4z"/>
<path class="st1" d="M939.8,230.4c0-10.3,8.3-18.6,18.5-18.6c10.3,0,18.6,8.3,18.6,18.5s-8.3,18.6-18.5,18.6c0,0,0,0,0,0
	C948.2,249,939.8,240.7,939.8,230.4z"/>
<path class="st1" d="M889.2,230.4c0-9.6,7.8-17.5,17.5-17.5s17.5,7.8,17.5,17.5s-7.8,17.5-17.5,17.5S889.2,240.1,889.2,230.4
	C889.2,230.5,889.2,230.5,889.2,230.4z"/>
<path class="st1" d="M840.9,230.4c0-9,7.3-16.4,16.3-16.4c9,0,16.4,7.3,16.4,16.3c0,9-7.3,16.4-16.3,16.4c0,0,0,0,0,0
	C848.2,246.8,840.9,239.5,840.9,230.4C840.9,230.5,840.9,230.5,840.9,230.4z"/>
<path class="st1" d="M794.8,230.4c0-8.4,6.8-15.2,15.2-15.2c8.4,0,15.2,6.8,15.2,15.2c0,8.4-6.8,15.2-15.2,15.2
	C801.6,245.7,794.8,238.9,794.8,230.4C794.8,230.5,794.8,230.5,794.8,230.4z"/>
<ellipse transform="matrix(1.186797e-02 -0.9999 0.9999 1.186797e-02 525.4513 992.6226)" class="st2" cx="765" cy="230.4" rx="14.1" ry="14.1"/>
<path class="st1" d="M709.3,230.4c0-7.2,5.8-13,13-13s13,5.8,13,13s-5.8,13-13,13l0,0C715.1,243.4,709.3,237.6,709.3,230.4z"/>
<ellipse transform="matrix(0.9227 -0.3854 0.3854 0.9227 -36.1622 280.5614)" class="st2" cx="681.7" cy="230.5" rx="11.9" ry="11.9"/>
<ellipse transform="matrix(0.2287 -0.9735 0.9735 0.2287 271.9667 804.1477)" class="st2" cx="643.5" cy="230.4" rx="10.7" ry="10.7"/>
<path class="st1" d="M597.8,230.4c0-5.3,4.3-9.6,9.6-9.6c5.3,0,9.6,4.3,9.6,9.6c0,5.3-4.3,9.6-9.6,9.6c0,0,0,0,0,0
	C602.1,240.1,597.8,235.8,597.8,230.4z"/>
<path class="st1" d="M565.2,230.4c0-4.7,3.8-8.5,8.5-8.5s8.5,3.8,8.5,8.5c0,4.7-3.8,8.5-8.5,8.5c0,0,0,0,0,0
	C569,238.9,565.2,235.1,565.2,230.4z"/>
<path class="st1" d="M534.8,230.4c0-4.1,3.3-7.4,7.4-7.4c4.1,0,7.4,3.3,7.4,7.4c0,4.1-3.3,7.4-7.4,7.4
	C538.1,237.8,534.8,234.5,534.8,230.4C534.8,230.5,534.8,230.5,534.8,230.4z"/>
<path class="st1" d="M506.6,230.4c0-3.5,2.8-6.3,6.2-6.3c3.5,0,6.3,2.8,6.3,6.2c0,3.5-2.8,6.3-6.2,6.3c0,0,0,0,0,0
	C509.4,236.7,506.6,233.9,506.6,230.4z"/>
</svg>
