<svg viewBox="0 0 233.85808 183.53942" xmlns="http://www.w3.org/2000/svg"><path d="m18.282 24.097-2.767 14.896h13.495l-8.133 47.587h15.92l8.303-47.587h12.978l2.595-14.896zm77.692 52.412c.864-5.102 1.728-15.308-2.77-18.067 2.77-2.066 7.96-3.447 8.655-15.862.687-12.412-6.577-18.065-18.345-18.618l-21.455.135-10.9 62.346h15.744l3.81-22.347s5.342.019 5.361 0c3.965.218 5.211.715 4.464 7.66-.934 6.752-.624 13.535.373 14.687 0 .054 8.763 0 16.791 0v-4.136s-2.595-.697-1.728-5.798zm-9.584-32.543c-.549 6.192-7.534 5.459-7.534 5.459h-5.54l1.992-11.167s5.666.05 5.666 0c2.926.101 5.976-.595 5.416 5.708m85.235 1.49c1.562-12.366-5.367-20.941-17.134-21.494l-21.456.135-10.9 62.346h15.744l3.611-21.235h6.288c17.06 0 22.102-5.956 23.847-19.752zm-15.69-.396c-.55 6.192-6.35 5.46-6.35 5.46h-5.542l2.055-12.211c1.455.013 2.989.1 5.852.1 2.926.098 4.545.346 3.984 6.651m61.763.396c1.563-12.366-5.366-20.941-17.134-21.494l-21.456.135-10.9 62.346h15.744l3.612-21.235h6.288c17.058 0 22.101-5.956 23.846-19.752zm-15.69-.396c-.55 6.192-6.35 5.46-6.35 5.46h-5.541l2.054-12.211c1.455.013 2.988.1 5.852.1 2.926.098 4.545.346 3.985 6.651m-75.56-21.044h-15.44l-11.106 62.334h15.44l11.105-62.333m-15.538 72.432-2.764 14.898h13.494l-8.132 47.586h15.918l8.304-47.586h12.978l2.595-14.898zm-51.26 47.662 7.957-47.111h-15.755l-7.962 47.111-2.609 15.418h39.045l2.607-15.418h-23.284m48.967-47.618h-15.938l-10.74 62.246h15.938zm80.996 14.783 2.54-14.938h-36.64l-.027.155h-.556l-8.242 47.759h-.167l-2.474 14.537h38.158l2.474-14.537h-22.052l1.814-10.496h19.495l2.474-14.537h-19.465l1.375-7.943zm44.248-100.615h-49.14a43.705 43.705 0 0 0 -28.397-10.594c-.067 0-.14-.066-.207-.066-10.944 0-20.97 4.016-28.587 10.66h-28.657c-7.46-6.335-17.074-10.314-27.503-10.314-10.819 0-20.747 3.86-28.28 10.314h-43.087v3.549h233.858v-3.55zm-98.857 0a39.14 39.14 0 0 1 21.114-6.2c.067 0 .14.068.207.068 7.941.04 15.358 2.238 21.511 6.132zm98.857 158.626h-233.858v3.55h43.104c7.532 6.454 17.444 10.322 28.263 10.322 10.433 0 20.043-3.983 27.505-10.323h28.638c7.618 6.653 17.653 10.674 28.605 10.674.067 0 .14.068.207 0 10.911-.048 20.883-4.084 28.468-10.674h49.068v-3.55zm-77.536 9.763h-.207c-7.708 0-14.997-2.298-21.103-6.214h42.904c-6.171 3.94-13.614 6.175-21.594 6.214" fill="#1c63b7" fill-rule="evenodd"/></svg>