<?xml version="1.0" encoding="UTF-8" standalone="no"?>
<svg
   version="1.0"
   viewBox="0 0 500.000000 190.000000"
   preserveAspectRatio="xMidYMid meet"
   id="svg5"
   sodipodi:docname="ulaf.svg"
   inkscape:version="1.3 (0e150ed6c4, 2023-07-21)"
   xmlns:inkscape="http://www.inkscape.org/namespaces/inkscape"
   xmlns:sodipodi="http://sodipodi.sourceforge.net/DTD/sodipodi-0.dtd"
   xmlns="http://www.w3.org/2000/svg"
   xmlns:svg="http://www.w3.org/2000/svg">
  <defs
     id="defs5" />
  <sodipodi:namedview
     id="namedview5"
     pagecolor="#ffffff"
     bordercolor="#000000"
     borderopacity="0.25"
     inkscape:showpageshadow="2"
     inkscape:pageopacity="0.0"
     inkscape:pagecheckerboard="0"
     inkscape:deskcolor="#d1d1d1"
     inkscape:document-units="pt"
     inkscape:zoom="3.009"
     inkscape:cx="333.33333"
     inkscape:cy="126.78631"
     inkscape:window-width="2560"
     inkscape:window-height="1369"
     inkscape:window-x="1912"
     inkscape:window-y="-8"
     inkscape:window-maximized="1"
     inkscape:current-layer="svg5" />
  <path
     d="m 393,1.5 c -3.6,0.7 -8.5,2.1 -11,3 -13.1,4.7 -30.8,19.7 -36.4,30.7 -4.7,9.6 -1.4,12 5.7,4.2 8.9,-9.9 24.7,-19.7 36.7,-22.9 3.2,-0.9 10.1,-1.5 16.6,-1.5 13.8,0 24.3,2.4 37.2,8.6 25.6,12.3 45.4,44.5 48.2,78.7 1,12.3 -0.2,30.4 -2.6,38.7 -2.1,7.4 -2.2,9.5 -0.4,9.5 1.8,0 6.8,-12.1 10.2,-24.5 2,-7.4 2.3,-10.6 2.2,-25.5 C 499.3,85.6 499,82.3 496.7,73.9 489,44.7 468.7,19.4 443.4,7.3 429.7,0.8 408.5,-1.7 393,1.5 Z"
     id="path1"
     style="fill:#000000;stroke:none;stroke-width:0.1" />
  <path
     d="m 455.3,63.5 c -0.3,0.9 0.6,4.1 2,7.3 6.6,15 8.3,36 4,49.7 -5,15.9 -19.4,34.5 -34,43.9 -19.8,12.8 -53.6,16.2 -79.5,8 -15.3,-4.8 -30.7,-12.9 -40.5,-21.1 -2.8,-2.3 -5.8,-4.3 -6.7,-4.3 -2.8,0 0.5,4.9 8,12 13.7,12.8 24.8,19.5 41.7,25.2 27.7,9.3 54.2,7.5 80.4,-5.4 21.9,-10.8 36.8,-29 43.4,-53.3 4.1,-15 2.2,-33.8 -5.1,-49.3 -5.3,-11.4 -11.8,-17.4 -13.7,-12.7 z"
     id="path2"
     style="fill:#000000;stroke:none;stroke-width:0.1" />
  <path
     d="m 0,89.4 c 0,23.4 0.4,25.2 7.5,31.4 8.8,7.7 27.3,11.5 45.3,9.2 11.9,-1.5 19.2,-4.1 24.5,-8.9 7.1,-6.4 7.7,-8.8 7.7,-31.9 V 69 H 68.5 52 v 19.3 c 0,21.4 -0.4,23 -6.3,24.5 -3.8,1 -8.7,-0.1 -10.4,-2.5 -1,-1.2 -1.3,-7.2 -1.3,-21.5 V 69 H 17 0 Z"
     id="path3"
     style="fill:#000000;stroke:none;stroke-width:0.1" />
  <path
     d="m 90,99 v 30 h 52.1 52 l 2.6,-6 2.6,-6 h 12.4 12.4 l 2.6,6 2.6,6 H 263.1 297 V 119 109 H 315.5 334 V 100.5 92 H 315.5 297 V 88.5 85 H 316.5 336 V 77 69 H 299.5 263 v 29.2 c 0,16.1 -0.4,28.8 -0.8,28.3 -0.5,-0.6 -4.8,-10 -9.5,-21 -4.7,-11 -10.2,-23.6 -12.1,-28 l -3.5,-8 -25.3,-0.2 -25.3,-0.3 -4.2,9.8 c -14.5,33.5 -18.7,42.8 -19.4,43.6 -0.5,0.6 -0.9,-1.8 -0.9,-5.7 V 110 H 142.5 123 V 89.5 69 H 106.5 90 Z m 124.9,-3.8 c 0.1,0.5 -1.5,0.8 -3.4,0.8 -1.9,0 -3.5,-0.2 -3.5,-0.5 0,-0.2 0.8,-2.4 1.7,-4.7 l 1.7,-4.2 1.7,4 c 1,2.1 1.8,4.2 1.8,4.6 z"
     id="path4"
     style="fill:#000000;stroke:none;stroke-width:0.1" />
  <path
     d="m 373,82 v 11 h -18 -18 v 8.5 8.5 h 18 18 V 120.5 131 H 385.5 398 V 120.5 110 H 416.5 435 V 101.5 93 H 416.5 398 V 82 71 H 385.5 373 Z"
     id="path5"
     style="fill:#000000;stroke:none;stroke-width:0.1" />
</svg>
