<svg viewBox="0 29.65 62.97 57.7" xml:space="preserve"><defs><clipPath clipPathUnits="userSpaceOnUse" id="a"><path style="opacity:.65;fill:#000" d="M5.62 35.02h62.97v58.1H5.62z"/></clipPath></defs><path d="M68.5 84.5a8.45 8.45 0 0 1-8.4 8.4H14a8.45 8.45 0 0 1-8.4-8.4V43.6a8.45 8.45 0 0 1 8.4-8.4h46.1a8.45 8.45 0 0 1 8.4 8.4zm70.8 0a8.45 8.45 0 0 1-8.4 8.4H84.8a8.45 8.45 0 0 1-8.4-8.4V43.6a8.45 8.45 0 0 1 8.4-8.4h46.1a8.45 8.45 0 0 1 8.4 8.4zm70.9 0a8.45 8.45 0 0 1-8.4 8.4h-46.1a8.45 8.45 0 0 1-8.4-8.4V43.6a8.45 8.45 0 0 1 8.4-8.4h46.1a8.45 8.45 0 0 1 8.4 8.4zm70.9 0a8.45 8.45 0 0 1-8.4 8.4h-46.1a8.45 8.45 0 0 1-8.4-8.4V43.6a8.45 8.45 0 0 1 8.4-8.4h46.1a8.45 8.45 0 0 1 8.4 8.4z" fill="#f28c53" clip-path="url(#a)" transform="translate(-5.62 -5.55)"/><path d="M48.88 41.35h-9.2v25.4h-16.9v-25.4h-11.1v25.8c0 6.8 2.6 9.3 9.7 9.3h19.8c7 0 9.7-2.5 9.7-9.3v-25.8z" fill="#fff"/></svg>