<svg xmlns="http://www.w3.org/2000/svg" xml:space="preserve">
 <g>
  <title>Layer 1</title>
  <path id="svg_1" d="m280.60001,50.8c0,7 -6,12.7 -13.39999,12.7l-259.80001,0c-7.4,0 -13.4,-5.7 -13.4,-12.7l0,-42.4c0,-8.3 5.4,-13.6 13.9,-13.6l259.29998,0c7.39999,0 13.39999,5.7 13.39999,12.7l0,43.3l0.00003,0z" fill="#FFF"/>
  <path id="svg_2" d="m62.5,49.5a8.45,8.45 0 0 1 -8.4,8.4l-46.1,0a8.45,8.45 0 0 1 -8.4,-8.4l0,-40.9a8.45,8.45 0 0 1 8.4,-8.4l46.1,0a8.45,8.45 0 0 1 8.4,8.4l0,40.9zm70.8,0a8.45,8.45 0 0 1 -8.40002,8.4l-46.09998,0a8.45,8.45 0 0 1 -8.4,-8.4l0,-40.9a8.45,8.45 0 0 1 8.4,-8.4l46.09998,0a8.45,8.45 0 0 1 8.40002,8.4l0,40.9zm70.89999,0a8.45,8.45 0 0 1 -8.39999,8.4l-46.10001,0a8.45,8.45 0 0 1 -8.39999,-8.4l0,-40.9a8.45,8.45 0 0 1 8.39999,-8.4l46.10001,0a8.45,8.45 0 0 1 8.39999,8.4l0,40.9zm70.90001,0a8.45,8.45 0 0 1 -8.39999,8.4l-46.10001,0a8.45,8.45 0 0 1 -8.39999,-8.4l0,-40.9a8.45,8.45 0 0 1 8.39999,-8.4l46.10001,0a8.45,8.45 0 0 1 8.39999,8.4l0,40.9z" fill="#F28C53"/>
  <path id="svg_3" d="m39.3,11.9l0,25.4l-16.9,0l0,-25.4l-11.1,0l0,25.8c0,6.8 2.6,9.3 9.7,9.3l19.8,0c7,0 9.7,-2.5 9.7,-9.3l0,-25.8l-11.2,0zm80.3,0.1l-38,0l0,9.4l14.4,0l0,25.7l11.1,0l0,-25.7l14.4,0l0,-9.4l-1.9,0zm143.80003,-12.5l-44.00002,12.4s14.90001,15 17,17.2l-2.60001,17.9s7.70001,-8.8 9.70001,-11.2c2.2,2.3 10.60001,11.2 10.60001,11.2l15.3,0l-18.8,-18.8c1.59999,-1.7 16.19997,-18.1 22.60002,-25.3c1.19998,-1.2 -4.20001,-3.4 -4.20001,-3.4l-5.60001,0zm-86.00002,12.8l-9.2,0l-19.8,35.1l11.70001,0s2.89999,-5.4 3.59999,-6.8l17.60001,0c0.8,1.4 3.8,6.8 3.8,6.8l12.59999,0l-20.3,-35.1l0,0zm-8.59999,18.8c1.3,-2.4 2.39999,-4.3 3.7,-6.8c1.3,2.5 2.39999,4.5 3.60002,6.8l-7.3,0l0,0l-0.00002,0z" fill="#FFF"/>
 </g>

</svg>
