<svg xmlns="http://www.w3.org/2000/svg" viewBox="0 0 429.693 492.935"><g fill="#0085d0"><path d="M164.624 60.246c.712-.083 1.005.984 1.005 1.703 0 .767.3 1.159.44 1.616.087.419.562 1.632 1.192 1.903.576.213 1.904.43 2.143.741.26.353.74 1.077.74 1.685 0 .556.099 2.362.099 2.362s.707 0 .707.62c0 .534.115 2.644.234 3.09.256.424.593-.075.979.25.453.31.719 1.077 1.158 1.349.468.348.518 1.704 1.251 1.502.664-.176 1.284.201 1.714.549.484.402 1.224.648 1.224 1.027 0 .382-.338 1.329.18 1.949.409.505 1.377.805 1.616.805.218 0 .614-.414.94 0 .349.337.725 1.425.725 2.514.082 1.077-.169 1.773.363 2.105.5.298.898.298 1.039.826.071.631.811 1.355 1.551 1.741.725.398 1.611.222 1.796.8.266.516 0 1.01.375 1.609.344.577 1.476 1.343 2.161 2.198.614.767.811 1.448.859 1.947.108.512-.049 1.175.506 1.72.593.501 2.001.087 2.519.359.593.245 1.643 1.485 1.643 1.893 0 .49.516.772.501 1.861-.071 1.082-.442 2.001-.071 2.469.3.436 1.213 1.71 1.714 1.458.495-.26 1.234-.87 1.735-.663.594.206 1.262 1.958 1.562 2.611.344.707.103 1.74.61 2.317.516.663.658 1.817 1.333 2.024.724.158 1.159-.371 1.626.946.587 1.241 1.79 2.449 2.259 3.209.532.74 1.671.849 1.763 1.404.048.566-.126 1.742.467 1.742.664 0 1.479.163 1.958.826.512.729.461 2.33 1.078 2.917.549.637 1.599.206 1.609 1.104.087.876 0 1.746.479 2.181.543.49 1.381.288 1.779 1.125.5.834 1.311 1.023 1.507 1.955.167.914.167 1.337.958 1.996.811.729 1.473.735 1.93 1.426.518.636.8 2.213 1.605 2.388.79.211 1.856.283 2.917.674 1.115.348 1.425.729 2.072.991.725.229 1.404 1.523 1.404 2.056 0 .599-.061 1.089.293 1.448.398.402 1.278 1.593 1.523 2.186.272.578.98 1.458 1.262 1.458.333 0 1.557.348 1.601-.055a.652.652 0 0 1 .853-.499c.327.107.872 1.142.872 1.495 0 .266.043 1.55.528 1.812.407.272 1.299 1.219 1.783 1.077.392-.169 1.735.142 2.378.457.648.283 2.253 1.806 2.253 2.502 0 .664.352 1.077.744 1.448.377.398.583.718.377 1.197-.285.391-.49.859-.285 1.393.285.598.85 1.23 1.317 1.49.392.251 1.333.402 1.425.681.141.331.375.919.941 1.79.577.882 1.599 1.479 1.681 2.1.05.642.153 1.458.583 1.707.354.229 1.182.13 1.241.828.087.636-.136 2.263.371 2.894.56.658.951 1.121 1.485 1.05.484-.167.983-.354 1.332-.081.485.262 1.083 1.093 1.682 1.137.659.048 1.213 0 1.784.451.576.446 1.594 1.938 2.014 2.242.478.402 1.262 1.578 2.324 1.578.995-.077 1.582-.539 2.007-.827.434-.348 1.153-1.36 1.746-1.425.625-.098 1.218.119 1.431-.164.293-.327.488-1.169 1.268-1.333.778-.223 1.376 0 1.474-.566.169-.637 0-1.404.534-1.593.516-.218.772-.964 1.18-1.1.376-.13 1.404-.555 1.486-.914.048-.268.185-1.148.767-1.349.544-.262 1.463-.761 1.844-1.339.381-.554.419-1.196 1.073-1.599.62-.397 1.837-.522 2.143-1.077.254-.555.772-1.317 1.549-1.817.714-.402 1.622-1.11 1.806-1.365.204-.344.204-1.116.779-1.398.566-.337 1.241-.876 1.637-1.35.382-.522.522-1.479 1.067-1.85.358-.369 1.061-.239 1.295-.446.222-.217.174-.904.62-1.241.468-.435 1.49.153 1.66-.283.179-.457.092-1.034.473-1.187.397-.184.946.257 1.268-.097.391-.36.668-.609.798-1.131.099-.49.169-1.132.512-1.469.316-.446.99-.446.99-.893 0-.534 0-1.435.751-1.622.805-.208 1.186 0 1.649-.208.331-.206.071-.444.511-.679.451-.266.962.343.908-.327-.097-.614-.799-1.202-.325-1.599.5-.343.658.576 1.142.505.474-.042.707 0 .75-.566.088-.553-.043-1.262.256-1.609.321-.403 1.033-.283 1.371-.469.381-.189.729-.472.968-1.011.34-.501.34-1.829.702-2.112.371-.26.833-.109 1.236-.554.337-.442 1.257-1.383 1.441-1.992.076-.642.331-.642.463-1.371.239-.664.44-1.333.983-1.599.572-.218.572.266 1.1.423.457.076 1.448-.641 1.496-1.197.044-.62-.18-1.475.467-1.904.616-.451 1.975-.822 2.259-1.208.281-.396.092-1.54.445-1.806.403-.332 1.191-.614 1.529-.457.31.218 0 1.115.435 1.077.451-.12.484-.773.833-.62.331 0 .593.859.784.62.299-.354.157-1.077-.006-1.687-.185-.598-.311-1.718.163-1.882.43-.207.778-.577 1.029-.173.232.499.304.685.664-.034.281-.729.059-.947.543-1.201.5-.245-.103-.584.098-.92.223-.316.266-1.175.61-1.295.276-.13.146-.289.457-.763.37-.522.74-.935.952-.522.261.392.251.621.735.74.478.208.652.501.478.828-.055.338.098.99.305.837.206-.142.696.077.832-.244.015-.354-.136-.299-.36-.507-.267-.304-.419-1.012-.326-1.327.06-.283-.195-.327.108-.446.257-.164.364-.426.299-.937-.042-.511-.239-.913-.473-.75-.288.195-.386.468-.44.644-.071.178-.071.695-.369.467-.35-.29-.528-.675-.35-1.056.175-.304.377-.304.512-.5.136-.164-.08-.468.262-.468.358 0 .599.419.62.048.088-.331-.044-.375.157-.461.224-.169.224-.087.283-.49.077-.375.077-.936.496-.74.43.207.216.876.392.952.086.19.417-.185.543.081.125.239-.103.914.19.958.3.071 1.159-.14 1.453-.212.436-.017.941-.375 1.208-.136.19.262-.268.571.049.621.245.043.587-.201.664.065.114.283-.077 1.088-.077 1.088s-.032.283-.342.424c-.245.168-.245.652-.686.772-.381.142-1.431.392-1.496.077-.109-.283 0-.872-.246-.958-.228-.065-.408.108-.528-.065-.065-.218-.065-.467-.316-.29-.185.083-.038.801-.082 1.115-.038.197-.103.544.104.544.272 0 .5-.234.549-.033.076.207.044.892.044 1.382 0 .413 0 1.284.103 1.544.158.239.436.371.609.338.26 0 .93-.099 1.192-.099.271 0 .113-.277.271-.5.235-.229.562-.327.43-.729-.13-.348-.179-.674.05-.838.299-.043.233 0 .233-.457 0-.392-.353-.729 0-.729.349 0 .588-.164.523-.426-.072-.314.065-.598.25-.675.208-.119.402 0 .5-.369.092-.349.092-.457.3-.627.233-.071-.027-.429.304-.484.348-.01.348-.125.348-.392.05-.256-.141-.472.213-.587.402-.088.526-.13.641.229.099.358.327-.088.56.402.159.468-.109.761-.233.805-.114.027-.239.305-.327.404-.157.178-.262 0-.354.26-.109.358.239.848 0 .848-.287 0-.642-.011-.593.262.092.314.43.696.092.75-.239.038-.109.522-.294.478-.125-.086-.538-.3-.538.131 0 .457-.12 1.153.153 1.312.26.178.729.375.679.036-.092-.336-.011-.511.153-.511.239 0 .8.326.79.033-.027-.277-.35-1.087-.088-1.087.212 0 0-.402.229-.446.157-.011.973-.348.973-.654 0-.25 0-.554.294-.554.272 0 .413.12.685-.327.272-.425.202-1.262.12-1.85-.048-.652-.18-1.077-.392-1.197-.141-.18-.354-.719-.233-1.165.168-.39.375-.996.625-.816.289.141.576.621.859.426.333-.153.382-.339.583-.681.293-.299.403-.576.669-.811.359-.228.588-.576.364-.62-.283-.076-.451.184-.549-.26-.109-.415-.314-.278-.385-.763 0-.5.211-.893.57-.98.441-.032 1.099.599 1.328.397.239-.13.691-.43.827-.733.038-.306.582-.578.713-.872.163-.26-.131-.865.114-.958.37-.13.108-.75.756-.75.616.071.299.446.74.674.473.25.294.57 1.022 1.121.66.533 1.186 1.316 1.291.93.216-.376.511-.376.914-.626.369-.141.277-.543.718-.854.335-.402.593-.679.962-1.061.381-.353 0-.706.723-.907.675-.191.958.13 1.165-.463.276-.597.136-1.126.495-1.534.413-.371.702-1.034 1.192-1.131.424-.055.723-.163 1.071-.511.354-.316.604-.316.604-.903-.069-.599-.185-1.035-.44-1.035-.163 0-.691-.75-.354-.902.31-.131.653 0 .915-.312.206-.309.119-.864.021-1.146-.021-.272-.327-1.312-.212-1.48.19-.098.647 0 .647-.268-.055-.314-.268-.659-.125-.853.125-.132.364-.197.445-.512.206-.262.328-.916.577-.644.321.272.642.272.642.742.037.414.431.952.037 1.132-.266.134-.417.325-.358.674.092.359-.059.805.027.902.266.033.648-.097.702.033.022.119-.136.511.115.511.216 0 .744.327.979.044.223-.283 0-.555.223-.746.315-.143.315-.447.664-.539.294-.021 1.148.153 1.219-.12.048-.358.048-.566.392-.76.31-.203.342-.589.679-.729.256-.163.256.205.817-.339.631-.522.757-.608 1.061-.968.392-.37.637-.315.652-.707.088-.359.484-.359.578-.778.097-.436-.245-.637.108-.909.495-.266 1.387-.151 1.453-.436.059-.201.01-.517.321-.517.314 0 1.023.321 1.197-.043.222-.408-.055-.723.5-.8.555-.13.708 0 1.056-.522.25-.566.157-.979.369-1.165.333-.293.201-.314.201-.81 0-.494-.446-1.355 0-1.584.539-.327.539-.614.849-.614.311 0 .239-.262.872-.441.554-.13.979-.554 1.201-.864.326-.279.844.146 1.007-.419.125-.565 0-.762.337-.871.376-.032 1.044.36 1.382-.097.251-.555-.059-1.546.103-1.86.24-.294.349-.593.469-1.377.097-.811-.125-1.301.13-1.676.32-.386.31-.446.647-.975.419-.512.048-.847.572-1 .495-.174.826-.055.958-.371.135-.392-.392-1.926-.159-2.198.239-.26.578-.434.817-.771.283-.343-.006-.458.799-.545.811-.098 1.513-.402 1.986-.098.398.3.74.098 1.05.457.256.316.157.892.452.98.266.157.353 1.152.635.892.251-.272 0-.915.251-1.11.272-.143.109-.686.446-.859.271-.207.583.097.962-.316.375-.348.522-.208.593-.696 0-.5-.071-.991.142-1.257.174-.201.239-.048.359-.467.055-.453.163-.746.566-.97.371-.113 1.241-.304 1.441-.744.222-.403-.119-.746.222-1.044.361-.339.361-.544.54-.893.207-.36.31-.392.288-.801-.081-.439-.13-.8.022-1.066.179-.136.598-.232.952-.402.403-.153 0-.615.245-.941.288-.262.854-.048.904-.5.054-.457-.164-.761.266-.761.413.038.729.304.729.891 0 .588.123.888-.093 1.268-.327.364-.636.603-.349.833.349.239 1.052.386 1.431.13.327-.207.5-.075.419-.641-.038-.588.565-.551.665-.893.18-.375.071-.957.439-.881.402.054.099.506.507.625.288.094.288.719.642.593.424-.119.538-.239.603-.7.022-.463.12-.834-.179-1.083-.37-.212-.544-.718-.751-.979-.206-.283-.109-1.089-.42-1.241-.303-.207-.461-.654-.461-1.066 0-.392-.31-.631.158-1.022.473-.501 1.077-.358 1.289-.74.268-.446.674-.725.779-1.012 0-.261.379-.821.406-1.045.044-.283.256-.49.518-.87.197-.315.342-1.033.74-.957.386.043.266.49.648.505.467.016.641.626.467 1.039-.218.385-.539.507-.729.806-.191.32.108 1.044-.191 1.354-.233.234-.43.641-.918.691-.467.151-.467.417-.751.826-.189.36-.478.735-.424 1.191.054.451.348.518.708.518.407 0 .647-.62 1.104-.67.39 0 .821.065 1.027-.102.218-.164.725-.676.985-.937.211-.26.272-.294.272-.876 0-.555-.212-.908.152-1.071.38-.218.516-.664.952-.664.354-.092.647-.56.974-.576.255-.027 1.513 0 1.681-.208.092-.26.283-.62.5-.87.13-.173.359-.534.359-1.033 0-.484-.229-.555 0-.828.283-.228.283-.392.283-.848 0-.479-.233-1.115.115-1.339.392-.216.539-.446.604-.081.038.354-.061.984.167 1.186.136.289.398.484.675.235.3-.293.3-.436.572-.696.327-.251.109-.251.44-.578.326-.281.245-.281.5-.62.251-.304.453-.254.528-1.022.031-.663-.239-.631-.382-.859-.152-.272-.238-.621-.238-.621s-.277-.875.021-1.203c.228-.331 1.083-.352 1.23-.103.098.218.333 1.186.333 1.479 0 .217-.268.697-.105.838.239.207.708-.142.708.337 0 .369.042 1.561-.038 1.851-.098.304-.431.903-.898 1.402-.56.436-1.49 1.654-1.632 1.85-.141.202-.74.033-1.04.371-.277.283-.702.733-.702 1.034 0 .343.104.643-.206.811-.337.152-.653-.212-.817.19-.184.451-.151 1.229-.348 1.578-.13.402-.174 1.044-.174 1.044s-.365.197-.457.398c-.086.229 0 .43-.386.532-.354.082-.507.354-.926.065-.358-.332-.255-.526-.511-.526-.25 0-.832.614-.832.614l-.811.876s.599 1.284.125 1.315c-.479 0-.304.818-.304.818l-.523.978s-.26.686-.892.686c-.631 0-1.295.794-1.295.794l-.887.582-.614 1.019s.293 1.262-.18 1.371c-.549.097-1.18.631-1.18.631l-1.176.815-.45 1.601s.206.88-.246 1.088c-.418.207-1.147.261-1.147.261s-.065.042-.168.604c-.213.593-.725.985-.725.985l-.212.88-.875.535-.719.565-.484.239-.167.723-1.274 1.605-1.289 1.54s-.637.293-.805.608c-.094.317-.779.317-.779.317s.349-.114-.168.343c-.446.517-.804.935-.804.935s.445 1.045-.044 1.132c-.392.077-1.769-.086-2.056.239-.339.284-.796.98-.796.98l-1.159.842-1.821 2.259-1.056 1.414s-.283 1.588-.702 1.893c-.337.293-.327.871-1.006.991-.62.141-1.898.245-1.898.245s-.474 0-.616-.408c-.205-.392-.205-1.165-.474-.968-.304.141-.217 1.012-.103 1.333.103.266.495 0 .539.43.088.501.289.653.088 1.295-.255.565-.354 1.098-.828 1.295-.647.185-1.191-.087-1.343.293-.269.381-.736.793-1.169.592-.398-.278-.6-.211-.811-.811-.207-.565-.392-.88-.887-.685-.474.14-.366.609-.615.99-.208.326-.262.989-.419 1.174-.174.239-.505.131-.386.593.099.409.598-.337.501.702-.115.991-.578.926-.893 1.247-.262.299-.615.342-.827.919-.256.526-.114.771-.816.847-.592.055-.729-.076-.967.218-.239.272 0 1.252-.463 1.502-.341.304.169.936-.245 1.806-.478.903-1.017.882-1.756 1.218-.756.333-1.59 1.611-1.91 1.969-.294.316-.816.729-1.218 1.089-.479.369-1.427 1.327-1.785 1.865-.321.518-.202 1.42-.996 1.506-.8.055-1.404.686-2.062 1.383-.614.674-.532 1.088-1.087 1.773-.446.664-.446 1.087-1.012 1.087-.565 0-.49.741-1.056.741-.467.042-1.022.847-1.022.847l-.843 1.198s-.702-.283-.936.229c-.151.511-.832 1.077-.832 1.077s.49.805-.109.842c-.647.006-.735.398-1.001.822-.44.322 0 .849-.75.849-.757 0-1.257.816-1.257.816s.208.685-.597.805c-.713.087-1.1.13-1.171.587-.048.474-.369 1.072-.816 1.519-.473.451-.815.266-1.175.74-.408.484-.488.484-1.033 1.191-.447.674-.702 1.355-1.316 1.447-.599.059-.719-.625-1.148-.385-.522.293-.3.549-.621 1.31-.354.784-.517.48-.963.991-.468.543-.233 1.544-.723 1.729-.495.131-1.284-.141-1.626.566-.43.664.249.936-.43 1.606-.636.669-1.154.189-1.414.832-.241.642-.55.995-1.111 1.719-.494.674-.262 1.044-.995 1.262-.763.218-1.066.534-1.301 1.045-.386.566.431 1-.767 1.414-1.174.338-1.404.185-1.333.696.055.511.159.92-.152.763-.298-.148-.608-1.274-.69-1.001-.153.239-.169.174-.691.599-.474.445-.815.254-.828.805-.054.614.484 2.012-.054 2.242-.511.185-1.109-.322-1.436.358-.304.61-.865 1.463-.865 1.463s-.979.43-1.066.991c-.125.501.241.407-.164 1.04-.379.62-.815 1.415-1.413 1.458-.551.151-.675.593-1.028 1.065-.382.511-.344 1.247-.92 1.132-.631-.055-1.203-.239-1.349.142-.104.315.718.843-.06.958-.779.195-1.278.435-1.508.675-.244.216-.854 1.208-1.051 1.5-.232.262-.549-.054-1.021.392-.458.507-.99 1.393-1.082 1.882-.147.599.211.599-.458 1.22-.673.599-.707 1.169-.99 1.785-.13.57-.599 1.561-1.17 2.12-.511.56-1.186.665-1.257 1.166-.017.532-.017.989-.599 1.142-.56.109-.767.746-1.207.87-.451.175-.859.556-1.609 1.638-.849 1.071-1.676 2.345-2.149 2.9-.451.598-.941 1.278-1.502 1.817-.614.543-1.245.304-1.681.828-.461.5-.304.914-.668 1.381-.359.511-.218 1.359-.735 1.534-.457.12 0 .337-.538.588-.55.281-.625.505-1.361 1.272-.668.794-2.116 1.882-2.328 2.165-.185.402-.113.827-.516 1.393-.387.63-.936 1.087-1.192 1.557-.229.402-.034 1.01-.545 1.566-.539.484-.859 1.577-1.327 1.67-.474 0-1.328-.195-1.414.31-.116.566.086 2.208-.239 2.699-.322.478-1.121 1.392-1.529 1.84-.419.467-1.186 1.213-1.54 1.402-.424.224-.897 1.165-1.474 1.785-.496.586-.865.87-1.169 1.448-.285.522-.012 1.207-.741 1.425-.733.223-1.027-.197-1.333.223-.364.354.208.985-.364 1.083-.472.153-.729.304-.979.696-.266.457-.136.643-.467 1.306-.425.729-.343 1.709-.991 1.751-.566.033-.566.469-.941.981-.398.511-.539.63-1.262 1.621-.729 1.023-1.976 2.058-2.16 2.742-.13.63-.593 1.365-.843 1.653-.306.327-.306.924-.811 1.142-.436.224-1.415.061-1.861.436-.452.354-.811 1.023-1.333 1.071-.61.027-.511-.418-.686.225-.197.582-.197 1.991-.582 2.415-.382.424-1.127 1.675-1.415 2.247-.343.518-.528.712-1.028 1.006-.55.271-.94.609-1.343 1.23-.463.63-1.008 1.229-1.083 1.696-.185.468 0 1.181-.342 1.404-.327.178-1.229-.13-1.496.331a28.15 28.15 0 0 1-1.149 1.604c-.387.501-.756.914-.909 1.384-.125.495-.827.439-1.078.873-.245.398-.222 1.499-.691 2.079-.461.61-1.474.747-1.735 1.398-.18.746-.065.838-.25 1.638-.208.747-.208 1.387-.208 1.387s-.719.109-.44.35c.315.261.648-.175.648.413 0 .643.069 1.452.201 1.534.185.137.577 0 .642.245 0 .31-.332.049-.533.441-.125.346.593 1.282.076 1.38-.516.089-1.131.174-1.769.688-.675.538-1.109.538-2.121.728-1.05.262-1.72.467-2.514.686-.778.186-1.207 0-1.631.892-.424.871-.268.768-.725 1.644a4.699 4.699 0 0 0-.484 3.243c.239 1.326.092 1.282.375 1.783.299.555.643.377.898.849.229.523.202 1.54.393 1.97.287.382.668.027 1.044.382.484.336.968 1.963.712 2.512-.228.441-.228 1.241-.805 1.649-.506.453-.408.429-.506 1.019-.158.576.224.358-.158 1.186-.32.874-.403 1.719-1.436 1.903-1.023.076-1.263.163-1.372.664-.12.413.235 1.087-.375 1.578-.461.423.485.869-.342.988-.898.257-1.437.833-2.144.371-.67-.402-.914-.974-1.333-1.479-.496-.518-.589-.969-1.322-.697-.756.18-1.012.654-1.012 1.166 0 .521-.065 1.506.048 1.473.18-.092.875.213.474.365-.474.165-.424.315-.424.87 0 .549.479.534.642.914.169.33.337.827 0 1.54-.382.723-.767.723-.691 1.518.159.729.49.414.402 1.283-.042.839-.151 1.557-.81 1.785-.653.288-1.181 0-1.138.881.061.896-.136 1.742-.5 2.774-.293 1.019.197 1.263-.365 2.46-.505 1.088-.283 2.442-.337 2.981-.048.511-.593.979-.773 1.648-.103.657-.505.462-.625 1.615-.126 1.165.625 3.841.229 4.505-.354.642-.708.228-.778.903-.071.641.211.608-.654 1.587-.875.903-1.594 1.567-2.235 1.786-.668.184-1.813.042-2.045.478-.251.337-.865 1.023-1.328 1.719-.56.697-.658 1.285-1.518 1.362-.773.085-1.061.324-1.327.868-.294.622-.909 1.219-1.05 1.872-.143.74-.143 1.384-1.056 1.882-.859.49-1.567 1.284-2.034 1.307-.44.043-.615-.37-1.166-.37-.576.032-.815.577-.865 1.132 0 .512-.434 1.295-1.208 1.469-.679.143-1.327-.272-1.762.392-.371.643-.746.827-.627 1.044.05.349 0 1.522-.314.99-.262-.544-.506-.401-.958-.685-.387-.351-.773-.565-.838-.109-.043.393-.631.85-.733 1.326-.104.47-.175.752-.599 1.102-.463.347-.506.347-.572.912-.076.611.43 1.11 0 1.557-.451.435-.501.282-.402 1.034.157.719.327.675 0 1.176-.314.467-.392 1.186-.865 1.282-.472.12-.44-.194-.761.414-.29.652-.18.881-.931.881-.702 0-.425-.501-.985-.446-.544.033-1.898-.174-2.16.218-.337.381-.26 1.066-.798 1.132-.633.077-2.542-.065-3.167.425-.67.402-1.099.914-1.301 1.555-.25.621-.337.327-.658 1.177-.3.771-.262.848-.784 1.046-.512.215-.865-.307-1.033.389-.234.698.092.938-.3 1.479-.436.502-.604.545-1.158.915-.604.349-.604.925-1.551 1.022-.897.12-.937-.206-1.187-.751-.234-.499.164-.685-.419-.685-.733 0-1.823.142-2.208.186-.436.109-.092.729-.549.576-.463-.141-.828-.49-1.328-.402-.414.086-.707-.24-.989.195-.306.425.021.816-.463.925-.44.109-2.338-.142-2.579.207-.266.401.224.989-.212 1.089-.348.141-.054.706-.539.825-.354.065-1.391.675-2.562.675h-3.856c-.593 0-1.976 0-2.509-.151-.511-.163-1.774-.381-1.85-.643-.119-.228-.119-.76-.409-.85-.255-.173-.962-.206-.962-.206s-.387-.295-.941-.295c-.501 0-.593.295-.593.645-.044.412-.371.631-.969.891-.675.337-2.715.467-2.977.458-.304-.055-1.109-.415-1.109-.415s-.534-.793-.958-1.283c-.496-.576-1.224-.946-1.737-.946-.444 0-.907-.195-1.092-.5-.229-.295-1.008-.425-1.497-.358-.544.032-.919.032-1.268.412-.289.37-.844.925-1.142.522-.268-.467-1.039-.152-1.039-.621 0-.489-.528-1.25-.893-1.599-.283-.349-.963-1.317-1.502-1.393-.489-.099-1.143.229-1.708-.313-.57-.557-.57-1.133-1.05-1.493-.468-.402-.468-.445-1.115-.575-.691-.154-2.018.521-2.501.098-.436-.457-.997-.807-1.895-1.209-.8-.424-2.188-1.816-2.959-2.427-.756-.674-1.115-.5-1.583-1.381-.413-.893-.413-1.654-.854-1.654-.365 0-.305.458-.772-.196-.457-.706-.565-1.055-1.104-.956-.533 0-1.986.25-2.552.184-.652-.064-1.283-.021-1.43-.695-.136-.663-.153-1.926-.397-2.775-.136-.858-.484-.893-.805-1.131-.375-.261-.827-.521-.539-.773.272-.239.418-.577.218-1.293-.218-.664-.506-1.015-.86-.883-.392.186-.74.402-1.001.065-.24-.313-.663-.197-1.191-.501-.463-.293-.223-.739-.816-1.077-.599-.348-.734-.609-1.344-1.12-.641-.512-.501-.631-1.05-1.174-.501-.565-.897-1.111-1.045-.512-.261.543-.179.925-.772.859-.598-.099-.44-.316-.925-.436-.582-.175-1.665.011-2.394.088-.695.031-.848.413-1.311-.351-.577-.761-.724-.988-.724-1.771-.103-.687.246-.622-.712-1.265-.93-.619-1.333-.846-1.447-1.412-.06-.545.271-1.057-.43-1.046-.615.045-.958-.348-1.153.045-.234.357-.441.934-.777.62-.289-.328-.289-.577-.675-1.263-.403-.619-.545-.947-1.148-1.045-.62-.055-.777-.651-.979-.403-.152.284-.174 1.067-.892.632-.751-.467-1.812-1.284-1.986-1.871-.103-.609-.577-.958-1.078-1.295-.576-.272-1.333-.119-1.381-.958-.108-.858.026-1.752-.37-2.361-.408-.528-.392-2.448-.686-2.915-.299-.387-.457-.174-.871-.643-.397-.468-.777-.837-1.164-.887-.387-.049-.196-.598-.794-.598-.555 0-.859.549-1.55.147-.675-.426-1.176-.577-1.262-1.045-.186-.533-.344-1.535-.882-1.469-.571.114-.816.309-1.066.761-.223.38-.571.85-1.246.447-.686-.415-1.321-.828-.881-1.229.419-.414.441-2.362.126-2.465-.409-.07-.409-.702-.665-1.127-.31-.451.017-1.258-.408-1.371-.451-.031-.751.464-.962-.031-.109-.565.211 0-.381-.878-.506-.93-.097-2.002-.561-2.59-.413-.603-1.375-.646-1.702-1.126-.365-.521-.484-.571-1.169-.662-.675-.061-.637-.295-1.257-.414-.664-.115-.794-.436-1.186-.687-.338-.356-.947-.565-.947-.956 0-.402.278-.327-.125-.566-.408-.271-.669-.212-.25-.604.419-.319.74-.908.208-.994-.496-.088-.876.256-.996-.412-.093-.665.119-1.731-.294-2.003-.414-.316-.484-.431-.67-.872-.217-.479.017-.179-.794-.806-.842-.724-1.915-.859-1.838-1.479.032-.621.24-1.187-.402-1.006-.631.156-.707.233-1.131-.376-.365-.685-.125-2.122-.593-2.122-.522 0-1.191.071-1.736-.212-.49-.234-1.077-.348-1.54-.571-.539-.195-.267-1.132-.871-1.719-.511-.587-.261-1.175-1.067-1.361-.685-.173-1.419-.054-1.968-.38-.653-.338-.751-.647-.893-1.665-.228-1.039.218-3.743-.669-4.103-.794-.37-2.018-.119-2.192-.761-.272-.565-.489-.904-1.197-1.533-.62-.633-1.239-1.22-1.545-2.264-.283-1.078-.032-2.634-.712-3.918-.696-1.251-1.279-1.861-2.193-2.056-.92-.187-1.632-.12-2.35-.729-.631-.61-1.757-.87-2.693-2.231-.903-1.383-1.034-2.708-1.376-3.417-.332-.718-.919-.479-1.523-1.386-.496-.965-.757-2.519-1.225-2.911-.462-.338-1.386-.065-1.294-.991.136-.914.571-1.533-.571-1.783-1.072-.262-1.219.412-1.98-.49-.778-.827-1.306-1.871-1.393-3.405-.06-1.584-.277-2.873-.827-3.385-.523-.446-.67-1.175-1.561-1.946-.811-.796-1.393-.851-2.002-1.948-.588-1.094-.403-.632-.958-1.949-.484-1.305-.804-2.185-1.337-2.697-.403-.566-1.144-1.046-1.742-1.861-.614-.849-.87-1.752-1.534-2.573-.593-.875-1.535-.931-1.954-1.496-.468-.555-.816-.937-1.398-1.844-.539-.865-.255-2.955-.729-3.357-.364-.419-.81-.675-1.435-1.479-.593-.739-1.333-1.191-1.535-2.166-.212-.958-.05-.87-.827-1.637-.777-.761-1.812-.964-1.534-1.366.311-.511.512-1.392.082-1.305-.43.131-.164-1.327-.61-1.688-.429-.287 0-1.228-.642-1.115-.631.038-.772.453-1.235-.331-.56-.817-1.218-2.111-.838-2.556.452-.436.555-.742.31-1.253-.31-.499-1.034-1.381-1.659-1.479-.67-.109-1.164.115-1.393-1.152-.255-1.23-.832-.954-.93-2.645 0-1.73.261-2.079-.561-2.709-.827-.566-1.245-.5-1.349-2.056-.104-1.534-.202-3.472-.974-4.635-.859-1.165-1.285-3.417-1.397-5.146-.071-1.785-.659-3.265-.828-4.463-.239-1.268-.452-2.757-.675-3.753-.261-.958-1.333-1.349-1.137-2.317.212-.958.305-1.218.196-2.513-.196-1.317-.832-1.523-.588-2.351.267-.805.196-1.392.121-2.175-.186-.773-.583-6.024-1.034-6.79-.495-.827-1.104-1.252-1.453-2.916-.462-1.709-.707-2.645-1.093-3.722-.452-1.148-.969-1.148-.915-2.296.071-1.065.604-1.152.463-1.674-.218-.577-.724-1.046-.686-1.752.109-.631.593-1.155.768-2.035.266-.91.457-2.569 1.202-2.808.609-.174.865.016 1.714-.708.799-.761.669-2.066 1.518-2.196.925-.132 2.263.369 3.025-.234.696-.648.217-.887 1.208-1.116.984-.19 1.98.245 2.42-.415.387-.761 0-2.094.316-2.697.277-.582-.261-1.72.147-1.992.392-.293.882-1.158.522-2.169-.484-1.083-1.523-1.268-2.024-2.078-.396-.756-.815-.953-.457-1.768.327-.784.795-1.85.795-1.85s-.441-.631.615-1.372c1.071-.777 1.305-.054 1.229-1.24-.092-1.186-.516-.587-.989-1.762-.49-1.155-1.589-1.436-.382-1.731 1.213-.25 1.213.187 1.551-.815.278-.86.152-1.415 1.213-1.714 1.143-.201 1.192-.74 1.747-.235.506.518.746 1.176 1.496.719.664-.484.844-.484 1.605-1.588.822-1.087.621-1.165 1.372-1.513.724-.397 1.202-.979 1.202-.979l.609-1.71s.887.187 1.834-1.044c.897-1.305 1.039-.988 2.094-1.99.958-.98 1.164-.12 1.219-1.578.077-1.468-.141-2.165.278-3.286.348-1.186 1.077-.947 1.055-2.034-.065-1.013.609-.729.022-1.306-.583-.61-.583-2.188-.583-2.188l1.403-1.708 1.769-1.072s1.805.637 2.464-.076c.674-.679 1.566-.849 1.566-.849s.865-1.622 1.708-1.844c.767-.18 2.177-.74 2.177-.74s1.653-1.475 2.143-1.872c.571-.326 1.35-1.611 1.35-1.611s1.371-.538 1.305-1.653c-.061-1.154.065-2.127.065-2.127l1.196-1.54 2.123-2.056 1.306-2.531-.67-2.011s-.37-1.899-.017-2.313c.419-.436 1.153-.729 1.442-.445.25.189.305 1.011.724.445.467-.621.13-1.35 1.137-1.35.903 0 .903.272 1.29.729.424.463-.131 1.307.745.838.837-.473.337-1.36 1.229-1.36.973 0 1.479.522 1.479.522s1.872.299 2.035-.729c.24-.935-.06-2.693.24-3.416.266-.654.963-1.687 1.268-2.361.359-.69.359-1.132 1.022-1.534.604-.338.87-.708 1.192-1.479.255-.724.255-1.665.886-1.97.621-.3.768-.3 1.513-.641.669-.36.941.217 1.588-.991.664-1.25.626-2.104.626-2.104l1.18-2.334 1.066-.827s-.228-2.873.245-3.27c.518-.332 2.079-.152 2.079-.554 0-.43-.109-2.106.234-2.454.5-.316 1.246-1.143 1.812-.794.637.326 1.229.881 1.991.576.696-.304.539-.74 1.011-1.24.468-.544.174-1.066.702-1.664.544-.599 1.665-.011 2.057-.517.533-.457.565-.343 1.458-1.29.805-.969 1.343-2.03 2.088-1.915.778.086.708.086 1.529.359.756.185 1.223.316 2.263.164 1.055-.164.729-.751 1.409-.751.642 0 .756.478 1.577.414.827-.12 1.29-.185 1.953-1.556.681-1.235.773-1.709 1.567-2.1.778-.408 1.371-.512 1.735-1.491.217-.936-.413-1.11.054-1.741.441-.685.066-.859 1.143-1.425 1.147-.555.555-.104.963-.599.397-.446.914-1.316.914-1.316l1.578-1.23s1.463 0 1.486-.651c.01-.718-.18-1.654.658-1.437.799.251 1.687.827 1.687.827s1.104.61 1.446.958c.343.337.159 1.169.762.979.593-.174 1.044-.423 1.512-.174.451.255 2.535-.293 2.791.174.207.479.859.872 1.605.773.755-.119 1.654.436 1.654.436l.962 1.159s1.387-.397 1.861-.081c.348.303.658.826.964 1.283.385.468.195 1.011.195 1.011s-.811.403-.092 1.121c.702.724 1.877.806 1.877.806s1.327-.903 1.475-.24c.234.61.315 1.165 1.033 1.475.675.321 1.077-.31 1.327.321.235.576-.353.87.675.87.985 0 2.144-.435 2.541-.294.408.142.246.142.246.142.467.37.99.816.99 1.654 0 .815.151 1.392.625 2.274.457.903 1.321 2.502 1.833 2.916.604.447 1.256.566 1.464.826.174.289.174 1.045.174 1.045s1.37-.212 1.854-.108c.456.108 1.056.304 1.126.75.042.397-.071 1.403.223 1.502.316.031.528-.24.691.173.195.381 0 .979.555 1.339.484.38 1.159 1.072 1.528 1.072.354 0 1.479-.076 1.686-.147.256-.033.811 0 .74.337-.033.304 0 .631.251 1.072.314.397 1.027 1.219 1.364 1.43.29.143.739.403.739.403v.909s1.029-.386 1.101-.136c.075.25.075 1.393.413 1.806.436.337.757 1.11 1.475 1.497.68.38 1.115.439 1.268.923.119.518.119.812.369 1.394.234.462.631 1.474 1.016 2.229.398.79 1.476 1.725 1.714 1.747.256.098.865-.224.865.304 0 .478.023 1.431.224 1.817.174.381.973 1.427 1.47 1.959.461.468 1.833 1.143 2.104 1.578.251.457.491 1.126.703 2.11.272.937.725 1.438 1.083 2.231.256.746.996 1.811 1.611 2.008.608.232.908.069 1.006.679.137.664.137 1.372.137 1.372s.352.113.467.859c.246.767.143 1.751.941 2.018.767.311 1.464.071 1.572.555.109.419.109 2.127.697 2.736M426.906 0c.561 0 1.274.164 1.274.164s.744.701 1.006.701c.229 0 .577.767.495 1.153-.164.429-.756.397-1.62.397-.838 0-1.883.157-2.382.157-.541 0-.796-.092-.562-.625.283-.501.562-.447.463-.827-.136-.402.048-.859.419-.957.406-.088.668-.163.907-.163m-3.705 3.373c.364 0 .746.304.746.408 0 .152.761-.179.854.224.081.413.257 1.087.081 1.343-.173.256-.173.386-.417.724-.312.402-.648.685-.79.946-.201.283-.767.599-.958.93-.195.321-.948.892-1.05 1.192-.109.337.289.701-.365.761-.729.044-1.219-.06-1.609.207-.31.24-.609.294-.674.696-.067.409.364 1.295-.229 1.355-.555 0-.974.364-1.203-.104-.212-.512-.702-.941-.436-1.191.306-.224.317-.332.626-.615.272-.304.853-.304 1.012-.62.162-.349.593-.316.853-.566.354-.224.354-.772.832-.871.419-.087.632-.207.926-.576.26-.371.598-.131.686-.86a4.498 4.498 0 0 1 .49-1.719c.283-.393.332-.218.283-.925-.141-.712-.141-.739.342-.739m-5.614 3.999c-.212 0-.13.277-.387.543-.281.256-.56.441-.379.703.065.173.555.141.637.31.13.136 0 .549.359.495.392-.034.44-.109.543-.566.081-.468.159-.392-.185-.871-.359-.5-.24-.614-.588-.614m-3.264 2.834c.321.104.682-.588.985-.261.294.364.426.975.426 1.339 0 .337.069.413-.132.771-.25.392-.321.664-.484 1.131-.163.419-.043.893-.348.985-.218.169 0 .778-.311 1.115-.315.295-.315.272-.593.729-.184.425-.767.936-.914 1.165-.088.262-.31.436-.669.75-.366.251-.486.327-.637.719-.213.369-.322.816-.898.664-.604-.142-1.034-.914-.771-1.131.25-.207.897-.251 1.077-.566.185-.283.57-.772 1.034-1.235.483-.462.603-1.191.821-1.621.311-.387.289-.495.512-1.154.184-.718.054-.794.25-1.446.125-.712.186-.875.186-1.355-.002-.403.009-.632.466-.599m-4.608 4.553c.212 0 .372.19.512.495.143.304.143.577-.082.761-.277.131-.587.011-.539-.294 0-.303-.245-.88.109-.962m-1.371 2.394c.054.071.054.354.054.621.048.31-.283.625-.424.266-.175-.304-.175-.979.065-1.001.163-.066.077-.141.305.114m-.968 3.27s.391-.652.423-.533c.055.185.142.55.316.55.195 0 .532.518.403.745-.12.25-.539.381-.577.556-.087.108-.565.163-.756.467-.196.294-.593.914-.643 1.176-.015.19 0 .587-.331.642-.315.142-1.017.142-1.247.348-.13.197-.027.599-.223.975-.18.408-.027.908-.518.951-.402.099-.924.453-1.131 0-.162-.385-.413-.717-.059-.832.385-.179 0-.179.423-.657.484-.506.98 0 1.018-.533.017-.555.358-.772.631-1.198.234-.414.572-.489.92-1.033.348-.479.44-.61.614-.904.253-.329.579-.275.737-.72m-10.261 9.042s.371-.327.685-.115c.262.168.055.495.37.495.349 0 .74.349.489.561-.244.201-.386.343-.543.761-.078.354-.386.626-.631.669-.197.121-1.073.626-1.295.218-.164-.359-.164-.566 0-.838.222-.305.467-.467.473-.81.088-.305.136-.822.452-.941m9.918 2.023c-.168.109-.044.533-.331.566-.235.054-.392.174-.344.599.017.446-.146.636-.146.979 0 .327.229.729-.185.893-.446.185-.719.489-1.171.522-.417.022-.874-.033-1.033.348-.141.316-.402.783-.625.98-.266.217-.55.418-.583.816-.027.424-.185 1.142.195 1.333.283.201.61.762.926.708.409-.115.826-.299.979-.593.14-.251.702.174.963-.196.164-.43.011-.75.369-1.197.327-.452.327-.936.544-1.343.157-.381 0-1.066.179-1.54.262-.577.121-.577.523-1.072.472-.55.151-.772.44-.952.304-.195.576-.436.316-.577-.251-.092-.648.381-.605-.065.042-.42-.149-.339-.411-.209m3.58-2.73c.261-.25.712-.25.915-.25.271 0 .489.359.566.74.108.337.239.687.042 1.045-.218.397-.593.315-.702.773-.109.424 0 1.142 0 1.496-.109.396-.109.756-.38.941-.283.13-.24.707-.621.631-.36-.174-.207-.561-.566-.692-.354-.151-.626-.88-.261-1.299.371-.306.371-.577.467-1.121.044-.615.153-.756.295-1.176.245-.381-.076-.816.245-1.088m4.564-3.003s.174-.289.38-.653c.143-.446.375-1.05.823-.636.396.321.38.701.276 1.072-.016.375-.315.435-.413.686-.082.261-.136.696-.626.474-.44-.215-.385-.574-.44-.943"/><path d="M397.187 40.792c.228-.033.614-.299.93-.245.402.048.893.518.675.767-.132.327-.463.218-.484.447-.033.196.212.789-.19.929-.316.114-.664.114-.703.3-.016.185-.44.577-.44.849 0 .26-.175.935.212.87.331 0 .756.371.511.413-.375.109-.739.142-.947.555-.126.392-.778.97-.941.589-.136-.364-.392-.364-.544-1.001-.174-.587-.495-1.274-.174-1.519.337-.254.255-.254.507-.799.212-.565.13-.989.43-1.185.245-.239.631.456.832-.229.326-.601-.11-.601.326-.741m-4.135 5.678c-.213.164.022.665-.223.609-.338 0-.969-.299-1.295 0-.446.185-.717.277-.566.719.082.409 0 .969.382.843.418-.103.641-.321.761-.059.121.229-.12.69.082.859.125.115.387-.153.496.109.12.151 0 .624.364.467.38-.207.516-.12.583-.566.015-.413.167-.381.331-.761.076-.371-.224-1.176.038-1.334.25-.092.582-.136.386-.342-.189-.293-.659.064-.659-.293-.001-.304-.256-.523-.68-.251m-9.01 3.973c.224-.203.518-.203.752-.203.114-.065.304.235.054.457-.163.122-.583.421-.756.258-.153-.18-.234-.258-.05-.512m-.294 1.807c-.038.075.137.641-.195.641-.262 0-.354.163-.354.544 0 .348.12.663-.201.642-.381 0-.784 0-.854.173-.076.164-.103.414-.283.512-.277.109-.419.348-.382.729.017.402.491.326.491.446 0 .055-.109.218.174.331.333.061.854.332 1.056.201.218-.141.354-.314.474-.576.076-.25.266-.402.283-.512.038-.054.299-.173.326-.354.108-.157-.027-.733.108-.875.169-.13.518-.13.518-.423 0-.273 0-.859-.222-.859-.204-.054-.43-.054-.545-.218-.002-.094.113-.61-.394-.402m-.037 4.269c.021-.189.147-.309.331-.25.224.033.213.289.099.386-.099.175-.299.175-.468.131-.142 0 .038-.267.038-.267m-3.46.267c.161-.152.392-.267.392-.267s.799-.146.88-.086c.202.006.479 0 .479.125 0 .164.195.674.212.815.044.187.229.654-.146.654-.31-.077-.626-.218-.681.103a.956.956 0 0 1-.409.691c-.184.137-.566.164-.696.348-.092.212-.031.315-.211.55-.143.213-.272.255-.403.418-.169.185-.169.631-.169.756 0 .18.523.071.593.224.098.113.159.771.159.914-.061.218-.159.348-.323.604-.216.19-.734.385-.891.419-.132 0-.354-.034-.528.228-.126.185-.164.686-.164.761.038.093.038.518-.142.61-.141.141 0 .576-.663.544-.719-.065-1.143-.24-1.263-.027-.151.212.104.451.104.685 0 .277-.104.707-.104.974 0 .315.104.577-.102.577-.223 0-.42.304-.495.348-.13.14-.534.261-.621.207-.201-.067-.103-.501-.381-.523-.315-.032-.947.169-.887.022.034-.174-.462-.62-.462-.62s-.201.12-.338-.278c-.173-.413-.402-.549-.223-.88.223-.256.414-.169.43-.484.092-.24-.017-.549.141-.756.174-.191.174-.583.392-.822.299-.218.122-.469.49-.469.354 0 .457-.771.735-.663.32 0 .369.533.673.533.262-.07.278.034.588-.283.211-.25.375-.25.652-.685.289-.382.268-.382.442-.654.228-.325.228-.56.392-.924.293-.348.864-.311 1.043-.311.13 0 .501-.027.446-.364-.075-.348-.348-1.326-.157-1.534.298-.208.331-.239.461-.566.201-.218.299-.718.49-.756.204-.071.036-.071.265-.158m2.083-13.503c.142-.132.566-.273.702-.18.277.021.277.333.327.605.054.326-.327.281-.365.522-.082.239-.082.478-.31.446-.245-.098-.354-.339-.474-.687-.071-.281-.071-.63.12-.706m-25.842 28.584c.332-.077.207-.848.621-.827.461.065.859-.114.908.228.088.316-.065.926-.25 1.196-.197.295-.092.74-.555.708-.495-.011-.696-.555-.968-.555-.164 0-.686 0-.375-.251.151-.298.342-.499.619-.499m7.752.119c.081 0 0-.402.605-.576.527-.143 1.196-.512 1.289-.143.136.402.675.467.457.718-.18.208-.565.543-.565.543s-.778.176-.979.294c-.251.098-.125.49-.576.49-.397 0-.795-.043-.795-.413 0-.398.321-.398.419-.457.145-.076-.136-.456.145-.456m-.744 2.567s1.071-.25 1.299-.314c.251-.044.616.228.577.608-.065.371-.233.534-.527.773-.279.293-.605.071-.605.63.081.642-.512.914-.512 1.187 0 .239-.358 1.18-.363 1.491-.077.256-.367.914-.404 1.078-.048.211-.396.39-1.099.457-.756 0-.746.076-1.315.358-.6.277-1.247 1.241-1.563 1.502-.386.26-.499.777-.549 1.142-.049.354.05.543-.126.849-.293.249-.75.327-1.098.5-.359.12-.621.174-.903.44-.195.245-.086.8-.549.931-.484.207-1.763.467-1.763.467s-.991.555-1.213.913c-.241.394-.511 1.1-.556 1.502-.065.371-.278.522-.364 1.045-.119.499-.474.962-.534 1.229-.114.306-.614.729-.696 1.018-.081.298-.702.8-.913.582-.18-.186-.56-.871-.276-1.192.348-.31.5-.31.641-1.016.109-.773.468-1.454.549-1.992.099-.587-.266-1.033.262-1.534.495-.555.702-1.022.968-1.23.195-.293 1.087-.408 1.18-1.077.022-.608.163-.815.615-1.436.419-.67.337-1.11 1.071-1.23.79-.173 2.057.501 2.057-.173.032-.664.189-.979.403-1.272.19-.327.543-.665.484-1.111-.038-.414.212-1.062.887-.958.631.098 1.175.61 1.523.463.354-.082.19-.463.609-.518.413-.023 1.528-.566 1.643-.87.147-.36.174-.403.229-1.023 0-.697-.153-.697.26-1.083.284-.471.284-.88.671-1.136m-15.462 14.516c.207 0 .207.283.266.588 0 .304.065.717-.201.533-.348-.13-.522-.321-.457-.719.061-.338.239-.402.392-.402m-7.279-1.981c-.163.011-.577.354-.577.556 0 .202-.027.941.251 1.305.277.402.423.332.663 0 .174-.283.136-.75.278-.941.201-.163.381 0 .341-.565-.026-.6-.678-.497-.956-.355m1.447 4.602c-.071.208.157.67-.038.905-.228.271-.087 1.119-.479 1.119-.457 0-.652 0-.832.306-.098.359-.331.478-.467.777-.098.272-.647.164-.44.463.206.309.935.489 1.087.586.125.034.233-.708.539-.729.358-.048.631.545.631.817 0 .282.071.717-.071 1.05-.195.341-.56.647-.707.647-.081 0-.159.506-.081.74.081.228.549.195.821.195.3.033.506 0 .821-.358.305-.197.952-.467.985-.883 0-.429-.213-2.257-.213-2.975 0-.778-.13-2.541-.146-2.933-.015-.37-.457-.642-.761-.37-.284.295-.469.394-.649.643m-3.15 4.527c.015-.282.566-.621.713-.336.277.336-.071.945-.071.945s-.413.463-.451.12c-.082-.294-.251-.539-.191-.729m1.099 3.651c-.109 0-.277.342-.533.342-.283 0-.551.119-.551.36.094.266.159.815-.015.815s-.599.669-.544.859c.076.246.484.686.735.67.212-.081.604-.081.811-.224.233-.13.281-.522.539-.566.179-.054.832-.423.87-.576.109-.181.474-.372.474-.713 0-.333-.174-.876-.425-1.089-.246-.092-1.045.122-1.361.122m-15.167 9.265c.266-.12.266.087.495.5.255.409.31.8.398 1.136.015.312.086 1.018 0 1.165-.143.19-.882.211-.882-.027 0-.239-.56-.239-.507-.528.017-.321.312-.396.42-.723.076-.316-.404-1.327.076-1.523m9.014 0c-.071-.218.43-.642.561-.642.185 0 .37.233.37.457 0 .217-.795.685-.931.185m-42.424 42.302c-.408.023-.065.632 0 1.393.109.752-.065 1.329.321 1.154.278-.255 0-.963.262-1.034.212-.109.61-.663.245-.811-.245-.211-.402-.281-.402-.593 0-.325.157-.172-.426-.109m26.059-31.934c.321.067.583.752.756.916.082.189.963.696 1.236.543.293-.195.771-.195.875.122.104.239-.097 1.022-.44 1.217-.304.218-.598.75-.692 1.169-.015.507-.375 1.035-.577 1.035-.19 0-.811-.343-.972-.343-.186 0-.844-.022-.817.239.071.213.202 1.557-.283 1.687-.44.197-.788.61-1.06.827-.31.26-1.035.392-1.1.566-.032.086-.125 1.05-.407.945-.31-.096-.637-.19-.763-.39-.081-.229-.767-.861-.896-.861-.115 0-1.203.306-1.394.088-.14-.164-.544-.48-.805-.665-.262-.212-.811-.979-.654-1.404.143-.392.463-1.033.735-.979.179.043.179.719.321.937.108.243.511.901.718.901.174 0 .761.034.859-.042.027-.153.136-.538.348-.538.245 0 .576.335.729.444.163.094.892.866.892.3 0-.598-.092-1.181 0-1.283.174-.109.539-.92.642-1.155.082-.31-.262-.815 0-1.262.239-.413.62-.87.854-1.033.245-.163-.082-.719.436-.773.543-.061 1.077-.061.99-.425-.09-.293.002-.859.469-.783m-6.342 10.076c.071-.132.582-.43.75-.132.098.382.017.746.098.948.038.201.164.827 0 1.099-.191.315-.266.761-.429 1.012-.185.239-.903.663-1.192.663-.293 0-.652.283-1.066.523-.396.218-.702.424-.702.816 0 .364-.075.881-.281.979-.126.108-.354 1.035-.354 1.154 0 .108-.344.478-.463.691-.13.158-.315.614-.61.711-.277.087-.985.534-1.05.674-.119.153-.379.502-1.081.398-.578-.113-1.089.104-1.094.245-.077.202-.544.707-.926.75-.348.022-1.039.136-1.125.31-.141.125-.549.75-.576 1.175-.088.365-.072.679-.344.952-.249.157-.434.523-.821.469-.354-.055-1.001.413-1.077.641-.055.211.075.641-.185.859-.256.174-.316.817-.316.817l.153 1.088s.533 1.327.19 1.529c-.283.243-.691.581-.691.581l-.952-.783-.089-.759.626-.963-.551-.962s.098-.848.404-1.153c.365-.327.782-.947.782-.947s.648-1.523 1.073-1.523c.462-.065.533-.268.882-.604.429-.333.532-1.105.941-1.58.3-.461.635-.141 1.093-.679.369-.543.158-1.828.369-2.154.382-.402 1.247-.272 1.497-.522.201-.306.371-.632.484-1.37.174-.773.762-1.029 1.056-1.182.276-.18.413-.255.93-.832.511-.522.348-1.382.832-1.534.392-.109 2.007-.218 2.388-.327.311-.099.941.163 1.095-.262.119-.424.141-.457.332-.816m-33.975 35.646c.179-.317.833-.566 1.099-.512.223 0 .718.157.675.413-.033.294-.224.478-.299.778a3.553 3.553 0 0 1-.375.756c-.157.153-.452.62-.674.501-.267-.136-.859-.392-.784-.926.064-.488.271-.928.358-1.01m-.469 4.08c.125-.055.587-.044.587-.044l-.336.654s-.126.554-.164.766c-.088.224-.86.697-.86.061.033-.635.033-.675.229-.958.213-.23.136-.37.544-.479"/><path d="M305.511 135.661c.104-.176.887-.23.887-.23s.152.643.044.872c-.086.272-.696.63-.826.228-.137-.382-.137-.698-.105-.87M114.975 492.935h177.18v-169.02h-177.18zm88.503-28.114c-31.238 0-56.27-25.211-56.27-56.396 0-31.151 25.032-56.395 56.27-56.395 31.103 0 56.493 25.243 56.493 56.395 0 31.185-25.39 56.396-56.493 56.396"/><path d="M231.741 408.425c0 15.593-12.644 28.138-28.263 28.138-15.483 0-28.132-12.545-28.132-28.138 0-15.536 12.648-28.235 28.132-28.235 15.619 0 28.263 12.699 28.263 28.235"/></g></svg>