<svg xmlns="http://www.w3.org/2000/svg" viewBox="0 0 32.730625 31.676367" version="1"><path d="M7.587 0C6.28 0 5.23 1.028 5.23 2.291v7.836H2.34c-1.307 0-2.357 1.032-2.357 2.291v16.967c0 1.263 1.05 2.291 2.358 2.291h17.532c1.308 0 2.39-1.028 2.39-2.29v-2.79h8.102c1.307 0 2.357-1.032 2.357-2.29V7.337c0-1.26-1.05-2.258-2.357-2.258h-2.889V2.291C27.476 1.028 26.424 0 25.12 0zm0 1.295H25.12c.572 0 1.029.44 1.029.996v2.79H12.833c-1.305 0-2.39.997-2.39 2.257v2.79H6.558V2.29c0-.555.453-.996 1.03-.996zm5.246 5.047h13.315v12.883c0 .555-.457 1.03-1.03 1.03h-2.855v-7.837c0-1.259-1.082-2.29-2.39-2.29H11.77v-2.79c0-.554.49-.996 1.062-.996zm14.643 0h2.889c.574 0 1.03.442 1.03.996v16.967c0 .554-.456.996-1.03.996h-8.102V21.55h2.856c1.305 0 2.357-1.061 2.357-2.324zm-25.135 5.08H5.23v7.803c0 1.263 1.049 2.324 2.357 2.324h2.856v2.756c0 1.26 1.085 2.291 2.39 2.291h8.102v2.79c0 .553-.486.995-1.062.995H2.34c-.58 0-1.03-.442-1.03-.996V12.418c0-.552.45-.996 1.03-.996zm4.217 0h3.885v8.832H7.587c-.576 0-1.03-.474-1.03-1.029zm5.213 0h8.102c.576 0 1.062.444 1.062.996v7.836h-9.164zm0 10.127h9.164v3.752h-8.102c-.572 0-1.062-.442-1.062-.996z" fill="#7498bf"/></svg>