<svg id="logosandtypes_com" data-name="logosandtypes com" xmlns="http://www.w3.org/2000/svg" xmlns:xlink="http://www.w3.org/1999/xlink" viewBox="0 0 150 150"><defs><style>.cls-1{fill:none;}.cls-2{fill:url(#linear-gradient);}.cls-3{fill:url(#linear-gradient-2);}</style><linearGradient id="linear-gradient" x1="68.8" y1="71.84" x2="132.06" y2="71.84" gradientUnits="userSpaceOnUse"><stop offset="0" stop-color="#0071bb"/><stop offset="1" stop-color="#009ade"/></linearGradient><linearGradient id="linear-gradient-2" x1="20.44" y1="90.43" x2="83.17" y2="90.43" gradientUnits="userSpaceOnUse"><stop offset="0" stop-color="#4e8d35"/><stop offset="1" stop-color="#a5cf54"/></linearGradient></defs><path class="cls-1" d="M0,0H150V150H0Z"/><path class="cls-2" d="M127,28.75C115.5,15.32,87.62,9.28,77.24,13.16c-8,3-13.15,11.65-2.1,25.7,5.81,7.4,8,10.77,8,14-4.18,26.78-4.36,53.06,0,78.77L128.59,53C134.17,42.27,132.57,35.21,127,28.75Z"/><path id="Path_2" data-name="Path 2" class="cls-3" d="M81.07,58C73.8,65.69,50.38,53.15,30,44a6.68,6.68,0,0,0-8.65,9.37l46,79.64a8.65,8.65,0,0,0,7.53,4.46A8.47,8.47,0,0,0,82.4,133l.77-1.33V52.91A7.22,7.22,0,0,1,81.07,58Z"/></svg>