<svg xmlns="http://www.w3.org/2000/svg" fill="none" viewBox="0 0 60 60"><defs/><path fill="url(#paint0_linear)" d="M43.8 7.2h9v30H60V0H43.8v7.2z"/><path fill="url(#paint1_linear)" d="M37.2 0H0v16.2h7.2v-9h30V0z"/><path fill="url(#paint2_linear)" d="M7.2 22.8H0V60h16.2v-7.2h-9v-30z"/><path fill="url(#paint3_linear)" d="M22.8 52.8V60H60V43.8h-7.2v9h-30z"/><path fill="url(#paint4_linear)" d="M13.2 13.2h7.2l13.2 33.6h-7.2L13.2 13.2z"/><path fill="url(#paint5_linear)" d="M46.8 13.2h-7.2L26.4 46.8h7.2l13.2-33.6z"/><defs><linearGradient id="paint0_linear" x1="0" x2="60" y1="0" y2="60" gradientUnits="userSpaceOnUse"><stop stop-color="#FFBF12"/><stop offset="1" stop-color="#FF9000"/></linearGradient><linearGradient id="paint1_linear" x1="0" x2="60" y1="0" y2="60" gradientUnits="userSpaceOnUse"><stop stop-color="#FFBF12"/><stop offset="1" stop-color="#FF9000"/></linearGradient><linearGradient id="paint2_linear" x1="0" x2="60" y1="0" y2="60" gradientUnits="userSpaceOnUse"><stop stop-color="#FFBF12"/><stop offset="1" stop-color="#FF9000"/></linearGradient><linearGradient id="paint3_linear" x1="0" x2="60" y1="0" y2="60" gradientUnits="userSpaceOnUse"><stop stop-color="#FFBF12"/><stop offset="1" stop-color="#FF9000"/></linearGradient><linearGradient id="paint4_linear" x1="0" x2="60" y1="0" y2="60" gradientUnits="userSpaceOnUse"><stop stop-color="#FFBF12"/><stop offset="1" stop-color="#FF9000"/></linearGradient><linearGradient id="paint5_linear" x1="0" x2="60" y1="0" y2="60" gradientUnits="userSpaceOnUse"><stop stop-color="#FFBF12"/><stop offset="1" stop-color="#FF9000"/></linearGradient></defs></svg>
