<svg xmlns="http://www.w3.org/2000/svg" viewBox="-3.1831305 -3.1831305 360.31999 106.10186" version="1"><path d="M120.882 56.201c-6.13-.121-13.088.888-13.088 6.444 0 3.43 2.427 4.966 5.234 4.966 4.088 0 6.705-2.365 7.598-4.787.192-.535.256-1.125.256-1.657v-4.966zm5.489 7.745c0 2.484.127 4.908.446 6.859h-5.043l-.51-3.606h-.19c-1.66 2.246-5.045 4.255-9.45 4.255-6.256 0-9.447-4.08-9.447-8.218 0-6.916 6.639-10.702 18.576-10.642v-.59c0-2.367-.701-6.685-7.022-6.624-2.937 0-5.937.769-8.108 2.129l-1.276-3.49c2.554-1.478 6.321-2.482 10.215-2.482 9.511 0 11.809 5.972 11.809 11.707m13.693-17.917v6.86h8.044v3.962h-8.044V61.58c0 3.548 1.085 5.558 4.214 5.558 1.531 0 2.425-.12 3.256-.355l.254 3.962c-1.085.354-2.809.708-4.98.708-2.615 0-4.722-.828-6.064-2.188-1.53-1.596-2.17-4.137-2.17-7.507v-15.61h-4.788v-3.963h4.788v-5.261m39.678 32.875c-1.469.65-4.725 1.655-8.874 1.655-9.32 0-15.384-5.852-15.384-14.662 0-8.812 6.512-15.255 16.597-15.255 3.32 0 6.257.768 7.787 1.537l-1.275 3.962c-1.34-.651-3.447-1.359-6.512-1.359-7.085 0-10.914 4.907-10.914 10.878 0 6.621 4.595 10.702 10.724 10.702 3.19 0 5.298-.71 6.893-1.36m6.11-37.073h5.617V46.68h.128c.894-1.479 2.298-2.839 4.022-3.666 1.66-.946 3.637-1.478 5.746-1.478 4.147 0 10.787 2.365 10.787 12.24v17.028h-5.616V54.366c0-4.67-1.852-8.514-7.151-8.514-3.639 0-6.446 2.367-7.531 5.204-.32.71-.385 1.478-.385 2.485v17.264h-5.617m65.879-1.775c-2.49.886-7.47 2.19-13.279 2.19-6.51 0-11.873-1.54-16.085-5.264-3.703-3.311-6-8.632-6-14.841 0-11.885 8.872-20.576 23.3-20.576 4.977 0 8.935 1.003 10.785 1.833l-1.403 4.197c-2.297-1.005-5.17-1.714-9.512-1.714-10.47 0-17.298 6.03-17.298 16.025 0 10.11 6.51 16.081 16.597 16.081 3.639 0 6.128-.472 7.405-1.064V54.012h-8.684v-4.14h14.174M276.943 63c0 2.956.063 5.559.254 7.805h-4.979l-.319-4.671h-.128c-1.404 2.305-4.724 5.32-10.214 5.32-4.85 0-10.66-2.542-10.66-12.534V42.186h5.616v15.789c0 5.44 1.853 9.164 6.896 9.164 3.767 0 6.383-2.424 7.405-4.79.32-.71.51-1.654.51-2.662v-17.5h5.62m23.774 14.014c-6.131-.121-13.089.888-13.089 6.444 0 3.43 2.425 4.966 5.234 4.966 4.086 0 6.704-2.365 7.599-4.787.19-.535.256-1.125.256-1.657v-4.966zm5.488 7.745c0 2.484.128 4.908.447 6.859h-5.044l-.51-3.606h-.19c-1.66 2.246-5.045 4.255-9.45 4.255-6.256 0-9.447-4.08-9.447-8.218 0-6.916 6.639-10.702 18.576-10.642v-.59c0-2.367-.701-6.685-7.022-6.624-2.938 0-5.937.769-8.105 2.129l-1.278-3.49c2.553-1.478 6.321-2.482 10.213-2.482 9.512 0 11.81 5.972 11.81 11.707m6.51-2.129c0-3.37-.063-6.268-.254-8.929h4.917l.253 5.618h.192c1.404-3.843 4.852-6.267 8.62-6.267.573 0 1.02.06 1.53.177v4.85c-.637-.06-1.212-.12-1.98-.12-3.956 0-6.766 2.78-7.532 6.62-.128.77-.19 1.6-.19 2.487v15.254h-5.619m38.613-16.971c0-.708-.065-1.538-.257-2.245-.83-3.253-3.895-5.973-8.106-5.973-5.81 0-9.257 4.731-9.257 10.998 0 5.853 3.127 10.643 9.128 10.643 3.767 0 7.214-2.365 8.235-6.208.192-.71.257-1.422.257-2.247v-4.968zm5.617-25.01v34.59c0 2.542.063 5.44.254 7.39h-5.041l-.257-4.967h-.127c-1.724 3.193-5.426 5.617-10.469 5.617-7.469 0-13.277-5.852-13.277-14.545-.065-9.578 6.38-15.372 13.85-15.372 4.79 0 7.98 2.07 9.32 4.315h.13V28.824" fill="#7b7979"/><path d="M77.693 25.661c5.741 6.488 9.423 14.839 10.02 24.033.005.076-.02.027-.02.027-2.074 9.148-5.172 19.809-9.73 29.74 0 0-5.69.23-15.722.384-2.364-14.455-6.345-29.856-9.093-40.429h-.139c-2.747 10.573-6.727 25.974-9.092 40.429-10.034-.154-15.723-.384-15.723-.384C17.012 55.091 14.608 26.32 14.608 26.32c5.133-.369 9.458-.519 13.856-.629 1.097 10.799 4.87 32.141 7.007 38.243h.18c1.907-12.82 5.245-26.107 10.518-38.645 5.024-.112 8.474-.183 13.643 0h.175c5.276 12.538 8.611 25.825 10.52 38.645h.18c2.139-6.102 5.91-27.444 7.006-38.243" fill="#231f20"/><path d="M47.406 98.689c-25.603 0-46.36-20.754-46.36-46.36 0-25.6 20.757-46.357 46.36-46.357 1.667 0 3.315.09 4.936.26C75.623 8.696 93.764 28.396 93.764 52.33c0 25.605-20.755 46.359-46.358 46.359zm5.356-96.667a51.233 51.233 0 0 0-5.356-.28c-27.94 0-50.59 22.65-50.59 50.588 0 27.941 22.65 50.59 50.59 50.59 27.94 0 50.588-22.649 50.588-50.59 0-26.129-19.81-47.633-45.232-50.308" fill="#7b7979"/><path d="M146.22 2.625c2.623 5.207.528 11.555-4.678 14.179l-29.305 14.765c-5.208 2.622-11.556.528-14.179-4.68-2.622-5.207-.527-11.554 4.679-14.178l29.305-14.765c5.206-2.622 11.555-.527 14.177 4.679" fill="#ed1c24"/></svg>