<?xml version="1.0" encoding="UTF-8" standalone="no"?>
<svg
   xmlns:dc="http://purl.org/dc/elements/1.1/"
   xmlns:cc="http://creativecommons.org/ns#"
   xmlns:rdf="http://www.w3.org/1999/02/22-rdf-syntax-ns#"
   xmlns:svg="http://www.w3.org/2000/svg"
   xmlns="http://www.w3.org/2000/svg"
   width="55.187336mm"
   height="19.636236mm"
   viewBox="0 0 55.187336 19.636236"
   version="1.1"
   id="svg2165">
  <defs
     id="defs2159">
    <clipPath
       clipPathUnits="userSpaceOnUse"
       id="clipPath1417">
      <path
         d="m 394.56,159.664 h 160.45 v 57.091 H 394.56 Z"
         id="path1415" />
    </clipPath>
  </defs>
  <metadata
     id="metadata2162">
    <rdf:RDF>
      <cc:Work
         rdf:about="">
        <dc:format>image/svg+xml</dc:format>
        <dc:type
           rdf:resource="http://purl.org/dc/dcmitype/StillImage" />
        <dc:title></dc:title>
      </cc:Work>
    </rdf:RDF>
  </metadata>
  <g
     id="layer1"
     transform="translate(-58.149302,-46.755834)">
    <g
       id="g1411"
       transform="matrix(0.34395349,0,0,-0.34395349,-77.560987,121.30906)">
      <g
         id="g1413"
         clip-path="url(#clipPath1417)">
        <g
           id="g1419"
           transform="translate(556.3591,172.2168)">
          <path
             d="M 0,0 C 11.421,2.018 24.622,-0.749 32.545,-12.553 24.374,-3.508 13.522,0.958 0,0"
             style="fill:#231f20;fill-opacity:1;fill-rule:nonzero;stroke:none"
             id="path1421" />
        </g>
        <g
           id="g1423"
           transform="translate(558.4886,169.6731)">
          <path
             d="M 0,0 C 9.427,1.439 20.535,-1.332 26.752,-9.274 20.235,-3.098 11.317,0.034 0,0"
             style="fill:#231f20;fill-opacity:1;fill-rule:nonzero;stroke:none"
             id="path1425" />
        </g>
        <g
           id="g1427"
           transform="translate(559.6544,167.8729)">
          <path
             d="M 0,0 C 7.856,0.756 16.995,-1.52 21.943,-7.41 16.698,-2.782 9.384,-0.31 0,0"
             style="fill:#231f20;fill-opacity:1;fill-rule:nonzero;stroke:none"
             id="path1429" />
        </g>
        <g
           id="g1431"
           transform="translate(609.3248,173.6507)">
          <path
             d="m 0,0 c -7.793,2.304 -19.99,0.092 -27.654,-4.875 0.375,-0.297 0.743,-0.604 1.108,-0.925 C -18.884,-0.489 -8.557,1.545 0,0"
             style="fill:#231f20;fill-opacity:1;fill-rule:nonzero;stroke:none"
             id="path1433" />
        </g>
        <g
           id="g1435"
           transform="translate(605.255,171.13)">
          <path
             d="m 0,0 c -6.058,1.346 -15.537,-0.535 -21.506,-4.174 0.254,-0.247 0.506,-0.5 0.755,-0.762 C -14.788,-1.072 -6.643,0.802 0,0"
             style="fill:#231f20;fill-opacity:1;fill-rule:nonzero;stroke:none"
             id="path1437" />
        </g>
        <g
           id="g1439"
           transform="translate(602.9886,169.0372)">
          <path
             d="m 0,0 c -4.939,0.966 -12.676,-0.779 -17.533,-3.879 0.126,-0.144 0.25,-0.289 0.371,-0.437 C -12.307,-1.036 -5.41,0.509 0,0"
             style="fill:#231f20;fill-opacity:1;fill-rule:nonzero;stroke:none"
             id="path1441" />
        </g>
        <g
           id="g1443"
           transform="translate(566.5724,213.9012)">
          <path
             d="m 0,0 c -2.708,-1.719 -4.956,-3.996 -6.498,-6.586 -1.595,-2.676 -2.438,-5.696 -2.438,-8.734 0,-3.038 0.843,-6.06 2.439,-8.737 1.543,-2.589 3.792,-4.867 6.501,-6.586 0.585,-0.373 1.404,-0.259 1.829,0.253 0.426,0.512 0.296,1.229 -0.291,1.601 -2.381,1.513 -4.358,3.516 -5.714,5.791 -1.423,2.386 -2.144,4.969 -2.144,7.678 0,2.708 0.721,5.291 2.142,7.675 1.356,2.277 3.333,4.279 5.714,5.792 0.586,0.372 0.715,1.088 0.29,1.6 C 1.405,0.26 0.586,0.373 0,0"
             style="fill:#231f20;fill-opacity:1;fill-rule:nonzero;stroke:none"
             id="path1445" />
        </g>
        <g
           id="g1447"
           transform="translate(575.0558,203.4952)">
          <path
             d="m 0,0 c -0.852,-0.56 -1.559,-1.295 -2.042,-2.123 -0.5,-0.857 -0.764,-1.823 -0.764,-2.791 0,-1.915 0.992,-3.686 2.725,-4.86 0.572,-0.387 1.395,-0.296 1.839,0.203 0.442,0.501 0.339,1.22 -0.233,1.608 -1.088,0.736 -1.71,1.849 -1.71,3.049 0,1.221 0.641,2.346 1.761,3.082 0.578,0.381 0.695,1.1 0.259,1.605 C 1.401,0.279 0.579,0.38 0,0"
             style="fill:#231f20;fill-opacity:1;fill-rule:nonzero;stroke:none"
             id="path1449" />
        </g>
        <g
           id="g1451"
           transform="translate(570.7721,208.8634)">
          <path
             d="m 0,0 c -1.793,-1.167 -3.28,-2.702 -4.298,-4.438 -1.054,-1.793 -1.611,-3.814 -1.611,-5.844 0,-2.044 0.565,-4.078 1.633,-5.882 1.032,-1.745 2.537,-3.284 4.352,-4.449 0.583,-0.376 1.403,-0.265 1.832,0.244 0.428,0.509 0.302,1.227 -0.28,1.602 -1.492,0.959 -2.729,2.222 -3.577,3.656 -0.888,1.502 -1.339,3.126 -1.339,4.829 0,1.691 0.445,3.306 1.321,4.798 0.837,1.426 2.058,2.687 3.533,3.646 0.58,0.379 0.7,1.096 0.269,1.603 C 1.402,0.272 0.581,0.378 0,0"
             style="fill:#231f20;fill-opacity:1;fill-rule:nonzero;stroke:none"
             id="path1453" />
        </g>
        <g
           id="g1455"
           transform="translate(593.6961,183.2585)">
          <path
             d="m 0,0 c 2.708,1.719 4.955,3.997 6.498,6.586 1.595,2.677 2.44,5.696 2.44,8.734 0,3.04 -0.845,6.061 -2.441,8.737 -1.542,2.589 -3.791,4.867 -6.5,6.586 -0.586,0.373 -1.406,0.26 -1.83,-0.253 -0.426,-0.513 -0.296,-1.228 0.29,-1.6 C 0.84,27.277 2.815,25.274 4.172,22.997 5.595,20.613 6.316,18.03 6.316,15.32 6.316,12.612 5.595,10.03 4.174,7.645 2.817,5.37 0.842,3.367 -1.539,1.854 -2.126,1.482 -2.255,0.765 -1.829,0.253 -1.405,-0.259 -0.585,-0.374 0,0"
             style="fill:#231f20;fill-opacity:1;fill-rule:nonzero;stroke:none"
             id="path1457" />
        </g>
        <g
           id="g1459"
           transform="translate(585.2122,193.6644)">
          <path
             d="m 0,0 c 0.852,0.561 1.559,1.295 2.042,2.123 0.5,0.859 0.765,1.823 0.765,2.791 0,1.915 -0.993,3.687 -2.726,4.86 -0.572,0.389 -1.395,0.297 -1.838,-0.203 C -2.2,9.07 -2.095,8.351 -1.525,7.963 -0.437,7.226 0.187,6.115 0.187,4.914 0.187,3.691 -0.456,2.568 -1.576,1.833 -2.153,1.452 -2.271,0.733 -1.835,0.227 -1.401,-0.279 -0.577,-0.381 0,0"
             style="fill:#231f20;fill-opacity:1;fill-rule:nonzero;stroke:none"
             id="path1461" />
        </g>
        <g
           id="g1463"
           transform="translate(589.4965,188.2956)">
          <path
             d="m 0,0 c 1.791,1.169 3.279,2.703 4.297,4.438 1.055,1.795 1.611,3.816 1.611,5.845 0,2.045 -0.564,4.079 -1.631,5.882 -1.033,1.745 -2.539,3.284 -4.353,4.45 -0.583,0.375 -1.404,0.266 -1.832,-0.245 -0.43,-0.51 -0.302,-1.226 0.28,-1.602 C -0.136,17.81 1.1,16.546 1.949,15.112 2.837,13.611 3.288,11.987 3.288,10.283 3.288,8.592 2.842,6.978 1.966,5.486 1.129,4.06 -0.093,2.798 -1.566,1.839 -2.146,1.461 -2.267,0.742 -1.834,0.235 -1.402,-0.272 -0.581,-0.377 0,0"
             style="fill:#231f20;fill-opacity:1;fill-rule:nonzero;stroke:none"
             id="path1465" />
        </g>
        <g
           id="g1467"
           transform="translate(580.1159,175.2423)">
          <path
             d="M 0,0 -8.297,-1.979 -7.949,-1.048 0,1.022 Z"
             style="fill:#231f20;fill-opacity:1;fill-rule:nonzero;stroke:none"
             id="path1469" />
        </g>
        <g
           id="g1471"
           transform="translate(580.1159,181.5786)">
          <path
             d="m 0,0 -5.669,-1.335 c -0.062,-0.327 -0.15,-0.643 -0.248,-0.957 L 0,-0.92 Z"
             style="fill:#231f20;fill-opacity:1;fill-rule:nonzero;stroke:none"
             id="path1473" />
        </g>
        <g
           id="g1475"
           transform="translate(580.1159,186.4852)">
          <path
             d="M 0,0 -3.935,-0.843 C -4.003,-1.172 -4.094,-1.49 -4.165,-1.802 L 0,-0.819 Z"
             style="fill:#231f20;fill-opacity:1;fill-rule:nonzero;stroke:none"
             id="path1477" />
        </g>
        <g
           id="g1479"
           transform="translate(580.2186,191.9344)">
          <path
             d="M 0,0 -2.107,-0.614 C -2.121,-0.949 -2.159,-1.278 -2.256,-1.595 L 0,-0.921 Z"
             style="fill:#231f20;fill-opacity:1;fill-rule:nonzero;stroke:none"
             id="path1481" />
        </g>
        <g
           id="g1483"
           transform="translate(580.8124,175.2423)">
          <path
             d="M 0,0 8.298,-1.979 7.95,-1.048 0,1.022 Z"
             style="fill:#231f20;fill-opacity:1;fill-rule:nonzero;stroke:none"
             id="path1485" />
        </g>
        <g
           id="g1487"
           transform="translate(580.8124,181.5786)">
          <path
             d="m 0,0 5.669,-1.335 c 0.062,-0.327 0.15,-0.643 0.248,-0.957 L 0,-0.92 Z"
             style="fill:#231f20;fill-opacity:1;fill-rule:nonzero;stroke:none"
             id="path1489" />
        </g>
        <g
           id="g1491"
           transform="translate(580.8124,186.4852)">
          <path
             d="M 0,0 3.936,-0.843 C 4.005,-1.172 4.096,-1.49 4.165,-1.802 L 0,-0.819 Z"
             style="fill:#231f20;fill-opacity:1;fill-rule:nonzero;stroke:none"
             id="path1493" />
        </g>
        <g
           id="g1495"
           transform="translate(580.7094,191.9344)">
          <path
             d="M 0,0 2.108,-0.614 C 2.122,-0.949 2.161,-1.278 2.257,-1.595 L 0,-0.921 Z"
             style="fill:#231f20;fill-opacity:1;fill-rule:nonzero;stroke:none"
             id="path1497" />
        </g>
        <g
           id="g1499"
           transform="translate(580.2927,195.4269)">
          <path
             d="M 0,0 -1.191,-0.347 C -1.198,-0.535 -1.219,-0.72 -1.273,-0.901 L 0,-0.518 Z"
             style="fill:#231f20;fill-opacity:1;fill-rule:nonzero;stroke:none"
             id="path1501" />
        </g>
        <g
           id="g1503"
           transform="translate(580.5692,195.4269)">
          <path
             d="M 0,0 1.189,-0.347 C 1.196,-0.535 1.218,-0.72 1.273,-0.901 L 0,-0.518 Z"
             style="fill:#231f20;fill-opacity:1;fill-rule:nonzero;stroke:none"
             id="path1505" />
        </g>
        <g
           id="g1507"
           transform="translate(581.0168,198.7812)">
          <path
             d="m 0,0 c 0,-0.321 -0.259,-0.58 -0.578,-0.58 -0.322,0 -0.581,0.259 -0.581,0.58 0,0.319 0.259,0.579 0.581,0.579 C -0.259,0.579 0,0.319 0,0"
             style="fill:#231f20;fill-opacity:1;fill-rule:nonzero;stroke:none"
             id="path1509" />
        </g>
        <g
           id="g1511"
           transform="translate(580.1159,170.7454)">
          <path
             d="M 0,0 -8.297,2.518 -7.949,3.449 0,1.021 Z"
             style="fill:#231f20;fill-opacity:1;fill-rule:nonzero;stroke:none"
             id="path1513" />
        </g>
        <g
           id="g1515"
           transform="translate(580.1159,178.5119)">
          <path
             d="M 0,0 -5.669,1.732 C -5.731,1.405 -5.819,1.089 -5.917,0.775 L 0,-1.022 Z"
             style="fill:#231f20;fill-opacity:1;fill-rule:nonzero;stroke:none"
             id="path1517" />
        </g>
        <g
           id="g1519"
           transform="translate(580.1159,184.4395)">
          <path
             d="M 0,0 -3.935,1.203 C -4.003,0.874 -4.094,0.556 -4.165,0.244 L 0,-1.022 Z"
             style="fill:#231f20;fill-opacity:1;fill-rule:nonzero;stroke:none"
             id="path1521" />
        </g>
        <g
           id="g1523"
           transform="translate(580.1159,190.2654)">
          <path
             d="M 0,0 -2.004,0.613 C -2.019,0.279 -2.057,-0.051 -2.153,-0.368 L 0,-1.022 Z"
             style="fill:#231f20;fill-opacity:1;fill-rule:nonzero;stroke:none"
             id="path1525" />
        </g>
        <g
           id="g1527"
           transform="translate(580.8124,170.7454)">
          <path
             d="M 0,0 8.298,2.518 7.95,3.449 0,1.021 Z"
             style="fill:#231f20;fill-opacity:1;fill-rule:nonzero;stroke:none"
             id="path1529" />
        </g>
        <g
           id="g1531"
           transform="translate(580.8124,178.5119)">
          <path
             d="M 0,0 5.669,1.732 C 5.731,1.405 5.819,1.089 5.917,0.775 L 0,-1.022 Z"
             style="fill:#231f20;fill-opacity:1;fill-rule:nonzero;stroke:none"
             id="path1533" />
        </g>
        <g
           id="g1535"
           transform="translate(580.8124,184.4395)">
          <path
             d="M 0,0 3.936,1.203 C 4.005,0.874 4.096,0.556 4.165,0.244 L 0,-1.022 Z"
             style="fill:#231f20;fill-opacity:1;fill-rule:nonzero;stroke:none"
             id="path1537" />
        </g>
        <g
           id="g1539"
           transform="translate(580.8124,190.2654)">
          <path
             d="M 0,0 2.004,0.613 C 2.019,0.279 2.058,-0.051 2.154,-0.368 L 0,-1.022 Z"
             style="fill:#231f20;fill-opacity:1;fill-rule:nonzero;stroke:none"
             id="path1541" />
        </g>
        <g
           id="g1543"
           transform="translate(580.2345,194.2931)">
          <path
             d="M 0,0 -1.133,0.345 C -1.14,0.157 -1.161,-0.028 -1.215,-0.208 L 0,-0.577 Z"
             style="fill:#231f20;fill-opacity:1;fill-rule:nonzero;stroke:none"
             id="path1545" />
        </g>
        <g
           id="g1547"
           transform="translate(580.6257,194.2931)">
          <path
             d="M 0,0 1.133,0.345 C 1.14,0.157 1.161,-0.028 1.216,-0.208 L 0,-0.577 Z"
             style="fill:#231f20;fill-opacity:1;fill-rule:nonzero;stroke:none"
             id="path1549" />
        </g>
        <g
           id="g1551"
           transform="translate(582.1243,198.7782)">
          <path
             d="m 0,0 c 0,-0.928 -0.753,-1.681 -1.68,-1.681 -0.928,0 -1.683,0.753 -1.683,1.681 0,0.928 0.755,1.681 1.683,1.681 C -0.753,1.681 0,0.928 0,0"
             style="fill:#231f20;fill-opacity:1;fill-rule:nonzero;stroke:none"
             id="path1553" />
        </g>
        <g
           id="g1555"
           transform="translate(571.5885,168.4165)">
          <path
             d="M 0,0 8.465,28.382 6.97,-2.324 9.16,-3.054 c 0.647,0.228 1.335,0.471 2.042,0.721 L 9.225,28.226 17.453,-0.112 c 0.769,0.272 1.49,0.532 2.138,0.76 L 9.448,29.251 8.763,29.023 8.808,28.876 8.596,28.823 8.656,29.023 7.972,29.251 -2.146,0.715 Z"
             style="fill:#231f20;fill-opacity:1;fill-rule:nonzero;stroke:none"
             id="path1557" />
        </g>
        <g
           id="g1559"
           transform="translate(432.7339,216.7538)">
          <path
             d="M 0,0 H 2.799 L 5.107,-9.08 7.647,0 H 9.541 L 12.081,-9.08 14.38,0 h 2.799 L 13.12,-14.004 H 10.936 L 8.589,-5.261 6.223,-14.004 H 4.059 Z"
             style="fill:#e51636;fill-opacity:1;fill-rule:nonzero;stroke:none"
             id="path1561" />
        </g>
        <g
           id="g1563"
           transform="translate(455.74,202.7493)">
          <path
             d="M 0,0 H -5.292 V 9.803 H 0 V 8.079 H -3.393 V 5.844 H 0 V 4.147 H -3.393 V 1.724 H 0 Z"
             style="fill:#e51636;fill-opacity:1;fill-rule:nonzero;stroke:none"
             id="path1565" />
        </g>
        <g
           id="g1567"
           transform="translate(456.7499,205.7926)">
          <path
             d="m 0,0 1.751,0.007 v -0.142 c 0,-0.413 0.107,-0.744 0.323,-0.993 0.215,-0.249 0.502,-0.373 0.861,-0.373 0.386,0 0.692,0.115 0.916,0.346 0.225,0.231 0.337,0.544 0.337,0.939 0,0.634 -0.454,1.087 -1.36,1.361 C 2.711,1.18 2.619,1.21 2.552,1.232 1.789,1.47 1.223,1.808 0.855,2.245 0.487,2.683 0.303,3.236 0.303,3.905 c 0,0.92 0.255,1.659 0.764,2.215 0.51,0.557 1.188,0.835 2.037,0.835 0.794,0 1.427,-0.248 1.898,-0.744 C 5.474,5.715 5.736,5.021 5.79,4.127 H 4.053 V 4.208 C 4.053,4.522 3.959,4.776 3.77,4.969 3.582,5.162 3.335,5.258 3.03,5.258 2.716,5.258 2.468,5.16 2.286,4.962 2.104,4.765 2.013,4.495 2.013,4.154 2.013,4.011 2.032,3.884 2.07,3.774 2.108,3.664 2.168,3.564 2.249,3.474 2.433,3.272 2.828,3.086 3.434,2.915 3.703,2.844 3.909,2.783 4.053,2.734 4.726,2.505 5.223,2.177 5.545,1.751 5.865,1.324 6.026,0.779 6.026,0.115 c 0,-1.01 -0.281,-1.822 -0.842,-2.434 -0.561,-0.613 -1.306,-0.92 -2.235,-0.92 -0.875,0 -1.582,0.297 -2.121,0.889 C 0.289,-1.757 0.013,-0.974 0,0"
             style="fill:#e51636;fill-opacity:1;fill-rule:nonzero;stroke:none"
             id="path1569" />
        </g>
        <g
           id="g1571"
           transform="translate(468.8217,212.5525)">
          <path
             d="m 0,0 v -1.724 h -1.845 v -8.079 h -1.912 v 8.079 H -5.602 V 0 Z"
             style="fill:#e51636;fill-opacity:1;fill-rule:nonzero;stroke:none"
             id="path1573" />
        </g>
        <g
           id="g1575"
           transform="translate(478.5182,202.7493)">
          <path
             d="M 0,0 H -2.712 V 14.004 H 0.914 L 4.473,3.818 8.022,14.004 h 3.626 V 0 H 8.945 L 9.041,10.167 5.502,0 H 3.434 l -3.549,10.167 z"
             style="fill:#e51636;fill-opacity:1;fill-rule:nonzero;stroke:none"
             id="path1577" />
        </g>
        <g
           id="g1579"
           transform="translate(493.7268,207.7384)">
          <path
             d="m 0,0 c 0,-0.422 0.069,-0.815 0.209,-1.178 0.139,-0.364 0.345,-0.696 0.619,-0.997 0.301,-0.327 0.642,-0.58 1.023,-0.757 0.382,-0.178 0.777,-0.266 1.186,-0.266 0.857,0 1.576,0.305 2.157,0.915 C 5.775,-1.672 6.066,-0.911 6.066,0 6.066,0.835 5.773,1.547 5.187,2.138 4.602,2.728 3.898,3.023 3.077,3.023 2.219,3.023 1.492,2.729 0.895,2.141 0.299,1.553 0,0.839 0,0 m -2.013,-0.067 c 0,0.538 0.071,1.047 0.215,1.525 0.144,0.478 0.357,0.925 0.64,1.343 0.484,0.704 1.093,1.249 1.824,1.633 0.732,0.383 1.531,0.575 2.397,0.575 0.651,0 1.278,-0.125 1.882,-0.377 C 5.549,4.381 6.089,4.02 6.564,3.548 7.053,3.059 7.426,2.509 7.682,1.899 7.938,1.288 8.066,0.646 8.066,-0.027 8.066,-0.727 7.946,-1.385 7.705,-2 7.465,-2.615 7.112,-3.16 6.645,-3.636 6.174,-4.134 5.625,-4.517 4.999,-4.784 c -0.626,-0.267 -1.281,-0.4 -1.962,-0.4 -0.732,0 -1.405,0.13 -2.02,0.39 -0.616,0.26 -1.161,0.647 -1.637,1.158 -0.457,0.485 -0.804,1.029 -1.04,1.633 -0.235,0.604 -0.353,1.249 -0.353,1.936"
             style="fill:#e51636;fill-opacity:1;fill-rule:nonzero;stroke:none"
             id="path1581" />
        </g>
        <g
           id="g1583"
           transform="translate(502.9978,212.5525)">
          <path
             d="m 0,0 h 1.919 v -5.656 c 0,-0.884 0.093,-1.498 0.279,-1.841 0.187,-0.343 0.506,-0.515 0.96,-0.515 0.453,0 0.773,0.172 0.959,0.515 0.186,0.343 0.279,0.957 0.279,1.841 V 0 h 1.92 v -6.221 c 0,-0.691 -0.039,-1.21 -0.115,-1.555 C 6.124,-8.122 5.997,-8.425 5.817,-8.686 5.512,-9.134 5.144,-9.465 4.713,-9.679 4.282,-9.892 3.764,-9.998 3.158,-9.998 2.552,-9.998 2.033,-9.892 1.602,-9.679 1.171,-9.465 0.804,-9.134 0.498,-8.686 0.319,-8.425 0.191,-8.133 0.114,-7.81 0.038,-7.487 0,-6.957 0,-6.221 Z"
             style="fill:#e51636;fill-opacity:1;fill-rule:nonzero;stroke:none"
             id="path1585" />
        </g>
        <g
           id="g1587"
           transform="translate(512.8277,202.7493)">
          <path
             d="m 0,0 h -1.885 v 9.803 h 1.818 L 3.986,3.542 V 9.803 H 5.865 V 0 H 4.087 L 0,6.45 Z"
             style="fill:#e51636;fill-opacity:1;fill-rule:nonzero;stroke:none"
             id="path1589" />
        </g>
        <g
           id="g1591"
           transform="translate(525.2094,212.5525)">
          <path
             d="m 0,0 v -1.724 h -1.845 v -8.079 h -1.912 v 8.079 H -5.602 V 0 Z"
             style="fill:#e51636;fill-opacity:1;fill-rule:nonzero;stroke:none"
             id="path1593" />
        </g>
        <g
           id="g1595"
           transform="translate(529.9762,206.6207)">
          <path
             d="M 0,0 -1.158,3.158 -2.343,0 Z M -3.003,-1.818 -3.764,-3.871 H -5.75 l 3.804,9.803 H -0.29 L 3.461,-3.871 H 1.407 l -0.774,2.053 z"
             style="fill:#e51636;fill-opacity:1;fill-rule:nonzero;stroke:none"
             id="path1597" />
        </g>
        <path
           d="m 533.868,212.553 h 1.919 v -9.803 h -1.919 z"
           style="fill:#e51636;fill-opacity:1;fill-rule:nonzero;stroke:none"
           id="path1599" />
        <g
           id="g1601"
           transform="translate(539.308,202.7493)">
          <path
             d="m 0,0 h -1.885 v 9.803 h 1.818 L 3.986,3.542 V 9.803 H 5.864 V 0 H 4.087 L 0,6.45 Z"
             style="fill:#e51636;fill-opacity:1;fill-rule:nonzero;stroke:none"
             id="path1603" />
        </g>
        <g
           id="g1605"
           transform="translate(433.232,216.7538)">
          <path
             d="M 0,0 H 2.799 L 5.107,-9.08 7.647,0 H 9.541 L 12.081,-9.08 14.38,0 h 2.799 L 13.12,-14.004 H 10.936 L 8.589,-5.261 6.223,-14.004 H 4.059 Z"
             style="fill:#231f20;fill-opacity:1;fill-rule:nonzero;stroke:none"
             id="path1607" />
        </g>
        <g
           id="g1609"
           transform="translate(456.2381,202.7493)">
          <path
             d="M 0,0 H -5.292 V 9.803 H 0 V 8.079 H -3.393 V 5.844 H 0 V 4.147 H -3.393 V 1.724 H 0 Z"
             style="fill:#231f20;fill-opacity:1;fill-rule:nonzero;stroke:none"
             id="path1611" />
        </g>
        <g
           id="g1613"
           transform="translate(457.248,205.7926)">
          <path
             d="m 0,0 1.751,0.007 v -0.142 c 0,-0.413 0.107,-0.744 0.323,-0.993 0.215,-0.249 0.502,-0.373 0.861,-0.373 0.386,0 0.692,0.115 0.916,0.346 0.225,0.231 0.337,0.544 0.337,0.939 0,0.634 -0.454,1.087 -1.36,1.361 C 2.711,1.18 2.619,1.21 2.552,1.232 1.789,1.47 1.223,1.808 0.855,2.245 0.487,2.683 0.303,3.236 0.303,3.905 c 0,0.92 0.255,1.659 0.764,2.215 0.51,0.557 1.188,0.835 2.037,0.835 0.794,0 1.427,-0.248 1.898,-0.744 C 5.474,5.715 5.736,5.021 5.79,4.127 H 4.053 V 4.208 C 4.053,4.522 3.959,4.776 3.77,4.969 3.582,5.162 3.335,5.258 3.03,5.258 2.716,5.258 2.468,5.16 2.286,4.962 2.104,4.765 2.013,4.495 2.013,4.154 2.013,4.011 2.032,3.884 2.07,3.774 2.108,3.664 2.168,3.564 2.249,3.474 2.433,3.272 2.828,3.086 3.434,2.915 3.703,2.844 3.909,2.783 4.053,2.734 4.726,2.505 5.223,2.177 5.545,1.751 5.865,1.324 6.026,0.779 6.026,0.115 c 0,-1.01 -0.281,-1.822 -0.842,-2.434 -0.561,-0.613 -1.306,-0.92 -2.235,-0.92 -0.875,0 -1.582,0.297 -2.121,0.889 C 0.289,-1.757 0.013,-0.974 0,0"
             style="fill:#231f20;fill-opacity:1;fill-rule:nonzero;stroke:none"
             id="path1615" />
        </g>
        <g
           id="g1617"
           transform="translate(469.3199,212.5525)">
          <path
             d="m 0,0 v -1.724 h -1.845 v -8.079 h -1.912 v 8.079 H -5.602 V 0 Z"
             style="fill:#231f20;fill-opacity:1;fill-rule:nonzero;stroke:none"
             id="path1619" />
        </g>
        <g
           id="g1621"
           transform="translate(479.0164,202.7493)">
          <path
             d="M 0,0 H -2.712 V 14.004 H 0.914 L 4.472,3.818 8.022,14.004 h 3.626 V 0 H 8.945 L 9.041,10.167 5.502,0 H 3.434 l -3.55,10.167 z"
             style="fill:#231f20;fill-opacity:1;fill-rule:nonzero;stroke:none"
             id="path1623" />
        </g>
        <g
           id="g1625"
           transform="translate(494.225,207.7384)">
          <path
             d="m 0,0 c 0,-0.422 0.069,-0.815 0.209,-1.178 0.139,-0.364 0.345,-0.696 0.619,-0.997 0.301,-0.327 0.642,-0.58 1.023,-0.757 0.382,-0.178 0.777,-0.266 1.186,-0.266 0.857,0 1.576,0.305 2.157,0.915 C 5.775,-1.672 6.066,-0.911 6.066,0 6.066,0.835 5.773,1.547 5.187,2.138 4.602,2.728 3.898,3.023 3.077,3.023 2.219,3.023 1.492,2.729 0.895,2.141 0.299,1.553 0,0.839 0,0 m -2.013,-0.067 c 0,0.538 0.071,1.047 0.215,1.525 0.144,0.478 0.357,0.925 0.64,1.343 0.484,0.704 1.093,1.249 1.824,1.633 0.732,0.383 1.531,0.575 2.397,0.575 0.651,0 1.278,-0.125 1.882,-0.377 C 5.549,4.381 6.089,4.02 6.564,3.548 7.053,3.059 7.426,2.509 7.682,1.899 7.938,1.288 8.065,0.646 8.065,-0.027 8.065,-0.727 7.946,-1.385 7.705,-2 7.465,-2.615 7.112,-3.16 6.645,-3.636 6.174,-4.134 5.625,-4.517 4.999,-4.784 c -0.626,-0.267 -1.281,-0.4 -1.962,-0.4 -0.732,0 -1.405,0.13 -2.02,0.39 -0.616,0.26 -1.161,0.647 -1.637,1.158 -0.457,0.485 -0.804,1.029 -1.04,1.633 -0.235,0.604 -0.353,1.249 -0.353,1.936"
             style="fill:#231f20;fill-opacity:1;fill-rule:nonzero;stroke:none"
             id="path1627" />
        </g>
        <g
           id="g1629"
           transform="translate(503.4959,212.5525)">
          <path
             d="m 0,0 h 1.919 v -5.656 c 0,-0.884 0.093,-1.498 0.279,-1.841 0.187,-0.343 0.506,-0.515 0.96,-0.515 0.453,0 0.773,0.172 0.959,0.515 0.186,0.343 0.279,0.957 0.279,1.841 V 0 h 1.92 v -6.221 c 0,-0.691 -0.039,-1.21 -0.115,-1.555 C 6.124,-8.122 5.997,-8.425 5.817,-8.686 5.512,-9.134 5.144,-9.465 4.713,-9.679 4.282,-9.892 3.764,-9.998 3.158,-9.998 2.552,-9.998 2.033,-9.892 1.602,-9.679 1.171,-9.465 0.804,-9.134 0.498,-8.686 0.319,-8.425 0.191,-8.133 0.114,-7.81 0.038,-7.487 0,-6.957 0,-6.221 Z"
             style="fill:#231f20;fill-opacity:1;fill-rule:nonzero;stroke:none"
             id="path1631" />
        </g>
        <g
           id="g1633"
           transform="translate(513.3258,202.7493)">
          <path
             d="m 0,0 h -1.885 v 9.803 h 1.818 L 3.986,3.542 V 9.803 H 5.865 V 0 H 4.087 L 0,6.45 Z"
             style="fill:#231f20;fill-opacity:1;fill-rule:nonzero;stroke:none"
             id="path1635" />
        </g>
        <g
           id="g1637"
           transform="translate(525.7075,212.5525)">
          <path
             d="m 0,0 v -1.724 h -1.845 v -8.079 h -1.912 v 8.079 H -5.602 V 0 Z"
             style="fill:#231f20;fill-opacity:1;fill-rule:nonzero;stroke:none"
             id="path1639" />
        </g>
        <g
           id="g1641"
           transform="translate(530.4744,206.6207)">
          <path
             d="M 0,0 -1.158,3.158 -2.343,0 Z M -3.003,-1.818 -3.764,-3.871 H -5.75 l 3.804,9.803 H -0.29 L 3.461,-3.871 H 1.407 l -0.774,2.053 z"
             style="fill:#231f20;fill-opacity:1;fill-rule:nonzero;stroke:none"
             id="path1643" />
        </g>
        <path
           d="m 534.366,212.553 h 1.919 v -9.803 h -1.919 z"
           style="fill:#231f20;fill-opacity:1;fill-rule:nonzero;stroke:none"
           id="path1645" />
        <g
           id="g1647"
           transform="translate(539.8062,202.7493)">
          <path
             d="m 0,0 h -1.885 v 9.803 h 1.818 L 3.986,3.542 V 9.803 H 5.864 V 0 H 4.087 L 0,6.45 Z"
             style="fill:#231f20;fill-opacity:1;fill-rule:nonzero;stroke:none"
             id="path1649" />
        </g>
        <g
           id="g1651"
           transform="translate(404.8789,190.4789)">
          <path
             d="m 0,0 h 2.281 c 4.176,0 7.344,0.754 9.504,2.263 2.16,1.508 3.241,3.711 3.241,6.608 0,2.8 -0.905,4.863 -2.716,6.191 -1.81,1.327 -4.634,1.991 -8.472,1.991 L 0,17.053 Z M 0,-27.083 H -10.319 V 25.634 H 2.209 c 3.982,0 6.945,-0.139 8.888,-0.416 1.943,-0.278 3.603,-0.73 4.979,-1.358 2.992,-1.4 5.273,-3.355 6.843,-5.865 1.569,-2.511 2.353,-5.455 2.353,-8.835 0,-4.079 -1.122,-7.537 -3.367,-10.373 -2.245,-2.836 -5.299,-4.641 -9.16,-5.413 L 25.924,-27.083 H 13.614 L 0,-2.607 Z"
             style="fill:#231f20;fill-opacity:1;fill-rule:nonzero;stroke:none"
             id="path1653" />
        </g>
        <g
           id="g1655"
           transform="translate(452.0784,177.9694)">
          <path
             d="M 0,0 -4.359,11.887 -8.82,0 Z m -11.304,-6.843 -2.864,-7.73 h -7.477 l 14.32,36.902 h 6.235 l 14.117,-36.902 h -7.73 l -2.915,7.73 z"
             style="fill:#231f20;fill-opacity:1;fill-rule:nonzero;stroke:none"
             id="path1657" />
        </g>
        <g
           id="g1659"
           transform="translate(478.7665,169.7323)">
          <path
             d="m 0,0 c 4.005,0 6.953,0.98 8.845,2.94 1.892,1.96 2.839,5.027 2.839,9.2 0,3.836 -1.035,6.818 -3.105,8.947 -2.07,2.129 -4.963,3.193 -8.68,3.193 H -4.815 V 0 Z M 0.456,-6.336 H -12.089 V 30.566 H 0.253 c 3.346,0 6.024,-0.338 8.035,-1.014 2.01,-0.676 3.835,-1.808 5.474,-3.396 1.741,-1.69 3.058,-3.735 3.954,-6.133 0.896,-2.4 1.343,-5.095 1.343,-8.086 0,-3.345 -0.625,-6.34 -1.875,-8.984 C 15.933,0.308 14.117,-1.867 11.735,-3.574 10.383,-4.571 8.871,-5.28 7.198,-5.703 5.525,-6.125 3.278,-6.336 0.456,-6.336"
             style="fill:#231f20;fill-opacity:1;fill-rule:nonzero;stroke:none"
             id="path1661" />
        </g>
        <path
           d="m 502.287,200.298 h 7.223 v -36.902 h -7.223 z"
           style="fill:#231f20;fill-opacity:1;fill-rule:nonzero;stroke:none"
           id="path1663" />
        <g
           id="g1665"
           transform="translate(521.6248,182.1766)">
          <path
             d="m 0,0 c 0,-1.589 0.262,-3.067 0.786,-4.435 0.523,-1.369 1.3,-2.62 2.331,-3.752 1.132,-1.233 2.417,-2.183 3.853,-2.851 1.436,-0.667 2.923,-1.001 4.46,-1.001 3.228,0 5.935,1.149 8.123,3.447 2.189,2.298 3.283,5.162 3.283,8.592 0,3.143 -1.103,5.825 -3.308,8.047 -2.205,2.222 -4.853,3.333 -7.945,3.333 C 8.355,11.38 5.618,10.273 3.371,8.06 1.123,5.846 0,3.159 0,0 m -7.578,-0.253 c 0,2.027 0.27,3.941 0.811,5.74 0.54,1.8 1.343,3.485 2.408,5.056 1.824,2.653 4.114,4.702 6.868,6.146 2.754,1.445 5.762,2.167 9.023,2.167 2.45,0 4.811,-0.473 7.084,-1.419 2.272,-0.946 4.304,-2.306 6.095,-4.08 1.842,-1.842 3.244,-3.912 4.207,-6.21 0.964,-2.298 1.445,-4.714 1.445,-7.248 0,-2.636 -0.452,-5.112 -1.356,-7.426 -0.904,-2.316 -2.235,-4.368 -3.992,-6.159 -1.774,-1.876 -3.839,-3.316 -6.197,-4.321 -2.356,-1.006 -4.82,-1.509 -7.388,-1.509 -2.754,0 -5.288,0.491 -7.603,1.47 -2.315,0.98 -4.368,2.433 -6.159,4.36 -1.723,1.825 -3.029,3.873 -3.916,6.146 -0.887,2.272 -1.33,4.701 -1.33,7.287"
             style="fill:#231f20;fill-opacity:1;fill-rule:nonzero;stroke:none"
             id="path1667" />
        </g>
        <g
           id="g1669"
           transform="translate(406.362,190.4789)">
          <path
             d="m 0,0 h 2.281 c 4.176,0 7.344,0.754 9.504,2.263 2.16,1.508 3.241,3.711 3.241,6.608 0,2.8 -0.905,4.863 -2.716,6.191 -1.81,1.327 -4.634,1.991 -8.472,1.991 L 0,17.053 Z M 0,-27.083 H -10.319 V 25.634 H 2.209 c 3.982,0 6.945,-0.139 8.888,-0.416 1.943,-0.278 3.603,-0.73 4.979,-1.358 2.992,-1.4 5.273,-3.355 6.843,-5.865 1.569,-2.511 2.353,-5.455 2.353,-8.835 0,-4.079 -1.122,-7.537 -3.367,-10.373 -2.245,-2.836 -5.299,-4.641 -9.16,-5.413 L 25.924,-27.083 H 13.614 L 0,-2.607 Z"
             style="fill:#e51636;fill-opacity:1;fill-rule:nonzero;stroke:none"
             id="path1671" />
        </g>
        <g
           id="g1673"
           transform="translate(453.5608,177.9694)">
          <path
             d="M 0,0 -4.359,11.887 -8.82,0 Z m -11.304,-6.843 -2.864,-7.73 h -7.476 l 14.32,36.902 h 6.234 l 14.117,-36.902 h -7.73 l -2.915,7.73 z"
             style="fill:#e51636;fill-opacity:1;fill-rule:nonzero;stroke:none"
             id="path1675" />
        </g>
        <g
           id="g1677"
           transform="translate(480.2485,169.7323)">
          <path
             d="m 0,0 c 4.004,0 6.953,0.98 8.845,2.94 1.892,1.96 2.839,5.027 2.839,9.2 0,3.836 -1.035,6.818 -3.105,8.947 -2.07,2.129 -4.963,3.193 -8.68,3.193 H -4.815 V 0 Z M 0.456,-6.336 H -12.089 V 30.566 H 0.253 c 3.346,0 6.024,-0.338 8.035,-1.014 2.01,-0.676 3.835,-1.808 5.474,-3.396 1.74,-1.69 3.058,-3.735 3.954,-6.133 0.895,-2.4 1.343,-5.095 1.343,-8.086 0,-3.345 -0.625,-6.34 -1.876,-8.984 -1.25,-2.645 -3.066,-4.82 -5.448,-6.527 C 10.383,-4.571 8.871,-5.28 7.198,-5.703 5.525,-6.125 3.278,-6.336 0.456,-6.336"
             style="fill:#e51636;fill-opacity:1;fill-rule:nonzero;stroke:none"
             id="path1679" />
        </g>
        <path
           d="m 503.768,200.298 h 7.223 v -36.902 h -7.223 z"
           style="fill:#e51636;fill-opacity:1;fill-rule:nonzero;stroke:none"
           id="path1681" />
        <g
           id="g1683"
           transform="translate(523.1061,182.1766)">
          <path
             d="m 0,0 c 0,-1.589 0.262,-3.067 0.786,-4.435 0.523,-1.369 1.3,-2.62 2.331,-3.752 1.132,-1.233 2.416,-2.183 3.853,-2.851 1.435,-0.667 2.923,-1.001 4.46,-1.001 3.228,0 5.935,1.149 8.123,3.447 2.188,2.298 3.282,5.162 3.282,8.592 0,3.143 -1.102,5.825 -3.307,8.047 -2.205,2.222 -4.854,3.333 -7.946,3.333 C 8.355,11.38 5.618,10.273 3.371,8.06 1.124,5.846 0,3.159 0,0 m -7.578,-0.253 c 0,2.027 0.27,3.941 0.811,5.74 0.54,1.8 1.343,3.485 2.408,5.056 1.824,2.653 4.114,4.702 6.868,6.146 2.754,1.445 5.761,2.167 9.023,2.167 2.449,0 4.811,-0.473 7.083,-1.419 2.273,-0.946 4.305,-2.306 6.096,-4.08 1.841,-1.842 3.244,-3.912 4.207,-6.21 0.963,-2.298 1.445,-4.714 1.445,-7.248 0,-2.636 -0.453,-5.112 -1.356,-7.426 -0.904,-2.316 -2.235,-4.368 -3.992,-6.159 -1.774,-1.876 -3.84,-3.316 -6.197,-4.321 -2.357,-1.006 -4.82,-1.509 -7.388,-1.509 -2.754,0 -5.288,0.491 -7.603,1.47 -2.315,0.98 -4.368,2.433 -6.159,4.36 -1.723,1.825 -3.028,3.873 -3.915,6.146 -0.888,2.272 -1.331,4.701 -1.331,7.287"
             style="fill:#e51636;fill-opacity:1;fill-rule:nonzero;stroke:none"
             id="path1685" />
        </g>
      </g>
    </g>
  </g>
</svg>
