<svg xmlns="http://www.w3.org/2000/svg" height="74.216" preserveAspectRatio="xMinYMin meet" viewBox="0 0 55.187 19.636"><defs><clipPath clipPathUnits="userSpaceOnUse" id="a"><path d="M394.56 159.664h160.45v57.091H394.56z"/></clipPath></defs><g clip-path="url(#a)" transform="matrix(.34395 0 0 -.34395 -135.71 74.553)"><path d="M556.36 172.217c11.42 2.018 24.621-.75 32.544-12.553-8.17 9.045-19.023 13.51-32.545 12.553" fill="#231f20"/><path d="M558.489 169.673c9.427 1.44 20.535-1.332 26.752-9.274-6.517 6.176-15.435 9.308-26.752 9.274" fill="#231f20"/><path d="M559.654 167.873c7.856.756 16.995-1.52 21.943-7.41-5.245 4.628-12.559 7.1-21.943 7.41M609.325 173.65c-7.793 2.305-19.99.093-27.654-4.874.375-.297.743-.604 1.108-.925 7.662 5.31 17.989 7.345 26.546 5.8" fill="#231f20"/><path d="M605.255 171.13c-6.058 1.346-15.537-.535-21.506-4.174.254-.247.506-.5.755-.762 5.963 3.864 14.108 5.738 20.751 4.936" fill="#231f20"/><path d="M602.989 169.037c-4.94.966-12.676-.779-17.533-3.879.126-.144.25-.289.37-.437 4.856 3.28 11.753 4.825 17.163 4.316M566.572 213.901c-2.708-1.719-4.956-3.996-6.498-6.586-1.595-2.676-2.438-5.696-2.438-8.734 0-3.038.843-6.06 2.44-8.737 1.542-2.589 3.791-4.867 6.5-6.586.585-.373 1.404-.259 1.83.253.425.512.295 1.23-.292 1.601-2.38 1.513-4.358 3.516-5.714 5.791-1.423 2.386-2.144 4.97-2.144 7.678s.721 5.291 2.142 7.675c1.356 2.277 3.333 4.28 5.714 5.792.586.372.715 1.088.29 1.6-.425.513-1.244.626-1.83.253M575.056 203.495a6.486 6.486 0 01-2.042-2.123 5.552 5.552 0 01-.764-2.79c0-1.916.992-3.687 2.725-4.86.572-.388 1.395-.297 1.839.202.442.501.339 1.22-.233 1.608-1.088.736-1.71 1.85-1.71 3.05 0 1.22.64 2.345 1.76 3.081.579.381.696 1.1.26 1.605-.434.506-1.256.607-1.835.227" fill="#231f20"/><path d="M570.772 208.863c-1.793-1.167-3.28-2.702-4.298-4.438a11.553 11.553 0 01-1.61-5.844c0-2.044.564-4.078 1.632-5.882 1.032-1.745 2.537-3.284 4.352-4.449.583-.376 1.403-.265 1.832.244.428.51.302 1.227-.28 1.602-1.492.96-2.729 2.222-3.577 3.656-.888 1.502-1.339 3.126-1.339 4.83 0 1.69.445 3.305 1.321 4.797.837 1.426 2.058 2.687 3.533 3.646.58.38.7 1.096.27 1.603-.434.507-1.255.613-1.836.235M593.696 183.258c2.708 1.72 4.955 3.997 6.498 6.586 1.595 2.678 2.44 5.697 2.44 8.735 0 3.04-.845 6.06-2.44 8.737-1.543 2.589-3.792 4.867-6.5 6.586-.587.373-1.407.26-1.83-.253-.427-.513-.297-1.228.29-1.6 2.382-1.513 4.357-3.516 5.714-5.793 1.423-2.384 2.144-4.967 2.144-7.677 0-2.708-.72-5.29-2.142-7.675-1.357-2.275-3.332-4.278-5.713-5.791-.587-.372-.716-1.09-.29-1.601.424-.512 1.244-.627 1.83-.253M585.212 193.664a6.495 6.495 0 012.042 2.123c.5.86.765 1.823.765 2.791 0 1.915-.993 3.687-2.726 4.86-.572.39-1.395.297-1.838-.203-.443-.5-.338-1.22.232-1.608 1.088-.737 1.712-1.848 1.712-3.049 0-1.223-.643-2.346-1.763-3.08-.577-.382-.695-1.1-.259-1.607.434-.506 1.258-.608 1.835-.227" fill="#231f20"/><path d="M589.496 188.296c1.791 1.169 3.28 2.703 4.297 4.438a11.555 11.555 0 011.611 5.845c0 2.045-.564 4.079-1.63 5.882-1.033 1.745-2.54 3.284-4.353 4.45-.583.375-1.404.266-1.832-.245-.43-.51-.302-1.226.28-1.602 1.492-.958 2.728-2.222 3.577-3.656.888-1.501 1.339-3.125 1.339-4.83 0-1.69-.446-3.304-1.322-4.796-.837-1.426-2.06-2.688-3.532-3.647-.58-.378-.701-1.097-.268-1.604.432-.507 1.253-.612 1.834-.235M580.116 175.242l-8.297-1.979.348.931 7.949 2.07zM580.116 181.579l-5.67-1.335a8.556 8.556 0 00-.247-.957l5.917 1.372zM580.116 186.485l-3.935-.843c-.068-.329-.16-.647-.23-.959l4.165.983zM580.219 191.934l-2.107-.614a3.888 3.888 0 00-.15-.98l2.257.673zM580.812 175.242l8.298-1.979-.348.931-7.95 2.07zM580.812 181.579l5.67-1.335c.061-.327.15-.643.247-.957l-5.917 1.372zM580.812 186.485l3.936-.843c.07-.329.16-.647.23-.959l-4.166.983zM580.71 191.934l2.107-.614c.014-.335.053-.664.15-.98l-2.258.673zM580.293 195.427l-1.191-.347a2.209 2.209 0 00-.082-.554l1.273.383zM580.57 195.427l1.188-.347c.007-.188.03-.373.084-.554l-1.273.383zM581.017 198.781a.579.579 0 10-1.158-.002.579.579 0 001.158.002" fill="#231f20"/><path d="M580.116 170.745l-8.297 2.518.348.931 7.949-2.428zM580.116 178.512l-5.67 1.732a8.556 8.556 0 00-.247-.957l5.917-1.797zM580.116 184.44l-3.935 1.203c-.068-.33-.16-.647-.23-.96l4.165-1.265zM580.116 190.265l-2.004.613a3.987 3.987 0 00-.15-.98l2.154-.655zM580.812 170.745l8.298 2.518-.348.931-7.95-2.428zM580.812 178.512l5.67 1.732c.061-.327.15-.643.247-.957l-5.917-1.797zM580.812 184.44l3.936 1.203c.07-.33.16-.647.23-.96l-4.166-1.265zM580.812 190.265l2.004.613c.015-.334.054-.664.15-.98l-2.154-.655zM580.235 194.293l-1.133.345a2.195 2.195 0 00-.082-.553l1.215-.369zM580.626 194.293l1.133.345c.007-.188.028-.373.083-.553l-1.216-.369zM582.124 198.778a1.681 1.681 0 10-3.362 0 1.681 1.681 0 003.362 0" fill="#231f20"/><path d="M571.588 168.417l8.465 28.382-1.495-30.706 2.19-.73 2.042.72-1.976 30.56 8.228-28.338c.769.272 1.49.532 2.138.76l-10.143 28.603-.685-.228.045-.147-.212-.053.06.2-.684.228-10.118-28.536z" fill="#231f20"/><path d="M432.734 216.754h2.799l2.308-9.08 2.54 9.08h1.894l2.54-9.08 2.299 9.08h2.799l-4.06-14.004h-2.183l-2.347 8.743-2.366-8.743h-2.164zM455.74 202.75h-5.292v9.802h5.292v-1.724h-3.393v-2.235h3.393v-1.697h-3.393v-2.423h3.393zM456.75 205.793l1.75.007v-.142c0-.413.108-.744.324-.993.215-.25.502-.373.86-.373.387 0 .693.115.917.346.225.23.337.544.337.939 0 .634-.454 1.087-1.36 1.36-.117.036-.21.066-.276.088-.763.238-1.33.576-1.697 1.013-.368.438-.552.99-.552 1.66 0 .92.255 1.659.764 2.215.51.557 1.188.835 2.037.835.794 0 1.427-.248 1.898-.744.472-.496.734-1.19.788-2.084h-1.737v.08c0 .315-.094.569-.283.762-.188.193-.435.289-.74.289-.314 0-.562-.098-.744-.296-.182-.197-.273-.467-.273-.808 0-.143.019-.27.057-.38a.871.871 0 01.179-.3c.184-.202.579-.388 1.185-.56.269-.07.475-.131.619-.18.673-.23 1.17-.557 1.492-.983.32-.427.48-.972.48-1.636 0-1.01-.28-1.822-.841-2.434-.561-.613-1.306-.92-2.235-.92-.875 0-1.582.297-2.121.889-.54.593-.815 1.376-.828 2.35M468.822 212.553v-1.724h-1.845v-8.08h-1.912v8.08h-1.845v1.724zM478.518 202.75h-2.712v14.003h3.626l3.56-10.186 3.548 10.186h3.626V202.75h-2.703l.096 10.167-3.539-10.167h-2.068l-3.549 10.167zM493.727 207.738a3.13 3.13 0 01.828-2.175c.3-.327.642-.58 1.023-.757a2.776 2.776 0 011.186-.266c.857 0 1.576.305 2.157.915.58.611.872 1.372.872 2.283 0 .835-.293 1.547-.88 2.138a2.866 2.866 0 01-2.11.885c-.857 0-1.584-.294-2.181-.882a2.897 2.897 0 01-.895-2.14m-2.013-.068c0 .538.07 1.047.215 1.525a5.03 5.03 0 002.464 2.976 5.092 5.092 0 002.397.575c.65 0 1.278-.125 1.882-.377a5.002 5.002 0 001.619-1.084 5.122 5.122 0 001.118-1.649 4.934 4.934 0 00.384-1.926c0-.7-.12-1.358-.361-1.973a4.81 4.81 0 00-1.06-1.636 4.954 4.954 0 00-3.608-1.548c-.732 0-1.405.13-2.02.39a4.743 4.743 0 00-1.637 1.158 5.038 5.038 0 00-1.04 1.633 5.29 5.29 0 00-.353 1.936M502.998 212.553h1.919v-5.656c0-.884.093-1.498.279-1.841.187-.344.506-.516.96-.516.453 0 .773.173.959.516.186.342.279.956.279 1.84v5.657h1.92v-6.221c0-.691-.04-1.21-.115-1.555a2.564 2.564 0 00-.384-.91c-.305-.448-.673-.78-1.104-.993-.431-.213-.95-.32-1.555-.32-.606 0-1.125.107-1.556.32-.431.214-.798.545-1.104.993a2.6 2.6 0 00-.384.876c-.076.323-.114.853-.114 1.589zM512.828 202.75h-1.885v9.802h1.818l4.053-6.26v6.26h1.879v-9.803h-1.778l-4.087 6.45zM525.21 212.553v-1.724h-1.846v-8.08h-1.912v8.08h-1.845v1.724zM529.976 206.62l-1.158 3.159-1.185-3.158zm-3.003-1.817l-.76-2.053h-1.987l3.804 9.803h1.656l3.751-9.803h-2.054l-.774 2.053zM533.868 212.553h1.919v-9.803h-1.919zM539.308 202.75h-1.885v9.802h1.818l4.053-6.26v6.26h1.878v-9.803h-1.777l-4.087 6.45z" fill="#e51636"/><path d="M433.232 216.754h2.799l2.308-9.08 2.54 9.08h1.894l2.54-9.08 2.299 9.08h2.799l-4.059-14.004h-2.184l-2.347 8.743-2.366-8.743h-2.164zM456.238 202.75h-5.292v9.802h5.292v-1.724h-3.393v-2.235h3.393v-1.697h-3.393v-2.423h3.393zM457.248 205.793l1.751.007v-.142c0-.413.107-.744.323-.993.215-.25.502-.373.861-.373.386 0 .692.115.916.346.225.23.337.544.337.939 0 .634-.454 1.087-1.36 1.36-.117.036-.209.066-.276.088-.763.238-1.329.576-1.697 1.013-.368.438-.552.99-.552 1.66 0 .92.255 1.659.764 2.215.51.557 1.188.835 2.037.835.794 0 1.427-.248 1.898-.744.472-.496.734-1.19.788-2.084h-1.737v.08c0 .315-.094.569-.283.762-.188.193-.435.289-.74.289-.314 0-.562-.098-.744-.296-.182-.197-.273-.467-.273-.808 0-.143.019-.27.057-.38a.871.871 0 01.179-.3c.184-.202.579-.388 1.185-.56.269-.07.475-.131.619-.18.673-.23 1.17-.557 1.492-.983.32-.427.481-.972.481-1.636 0-1.01-.281-1.822-.842-2.434-.561-.613-1.306-.92-2.235-.92-.875 0-1.582.297-2.121.889-.539.593-.815 1.376-.828 2.35M469.32 212.553v-1.724h-1.845v-8.08h-1.912v8.08h-1.845v1.724zM479.016 202.75h-2.712v14.003h3.626l3.558-10.186 3.55 10.186h3.626V202.75h-2.703l.096 10.167-3.539-10.167h-2.068l-3.55 10.167zM494.225 207.738a3.13 3.13 0 01.828-2.175c.301-.327.642-.58 1.023-.757a2.776 2.776 0 011.186-.266c.857 0 1.576.305 2.157.915.581.611.872 1.372.872 2.283 0 .835-.293 1.547-.879 2.138a2.866 2.866 0 01-2.11.885c-.858 0-1.585-.294-2.182-.882a2.897 2.897 0 01-.895-2.14m-2.013-.068c0 .538.071 1.047.215 1.525a5.03 5.03 0 002.464 2.976 5.092 5.092 0 002.397.575c.651 0 1.278-.125 1.882-.377a5.002 5.002 0 001.619-1.084 5.122 5.122 0 001.118-1.649 4.933 4.933 0 00.383-1.926c0-.7-.119-1.358-.36-1.973a4.81 4.81 0 00-1.06-1.636 4.954 4.954 0 00-3.608-1.548c-.732 0-1.405.13-2.02.39a4.743 4.743 0 00-1.637 1.158 5.038 5.038 0 00-1.04 1.633 5.29 5.29 0 00-.353 1.936M503.496 212.553h1.919v-5.656c0-.884.093-1.498.279-1.841.187-.344.506-.516.96-.516.453 0 .773.173.959.516.186.342.279.956.279 1.84v5.657h1.92v-6.221c0-.691-.04-1.21-.115-1.555a2.564 2.564 0 00-.384-.91c-.305-.448-.673-.78-1.104-.993-.431-.213-.95-.32-1.555-.32-.606 0-1.125.107-1.556.32-.431.214-.798.545-1.104.993a2.6 2.6 0 00-.384.876c-.076.323-.114.853-.114 1.589zM513.326 202.75h-1.885v9.802h1.818l4.053-6.26v6.26h1.879v-9.803h-1.778l-4.087 6.45zM525.707 212.553v-1.724h-1.845v-8.08h-1.912v8.08h-1.845v1.724zM530.474 206.62l-1.158 3.159-1.185-3.158zm-3.003-1.817l-.76-2.053h-1.987l3.804 9.803h1.656l3.751-9.803h-2.054l-.774 2.053zM534.366 212.553h1.919v-9.803h-1.919zM539.806 202.75h-1.885v9.802h1.818l4.053-6.26v6.26h1.878v-9.803h-1.777l-4.087 6.45zM404.879 190.479h2.28c4.177 0 7.345.754 9.505 2.263 2.16 1.508 3.24 3.71 3.24 6.608 0 2.8-.904 4.863-2.715 6.19-1.81 1.328-4.634 1.992-8.472 1.992h-3.838zm0-27.083h-10.32v52.717h12.529c3.982 0 6.945-.14 8.888-.416 1.943-.278 3.603-.73 4.979-1.358 2.992-1.4 5.273-3.355 6.843-5.865 1.569-2.511 2.353-5.455 2.353-8.835 0-4.08-1.122-7.537-3.367-10.373-2.245-2.836-5.3-4.641-9.16-5.413l13.179-20.457h-12.31l-13.614 24.476z" fill="#231f20"/><path d="M452.078 177.97l-4.359 11.886-4.46-11.887zm-11.304-6.844l-2.864-7.73h-7.477l14.32 36.902h6.235l14.117-36.902h-7.73l-2.915 7.73zM478.767 169.732c4.005 0 6.953.98 8.845 2.94 1.892 1.96 2.839 5.027 2.839 9.2 0 3.836-1.035 6.818-3.105 8.947-2.07 2.13-4.963 3.193-8.68 3.193h-4.714v-24.28zm.456-6.336h-12.545v36.902h12.342c3.346 0 6.024-.338 8.035-1.014 2.01-.676 3.835-1.808 5.474-3.396 1.74-1.69 3.058-3.735 3.954-6.133.896-2.4 1.343-5.095 1.343-8.086 0-3.345-.625-6.34-1.875-8.984a16.676 16.676 0 00-5.45-6.527 12.885 12.885 0 00-4.536-2.129c-1.673-.422-3.92-.633-6.742-.633M502.287 200.298h7.223v-36.902h-7.223zM521.625 182.177c0-1.59.262-3.067.786-4.435.523-1.37 1.3-2.62 2.33-3.752 1.133-1.233 2.418-2.183 3.854-2.851a10.475 10.475 0 014.46-1.001c3.228 0 5.935 1.149 8.123 3.447 2.189 2.298 3.283 5.162 3.283 8.592 0 3.143-1.103 5.825-3.308 8.047-2.205 2.222-4.853 3.333-7.945 3.333-3.228 0-5.965-1.107-8.212-3.32-2.248-2.214-3.371-4.901-3.371-8.06m-7.578-.253c0 2.027.27 3.94.81 5.74.54 1.8 1.344 3.485 2.409 5.056 1.824 2.653 4.114 4.702 6.868 6.146 2.754 1.445 5.762 2.167 9.023 2.167 2.45 0 4.81-.473 7.084-1.42a18.943 18.943 0 006.095-4.08c1.842-1.841 3.244-3.911 4.207-6.21a18.548 18.548 0 001.445-7.247c0-2.636-.452-5.112-1.356-7.426a18.12 18.12 0 00-3.992-6.16 18.341 18.341 0 00-6.197-4.32 18.628 18.628 0 00-7.388-1.51c-2.754 0-5.288.492-7.603 1.47-2.315.98-4.368 2.434-6.16 4.36-1.722 1.826-3.028 3.874-3.915 6.147-.887 2.272-1.33 4.7-1.33 7.287" fill="#231f20"/><path d="M406.362 190.479h2.281c4.176 0 7.344.754 9.504 2.263 2.16 1.508 3.241 3.71 3.241 6.608 0 2.8-.905 4.863-2.716 6.19-1.81 1.328-4.634 1.992-8.472 1.992h-3.838zm0-27.083h-10.319v52.717h12.528c3.982 0 6.945-.14 8.888-.416 1.943-.278 3.603-.73 4.979-1.358 2.992-1.4 5.273-3.355 6.843-5.865 1.569-2.511 2.353-5.455 2.353-8.835 0-4.08-1.122-7.537-3.367-10.373-2.245-2.836-5.299-4.641-9.16-5.413l13.179-20.457h-12.31l-13.614 24.476z" fill="#e51636"/><path d="M453.56 177.97l-4.358 11.886-4.461-11.887zm-11.303-6.844l-2.864-7.73h-7.476l14.32 36.902h6.234l14.117-36.902h-7.73l-2.915 7.73zM480.248 169.732c4.004 0 6.953.98 8.845 2.94 1.892 1.96 2.84 5.027 2.84 9.2 0 3.836-1.035 6.818-3.105 8.947-2.07 2.13-4.963 3.193-8.68 3.193h-4.715v-24.28zm.456-6.336H468.16v36.902h12.342c3.346 0 6.024-.338 8.035-1.014 2.01-.676 3.835-1.808 5.474-3.396 1.74-1.69 3.058-3.735 3.954-6.133.895-2.4 1.343-5.095 1.343-8.086 0-3.345-.625-6.34-1.876-8.984a16.665 16.665 0 00-5.447-6.527 12.885 12.885 0 00-4.537-2.129c-1.673-.422-3.92-.633-6.742-.633M503.768 200.298h7.223v-36.902h-7.223zM523.106 182.177c0-1.59.262-3.067.786-4.435.523-1.37 1.3-2.62 2.331-3.752 1.132-1.233 2.416-2.183 3.853-2.851a10.472 10.472 0 014.46-1.001c3.228 0 5.935 1.149 8.123 3.447 2.188 2.298 3.282 5.162 3.282 8.592 0 3.143-1.102 5.825-3.307 8.047-2.205 2.222-4.854 3.333-7.946 3.333-3.227 0-5.964-1.107-8.21-3.32-2.248-2.214-3.372-4.901-3.372-8.06m-7.578-.253c0 2.027.27 3.94.811 5.74.54 1.8 1.343 3.485 2.408 5.056 1.824 2.653 4.114 4.702 6.868 6.146 2.754 1.445 5.761 2.167 9.023 2.167 2.45 0 4.811-.473 7.083-1.42a18.936 18.936 0 006.096-4.08c1.841-1.841 3.244-3.911 4.207-6.21a18.566 18.566 0 001.445-7.247c0-2.636-.453-5.112-1.356-7.426a18.12 18.12 0 00-3.992-6.16 18.351 18.351 0 00-6.197-4.32 18.632 18.632 0 00-7.388-1.51c-2.754 0-5.288.492-7.603 1.47-2.315.98-4.368 2.434-6.159 4.36-1.723 1.826-3.028 3.874-3.915 6.147-.888 2.272-1.33 4.7-1.33 7.287" fill="#e51636"/></g></svg>
