<?xml version="1.0" encoding="UTF-8"?>
<svg version="1.1" xmlns="http://www.w3.org/2000/svg" width="500" height="500">
<path d="M0 0 C165 0 330 0 500 0 C500 165 500 330 500 500 C335 500 170 500 0 500 C0 335 0 170 0 0 Z " fill="#FEFEFE" transform="translate(0,0)"/>
<path d="M0 0 C16.44639079 0.70345919 32.20023947 3.3163219 48 8 C48.7439502 8.21527344 49.48790039 8.43054687 50.25439453 8.65234375 C61.34319802 11.88116253 71.70152058 15.75878708 82 21 C82.73718262 21.36609375 83.47436523 21.7321875 84.23388672 22.109375 C102.86944162 31.37887381 119.25031737 42.79596689 134.62109375 56.84375 C136.77510509 58.79615436 138.97027726 60.68277359 141.1875 62.5625 C145.19617841 66.06809726 148.57676421 69.93151144 152 74 C152.8353125 74.94746094 153.670625 75.89492187 154.53125 76.87109375 C161.46570315 84.78170834 167.43683646 93.07707915 173 102 C173.63252686 103.01368652 173.63252686 103.01368652 174.27783203 104.04785156 C189.55744023 128.77082504 199.84716684 155.68912526 204.75 184.375 C204.86569336 185.05127441 204.98138672 185.72754883 205.10058594 186.42431641 C214.2255814 244.26680284 199.73963574 304.25846523 165.44140625 351.57421875 C163.04978766 354.78840198 160.55037557 357.91079928 158 361 C157.53094238 361.57057129 157.06188477 362.14114258 156.57861328 362.72900391 C146.71837961 374.65036127 136.25003189 385.47978023 124 395 C123.05382812 395.73992187 122.10765625 396.47984375 121.1328125 397.2421875 C87.08083282 423.34569447 42.54687461 443.1470884 -1 442 C-0.67 441.01 -0.34 440.02 0 439 C2.24633789 438.11206055 2.24633789 438.11206055 5.22265625 437.38671875 C6.31022217 437.11190674 7.39778809 436.83709473 8.51831055 436.55395508 C9.68789307 436.2680249 10.85747559 435.98209473 12.0625 435.6875 C37.78099314 429.03235975 60.94725384 418.37932721 82 402 C82.84449707 401.34596191 82.84449707 401.34596191 83.70605469 400.67871094 C104.06365526 384.68780959 120.71013914 365.14367463 134 343 C134.3707666 342.38866211 134.7415332 341.77732422 135.12353516 341.14746094 C149.52425579 317.20557261 159.48737623 289.54510074 164 262 C164.14663086 261.16742676 164.29326172 260.33485352 164.44433594 259.47705078 C170.02211807 227.17989293 167.33892313 194.74371143 160 163 C159.81066895 162.15550293 159.62133789 161.31100586 159.42626953 160.44091797 C147.61132971 108.34346256 113.61737596 60.16663016 69 31 C47.19151039 17.39236394 24.06184843 8.39305599 -1 3 C-0.67 2.01 -0.34 1.02 0 0 Z " fill="#F29326" transform="translate(214,30)"/>
<path d="M0 0 C26.85659782 1.14873353 52.44474322 7.75188592 76 21 C77.51787109 21.80824219 77.51787109 21.80824219 79.06640625 22.6328125 C118.41466726 44.32413082 145.93757017 82.17063401 158.8125 124.6875 C168.16567821 157.13348434 167.92270957 192.99569713 157 225 C156.79149414 225.61713867 156.58298828 226.23427734 156.36816406 226.87011719 C147.64469026 252.3568411 133.55099084 274.52417971 115 294 C114.30648437 294.75796875 113.61296875 295.5159375 112.8984375 296.296875 C96.56991951 313.57106006 75.14725452 325.87576499 53 334 C51.33710938 334.73863281 51.33710938 334.73863281 49.640625 335.4921875 C34.1308741 341.91575386 16.71591792 344.53066406 0 344 C0 343.01 0 342.02 0 341 C0.54188965 340.86013672 1.0837793 340.72027344 1.64208984 340.57617188 C25.87356683 334.22873928 47.0880148 324.70837631 66 308 C66.48952148 307.57605957 66.97904297 307.15211914 67.48339844 306.71533203 C74.76757745 300.39421663 81.15876192 293.70170359 87 286 C88.14855469 284.55173828 88.14855469 284.55173828 89.3203125 283.07421875 C103.05502916 265.27873054 111.83014994 244.46244313 118 223 C118.2688501 222.0726001 118.5377002 221.1452002 118.81469727 220.18969727 C123.43550221 203.81073413 124.28888681 187.49438723 124.3125 170.5625 C124.31599457 169.75565765 124.31948914 168.94881531 124.3230896 168.11752319 C124.3556293 154.56671709 123.38220621 141.38567752 120.0625 128.1875 C119.88775146 127.47376221 119.71300293 126.76002441 119.53295898 126.0246582 C117.11953464 116.29025537 114.07385152 107.17892861 110 98 C109.69852051 97.30729004 109.39704102 96.61458008 109.08642578 95.90087891 C101.30022143 78.13295283 91.18080464 62.25642284 78 48 C77.50419434 47.46036621 77.00838867 46.92073242 76.49755859 46.36474609 C56.10361967 24.42727348 29.13274766 9.72294177 0 3 C0 2.01 0 1.02 0 0 Z " fill="#F29326" transform="translate(165,79)"/>
<path d="M0 0 C22.22957334 -1.46033693 45.32784979 6.16593171 64 18 C65.05832031 18.6703125 66.11664063 19.340625 67.20703125 20.03125 C94.22954007 37.9003543 113.03117433 65.91399474 119.75390625 97.49194336 C120.93212405 103.33414624 121.80950163 109.03359094 122 115 C122.04664795 116.01489502 122.04664795 116.01489502 122.09423828 117.05029297 C123.55714959 151.52060018 111.69379685 182.33093403 88.875 208 C69.29011477 229.20773173 40.77971477 244.2042588 11.74267578 246.15136719 C9.91221489 246.19205414 8.08054695 246.16161094 6.25 246.125 C5.05890625 246.10695313 3.8678125 246.08890625 2.640625 246.0703125 C1.76921875 246.04710937 0.8978125 246.02390625 0 246 C0 245.01 0 244.02 0 243 C1.36318359 242.5978125 1.36318359 242.5978125 2.75390625 242.1875 C16.83860615 237.7959628 28.81866209 231.74520277 40 222 C40.60972656 221.52175781 41.21945313 221.04351562 41.84765625 220.55078125 C60.71058622 205.55496676 72.58654978 179.98405311 78 157 C78.26111572 155.92991699 78.52223145 154.85983398 78.79125977 153.75732422 C80.83836337 144.63824313 81.44067373 135.96218059 81.33618164 126.62890625 C81.31244148 124.36943043 81.31567155 122.11113314 81.32226562 119.8515625 C81.26175715 87.20701848 70.06796219 54.41348832 46.92578125 30.89453125 C45.9519222 29.92827305 44.97673983 28.96334607 44 28 C42.78376953 26.76830078 42.78376953 26.76830078 41.54296875 25.51171875 C29.66696235 14.10838922 15.43030809 8.11286583 0 3 C0 2.01 0 1.02 0 0 Z " fill="#F29326" transform="translate(116,128)"/>
<path d="M0 0 C19.57109351 0 35.77399633 5.09535526 50.02441406 18.84838867 C66.17775662 35.14001106 73.29337869 53.62893454 73.38500977 76.35791016 C73.03285942 96.22680344 63.96747235 114.14327074 50 128 C35.80894735 140.6712612 18.86067191 147 0 147 C0 98.49 0 49.98 0 0 Z " fill="#F29224" transform="translate(73,178)"/>
</svg>
