<svg viewBox="0 0 128 128" xmlns="http://www.w3.org/2000/svg" xmlns:xlink="http://www.w3.org/1999/xlink"><radialGradient id="a" cx="218.627" cy="147.049" gradientTransform="matrix(1 0 0 -1 0 292)" gradientUnits="userSpaceOnUse" r="28.768"><stop offset=".841" stop-color="#fff"/><stop offset="1" stop-color="#b3b3b3"/></radialGradient><linearGradient id="b" gradientTransform="matrix(1 .0004 .0004 -1 232.435 13.114)" gradientUnits="userSpaceOnUse" x1="-29.507" x2="1.838" y1="-154.313" y2="-109.513"><stop offset="0" stop-color="#de4551"/><stop offset=".036" stop-color="#dc3d4a"/><stop offset=".173" stop-color="#d72130"/><stop offset=".253" stop-color="#d61726"/><stop offset=".423" stop-color="#d61a29"/><stop offset=".538" stop-color="#d82231"/><stop offset=".637" stop-color="#da323f"/><stop offset=".726" stop-color="#de4753"/><stop offset=".809" stop-color="#e3636d"/><stop offset=".888" stop-color="#e9858d"/><stop offset=".961" stop-color="#f0adb2"/><stop offset="1" stop-color="#f5c5c9"/></linearGradient><radialGradient id="c" cx="231.53" cy="149.142" gradientTransform="matrix(1 0 0 -1 0 292)" gradientUnits="userSpaceOnUse" r="41.124"><stop offset="0" stop-color="#fff"/><stop offset=".178" stop-color="#fcfcfc"/><stop offset=".319" stop-color="#f2f2f2"/><stop offset=".565" stop-color="#e3e3e3"/><stop offset=".797" stop-color="#d1d1d1"/><stop offset="1" stop-color="#bfbfbf"/></radialGradient><linearGradient id="d" gradientTransform="matrix(1 0 0 -1 0 292)" gradientUnits="userSpaceOnUse" x1="193.66" x2="245.721" y1="161.736" y2="137.459"><stop offset="0" stop-color="#595959"/><stop offset=".051" stop-color="#727272"/><stop offset=".14" stop-color="#989898"/><stop offset=".234" stop-color="#b7b7b7"/><stop offset=".331" stop-color="#cfcfcf"/><stop offset=".433" stop-color="#e0e0e0"/><stop offset=".544" stop-color="#eaeaea"/><stop offset=".681" stop-color="#ededed"/><stop offset=".762" stop-color="#eaeaea"/><stop offset=".821" stop-color="#e1e1e1"/><stop offset=".872" stop-color="#d1d1d1"/><stop offset=".919" stop-color="#bbb"/><stop offset=".962" stop-color="#9f9f9f"/><stop offset="1" stop-color="#808080"/></linearGradient><linearGradient id="e" gradientTransform="matrix(1 0 0 -1 0 292)" gradientUnits="userSpaceOnUse" x1="212.337" x2="236.671" y1="118.224" y2="170.41"><stop offset="0" stop-color="#595959"/><stop offset=".045" stop-color="#6c6c6c"/><stop offset=".157" stop-color="#939393"/><stop offset=".273" stop-color="#b4b4b4"/><stop offset=".391" stop-color="#cdcdcd"/><stop offset=".514" stop-color="#dfdfdf"/><stop offset=".644" stop-color="#eaeaea"/><stop offset=".791" stop-color="#ededed"/><stop offset=".828" stop-color="#e9e9e9"/><stop offset=".869" stop-color="#dbdbdb"/><stop offset=".912" stop-color="#c5c5c5"/><stop offset=".956" stop-color="#a6a6a6"/><stop offset="1" stop-color="#808080"/></linearGradient><g transform="matrix(2.22222 0 0 2.22222 -421.778 -258.222)"><circle cx="218.6" cy="145" fill="url(#a)" r="28.8"/><ellipse cx="218.6" cy="144.9" fill="#fff" rx="23.5" ry="23.7" transform="matrix(.53388018 -.84556014 .84556014 .53388018 -20.643114 252.36656)"/><path d="m198.8 132.4c6.8-10.8 21.2-13.9 32.2-7s14.3 21.3 7.5 32.1-21.2 13.9-32.2 7c-10.9-7-14.3-21.4-7.5-32.1z" fill="#fefefe"/><path d="m199.1 132.4c6.7-10.6 20.9-13.7 31.8-6.8 10.8 6.8 14.2 21.1 7.5 31.6-6.7 10.6-20.9 13.6-31.7 6.7-10.9-6.8-14.3-21-7.6-31.5z" fill="#fdfdfd"/><path d="m199.4 132.4c6.5-10.4 20.6-13.4 31.4-6.6 10.7 6.8 14 20.8 7.5 31.1-6.5 10.4-20.5 13.3-31.3 6.5s-14.2-20.7-7.6-31z" fill="#fcfcfc"/><path d="m199.7 132.4c6.4-10.1 20.3-13.1 30.9-6.4s13.9 20.5 7.5 30.7c-6.4 10.1-20.2 12.9-30.8 6.2s-14-20.4-7.6-30.5z" fill="#fbfbfb"/><path d="m200 132.4c6.3-9.9 20-12.8 30.5-6.2s13.7 20.3 7.5 30.2c-6.3 9.9-19.9 12.6-30.4 6-10.5-6.7-13.9-20.1-7.6-30z" fill="#fafafa"/><path d="m200.3 132.4c6.1-9.7 19.7-12.6 30.1-6 10.4 6.5 13.6 20 7.5 29.7s-19.5 12.3-29.9 5.7c-10.4-6.5-13.8-19.7-7.7-29.4z" fill="#f9f9f9"/><path d="m200.6 132.4c6-9.5 19.4-12.3 29.7-5.8s13.5 19.7 7.5 29.2-19.2 12-29.4 5.5c-10.4-6.4-13.8-19.4-7.8-28.9z" fill="#f8f8f8"/><path d="m200.9 132.4c5.9-9.3 19.1-12 29.2-5.6s13.3 19.5 7.5 28.8c-5.9 9.3-18.8 11.6-29 5.3-10.1-6.5-13.6-19.2-7.7-28.5z" fill="#f7f7f7"/><path d="m201.2 132.4c5.7-9.1 18.8-11.7 28.8-5.4s13.2 19.2 7.4 28.3c-5.7 9.1-18.5 11.3-28.5 5s-13.4-18.8-7.7-27.9z" fill="#f6f6f6"/><path d="m201.5 132.4c5.6-8.9 18.5-11.4 28.4-5.2s13 18.9 7.4 27.8-18.2 11-28.1 4.8c-9.8-6.2-13.3-18.5-7.7-27.4z" fill="#f5f5f5"/><path d="m201.8 132.4c5.5-8.7 18.2-11.2 28-5s12.9 18.7 7.4 27.3c-5.5 8.7-17.8 10.7-27.6 4.5-9.8-6.1-13.3-18.1-7.8-26.8z" fill="#f4f4f4"/><path d="m202.1 132.4c5.3-8.5 17.9-10.9 27.6-4.8s12.8 18.4 7.4 26.9c-5.3 8.5-17.5 10.4-27.2 4.3-9.6-6.1-13.1-17.9-7.8-26.4z" fill="#f3f3f3"/><path d="m202.4 132.5c5.2-8.2 17.6-10.6 27.1-4.6s12.6 18.1 7.4 26.4c-5.2 8.2-17.2 10-26.7 4s-13-17.6-7.8-25.8z" fill="#f2f2f2"/><path d="m202.7 132.5c5.1-8 17.3-10.3 26.7-4.4s12.5 17.9 7.4 25.9-16.8 9.7-26.2 3.8c-9.4-6-13-17.3-7.9-25.3z" fill="#f1f1f1"/><path d="m203 132.5c4.9-7.8 17-10 26.3-4.2 9.3 5.9 12.3 17.6 7.4 25.4s-16.5 9.4-25.8 3.5c-9.3-5.8-12.8-16.9-7.9-24.7z" fill="#f0f0f0"/><path d="m203.3 132.5c4.8-7.6 16.7-9.8 25.9-4s12.2 17.4 7.4 25-16.1 9.1-25.3 3.3-12.8-16.7-8-24.3z" fill="#efefef"/><path d="m203.6 132.5c4.7-7.4 16.4-9.5 25.4-3.8 9.1 5.7 12.1 17.1 7.4 24.5s-15.8 8.8-24.9 3c-9-5.7-12.6-16.3-7.9-23.7z" fill="#eee"/><path d="m203.9 132.5c4.5-7.2 16.1-9.2 25-3.6s11.9 16.8 7.4 24-15.5 8.4-24.4 2.8-12.5-16-8-23.2z" fill="#ededed"/><path d="m204.2 132.5c4.4-7 15.8-8.9 24.6-3.4 8.8 5.6 11.8 16.6 7.4 23.5-4.4 7-15.1 8.1-24 2.5-8.8-5.5-12.4-15.6-8-22.6z" fill="#ececec"/><path d="m204.5 132.5c4.3-6.8 15.5-8.6 24.2-3.1s11.6 16.3 7.4 23.1c-4.3 6.8-14.8 7.8-23.5 2.3-8.8-5.6-12.4-15.5-8.1-22.3z" fill="#ebebeb"/><path d="m204.8 132.5c4.1-6.5 15.2-8.4 23.7-2.9 8.6 5.4 11.5 16 7.4 22.6s-14.5 7.5-23 2c-8.6-5.4-12.2-15.1-8.1-21.7z" fill="#eaeaea"/><path d="m205.1 132.5c4-6.3 14.9-8.1 23.3-2.7 8.5 5.3 11.4 15.8 7.4 22.1s-14.1 7.1-22.6 1.8c-8.5-5.4-12.1-14.8-8.1-21.2z" fill="#e9e9e9"/><path d="m205.4 132.5c3.9-6.1 14.5-7.8 22.9-2.5s11.2 15.5 7.3 21.6-13.8 6.8-22.1 1.5c-8.3-5.2-11.9-14.4-8.1-20.6z" fill="#e8e8e8"/><path d="m205.7 132.5c3.7-5.9 14.2-7.5 22.5-2.3 8.2 5.2 11.1 15.2 7.3 21.2-3.7 5.9-13.4 6.5-21.7 1.3-8.2-5.2-11.8-14.2-8.1-20.2z" fill="#e7e7e7"/><path d="m206 132.5c3.6-5.7 13.9-7.3 22-2.1 8.1 5.1 10.9 15 7.3 20.7s-13.1 6.2-21.2 1.1c-8-5.2-11.7-13.9-8.1-19.7z" fill="#e6e6e6"/><path d="m206.3 132.6c3.5-5.5 13.6-7 21.6-1.9 8 5 10.8 14.7 7.3 20.2s-12.8 5.9-20.8.8c-7.9-5.1-11.5-13.7-8.1-19.1z" fill="#e6e6e6"/><path d="m206.6 132.6c3.3-5.3 13.3-6.7 21.2-1.7s10.7 14.4 7.3 19.7c-3.3 5.3-12.4 5.5-20.3.6-7.8-5-11.5-13.4-8.2-18.6z" fill="#e5e5e5"/><path d="m206.9 132.6c3.2-5.1 13-6.4 20.8-1.5s10.5 14.2 7.3 19.3-12.1 5.2-19.8.3c-7.8-5-11.5-13.1-8.3-18.1z" fill="#e4e4e4"/><path d="m207.2 132.6c3.1-4.9 12.7-6.1 20.4-1.3 7.6 4.8 10.4 13.9 7.3 18.8s-11.7 4.9-19.4.1c-7.6-4.9-11.3-12.8-8.3-17.6z" fill="#e3e3e3"/><path d="m207.5 132.6c2.9-4.6 12.4-5.9 19.9-1.1 7.5 4.7 10.2 13.7 7.3 18.3-2.9 4.7-11.4 4.6-18.9-.2-7.5-4.7-11.2-12.4-8.3-17z" fill="#e2e2e2"/><path d="m207.8 132.6c2.8-4.4 12.1-5.6 19.5-.9s10.1 13.4 7.3 17.8-11.1 4.2-18.5-.4c-7.3-4.7-11.1-12.1-8.3-16.5z" fill="#e1e1e1"/><path d="m208.1 132.6c2.7-4.2 11.8-5.3 19.1-.7s10 13.1 7.3 17.4c-2.7 4.2-10.7 3.9-18-.7s-11-11.8-8.4-16z" fill="#e0e0e0"/><path d="m208.4 132.6c2.5-4 11.5-5 18.7-.5s9.8 12.9 7.3 16.9-10.4 3.6-17.6-.9c-7.1-4.6-10.9-11.5-8.4-15.5z" fill="#dfdfdf"/><path d="m208.7 132.6c2.4-3.8 11.2-4.7 18.2-.3s9.7 12.6 7.3 16.4-10.1 3.3-17.1-1.2c-7-4.4-10.8-11.1-8.4-14.9z" fill="#dedede"/><path d="m209 132.6c2.3-3.6 10.9-4.5 17.8-.1s9.5 12.3 7.3 15.9c-2.3 3.6-9.7 3-16.6-1.4-7-4.3-10.7-10.8-8.5-14.4z" fill="#ddd"/><path d="m209.3 132.6c2.1-3.4 10.6-4.2 17.4.1s9.4 12.1 7.3 15.4c-2.1 3.4-9.4 2.6-16.2-1.7-6.8-4.2-10.6-10.4-8.5-13.8z" fill="#dcdcdc"/><path d="m209.6 132.6c2-3.2 10.3-3.9 17 .3s9.2 11.8 7.2 15-9 2.3-15.7-1.9-10.5-10.2-8.5-13.4z" fill="#dbdbdb"/><path d="m209.9 132.6c1.9-3 10-3.6 16.5.5 6.6 4.1 9.1 11.5 7.2 14.5s-8.7 2-15.3-2.2c-6.4-4-10.2-9.8-8.4-12.8z" fill="#dadada"/><path d="m210.3 132.7c1.7-2.7 9.7-3.3 16.1.7 6.4 4.1 9 11.3 7.2 14-1.7 2.8-8.4 1.7-14.8-2.4-6.5-4.1-10.3-9.6-8.5-12.3z" fill="#d9d9d9"/></g><circle cx="63.999292" cy="63.9999" fill="#d61726" r="63.999936" stroke-width="2.22222"/><g transform="matrix(2.22222 0 0 2.22222 -421.778 -258.222)"><circle cx="218.5" cy="145.1" fill="url(#b)" r="27.3"/><path d="m233.5 154.4c-5.3 11-13.9 18.1-20.6 18.8-3.6-.7-7.5-2.4-10.3-4.3h.4c5.9 0 15.3-10.5 20.9-23.6-7.5-5.6-16.9-10.2-25.8-10.2-4.5 0-6.8 1.7-7.3 2.3.6-2.4 1.6-4.6 2.8-6.7 1.1-2 2.4-3.7 3.5-4.9 1.1-.8 3.9-2 8.1-2 8.8 0 16.7 3.1 23 7.4.4-2.3.6-4.6.6-6.9 0-5.5-1.7-6.7-2.1-7 2 .6 3.8 1.3 5.5 2.2 1.5.8 2.7 1.6 4.3 2.8.5.8 2.2 2.9 2.2 10.1 0 2.7-.2 5.4-.6 8 4.2 5.4 6.6 11.2 6.6 15.4 0 .9-.2 1.9-.3 2.3-1.5 2.9-3.5 5.5-5.8 7.8.1-.2.2-.7.2-1.3-.2-2.6-2.2-6.4-5.3-10.2z" fill="url(#c)"/><g opacity=".8"><path d="m240 164.2c.2-.2.3-1.3.3-1.5 0-9.6-18.3-30.8-40.6-30.8-5 0-7.3 1.8-7.8 2.2-.1.4-.3.7-.4 1.1.6-.4 2.9-2.2 7.7-2.2 21.5 0 40.5 21.1 40.5 30.5 0 .4-.1.9-.3 1.3.2-.1.4-.4.6-.6zm-45.3-35.3c.8-.7 3.5-2.1 8.3-2.1 22.4 0 40.1 20.6 40.1 32.2 0 .3-.1 1-.3 1.6.2-.3.5-.7.6-.9.3-.5.3-1.4.3-1.8 0-11.8-17.5-32-39.9-32-5.2 0-7.3 1.2-8.2 1.8-.2.2-.6.8-.9 1.2zm-1.2 1.9s-.5 1-.7 1.3c.7-.5 2.9-2.1 7.8-2.1 24.1 0 40.8 22 40.8 31.3 0 .5-.1 1.2-.3 1.6.3-.4.6-.7.7-.9.4-.5.3-1.5.3-1.8 0-9.1-16.4-31.3-40.5-31.3-5 0-7.2 1.2-8.1 1.9z" fill="url(#d)"/><path d="m229.8 118.5c.6.6 1.7 3.2 1.7 7.1 0 21.3-14.7 42.6-26.1 45-.3-.2-.6-.3-.9-.5 8.6-1 26-21.6 26-44.9 0-3.6-1-6.4-1.8-7.2.3.2.7.3 1.1.5zm3.9 2c.4.4 2.1 3.3 2.1 7.9 0 23.1-13.3 41.6-26.3 43.9.5.1.8.2 1.2.4 13.8-2 26.1-22.3 26.1-43.2 0-4.8-1.5-7.8-2.1-8.3-.3-.3-.6-.4-1-.7zm-2.5-1.4c.4.4 2 3.3 2 8.2 0 21.9-14.7 41.8-26.3 44 .4.2.7.3 1 .4 13.2-2.6 26.3-23.3 26.3-44 0-4.1-1.4-7.5-2-8.1z" fill="url(#e)"/></g></g></svg>