<svg xmlns="http://www.w3.org/2000/svg" viewBox="0 0 128 128" id="Ebene_1"><style id="style3">.st0{fill:#fff}.st1{fill:url(#SVGID_1_)}.st2{fill:#fefefe}.st3{fill:#fdfdfd}.st4{fill:#fcfcfc}.st5{fill:#fbfbfb}.st6{fill:#fafafa}.st7{fill:#f9f9f9}.st8{fill:#f8f8f8}.st9{fill:#f7f7f7}.st10{fill:#f6f6f6}.st11{fill:#f5f5f5}.st12{fill:#f4f4f4}.st13{fill:#f3f3f3}.st14{fill:#f2f2f2}.st15{fill:#f1f1f1}.st16{fill:#f0f0f0}.st17{fill:#efefef}.st18{fill:#eee}.st19{fill:#ededed}.st20{fill:#ececec}.st21{fill:#ebebeb}.st22{fill:#eaeaea}.st23{fill:#e9e9e9}.st24{fill:#e8e8e8}.st25{fill:#e7e7e7}.st26{fill:#e6e6e6}.st27{fill:#e5e5e5}.st28{fill:#e4e4e4}.st29{fill:#e3e3e3}.st30{fill:#e2e2e2}.st31{fill:#e1e1e1}.st32{fill:#e0e0e0}.st33{fill:#dfdfdf}.st34{fill:#dedede}.st35{fill:#ddd}.st36{fill:#dcdcdc}.st37{fill:#dbdbdb}.st38{fill:#dadada}.st39{fill:#d9d9d9}.st40{fill:#d61726}.st41{fill:url(#SVGID_2_)}.st42{fill:url(#SVGID_3_)}.st43{opacity:.8}.st44{fill:url(#SVGID_4_)}.st45{fill:url(#SVGID_5_)}</style><g transform="translate(-421.778 -258.222) scale(2.22222)" id="g10"><radialGradient gradientUnits="userSpaceOnUse" gradientTransform="matrix(1 0 0 -1 0 292)" r="28.768" cy="147.049" cx="218.627" id="SVGID_1_"><stop id="stop13" offset=".841" stop-color="#fff"/><stop id="stop15" offset="1" stop-color="#b3b3b3"/></radialGradient><circle id="circle17" r="28.8" cy="145" cx="218.6" class="st1" fill="url(#SVGID_1_)"/><g id="g19"><g id="g21"><g id="g23"><ellipse id="ellipse25" ry="23.7" rx="23.5" cy="144.9" cx="218.6" class="st0" transform="rotate(-57.732 218.58 144.907)" fill="#fff"/><path id="path27" d="M198.8 132.4c6.8-10.8 21.2-13.9 32.2-7 11 6.9 14.3 21.3 7.5 32.1-6.8 10.8-21.2 13.9-32.2 7-10.9-7-14.3-21.4-7.5-32.1z" class="st2" fill="#fefefe"/><path id="path29" d="M199.1 132.4c6.7-10.6 20.9-13.7 31.8-6.8 10.8 6.8 14.2 21.1 7.5 31.6-6.7 10.6-20.9 13.6-31.7 6.7-10.9-6.8-14.3-21-7.6-31.5z" class="st3" fill="#fdfdfd"/><path id="path31" d="M199.4 132.4c6.5-10.4 20.6-13.4 31.4-6.6 10.7 6.8 14 20.8 7.5 31.1-6.5 10.4-20.5 13.3-31.3 6.5-10.8-6.8-14.2-20.7-7.6-31z" class="st4" fill="#fcfcfc"/><path id="path33" d="M199.7 132.4c6.4-10.1 20.3-13.1 30.9-6.4 10.6 6.7 13.9 20.5 7.5 30.7-6.4 10.1-20.2 12.9-30.8 6.2-10.6-6.7-14-20.4-7.6-30.5z" class="st5" fill="#fbfbfb"/><path id="path35" d="M200 132.4c6.3-9.9 20-12.8 30.5-6.2 10.5 6.6 13.7 20.3 7.5 30.2-6.3 9.9-19.9 12.6-30.4 6-10.5-6.7-13.9-20.1-7.6-30z" class="st6" fill="#fafafa"/><path id="path37" d="M200.3 132.4c6.1-9.7 19.7-12.6 30.1-6 10.4 6.5 13.6 20 7.5 29.7s-19.5 12.3-29.9 5.7c-10.4-6.5-13.8-19.7-7.7-29.4z" class="st7" fill="#f9f9f9"/><path id="path39" d="M200.6 132.4c6-9.5 19.4-12.3 29.7-5.8 10.3 6.5 13.5 19.7 7.5 29.2s-19.2 12-29.4 5.5c-10.4-6.4-13.8-19.4-7.8-28.9z" class="st8" fill="#f8f8f8"/><path id="path41" d="M200.9 132.4c5.9-9.3 19.1-12 29.2-5.6 10.1 6.4 13.3 19.5 7.5 28.8-5.9 9.3-18.8 11.6-29 5.3-10.1-6.5-13.6-19.2-7.7-28.5z" class="st9" fill="#f7f7f7"/><path id="path43" d="M201.2 132.4c5.7-9.1 18.8-11.7 28.8-5.4 10 6.3 13.2 19.2 7.4 28.3-5.7 9.1-18.5 11.3-28.5 5-10-6.3-13.4-18.8-7.7-27.9z" class="st10" fill="#f6f6f6"/><path id="path45" d="M201.5 132.4c5.6-8.9 18.5-11.4 28.4-5.2 9.9 6.2 13 18.9 7.4 27.8-5.6 8.9-18.2 11-28.1 4.8-9.8-6.2-13.3-18.5-7.7-27.4z" class="st11" fill="#f5f5f5"/><path id="path47" d="M201.8 132.4c5.5-8.7 18.2-11.2 28-5 9.8 6.2 12.9 18.7 7.4 27.3-5.5 8.7-17.8 10.7-27.6 4.5-9.8-6.1-13.3-18.1-7.8-26.8z" class="st12" fill="#f4f4f4"/><path id="path49" d="M202.1 132.4c5.3-8.5 17.9-10.9 27.6-4.8 9.7 6.1 12.8 18.4 7.4 26.9-5.3 8.5-17.5 10.4-27.2 4.3-9.6-6.1-13.1-17.9-7.8-26.4z" class="st13" fill="#f3f3f3"/><path id="path51" d="M202.4 132.5c5.2-8.2 17.6-10.6 27.1-4.6s12.6 18.1 7.4 26.4c-5.2 8.2-17.2 10-26.7 4s-13-17.6-7.8-25.8z" class="st14" fill="#f2f2f2"/><path id="path53" d="M202.7 132.5c5.1-8 17.3-10.3 26.7-4.4 9.4 5.9 12.5 17.9 7.4 25.9s-16.8 9.7-26.2 3.8c-9.4-6-13-17.3-7.9-25.3z" class="st15" fill="#f1f1f1"/><path id="path55" d="M203 132.5c4.9-7.8 17-10 26.3-4.2 9.3 5.9 12.3 17.6 7.4 25.4-4.9 7.8-16.5 9.4-25.8 3.5-9.3-5.8-12.8-16.9-7.9-24.7z" class="st16" fill="#f0f0f0"/><path id="path57" d="M203.3 132.5c4.8-7.6 16.7-9.8 25.9-4 9.2 5.8 12.2 17.4 7.4 25-4.8 7.6-16.1 9.1-25.3 3.3s-12.8-16.7-8-24.3z" class="st17" fill="#efefef"/><path id="path59" d="M203.6 132.5c4.7-7.4 16.4-9.5 25.4-3.8 9.1 5.7 12.1 17.1 7.4 24.5-4.7 7.4-15.8 8.8-24.9 3-9-5.7-12.6-16.3-7.9-23.7z" class="st18" fill="#eee"/><path id="path61" d="M203.9 132.5c4.5-7.2 16.1-9.2 25-3.6 8.9 5.6 11.9 16.8 7.4 24-4.5 7.2-15.5 8.4-24.4 2.8-8.9-5.6-12.5-16-8-23.2z" class="st19" fill="#ededed"/><path id="path63" d="M204.2 132.5c4.4-7 15.8-8.9 24.6-3.4 8.8 5.6 11.8 16.6 7.4 23.5-4.4 7-15.1 8.1-24 2.5-8.8-5.5-12.4-15.6-8-22.6z" class="st20" fill="#ececec"/><path id="path65" d="M204.5 132.5c4.3-6.8 15.5-8.6 24.2-3.1s11.6 16.3 7.4 23.1c-4.3 6.8-14.8 7.8-23.5 2.3-8.8-5.6-12.4-15.5-8.1-22.3z" class="st21" fill="#ebebeb"/><path id="path67" d="M204.8 132.5c4.1-6.5 15.2-8.4 23.7-2.9 8.6 5.4 11.5 16 7.4 22.6-4.1 6.6-14.5 7.5-23 2-8.6-5.4-12.2-15.1-8.1-21.7z" class="st22" fill="#eaeaea"/><path id="path69" d="M205.1 132.5c4-6.3 14.9-8.1 23.3-2.7 8.5 5.3 11.4 15.8 7.4 22.1-4 6.3-14.1 7.1-22.6 1.8-8.5-5.4-12.1-14.8-8.1-21.2z" class="st23" fill="#e9e9e9"/><path id="path71" d="M205.4 132.5c3.9-6.1 14.5-7.8 22.9-2.5 8.4 5.3 11.2 15.5 7.3 21.6-3.9 6.1-13.8 6.8-22.1 1.5-8.3-5.2-11.9-14.4-8.1-20.6z" class="st24" fill="#e8e8e8"/><path id="path73" d="M205.7 132.5c3.7-5.9 14.2-7.5 22.5-2.3 8.2 5.2 11.1 15.2 7.3 21.2-3.7 5.9-13.4 6.5-21.7 1.3-8.2-5.2-11.8-14.2-8.1-20.2z" class="st25" fill="#e7e7e7"/><path id="path75" d="M206 132.5c3.6-5.7 13.9-7.3 22-2.1 8.1 5.1 10.9 15 7.3 20.7-3.6 5.7-13.1 6.2-21.2 1.1-8-5.2-11.7-13.9-8.1-19.7z" class="st26" fill="#e6e6e6"/><path id="path77" d="M206.3 132.6c3.5-5.5 13.6-7 21.6-1.9 8 5 10.8 14.7 7.3 20.2-3.5 5.5-12.8 5.9-20.8.8-7.9-5.1-11.5-13.7-8.1-19.1z" class="st26" fill="#e6e6e6"/><path id="path79" d="M206.6 132.6c3.3-5.3 13.3-6.7 21.2-1.7 7.9 5 10.7 14.4 7.3 19.7-3.3 5.3-12.4 5.5-20.3.6-7.8-5-11.5-13.4-8.2-18.6z" class="st27" fill="#e5e5e5"/><path id="path81" d="M206.9 132.6c3.2-5.1 13-6.4 20.8-1.5 7.8 4.9 10.5 14.2 7.3 19.3-3.2 5.1-12.1 5.2-19.8.3-7.8-5-11.5-13.1-8.3-18.1z" class="st28" fill="#e4e4e4"/><path id="path83" d="M207.2 132.6c3.1-4.9 12.7-6.1 20.4-1.3 7.6 4.8 10.4 13.9 7.3 18.8-3.1 4.9-11.7 4.9-19.4.1-7.6-4.9-11.3-12.8-8.3-17.6z" class="st29" fill="#e3e3e3"/><path id="path85" d="M207.5 132.6c2.9-4.6 12.4-5.9 19.9-1.1 7.5 4.7 10.2 13.7 7.3 18.3-2.9 4.7-11.4 4.6-18.9-.2-7.5-4.7-11.2-12.4-8.3-17z" class="st30" fill="#e2e2e2"/><path id="path87" d="M207.8 132.6c2.8-4.4 12.1-5.6 19.5-.9 7.4 4.7 10.1 13.4 7.3 17.8s-11.1 4.2-18.5-.4c-7.3-4.7-11.1-12.1-8.3-16.5z" class="st31" fill="#e1e1e1"/><path id="path89" d="M208.1 132.6c2.7-4.2 11.8-5.3 19.1-.7 7.3 4.6 10 13.1 7.3 17.4-2.7 4.2-10.7 3.9-18-.7-7.3-4.6-11-11.8-8.4-16z" class="st32" fill="#e0e0e0"/><path id="path91" d="M208.4 132.6c2.5-4 11.5-5 18.7-.5 7.2 4.5 9.8 12.9 7.3 16.9-2.5 4-10.4 3.6-17.6-.9-7.1-4.6-10.9-11.5-8.4-15.5z" class="st33" fill="#dfdfdf"/><path id="path93" d="M208.7 132.6c2.4-3.8 11.2-4.7 18.2-.3s9.7 12.6 7.3 16.4c-2.4 3.8-10.1 3.3-17.1-1.2-7-4.4-10.8-11.1-8.4-14.9z" class="st34" fill="#dedede"/><path id="path95" d="M209 132.6c2.3-3.6 10.9-4.5 17.8-.1s9.5 12.3 7.3 15.9c-2.3 3.6-9.7 3-16.6-1.4-7-4.3-10.7-10.8-8.5-14.4z" class="st35" fill="#ddd"/><path id="path97" d="M209.3 132.6c2.1-3.4 10.6-4.2 17.4.1 6.8 4.3 9.4 12.1 7.3 15.4-2.1 3.4-9.4 2.6-16.2-1.7-6.8-4.2-10.6-10.4-8.5-13.8z" class="st36" fill="#dcdcdc"/><path id="path99" d="M209.6 132.6c2-3.2 10.3-3.9 17 .3 6.7 4.2 9.2 11.8 7.2 15-2 3.2-9 2.3-15.7-1.9-6.7-4.2-10.5-10.2-8.5-13.4z" class="st37" fill="#dbdbdb"/><path id="path101" d="M209.9 132.6c1.9-3 10-3.6 16.5.5 6.6 4.1 9.1 11.5 7.2 14.5-1.9 3-8.7 2-15.3-2.2-6.4-4-10.2-9.8-8.4-12.8z" class="st38" fill="#dadada"/><path id="path103" d="M210.3 132.7c1.7-2.7 9.7-3.3 16.1.7 6.4 4.1 9 11.3 7.2 14-1.7 2.8-8.4 1.7-14.8-2.4-6.5-4.1-10.3-9.6-8.5-12.3z" class="st39" fill="#d9d9d9"/></g></g></g></g><g transform="translate(-421.778 -258.222) scale(2.22222)" id="g105"><circle id="circle107" r="28.8" cy="145" cx="218.6" class="st40" fill="#d61726"/><g id="g109"><linearGradient gradientTransform="matrix(1 .0004 .0004 -1 232.435 13.114)" y2="-109.513" x2="1.838" y1="-154.313" x1="-29.507" gradientUnits="userSpaceOnUse" id="SVGID_2_"><stop id="stop112" offset="0" stop-color="#de4551"/><stop id="stop114" offset=".036" stop-color="#dc3d4a"/><stop id="stop116" offset=".173" stop-color="#d72130"/><stop id="stop118" offset=".253" stop-color="#d61726"/><stop id="stop120" offset=".423" stop-color="#d61a29"/><stop id="stop122" offset=".538" stop-color="#d82231"/><stop id="stop124" offset=".637" stop-color="#da323f"/><stop id="stop126" offset=".726" stop-color="#de4753"/><stop id="stop128" offset=".809" stop-color="#e3636d"/><stop id="stop130" offset=".888" stop-color="#e9858d"/><stop id="stop132" offset=".961" stop-color="#f0adb2"/><stop id="stop134" offset="1" stop-color="#f5c5c9"/></linearGradient><circle id="circle136" r="27.3" cy="145.1" cx="218.5" class="st41" fill="url(#SVGID_2_)"/></g></g><g transform="translate(-421.778 -258.222) scale(2.22222)" id="g156"><radialGradient gradientUnits="userSpaceOnUse" gradientTransform="matrix(1 0 0 -1 0 292)" r="41.124" cy="149.142" cx="231.53" id="SVGID_3_"><stop id="stop159" offset="0" stop-color="#fff"/><stop id="stop161" offset=".178" stop-color="#fcfcfc"/><stop id="stop163" offset=".319" stop-color="#f2f2f2"/><stop id="stop165" offset=".565" stop-color="#e3e3e3"/><stop id="stop167" offset=".797" stop-color="#d1d1d1"/><stop id="stop169" offset="1" stop-color="#bfbfbf"/></radialGradient><path id="path171" d="M233.5 154.4c-5.3 11-13.9 18.1-20.6 18.8-3.6-.7-7.5-2.4-10.3-4.3h.4c5.9 0 15.3-10.5 20.9-23.6-7.5-5.6-16.9-10.2-25.8-10.2-4.5 0-6.8 1.7-7.3 2.3.6-2.4 1.6-4.6 2.8-6.7 1.1-2 2.4-3.7 3.5-4.9 1.1-.8 3.9-2 8.1-2 8.8 0 16.7 3.1 23 7.4.4-2.3.6-4.6.6-6.9 0-5.5-1.7-6.7-2.1-7 2 .6 3.8 1.3 5.5 2.2 1.5.8 2.7 1.6 4.3 2.8.5.8 2.2 2.9 2.2 10.1 0 2.7-.2 5.4-.6 8 4.2 5.4 6.6 11.2 6.6 15.4 0 .9-.2 1.9-.3 2.3-1.5 2.9-3.5 5.5-5.8 7.8.1-.2.2-.7.2-1.3-.2-2.6-2.2-6.4-5.3-10.2z" class="st42" fill="url(#SVGID_3_)"/><g id="g173"><g id="g175" class="st43" opacity=".8"><linearGradient gradientTransform="matrix(1 0 0 -1 0 292)" y2="137.459" x2="245.721" y1="161.736" x1="193.66" gradientUnits="userSpaceOnUse" id="SVGID_4_"><stop id="stop178" offset="0" stop-color="#595959"/><stop id="stop180" offset=".051" stop-color="#727272"/><stop id="stop182" offset=".14" stop-color="#989898"/><stop id="stop184" offset=".234" stop-color="#b7b7b7"/><stop id="stop186" offset=".331" stop-color="#cfcfcf"/><stop id="stop188" offset=".433" stop-color="#e0e0e0"/><stop id="stop190" offset=".544" stop-color="#eaeaea"/><stop id="stop192" offset=".681" stop-color="#ededed"/><stop id="stop194" offset=".762" stop-color="#eaeaea"/><stop id="stop196" offset=".821" stop-color="#e1e1e1"/><stop id="stop198" offset=".872" stop-color="#d1d1d1"/><stop id="stop200" offset=".919" stop-color="#bbb"/><stop id="stop202" offset=".962" stop-color="#9f9f9f"/><stop id="stop204" offset="1" stop-color="gray"/></linearGradient><path id="path206" d="M240 164.2c.2-.2.3-1.3.3-1.5 0-9.6-18.3-30.8-40.6-30.8-5 0-7.3 1.8-7.8 2.2-.1.4-.3.7-.4 1.1.6-.4 2.9-2.2 7.7-2.2 21.5 0 40.5 21.1 40.5 30.5 0 .4-.1.9-.3 1.3.2-.1.4-.4.6-.6zm-45.3-35.3c.8-.7 3.5-2.1 8.3-2.1 22.4 0 40.1 20.6 40.1 32.2 0 .3-.1 1-.3 1.6.2-.3.5-.7.6-.9.3-.5.3-1.4.3-1.8 0-11.8-17.5-32-39.9-32-5.2 0-7.3 1.2-8.2 1.8-.2.2-.6.8-.9 1.2zm-1.2 1.9s-.5 1-.7 1.3c.7-.5 2.9-2.1 7.8-2.1 24.1 0 40.8 22 40.8 31.3 0 .5-.1 1.2-.3 1.6.3-.4.6-.7.7-.9.4-.5.3-1.5.3-1.8 0-9.1-16.4-31.3-40.5-31.3-5 0-7.2 1.2-8.1 1.9z" class="st44" fill="url(#SVGID_4_)"/><linearGradient gradientTransform="matrix(1 0 0 -1 0 292)" y2="170.41" x2="236.671" y1="118.224" x1="212.337" gradientUnits="userSpaceOnUse" id="SVGID_5_"><stop id="stop209" offset="0" stop-color="#595959"/><stop id="stop211" offset=".045" stop-color="#6c6c6c"/><stop id="stop213" offset=".157" stop-color="#939393"/><stop id="stop215" offset=".273" stop-color="#b4b4b4"/><stop id="stop217" offset=".391" stop-color="#cdcdcd"/><stop id="stop219" offset=".514" stop-color="#dfdfdf"/><stop id="stop221" offset=".644" stop-color="#eaeaea"/><stop id="stop223" offset=".791" stop-color="#ededed"/><stop id="stop225" offset=".828" stop-color="#e9e9e9"/><stop id="stop227" offset=".869" stop-color="#dbdbdb"/><stop id="stop229" offset=".912" stop-color="#c5c5c5"/><stop id="stop231" offset=".956" stop-color="#a6a6a6"/><stop id="stop233" offset="1" stop-color="gray"/></linearGradient><path id="path235" d="M229.8 118.5c.6.6 1.7 3.2 1.7 7.1 0 21.3-14.7 42.6-26.1 45-.3-.2-.6-.3-.9-.5 8.6-1 26-21.6 26-44.9 0-3.6-1-6.4-1.8-7.2.3.2.7.3 1.1.5zm3.9 2c.4.4 2.1 3.3 2.1 7.9 0 23.1-13.3 41.6-26.3 43.9.5.1.8.2 1.2.4 13.8-2 26.1-22.3 26.1-43.2 0-4.8-1.5-7.8-2.1-8.3-.3-.3-.6-.4-1-.7zm-2.5-1.4c.4.4 2 3.3 2 8.2 0 21.9-14.7 41.8-26.3 44 .4.2.7.3 1 .4 13.2-2.6 26.3-23.3 26.3-44 0-4.1-1.4-7.5-2-8.1l-1-.5z" class="st45" fill="url(#SVGID_5_)"/></g></g></g></svg>