<svg xmlns="http://www.w3.org/2000/svg" viewBox="0 0 160.00586 178.18082"><path d="M68.615 0l-.092 41.092c11.31.025 20.498-9.152 20.524-20.5C89.073 9.247 79.925.027 68.615 0zM33.81 6.637c-3.765 1.996-6.82 3.905-10.12 6.556L56.353 46.23l-.162 72.014 24.408 24.517.006-.005V125.17l-12.448-12.437.135-59.607h30.315l-12.41-12.45-18.38.432zM14.152 22.58c-2.64 3.216-4.96 6.666-6.92 10.304l23.196 23.172.066 18.887L1.85 46.325C.956 49.635.337 53.01 0 56.413v5.664l43.002 43.48-.18-54.33h-.004l.004-.005zm66.96 31.43l-.135 60.37 12.63.03.108-47.73zM94.43 66.875c3.838 4.213 8.327 8.35 12.405 12.45h17.81l-12.384-12.45zm12.46 13.055l-.077 34.786 12.63.03.05-22.147zM0 80.06v17.597l80.604 80.524v-17.595zm132.494 19.02l-.035 15.695-12.603-.028c-.013.192-.023.383-.03.574-.026 11.31 9.123 20.5 20.433 20.525 9.176.02 17.245-6.068 19.746-14.897l-.03-6.27-15.48-15.524z"/></svg>
