<svg xmlns="http://www.w3.org/2000/svg" viewBox="0 0 225.8 225.9"><path fill="#ffd600" d="m109.9 225.6-1.7-.6c-.8-.2-2.1-.8-3-1.2-.8-.5-7.4-6.9-16.5-16l-15.1-15v-39.3c0-21.6.1-39.3.2-39.3.2 0 9 8.7 19.6 19.4a856.4 856.4 0 0 0 19.7 19.4c.2 0 18.2-17.9 40-39.7 31-31 39.8-39.6 40.2-39.4l15 15c13.8 13.8 14.7 14.7 15.8 17 2.3 4.7 2.3 9.4 0 14.2-1 2.2-2.4 3.6-51.4 52.6-49.4 49.4-50.4 50.3-52.7 51.4a14 14 0 0 1-3 1.2c-.2 0-.6.1-.7.3-.2.4-6 .4-6.4 0M18 137.2C4.4 123.5 2.8 121.9 2 120c-.6-1.2-1.1-2.6-1.3-3.3 0-.7-.3-1.3-.4-1.4-.4-.2-.4-4.1 0-4.8l.8-2.4c.3-1 1-2.6 1.7-3.6.9-1.3 18.3-19 51.2-51.7C99.6 7 104 2.8 105.9 1.9l3.3-1.2c.7 0 1.3-.3 1.4-.4.2-.4 4.8-.4 5 0 .1.1.8.4 1.4.5.7.1 2.2.7 3.3 1.2 1.9.9 3.6 2.5 17.2 16l15.1 15.1v79L133 92.6A895.9 895.9 0 0 0 113.1 73c-.2 0-18.2 17.8-40 39.6a6839.6 6839.6 0 0 1-39.8 39.7z"/></svg>
