<svg xmlns="http://www.w3.org/2000/svg" viewBox="0 0 128.00001 84.456106"><path d="M19.922 69.078l20.836-53.167V.17H2.332l.015 15.308 20.353-.03L.703 73.674a6.964 6.964 0 0 0-.321.843l-.055.133c-.003.021-.003.04-.006.064-.02.063-.027.142-.048.206a8.52 8.52 0 0 0-.106.482A7.483 7.483 0 0 0 0 76.889c0 .224.03.424.07.618a7.648 7.648 0 0 0 7.613 6.928c.027 0 .051.003.076.003.024.006.051 0 .051 0h34.197v-15.36H19.922zm54.292-53.603h12.737V.17H46.1l-.018 15.305h12.812l.08 68.923h15.32zM128 69.106l-20.508.012-.018-20.49h19.21l-.012-15.16-19.198.046v-18.04h20.456L127.915 0 92.033.015l.006 77.392c0 3.526 3.596 7.05 7.216 7.05L128 84.443V69.106z" fill="#004ea2"/></svg>