<?xml version="1.0" encoding="utf-8"?>
<!-- Generator: Adobe Illustrator 16.0.0, SVG Export Plug-In . SVG Version: 6.00 Build 0)  -->
<!DOCTYPE svg PUBLIC "-//W3C//DTD SVG 1.1//EN" "http://www.w3.org/Graphics/SVG/1.1/DTD/svg11.dtd">
<svg version="1.1" id="Calque_1" xmlns="http://www.w3.org/2000/svg" xmlns:xlink="http://www.w3.org/1999/xlink" x="0px" y="0px"
	 width="110.986px" height="110.986px" viewBox="0 0 110.986 110.986" enable-background="new 0 0 110.986 110.986"
	 xml:space="preserve">
<path d="M87.053,88.037H44.83l23.645-32.171l25.502-34.7c2.986-4.066,2.115-9.793-1.953-12.784c-1.518-1.114-3.27-1.671-5.02-1.745
	H27.192c-4.708,0-8.525,3.816-8.525,8.525c0,4.711,3.82,8.531,8.525,8.531h42.224L45.769,55.866L20.268,90.563
	c-2.989,4.066-2.116,9.796,1.951,12.788c1.521,1.111,3.269,1.663,5.018,1.745h59.816c4.708,0,8.529-3.82,8.529-8.527
	C95.582,91.859,91.761,88.037,87.053,88.037"/>
</svg>
