<svg xmlns="http://www.w3.org/2000/svg" height="70.312" width="256" version="1"><g fill="#2463a7"><path d="M89.743 19.035L78.545 40.408c-.726 1.492-.94 1.21-1.16-.364-.094-.657-3.373-21.01-3.373-21.01h-15.72s4.986 29.944 4.986 29.978c.117.706.526 3.536.698 4.766 1.17 7.887-3.742 7.471-7.517 7.293-1.757-.081-3.66-.348-4.744-.457l-.286-.014c-.24 1.07-1.247 8.633-1.247 8.633s5.821 1.129 10.65 1.078c5.051-.038 11.5-.648 16.158-5.185 1.96-1.9 3.748-4.515 5.982-8.22l20.777-37.871H89.743M8.451.08L6.577 10.243h24.524a.78.78 0 0 1 .7.443c.05.099.076.2.076.298 0 .189-.046.364-.184.5L1.73 45.18C1.67 45.5.29 52.297 0 53.77h48.655l1.982-10.172H27.153a.748.748 0 0 1-.688-.446.79.79 0 0 1-.081-.297.668.668 0 0 1 .175-.5L55.724 9.678c.065-.324 1.624-8.099 1.914-9.6H8.45"/><path d="M123.798 39.49c.744-.979.987-.979 1.447.188l5.475 14.091h19.629s-11.886-28.57-11.89-28.637C138.448 24.954 159.357.08 159.357.08h-16.838l-9.429 11.44c-.758.857-1.091.609-1.405-.25L127 .08h-19.072s10.477 24.663 10.483 24.746c.009.162-24.047 28.944-24.047 28.944h17.42l12.015-14.279m85.908-29.247c.201-.916 1.857-8.674 2.182-10.165h-42.656c-.238 1.06-10.967 51.933-11.338 53.69h43.683c.194-.925 1.836-8.688 2.167-10.17h-24.477a.782.782 0 0 1-.598-.278.816.816 0 0 1-.188-.466c0-.051 0-.113.024-.186l2.51-10.04a.688.688 0 0 1 .688-.555h22.293c.2-.918 2-8.964 2.31-10.444h-22.483a.759.759 0 0 1-.595-.285.715.715 0 0 1-.178-.457c0-.056 0-.114.018-.174l2.175-9.904a.705.705 0 0 1 .697-.566h23.766M241.189 0H222.4c-.216 1.063-10.956 52.012-11.32 53.77h42.755c.193-.926 1.855-8.689 2.165-10.172h-23.081a.779.779 0 0 1-.592-.277.703.703 0 0 1-.182-.466c-.003-.051 0-.113 0-.186 0 0 8.672-40.9 9.044-42.669"/></g></svg>