<svg xmlns="http://www.w3.org/2000/svg" viewBox="0 0 158.41 158.406"><path d="M149.388 79.205c0 38.76-31.424 70.183-70.186 70.183-38.762 0-70.186-31.423-70.186-70.183 0-38.765 31.424-70.187 70.186-70.187 38.762 0 70.186 31.422 70.186 70.187z" clip-rule="evenodd" fill="#87ba45" fill-rule="evenodd"/><path stroke-miterlimit="10" d="M156.702 79.205c0 42.802-34.696 77.499-77.498 77.499-42.803 0-77.502-34.697-77.502-77.499 0-42.804 34.699-77.503 77.502-77.503 42.802 0 77.498 34.699 77.498 77.503z" clip-rule="evenodd" fill="none" stroke="#4281c3" stroke-width="3.404"/><path d="M78.714 99.05h-7.702V55.581h7.702v43.467zm15.407-43.285l11.19 14.672 11.37-14.672h9.536s-11.983 15.59-15.897 21.09c-.58.186 16.448 22.01 16.448 22.01h-9.537l-11.922-15.957L93.02 98.864H83.3s12.85-17.105 16.874-22.009c-3.914-5.989-15.773-21.09-15.773-21.09zm-44.568-.184l17.242 43.648h-8.988l-4.403-11.186H36.716l-4.77 11.186h-8.07l17.607-43.648zm-4.218 11.003l-6.052 14.49h11.37z" clip-rule="evenodd" fill="#fff" fill-rule="evenodd"/><circle r="3.704" cy="94.937" cx="135.14" stroke-miterlimit="10" clip-rule="evenodd" fill="none" stroke="#fff" stroke-width="1.081"/><path d="M133.792 92.684a8.115 8.115 0 0 1 1.231-.094c.686 0 1.137.119 1.438.368.243.201.391.509.391.864 0 .59-.413.985-.93 1.146v.021c.376.12.605.442.723.912.162.63.28 1.064.383 1.239h-.663c-.081-.134-.193-.516-.326-1.08-.147-.623-.42-.857-1.002-.877h-.605v1.957h-.64zm.64 2.057h.657c.686 0 1.12-.342 1.12-.857 0-.584-.463-.839-1.142-.839-.31 0-.523.02-.634.047z" fill="#fff"/><path d="M70.038 157.74c-33.193-3.743-61.27-29.262-68.07-61.87C.609 89.346.259 85.854.272 78.929c.024-12.576 2.485-23.172 7.99-34.4 4.095-8.348 8.603-14.668 15.103-21.168s12.82-11.008 21.168-15.102C59.502.918 76.13-1.515 92.356 1.26c29.045 4.97 53.129 25.794 62.072 53.671 5.507 17.165 4.896 36.736-1.661 53.194-8.127 20.399-24.226 36.509-44.585 44.615-6.006 2.392-12.573 4.045-19.505 4.91-4.23.528-14.32.577-18.639.09zm16.47-2.986c16.728-1.628 32.665-8.897 44.907-20.482 23.018-21.785 30.068-56.045 17.508-85.082A76.1 76.1 0 0 0 87.39 3.745c-4.933-.545-16.241-.265-20.54.509-7.894 1.419-14.612 3.598-21.144 6.857-15.447 7.706-26.886 19.145-34.592 34.592-3.26 6.532-5.438 13.25-6.858 21.143-.773 4.3-1.053 15.608-.508 20.54 3.455 31.29 25.869 57.328 56.107 65.18 4.068 1.057 9.377 2.012 12.867 2.315 3.12.271 10.383.204 13.786-.127z" fill="#4281c3"/><path d="M69.032 157.606c-32.55-4.42-58.765-27.874-66.577-59.562C.78 91.244.273 86.942.265 79.432c-.003-3.692.19-8.147.428-9.9C3.517 48.818 13.98 30.11 29.78 17.516 40.862 8.684 53.844 3.1 68.53.854 73.875.036 84.656.044 90.174.87c34.328 5.138 60.992 31.012 66.952 64.97.94 5.36 1.282 16.06.688 21.549-1.618 14.936-7.423 29.176-16.73 41.04-2.737 3.491-10.521 11.074-14.188 13.823-11.38 8.53-25.185 14.03-38.974 15.526-4.426.48-14.786.387-18.891-.17zm22.15-3.473c21.248-3.556 39.246-15.14 51.141-32.919 12.683-18.955 16.13-43.073 9.252-64.737-3.674-11.575-9.437-21.23-17.896-29.986C122.457 14.876 108.152 7.277 92.094 4.4c-5.012-.9-14.784-1.224-20.378-.68-35.848 3.493-64.5 32.144-67.991 67.993-.545 5.594-.22 15.365.678 20.377 4.557 25.434 21.368 46.722 44.862 56.811 6.588 2.829 15.087 5.062 22.284 5.855 4.47.492 14.955.16 19.633-.623z" fill="#4381c3"/></svg>