<svg xmlns="http://www.w3.org/2000/svg" xml:space="preserve" viewBox="0 0 1242 372"><path fill="#333" d="M899 371h-4l2-9 1-9h4l6-2 4-2 2-6 2-8 1-2-14-49-14-49v-1h25l6 30 7 30 7-29 8-30 13-1h12l-16 58c-18 61-20 66-26 73l-4 5-6 1q-7 3-16 0m-256-85v-52h22v7l1 3 4-5 8-6 5-2 5 1q20 2 27 30l2 6v31l-2 7q-8 28-29 28h-6l-3-2-7-5-3-3v15h-24zm44 26 3-3 1-5c5-16 2-45-5-50l-3-2h-9l-4 3-3 3v50l1 2q4 5 11 5h5zm-313 21q-31-5-31-50v-13l1-6q7-21 22-29l5-3h19l5 3q17 8 18 28l1 7h-22v-4q-1-17-16-14-11 3-9 35v14l2 5 2 5 3 2c8 5 18-1 18-11v-3h22v5c-2 20-19 32-40 29m80 1q-23-4-31-32l-2-7v-25l2-6q8-30 34-32l7-1 6 2q18 5 26 27l2 6 1 14v14l-2 7q-9 35-43 33m14-22 4-8 2-5v-32l-2-5q-1-5-4-8l-3-3h-5q-12-1-14 22l-2 9 2 11q2 22 14 22h5zm278 22q-20-4-21-28-1-31 38-31h9v-16l-2-3c-5-9-17-8-18 2l-1 4h-12l-12 1 1-5q2-15 18-23l6-3h20l6 3q11 5 15 15l2 4 1 32 1 32 1 7 2 7-12 1h-11l-1-2-2-7-2-7-3 6q-8 13-23 11m19-20 5-5 2-2v-18h-16l-2 1c-6 5-7 22-1 25q6 1 12-1m-255-31v-49h23v4l1 6v2l4-5 8-7 4-2h15l4 3 7 8q3 9 6 0c13-17 35-14 43 6 3 8 4 21 4 55v29h-25v-35c0-36-1-41-4-44l-2-2h-4q-8-1-11 5l-2 3v73h-24v-35c0-36-1-41-4-44l-2-2h-10l-4 3-3 3v75h-24zm300 0v-49h22v3l1 8v3l2-2q13-19 31-12c14 6 17 17 17 69v30h-25v-71l-2-4c-3-8-13-9-20-2l-2 2v75h-24zm-438-92q-24-5-32-14l-2-4V71l1-5 2-5 7-6 6-7 10-5q17-7 40-12l10-2h168l8 1q54 10 66 34l2 5 1 50c0 65 0 64-28 70l-8 2h-25l-8-2q-21-5-26-15l-1-3v-35l-3-2-11-6-7-2h-87l-5 1q-12 3-15 8l-2 3v35l-2 3c-5 10-35 18-59 15M563 83V68l-4-3-3-3-7-2-6-2h-45l-48 1q-11 2-15 8l-2 3v28h130zm249 108c-71-6-119-31-128-67l-1-7V47l2-3c12-20 79-20 91 0l2 3v32c0 59 7 70 51 80l9 2 54 1h54l7 2q12 4 14 10l1 3-1 3-2 3-4 2-11 4-6 2zm273 0c-63-4-113-28-125-61l-3-6v-11c-2-42 37-72 109-82l11-2h68l67-1 6 2q15 2 20 7l4 3v7l-4 3c-8 7-18 9-71 9-78 0-106 8-116 36l-2 6-1 9v9l3 6 2 6 7 7 7 7 9 4c25 13 56 15 67 6l3-3 1-20v-19l2-3q7-9 25-13l8-2h25l9 2q17 4 23 12l3 4v37l-3 6c-13 28-68 40-154 35"/><path fill="#de0000" d="M33 250q-24-4-31-21l-2-5v-9c0-10 2-17 7-29q5-13 2-1-7 28 13 39l6 3 9 1c88 5 277-145 259-206l-2-5-4-5-5-5-6-2-14-3-8-1 8-1q38-3 50 20l2 4v10l1 9-2 8c-23 87-200 212-283 199m21-49q-20-5-20-25v-7l3-8C67 72 263-27 263 47v6l-2 8-4 9-1 1 1-1q2-8 0-17l-1-5-3-4q-6-7-20-6h-8l-10 2C149 57 56 132 49 174l-1 6 1 5q4 12 20 15l7 2h-9zm589 155v-13h25v25h-25z"/></svg>