<svg xml:space="preserve" viewBox="0 0 309.814 59.731" xmlns="http://www.w3.org/2000/svg"><path d="m95.714 47.931-2.1-6.3h-14l-2.1 6.3h-7.5l12.2-35h8.6l12.3 35zm-13.9-12.8h9.6l-4.8-14.3zM106.314 47.931v-36.5h6.5v36.5zM146.314 22.231c2.9 0 5.1.9 6.8 2.8 1.7 1.9 2.6 4.4 2.6 7.5v15.4h-6.4v-15c0-1.5-.4-2.7-1.1-3.5-.7-.8-1.8-1.2-3.1-1.2-1.5 0-2.6.5-3.4 1.5-.8 1-1.2 2.4-1.2 4.2v14h-6.4v-15c0-1.5-.4-2.7-1.1-3.5-.7-.8-1.8-1.2-3.1-1.2-1.4 0-2.6.5-3.5 1.5-.8 1-1.2 2.4-1.2 4.2v14h-6.4v-25h6.4v2.6c1.5-2.2 3.8-3.4 7-3.4 3.1 0 5.3 1.2 6.8 3.6 1.5-2.3 4-3.5 7.3-3.5zM180.214 22.931h6.4v25h-6.4v-3c-1.9 2.4-4.7 3.7-8.2 3.7-3.3 0-6.2-1.3-8.6-3.8-2.4-2.6-3.6-5.7-3.6-9.4s1.2-6.8 3.6-9.4c2.4-2.6 5.3-3.9 8.6-3.9 3.5 0 6.2 1.2 8.2 3.7zm-11.9 17.6c1.3 1.3 2.9 2 4.9 2 2 0 3.7-.6 5-2 1.3-1.3 2-3 2-5.1 0-2.1-.7-3.8-2-5-1.3-1.3-3-2-5-2s-3.6.7-4.9 2c-1.3 1.3-1.9 3-1.9 5s.6 3.8 1.9 5.1zM199.714 41.331h13.3v6.6h-20.2v-35h6.9zM219.914 19.931c-1.1 0-2-.4-2.8-1.1-.8-.8-1.2-1.7-1.2-2.8 0-1.1.4-2 1.2-2.8.8-.8 1.7-1.2 2.8-1.2 1.1 0 2 .4 2.8 1.2.8.8 1.2 1.7 1.2 2.8 0 1.1-.4 2-1.2 2.8-.8.7-1.7 1.1-2.8 1.1zm-3.2 28v-25h6.5v25zM242.914 22.231c2.7 0 5 .9 6.8 2.8 1.8 1.8 2.7 4.4 2.7 7.6v15.3h-6.4v-14.6c0-1.7-.5-2.9-1.4-3.8-.9-.9-2.1-1.4-3.6-1.4-1.7 0-3 .5-4 1.6s-1.5 2.6-1.5 4.7v13.5h-6.4v-25h6.4v2.8c1.6-2.3 4-3.5 7.4-3.5zM274.414 22.931h6.5v25h-6.5v-2.8c-1.6 2.3-4 3.5-7.4 3.5-2.7 0-5-.9-6.8-2.8-1.8-1.8-2.6-4.4-2.6-7.6v-15.3h6.5v14.5c0 1.7.4 3 1.3 3.9.9.9 2.1 1.3 3.6 1.3 1.7 0 3-.5 4-1.5s1.5-2.6 1.5-4.7v-13.5zM309.814 47.931h-7.5l-5.4-7.6-5.5 7.6h-7.4l9.1-12.8-8.8-12.2h7.4l5.1 7 5-7h7.4l-8.8 12.2z" fill="#00245e"/><path d="M56.114 33.731c2.6-.2 4.7 1.5 4.9 4.1.2 2.7-1.7 4.9-4.3 5.1-2.5.2-4.7-1.7-4.9-4.2-.2-2.7 1.6-4.7 4.3-5z" fill="#86da2f"/><path d="M24.514 55.031c0-2.6 2-4.6 4.4-4.6 2.4 0 4.7 2.2 4.7 4.7 0 2.4-2 4.5-4.3 4.6-2.9 0-4.8-1.8-4.8-4.7z" fill="#24c2ff"/><path d="M31.614 25.831c-.4.2-.6-.1-.7-.4-3.7-6.9-2.6-15.6 3.9-20.8 1.7-1.4 4.9-1.7 6.3-.3.6.5.7 1.1.8 1.8.2 1.5.5 3 1.5 4.2 1.1 1.3 2.5 1.8 4.1 1.7 1.4 0 2.8-.2 3.7 1.4.5.9.3 4.4-.5 5.1-.4.3-.7.1-1 0-2.3-.9-4.7-.9-7.1-.5-.8.1-1.2-.1-1.2-1-.1-1.5-.4-2.9-1.2-4.2-1.5-2.7-4.3-2.8-6.1-.3-1.5 2-1.9 4.4-2.3 6.8-.4 2.1-.3 4.3-.2 6.5 0 0-.1 0 0 0z" fill="#ffcb12"/><path d="M34.114 27.331c-.2-.3-.1-.6.2-.8 5.7-5.2 14.2-6.2 20.8-1.1 1.7 1.4 2.8 4.3 1.9 6-.4.7-.9 1-1.5 1.2-1.4.6-2.7 1.2-3.6 2.5-.9 1.3-1.1 2.8-.7 4.4.3 1.3.8 2.7-.5 3.9-.7.7-4.1 1.3-5 .7-.4-.3-.3-.6-.2-1 .3-2.5-.3-4.8-1.2-7-.3-.8-.2-1.2.6-1.4 1.4-.4 2.7-1.1 3.7-2.1 2.2-2.1 1.7-4.8-1.2-6-2.3-1-4.7-.8-7-.6-2.2.1-4.3.7-6.3 1.3z" fill="#86da2f"/><path d="M32.814 29.931c.3-.3.5-.2.8 0 6.6 4 10 11.9 7 19.6-.8 2-3.4 4-5.3 3.5-.8-.2-1.2-.6-1.6-1.1-.9-1.2-1.9-2.3-3.4-2.8-1.6-.5-3-.2-4.4.6-1.2.7-2.4 1.6-3.9.7-.9-.5-2.4-3.6-2.1-4.6.2-.4.6-.4 1-.4 2.5-.4 4.5-1.6 6.4-3.2.6-.5 1.1-.5 1.6.2.8 1.2 1.8 2.2 3.1 2.9 2.6 1.5 5.1.2 5.4-2.8.3-2.5-.6-4.7-1.4-6.9-.9-2-2-3.9-3.2-5.7z" fill="#24c2ff"/><path d="M29.614 30.531c-.4 2-1.3 3.9-2.5 5.6-3.6 5.4-8.8 7.6-15.2 7-2.3-.2-4.2-2.1-4.4-4-.1-.8.1-1.4.6-2 .7-.9 1.3-1.7 1.6-2.8.6-2.2-.2-4-1.8-5.6-2.2-2.2-1.9-4.2.7-5.8.3-.2.7-.4 1.1-.6.6-.3 1.1-.3 1.3.4.9 2.3 2.7 4 4.7 5.4.7.6.7 1 .1 1.7-1.2 1.3-1.9 2.9-2 4.7-.2 2.2 1.1 3.6 3.3 3.6 1.4 0 2.7-.5 3.9-1.1 3.1-1.6 5.5-3.9 7.8-6.3.3-.1.4-.3.8-.2z" fill="#0069da"/><path d="M13.214 9.531c.2 0 .7.1 1.2.2 3.7.7 6-.6 7.2-4.1.8-2.3 2.5-3 4.7-1.8.1 0 .1.1.2.1 2.3 1.3 2.3 1.5.9 3.5-1.2 1.6-1.8 3.4-2.1 5.3-.2 1.1-.6 1.3-1.6.9-1.6-.6-3.3-.6-5 0-1.9.6-2.7 2.3-2.1 4.2.8 2.5 3 3.6 4.9 4.9 1.9 1.3 4.1 2 6.2 2.9.3.1.8.1.7.6-.1.3-.5.3-.9.3-4.5.2-8.8-.5-12.3-3.5-3.3-2.7-5.7-6-5.3-10.6.3-1.5 1.4-2.6 3.3-2.9z" fill="#ff4649"/><path d="M5.014 37.631c-2.4.3-4.8-1.7-5-4.2-.2-2.4 1.8-4.8 4.1-5 2.6-.3 5 1.5 5.2 3.9.1 2.3-1.4 5.1-4.3 5.3z" fill="#0069da"/><path d="M47.014 2.031c2.5-.2 4.9 1.8 5.1 4.3.2 2.4-1.8 4.7-4.2 4.9-2.6.2-4.9-1.7-5.1-4.2-.2-2.5 1.6-4.8 4.2-5z" fill="#ffcb12"/><path d="M20.914 3.931c.3 2.6-1.5 4.8-4.2 5.2-2.3.3-4.7-1.6-5-3.8-.3-2.9 1.3-5 4-5.3 2.5-.3 4.9 1.6 5.2 3.9z" fill="#ff4649"/></svg>
