<svg xmlns="http://www.w3.org/2000/svg" xml:space="preserve" viewBox="0 0 309.8 59.7"><path fill="#00245e" d="m95.7 48-2-6.4h-14L77.4 48H70l12.2-35h8.6l12.3 35zM81.8 35h9.6l-4.8-14.3zm24.5 13V11.4h6.5V48zm40-25.7q4.4 0 6.8 2.8 2.6 3 2.6 7.5V48h-6.4V33q0-2.3-1-3.5-1.2-1.2-3.2-1.2a4 4 0 0 0-3.4 1.5q-1.2 1.5-1.2 4.2v14h-6.4V33q0-2.3-1-3.5-1.2-1.2-3.2-1.2-2.1 0-3.5 1.5-1.2 1.5-1.2 4.2v14h-6.4V23h6.4v2.6q2.2-3.3 7-3.4 4.6 0 6.8 3.6 2.3-3.5 7.3-3.5m34 .7h6.3v25h-6.4v-3a10 10 0 0 1-8.2 3.7q-5 0-8.6-3.8-3.6-3.9-3.6-9.4c0-5.5 1.2-6.8 3.6-9.4q3.6-3.9 8.6-3.9 5.2 0 8.2 3.7zm-12 17.6q2 2 5 2t5-2a7 7 0 0 0 2-5q-.1-3.3-2-5-2-2-5-2c-3 0-3.7.6-5 2q-2 1.9-1.9 5c.1 3 .6 3.7 2 5m31.4.8H213V48h-20.2V13h7zM220 20q-1.6 0-2.8-1a4 4 0 0 1-1.2-3q0-1.6 1.2-2.8T220 12t2.8 1.2T224 16t-1.2 2.8q-1.2 1-2.8 1.1m-3.2 28V23h6.5v25zM243 22.2a9 9 0 0 1 6.8 2.8q2.7 2.8 2.7 7.6V48H246V33.3a5 5 0 0 0-1.4-3.8 5 5 0 0 0-3.6-1.4q-2.5 0-4 1.6c-1.5 1.6-1.5 2.6-1.5 4.7V48h-6.4V23h6.4v2.8q2.3-3.5 7.4-3.5m31.5.7h6.5v25h-6.5v-2.8q-2.4 3.5-7.4 3.5a9 9 0 0 1-6.8-2.8q-2.7-2.7-2.6-7.6V23h6.5v14.5q0 2.5 1.3 4 1.4 1.2 3.6 1.2 2.5 0 4-1.5c1.5-1.5 1.5-2.6 1.5-4.7V23zm35.4 25h-7.5l-5.4-7.6-5.5 7.6H284l9.1-12.8-8.8-12.2h7.4l5.1 7 5-7h7.4l-8.8 12.2z"/><path fill="#86da2f" d="M56.1 33.7a4.4 4.4 0 0 1 5 4.1 4.7 4.7 0 0 1-4.4 5.1 4.6 4.6 0 0 1-4.9-4.2c-.2-2.7 1.6-4.7 4.3-5"/><path fill="#24c2ff" d="M24.5 55c0-2.6 2-4.6 4.4-4.6s4.7 2.2 4.7 4.7c0 2.4-2 4.5-4.3 4.6-2.9 0-4.8-1.8-4.8-4.7"/><path fill="#ffcb12" d="M31.6 25.8q-.6.2-.7-.4a16.4 16.4 0 0 1 4-20.8c1.6-1.4 4.8-1.7 6.2-.3q.8.8.8 1.8a8 8 0 0 0 1.5 4.2 5 5 0 0 0 4.1 1.7c1.4 0 2.8-.2 3.7 1.4.5 1 .3 4.4-.5 5.1q-.6.3-1 0-3.5-1.2-7-.5-1.3.3-1.3-1a9 9 0 0 0-1.2-4.2c-1.5-2.7-4.3-2.8-6-.3-1.6 2-2 4.4-2.4 6.8q-.5 3.2-.2 6.5"/><path fill="#86da2f" d="M34.1 27.3q-.2-.5.2-.8a16 16 0 0 1 20.8-1c1.7 1.3 2.8 4.2 2 6q-.7 1-1.6 1.1a8 8 0 0 0-3.6 2.5 5 5 0 0 0-.7 4.4c.3 1.3.8 2.7-.5 4-.7.6-4 1.2-5 .6q-.5-.4-.2-1 .3-3.7-1.2-7-.5-1.2.6-1.4a9 9 0 0 0 3.7-2c2.2-2.2 1.7-4.9-1.2-6a14 14 0 0 0-7-.7q-3.3.3-6.3 1.3"/><path fill="#24c2ff" d="M32.8 30q.4-.5.8 0a16 16 0 0 1 7 19.5c-.8 2-3.4 4-5.3 3.5q-1.1-.4-1.6-1a7 7 0 0 0-3.4-2.9q-2.4-.7-4.4.6c-1.2.7-2.4 1.6-3.9.7-.9-.5-2.4-3.6-2-4.6q.2-.5 1-.4a13 13 0 0 0 6.3-3.2q.9-.8 1.6.2a9 9 0 0 0 3.1 3c2.6 1.4 5.1.1 5.4-2.9.3-2.5-.6-4.7-1.4-6.9q-1.4-3-3.2-5.7"/><path fill="#0069da" d="M29.6 30.5q-.6 3.1-2.5 5.6a15 15 0 0 1-15.2 7c-2.3-.2-4.2-2-4.4-4q0-1.1.6-2 1.1-1.2 1.6-2.8.8-3.2-1.8-5.6-3.2-3.4.7-5.8l1.1-.6q1-.6 1.3.4 1.6 3.4 4.7 5.4 1 .8.1 1.7a7 7 0 0 0-2 4.7q-.2 3.5 3.3 3.6 2-.1 4-1a30 30 0 0 0 7.7-6.4q.3-.2.8-.2"/><path fill="#ff4649" d="m13.2 9.5 1.2.2q5.5 1 7.2-4 1.4-3.7 4.7-2l.2.1c2.3 1.3 2.3 1.5 1 3.5a12 12 0 0 0-2.2 5.3q-.2 1.5-1.6 1a7 7 0 0 0-5 0c-1.9.5-2.7 2.2-2 4.1.7 2.5 3 3.6 4.8 5q3 1.7 6.2 2.8c.3.1.8.1.7.6q-.1.4-.9.3c-4.5.2-8.8-.5-12.3-3.5-3.3-2.7-5.7-6-5.3-10.6q.5-2.3 3.3-2.9"/><path fill="#0069da" d="M5 37.6C2.6 38 .2 36 0 33.4c-.2-2.4 1.8-4.8 4.1-5 2.6-.3 5 1.5 5.2 4 .1 2.2-1.4 5-4.3 5.2"/><path fill="#ffcb12" d="M47 2a5 5 0 0 1 5.1 4.3 4.7 4.7 0 0 1-4.2 5A4.7 4.7 0 0 1 43 7a4.6 4.6 0 0 1 4-5"/><path fill="#ff4649" d="M21 4c.2 2.5-1.6 4.7-4.3 5.1a5 5 0 0 1-5-3.8c-.3-2.9 1.3-5 4-5.3A5 5 0 0 1 21 4"/></svg>