<svg xmlns="http://www.w3.org/2000/svg" xml:space="preserve" viewBox="0 0 196 138"><g fill="#1c51a4"><path d="M63 94V79H0V43h27v23h-6v-8l-1-8H6v23h36V36H0v-6h42V0h27v30h36V0h27v30h63v49H90v30H63zm21-6V73h21V36H69v30h-6V6H48v67h21v30h15zm0-33V43h6v23h-6zm41 3V43h7v30h14V43h28v23h-6V49h-15v24h36V37l-32-1h-31V6h-15v67h14z"/><text xml:space="preserve" x="83" y="157" font-size="18.7" style="line-height:2;text-align:start" transform="translate(-83 -22)"><tspan x="83" y="157" font-family="sans-serif" font-weight="400" style="-inkscape-font-specification:sans-serif">an EnerSys company</tspan></text></g></svg>