<svg xmlns="http://www.w3.org/2000/svg" fill="#0d597f" viewBox="0 0 108.3 31.3"><path d="M13.1 19.5v-3.8l-2.7 2.7.8.5.8.4.6.1zm14-.2.7.2h1l.7-.1.7-.4.9-.5-2.1-2-7-7-3 3.1-4-4.2-10.3 10 .9.5.7.3.7.2h1.4l.2-.2 4.7-4.7 1.6-1.6 4.6 4.6 1.6 1.6v.1l.3.1.4.1h1l.6-.1.8-.4.8-.5-3.6-3.6.6-.7zm0-19.1 9 15.6-9 15.7H9L0 15.6 9 0Z"/><path d="M21.5 14.9 19 12.5l.1-.2 2.4 2.4zm75.8 2.8a6 6 0 0 1 0-4.9c.3-.5 1.2-1.7 5.2-1.7h2q1.6.2 1.7 1.5c0 1.2-1.8 1.2-1.8 1.2h-3.8C99 13.8 99 16 99 16h5.5c2 0 4-1 4-3.4q-.1-2.6-2.6-3.2c-1.6-.5-2.2-.4-4.4-.4q-2.5.2-3.3.6-1.6.4-2.8 2.2a8 8 0 0 0 0 7q1.9 3 5.6 3.1h7.4v-2.2H101a4 4 0 0 1-3.7-2M51.9 9.4a8 8 0 0 0-7.1 0C42 10.9 41 14 42 17.5a6 6 0 0 0 3.9 3.9 10 10 0 0 0 2.8.5v-2.2s-3.8 0-4.6-2.8c-1-3.5.7-5 1.7-5.6a6 6 0 0 1 4.9 0c1.3.7 1.4 2.3 1.4 4.7v4.5c0 1.6 2.2 1.8 2.2 1.8V16c0-2.3 0-5.2-2.5-6.6m28.8 12.5v-7q0-3.7 3.1-5.5a8 8 0 0 1 7 0c2.6 1.4 2.6 4.3 2.6 6.6v6.3s-2.2-.1-2.2-1.7V16c0-2.5 0-4-1.4-4.8a6 6 0 0 0-4.9 0 4 4 0 0 0-2 3.7v7zm-3.3 0V11.4s2.2.1 2.2 1.7v8.8zm2.2-12.7v2s-2.2 0-2.2-1.6v-.4zm-13.4.2c2-1 5.2-1 7 0C76 11 77 14 76 17.6a6 6 0 0 1-4 3.8c-1.4.5-2.7.5-2.8.5v-2.2s3.9 0 4.6-2.7c1-3.5-.6-5-1.7-5.6a6 6 0 0 0-4.8 0c-1.4.7-1.5 2.2-1.5 4.7v2.3c0 1.6-2.2 1.7-2.2 1.7v-4c0-2.4 0-5.3 2.6-6.7m-.4 18.2v-7.4s-2.2.1-2.2 1.7v5.7zm-8.1-24v7.8s-2.2-.2-2.2-1.8v-6zM58 17l-.3-1.9v-1.9c0-1.6-2.2-1.7-2.2-1.7V15l.3 2.5a6 6 0 0 0 4 3.9 9 9 0 0 0 2.8.5v-2.2s-3.9 0-4.6-2.8m9.9 9v-4h-.4v4q-.2 1.5 2.4 1.7h2.8v-.3H70c-1.9 0-2-1-2-1.3m6 1.6h.4v-4.2H74zm0-4.4h.4v-.6H74zm19.3.2h-.5L91 25.2l-1.6-1.8H89l1.8 2.1-1.8 2.1h.5l1.6-1.8 1.6 1.8h.5l-1.8-2zM87.5 26c0 .1 0 1.3-2.4 1.3-2.3 0-2.4-1.2-2.4-1.3v-2.6h-.3V26c0 .2 0 1.6 2.7 1.6S88 26.2 88 26v-2.6h-.4zm-9.2-2.6c-2.7 0-2.7 1.5-2.7 1.6v2.6h.3V25s0-1.2 2.4-1.2 2.4 1.1 2.4 1.2v2.6h.4V25c0-.1 0-1.6-2.8-1.6"/></svg>