<svg fill="#0d597f" xmlns="http://www.w3.org/2000/svg" viewBox="0 0 108.324 31.28"><path d="M13.122 19.482v-3.806l-2.74 2.745a8.03 8.03 0 0 0 .835.513l.735.325.625.17c.184.036.373.052.537.054m14-.317a.74.74 0 0 0 .08.058 1.506 1.506 0 0 0 .578.214 2.57 2.57 0 0 0 .507.05 3.3 3.3 0 0 0 .539-.049 4.09 4.09 0 0 0 .642-.17 5.89 5.89 0 0 0 .745-.325c.294-.155.575-.327.848-.517l-2.08-2.037-6.9-6.918-3.023 3.023-4.08-4.208-10.25 10.12a7.8 7.8 0 0 0 .846.517 4.97 4.97 0 0 0 .744.325 4.05 4.05 0 0 0 .64.17 2.97 2.97 0 0 0 .538.05 2.4 2.4 0 0 0 .507-.05 1.88 1.88 0 0 0 .36-.11 1.28 1.28 0 0 0 .217-.113l.08-.06 4.625-4.625 1.65-1.585 4.575 4.575 1.6 1.644a1.4 1.4 0 0 0 .08.058l.218.125a1.39 1.39 0 0 0 .36.1c.144.03.313.05.5.05a3.3 3.3 0 0 0 .539-.049 3.89 3.89 0 0 0 .643-.17c.234-.08.48-.187.745-.325a7.95 7.95 0 0 0 .847-.517l-3.672-3.595.683-.683 5.054 5.004M27.069 0l9.051 15.64-9.03 15.64H9.028L0 15.64 9.03 0Z"/><path d="m21.457 14.878-2.405-2.4.17-.17 2.42 2.395zm75.82 2.825c-.694-1.2-.692-3.595.004-4.855.304-.55 1.23-1.775 5.265-1.775.83 0 1.438.042 1.884.102.98.13 1.725.465 1.725 1.378 0 1.205-1.775 1.215-1.775 1.215h-3.75c-1.598 0-1.72 2.2-1.72 2.2h5.48c1.925 0 3.92-.875 3.92-3.375 0-1.68-.966-2.8-2.544-3.24-1.578-.44-2.2-.4-4.34-.37-1.72.03-2.712.4-3.337.605-1.098.345-2.08 1-2.744 2.188-1.08 1.954-1.07 5.185.02 7.055 1.166 2 3.166 3.07 5.584 3.07h7.375v-2.22h-7.37c-2.123.006-3.175-1.16-3.653-1.978M51.85 9.36c-1.954-1.08-5.185-1.07-7.055.02-2.67 1.557-3.683 4.6-2.7 8.125.5 1.816 1.85 3.155 3.902 3.87a9.76 9.76 0 0 0 2.84.52l-.002-2.227c-.038 0-3.853-.056-4.594-2.755-.957-3.48.644-5.02 1.684-5.625 1.2-.694 3.595-.693 4.855.004 1.337.74 1.435 2.283 1.435 4.735v4.52c0 1.598 2.227 1.703 2.227 1.703v-6.21c0-2.34 0-5.255-2.585-6.684m28.877 12.55v-6.94c.002-2.418 1.073-4.418 3.07-5.584 1.87-1.1 5.1-1.1 7.055-.02 2.585 1.43 2.585 4.342 2.585 6.684v6.215s-2.227-.105-2.227-1.702v-4.5c0-2.452-.096-3.995-1.435-4.735-1.26-.696-3.665-.7-4.855-.004-.817.478-1.984 1.53-1.977 3.653v6.95zm-3.3 0v-10.53s2.2.123 2.2 1.72v8.8zm2.2-12.713v2.08s-2.2-.123-2.2-1.72v-.36zm-13.425.22c1.954-1.08 5.185-1.07 7.055.02 2.67 1.558 3.683 4.6 2.7 8.125-.5 1.816-1.85 3.155-3.903 3.87-1.45.505-2.785.454-2.84.455l.001-2.2c.038 0 3.853-.01 4.594-2.708.958-3.48-.644-5.02-1.684-5.625-1.2-.694-3.595-.692-4.855.004-1.337.74-1.435 2.282-1.435 4.735v2.34c0 1.598-2.228 1.7-2.228 1.7v-4.043c0-2.34 0-5.255 2.585-6.684m-.375 18.212V20.22s-2.2.123-2.2 1.72v5.644zm-8.17-23.97v7.708s-2.2-.123-2.2-1.72v-6zm.313 13.28a7.634 7.634 0 0 1-.293-1.875l-.006-1.904c0-1.598-2.213-1.703-2.213-1.703v3.594a9.67 9.67 0 0 0 .363 2.478c.5 1.816 1.85 3.155 3.902 3.87 1.45.505 2.783.5 2.837.5l.001-2.216c-.038 0-3.853-.056-4.594-2.755m9.925 9.08v-4.125h-.37v4.125c0 .797.62 1.65 2.366 1.65h2.83v-.37h-2.83c-1.85 0-1.995-.978-1.995-1.278m6.057 1.645h.37v-4.23h-.37zm0-4.456h.37v-.544h-.37zm19.216.228h-.5l-1.57 1.835-1.575-1.835h-.5l1.817 2.12-1.805 2.108h.5l1.563-1.825 1.562 1.825h.5l-1.8-2.1zm-5.616 2.602c0 .13-.067 1.255-2.425 1.255-2.334 0-2.4-1.125-2.4-1.255V23.42h-.37v2.604c0 .166.078 1.625 2.773 1.625 2.717 0 2.795-1.46 2.795-1.625V23.42h-.37zm-9.2-2.602c-2.718 0-2.795 1.46-2.795 1.625v2.603h.37v-2.604c0-.13.068-1.255 2.425-1.255 2.334 0 2.4 1.125 2.4 1.255v2.604h.37v-2.604c0-.166-.077-1.625-2.772-1.625"/></svg>
