<svg xmlns="http://www.w3.org/2000/svg" viewBox="0 0 757 294"><path d="m8 293-4-2-1-3-2-2v-26l1-4 2-3 3-1 4-1h33l2 1 3 2 2 3 2 2v26l-2 3-2 3-3 2-4 1H11zm37-6 1-1 1-2v-25l-3-2-2-2H11l-2 2-3 3v25l2 2 2 2h33zm124 6-3-2-1-3-2-4v-25l2-3 2-3 3-1 3-2h32l3 2 3 1 2 3 2 3v25l-2 3-1 3-4 2-3 2h-32zm38-6 2-2v-25l-2-3-3-2h-31l-2 3-3 2v13l1 13 2 2 2 1h32zm158 5-3-2-2-3-2-3v-13l1-13 2-3 2-2 3-2 4-1h25l3 1 4 1 2 2 2 3 1 3v4h-5l-1-3v-3l-3-2-2-1h-15l-14 1-1 1-1 1-1 7-1 8 1 6 1 7 2 2 2 1h28l2-2 2-1v-3l1-3h5v4l-1 3-2 4-3 1-4 2h-28zm163 1-4-2-1-3-2-2v-28l1-2 1-2 3-2 4-1 13-1h18l4 1 3 3 4 3v28l-1 3-2 3-3 2-4 1h-31zm37-6 1-1 1-3v-24l-3-2-2-2h-30l-2 1-2 1-1 1-1 1v26l2 2 2 2h33zm96 5-3-2-2-2-1-3v-25l1-4 2-3 4-1 4-2h25l3 1 4 1 2 2 2 2 1 4v4h-5v-4l-2-3-3-2h-28l-2 3-3 2v13l1 13 2 2 2 1h29l2-2 1-2 1-3 1-3h4v6l-1 3-1 2-4 2-3 2h-29zm54 0-3-1-1-3-2-4v-1h6l1 2v3l3 1h15l12-1 2-1 2-2v-7l-2-2-2-2h-14l-14-1-3-1-3-1-1-2-1-2v-9l1-2 1-2 3-2 4-1 10-1h16l5 1 2 3 3 3v5h-5l-1-3-1-3-3-1h-15l-11 1-2 1-2 2v4l1 3 2 2 3 1h21l5 1 4 1 2 3 2 2v9l-1 3-2 3-4 1-4 2h-25zm-654 0-1-2v-19l1-20 20 1h20l3 2 2 3v12l-1 2-1 3-3 1-2 1-17 1H66v16h-5zm38-22 2-1v-10l-2-2-2-1H66v16h16l16-1zm32 5v-19h-20v-5h45v5h-20v37h-5zm92-3v-21h40v5h-35v13h34v5h-17l-16 1-1 6v7h35v5h-40zm46 0 1-20 2-1h3v37h32v5h-38zm44 0v-21h40v5h-17l-17 1v12h16l17 1v4h-34v14h35v5h-40zm120 3v-19h-10l-9-1-1-2v-2h46v5h-20v37h-6zm34-3v-21h36l4 1 4 1 1 2 2 2v11l-1 3-2 3h-1l-1 1 2 2 2 2v14h-5v-12l-2-2-2-2h-32v16h-5zm39-1 2-1v-12l-2-1-2-1h-32v16h31zm75 21-1-2v-19l1-20h9l18 18 18 18v-18l1-18h4v42h-7l-18-18-19-18-1 18v18h-5zm60-20v-21h5v42h-5zm-345-83v-45h11v80h68v10h-79zm96 44v-89h72l6 1 7 1 4 2 4 2 2 4 2 4v24l-2 5-2 4-2 1-2 2-5 2-4 1-34 1h-34l-1 18v18h-9zm72-45 7-1 2-1 2-1 1-3 1-3v-17l-1-2-1-3-3-1-2-1-34-1h-34v34h1l1 1h54zm41 45-1-1v-44l1-43 5-1h5v90h-10zm34-44v-45h18l40 39 39 38v-38l1-38h10v89h-14l-41-40-41-39-1 39v40h-11zm132 0v-45h86v10h-75v29h71v10h-71v31h75v10h-86z"/><path fill="#20497d" d="m2 231-2-1v-3l1-3 67-109L135 7l3-4 2-3h6l5 7 4 7 61 98 61 98 4 7 5 8v4l-2 2-2 2h-34l1-1 1-2v-5l-50-80-50-80-3-4-2-3h-3l-2 1-52 83-52 84v2l-1 2 1 2 1 1H3Zm74-4 4-7 3-6 4-6h112l7 13 8 12H71Zm34-56v-1l14-22 13-23 3-4 3-5 17 27 16 28v1h-66z"/></svg>