<svg xmlns="http://www.w3.org/2000/svg" viewBox="0 0 2182.6 666.6"><defs><clipPath id="a" clipPathUnits="userSpaceOnUse"><path d="M-129.6 72.4h1636.9v-500H-129.6Z"/></clipPath><clipPath id="b" clipPathUnits="userSpaceOnUse"><path d="M-358.4 72.4h1637v-500h-1637Z"/></clipPath><clipPath id="c" clipPathUnits="userSpaceOnUse"><path d="M-330.7 368.9h1636.9v-500h-1637Z"/></clipPath><clipPath id="d" clipPathUnits="userSpaceOnUse"><path d="M-1078.2 257.1h1637v-500h-1637Z"/></clipPath><clipPath id="e" clipPathUnits="userSpaceOnUse"><path d="M-861.6 266H775.3v-500h-1637Z"/></clipPath><clipPath id="f" clipPathUnits="userSpaceOnUse"><path d="M-1618.5 266h1637v-500h-1637Z"/></clipPath><clipPath id="g" clipPathUnits="userSpaceOnUse"><path d="M-1332.2 15.8h1637V-484h-1637Z"/></clipPath><clipPath id="h" clipPathUnits="userSpaceOnUse"><path d="M-837.2 380.6H799.7v-500h-1637Z"/></clipPath><clipPath id="i" clipPathUnits="userSpaceOnUse"><path d="M-1043.8 439.3h1637v-500h-1637Z"/></clipPath><clipPath id="j" clipPathUnits="userSpaceOnUse"><path d="M-1225.3 447.5H411.6v-500h-1637Z"/></clipPath><clipPath id="k" clipPathUnits="userSpaceOnUse"><path d="M-1339.8 473h1637V-26.8h-1637Z"/></clipPath><clipPath id="l" clipPathUnits="userSpaceOnUse"><path d="M-511.8 61.4H1125v-500H-512Z"/></clipPath></defs><path d="M0 0a15.8 15.8 0 0 1 15.8 15.8v1A15.8 15.8 0 0 1 0 32.4h-98a15.8 15.8 0 0 1-15.8-15.8V-364A15.8 15.8 0 0 1-98-379.7H0A15.8 15.8 0 0 1 15.8-364v1A15.8 15.8 0 0 1 0-347.3h-81.3V0Z" clip-path="url(#a)" transform="matrix(1.33 0 0 -1.33 172.8 96.5)"/><path d="M0 0a15.8 15.8 0 0 0-15.8 15.8v1A15.8 15.8 0 0 0 0 32.4h98a15.8 15.8 0 0 0 15.8-15.8V-364A15.8 15.8 0 0 0 98-379.7H0A15.8 15.8 0 0 0-15.8-364v1A15.8 15.8 0 0 0 0-347.3h81.3V0Z" clip-path="url(#b)" transform="matrix(1.33 0 0 -1.33 477.8 96.5)"/><path d="M0 0a21.4 21.4 0 0 1 19.3 30.8v.2l-.2.2-86.4 202.3-.8 1.3-.2.3-.3.4a21.4 21.4 0 0 1-2 2.7v.2l-.5.5a16 16 0 0 1-2.4 2.2l-.3.3-.5.3a21 21 0 0 1-14.4 3.9 21.6 21.6 0 0 1-7.7-2.2 21.5 21.5 0 0 1-2.8-1.7l-.4-.3-.4-.3c-.8-.6-1.6-1.3-2.4-2.3l-.4-.4-.2-.2a21.4 21.4 0 0 1-2-2.7l-.2-.3-.2-.3-.8-1.4-86.4-202.3-.1-.2-.1-.1A21.4 21.4 0 0 1-173.5 0c8.2 0 15.7 4.7 19.3 12l58 136 9.4 21.7h.1l9.3-21.7 58.1-136A21.6 21.6 0 0 1 0 0" clip-path="url(#c)" transform="matrix(1.33 0 0 -1.33 441 491.8)"/><path d="M0 0h-87.5v220a21.3 21.3 0 0 1-21.2 21.2A21.3 21.3 0 0 1-130 220V-24a18.4 18.4 0 0 1 18.4-18.4H0a21.3 21.3 0 0 1 21.2 21.3C21.2-9.5 11.7 0 0 0" clip-path="url(#d)" transform="matrix(1.33 0 0 -1.33 1437.6 342.8)"/><path d="m0 0-100.2 234.5a26.4 26.4 0 0 0-1 1.6l-.5.8a23.6 23.6 0 0 1-2.1 3l-.7.7a23 23 0 0 1-2.7 2.5l-.9.6a23.7 23.7 0 0 1-3.5 2.1l-.8.4a23.6 23.6 0 0 1-19.1 0l-.8-.4-.5-.2a23.8 23.8 0 0 1-3-1.9l-1-.6a23.4 23.4 0 0 1-2.7-2.5l-.6-.8a23.7 23.7 0 0 1-2.2-3l-.4-.7-1-1.6L-244-.3l-.2-.2a24 24 0 0 1 11.2-32 24 24 0 0 1 32 11l79 185 66.7-156h-62.8a21.3 21.3 0 0 1-21.3-21.1A21.3 21.3 0 0 1-118-35h97.6c3.4.2 6.6 1 9.5 2.4A24 24 0 0 1 .2-.5z" clip-path="url(#e)" transform="matrix(1.33 0 0 -1.33 1148.8 354.6)"/><path d="m0 0-100.2 234.5-1 1.6-.5.8a23.6 23.6 0 0 1-2.1 3l-.7.7a23 23 0 0 1-2.7 2.5l-.9.6a23.7 23.7 0 0 1-3.5 2.1l-.8.4a23.1 23.1 0 0 1-7.3 1.9 23.7 23.7 0 0 1-11.9-2l-.7-.2-.5-.3a23.9 23.9 0 0 1-3-1.9l-1-.6a23.4 23.4 0 0 1-2.7-2.5l-.6-.8a23.7 23.7 0 0 1-2.2-3l-.4-.7a26.6 26.6 0 0 0-1-1.6L-244-.3l-.2-.2a24 24 0 0 1 11.2-32 23.8 23.8 0 0 1 9.5-2.3h97.7a21.3 21.3 0 0 1 21.2 21.2c0 11.7-9.5 21.2-21.2 21.2h-62.8l66.6 156 79.1-185.1a24 24 0 0 1 32-11 24 24 0 0 1 11 32z" clip-path="url(#f)" transform="matrix(1.33 0 0 -1.33 2158 354.6)"/><path d="M0 0h-205.6a21.3 21.3 0 0 1-21.2-21.2c0-11.7 9.5-21.3 21.2-21.3h80.7v-220a21.3 21.3 0 0 1 21.3-21.2 21.3 21.3 0 0 1 21.2 21.2v220H0c11.7 0 21.2 9.5 21.2 21.3A21.3 21.3 0 0 1 0 0" clip-path="url(#g)" transform="matrix(1.33 0 0 -1.33 1776.2 21.1)"/><path d="M0 0h17.5v-79.4h49.3v-14.8H0Z" clip-path="url(#h)" transform="matrix(1.33 0 0 -1.33 1116.3 507.5)"/><path d="m0 0-17.8 41.2L-35.4 0Zm5.8-13.7h-47.1l-9.3-21.8h-18l42.4 94.2H-9l42.5-94.2H15.2Z" clip-path="url(#i)" transform="matrix(1.33 0 0 -1.33 1391.7 585.7)"/><path d="M0 0c0 9-6.8 13.6-20.3 13.6h-28.3v-27.2h28.3C-6.8-13.6 0-9.1 0 0m-48.6 53.2v-26h24.8a25 25 0 0 1 14 3.3c3.3 2.2 5 5.4 5 9.6a11 11 0 0 1-5 9.8 25 25 0 0 1-14 3.3zm61.6-40c3-4 4.6-9 4.6-15 0-8.1-3.1-14.4-9.4-18.9a47.3 47.3 0 0 0-27.5-6.6H-66v94.2h44.2c11 0 19.6-2.2 25.7-6.5a21 21 0 0 0 9-18A24 24 0 0 0 9.7 30a22.2 22.2 0 0 0-9-8.3A25 25 0 0 0 13.2 13" clip-path="url(#j)" transform="matrix(1.33 0 0 -1.33 1633.8 596.7)"/><path d="M0 0c-6.8 2-12.1 4.8-16 8.2l6 13.6a50 50 0 0 1 14.2-7.5A51.6 51.6 0 0 1 21 11.4c7 0 12.2 1.2 15.6 3.4 3.5 2.3 5.2 5.2 5.2 8.9 0 2.7-1 4.9-2.9 6.7a20.4 20.4 0 0 1-7.3 4c-3 1-7 2.2-12.1 3.4A141.5 141.5 0 0 0 2 43a28.8 28.8 0 0 0-11.4 8A21.7 21.7 0 0 0-14 65.7c0 5.2 1.4 10 4.3 14.2A28 28 0 0 0 3 90a51.7 51.7 0 0 0 20.9 3.8 68 68 0 0 0 17-2.1 47 47 0 0 0 14.4-6.2l-5.6-13.6a54.6 54.6 0 0 1-12.9 5.5 48.3 48.3 0 0 1-13 1.9c-7 0-12.1-1.2-15.5-3.5a11 11 0 0 1-5-9.3c0-2.7 1-5 2.9-6.6a20.8 20.8 0 0 1 7.3-4c3-1 7-2.2 12.1-3.4 7-1.6 12.8-3.3 17.3-5a29.5 29.5 0 0 0 11.5-8A21 21 0 0 0 59 24.8c0-5.2-1.4-10-4.2-14.1A28.7 28.7 0 0 0 42.1.7a52.5 52.5 0 0 0-21-3.8A72 72 0 0 0 0 0" clip-path="url(#k)" transform="matrix(1.33 0 0 -1.33 1786.4 630.8)"/><path d="M0 0h2.1c3 0 5 .1 5.7.3a3.3 3.3 0 0 1 1.7 5.2c-.4.5-1 1-1.8 1.2-.7.2-2.6.3-5.6.3H0Zm-5.2-14.7v25.8H8.3c1.7-.2 3-.5 4-1a6.5 6.5 0 0 0 2.4-2.5c.7-1.1 1-2.4 1-3.7A6.8 6.8 0 0 0 13.9-1a8.3 8.3 0 0 0-5.2-2.5 6.5 6.5 0 0 0 1.8-1c.5-.3 1-1 1.8-2l1.9-3 3-5.3h-6.4l-2.2 4.2A17.6 17.6 0 0 1 5-5.2 5.8 5.8 0 0 1 1.4-4H0v-10.6ZM5.8 18a20 20 0 0 1-9.6-2.5 18.2 18.2 0 0 1-7.3-7.2 19.8 19.8 0 0 1-2.6-9.8c0-3.4.8-6.7 2.5-9.8a18.5 18.5 0 0 1 7.3-7.2 19.5 19.5 0 0 1 19.4 0 18.6 18.6 0 0 1 7.2 7.2 19.6 19.6 0 0 1 0 19.6 18.2 18.2 0 0 1-7.3 7.2A20 20 0 0 1 5.8 18m0 4.8c4.1 0 8.1-1 12-3.2a22.6 22.6 0 0 0 9-9A24.6 24.6 0 0 0 30-1.6c0-4.2-1.1-8.2-3.3-12a23 23 0 0 0-9-9 24.4 24.4 0 0 0-12-3.3 24.4 24.4 0 0 0-12.2 3.3 22.9 22.9 0 0 0-9 9 24.4 24.4 0 0 0-3.2 12c0 4.3 1.1 8.4 3.3 12.3a22.5 22.5 0 0 0 9 9 24.8 24.8 0 0 0 12 3" clip-path="url(#l)" transform="matrix(1.33 0 0 -1.33 682.5 81.9)"/></svg>
