<svg xmlns="http://www.w3.org/2000/svg" xml:space="preserve" viewBox="0 0 1825 638"><path d="M395 637h-1v-73h2l1-1h5l1 1 1 2v5l4-3 4-3 4-1 3-1h12l3 1 3 2 4 3 3 3 2 6 1 5v15l-1 5-2 5-4 4-4 4-6 2-5 1h-5l-4-1-3-1-4-2-2-2-2-2v27h-10zm34-29 3-1 2-5 2-4v-15l-1-3-2-4-2-2-1-2-4-1-3-1-5 1-4 1-5 4-4 4v22l4 3 4 3 3 2 3 1h4l4-1zm676-7v-37h2l3-1h2l1 1 1 3v4h1l3-2 4-3 4-1 3-2h13l4 2 4 2 2 3 3 3 1 5 2 5v14l-2 5-1 5-3 4-3 3-4 2-4 2-4 1h-5l-4-1-4-1-4-2-3-3h-2v26h-10zm35 7 2-2 2-3 2-3 1-6v-7l-1-5-1-5-3-2-3-3-3-1-3-1-4 1-4 1-4 3-4 3-1 2-1 1v20l4 4 4 3 3 2 3 1h4l4-1zm172 29v-2l4-8 4-9-1-1h-1l-10-26-11-25v-2h2l1-1h5l2 1 1 1 8 20 8 20h1l1 1 7-19 7-19 2-3 1-2h6l1 1h2v2l-14 35-14 35-1 1-1 1h-10zM160 618l-4-2-2-3-2-3v-9l2-4 2-3 6-3 5-2 11-1h11v-5l-1-5-3-3-3-3h-13l-6 3-6 2h-2v-7l4-2 3-2 6-1 6-1 6 1h6l5 2 4 2 2 5 2 4v21l-1 21h-6l-2-1v-6l-5 3-4 4h-17zm24-9 4-3 1-5v-6h-17l-3 1-4 2-1 1-1 2v8l3 2 2 2h6l6-1zm88 9-6-1-3-2-4-2v-8h3l6 3 6 2h14l3-1 4-2 2-2 1-3v-8l-2-2-2-3-2-1-3-1-10-4-9-5-3-3-3-2-2-5-1-4v-4l1-4 2-4 3-4 5-2 4-2 7-1h8l6 2 5 1 2 1 1 1v8h-2l-6-2-6-3h-9l-3 1-4 2-1 1-1 2-1 3v4l3 3 3 4 11 5 11 4 3 3 4 3 1 3 2 4v8l-2 4-1 4-2 2-3 2-3 2-4 2-5 1-5 1h-8zm66 0-3-1-3-2-3-2-2-4-2-5v-40l3-1h2l2 1h3v39l3 3 2 3 3 1 4 1 4-1 4-1 5-4 4-4v-37h2l1-1h6l1 1 1 2v26l-1 26h-9v-8l-5 4-5 3-4 1-4 1h-6zm142 0-4-1-4-2-4-2-2-3-3-3-1-5-2-5v-12l1-4 2-5 3-5 4-4 5-2 5-2h16l4 2 5 2 3 4 3 3 1 5 1 4v4l-1 5h-20l-21 1 1 4v5l2 2 2 2 2 3 3 2h15l5-1 6-2h1l2-1v2l1 2-1 2v2l-5 2-5 1-8 1h-8zm22-33-1-4-1-4-3-3-3-3-6-1h-6l-3 2-4 1-2 4-2 3-1 3v3h31zm98 33-5-1-5-2-5-2-3-4-4-3-3-6-3-6 1-12v-11l2-6 2-6 4-4 4-5 7-3 6-3h18l5 1 4 1 3 2 3 3 1 3v3l-1 1-1 1-7-4-7-3h-8l-9 1-4 3-4 3-4 6-3 5v23l4 5 3 6 5 3 4 3h18l6-4 6-3h2v8l-3 2-4 2-5 2-5 1h-5l-5 1zm62 0-4-1-4-2-4-2-3-4-3-4-1-5-1-5v-7l1-7 3-5 2-5 4-2 3-3 4-1 4-2h16l5 2 5 1 4 5 4 4 1 4 1 4v16l-2 5-3 6-4 3-3 2-4 2-5 1-6 1h-7zm19-10 2-2 3-3 2-3v-5l1-5-1-6-1-5-4-4-4-4h-4l-4-1-4 1h-5l-3 4-4 4-1 4-1 5v6l1 6 2 3 2 4 4 2 4 2h6l6-1zm203 10-6-1-5-2-5-3-4-5-4-4-2-7-2-7v-10l1-9 2-6 3-6 4-5 4-4 6-3 6-2h18l5 1 4 1 3 2 3 3 1 2v3l-1 2-1 1-7-4-7-3h-8l-9 1-4 3-4 3-3 5-3 5-1 9v8l1 6 1 5 3 4 3 4 4 2 4 3h17l7-4 6-3h2v8l-3 2-4 2-5 2-5 1h-5l-5 1zm60 0-6-2-3-3-4-3-2-4-2-4-1-8v-9l1-5 2-5 4-4 5-5 5-1 5-2h16l5 2 5 2 3 4 4 4 1 5 1 5v11l-1 5-1 5-5 5-6 5-4 1-5 1-6 1h-6zm19-9 4-2 2-3 2-3 1-5 1-5-1-6-1-5-1-2-1-1-2-3-3-2-3-1-4-1h-5l-4 1-3 2-3 1-2 4-2 3-1 8v7l1 5 2 4 3 3 3 2h2l2 1h8zm219 9-4-2-3-3-3-2-1-4-1-3 1-3v-3l2-3 2-3 4-2 4-2 6-1 6-1h13l-1-5v-4l-1-2-1-2-4-1-3-2h-9l-7 3-6 2h-2l-1-1v-4l2-2 2-2 6-1 5-2h16l5 2 4 3 3 4 2 5v20l-1 21h-8v-6h-1l-3 2-2 2-5 2-5 1h-7zm17-8 2-1 4-3 3-2v-11h-10l-10 1-2 1-3 2-1 3-1 2v3l1 2 2 2 2 2h3l2 1 3-1h3zm-669 7-1-2v-49l1-2 1-1h5l1 1h2v9l3-4 3-3 2-1 3-2h8l3 1h2v8h-1v1l-4-1-4-1-3 1-3 1-4 5-4 4v18l-1 18h-9zm186 0v-53h8l1 3v4h1l4-3 5-4 4-1 5-1 4 1 4 1 3 1 2 1 2 3 3 3 4-3 4-3 4-2 3-1h11l3 1 4 2 2 3 3 4 1 5 1 6v17l-1 17h-10v-20l-1-19v-2l-1-1-2-3-2-2h-9l-3 2-3 1-3 3-3 4v18l-1 19h-10v-20l-1-21-1-1-2-2-1-2-2-1h-9l-4 3-4 3-1 2-2 2v18l-1 19h-8zm284 0h-1v-51l1-2 1-1h5l1 1h2v7l5-3 5-4 4-1 5-1 4 1 5 1 2 1 2 1 2 3 3 3 3-2 3-3 4-2 4-2h11l2 1h2l3 2 3 2 2 5 2 4v41h-10v-20l-1-19-1-3-1-2-2-1-2-2h-8l-3 2-3 1-3 3-3 4v18l-1 19h-10v-20l-1-19v-2l-1-1-2-3-2-2h-9l-3 2-3 1-3 3-3 4v18l-1 19h-9zm238 0v-53h8l1 3v4h1l3-3 3-2 4-2 3-1h13l4 3 5 2 2 4 2 5v41h-10v-20l-1-19-1-3-1-2-2-1-2-2h-9l-4 2-4 2-2 3-3 3v18l-1 19h-8z"/><path fill="#f68b33" d="m716 146-8-5-16-8-16-8-13-5-14-5-16-5-16-4-12-3-12-3-18-3-18-4-21-3-21-3-21-2-20-2-16-1-15-1-34-1-35-1-37 1-37 1-23 2-23 1-22 2-21 2-18 2-17 2-22 3-21 3-24 4-24 4-23 5-23 4-18 4-18 4H2v-1l13-6 13-6 11-4 12-5 17-6 16-5 19-6 20-5 23-6 23-6 27-6 27-6 30-6 31-6 32-6 33-5 23-3 23-4 26-3 26-4 31-3 31-4 16-1 17-2 18-1 18-2 23-1 24-2 25-1 25-1h70l20 1 19 1 18 1 17 2 15 2 15 2 14 3 14 3 12 4 12 3v2l-10 1-11 2-12 3-11 4-8 3-8 3-12 6-12 6-11 7-11 8-9 6-8 6-10 11-11 11-8 11-9 11-5 8-5 8-3 6-3 6h-1zM0 123v1z"/><path fill="#002b5a" d="m210 508-12-1-7-2-7-1-7-4-7-3-5-4-5-5-2-4-3-4-2-7-2-7v-19l2-5 2-6 3-4 3-5 3-3 3-3 5-3 5-2 6-3 7-2 11-2 10-1 24-1 23-1v-9l-1-5-2-5-3-3-3-3-6-2-5-1-11-1h-11l-15 1-14 1-10 1-10 2h-1v-32l6-1h5l14-2 14-2h57l10 2 10 3 6 3 7 3 5 5 5 5 3 5 2 4 2 6 1 6v116l-19 2-20 2-19 1-18 1h-8l-8-1zm43-31h6v-40h-37l-5 2-4 3-2 2-2 2-1 4-2 3 1 5v4l1 4 1 4 2 2 2 2 3 1 4 2 7 1h20zm400 31h-6l-8-1-9-1-8-3-7-2-6-4-7-4-4-6-4-6-1-6-2-6-1-8-1-7 1-7 2-7 2-5 2-5 6-5 5-5 8-4 7-3 9-2 9-2 14-1 15-1h29l-1-7-1-7-1-4-2-4-3-2-3-2-6-2-6-2h-19l-19 1-13 1-13 2h-3l-4 1 1-16v-16l8-1 8-1 13-1 13-2h52l7 2 8 1 7 3 7 2 5 3 5 3 3 4 4 4 3 6 2 6 1 7 1 6v111l-19 2-20 2-20 1-19 1h-7l-7-1zm39-31h7l-1-20v-20h-29l-7 1-6 1-4 2-3 3-2 3-2 4v13l2 2 1 3 2 3 2 2 3 2 3 1 8 1h20zm366 31-9-1-8-2-8-2-10-5-11-5-9-9-8-9-5-9-5-10-2-9-1-10-1-12v-12l2-9 1-8 3-7 2-6 4-6 3-6 6-5 5-6 6-3 6-4 7-3 8-3 7-2 8-1 15-1h15l10 1 10 1 8 2 9 3 7 4 7 3 8 8 7 7 5 10 4 9 2 10 2 11v24l-1 7-1 6-2 8-2 7-4 7-4 6-5 6-6 6-7 5-8 5-8 3-8 3-9 1-8 2h-9l-9 1zm24-34 6-1 4-4 4-4 2-5 2-5 2-6 1-7-1-21v-21l-2-5-2-5-3-4-3-5-6-3-6-3h-17l-4 2-4 1-5 3-4 3-3 5-3 6-1 8-2 8 1 19v18l2 7 2 6 3 3 3 4 3 2 4 3 4 1 5 2h13zm-748-83V278h55v226h-55zm124 112-27-77-28-77v-1h61l15 58 15 57v1h2l1-1 15-58 16-57h60l-1 5-2 4-29 74-29 73h-69zm311-77v-78h50v15h2l6-4 7-4 8-3 7-3 9-2 9-1h13v45h-32l-7 1-6 2-5 2-5 2v106h-56zm129 77V348h56v156h-54zm288-77v-78h50v15h2l11-5 10-5 8-3 8-2 8-2 9-1h15l6 1 5 1 6 3 7 3 5 5 5 5 3 6 3 5 1 7 1 6v117h-27l-28-1-1-53v-53l-2-3-3-4-3-2-4-3h-13l-7 1-6 1-6 2-7 2v113h-56z"/><path fill="#f68b33" d="m914 270-5-1-5-2-5-2-6-3-5-4-4-4-3-4-3-5-3-4-2-7-2-6v-20l2-7 2-6 4-6 3-5 5-5 5-5 6-3 6-3 6-1 5-2h16l5 2 6 1 4 2 4 2 6 4 5 4 5 7 4 6 3 7 2 7 1 8v8l-1 7-2 6-3 7-3 6-7 6-7 7-6 3-7 3-7 2-7 1h-7zm906 219c-4-6-116-79-157-103-131-75-266-128-376-147-27-5-43-6-78-5l-45 1-3-20c-11-65-47-121-100-155l-18-12 20 2q87 9 249 90c154 77 338 196 452 292 36 31 66 59 61 59z"/></svg>