<svg xmlns="http://www.w3.org/2000/svg" preserveAspectRatio="xMidYMid" viewBox="0 0 256 100"><g fill-rule="evenodd"><path fill="#f90" d="m33.3 95-15-5.4v-22l15 5.2zm2.8 0 15-5.4v-22l-15 5.2zM19.9 66 35 61.7l14.1 4.6-14 4.8zm-4.4-1.7L.5 59V37l15 5.2zm2.7 0 15-5.4V37l-15 5.2zM2 35.3l15.2-4.2 14 4.5-14 4.8zm48.5 29-15-5.5V37l15 5.2zm2.7 0 15-5.5V37l-15 5.2zM37 35.3 52.2 31l14 4.5-14 4.8zm31.3-1.8-15-5.3v-22l15 5zm2.7 0 15-5.3v-22l-15 5zm-16.2-29L70 .4l14 4.5-14 4.8zm48.5 29-15-5.3v-22l15 5zm2.7 0 15-5.3v-22l-15 5zm-16.2-29L105 .4l14 4.5-14 4.8z"/><path d="m95.6 80.7-5 17.5h-2.2l-3.9-13-3.6 13h-2.2l-5.3-17.5h2.7l3.9 13 3.6-13h2l4 13 3.8-13z"/><path stroke="#000" d="m95.6 80.7-5 17.5h-2.2l-3.9-13-3.6 13h-2.2l-5.3-17.5h2.7l3.9 13 3.6-13h2l4 13 3.8-13z"/><path d="m109.6 93 2.5.5a7 7 0 0 1-2.7 3.7q-2 1.5-4.7 1.5-3.6 0-5.8-2.6a10 10 0 0 1-2.2-6.6q0-4.2 2.3-6.7c2.3-2.5 3.4-2.6 5.8-2.6a7 7 0 0 1 5.5 2.4q2 2.4 2.1 7H99.7q0 4 1.7 5.4 1.5 1.5 3.5 1.4 3.3 0 4.7-3.4m-.2-5.4q0-1.5-.5-2.6-.4-1-1.5-2-1-.7-2.6-.7-2 0-3.4 1.4c-1.4 1.4-1.5 2.3-1.6 4z"/><path stroke="#000" d="m109.6 93 2.5.5c-1 3-4 5.2-7.2 5.2-2.4 0-4.8-1-6.2-2.8a11 11 0 0 1-1.8-8.7c.5-3.1 2.8-6 6-6.8 2.6-.6 5.6 0 7.4 2.2 1.6 2 2 4.6 2.1 7H99.7c0 1.9.2 4 1.6 5.3a5 5 0 0 0 5.5 1.2 5 5 0 0 0 2.8-3.1zm-.2-5.4c0-1.7-.6-3.6-2.1-4.6-2-1.3-4.8-.8-6.2 1.1q-1.2 1.6-1.3 3.5z"/><path d="M117.3 98.2H116V74.6h2.7v9q1.9-3.4 5.1-3.4 3 0 5 2.4 2.1 2.4 2.1 6.9 0 4-2 6.5a6 6 0 0 1-5.2 2.7q-3.6 0-5.4-3.4zm1.4-6.9q.2 2.7 1.7 4 1.5 1 3 1.1a4 4 0 0 0 3.4-1.8 8 8 0 0 0 1.3-4.9q0-3.3-1.3-5.3c-1.3-2-2-2-3.4-2q-1.6 0-3 1.4-1.5 1.4-1.7 3.6z"/><path stroke="#000" d="M117.3 98.2H116V74.6h2.7v9c1-1.9 2.8-3.4 5-3.4a7 7 0 0 1 6.3 4.3 14 14 0 0 1 .6 8c-.7 2.7-2.6 5.5-5.5 6a6 6 0 0 1-6-2c-.5-.6-.9-1.7-1-.5zm1.4-6.9a5 5 0 0 0 2.4 4.5c1.7 1 4.2.8 5.4-.8 1.7-2.1 1.7-5 1.4-7.4-.3-2-1.1-4.2-3-5-1.9-.6-4 .3-5 1.8a6 6 0 0 0-1.2 4.1z"/><path d="m137.9 93.6 2.6-.5q.8 3.3 5.4 3.3 1.7 0 2.9-.8 1.2-.7 1.2-2.1 0-2-3-2.6l-3.7-.7a7 7 0 0 1-3.4-1.6 4 4 0 0 1-1.3-3.2q0-2.2 1.7-3.7a7 7 0 0 1 4.7-1.5q5.8 0 7 4.5l-2.4.5q-1.1-2.7-4.5-2.7a5 5 0 0 0-2.7.6q-1 .7-1 2 0 1.8 2.7 2.4l3.4.6q5.3 1 5.3 5.2 0 2.4-2 3.9-1.9 1.5-5.3 1.5-6.2 0-7.6-5"/><path stroke="#000" d="m137.9 93.6 2.6-.5a4 4 0 0 0 3.2 3q3 1 5.5-.8c1.1-1 1-3-.3-3.7q-2-.8-4-1.1c-1.7-.3-3.6-.6-4.9-1.8-2-1.6-1.9-5 0-6.7s4.6-2 7-1.6a6 6 0 0 1 4.7 3.3q.7 1-.2 1l-2 .5c-.5-1.5-2-2.6-3.6-2.7-1.4-.1-3.2 0-4.2 1.3-.7 1-.3 2.6.8 3.2s2.5.6 3.8.9c2 .3 4 .7 5.4 2.2a5 5 0 0 1-.5 6.8c-2 1.8-5 2-7.7 1.6a7 7 0 0 1-5.1-3.5z"/><path d="m167.3 93 2.6.5a7 7 0 0 1-2.7 3.7q-2.1 1.5-4.8 1.5-3.5 0-5.8-2.6a10 10 0 0 1-2.2-6.6q0-4.2 2.3-6.7a7 7 0 0 1 5.8-2.6q3.4 0 5.5 2.4c2.1 2.4 2.1 4 2.1 7h-12.6q0 4 1.6 5.4t3.5 1.4q3.3 0 4.7-3.4m-.1-5.4q0-1.5-.5-2.6-.5-1-1.5-2-1-.7-2.6-.7-2 0-3.4 1.4a6 6 0 0 0-1.6 4z"/><path stroke="#000" d="m167.3 93 2.6.5a8 8 0 0 1-13.5 2.4 11 11 0 0 1-1.8-8.7c.5-3.1 2.9-6 6-6.8 2.6-.6 5.7 0 7.4 2.2 1.7 2 2.1 4.6 2.1 7h-12.6c0 1.9.1 4 1.5 5.3a5 5 0 0 0 5.5 1.2 5 5 0 0 0 2.8-3.1zm-.1-5.4c0-1.7-.6-3.6-2.2-4.6-2-1.3-4.8-.8-6.2 1.1q-1.1 1.6-1.2 3.5z"/><path d="M175.8 98.2h-2.7V80.7h2.4v4q1.3-2.7 2.5-3.6t2.6-.9h1V83h-.5q-2.2 0-3.7 1.6a7 7 0 0 0-1.6 4.4z"/><path stroke="#000" d="M175.8 98.2h-2.7V80.7h2.4v4c.6-1.3 1.3-2.9 2.7-3.7a5 5 0 0 1 3.5-.7v2.6q-2-.2-3.7 1a7 7 0 0 0-2.2 5.7z"/><path d="m198.6 80.7-6 17.5h-2.9l-6.2-17.5h3l4.9 14.2 4.8-14.2z"/><path stroke="#000" d="m198.6 80.7-6 17.5h-2.9l-6.2-17.5h3l4.9 14.2 4.8-14.2z"/><path d="M200.8 74.6h2.9v3h-3zm.1 6h2.7v17.6H201z"/><path stroke="#000" d="M200.8 74.6h2.9v3h-3zm.1 6h2.7v17.6H201z"/><path d="m217.9 92 2.4.5q-.5 3-2.3 4.5c-1.8 1.5-2.7 1.7-4.4 1.7q-3.7 0-5.5-2.7a11 11 0 0 1-2-6.5q0-4 2-6.7a7 7 0 0 1 5.5-2.6q2.8 0 4.6 1.7a8 8 0 0 1 2.1 4.4l-2.4.5q-.7-4.3-4.2-4.3-2.3 0-3.5 1.9t-1.2 5q0 3.4 1.2 5.1 1.3 2 3.4 2 3.4 0 4.3-4.4"/><path stroke="#000" d="m217.9 92 2.4.5c-.4 2.4-1.8 4.8-4.2 5.7-2 .8-4.5.6-6.4-.6a9 9 0 0 1-3.4-6.3c-.4-3 .1-6.5 2.2-9 1.8-2 5-2.6 7.5-1.7 2.5.8 4 3.3 4.3 5.7l-2.4.5c-.3-1.6-1-3.4-2.7-4-1.6-.7-3.8-.2-4.8 1.3-1.5 2.2-1.6 5-1.2 7.5.3 1.8 1 3.8 2.9 4.5 1.7.7 3.8.2 4.7-1.4q.9-1.2 1-2.6z"/><path d="m235.7 93 2.5.5a7 7 0 0 1-2.7 3.7q-2 1.5-4.7 1.5-3.6 0-5.8-2.6a10 10 0 0 1-2.2-6.6q0-4.2 2.3-6.7a7 7 0 0 1 5.8-2.6 7 7 0 0 1 5.5 2.4q2 2.4 2.1 7h-12.7q0 4 1.7 5.4 1.5 1.5 3.5 1.4 3.3 0 4.7-3.4m-.2-5.4q0-1.5-.5-2.6-.5-1-1.5-2-1-.7-2.6-.7-2 0-3.4 1.4a6 6 0 0 0-1.6 4z"/><path stroke="#000" d="m235.7 93 2.5.5c-1 3-4 5.2-7.2 5.2-2.4 0-4.8-1-6.2-2.8a11 11 0 0 1-1.8-8.7c.5-3.1 2.8-6 6-6.8 2.6-.6 5.6 0 7.4 2.2 1.6 2 2 4.6 2.1 7h-12.7c0 1.9.2 4 1.6 5.3a5 5 0 0 0 5.5 1.2 5 5 0 0 0 2.8-3.1zm-.2-5.4c0-1.7-.6-3.6-2.1-4.6-2-1.3-4.8-.8-6.2 1.1q-1.2 1.6-1.3 3.5z"/><path d="m240 93.6 2.6-.5q.9 3.3 5.5 3.3 1.7 0 2.9-.8 1.2-.7 1.2-2.1 0-2-3-2.6l-3.7-.7a7 7 0 0 1-3.5-1.6 4 4 0 0 1-1.2-3.2q0-2.2 1.7-3.7a7 7 0 0 1 4.7-1.5q5.7 0 7 4.5l-2.5.5q-1-2.7-4.4-2.7a5 5 0 0 0-2.7.6q-1 .7-1 2 0 1.8 2.7 2.4l3.4.6q5.3 1 5.3 5.2 0 2.4-2 3.9-1.9 1.5-5.3 1.5-6.2 0-7.7-5"/><path stroke="#000" d="m240 93.6 2.6-.5a4 4 0 0 0 3.3 3c1.8.5 4 .5 5.5-.8 1.1-1 1-3-.3-3.7q-2-.8-4-1.1c-1.8-.3-3.6-.6-4.9-1.8-2-1.6-1.9-5 0-6.7s4.6-2 7-1.6a6 6 0 0 1 4.7 3.3c.3.5.5 1.1-.3 1l-1.9.5c-.5-1.5-2-2.6-3.6-2.7-1.5-.1-3.3 0-4.2 1.3-.7 1-.3 2.6.8 3.2s2.5.6 3.8.9c2 .3 4 .7 5.4 2.2a5 5 0 0 1-.5 6.8c-2.1 1.8-5 2-7.7 1.6a7 7 0 0 1-5.1-3.5z"/><path d="M178.6 43.3V39c.3-1 1.5-.8 2.2-.9h18c1 .2.8 1.4.8 2.2v3q-1.4 2.3-3 4.5l-8.2 11.6q5.9-.3 11 2.5c1.1.8.7 2.2.8 3.4q.1 1.5-.1 3c-.8 1.3-2.1-.1-3.1-.4a22 22 0 0 0-18.1.9c-1.1.4-1.5-1-1.3-1.8q-.2-2.5.1-5.1 1-2 2.3-3.7l9.6-13.7h-10.1a1 1 0 0 1-.9-1m-67.3 26.3h-5.8c-1.3-.2-1-1.7-1-2.6V39c.4-1.2 1.8-.8 2.7-.9l4.1.1c1 .6.6 1.9.7 2.8v2c.8-1.5 1.7-3.4 3.3-4.3 3.3-2 8.2-1.5 10.4 1.8.8.7 1.3 3.6 1.8 1.5 1.9-4 7.2-5.6 11-3.7 2.8 1.1 4.4 4 4.5 6.8v23.6c-.3 1.2-1.7.8-2.7.9H136c-1.2-.5-.7-1.9-.8-2.8V48.6c0-1.9-1.2-3.9-3.2-3.7-2.3-.2-4 1.9-4.1 4q-.3 5.7-.2 11.4v8.4c-.4 1.2-1.8.8-2.7.9h-4.3c-1.2-.5-.8-1.9-.9-2.8V49.2c0-1.7-.7-4-2.8-4.3-2-.5-4 1-4.3 3-.6 3-.3 6.2-.3 9.3v11.5q-.4.8-1.2.9m102.1-32c8.5-.1 13 7.2 13 16.5 0 9-5 16-13 16-8.2 0-12.7-7.2-12.7-16.3s4.5-16.3 12.7-16.3m0 6.7c-4.1 0-4.4 5.7-4.4 9.3s0 10.5 4.4 10.5 4.7-5.4 4.7-9.2c0-2.5-.1-5.4-.9-7.8q-1-2.9-3.7-2.8m25.2 25.3H233a1 1 0 0 1-1-1.1V39q.1-1 1.1-1h5.3q.9.1 1 .8v4.5h.1c1.6-4 3.9-5.9 7.8-5.9q4.1-.1 6.7 3.5c1.5 2.3 1.5 6.3 1.5 9.1v18.5q-.1.9-1 1h-5.8a1 1 0 0 1-1-1v-16c0-3.2.3-7.9-3.6-7.9q-2.2.1-3.3 2.4a13 13 0 0 0-1 5.6v15.8q0 1-1 1m-74.4-14c0 2.6-.1 5.5-2.1 7.4-1.5 1.6-4.5 1.8-5.7-.1-1.5-2.5-.8-6.2 2-7.5q2.7-1.2 5.8-1zm5.7 14c-1.2 1-2.3-.9-3.1-1.6s-1.3-3-2.4-1.3c-2 2-4.7 3.4-7.6 3.3-3.1.3-6.5-.8-8.2-3.6a11 11 0 0 1-.2-10c1.5-3.3 5-5 8.4-5.7q3.6-.6 7.4-1c0-1.8.3-4.1-1.4-5.5-2.3-1.7-6.4-.6-7.1 2.4 0 1-1 1.5-1.9 1.2q-2.5-.2-4.9-.6c-1.5-1 0-3.2.5-4.4 2.1-3.8 6.6-5.3 10.6-5.5 3.7-.1 7.9.7 10.4 3.6 2.2 2.8 1.8 6.5 1.8 9.8v9.2c.2 1.9 1.4 3.3 2.4 4.8.3 1.4-1.6 1.9-2.3 2.8zm-80.2-14c.1 2.6 0 5.5-2 7.4-1.5 1.6-4.5 1.8-5.8-.1-1.4-2.5-.7-6.2 2-7.5q2.8-1.2 5.8-1zm5.8 14c-1.3 1-2.3-.9-3.1-1.6s-1.4-3-2.4-1.3c-2 2-4.8 3.4-7.7 3.3-3 .3-6.5-.8-8.1-3.6a11 11 0 0 1-.3-10c1.6-3.3 5-5 8.4-5.7l7.4-1c0-1.8.4-4.1-1.3-5.5-2.4-1.7-6.5-.6-7.1 2.4 0 1-1 1.5-2 1.2l-4.8-.6c-1.6-1 0-3.2.5-4.4 2-3.8 6.5-5.3 10.6-5.5 3.7-.1 7.9.7 10.4 3.6 2.2 2.8 1.7 6.5 1.8 9.8v9.2c.1 1.9 1.4 3.3 2.3 4.8.4 1.4-1.5 1.9-2.2 2.8z"/></g></svg>