<svg xmlns="http://www.w3.org/2000/svg" xml:space="preserve" viewBox="0 0 1415 367"><path d="m879 366-4-1-4-2-4-2-4-5-4-5-2-5-2-5-1-6v-7l1-5 1-5 2-5 2-4 4-4 4-4 6-3 5-2h16l5 2 6 3 4 4 4 4 2 6 2 5v21l-2 6-3 6-4 4-4 4-3 2-4 2-5 1-5 1h-6zm17-13 3-2 2-3 2-3 1-4 1-4v-8l-1-8-2-4-2-5-4-3-3-3h-13l-3 3-4 3-2 5-2 4-1 7v7l1 5 1 5 3 4 3 4 3 1 3 2h6l5-1zm273 13h-3l-6-2-5-1v-2l1-5 1-4 2 1h2l6 2 6 1h4l5-1 2-3 2-2v-7l-1-2-1-1-10-5-10-5-3-3-3-3-1-2-1-3v-7l2-4 1-3 2-2 2-2 5-3 5-2h17l3 1 4 2-1 2v3l-1 3-1 2h-2l-1-1-7-1-6-1-4 2-3 1-1 3-1 3 1 3 1 2 10 5 10 5 4 3 3 3 1 4 1 3v4l-1 4-1 4-4 4-3 4-5 1-5 2h-5l-5 1zm-718-1h-1v-68h16l9 15 9 15 5 10 5 10-1-25v-25h12v69h-7l-6-1-9-15-9-15-6-11-6-11v53h-11zm105-33v-35h40v10h-27v18h26v10h-26v20h29v5l-1 5-20 1h-21zm101 5v-29h-10l-10-1v-10h53v5l-1 5-9 1h-10v29l-1 28-6 1h-6zm90 28-8-33-8-32v-2h14l4 24 5 23 1 3v2l2-8 2-9 4-17 4-18h14v2l1 1 3 17 4 16 1 7 1 8 1-1 1-1 1-6 1-6 4-18 4-19h14l-1 4-1 3-9 31-8 30h-13l-3-10-2-11-4-15-3-16v4l-6 24-6 24-6 1h-7zm221 0h-1v-67l2-1h14l13-1 4 2 5 1 3 4 4 3 1 5 1 5-1 4-1 4-3 3-3 4-2 1h-2l3 3 3 3 1 3 1 2 2 10 3 10 1 1v2h-13l-1-3-1-2-2-9-2-8-3-3-3-3-5-1h-6v29h-12zm25-38 3-2 2-2 2-2v-2l1-3-1-4-2-3-3-2-4-1h-11v22h10zm72 38h-1v-68h13v30l11-15 11-15h16l-1 1-1 1-10 14-11 13 12 19 13 20v1h-15l-9-15-9-16h-1l-3 2-2 3-1 13v12l-6 1h-6zm168-13h-1v-36h12l12-1 3-2 4-2 4-5 5-5 4-6 4-6 3-5 3-6 4-10 5-10-28-69-28-70-5-11-4-11h-16V82l1-16h91v31h-25l19 52 18 51 1-1 18-51 18-51h-24V82l1-16h83v31h-14l-36 91-36 91-8 15-7 14-6 10-6 9-9 9-9 9-6 3-7 3-8 1-8 1h-21zm-171-93-5-1-7-1-6-2-11-6-11-5-8-6-7-7-7-8-7-8-4-8-4-9-2-6-2-6-2-8-1-8v-16l1-8 1-8 3-8 3-9 3-5 2-6 4-5 3-6 8-8 9-8 6-5 6-4 7-3 7-4 6-2 7-2 6-1 6-1h23l6 1 7 2 8 4 8 4 5 5 5 4 4 5 4 5V79l1-13h67v30h-23v129h23v31h-34l-33-1-1-12v-12l-8 8-9 9-7 3-7 4-7 2-7 2-12 1h-12zm37-45 7-3 5-3 5-3 3-3 3-4 4-5 4-6 3-6 2-6 1-7 1-7v-7l-1-7-2-6-3-7-3-5-4-6-6-5-6-6-6-3-7-3-7-2-7-1h-8l-9 1-6 2-7 2-5 3-5 3-4 4-4 4-4 6-4 7-3 7-2 7-1 8v8l1 7 2 7 2 5 3 5 4 6 4 5 5 4 4 4 6 3 6 3 5 2 5 1h11l11-1zm-668 26 1-17h20l41-111L535 1h59l40 110 41 109 1 2v1h20v32l-51 1h-52v-33h30v-2l-8-21-7-21v-1h-94l-8 22-8 21v2h30v33h-97zm164-95-17-51-17-51-1 1v1l-17 50-17 50v1h69zm112 96v-16h25V97h-25V66h70v18l1 17v-3l4-8 4-8 6-5 6-6 5-2 5-3 6-1 7-2h18v47l-6-2-6-1h-8l-7 1-7 3-6 3-5 5-5 4-3 6-3 7-2 8-1 7-1 37v37h31v30l-52 1h-51zm145-1v-15h25V97h-25V66h69v19l1 19 2-7 2-6 3-4 2-5 5-5 6-5 5-3 6-3 6-1 7-2h18v47l-6-2-5-1h-11l-6 2-5 1-5 3-5 3-4 4-4 5-2 5-3 5-2 7-1 8-1 37v38h30v31H852z"/><path fill="#e4701e" d="m56 363 2-4 6-8 5-8 8-10 8-11 16-16 17-16 13-10 13-11 16-11 16-11 15-8 15-9 14-7 15-8 12-6 13-5v-1h-1l-16 5-16 5-16 6-16 6-17 7-17 7-16 9-17 8-11 6-11 6-12 7-11 7-11 8-11 7-11 10-12 9-15 15-15 14-4 5-4 5v-23l14-13 14-14 13-11 13-10 12-8 12-9 16-9 16-10 20-10 20-10 13-6 13-5 16-7 16-6 11-4 11-3v-1l1-1-26 5-26 6-11 2-11 3-20 5-20 5-19 6-19 5-20 7-19 6-19 8-19 7-1 1H0v-15l6-3 5-2 13-5 13-5 18-6 18-6 22-6 22-7 20-5 20-5 25-5 24-6 23-4 22-5 24-4 25-4 19-2 19-3 14-1 15-1h21l3 1h2v205H119v-1l5-11 4-12 6-12 7-13 6-10 6-10 7-9 7-9 9-10 9-10h-1l-2 1-10 7-11 7-9 8-10 7-10 9-11 9-12 12-12 12-7 9-7 9-5 8-6 9H54zM1 187H0V0h266v2l-8 15-7 15-9 13-9 13-8 10-8 10-5 5-5 5 6-3 6-4 10-7 10-7 13-10 12-10 16-15 15-15 6-9 7-8h19l-2 3-2 4-8 9-8 10-9 9-10 10-12 11-12 11-11 8-12 9-12 8-12 8-10 6-10 6-16 9-15 8-17 8-17 7v1h1l24-8 23-8 17-6 16-7 13-5 13-6 16-8 15-8 13-7 13-7 12-9 13-8 10-7 10-8 11-9 11-9 12-13 12-12h6v14l-4 5-3 4-13 12-12 11-10 8-9 7-11 8-11 8-13 8-13 8-16 9-15 8-18 9-17 8-16 6-15 6-18 7-17 6h2l25-5 24-5 22-5 21-5 17-5 17-4 21-7 21-6 19-7 19-7 11-4 11-5h1v13l-12 5-12 5-17 6-18 7-17 5-17 6-18 5-17 5-16 4-15 4-24 5-24 6-27 5-27 6-21 3-20 4-19 2-18 3-16 1-16 1H1z"/></svg>