<svg xmlns="http://www.w3.org/2000/svg" xml:space="preserve" viewBox="0 0 666 258"><path fill="#019734" d="m0 257 1-1 2-1v-2l1-2 2-6 2-5 2-7 3-7 1-1 1-1 1-4v-3l2-2 1-2v-3l1-3 2-3 2-6 2-6 1-2 1-2 2-6 2-6 3-7 3-7 1-3v-2l2-4 1-3 1-2 1-2v-3l1-3 1-1h1v-4h62v2l-1 3-3 10-3 10-1 4-2 5h31v-34h31l32 1 1 13 1 14 1 16 1 17 2 17 1 17v10l1 11 1 4v4h-72v-19l-1-18-22-1H85l-1 1-1 1-5 18-6 17-36 1H0zm315 1 6-16 6-15 1-2 1-2 4-11 4-11 1-3 2-3 3-10 4-10 3-9 3-8 4-9 3-9 1-3 1-2h31l31 1-1 2v2l-4 11-3 11-1 3v4h14l14 1 1-1 1-1v-33h61l1 1 1 2v11l1 12v1l1 2v10l1 11 1 10 1 10 1 15 1 15 1 8v12l1 4h-72v-37h-46l-1 3-2 4-1 5-2 6-2 7-3 8v4h-73zm208-2v-3l1-7 1-7 1-4 1-3 1-9 1-8 1-7 1-6v-2l1-1v-6l1-6 1-3v-2l3-20 3-20 1-4 1-3 35-1h36v7l-1 8-2 8-1 9-1 9-2 7-1 7v7h61v3l-1 5-1 6-2 10-1 11-1 6-1 6-1 7-1 8H523zM58 107l1-2 1-3 1-3 1-3 1-2 2-3 1-3 1-3v-3l1-1 1-1 2-8 3-8 1-3 1-2 2-3 1-3 1-3v-2l1-3 2-3 1-4 2-4 1-2v-3h1l1-4 1-3 1-2 1-2v-3l1-3h2V9l2-3 1-3V0h85v9l1 10 1 14 1 15 1 18 2 18 1 10v10l1 3v3h-61V74h-2l-5 15-4 15-2 3-1 3H57zm314 1v-2l2-3 1-2v-2l3-7 2-6 2-4 1-3 4-11 4-11 1-2 1-2 3-8 3-7 1-4 1-4 5-11 4-11 1-4 1-4h86v11l1 12v3l1 4 1 16 1 16 1 6v7l1 12 1 12 1 5v6h-61V80l-1-3-1-3-1 4-2 5-4 13-5 14h-60zm174 0v-1l1-8 1-8 1-7 1-6 1-10 2-9 2-14 2-14v-3l1-2 1-7 1-7 1-6 1-6h73l-1 7-2 8-1 7-1 8-2 9-1 10v3l-1 4-1 7-1 7-2 8-1 9-1 7-1 7-1 4-1 5h-70z"/><path d="M224 257v-2l2-10 1-9 1-10 2-9 2-18 3-17 1-6 1-5 2-12 1-11 1-7 2-6 36-1h36v5l-1 6-1 9-2 9-2 11-1 11-1 8-2 9-1 8-1 8-1 9-2 9-2 11-1 11h-73Zm24-147h-2v-2l1-2 1-8 1-7 2-10 1-9 1-6v-5h-44v-5l1-5 1-9 2-8 2-12 1-11 1-6 1-5h161l-1 5v5l-1 8-2 8-1 7-1 8-2 9-1 10h-3l-3 1h-38v2l-1 9-2 10-1 10-2 11-1 4-1 4h-68z"/></svg>