<svg version="1.2" xml:space="preserve" xmlns="http://www.w3.org/2000/svg" viewBox="0 0 2175.72 1156.78"><defs><linearGradient id="a" x1="96.3" y1="77.1" x2="669.7" y2="650.5" gradientUnits="userSpaceOnUse"><stop offset="0" stop-color="#72bf44"/><stop offset="1" stop-color="#d7df23"/></linearGradient><linearGradient id="b" x1="1188.2" y1="123.7" x2="524.6" y2="642.4" gradientUnits="userSpaceOnUse"><stop offset="0" stop-color="#d7df23"/><stop offset="1" stop-color="#72bf44"/></linearGradient><linearGradient id="c" x1="479.7" y1="537.2" x2="754.3" y2="537.2" gradientUnits="userSpaceOnUse"><stop offset="0" stop-color="#39b54a"/><stop offset=".6" stop-color="#5dbb46"/><stop offset="1" stop-color="#72bf44"/></linearGradient></defs><path fill-rule="evenodd" d="m230.9 1568.4-41.5-60.5v60.5h-15.7v-87.9h15.9l39.5 57.7v-57.7h15.7v87.9zm61.9 0v-87.9H344v14.4h-34.6v20.8h28.7v14.2h-28.7v24.4h35.7v14.4h-52.5Zm139.5-73.4v73.4h-16.8V1495H389v-14.6h70.9v14.6zm162.2 73.4h-16.1l-19.5-64-19.5 64h-16l-24.7-88h17.5l16.6 62.2 18.4-62.2h17.1l18.4 62.2 16.1-62.2h17.1zm97.7 1.6c-22.9 0-41.4-20.4-41.4-45.6 0-25.3 18.5-45.7 41.4-45.7s41.4 20.4 41.4 45.7c0 25.2-18.5 45.6-41.4 45.6zm24.1-45.8c0-17.4-10.8-31.6-24.1-31.6s-24.1 14.2-24.1 31.6c0 17.5 10.8 31.7 24.1 31.7s24.1-14.2 24.1-31.7zm106.6 44.2-23.3-33.6h-7.2v33.6h-16.8v-87.9h27.3c19.8 0 31.4 9.4 31.4 26.5 0 12.8-6.9 20.8-17.9 24.7l25.3 36.7zm-21.3-74.4h-9.4v28h8.5c10.6 0 17.1-4.9 17.1-14.1s-5.6-13.7-16.2-13.7zm135.8 74.5-35.3-42.9v42.9h-17v-88h17v38.6l32.1-38.6H954l-35 41.1 38.1 46.9zm93.4.9c-10.8 0-18-2.5-25.8-6.1v-15.5c7.4 4.3 17.2 7.9 26 7.9 7.8 0 13.2-3.6 13.2-10.8 0-6.5-3.1-9.2-15.9-14.6-17.1-6.9-24-12.5-24-26.2 0-15.5 11.9-24.7 28.5-24.7 9.8 0 15 2 21.5 5.4v15.3c-6.3-4.3-14.6-7-21.5-7-8.6 0-12.1 4-12.1 9.4 0 5.6 2.9 8.3 15 13.5 18.2 7.4 24.7 13.7 24.7 27.3 0 17.3-12.6 26.3-29.6 26.1z" style="fill:#939598" transform="translate(937.72 -413.22)"/><path fill-rule="evenodd" d="M364.4 1325.3c.4 1.6.6 3.4.6 4.7 0 7-5.1 11.5-12.5 11.5h-37c-5.9 0-10.8-4.1-12.4-10.4l-40.4-136.8H102.5l-39.9 136.8c-1.3 5.6-7.4 10.4-13 10.4h-37c-7.2 0-12.6-5-12.6-11.5 0-1.3.2-3.4.9-4.9l116.2-390.3c11.9-40.8 46.5-46.9 65.8-46.9 19.3 0 53.6 5.9 65.2 46.3l116.3 391.3zm-192.5-377-56.6 195.1h134.4l-56.5-195.1c-2-6.3-5.2-9.4-10.3-9.4-5.7 0-9.2 2.9-11 9.4zm444.7 60.1c7.1 0 11.8 4.7 11.8 11.9 0 1.1 0 2.7-.6 4.7L543 1310.5c-7.4 24.5-25.4 35.5-58.4 35.5s-50.9-11-58.3-35.5l-84.8-285.7c-.7-1.8-.7-3.4-.7-4.7 0-7.2 4.7-11.9 11.9-11.9h34.6c3.5 0 10 1.6 13.6 12.5l72.3 261.8c3.8 15 6.9 16.1 11.4 16.1 4.1 0 7.7-1.3 11.5-16.1l72.2-261.8c3.6-11.2 10.1-12.7 13.7-12.7h34.6zm51.6 13.5c0-7.7 6.2-14 14-14h31c7.7 0 14 6.3 14 14v305.5c0 7.8-6.3 14-14 14h-31c-7.8 0-14-6.2-14-14zm229.9-14.6c84.8 0 124.3 35.2 124.3 110.5v141.6c0 69-30.5 82-86.8 82h-57.2c-69.3 0-104.3-32-104.3-95.1v-7.1c0-69.3 45.7-98.9 153.2-98.9h36.1v-22.2c0-47.4-15.2-61.9-65.5-61.9h-54.5c-7.9 0-14.4-6.6-14.4-14.2v-20.4c0-7.4 6.5-13.9 14.4-13.9h54.5zm65.3 181.5h-36.1c-72.5 0-94.5 12.1-94.5 52.4v5c0 40.3 18.2 47.5 56.1 47.5h42.6c24.5 0 31.9-8.1 31.9-34.3zm256.2 109.2c7.9 0 14.4 6.1 14.4 13.7v20.4c0 7.4-6.5 13.7-14.4 13.7h-37.9c-56.5 0-87.3-13-87.3-82.1V1056h-36.5c-7.9 0-14.4-6-14.4-13.7v-20.4c0-7.4 6.5-13.6 14.4-13.6h36.5v-64c0-6.7 5-11.9 11.2-11.9h36.4c6.3 0 11.2 5.2 11.2 11.9v63.7h66.2c7.8 0 14.4 6.1 14.4 13.7v20.4c0 7.4-6.6 13.7-14.4 13.7h-66.2v207.7c0 26 7.6 34.3 32.1 34.3h34.3z" style="fill:#000" transform="translate(941.72 -353.22)"/><path d="M617 320.3c-.4 76.7 0 252.1 0 252.1s-73.8 95.1-137.3 181.4C479.7 488.9 265 274.3 0 274.3V0c255.1 0 480.6 126.5 617 320.3z" style="fill:url(#a)"/><path d="M1234 0v274.3c-265 0-479.7 214.6-479.7 479.5C685.4 662.3 617 572.4 617 572.4s.4-152.8 0-252.1C753.4 126.5 978.9 0 1234 0Z" style="fill:url(#b)"/><path d="M479.5 754c0-161.4 50.9-311 137.3-433.7C703.4 443 754.1 592.6 754.1 754H479.7Z" style="fill:url(#c)"/></svg>
