<svg xmlns="http://www.w3.org/2000/svg" xml:space="preserve" viewBox="0 0 2175.7 1156.8"><defs><linearGradient id="a" x1="96.3" x2="669.7" y1="77.1" y2="650.5" gradientUnits="userSpaceOnUse"><stop offset="0" stop-color="#72bf44"/><stop offset="1" stop-color="#d7df23"/></linearGradient><linearGradient id="b" x1="1188.2" x2="524.6" y1="123.7" y2="642.4" gradientUnits="userSpaceOnUse"><stop offset="0" stop-color="#d7df23"/><stop offset="1" stop-color="#72bf44"/></linearGradient><linearGradient id="c" x1="479.7" x2="754.3" y1="537.2" y2="537.2" gradientUnits="userSpaceOnUse"><stop offset="0" stop-color="#39b54a"/><stop offset=".6" stop-color="#5dbb46"/><stop offset="1" stop-color="#72bf44"/></linearGradient></defs><path fill="#939598" fill-rule="evenodd" d="m1168.6 1155.2-41.5-60.5v60.5h-15.7v-88h16l39.4 57.8v-57.7h15.7v87.9zm62 0v-88h51.1v14.5h-34.6v20.8h28.7v14.2h-28.7v24.4h35.7v14.4h-52.5Zm139.4-73.4v73.4h-16.8v-73.4h-26.5v-14.6h71v14.6zm162.2 73.4h-16l-19.6-64-19.5 64h-16l-24.7-88h17.5l16.6 62.2 18.4-62.2h17.1l18.4 62.2 16.1-62.2h17.1zm97.7 1.6c-22.9 0-41.4-20.4-41.4-45.6s18.5-45.7 41.4-45.7 41.4 20.4 41.4 45.7c0 25.2-18.5 45.6-41.4 45.6m24.1-45.8c0-17.4-10.8-31.6-24-31.6s-24.2 14.2-24.2 31.6 10.8 31.7 24.1 31.7 24.1-14.2 24.1-31.7m106.6 44.2-23.3-33.6h-7.2v33.6h-16.8v-88h27.3c19.8 0 31.4 9.5 31.4 26.6 0 12.8-6.9 20.8-17.9 24.7l25.3 36.7zm-21.3-74.4h-9.4v28h8.5c10.6 0 17.1-5 17.1-14.1s-5.6-13.7-16.2-13.7zm135.8 74.5-35.3-43v43h-17v-88h17v38.6l32.1-38.6h19.8l-35 41 38.1 47zm93.4.9c-10.8 0-18-2.5-25.8-6.1v-15.5a55 55 0 0 0 26 7.9c7.8 0 13.2-3.6 13.2-10.8 0-6.5-3-9.2-15.9-14.6-17-7-24-12.5-24-26.2 0-15.5 12-24.7 28.5-24.7 9.8 0 15 2 21.5 5.4v15.3c-6.3-4.3-14.6-7-21.5-7-8.6 0-12 4-12 9.4 0 5.6 2.8 8.3 15 13.5 18.1 7.4 24.6 13.7 24.6 27.3 0 17.3-12.6 26.3-29.6 26"/><path fill-rule="evenodd" d="M1306.1 972q.6 2.7.6 4.8c0 7-5 11.5-12.5 11.5h-37c-5.9 0-10.8-4.1-12.4-10.4L1204.4 841h-160.2l-39.9 136.8a14 14 0 0 1-13 10.4h-37c-7.2 0-12.6-5-12.6-11.5 0-1.3.2-3.4 1-5l116.1-390.2c12-40.8 46.5-47 65.8-47s53.6 6 65.2 46.4l116.3 391.3zm-192.5-377L1057 790.3h134.4L1135 595q-2.8-9.4-10.3-9.4-8.4-.2-11 9.4m444.7 60.2c7.1 0 11.8 4.7 11.8 11.9q.2 1.6-.6 4.7l-84.8 285.5c-7.4 24.5-25.4 35.5-58.4 35.5s-50.9-11-58.3-35.5l-84.8-285.7q-.9-2.7-.7-4.7c0-7.2 4.7-12 12-12h34.5c3.5 0 10 1.7 13.6 12.6l72.3 261.8c3.8 15 7 16 11.4 16 4.1 0 7.7-1.2 11.5-16l72.2-261.8c3.6-11.2 10.1-12.7 13.7-12.7h34.6zm51.6 13.5a14 14 0 0 1 14-14h31a14 14 0 0 1 14 14v305.5a14 14 0 0 1-14 14h-31a14 14 0 0 1-14-14zm230-14.6c84.7 0 124.2 35.2 124.2 110.5v141.6c0 69-30.5 82-86.8 82h-57.2c-69.3 0-104.3-32-104.3-95.1V886c0-69.3 45.7-99 153.2-99h36.1v-22c0-47.4-15.2-62-65.5-62h-54.5c-7.9 0-14.4-6.5-14.4-14.1v-20.4c0-7.4 6.5-14 14.4-14h54.5zm65.2 181.5h-36c-72.6 0-94.6 12-94.6 52.4v5c0 40.3 18.2 47.5 56.1 47.5h42.6c24.5 0 32-8.1 32-34.3zm256.2 109.2a14 14 0 0 1 14.4 13.7v20.4c0 7.4-6.5 13.7-14.4 13.7h-37.9c-56.5 0-87.3-13-87.3-82.1V702.8h-36.5a14 14 0 0 1-14.4-13.7v-20.4c0-7.4 6.5-13.6 14.4-13.6h36.5v-64c0-6.7 5-12 11.2-12h36.4c6.3 0 11.2 5.3 11.2 12v63.7h66.2a14 14 0 0 1 14.4 13.7v20.4c0 7.4-6.6 13.7-14.4 13.7H2095v207.7c0 26 7.6 34.3 32.1 34.3h34.3z"/><path fill="url(#a)" d="M617 320.3c-.4 76.7 0 252.1 0 252.1s-73.8 95.1-137.3 181.4A479.5 479.5 0 0 0 0 274.3V0a753 753 0 0 1 617 320.3"/><path fill="url(#b)" d="M1234 0v274.3a479.5 479.5 0 0 0-479.7 479.5C685.4 662.3 617 572.4 617 572.4s.4-152.8 0-252.1A753 753 0 0 1 1234 0"/><path fill="url(#c)" d="M479.5 754c0-161.4 50.9-311 137.3-433.7A749 749 0 0 1 754.1 754H479.7Z"/></svg>