<svg xmlns="http://www.w3.org/2000/svg" viewBox="0 0 1226 177.4"><path d="M321.6 174.4h-35.3L346 3.6h40l59.6 170.8H410l-11.8-35.2h-66.7zm66.7-64.2-23.4-68-23.5 67.4zm166.3-106h38l-59 170.9h-33.8L443 4.3h36.4L517.6 135zM601 33l1.2-28h137.2l-.7 28h-52v141.2h-34V33zm276 38.2v28.7h-83v45h94v29.6H760.5V4h125v28.6H794V71zm183.7 45.2c-2.4 20.6-13.3 44-34.9 53.1a87 87 0 0 1-58.2 5.3 71 71 0 0 1-42.1-28.5c-12-15.7-16.4-30-16.5-53.5 0-16 3.7-33.5 9.2-45.5a73 73 0 0 1 42-41 81 81 0 0 1 62.1 0c13.5 5.7 31.7 17.7 39.2 51.9h-33.7c-2.6-12.8-9.8-23-19.7-26-16.4-4.7-22.2-2.7-38 3.7a53 53 0 0 0-22.6 42.9c-1 21.4-2.6 37.4 10.8 56 13.4 18.5 31 21.6 52.4 12.6 11-7.3 14-15.9 18.2-31zm62.9 57.8h-32.8V4.3h32.8V71h67.7V4.3h34.7V174h-34.7V99.4h-67.7z"/><g fill="#0fb15b" fill-rule="evenodd"><path d="M69 1.4h97.4L204 94.2c-11.4 16.7-30 34.2-41.1 32-25.5-6-13-79-51.7-81.8-20-1.7-36.6 11.1-70 26.5z"/><path d="M164.2 144.1c10 2 37-16 47-31.6l26.2 62H163l-5-9.2H82l-5.8 9.2H0l12.8-30.8c6.4-8.4 11-15.4 19.2-23.8 36.2-36.8 65.4-58.2 86.5-55 25.4 3 19.5 79.5 45.7 79.2"/></g></svg>