<svg xmlns="http://www.w3.org/2000/svg" viewBox="0 0 1225.9706 177.41826"><path d="M321.553 174.443h-35.24L346.043 3.64h39.932l59.607 170.803h-35.495l-11.83-35.285h-66.655zm66.755-64.23L364.93 42.288l-23.5 67.293zM554.649 4.274h37.91l-58.923 170.804H499.76L442.996 4.274h36.385l38.268 130.745zm46.306 28.629l1.268-27.994H739.36l-.634 27.994h-52.095v141.224h-34.02V32.902zm276.073 38.23V99.76h-82.996v45.104h93.879v29.579H760.646V3.957h125.046v28.628h-91.66v38.547zm183.655 45.204c-2.423 20.608-13.329 43.884-34.852 53.087-20.351 8.704-36.657 10.035-58.244 5.322-18.351-4.007-31.646-14.65-42.13-28.548-11.868-15.733-16.396-29.94-16.41-53.542-.01-16.043 3.65-33.412 9.133-45.414 7.562-19.104 21.947-32.9 42-41.13 19.196-8.23 42.79-8.083 62.15.107 13.424 5.678 31.658 17.705 39.185 51.85h-33.67c-2.657-12.789-9.86-23.063-19.78-25.934-16.328-4.726-22.129-2.784-38.004 3.67-12.852 7.93-21.574 24.147-22.523 42.886-1.083 21.401-2.676 37.415 10.734 55.967 13.433 18.585 31.105 21.663 52.478 12.606 11.043-7.3 14.026-15.842 18.132-30.927zm62.916 57.79h-32.752V4.274h32.752v66.833h67.743V4.274h34.654v169.852h-34.654V99.418h-67.743z"/><g fill="#0fb15b" fill-rule="evenodd"><path d="M69.074 1.438h97.367l37.58 92.808c-11.434 16.664-30.037 34.168-41.17 32.021-25.438-6.112-13.045-79.067-51.691-81.883-20.03-1.692-36.532 11.118-69.99 26.532z"/><path d="M164.224 144.108c10.047 1.974 37.031-16.098 46.96-31.564l26.231 61.957h-74.564l-5.032-9.19H81.946l-5.818 9.19H0l12.808-30.85c6.404-8.387 10.965-15.398 19.213-23.788 36.14-36.76 65.37-58.194 86.458-54.894 25.464 2.994 19.56 79.41 45.745 79.139z"/></g></svg>