<svg viewBox="0 0 190.5 69.5" xmlns="http://www.w3.org/2000/svg"><g fill-rule="evenodd"><path d="m79.6 12.1h9.2l.1.1v40l-.1.1h-9.2c-.1 0-.1-.1-.1-.1v-40s0-.1.1-.1zm-3 0s.1.1 0 .2l-12.2 19.8c-.1.1-.1.3 0 .5l12.3 19.5c.1.1 0 .2 0 .2h-11.4c-.1 0-.2-.1-.3-.1l-7.3-12.1c-.1-.1-.1-.1-.2 0l-6.9 12c-.1.1-.2.2-.3.2h-10.8c-.2 0-.2-.1-.1-.1l12.5-20.7c.2-.2.2-.4 0-.7l-11-18.5c-.1-.1 0-.2 0-.2h11.1c.1 0 .2.1.2.2l6.7 11.2c.1.1.1.1.2 0l6.9-11.2c0-.1.1-.2.2-.2z" fill="#222"/><path d="m155.3.7 33.1 51.7h-28.7l-10.9-16.9h-1.3l-.8-1.2h-12.9z" fill="#fbdd32"/><path d="m153.2 32.6 12.7 19.8h-40.4l12.7-19.8z"/><path d="m149.9 32.6 12.8 19.8h-40.5l12.7-19.8z" fill="#c74a43"/><path d="m35.9 12.1h-8.6c-.1 0-.2.1-.2.2l-25.8 40s0 .1.1.1h10.4c.1 0 .2 0 .2-.1l3.5-5.5c.1 0 .1-.1.2-.1h11c.1 0 .1.1.1.1v5.4c0 .1 0 .2.1.2h9l.1-.1v-40c.1-.1 0-.2-.1-.2zm-9 26.7v.1h-6.8c-.1 0-.1 0-.1-.1l7.2-11.5zm67.4 13.6h12.2c1.5-.1 3.1-.3 4.5-.8 5.6-1.8 8.6-7.3 8.6-12.1 0-7.6-5.9-10.2-12.9-13.2-1.2-.5-2.7-1.3-2.7-3 0-1.6 1.6-2.5 3.4-2.5h9.5c.1 0 .1 0 .1-.1v-8.7c0-.1 0-.1-.1-.1h-10c-8.3 0-13.3 4.9-13.3 11.8 0 6 3.8 9 9.4 11.3 3.9 1.5 6.5 2.2 6.5 5.4 0 1.6-1 3.3-3.1 3.3h-12.1v8.4c0 .3.1.3 0 .3zm-84.9 14.9c-1.1.5-2 .8-3.2.8-3.2 0-4.7-2-4.7-3.9.1-2.2 1.8-4.2 4.9-4.2 1.2 0 2.2.2 3 .7v1.8c-.9-.4-1.8-.8-2.7-.8-1.8 0-3 1-3 2.4 0 1.3 1.2 2.3 2.9 2.3 1.1 0 1.8-.2 3-.8v1.7zm11.6.7c-3 0-4.6-2-4.6-3.9 0-2 1.6-4.1 4.6-4.1 3.1 0 4.6 2.2 4.6 4.1 0 2-1.7 3.9-4.6 3.9zm0-6.3c-1.5 0-2.5 1-2.5 2.4s1 2.3 2.5 2.3 2.5-.9 2.5-2.3-1-2.4-2.5-2.4zm18.5-1.6h1.6v7.8h-1.9v-4.8l-2.2 2.4h-.2l-2.2-2.4v4.8h-2v-7.8h1.6l2.7 3zm16.4 0h1.8v7.8h-2v-4.8l-2.2 2.4h-.3l-2.2-2.4v4.8h-2v-7.8h1.8l2.6 3zm17.2 0v4.5c0 2.5-1.9 3.4-4.1 3.4-2.3 0-3.9-1-3.9-3.4v-4.5h2v4.5c0 1.1.9 1.8 2 1.8s2.1-.4 2.1-1.9v-4.4zm15.4 7.8h-1.6l-4.5-4.9v4.9h-2v-7.8h1.9l4.2 4.9v-4.9h2zm7.7 0h2v-7.8h-2zm16.4-.6c-1.1.5-2 .8-3.2.8-3.1 0-4.7-2-4.7-3.9 0-2.1 1.8-4.1 4.8-4.1 1.2 0 2.2.2 3 .7v1.8c-.9-.4-1.8-.8-2.7-.8-1.8 0-3 1-3 2.4 0 1.3 1.2 2.3 2.9 2.3 1.1 0 1.8-.2 3-.8v1.6zm14.4.6h-2.1l-.7-1.5h-3.6l-.7 1.5h-2.1l3.2-7.8h2.4zm-4.7-5.9-1.1 3.1h2.4zm16.4-.4h-2.8v6.3h-2.1v-6.3h-2.8v-1.5h7.7zm6.2 6.3h2v-7.8h-2zm12.7.1c-3 0-4.6-2-4.6-3.9 0-2 1.5-4.1 4.6-4.1 3 0 4.6 2.2 4.6 4.1 0 2-1.7 3.9-4.6 3.9zm0-6.3c-1.5 0-2.5 1-2.5 2.4s1 2.3 2.5 2.3 2.5-.9 2.5-2.3-1-2.4-2.5-2.4zm18.6 6.2h-1.6l-4.5-4.9v4.9h-2v-7.8h1.9l4.3 4.9v-4.9h1.9zm11.8-5.7c-1.2-.5-1.9-.8-2.6-.8s-1.1.3-1.1.7c0 1.2 4.1.9 4.1 3.6 0 1.4-1.3 2.3-3.1 2.3-1.4 0-2.1-.3-3-.8v-1.6c1.2.8 1.9 1 2.7 1s1.2-.2 1.2-.7c0-1.3-4.1-.9-4.1-3.6 0-1.4 1.2-2.3 3.1-2.3.9 0 1.6.2 2.7.7v1.5z" fill="#222"/></g></svg>