<svg xmlns="http://www.w3.org/2000/svg" viewBox="0 0 190.5 69.5"><g fill-rule="evenodd"><path fill="#222" d="M79.6 12.1h9.2l.1.1v40l-.1.1h-9.2l-.1-.1v-40zm-3 0s.1.1 0 .2L64.4 32.1v.5l12.3 19.5v.2H65.3l-.3-.1-7.3-12.1q-.1-.1-.2 0l-6.9 12-.3.2H39.5q-.3 0-.1-.1l12.5-20.7q.3-.3 0-.7l-11-18.5v-.2H52l.2.2 6.7 11.2q.1.2.2 0L66 12.3l.2-.2z"/><path fill="#fbdd32" d="m155.3.7 33.1 51.7h-28.7l-10.9-16.9h-1.3l-.8-1.2h-12.9z"/><path d="m153.2 32.6 12.7 19.8h-40.4l12.7-19.8z"/><path fill="#c74a43" d="m149.9 32.6 12.8 19.8h-40.5l12.7-19.8z"/><path fill="#222" d="M35.9 12.1h-8.6l-.2.2-25.8 40 .1.1h10.4l.2-.1 3.5-5.5.2-.1h11l.1.1v5.4l.1.2h9l.1-.1v-40q.1-.2-.1-.2m-9 26.7v.1h-6.8l-.1-.1 7.2-11.5zm67.4 13.6h12.2a17 17 0 0 0 4.5-.8c5.6-1.8 8.6-7.3 8.6-12.1 0-7.6-5.9-10.2-12.9-13.2-1.2-.5-2.7-1.3-2.7-3s1.6-2.5 3.4-2.5h9.5l.1-.1V12l-.1-.1h-10c-8.3 0-13.3 4.9-13.3 11.8 0 6 3.8 9 9.4 11.3 3.9 1.5 6.5 2.2 6.5 5.4 0 1.6-1 3.3-3.1 3.3H94.3zM9.4 67.3q-1.5.8-3.2.8c-3.2 0-4.7-2-4.7-3.9C1.6 62 3.3 60 6.4 60q1.8 0 3 .7v1.8q-1.4-.7-2.7-.8-2.9.1-3 2.4.2 2.1 2.9 2.3c1.1 0 1.8-.2 3-.8v1.7zM21 68c-3 0-4.6-2-4.6-3.9 0-2 1.6-4.1 4.6-4.1 3.1 0 4.6 2.2 4.6 4.1 0 2-1.7 3.9-4.6 3.9m0-6.3q-2.4.2-2.5 2.4c-.1 2.2 1 2.3 2.5 2.3s2.5-.9 2.5-2.3-1-2.4-2.5-2.4m18.5-1.6h1.6v7.8h-1.9v-4.8L37 65.5h-.2l-2.2-2.4v4.8h-2v-7.8h1.6l2.7 3zm16.4 0h1.8v7.8h-2v-4.8l-2.2 2.4h-.3L51 63.1v4.8h-2v-7.8h1.8l2.6 3zm17.2 0v4.5c0 2.5-1.9 3.4-4.1 3.4-2.3 0-3.9-1-3.9-3.4v-4.5h2v4.5q.2 1.7 2 1.8c1.8.1 2.1-.4 2.1-1.9v-4.4zm15.4 7.8h-1.6L82.4 63v4.9h-2v-7.8h1.9l4.2 4.9v-4.9h2zm7.7 0h2v-7.8h-2zm16.4-.6q-1.5.8-3.2.8c-3.1 0-4.7-2-4.7-3.9 0-2.1 1.8-4.1 4.8-4.1q1.8 0 3 .7v1.8q-1.4-.7-2.7-.8-2.8.1-3 2.4.2 2.1 2.9 2.3c1.1 0 1.8-.2 3-.8zm14.4.6h-2.1l-.7-1.5h-3.6l-.7 1.5h-2.1l3.2-7.8h2.4zm-4.7-5.9-1.1 3.1h2.4zm16.4-.4h-2.8v6.3h-2.1v-6.3H131v-1.5h7.7zm6.2 6.3h2v-7.8h-2zm12.7.1c-3 0-4.6-2-4.6-3.9 0-2 1.5-4.1 4.6-4.1s4.6 2.2 4.6 4.1c0 2-1.7 3.9-4.6 3.9m0-6.3q-2.4.2-2.5 2.4c-.1 2.2 1 2.3 2.5 2.3s2.5-.9 2.5-2.3-1-2.4-2.5-2.4m18.6 6.2h-1.6l-4.5-4.9v4.9h-2v-7.8h1.9l4.3 4.9v-4.9h1.9zm11.8-5.7q-1.7-.8-2.6-.8-1.2 0-1.1.7c0 1.2 4.1.9 4.1 3.6q-.2 2.2-3.1 2.3c-1.4 0-2.1-.3-3-.8v-1.6q1.6 1.1 2.7 1c1.1-.1 1.2-.2 1.2-.7 0-1.3-4.1-.9-4.1-3.6q.1-2.2 3.1-2.3a6 6 0 0 1 2.7.7v1.5z"/></g></svg>