<svg xmlns="http://www.w3.org/2000/svg" xml:space="preserve" viewBox="0 0 392 112"><path fill="#cf2031" d="m51 112 3-5 10-36 8-32v-8h68l5 1 5 1 3 2 2 2v10l-2 7-2 7-3 3-2 3-4 1-6 1h-3v2h4l5 1 2 2 2 1v3q-1 26-19 32l-6 2H86Zm60-14 3-11 2-9-1-1v-1H93l-2 8-3 11v4h21Zm8-36 2-1 1-7 2-7-1-2v-1h-22l-1 3-2 9c-2 8-3 8 9 8h11zm20 44a485 485 0 0 0 39-53l13-17-1-2-1-2h36l12 74c3 9 4 6 14-32l7-28-1-1h-19l-2 1-3 1v-1l2-7 3-7h79l-1 3-1 5-1 4v1l2-3 2-4 4-3 4-3h65v3l-1 7v5l-3-2-4-1h-38l-2 2-2 6v3l1 1 1 1h33l3 1 4 2 1 2 1 6v4l-3 12-3 13-3 5-3 5-6 2-5 3h-62v-10l1-5 3 1 2 1h42l1-2 1-6 1-3-1-1-2-1h-33l-3-1-3-1-1-2-1-6v-5l3-12c3-14 4-13-2-14l-4-1h-7l-8 1-2 5-7 30-6 24v8h-73l1-3 2-3-1-6-1-8-1-2h-35l-4 6-7 9-1 3v2l1 2h-21Zm60-29c1-1-4-26-4-27-1 0-19 25-19 27v1h23z"/><path d="M48 110q-8-2-18-10l-5-4-4-6-4-6-2-7-2-7V54l2-7 4-9 1-2 4 1 8 1h4l2-1 3-2-1-9V16l5-2 13-3 7-1 7 1 7 1 8 4 8 4 4 5 5 4H70v6q1 10-5 4l-5-3h-2l1 10v9l-10 2-9 2 17 25h-8l-8-1 1 1 5 14 4 13s34 0 0 0zm64-67s-9 10 0 0m-2 13-8-7-2-1 1-2 1-2h11l1 4c2 3 3 13 2 13zM23 36l-5-2-6-4-9-7-3-3 2 1 5 1 3 1 6-7 6-6-1-4V0l7 7 8 7 2 4 1 4v12l-1 2-2 1h-4z"/></svg>