<svg xmlns="http://www.w3.org/2000/svg" xml:space="preserve" viewBox="0 0 723 122"><path fill="#16284d" d="m55 121-14-5-7-4-8-8-7-7-4-8-5-14-2-7 1-10V46q1-3-4-18L1 8 0 3l5 3 20 12 5-4c21-18 54-19 78-1l6 5 9-5 12-8 4-2v2l-2 10-5 19-3 11 1 8 1 8-1 8q-3 22-19 37l-7 7-7 3-13 5-6 1h-9zm29-19c12-4 27-20 27-28v-1l-4-1-31-6h-1l10-6 25-13c3-3-11-19-20-24l-6-4-8-1-7-1-6 1q-13 3-23 11l-5 5-4 6-3 7 10 4c12 6 26 15 26 16l-32 5-5 1 1 2c4 13 18 26 33 29l6 1h6zm260 9-12-3-5-3-5-5-5-5-2-5-2-6-1-36V12h16v69l3 5 2 5 5 3 4 3h7l7 1 4-2q8-2 13-10l2-4V12h15v74l-2 5-7 9-4 5-6 2a43 43 0 0 1-18 5zm171 0c-25-2-43-24-43-51v-8l2-6q8-27 36-34l7-2 8 1h9l6 2 11 5 4 3-4 6-5 5-4-2-11-4-6-2-6 1q-11 1-19 8l-4 3-4 7-3 6v23l3 6q5 11 16 16l6 3h6l7 1 6-2 10-5 5-2 5 4 5 5-2 2c-7 8-26 13-41 11M162 61V12h43l6 2 5 3 4 4c8 9 8 25 0 33l-4 4 5 4q7 7 9 17l1 6-2 6-2 6-5 4-4 5-5 2-5 2h-23l-23 1zm45 33 5-5 2-3v-9l-2-4-1-3-5-2-4-3h-24v31h26zm-3-43 5-5 1-2V34l-2-3-5-4-4-2h-21v27h22zm41 10V12h16v84h43v14h-59zm161 0V12h58v13h-43v28l18 1h17v13h-35v29h45v14h-60zm174 0 18-49h16l17 49 18 49h-16l-5-14-5-14-18 1h-17l-5 14-4 13h-16zm38 8-12-37-2 5-7 20-5 12zm57-1V25h-33V12h81v13l-16 1h-16v42l-1 42h-15z"/></svg>