<svg xmlns="http://www.w3.org/2000/svg" fill="none" viewBox="0 0 68 68"><path fill="#041b29" d="M10 40.4a3 3 0 0 1 1.2 2.5 4 4 0 0 1-.6 2l-.6.6-.7.4 1 .5.9.7.5 1q.3.5.2 1.2 0 .8-.3 1.6l-1 1.1q-.7.5-1.6.7-1 .3-2 .3H.6V39.4h6q2.1 0 3.3 1M8 44.7q.7-.5.7-1.4T8.2 42t-1.8-.5H3v3.7h3.3q1.1 0 1.8-.5m.8 5.7q.7-.5.7-1.4t-.7-1.4-2.1-.4H3v3.7h4q1.2 0 1.9-.5m9.7-11V53h-2.4V39.4zm7.2 4.3.5.5 1 .5 1.6.4 1.9.6 1.4.8a3 3 0 0 1 1 2.6l-.3 1.7q-.3.8-1 1.3t-1.5.8-2 .3q-1.5 0-3-.6-1.4-.5-2.6-1.6l1.4-1.7q1 .9 2 1.3t2.3.5a3 3 0 0 0 1.8-.5q.6-.4.6-1.3l-.1-.6-.5-.5-1-.5-1.5-.4-1.9-.6q-.9-.3-1.4-.8l-.9-1.1q-.3-.6-.3-1.6a4 4 0 0 1 1.3-2.9l1.5-.8q.8-.3 1.8-.3a8 8 0 0 1 5 1.7l-1.3 1.8-1.9-1-1.8-.4q-1 0-1.6.5t-.6 1.2zm24.8 5.2a7 7 0 0 1-3.7 3.8q-1.4.5-2.9.5a7 7 0 0 1-5-2 7 7 0 0 1-2-5 7 7 0 0 1 2-5 7 7 0 0 1 5-2 7 7 0 0 1 5.1 2 7 7 0 0 1 2 5 7 7 0 0 1-.5 2.7m-2.3-4.5-1-1.6a5 5 0 0 0-5.1-1 4 4 0 0 0-2.4 2.5 5 5 0 0 0 0 3.8q.3.8 1 1.5a5 5 0 0 0 5 1 4 4 0 0 0 2.5-2.5 5 5 0 0 0 0-3.7m16.6-5h2.4V53h-2l-7.5-9.7V53h-2.4V39.4h2.2l7.3 9.4zM5.9 67l-2-2.7H2V67H.7v-8h3.6q.7 0 1.2.2.6.1 1 .5l.6.8.2 1q0 .6-.2 1a2 2 0 0 1-1 1.2l-.7.3 2.1 3zm-.5-6.4-1.2-.3H2V63h2q.9 0 1.3-.4t.4-1-.4-1m15 3.9a4 4 0 0 1-2.2 2.3q-.8.3-1.7.3a4 4 0 0 1-3-1.2 4 4 0 0 1-1.3-3 4 4 0 0 1 1.2-3 4 4 0 0 1 3.1-1.2 4 4 0 0 1 3 1.2 4 4 0 0 1 1.2 3q0 .9-.3 1.6M19 61.8l-.5-1a2.7 2.7 0 0 0-4 0l-.6 1a3 3 0 0 0 0 2.2 3 3 0 0 0 1.5 1.6l1.1.2A3 3 0 0 0 19 64a3 3 0 0 0 0-2.2m13.6 1.7q0 .8-.2 1.5-.3.8-.7 1.2l-1.1.7-1.5.2q-.8 0-1.4-.2A3 3 0 0 1 26 65l-.2-1.6V59H27v4.6q0 1 .6 1.7.4.6 1.5.6a2 2 0 0 0 1.5-.6q.5-.6.5-1.7V59h1.4zm8.9 3.5H40v-6.7h-2.5V59H44v1.3h-2.6zM55 60.3h-4.6v2h4.1v1.3h-4v2.2H55v1.3h-6V59h6zM65.5 67l-2-2.7h-1.8V67h-1.4v-8h3.6q.7 0 1.2.2.6.1 1 .5l.6.8.2 1q0 .6-.2 1a2 2 0 0 1-1 1.2l-.8.3 2.2 3zm-.5-6.4-1.2-.3h-2.1V63h2q.9 0 1.3-.4t.4-1-.4-1M51.3 32.2h-.5V30h-.9v-.5h2.3v.5h-.9zm3-.6h-.1l-.9-1.4v2h-.5v-2.8h.6l.8 1.3.9-1.3h.5v2.8h-.5v-2z"/><path fill="#4dafb6" d="M44.4 32.1h-2.1q-.2 0-.1-.1c2-6.5-.9-13.7-5.2-13.5s-12.8 8.8-17.3 13.6h-3a.1.1 0 0 1 0-.2C21 27 31.4 16.7 36.8 16.5q4.2-.2 6.6 4.4c1.6 2.9 1.9 7.3 1 11.1z"/><path fill="#6d67a8" d="M37.8 32.1h-2.2a.1.1 0 0 1-.1-.2c1.2-2.1 1.8-4.4 1.3-5.2q.1-.4-1.6-.4c-1.8.2-5.1 2.9-8 5.8h-3q-.2 0 0-.2c2-2.1 7.7-7.6 11-7.9 3.9-.4 4.7 3.6 2.7 8z"/><path fill="#00b7c2" d="M47.5 10V8.5zM52.8.7"/><path fill="#6d67a8" d="M59.6 16.6c-1 3.6-4.5 10.1-4.5 10.1l-5.7-.2s-3.1-13-9.2-15.7C35 8.5 21.1 21.5 13 32.1H9.8l-.2-.2a158 158 0 0 1 14.8-15.6Q35.5 5.9 41 8.3c5.7 2.5 9 12.5 10 16.4h3a56 56 0 0 0 3.8-9.5c-.2-.8-1.5-1.8-2.6-2.7q-1.7-1.2-3-2.8l-.5-.5q-1.1-1.3-1.7-3c-1 2.4-1.2 3.8.8 5.7l.3.3L53 14q1.3 1.4.7 2.7c-.3 1-1 1.8-1 1.8 0-1.1.1-1.6-.4-2.3q-.5-.8-2.8-3a7 7 0 0 1-1.9-3.2V8.5A9 9 0 0 1 52.7.8c-2.2 4.8-.4 6 1 7.8 1.5 2.1 5.2 3.8 6 6.1l-.2 2"/></svg>