<svg fill="none" viewBox="0 0 68 68" xmlns="http://www.w3.org/2000/svg">
  <path d="M9.9825 40.3613C10.7812 40.9827 11.1812 41.8293 11.1812 42.9027C11.1812 43.3167 11.1265 43.6853 11.0178 44.008C10.9092 44.3313 10.7685 44.6133 10.5952 44.852C10.4225 45.0913 10.2172 45.3013 9.9805 45.4827C9.74384 45.6633 9.50384 45.8187 9.2605 45.948C9.65784 46.09 10.0205 46.254 10.3478 46.4407C10.6752 46.628 10.9572 46.85 11.1945 47.108C11.4318 47.3653 11.6145 47.6713 11.7432 48.026C11.8718 48.3807 11.9358 48.7893 11.9358 49.2533C11.9358 49.8587 11.8165 50.3933 11.5778 50.8573C11.3392 51.3213 11.0012 51.7113 10.5632 52.0267C10.1252 52.3427 9.5965 52.5807 8.97784 52.742C8.35917 52.9033 7.67584 52.9833 6.92917 52.9833H0.666504V39.4307H6.73584C8.10117 39.4307 9.18384 39.7407 9.9825 40.3613ZM8.12384 44.7047C8.58717 44.4 8.8185 43.9293 8.8185 43.2933C8.8185 42.7353 8.61584 42.3033 8.2105 41.9987C7.80517 41.6933 7.2165 41.5413 6.4445 41.5413H3.02917V45.162H6.27117C7.0425 45.162 7.6605 45.0093 8.12384 44.7047ZM8.8785 50.4C9.34184 50.084 9.57317 49.616 9.57317 48.996C9.57317 48.4153 9.3445 47.9633 8.88784 47.6407C8.43117 47.318 7.7325 47.1567 6.79317 47.1567H3.0285V50.874H6.9665C7.77784 50.874 8.41517 50.7167 8.8785 50.4Z" fill="#041B29"/>
  <path d="M18.5964 39.4307V52.9847H16.2344V39.4307H18.5964Z" fill="#041B29"/>
  <path d="M25.8192 43.6714C25.9092 43.8648 26.0745 44.0461 26.3139 44.2134C26.5532 44.3808 26.8832 44.5361 27.3039 44.6781C27.7245 44.8208 28.2585 44.9688 28.9052 45.1234C29.6172 45.3041 30.2478 45.5041 30.7978 45.7241C31.3478 45.9441 31.8039 46.2114 32.1665 46.5274C32.5292 46.8441 32.8039 47.2114 32.9919 47.6314C33.1792 48.0514 33.2732 48.5448 33.2732 49.1128C33.2732 49.7588 33.1545 50.3328 32.9179 50.8361C32.6812 51.3394 32.3512 51.7654 31.9285 52.1141C31.5059 52.4628 30.9985 52.7274 30.4059 52.9081C29.8132 53.0888 29.1619 53.1788 28.4519 53.1788C27.4059 53.1788 26.4059 53.0014 25.4505 52.6468C24.4952 52.2914 23.6112 51.7461 22.7979 51.0108L24.2305 49.3068C24.8892 49.8754 25.5539 50.3108 26.2252 50.6141C26.8959 50.9174 27.6579 51.0688 28.5099 51.0688C29.2459 51.0688 29.8299 50.9141 30.2625 50.6041C30.6952 50.2941 30.9112 49.8748 30.9112 49.3454C30.9112 49.1008 30.8692 48.8808 30.7845 48.6868C30.7005 48.4934 30.5452 48.3154 30.3185 48.1541C30.0925 47.9928 29.7812 47.8414 29.3872 47.6994C28.9919 47.5574 28.4778 47.4094 27.8439 47.2541C27.1185 47.0868 26.4752 46.8994 25.9125 46.6928C25.3492 46.4868 24.8772 46.2281 24.4952 45.9181C24.1132 45.6081 23.8219 45.2341 23.6219 44.7948C23.4212 44.3561 23.3212 43.8208 23.3212 43.1881C23.3212 42.5948 23.4359 42.0554 23.6665 41.5714C23.8972 41.0874 24.2139 40.6714 24.6172 40.3228C25.0205 39.9741 25.5052 39.7061 26.0719 39.5194C26.6385 39.3321 27.2572 39.2388 27.9292 39.2388C28.9225 39.2388 29.8172 39.3841 30.6112 39.6741C31.4052 39.9648 32.1505 40.3874 32.8478 40.9421L31.5698 42.7428C30.9499 42.2908 30.3365 41.9454 29.7299 41.7068C29.1232 41.4681 28.5099 41.3488 27.8905 41.3488C27.1932 41.3488 26.6512 41.5068 26.2639 41.8228C25.8765 42.1394 25.6825 42.5228 25.6825 42.9748C25.6832 43.2448 25.7279 43.4774 25.8192 43.6714Z" fill="#041B29"/>
  <path d="M50.5844 48.8994C50.2358 49.7514 49.7451 50.4967 49.1124 51.1361C48.4798 51.7747 47.7311 52.2821 46.8664 52.6561C46.0018 53.0301 45.0464 53.2174 44.0004 53.2174C42.9551 53.2174 41.9998 53.0334 41.1344 52.6654C40.2698 52.2981 39.5278 51.7974 38.9078 51.1654C38.2878 50.5327 37.8038 49.7907 37.4558 48.9387C37.1071 48.0867 36.9331 47.1834 36.9331 46.2274C36.9331 45.2721 37.1071 44.3687 37.4558 43.5167C37.8044 42.6647 38.2944 41.9194 38.9271 41.2801C39.5598 40.6414 40.3084 40.1347 41.1731 39.7601C42.0378 39.3861 42.9938 39.1987 44.0391 39.1987C45.0851 39.1987 46.0398 39.3827 46.9051 39.7507C47.7698 40.1181 48.5118 40.6187 49.1318 41.2514C49.7511 41.8841 50.2358 42.6261 50.5838 43.4781C50.9318 44.3301 51.1064 45.2341 51.1064 46.1894C51.1071 47.1441 50.9324 48.0474 50.5844 48.8994ZM48.2704 44.3587C48.0444 43.7714 47.7284 43.2587 47.3218 42.8194C46.9151 42.3807 46.4278 42.0321 45.8598 41.7741C45.2911 41.5161 44.6718 41.3867 44.0004 41.3867C43.3291 41.3867 42.7131 41.5127 42.1518 41.7641C41.5904 42.0161 41.1091 42.3581 40.7091 42.7907C40.3091 43.2234 39.9958 43.7334 39.7698 44.3201C39.5438 44.9074 39.4311 45.5307 39.4311 46.1887C39.4311 46.8474 39.5438 47.4701 39.7698 48.0574C39.9958 48.6447 40.3118 49.1581 40.7191 49.5967C41.1258 50.0354 41.6131 50.3841 42.1811 50.6421C42.7491 50.9001 43.3684 51.0294 44.0398 51.0294C44.7104 51.0294 45.3278 50.9034 45.8891 50.6521C46.4504 50.4001 46.9318 50.0587 47.3318 49.6254C47.7318 49.1927 48.0451 48.6834 48.2711 48.0961C48.4971 47.5087 48.6104 46.8854 48.6104 46.2274C48.6104 45.5694 48.4964 44.9461 48.2704 44.3587Z" fill="#041B29"/>
  <path d="M64.8932 39.4307H67.2559V52.9847H65.2652L57.8065 43.342V52.9847H55.4438V39.4307H57.6465L64.8925 48.8027V39.4307H64.8932Z" fill="#041B29"/>
  <path d="M5.8645 67.0848L3.86717 64.2601H2.07917V67.0848H0.666504V58.9814H4.27784C4.74117 58.9814 5.15984 59.0414 5.5345 59.1608C5.9085 59.2808 6.22517 59.4501 6.48384 59.6701C6.74251 59.8901 6.94117 60.1601 7.07984 60.4801C7.21851 60.8001 7.2885 61.1574 7.2885 61.5508C7.2885 61.8901 7.23984 62.1934 7.14384 62.4594C7.04717 62.7261 6.91384 62.9614 6.74451 63.1654C6.57451 63.3701 6.37184 63.5441 6.1365 63.6868C5.90117 63.8294 5.6405 63.9394 5.35517 64.0168L7.54317 67.0848H5.8645ZM5.39984 60.6094C5.10584 60.3808 4.69184 60.2668 4.15717 60.2668H2.07917V62.9988H4.16917C4.67984 62.9988 5.0865 62.8748 5.3885 62.6268C5.6905 62.3788 5.84117 62.0454 5.84117 61.6268C5.84117 61.1774 5.69384 60.8381 5.39984 60.6094Z" fill="#041B29"/>
  <path d="M20.3112 64.5195C20.1026 65.0289 19.8099 65.4742 19.4312 65.8569C19.0532 66.2389 18.6059 66.5422 18.0886 66.7655C17.5712 66.9895 17.0006 67.1015 16.3752 67.1015C15.7499 67.1015 15.1792 66.9915 14.6619 66.7715C14.1446 66.5515 13.7012 66.2529 13.3306 65.8742C12.9599 65.4962 12.6706 65.0522 12.4626 64.5435C12.2539 64.0342 12.1499 63.4942 12.1499 62.9229C12.1499 62.3515 12.2546 61.8115 12.4626 61.3022C12.6712 60.7929 12.9639 60.3475 13.3426 59.9649C13.7206 59.5829 14.1679 59.2795 14.6852 59.0562C15.2026 58.8322 15.7732 58.7202 16.3986 58.7202C17.0239 58.7202 17.5946 58.8302 18.1119 59.0502C18.6292 59.2702 19.0726 59.5689 19.4432 59.9475C19.8139 60.3255 20.1032 60.7695 20.3112 61.2782C20.5199 61.7875 20.6239 62.3282 20.6239 62.8989C20.6239 63.4702 20.5199 64.0102 20.3112 64.5195ZM18.9279 61.8049C18.7926 61.4542 18.6039 61.1469 18.3606 60.8849C18.1172 60.6229 17.8259 60.4142 17.4866 60.2595C17.1472 60.1055 16.7766 60.0282 16.3752 60.0282C15.9739 60.0282 15.6052 60.1029 15.2699 60.2542C14.9339 60.4049 14.6466 60.6089 14.4072 60.8675C14.1679 61.1262 13.9806 61.4309 13.8459 61.7822C13.7106 62.1335 13.6432 62.5055 13.6432 62.8989C13.6432 63.2929 13.7106 63.6649 13.8459 64.0162C13.9806 64.3675 14.1699 64.6742 14.4132 64.9362C14.6566 65.1982 14.9479 65.4069 15.2872 65.5615C15.6266 65.7162 15.9972 65.7929 16.3986 65.7929C16.7992 65.7929 17.1686 65.7182 17.5039 65.5669C17.8399 65.4162 18.1272 65.2122 18.3666 64.9535C18.6059 64.6949 18.7926 64.3902 18.9279 64.0389C19.0626 63.6882 19.1306 63.3155 19.1306 62.9222C19.1306 62.5289 19.0632 62.1562 18.9279 61.8049Z" fill="#041B29"/>
  <path d="M32.6285 63.4549C32.6285 64.0569 32.5459 64.5856 32.3799 65.0409C32.2139 65.4962 31.9805 65.8769 31.6792 66.1809C31.3779 66.4862 31.0139 66.7136 30.5852 66.8642C30.1565 67.0149 29.6765 67.0902 29.1438 67.0902C28.6192 67.0902 28.1445 67.0149 27.7198 66.8642C27.2952 66.7136 26.9325 66.4876 26.6318 66.1869C26.3305 65.8856 26.0992 65.5136 25.9372 65.0696C25.7752 64.6262 25.6938 64.1109 25.6938 63.5242V58.8589H27.1065V63.4669C27.1065 64.2229 27.2892 64.7976 27.6538 65.1916C28.0185 65.5849 28.5225 65.7822 29.1672 65.7822C29.8039 65.7822 30.3038 65.5929 30.6692 65.2149C31.0338 64.8369 31.2165 64.2736 31.2165 63.5249V58.8596H32.6292V63.4549H32.6285Z" fill="#041B29"/>
  <path d="M41.4843 67.085H40.049V60.301H37.479V58.981H44.0543V60.301H41.4843V67.085Z" fill="#041B29"/>
  <path d="M55.0292 60.2664H50.4452V62.3504H54.5086V63.6351H50.4452V65.8004H55.0872V67.0857H49.0332V58.9824H55.0299V60.2664H55.0292Z" fill="#041B29"/>
  <path d="M65.4592 67.0848L63.4619 64.2601H61.6739V67.0848H60.2612V58.9814H63.8726C64.3359 58.9814 64.7546 59.0414 65.1292 59.1608C65.5032 59.2808 65.8199 59.4501 66.0786 59.6701C66.3372 59.8901 66.5359 60.1601 66.6746 60.4801C66.8132 60.8001 66.8832 61.1574 66.8832 61.5508C66.8832 61.8901 66.8346 62.1934 66.7386 62.4594C66.6419 62.7261 66.5086 62.9614 66.3392 63.1654C66.1692 63.3701 65.9666 63.5441 65.7312 63.6868C65.4959 63.8294 65.2352 63.9394 64.9499 64.0168L67.1379 67.0848H65.4592ZM64.9946 60.6094C64.7006 60.3808 64.2866 60.2668 63.7519 60.2668H61.6739V62.9988H63.7639C64.2746 62.9988 64.6812 62.8748 64.9832 62.6268C65.2852 62.3788 65.4359 62.0454 65.4359 61.6268C65.4359 61.1774 65.2886 60.8381 64.9946 60.6094Z" fill="#041B29"/>
  <path d="M51.3124 32.2136H50.7744V29.897H49.9077V29.4043H52.179V29.897H51.3124V32.2136ZM54.2224 31.5663H54.1677L53.301 30.2163V32.2136H52.781V29.4043H53.3557L54.2044 30.7363L55.0524 29.4043H55.609V32.2136H55.089V30.2163L54.2224 31.5663Z" fill="#041B29"/>
  <path d="M44.4199 32.1438H42.2912C42.2019 32.1438 42.1392 32.0578 42.1652 31.9725C44.1319 25.4758 41.3279 18.2985 36.9692 18.5238C32.7552 18.7398 24.2039 27.3011 19.7232 32.1018C19.6978 32.1291 19.6632 32.1431 19.6265 32.1431H16.7145C16.5978 32.1431 16.5365 32.0051 16.6158 31.9198C21.1219 27.0431 31.4585 16.7305 36.8732 16.4518C39.6612 16.3071 41.9012 17.9245 43.5132 20.8838C45.0785 23.7605 45.3919 28.2091 44.5525 32.0378C44.5379 32.0998 44.4825 32.1438 44.4199 32.1438Z" fill="#4DAFB6"/>
  <path d="M37.8108 32.1438H35.6035C35.5021 32.1438 35.4388 32.0351 35.4875 31.9458C36.6828 29.7651 37.3395 27.5038 36.8048 26.7251C36.7115 26.5858 36.4201 26.1638 35.2088 26.2838C33.3561 26.4698 30.1015 29.1871 27.1155 32.1058C27.0908 32.1298 27.0575 32.1438 27.0228 32.1438H24.2235C24.1048 32.1438 24.0435 32.0018 24.1268 31.9178C26.2621 29.7651 31.9408 24.3284 35.2141 23.9984C39.0881 23.6078 39.9115 27.6358 37.9341 32.0631C37.9128 32.1118 37.8641 32.1438 37.8108 32.1438Z" fill="#6D67A8"/>
  <path d="M47.5357 9.97956C47.433 9.49489 47.399 8.99889 47.419 8.49756V8.59423C47.4184 9.06423 47.4584 9.52889 47.5357 9.97956Z" fill="#00B7C2"/>
  <path d="M52.7978 0.666992C52.7805 0.700991 52.7665 0.735656 52.7525 0.769655C52.7412 0.772322 52.7325 0.775655 52.7212 0.783655C52.7518 0.74699 52.7778 0.709658 52.7978 0.666992Z" fill="#00B7C2"/>
  <path d="M59.5677 16.6155C58.667 20.2469 55.0983 26.6975 55.0983 26.6975L49.417 26.5349C49.417 26.5349 46.293 13.5449 40.2243 10.8402C34.931 8.48286 21.1003 21.4609 13.0103 32.0822C12.979 32.1222 12.9337 32.1422 12.885 32.1422H9.761C9.62967 32.1422 9.55566 31.9909 9.63833 31.8889C13.8743 26.5842 19.929 20.3555 24.353 16.2682C31.841 9.35286 37.451 6.6562 41.0257 8.24686C46.7497 10.7955 49.9077 20.7802 50.9457 24.6889L53.9557 24.7742C55.501 21.8749 56.795 18.9935 57.4277 17.1035C57.7243 16.2255 57.8783 15.5642 57.847 15.2135C57.565 14.3895 56.285 13.3809 55.1503 12.4882C54.0783 11.6475 52.9697 10.7782 52.1803 9.73753C52.0377 9.5522 51.8897 9.36953 51.7443 9.1902C50.9917 8.26953 50.3477 7.3542 50.0257 6.22553C49.051 8.57153 48.8343 9.95953 50.761 11.8582L51.109 12.1975C51.8557 12.9415 52.457 13.5315 52.933 14.0415C53.959 14.8429 53.9423 15.8689 53.6283 16.7409C53.269 17.7469 52.5137 18.5422 52.5137 18.5422C52.6363 17.3822 52.7303 16.9175 52.2257 16.1762C51.8037 15.5575 50.9657 14.7482 49.3837 13.1862C48.533 12.3482 47.9603 11.4389 47.661 10.4669C47.6097 10.3075 47.5697 10.1449 47.5357 9.97953C47.459 9.52886 47.419 9.0642 47.419 8.5942V8.49753C47.419 8.48886 47.419 8.4802 47.4217 8.47153C47.4703 5.04553 49.631 2.1062 52.721 0.783532C52.7323 0.774865 52.741 0.772198 52.7523 0.769531C50.603 5.60686 52.359 6.80686 53.7303 8.61153C55.3183 10.6955 59.0037 12.3629 59.711 14.7175C59.8383 15.1442 59.7697 15.8115 59.5677 16.6155Z" fill="#6D67A8"/>
</svg>
