<svg xmlns="http://www.w3.org/2000/svg" xml:space="preserve" viewBox="0 0 1600 298"><path d="M1145 248q-44-10-54-54l-1-8v-14l1-14 1-6q12-37 47-47l6-2h13l13-1 7 2 16 5 8 4 8 8 7 7 3 7q9 20 8 43l-1 7h-102l1 5q4 21 22 29l5 1h7q21 0 29-14l2-4h35l-1 3q-5 24-29 36l-8 4-9 2-9 2h-9zm47-90-2-9-2-6-4-4-5-4-6-3-5-2h-16l-5 2-6 2-4 4-4 4-3 7-3 9-1 3h66zm89 91q-35-6-41-35l-1-6v-7l1-8 2-5c8-17 22-23 56-25 26-2 26-2 29-5l2-3v-5q0-14-15-18l-5-2-8 1h-7l-6 3-5 2-3 4-3 8-1 3h-34v-4q7-34 43-43l7-2h26l6 2q30 6 39 35l1 6 1 35v34h11v30h-24l-5-3q-10-6-11-16 0-4-4 3c-9 14-33 24-51 21m21-29q9-2 17-8l4-3 3-6 3-6 1-7v-7h-1l-43 5-5 1-2 3-4 7-1 3v5l1 4 3 4 4 3 5 2c6 1 7 2 15 0m-508 28q-62-12-68-68v-8h37l1 8 3 13 2 5 5 6q8 9 22 11l7 1h26l5-2q11-3 16-13l2-4v-6l1-6-3-5-3-5-4-2c-7-4-12-5-37-10-26-5-36-8-46-14l-7-3-7-6-6-6-2-6-4-12-1-6v-8q1-21 17-35l6-5 7-4q15-8 36-8l12-1 10 1q16 2 31 10l8 4 7 7 7 7 3 7q7 14 7 27v5h-36v-5q-3-23-27-29l-5-2h-21l-7 2q-15 4-18 19v4l1 4 1 5 4 3 4 4 8 3 27 6c24 4 35 7 46 12l8 4 6 6c17 15 20 41 8 63l-3 7-7 6-6 6-8 4-16 6-7 2-20 1zm-218-3-1-70v-69h36v139zm429-58 1-58 2-5q6-11 16-15l6-2 28-1h28v30h-46v109h-35zm387-11v-70h32v9l1 9 4-5q7-9 18-14l6-2 9-1h10l6 1c11 3 23 11 28 21l2 4 4-6q6-10 20-16l7-3h27l5 2q19 8 26 29l2 7 1 52v52h-35v-46l-1-47-1-4q-2-8-8-12l-3-2-6-1h-6l-5 1-4 2-6 5-5 5-2 5-3 12-1 7v75h-35v-46l-1-47-2-6q-3-9-12-12l-3-1-7 1h-6l-5 3q-8 5-13 18l-1 5-1 42-1 43h-35zm-995-27V53h55l56 1 5 2 13 5 7 3 5 5 7 12 4 7v25l-3 5q-6 12-17 19l-5 3 6 3q17 10 23 28l2 6 1 9v9l-1 7-5 14-3 6-6 6-6 6-7 4-15 5-6 1H397zm105 62q14-5 16-20v-5l-1-6-2-5-4-5-5-4-5-1-5-2h-61v49h62zm-4-81q13-5 15-19v-5l-1-5-1-4-4-4-9-6-3-1h-30l-30-1v46h59zm186 113q-11-3-20-11l-5-5-3-6-4-12-1-5v-68h-25v-30h22l3-3 2-3V64h33v42h28v30h-28v72l1 3 1 2 4 1 15 1h11v29h-28zm272 0q-25-8-31-33l-2-6v-68h-25v-30h22l3-3 2-3V64h33v42h28v30h-28v36l1 38 1 3 3 1 4 1h23v29h-28zM587 89q-7-1-12-9l-3-4V64l1-3q5-8 13-11l5-1 5 1h5l4 3 7 7 2 4v12l-2 4-3 4-4 2-4 3-5 1z"/><path fill="#4892ff" d="M125 297C59 286 7 231 1 164l-1-5h74l74 1 5 2q14 5 25 16l8 8 4 8c9 19 9 36 0 59q-15 35-31 43l-5 2h-11zm66-5 4-6c11-18 19-40 27-77l1-8 4-8 4-8 7-7 8-7 8-5 14-5 6-2h24l-1 6a150 150 0 0 1-106 127M0 138C0 79 53 18 118 3l9-2h13l14-1 4 2q21 10 35 52l3 11v22l-1 6-6 13-3 7-8 8-8 8-8 3-14 6-6 1H0zm267-1-14-5-7-4-8-7-7-7-3-6c-4-9-6-13-9-28a199 199 0 0 0-28-73 151 151 0 0 1 107 127v5h-24z"/></svg>