<svg version="1.2" xmlns="http://www.w3.org/2000/svg" viewBox="0 0 1551 464"><g fill="#0b38db"><path fill-rule="evenodd" d="M1258.4 68.4c13.7-3.4 29.2-.4 40 9 13.4 11.3 17.6 31.5 10.7 47.5-5.2 12.5-17 22.2-30.4 24.6-9.5 1.8-19.6.8-28.2-3.7-11.2-5.7-19.6-16.7-21.9-29.1-1.7-9.1-.7-18.9 3.6-27.3 5.2-10.2 14.9-18.2 26.2-21zM650.3 91.5c25.4-8.9 52.9-10.1 79.5-7.3 38.7 4.2 77.2 22.2 100.9 53.8-17.8 15-37.2 28-57.7 39.1-10.8-16.2-28.6-26.9-47.7-30.2-21.6-3.5-44.8-.2-63.5 11.5-15.2 9.1-27.1 23.2-34.1 39.3-10.8 24.7-11.5 53.6-2.5 79 6.9 19.8 21.2 36.9 39.6 46.9 15.4 8.6 33.3 11.9 50.8 11.5 19.4-.7 38.1-9.5 51.9-23.1 20.5 10.7 40 23.3 58 37.8-14.7 16.5-33.7 28.9-54.2 36.9-28.2 11.1-59.4 13.2-89.3 9.4-41.7-5.4-81.4-28.2-105.6-62.8-39.2-56.4-37.7-138.1 4.7-192.3 17.7-22.8 42.1-39.9 69.2-49.5zm465.9-7.9h65.8v299.7h-65.8V83.6zM853.4 210.7c16.4-22.1 42.6-36.6 70-38.5 27.7-3.1 57.5 9.5 72.1 33.7-.1-9.7 0-19.3 0-29h65.5v206.4h-65.5c0-9.5-.1-18.9 0-28.4-10.6 18.3-30.8 28.9-51.1 32.5-36.7 5.5-75.7-12.4-95.1-44.1-13.5-21.6-18.6-47.7-16.7-72.9 1.3-21.3 8.2-42.4 20.8-59.7zm84.9 17.6c-19 2.9-34.1 18.8-38.8 36.9-5.8 21 1.3 45.9 19.5 58.6 12.9 9.4 30.6 11.2 45.3 5.4 23.6-9.3 35.6-37.6 29.8-61.6-3.1-13.5-11.3-26-23.3-33.2-9.6-6-21.4-8-32.5-6.1zm298.9-51.4h65.9v206.4h-65.9V176.9zm94.8.1c25.3-.1 50.7 0 76-.1l32.4 57.9c10.6-19.3 21.5-38.6 32.2-57.9h76.2c-23.1 34.2-46.2 68.2-69.3 102.3 23.4 34.7 47.1 69.3 70.5 104-25.3.1-50.7 0-76.1.1-11.2-19.9-22.3-39.8-33.6-59.6-11.2 19.9-22.4 39.7-33.6 59.6-25.4 0-50.7 0-76.1-.1 23.7-34.6 47.3-69.3 71-104-23.2-34.1-46.5-68.1-69.6-102.2z"/><path d="M79.2 45.8c33.9-25 74.5-40.6 116.3-44.5 30.1-2.8 60.8-.3 89.8 8.3 34.4 9.9 66.3 28.1 92.8 52.2-20.3 37.8-54.6 67.9-94.7 83-18-13.2-40-20.9-62.3-21.2-24.8-.6-49.7 7.8-69 23.3-25.4 19.8-41.1 51.4-41.2 83.7-43.2-17.8-81.4-47-110.8-83.3 16.1-40.4 44.1-75.8 79.1-101.5zM.1 316.2c29.3-36.3 67.6-65.5 110.8-83.2.1 23.1 8.1 46.1 22.2 64.4 15.7 20.6 39 35.3 64.4 40.4 29.7 6.2 61.6-1.1 85.9-19.1 40.1 15.2 74.2 45.2 94.7 82.8-35.3 32.7-81 53.8-128.6 59.9-47.2 6.2-96.3-2.1-138.6-24.1C61.1 411.9 20.8 368.1.1 316.2z"/></g><path d="M323.2 231.8c44.5-18.1 84.2-47.7 114.2-85.1 10.5 25.6 16.4 53.2 17.4 80.9.3 30.5-5.8 61-17.5 89.2-29.9-37.5-69.6-67-114.1-85z" fill="#ff7600"/></svg>
