<svg xmlns="http://www.w3.org/2000/svg" viewBox="0 0 1551 464"><g fill="#0b38db"><path fill-rule="evenodd" d="M1258.4 68.4a45 45 0 0 1 40 9 41.8 41.8 0 0 1-19.7 72.1 42 42 0 0 1-50.1-32.8 41 41 0 0 1 29.8-48.3M650.3 91.5a183 183 0 0 1 79.5-7.3c38.7 4.2 77.2 22.2 100.9 53.8q-26.8 22.5-57.7 39.1a72 72 0 0 0-47.7-30.2 93 93 0 0 0-63.5 11.5 86 86 0 0 0-34.1 39.3 109 109 0 0 0-2.5 79 86 86 0 0 0 39.6 46.9 100 100 0 0 0 50.8 11.5 79 79 0 0 0 51.9-23.1 352 352 0 0 1 58 37.8 141 141 0 0 1-54.2 36.9 182 182 0 0 1-89.3 9.4 154 154 0 0 1-105.6-62.8c-39.2-56.4-37.7-138.1 4.7-192.3a152 152 0 0 1 69.2-49.5m465.9-7.9h65.8v299.7h-65.8zM853.4 210.7a97 97 0 0 1 70-38.5 75 75 0 0 1 72.1 33.7v-29h65.5v206.4h-65.5v-28.4c-10.6 18.3-30.8 28.9-51.1 32.5a97 97 0 0 1-95.1-44.1 121 121 0 0 1-16.7-72.9c1.3-21.3 8.2-42.4 20.8-59.7m84.9 17.6a50 50 0 0 0-38.8 36.9 55 55 0 0 0 19.5 58.6 48 48 0 0 0 45.3 5.4c23.6-9.3 35.6-37.6 29.8-61.6a52 52 0 0 0-23.3-33.2c-9.6-6-21.4-8-32.5-6.1m298.9-51.4h65.9v206.4h-65.9zm94.8.1 76-.1 32.4 57.9q16-29 32.2-57.9h76.2l-69.3 102.3 70.5 104-76.1.1q-16.7-29.9-33.6-59.6l-33.6 59.6-76.1-.1 71-104z"/><path d="M79.2 45.8c33.9-25 74.5-40.6 116.3-44.5a236 236 0 0 1 182.6 60.5 181 181 0 0 1-94.7 83c-18-13.2-40-20.9-62.3-21.2a108 108 0 0 0-110.2 107A282 282 0 0 1 .1 147.3 235 235 0 0 1 79.2 45.8M.1 316.2A280 280 0 0 1 110.9 233a109 109 0 0 0 86.6 104.8c29.7 6.2 61.6-1.1 85.9-19.1a183 183 0 0 1 94.7 82.8 235.8 235.8 0 0 1-378-85.3"/></g><path fill="#ff7600" d="M323.2 231.8a285 285 0 0 0 114.2-85.1 236 236 0 0 1 17.4 80.9c.3 30.5-5.8 61-17.5 89.2a282 282 0 0 0-114.1-85"/></svg>