<svg xmlns="http://www.w3.org/2000/svg" xml:space="preserve" viewBox="0 0 964 376"><path fill="#68addf" d="m528 46-23 4-19 3-14 4-12 4-9 4-13 6-13 7-22 17-11 11-9 11-11 16-5 12-4 12-2 5-2 9-2 10v5l-1 9v9l1 6 1 9 2 9 4 12 3 7 4 7 5 11 6 7 3 5 6 7 6 7 6 5 8 6 4 3 7 4 13 6 7 3 7 2 11 3 10 2h7l10 1h9l16-2 5-1-21-6-14-5-11-6-9-6-6-4-8-8-4-4-6-7-3-3-3-5-7-13-5-10-2-8-2-8-2-8-1-6v-17l1-10 1-9 5-17 3-8 13-24 6-7 5-6 6-6 4-4 7-6 6-4 8-5 7-4 6-3 6-3 7-2 5-2 4-1 6-2 5-1 3-1 6-1 5-1 5-1 4-1h2l3 4 3 5 3 5 3 6 3 5 4 6-4 1h-5l-11 2-9 1-9 2-7 2-9 3-6 3-9 4-8 5-7 5-3 3-3 2-3 3-3 2-3 5-4 4-9 20-8 20-2 13v5h1v8l2 7 1 3 1 5 2 5 3 7 5 8 4 6 7 8 2 2 2 3 4 2 4 4 5 3 3 2 7 4 7 2 6 2 7 1 6 1 5 1h22l6-1 8-2 5-2 6-3 6-2 5-2 7-5 9-6 6-5 5-5 3-3 6-7 5-6 6-9 18 17 4 6 4 6 7 10-2 4-3 5-3 4-4 6-10 12-4 5-3 4-5 5-7 6-7 6-8 6-7 5-5 3-6 4-7 4-7 3-10 5-7 3-9 4-9 3-7 2-15 3-12 2-12 1h-13l-10-1-10-1-14-3-18-4-19-6-19-10-16-10-13-11-13-11-4-6-8-10-8-12-7-12-4-7-7-18-5-18-3-16-2-12 1-23 2-16 4-20 6-20 8-17 8-14 11-15 6-8 6-6 10-10 13-10 16-11 15-9 15-8 20-7 16-5 17-5 14-3 6-1 7 11z"/><text xml:space="preserve" x="-1024" y="17" fill="#003a7f" font-family="sans-serif" font-size="157.3" font-weight="400" style="line-height:2.1;-inkscape-font-specification:sans-serif;text-align:start" transform="translate(1015 225)"><tspan x="-1024" y="17">C&amp;C POWER</tspan></text><text xml:space="preserve" x="-967" y="91" fill="#003a7f" font-family="sans-serif" font-size="50.7" font-weight="400" style="line-height:2.1;-inkscape-font-specification:sans-serif;text-align:start" transform="translate(1015 225)"><tspan x="-967" y="91">ENGINEERED  POWER  PRODUCTS</tspan></text></svg>