<svg xmlns="http://www.w3.org/2000/svg" xml:space="preserve" viewBox="0 0 1345.5 250.9"><path d="M392 163.8c-9.2-2.7-10-5.5-10-34.6v-23.8l2.3-4.5c3-6 7.2-8.2 15.5-7.7l6.3.4 3.1 3.1 3.2 3.2.4 6.5.4 6.6H403v-4.5c0-7.3-6.7-10.5-9.7-4.5-1.7 3.3-1.8 46.1-.2 49.3 3.5 6.6 9 4 9.9-4.5l.5-5.3h9l.3 6c.5 11.8-8.5 18-20.8 14.3m199.8-.2c-10.4-3.9-12.6-21.2-2.7-20.5l4.4.4.5 5.4.5 5.5 2.6 1.5 2.7 1.4 2.6-1.7 2.6-1.7v-5c0-6.5-.7-7.8-9.8-17.4-17.3-18.5-15-38.5 4.3-38.5 10 0 14.5 4.4 14.5 14.3v5.8l-4.8-.3-4.7-.3-.3-4.5c-.7-9.9-10.2-9.8-10.2 0 0 5.5 1.8 8.6 10.1 17.7 19 20.8 10.7 46.5-12.3 37.9m130 0c-8.5-3-9.3-6.2-9.3-35.7v-22.5l1.9-4.2c1.4-3.2 3-4.7 6.3-6.3l4.4-2.2 6 .5c6.6.4 10.5 2.6 12.9 7.3l1.5 3 .3 22c.6 35.8-5.1 44.8-24 38m11.1-8.6c3-2.9 3.3-6.6 3-29.3l-.4-20.5-1.9-2.1c-2.5-2.8-7-2.8-9 0l-1.6 2.3v47.4l2.6 2c3.3 2.7 4.9 2.7 7.3.2m342.3 9c-9-2.3-10.2-6.3-10.2-35.6v-23l2.2-4.5c5.4-10.5 24.3-10.9 29.2-.6l1.6 3.5v49.7l-1.9 3.5c-3.2 6.1-12.4 9.2-21 7m10.3-9.5 2.5-2.5v-22.4c0-24-.5-27.2-4.4-28.2-7.8-2-8.8 1.8-8.4 29.9l.3 21.8 2.4 2c3 2.5 4.7 2.4 7.6-.6m93.9 9.4c-9.6-3-10.6-7.3-10.2-43.4l.3-27 4.8-.3 4.7-.4.1 28.4c.1 31.1.3 32.6 4.2 34.7l2.7 1.6 2.8-1.6 2.7-1.5.5-30.5.5-30.4h10v61.3l-2 2.8a19 19 0 0 1-21.1 6.3m51.2 0c-8.7-2.7-9.6-6-9.6-35.2v-24.2l1.8-3.5c2.7-5.3 6.3-7.4 13.5-7.8l6.2-.4 3.3 2.1c4 2.5 6.2 7.4 6.2 13.5v4.6h-10v-4.5c0-7-5.9-10.4-9.4-5.3l-1.6 2.2V153l2 2c4.2 4.2 8.2 1.4 9-6.2l.5-5.3h9l.3 4.5c.8 12.5-9 20-21.2 16m91.9-.4q-9.8-3.7-8.3-17.1l.3-3h10l.3 5.3.3 5.2 2.2 1.5c4.7 3.4 8.7 0 8.7-7.2 0-5.6-.9-7-10.5-17.4-16.4-17.5-14.8-36.2 3-37.6q16.5-1.5 16.5 14.3v5.6l-4.8-.3-4.7-.3-.3-4.5c-.8-10.4-10.2-9.7-10.2.8 0 5.4 1 7.2 9.8 16.8 19.2 20.9 10.9 46.5-12.3 38M432 128.4V92.8l4.8.4 4.7.3.3 15.2.3 15.3H454l.2-15.3.3-15.2h10l.3 35.2.2 35.3h-11v-32h-12v32h-10zm51.5 34.3L491 129l7.6-34.3.6-1.8 5.6.3 5.7.3 7.2 35 7.2 35.3h-5.1l-5.3-.3-1.5-8.5-1.5-8.5h-15l-1.4 8.7-1.4 8.8h-5.3q-5.5 0-4.9-1.3m26.2-27-2.8-15.5a72 72 0 0 0-2.7-12.7c-.8.8-6 29.4-5.4 30 .3.2 3 .5 6 .5h5.4ZM544 133v-31h-11v-9h33v9h-11v62h-11Zm99.5 28.7c-.7-3.3-10.5-66.3-10.5-67.6 0-.7 2-1.1 5-1.1h4.8l.6 2.7c.3 1.5 1.7 12.9 3.1 25.3s3 23.3 3.4 24.3c.4 1.2 2-8.4 4-23.5 1.8-14 3.5-26.1 3.8-27.1l.5-1.8 6.6.3 6.7.3 3 27.5c2.3 19.5 3.4 26.5 3.9 24l3.6-24.5 3.6-24.3.6-3.2h8.8v2c0 1.6-9.5 55.9-11.6 66.3l-.6 2.7-6.1-.2-6.2-.3-3-27.5c-1.9-16-3.4-26.5-3.8-25-.4 1.3-2 12.6-3.7 25l-3.6 25.2-.6 2.8H644zM767 128.3V92.7l11.5.6c18 1 20.1 3.2 19.3 20.9l-.4 8.7-2.4 2.5c-1.3 1.4-3 2.6-3.8 2.6q-1 .2 1.9 2.2c4.3 3 4.7 4.6 4.8 20.5l.1 13.3h-9.7l-.7-3.2c-.3-1.7-.6-7.9-.6-13.8 0-12-.5-13-6.2-13H777v30h-10zm18.5-4.7 2-1.4.3-7.7.4-7.6-1.6-2.4-1.6-2.5h-8v23h3.3a11 11 0 0 0 5.2-1.4M824 133v-31h-11v-9h33v9h-12v62h-10zm40.2-4.3.3-35.2h10l.3 15.2.3 15.3H887l.2-15.3.3-15.2 4.8-.3 4.7-.4V164h-10v-32h-12v32h-11zm100 0 .3-35.2 11.5.1c13.3.2 16.3 1 18.6 5.6l1.8 3.3v11c-.1 16.5-2 19.1-14.3 20.2l-7.1.5V164h-11zm20.6-5c.8-.7 1.2-4.5 1.2-10.4V104l-2-1c-1-.6-3.5-1-5.4-1H975v23h4.3c2.4 0 4.8-.6 5.5-1.2m30.2 4.6V92.7l11.4.6c17.3.9 18.8 2.1 19.4 16.2.5 10.3-1.1 15.7-5.2 17.6l-2.5 1.1 3.2 2.2c4 2.7 4.5 4.5 4.6 20.3l.1 13.3h-9.7l-.7-3.2c-.3-1.7-.6-7.9-.6-13.8 0-12-.5-13-6.2-13h-3.8v30h-10zm18.6-4.8 1.9-1.4V104l-1.5-1c-.8-.5-3.2-1-5.2-1h-3.8v23h3.3c1.8 0 4.2-.7 5.3-1.5m83.6 5.3.3-35.3 11.7.1c13.7.2 16.5 1.2 19.3 6.9l2 4v47l-2.2 4.5c-3.3 6.7-5 7.3-19 7.8l-12.3.4zm21.5 23.2c.9-1.8 1.3-8.7 1.3-23.8v-21.3l-2.5-2.5a8 8 0 0 0-6-2.4h-3.5v53l4.7-.3 4.8-.3zm138.3-19v-31h-11v-9h33v9h-12v62h-10z"/><path fill="#009ddb" d="M18.9 249.6a27 27 0 0 1-17.4-16.8l-1.5-4V22.2l1.5-4.5a30 30 0 0 1 13.6-15L19.5.5 166 .2C338.4-.2 327.3-1.2 335.4 15l2.6 5.3v210l-1.9 4q-4 8.9-12.5 13.4l-5.1 2.7-148 .2-148 .2zM129 209.5V194l-29.5-.2-29.5-.3-3.2-3.3-3.3-3.3V64.8l3.3-3L70 59h155.2l3.4 3.4 3.4 3.4v36.4l-3.4 3.4-3.4 3.4H184V96h-32v129h32v-84h54.9l5.3-2c7-2.7 11.7-6.7 15.3-13.2l3-5.3v-75l-1.8-3.7c-3-5.8-8-11.2-13.3-13.9l-4.9-2.4-94-.3-93.9-.3-4.7 1.6C30.4 33 29.8 35.9 30.2 129l.3 73.5 2.1 4.6c3 6.5 9 12.8 14.9 15.5l5 2.3H129zM309 125V25h-28v200h28z"/></svg>