<svg viewBox="-1.1146875 -1.1146875 119.323125 39.385625" xmlns="http://www.w3.org/2000/svg"><path d="m27.38 0c-2.52 0-4.57 2.05-4.57 4.56 0 2.52 2.1 4.57 4.6 4.57s4.6-2.05 4.6-4.57c-.01-2.5-2.11-4.56-4.61-4.56zm21.42 10.78c-7.23 0-12.75 6.34-12.86 13.44-.04 2.23.44 4.32 1.28 6.06-4.8 1.4-5.7-.9-5.88-5.22-.2-5.2-.22-12.56-.2-12.56h-7.67v15.13c0 3.13.76 8 6.2 8.96 3.37.6 6.67-.1 11.08-2.1 2.1 1.5 4.93 2.5 8.03 2.5 4.3 0 7.78-1.9 10.38-3.6v-4.8c-3.23 2-7.96 3.5-10.88 1.4 3-2.1 5.84-4.6 7.72-7.6 3-4.8 1.04-11.8-7.2-11.8zm-35.1.72c-7.57 0-13.7 4.6-13.7 12.9 0 8.44 5.94 12.76 13.03 12.76 2.05 0 5.26-.42 7.13-1.35v-6.5c-1.62.7-3.5.9-5 .9-3.07 0-6.66-1.8-6.66-5.6 0-4.3 3.4-6 6.78-6 1.63 0 3.48.5 4.88.9v-6.9c-1.93-.5-4.64-1-6.47-1zm85.86.06c-3.57 0-6.88.92-10.06 1.97v6.16c2.75-1.1 6.07-1.5 8.66-1.5 3.3 0 4.87 1.4 4.87 3.9v.4c-1.4-.5-3.6-1-5.87-1-5.76 0-9.6 2.6-9.6 7.7v.1c0 4.9 3.55 7.5 8.22 7.5 3.22 0 5.54-1.2 7.22-3.08v2.54h8.3v-14c0-3.44-.57-5.97-2.42-7.78-1.95-1.96-4.92-3-9.32-3zm-22.15.03c-3.4 0-5.6 1.9-7.1 3.9l-.3.4v-3.7h-8.3v24.2h8.29v-13.19c0-2.78 1.6-4.32 3.8-4.32 2.15 0 3.6 1.56 3.6 4.3v13.26h8.27v-16c0-5.5-3.1-8.85-8.2-8.85zm-28.1 6c2.1 0 3.5 2 1.1 5.2-1.1 1.4-2.8 2.8-4.8 4.1-2.8-5.1.7-8.7 2.9-9.2l.5-.1c.2 0 .3-.1.5 0zm50.5 8.1c1.3 0 2.4.3 3.4.8 0 3.1-1.7 5-4.2 5-1.7 0-3-1-3-2.7v-.1c0-1.8 1.48-3 3.97-3zm15.8 7.6c-.8 0-1.5.6-1.5 1.5s.7 1.5 1.5 1.5c.9 0 1.6-.7 1.6-1.5 0-.9-.7-1.5-1.5-1.5zm0 .2c.7 0 1.3.5 1.3 1.22s-.5 1.3-1.3 1.3c-.7 0-1.2-.55-1.2-1.27s.6-1.27 1.3-1.27zm-.5.4v1.7h.2v-.59h.3l.5.76h.3l-.5-.75c.3 0 .5-.1.5-.4s-.2-.5-.6-.5h-.6zm.2.2h.4c.2 0 .4 0 .4.3s-.2.22-.4.22h-.3v-.54z" fill="#da1415" fill-rule="evenodd"/></svg>