<svg xmlns="http://www.w3.org/2000/svg" viewBox="-1.1 -1.1 119.3 39.4"><path fill="#da1415" fill-rule="evenodd" d="M27.4 0c-2.5 0-4.6 2-4.6 4.6S25 9 27.4 9 32 7 32 4.5 30 0 27.4 0m21.4 10.8c-7.2 0-12.7 6.3-12.9 13.4q0 3.4 1.3 6c-4.8 1.5-5.7-.8-5.9-5.1-.2-5.2-.2-12.6-.2-12.6h-7.6v15.1c0 3.2.7 8 6.2 9 3.3.6 6.6-.1 11-2.1a14 14 0 0 0 8 2.5 19 19 0 0 0 10.5-3.6v-4.8c-3.3 2-8 3.5-11 1.4 3-2.1 6-4.6 7.8-7.6 3-4.8 1-11.8-7.2-11.8zm-35.1.7C6.1 11.5 0 16.1 0 24.4s6 12.8 13 12.8c2 0 5.3-.5 7.2-1.4v-6.5a13 13 0 0 1-5 1c-3.1 0-6.7-1.9-6.7-5.7 0-4.3 3.4-6 6.8-6q2.6.1 4.9 1v-7c-2-.5-4.7-1-6.5-1zm85.9 0c-3.6 0-7 1-10.1 2v6.2c2.8-1.1 6-1.5 8.7-1.5q4.9 0 4.8 3.9v.4q-2.3-.9-5.8-1c-5.8 0-9.6 2.6-9.6 7.7s3.5 7.6 8.2 7.6q4.7-.1 7.2-3v2.5h8.3v-14q.2-5.2-2.4-7.8-3-3-9.3-3m-22.2 0a9 9 0 0 0-7 4l-.4.4v-3.7h-8.3v24.2H70V23.2c0-2.8 1.6-4.3 3.8-4.3q3.5 0 3.6 4.3v13.2h8.3v-16c0-5.5-3.1-8.8-8.2-8.8zm-28 6c2 0 3.4 2 1 5.3a20 20 0 0 1-4.8 4c-2.8-5 .7-8.6 3-9.1l.4-.1h.5zm50.4 8.2q2 0 3.4.8c0 3-1.7 5-4.2 5-1.7 0-3-1-3-2.7v-.1q.1-2.9 4-3zm15.8 7.6q-1.4 0-1.5 1.5c0 1.5.7 1.5 1.5 1.5q1.5-.1 1.6-1.5-.1-1.5-1.5-1.5zm0 .2q1.2 0 1.3 1.2c.1 1.2-.5 1.3-1.3 1.3q-1.1 0-1.2-1.3c0-1.3.6-1.2 1.3-1.2zm-.5.4v1.7h.2V35h.3l.5.8h.3l-.5-.8q.5.1.5-.4t-.6-.5h-.6zm.2.2h.4q.3 0 .4.3 0 .3-.4.2h-.3z"/></svg>