<svg xmlns="http://www.w3.org/2000/svg" xml:space="preserve" viewBox="0 0 1021 227"><path fill="#17bdd5" d="M32 225h-3l-3-2q-8-6-14-21-9-24-12-64a417 417 0 0 1 3-77q4-34 16-49l8-8-3 6q-3 7-4 20v19a319 319 0 0 0 30 117l6 8 3 2q9 3 28-5l32-16q21-12 33-27l7-10-1 5q-7 31-42 62c-22 19-50 34-71 39q-7 2-13 1"/><path fill="#1d79b2" d="M42 225q-1 0 0 0m3-1q-1 0 0 0m66-34q0-1 0 0m2-2q0-1 0 0m1-1q2-1 0 0m3-2q-1 0 0 0m1-1q-1 0 0 0m17-17q0-1 0 0m-89-7-7-17A319 319 0 0 1 20 30q2-16 5-24l4-3q4-3 11-3a84 84 0 0 1 26 3 227 227 0 0 1 54 22 425 425 0 0 1 73 51l11 12q11 15 12 26v1-1l-1-2q-6-10-25-22c-23-16-54-29-81-35q-24-6-44-5l-12 4q-9 8-11 35a389 389 0 0 0 1 57z"/><path fill="#2a436a" d="m39 227-8-2h2q15 1 38-10l7-4q37-20 61-50 17-21 20-43v-8q-1-12-28-31-29-21-53-27l-12-2h-2 19q18 2 38 8 29 9 57 24 25 15 35 27l3 5v4q-2 11-17 27-13 15-32 29a328 328 0 0 1-117 53zm286-65a64 64 0 0 1-60-73 64 64 0 0 1 35-49 66 66 0 0 1 75 13l-7 6-6 6v-1l-5-5q-10-9-27-10-15-1-29 9a51 51 0 0 0-18 47 53 53 0 0 0 19 33 42 42 0 0 0 30 8q11 0 18-5l12-10 6 6 6 6-1 2-6 5a64 64 0 0 1-42 12m508 0a64 64 0 0 1-59-46 66 66 0 0 1 5-50 63 63 0 0 1 62-32 62 62 0 0 1 39 17l2 2-6 6-7 6v-1l-7-7q-8-6-19-8h-12q-11 1-20 7-7 5-12 13a51 51 0 0 0 0 58q10 13 25 18l10 2 10-1q17-4 25-15l6 6 6 6-4 4q-6 6-15 10a68 68 0 0 1-29 5M400 98V35h18v125h-18zm50 0V35h53a44 44 0 0 1 39 52 44 44 0 0 1-26 34l27 39h-20l-13-18-12-18h-29v36h-19Zm52 10a25 25 0 0 0 18-11 31 31 0 0 0 4-21 30 30 0 0 0-10-20q-6-5-14-6h-31v58zm66-10V35h53a44 44 0 0 1 29 15 47 47 0 0 1 10 42q-3 16-17 27-9 6-21 8h-35v33h-19Zm52 14q9-1 16-10c9-11 9-30 0-42q-6-7-15-9l-18-1h-16v62zm35 48 50-121 4-4 6 1q4 1 8 12l23 57 23 55h-20l-6-16-6-16h-50l-6 16-6 16zm76-48-19-47-3 6-16 41zm177-14V35h19v57l34-29 33-28h27l-61 52 61 73h-26l-25-31-25-30-9 7-9 8v46h-19ZM64 50"/></svg>