<svg xmlns="http://www.w3.org/2000/svg" xml:space="preserve" viewBox="0 0 378.4 133.4"><path fill="#235394" d="m64.1 133.4-2.4-.3A44 44 0 0 1 23 98q-.8-3.7.9-10.3a41 41 0 0 1 11.2-19.5l1.3-1.3-.3.8a48.3 48.3 0 0 0 44 63.3h.7l-1.2.4a43 43 0 0 1-15.6 2m17-6.5-5.9-.6a44 44 0 0 1-17.6-6.9 10 10 0 0 1-3.2-3 42 42 0 0 1-9-27.2v-1l.6 1a48.6 48.6 0 0 0 75.2 13.7l1-.9-.7 1.4A44 44 0 0 1 81 126.9m-50.7-5a44.3 44.3 0 0 1-14.7-66.2 41 41 0 0 1 26.8-10l2.8-.2-1.4.8a48.4 48.4 0 0 0-12.5 76.1zm64.1-11.7a45 45 0 0 1-22-9.2c-1.4-1-4.8-4.3-4.7-4.4l.8.2a49 49 0 0 0 48.3-11 48 48 0 0 0 15-31.8c.1-1.8.1-1.8.3-1.3a51 51 0 0 1 2 13.8c0 4.2 0 5.8-.8 9.2a44 44 0 0 1-34 34.1q-2.6.6-4.8.4m-20.3-1.5a44 44 0 0 1-24.7-21.4q-1.1-1.6.8 0c1.7 1.6 5.6 4.4 7.6 5.6q.6.2 1.5 1.5a48 48 0 0 0 14.8 14.3m-32-7.4a45 45 0 0 1-2-32.3l.2-.8v1A57 57 0 0 0 42.2 80l-.4 2a48 48 0 0 0 .9 20.4zm38-6.4a48 48 0 0 1-11-2.2c4.4-.3 7.4-.8 10.4-1.6l1-.3 1.6.3c3 .6 4.9.8 8.7.8a39 39 0 0 0 12.6-1.7l-.7.4Q92.2 95.7 80 95m8.6-6.4.7-.5a50 50 0 0 0 21.3-21.4 49 49 0 0 0 3.5-33.8A49 49 0 0 0 103 12a42 42 0 0 1 11.1 7.7 44 44 0 0 1 4.6 58.4 42 42 0 0 1-29.9 10.4m-.9-5.4q3-3.4 5.3-7.2c.9-1.4 1-1.4 2.1-2.2a47 47 0 0 0 14.5-15.5 42 42 0 0 1-10.5 17c-3.4 3.4-6.7 6-11 8.2l-1.2.7zM2.2 80.6l-.6-1.8A45 45 0 0 1 6 44.7a45 45 0 0 1 29.5-21.3c2-.4 2.7-.5 4.5-.3a43 43 0 0 1 26.5 13.5l-.8-.2a54 54 0 0 0-19.8-2A48 48 0 0 0 2.4 79.9q0 1.6-.2.7m350.5-1.5 9.4-14.2-8.6-13.4h6.1l3 4.8 3 4.9 3-4.9 3-4.9h6.2l-.2.4-8.5 13 9.3 14.2c.1.2-.5.2-3 .2h-3.2l-3.3-5.3-3.3-5.2-3.3 5.3-3.2 5.2h-6.4M159.3 79c-5.5-.9-9.7-4.9-11.5-11.1-1.2-4.3-1.4-10-.4-14.8q1.3-5.8 4.6-9.2 4.4-4.5 11.1-3.8 2.4.1 4.2.8c1 .3 2.2 1 2.2 1.1l-1 2.3-.7-.2q-1.9-1-4.7-1.3-6.7-.6-10.5 5.3a23 23 0 0 0-2.6 11.4c0 8.8 3 14.6 8.6 16.4 2.7.9 6.8.5 9.3-.8l.6-.4.2.5.6 1.3.3.8-1 .5a17 17 0 0 1-9.3 1.2m16.3-20V38.6h3v40.5h-3zm16.6 20q-5.1-.9-6.7-6.3a28 28 0 0 1-.9-9.6 18 18 0 0 1 1.7-7.7 8 8 0 0 1 3.5-3.5c1.5-.7 3-1 5.3-1 5.8 0 8.6 2.3 10 8 .3 1.1.5 4.3.5 6.4 0 5.3-1.1 9.4-3.2 11.5q-1.5 1.5-3.8 2c-1 .4-5.2.4-6.4.2m5.4-2.5q3.7-.7 4.6-5.7c.4-1.5.4-1.7.4-5.6 0-3.4 0-4.2-.3-5.1-1-5-2.9-6.7-7.2-6.7a7 7 0 0 0-3.7.7q-2.9 1.5-3.7 6.8a59 59 0 0 0 0 8.6c.7 4.8 2.5 6.8 6.1 7.2 1.1.1 2.8 0 3.8-.2m21.3 2.5q-5.1-1-6.7-5.1c-.6-1.8-.6-1.8-.6-12.4v-10h2.9v10c0 9.1.1 10 .3 10.7a6 6 0 0 0 4.5 4.3c2 .5 6.8.1 8.9-.7l.4-.2V51.4h2.9v26l-1 .4a24 24 0 0 1-11.6 1.2m25.4 0a8 8 0 0 1-4.8-2.8q-2.6-3.6-2.6-10.9c0-7.5 1.6-11.6 5.1-13.4 1.7-.8 4.4-1.2 7.1-1 1.6.1 4 .5 4.7.7l.3.1v-13h3v38l-.6.5q-2 1.3-5.7 1.8c-1.9.3-5.2.2-6.5 0m6.1-2.5 3.3-.7.4-.2v-21l-.3-.2c-.7-.4-3-.8-4.7-1-5.5-.4-7.8 1.2-8.8 6.2-.6 2.7-.6 8 0 11 .8 4.7 3 6.3 8 6.1.7 0 1.7 0 2.1-.2M263 59V38.7h5.8v35.7h12.8v4.8H263Zm24.1 6.4v-14h5.7v27.8H287Zm11.5 1v-13l.4-.1a31 31 0 0 1 14-1.6q6 1 7.5 6l.3 1v20.5h-5.5v-9.5c0-10 0-10-.7-11.2a5 5 0 0 0-3.5-2.4 17 17 0 0 0-6.3.4l-.5.2v22.5h-5.7ZM334.8 79q-5.6-.9-7.3-5.4c-.6-1.6-.6-2.1-.6-12.5v-9.7h5.5V71l.3.7q.8 1.7 2 2.3 2 .9 5.6.6c1.1-.2 2.4-.5 2.7-.7l.1-11.3V51.4h5.5v26l-1.1.4q-2.4.8-5.5 1.2c-1.9.2-5.8.2-7.2 0m-310-4.7a45 45 0 0 1 21.6-24.7l.7-.3-.6.6c-2.6 3-4 4.9-5.4 7.4l-1 1.4-1.4 1a47 47 0 0 0-14.3 15.6zM98 65.5q4.1-13.2 1-26.3A31 31 0 0 0 91.1 24l-1-1.2A44 44 0 0 0 79 11.6a49 49 0 0 0-25.1-8.9h-1.7l1-.4a64 64 0 0 1 8.4-2c1.8-.3 2.4-.3 6-.3a44.4 44.4 0 0 1 43.2 34.3c.7 2.5.8 3.3.6 5a43 43 0 0 1-13 26.5l-.6.5zm-4.3-2.2a48 48 0 0 0-1.4-9l-.3-.9.3-1.5c.6-3 .8-4.9.8-8.7a40 40 0 0 0-1.7-12.5l.5.9a45 45 0 0 1 2 33.2zM85 46.7a51 51 0 0 0-8.5-6.2c-.6-.3-.8-.6-1.8-2a44 44 0 0 0-15.3-14.1l1 .4a45 45 0 0 1 24.6 22m203.7-.7a4 4 0 0 1-1.8-2c-.5-1.7.5-3.5 2.2-4 2.5-.6 4.9 1.7 4 4a3 3 0 0 1-3 2.2zM88.3 44.8A49 49 0 0 0 56 19.6a49 49 0 0 0-44 11l-1 1 .5-.8A45 45 0 0 1 44.6 7.2c1.8-.3 2.4-.3 6.3-.3a45 45 0 0 1 25.8 7.7c1.2.8 1.7 1.2 2.4 2a43 43 0 0 1 9.6 28.9zM32 42.4a45 45 0 0 1 32.4-2l1 .2-1.8.1q-4 .3-8.6 1.4l-1.5.4-1.3-.3a47 47 0 0 0-21 .7q-.2 0 .8-.5"/></svg>