<svg xmlns="http://www.w3.org/2000/svg" xml:space="preserve" fill="none" viewBox="0 0 118.3 19.1"><path fill="#f4861f" d="M97.1 0h-19v5.3h19zm0 13.8h-19v5.3h19zm-89.7-1a1 1 0 0 1-1-1V7.4q0-1 1-1H19V3.9A4 4 0 0 0 15 0H4a4 4 0 0 0-4 4v11.2A4 4 0 0 0 4 19h11.2a4 4 0 0 0 4-4v-2.4H7.3zm26.5-1a1 1 0 0 1-1 1h-4.4a1 1 0 0 1-1-1V7.4q.1-1 1-1H33q1 0 1 1zM36.4 0H25a4 4 0 0 0-4 4v11.2a4 4 0 0 0 4 4h11.3a4 4 0 0 0 3.9-4V3.9a4 4 0 0 0-4-3.9"/><path fill="#007054" d="m56 8-8-8h-5.6v12.7h6.4l6.3 6.4h6.4V8z"/><path fill="#f4831f" d="M75.9 0H50.3l6.3 6.4H63V19h6.5V6.4H76zm18 7H78v5.2h16zm12.6-.6h11.8V3.9a4 4 0 0 0-4-3.9h-11.2a4 4 0 0 0-4 4v11.2a4 4 0 0 0 4 4h11.3a4 4 0 0 0 3.9-4V9.5H112v3.2h-5.4a1 1 0 0 1-1-1V7.3a1 1 0 0 1 1-1" style="mix-blend-mode:normal"/></svg>