<svg xmlns="http://www.w3.org/2000/svg" xml:space="preserve" fill="none" viewBox="0 0 118.3 19.11"><path fill="#f4861f" d="M97.11 0H78.04v5.3H97.1zm0 13.8H78.04v5.3H97.1zM7.35 12.73a.97.97 0 0 1-.97-.97v-4.4c0-.54.44-.98.97-.98h11.76V3.93A3.93 3.93 0 0 0 15.18 0H3.93A3.93 3.93 0 0 0 0 3.93v11.25a3.9 3.9 0 0 0 3.93 3.9h11.25a3.93 3.93 0 0 0 3.93-3.93V12.7H7.35zm26.56-.98a.97.97 0 0 1-.97.98h-4.4a.97.97 0 0 1-.97-.97v-4.4c0-.54.43-.98.97-.98h4.4c.54 0 .98.44.98.98zM36.37 0H25.12a3.93 3.93 0 0 0-3.93 3.93v11.25a3.93 3.93 0 0 0 3.93 3.93h11.25a3.93 3.93 0 0 0 3.93-3.93V3.93A4 4 0 0 0 36.37 0"/><path fill="#007054" d="M55.95 7.96 48.02 0h-5.64v12.73h6.38l6.35 6.35h6.38V7.96z"/><path fill="#f4831f" d="M75.89 0H50.27l6.34 6.38H63l.04 12.7h6.51V6.38h6.35zm18.03 6.92H78.04v5.3h15.88zm12.63-.54h11.75V3.93A3.93 3.93 0 0 0 114.37 0h-11.25a3.93 3.93 0 0 0-3.93 3.93v11.25a3.93 3.93 0 0 0 3.93 3.93h11.25a3.93 3.93 0 0 0 3.93-3.93V9.54h-6.35v3.19h-5.37a1 1 0 0 1-.97-.98v-4.4a.93.93 0 0 1 .94-.97" style="mix-blend-mode:normal"/></svg>
