<svg xmlns="http://www.w3.org/2000/svg" viewBox="0 0 792 306"><path fill="#53a3da" d="M136.2 45.5a107.6 107.6 0 0 0 0 215 107.6 107.6 0 0 0 0-215"/><path fill="#f1606d" d="M136.2 55.4c-17.3 0-32 27.6-37.3 66l-.4 3.8A233 233 0 0 0 97 144l-.2 9a227 227 0 0 0 1.7 27.8 285 285 0 0 0 49.6 2 285 285 0 0 0 28.4-2.4c33.8-4.7 57.3-15.2 57.3-27.4 0-54-43.7-97.6-97.6-97.6"/><path fill="#fff" d="m176.5 125.6-3.1-4.1a49 49 0 0 0-37.2-17.3c-4.9 0-9.2 7.4-12 18.9q-1.6 7-2.4 15.5a153 153 0 0 0 0 28.8 153 153 0 0 0 28.8 0c10-1 18.6-2.9 24.7-5.4s9.7-5.6 9.7-9c0-10.2-3.1-19.6-8.5-27.4"/><path fill="#231f20" d="M344.9 100c12.6 0 22.8 6.2 29.3 13.1L364 124.4a26 26 0 0 0-19-8.5c-16.9 0-29 14.2-29 37.3 0 23.5 11.2 37.6 28.3 37.6 9.1 0 16-3.7 21.7-10.2l10.1 11.2a41 41 0 0 1-32.1 15c-26.1 0-46.7-19-46.7-53 0-33.8 21-53.7 47.5-53.7m72 25.7c19.4 0 36.9 14.8 36.9 40.6 0 25.6-17.5 40.4-36.8 40.4s-36.7-14.8-36.7-40.4c0-25.8 17.5-40.6 36.7-40.6m0 66.2c11.4 0 18.3-10.2 18.3-25.6 0-15.6-7-25.8-18.2-25.8s-18.1 10.2-18.1 25.8c0 15.4 6.7 25.6 18 25.6m42.9-64.3h15l1.2 13.7h.6c5.5-10 13.7-15.6 21.9-15.6 4 0 6.4.5 8.8 1.6L504 143c-2.6-.8-4.7-1.2-8-1.2-6.1 0-13.5 4.2-18.2 15.8v47.2h-18.1zm81.3-1.9c21 0 32 15.1 32 36.7 0 3.4-.4 6.6-.8 8.5h-49.1c1.6 14 10.4 21.8 22.8 21.8 6.6 0 12.3-2 18-5.6l6 11.3a49 49 0 0 1-26.4 8.3c-21.4 0-38-15-38-40.4 0-25.2 17.4-40.6 35.5-40.6m16.2 33.7c0-12.3-5.2-19.7-15.7-19.7-9.1 0-17 6.8-18.6 19.7z"/><path fill="#f1606d" d="M600.6 152.6c0-32.7 17.8-53.3 42.8-53.3s42.6 20.6 42.6 53.3c0 32.9-17.7 54.1-42.6 54.1s-42.8-21.2-42.8-54m77.9 0c0-28.6-14.2-46.7-35.1-46.7s-35.2 18-35.2 46.7 14.1 47.5 35.2 47.5c21 0 35-18.7 35-47.5"/><path fill="#53a4d9" d="M699.7 186.1c7.6 8.5 18.5 14 30.6 14 15.7 0 25.8-8.5 25.8-20.7 0-13-8.5-17.2-18.7-21.8l-15.8-7c-9-4-21-10.4-21-25.8 0-15 13-25.5 30.1-25.5 12.6 0 22.7 5.6 29 12.4l-4.3 4.9a33 33 0 0 0-24.7-10.7c-13.7 0-22.8 7.2-22.8 18.5 0 12 10.4 16.6 18 20l15.7 7c11.5 5.1 21.7 11.6 21.7 27.5s-13 27.8-33.2 27.8a46 46 0 0 1-35-15.5z"/></svg>