<svg xmlns="http://www.w3.org/2000/svg" viewBox="0 0 549 158.07011"><path fill="#00467f" d="M79 30.334l16-11.667S84.333 0 56.333 0 0 21.667 0 57.667 29 113 58.667 113s39-19.667 39-19.667L81 81s-8.666 13-23.333 13C43 94 22.334 84 22.334 56.5s21-36.5 34-36.5S79 30.335 79 30.335zM139.667 35s-40.333 1.334-40.333 39.334S138 113 138 113s41.667-2 41.667-39-40-39-40-39zm-.167 58.764c-11.414 0-20.667-9.254-20.667-20.667 0-11.414 9.253-20.667 20.667-20.667 11.414 0 20.667 9.253 20.667 20.667 0 11.413-9.253 20.667-20.667 20.667zm65.833 16.904h-20V37.334h20v10s9.333-17.333 28.333-10c.333 7.333 0 18 0 18s-22.667-7.667-28 13.333c0 8.334-.333 42-.333 42zm37-73H263v73h-20.667zm0-27.667H263v20h-20.667zM364.667 110.67h-19.333v-73h19.333V46s4.667-11 20-11 27.667 11 27.667 23.334v52.333h-20V67s0-14-13.5-14C370.334 53 365 63 365 68.333s-.333 42.335-.333 42.335zM431.334 55H417V37.67h14.334V17h20V37.67h12.333L472 55h-20.333V89.67s1 7 9.667 5l8.666-2 2 16s-8.666 8-29.333 2C430.334 105.668 431 92 431 82s.334-27 .334-27z"/><circle cx="491.833" cy="101.834" r="13.167" fill="#00467f"/><path fill="#008c99" d="M487.334 64.95l-8.667-18.283s60-14.333 70.333 55.167c0 59.5-80 79.833-109.666 21.166 14 3.667 25.333 1.667 25.333 1.667s8.334 13 27.167 12.333c18.833-.666 35.833-12 35.833-33.666 0-21.667-16-37.768-40.333-38.384z"/><path fill="#00467f" d="M335.667 58.334C334.334 45.667 324 35 304 35s-31.333 13-31.333 13l10.667 10.334S291 51 304.667 51c13.667 0 14 13.334 14 13.334h-16.204c-14.537 0-33.796 8-33.796 23.667 0 15.668 12.333 24 26 25S318 103.335 318 103.335v7.334h17.667s1.333-39.667 0-52.334zm-19 28.333S314 97.334 302.463 97.334C294 97.334 289 94 289 88.667S298.334 78 306.667 78.334c8.333.333 10 0 10 0z"/></svg>
