<svg xmlns="http://www.w3.org/2000/svg" viewBox="0 0 549 158.1"><path fill="#00467f" d="m79 30.3 16-11.6S84.3 0 56.3 0 0 21.7 0 57.7 29 113 58.7 113s39-19.7 39-19.7L81 81s-8.7 13-23.3 13-35.4-10-35.4-37.5 21-36.5 34-36.5S79 30.3 79 30.3m60.7 4.7s-40.4 1.3-40.4 39.3S138 113 138 113s41.7-2 41.7-39-40-39-40-39m-.2 58.8a20.7 20.7 0 1 1 0-41.4 20.7 20.7 0 0 1 0 41.4m65.8 16.9h-20V37.3h20v10s9.4-17.3 28.4-10c.3 7.4 0 18 0 18s-22.7-7.6-28 13.4zm37-73H263v73h-20.7zm0-27.7H263v20h-20.7zm122.4 100.7h-19.4v-73h19.4V46s4.6-11 20-11 27.6 11 27.6 23.3v52.4h-20V67s0-14-13.5-14c-8.5 0-13.8 10-13.8 15.3zM431.3 55H417V37.7h14.3V17h20v20.7h12.4L472 55h-20.3v34.7s1 7 9.6 5l8.7-2 2 16s-8.7 8-29.3 2C430.3 105.7 431 92 431 82s.3-27 .3-27"/><circle cx="491.8" cy="101.8" r="13.2" fill="#00467f"/><path fill="#008c99" d="m487.3 65-8.6-18.3s60-14.4 70.3 55.1c0 59.5-80 79.9-109.7 21.2 14 3.7 25.4 1.7 25.4 1.7s8.3 13 27.1 12.3 35.9-12 35.9-33.7c0-21.6-16-37.7-40.4-38.3"/><path fill="#00467f" d="M335.7 58.3C334.3 45.7 324 35 304 35s-31.3 13-31.3 13l10.6 10.3S291 51 304.7 51s14 13.3 14 13.3h-16.2c-14.6 0-33.8 8-33.8 23.7s12.3 24 26 25 23.3-9.7 23.3-9.7v7.4h17.7s1.3-39.7 0-52.4m-19 28.4s-2.7 10.6-14.2 10.6c-8.5 0-13.5-3.3-13.5-8.6s9.3-10.7 17.7-10.4c8.3.4 10 0 10 0z"/></svg>