<svg xmlns="http://www.w3.org/2000/svg" xml:space="preserve" viewBox="0 0 700 203"><path fill="#fc0" d="m617 46-66-1-29-1-54-13L336 0l21 3 195 27 128 17z"/><path fill="#868c91" d="M386 153v-50h7q8 0 9 2c1 2 1 2 9-1q7-3 14-3 17 0 20 13c2 7 3 29 2 43q-2 17-10 20c-7 4-14 4-30-1l-2-1v28h-19zm35 11c6-2 7-5 7-24l-1-18q-4-8-19-4l-3 1v43l6 1zM16 178c-10-3-14-8-15-25-2-17 0-36 4-43q6-12 44-7l1 7v7H39c-13-1-15 0-17 5s-2 31 0 36c2 6 4 6 16 6h12v14l-6 1c-8 1-22 1-28-1m114 1q-14-5-14-21c-1-20 6-26 31-25l10 1-1-7c-1-10-1-10-19-10h-15v-14l5-1c9-1 29-1 33 1q10 2 13 9c2 4 2 6 3 35v32h-8q-8 0-8-3l-1-2-6 2c-7 3-20 4-23 3m25-16q2 1 2-9v-9l-4-1h-9q-10 0-9 10 0 9 5 11c4 1 12 0 15-2m47 14c-6-3-8-5-10-14l-1-26 2-21q2-10 9-13c6-3 19-2 29 2 2 1 2 0 2-13V79h20v100h-8c-7 0-7-1-8-3q-2-3-3-2-20 9-32 3m29-14 3-1v-21c0-25 0-23-11-24q-6-1-9 2l-3 2v18c0 17 0 18 2 21l4 4c3 1 11 0 14-1m95 15q-10-3-15-15c-2-5-3-7-3-22 0-14 1-18 2-22q6-15 22-17 21-2 30 6 6 7 7 25v14h-33l-4-6-4-5h24l-1-8q0-7-3-10t-8-2q-10 0-12 6c-2 4-2 30 0 35q4 10 28 7l10-1 1 7v7l-8 1c-11 2-27 2-33 0m154 0q-7-2-12-8c-4-5-4-10-5-25-1-31 4-41 23-43q26-3 34 9c4 5 5 9 5 26 1 25-2 35-13 40-6 3-24 3-32 1m23-16c3-3 4-8 4-24-1-16-1-18-6-20-3-2-11-2-14 0-4 2-5 6-5 23 0 18 1 20 6 22 4 2 12 1 15-1m168 17q-7-4-9-10l-2-28-1-24h-8v-14l5-1q7 1 7-3l2-8 1-3h14v72l2 2c3 3 3 3 10 2l8-1v7q0 8-2 8c-3 1-24 2-27 1M67 141v-38h7q9 0 9 2l1 2c11-5 14-6 23-6l3 1v7l-1 8h-7l-11 2-4 2v58H67zm205-12V79h19v100h-19zm269 19v-30l10-8 10-7v76h-20zm36-7v-38h16l1 2q0 3 8-1 23-7 32 4c4 6 5 12 5 42v29h-19v-28c-1-33-1-34-12-34l-8 1-3 1v60h-20zm109-30c-6-9-6-8 4-8h9v14h-5c-4 0-4-1-8-6m-11-63h11zm-132-3"/><path fill="#e1301f" d="m578 87 26-25-22-3-174-17 108 3 156 3 18 1-9 4-93 33-15 6z"/></svg>