<svg xmlns="http://www.w3.org/2000/svg" viewBox="0 0 916 218"><path fill="#004ea2" d="M8 216c-8-4-10-15-6-22 4-6 14-9 22-6q2 0 2 5v4l-3-2q-5-3-10 0c-7 4-4 16 5 16l6-2q3-2 2 3 0 6-2 5-9 2-16-1m31-1q-9-5-9-14 1-8 9-12c14-7 30 3 27 16q-1 7-8 11-10 3-19-1m16-7q5-6 0-12-7-6-13 1c-8 8 4 20 13 11m134 8c-8-4-10-15-6-22 4-6 14-9 22-6q3 0 2 5v4l-3-2q-5-3-11 1c-6 5-2 15 6 15l6-2q3-2 2 3 0 6-2 5-9 2-16-1m75-1q-9-5-9-14 1-8 9-12 13-6 24 4 4 3 3 9l-2 8c-4 7-17 10-25 5m16-7q5-6 0-12-7-6-13 1c-8 8 4 20 13 11m135 8c-10-6-11-19-3-26q6-4 17-3 4 0 3 5 1 7-2 3-5-3-12 1c-6 5-1 15 7 15l5-2q2-3 2 3 0 5-2 5-9 2-15-1m110 0q-6-4-8-12 0-9 8-15c8-4 20-2 25 5 3 4 4 12 1 16q-11 11-26 6m14-6q5-2 5-8 0-2-3-5c-5-7-15-3-15 5q-1 4 3 7 5 4 10 1m53 6c-15-9-8-29 10-29 14 0 23 14 15 24-5 6-17 9-25 5m16-8q4-3 3-7-2-7-9-8c-10 0-13 13-5 17q5 4 11-2m25 8q-8-5-8-14t8-13c8-4 20-2 24 3q2 2-3 3-4 3-6 0-6-3-12 1c-5 6-1 16 7 16q7-1 8-5l-4-1q-6 1-5-3v-3h18v4q0 8-8 12c-5 2-14 2-19 0m78 0q-5-2-1-5 2-4 5-1 8 4 9-1 1-2-6-5-9-2-8-8 0-7 8-9 8-1 12 2c2 1-1 6-3 5q-7-3-8 0-2 3 5 5l7 3q5 8-3 14c-3 2-12 2-17 0m57 0q-4-1-1-5l1-3 4 2q7 3 9 0 2-4-6-6-11-3-8-12 6-8 18-4 5 1 2 4-2 3-3 2l-5-1q-4 0-3 2-1 1 6 4 6 2 7 5 3 6-3 11-2 3-9 3zm126 0-3-2 2-3 2-3 3 2q5 3 9 0 3-3-4-5-14-5-9-13 6-8 18-4 4 0 2 4-2 3-4 2-5-3-8 0-2 2 7 5l6 4v10c-3 5-14 6-21 3M73 202v-14h5c4 0 4 0 10 6l8 10 2 3-1-10v-9h9v29h-9l-8-10-7-9-1 9v10h-8zm41 0v-14h5c5 0 5 0 11 7l8 10q1 4 1-8v-9h8v29h-9l-8-10-7-9-1 9v10h-8zm41 0v-14h21v6h-6q-7 0-6 2-1 4 6 3h5v7h-5q-7 0-6 2-1 4 6 3h6v6h-21zm62 3v-11h-3q-5 0-4-3v-3h24v3q1 3-4 3h-3l-1 11v12h-9zm22-3v-14h10v29h-10zm59 0v-14h5c4 0 4 0 10 6l8 10 2 3-1-10v-9h9v29h-9l-8-10-7-9-1 9v10h-8zm61 3v-11h-4q-5 0-4-3v-3h25v3q1 3-4 3h-3l-1 11v12h-9zm22-3v-14h20v3q2 3-6 3-6-1-6 2-2 4 6 3h6v7h-6q-8 0-6 2 0 3 6 2 8 1 6 4v3h-20zm57 0v-14h9v11h13v-11h9v29h-9v-12h-13v12h-9zm39 0v-14h5c4 0 4 0 10 6l9 12v-18h9v29h-5c-4 0-4 0-11-8l-7-10q-2-4-2 8v10h-8zm82 0v-14h9v23h12v6h-21zm114 8c0-6 0-6-6-14l-6-8h6q6-1 7 4l3 5 3-5c3-4 3-4 8-4h5l-2 3c-10 13-10 13-10 20v6h-8zm72 0c0-6 0-6-6-14l-6-8h5c6 0 6 0 8 4l3 5 3-5c2-4 2-4 8-4h5l-2 3-7 9q-3 3-3 10v7h-8zm55-5v-11h-4q-3 0-3-3v-3h24v3q1 3-4 3h-3l-1 11v12h-9zm22-3v-14h21v6h-6q-7 0-6 2-1 4 6 3h5v7h-5q-7 0-6 2-1 4 6 3h6v6h-21zm25 14 5-28h10l3 9 3 9 3-9 3-9h10l2 13c3 17 3 16-2 16-4 0-4-1-6-11q0-10-2-4l-3 9q-2 7-5 6c-3 0-4 0-6-9q-5-16-5 2l-1 7h-4zm-375-66q-44-6-60-42c-6-15-8-40-3-56q10-37 50-48c24-7 58-5 75 4q19 10 29 30l2 7-43 9-3-4q-4-9-15-14-12-4-25-1c-6 2-15 10-18 16-4 12-5 33-1 46q6 20 30 20 21 0 29-17l3-8q0-4 3-3c21 5 42 12 42 13l-2 7q-14 34-53 40c-10 2-28 2-40 1m349 0q-28-3-42-18-9-10-12-22c-3-11-4-10 13-11h34q6 24 28 23 13 0 20-7 9-10-4-19c-5-3-8-4-35-10q-23-6-35-14-9-6-14-15c-2-4-2-6-2-14s0-9 3-15q11-25 53-27c15-2 34-1 45 2q23 7 31 22c3 6 7 16 6 18l-21 1c-30 2-27 2-29-3q-5-14-23-14-21 1-17 15c2 4 6 5 23 9 44 9 61 17 69 33 2 6 3 7 3 17 0 11-1 12-4 18q-13 26-52 31zm-711-2-8-5C98 140 6 28 4 23 0 17 2 6 8 3c4-2 5-2 87-2h83v29H54l35 44 35 44h53v32h-32c-28 0-32-1-35-2m78-14v-16l25-1h25l23-42 24-44-46-1h-46V1h185l3 2c8 5 10 15 4 21-4 5-6 6-35 6h-26l-30 55-38 64-35 1h-33zm452-41V38h-52V3h156v35h-52l-1 55v55h-51zM139 75V61h78v28h-78z"/></svg>