<svg xmlns="http://www.w3.org/2000/svg" xml:space="preserve" viewBox="0 0 921 380"><path fill="#fdf1d9" d="m603 171 11-1 1-4v-25a100 100 0 0 0-7-29 64 64 0 0 1 13 38v4l1-5v-6 5l-1 20-1 3zm25-22q0-12-4-22-2-6-3-4v-1a95 95 0 0 0-37-62l10 5a64 64 0 0 1 22 24l-2-4q-3-7 3 3a104 104 0 0 1 11 65zm-6-17v3zm0-6q0-1 0 0v1zm-1-41-9-14q-8-8-11-8l-2-2-15-15c-11-9-27-15-39-18q-13-2-2-2a58 58 0 0 1 35 10l1 1-4-4q-8-5 0-1a101 101 0 0 1 46 53m-39-55a68 68 0 0 0-28-9l-6-2c-12-4-29-6-42-5-8 1-19 4-25 7q-5 2 3-3 7-5 17-8l14-1h10l-4-1h5a105 105 0 0 1 56 22"/><path fill="#d5e4f0" d="m378 170-7-16q-6-21-3-45l1-4v8c0 9 1 11 2 17l2 9q2 14 8 27l2 4 6 1h-3zm33 1h3zm-25-22c-4-5-8-14-9-19q-3-10-2-21 0-5-1-3l1-13a98 98 0 0 1 24-49l-2 3q-6 10-9 22l-3 9-5 21v25l8 28zm6-57q-2-23 11-41 4-6 0-3l-1 2 1-2a98 98 0 0 1 53-42l-3 3-8 4-13 13h-1l-4 3-17 18a111 111 0 0 0-17 48zm34-45 6-12q9-13 24-21 7-3 1-1-7 3 4-3a97 97 0 0 1 61-8h-5l-12 1-12 4h-2l-18 4a97 97 0 0 0-47 36m72-40h3zm8 0h2z"/><path fill="#fcd483" d="m593 160-1-20q-2-1 0 0a79 79 0 0 1 11 29l1-14-1-5 2 3 4 15v-3c1-5 0-18-2-25a112 112 0 0 0-24-48l10 5 9 8 5 5-8-14-2-3 3 3 8 7 4 4-9-16-17-17c-8-7-23-15-32-18l-4-1 3-1a76 76 0 0 1 29 5l-11-7-3-2 18 4-11-7a103 103 0 0 0-68-9l-3 1 1-1 17-8 13-3-13-1h-4l3-1 15-4h-19q-31 4-56 24l-4 4 1-3q12-19 22-25 11-4 26-7a100 100 0 0 1 60 14l1 1 2 1q0-1 0 0h1l4 3 5 4-4-3h-1l-3-2q-12-6-28-6-11-1 2 2a98 98 0 0 1 66 51l5 10-1-1-1-3h-1v-2l-5-5a62 62 0 0 0-24-18l3 3 8 7q22 22 26 53l1 20v4l-1 6v-3a62 62 0 0 0-13-38l1 2a100 100 0 0 1 6 52l-1 4h-21z"/><path fill="#fccf74" d="M588 165c1-10-1-26-4-34l-1-2 2 2 7 9v1c1 6 2 17 1 24v5h-5zm15 4v-3zm5-5-3-9q-1-7-2-3v-1a103 103 0 0 0-28-60l-3-4 11 4 1 1 2 1-1-1q-3-1 1 3a109 109 0 0 1 23 71v3zm-6 0q0-1 0 0v1zm2-4v-2 4zm-3 0q0-1 0 0m-3-8q0-1 0 0m-2-5-1-3 2 5zm26-2v3zm-16-36q-1 0 0 0m-1-3-1-1zl1 2zm-4-2-3-3zl3 3zm7-1-11-9 1 1-3-4a105 105 0 0 0-57-35l14-2q-3 0 2 2c9 3 24 11 32 18l17 17 9 16zm-6-1v1zm-6-2-1-1zl1 1zm5 0v-1zm-3-4v1zm-10-2q-1-2 0 0l1 1zm22-15v-1zv1zM453 58l4-8q0-2 5-6a107 107 0 0 1 74-23h-1l-17 5-2 1-14 2a105 105 0 0 0-49 29m127 0q0 1 0 0m-7-2q-1 0 0 0m-2 0q-1 0 0 0m-3-1h1zm-3 0h2zm-6-1h3zm25 0-16-4v1l-1-1q-1 0 0 0h-1l-4-2a90 90 0 0 0-35-6 88 88 0 0 0-31 4l2-3 7-5h3a103 103 0 0 1 75 14q7 3 1 2m-12-1q-2-1 0 0l2 1zm-56-21 1-1zq-1 0 0 0m52-3q-2-1 0 0m-43 0h1zm2-1h1zm2 0h2zm3-1 2-1v1zm-9-1h6z"/><path fill="#fbc24e" d="M573 169a94 94 0 0 0-5-47l-1-5h1l12 8 3 3-1-3-2-5a103 103 0 0 0-21-28l-8-8h4l13 1a89 89 0 0 0-43-20l-4-1 12-6q4-2 2-2a92 92 0 0 0-47 4l-5 1 9-12 1-2-4 1q-18 8-35 26l-3 4v-5l3-15 13-12q17-12 35-17 9-3 22-2l10-1-6 2a71 71 0 0 0-32 18l4-1q17-5 35-3a90 90 0 0 1 45 16l-11-3a93 93 0 0 0-31 1l5 2a103 103 0 0 1 63 51l-4-4q-11-11-24-16-11-5-3 2l12 15q12 17 15 38l1 22-1-1-4-14c-2-6-9-17-13-21l-2-1 1 2c3 8 5 24 4 34v5h-15z"/><path fill="#89afcf" d="M440 171h2zm-52-18v1q2 0 0 0zm-6-3-7-11q-2-4-2-10l1-13v1l3 15q-1 0 0 0v2l1 1v1q0-1 0 0l4 11 2 5zm-2-33q0-2 0 0v1zm-6-8 1-2zm6-5q0-2 0 0v1zm0-5q0-1 0 0m12-2v1zm-4-5-1-17 1-3 1-1v-1l1-1v-1l1-1 1-2 1-1v-1l1-1v-1h1v-1l1-1v-1h1v-1l2-1-1 1q0-1 0 0v1q-1-1 0 0l-1 1q0-1 0 0v1q-1-1 0 0l-1 1v2h-1v2q-1-1 0 0l-1 1v2q-1-1 0 0l-1 1-4 22-1 3zm15-43-1 1zm21 0 1-1v1zm-2-6 5-10 3-5q0-2 0 0l1-1 1-1 1-1h1l1-1 1-1h1q0-1 0 0l1-1h1v-1h1l1-1 3-1q0-1 0 0l1-1h1l-3 3a116 116 0 0 0-21 22m10-4 1-1zl-1 1zm-16 1 2-2 2-1-2 1zm5-5 2-2 2-1-2 1zm21-6 1-1zl-1 1zm25-2 13-13 6-4 4-2q-1-1 2-1l13 2h-2l-1 1h-3l-1 1h-2l-1 1q0-1 0 0h-2v1h-2l-1 1q0-1 0 0h-1l-1 1q0-1 0 0h-1l-1 1q0-1 0 0l-1 1h-1l-1 1h-1v1h-1l-1 1-1 1h-1l-1 1-11 6-1 1zm-29-1 3-2zl-3 3zm83-17h1zq-1 0 0 0m-6-1h1z"/><path fill="#f7b634" d="M479 169q5-1 11-9 2-1 2-3l-3-8 2-1 3-2-1-2-1-1h2l8-1q10 0 19-4l4-2 1 2q13 14 17 30l1 2h-67zm79-10 5-16v-25q-4-19-17-32-6-8-19-15c-7-4-10-5-19-6q-20-3-39 6c-4 2-16 9-17 11l-1-2q-1-2 3-7a96 96 0 0 1 39-26l-1 2-9 12 5-1 20-4c8-2 21-1 27 0q2 0-2 2l-12 6 4 1c10 2 23 7 31 11l12 9h-4l-9-1h-4l8 8 11 11 12 22 1 3-3-2-12-9-4-1 1 15-4 22z"/><path fill="#deb049" d="M468 165a44 44 0 0 1 4-24l9 1 2-3 1-2 12 5-2 1h-2l1 1 1 2-3 2-2 1 3 8q1 1-7 8-7 6-12 5h-4zm86 3q0-3 2-3v-1l1-2q-1 0 0 0l1-3 3-6 2-4a76 76 0 0 0 1-33l-1-1 2 1 3 4a100 100 0 0 1 5 49l-2-4-8-15-1 2zq-3 4 0 0m-54-26c5-1 14-7 17-10l1-2 3 3 3 3a35 35 0 0 1-20 6zm-49-63v-2 4zm39-14q-1 0 0 0m17 0q-1 0 0 0m-11-1h6z"/><path fill="#6b9dcb" d="M381 165q-6-12-8-28v-2l2 4 8 12 1 2-1-2-1-3-4-12 11 17-1-2-5-15q-7-29 1-54 4-11 3-2v10l1 4 1-3 4-19a63 63 0 0 0 0 25l1-5a95 95 0 0 1 35-64l2-1-1 1c-3 3-9 15-8 15l3-3q7-11 19-20l3-2q-1-1 0 0h1l7-4-3 2a60 60 0 0 0-27 33l3-4a96 96 0 0 1 60-37h2l-4 2-15 12-11 10a102 102 0 0 0-37 57l-2-11 3-27-2 3c-9 15-13 26-14 42q-2 17 4 34l1 5-3-3q-8-9-15-28l-2-5v10c0 9 1 11 2 16q5 23 20 41l3 4h-8l-4-2-13-11-3-2 2 4 5 8 2 3h-15Zm-7-50v-6zm20-50 1-1q0-2 0 0zm1-2 1-2zm2-3v-2q1-1 0 0v-1h1v-1l4-5q1-1 0 0zm80-38 1-1q1-1 0 0zm2-2 1-1v1zm12-7 2-1-1 1zm13-4h1zq-1 0 0 0m3 0h2zm5-1h7zm-19 0q-1 0 0 0m7-1"/><path fill="#96999a" d="M893 380q-2 0-2-4v-2h3l3-1 2-3c1-3 1-3-3-11l-8-21h8l4 10 3 10 4-10 3-10h7l-1 3-13 35-2 2zm-102-21v-21h7v3l3-2 7-2q8 1 10 9l1 8q1 8-2 9-2 5-8 5-5 1-9-2l-2-1v14h-7zm18 3q3-1 3-9 0-10-7-10-3 0-5 3-2 2-2 7 0 8 3 9zm-130 6q-6 0-10-6c-2-3-3-4-3-15 0-10 0-10 2-13 3-8 14-11 23-7q8 3 8 11l1 2h-8v-2q-1-6-9-6-5 1-8 4l-1 11 1 11c5 6 17 4 17-3v-1h8l-1 2q0 7-4 9-6 5-16 3m36 0q-8-2-10-8v-8l1-8q7-9 19-5 9 2 7 15 0 8-3 11-6 4-14 3m9-7 1-7q2-8-3-10h-7q-3 2-3 9 0 8 3 9 5 2 9-1m-449 7 12-31 2-7h3l4 1 13 37h-7l-1-4-2-4h-14l-2 4-1 4zm20-21-3-7-5 14h10zm533 20q-4-1-4-7 0-5 4-8l9-2h6v-2l-1-4-5-1q-5 0-6 3l-3 1h-3v-2q1-8 12-8 11 1 13 7v24h-3l-4-1q0-3-1-1c-2 3-10 3-14 1m11-4q4-2 4-5v-3h-5q-7 0-7 3-1 6 8 5m-100-10v-15h7v4l2-2q4-4 10-2l3 2 2 2 2-2q8-6 15-1c3 3 3 4 3 17v12h-7v-10c0-10 0-12-2-14q-5-2-8 2l-1 12v10h-7v-9c0-14-1-15-6-15l-4 1c-2 2-2 3-2 13v10h-7zm119 0v-15h7v4l1-2q3-3 8-3t8 3c2 2 2 5 2 17v11h-7v-7q1-15-2-16l-4-2-3 1c-3 2-3 4-3 14v10h-7zM504 171h2zM450 61l2-1 1-1-1 1zm3-9 2-1zl-1 1zm5-6 1-1zm5-8 1-1q2-1 0 0zm1-2 1-1q2-1 0 0zm3-3 1-1zm3-4 2-2zl-2 2zm5-5 2-2zl-2 2z"/><path fill="#a6c344" d="m481 142 2-5-1 3zm11-2-6-3-3-1 3-5 2-4h-2l9-5c3-1 12 1 18 5l4 4-11 9c-6 2-8 2-14 0m-20 1 1-1q1-1 0 0zm4-5 3-2zl-3 3z"/><path fill="#7495a1" d="M428 104q-3-4-4-9l-2-4 1-4q6-20 19-37c6-8 20-21 22-20q1 0 0 0 1-2 4-2v-1h1l4-2 1-1-3 4q-12 12-17 26l-2 6-1 1 1-1 1-1-1 1-2 1-3 4a97 97 0 0 0-17 44zm26-52 1-1zv1z"/><path fill="#9f9460" d="m553 170 1-2 9-18 8 15 2 5zm-97-15-2-1v-2l9-18 5-5 3-2 3 3 4 3 5-3 3-3 2-1q-2 0 0 0l-3 6-4 10-7-1v-1h-1l-4 12-3 3zm17-16 3-3 1-2-1 1-6 5zm1-1 2-2 1-1-1 1zm47-4-2-3zm4 2 1-1q2-1 0 0zm2-2 1-1v1zm5-4 2-2zl-2 2zm-39-8h2l-1 1zm-43-39 2-2 2-1-1 1zm36-18h1zq-1 0 0 0m23 0q-1 0 0 0m-18 0h2zm14 0h1zq-2 0 0 0m-53-2q0-1 0 0"/><path fill="#718e78" d="m474 137 3-3zl-3 3zm48-3q-7-8-19-11l-10-1-4 3-7 5-4 3-3-3-4-3 13-4a123 123 0 0 1 39 0l10 3 2 1-2 2-8 7zm-55-4-1 1zm3-2 1-1zm-39-17-1-2 1-6q5-19 14-34c3-5 8-11 8-9-2 6-3 23-2 23l2-2 2-1-2 2-2 1-8 9-10 20-1 1zm32-37 11-5-7 4zm62-3-25-6h-7l4-1q17 1 26 5l3 2zm-37-6h1zq-1 0 0 0"/><path fill="#3c80bb" d="M398 170v-2l-1-1q0-1 0 0l-1-1v-1q-2 0 0 0l-1-1q0-1 0 0l-3-5-2-4 3 2 16 13zm19-1-1-2-1-1q0-2 0 0 2 2 0 0l-1-2-1-1q-2 0-1-2l-2-2q1 0 0 0l-1-1q0-1 0 0l-1-1v-1l-1-1q0-1 0 0l-1-3h-1v-1l-2-3q0-1 0 0v-1h-1l-1-5h-1v-1q-2-1-1-4l-2-4q0-1 0 0v-1l-1-1c0 1-2-7-1-8v-1q-2 3-2-13V99l2 5a84 84 0 0 0 15 28l1 1 2 2-1-2v-4h-1v-2c-1 0-2-5-1-6l-1-1-1-10V96l2-13q0 2 0 0l1-4v-2l1-1q-1-1 0 0v-2l1-1q-1-1 0 0v-2h1q-1-3 1-2v-1l1-2v-2h1v-1l3-6q4-8 4-5c-3 10-4 25-2 35v9a104 104 0 0 0 5 49l-11-8-2-1q0 3-2 0l-2-1 10 20 12 14-7 1h-7zm-9-68v4z"/><path fill="#d76231" d="m454 170-1-5q-2-11 4-22 3-6 0 2l-3 9 7 1h7v4l1 8v3zm90 0a73 73 0 0 0-19-34l3-2 5-5 2-2 3 1q12 7 21 16l3 3q0-1 0 0c1 1-6 17-9 21l-1 2zm19-28q0-1 0 0v1zm1-4v3zm-1-11c0-6-2-16-4-20a77 77 0 0 0-32-36l8 5c5 4 13 11 16 16q7 9 11 21l2 16zm-27-1 1-2h1zm3-4 2-3-1 2zm15-10q-1 0 0 0h1zm-4-1q-1 0 0 0m-2 0q-1 0 0 0m-3-1h1zq-1 0 0 0"/><path fill="#2779ba" d="M331 367v-8h32q7-3 4-10c-2-3-2-3-19-3l-11-2c-8-4-10-19-2-25 3-2 5-3 24-3h17v8h-15c-17 0-19 1-20 3q-3 3-1 7c2 3 3 3 15 3 13 1 16 1 19 4q4 5 4 12 0 8-6 13c-2 1-7 2-24 2zm71 1-11-5-5-5v-1l-3-8 1-15q2-17 24-17 18 0 23 13l2 17-1 2-2 8-5 6-1 1-7 3zm11-9q6-1 7-9c2-4 1-14 0-17q-2-6-6-8h-12q-5 2-7 8-2 7 0 17 1 7 7 9zm27 8v-25l1-25h16l18 1q5 2 9 9c2 6 1 15-4 19-3 4-4 4-19 4h-11v18h-5zm30-26q4-2 4-8l-1-4c-2-4-2-4-13-4l-10 1v15zm23 26v-50h9v11c0 10 0 10 2 10h19v-21h10l1 26v25h-11v-21h-20v21h-5zm65 0q-13-3-16-15v-19q4-16 24-16 20-1 24 15l1 16q-2 12-11 17-10 4-22 2m14-8q5-2 7-8v-19q-2-5-6-6-7-3-13-1-5 3-7 8c-2 6-1 18 2 21v1l5 4zm24 4v-4h16c17 0 19 0 21-3 1-1 1-6-1-7-2-3-3-3-12-3l-13-1q-6-1-10-7l-1-7q0-5 2-7l3-5c3-2 5-3 24-3h17v8h-15l-17 1c-5 1-6 8-1 11l13 1 14 2q5 2 7 7l1 12-1 2q-2 4-8 7l-20 1h-19zM399 170h3zm26 0 7-1-2-1a96 96 0 0 1-20-33l2 1 2 1q0-1 0 0l-1-1 5 3 9 7-11-8h-1l3 7q6 13 16 23l2 2zm-10-4v1zm-7-63v-2 4z"/><path fill="#45718e" d="M430 139q0-1 0 0v1zm-3-2q0-1 0 0v1zm2-4v-22l-1 4-1 13q0 9-1 5l1-21v-5l-2-5q-5-8-3-9l1-1q-1-1 0 0v3l1 1v2q1-1 1 2l1 1v1l1 1q0-1 0 0v1l1 1v2h1v2l2 3h2v-2 2l-1 1-2 17v8zm91-11-5-1h-2q1-1-4-1h-2l2-1-2-2v-3l3-1 4-1q2-3-1-11l-1-4 9-6q5-2 5 1v3q1-1 1 1v5q1-2 1 3t-1 3v1a28 28 0 0 1-4 15zm-30 0q-1 0 0 0m9-1h1zm3 0h1zq-1 0 0 0m-63-22a54 54 0 0 1 14-18q3-3 3-1l-1 1-4 3-9 11zm77-22-1-2zl2 1zm-57 0 2-1-1 1zm16-8 1-1zq-1 0 0 0m2-1 9-3 1 1h-1zm16-2h2zm-3-1h2z"/><path fill="#ca3b30" d="M453 164q0-1 0 0v1zm0-7q0-1 0 0v1zm106-13q-8-8-20-15l-3-3 2-3 1-1 1-2q-1 0 0 0h1l-1-1v-1h1l1-1v-4l1-3-1-15c-2-7-7-17-11-21q-3-1 0 0l5 4c9 6 19 20 23 30 3 7 5 21 5 29l-2 11zm-4-32h-1q-1 0 0 0zm-4-1h-1q-1 0 0 0zm-2 0h-1q-1 0 0 0zm-3-1h-1q-1 0 0 0z"/><path fill="#326b98" d="m429 147-3-5-4-18c-1-6-2-19-1-25l1-3 2 5 3 6v5l-1 21q1 4 1-5l1-13 1-4v23l1 4v-6l4-22 1-3q0-1 0 0l-1 5v1l-1 1q-2 2-2 20l1 12q1 4-3 1m1-8q0-2 0 0v1zm-3-2q0-1 0 0v1zm61-15h1zm9-3 3-2q2-1-1-3l-3-2 5-5 8-8 4-2v4q3 8 1 11l-4 1-3 1v3l2 3h-3l-6 1h-6zm8-5-4 2 2-1zm22-7v2zm-90-3 1-2zl-1 1zm90-3v-1zm-83-10 1-1v1zm3-3-1 1zm1-1 7-6-4 3zm8-7 3-2zm31-14 3-1 3 1z"/><path fill="#1666ab" d="M434 168q-13-14-19-29l-1-3 4 3q9 8 14 9v-2l-1-24 2-8 1-1q0-1 0 0l1-3 1-4-1 1 3-4 5-9-2 6-6 12c-3 9-3 14-3 24q1 19 10 31l2 3h-8Zm34-45-10-16-5-15-1-2 5-1a38 38 0 0 1 44 14l2 2-3 4-4 3 3 2q3 2 1 3l-3 2-6 2c-4 0-13 3-19 5zm33-7 4-2-2 1zm-55-25 4-6zm6-3q0-1 0 0v1z"/><path fill="#695268" d="M433 141q0-1 0 0m0-5v2zm24-1q-11-6-19-16-3-4-4-2l2-6 7-15 3-4 1-1-1 1 1-2 4-4v3q1-1 1 2l6 17q4 8 10 15l3 4-5 4-5 5zm-7-47 1-2zl-2 1zm-17 38v2zm99 0-5-2-4-2 1-2q5-11 3-23-5-24-32-31l-3-1h6q23 2 33 11c13 13 16 33 6 48l-2 3zm-72-50 3-1q5-3 0 0z"/><path fill="#b1323d" d="m443 167-8-17 3 1 13 3h2v14l1 2h-9Zm-10-40q0-1 0 0m110-23v-2 3zm-12-28-1-2zl1 2z"/><path fill="#9b384c" d="m447 153-12-4a63 63 0 0 1-1-31l1-1 3 3a71 71 0 0 0 22 17l-1 3-5 11-2 3zm0-62 1-1zm1-2 2-1 1-2-1 2z"/><path fill="#2e5a96" d="M432 130v-3 5zm1-7v-1zm34-1-1-1zm-34-3v-2q1-1 1 1-1 4-1 1m1-8 1-2zm66-9q-13-17-36-15l-12 4v-6l-2 2-2 1q0-3 2-2v-1l3-2 10-7 13-7 18-3q15 2 27 16l4 8-5 2-18 13zm-62 0 8-11-1 1-1 2-1 1v1h-1v1l-1 1q0-1 0 0v1q-1-1 0 0l-1 1zm8-12"/><path d="M155 342q-7-1-10-6-3-6 2-13 4-4 9-5l10 5q6 5 8 2l12-24 1-3-10-22-30-64-8-4-1-5h46l1 3-1 3-3 1-6 1-1 2 4 10 21 44 19-52-1-2q-2-2-8-3l-5-1q-2 0-1-4c0-2 1-2 11-1l17-1 11-1h1v3c0 3 1 3-6 5l-6 2-12 30-30 70c-6 15-10 21-15 26l-6 4zm99-60V171q0-2-6-4l-6-2v-5l5-2 14-7 8-4h4l4 1v64l4-3q7-6 19-10c7-1 18-1 25 1q11 5 18 14 5 8 7 15 6 22-8 42-7 10-18 15-6 4-16 4c-15 2-22 0-39-10q-1-4-7 6l-3 6h-6zm50 0q12-3 17-14 4-6 4-15 3-15-4-27-5-11-17-14h-12l-13 5-2 2 1 23c0 28 0 29 4 33q10 10 22 7m95 10q-10-2-18-8-12-8-17-26c-1-5-2-15-1-21l5-14c4-8 14-17 22-21q7-4 18-4 21-1 33 12l7 11q3 5 3 12l1 3h-9l-45-1h-10v6q1 27 23 34 16 5 31-6l3-1 2 1 3 2 2 1-3 3q-12 13-29 16zm24-64h5l-1-3q-1-10-7-16l-5-3q-7-3-14 0-10 5-13 21v1zm154 63q-12-1-20-7-19-12-20-35-2-14 4-25 7-15 23-22 10-4 26-4 20 0 32 13 10 9 13 23c2 5 1 16 0 23a46 46 0 0 1-23 30c-8 4-12 4-24 5zm19-8q6-4 10-10c3-8 4-15 4-33 0-13-1-17-4-23q-8-13-23-12-12 2-16 13-3 5-4 21-1 31 8 40 6 6 17 6zm-531 8q-17-2-27-7c-9-5-21-15-26-23q-13-18-12-43 1-17 7-30 17-33 54-40c13-2 40-1 57 3 6 1 6 1 10 14 2 9 4 19 3 20h-9l-4-4q-11-15-23-20-20-6-35 0-21 12-25 44l-1 33c2 16 12 32 23 38q9 5 20 5 10 2 18-3c8-3 19-13 26-22q2-5 5-4l5-1c3 0 3 0 1 10l-4 16q-1 5-3 6-9 6-26 8zm597-1q-9-1-13-9l-1-8q0-6 6-13l13-9 18-8 16-6v-8q1-20-7-23c-5-2-14 0-18 5q-4 2-5 10l-2 7-18 8-3-1-1-5q0-7 8-15c13-12 24-16 43-16q13 0 20 6 4 3 6 11l1 29v26l1 3q4 6 16 8l12-2 1-47c-1-13-1-14-11-17l-4-2v-4l7-2q14-3 21-10 4-5 7-4h2v8l1 8 5-3q8-6 16-8c6-2 17-2 22 0a32 32 0 0 1 20 14l3-3q14-12 32-12 25 1 31 24l1 30c0 29 0 27 5 29l4 1q4 1 4 4 0 4-2 3h-7l-38-2v-3l5-2c7-3 6-1 6-26 0-21-1-29-2-34q-3-11-14-14c-7-1-18 4-24 11l-2 3v27l2 31 9 2q4 0 5 3v4h-53l-1-3v-4h7q8-1 8-5l-1-57q-3-6-8-9-12-5-26 2-5 4-7 8a415 415 0 0 0 0 58l5 2c7 2 7 1 7 5l-1 3h-40c-7 2-21 2-28 1q-10-2-15-11l-2-5-3 3q-4 6-10 9-14 7-29 4m28-11c3-1 9-6 10-9l1-13v-12h-1l-14 7q-13 7-12 16-1 8 6 12 4 2 10-1m-231 8q0-3 4-4l11-5v-17c1-18 0-36-1-39l-8-3q-4-1-3-5-1-2 3-3 13-3 21-14l3-3h7v11l1 11 3-5 11-12h11q6 3 9 8 1 5-1 9-3 7-10 7-5 1-11-4l-4-2-5 5c-3 6-3 6-2 30l1 25q2 4 10 5 11 0 9 5v2h-59z"/></svg>