<svg xmlns="http://www.w3.org/2000/svg" viewBox="0 0 618.5 112.9"><path fill="#ed192d" d="M33 0C14.9 0 0 12 0 26.7V64c0 14.7 14.8 26.7 33 26.7 18.3 0 33-12 33-26.7v-2.2q0-1.8-1.3-3.1a7 7 0 0 0-4.9-1.7c-2.9.2-5.3 2.4-5.3 5v2c0 9.2-6.6 15-17.3 15-10.2 0-17.8-6.5-17.8-15V26.7c0-8.5 7.6-14.9 17.8-14.9 11.4 0 18.7 5.9 18.7 15v2.1c0 2.6 2.3 4.6 5.1 4.6 2.9 0 5-2 5-4.6v-2.2C66 12 51.4 0 33 0m98.8 0c-6 0-9.7 3.5-9.7 9.3V86c0 3.2 1.9 5.2 5 5.2a6 6 0 0 0 3.6-1.5l.5-.3 6.2-5q6.3 6.7 16.2 6.8c12.1 0 23.6-9.6 23.6-19.7V54.4c0-10.2-11.5-19.8-23.6-19.8a25 25 0 0 0-12.2 3.5V9.3c0-6.4-4.8-9.3-9.6-9.3m-18.6 34.9c-3.1 0-5.6 1.4-6.6 3.7l-8.3 18.5c-.3.7-1.2 1.6-2 1.6-.3 0-.8 0-1.6-1.7l-9-16.5c-2.3-4.9-5.9-5.5-9.4-5.5-3.9 0-7.3 1.7-9 4.4a6 6 0 0 0-.1 6.5l13 22.4q6.6 11.3 3.8 19-3 8.3-17.5 13.7l-3.6 1.3c-2.9 1-4.4 3.6-3.7 6.4 1 3.5 5.5 4.9 9 3.9l3.3-.9a43 43 0 0 0 31.9-27.9L118.2 41q.6-2.3-.7-4.1-1.5-2-4.3-2m132.4 0c-3.3 0-4.7 2.5-4.7 4.9v42.8c0 4.5 4.4 8.1 9.7 8.1 5.4 0 9.8-3.6 9.8-8V54l2.5-2q3.8-3 10-3h5.3c4.5 0 8.4-3.2 8.4-7s-3.9-7-8.4-7h-3.6c-4.3 0-9.6 2.6-13.8 7l-2 1.9-8.9-7.2a7 7 0 0 0-4.3-1.8m-36.5.2c-13.4.1-27.3 7.3-27.3 19.3v17c0 11.6 15.2 19.3 29.4 19.3h7.1c4.7 0 6.3-2.3 6.3-4.4s-1.6-4.5-6.3-4.5h-7.1c-6.5 0-11.2-5.5-11.2-10.3v-5c0-.3 0-1 1.7-1h25.8c5.4 0 9.5-3 9.5-7v-4.2q0-6.5-4.9-11.4c-5-5-13.6-7.9-23-7.8m0 11c6.6 0 8.4 3.6 8.4 5.8v1.5c0 .6-.2 1.6-1.4 1.6h-13q-1.7-.1-1.8-1.2v-1.7s.1-6 7.8-6m-59.7.8c5.6 0 8.5 5 8.5 9.8v14.8c0 4.6-5.5 7.4-9.5 7.4-2.2 0-9.4-.5-9.4-7.4V54.4c0-6.5 6.5-7.5 10.4-7.5"/><path fill="#231f20" d="M291.8 14v75.2h23.4V62h11.7c7.2 0 14.7-1 20.5-5.8a23 23 0 0 0 8.3-18.4c0-8.1-4.1-15.6-11.1-19.7-6.5-3.8-14.7-4-22-4zm305.8 6.2v1.7h3.2v8.3h2v-8.3h3.2v-1.7zm10.1 0v10h1.8v-8l2.8 8h1.6l2.8-8v8h1.8v-10h-2.8l-2.6 7.1-2.5-7.1zm-292.5 11h6.7c5.2 0 11 .6 11 7.3 0 7-6.4 7.3-11.7 7.3h-6zm272 .9c-7.5 0-11.2 5.3-13 12.6h-.1V33.2h-18.6v56h21.8V65c0-3.3 0-7 1.5-9.7 1.7-3.1 5.3-3.8 8.8-3.8q2.2 0 4.2.5V32.3l-3-.2zm-203.4 0c-17.6 0-30.8 11.6-30.8 29.6 0 17 13.7 28.6 30.8 28.6s30.8-11.6 30.8-28.6c0-18-13.3-29.6-30.8-29.6m136.9 0c-8 0-16.6 2.8-22.3 8.7a31 31 0 0 0-8.2 21.1 28 28 0 0 0 9.2 21 33 33 0 0 0 22.6 7.4c13.3 0 25.3-6.2 28.7-19.8l-20.5-1.3c-.9 4.8-3.6 6.7-8.5 6.7-6.6 0-8.8-4.3-8.5-10.4h37.5v-2.9c0-18.4-11.4-30.5-30-30.5m-109.5 1.1 18 56h15.6l7.6-30.4h.2l7.3 30.4h15.8l17.7-56h-15.2l-7.8 27.4-7-27.4H447l-6.9 27.4h-.2l-7.2-27.4zM520.9 45c6.1 0 7.9 4.2 7.9 9.7h-15.7c-.2-5.2 2.1-9.7 7.8-9.7m-137.1 1c7.4 0 7.6 9.7 7.6 15 0 15-3.7 16.2-7.6 16.2-4 0-7.6-1.2-7.6-16.2 0-5.3.1-15 7.6-15"/></svg>