<svg xmlns="http://www.w3.org/2000/svg" xml:space="preserve" viewBox="0 0 628 187"><path d="M224 187c-16-5-8-30 8-26 3 1 8 6 7 7l-5 1-4-4c-7-2-12 7-8 14 2 5 9 5 11 0l1-1q6 0 4 3-4 8-14 6m83 0q-8-4-9-14c2-18 27-16 26 2q-2 14-17 12m7-5q7-4 3-13-5-6-11-2c-6 8 0 19 8 15m41 5q-10-4-9-16c3-14 22-14 25 0 2 10-7 19-16 16m7-5c5-2 5-14 0-16-7-3-13 4-10 12q2 7 10 4m23 5c-11-2-13-20-3-25q7-3 12 0c3 1 6 6 4 6h-4c-1-3-8-4-11-1-4 4-3 12 1 15 4 2 11 1 11-3v-1h-7v-5h11v14h-2l-2-1-2 1zm-209-11v-10h-8v-5h20v4h-3l-4 1v21h-5zm17-2v-13h19v4h-7l-7 1v2l1 3h12v5h-13v7h15v4h-20zm51 13v-26h5v10h12v-10h5v26h-5v-11h-12v11zm28-13v-13h5l5 9 6 8v-17h5v26h-4l-6-8-6-9v17h-5zm56 0v-13h5v22h11v4h-16zm82 8v-6l-2-3-5-7-3-5h6l3 5c4 6 3 6 6 0l3-5h6l-5 8-4 7v11h-5zm-168-39L286 4l1-1h38l-14 51c24-24 64-18 62 8 0 5 1 3-18 60l-6 21h-39l10-32 11-31v-2c0-15-23-11-31 5l-19 58v2zm153 0c-13-2-22-14-20-26l1-3 12-39 12-36h38l-10 32c-11 33-11 33-10 35 1 10 15 10 25 0 5-4 4-3 15-37l10-30h38l-33 101h-38l2-6q4-10 1-6a57 57 0 0 1-43 15m126 0c-28-4-27-38 0-52 8-4 13-5 34-9l28-6 4-2 1-1v-8c-9-6-24-4-32 6l-2 2h-1l-31-3q-5 0-2-4 22-34 80-27 36 6 26 38l-17 63v1h-36l-1-2q-3-4-1-10h-1q-4 4-12 8c-10 5-26 7-37 6m31-21q16-3 24-16c3-4 6-13 5-13l-13 4-19 6c-13 6-11 20 3 19"/><path fill="#e60012" d="M66 186c-55-4-81-53-57-106C43 8 143-25 191 21c10 10 18 27 18 40q0 4 1 0l10-30 9-28h38l-34 106a55 55 0 0 1-59 33q-8 1-3-2c36-31 43-85 14-111-43-40-132-8-157 56-22 56 20 100 83 87a130 130 0 0 0 33-12v7l-4 2q-36 20-74 17"/><path d="M66 143c-26-4-27-37-1-51 8-4 14-6 30-9q24-3 34-8l3-1 1-1 1-5v-3h-1a24 24 0 0 0-33 8l-9-1-25-2q-4-1-1-3c16-25 48-34 87-27q22 5 22 27c0 5 0 3-10 34-11 34-11 34-9 38v1l-19 1h-18l-1-2-1-9h-1a69 69 0 0 1-49 13m35-22q16-4 23-18l2-10-14 4c-16 4-21 7-24 11-6 9 1 15 13 13"/></svg>