<svg xmlns="http://www.w3.org/2000/svg" xml:space="preserve" fill-rule="evenodd" clip-rule="evenodd" image-rendering="optimizeQuality" shape-rendering="geometricPrecision" text-rendering="geometricPrecision" viewBox="0 0 108 19"><path fill="#183884" d="M80.4 14.7a6 6 0 0 0 3.9-1.4 5 5 0 0 0 1.5-3.5q0-2.1-1.5-3.6a6 6 0 0 0-4-1.3 6 6 0 0 0-3.9 1.4A5 5 0 0 0 75 9.8q0 2.1 1.5 3.5a6 6 0 0 0 4 1.4m0 1.4q-3.2 0-5.3-1.8a6 6 0 0 1-2-4.5q0-2.7 2-4.6a8 8 0 0 1 5.2-1.8q3.3 0 5.3 1.8a6 6 0 0 1 2 4.6q0 2.7-2 4.5a8 8 0 0 1-5.3 1.8zm-34-5h6.1l-3.1-5.3zm-4.6 4.7 6.9-12.1H50l7 12.1h-2l-1.8-3.2h-7.8l-1.8 3.2zm-19.2-4.7h6.2l-3.1-5.3zm-4.5 4.7L25 3.7h1.5l6.9 12.1h-1.9l-1.9-3.3h-7.7L20 15.8zM10.6 5.1H6.4v9.3h4.2q2.6 0 4-1.2a4 4 0 0 0 1.6-3.4q0-2.2-1.5-3.4a6 6 0 0 0-4-1.3zm0-1.4A8 8 0 0 1 16 5.4a6 6 0 0 1 2 4.4q0 2.7-2 4.4a8 8 0 0 1-5.3 1.6h-6V3.7Zm26.1 12.1V5.1H32V3.7h11.2v1.4h-4.7v10.7Zm34.1-2.6a7 7 0 0 1-2.4 2 8 8 0 0 1-3.8.9q-3.1 0-5.2-1.8a6 6 0 0 1-2-4.5q0-2.8 2-4.6a8 8 0 0 1 5.2-1.8q2 0 3.5.8a7 7 0 0 1 2.6 2l-1.4 1a5 5 0 0 0-2-1.7 6 6 0 0 0-2.7-.6q-2.4 0-4 1.4a5 5 0 0 0-1.5 3.5q0 2.1 1.6 3.5a6 6 0 0 0 3.9 1.4 6 6 0 0 0 4.8-2.4zM90 15.8V3.7h1.6l5.7 7.4 5.7-7.4h1.6v12.1H103V6.4l-5.6 7.1-5.6-7.1v9.4z"/></svg>