<?xml version="1.0" encoding="UTF-8" standalone="no"?>
<!-- Created with Inkscape (http://www.inkscape.org/) -->

<svg
   width="412.23334mm"
   height="111.85035mm"
   viewBox="0 0 412.23334 111.85035"
   version="1.1"
   id="svg1247"
   inkscape:export-filename="datacom-dm1200e.svg"
   inkscape:export-xdpi="96"
   inkscape:export-ydpi="96"
   sodipodi:docname="datacom-dm1200e.svg"
   inkscape:version="1.2.1 (9c6d41e410, 2022-07-14)"
   xmlns:inkscape="http://www.inkscape.org/namespaces/inkscape"
   xmlns:sodipodi="http://sodipodi.sourceforge.net/DTD/sodipodi-0.dtd"
   xmlns="http://www.w3.org/2000/svg"
   xmlns:svg="http://www.w3.org/2000/svg">
  <sodipodi:namedview
     id="namedview1249"
     pagecolor="#ffffff"
     bordercolor="#000000"
     borderopacity="0.25"
     inkscape:showpageshadow="2"
     inkscape:pageopacity="0.0"
     inkscape:pagecheckerboard="0"
     inkscape:deskcolor="#d1d1d1"
     inkscape:document-units="mm"
     showgrid="false"
     inkscape:zoom="0.79394254"
     inkscape:cx="764.53896"
     inkscape:cy="212.86175"
     inkscape:window-width="1536"
     inkscape:window-height="801"
     inkscape:window-x="-8"
     inkscape:window-y="72"
     inkscape:window-maximized="1"
     inkscape:current-layer="layer1" />
  <defs
     id="defs1244" />
  <g
     inkscape:label="Camada 1"
     inkscape:groupmode="layer"
     id="layer1"
     transform="translate(103.92312,-57.623217)">
    <g
       id="g3088">
      <path
         style="fill:#c2c2c2;stroke-width:1"
         d="m 163.10154,166.73695 c -1.3398,-0.49479 -3.16371,-1.59213 -3.78212,-2.27546 -0.39825,-0.44007 -0.45255,-0.67473 -0.23576,-1.01899 0.4635,-0.73605 1.11056,-0.66927 2.12227,0.21903 1.52614,1.33997 3.13128,1.94022 5.24208,1.96031 2.2007,0.0209 3.63389,-0.60073 4.58444,-1.98855 0.52339,-0.76418 0.60253,-1.15543 0.51644,-2.55323 -0.13925,-2.26043 -0.91072,-3.02064 -4.92533,-4.85343 -5.49757,-2.5098 -6.42737,-3.38204 -6.60666,-6.1976 -0.13229,-2.07769 0.56206,-3.47771 2.29362,-4.62466 1.4575,-0.9654 2.39217,-1.14633 5.16897,-1.00058 1.7431,0.0915 2.42832,0.25446 3.35615,0.7982 1.67056,0.97902 2.25432,1.67662 1.8304,2.18741 -0.47093,0.56743 -0.96654,0.50118 -1.96859,-0.26313 -1.31685,-1.00441 -3.15674,-1.54411 -4.65795,-1.36632 -2.60516,0.30854 -3.95165,1.65294 -3.95347,3.94734 -0.003,1.99249 1.06332,2.95878 5.35597,4.86009 5.34658,2.36812 6.52151,3.76425 6.2207,7.3917 -0.15722,1.89591 -1.19979,3.4109 -2.97765,4.32698 -1.11028,0.57208 -1.71716,0.68564 -3.96392,0.7417 -1.72852,0.0431 -2.98976,-0.0582 -3.61959,-0.29081 z m 73.81484,0.10956 c -1.94665,-0.59429 -3.99584,-2.20691 -5.06193,-3.98348 -1.36905,-2.28146 -1.98856,-6.01479 -1.54668,-9.32086 0.5167,-3.86596 2.28137,-6.74211 5.07401,-8.26984 1.20909,-0.66144 1.75248,-0.78166 3.94239,-0.87222 2.80515,-0.11601 4.05573,0.24439 5.71503,1.64697 0.73781,0.62366 0.8086,0.78775 0.53133,1.23172 -0.45195,0.72371 -1.17113,0.63654 -2.19981,-0.26665 -3.00829,-2.64134 -7.84536,-1.1865 -9.87937,2.97142 -1.381,2.82304 -1.49843,7.62202 -0.26625,10.88067 1.84442,4.87784 7.41888,6.39907 11.00103,3.0021 0.89631,-0.85 1.58346,-0.89148 2.04887,-0.1237 0.2452,0.4045 0.14239,0.6132 -0.63271,1.28442 -1.75005,1.5155 -3.31265,2.06385 -5.81728,2.0414 -1.23617,-0.0111 -2.54505,-0.11096 -2.90863,-0.22195 z m 56.54503,-0.10956 c -1.3398,-0.49479 -3.16372,-1.59213 -3.78213,-2.27546 -0.39824,-0.44007 -0.45253,-0.67473 -0.23576,-1.01899 0.46351,-0.73605 1.11058,-0.66927 2.12228,0.21903 1.52613,1.33997 3.13128,1.94022 5.24208,1.96031 2.2007,0.0209 3.63389,-0.60073 4.58444,-1.98855 0.52339,-0.76418 0.60253,-1.15543 0.51644,-2.55323 -0.13925,-2.26043 -0.91072,-3.02064 -4.92533,-4.85343 -5.49757,-2.5098 -6.42738,-3.38204 -6.60666,-6.1976 -0.13229,-2.07769 0.56206,-3.47771 2.29362,-4.62466 1.4575,-0.9654 2.39217,-1.14633 5.16897,-1.00058 1.74309,0.0915 2.42832,0.25446 3.35615,0.7982 1.67056,0.97902 2.25432,1.67662 1.8304,2.18741 -0.47093,0.56743 -0.96654,0.50118 -1.96859,-0.26313 -1.31685,-1.00441 -3.15675,-1.54411 -4.65795,-1.36632 -2.60516,0.30854 -3.95165,1.65294 -3.95347,3.94734 -0.003,1.99249 1.06332,2.95878 5.35597,4.86009 5.34658,2.36812 6.52151,3.76425 6.2207,7.3917 -0.15722,1.89591 -1.19979,3.4109 -2.97765,4.32698 -1.11028,0.57208 -1.71716,0.68564 -3.96392,0.7417 -1.72852,0.0431 -2.98976,-0.0582 -3.61959,-0.29081 z M -6.0871124,155.72364 v -11.1057 H 0.25900698 6.6051264 v 0.66105 0.66105 H 1.3166935 -3.9717393 v 4.23075 4.23075 h 4.3629571 4.3629571 v 0.66105 0.66105 H 0.3912178 -3.9717393 v 4.8918 4.8918 H 1.4489044 6.869548 v 0.66106 0.66105 H 0.3912178 -6.0871124 Z M 16.388727,156.3847 V 145.94004 H 12.819035 9.2493428 v -0.66105 -0.66105 h 8.0648602 8.06486 v 0.66105 0.66105 H 21.941582 18.5041 v 10.44466 10.44465 h -1.057686 -1.057687 z m 13.485504,-0.66106 v -11.1057 h 1.057686 1.057687 v 4.8918 4.8918 h 5.552855 5.552854 v -4.8918 -4.8918 H 44.153 45.210686 v 11.1057 11.10571 H 44.153 43.095313 v -5.55285 -5.55286 h -5.552854 -5.552855 v 5.55286 5.55285 h -1.057687 -1.057686 z m 21.946996,0 v -11.1057 h 6.34612 6.346119 v 0.66105 0.66105 H 59.225033 53.9366 v 4.23075 4.23075 h 4.362957 4.362958 v 0.66105 0.66105 H 58.299557 53.9366 v 4.8918 4.8918 h 5.420644 5.420644 v 0.66106 0.66105 h -6.478331 -6.47833 z m 17.71625,-0.0252 v -11.13093 l 4.825695,0.10212 c 5.13304,0.10862 6.170998,0.32994 7.56729,1.61357 2.056598,1.89066 2.171848,6.24829 0.220528,8.33818 -0.685212,0.73387 -1.731539,1.30924 -3.140124,1.72673 l -1.01563,0.30102 2.537739,4.23075 c 1.395758,2.32691 2.779069,4.62456 3.074026,5.10588 l 0.536287,0.87514 -1.249734,-0.0819 -1.249736,-0.0819 -2.96726,-5.02401 -2.967258,-5.02401 -2.028225,-0.0772 -2.028225,-0.0772 v 5.16734 5.16734 h -1.057686 -1.057687 z m 9.755961,-1.16467 c 1.446931,-0.85227 1.974074,-1.77494 2.078851,-3.63865 0.120426,-2.14207 -0.43372,-3.26337 -2.051211,-4.15056 -1.038347,-0.56952 -1.602451,-0.66639 -4.429063,-0.76049 L 71.65285,145.8762 v 4.68585 4.68586 l 3.371376,-0.0927 c 2.785138,-0.0765 3.527499,-0.18462 4.269212,-0.6215 z m 9.017976,1.17469 v -11.12091 l 1.086479,0.0813 1.08648,0.0813 5.341351,8.9735 c 2.937743,4.93543 5.453316,9.0109 5.590166,9.0566 0.15339,0.0512 0.21535,-3.41574 0.16155,-9.03961 l -0.0873,-9.1227 h 1.07885 1.07885 v 11.1057 11.10571 l -1.12379,-0.009 -1.12379,-0.009 -5.392586,-9.10542 c -2.965919,-5.00797 -5.494451,-9.04245 -5.618959,-8.9655 -0.124509,0.077 -0.22638,4.17854 -0.22638,9.11464 v 8.97473 H 89.23689 88.311414 Z m 21.946996,0.0152 v -11.1057 h 6.34612 6.34612 v 0.66105 0.66105 h -5.28843 -5.28844 v 4.23075 4.23075 h 4.36296 4.36296 v 0.66105 0.66105 h -4.36296 -4.36296 v 4.8918 4.8918 h 5.42065 5.42064 v 0.66106 0.66105 h -6.47833 -6.47833 z m 22.47584,0.66106 v -10.44466 h -3.56969 -3.56969 v -0.66105 -0.66105 h 8.06486 8.06486 v 0.66105 0.66105 h -3.43749 -3.43748 v 10.44466 10.44465 h -1.05768 -1.05769 z m 48.25634,9.8497 c -0.28029,-1.1669 -4.89119,-21.47946 -4.89119,-21.54731 0,-0.25475 2.08216,-0.005 2.17923,0.26137 0.0662,0.18179 0.94163,4.22707 1.94535,8.9895 1.09309,5.18658 1.94487,8.6593 2.12405,8.65981 0.16452,5.2e-4 0.4373,-0.56436 0.60618,-1.25517 0.16886,-0.6908 1.21433,-4.73645 2.32324,-8.99033 l 2.01616,-7.73433 1.07955,0.003 1.07953,0.003 2.07529,7.99605 c 2.57536,9.92295 2.62994,10.11143 2.92741,10.11143 0.13369,0 0.809,-2.73676 1.50065,-6.0817 0.69167,-3.34493 1.53941,-7.39058 1.88384,-8.99033 l 0.62628,-2.90864 0.98003,-0.0821 c 0.56721,-0.0475 0.98,0.0363 0.98,0.199 0,0.15459 -1.07091,5.09954 -2.37979,10.98878 -1.30889,5.88924 -2.3798,10.76751 -2.3798,10.8406 0,0.0731 -0.52017,0.13289 -1.15595,0.13289 h -1.15597 l -0.86688,-3.23916 c -0.4768,-1.78154 -1.5439,-5.85058 -2.37133,-9.04231 -0.82743,-3.19172 -1.62233,-5.84243 -1.76642,-5.89046 -0.14408,-0.048 -1.32332,4.02043 -2.62052,9.04102 l -2.35854,9.12836 -1.11874,0.001 c -0.94211,10e-4 -1.14132,-0.0927 -1.26166,-0.59367 z m 23.93077,-10.51076 v -11.1057 h 1.05768 1.05769 v 11.1057 11.10571 h -1.05769 -1.05768 z m 13.22108,0.66106 v -10.44466 h -3.56969 -3.56969 v -0.66105 -0.66105 h 8.06486 8.06486 v 0.66105 0.66105 h -3.43749 -3.43748 v 10.44466 10.44465 h -1.05768 -1.05769 z m 33.05271,-0.66106 v -11.1057 h 1.05768 1.05769 v 4.8918 4.8918 h 5.55285 5.55286 v -4.8918 -4.8918 h 1.05768 1.05769 v 11.1057 11.10571 h -1.05769 -1.05768 v -5.55285 -5.55286 h -5.55286 -5.55285 v 5.55286 5.55285 h -1.05769 -1.05768 z m 21.94699,0 v -11.1057 h 6.34612 6.34612 v 0.66105 0.66105 h -5.28843 -5.28844 v 4.23075 4.23075 h 4.36296 4.36296 v 0.66105 0.66105 h -4.36296 -4.36296 v 4.8918 4.8918 h 5.42065 5.42064 v 0.66106 0.66105 h -6.47833 -6.47833 z"
         id="path3092" />
      <path
         style="fill:#33518e;stroke-width:1"
         d="m 168.54062,134.54709 c -4.03875,-0.47176 -7.33427,-2.19898 -10.44137,-5.4724 -1.79057,-1.88642 -2.3147,-2.67439 -3.78154,-5.68506 -2.02684,-4.1601 -3.3037,-8.64359 -4.15819,-14.60083 -0.46962,-3.27409 -0.57404,-5.30463 -0.59828,-11.634547 -0.031,-8.08626 0.12711,-10.023259 1.31262,-16.083766 2.10368,-10.754328 7.24808,-18.022431 14.38021,-20.316622 2.42694,-0.780673 7.2108,-0.965431 9.84177,-0.3801 9.13693,2.032775 14.66898,10.450691 16.78599,25.542569 0.71055,5.065517 0.6252,17.446346 -0.1586,23.004686 -0.70405,4.99276 -2.01672,9.90865 -3.53545,13.24012 -1.54536,3.38991 -1.80206,3.84239 -3.20321,5.64613 -3.94458,5.07807 -9.87194,7.50749 -16.44395,6.73982 z m 7.58242,-5.40973 c 3.50314,-1.76414 5.89951,-4.67072 7.83846,-9.50727 2.39058,-5.9631 3.32193,-12.30144 3.32193,-22.608048 0,-7.645193 -0.39158,-11.868245 -1.56916,-16.922984 -1.78479,-7.661254 -5.0715,-12.529886 -10.03044,-14.858121 -1.71972,-0.807415 -2.01031,-0.860143 -4.74065,-0.860143 -2.71683,0 -3.02676,0.05546 -4.69989,0.841062 -2.35393,1.105261 -4.35055,2.889884 -6.14246,5.490234 -3.79657,5.509461 -5.49135,13.626048 -5.49362,26.309952 -0.002,12.764468 1.82862,21.349708 5.82265,27.302708 1.4743,2.1974 3.09402,3.6756 5.22488,4.76834 2.03071,1.04139 3.1375,1.24082 6.13921,1.10623 2.15472,-0.0966 2.65667,-0.21974 4.32909,-1.06196 z m 46.62401,5.40973 c -4.03875,-0.47176 -7.33426,-2.19898 -10.44137,-5.4724 -1.79056,-1.88642 -2.3147,-2.67439 -3.78152,-5.68506 -2.02685,-4.1601 -3.30371,-8.64359 -4.15819,-14.60083 -0.46964,-3.27409 -0.57404,-5.30463 -0.59828,-11.634547 -0.031,-8.08626 0.1271,-10.023259 1.31261,-16.083766 2.10366,-10.754328 7.24806,-18.022431 14.3802,-20.316622 2.42694,-0.780673 7.21081,-0.965431 9.84178,-0.3801 9.13693,2.032775 14.66897,10.450691 16.78598,25.542569 0.71056,5.065517 0.6252,17.446346 -0.1586,23.004686 -0.70404,4.99276 -2.01671,9.90865 -3.53545,13.24012 -1.54535,3.38991 -1.80206,3.84239 -3.2032,5.64613 -3.94459,5.07807 -9.87194,7.50749 -16.44396,6.73982 z m 7.58242,-5.40973 c 3.50314,-1.76414 5.89952,-4.67072 7.83847,-9.50727 2.39058,-5.9631 3.32193,-12.30144 3.32193,-22.608048 0,-7.645193 -0.39159,-11.868245 -1.56916,-16.922984 -1.78479,-7.661254 -5.0715,-12.529886 -10.03044,-14.858121 -1.71972,-0.807415 -2.01032,-0.860143 -4.74066,-0.860143 -2.71682,0 -3.02675,0.05546 -4.69988,0.841062 -2.35393,1.105261 -4.35056,2.889884 -6.14246,5.490234 -3.79657,5.509461 -5.49135,13.626048 -5.49363,26.309952 -0.003,12.764468 1.82861,21.349708 5.82265,27.302708 1.47431,2.1974 3.09402,3.6756 5.22489,4.76834 2.03071,1.04139 3.1375,1.24082 6.13921,1.10623 2.15472,-0.0966 2.65667,-0.21974 4.32908,-1.06196 z M -101.2789,96.115634 V 58.945327 l 9.320859,2.21e-4 c 12.365241,2.94e-4 15.693858,0.322088 20.955415,2.025869 2.641152,0.855251 6.330569,2.727466 8.316254,4.220133 3.216465,2.417859 6.214049,6.075832 8.090763,9.873206 2.237856,4.528123 3.6248,10.271667 4.073064,16.86717 0.495502,7.290551 -0.568626,16.138934 -2.615355,21.747114 -3.641123,9.97691 -11.094355,16.45008 -21.670025,18.82054 -2.347668,0.52621 -3.450401,0.57774 -14.505899,0.67793 l -11.965076,0.10843 z m 20.662973,32.623016 c 4.861092,-0.49423 7.669348,-1.37431 11.596464,-3.63422 6.272724,-3.60971 10.437571,-10.08332 12.338932,-19.17895 0.68578,-3.2806 0.727146,-3.86658 0.712502,-10.093335 -0.01428,-6.07605 -0.07082,-6.868617 -0.699173,-9.802406 -1.956337,-9.134123 -5.93777,-15.109442 -12.64601,-18.979064 -4.99668,-2.882319 -8.929297,-3.61018 -19.505704,-3.61018 h -7.171555 v 32.788282 32.788283 h 6.318103 c 3.474956,0 7.550355,-0.12528 9.056441,-0.27841 z M -33.05812,96.096566 V 58.945327 h 3.646816 3.646819 l 10.012346,28.094798 c 12.2560466,34.390645 11.3944155,32.021265 11.6775265,32.111735 0.1292969,0.0413 1.2311551,-2.86842 2.4485761,-6.46608 1.21742104,-3.59765 5.9673116,-17.161025 10.5553127,-30.140822 L 17.271094,58.945327 h 3.657353 3.657351 V 96.096566 133.24781 H 22.04758 19.50936 l 0.137877,-29.68133 c 0.07583,-16.324733 0.261188,-31.758662 0.411898,-34.297623 0.262407,-4.420664 0.242943,-5.070265 -0.140421,-4.6869 -0.09455,0.09455 -1.44645,3.841353 -3.004214,8.326222 -1.557766,4.484868 -6.439513,18.115482 -10.8483257,30.290251 l -8.0160294,22.13595 -2.2543875,-0.0757 -2.2543875,-0.0757 -7.8654039,-21.55037 c -4.32597,-11.852697 -9.268349,-25.506769 -10.98306,-30.342379 -1.714711,-4.835611 -3.216692,-8.79202 -3.337734,-8.79202 -0.121044,0 -0.152457,1.100655 -0.06981,2.4459 0.08265,1.345246 0.219575,16.813911 0.304288,34.374809 l 0.15402,31.92892 h -2.400895 -2.400896 z m 78.004384,35.035864 v -2.11537 h 8.461493 8.461493 V 99.137415 69.257771 h -6.358201 -6.358201 l 0.07819,-1.757522 0.07819,-1.757521 2.776427,-0.618909 c 3.42665,-0.763852 6.402066,-1.727338 8.961469,-2.901861 1.694575,-0.777649 2.230476,-0.896836 4.03243,-0.896836 h 2.078134 v 33.845969 33.845969 h 7.800439 7.800438 v 2.11537 2.11538 H 63.852412 44.946264 Z m 49.446848,0.56983 c 0,-1.24339 0.110168,-1.64403 0.563514,-2.04927 0.988942,-0.884 12.676284,-13.07081 15.850784,-16.52817 11.40406,-12.42023 17.11117,-21.126733 18.61227,-28.394016 0.51802,-2.507881 0.51511,-6.911778 -0.006,-9.122904 -0.60527,-2.568131 -2.04689,-5.326504 -3.73902,-7.15421 -2.44795,-2.644074 -5.47586,-3.879182 -10.1464,-4.138788 -4.80179,-0.266901 -8.09574,0.805731 -12.46529,4.059151 -1.27753,0.951211 -3.07679,2.543863 -3.998344,3.539226 l -1.675553,1.809753 -1.628906,-1.643513 -1.628903,-1.643514 2.426489,-2.241752 c 6.933067,-6.405225 11.634447,-8.403035 19.121327,-8.125443 7.07472,0.262309 11.80336,2.413902 15.25532,6.941377 2.37746,3.118199 3.50525,6.216377 3.8983,10.709076 0.45116,5.156937 -0.42073,9.424793 -3.00813,14.724654 -4.0874,8.372363 -9.6529,15.446293 -25.1337,31.945763 -2.18325,2.32691 -4.10819,4.40923 -4.27765,4.62738 -0.27084,0.34865 -0.0309,0.37451 1.98371,0.21375 1.2605,-0.10059 9.46095,-0.2665 18.22322,-0.3687 l 15.93141,-0.18581 v 2.28576 2.28575 H 116.47232 94.393112 Z M 263.35854,96.096566 V 58.945327 h 20.36047 20.36046 v 2.247584 2.247584 h -17.71625 -17.71625 v 14.146557 14.146557 h 14.80762 14.80761 v 2.247584 2.247584 h -14.80761 -14.80762 v 16.261933 16.26193 h 18.2451 18.24509 v 2.24758 2.24759 h -20.88931 -20.88931 z"
         id="path3090" />
    </g>
  </g>
</svg>
