<svg xml:space="preserve" style="clip-rule:evenodd;fill-rule:evenodd;image-rendering:optimizeQuality;shape-rendering:geometricPrecision;text-rendering:geometricPrecision" viewBox="0 0 108 19" xmlns="http://www.w3.org/2000/svg"><path d="M80.35 14.7a5.7 5.7 0 0 0 3.94-1.39 4.52 4.52 0 0 0 1.56-3.53c0-1.42-.52-2.6-1.55-3.53a5.69 5.69 0 0 0-3.95-1.39 5.7 5.7 0 0 0-3.93 1.4 4.53 4.53 0 0 0-1.56 3.52c0 1.43.52 2.6 1.56 3.53a5.7 5.7 0 0 0 3.93 1.4zm0 1.41c-2.1 0-3.85-.6-5.23-1.79a5.75 5.75 0 0 1-2.06-4.54c0-1.83.69-3.35 2.07-4.54a7.7 7.7 0 0 1 5.22-1.8c2.12 0 3.87.6 5.25 1.8a5.73 5.73 0 0 1 2.09 4.54c0 1.84-.7 3.35-2.08 4.54a7.78 7.78 0 0 1-5.26 1.8zm-34.02-4.98h6.17l-3.1-5.35zM41.8 15.8l6.87-12.1h1.44l6.95 12.1h-1.9l-1.9-3.25h-7.74l-1.85 3.25zm-19.17-4.67h6.17l-3.1-5.35zm-4.52 4.67L25 3.7h1.45l6.94 12.1H31.5l-1.9-3.26h-7.75l-1.85 3.26zm-7.5-10.7H6.35v9.3h4.27c1.72 0 3.08-.41 4.07-1.25a4.2 4.2 0 0 0 1.49-3.39c0-1.4-.5-2.53-1.51-3.38a6.04 6.04 0 0 0-4.05-1.28zm0-1.4c2.2 0 3.98.57 5.34 1.7a5.45 5.45 0 0 1 2.02 4.39c0 1.81-.66 3.27-2 4.37-1.32 1.1-3.11 1.64-5.36 1.64H4.6V3.7Zm26.1 12.1V5.1h-4.68V3.7h11.15v1.4h-4.72v10.7ZM70.8 13.2a6.45 6.45 0 0 1-2.4 2.06 8.34 8.34 0 0 1-3.8.84c-2.11 0-3.84-.6-5.21-1.79a5.76 5.76 0 0 1-2.05-4.54c0-1.83.68-3.35 2.06-4.54a7.63 7.63 0 0 1 5.2-1.8c1.29 0 2.47.25 3.53.74a6.6 6.6 0 0 1 2.6 2.1l-1.45.89a4.5 4.5 0 0 0-1.9-1.7 6.24 6.24 0 0 0-2.79-.6c-1.57 0-2.88.46-3.91 1.39a4.55 4.55 0 0 0-1.55 3.52c0 1.43.52 2.6 1.55 3.53a5.65 5.65 0 0 0 3.91 1.4 5.57 5.57 0 0 0 4.8-2.36zm19.2 2.59V3.7h1.62l5.68 7.41 5.73-7.4h1.59V15.8h-1.73V6.36l-5.59 7.15-5.58-7.15v9.44z" style="fill:#183884"/></svg>
