<?xml version="1.0" encoding="UTF-8" standalone="no"?>
<!-- Created with Inkscape (http://www.inkscape.org/) -->

<svg
   width="353.13004mm"
   height="111.36162mm"
   viewBox="0 0 353.13004 111.36162"
   version="1.1"
   id="svg1132"
   inkscape:export-filename="datacom-dm2500.svg"
   inkscape:export-xdpi="96"
   inkscape:export-ydpi="96"
   sodipodi:docname="datacom-dm2500.svg"
   inkscape:version="1.2.1 (9c6d41e410, 2022-07-14)"
   xmlns:inkscape="http://www.inkscape.org/namespaces/inkscape"
   xmlns:sodipodi="http://sodipodi.sourceforge.net/DTD/sodipodi-0.dtd"
   xmlns="http://www.w3.org/2000/svg"
   xmlns:svg="http://www.w3.org/2000/svg">
  <sodipodi:namedview
     id="namedview1134"
     pagecolor="#ffffff"
     bordercolor="#000000"
     borderopacity="0.25"
     inkscape:showpageshadow="2"
     inkscape:pageopacity="0.0"
     inkscape:pagecheckerboard="0"
     inkscape:deskcolor="#d1d1d1"
     inkscape:document-units="mm"
     showgrid="false"
     inkscape:zoom="0.92682454"
     inkscape:cx="653.84544"
     inkscape:cy="211.47476"
     inkscape:window-width="1920"
     inkscape:window-height="1017"
     inkscape:window-x="1912"
     inkscape:window-y="-8"
     inkscape:window-maximized="1"
     inkscape:current-layer="layer1" />
  <defs
     id="defs1129" />
  <g
     inkscape:label="Camada 1"
     inkscape:groupmode="layer"
     id="layer1"
     transform="translate(69.048868,-31.609511)">
    <g
       id="g5110">
      <path
         style="fill:#c2c2c2;stroke-width:1"
         d="m 46.914336,139.70146 c -1.533513,-0.5014 -3.348371,-1.81752 -4.310694,-3.12608 -2.572143,-3.49757 -3.065438,-9.68032 -1.106825,-13.87245 1.036697,-2.21889 2.399535,-3.63777 4.475916,-4.65997 1.564403,-0.77016 1.992182,-0.86191 4.005414,-0.85907 2.416925,0.003 3.515837,0.39121 5.254744,1.8544 l 0.823036,0.69254 -0.572943,0.77495 c -0.696573,0.94217 -0.847837,0.9521 -1.836009,0.12061 -2.452066,-2.06327 -7.01686,-1.28272 -8.890501,1.52022 -1.080631,1.61662 -1.366174,2.39427 -1.663161,4.52953 -0.649624,4.67062 1.099555,9.14338 4.110701,10.51131 1.282108,0.58245 4.009425,0.64974 5.254212,0.12964 0.47873,-0.20003 1.296082,-0.73742 1.816336,-1.19421 l 0.945918,-0.83053 0.702126,0.83443 0.702123,0.83442 -0.69459,0.725 c -0.382026,0.39875 -1.31085,1.06078 -2.064057,1.47117 -1.144247,0.62347 -1.739222,0.75875 -3.617855,0.82259 -1.371988,0.0466 -2.671512,-0.0619 -3.333891,-0.2785 z m 19.574247,0 c -1.533512,-0.5014 -3.34837,-1.81752 -4.310693,-3.12608 -2.572144,-3.49757 -3.065439,-9.68032 -1.106826,-13.87245 1.036697,-2.21889 2.399535,-3.63777 4.475916,-4.65997 1.564403,-0.77016 1.992182,-0.86191 4.005415,-0.85907 2.416925,0.003 3.515836,0.39121 5.254743,1.8544 l 0.823037,0.69254 -0.572944,0.77495 c -0.696573,0.94217 -0.847837,0.9521 -1.836009,0.12061 -2.452066,-2.06327 -7.016859,-1.28272 -8.890501,1.52022 -1.080631,1.61662 -1.366174,2.39427 -1.66316,4.52953 -0.649625,4.67062 1.099554,9.14338 4.1107,10.51131 1.282108,0.58245 4.009425,0.64974 5.254212,0.12964 0.47873,-0.20003 1.296082,-0.73742 1.816337,-1.19421 l 0.945917,-0.83053 0.702126,0.83443 0.702123,0.83442 -0.69459,0.725 c -0.382026,0.39875 -1.31085,1.06078 -2.064056,1.47117 -1.144247,0.62347 -1.739223,0.75875 -3.617856,0.82259 -1.371988,0.0466 -2.671511,-0.0619 -3.333891,-0.2785 z m 34.868047,-0.12518 c -1.364953,-0.48621 -4.28892,-2.30769 -4.28892,-2.67178 0,-0.10055 0.347044,-0.5153 0.771207,-0.92168 l 0.771204,-0.73886 1.209765,0.83234 c 1.643864,1.13101 3.103594,1.60447 4.946714,1.60447 3.12907,0 4.7334,-1.25556 4.7334,-3.70439 0,-1.20008 -0.10899,-1.48194 -0.85968,-2.22308 -0.5192,-0.51259 -2.14863,-1.41052 -4.11416,-2.26718 -3.73949,-1.62981 -5.341505,-2.86392 -6.018335,-4.63617 -0.967122,-2.53237 0.194197,-5.38045 2.792155,-6.84762 1.31301,-0.74152 1.67403,-0.82136 3.70324,-0.81903 2.43399,0.003 3.85309,0.46809 5.68188,1.86298 l 0.92939,0.70888 -0.7266,0.8474 -0.7266,0.8474 -0.81171,-0.60846 c -3.43615,-2.57573 -8.57863,-1.39236 -8.57863,1.97408 0,1.62189 0.93132,2.42675 4.85489,4.19567 4.2134,1.89958 5.25197,2.60937 6.01953,4.1139 0.44896,0.88003 0.53504,1.44803 0.45617,3.00995 -0.082,1.62271 -0.22125,2.10019 -0.88648,3.03865 -0.45378,0.64016 -1.40265,1.45819 -2.23239,1.92457 -1.26352,0.71019 -1.74093,0.82142 -3.8355,0.89358 -1.83184,0.0631 -2.71993,-0.0343 -3.79054,-0.41562 z m 18.25166,0 c -1.36495,-0.48621 -4.28892,-2.30769 -4.28892,-2.67178 0,-0.10055 0.34705,-0.5153 0.77121,-0.92168 l 0.7712,-0.73886 1.20977,0.83234 c 1.64386,1.13101 3.10359,1.60447 4.94672,1.60447 3.12906,0 4.7334,-1.25556 4.7334,-3.70439 0,-1.20008 -0.109,-1.48194 -0.85968,-2.22308 -0.51921,-0.51259 -2.14863,-1.41052 -4.11417,-2.26718 -3.73948,-1.62981 -5.3415,-2.86392 -6.01833,-4.63617 -0.96712,-2.53237 0.1942,-5.38045 2.79215,-6.84762 1.31302,-0.74152 1.67403,-0.82136 3.70324,-0.81903 2.434,0.003 3.85309,0.46809 5.68188,1.86298 l 0.92939,0.70888 -0.72659,0.8474 -0.7266,0.8474 -0.81172,-0.60846 c -3.43615,-2.57573 -8.57863,-1.39236 -8.57863,1.97408 0,1.62189 0.93132,2.42675 4.85489,4.19567 4.2134,1.89958 5.25198,2.60937 6.01953,4.1139 0.44896,0.88003 0.53504,1.44803 0.45617,3.00995 -0.0819,1.62271 -0.22124,2.10019 -0.88647,3.03865 -0.45379,0.64016 -1.40266,1.45819 -2.2324,1.92457 -1.26352,0.71019 -1.74093,0.82142 -3.8355,0.89358 -1.83184,0.0631 -2.71993,-0.0343 -3.79054,-0.41562 z m 53.488,-0.059 c -4.3577,-1.67653 -6.7989,-7.14645 -5.95492,-13.34303 0.53958,-3.96169 2.46891,-6.8753 5.54215,-8.36957 1.74968,-0.85073 5.44526,-0.87455 7.23743,-0.0467 3.90692,1.8048 5.87066,5.42097 5.86319,10.79688 -0.008,5.62963 -2.36276,9.69371 -6.43268,11.10136 -1.63422,0.56523 -4.59581,0.49943 -6.25517,-0.13898 z m 5.64588,-2.24595 c 2.78509,-1.16368 4.29352,-4.23308 4.29352,-8.73658 0,-3.44318 -0.69548,-5.59581 -2.33553,-7.22886 -3.18078,-3.16719 -7.92837,-2.2528 -9.9491,1.91621 -1.35566,2.79689 -1.43558,7.50867 -0.17567,10.35691 0.62736,1.41827 2.25624,3.23678 3.316,3.70206 1.11609,0.49001 3.66698,0.48488 4.85078,-0.01 z m 17.18787,2.47172 c -1.52149,-0.40406 -3.49583,-2.33717 -4.21147,-4.12351 -0.577,-1.44029 -0.60891,-1.89029 -0.69312,-9.77594 l -0.0883,-8.26615 h 1.32877 1.32877 l 0.077,8.13389 c 0.0748,7.91095 0.0939,8.16829 0.69483,9.38851 0.96354,1.95652 1.8588,2.44862 4.45469,2.44862 2.40472,0 3.13431,-0.33949 4.24888,-1.97708 1.01239,-1.48741 1.12399,-2.51744 1.12549,-10.38908 l 0.001,-7.60486 h 1.3512 1.35118 l -0.12329,7.86938 c -0.10155,6.48089 -0.20386,8.12156 -0.57995,9.29867 -0.87124,2.72702 -2.11442,4.11984 -4.39559,4.92468 -1.24325,0.43865 -4.3481,0.47719 -5.87055,0.0729 z m 75.24642,-0.16681 c -1.36496,-0.48621 -4.28893,-2.30769 -4.28893,-2.67178 0,-0.10055 0.34705,-0.5153 0.7712,-0.92168 l 0.77122,-0.73886 1.20975,0.83234 c 1.64386,1.13101 3.1036,1.60447 4.94673,1.60447 3.12905,0 4.73339,-1.25556 4.73339,-3.70439 0,-1.20008 -0.109,-1.48194 -0.85968,-2.22308 -0.51919,-0.51259 -2.14861,-1.41052 -4.11416,-2.26718 -3.73947,-1.62981 -5.34149,-2.86392 -6.01834,-4.63617 -0.96713,-2.53237 0.19421,-5.38045 2.79216,-6.84762 1.31301,-0.74152 1.67402,-0.82136 3.70324,-0.81903 2.434,0.003 3.85308,0.46809 5.68187,1.86298 l 0.92941,0.70888 -0.7266,0.8474 -0.72661,0.8474 -0.81172,-0.60846 c -3.43612,-2.57573 -8.57862,-1.39236 -8.57862,1.97408 0,1.62189 0.93131,2.42675 4.85489,4.19567 4.21341,1.89958 5.25198,2.60937 6.01953,4.1139 0.44896,0.88003 0.53503,1.44803 0.45616,3.00995 -0.0819,1.62271 -0.22125,2.10019 -0.88648,3.03865 -0.45378,0.64016 -1.40265,1.45819 -2.23239,1.92457 -1.26352,0.71019 -1.74092,0.82142 -3.83549,0.89358 -1.83184,0.0631 -2.71992,-0.0343 -3.79053,-0.41562 z m -251.039067,-0.001 c 0.04849,-0.12191 1.746094,-5.12128 3.772441,-11.10971 l 3.68427,-10.88802 h 1.511638 c 1.194039,0 1.549841,0.0973 1.693473,0.46291 0.307967,0.78399 7.281237,21.50238 7.281237,21.63339 0,0.29992 -2.66948,0.10012 -2.772586,-0.20753 -0.06095,-0.18185 -0.544387,-1.72928 -1.074304,-3.43872 l -0.963492,-3.10807 h -4.189725 -4.189727 l -1.084136,3.43872 -1.084135,3.43872 h -1.336564 c -0.735111,0 -1.296887,-0.0998 -1.24839,-0.22165 z m 12.315815,-9.23479 c -1.168633,-4.03426 -3.265464,-10.6468 -3.376087,-10.6468 -0.110476,0 -2.308346,6.96739 -3.358539,10.6468 -0.121077,0.4242 0.160575,0.4629 3.368297,0.4629 3.208473,0 3.489236,-0.0386 3.366329,-0.4629 z m 48.214457,-1.65323 v -11.10971 h 6.348405 6.348404 v 1.05807 1.05807 h -5.02582 -5.02582 v 3.57097 3.57098 h 4.23227 4.232269 v 1.19033 1.19032 h -4.232269 -4.23227 v 4.10001 4.10002 h 5.158079 5.158078 v 1.19032 1.19033 h -6.480663 -6.480663 z m 68.245345,0 v -11.10971 h 4.58701 c 5.04841,0 6.42379,0.2518 8.01826,1.46797 1.25472,0.95702 1.9301,2.50936 1.93735,4.45297 0.0113,3.02278 -1.13206,4.93329 -3.60765,6.02836 -0.63131,0.27927 -1.14784,0.57805 -1.14784,0.66396 0,0.0859 1.19032,2.20081 2.64517,4.69976 1.45484,2.49895 2.64516,4.62518 2.64516,4.72497 0,0.0998 -0.62492,0.17969 -1.38871,0.17757 l -1.38871,-0.004 -2.64762,-4.69131 -2.64761,-4.69131 -2.17982,-0.0768 -2.17982,-0.0768 v 4.772 4.772 h -1.32258 -1.32259 z m 8.48782,-0.82325 c 2.59051,-0.55557 4.07571,-2.8143 3.42736,-5.21245 -0.62769,-2.32175 -2.00568,-2.95787 -6.40744,-2.95787 h -2.86257 v 4.23227 4.23227 h 2.23538 c 1.22945,0 2.85272,-0.1324 3.60727,-0.29422 z m 60.28657,1.88132 v -10.05164 h -3.43872 -3.43872 v -1.05807 -1.05807 h 8.06776 8.06777 v 1.05807 1.05807 h -3.30647 -3.30646 v 10.05164 10.05164 h -1.32258 -1.32258 z m 13.49036,-1.05807 v -11.10971 h 6.3484 6.3484 v 1.05807 1.05807 h -5.02582 -5.02582 v 3.57097 3.57098 h 4.23227 4.23227 v 1.19033 1.19032 h -4.23227 -4.23227 v 4.10001 4.10002 h 5.15808 5.15808 v 1.19032 1.19033 h -6.48066 -6.48066 z m 17.98714,0 v -11.10971 h 4.58701 c 5.04841,0 6.4238,0.2518 8.01825,1.46797 1.25474,0.95702 1.9301,2.50936 1.93735,4.45297 0.0114,3.02278 -1.13205,4.93329 -3.60764,6.02836 -0.63132,0.27927 -1.14785,0.57805 -1.14785,0.66396 0,0.0859 1.19033,2.20081 2.64517,4.69976 1.45485,2.49895 2.64517,4.62518 2.64517,4.72497 0,0.0998 -0.62492,0.17969 -1.38871,0.17757 l -1.38872,-0.004 -2.6476,-4.69131 -2.64763,-4.69131 -2.1798,-0.0768 -2.17983,-0.0768 v 4.772 4.772 h -1.32258 -1.32259 V 128.6872 Z m 8.48782,-0.82325 c 2.59052,-0.55557 4.0757,-2.8143 3.42737,-5.21245 -0.6277,-2.32175 -2.0057,-2.95787 -6.40745,-2.95787 h -2.86257 v 4.23227 4.23227 h 2.23538 c 1.22945,0 2.85273,-0.1324 3.60727,-0.29422 z"
         id="path5114" />
      <path
         style="fill:#ae0816;stroke-width:1"
         d="m 147.19365,110.15242 c -6.75156,-0.5442 -12.50592,-3.11529 -17.85213,-7.97648 -1.86181,-1.6929 -1.87057,-1.31443 0.0859,-3.715723 l 1.02856,-1.262388 1.88815,1.68033 c 3.86825,3.442491 7.67444,5.512111 11.90177,6.471601 2.94223,0.66781 8.51213,0.58067 10.88215,-0.17025 6.18181,-1.95864 10.42972,-6.489547 12.30797,-13.127896 0.78579,-2.777253 0.84621,-7.94313 0.12995,-11.109709 -1.42874,-6.316403 -5.47332,-10.614911 -11.63447,-12.364891 -1.41807,-0.40278 -2.67813,-0.53038 -5.29918,-0.536612 -4.91287,-0.01169 -6.68525,0.569634 -12.71108,4.169082 l -0.80782,0.482542 -1.77461,-1.033139 -1.77462,-1.033139 0.13985,-1.322585 c 0.0769,-0.727421 0.61308,-7.631311 1.19146,-15.341978 0.57839,-7.710667 1.12384,-14.703831 1.2121,-15.540366 l 0.1605,-1.520972 h 16.63859 16.63859 v 2.116135 2.116135 h -14.41617 c -7.92889,0 -14.41429,0.08928 -14.412,0.198388 0.002,0.109113 -0.49035,5.885519 -1.09477,12.836457 -0.60441,6.950938 -1.03494,12.702054 -0.95674,12.780258 0.0782,0.0782 0.83867,-0.202863 1.68993,-0.624593 4.00044,-1.981898 6.84091,-2.722318 10.50891,-2.739337 11.2638,-0.05226 18.68657,5.137513 21.49532,15.028883 0.69,2.429926 0.73639,2.91259 0.73247,7.62007 -0.004,4.749458 -0.0448,5.156729 -0.74249,7.406472 -1.4846,4.787107 -4.51641,9.307145 -8.00968,11.941435 -3.90322,2.94342 -7.5615,4.22231 -13.44322,4.69961 -0.58194,0.0472 -2.24839,-0.0101 -3.70324,-0.12734 z m 56.31932,-0.004 c -4.0402,-0.47194 -7.3369,-2.19977 -10.44513,-5.47437 -1.79121,-1.8871 -2.31553,-2.67536 -3.78289,-5.687117 -2.02758,-4.161596 -3.3049,-8.646693 -4.15969,-14.606079 -0.46979,-3.275274 -0.57425,-5.306544 -0.5985,-11.638742 -0.031,-8.089171 0.12716,-10.026868 1.31309,-16.089558 2.10444,-10.758202 7.25069,-18.028922 14.38539,-20.32394 2.42781,-0.780953 7.2134,-0.965778 9.84531,-0.380236 9.14022,2.033507 14.67426,10.454455 16.79204,25.551768 0.71081,5.067341 0.62542,17.452632 -0.15866,23.012967 -0.7043,4.994565 -2.01744,9.912222 -3.53672,13.244896 -1.54592,3.391121 -1.80271,3.843771 -3.20436,5.648161 -3.94601,5.0799 -9.8755,7.5102 -16.44988,6.74225 z m 7.58515,-5.41168 c 3.5044,-1.76478 5.90164,-4.6724 7.84129,-9.510694 2.39144,-5.965252 3.32312,-12.305875 3.32312,-22.616192 0,-7.647947 -0.39172,-11.872519 -1.56972,-16.929079 -1.78544,-7.664014 -5.07333,-12.534398 -10.03405,-14.863472 -1.72034,-0.807706 -2.01104,-0.860453 -4.74236,-0.860453 -2.71781,0 -3.02785,0.05548 -4.70158,0.841365 -2.35478,1.105659 -4.35212,2.890925 -6.14467,5.492211 -3.79794,5.511446 -5.49333,13.630956 -5.49561,26.319428 -0.002,12.769065 1.82928,21.357393 5.82476,27.312546 1.47483,2.19818 3.09512,3.67691 5.22676,4.77005 2.03144,1.04176 3.13862,1.24127 6.14142,1.10663 2.15549,-0.0966 2.65763,-0.21981 4.33064,-1.06234 z m 46.6408,5.41168 c -4.0402,-0.47194 -7.3369,-2.19977 -10.44513,-5.47437 -1.7912,-1.8871 -2.31553,-2.67536 -3.78288,-5.687117 -2.02758,-4.161596 -3.3049,-8.646693 -4.15969,-14.606079 -0.46981,-3.275274 -0.57424,-5.306544 -0.5985,-11.638742 -0.031,-8.089171 0.12716,-10.026868 1.31309,-16.089558 2.10442,-10.758202 7.25067,-18.028922 14.38538,-20.32394 2.42782,-0.780953 7.2134,-0.965778 9.84532,-0.380236 9.14022,2.033507 14.67426,10.454455 16.79203,25.551768 0.71081,5.067341 0.62542,17.452632 -0.15866,23.012967 -0.7043,4.994565 -2.01744,9.912222 -3.53672,13.244896 -1.54591,3.391121 -1.80271,3.843771 -3.20436,5.648161 -3.94601,5.0799 -9.87549,7.5102 -16.44988,6.74225 z m 7.58516,-5.41168 c 3.5044,-1.76478 5.90163,-4.6724 7.84128,-9.510694 2.39145,-5.965252 3.32313,-12.305875 3.32313,-22.616192 0,-7.647947 -0.39173,-11.872519 -1.56973,-16.929079 -1.78543,-7.664014 -5.07332,-12.534398 -10.03405,-14.863472 -1.72033,-0.807706 -2.01104,-0.860453 -4.74236,-0.860453 -2.7178,0 -3.02784,0.05548 -4.70157,0.841365 -2.35479,1.105659 -4.35213,2.890925 -6.14468,5.492211 -3.79793,5.511446 -5.49333,13.630956 -5.4956,26.319428 -0.003,12.769065 1.82927,21.357393 5.82474,27.312546 1.47484,2.19818 3.09514,3.67691 5.22677,4.77005 2.03144,1.04176 3.13863,1.24127 6.14142,1.10663 2.1555,-0.0966 2.65763,-0.21981 4.33065,-1.06234 z M -66.403705,71.702889 V 34.519196 l 9.324219,2.21e-4 c 12.369693,2.91e-4 15.699509,0.322204 20.96296,2.026599 2.642103,0.855558 6.332849,2.728448 8.319248,4.221652 3.217623,2.41873 6.216287,6.07802 8.093677,9.876762 2.238661,4.529754 3.626105,10.275366 4.07453,16.873244 0.495681,7.293177 -0.56883,16.14475 -2.616297,21.754947 -3.642434,9.980504 -11.098349,16.456009 -21.677828,18.827319 -2.348513,0.5264 -3.451642,0.57795 -14.511122,0.67818 l -11.969387,0.10846 z m 20.670416,32.634761 c 4.862843,-0.4944 7.672109,-1.3748 11.60064,-3.63552 6.274982,-3.611015 10.441329,-10.086954 12.343375,-19.185866 0.686027,-3.281774 0.727408,-3.867967 0.712759,-10.096966 -0.01428,-6.078238 -0.07085,-6.87109 -0.699425,-9.805936 -1.957041,-9.137413 -5.939909,-15.114883 -12.650564,-18.9859 -4.998479,-2.883356 -8.932512,-3.61148 -19.512728,-3.61148 h -7.174136 v 32.800091 32.800087 h 6.320377 c 3.476208,0 7.553074,-0.12532 9.059702,-0.27851 z M 1.8416429,71.683815 V 34.519196 H 5.489772 9.1379038 L 19.153856,62.624112 c 12.260459,34.403027 11.398518,32.032797 11.681731,32.123299 0.129343,0.04133 1.231598,-2.869447 2.449457,-6.468403 1.21786,-3.598953 5.969461,-17.167211 10.559114,-30.151682 l 8.344821,-23.60813 h 3.658671 3.658667 v 37.164619 37.164615 h -2.539132 -2.539134 l 0.137927,-29.692014 c 0.07586,-16.33061 0.261282,-31.770098 0.412046,-34.309973 0.262501,-4.422255 0.24303,-5.07209 -0.140472,-4.688588 -0.09459,0.09459 -1.44697,3.842737 -3.005295,8.329221 -1.558327,4.486483 -6.441832,18.122007 -10.852232,30.301165 l -8.018916,22.143919 -2.255199,-0.0757 -2.2552,-0.0757 -7.868236,-21.558124 C 16.254947,67.365577 11.310788,53.706588 9.5954598,48.869235 7.8801315,44.031883 6.3776096,40.07405 6.2565244,40.07405 c -0.1210879,0 -0.1525125,1.101051 -0.069835,2.446781 0.082677,1.345729 0.2196548,16.819966 0.304398,34.387192 L 6.6451631,108.84843 H 4.243403 1.8416429 Z M 75.112811,107.30233 c 0,-1.24384 0.110209,-1.64462 0.563718,-2.05 C 76.665827,104.368 88.357379,92.176804 91.533018,88.718198 102.94119,76.293497 108.65035,67.583859 110.15199,60.31396 c 0.51821,-2.508785 0.5153,-6.914269 -0.006,-9.126191 -0.60549,-2.569055 -2.04763,-5.328422 -3.74037,-7.156786 -2.44883,-2.645026 -5.47783,-3.880579 -10.150052,-4.140278 -4.803513,-0.266997 -8.098652,0.806021 -12.469774,4.060613 -1.277995,0.951553 -3.0779,2.544778 -3.999786,3.5405 l -1.676156,1.810405 -1.629493,-1.644106 -1.62949,-1.644105 2.427363,-2.24256 c 6.93556,-6.407531 11.638633,-8.406061 19.128216,-8.128369 7.077272,0.262404 11.807602,2.414772 15.260802,6.943877 2.37832,3.119322 3.50652,6.218615 3.89971,10.712933 0.45132,5.158796 -0.42088,9.428188 -3.00922,14.729957 -4.08887,8.375377 -9.65637,15.451856 -25.142741,31.95727 -2.184033,2.32775 -4.109671,4.41082 -4.279192,4.62904 -0.270937,0.34878 -0.03088,0.37465 1.984421,0.21383 1.260957,-0.10062 9.46436,-0.26659 18.229792,-0.36883 l 15.93714,-0.18588 v 2.28658 2.28657 H 97.199969 75.112811 Z"
         id="path5112" />
    </g>
  </g>
</svg>
