<?xml version="1.0" encoding="UTF-8" standalone="no"?>
<!-- Created with Inkscape (http://www.inkscape.org/) -->

<svg
   width="411.73666mm"
   height="116.61906mm"
   viewBox="0 0 411.73666 116.61906"
   version="1.1"
   id="svg1408"
   sodipodi:docname="datacom-dm1205e.svg"
   inkscape:version="1.2.1 (9c6d41e410, 2022-07-14)"
   xmlns:inkscape="http://www.inkscape.org/namespaces/inkscape"
   xmlns:sodipodi="http://sodipodi.sourceforge.net/DTD/sodipodi-0.dtd"
   xmlns="http://www.w3.org/2000/svg"
   xmlns:svg="http://www.w3.org/2000/svg">
  <sodipodi:namedview
     id="namedview3122"
     pagecolor="#ffffff"
     bordercolor="#000000"
     borderopacity="0.25"
     inkscape:showpageshadow="2"
     inkscape:pageopacity="0.0"
     inkscape:pagecheckerboard="0"
     inkscape:deskcolor="#d1d1d1"
     inkscape:document-units="mm"
     showgrid="false"
     inkscape:zoom="0.79490027"
     inkscape:cx="735.94138"
     inkscape:cy="221.41142"
     inkscape:window-width="1920"
     inkscape:window-height="1017"
     inkscape:window-x="1912"
     inkscape:window-y="-8"
     inkscape:window-maximized="1"
     inkscape:current-layer="svg1408" />
  <defs
     id="defs1405" />
  <g
     id="layer1"
     transform="translate(118.57801,-64.464666)">
    <g
       id="g3604">
      <path
         style="fill:#c2c2c2;stroke-width:0.999999"
         d="m 146.44983,178.21874 c -1.36458,-0.48607 -4.28772,-2.30704 -4.28772,-2.67103 0,-0.10052 0.34694,-0.51516 0.77099,-0.92142 l 0.77098,-0.73865 1.20943,0.8321 c 2.38348,1.63989 5.25723,2.09863 7.50716,1.19839 1.53361,-0.61362 2.17023,-1.581 2.17023,-3.29771 0,-1.19974 -0.10898,-1.48153 -0.85944,-2.22245 -0.51905,-0.51245 -2.14801,-1.41012 -4.11301,-2.26654 -3.73842,-1.62936 -5.34,-2.86312 -6.01663,-4.63487 -0.96685,-2.53165 0.19414,-5.37893 2.79136,-6.84569 1.32002,-0.74547 1.66218,-0.82006 3.7022,-0.80702 2.39177,0.0153 3.52885,0.35939 5.35495,1.62049 1.16291,0.8031 1.2171,1.10226 0.34756,1.91914 l -0.6441,0.6051 -0.79285,-0.56457 c -1.92038,-1.36744 -4.62063,-1.71431 -6.5444,-0.84069 -1.39305,0.63262 -1.95224,1.44551 -1.95224,2.83801 0,1.74445 0.78627,2.43648 4.76689,4.19559 4.19466,1.85369 5.29641,2.61917 6.07011,4.21742 0.47695,0.98525 0.57292,1.5574 0.48713,2.90465 -0.14552,2.28539 -1.14797,3.89502 -3.11473,5.00131 -1.26361,0.71078 -1.73969,0.82177 -3.83441,0.89394 -1.83132,0.0631 -2.71916,-0.0343 -3.78946,-0.4155 z m 74.88532,0.12514 c -1.53307,-0.50126 -3.34741,-1.81701 -4.30948,-3.12519 -2.57141,-3.49659 -3.06457,-9.67759 -1.10651,-13.86854 1.03641,-2.21827 2.39887,-3.63675 4.47466,-4.65867 1.56989,-0.77285 1.98398,-0.86094 4.00429,-0.8518 2.4188,0.011 3.54104,0.40614 5.25947,1.85209 l 0.82902,0.69757 -0.59539,0.75487 c -0.73674,0.93412 -0.85928,0.94285 -1.82531,0.12998 -2.42668,-2.04191 -6.93471,-1.29408 -8.94733,1.48425 -1.27551,1.76079 -1.70793,3.44517 -1.68783,6.57429 0.0143,2.2246 0.13725,3.08583 0.61845,4.33178 1.16625,3.01963 3.4404,4.71214 6.33149,4.71214 1.76132,0 3.00795,-0.46483 4.30808,-1.60636 l 0.94113,-0.82631 0.68797,0.90197 0.68795,0.90196 -0.92843,0.81519 c -1.69394,1.48728 -2.94745,1.9631 -5.40928,2.05327 -1.38607,0.0508 -2.66378,-0.0537 -3.33295,-0.27249 z m 57.07138,-0.12514 c -1.36457,-0.48607 -4.28772,-2.30704 -4.28772,-2.67103 0,-0.10052 0.34695,-0.51516 0.77099,-0.92142 l 0.771,-0.73865 1.2094,0.8321 c 2.3835,1.63989 5.25725,2.09863 7.50718,1.19839 1.5336,-0.61362 2.17022,-1.581 2.17022,-3.29771 0,-1.19974 -0.10897,-1.48153 -0.85943,-2.22245 -0.51905,-0.51245 -2.14802,-1.41012 -4.11301,-2.26654 -3.73842,-1.62936 -5.33999,-2.86312 -6.01664,-4.63487 -0.96686,-2.53165 0.19415,-5.37893 2.79137,-6.84569 1.32002,-0.74547 1.66218,-0.82006 3.70219,-0.80702 2.39178,0.0153 3.52885,0.35939 5.35496,1.62049 1.16291,0.8031 1.2171,1.10226 0.34756,1.91914 l -0.64411,0.6051 -0.79285,-0.56457 c -1.92038,-1.36744 -4.62062,-1.71431 -6.54439,-0.84069 -1.39305,0.63262 -1.95224,1.44551 -1.95224,2.83801 0,1.74445 0.78626,2.43648 4.76689,4.19559 4.19466,1.85369 5.29641,2.61917 6.07011,4.21742 0.47695,0.98525 0.57291,1.5574 0.48713,2.90465 -0.14552,2.28539 -1.14797,3.89502 -3.11473,5.00131 -1.26361,0.71078 -1.73969,0.82177 -3.83442,0.89394 -1.83131,0.0631 -2.71915,-0.0343 -3.78946,-0.4155 z M -23.907657,167.33273 v -11.10658 h 6.346615 6.346616 v 1.05777 1.05777 h -5.024404 -5.024404 v 3.56997 3.56997 h 4.231077 4.231077 v 1.18999 1.18999 h -4.231077 -4.231077 v 4.09886 4.09885 h 5.156625 5.156625 v 1.18999 1.18999 h -6.478837 -6.478836 z m 22.7420379,1.05777 V 158.34169 H -4.603369 -8.0411189 v -1.05777 -1.05777 H 0.02437123 8.0898614 v 1.04987 1.04987 l -3.3716394,0.074 -3.3716393,0.074 -0.069292,9.9827 -0.069289,9.98269 H 0.02118999 -1.1656191 Z m 13.4865571,-1.05777 v -11.10658 h 1.322212 1.322211 v 4.62774 4.62774 h 5.288846 5.288846 v -4.62774 -4.62774 h 1.322212 1.322211 v 11.10658 11.10657 h -1.322211 -1.322212 v -5.28884 -5.28885 h -5.288846 -5.288846 v 5.28885 5.28884 H 13.64315 12.320938 Z m 22.213153,0 v -11.10658 h 6.346615 6.346616 v 1.05777 1.05777 h -5.024404 -5.024404 v 3.56997 3.56997 h 4.231077 4.231077 v 1.18999 1.18999 h -4.231077 -4.231077 v 4.09886 4.09885 h 5.156625 5.156625 v 1.18999 1.18999 h -6.478836 -6.478837 z m 17.982077,0 v -11.10658 h 4.579744 c 5.394525,0 6.778156,0.29752 8.348144,1.79507 1.167304,1.11345 1.615621,2.38153 1.609155,4.55155 -0.0077,2.59442 -1.284393,4.53656 -3.718117,5.65624 l -1.2132,0.55815 2.718517,4.62774 c 1.495186,2.54526 2.725369,4.71699 2.733744,4.82607 0.0084,0.10909 -0.609521,0.1966 -1.373098,0.19447 l -1.388322,-0.004 -2.646867,-4.68999 -2.646866,-4.68999 -2.179206,-0.0768 -2.179205,-0.0768 v 4.77066 4.77065 h -1.322212 -1.322211 z m 8.887612,-0.91933 c 2.350474,-0.69802 3.632213,-2.86575 3.02421,-5.11467 -0.627517,-2.3211 -2.005121,-2.95704 -6.405642,-2.95704 h -2.861757 v 4.23108 4.23107 h 2.464205 c 1.403023,0 3.030398,-0.16814 3.778984,-0.39044 z m 10.416675,0.91933 v -11.10658 h 1.388391 1.388391 l 3.30546,5.72642 c 1.818004,3.14953 4.141658,7.2759 5.163678,9.16971 1.022022,1.89381 1.974014,3.48197 2.115538,3.52926 0.16282,0.0544 0.194214,-0.861 0.08549,-2.49254 -0.09451,-1.41818 -0.183756,-5.58324 -0.198332,-9.25568 l -0.0265,-6.67717 h 1.189991 1.18999 v 11.10658 11.10657 h -1.282759 -1.282757 l -4.511938,-7.86715 c -2.481564,-4.32694 -4.844588,-8.55141 -5.251166,-9.38771 -0.406575,-0.83629 -0.804764,-1.52054 -0.884861,-1.52054 -0.0801,0 -0.10148,4.22447 -0.04751,9.3877 l 0.09811,9.3877 h -1.219608 -1.219606 z m 21.948711,0 v -11.10658 h 6.346614 6.34662 v 1.05777 1.05777 h -5.02441 -5.024401 v 3.56997 3.56997 h 4.231081 4.23107 v 1.18999 1.18999 h -4.23107 -4.231081 v 4.09886 4.09885 h 5.156621 5.15663 v 1.18999 1.18999 H 100.248 93.769166 Z m 22.742034,1.05777 v -10.04881 h -3.43775 -3.43775 v -1.05777 -1.05777 h 8.06549 8.06549 v 1.04987 1.04987 l -3.37163,0.074 -3.37164,0.074 -0.0693,9.9827 -0.0693,9.98269 h -1.18681 -1.18681 z m 45.75973,-0.46278 c -1.2223,-5.78137 -2.27423,-10.77933 -2.33761,-11.10657 -0.10694,-0.55218 -0.0214,-0.595 1.1889,-0.595 h 1.30415 l 1.49458,7.86716 c 0.82199,4.32694 1.63806,8.6704 1.81346,9.65214 0.17541,0.98175 0.40267,1.78499 0.50506,1.78499 0.10237,0 0.44323,-1.16024 0.7575,-2.57831 0.31426,-1.41808 1.36777,-5.76154 2.34118,-9.65215 l 1.76981,-7.07383 h 1.1989 1.19891 l 1.92149,7.73494 c 1.05681,4.25421 2.10932,8.59768 2.33894,9.65214 0.22958,1.05447 0.51132,1.91721 0.62604,1.91721 0.11474,0 0.34417,-0.80324 0.50984,-1.78499 0.16567,-0.98174 0.97481,-5.3252 1.7981,-9.65214 l 1.49688,-7.86716 h 1.13789 c 0.80875,0 1.13792,0.10905 1.13792,0.37695 0,0.39518 -4.1433,20.57063 -4.38934,21.37343 -0.11345,0.37018 -0.44408,0.46277 -1.65242,0.46277 h -1.51063 l -2.03232,-8.26382 c -1.11777,-4.5451 -2.11017,-8.71524 -2.20534,-9.26699 -0.0952,-0.55174 -0.29742,-0.96169 -0.44947,-0.91101 -0.15206,0.0507 -0.72119,2.04909 -1.26478,4.44091 -0.84846,3.73329 -2.27312,9.5623 -3.1796,13.00926 l -0.26079,0.99165 h -1.51742 -1.51743 z m 26.43302,-0.59499 v -11.10658 h 1.32221 1.32221 v 11.10658 11.10657 h -1.32221 -1.32221 z m 13.751,1.05777 v -10.04881 h -3.43775 -3.43775 v -1.05777 -1.05777 h 8.06549 8.06549 v 1.04987 1.04987 l -3.37164,0.074 -3.37164,0.074 -0.0693,9.9827 -0.0693,9.98269 h -1.18679 -1.18682 z m 33.05529,-1.05777 v -11.10658 h 1.32221 1.32221 v 4.62774 4.62774 h 5.28885 5.28884 v -4.62774 -4.62774 h 1.32222 1.32221 v 11.10658 11.10657 h -1.32221 -1.32222 v -5.28884 -5.28885 h -5.28884 -5.28885 v 5.28885 5.28884 h -1.32221 -1.32221 z m 22.21315,0 v -11.10658 h 6.34662 6.34661 v 1.05777 1.05777 h -5.0244 -5.02441 v 3.56997 3.56997 h 4.23108 4.23108 v 1.18999 1.18999 h -4.23108 -4.23108 v 4.09886 4.09885 h 5.15663 5.15662 v 1.18999 1.18999 h -6.47883 -6.47884 z"
         id="path3608" />
      <path
         style="fill:#33518e;stroke-width:0.999999"
         d="m 153.90702,143.51009 c -4.03906,-0.4718 -7.33484,-2.19914 -10.44218,-5.47282 -1.79071,-1.88657 -2.31488,-2.6746 -3.78183,-5.68551 -2.027,-4.16043 -3.30396,-8.64426 -4.15852,-14.60197 -0.46966,-3.27435 -0.57408,-5.30504 -0.59833,-11.63546 -0.031,-8.08689 0.12712,-10.024041 1.31273,-16.085021 2.10384,-10.75517 7.24864,-18.023842 14.38132,-20.318212 2.42714,-0.780733 7.21137,-0.965506 9.84255,-0.380129 9.13764,2.032933 14.67012,10.451508 16.7873,25.544566 0.71061,5.065913 0.62524,17.447716 -0.15862,23.006486 -0.7041,4.99315 -2.01687,9.90942 -3.53572,13.24116 -1.54548,3.39017 -1.8022,3.84268 -3.20346,5.64657 -3.94489,5.07847 -9.87271,7.50808 -16.44524,6.74034 z m 7.58302,-5.41015 c 3.50341,-1.76428 5.89997,-4.67108 7.83907,-9.50801 2.39077,-5.96357 3.32219,-12.30241 3.32219,-22.60982 0,-7.64579 -0.39161,-11.869172 -1.56928,-16.924307 -1.78493,-7.661853 -5.0719,-12.530865 -10.03122,-14.859283 -1.71986,-0.807478 -2.01048,-0.86021 -4.74103,-0.86021 -2.71704,0 -3.02699,0.05546 -4.70025,0.841128 -2.35412,1.105347 -4.3509,2.89011 -6.14294,5.490663 -3.79687,5.509892 -5.49178,13.627114 -5.49406,26.312009 -0.002,12.76547 1.82877,21.35137 5.82311,27.30485 1.47442,2.19756 3.09426,3.67588 5.22529,4.76871 2.03087,1.04147 3.13774,1.24091 6.13969,1.10632 2.15489,-0.0966 2.65688,-0.21976 4.32943,-1.06205 z m 44.53488,5.41438 c -6.74965,-0.54404 -12.50241,-3.1144 -17.8471,-7.97422 -1.86128,-1.69243 -1.87003,-1.31406 0.0859,-3.71468 l 1.02829,-1.26203 1.88761,1.67985 c 3.86716,3.44152 7.6723,5.51056 11.89843,6.46978 2.94139,0.66762 8.50972,0.58051 10.87907,-0.1702 6.18007,-1.95809 10.42678,-6.48772 12.3045,-13.1242 0.78556,-2.77647 0.84598,-7.94089 0.12992,-11.10658 -1.42833,-6.31462 -5.47178,-10.61192 -11.6312,-12.3614 -1.41767,-0.40267 -2.67737,-0.53023 -5.29768,-0.53646 -4.91148,-0.0117 -6.68335,0.56947 -12.70751,4.1679 l -0.80758,0.48241 -1.77412,-1.03285 -1.77411,-1.03285 0.13981,-1.32221 c 0.0769,-0.72721 0.6129,-7.629159 1.19113,-15.337652 0.57823,-7.708493 1.12351,-14.699687 1.21175,-15.535986 l 0.16046,-1.520543 h 16.6339 16.6339 v 2.115538 2.115539 h -14.41211 c -7.92666,0 -14.41023,0.08925 -14.40793,0.198332 0.003,0.109082 -0.49022,5.88386 -1.09447,12.832839 -0.60422,6.948979 -1.03466,12.698473 -0.95646,12.776653 0.0782,0.0782 0.83844,-0.2028 1.68944,-0.624414 3.99932,-1.981339 6.83898,-2.72155 10.50595,-2.738565 11.26064,-0.05225 18.68132,5.136069 21.48927,15.024649 0.6898,2.42924 0.73618,2.91177 0.73227,7.61792 -0.004,4.74812 -0.0448,5.15528 -0.74229,7.40439 -1.48419,4.78575 -4.51514,9.30452 -8.00742,11.93806 -3.90211,2.94259 -7.55938,4.22113 -13.43944,4.69829 -0.58177,0.0472 -2.24775,-0.0101 -3.70219,-0.12731 z m -321.9585,-38.43869 V 67.902418 l 9.32159,2.21e-4 c 12.366211,2.91e-4 15.695088,0.322113 20.957056,2.026028 2.641358,0.855317 6.331064,2.727679 8.316904,4.220463 3.216715,2.418048 6.214534,6.076307 8.091395,9.873978 2.23803,4.528477 3.625083,10.27247 4.073381,16.868492 0.495541,7.29112 -0.56867,16.1402 -2.615559,21.74881 -3.641407,9.97769 -11.095221,16.45137 -21.671718,18.82201 -2.347851,0.52625 -3.45067,0.57779 -14.507029,0.67799 l -11.96602,0.10844 z m 20.664594,32.62557 c 4.861471,-0.49427 7.669947,-1.37442 11.59737,-3.6345 6.273213,-3.61 10.438386,-10.08411 12.339895,-19.18046 0.685834,-3.28085 0.727203,-3.86688 0.712559,-10.09412 -0.01428,-6.076524 -0.07083,-6.869153 -0.699228,-9.803172 -1.95649,-9.134838 -5.938234,-15.110623 -12.646998,-18.980549 -4.997071,-2.882543 -8.929994,-3.610462 -19.507232,-3.610462 h -7.17211 v 32.790843 32.79085 h 6.3186 c 3.47522,0 7.55094,-0.12529 9.057144,-0.27843 z m 47.561522,-32.64464 V 67.902418 h 3.647101 3.647104 l 10.013129,28.096996 c 12.257003,34.393326 11.395305,32.023766 11.678438,32.114246 0.129307,0.0413 1.231251,-2.86864 2.448767,-6.46658 1.217516,-3.59794 5.967778,-17.16237 10.5561376,-30.143186 L 2.6256822,67.902418 h 3.6576389 3.6576364 v 37.154142 37.15415 H 7.4025414 4.8641228 l 0.1378881,-29.68365 c 0.075839,-16.326009 0.2612082,-31.761145 0.4119297,-34.300305 0.2624273,-4.421009 0.2429617,-5.070661 -0.140432,-4.687267 -0.094559,0.09456 -1.4465629,3.841654 -3.004448,8.326874 -1.55788776,4.485219 -6.4400162,18.116899 -10.8491737,30.292628 l -8.0166559,22.13768 -2.254563,-0.0757 -2.254564,-0.0757 -7.866019,-21.55205 c -4.326307,-11.85363 -9.269072,-25.508768 -10.983917,-30.344756 -1.714845,-4.835989 -3.216944,-8.792707 -3.337995,-8.792707 -0.121053,0 -0.152469,1.100741 -0.06981,2.446091 0.08265,1.34535 0.219593,16.815226 0.304312,34.377502 l 0.154033,31.93141 h -2.401084 -2.401083 z m 78.010479,35.03861 v -2.11554 h 8.462153 8.462154 V 108.09765 78.215668 h -6.358698 -6.358697 l 0.07819,-1.757659 0.07819,-1.757659 2.776645,-0.618956 c 3.426918,-0.763913 6.402565,-1.727474 8.962169,-2.902089 1.694707,-0.777709 2.23065,-0.896906 4.032745,-0.896906 h 2.078297 v 33.848611 33.84862 h 7.801047 7.801048 v 2.11554 2.11554 H 49.210639 30.303015 Z m 49.450709,0.56987 c 0,-1.24349 0.110178,-1.64415 0.563559,-2.04943 0.989019,-0.88407 12.677276,-13.07183 15.85202,-16.52946 11.404957,-12.4212 17.112507,-21.12839 18.613727,-28.396238 0.51806,-2.508077 0.51515,-6.912319 -0.006,-9.123618 -0.60532,-2.568332 -2.04705,-5.32692 -3.73932,-7.15477 -2.44813,-2.64428 -5.47629,-3.879485 -10.14719,-4.139111 -4.802157,-0.266922 -8.096367,0.805794 -12.466258,4.059469 -1.277634,0.951285 -3.077032,2.544061 -3.998658,3.539503 l -1.675684,1.809894 -1.629033,-1.643642 -1.629031,-1.643642 2.426679,-2.241928 c 6.933605,-6.405725 11.635352,-8.403692 19.122825,-8.126078 7.07527,0.26233 11.80428,2.414091 15.2565,6.94192 2.37765,3.118442 3.50554,6.216863 3.89861,10.709913 0.45119,5.157342 -0.42076,9.425531 -3.00837,14.725808 -4.08771,8.37301 -9.65365,15.4475 -25.135655,31.94826 -2.183418,2.32709 -4.108513,4.40958 -4.277986,4.62774 -0.270861,0.34868 -0.03087,0.37454 1.983862,0.21377 1.260601,-0.1006 9.461692,-0.26652 18.224649,-0.36873 l 15.93265,-0.18582 v 2.28593 2.28593 H 101.83466 79.753724 Z M 248.73235,105.05656 V 67.902418 h 20.36206 20.36206 v 2.24776 2.247759 H 271.73883 254.0212 v 14.147664 14.147659 h 14.80877 14.80877 v 2.24776 2.24776 H 268.82997 254.0212 v 16.26321 16.2632 h 18.24652 18.24652 v 2.24776 2.24776 H 269.6233 248.73235 Z"
         id="path3606" />
    </g>
  </g>
</svg>
