<?xml version="1.0" encoding="UTF-8" standalone="no"?>
<!-- Created with Inkscape (http://www.inkscape.org/) -->

<svg
   width="571.16669mm"
   height="122.69506mm"
   viewBox="0 0 571.16669 122.69506"
   version="1.1"
   id="svg819"
   sodipodi:docname="datacom.svg"
   inkscape:version="1.2.1 (9c6d41e410, 2022-07-14)"
   xmlns:inkscape="http://www.inkscape.org/namespaces/inkscape"
   xmlns:sodipodi="http://sodipodi.sourceforge.net/DTD/sodipodi-0.dtd"
   xmlns="http://www.w3.org/2000/svg"
   xmlns:svg="http://www.w3.org/2000/svg">
  <sodipodi:namedview
     id="namedview6"
     pagecolor="#ffffff"
     bordercolor="#000000"
     borderopacity="0.25"
     inkscape:showpageshadow="2"
     inkscape:pageopacity="0.0"
     inkscape:pagecheckerboard="0"
     inkscape:deskcolor="#d1d1d1"
     inkscape:document-units="mm"
     showgrid="false"
     inkscape:zoom="0.57301938"
     inkscape:cx="1094.2038"
     inkscape:cy="233.84898"
     inkscape:window-width="1536"
     inkscape:window-height="801"
     inkscape:window-x="-8"
     inkscape:window-y="72"
     inkscape:window-maximized="1"
     inkscape:current-layer="svg819" />
  <defs
     id="defs816" />
  <g
     id="layer1"
     transform="translate(217.20636,-65.932664)">
    <g
       id="g1205">
      <path
         style="fill:#0075bc;stroke-width:0.264429"
         d="m -212.51377,158.28348 v -24.19525 h 9.78388 9.78387 v 14.27916 14.27917 l 4.5614,-0.003 c 5.1693,-0.004 7.88361,-0.43475 11.46102,-1.81908 5.40867,-2.09296 10.94841,-7.19985 13.6558,-12.58883 0.97164,-1.93402 1.95166,-5.02923 2.32485,-7.34265 0.51684,-3.20383 0.21392,-8.51123 -0.65153,-11.41551 -2.19177,-7.35513 -7.50253,-13.49465 -14.31919,-16.55376 -3.7599,-1.68734 -7.65161,-2.36922 -13.52173,-2.36922 h -3.51062 v 9.65166 9.65165 h -9.78387 -9.78388 V 110.40667 90.955982 l 15.79964,0.09134 c 15.25934,0.08822 15.89883,0.112049 18.7003,0.696978 24.41391,5.097448 40.49019,28.04698 36.53017,52.14828 -2.81903,17.15704 -15.24314,31.37888 -31.84838,36.45672 -6.15805,1.88311 -9.09421,2.12431 -25.89417,2.12718 l -13.28756,0.002 z m 76.94885,0 v -24.19525 h 9.91609 9.91609 v 24.19525 24.19526 h -9.91609 -9.91609 z m 38.271971,4.03254 c -0.10744,-22.19907 -0.08766,-21.91616 -1.785962,-25.54534 -1.563609,-3.34137 -3.166539,-4.7687 -6.798949,-6.05415 l -2.05423,-0.72695 -13.81641,-0.0792 -13.81642,-0.0792 v -8.33567 -8.33566 l 15.00635,0.10856 c 14.03805,0.10156 15.16471,0.14424 17.46072,0.66141 5.019711,1.13068 9.317137,2.89957 12.618079,5.19381 0.872615,0.6065 1.721945,1.18608 1.887401,1.28797 0.165456,0.10189 1.236394,-0.428 2.379862,-1.17752 8.344002,-5.46934 18.779709,-7.2837 28.594474,-4.97148 9.108588,2.14586 15.007111,8.45277 16.953554,18.12733 1.002409,4.98235 1.087296,7.23019 1.087296,28.79186 v 21.03253 h -9.783874 -9.783874 l -0.0016,-19.76607 c -0.0013,-15.8764 -0.07669,-20.26448 -0.383358,-22.29883 -0.843119,-5.59302 -2.81961,-8.51596 -6.622451,-9.79365 -1.805114,-0.60649 -5.711534,-0.41855 -8.455924,0.40682 -2.548369,0.76642 -4.897715,1.90658 -4.897715,2.37691 0,0.15914 0.236899,1.11775 0.526446,2.13023 1.246916,4.36024 1.324557,5.95533 1.324557,27.21246 v 19.99656 h -9.7702 -9.7702 z"
         id="path1209" />
      <path
         style="fill:#575759;stroke-width:0.264429"
         d="m -6.9202001,182.04024 c -4.1573559,-0.33471 -9.2313439,-1.52228 -12.5603789,-2.93976 -5.520413,-2.35054 -10.954218,-6.35113 -15.134923,-11.14295 l -1.516825,-1.73855 2.422106,-2.43222 2.422109,-2.43222 2.875991,2.75589 c 5.794549,5.55256 12.477773,9.07582 19.5725787,10.31826 3.6708486,0.64284 9.66913543,0.57056 13.0253611,-0.15695 8.1356372,-1.76353 13.3320562,-5.88139 15.8020692,-12.52223 0.748178,-2.01154 0.798214,-2.38057 0.810547,-5.9781 0.01013,-2.95784 -0.09566,-4.19687 -0.462841,-5.4208 -1.206997,-4.02323 -3.955266,-7.56562 -7.820412,-10.08014 -2.7304594,-1.77633 -8.1794345,-4.42984 -17.848808,-8.69189 -10.300121,-4.54007 -13.104164,-6.04658 -16.811096,-9.03197 -3.50488,-2.82268 -6.277828,-6.73611 -7.645936,-10.79063 -1.075729,-3.18803 -1.381055,-8.58171 -0.681759,-12.043523 1.849612,-9.156343 9.243003,-16.096376 19.850211,-18.633011 3.9400422,-0.942232 10.39386092,-1.194803 14.2791668,-0.558816 5.3916073,0.882554 9.4744572,2.517618 14.2341722,5.700375 2.396094,1.602234 7.316793,6.018877 7.316793,6.567289 0,0.106094 -1.003487,1.191173 -2.229972,2.411288 L 20.747982,97.41797 19.323114,96.119245 C 16.06158,93.146457 10.80796,89.961883 7.2175161,88.781227 4.2516722,87.805959 1.8009917,87.466304 -2.2926922,87.463149 c -7.5166727,-0.0058 -12.5917668,1.815787 -16.5631408,5.944932 -1.732497,1.801322 -2.635961,3.271838 -3.452788,5.61991 -0.545818,1.569019 -0.652425,2.369829 -0.65435,4.915329 -0.0034,4.55573 0.914599,7.14859 3.728094,10.52934 2.735344,3.28685 8.936829,6.89763 19.586475,11.40411 16.529128,6.99442 21.859528,10.63407 25.592493,17.4748 2.129564,3.90245 3.17574,9.66646 2.677339,14.75104 -0.875599,8.93269 -6.825307,16.91248 -15.576364,20.89112 -5.3674936,2.44032 -13.01002391,3.6065 -19.9652661,3.04651 z m 202.9492801,-0.0798 c -6.34157,-0.77957 -11.16838,-4.7417 -12.98596,-10.65964 -1.24371,-4.04938 -1.29321,-5.25643 -1.29321,-31.52564 v -24.72585 h -5.55301 -5.55301 v -3.01151 -3.0115 l 0.85939,-0.1478 c 0.47267,-0.0813 2.95534,-0.22872 5.51708,-0.32763 l 4.65768,-0.17982 0.17016,-5.98199 c 0.0936,-3.2901 0.24467,-7.915633 0.33572,-10.278967 l 0.16555,-4.296971 h 3.40223 3.40222 v 10.180517 10.180521 h 10.31273 10.31273 v 3.43757 3.43758 h -10.32386 -10.32386 l 0.0893,25.45129 c 0.0864,24.62001 0.10693,25.51717 0.62812,27.46831 1.22505,4.58591 3.39672,6.53499 7.92044,7.10854 2.53939,0.32196 4.46058,0.0392 8.41461,-1.23841 1.61378,-0.52144 3.06981,-0.99993 3.23566,-1.0633 0.18423,-0.0704 0.7128,1.11423 1.35877,3.04525 l 1.05724,3.16048 -2.14278,0.83874 c -4.98684,1.95199 -9.47568,2.65509 -13.66399,2.14023 z m 50.15618,-0.17021 c -4.543,-0.70874 -9.8178,-2.92934 -13.44074,-5.65832 -2.26724,-1.70779 -5.38182,-5.02482 -6.94246,-7.39373 -1.4699,-2.23116 -4.09053,-7.87746 -4.85237,-10.45473 -2.56066,-8.66231 -2.42651,-20.133 0.33397,-28.55833 3.4329,-10.47768 10.92113,-18.37139 20.43571,-21.54229 4.00031,-1.33316 6.52513,-1.67335 11.29416,-1.52173 6.30349,0.20041 9.2313,1.10938 14.04626,4.36083 1.29157,0.87219 3.29901,2.47499 4.46097,3.56177 l 2.11265,1.97598 -2.0815,2.21964 c -1.14482,1.2208 -2.17631,2.25649 -2.29218,2.30153 -0.11587,0.045 -1.12134,-0.59156 -2.23432,-1.41467 -5.3655,-3.96797 -8.76746,-5.50188 -13.29988,-5.99677 -4.92933,-0.53824 -9.31089,0.52526 -13.75457,3.33852 -2.60335,1.64817 -5.75521,4.72523 -7.47374,7.29639 -1.75329,2.62317 -3.55324,6.92054 -4.49574,10.73344 -0.82539,3.33921 -0.84374,3.54591 -0.84348,9.49538 2.7e-4,5.86586 0.0291,6.20396 0.81236,9.51945 1.39536,5.90676 4.01813,10.98112 7.55809,14.62293 2.01847,2.07653 5.98768,4.56266 8.69221,5.44439 5.1649,1.68387 11.79266,1.40614 16.53813,-0.69301 2.03359,-0.89955 5.60941,-3.10511 8.12048,-5.0087 l 2.37986,-1.80412 0.86085,0.99106 c 0.47346,0.54507 1.39518,1.66457 2.04822,2.48777 l 1.18736,1.49673 -1.85365,1.7162 c -3.47409,3.21649 -8.19203,6.08649 -12.23838,7.4448 -4.19649,1.40872 -10.10222,1.81589 -15.07827,1.03959 z M 58.029015,179.51067 c -0.384929,-1.1992 -20.644722,-70.00539 -20.829648,-70.74152 l -0.149468,-0.59496 h 3.851691 3.851689 l 0.52577,1.78489 c 1.92535,6.53623 12.656993,44.29321 14.561966,51.23312 l 2.322692,8.46173 0.393073,-1.32215 c 0.216198,-0.72717 4.174383,-14.56012 8.795967,-30.73987 l 8.402867,-29.41772 h 4.293244 4.293216 l 8.533786,29.94658 c 4.69356,16.47062 8.66621,30.33326 8.82812,30.80586 0.34416,1.00455 -0.18822,2.80289 10.74378,-36.29276 l 6.80246,-24.32747 3.73244,-0.0734 c 2.05285,-0.0404 3.73245,-0.006 3.73245,0.0757 0,0.12594 -18.57844,64.99725 -20.12448,70.26966 l -0.52338,1.78489 -4.28576,-0.002 -4.28579,-0.002 -1.64385,-5.7491 c -0.904109,-3.16223 -4.160685,-14.43582 -7.236841,-25.05264 -3.076155,-10.61683 -6.26078,-21.82839 -7.076967,-24.91457 -0.81616,-3.08619 -1.556799,-5.52555 -1.645832,-5.4208 -0.08901,0.10475 -0.375304,1.02341 -0.63619,2.04146 -0.260859,1.01805 -1.189825,4.17137 -2.064345,7.00737 -0.874493,2.836 -4.586521,15.68725 -8.248916,28.55833 l -6.658878,23.40197 -3.988436,0.0729 -3.988409,0.0729 z m 89.080695,-35.24192 v -36.09456 h 3.83422 3.83422 v 36.09456 36.09455 h -3.83422 -3.83422 z M 291.48795,126.552 V 72.740698 h 3.83422 3.83422 v 23.200116 23.200116 l 0.89264,-1.31862 c 1.85872,-2.74575 5.92929,-6.29511 9.50302,-8.28625 1.91801,-1.06865 4.44759,-1.9739 7.17311,-2.56702 3.08163,-0.67061 9.38597,-0.40863 12.73615,0.52926 7.81025,2.18649 12.18817,7.63284 14.14679,17.59934 0.59116,3.00818 0.5987,3.32225 0.69992,29.1533 l 0.10231,26.11236 h -3.85252 -3.85249 v -25.1236 c 0,-21.42837 -0.0604,-25.50239 -0.41056,-27.69894 -1.49711,-9.39109 -5.36317,-13.40948 -13.44796,-13.97778 -4.0615,-0.2855 -8.1639,0.6901 -11.77827,2.80101 -2.3104,1.34935 -6.22818,4.46476 -9.46617,7.52749 l -2.44597,2.31357 v 27.07913 27.07912 h -3.83422 -3.83422 z M 149.38575,93.186185 c -0.42068,-0.06977 -1.23337,-0.436885 -1.80597,-0.815806 -3.88703,-2.57232 -3.87333,-8.565684 0.0246,-10.803516 1.02974,-0.591174 1.55976,-0.706543 3.33945,-0.726918 1.84379,-0.02111 2.28522,0.06994 3.43758,0.708989 1.62801,0.902833 2.65947,2.304221 2.96504,4.028445 0.69762,3.936494 -1.79116,7.313722 -5.60933,7.611802 -0.87262,0.06812 -1.93078,0.06678 -2.35146,-0.003 z"
         id="path1207" />
    </g>
  </g>
</svg>
