<svg xmlns="http://www.w3.org/2000/svg" xml:space="preserve" viewBox="0 0 916 182"><path fill="#005daa" d="M384 112V42h30v4q-1 6 4 1c24-19 58-4 66 28 14 52-28 96-66 69l-3-2v40h-31zm57 16c16-8 19-47 5-61s-31-2-32 25c-2 26 12 44 27 36m412 24c-60-9-59-105 2-113 35-5 59 16 60 53l1 12h-74v4c0 23 34 31 39 9l1-2h16l17 1c0 22-32 41-62 36m29-74c-3-22-34-25-39-3l-1 5c0 2 1 2 20 2h21zM35 151c-43-10-48-89-7-108 13-6 30-5 40 3 5 4 5 4 5-22V0h31v149H74v-3q1-7-5-2c-8 7-23 9-34 7m22-22c24-7 21-65-3-67q-21 0-22 32 1 39 25 35m82 22c-43-10-36-57 10-66 26-6 32-10 29-18-5-12-26-9-29 4l-2 5h-30l1-6c4-31 59-44 83-19 7 7 7 7 8 52l1 44 1 2h-30l-1-3-1-3-4 2q-14 10-36 6m29-25q9-3 9-19l1-8h-2l-10 3q-15 3-19 7c-12 13 5 27 21 17m134 25c-40-7-41-53-2-64l16-4q29-5 22-17c-6-12-29-6-29 7v3h-31l1-6c2-25 38-40 69-28 19 7 20 10 21 60l1 44 2 3h-30l-2-3-1-3-3 2c-7 5-23 8-34 6m22-22q13-3 14-23l1-7h-2l-12 3q-15 3-19 8c-8 12 3 23 18 19m426 22q-8-2-15-8l-3-2v8h-30V0h31v49l4-3c22-16 55-3 64 25 14 46-12 88-51 80m6-22c25-7 21-67-4-67-27 0-28 66-1 68zm-515 20q-9-4-13-10l-3-5V62h-13V42h13V9h31v33h17v19h-17v33c0 36 0 36 6 36q3 0 5 5l6 9 3 5c-1 2-31 1-35 0m254-54V43h29v5q-1 9 6 0 13-13 39-4l5 1-7 5-9 9q-2 4-7 4c-21 0-24 8-25 54v33h-31z"/><path fill="#77a22f" d="M618 152c-42-4-73-34-61-67l4-13c3-7 21-24 29-26q5 0 9 13 4 3-2 5c-19 10-23 42-5 58 6 8 10 9 20 11 46 10 78-43 41-68l-5-4 4-8q4-8 6-7-1 1 0 0c7 2 27 19 32 33 4 10 3 19-1 35-3 12-23 30-39 34q-18 6-32 4m-4-89V33h20v59l-10 1h-10z"/></svg>