<?xml version="1.0" encoding="UTF-8" standalone="no"?>
<!-- Created with Inkscape (http://www.inkscape.org/) -->

<svg
   width="340.21667mm"
   height="94.18129mm"
   viewBox="0 0 340.21667 94.18129"
   version="1.1"
   id="svg1091"
   sodipodi:docname="datacom-dmos.svg"
   inkscape:version="1.2.1 (9c6d41e410, 2022-07-14)"
   xmlns:inkscape="http://www.inkscape.org/namespaces/inkscape"
   xmlns:sodipodi="http://sodipodi.sourceforge.net/DTD/sodipodi-0.dtd"
   xmlns="http://www.w3.org/2000/svg"
   xmlns:svg="http://www.w3.org/2000/svg">
  <sodipodi:namedview
     id="namedview5137"
     pagecolor="#ffffff"
     bordercolor="#000000"
     borderopacity="0.25"
     inkscape:showpageshadow="2"
     inkscape:pageopacity="0.0"
     inkscape:pagecheckerboard="0"
     inkscape:deskcolor="#d1d1d1"
     inkscape:document-units="mm"
     showgrid="false"
     inkscape:zoom="0.96200336"
     inkscape:cx="610.18498"
     inkscape:cy="178.79355"
     inkscape:window-width="1920"
     inkscape:window-height="1017"
     inkscape:window-x="1912"
     inkscape:window-y="-8"
     inkscape:window-maximized="1"
     inkscape:current-layer="svg1091">
    <inkscape:grid
       type="xygrid"
       id="grid5635" />
  </sodipodi:namedview>
  <defs
     id="defs1088" />
  <g
     id="layer1"
     transform="translate(82.818018,-41.973876)">
    <g
       id="g5619">
      <path
         style="fill:#0075bc;stroke-width:0.999999"
         d="M -82.553462,110.64769 V 86.418976 h 9.788505 9.788504 v 14.316354 14.31636 l 5.357222,-0.12793 c 6.292606,-0.15028 8.075617,-0.52065 12.235631,-2.54165 7.52564,-3.65607 12.624488,-10.27758 14.30655,-18.5789 0.592316,-2.923192 0.40536,-8.482869 -0.384903,-11.446246 -1.218285,-4.568416 -4.392546,-9.741892 -7.779234,-12.678769 -5.676435,-4.922502 -11.26447,-6.801888 -20.229923,-6.803794 l -3.505343,-7.45e-4 v 9.656227 9.656227 h -9.788504 -9.788505 V 62.724654 43.263198 l 15.939389,0.102486 15.939389,0.102485 3.204397,0.702497 c 10.395863,2.279077 19.316629,7.627444 25.886004,15.519725 13.0583177,15.687931 14.2394675,37.756311 2.924401,54.639049 -6.994172,10.43571 -17.618277,17.40335 -30.118043,19.75241 -2.730451,0.51313 -4.125871,0.56441 -18.365256,0.67493 l -15.410281,0.11962 z m 76.9852653,-0.022 V 86.418971 h 9.9207816 9.9207811 v 24.206709 24.2067 H 4.3525849 -5.5681967 Z m 38.2894737,4.03445 C 32.612206,92.264171 32.654329,92.828648 30.801439,88.932236 29.54969,86.299953 28.348196,85.016972 26.097875,83.909664 22.75869,82.266566 21.991684,82.195822 7.4610965,82.190697 L -5.5681967,82.18611 V 73.835077 65.484043 L 9.4452528,65.59295 c 13.9208562,0.100981 15.1970342,0.148529 17.5361082,0.653371 4.901261,1.057836 9.07551,2.794735 12.849137,5.346511 l 1.879533,1.270966 1.824226,-1.182004 c 5.376407,-3.48363 11.687609,-5.624329 17.852579,-6.05542 4.936099,-0.345161 11.801277,0.743146 15.625204,2.476998 6.585357,2.985942 10.880238,8.825684 12.4975,16.992834 0.857727,4.331495 0.955429,7.225167 0.955429,28.296864 v 21.17476 h -9.776631 -9.776634 l -0.09072,-20.96591 c -0.08904,-20.5776 -0.101444,-21.006376 -0.669661,-23.150186 -1.318173,-4.973298 -3.503547,-7.23254 -7.743482,-8.005221 -1.970363,-0.359077 -3.902288,-0.195759 -6.642937,0.561567 -2.079163,0.574537 -5.247617,2.015206 -5.247617,2.386045 0,0.123907 0.236839,1.089723 0.526312,2.146254 1.255177,4.581232 1.32235,5.963866 1.324006,27.252031 l 0.0016,20.03998 H 42.59438 32.819556 l -0.09824,-20.17226 z"
         id="path5623" />
      <path
         style="fill:#575759;stroke-width:0.999999"
         d="m 137.95244,135.61861 c -5.51817,-0.62472 -10.09407,-2.0244 -15.2327,-4.65938 C 109.59642,124.22985 100.81114,111.34142 98.766378,95.818493 98.17821,91.353396 98.380237,83.437835 99.185212,79.408291 102.56005,62.51448 113.79539,49.34134 129.08441,44.352271 c 5.16165,-1.684339 7.41605,-1.983593 14.8205,-1.967306 5.69525,0.01253 6.81858,0.08667 9.2594,0.611116 14.37053,3.087743 25.99121,12.726284 31.76258,26.344832 7.30517,17.237799 4.12798,38.107267 -7.89192,51.838047 -6.20825,7.09193 -15.54481,12.31732 -24.92316,13.94876 -3.50424,0.60959 -10.85868,0.86456 -14.15937,0.49089 z m 14.09593,-4.45083 c 8.17119,-1.76502 14.98526,-5.58794 20.74133,-11.63659 9.42517,-9.90424 13.61552,-24.94945 10.91704,-39.196959 -1.07128,-5.656319 -4.10597,-12.758709 -7.45713,-17.452778 -2.26621,-3.174338 -6.40476,-7.323146 -9.46864,-9.492092 -2.56485,-1.815686 -7.67809,-4.43248 -10.44201,-5.343896 -8.07874,-2.664005 -17.64652,-2.647728 -25.79403,0.04388 -13.8839,4.58668 -24.01398,16.626682 -27.16682,32.288856 -0.51232,2.544993 -0.60307,3.818504 -0.60013,8.421762 0.005,7.105946 0.73143,11.03639 3.20471,17.328297 5.32358,13.54296 17.99891,23.53824 32.36658,25.52306 2.92184,0.40363 10.89474,0.12221 13.6991,-0.48354 z m 68.78051,4.16396 c -5.68567,-0.5484 -11.81843,-2.32976 -17.02636,-4.94557 -4.49449,-2.25748 -7.49924,-4.29561 -12.64196,-8.57505 l -0.76094,-0.63321 1.51722,-1.63877 1.51719,-1.63876 1.49246,1.36914 c 2.31276,2.1217 6.37909,5.06156 9.2255,6.66981 6.70463,3.78818 14.2726,5.71841 22.42052,5.71841 9.11566,0 16.14217,-2.50644 21.08277,-7.52045 2.07141,-2.10219 3.44341,-4.35128 4.36919,-7.16231 0.59914,-1.81919 0.69853,-2.58086 0.70771,-5.42336 0.008,-2.38332 -0.12116,-3.7872 -0.46151,-5.02653 -2.14757,-7.82066 -9.78158,-12.272977 -27.43176,-15.998839 -16.8039,-3.547211 -25.42209,-8.036367 -28.78637,-14.994604 -1.50836,-3.119687 -1.95366,-5.235284 -1.96821,-9.351064 -0.0138,-3.875589 0.49826,-6.266055 1.9717,-9.206269 1.68388,-3.360071 4.84271,-6.983931 7.95326,-9.124038 1.66818,-1.147725 5.23527,-2.906065 7.36498,-3.630421 4.03583,-1.372672 5.7527,-1.585434 12.69056,-1.572643 6.00731,0.01107 6.7269,0.06412 9.83446,0.724966 6.06971,1.290778 11.48247,3.61417 17.13903,7.356854 l 3.20748,2.12223 -0.54471,0.712192 c -0.29959,0.391705 -0.86999,1.156085 -1.26754,1.698621 -0.39754,0.542536 -0.80924,0.988971 -0.91488,0.992078 -0.10563,0.0031 -1.17708,-0.693269 -2.38098,-1.547502 -10.24211,-7.267272 -23.46591,-10.148572 -34.10736,-7.431569 -4.91383,1.254613 -8.72148,3.445251 -11.99872,6.903149 -2.07271,2.186972 -3.24291,4.198525 -4.10615,7.058425 -0.51098,1.692873 -0.56771,2.353709 -0.45403,5.291084 0.0993,2.566182 0.27091,3.754575 0.7288,5.046642 1.82886,5.160901 6.5661,8.88276 14.94969,11.745387 3.3365,1.139268 6.71015,2.002048 15.7351,4.024115 19.83603,4.444322 27.80523,11.779404 27.16276,25.001396 -0.26001,5.35128 -1.82627,9.28984 -5.45392,13.71449 -1.23364,1.5047 -4.34895,4.00972 -6.44279,5.18066 -6.45275,3.60857 -14.78887,5.01082 -24.32219,4.09131 z"
         id="path5621" />
    </g>
  </g>
</svg>
