<?xml version="1.0" encoding="UTF-8" standalone="no"?>
<!-- Creator: CorelDRAW -->

<svg
   xml:space="preserve"
   width="108mm"
   height="18.999998mm"
   style="clip-rule:evenodd;fill-rule:evenodd;image-rendering:optimizeQuality;shape-rendering:geometricPrecision;text-rendering:geometricPrecision"
   viewBox="0 0 108 18.999998"
   version="1.1"
   id="svg1"
   sodipodi:docname="Logo_Datacom_-_fundo_branco_-_SVG.svg"
   xmlns:inkscape="http://www.inkscape.org/namespaces/inkscape"
   xmlns:sodipodi="http://sodipodi.sourceforge.net/DTD/sodipodi-0.dtd"
   xmlns="http://www.w3.org/2000/svg"
   xmlns:svg="http://www.w3.org/2000/svg"><sodipodi:namedview
   id="namedview1"
   pagecolor="#ffffff"
   bordercolor="#000000"
   borderopacity="0.25"
   inkscape:showpageshadow="2"
   inkscape:pageopacity="0.0"
   inkscape:pagecheckerboard="0"
   inkscape:deskcolor="#d1d1d1"
   inkscape:document-units="mm" />&#10; <defs
   id="defs1"><style
     type="text/css"
     id="style1">&#10;   <![CDATA[
    .fil0 {fill:#183884}
   ]]>&#10;  </style></defs>&#10; <g
   id="Camada_x0020_1"
   inkscape:label="Camada 1"
   inkscape:groupmode="layer">&#10;  <metadata
   id="CorelCorpID_0Corel-Layer" />&#10;  <path
   class="fil0"
   d="m 80.354778,14.701437 c 1.5832,0 2.8956,-0.463 3.9377,-1.3897 1.0381,-0.9266 1.5568,-2.1033 1.5568,-3.5268999 0,-1.4272 -0.5187,-2.6079 -1.5522,-3.5346 -1.0336,-0.9266 -2.3505,-1.3897 -3.9423,-1.3897 -1.5831,0 -2.8955,0.4671 -3.9376,1.3973 -1.0376,0.9302 -1.5564,2.1074 -1.5564,3.527 0,1.4235999 0.5188,2.6002999 1.5564,3.5268999 1.0421,0.9267 2.3545,1.3897 3.9376,1.3897 z m 0,1.4125 c -2.1105,0 -3.8546,-0.5976 -5.2328,-1.7895 -1.3736,-1.1918 -2.0625,-2.7051 -2.0625,-4.5395999 0,-1.8382 0.6889,-3.3549 2.0716,-4.5468 1.3777,-1.1923 3.1218,-1.79 5.2237,-1.79 2.1151,0 3.8638,0.5977 5.2501,1.7971 1.3913,1.1959 2.0847,2.7091 2.0847,4.5397 0,1.8344999 -0.6934,3.3477999 -2.0756,4.5395999 -1.3868,1.1919 -3.1355,1.7895 -5.2592,1.7895 z m -34.0264,-4.9819 h 6.1672 l -3.0945,-5.3518999 z m -4.5202,4.6641 6.8692,-12.0869999 h 1.4475 l 6.9436,12.0869999 h -1.8899 l -1.9071,-3.2511 h -7.7448 l -1.8509,3.2511 z m -19.1665,-4.6641 h 6.1677 l -3.0945,-5.3518999 z m -4.5202,4.6641 6.8697,-12.0869999 h 1.4475 l 6.943,12.0869999 h -1.8893 l -1.9071,-3.2516 h -7.7453 l -1.8504,3.2516 z M 10.617678,5.0999371 H 6.3484784 v 9.3059999 h 4.2691996 c 1.7248,0 3.0858,-0.4185 4.0738,-1.2521 0.9925,-0.8371 1.4865,-1.9656 1.4865,-3.3897999 0,-1.4014 -0.5026,-2.5304 -1.5123,-3.3822 -1.0057,-0.8558 -2.3581,-1.2819 -4.048,-1.2819 z m 0,-1.3908 c 2.2057,0 3.9872,0.5608 5.3396,1.6858 1.3478,1.1251 2.024,2.5862 2.024,4.3914 0,1.8168999 -0.6635,3.2738999 -1.9936,4.3695999 -1.3306,1.0947 -3.1208,1.6402 -5.37,1.6402 H 4.6104784 V 3.7091371 Z m 26.106,12.0869999 V 5.0999371 h -4.6873 v -1.3908 h 11.1536 v 1.3908 h -4.7151 V 15.796137 Z m 34.0623,-2.5836 c -0.6154,0.8715 -1.4166,1.5578 -2.395,2.0532 -1.118,0.5643 -2.3884,0.8482 -3.8096,0.8482 -2.1019,0 -3.8314,-0.5976 -5.201,-1.7895 -1.3655,-1.1918 -2.0503,-2.7051 -2.0503,-4.5395999 0,-1.8382 0.6848,-3.3549 2.0589,-4.5468 1.3696,-1.1923 3.1031,-1.79 5.1924,-1.79 1.2957,0 2.4744,0.2429 3.5409,0.7323 1.0659,0.4894 1.9374,1.1883 2.605,2.0922 l -1.4607,0.8968 c -0.4423,-0.7212 -1.075,-1.289 -1.903,-1.6959 -0.8321,-0.4074 -1.7593,-0.6129 -2.7822,-0.6129 -1.5736,0 -2.8778,0.4671 -3.9139,1.3973 -1.0315,0.9302 -1.5472,2.1074 -1.5472,3.527 0,1.4235999 0.5157,2.6002999 1.5472,3.5268999 1.0361,0.9267 2.3403,1.3897 3.9139,1.3897 1.1008,0 2.0761,-0.2353 2.934,-0.7019 0.7258,-0.3973 1.3453,-0.9509 1.858,-1.663 z m 19.2014,2.5836 V 3.7091371 h 1.6191 l 5.6884,7.4005999 5.722802,-7.4005999 h 1.5927 V 15.796137 h -1.7319 V 6.3590371 l -5.583602,7.1500999 -5.5841,-7.1500999 v 9.4370999 z"
   id="path1" />&#10; </g>&#10;</svg>
