<?xml version="1.0" encoding="UTF-8" standalone="no"?>
<!-- Created with Inkscape (http://www.inkscape.org/) -->

<svg
   xmlns:dc="http://purl.org/dc/elements/1.1/"
   xmlns:cc="http://creativecommons.org/ns#"
   xmlns:rdf="http://www.w3.org/1999/02/22-rdf-syntax-ns#"
   xmlns:svg="http://www.w3.org/2000/svg"
   xmlns="http://www.w3.org/2000/svg"
   xmlns:sodipodi="http://sodipodi.sourceforge.net/DTD/sodipodi-0.dtd"
   xmlns:inkscape="http://www.inkscape.org/namespaces/inkscape"
   width="290.88196mm"
   height="74.000595mm"
   viewBox="0 0 1030.6841 262.20683"
   id="svg4491"
   version="1.1"
   inkscape:version="0.91 r13725"
   sodipodi:docname="devuan-logo-with-registered-trademark-sign.svg">
  <defs
     id="defs4493" />
  <sodipodi:namedview
     id="base"
     pagecolor="#ffffff"
     bordercolor="#666666"
     borderopacity="1.0"
     inkscape:pageopacity="0.0"
     inkscape:pageshadow="2"
     inkscape:zoom="0.78339844"
     inkscape:cx="264.00016"
     inkscape:cy="32.005932"
     inkscape:document-units="px"
     inkscape:current-layer="layer1"
     showgrid="false"
     fit-margin-top="10"
     fit-margin-left="10"
     fit-margin-right="10"
     fit-margin-bottom="10"
     inkscape:window-width="1366"
     inkscape:window-height="746"
     inkscape:window-x="0"
     inkscape:window-y="0"
     inkscape:window-maximized="1" />
  <metadata
     id="metadata4496">
    <rdf:RDF>
      <cc:Work
         rdf:about="">
        <dc:format>image/svg+xml</dc:format>
        <dc:type
           rdf:resource="http://purl.org/dc/dcmitype/StillImage" />
        <dc:title></dc:title>
        <cc:license
           rdf:resource="" />
      </cc:Work>
    </rdf:RDF>
  </metadata>
  <g
     inkscape:label="Layer 1"
     inkscape:groupmode="layer"
     id="layer1"
     transform="translate(262.59708,-302.16131)">
    <text
       xml:space="preserve"
       style="font-style:normal;font-variant:normal;font-weight:normal;font-stretch:normal;font-size:20px;line-height:150%;font-family:'Open Sans';-inkscape-font-specification:'Open Sans, Normal';text-align:start;letter-spacing:0px;word-spacing:0px;writing-mode:lr-tb;text-anchor:start;fill:#000000;fill-opacity:1;stroke:none;stroke-width:1px;stroke-linecap:butt;stroke-linejoin:miter;stroke-opacity:1"
       x="716.98987"
       y="505.97049"
       id="text4470"
       sodipodi:linespacing="150%"><tspan
         sodipodi:role="line"
         id="tspan4472"
         x="716.98987"
         y="505.97049">®</tspan></text>
    <g
       style="display:inline"
       id="g4427"
       transform="translate(-283.36497,61.428879)">
      <path
         style="color:#000000;font-style:normal;font-variant:normal;font-weight:100;font-stretch:normal;font-size:medium;line-height:150%;font-family:'Fira Sans';-inkscape-font-specification:'Fira Sans Thin';text-indent:0;text-align:start;text-decoration:none;text-decoration-line:none;text-decoration-style:solid;text-decoration-color:#000000;letter-spacing:0px;word-spacing:0px;text-transform:none;direction:ltr;block-progression:tb;writing-mode:lr-tb;baseline-shift:baseline;text-anchor:start;white-space:normal;clip-rule:nonzero;display:inline;overflow:visible;visibility:visible;opacity:1;isolation:auto;mix-blend-mode:normal;color-interpolation:sRGB;color-interpolation-filters:linearRGB;solid-color:#000000;solid-opacity:1;fill:#000000;fill-opacity:1;fill-rule:nonzero;stroke:none;stroke-width:19.91197014;stroke-linecap:round;stroke-linejoin:round;stroke-miterlimit:4;stroke-dasharray:none;stroke-dashoffset:0;stroke-opacity:1;color-rendering:auto;image-rendering:auto;shape-rendering:auto;text-rendering:auto;enable-background:accumulate"
         d="m 369.8125,298.34766 a 9.9569807,9.9569807 0 0 0 -8.81445,14.58593 l 66.99414,127.49024 a 9.9569807,9.9569807 0 0 0 8.8125,5.32422 l 2.96484,0 a 9.9569807,9.9569807 0 0 0 8.83008,-5.35743 L 515,312.90234 a 9.9569807,9.9569807 0 0 0 -8.83008,-14.55468 l -2.37109,0 a 9.9569807,9.9569807 0 0 0 -8.83399,5.36132 L 438.26562,412.75 381.30469,303.69336 a 9.9569807,9.9569807 0 0 0 -8.82422,-5.3457 l -2.66797,0 z"
         id="path4401"
         inkscape:connector-curvature="0" />
      <path
         style="color:#000000;font-style:normal;font-variant:normal;font-weight:100;font-stretch:normal;font-size:medium;line-height:150%;font-family:'Fira Sans';-inkscape-font-specification:'Fira Sans Thin';text-indent:0;text-align:start;text-decoration:none;text-decoration-line:none;text-decoration-style:solid;text-decoration-color:#000000;letter-spacing:0px;word-spacing:0px;text-transform:none;direction:ltr;block-progression:tb;writing-mode:lr-tb;baseline-shift:baseline;text-anchor:start;white-space:normal;clip-rule:nonzero;display:inline;overflow:visible;visibility:visible;opacity:1;isolation:auto;mix-blend-mode:normal;color-interpolation:sRGB;color-interpolation-filters:linearRGB;solid-color:#000000;solid-opacity:1;fill:#000000;fill-opacity:1;fill-rule:nonzero;stroke:none;stroke-width:20;stroke-linecap:round;stroke-linejoin:round;stroke-miterlimit:4;stroke-dasharray:none;stroke-dashoffset:0;stroke-opacity:1;color-rendering:auto;image-rendering:auto;shape-rendering:auto;text-rendering:auto;enable-background:accumulate"
         d="m 541.45898,297.73633 a 10.001,10.001 0 0 0 -10,10 l 0,88.48633 c 0,14.8854 6.49876,28.38398 18.16016,37.26367 12.24914,9.32706 29.37532,12.87109 51.08594,12.87109 21.50233,0 38.53211,-3.55834 50.75195,-12.84375 11.8361,-8.84931 18.49609,-22.37012 18.49609,-37.29101 l 0,-88.48633 a 10.001,10.001 0 0 0 -10,-10 l -2.36914,0 a 10.001,10.001 0 0 0 -10,10 l 0,88.29883 c 0,9.41271 -2.81974,15.15179 -9.71484,20.4414 -6.30803,4.83925 -18.59119,8.38867 -37.16406,8.38867 -18.57288,0 -30.85603,-3.54942 -37.16406,-8.38867 -6.8951,-5.28961 -9.7129,-11.02869 -9.7129,-20.4414 l 0,-88.29883 a 10.001,10.001 0 0 0 -10,-10 l -2.36914,0 z"
         id="path4403"
         inkscape:connector-curvature="0" />
      <path
         style="color:#000000;font-style:normal;font-variant:normal;font-weight:100;font-stretch:normal;font-size:medium;line-height:150%;font-family:'Fira Sans';-inkscape-font-specification:'Fira Sans Thin';text-indent:0;text-align:start;text-decoration:none;text-decoration-line:none;text-decoration-style:solid;text-decoration-color:#000000;letter-spacing:0px;word-spacing:0px;text-transform:none;direction:ltr;block-progression:tb;writing-mode:lr-tb;baseline-shift:baseline;text-anchor:start;white-space:normal;clip-rule:nonzero;display:inline;overflow:visible;visibility:visible;opacity:1;isolation:auto;mix-blend-mode:normal;color-interpolation:sRGB;color-interpolation-filters:linearRGB;solid-color:#000000;solid-opacity:1;fill:#000000;fill-opacity:1;fill-rule:nonzero;stroke:none;stroke-width:20;stroke-linecap:round;stroke-linejoin:round;stroke-miterlimit:4;stroke-dasharray:none;stroke-dashoffset:0;stroke-opacity:1;color-rendering:auto;image-rendering:auto;shape-rendering:auto;text-rendering:auto;enable-background:accumulate"
         d="m 762.23633,297.25586 a 10.001,10.001 0 0 0 -8.88477,5.41016 L 686.40234,432.25 a 10.001,10.001 0 0 0 8.88282,14.58984 l 2.66601,0 a 10.001,10.001 0 0 0 8.89649,-5.43164 l 56.84961,-110.69922 56.58398,110.68164 a 10.001,10.001 0 0 0 8.9043,5.44922 l 2.36914,0 a 10.001,10.001 0 0 0 8.90039,-14.55859 L 774.09961,302.69727 a 10.001,10.001 0 0 0 -8.90234,-5.44141 l -2.96094,0 z"
         id="path4405"
         inkscape:connector-curvature="0" />
      <path
         style="color:#000000;font-style:normal;font-variant:normal;font-weight:100;font-stretch:normal;font-size:medium;line-height:150%;font-family:'Fira Sans';-inkscape-font-specification:'Fira Sans Thin';text-indent:0;text-align:start;text-decoration:none;text-decoration-line:none;text-decoration-style:solid;text-decoration-color:#000000;letter-spacing:0px;word-spacing:0px;text-transform:none;direction:ltr;block-progression:tb;writing-mode:lr-tb;baseline-shift:baseline;text-anchor:start;white-space:normal;clip-rule:nonzero;display:inline;overflow:visible;visibility:visible;opacity:1;isolation:auto;mix-blend-mode:normal;color-interpolation:sRGB;color-interpolation-filters:linearRGB;solid-color:#000000;solid-opacity:1;fill:#000000;fill-opacity:1;fill-rule:nonzero;stroke:none;stroke-width:20;stroke-linecap:round;stroke-linejoin:round;stroke-miterlimit:4;stroke-dasharray:none;stroke-dashoffset:0;stroke-opacity:1;color-rendering:auto;image-rendering:auto;shape-rendering:auto;text-rendering:auto;enable-background:accumulate"
         d="m 926.13477,297.73633 c -21.71059,0 -38.83679,3.54404 -51.08594,12.87109 -11.66148,8.87957 -18.16016,22.38011 -18.16016,37.26563 l 0,88.48437 a 10.001,10.001 0 0 0 10,10 l 2.36914,0 a 10.001,10.001 0 0 0 10,-10 l 0,-88.29687 c 0,-9.41288 2.81783,-15.15181 9.71289,-20.44141 6.30803,-4.83925 18.59126,-8.38867 37.16407,-8.38867 18.57294,0 30.85605,3.54944 37.16406,8.38867 6.89507,5.28961 9.71484,11.02853 9.71484,20.44141 l 0,88.29687 a 10.001,10.001 0 0 0 10,10 l 2.36914,0 a 10.001,10.001 0 0 0 10,-10 l 0,-88.48437 c 0,-14.92619 -6.66394,-28.45176 -18.50781,-37.30078 -12.21906,-9.27908 -29.24448,-12.83594 -50.74023,-12.83594 z"
         id="path4407"
         inkscape:connector-curvature="0" />
      <path
         style="color:#000000;font-style:normal;font-variant:normal;font-weight:100;font-stretch:normal;font-size:medium;line-height:150%;font-family:'Fira Sans';-inkscape-font-specification:'Fira Sans Thin';text-indent:0;text-align:start;text-decoration:none;text-decoration-line:none;text-decoration-style:solid;text-decoration-color:#000000;letter-spacing:0px;word-spacing:0px;text-transform:none;direction:ltr;block-progression:tb;writing-mode:lr-tb;baseline-shift:baseline;text-anchor:start;white-space:normal;clip-rule:nonzero;display:inline;overflow:visible;visibility:visible;opacity:1;isolation:auto;mix-blend-mode:normal;color-interpolation:sRGB;color-interpolation-filters:linearRGB;solid-color:#000000;solid-opacity:1;fill:#000000;fill-opacity:1;fill-rule:nonzero;stroke:none;stroke-width:9.99139977;stroke-linecap:round;stroke-linejoin:round;stroke-miterlimit:4;stroke-dasharray:none;stroke-dashoffset:0;stroke-opacity:1;color-rendering:auto;image-rendering:auto;shape-rendering:auto;text-rendering:auto;enable-background:accumulate"
         d="m 262.70352,299.1501 c -16.6902,0 -31.61821,6.64211 -41.77029,19.04358 -2.94743,3.54165 -5.4048,7.50325 -7.41715,11.86761 -5.24033,11.36537 12.50043,3.04762 12.50043,19.57243 0,9.33503 -19.2702,40.30646 -17.7395,48.03331 2.25488,11.38259 6.32742,20.96483 12.67969,28.58438 10.18167,12.2129 25.08385,18.69188 41.74682,18.69188 l 71.79612,0 c 5.52169,-2e-4 9.99848,-4.47505 10.0008,-9.9968 l 0,-2.51777 c -1e-4,-5.52315 -4.47755,-10.0006 -10.0008,-10.0008 l -71.58108,0 c -11.57153,0 -19.03219,-3.40673 -25.32255,-10.89617 -5.80518,-6.91154 -9.80922,-19.80543 -9.80922,-39.48315 -2e-5,-19.67793 4.00408,-32.57162 9.80922,-39.48316 6.2904,-7.48924 13.75112,-10.89997 25.32255,-10.89997 l 71.58108,0 c 5.52325,-2e-4 10.0007,-4.47766 10.0008,-10.00081 l 0,-2.51396 c -2.2e-4,-5.52315 -4.47763,-10.0004 -10.0008,-10.0006 z"
         clip-path="none"
         id="path4409"
         inkscape:connector-curvature="0"
         sodipodi:nodetypes="scsssssccccscsssccccs" />
      <path
         sodipodi:nodetypes="ccssscsc"
         style="fill:#000000;fill-opacity:1;stroke:none;stroke-width:0.57134259;stroke-linecap:butt;stroke-linejoin:round;stroke-miterlimit:4;stroke-dasharray:none;stroke-opacity:1"
         d="m 56.200956,276.1655 c 351.111544,83.78964 18.967955,151.92346 18.967955,151.92346 -6.543555,1.04566 -11.821798,4.45425 -14.999489,9.63398 -3.569697,5.81872 -3.872178,13.6808 -0.538715,19.20842 4.056259,6.72618 9.195703,9.05293 13.628318,10.05499 6.973891,1.57656 12.603069,-0.93571 12.603069,-0.93571 0,0 169.799086,-50.45979 168.522696,-100.86283 -0.64075,-25.303 -52.0661,-68.10192 -198.183834,-89.02231 z"
         id="path4411"
         inkscape:connector-curvature="0" />
    </g>
  </g>
</svg>
