<svg xmlns="http://www.w3.org/2000/svg" viewBox="0 0 1030.6841 262.20683"><text style="line-height:150%;-inkscape-font-specification:'Open Sans, Normal';text-align:start" x="716.99" y="505.97" font-size="20" font-family="Open Sans" letter-spacing="0" word-spacing="0" transform="translate(262.597 -302.16)"><tspan x="716.99" y="505.97">®</tspan></text><path style="line-height:150%;-inkscape-font-specification:'Fira Sans Thin';text-indent:0;text-align:start;text-decoration-line:none;text-decoration-style:solid;text-decoration-color:#000000;text-transform:none;block-progression:tb;isolation:auto;mix-blend-mode:normal" d="M349.045 57.615A9.957 9.957 0 0 0 340.23 72.2l66.994 127.49a9.957 9.957 0 0 0 8.813 5.326h2.965a9.957 9.957 0 0 0 8.83-5.358l66.4-127.488a9.957 9.957 0 0 0-8.83-14.555h-2.37a9.957 9.957 0 0 0-8.835 5.362l-56.7 109.04-56.96-109.056a9.957 9.957 0 0 0-8.824-5.345h-2.668zM520.69 57.004a10 10 0 0 0-10 10v88.486c0 14.886 6.5 28.384 18.16 37.264 12.25 9.327 29.377 12.87 51.087 12.87 21.503 0 38.532-3.557 50.752-12.843 11.835-8.848 18.495-22.37 18.495-37.29V67.004a10 10 0 0 0-10-10h-2.37a10 10 0 0 0-10 10v88.3c0 9.41-2.82 15.15-9.714 20.44-6.307 4.84-18.59 8.39-37.163 8.39-18.573 0-30.856-3.55-37.164-8.39-6.895-5.29-9.713-11.03-9.713-20.44v-88.3a10 10 0 0 0-10-10h-2.37zM741.468 56.523a10 10 0 0 0-8.884 5.41l-66.95 129.585a10 10 0 0 0 8.883 14.59h2.666a10 10 0 0 0 8.897-5.432l56.85-110.7 56.583 110.682a10 10 0 0 0 8.905 5.45h2.37a10 10 0 0 0 8.9-14.56L753.33 61.966a10 10 0 0 0-8.903-5.442h-2.962zM905.367 57.004c-21.71 0-38.837 3.544-51.086 12.87-11.66 8.88-18.16 22.38-18.16 37.267v88.485a10 10 0 0 0 10 10h2.37a10 10 0 0 0 10-10v-88.297c0-9.413 2.818-15.152 9.713-20.44 6.308-4.84 18.59-8.39 37.164-8.39 18.573 0 30.856 3.55 37.164 8.39 6.896 5.288 9.716 11.027 9.716 20.44v88.297a10 10 0 0 0 10 10h2.37a10 10 0 0 0 10-10V107.14c0-14.926-6.665-28.45-18.51-37.3-12.218-9.28-29.243-12.836-50.74-12.836zM241.936 58.418c-16.69 0-31.62 6.642-41.77 19.043-2.948 3.543-5.405 7.504-7.418 11.87-5.24 11.364 12.5 3.046 12.5 19.57 0 9.336-19.27 40.308-17.74 48.035 2.256 11.382 6.33 20.964 12.68 28.584 10.182 12.212 25.085 18.69 41.748 18.69h71.796c5.52 0 9.998-4.474 10-9.996v-2.518c0-5.523-4.477-10-10-10h-71.58c-11.573 0-19.034-3.407-25.324-10.897-5.805-6.912-9.81-19.806-9.81-39.484s4.005-32.57 9.81-39.483c6.29-7.49 13.75-10.9 25.323-10.9h71.582c5.523 0 10-4.478 10-10v-2.515c0-5.523-4.477-10-10-10z" color="#000" font-weight="100" font-family="Fira Sans" letter-spacing="0" word-spacing="0" white-space="normal" overflow="visible" solid-color="#000000"/><path d="M35.433 35.433C386.545 119.223 54.4 187.357 54.4 187.357c-6.543 1.045-11.82 4.454-14.998 9.634-3.57 5.82-3.873 13.68-.54 19.21 4.057 6.725 9.197 9.052 13.63 10.054 6.973 1.576 12.602-.936 12.602-.936s169.8-50.46 168.523-100.863c-.64-25.303-52.066-68.102-198.184-89.022z"/></svg>