<svg xmlns="http://www.w3.org/2000/svg" viewBox="0 0 1030.7 262.2"><text x="717" y="506" font-family="Open Sans" font-size="20" letter-spacing="0" transform="translate(262.6 -302.2)" word-spacing="0"><tspan x="717" y="506">®</tspan></text><path d="M349 57.6a10 10 0 0 0-8.8 14.6l67 127.5a10 10 0 0 0 8.8 5.3h3a10 10 0 0 0 8.8-5.3l66.4-127.5a10 10 0 0 0-8.8-14.6H483a10 10 0 0 0-8.8 5.4l-56.7 109-57-109a10 10 0 0 0-8.8-5.4zm171.7-.6a10 10 0 0 0-10 10v88.5c0 14.9 6.5 28.4 18.2 37.3 12.2 9.3 29.3 12.8 51 12.8 21.5 0 38.6-3.5 50.8-12.8a46 46 0 0 0 18.5-37.3V67a10 10 0 0 0-10-10h-2.4a10 10 0 0 0-10 10v88.3c0 9.4-2.8 15.2-9.7 20.4-6.3 4.9-18.6 8.4-37.2 8.4s-30.8-3.5-37.1-8.4c-7-5.2-9.7-11-9.7-20.4V67a10 10 0 0 0-10-10zm220.8-.5a10 10 0 0 0-9 5.4l-66.9 129.6a10 10 0 0 0 9 14.6h2.6a10 10 0 0 0 8.9-5.4L742.9 90l56.6 110.7a10 10 0 0 0 9 5.4h2.3a10 10 0 0 0 8.9-14.6L753.3 62a10 10 0 0 0-8.9-5.5zm163.9.5c-21.7 0-38.9 3.5-51.1 12.9A46 46 0 0 0 836 107v88.5a10 10 0 0 0 10 10h2.4a10 10 0 0 0 10-10v-88.3c0-9.4 2.8-15.1 9.7-20.4 6.3-4.9 18.6-8.4 37.2-8.4 18.5 0 30.8 3.5 37.1 8.4 7 5.3 9.7 11 9.7 20.4v88.3a10 10 0 0 0 10 10h2.4a10 10 0 0 0 10-10V107A46 46 0 0 0 956 69.7C944 60.6 927 57 905.4 57m-663.5 1.4a53 53 0 0 0-49.2 31c-5.2 11.3 12.5 3 12.5 19.5 0 9.3-19.2 40.3-17.7 48q3.3 17.2 12.7 28.6a53 53 0 0 0 41.7 18.7h71.8a10 10 0 0 0 10-10v-2.5a10 10 0 0 0-10-10h-71.5c-11.6 0-19-3.4-25.4-10.9-5.8-7-9.8-19.8-9.8-39.5s4-32.6 9.8-39.5c6.3-7.5 13.8-10.9 25.4-10.9h71.5a10 10 0 0 0 10-10v-2.5a10 10 0 0 0-10-10z"/><path d="M35.4 35.4c351.1 83.8 19 152 19 152a21 21 0 0 0-15 9.6 19 19 0 0 0-.5 19.2c4 6.7 9.2 9 13.6 10 7 1.6 12.6-.9 12.6-.9S234.9 175 233.6 124.5c-.6-25.3-52-68.1-198.2-89"/></svg>