<svg xmlns="http://www.w3.org/2000/svg" xml:space="preserve" viewBox="0 0 1103 273"><path fill="#fdfcfc" d="M462 136V0h641v273H462zm89 132a185 185 0 0 1 41-53q3-2 1-3l-3-2-2-2v-23l-1 1c0 2-12 14-17 18-9 6-17 8-35 8h-14l-4 4c-20 17-43 44-43 50v2zm160-2c4-13 18-37 30-50q2-3-2-3c-9 0-25-11-34-24-4-5-4-5-4 8v11l-2 2-2 2h-28l-2 2-11 11c-5 5-21 30-26 42l-1 1h82zm158 1 15-7 11-5 4-1 44-20c8-4 7-4 14-1l6 3 5 2 50 22 3 2 15 6h2v-3l-1-6-10-73q1-7-2-7l-8-4q-3-3-3-1l-2 3-1 2h-5q-7-1-4 6l5 42q1 2-6-1l-48-22c-3-1-1-2-15 5l-4 1-11 5-5 3-23 10 1-13 3-42q-4-4-4-9c-1-4-8-12-10-11q-12 3-26 3-7-1 0 4c4 5 4 4-1 8l-21 17-3 3v20l-2 2-2 2h-9c-10 0-9-1-13 6-12 15-23 37-25 49v2h83zm-106-60a47 47 0 0 0 22-7c5 0 17-16 22-31 3-8 3-8-2-10l-13-2c-9 41-58 47-72 9l-1-2-2-10-1-19c0-13 0-16 2-24q6-23 25-29l4-1c18-5 36 5 42 24 2 4 1 4 6 3l6-2c7-2 7-1 4-9-9-27-33-39-63-32q-26 6-39 36a111 111 0 0 0 0 69l8 15q8 14 26 20 11 3 26 2m-216-2 14-5c13-5 24-21 28-39l1-5c2-6 2-32 1-40a80 80 0 0 0-10-28c0-3-12-14-19-17l-7-3c-1-1-6-2-37-2h-31v140l28-1zm-42-70V83h18l26 2c8 1 18 12 21 21q8 27 1 53-5 19-18 25c-6 3-13 4-32 4h-16zm107 38v-33h65v65h18V66h-18v56h-65V66h-17v139h17Zm215 4 1-28h21a102 102 0 0 0 33-3 34 34 0 0 0 21-19l1-2c4-8 4-24 1-34q-6-17-22-23c-6-2-6-2-40-2h-33v139h17zm1-46-1-24 1-24h17q26 0 30 2 5 1 7 4c11 11 8 33-4 39l-3 2h-4c-3 2-43 3-43 1m95 42q4-1 8-5h3q-1 5 5 4 7 1 4-2l-2-26v-15c-4-12-30-12-36 0q-5 8 1 8 6 2 6-3 1-4 6-6 13-2 15 9v3l-3 1-11 2q-19 2-18 16-1 10 11 14zm-7-7c-9-3-7-14 3-15l11-2 3-1v3q-2 17-17 15m52 6 1-1-1-4q1-4-3-3c-5 0-5 1-5-18v-17h3q6 1 5-4 1-5-4-4h-4v-8c0-10 0-10-3-8l-2 2-2 1-1 1v12h-3q-4 0-3 4-1 4 3 4h3v19c0 20 0 20 3 23q6 4 13 1m73 1c22-7 21-48-1-52-20-5-34 19-24 41q3 7 13 11zm-11-8c-13-7-10-35 4-37 10-1 17 12 13 27q-5 13-17 10m51 7v-3q0-6-4-5c-4 0-4 0-5-19v-16h4q5 1 4-4v-4h-8v-9q0-12-2-7l-1 1-3 2-2 1v12h-5v8h5v17c0 21 0 23 4 25q6 4 13 1m-100-16c0-20 1-23 5-25h8q1 2 3-4l1-4-2-1c-3-3-13-2-13 0l-1 2-1 2-1-2v-3h-7l-1 26v26l4-1h5zm27-9v-26h-8l-1 26v26l4-1h5zm10-29c7-6 25-6 32-1l2 1 2-2 2-2 1-4q-1-5 2-5 2-2-3-3l-32-6-28-7-2-5-19-31-2-4-22-38-1-2h-78l3 4q16 21 40 40c8 6 8 6 6 8l-5 9-5 9q-3 4-1 4 3 8 3 22v9h5l3-1 3-6 23-40q4-10 6-3l27 47 1 2h6l5 1v-14l2-2 3-3h13l2 3 2 2v19q1 2 4-1m71-5q5-5-3-5l-6-1q-1-1-1 3v4h2l2 1q2 3 6-2m-81-5v-6h-9v11h9zM712 74l14-11q5 0-7-6-34-19-61-44l-5-4h-73l8 7 4 3c12 10 39 27 60 37l5 3h40l2 2 2 2v7q-1 10 5 10zm91-10 2-3 2-2h26c29 0 28 0 22-4-18-12-37-29-47-41l-4-5h-76a359 359 0 0 0 75 55"/><path fill="#0632fc" d="m864 266 2-16 7-52 2-20-9-11c-12-12-11-11-4-11l22-2 2-1 4 4q5 4 4 7 0 5 4 9l3 4-1 6-6 44q-1 3 5 0l4-2 20-9 10-5 13-5q6-4 7-2l20 9 15 7 20 7-1-5-5-40-1-3h10l2-2 2-3 2 1 5 3 3 2 4 19 6 52c3 19 3 19-1 17l-4-2-29-14-4-1-50-20-70 32-8 4q-6 3-5-1m151-147-1-1v-1l1-9v-8l-2-2-2-3h-15l-2 2-2 2v14h-5l-7-1-8-15-19-33q-2-6-4-1l-27 47q0 2-5 3h-3v-5a74 74 0 0 0-4-26l1-2 1-2 3-6 36-61 5 9 43 72 5 1 54 12-1 5-1 4-2 2-2 2-2-2c-8-5-25-4-32 2q-3 3-3 1m69-4-3-1h-2v-3q0-5 4-4 12 2 5 6-3 4-4 2"/><path fill="#fd2602" d="M474 267c0-6 22-31 40-48l8-6h10c27-1 40-6 53-23l3-4v22l2 2q2 3 3 2l-7 8a200 200 0 0 0-35 47v1h-77zm156 0c6-13 21-36 36-51l3-4h28l3-2 2-2v-22l2 3q13 19 33 24 7 0 2 4c-12 14-24 35-28 49l-1 2h-80Zm153 1c0-8 14-36 25-51l4-5h18l2-1 2-2v-21l2-2 27-21 6 6 6 6v3l-2 14-9 72-1 2zM703 79l-1-1V63l-2-2-2-2h-40l-9-4a402 402 0 0 1-68-46h72l4 4a343 343 0 0 0 69 49l-4 3-11 9-5 5zm92-18q-35-21-60-46l-6-6h37l38 1a284 284 0 0 0 54 49h-51l-2 2-2 3zm121-8c-16-13-43-40-43-44l76 3-1 2-23 40c-3 5-2 5-9-1"/><path fill="#010101" d="M747 206q-22-3-34-19l-2-3v-1l-2-2-6-13-4-16v-35a67 67 0 0 1 7-22c0-5 16-21 26-25l9-4 5-1h22l13 4c2 0 12 9 15 13 4 5 10 17 10 21l-5 2h-1l-2 1-4 1-3 1-1-3a45 45 0 0 0-14-20 37 37 0 0 0-32-4c-6 0-19 11-22 19l-1 2h-1v2l-1 3-2 4a104 104 0 0 0 3 56l3 7 7 8 2 2 12 6c23 6 42-6 48-31l1-2 6 2h4l3 2q3 1 2 4l-2 5q-5 14-14 23a47 47 0 0 1-21 12h-2c-1 2-14 2-22 1m-259-70V66l29 1 40 3h1l10 5a60 60 0 0 1 21 35c2 10 2 12 2 25a90 90 0 0 1-9 43l-5 8q-8 12-22 16c-8 2-13 3-41 3h-26zm50 52q28 0 34-29c2-7 3-12 3-25s-1-19-4-26q-6-19-22-24c-5-2-43-3-44-1-1 0-2 105-1 106zm58-52V66h16v57h66V66h15v139h-15v-66h-66v66h-16Zm214 0V66l27 1a180 180 0 0 1 47 2l3 2q12 6 17 20a62 62 0 0 1 0 31l-1 1c0 2-4 10-7 13l-9 7c-9 4-12 5-38 5l-22 1-1 28v28h-16zm58-4q22-3 21-25 0-21-18-24h-44v49zm45 41-2-1c-6 0-11-10-9-18 3-7 7-9 22-11l3-1h1l3-1 2-1v-3c0-12-18-14-22-2q-2 3-6 1c-4-1 1-10 7-13l6-2h4c5-1 13 2 16 5 2 3 2 4 3 23l1 21q3 2-3 2h-4v-3q0-5-4-1-4 3-9 4zm10-7q10-3 10-15l-1-4-15 3c-4 0-8 6-7 10q1 8 13 6m107 6q-10-2-15-14c-2-5-2-18 0-23 8-20 35-19 40 2 1 4 1 18-1 21l-1 3c-3 9-14 14-23 11m11-7c7-4 10-20 6-30-7-12-22-9-25 4-4 18 6 32 19 26m-80 7-6-2c-2-3-2-4-3-23v-19h-5v-6h5v-13l3-2 4-2v9l1 8h7v6h-3c-5 0-5-1-5 18 1 19 0 19 5 19q4 0 4 4v3zm112 0c-8-1-8-3-8-28 0-17 0-16-4-16h-2v-6h6v-13l3-2 4-2v17h7v6h-7v17c0 20 0 20 5 20h3v2l1 3q1 3-2 2zm-100-25v-25h6v2q0 8 2 3 4-7 11-6 7 2 4 6l-1 3h-2q-8-3-11 4c-2 4-2 5-2 21v17h-7zm27 0v-25h7v50h-7zm0-40v-4h7v9h-7z"/><path fill="#2333c8" d="M0 137V0h462v273H0zm353 91v-4q5 4 9 0c5-5 4-16-2-18l-7 2v-1h-5c-2 0-2 0-2 13v12h3q5 1 4-4m1-9q-3-2 0-6t5 3q-1 8-5 3m-263 7q8-4 3-11l-1-2q3 0 2-2c-1-6-15-7-16-1v-1q0-4-5-3l-3 1h-4v18h6v-5q1-11 6-5l2 2 1 1-4 2q1 4 5 5l2 1zm-6-6q-2-2 1-2l4 2zm1-8h2zm22 14q4-3 0-5l-2-1v-4l1-4q5-2 1-5-2-1-2-3 1-5-3-3l-3 4-2 2c-2 0-2 5 0 5q2-1 2 5 0 12 8 9m47 0c5-2 8-7 4-7h-2 2c5-1 2-11-4-12-10-3-17 13-8 17q5 4 8 2m-4-6q-3-1 2-2 3-1 2 2zm-1-7 4-1q1 2-2 2zm23 13q4-4-1-5h-1v-5l1-4q3 0 3 3l1 2v2l1 2 1 2c0 4 7 3 7-1l1-2 1-2q0-1 0 0l1 2 1 4c0 3 7 2 7-1l3-7v-2l1-3q2-5-4-4l-2 3-1 2v4l-1-1-1-5c-1-5-8-5-8 0v2l-1 2v2l-1-2-1-4q0-4-6-4h-3v-2q0-5-5-2l-1 1-1 2-1 2q-3 2 0 4l1 6q0 8 3 9zm39 0 2-1q4-1 6-5v-2l1-2-1-2v-2c0-3-7-7-11-6l-7 4v11l1 2 1 1 1 1zm-4-6c-2-2-1-8 1-8q7 0 4 7-2 3-5 1m72 6 2-1h2l1-1q4 0 3-7v-6h-12l1 3v2l2 1q6 0 1 3-10 2-10-8 3-11 10-5c4 3 9 2 7-2-4-9-17-8-22 1-1 3-2 11 0 12l1 2q1 3 4 4 7 3 10 2m36 0 6-5 1-2 1-3-1-3-1-1q-1-4-6-6l-8 2-4 4c-1 3 1 12 4 12v1l5 1zm-5-7v-6c3-4 8 1 6 6q-3 3-6 0m23 7 5-1h4v-18h-2q-5-3-4 6 0 10-3 7-2 2-2-6 1-10-4-7h-2v7c0 9 0 10 4 11q3 2 4 1m86 0q5-3 5-6v-2h-2l-4 1q-3 4-5-3 1-7 5-3c2 2 7 1 6-2-2-7-13-7-16 0-3 5 0 14 5 14l1 1zm-377-6v-4l4-1h5v-5l-5-1h-4v-4h5l6-1v-4h-8c-11 0-10-2-10 12s0 13 3 13h3zm20-4c0-10 0-10-3-10q-4-2-3 10c0 10 0 9 3 9h3zm63 3v-7l1 2 2 3 2 3 2 3q0 3 5 2h3v-12c1-13 1-14-3-13h-2l-1 7v7l-1-2-2-2v-1l-1-1v-1q-3-7-8-7h-3v25h6zm103 0q-1-7 4-6 2-1 2-3v6l1 9h6l1-3q0-6 3 1 2 2 5 2 5 2-1-7-4-4 2-9 3-2-3-3l-4 3-2 2v-7q0-4-4-4t-4 4v4l-1-1-3-1-4 1h-4v18h6zm69 1q-1-8 3-7l2-1 1-2c2-1-2-5-4-4l-4 1c-5-1-5-1-5 9s0 9 4 9h3zm87-7c0-14 0-13-3-13-4 0-4 0-4 13s0 12 4 12h3zm10 5c0-7 0-6 2-6q3-1 3 7v6h6v-7q1-13-7-12h-6c-5 0-5 0-5 10s0 9 4 9h2zM63 203q1-4-4-3-2-1-2 3-1 3 3 2h3zm289-11 3-1h4l1-1 4-1 3-1h1l2-1 2-1 3-1 15-8 10-6v-62h-64l-1 1v25l1 1h33l1 8q0 12-2 11h-1l-1 1-2 1-3 2h-1l-5 3h-2q-4 3-7 2l-2 1-9 1-9-1-2-1h-3l-3-2q-15-6-21-22l-2-8-1-5a98 98 0 0 1 2-33v-1l2-4 1-4 1-1 1-2c2-4 13-13 16-13l1-1c7-3 26-4 29-1l2 1c3 0 13 8 16 13l1 3 1 2c0 2 11 2 15 0l4-1c12-2 12-2 12-5l-1-3-1-2v-2l-2-4c-3-7-15-20-17-20l-1-1-5-2-10-4a112 112 0 0 0-45-2l-4 1-2 1h-1l-5 1-4 3-13 8-11 12-4 6-2 5-1 1-1 3-2 3v3l-1 1a92 92 0 0 0-2 44v4l1 2 1 3 1 2v2l1 2c0 9 24 37 32 37l1 1 2 1 4 2h2l2 1 8 2 4 1zm75 0c2-1 2-70 1-71l-19-1c-2 1-2 72 0 72zM66 160v-31h30c36 0 32 2 32-14v-12H97l-31-1V69h71l1-13-1-13-51-1H36l-1 75v74h31zm103-16V96l1 2 2 3 2 4 2 3 2 3 2 4 2 3 3 4v1h1l2 4 2 4 2 3 2 3 1 2 1 1 1 1 1 3 13 20 1 2 4 6 3 6 1 1 2 3 1 2 2 4 2 3h31V42h-28v49l-3 45-2-4-2-3-1-2-2-2-1-2-2-4-1-2-2-2-1-3-4-5-1-2-2-3v-1l-1-1v-1l-3-3v-1l-2-3-1-2-2-3-2-4-1-2-2-2v-1l-1-2-1-1h-1l-2-5-5-8-1-2-2-3-1-2-2-2v-1l-2-3-2-4c0-3-29-5-31-2l-1 148h29zm259-33V94l-11-1h-9v18z"/></svg>