<svg xmlns="http://www.w3.org/2000/svg" xml:space="preserve" viewBox="0 0 135.26 109.76"><g fill="#0a0a91"><path d="M1.35 79.78c.74-1.8 8.28-20.5 16.75-41.53L33.5 0h77.2l4.89 1.67 4.89 1.66 4.57 4.59 4.56 4.58 2.33 4.97 2.33 4.98.5 7.52.49 7.53-1.64 6.94c-2.11 8.99-6.57 17.95-12.04 24.2l-4.36 5-5.92 3.15a66 66 0 0 1-11.8 4.68L93.64 83H37.28L44 66.75l6.72-16.25 18.42-.53 18.4-.53 3.56-1.58a21 21 0 0 0 6.25-4.8l2.7-3.21V34.1l-2.41-2.8-2.41-2.81H51.57l-11.2 27-11.19 27-14.59.28L0 83.05ZM34.57 48l11.35-27.5 25.32-.26 25.3-.27 3.5 1.84 3.5 1.84 2.33 4.42 2.32 4.43-.52 4.7c-.91 8.33-4.66 13.43-12.62 17.16l-4.5 2.1-16.89.52-16.88.52-3.76 8.69c-4.65 10.74-5.97 9.9 15.55 9.77l18.12-.12 7.09-1.35c15.86-3.03 26.41-12.64 31.39-28.61l1.88-6.06v-14.6l-2.8-5.34-2.79-5.35-4.87-3.01-4.88-3.02H38.76L25.94 40.36a2398 2398 0 0 0-13.44 33.8l-.62 1.94 5.67-.3 5.67-.3Z"/><text xml:space="preserve" x="25.44" y="105.27" font-family="Arial" font-size="21.33" style="line-height:2.1;-inkscape-font-specification:Arial;text-align:start" transform="translate(-3.74)"><tspan x="25.44" y="105.27">DigiPower</tspan></text></g></svg>