<svg xmlns="http://www.w3.org/2000/svg" xml:space="preserve" viewBox="0 0 989 218"><path fill="#392980" d="M50 161q-3-2 3-9 27-28 28-63v-9l-1-8q-5-33-26-62l-5-6 1-2V0h99l7 1q31 4 61 24l10 6 11 11c11 11 21 25 27 34l3 6-2 2a188 188 0 0 1-58 60c-9 6-30 14-45 17l-11 2H51zm106-8c38-6 82-37 99-70l2-2-2-3-8-12q-36-48-94-57l-91 1c10 8 24 38 27 57l1 8-1 14v13l-3 10q-8 22-20 38l-4 4h87zm-125 8q0-3 4-8l12-20H12l-1-2-2-1 1-2 2-2h38l2-3c9-18 10-51 3-74l-4-12H12l-1-2-2-1 1-2 1-2h37l-2-3-3-4-6-9-6-9 1-2 2-2h2l3 3c10 11 23 35 26 51 2 9 3 11 3 23l1 12-2 10q-5 29-26 56l-5 6h-2zm424-38q-4 0-9-4l-4-2-3-5-3-6v-9h16v2l1 6 2 3 4 1c10 4 23 1 24-7l1-3-3-3-2-3-12-5-11-5-4-4-4-4-2-6-1-6 2-5 2-5 3-4 4-4 5-2 6-2h19l5 3q12 7 14 17v4l-8 1h-7l-1-4q-2-6-10-7l-4-1h-4l-6 3-4 3v5l4 3 5 4 11 5 10 5 3 3c11 11 6 29-9 37l-5 2-10 1h-11zm170 1c-29-9-20-57 11-61h5l5 1 5 1 5 4 4 4 2 5 2 5v7l-1 8-1 1h-40v2q1 6 6 10l2 2h9l4-4 4-3 7 1q9 0 5 5-3 6-13 10l-5 3h-7zm24-38v-4l-3-4-3-3h-9l-3 2c-3 2-6 9-6 12l-1 1h26zm70 38-8-5-4-4-2-5-3-6V92l2-6 2-6 4-5 4-6 6-3 6-2 5-1h6l4 1q9 2 14 10l3 4v18l-1 3h-40v7l4 4 4 4h3q7 0 11-6l2-2 7 1 7 1c1 1-7 10-12 13l-5 3h-8l-8 1zm25-39-3-6-2-3-3-1-3-1-3 1q-8 2-11 13l-1 2h13l13-1zm36 39-7-5-4-4-2-5-2-5V93l3-7 2-6 3-5 4-5 7-3 6-4h17l5 3 5 3 2 4 3 7v3h-3l-7 1-4 1-1-3-4-5-2-2h-6l-4 2-4 3-2 5q-4 11-3 20v3l3 3 3 2 3-1h4l3-3 4-5 1-2h5l8 1 2 1-2 5q-4 7-13 13l-4 2h-8l-8 1zm66 0q-11-4-15-13l-2-4V89l2-5 2-5 5-6 4-5 6-2 5-3h17l6 3 5 3 3 4 5 9 1 5-1 6v7l-3 5q-5 11-15 17l-5 2zm18-14 3-2 3-6 3-5v-6l1-6-2-3-5-6-3-1h-4l-7 3-3 2-2 6-3 5v7l-1 7 4 4 4 4h8zm-587 10 3-12 12-62 1-4h30l6 1q12 1 17 10l4 4 2 7 2 7-1 7q-1 22-15 36l-5 4-7 3-6 2-22 1h-22zm42-11c10-4 17-18 18-33v-8l-3-4-2-5-4-1-3-2h-18l-2 8-9 44-1 3h11zm39 13 5-25 11-51 1-4h36l5 1q9 2 14 8l2 3v7l1 7-3 6-2 6-4 4-5 5-5 1-4 2h-15l-14 1-3 15-3 15-9 1h-9zm46-44q4-1 7-4l4-3V58l-3-1-3-1h-21l-4 22zm155 46 14-67-12-1h-12l1-2 1-7 1-5h31c36 0 34 0 32 5l-1 6-1 3h-23l-2 8-10 49-2 10-8 1zm109-1 14-67 3-14h15l1 1-1 6-16 74-8 1zm227-1 11-56 8-1h8l-1 3v3h1v-1c0-2 10-6 15-7h4l4 1q6 3 9 8v1l2-2 7-5 5-3h13l3 2c7 6 7 8-2 51l-2 8h-16l1-7c3-12 9-36 8-38q0-4-6-4h-3l-3 2q-9 7-15 43l-1 4h-16l1-2 5-23 4-20-2-2-2-2h-3c-9 0-13 8-19 37l-2 10-1 2h-16z"/><text xml:space="preserve" x="-337" y="619" fill="#d72f19" font-family="Arial" font-size="48" style="line-height:2.1;-inkscape-font-specification:Arial;text-align:start" transform="translate(330 -411)"><tspan x="-337" y="619" font-style="italic" font-weight="400" style="-inkscape-font-specification:&quot;Arial Italic&quot;">&quot;Your Partners in Network Alarm Monitoring&quot;</tspan></text><path fill="#df3a2e" d="M143 110V56h33l2 1v14l-1 15-1 1h-21v23zm32-28V72l1-9-2-2-1-2h-17l-1 12v12h19zm11 28h-2V91h15v17h7l8-1h1V86l-1-1h-15l-14-1V56h32l2 1v13h-4V60l-1-1h-25v22h27l1 1 2 2v13l-1 12-1 1zm-87-2V55h32l1 1 1 1v51h-1l-17 1H99zm30-4V59h-9l-9-1v24l1 24h16z"/></svg>