<svg xmlns="http://www.w3.org/2000/svg" xml:space="preserve" viewBox="0 0 1094 528.7"><path d="M368 528.4c-23.7-2.4-38.7-13.2-39-28 0-.3 7-.5 15.4-.5h15.4l1.4 2.8 1.5 2.8 1.8 1.3c3 2 6.5 3 12 3.7l5.2.6 5.3-.3c17.3-1 24-8.4 24-26.8v-5l-3.3 2.6a41 41 0 0 1-18.5 8.7l-3.5.7-7.5.3-7.5.3-4.3-.6c-6.8-1-11.7-2.4-17.7-5.3l-5.5-2.7-2.8-2.5q-12-10.4-14.4-25.8l-.6-3.8.2-6.1.3-6.1 1.3-4.4q7.6-25.4 38.3-30.1l4.7-.8h14.1l4.3.8c5 .8 8.6 2 13.2 4.3l3.3 1.7 3.5 3.2 3.4 3.1v-11.1h28l-.1 44.9-.2 44.9-1.1 4.2c-4.3 16.2-15.5 24.9-36.6 28.3l-4.8.8-12.5.2c-6.8 0-14.4 0-16.7-.3m24.8-57.2c24.4-5.2 25-40.1.8-46.3l-3.8-1h-13l-3.4.8c-9 1.9-15 7.3-17.1 15.5l-.8 3v9l.8 3.2c2 8.2 7.1 13.1 16.4 15.5l3.6 1h13zm-154.5 25c-13.5-2.5-21.4-8.2-24.9-18.2l-1-2.8-.2-4.5-.3-4.5.5-3c.3-1.7 1.4-4.6 2.4-6.6l1.7-3.6 2.6-2.3c7.5-6.8 14.4-8.4 45.5-10.5 22.4-1.6 23.9-1.9 25.7-5.3l.7-1.5v-2.7c.1-3.5-.3-4.7-2.2-6.6l-1.5-1.7-2.6-1c-1.4-.5-4.6-1.2-7-1.5l-4.4-.6-7.5.3-7.6.2-2.9 1.1-3 1.2-1.8 1.8c-1 1-2.6 3.4-3.5 5.2l-1.6 3.3h-28l.3-.8.8-3.7c.3-1.5 1.4-4.4 2.3-6.4l1.8-3.6 3.1-3.4 3.2-3.3 3.2-1.9a58 58 0 0 1 17-5.7l4.7-.9h30.5l5.5 1a60 60 0 0 1 17 5.1l3.4 1.8 3 3c3.2 3.2 4.8 6 6.2 10.5l.7 2.6.4 29.5.3 29.5.9 2.9a30 30 0 0 0 1.8 5c0 .2-6.5.3-14.5.3h-14.5l-.5-2-1-4.2c-.5-3-.4-3-3.5-.7a56 56 0 0 1-25 9.2l-5.4.7h-16.8zm31.3-17a31 31 0 0 0 17.9-9l2.4-2.8 1-2.7 1-2.8.4-5.5c.4-5.6.3-5.8-1.3-5-.6.3-2.7 1-4.8 1.5l-3.8 1-13.8 1.3c-14.9 1.4-18.8 2.1-21.7 4l-1.8 1.2-1 2.2-1.1 2.2v5.4l1 2c2.8 6.4 13.6 9.3 25.6 7m223.9 17.4a74 74 0 0 1-26-7.8l-3.8-2.1-4.5-4.5-4.5-4.5-2.3-4.5a45 45 0 0 1-5-17.7l-.6-5.7.6-5.8c.8-7.6 1.6-10.7 4.6-16.8l2.4-5 3.4-3.7 3.3-3.6 4.2-2.7c6.4-4.3 13.7-7 24.2-8.8l3.8-.7h25l5.5 1.1c25 5 37.5 17.9 39.8 40.5l.5 5.7-.6 5.5c-3.1 30-29.2 45.4-70 41m21.3-21a41 41 0 0 0 6.1-2.2l3.2-1.6 2.7-2.6 2.6-2.7 1.5-3.2c.8-1.7 1.8-4.4 2.1-5.9l.7-2.7v-11l-1.3-3.8c-.7-2.1-2-5-3.1-6.6l-1.9-2.8-3-2.3a26 26 0 0 0-11.3-4.8l-3.1-.6-6.6.3-6.6.2-3.2 1.1c-8 2.9-12.9 8-15.4 16.3l-1 3v12l1 3c1.3 4.2 2.9 7.2 5.5 10l2.3 2.6 3.4 1.8c7 3.6 16.6 4.6 25.4 2.5m338 20c-4.6-.7-7.8-1.9-11.9-4l-3.3-1.8-2.8-2.9-2.8-3-1.6-3.3-1.6-3.4v-12.5l.9-2.6c4-11.5 15.5-16.5 41.5-18.2 22.2-1.4 27-2.5 29-6.8l1-1.8-.3-3.8c-.6-8.9-5-13-16-14.8l-4.6-.9-9.5.3-9.5.2-3.8 1.1Q845 421 843.7 432l-.3 2.5H832l.3-1.6q1.1-6.4 3.4-11.2l1.7-3.5 2.8-2.8 2.7-2.8 4.2-2a49 49 0 0 1 19-4.6l7-.6 7.5.6 7.4.6 4.8 1.2c9.9 2.5 15.7 7.2 18.3 14.9l.6 1.6.3 28 .3 28 .8 1.8q1 1.7 2.3 2.5l1.3.7h4.4l4.4-.1v8.2l-3.8.6q-7.5 1.1-12-.2l-2.5-.7-1.5-1.7c-2.2-2.3-2.7-3.5-3.4-8l-.5-4-2.4 3c-8.4 10.9-28.8 16.7-46.6 13.4m17.7-8.7a42 42 0 0 0 14.9-4.3l4.6-2.2 3.4-3.2a21 21 0 0 0 6.8-11l.8-3V448l-.9.4c-6.3 2.6-9.7 3.3-27.4 5-18.3 1.8-22.4 2.7-27 6.2l-2.4 1.8-1.3 2.3-1.2 2.2v9l1 2.2c3.6 7.9 14.8 11.7 28.7 10m165 8.8a44 44 0 0 1-20.2-8.4l-3.4-2.5-3-3.7a46 46 0 0 1-9.4-24.2l-.6-4.7.3-4.5c1.8-24.5 16.4-39.3 41.1-41.8l5.7-.6 5.9.6a45 45 0 0 1 30.7 13.5l3.2 3.4 2.3 4.4c3.6 7 5.9 16.1 5.9 23.9v2.8h-82.5v2.7q0 5.5 3.5 12.6l2 4 3 3.1a34 34 0 0 0 20.5 9.6l4.2.6 5-.3c9.6-.6 16-2.6 21.3-6.5l2.5-1.8 2.4-3.6c1.3-2 2.7-4.6 3-5.7l.8-2.2h12.3l-1 2.6q-9.1 22.7-35 26.7l-4.8.7h-6c-3.3 0-7.7-.4-9.7-.7m46.1-51a34 34 0 0 0-3.6-11.6l-2-4.1-3.2-3.2-3.1-3.2-3.4-2c-1.9-1-5.1-2.4-7.2-3l-3.9-1.4h-16.5l-3.7 1.2c-2 .6-5.3 2-7.3 3l-3.5 1.7-3.8 3.9-4 3.8-1.8 4.2a27 27 0 0 0-3.1 10v1h35c19.1 0 35-.2 35.1-.4M0 435.1v-58.8h81.1l5.3.8c7 1 14.8 3.6 20 6.6l4.3 2.4 4 3.7a52 52 0 0 1 15.5 32.2l.8 5.2v15.3l-.8 5.2c-4 27-19.8 42.7-45.9 45.6l-4.8.5H0zm78 35c11.2-3.6 17-11 19.3-24.7l.8-5-.2-8.5-.3-8.3-1-3.8c-.7-2-2-5.2-3-7l-1.7-3.4-3-2.8L86 404l-3.6-1.7c-2-1-5.2-2.1-7.2-2.6l-3.5-.8-19.8-.2-19.9-.3v73.2l21.6-.2 21.7-.2zm60.5-20.5v-44.3l13.9.2h13.9v8.7l.2 8.7 3.6-4.3c6-7.2 11.9-11.4 19.2-13.8l3.5-1 7-.3c4-.2 8.4-.1 10 0l2.7.4v13.5c0 7.4-.1 13.4-.3 13.4l-5.4-1-5-1.1h-12l-4 1.1a23 23 0 0 0-17 14.8l-1 3-.3 23-.2 23-14.4.1-14.4.2zm431 0v-44.3h28v13.1l3.7-3.5 3.8-3.5 4.4-2.2q8-4.1 16.6-5.4l4.1-.6 6.8.3 6.9.3 4 1c2.2.6 5.8 2 8 3l4.1 2 2.9 2.6c3.6 3.3 5.8 6.7 7.6 11.8l1.3 3.9.2 32.9.1 32.8h-29l-.1-27.8-.2-28-1-2.7-1.2-2.9-2.3-2a17 17 0 0 0-10.7-4.5l-4-.5-3.8.5c-5 .5-8 1.6-11.7 4l-3 2-2 3a24 24 0 0 0-4 11.2l-.5 3.5v44.2h-29zm113.9-14c-10.7-32-19.4-58.4-19.4-58.7v-.6h13.3l16.1 50c8.9 27.5 16.1 50.2 16.1 50.5 0 2.2 1.5-1.2 5.2-12l17.3-50.5 12.9-37.7h15.3l17.3 50.4c9.5 27.7 17.4 50.3 17.5 50.3s13-38.8 29.6-90.3l3.4-10.7h6.5c3.6 0 6.5.2 6.5.4l-19.6 58.8-19.6 58.3h-14.2l-1-2.8c-5-14.7-34.3-97-34.5-97.3s-8.2 22.3-17.8 50l-17.5 50.1h-14zm268.1 54.1L913.6 409l-.2-.6 6.6.1 6.6.2 16.6 35.4c9 19.4 16.7 35.3 16.8 35.3s7.7-15.9 16.8-35.3l16.6-35.4 6.6-.2c3.6 0 6.5 0 6.5.3l-20 42.6-19.8 42.3-6.6.1-6.7.2z"/><path fill="#bc4146" d="M311 318.7c249-56.7 249.7-258.6 1.3-316L302.8.3l9.5.3c141.2 3.7 248.5 63 261.5 144.5l.9 5.5v17.5l-.6 4.5C562.1 257.2 457.6 315 306 321.2l-6.7.2zm75.4-2.1q.6-.2 1 0 .1.3-.7.3h-1zm3.7-.5h1.5q.5.2-.8.2h-1.5zm9.2-1.2c301.5-48 307.3-259 8.5-307.2Q388 4.5 412 7.5C567.2 26.7 667 83.9 671.8 156l.3 5.2-.5 5.1c-7.7 72.3-108.7 129-264.1 148.1-13.7 1.7-17.3 2-8.2.5m55.2-3.7q0-.3.3-.3l.2.3-.2.2zm3.7-.6q.4-.3.6 0t-.3.3-.3-.3m3.2-.5q.6-.2 1 0 .1.3-.7.3h-1zm3-.5h1.2q.4.2-.6.3-1.1 0-.6-.3m3.2-.5h1.5q.5.2-.8.2h-1.5zm3-.5h1.5q.5.2-.8.2h-1.5zm3.4-.5c134.3-23.8 221.5-73.7 234.6-134.3l1-5.1v-18l-1-4.9c-13.2-59.7-95-107-227.1-131.4q-18.7-3.5 1.1-.4c142.4 22.4 234 70 249.7 130.2l1.3 5 .3 8 .2 8.1-.8 5.2c-9 53.8-84.3 101.3-202 127.4a802 802 0 0 1-57.4 10.5l-1.1-.1zm-4.9-296h1.5q.5.2-.8.2h-1.5zm-3.2-.5h1.2q.4.2-.6.3-1.1 0-.6-.3m-3-.5q.6-.2 1 0 .1.3-.7.3h-1zm-3.7-.5q.4-.3.6 0t-.3.3-.3-.3m-64.6-5h1.8q.6.2-.9.2-1.6 0-.9-.2m-4-.5h1.5q.5.2-.8.2h-1.5zm-4.2-.5q.6-.2 1 0 .1.3-.7.3h-1zM301 0h1.2q.4.2-.6.3-1.1 0-.6-.3"/></svg>