<svg xmlns="http://www.w3.org/2000/svg" viewBox="-.3 -.3 221.1 51.4"><path fill="#f15a29" d="M25.3 25.7a.4.4 0 0 1 0-.7h17.9a.4.4 0 0 1 0 .7z"/><circle cx="47.9" cy="25.4" r="3" fill="#f15a29"/><path fill="#3b6e8f" d="m100.3 26.7 2 4.5 3.1 6.9 1.7 3.6q.5 1 .1 2a3 3 0 0 1-2.6 1.8q-.8 0-1.4-.4a3 3 0 0 1-1-1.2l-.7-1.6-1.3-2.8-1.5-3.5-1.6-3.4L96 30l-.6-1.3-1-.7h-1.1l-.8.7-.2 1v13.1q0 1.1-.8 2-.8.6-1.9.7t-1.9-.7-.8-2V8.1q0-1.2.8-2 .8-.6 2-.7 1 0 1.8.8t.8 1.9v13.2q0 .5.2.9t.8.6 1.2.1q.4-.1.9-.7L96 21l2.8-6.1 1.5-3.5 2-4.3q.3-.9 1-1.3l1.4-.4q.7 0 1.2.2a2.7 2.7 0 0 1 1.3 3.7l-1.7 3.6-1.5 3.4-1.6 3.5-1.3 2.9-1.4 2.8.4.5zm16.8 18q-.7.8-1.9.8c-1.2 0-1.3-.3-1.8-.8q-.8-.8-.8-2V8.2q0-1.1.8-1.9.7-.8 1.8-.8c1.1 0 1.4.3 2 .8q.7.8.7 1.9v34.7q0 1-.8 2m25.6-33q1 2.2 1 4.2v27q0 1-.9 1.8-.7.8-1.9.8-1 0-1.9-.8-.8-.7-.8-1.9V16q0-1.6-.9-2.8a5 5 0 0 0-2.2-1.8q-1-.5-2-.5-1.5 0-3 1-1.2.7-1.8 2.2l-.3 1-.1 1v27q0 1-.8 1.8t-2 .8q-1 0-1.8-.8-.8-.7-.8-1.9V16q0-1.5.4-3a10 10 0 0 1 1.4-2.8q1.7-2.7 4.6-3.8a11 11 0 0 1 4.1-.8q3.3 0 6 1.8 2.6 1.7 3.7 4.6m11 32-2.2-2.1a10 10 0 0 1-1.6-2.6 11 11 0 0 1-.8-4.1v-19a11 11 0 0 1 6.5-9.7 11 11 0 0 1 4-.8q3.4 0 6 1.8 2.6 1.7 3.8 4.6.8 2 .8 4v19q0 3.3-1.8 6l-2 2.2a10 10 0 0 1-2.6 1.6 11 11 0 0 1-4.1.9q-3.2 0-6-1.9m.8-8.8q0 1.5.9 2.9a5 5 0 0 0 2.2 1.8l2 .4q1.7 0 3-.8a5 5 0 0 0 1.8-2.3l.4-2v-19q0-1.6-.9-2.9a5 5 0 0 0-2.2-1.8q-1-.5-2-.5-1.5 0-3 1-1.2.7-1.8 2.2l-.3 1zm26.7 7.9q0 1-.8 2-.8.6-1.9.7t-1.9-.8q-.8-.8-.8-2V8.2q0-1.2.8-2 .7-.7 1.9-.7h6.1a12.7 12.7 0 1 1 0 25.4h-2.4l-.7.2q-.3.3-.3.7zm0-18.4q0 .4.3.7l.7.3h2.4q2.3 0 4.1-1.3a7 7 0 0 0 2.7-3.2 7 7 0 0 0 .5-2.8 7 7 0 0 0-1.2-4 7 7 0 0 0-3.2-2.7 7 7 0 0 0-2.9-.6h-2.4l-.7.3-.3.7zm27.5-12.8a4 4 0 0 0-1.6 1.8l-.3 1.7q0 .9.4 1.8.3 1 1.1 2 .7 1 1.8 2l2.7 2.5 1.6 1.3 1.7 1.6a20 20 0 0 1 4 5.7q.6 2 .7 3.9 0 2.9-1.7 5.3t-4.2 3.5q-1.9.9-3.8.8-3 0-5.4-1.7a10 10 0 0 1-3.5-4.2 10 10 0 0 1-.7-3.7q0-1.1.8-2t1.9-.8 1.9.8q.8.9.8 2t.7 2.3q.8 1 1.8 1.6l1.7.3a4 4 0 0 0 2.4-.7q1-.8 1.5-1.9a5 5 0 0 0 0-3.5q-.3-1-1.1-2l-1.8-2q-1-1.1-2.8-2.5l-2-1.9-2-2a15 15 0 0 1-3.1-4.7q-.8-2-.8-3.8 0-1.5.4-2.9t1.2-2.6a10 10 0 0 1 8-4.2q3 0 5.5 1.7 2.3 1.5 3.5 4.2a10 10 0 0 1 .7 3.8q0 1-.8 1.8a3 3 0 0 1-2 .8q-1 0-1.8-.8-.8-.7-.8-1.8 0-1.3-.7-2.5a5 5 0 0 0-2-1.5L211 11a4 4 0 0 0-2.3.8M82 33.9q0-1-.8-2-.8-.7-2-.7-1 0-1.8.8t-.8 1.9v1q0 1-.4 2a5 5 0 0 1-1.9 2.3 5 5 0 0 1-2.9.8l-2-.4a5 5 0 0 1-2.3-1.8 5 5 0 0 1-.8-3v-8h14.4s1.2 0 1.3-1.3V16q0-2-.9-4.1-1.1-3-3.8-4.6A10.6 10.6 0 0 0 62.6 10a10 10 0 0 0-1.3 2.8 10 10 0 0 0-.5 3v19a11 11 0 0 0 2.5 6.8l2.2 2a10.5 10.5 0 0 0 12.6-.6l2-2.2q2-2.7 1.9-6zm-15.7-18v-1l.4-1q.6-1.4 1.8-2.3 1.5-.9 3-.9.8 0 2 .5a5 5 0 0 1 2.2 1.8q.9 1.2.9 2.9v5.6H66.3zm-27.9 22L27 26.4l6.4 2.6a.4.4 0 0 0 .3-.6l-7.3-3 7.3-3a.4.4 0 0 0 .2-.5.4.4 0 0 0-.5-.2L27 24.3 38.5 13a.4.4 0 0 0-.5-.5L26.4 23.9l2.7-6.5a.4.4 0 1 0-.7-.3l-2.6 6.4V7.3a.4.4 0 1 0-.8 0v16l-2.5-6.2a.4.4 0 0 0-.5-.2.4.4 0 0 0-.2.5l2.7 6.5-11.6-11.6a.4.4 0 1 0-.5.5l11.5 11.6-6.4-2.7a.4.4 0 1 0-.3.7l6.3 2.6H7.4a.4.4 0 0 0 0 .7h16.3l-6.5 2.7a.4.4 0 0 0 .2.7h.1l6.4-2.6c-4.2 4-8.6 8.5-11.5 11.4a.4.4 0 1 0 .5.5L24.4 27l-2.6 6.3a.4.4 0 0 0 .3.5l.4-.2 2.5-6.3v16.1a.4.4 0 1 0 .8 0V27.2l2.9 6.6a.4.4 0 0 0 .3-.5s-1-2.9-2.5-6.3l11.4 11.5.2.1h.3a.4.4 0 0 0 0-.6"/><circle cx="9.4" cy="41.4" r="3" fill="#3b6e8f"/><circle cx="13.1" cy="30.6" r="3" fill="#3b6e8f"/><circle cx="41.6" cy="9.4" r="3" fill="#3b6e8f"/><circle cx="37.8" cy="20.2" r="3" fill="#3b6e8f"/><circle cx="41.5" cy="41.5" r="3" fill="#3b6e8f"/><circle cx="30.6" cy="37.7" r="3" fill="#3b6e8f"/><circle cx="9.4" cy="9.3" r="3" fill="#3b6e8f"/><circle cx="20.3" cy="13.1" r="3" fill="#3b6e8f"/><circle cx="25.4" cy="48.1" r="3" fill="#3b6e8f"/><circle cx="20.4" cy="37.8" r="3" fill="#3b6e8f"/><circle cx="25.5" cy="2.7" r="3" fill="#3b6e8f"/><circle cx="30.5" cy="13" r="3" fill="#3b6e8f"/><circle cx="37.8" cy="30.5" r="3" fill="#3b6e8f"/><circle cx="2.6" cy="25.4" r="3" fill="#3b6e8f"/><circle cx="13.1" cy="20.3" r="3" fill="#3b6e8f"/></svg>