<?xml version="1.0" encoding="utf-8"?>
<!-- Generator: Adobe Illustrator 15.1.0, SVG Export Plug-In  -->
<!DOCTYPE svg [
	<!ENTITY ns_flows "http://ns.adobe.com/Flows/1.0/">
]>
<svg version="1.2" baseProfile="tiny"
	 xmlns="http://www.w3.org/2000/svg" xmlns:xlink="http://www.w3.org/1999/xlink" xmlns:a="http://ns.adobe.com/AdobeSVGViewerExtensions/3.0/"
	 x="0px" y="0px" width="232px" height="52px" viewBox="-0.3334961 -0.3076172 232 52" xml:space="preserve">
<defs>
</defs>
<path fill="#F15A29" d="M25.6503906,26.046875c-0.2026367,0-0.3676758-0.1650391-0.3676758-0.3676758l0,0
	c0-0.2041016,0.1650391-0.3691406,0.3676758-0.3691406l0,0h17.8623047c0.203125,0,0.3676758,0.1650391,0.3676758,0.3691406l0,0
	c0,0.2026367-0.1645508,0.3676758-0.3676758,0.3676758l0,0H25.6503906L25.6503906,26.046875z"/>
<circle fill="#F15A29" cx="48.1884766" cy="25.708252" r="2.9743652"/>
<path fill="#3B6E8F" d="M100.6308594,26.9755859c0.109375,0.21875,0.3466797,0.7480469,0.7119141,1.5878906
	c0.3637695,0.8417969,0.8022461,1.8066406,1.3139648,2.9023438c0.5102539,1.0957031,1.0410156,2.265625,1.5883789,3.5058594
	c0.546875,1.2402344,1.0585938,2.3730469,1.5327148,3.3945313c0.4746094,1.0234375,1.0224609,2.2265625,1.6435547,3.6152344
	c0.3276367,0.6933594,0.3637695,1.3867188,0.109375,2.0800781c-0.2563477,0.6933594-0.7304688,1.2050781-1.4238281,1.5332031
	c-0.3291016,0.1464844-0.7128906,0.2207031-1.1499023,0.2207031c-0.5117188,0-0.9946289-0.1367188-1.4506836-0.4121094
	c-0.4575195-0.2734375-0.7949219-0.6640625-1.0136719-1.1757813v-0.0566406
	c-0.109375-0.2167969-0.3374023-0.7285156-0.6845703-1.5332031c-0.3476563-0.8027344-0.7661133-1.7519531-1.2592773-2.8476563
	s-1.0136719-2.2460938-1.5610352-3.4492188c-0.5483398-1.2070313-1.0600586-2.3378906-1.5341797-3.3964844
	c-0.4746094-1.0566406-0.8842773-1.953125-1.2324219-2.6835938c-0.3461914-0.7304688-0.5566406-1.1503906-0.628418-1.2597656
	c-0.2197266-0.3261719-0.5200195-0.5566406-0.9042969-0.6835938c-0.3837891-0.1289063-0.7763672-0.1015625-1.1772461,0.0820313
	c-0.3291016,0.1464844-0.5751953,0.3652344-0.7387695,0.65625c-0.1660156,0.2949219-0.2480469,0.5859375-0.2480469,0.8769531
	v13.1972656c0,0.7324219-0.2641602,1.3613281-0.793457,1.8886719c-0.5288086,0.53125-1.1586914,0.796875-1.8891602,0.796875
	c-0.6943359,0-1.315918-0.2382813-1.8618164-0.7128906c-0.5854492-0.5117188-0.8769531-1.1679688-0.8769531-1.9726563V8.4106445
	c0-0.8022461,0.2915039-1.4599609,0.8769531-1.9711914c0.5458984-0.4755859,1.1674805-0.7124023,1.8618164-0.7124023
	c0.7304688,0,1.3603516,0.2651367,1.8891602,0.793457c0.5292969,0.5297852,0.793457,1.1601563,0.793457,1.8901367v13.1972656
	c0,0.2929688,0.0820313,0.5849609,0.2480469,0.8769531c0.1635742,0.2924805,0.409668,0.5117188,0.7387695,0.6572266
	c0.4008789,0.1826172,0.793457,0.2109375,1.1772461,0.0825195c0.3842773-0.1274414,0.6845703-0.3554688,0.9042969-0.6850586
	c0.0717773-0.109375,0.2822266-0.5288086,0.628418-1.2587891c0.3481445-0.7304688,0.7578125-1.6254883,1.2324219-2.6845703
	c0.4741211-1.0581055,0.9858398-2.1904297,1.5341797-3.3950195c0.5473633-1.2050781,1.0678711-2.3554688,1.5610352-3.4506836
	s0.9116211-2.0444336,1.2592773-2.847168c0.347168-0.8017578,0.5751953-1.3149414,0.6845703-1.5336914V7.3154297
	c0.21875-0.5107422,0.5561523-0.9033203,1.0136719-1.1777344c0.4560547-0.2734375,0.9389648-0.4106445,1.4506836-0.4106445
	c0.4370117,0,0.8208008,0.0722656,1.1499023,0.2192383c0.6933594,0.3276367,1.1674805,0.8398438,1.4238281,1.5327148
	c0.2543945,0.6943359,0.2182617,1.3891602-0.109375,2.0820313c-0.6210938,1.387207-1.1689453,2.5917969-1.6435547,3.6137695
	c-0.4741211,1.0229492-0.9858398,2.1552734-1.5327148,3.3955078c-0.5473633,1.2412109-1.078125,2.409668-1.5883789,3.5048828
	c-0.5117188,1.0957031-0.9501953,2.0634766-1.3139648,2.902832c-0.3652344,0.8393555-0.6025391,1.3686523-0.7119141,1.5869141
	c-0.0732422,0.2207031-0.1738281,0.4301758-0.3022461,0.6318359c-0.1274414,0.2006836-0.2641602,0.3925781-0.4111328,0.5732422
	c0.1469727,0.1835938,0.2836914,0.3769531,0.4111328,0.5761719
	C100.4570313,26.5473633,100.5576172,26.7568359,100.6308594,26.9755859z"/>
<path fill="#3B6E8F" d="M117.4692383,45.0185547c-0.5283203,0.53125-1.1582031,0.796875-1.8881836,0.796875
	c-0.7304688,0-1.3603516-0.265625-1.8896484-0.796875c-0.5292969-0.5273438-0.793457-1.1757813-0.793457-1.9433594V8.4106445
	c0-0.7299805,0.2641602-1.3603516,0.793457-1.8901367c0.5292969-0.5283203,1.1591797-0.793457,1.8896484-0.793457
	c0.7299805,0,1.3598633,0.2651367,1.8881836,0.793457c0.53125,0.5297852,0.796875,1.1601563,0.796875,1.8901367v34.6645508
	C118.2661133,43.8427734,118.0004883,44.4912109,117.4692383,45.0185547z"/>
<path fill="#3B6E8F" d="M143.0727539,12.0795898c0.5839844,1.3876953,0.8769531,2.7573242,0.8769531,4.1079102v26.9423828
	c0,0.7324219-0.265625,1.3613281-0.7929688,1.8886719c-0.53125,0.53125-1.1601563,0.796875-1.890625,0.796875
	s-1.3710938-0.265625-1.9160156-0.796875c-0.5488281-0.5273438-0.8222656-1.15625-0.8222656-1.8886719V16.1875
	c0-1.0952148-0.2929688-2.0449219-0.8769531-2.8481445c-0.546875-0.8398438-1.2949219-1.4604492-2.2441406-1.8618164
	c-0.6953125-0.2919922-1.3710938-0.4384766-2.0273438-0.4384766c-0.9863281,0-1.953125,0.2929688-2.9023438,0.8759766
	c-0.8398438,0.546875-1.4609375,1.3149414-1.8613281,2.2998047c-0.1464844,0.293457-0.2480469,0.6123047-0.3027344,0.9589844
	c-0.0546875,0.3481445-0.0820313,0.6850586-0.0820313,1.0136719v26.9423828c0,0.7324219-0.265625,1.3613281-0.7929688,1.8886719
	c-0.53125,0.53125-1.1777344,0.796875-1.9453125,0.796875c-0.7304688,0-1.359375-0.265625-1.8886719-0.796875
	c-0.5292969-0.5273438-0.7949219-1.15625-0.7949219-1.8886719V16.1875c0-1.059082,0.15625-2.0898438,0.4667969-3.09375
	c0.3085938-1.0039063,0.7578125-1.9267578,1.3417969-2.7666016c1.1660156-1.7885742,2.71875-3.0664063,4.6542969-3.8339844
	c1.3144531-0.546875,2.6835938-0.8212891,4.1074219-0.8212891c2.1914063,0,4.1621094,0.6020508,5.9140625,1.8071289
	C141.0473633,8.6489258,142.3051758,10.1811523,143.0727539,12.0795898z"/>
<path fill="#3B6E8F" d="M154.0805664,43.9541016c-0.8398438-0.5859375-1.5878906-1.2695313-2.2460938-2.0546875
	s-1.1855469-1.6523438-1.5878906-2.6015625c-0.546875-1.3144531-0.8222656-2.6835938-0.8222656-4.109375V16.1875
	c0-1.059082,0.15625-2.0898438,0.4648438-3.09375c0.3125-1.0039063,0.7597656-1.9267578,1.34375-2.7666016
	c1.1679688-1.7885742,2.71875-3.0664063,4.6542969-3.8339844c1.3144531-0.546875,2.6835938-0.8212891,4.1074219-0.8212891
	c2.1914063,0,4.1621094,0.6020508,5.9160156,1.8071289c1.7519531,1.1699219,3.0117188,2.7021484,3.7773438,4.6005859
	c0.5839844,1.3876953,0.875,2.7573242,0.875,4.1079102v19.0009766c0,2.1210938-0.5996094,4.0917969-1.8046875,5.9160156
	c-0.5859375,0.8417969-1.2695313,1.5878906-2.0546875,2.2460938s-1.6523438,1.1855469-2.5996094,1.5878906
	c-1.3164063,0.546875-2.6855469,0.8222656-4.109375,0.8222656
	C157.8774414,45.7607422,155.9047852,45.1572266,154.0805664,43.9541016z M154.8481445,35.1884766
	c0,1.0976563,0.2890625,2.0644531,0.875,2.9042969c0.5488281,0.8417969,1.2949219,1.4609375,2.2441406,1.8613281
	c0.6210938,0.2558594,1.296875,0.3828125,2.0273438,0.3828125c1.0957031,0,2.0625-0.2910156,2.9023438-0.875
	c0.8398438-0.5488281,1.4609375-1.2949219,1.8632813-2.2441406c0.2539063-0.6210938,0.3828125-1.2988281,0.3828125-2.0292969
	V16.1875c0-1.0952148-0.2929688-2.0449219-0.8769531-2.8481445c-0.546875-0.8398438-1.296875-1.4604492-2.2441406-1.8618164
	c-0.6933594-0.2919922-1.3691406-0.4384766-2.0273438-0.4384766c-0.9863281,0-1.953125,0.2929688-2.9023438,0.8759766
	c-0.8398438,0.546875-1.4609375,1.3149414-1.8632813,2.2998047c-0.1445313,0.293457-0.2441406,0.6123047-0.2988281,0.9589844
	c-0.0566406,0.3481445-0.0820313,0.6850586-0.0820313,1.0136719V35.1884766z"/>
<path fill="#3B6E8F" d="M181.5180664,43.0751953c0,0.7675781-0.265625,1.4160156-0.7949219,1.9433594
	c-0.5292969,0.53125-1.1582031,0.796875-1.8886719,0.796875s-1.3613281-0.265625-1.890625-0.796875
	c-0.5273438-0.5273438-0.7929688-1.1757813-0.7929688-1.9433594V8.4106445c0-0.7661133,0.2539063-1.40625,0.7675781-1.9174805
	c0.5117188-0.5102539,1.1484375-0.7661133,1.9160156-0.7661133h6.1328125c2.5917969,0,4.9648438,0.7124023,7.1210938,2.1357422
	c2.0429688,1.3876953,3.578125,3.25,4.5996094,5.5859375c0.65625,1.6074219,0.984375,3.2509766,0.984375,4.9282227
	c0,2.5566406-0.7304688,4.9291992-2.1894531,7.1201172c-1.4238281,2.0800781-3.2851563,3.5957031-5.5859375,4.5449219
	c-1.4980469,0.6933594-3.140625,1.0410156-4.9296875,1.0410156h-2.4648438c-0.2558594,0-0.4726563,0.0917969-0.65625,0.2734375
	c-0.21875,0.1835938-0.328125,0.4023438-0.328125,0.6582031V43.0751953z M181.5180664,24.7299805
	c0,0.2558594,0.0898438,0.4755859,0.2734375,0.6577148c0.1835938,0.1826172,0.4179688,0.2749023,0.7109375,0.2749023h2.4648438
	c1.4589844,0,2.8300781-0.4208984,4.1074219-1.2612305c1.2050781-0.8022461,2.0820313-1.8618164,2.6308594-3.1757813
	c0.3632813-0.8398438,0.5449219-1.7885742,0.5449219-2.8486328c0-1.4589844-0.4199219-2.8100586-1.2597656-4.0512695
	c-0.765625-1.1689453-1.8261719-2.0444336-3.1738281-2.6298828c-0.9140625-0.4013672-1.8632813-0.6020508-2.8496094-0.6020508
	h-2.4648438c-0.2929688,0-0.5273438,0.0917969-0.7109375,0.2744141s-0.2734375,0.4199219-0.2734375,0.7114258V24.7299805z"/>
<path fill="#3B6E8F" d="M209.0102539,11.8613281c-0.6953125,0.4746094-1.2050781,1.0942383-1.5332031,1.8603516
	c-0.21875,0.5131836-0.3300781,1.0610352-0.3300781,1.644043c0,0.6577148,0.1289063,1.2587891,0.3847656,1.8066406
	c0.21875,0.621582,0.6015625,1.296875,1.1484375,2.0273438c0.4394531,0.6201172,1.0234375,1.2866211,1.7519531,1.9985352
	c0.7304688,0.7114258,1.6445313,1.543457,2.7402344,2.4916992c0.4726563,0.4023438,0.9921875,0.8476563,1.5605469,1.3413086
	c0.5644531,0.4931641,1.1230469,1.0327148,1.6699219,1.6166992c0.5839844,0.5834961,1.0859375,1.1401367,1.5078125,1.6694336
	c0.4179688,0.5292969,0.8105469,1.0488281,1.1777344,1.5605469c0.5820313,0.8769531,1.0019531,1.6972656,1.2578125,2.4648438
	c0.5117188,1.3144531,0.7675781,2.5917969,0.7675781,3.8339844c0,1.9355469-0.5683594,3.7226563-1.6992188,5.3671875
	c-1.0585938,1.53125-2.4648438,2.7011719-4.2167969,3.5039063c-1.2402344,0.5117188-2.4824219,0.7675781-3.7226563,0.7675781
	c-1.9726563,0-3.7792969-0.5683594-5.4238281-1.6992188c-1.5683594-1.0585938-2.7363281-2.4628906-3.5039063-4.2167969
	c-0.4746094-1.1660156-0.7128906-2.4101563-0.7128906-3.7226563c0-0.7675781,0.265625-1.4160156,0.7949219-1.9433594
	c0.5292969-0.53125,1.1582031-0.796875,1.8886719-0.796875s1.359375,0.265625,1.8886719,0.796875
	c0.5292969,0.5273438,0.796875,1.1757813,0.796875,1.9433594c0,0.8027344,0.2363281,1.5878906,0.7109375,2.3535156
	c0.5097656,0.6953125,1.1308594,1.2070313,1.8613281,1.5332031c0.546875,0.2207031,1.1132813,0.3300781,1.6992188,0.3300781
	c0.875,0,1.6601563-0.2382813,2.3535156-0.7109375c0.6933594-0.5136719,1.2050781-1.1328125,1.5332031-1.8632813
	c0.2207031-0.546875,0.3300781-1.1152344,0.3300781-1.6972656c0-0.6582031-0.1308594-1.2597656-0.3847656-1.8085938
	c-0.21875-0.6210938-0.5839844-1.2773438-1.09375-1.9707031c-0.4765625-0.6210938-1.0683594-1.2949219-1.78125-2.0273438
	c-0.7109375-0.7285156-1.6328125-1.5703125-2.765625-2.5175781c-0.6933594-0.6210938-1.3964844-1.2504883-2.1074219-1.8891602
	c-0.7128906-0.6386719-1.3808594-1.3232422-2-2.0551758c-1.4238281-1.5327148-2.4453125-3.0844727-3.0664063-4.6538086
	c-0.5117188-1.315918-0.7675781-2.5932617-0.7675781-3.8339844c0-0.9863281,0.1464844-1.9360352,0.4375-2.8476563
	c0.2929688-0.9121094,0.6953125-1.7709961,1.2070313-2.5742188c1.1679688-1.6064453,2.5898438-2.7563477,4.2695313-3.4506836
	c1.1328125-0.5102539,2.375-0.7661133,3.7265625-0.7661133c2.0058594,0,3.8144531,0.546875,5.4199219,1.6425781
	c1.5332031,1.059082,2.7011719,2.4643555,3.5058594,4.2172852c0.4726563,1.1689453,0.7128906,2.4277344,0.7128906,3.7788086
	c0,0.7304688-0.265625,1.3608398-0.796875,1.8901367c-0.5273438,0.5292969-1.1582031,0.793457-1.8886719,0.793457
	c-0.7285156,0-1.359375-0.2641602-1.8886719-0.793457s-0.7929688-1.159668-0.7929688-1.8901367
	c0-0.8388672-0.2402344-1.644043-0.7128906-2.4101563c-0.5117188-0.6933594-1.1523438-1.2050781-1.9179688-1.5332031
	c-0.5097656-0.2192383-1.0585938-0.3286133-1.640625-0.3286133C210.5258789,11.09375,209.7407227,11.3491211,209.0102539,11.8613281
	z"/>
<path fill="#3B6E8F" d="M82.3378906,34.2041016c0-0.7382813-0.2680664-1.3769531-0.8046875-1.9121094
	c-0.5361328-0.5351563-1.1748047-0.8046875-1.9135742-0.8046875c-0.7402344,0-1.3779297,0.2695313-1.9135742,0.8046875
	c-0.5366211,0.5351563-0.8037109,1.1738281-0.8037109,1.9121094v0.1191406h-0.0014648v0.8652344
	c0,0.7304688-0.128418,1.4082031-0.3833008,2.0292969c-0.4018555,0.9492188-1.0219727,1.6953125-1.8608398,2.2441406
	c-0.8413086,0.5839844-1.809082,0.875-2.9033203,0.875c-0.7299805,0-1.4067383-0.1269531-2.0273438-0.3828125
	c-0.9487305-0.4003906-1.6962891-1.0195313-2.2441406-1.8613281c-0.5849609-0.8398438-0.8759766-1.8066406-0.8759766-2.9042969
	v-8.0410156h14.4106445c0,0,1.2241211,0.0097656,1.300293-1.3056641c0,0,0-0.5205078,0-1.1831055h0.0058594V16.1875
	c0-1.3505859-0.2919922-2.7202148-0.8764648-4.1079102c-0.7661133-1.8984375-2.0258789-3.4306641-3.7788086-4.6005859
	C75.9155273,6.2739258,73.9448242,5.671875,71.753418,5.671875c-1.4238281,0-2.793457,0.2744141-4.1083984,0.8212891
	c-1.9355469,0.7675781-3.4863281,2.0454102-4.6542969,3.8339844c-0.5844727,0.8398438-1.0317383,1.7626953-1.3417969,2.7666016
	c-0.3105469,1.0039063-0.4648438,2.034668-0.4648438,3.09375v19.0009766c0,1.4257813,0.2729492,2.7949219,0.8208008,4.109375
	c0.4013672,0.9492188,0.9311523,1.8164063,1.5878906,2.6015625c0.6572266,0.7851563,1.4047852,1.46875,2.2456055,2.0546875
	c1.8251953,1.203125,3.7963867,1.8066406,5.9150391,1.8066406c1.4233398,0,2.7924805-0.2753906,4.1064453-0.8222656
	c0.9487305-0.4023438,1.8173828-0.9296875,2.6015625-1.5878906c0.7851563-0.6582031,1.4697266-1.4042969,2.0541992-2.2460938
	c1.2045898-1.8242188,1.8071289-3.7949219,1.8071289-5.9160156L82.3378906,34.2041016z M66.605957,16.1875
	c0-0.3286133,0.0263672-0.6655273,0.0810547-1.0136719c0.0546875-0.3466797,0.1552734-0.6655273,0.3017578-0.9589844
	c0.4003906-0.9848633,1.0209961-1.7529297,1.8613281-2.2998047c0.949707-0.5830078,1.9174805-0.8759766,2.9033203-0.8759766
	c0.6572266,0,1.331543,0.1464844,2.0258789,0.4384766c0.9487305,0.4013672,1.6972656,1.0219727,2.2456055,1.8618164
	c0.5844727,0.8032227,0.8759766,1.7529297,0.8759766,2.8481445v5.6430664H66.605957V16.1875z"/>
<path fill="#3B6E8F" d="M225.2915039,39.8935547c1.2597656,0,2.2167969,0.828125,2.2167969,2.3125v1.2382813
	c0,1.484375-0.9570313,2.3105469-2.2167969,2.3105469c-1.2617188,0-2.2246094-0.8261719-2.2246094-2.3105469v-1.2382813
	C223.0668945,40.7216797,224.0297852,39.8935547,225.2915039,39.8935547z M225.2915039,45.2900391
	c0.9472656,0,1.734375-0.5527344,1.734375-1.8378906v-1.2539063c0-1.2851563-0.7871094-1.8398438-1.734375-1.8398438
	s-1.734375,0.5546875-1.734375,1.8398438v1.2539063C223.5571289,44.7373047,224.3442383,45.2900391,225.2915039,45.2900391z
	 M226.2719727,44.2451172c0,0.0898438-0.0566406,0.1386719-0.1445313,0.1386719h-0.2011719
	c-0.0878906,0-0.1445313-0.0488281-0.1445313-0.1386719v-0.6972656c0-0.3203125-0.1933594-0.4511719-0.4511719-0.4511719h-0.4335938
	v1.1484375c0,0.0898438-0.046875,0.1386719-0.1367188,0.1386719h-0.2089844c-0.0859375,0-0.1347656-0.0488281-0.1347656-0.1386719
	v-2.8417969c0-0.0878906,0.0488281-0.1367188,0.1347656-0.1367188h0.8925781c0.4902344,0,0.8105469,0.265625,0.8105469,0.7871094
	v0.1289063c0,0.3515625-0.1523438,0.59375-0.4082031,0.6992188c0.2636719,0.1035156,0.4257813,0.328125,0.4257813,0.6914063
	V44.2451172z M224.8969727,41.7236328v0.9414063h0.5c0.2226563,0,0.375-0.0957031,0.375-0.3691406v-0.2011719
	c0-0.2734375-0.1523438-0.3710938-0.375-0.3710938H224.8969727z"/>
<path fill="#3B6E8F" d="M38.7431641,38.1923828l-11.4057617-11.453125l6.3706055,2.6171875
	c0.0458984,0.0195313,0.0927734,0.0273438,0.1386719,0.0273438c0.1455078,0,0.2832031-0.0859375,0.3417969-0.2285156
	c0.0766602-0.1894531-0.0141602-0.4042969-0.2016602-0.4804688l-7.2353516-2.9711914l7.2514648-3.0361328
	c0.1875-0.078125,0.2758789-0.2949219,0.1972656-0.4833984c-0.0791016-0.1850586-0.2944336-0.2744141-0.4819336-0.1962891
	l-6.3378906,2.6538086c5.9628906-5.9428711,11.4765625-11.4375,11.4765625-11.4375
	c0.144043-0.144043,0.144043-0.3759766,0.0014648-0.5200195c-0.1445313-0.1445313-0.3764648-0.1445313-0.5200195-0.0014648
	c0,0-5.5913086,5.5717773-11.6098633,11.5708008l2.6708984-6.5585938c0.0761719-0.1875-0.0136719-0.4033203-0.2026367-0.4790039
	c-0.1884766-0.0756836-0.4033203,0.0136719-0.4790039,0.203125l-2.5981445,6.378418V7.5888672
	c0-0.2036133-0.1645508-0.3676758-0.3676758-0.3676758s-0.3686523,0.1640625-0.3686523,0.3676758v16.1015625
	c-0.8745117-2.1816406-1.8139648-4.5063477-2.5302734-6.2929688c-0.0756836-0.1899414-0.2890625-0.2802734-0.4775391-0.2045898
	c-0.1894531,0.0737305-0.2802734,0.2895508-0.2041016,0.4775391c0.7392578,1.8461914,1.7133789,4.2578125,2.6157227,6.5102539
	L13.2470703,12.59375c-0.1445313-0.144043-0.3774414-0.144043-0.5214844-0.0014648
	c-0.1445313,0.1435547-0.1445313,0.3774414,0,0.5214844l11.5166016,11.5620117l-6.4355469-2.6337891
	c-0.1879883-0.0766602-0.4033203,0.0131836-0.4804688,0.199707c-0.0771484,0.1899414,0.0136719,0.4052734,0.2011719,0.4804688
	l6.3032227,2.5805664H7.6992188c-0.203125,0-0.3681641,0.1650391-0.3681641,0.3691406
	c0,0.2026367,0.1650391,0.3676758,0.3681641,0.3676758h16.3427734l-6.4829102,2.7036133
	c-0.1879883,0.0761719-0.2753906,0.2929688-0.1982422,0.4804688c0.059082,0.140625,0.1967773,0.2265625,0.340332,0.2265625
	c0.0473633,0,0.0952148-0.0078125,0.1416016-0.0273438l6.3583984-2.6503906
	c-4.1254883,4.1113281-8.6079102,8.5761719-11.4628906,11.4199219c-0.144043,0.1445313-0.1455078,0.3789063-0.0014648,0.5214844
	c0.0722656,0.0722656,0.1674805,0.1074219,0.262207,0.1074219c0.0942383,0,0.1879883-0.0351563,0.2597656-0.1054688h-0.0014648
	c2.8476563-2.8398438,7.3154297-7.2890625,11.4301758-11.390625l-2.5610352,6.3203125
	c-0.0771484,0.1875,0.0136719,0.4023438,0.203125,0.4785156c0.0449219,0.0195313,0.0927734,0.0273438,0.1386719,0.0273438
	c0.1455078,0,0.2827148-0.0878906,0.340332-0.2304688l2.574707-6.3515625v16.1464844
	c0,0.203125,0.1655273,0.3691406,0.3686523,0.3691406s0.3676758-0.1660156,0.3676758-0.3691406V27.5048828
	c1.3911133,3.4726563,2.5766602,6.4140625,2.5766602,6.4140625c0.0561523,0.1445313,0.1953125,0.2304688,0.3408203,0.2304688
	c0.0454102,0,0.0913086-0.0078125,0.1367188-0.0253906c0.1889648-0.0761719,0.2797852-0.2890625,0.2055664-0.4785156
	c0,0-1.1801758-2.9277344-2.5678711-6.3925781l11.4116211,11.4589844c0.0712891,0.0722656,0.1660156,0.1074219,0.2607422,0.1074219
	c0.09375,0,0.1875-0.0332031,0.2592773-0.1054688C38.887207,38.5712891,38.887207,38.3349609,38.7431641,38.1923828z"/>
<circle fill="#3B6E8F" cx="9.6877441" cy="41.7568359" r="2.9746478"/>
<circle fill="#3B6E8F" cx="13.4699707" cy="30.8681641" r="2.9739041"/>
<circle fill="#3B6E8F" cx="41.8903809" cy="9.6599121" r="2.9741299"/>
<circle fill="#3B6E8F" cx="38.1088867" cy="20.5488281" r="2.9735489"/>
<circle fill="#3B6E8F" cx="41.8383789" cy="41.8076172" r="2.9744751"/>
<circle fill="#3B6E8F" cx="30.9487305" cy="38.0273438" r="2.9741187"/>
<circle fill="#3B6E8F" cx="9.7404785" cy="9.607666" r="2.9748204"/>
<circle fill="#3B6E8F" cx="20.6298828" cy="13.3894043" r="2.9738338"/>
<circle fill="#3B6E8F" cx="25.7519531" cy="48.4404297" r="2.9746094"/>
<circle fill="#3B6E8F" cx="20.7258301" cy="38.0673828" r="2.9742043"/>
<circle fill="#3B6E8F" cx="25.8273926" cy="2.9746094" r="2.973877"/>
<circle fill="#3B6E8F" cx="30.8522949" cy="13.3498535" r="2.9744799"/>
<circle fill="#3B6E8F" cx="38.1484375" cy="30.7714844" r="2.9735258"/>
<circle fill="#3B6E8F" cx="2.9760742" cy="25.6708984" r="2.9746094"/>
<circle fill="#3B6E8F" cx="13.4294434" cy="20.6442871" r="2.9733915"/>
</svg>
