<?xml version="1.0" encoding="UTF-8" standalone="no"?>
<svg
   xmlns:dc="http://purl.org/dc/elements/1.1/"
   xmlns:cc="http://creativecommons.org/ns#"
   xmlns:rdf="http://www.w3.org/1999/02/22-rdf-syntax-ns#"
   xmlns:svg="http://www.w3.org/2000/svg"
   xmlns="http://www.w3.org/2000/svg"
   id="svg56"
   xml:space="preserve"
   viewBox="-0.3334961 -0.3076172 221.1123 51.414307"
   y="0px"
   x="0px"
   version="1.2"><metadata
   id="metadata60"><rdf:RDF><cc:Work
       rdf:about=""><dc:format>image/svg+xml</dc:format><dc:type
         rdf:resource="http://purl.org/dc/dcmitype/StillImage" /><dc:title></dc:title></cc:Work></rdf:RDF></metadata>
<defs
   id="defs2" />
<path
   style="fill:#f15a29"
   id="path4"
   d="m 25.31543,25.738525 c -0.202637,0 -0.367676,-0.165039 -0.367676,-0.367676 v 0 c 0,-0.204101 0.165039,-0.36914 0.367676,-0.36914 v 0 h 17.862304 c 0.203125,0 0.367676,0.165039 0.367676,0.36914 v 0 c 0,0.202637 -0.164551,0.367676 -0.367676,0.367676 v 0 z" />
<circle
   style="fill:#f15a29"
   id="circle6"
   r="2.9743652"
   cy="25.399902"
   cx="47.853516" />
<path
   style="fill:#3b6e8f"
   id="path8"
   d="m 100.2959,26.667236 c 0.10937,0.21875 0.34668,0.748047 0.71191,1.58789 0.36377,0.841797 0.80225,1.806641 1.31397,2.902344 0.51025,1.095703 1.04101,2.265625 1.58838,3.50586 0.54687,1.240234 1.05859,2.373047 1.53271,3.394531 0.47461,1.023437 1.02246,2.226562 1.64356,3.615234 0.32763,0.69336 0.36377,1.386719 0.10937,2.080078 -0.25635,0.69336 -0.73047,1.205079 -1.42383,1.533204 -0.3291,0.146484 -0.71289,0.220703 -1.1499,0.220703 -0.51172,0 -0.99463,-0.136719 -1.45068,-0.41211 -0.45752,-0.273437 -0.79492,-0.664062 -1.01367,-1.175781 v -0.05664 c -0.10938,-0.216796 -0.33741,-0.728515 -0.68457,-1.533203 -0.34766,-0.802734 -0.76612,-1.751953 -1.25928,-2.847656 -0.493171,-1.095703 -1.013675,-2.246094 -1.561038,-3.449219 -0.54834,-1.207031 -1.060059,-2.33789 -1.53418,-3.396484 -0.474609,-1.056641 -0.884277,-1.953125 -1.232422,-2.683594 -0.346191,-0.730469 -0.55664,-1.150391 -0.628418,-1.259766 -0.219726,-0.326171 -0.520019,-0.55664 -0.904297,-0.683593 -0.383789,-0.128907 -0.776367,-0.101563 -1.177246,0.08203 -0.329101,0.146484 -0.575195,0.365234 -0.738769,0.65625 -0.166016,0.294922 -0.248047,0.585937 -0.248047,0.876953 v 13.197266 c 0,0.732422 -0.26416,1.361328 -0.793457,1.888672 -0.528809,0.53125 -1.158691,0.796875 -1.88916,0.796875 -0.694336,0 -1.315918,-0.238282 -1.861817,-0.712891 C 87.05957,44.28247 86.768066,43.62622 86.768066,42.821533 V 8.1022949 c 0,-0.8022461 0.291504,-1.4599609 0.876953,-1.9711914 0.545899,-0.4755859 1.167481,-0.7124023 1.861817,-0.7124023 0.730469,0 1.360351,0.2651367 1.88916,0.793457 0.529297,0.5297852 0.793457,1.1601563 0.793457,1.8901367 V 21.29956 c 0,0.292969 0.08203,0.584961 0.248047,0.876953 0.163574,0.292481 0.409668,0.511719 0.738769,0.657227 0.400879,0.182617 0.793457,0.210937 1.177246,0.08252 0.384278,-0.127441 0.684571,-0.355469 0.904297,-0.685058 0.07178,-0.109375 0.282227,-0.528809 0.628418,-1.258789 0.348145,-0.730469 0.757813,-1.625489 1.232422,-2.684571 0.474121,-1.058105 0.98584,-2.190429 1.53418,-3.395019 0.547363,-1.205078 1.067867,-2.355469 1.561038,-3.450684 0.49316,-1.095215 0.91162,-2.044433 1.25928,-2.8471674 0.34716,-0.8017578 0.57519,-1.3149414 0.68457,-1.5336914 v -0.054199 c 0.21875,-0.5107422 0.55615,-0.9033203 1.01367,-1.1777344 0.45605,-0.2734375 0.93896,-0.4106445 1.45068,-0.4106445 0.43701,0 0.8208,0.072266 1.1499,0.2192383 0.69336,0.3276367 1.16748,0.8398438 1.42383,1.5327148 0.2544,0.6943359 0.21826,1.3891602 -0.10937,2.0820313 -0.6211,1.3872063 -1.16895,2.5917963 -1.64356,3.6137693 -0.47412,1.022949 -0.98584,2.155273 -1.53271,3.395507 -0.54737,1.241211 -1.07813,2.409668 -1.58838,3.504883 -0.51172,1.095703 -0.9502,2.063477 -1.31397,2.902832 -0.36523,0.839356 -0.60254,1.368653 -0.71191,1.586914 -0.0732,0.220704 -0.17383,0.430176 -0.302251,0.631836 -0.12744,0.200684 -0.26416,0.392578 -0.41113,0.573242 0.14697,0.183594 0.28369,0.376954 0.41113,0.576172 0.128421,0.201172 0.229011,0.410645 0.302251,0.629395 z" />
<path
   style="fill:#3b6e8f"
   id="path10"
   d="m 117.13428,44.710205 c -0.52832,0.53125 -1.1582,0.796875 -1.88819,0.796875 -0.73046,0 -1.36035,-0.265625 -1.88964,-0.796875 -0.5293,-0.527344 -0.79346,-1.175782 -0.79346,-1.94336 V 8.1022949 c 0,-0.7299805 0.26416,-1.3603516 0.79346,-1.8901367 0.52929,-0.5283203 1.15918,-0.793457 1.88964,-0.793457 0.72999,0 1.35987,0.2651367 1.88819,0.793457 0.53125,0.5297852 0.79687,1.1601563 0.79687,1.8901367 V 42.766845 c 0,0.767578 -0.26562,1.416016 -0.79687,1.94336 z" />
<path
   style="fill:#3b6e8f"
   id="path12"
   d="m 142.73779,11.77124 c 0.58399,1.387695 0.87696,2.757324 0.87696,4.10791 v 26.942383 c 0,0.732422 -0.26563,1.361328 -0.79297,1.888672 -0.53125,0.53125 -1.16016,0.796875 -1.89063,0.796875 -0.73047,0 -1.37109,-0.265625 -1.91601,-0.796875 -0.54883,-0.527344 -0.82227,-1.15625 -0.82227,-1.888672 V 15.87915 c 0,-1.095215 -0.29297,-2.044922 -0.87695,-2.848144 -0.54688,-0.839844 -1.29492,-1.46045 -2.24414,-1.861817 -0.69531,-0.291992 -1.3711,-0.438476 -2.02735,-0.438476 -0.98632,0 -1.95312,0.292968 -2.90234,0.875976 -0.83984,0.546875 -1.46094,1.314942 -1.86133,2.299805 -0.14648,0.293457 -0.24804,0.612305 -0.30273,0.958984 -0.0547,0.348145 -0.082,0.685059 -0.082,1.013672 v 26.942383 c 0,0.732422 -0.26563,1.361328 -0.79297,1.888672 -0.53125,0.53125 -1.17774,0.796875 -1.94531,0.796875 -0.73047,0 -1.35938,-0.265625 -1.88868,-0.796875 -0.52929,-0.527344 -0.79492,-1.15625 -0.79492,-1.888672 V 15.87915 c 0,-1.059082 0.15625,-2.089844 0.4668,-3.09375 0.30859,-1.003906 0.75781,-1.926758 1.3418,-2.766602 1.16601,-1.7885734 2.71875,-3.0664055 4.65429,-3.8339836 1.31446,-0.546875 2.6836,-0.8212891 4.10742,-0.8212891 2.19141,0 4.16211,0.6020508 5.91407,1.8071289 1.7539,1.169922 3.01172,2.7021482 3.77929,4.6005858 z" />
<path
   style="fill:#3b6e8f"
   id="path14"
   d="m 153.74561,43.645752 c -0.83985,-0.585938 -1.58789,-1.269532 -2.2461,-2.054688 -0.6582,-0.785156 -1.18554,-1.652344 -1.58789,-2.601562 -0.54687,-1.314454 -0.82226,-2.683594 -0.82226,-4.109375 V 15.87915 c 0,-1.059082 0.15625,-2.089844 0.46484,-3.09375 0.3125,-1.003906 0.75977,-1.926758 1.34375,-2.766602 1.16797,-1.7885734 2.71875,-3.0664055 4.6543,-3.8339836 1.31445,-0.546875 2.68359,-0.8212891 4.10742,-0.8212891 2.19141,0 4.16211,0.6020508 5.91601,1.8071289 1.75196,1.1699219 3.01172,2.7021482 3.77735,4.6005858 0.58398,1.387695 0.875,2.757324 0.875,4.10791 v 19.000976 c 0,2.121094 -0.59961,4.091797 -1.80469,5.916016 -0.58594,0.841797 -1.26953,1.587891 -2.05469,2.246094 -0.78515,0.658203 -1.65234,1.185547 -2.59961,1.58789 -1.3164,0.546875 -2.68554,0.822266 -4.10937,0.822266 -2.11719,0 -4.08984,-0.603515 -5.91406,-1.80664 z m 0.76757,-8.765625 c 0,1.097656 0.28907,2.064453 0.875,2.904296 0.54883,0.841797 1.29493,1.460938 2.24415,1.861329 0.62109,0.255859 1.29687,0.382812 2.02734,0.382812 1.0957,0 2.0625,-0.291016 2.90234,-0.875 0.83985,-0.548828 1.46094,-1.294922 1.86328,-2.244141 0.25391,-0.621093 0.38282,-1.298828 0.38282,-2.029296 V 15.87915 c 0,-1.095215 -0.29297,-2.044922 -0.87696,-2.848144 -0.54687,-0.839844 -1.29687,-1.46045 -2.24414,-1.861817 -0.69336,-0.291992 -1.36914,-0.438476 -2.02734,-0.438476 -0.98633,0 -1.95313,0.292968 -2.90234,0.875976 -0.83985,0.546875 -1.46094,1.314942 -1.86329,2.299805 -0.14453,0.293457 -0.24414,0.612305 -0.29882,0.958984 -0.0566,0.348145 -0.082,0.685059 -0.082,1.013672 v 19.000977 z" />
<path
   style="fill:#3b6e8f"
   id="path16"
   d="m 181.18311,42.766845 c 0,0.767578 -0.26563,1.416016 -0.79493,1.94336 -0.52929,0.53125 -1.1582,0.796875 -1.88867,0.796875 -0.73047,0 -1.36133,-0.265625 -1.89062,-0.796875 -0.52735,-0.527344 -0.79297,-1.175782 -0.79297,-1.94336 V 8.1022949 c 0,-0.7661133 0.25391,-1.40625 0.76758,-1.9174805 0.51172,-0.5102539 1.14843,-0.7661133 1.91601,-0.7661133 h 6.13282 c 2.59179,0 4.96484,0.7124023 7.12109,2.1357422 2.04297,1.3876953 3.57812,3.2499997 4.59961,5.5859367 0.65625,1.607422 0.98437,3.250977 0.98437,4.928223 0,2.556641 -0.73047,4.929199 -2.18945,7.120117 -1.42383,2.080078 -3.28516,3.595703 -5.58594,4.544922 -1.49804,0.69336 -3.14062,1.041016 -4.92968,1.041016 h -2.46485 c -0.25586,0 -0.47266,0.0918 -0.65625,0.273437 -0.21875,0.183594 -0.32812,0.402344 -0.32812,0.658203 z m 0,-18.345215 c 0,0.25586 0.0898,0.475586 0.27343,0.657715 0.1836,0.182617 0.41797,0.274903 0.71094,0.274903 h 2.46485 c 1.45898,0 2.83007,-0.420899 4.10742,-1.261231 1.20508,-0.802246 2.08203,-1.861816 2.63086,-3.175781 0.36328,-0.839844 0.54492,-1.788574 0.54492,-2.848633 0,-1.458984 -0.41992,-2.810059 -1.25977,-4.051269 -0.76562,-1.168946 -1.82617,-2.044434 -3.17383,-2.629883 -0.91406,-0.401367 -1.86328,-0.602051 -2.8496,-0.602051 h -2.46485 c -0.29297,0 -0.52734,0.0918 -0.71094,0.274414 -0.18359,0.182617 -0.27343,0.419922 -0.27343,0.711426 z" />
<path
   style="fill:#3b6e8f"
   id="path18"
   d="m 208.67529,11.552978 c -0.69531,0.47461 -1.20507,1.094238 -1.5332,1.860352 -0.21875,0.513183 -0.33008,1.061035 -0.33008,1.644043 0,0.657714 0.12891,1.258789 0.38477,1.80664 0.21875,0.621582 0.60156,1.296875 1.14844,2.027344 0.43945,0.620117 1.02343,1.286621 1.75195,1.998535 0.73047,0.711426 1.64453,1.543457 2.74023,2.491699 0.47266,0.402344 0.99219,0.847657 1.56055,1.341309 0.56445,0.493164 1.12305,1.032715 1.66992,1.616699 0.58399,0.583496 1.08594,1.140137 1.50781,1.669434 0.41797,0.529297 0.81055,1.048828 1.17774,1.560547 0.58203,0.876953 1.00195,1.697265 1.25781,2.464844 0.51172,1.314453 0.76758,2.591796 0.76758,3.833984 0,1.935547 -0.56836,3.722656 -1.69922,5.367187 -1.05859,1.53125 -2.46484,2.701172 -4.2168,3.503907 -1.24023,0.511719 -2.48242,0.767578 -3.72265,0.767578 -1.97266,0 -3.7793,-0.56836 -5.42383,-1.699219 -1.56836,-1.058594 -2.73633,-2.462891 -3.50391,-4.216797 -0.47461,-1.166015 -0.71289,-2.410156 -0.71289,-3.722656 0,-0.767578 0.26563,-1.416016 0.79492,-1.943359 0.5293,-0.53125 1.15821,-0.796875 1.88868,-0.796875 0.73047,0 1.35937,0.265625 1.88867,0.796875 0.5293,0.527343 0.79687,1.175781 0.79687,1.943359 0,0.802734 0.23633,1.587891 0.71094,2.353516 0.50977,0.695312 1.13086,1.207031 1.86133,1.533203 0.54687,0.220703 1.11328,0.330078 1.69922,0.330078 0.875,0 1.66015,-0.238282 2.35351,-0.710938 0.69336,-0.513672 1.20508,-1.132812 1.53321,-1.863281 0.2207,-0.546875 0.33007,-1.115234 0.33007,-1.697266 0,-0.658203 -0.13085,-1.259765 -0.38476,-1.808593 -0.21875,-0.621094 -0.58399,-1.277344 -1.09375,-1.970704 -0.47656,-0.621093 -1.06836,-1.294921 -1.78125,-2.027343 -0.71094,-0.728516 -1.63281,-1.570313 -2.76563,-2.517578 -0.69336,-0.621094 -1.39648,-1.250489 -2.10742,-1.889161 -0.71289,-0.638672 -1.38086,-1.323242 -2,-2.055175 -1.42383,-1.532715 -2.44531,-3.084473 -3.0664,-4.653809 -0.51172,-1.315918 -0.76758,-2.593262 -0.76758,-3.833984 0,-0.986329 0.14648,-1.936036 0.4375,-2.847657 0.29297,-0.912109 0.69531,-1.770996 1.20703,-2.5742182 1.16797,-1.6064453 2.58984,-2.7563477 4.26953,-3.4506836 1.13281,-0.5102539 2.375,-0.7661133 3.72656,-0.7661133 2.00586,0 3.81446,0.546875 5.41992,1.6425781 1.53321,1.059082 2.70118,2.4643555 3.50586,4.217285 0.47266,1.168945 0.71289,2.427734 0.71289,3.778808 0,0.730469 -0.26562,1.36084 -0.79687,1.890137 -0.52734,0.529297 -1.1582,0.793457 -1.88867,0.793457 -0.72852,0 -1.35938,-0.26416 -1.88867,-0.793457 -0.5293,-0.529297 -0.79297,-1.159668 -0.79297,-1.890137 0,-0.838867 -0.24024,-1.644043 -0.71289,-2.410156 -0.51172,-0.693359 -1.15235,-1.205078 -1.91797,-1.533203 -0.50977,-0.219238 -1.0586,-0.328613 -1.64063,-0.328613 -0.83984,0 -1.625,0.255371 -2.35547,0.767578 z" />
<path
   style="fill:#3b6e8f"
   id="path20"
   d="m 82.00293,33.895752 c 0,-0.738282 -0.268067,-1.376954 -0.804688,-1.91211 -0.536133,-0.535156 -1.174805,-0.804687 -1.913574,-0.804687 -0.740235,0 -1.37793,0.269531 -1.913574,0.804687 -0.536621,0.535156 -0.803711,1.173828 -0.803711,1.91211 v 0.11914 h -0.0015 v 0.865235 c 0,0.730468 -0.128418,1.408203 -0.383301,2.029296 -0.401855,0.949219 -1.021973,1.695313 -1.86084,2.244141 -0.841308,0.583984 -1.809082,0.875 -2.90332,0.875 -0.72998,0 -1.406738,-0.126953 -2.027344,-0.382812 -0.94873,-0.400391 -1.696289,-1.019532 -2.24414,-1.861329 -0.584961,-0.839843 -0.875977,-1.80664 -0.875977,-2.904296 v -8.041016 h 14.410645 c 0,0 1.224121,0.0098 1.300293,-1.305664 0,0 0,-0.520508 0,-1.183106 h 0.0059 V 15.87915 c 0,-1.350586 -0.291992,-2.720215 -0.876465,-4.10791 C 80.345215,9.8728024 79.085449,8.3405761 77.33252,7.1706543 75.580566,5.9655762 73.609863,5.3635254 71.418457,5.3635254 c -1.423828,0 -2.793457,0.2744141 -4.108398,0.8212891 -1.935547,0.7675781 -3.486328,2.0454102 -4.654297,3.8339845 -0.584473,0.839843 -1.031739,1.762695 -1.341797,2.766601 -0.310547,1.003906 -0.464844,2.034668 -0.464844,3.09375 v 19.000977 c 0,1.425781 0.272949,2.794922 0.820801,4.109375 0.401367,0.949218 0.931152,1.816406 1.58789,2.601562 0.657227,0.785156 1.404786,1.46875 2.245606,2.054688 1.825195,1.203125 3.796387,1.80664 5.915039,1.80664 1.42334,0 2.792481,-0.27539 4.106445,-0.822265 0.948731,-0.402344 1.817383,-0.929688 2.601563,-1.587891 0.785156,-0.658203 1.469726,-1.404297 2.054199,-2.246094 1.20459,-1.824218 1.807129,-3.794922 1.807129,-5.916015 z M 66.270996,15.87915 c 0,-0.328613 0.02637,-0.665527 0.08105,-1.013672 0.05469,-0.34668 0.155273,-0.665527 0.301758,-0.958984 0.40039,-0.984864 1.020996,-1.75293 1.861328,-2.299805 0.949707,-0.583008 1.91748,-0.875977 2.90332,-0.875977 0.657227,0 1.331543,0.146485 2.025879,0.438477 0.94873,0.401367 1.697265,1.021973 2.245605,1.861816 0.584473,0.803223 0.875977,1.75293 0.875977,2.848145 v 5.643066 H 66.270996 Z" />

<path
   style="fill:#3b6e8f"
   id="path24"
   d="m 38.408203,37.884033 -11.405762,-11.453125 6.370606,2.617187 c 0.0459,0.01953 0.09277,0.02734 0.138672,0.02734 0.145508,0 0.283203,-0.08594 0.341797,-0.228516 0.07666,-0.189453 -0.01416,-0.404296 -0.201661,-0.480468 l -7.235351,-2.971188 7.251465,-3.036133 c 0.1875,-0.07813 0.275879,-0.294921 0.197265,-0.483398 -0.0791,-0.185059 -0.294433,-0.274414 -0.481933,-0.196289 l -6.337891,2.653809 c 5.962891,-5.942872 11.476563,-11.4375 11.476563,-11.4375 0.144043,-0.144043 0.144043,-0.375977 0.0015,-0.52002 -0.144531,-0.144531 -0.376464,-0.144531 -0.520019,-0.0015 0,0 -5.591309,5.571778 -11.609863,11.570801 l 2.670898,-6.558594 c 0.07617,-0.1875 -0.01367,-0.40332 -0.202637,-0.479004 -0.188476,-0.07568 -0.40332,0.01367 -0.479004,0.203125 l -2.598144,6.378418 V 7.2805176 c 0,-0.2036133 -0.164551,-0.3676758 -0.367676,-0.3676758 -0.203125,0 -0.368652,0.1640625 -0.368652,0.3676758 V 23.38208 c -0.874512,-2.181641 -1.813965,-4.506348 -2.530274,-6.292969 -0.07568,-0.189942 -0.289062,-0.280274 -0.477539,-0.20459 -0.189453,0.07373 -0.280273,0.289551 -0.204101,0.477539 0.739257,1.846192 1.713379,4.257813 2.615722,6.510254 L 12.912109,12.2854 c -0.144531,-0.144043 -0.377441,-0.144043 -0.521484,-0.0015 -0.144531,0.143555 -0.144531,0.377442 0,0.521485 L 23.907226,24.367396 17.47168,21.733607 c -0.187989,-0.07666 -0.403321,0.01318 -0.480469,0.199707 -0.07715,0.189942 0.01367,0.405274 0.201172,0.480469 l 6.303222,2.580566 H 7.3642579 c -0.203125,0 -0.3681641,0.165039 -0.3681641,0.369141 0,0.202637 0.1650391,0.367676 0.3681641,0.367676 H 23.707031 l -6.48291,2.703613 c -0.187988,0.07617 -0.275391,0.292969 -0.198242,0.480469 0.05908,0.140625 0.196777,0.226562 0.340332,0.226562 0.04736,0 0.09521,-0.0078 0.141601,-0.02734 l 6.358399,-2.650391 c -4.125489,4.111328 -8.60791,8.576172 -11.462891,11.419922 -0.144043,0.144531 -0.145508,0.378906 -0.0015,0.521484 0.07227,0.07227 0.167481,0.107422 0.262207,0.107422 0.09424,0 0.187989,-0.03516 0.259766,-0.105469 h -0.0015 c 2.847726,-2.839811 7.3155,-7.28903 11.430246,-11.390593 l -2.561035,6.320313 c -0.07715,0.1875 0.01367,0.402344 0.203125,0.478515 0.04492,0.01953 0.09277,0.02734 0.138672,0.02734 0.145507,0 0.282714,-0.08789 0.340332,-0.230469 L 25.04834,27.260982 V 43.40747 c 0,0.203125 0.165527,0.369141 0.368652,0.369141 0.203125,0 0.367676,-0.166016 0.367676,-0.369141 V 27.196533 c 1.391113,3.472656 2.57666,6.414062 2.57666,6.414062 0.05615,0.144532 0.195312,0.230469 0.34082,0.230469 0.04541,0 0.09131,-0.0078 0.136719,-0.02539 0.188965,-0.07617 0.279785,-0.289062 0.205566,-0.478515 0,0 -1.180175,-2.927735 -2.567871,-6.392578 l 11.411621,11.458984 c 0.07129,0.07227 0.166016,0.107422 0.260743,0.107422 0.09375,0 0.1875,-0.0332 0.259277,-0.105469 0.144043,-0.142578 0.144043,-0.378906 0,-0.521485 z" />
<circle
   style="fill:#3b6e8f"
   id="circle26"
   r="2.9746478"
   cy="41.448486"
   cx="9.3527832" />
<circle
   style="fill:#3b6e8f"
   id="circle28"
   r="2.9739041"
   cy="30.559814"
   cx="13.13501" />
<circle
   style="fill:#3b6e8f"
   id="circle30"
   r="2.9741299"
   cy="9.3515625"
   cx="41.55542" />
<circle
   style="fill:#3b6e8f"
   id="circle32"
   r="2.9735489"
   cy="20.240479"
   cx="37.773926" />
<circle
   style="fill:#3b6e8f"
   id="circle34"
   r="2.9744751"
   cy="41.499268"
   cx="41.503418" />
<circle
   style="fill:#3b6e8f"
   id="circle36"
   r="2.9741187"
   cy="37.718994"
   cx="30.61377" />
<circle
   style="fill:#3b6e8f"
   id="circle38"
   r="2.9748204"
   cy="9.2993164"
   cx="9.4055176" />
<circle
   style="fill:#3b6e8f"
   id="circle40"
   r="2.9738338"
   cy="13.081055"
   cx="20.294922" />
<circle
   style="fill:#3b6e8f"
   id="circle42"
   r="2.9746094"
   cy="48.13208"
   cx="25.416992" />
<circle
   style="fill:#3b6e8f"
   id="circle44"
   r="2.9742043"
   cy="37.759033"
   cx="20.390869" />
<circle
   style="fill:#3b6e8f"
   id="circle46"
   r="2.973877"
   cy="2.6662598"
   cx="25.492432" />
<circle
   style="fill:#3b6e8f"
   id="circle48"
   r="2.9744799"
   cy="13.041505"
   cx="30.517334" />
<circle
   style="fill:#3b6e8f"
   id="circle50"
   r="2.9735258"
   cy="30.463135"
   cx="37.813477" />
<circle
   style="fill:#3b6e8f"
   id="circle52"
   r="2.9746094"
   cy="25.362549"
   cx="2.6411133" />
<circle
   style="fill:#3b6e8f"
   id="circle54"
   r="2.9733915"
   cy="20.335938"
   cx="13.094482" />
</svg>