<svg xmlns="http://www.w3.org/2000/svg" viewBox="-0.333 -0.308 221.112 51.414" version="1.2"><path d="M25.315 25.739a.369.369 0 010-.737h17.863a.368.368 0 010 .737z" fill="#f15a29"/><circle r="2.974" cy="25.4" cx="47.854" fill="#f15a29"/><path d="M100.296 26.667c.11.219.347.748.712 1.588.364.842.802 1.807 1.314 2.902.51 1.096 1.04 2.266 1.588 3.506.547 1.24 1.059 2.373 1.533 3.395a293.713 293.713 0 011.643 3.615c.328.693.364 1.387.11 2.08-.257.694-.73 1.205-1.424 1.533-.33.147-.713.221-1.15.221-.512 0-.995-.137-1.45-.412a2.45 2.45 0 01-1.014-1.176v-.056c-.11-.217-.338-.729-.685-1.534-.348-.802-.766-1.752-1.26-2.847a940.15 940.15 0 00-1.56-3.45 707.717 707.717 0 01-1.534-3.396 136.044 136.044 0 00-1.233-2.684c-.346-.73-.556-1.15-.628-1.26a1.708 1.708 0 00-.904-.683c-.384-.129-.777-.102-1.178.082-.329.147-.575.365-.739.656a1.772 1.772 0 00-.248.877v13.198c0 .732-.264 1.36-.793 1.888-.529.531-1.159.797-1.89.797-.694 0-1.315-.238-1.861-.713-.585-.512-.877-1.168-.877-1.972V8.102c0-.802.292-1.46.877-1.97.546-.476 1.168-.713 1.862-.713.73 0 1.36.265 1.889.793.53.53.793 1.16.793 1.89V21.3c0 .293.082.585.249.877.163.292.41.511.738.657.401.182.794.21 1.178.082.384-.127.684-.355.904-.685.072-.11.282-.529.628-1.259.348-.73.758-1.625 1.233-2.684.474-1.058.985-2.19 1.534-3.395a1167.68 1167.68 0 001.56-3.45c.494-1.096.912-2.045 1.26-2.848.347-.802.575-1.315.685-1.534v-.054c.218-.51.556-.903 1.013-1.178.456-.273.94-.41 1.451-.41.437 0 .82.072 1.15.219.693.328 1.167.84 1.424 1.533.254.694.218 1.389-.11 2.082a292.54 292.54 0 01-1.643 3.613 199.957 199.957 0 00-1.533 3.396 186.425 186.425 0 01-1.588 3.505 115.85 115.85 0 00-1.314 2.903c-.365.839-.603 1.368-.712 1.587-.073.22-.174.43-.302.631s-.265.393-.411.574c.146.183.283.377.41.576.13.201.23.41.303.63zM117.134 44.71c-.528.531-1.158.797-1.888.797s-1.36-.266-1.89-.797c-.529-.527-.793-1.176-.793-1.943V8.102c0-.73.264-1.36.793-1.89.53-.528 1.16-.793 1.89-.793s1.36.265 1.888.793c.532.53.797 1.16.797 1.89v34.665c0 .767-.265 1.416-.797 1.943zM142.738 11.771c.584 1.388.877 2.758.877 4.108v26.943c0 .732-.266 1.36-.793 1.888-.531.531-1.16.797-1.89.797-.731 0-1.372-.266-1.917-.797-.549-.527-.822-1.156-.822-1.888V15.879c0-1.095-.293-2.045-.877-2.848a4.88 4.88 0 00-2.244-1.862c-.696-.292-1.371-.438-2.028-.438-.986 0-1.953.293-2.902.876-.84.547-1.46 1.315-1.861 2.3a3.274 3.274 0 00-.303.958 6.52 6.52 0 00-.082 1.014v26.943c0 .732-.266 1.36-.793 1.888-.531.531-1.178.797-1.945.797-.73 0-1.36-.266-1.889-.797-.53-.527-.795-1.156-.795-1.888V15.879c0-1.059.156-2.09.467-3.094a9.927 9.927 0 011.342-2.766c1.166-1.789 2.719-3.067 4.654-3.834a10.591 10.591 0 014.107-.821c2.192 0 4.163.602 5.915 1.807 1.753 1.17 3.011 2.702 3.779 4.6zM153.746 43.646a11.508 11.508 0 01-2.246-2.055 10.248 10.248 0 01-1.588-2.601 10.595 10.595 0 01-.823-4.11v-19c0-1.06.157-2.09.465-3.095.313-1.004.76-1.926 1.344-2.766 1.168-1.789 2.719-3.067 4.654-3.834a10.591 10.591 0 014.108-.821c2.191 0 4.162.602 5.916 1.807 1.752 1.17 3.011 2.702 3.777 4.6.584 1.388.875 2.758.875 4.108V34.88c0 2.121-.6 4.092-1.805 5.916a11.453 11.453 0 01-2.054 2.246 10.27 10.27 0 01-2.6 1.588 10.609 10.609 0 01-4.11.822c-2.117 0-4.09-.603-5.913-1.806zm.767-8.766c0 1.098.29 2.065.875 2.904a4.87 4.87 0 002.244 1.862 5.27 5.27 0 002.028.383c1.095 0 2.062-.291 2.902-.875a4.898 4.898 0 001.863-2.245 5.317 5.317 0 00.383-2.029v-19c0-1.096-.293-2.046-.877-2.849a4.89 4.89 0 00-2.244-1.862c-.693-.292-1.37-.438-2.027-.438-.987 0-1.953.293-2.903.876-.84.547-1.46 1.315-1.863 2.3a3.328 3.328 0 00-.299.958 6.295 6.295 0 00-.082 1.014V34.88zM181.183 42.767c0 .767-.266 1.416-.795 1.943-.53.531-1.158.797-1.888.797-.731 0-1.362-.266-1.891-.797-.527-.527-.793-1.176-.793-1.943V8.102c0-.766.254-1.406.768-1.917.511-.51 1.148-.766 1.916-.766h6.132c2.592 0 4.965.712 7.121 2.135 2.043 1.388 3.579 3.25 4.6 5.586.656 1.608.984 3.251.984 4.929 0 2.556-.73 4.929-2.189 7.12-1.424 2.08-3.285 3.595-5.586 4.545-1.498.693-3.14 1.04-4.93 1.04h-2.465a.899.899 0 00-.656.274c-.219.184-.328.402-.328.658zm0-18.345c0 .255.09.475.274.657a.961.961 0 00.71.275h2.465c1.46 0 2.83-.42 4.108-1.261a6.971 6.971 0 002.63-3.176c.364-.84.546-1.788.546-2.848 0-1.46-.42-2.81-1.26-4.052-.766-1.169-1.826-2.044-3.174-2.63a7.013 7.013 0 00-2.85-.602h-2.465c-.292 0-.527.092-.71.275-.184.182-.274.42-.274.711zM208.675 11.553a4.22 4.22 0 00-1.533 1.86 4.15 4.15 0 00-.33 1.644c0 .658.129 1.26.385 1.807.219.622.601 1.297 1.148 2.027.44.62 1.024 1.287 1.752 1.999a64.38 64.38 0 002.74 2.492c.473.402.993.847 1.56 1.34a23.25 23.25 0 011.67 1.618c.585.583 1.087 1.14 1.509 1.669.418.53.81 1.049 1.177 1.56.582.878 1.002 1.698 1.258 2.465.512 1.315.768 2.592.768 3.834 0 1.936-.569 3.723-1.7 5.368-1.058 1.53-2.464 2.7-4.216 3.504-1.24.511-2.483.767-3.723.767-1.973 0-3.78-.568-5.424-1.7a9.649 9.649 0 01-3.504-4.216 9.791 9.791 0 01-.712-3.723c0-.767.265-1.416.794-1.943.53-.531 1.159-.797 1.89-.797.73 0 1.358.266 1.888.797.53.527.797 1.176.797 1.943 0 .803.236 1.588.71 2.354.51.695 1.131 1.207 1.862 1.533.547.22 1.113.33 1.7.33.874 0 1.66-.238 2.353-.71.693-.514 1.205-1.134 1.533-1.864.22-.547.33-1.115.33-1.697 0-.658-.13-1.26-.385-1.809-.219-.621-.584-1.277-1.094-1.97a23.246 23.246 0 00-1.78-2.028c-.712-.728-1.634-1.57-2.766-2.517-.694-.622-1.397-1.251-2.108-1.89a20.756 20.756 0 01-2-2.055c-1.424-1.533-2.445-3.084-3.066-4.654-.512-1.316-.768-2.593-.768-3.834 0-.986.147-1.936.438-2.847.293-.912.695-1.771 1.207-2.575 1.168-1.606 2.59-2.756 4.27-3.45 1.132-.51 2.374-.766 3.726-.766 2.006 0 3.814.547 5.42 1.642 1.533 1.06 2.7 2.465 3.506 4.218a9.984 9.984 0 01.712 3.778c0 .73-.265 1.361-.796 1.89a2.575 2.575 0 01-1.89.794c-.728 0-1.358-.264-1.888-.793-.53-.53-.793-1.16-.793-1.89 0-.84-.24-1.645-.713-2.41a4.611 4.611 0 00-1.918-1.534 4.115 4.115 0 00-1.64-.329c-.84 0-1.625.256-2.356.768zM82.003 33.896c0-.739-.268-1.377-.805-1.912-.536-.536-1.175-.805-1.913-.805-.74 0-1.378.27-1.914.805-.537.535-.804 1.173-.804 1.912v.119h-.001v.865c0 .73-.129 1.408-.383 2.03a4.896 4.896 0 01-1.861 2.244c-.842.584-1.81.875-2.904.875a5.27 5.27 0 01-2.027-.383 4.868 4.868 0 01-2.244-1.862c-.585-.84-.876-1.806-.876-2.904v-8.04h14.41s1.225.009 1.3-1.307V24.35h.007v-8.47c0-1.351-.292-2.721-.877-4.109-.766-1.898-2.026-3.43-3.778-4.6-1.752-1.205-3.723-1.807-5.915-1.807-1.423 0-2.793.274-4.108.82-1.935.768-3.486 2.046-4.654 3.835a9.954 9.954 0 00-1.342 2.766 10.406 10.406 0 00-.465 3.094V34.88c0 1.426.273 2.795.82 4.11.402.949.932 1.816 1.589 2.601a11.45 11.45 0 002.245 2.055c1.826 1.203 3.797 1.806 5.915 1.806 1.424 0 2.793-.275 4.107-.822.949-.402 1.817-.93 2.601-1.588a11.405 11.405 0 002.055-2.246c1.204-1.824 1.807-3.795 1.807-5.916zM66.27 15.879c0-.328.026-.665.081-1.014.055-.346.155-.665.302-.959.4-.984 1.02-1.752 1.861-2.3.95-.582 1.918-.875 2.903-.875.658 0 1.332.146 2.026.438a4.893 4.893 0 012.246 1.862c.584.803.876 1.753.876 2.848v5.643H66.27zM38.408 37.884L27.002 26.431l6.371 2.617a.369.369 0 00.279-.682l-7.235-2.97 7.251-3.037a.37.37 0 00.197-.483.37.37 0 00-.482-.197l-6.338 2.654 11.477-11.437a.368.368 0 00-.519-.522l-11.61 11.571 2.671-6.559a.367.367 0 10-.681-.275l-2.598 6.378V7.281a.367.367 0 10-.737 0v16.101c-.874-2.182-1.814-4.506-2.53-6.293a.366.366 0 00-.477-.204.365.365 0 00-.205.477c.74 1.846 1.714 4.258 2.616 6.51l-11.54-11.587a.368.368 0 10-.521.52l11.516 11.562-6.435-2.633a.368.368 0 10-.28.68l6.304 2.58H7.364a.369.369 0 000 .737h16.343l-6.483 2.704a.367.367 0 00.142.707.361.361 0 00.142-.028l6.358-2.65c-4.125 4.111-8.608 8.576-11.463 11.42a.369.369 0 10.52.523c2.847-2.84 7.315-7.289 11.43-11.39l-2.561 6.32a.366.366 0 00.341.506.368.368 0 00.34-.23l2.575-6.352v16.146a.369.369 0 10.736 0v-16.21c1.392 3.472 2.577 6.414 2.577 6.414.056.144.196.23.341.23a.37.37 0 00.342-.504s-1.18-2.928-2.567-6.392l11.411 11.459a.364.364 0 00.26.107.361.361 0 00.26-.105.369.369 0 000-.522z" fill="#3b6e8f"/><circle r="2.975" cy="41.448" cx="9.353" fill="#3b6e8f"/><circle r="2.974" cy="30.56" cx="13.135" fill="#3b6e8f"/><circle r="2.974" cy="9.352" cx="41.555" fill="#3b6e8f"/><circle r="2.974" cy="20.24" cx="37.774" fill="#3b6e8f"/><circle r="2.974" cy="41.499" cx="41.503" fill="#3b6e8f"/><circle r="2.974" cy="37.719" cx="30.614" fill="#3b6e8f"/><circle r="2.975" cy="9.299" cx="9.406" fill="#3b6e8f"/><circle r="2.974" cy="13.081" cx="20.295" fill="#3b6e8f"/><circle r="2.975" cy="48.132" cx="25.417" fill="#3b6e8f"/><circle r="2.974" cy="37.759" cx="20.391" fill="#3b6e8f"/><circle r="2.974" cy="2.666" cx="25.492" fill="#3b6e8f"/><circle r="2.974" cy="13.042" cx="30.517" fill="#3b6e8f"/><circle r="2.974" cy="30.463" cx="37.813" fill="#3b6e8f"/><circle r="2.975" cy="25.363" cx="2.641" fill="#3b6e8f"/><circle r="2.973" cy="20.336" cx="13.094" fill="#3b6e8f"/></svg>
