<svg xmlns="http://www.w3.org/2000/svg" xml:space="preserve" viewBox="0 0 1026 274"><path fill="#eeef9f" d="M124 273h8zm-11-1h2q1 1-1 1zm31 0h3l-2 1q-3-1-1-1m8-1h3l-1 1zm7-1h2q1 1-1 1zm5-1h2q1 1-1 1zm41-18 2-1q3-3 1 0-3 3-3 1m5-3 8-8 8-8-7 8zm67-1h3zq-3-1-1-1m19 0h2q1 1-1 1zm-245-2q-2-3 1 0l2 1q0 2-3-1m-15-15q-2-3 1 0l2 1q0 2-3-1m301 0 2-1q3-3 1 0-3 3-3 1m-108-2h1q2 1-1 1zm84-3h5l-3 1q-5-1-2-1m-188-7 1-1q3-3 1 0zm225-1 2-1q3-3 1 0-3 3-3 1m0-8 3-2-2 2-2 3zm-237-2-2-3zl2 2zm27-4 2-2-1 2-2 2zm134 0q-2-3 1 0l1 2zm-165-1q-2-3 1 0l2 1q0 2-3-1m35-4 1-1q3-3 1 0zm226-16 1-3 1-1q0 4-2 4m-277-9q-2-3 1-1v2zm174-13 1-3 1-2-1 4zm3-7v-2l1-1zq0 2 0 0m2-5v-2l1-1zq0 2 0 0M1 143q0-1 0 0v2zm82-2q0-1 0 0v2zm292-8v-1 2zm-194-1 1-3 1-2-1 4zm276-2v-1 2zm-83-2q0-1 0 0v2zm-92-4 1-3 1-2-1 4zm174-1q0-1 0 0v2zm-85-7q0-1 0 0v2zm-177-11 5-12zm108-19 3-5q2 0-1 4-5 6-2 1M83 86v-1zl-1 2zm361-3q-2-3 1-1v2zm-138-4 2-1q3-3 1 0-3 3-3 1m48-1v-2l1 2 1 2zm86-4q-3-8 1-1l1 4zm-131 1 2-1q3-3 1 0-3 3-3 1m5-6 3-2-2 2-2 3zm33-2q-2-3 1 0l1 1zm-29-2 3-3 2-2-2 3zm-9-2q-10-4-12-7l-2-2-6-5-1-3-5-9c-2-6-3-8-2-15 0-12 0-13 4-15q6-3-4 0l-5 1 17-5c11-2 34-4 45-3a138 138 0 0 1 36 8l-6-1q-12-4-6 0 4 1 4 4v22l-1 5-7 2c-7 2-18 7-22 10-2 2-2 2 4 8l6 6-6-5q-5-6-7-6l-5 3-5 4-4 2q-2 4-10 1m-129-1q-2-3 1 0l1 2zm-83 0 2-1q3-3 1 0-3 3-3 1m9-9 2-1q3-3 1 0-3 3-3 1m319-4q-2-3 1 0l2 1q0 2-3-1m-322-1 1-1q3-3 1 0-3 3-3 1m319-3q-2-3 1 0l1 2zm-193-5q-2-3 1 0l2 2zm184-5-7-8zl7 8zm-266 5h2q1 1-1 1zm93-8 7-7zl-7 7zm-127 5 2-1q3-3 1 0-3 3-3 1m289-12q-2-3 1 0l1 2zm-153-2 2-1q3-3 1 0-3 3-3 1m149-1q-2-3 1 0l1 2zm-216-4h2q1 1-1 1zm-22-1h3l-1 1zm10 0h4l-2 1zm208-6v-1l2 1 1 1zm-107-1 3-1-1 1z"/><path fill="#ced802" d="M259 160h-3v-1q1-2-1-2l-4-3-5-2-1-1-2-1-2-2-2-1-4-3-4-2-2-2-2-2-2-2-3-2-11-11-4-5-3-5-3-2-1-2-1-2-1-2-1-1v-1l1-1q1 1 0 0l1-5 2-4v1l-1 1c-1-1 7-17 15-30q20-32 43-47c8-5 20-10 27-12h3l-3 1c-4 2-4 3-4 15-1 7 0 9 2 15l7 12 5 5 2 2c2 2 12 7 17 8q3 1 6-2l-1 2a251 251 0 0 0-45 78q-2 1-2 4l-1 1q-2 2-1 3v1l-4 5-2 4-1-1zm190-60 1-1 1 1-1 2zm-1-3 1-1 1 1zm-3-5q-6-12-17-26-22-26-48-27-14-1-14 1h3c2-1-3 21-5 24l-2 4-1 5q-3 6-5 3l-2-1v-1l-1-2v1q0 2 0 0l-1-2-1-1-1-1-2-3-1-1-6-6c-7-7-7-7-5-9 4-3 15-8 22-10l7-2 1-5V11q0-3-3-4c-7-2-2-2 5 0q25 8 47 30a92 92 0 0 1 17 23c3 3 10 17 9 18l1 2 1 1-1 1q0 2 2 1v2l1 2v1l1 1v2l1 1v1l1 1q0 3-3-2m-81-52h-3l1 1zm-6 39 1 1z"/><path fill="#adc806" d="m105 229 3-2 1-2 1-3 2-4v-5l1-2q-2-4 2 0l6 5 4 3-7 4q-6 5-8 3-2 0-1 1 3 0-2 2-8 3-2 0m10-15q-3 2-1 2zm126-8q2 1 2-1 3-5 0-2l-1 1-2-2c-2 1-8-1-7-2l-2-1-7-4-6-3-5-4-5-3h-1l-1-1-1-2-2-2-6-4-4-3-9-7-5-5-1-1q1-4-2-5h-1l-1-1v-1l1-4 1-1 1-3 22-47-1 5q1 2 0 0l-2 1 1 1 1 1 1 2 1 2 1 2 2 2 4 5 4 5 11 11 2 2 3 2 2 2 2 2 4 2 4 3 2 1 2 2 1 1 2 1 4 2 5 3q2 0 1 2v1h4l3-1v1q1 1 4-6l4-7c1 1-14 35-21 47-8 14-8 15-9 12m31-61v-2l1-1zq0 1 0 0m103-21-2-3-1-3-3-11a162 162 0 0 0-20-40l5 5q2 5 4 5l4-9 2-4c2-3 7-25 5-24h-3q0-2 13-1c12 0 25 5 24 8q0 2 1 1l1-1h1q4 2 1 1l-1 5-1 6-1 2-4 13v2l-3 7-3 9q-1 6-5 10l-1 2-1 3q-3 1-2 4 0 2-3 3l-3 4q0 3-2 3l-1 2q2 3-1 1m-15-45-1-1-1 1 1 1zm87 17 1-1 1 1zm-1-2 1-2zm-2-8-2-5 4 9zm-98-22q-2-3 1 0l1 2zm75-5-2-3zl3 2q0 2-3-1m-7-6-2-3zl2 3zm-53-13h3l-2 1z"/><path fill="#8eb81d" d="m212 243-1-3v1q0 2-3 0l-3-1-4-2-2-1-3-2-4-3-6-4-6-4q-1 1-3-2l-4-3-5-4-1-1-3-2-2-2-3-3-4-3q-2 0-2-3l-4-2q-2 0-2-2l1-3v2q3-1 2-4l1-2v1q-1 1 0 0l1-2 4-5q1 2 0 0l3-7 15-27q-2 5 1 3l1 1q0 1 0 0 3 1 2 5l1 1 5 5 9 7 4 3 6 4 2 2 1 2 2 1q0 1 0 0l5 3 5 4 6 3 7 4 2 1c-1 1 5 3 7 2l2 2 1-1h2l2-3 3-4c1 0-5 11-8 14l-1 1v-1l-1 2c2 3-22 31-25 29l-1 1zm32-40-1 1q0 2-2 1v1q1 3 2 0zM70 233q-9-2-2-2h3l-2-1 1-1c1 1 2-10 2-14v-1q2 1 2-8-1-1 1-3l1-3 4-19 5-12 2-4 3-4-1 3v2h2v3l1 1v3l6 9q9 18 19 29l7 7-6-5q-6-5-5-2l-1 2v5l-2 4-1 3-1 2-3 2-2 2h-2q-2 0-1 1c2 2-21 4-30 1m35-3 3-1-1 1zm5-2-1-1 2-1q4-1 0 2zm2-13 2-1h1q-2 4-3 1m18-2 4-3 3-3-3 4q-4 4-4 2m123-24 3-5zl-3 5zM84 163l1-1v3zm91-17 1-2 1 1zM71 136h8zm305-2v-5l-1-2-1-2 2-1q1 1 1-1l1-2q2 0 2-3l3-4q3-1 3-3 0-3 2-4l1-3 1-2q4-4 5-10l3-9 3-7v-2l4-13 1-2 1-6q1-5-2-5l-1-1v-1c1 0 12 7 16 11 5 4 14 15 11 13l1 2 2 1v2l2 1 1 1q1 2 0 0l-1 1q0 2 1 1l1 2v2l1 3v2l1 1-2 2-3 6-3 7v3l-3 7-3 6-3 6-4 6q0 3-2 3l-21 2h-19z"/><path fill="#62a82c" d="M116 272h2q1 1-1 1zm22 0h3l-1 1zm10-1h3l-1 1zm7-1h3l-1 1zm-12-3-4-2-3-3-6-4-4-4q-1-3-1-1-2 1-3-2l-1-2-2-1-1-1q-2 1-2-1t-2-3l-2-3h-1q-2 0-1-1l-1-2h-2l-2-2v-1l2-1v-1q0-3 1-1 2 0 1-1v-1q4 1 4-1l3-3q15-10 32-31l5-5-5 8q-3 1 1 2l4 2q0 3 2 3l4 3 3 3 3 2 2 2 2 1 4 4 4 3q2 3 3 2l6 4 6 4 4 3 3 2 2 1 4 2 3 1q3 2 3 0v-1l1 3h1l1-3q-1 0 0 0 2 1 5-2l-4 5c-12 11-32 23-41 23l-3 1-2 1h-2q3-1 0-1l-5 1q-3 0 0 1h-8c-8 1-9 0-11-2m139-20h3zq-3-1-1-1m11 0h2q1 1-1 1zm-245-5-2-3zl3 2q0 2-3-1m199-4q1-1-1-1h-1q1-1-1-1h-1q1-1-1-1h-1q1-1-1-1h-2v-1h1l-2-1h-2c-6-4-6-3 4-18l14-24 6-11 3 5 5 9 2 4 2 2 1 1 1 4 4 4-1-2 4 3 5 6-4-4-4-3 2 3-2 2q-4 1-4 4v1c-1-1-10 8-10 9l-1 1-5 4q-5 4-6 3l-2 1zm-167-3h8zm-41-2q-2-3 1 0l1 2zm32 1h3l-2 1zm23 0h2q1 1-1 1zm-34-4-13-8c-7-5-18-17-17-18v-5l1-1-1-1v-1l1-5q0-4 2-4v-3l1-6 1-5 2-5 1-4 2-2 1-3 1-4 1-4 2-2 1-2 1-4 1-2v-2l8-1c4-1-7-1-25-1l-31-1h70c11 1 12 1 12 4l6 25-1 1-2 3c1 0-3 11-5 12l-4 19-1 3q-2 2-1 3 0 9-2 8v1c0 4-1 15-2 14l-1 1 2 1h-7l3 1q3 2 1 2zm25-67v-1zl1 2zm15 69h3l-5 2zm247-12 2-1q3-3 1 0-3 3-3 1m6-14 2-1q3-3 1 0-3 3-3 1m-325-3-1-2 2 1v1zM1 140q0-1 0 0v2zm408-4q9-1 9-3l4-7 2-6 3-6q3-4 3-7l1-3 3-7 3-6 2-2-1-1v-2l-2-6-3-4-2-4 3 3 16 29q7 18 6 27 0 3 1 2 0-2 0 0l-1 3zM198 91l-4-9-4-8-2-2v-1l-1-1-1-2-1-1-1-2q3 2 0-1v-4l7-5 19-17v-1q-1-2 4-1v-3h5l2 1 6 4 4 4-2 2a393 393 0 0 0-31 47m30-51-1-1q-3-3-1 0zm201 30q-2-3 1 0l2 1q0 2-3-1M178 59l-2-3zl2 2zm-6-6-2-3zl2 3zm-63-11 4-4zl-4 4zm29-3h5l-3 1q-5-1-2-1m27-22h3zq-3 0-1-1"/><path fill="#209636" d="M116 272q-67-10-97-71a197 197 0 0 1-18-61v-3h31c17 0 28 0 24 1l-8 1v2l-1 2-1 4-1 2-1 2-2 4-1 4-1 3-2 2q1 2-1 4l-1 5-2 5-1 6v3q-2 0-2 4l-1 5v1l2 1-2 1v5c-1 1 10 13 16 18 19 15 43 18 61 8l6-2-3 2-3 3v1h-2v1l2 2h2l1 2q-1 1 1 1h2l2 3 2 3q0 2 1 1l2 1 1 1 2 2q0 3 2 2 1-2 1 1l4 4 6 4 3 3 4 2q3 3 5 3l19-2c-6 2-42 6-51 4m-87-70-2-1q1 3 2 2zm249 45-14-3c-7-1-23-9-27-12l5 2q9 5 7 2l2-1q2 1 6-3l5-4 1-1c0-1 9-10 10-9v-3l4-2 2-2-3-5q28 30 60 14 18-9 30-30 7-12 0 2c-17 38-50 59-88 55m174-111h5l-2 1zM85 82c-1-2 8-19 13-26 7-11 20-23 31-28a90 90 0 0 1 93 8l-2-1q-7-4-6-1v2q-5-1-4 1v1l-19 17-6 5-2 1h1q1 0 0 0l1 3-6-5q-12-13-25-18c-7-2-21-2-29 1q-22 9-37 35zm141-43q-2-3 1 0l1 2z"/><path fill="#090909" d="m449 264 9-27 9-26h12l3 7 15 46-5 1q-5 0-6-7l-3-7h-20l-3 7-2 6-4 1zm31-22-7-20-4 10-3 11 7 1q9 1 7-2m44-4 1-27 2-1q8-6 7 9v11l3-3c4-3 4-3 10-3q6 0 9 4 8 8 6 22-3 14-17 15-5 0-8-3l-4-3v3q1 2-4 3h-4zm23 19c7-4 7-21 1-25l-5-1q-9 1-10 13 1 17 14 13m24 7v-20c0-21-1-21 5-22q4-1 4 4v4l3-3q3-3 7-3 4-1 4 4t-4 4c-8 0-11 4-10 20v12zm32-1c-7-4-7-16 1-19l9-3q12-1 11-4c0-6-10-8-14-4q-2 3-6 2-6-1-3-5c5-6 17-8 25-4 6 3 7 6 6 23v15h-4q-5 1-5-3 0-3-1-1c-2 5-13 6-19 3m14-5q7-4 7-10c0-3-1-3-12-1q-9 5-2 11zm26 6-1-20 1-19 2-1q6-4 7 3 0 6 1 2c3-5 13-7 18-4 6 3 7 6 7 23v16h-8v-14c-1-14-1-14-4-17q-4-3-9-1c-4 2-5 4-5 19l-1 14h-3zm54 0q-7-4-9-14-3-9 2-18 3-8 13-8c5 0 5 0 9 3l3 3 1-10v-10l4-1h4v28l1 28h-5q-5-1-4-3v-3l-4 3q-3 3-8 3zm14-8q5-4 5-12 0-12-10-13-5-1-8 5c-2 3-2 13 0 17q6 7 13 3m52 7q-13-8-9-26 3-12 17-13 9 0 14 5c9 8 7 26-2 33q-9 5-20 1m13-6c7-3 8-18 2-24q-5-3-11-1c-2 1-5 8-5 12s3 11 5 13zm26 7v-33h-3q-4 0-3-4-1-3 3-3 2 0 3-5 1-8 9-10 7-2 10 1v3q-1 3-4 3-6-1-5 5-1 3 3 3 5 0 4 4 2 4-3 3h-4l-1 17v16l-4 1zm45 0v-53h13c14 0 18 1 24 7q7 7 6 22 0 9-3 13-5 8-14 11zm24-8c9-3 14-18 8-29q-3-9-16-9h-7v38zm38 7q-7-3-10-13c-3-14 5-26 18-26q15 0 19 14c2 9 2 9-14 9h-15l1 3 3 5c3 3 12 3 14 0q4-3 9-1 3 1 0 3-5 8-14 8zm18-24c1-3-5-8-9-8-5 0-12 6-10 9l10 1zm18 25v-53l3-1c6-2 6-4 6 27v28h-4zm25-2-3-3v-14l-1-14h-2q-4 0-3-6l3-1q3 1 3-5 0-5 2-5 8-4 7 4v6h4q4-1 4 3t-4 4h-4v11q-1 17 5 16 2-1 3 3 2 4-6 4-5 0-8-3m26 1q-6-5-5-13 2-7 13-8c13-2 14-4 11-9q-4-4-12 0-3 4-9 1c-3 0 2-6 6-8q9-4 18-1l5 5c2 3 2 5 2 19v15h-4q-4 1-4-2 0-5-2-2c-2 5-12 6-19 3m15-6 4-3c2-2 2-8 1-8-4 0-14 2-15 4q-3 4 2 8 3 2 8-1m-275-82c-6-2-6-1-6-63l1-58h-43l1-8v-9h100v17h-41l-1 10v59c0 46-1 48-2 50l-3 2zm174-1 1-134q4-4 10-3c6 3 5 1 5 72v65zm60-31c-37-35-37-35-34-43q2-4 24-25l32-30c8-7 9-8 12-8q11 2 6 12a699 699 0 0 1-57 55 937 937 0 0 0 67 65l6 6h-22zm-444-35 1-68c3-3 8-3 46-3h35v16l-33 1h-34v45h29c34 0 35 0 35 8s-1 9-35 9h-29v42h67v16h-83zm117 65q-7-3-11-9c-2-3-2-8-2-64V41l3-3q5-4 10 0l3 3 1 57 1 58 33 2h32v16h-34zm162-65 1-65 2-3 2-3h78v9l1 8h-67v45h28c35 0 36 0 36 9q0 4-4 6c-3 2-5 2-32 2h-28v42h67v16h-83z"/></svg>