<svg xmlns="http://www.w3.org/2000/svg" xml:space="preserve" viewBox="0 0 740 153"><path fill="#06a7de" d="M21 152q-19-6-21-25-1-12 8-21 8-10 21-9c9 1 13 3 22 11q6 7 12 9 17 9 35 4l4-2v6l-1 5-6-1q-16-5-33 4l-12 10-13 9zm109 0-10-7c-8-9-10-17-6-32q6-26-11-45l-5-5 5-2 4-3 2 7q3 10 11 18 9 10 23 14 18 4 23 18 5 17-6 29c-7 8-20 11-30 8m106-10-7-2-14-5a62 62 0 1 1 73-99l2 2-6 7-7 6-5-4a43 43 0 0 0-68 13l-3 8 44 1 43 1v19h-43l-44 1 3 9c13 25 46 32 68 12l5-4 7 7 6 6-6 6c-6 6-18 12-26 14zm128-1c-19-3-36-17-45-34-7-13-7-18-7-57V17l10-1h9v33l1 38q2 14 13 23 10 11 25 12l9 2v18h-5zm59-51V38l-2-1c-2-2-6-2-20-2h-18V17h98l1 9v9h-18c-14 0-18 0-20 2l-2 1v104h-19zm123 51q-19-4-34-18a63 63 0 0 1 5-93q18-13 39-13 25 0 42 16l6 5-6 7-8 6-3-3q-10-10-27-12c-10-2-26 4-34 12q-8 9-12 19v2h44l43 1 1 9v10h-88v2c6 21 29 35 49 31q13-3 23-11l5-4 7 6 6 7-4 4q-13 12-32 17zm76 0c-5-1-8-8-6-12l25-26 23-24-23-24-25-26c-3-6 4-15 11-12l27 25 24 24 24-25q23-23 27-24 6-1 10 4l1 6c0 3-1 5-24 28l-25 24 25 24c23 24 24 25 24 28l-1 6q-4 5-10 5l-27-25-24-24-24 23-26 25zM47 92l-5-3 4-4q20-18 12-46-7-26 14-37c18-8 40 6 40 26q0 22-25 28-13 4-22 12c-5 5-10 15-12 22l-2 5z"/></svg>