<svg xmlns="http://www.w3.org/2000/svg" xml:space="preserve" viewBox="0 0 934 141"><path fill="#3486ce" d="M486 140q-42-9-56-46a70 70 0 0 1 48-91c39-11 78 10 90 48q2 5 2 20c0 14 0 15-3 23q-6 16-19 27a69 69 0 0 1-48 20zm24-28q17-6 25-22c3-6 3-7 3-19s0-14-3-19c-8-19-29-28-49-22q-26 8-28 38-1 9 2 16 4 14 14 22c10 6 25 9 36 6m140 28c-7-1-20-6-25-9a68 68 0 0 1-33-51c-4-33 14-63 44-75 19-7 45-6 63 2l16 12-17 22-8-4c-9-7-15-8-28-8q-10 0-15 2c-22 10-31 38-20 61q6 11 19 18c5 2 7 3 17 3 11 0 12 0 20-3l8-3V96l1-10h-31V60h59v60l-5 4q-14 9-30 14c-8 2-28 4-35 2m216 0c-36-8-59-37-57-73 1-30 21-55 49-64 7-2 10-2 22-2 16 0 23 1 34 7 7 3 18 11 18 13l-9 11-9 11-3-2c-12-10-18-12-29-13-21-1-38 13-42 36-2 16 5 34 17 42a43 43 0 0 0 53-4l5-5 9 9 9 11-5 6a66 66 0 0 1-46 18zM320 70V3h30v108h67v27h-98zm431 0V3l15-1h14v136h-30z"/><path fill="#89dbe8" d="M53 140c-8-2-20-7-25-11Q10 115 3 95c-3-8-3-10-3-24 0-13 0-16 2-23C12 19 36 0 65 0q39 0 57 35c6 12 10 33 8 42l-1 4H79l-50 1 6 15q6 10 17 16c15 6 36 3 49-8l5-4 13 11 5 4-5 5q-11 11-27 17l-21 3zm46-81c0-3-3-14-5-17q-5-9-14-14c-4-2-6-2-15-2s-11 0-15 2q-10 6-15 16c-2 4-6 13-6 16l35 1c33 0 35 0 35-2m64 11V3h29v10l1 10 3-3 14-13c13-8 33-9 49-2 10 4 19 17 23 30 2 7 2 7 2 60l-1 43h-29l-1-44c0-43 0-44-2-49q-5-11-15-15l-13-2q-9-1-13 3-14 6-17 24l-1 45 1 38h-31z"/></svg>