<svg width="592" height="117" xmlns="http://www.w3.org/2000/svg" data-name="Layer 2">
 <g>
  <title>Layer 1</title>
  <path d="m213.38,84.7l0,11.25l-43.5,0l0,-70.08l43.5,0l0,11.34l-31.59001,0l0,18.13999l28.22,0l0,10.55l-28.22,0l0,18.8l31.59001,0l0,0.00001z" class="cls-2" stroke-width="0" fill="#18bcf2" id="svg_3"/>
  <path d="m246.45,24.6c6.41,0 11.73,1.56 15.98,4.69c4.25,3.12 6.86002,7.3 7.83002,12.52l-11.20001,3.05c-0.62997,-3 -2.09,-5.31 -4.37999,-6.94c-2.29999,-1.62 -5.12999,-2.44 -8.50999,-2.44c-3.62999,0 -6.5,0.87 -8.62,2.6c-2.13,1.73 -3.19,4.04 -3.19,6.91c0,4.53 2.81,7.47 8.44,8.81l11.44,2.86c5.91,1.53 10.32999,3.96 13.26999,7.29c2.94,3.32999 4.41,7.42999 4.41,12.3c0,6.25 -2.27002,11.3 -6.80002,15.16c-4.53,3.85999 -10.59,5.78999 -18.19,5.78999c-6.84,0 -12.63,-1.61 -17.34,-4.82999c-4.66,-3.34 -7.41,-7.75 -8.25,-13.22l11.2,-2.91c0.41,3.09 1.95,5.52 4.62,7.27c2.67,1.75 6.07001,2.62 10.2,2.62s7.08,-0.84 9.35001,-2.50999c2.26999,-1.67001 3.39999,-3.94 3.39999,-6.82c0,-4.5 -2.81,-7.47 -8.43999,-8.91l-11.44,-2.77c-5.87999,-1.34 -10.28999,-3.73 -13.23999,-7.15s-4.43001,-7.6 -4.43001,-12.54c0,-6.19 2.2,-11.21 6.59,-15.07c4.39,-3.86 10.16,-5.79 17.32002,-5.79l-0.02,0.03l-0.00002,-0.00001z" class="cls-2" stroke-width="0" fill="#18bcf2" id="svg_4"/>
  <path d="m333,48.7c0,6.88 -2.09,12.44 -6.26001,16.69c-4.16998,4.25 -9.78998,6.38 -16.84998,6.38l-15.75,0l0,24.19l-11.91,0l0,-70.08999l27.75,0c7.12,0 12.73999,2.06 16.84998,6.16c4.11002,4.11 6.16,9.66 6.16,16.66l0.01001,0.01l0,-0.00001zm-12.47,-0.28c0,-3.53 -1.10001,-6.4 -3.29999,-8.6s-5.32001,-3.3 -9.35001,-3.3l-13.73001,0l0,24.8l13.55002,0c4.12,0 7.29999,-1.17 9.51999,-3.52s3.32999,-5.47 3.32999,-9.38l-0.01999,0z" class="cls-2" stroke-width="0" fill="#18bcf2" id="svg_5"/>
  <path d="m342.67999,25.87l11.91,0l0,29.3l30.88998,0.09l0,-29.39l12,0l0,70.08l-12,0l0,-30.14l-30.88998,-0.09l0,30.23l-11.91,0l0,-70.08z" class="cls-2" stroke-width="0" fill="#18bcf2" id="svg_6"/>
  <path d="m432.32999,47.29c7.25,0 13.16,2.33 17.72,6.98c4.56,4.66 6.84,10.64 6.84,17.95s-2.28,13.25 -6.84,17.91c-4.56,4.66 -10.47,6.98 -17.72,6.98s-13.25,-2.33 -17.81,-6.98c-4.56,-4.66 -6.84,-10.62 -6.84,-17.91s2.28,-13.34 6.84,-17.98s10.5,-6.96 17.81,-6.96l0,0.01zm0,39.61c3.88,0 7.01999,-1.37 9.45001,-4.1c2.41998,-2.73 3.63,-6.29 3.63,-10.66s-1.21002,-7.91 -3.63,-10.62c-2.42001,-2.7 -5.57001,-4.05 -9.45001,-4.05s-7.16998,1.35 -9.60999,4.05c-2.44,2.7 -3.66,6.24 -3.66,10.62s1.22,7.93 3.66,10.66c2.44,2.74 5.63998,4.1 9.60999,4.1z" class="cls-2" stroke-width="0" fill="#18bcf2" id="svg_7"/>
  <path d="m537.87,65.81l0,30.14l-11.02002,0l0,-28.41c0,-3.28 -0.83997,-5.84 -2.52997,-7.69c-1.69,-1.84 -3.98004,-2.77 -6.89001,-2.77c-3.09003,0 -5.56,1.01 -7.41,3.02c-1.84,2.02 -2.76999,4.84 -2.76999,8.46l0,27.38l-11.16,0l0,-28.41c0,-3.28 -0.82001,-5.84 -2.45999,-7.69c-1.63998,-1.84 -3.90997,-2.77 -6.82001,-2.77c-3.09,0 -5.57999,1.01 -7.45001,3.02s-2.81,4.84 -2.81,8.46l0,27.38l-11.34,0l0,-47.34l10.55002,0l0.38,4.55c2.75,-4.03 7.22998,-6.05 13.44998,-6.05c3.62,0 6.76999,0.75 9.42001,2.25c2.66,1.5 4.66998,3.69 6.04999,6.56c1.16,-2.75 3.07001,-4.91 5.73999,-6.47c2.66998,-1.56 5.84998,-2.34 9.54004,-2.34c5.36993,0 9.63995,1.66 12.79999,4.97c3.15997,3.31 4.72998,7.89 4.72998,13.73l0,0.02z" class="cls-2" stroke-width="0" fill="#18bcf2" id="svg_8"/>
  <path d="m592.88,76.45l-36.27997,0c0.37994,3.56001 1.71997,6.28001 4.02997,8.16s5.25,2.81 8.81,2.81c5.78003,0 9.83002,-2.41 12.14001,-7.22l9.46997,3.75c-1.77997,4.16 -4.58997,7.41 -8.40997,9.75s-8.22998,3.52 -13.20001,3.52c-7,0 -12.67999,-2.29 -17.03998,-6.87c-4.35999,-4.58 -6.54004,-10.59 -6.54004,-18.02s2.20001,-13.48 6.59003,-18.14c4.39001,-4.66 10.13,-6.98 17.22998,-6.98s12.58002,2.3 16.83002,6.89s6.38,10.64 6.38,18.14l0,4.22l-0.01001,-0.01zm-36.09003,-7.96999l24.56,0c-0.21997,-3.84 -1.38,-6.77 -3.48999,-8.79s-4.95001,-3.02 -8.51001,-3.02s-6.40997,1.02 -8.62,3.07c-2.21997,2.05 -3.53003,4.96 -3.94,8.74z" class="cls-2" stroke-width="0" fill="#18bcf2" id="svg_9"/>
  <g id="svg_15">
   <path d="m120,109.38c0,4.12 -3.38,7.5 -7.5,7.5l-105,0c-4.12,0 -7.5,-3.38 -7.5,-7.5l0,-45c0,-4.12 2.39,-9.89 5.3,-12.8l49.4,-49.39c2.92,-2.92 7.69,-2.92 10.61,0l49.39,49.39c2.92001,2.92 5.3,8.68 5.3,12.8l0,45z" class="cls-2" stroke-width="0" fill="#18bcf2" id="svg_16"/>
   <path d="m80,39.21l-40,0c-1.66,0 -3,1.34 -3,3l0,74.67l6,0l0,-71.67l34,0l0,6l-25,0c-1.66,0 -3,1.34 -3,3l0,12c0,1.66 1.34,3 3,3l25,0l0,6l-25,0c-1.66,0 -3,1.34 -3,3l0,12c0,1.66 1.34,3 3,3l25,0l0,6l-25,0c-1.66,0 -3,1.34 -3,3s1.34,3 3,3l28,0c1.66,0 3,-1.34 3,-3l0,-12c0,-1.66 -1.34,-3 -3,-3l-25,0l0,-6l25,0c1.66,0 3,-1.34 3,-3l0,-12c0,-1.66 -1.34,-3 -3,-3l-25,0l0,-6l25,0c1.66,0 3,-1.34 3,-3l0,-12c0,-1.66 -1.34,-3 -3,-3z" class="cls-1" fill="#f2f4f9" stroke-width="0" id="svg_17"/>
  </g>
 </g>

</svg>