<svg xmlns="http://www.w3.org/2000/svg" data-name="Layer 2" viewBox="0 0 592 117"><path fill="#18bcf2" d="M213.4 84.7V96h-43.5V25.9h43.5v11.3h-31.6v18.2H210v10.5h-28.2v18.8zm33-60.1q9.7 0 16 4.7t7.9 12.5l-11.2 3q-1-4.4-4.4-6.9a14 14 0 0 0-8.5-2.4q-5.5 0-8.6 2.6a9 9 0 0 0-3.2 6.9q0 6.8 8.4 8.8l11.4 2.9q9 2.3 13.3 7.3a18 18 0 0 1 4.4 12.3 19 19 0 0 1-6.8 15.1 27 27 0 0 1-18.2 5.8 30 30 0 0 1-17.3-4.8 19 19 0 0 1-8.3-13.2l11.2-3q.6 4.7 4.7 7.3c4 2.6 6 2.6 10.2 2.6s7-.8 9.3-2.5a8 8 0 0 0 3.4-6.8q0-6.7-8.4-9l-11.5-2.7q-8.9-2-13.2-7.1c-4.3-5.1-4.4-7.6-4.4-12.6q0-9.3 6.5-15a25 25 0 0 1 17.4-5.8M333 48.7q0 10.3-6.3 16.7a23 23 0 0 1-16.8 6.4H294V96h-11.9V25.9H310q10.7 0 16.8 6.1 6.2 6.2 6.2 16.7m-12.5-.3q0-5.3-3.3-8.6c-3.3-3.3-5.3-3.3-9.3-3.3H294v24.8h13.6q6.2 0 9.5-3.5c3.3-3.5 3.3-5.5 3.3-9.4M342.7 26h11.9v29.3h30.9V26h12v70h-12V66l-31-.2V96h-11.8zm89.6 21.4q11 0 17.7 7 6.9 6.9 6.9 18c0 11-2.3 13.2-6.9 17.8q-6.7 7-17.7 7c-11 0-13.2-2.3-17.8-7q-6.8-7-6.8-17.9c0-10.9 2.3-13.3 6.8-18s10.5-7 17.8-7m0 39.6q5.9 0 9.5-4.1t3.6-10.7c0-6.7-1.2-7.9-3.6-10.6q-3.6-4-9.5-4c-5.9 0-7.1 1.3-9.6 4q-3.6 4.1-3.6 10.6c0 6.5 1.2 8 3.6 10.7q3.7 4 9.6 4.1m105.6-21v30h-11V67.6a11 11 0 0 0-2.6-7.6 9 9 0 0 0-6.9-2.8q-4.5 0-7.4 3-2.7 3-2.7 8.5V96H496V67.5q0-4.8-2.5-7.7a9 9 0 0 0-6.8-2.7q-4.6 0-7.4 3c-2.8 3-2.8 4.8-2.8 8.5v27.3h-11.4V48.6h10.6l.3 4.5q4.2-6 13.5-6 5.5 0 9.4 2.2t6 6.6q1.8-4.1 5.8-6.5 4-2.3 9.5-2.3 8.1 0 12.8 5a19 19 0 0 1 4.8 13.7m55 10.5h-36.3q.6 5.4 4 8.2c3.4 2.8 5.3 2.8 8.8 2.8q8.7 0 12.2-7.2L591 84q-2.5 6.2-8.4 9.7a20 20 0 0 1-13.2 3.5q-10.5 0-17-6.9-6.6-6.7-6.5-18c0-11.3 2.2-13.4 6.6-18.1s10-7 17.2-7 12.6 2.3 16.8 6.9 6.4 10.6 6.4 18.1zm-36.1-8h24.6q-.4-5.7-3.5-8.7c-3.1-3-5-3-8.6-3s-6.4 1-8.6 3q-3.3 3-4 8.8m-436.8 41c0 4.1-3.4 7.5-7.5 7.5H7.5a7.5 7.5 0 0 1-7.5-7.5v-45c0-4.1 2.4-10 5.3-12.8L54.7 2.2c3-3 7.7-3 10.6 0l49.4 49.4c3 2.9 5.3 8.7 5.3 12.8z" class="cls-2"/><path fill="#f2f4f9" d="M80 39.2H40a3 3 0 0 0-3 3V117h6V45.2h34v6H52a3 3 0 0 0-3 3v12a3 3 0 0 0 3 3h25v6H52a3 3 0 0 0-3 3v12a3 3 0 0 0 3 3h25v6H52a3 3 0 1 0 0 6h28a3 3 0 0 0 3-3v-12a3 3 0 0 0-3-3H55v-6h25a3 3 0 0 0 3-3v-12a3 3 0 0 0-3-3H55v-6h25a3 3 0 0 0 3-3v-12a3 3 0 0 0-3-3" class="cls-1"/></svg>