<svg xmlns="http://www.w3.org/2000/svg" xml:space="preserve" viewBox="0 0 250 158"><path d="M0 140v-18h28v8h-9c-8 0-8 0-8 2 0 3 0 3 8 3h8v8H11v7h18v8H0zm36 6v-11h-2q-3 0-3-2 0-3 3-2t2-5q0-4 2-4 3 0 2 4-1 6 3 5 3-1 3 2 0 2-3 2h-3v11c0 11 0 12-2 12s-2-1-2-12m12-6c0-15 1-18 2-18q2 0 2 6t2 4l6-1q14-3 13 18 0 11-2 9-3 2-2-10c-1-12-2-13-8-13q-9-2-9 13 1 12-2 10c-2 0-2-1-2-18m37 16c-10-5-11-18-1-24 9-6 22-1 24 10v3H95c-12 0-13 0-13 2q1 6 11 7 4 0 7-3 6-5 7-3-1 4-7 8-7 3-15 0m17-18c-3-6-13-7-18-2l-2 4 11 1h10zm9 6 1-13 2 1h2l3-1q3 1-1 4c-2 1-3 2-3 12s0 11-2 11-2-1-2-14m14-3-3-18 5-1c6 0 6 0 8 9l2 8 3-7 4-9 6-1h4l4 9q3 15 5-1l2-7h11l-3 17-5 17-6 1h-7l-3-10-3-10-4 10-3 10h-13zm46 16 13-34 7-1h5l7 16c8 22 8 20 1 20q-7 1-7-3 2-4-7-3-7-1-7 3t-6 3zm22-17-2-6q-1-2-2 3l-2 6 3 1h4zm21 0v-18h11l7 10 6 9 1-9v-10h11v36h-6l-5-1-7-9-7-9v19h-11z"/><path fill="#4d3c80" d="M108 113q-9-2-10-13c0-9 2-16 9-31l5-12-4 2c-12 9-26 4-26-8q0-7 11-18c5-6 20-16 28-20l6-4 7-4 6-4q3-2 2 1l-2 2-3 2-3 3q-6 4-7 7l3-1q4-3 5-2l6-3 6-4-15 14c-9 7-21 19-21 20q2 5 12-4l29-18h1q4 0-1 4l-3 3q-2 3 2 1l6-5 5-3c1 0-6 7-8 7l-2 4-2 2v-1q2-2-3 1l-2 2h1q4-2 0 3c-3 2-5 6-3 4l-2 3q-6 8 1 2 9-7 1 3l-9 8c-3 4-5 10-3 10l17-8 23-13q2 1 11-6l10-6 7-4 7-4-5 4-5 5-9 8-5 5-6 6q-7 4-6 5l2-1 5-4q7-3-3 6l-3 5 18-12-2 3-6 5-4 3-5 4-6 3-1 2-1 2-18 18c-21 22-27 26-38 21m73-62 2-2 2-2q0-2 7-7v1q-2 3-5 4l-2 1 1 1v2z"/></svg>