<svg version="1.1" viewBox="0 0 185 82.2" xmlns="http://www.w3.org/2000/svg"><g transform="translate(-13.7 -108)" stroke-width=".265"><path d="m87.9 190c13.5-8.31 23.9-18.3 28.5-27.1 2.06-4.02 2.76-6.66 2.79-10.5 0.0181-2.9-0.0505-3.37-0.798-5.48-1.55-4.39-4.59-8.87-9.34-13.8-7.14-7.4-18.5-15.8-31.1-23-3.62-2.07-3.44-2.06 3.44 0.207 26.4 8.69 45.2 20.3 51.6 31.9 3.49 6.35 3.59 13.2 0.294 20-1.57 3.23-3.73 6.06-7.05 9.24-5.86 5.61-14.4 10.6-25.4 14.9-3.92 1.53-11.5 3.99-13.5 4.39-0.854 0.173-0.811 0.118 0.583-0.741zm17.1-8.49c3.55-1.52 8.19-3.98 11.1-5.9 7.9-5.16 12.8-10.8 15-17.1 0.892-2.55 0.944-2.89 0.952-6.14 7e-3 -2.91-0.0874-3.73-0.606-5.29-3.04-9.15-13.1-18.2-29.3-26.3-4.26-2.13-7.54-3.6-7.69-3.44-0.0583 0.0583 0.697 0.682 1.68 1.39 2.95 2.11 7.69 6.02 10.7 8.82 7.54 6.98 12.5 13.7 14.4 19.3 0.669 2.04 0.757 2.69 0.746 5.49-9e-3 2.47-0.145 3.64-0.611 5.29-1.23 4.34-4.01 9.27-7.75 13.8-2.31 2.77-6.7 7.12-9.36 9.27-2.27 1.84-2.13 1.71-1.79 1.71 0.157 0 1.25-0.413 2.43-0.917zm-91.4-29.4c1.6e-5 -13.2 0.0322-18.6 0.0716-12 0.0394 6.67 0.0394 17.5-2.9e-5 24.1-0.0394 6.57-0.0716 1.12-0.0716-12.1zm131 16.9c-1.13-0.347-1.34-0.534-1.82-1.61-0.448-1.01-0.563-1.97-0.679-5.67l-0.14-4.46h5.63v3.85c0 3.95 0.192 4.88 1.01 4.88 1.01 0 1.1-0.469 1.1-5.7 0-5.96 0.299-5.38-3.79-7.4-3.79-1.87-3.75-1.78-3.74-8.33 9e-3 -4.67 0.0623-5.28 0.567-6.39 0.767-1.69 1.6-1.95 6.17-1.94 5.76 0.011 6.14 0.419 6.3 6.74l0.102 4.1h-5.48l-0.132-3.54c-0.114-3.05-0.199-3.58-0.612-3.84-0.39-0.238-0.575-0.176-0.992 0.332-0.45 0.549-0.513 1.05-0.513 4.15 0 2.09 0.124 3.8 0.303 4.19 0.208 0.456 1.22 1.14 3.22 2.2 4.17 2.18 4 1.82 4.09 8.71 0.114 7.99-0.214 9.17-2.73 9.86-1.53 0.416-6.36 0.332-7.89-0.138zm17.9 0.16c-0.766-0.112-1.7-0.404-2.07-0.649-1.41-0.924-1.43-1.14-1.43-15.5v-13.2h-1.59v-1.7c0-1.66 0.0179-1.7 0.728-1.79l0.728-0.0837 0.147-7.54h5.54v7.67h2.38v3.44h-2.39l0.137 25.8 2.25 0.163v3.67l-1.52-0.033c-0.837-0.0182-2.15-0.124-2.91-0.236zm8.82-0.19c-0.75-0.269-1.53-0.783-1.85-1.21-0.539-0.731-0.552-1.04-0.62-14.7-0.0784-15.7-0.138-15.2 1.92-16.3 0.919-0.475 1.53-0.547 4.63-0.542 3.15 5e-3 3.7 0.073 4.66 0.581 1.86 0.988 1.82 0.635 1.82 16.1 0 15.4 0.0576 14.9-1.91 15.9-1.49 0.716-6.86 0.832-8.66 0.187zm4.86-3.49c0.178-0.332 0.274-4.84 0.274-12.8 0-10.8-0.0497-12.4-0.416-12.7-0.229-0.229-0.518-0.416-0.643-0.416s-0.414 0.187-0.643 0.416c-0.366 0.366-0.416 1.9-0.416 12.9 0 9.37 0.0795 12.6 0.318 12.8 0.477 0.477 1.22 0.383 1.53-0.194zm9.27-12.6v-16.5h2.93c1.88 0 2.87 0.0943 2.76 0.265-0.382 0.618 0.206 0.755 0.932 0.218 1.05-0.779 3.31-0.957 4.57-0.36 1.66 0.789 1.88 1.63 1.99 7.75l0.101 5.36h-5.6l-0.144-9.66-0.647-0.0913c-1.34-0.189-1.34-0.239-1.34 15.2v14.4h-5.56zm-123-3.22c0.182-0.0734 0.48-0.0734 0.661 0s0.0331 0.133-0.331 0.133c-0.364 0-0.513-0.06-0.331-0.133zm23-22c0.473-0.0587 1.25-0.0587 1.72 0s0.086 0.107-0.86 0.107-1.33-0.048-0.86-0.107z" fill="#006984" fill-opacity=".616"/><path d="m36.9 176c-3.12-0.323-4.46-0.983-5.15-2.54-0.897-2.03-1.04-5.9-0.96-26.3l0.0733-19.2 7.81-0.146v21.3c0 19.3 0.0401 21.3 0.43 21.7 0.612 0.612 1.74 0.406 2.14-0.392 0.259-0.515 0.334-5.31 0.337-21.6l0.0039-21h7.69l-0.0734 22c-0.0694 20.8-0.101 22.1-0.566 23.2-0.967 2.21-2.42 2.83-7.18 3.08-1.31 0.0665-3.36 0.0199-4.55-0.103zm46.3 0.0112c-3.69-0.417-4.84-1.1-5.58-3.3-0.406-1.2-0.461-3.21-0.535-19.6-0.0841-18.7 0.0049-20.8 0.927-22.8 0.909-1.91 3.67-2.62 9.39-2.44 3.18 0.102 3.99 0.217 5.15 0.723 2.92 1.28 3.06 2.43 2.93 25.2-0.09 15.7-0.143 17.5-0.568 18.8-0.6 1.82-1.35 2.55-3.11 3.05-1.77 0.498-6.1 0.716-8.6 0.434zm4.13-5.28c0.418-0.782 0.376-37.1-0.0436-37.5-0.175-0.175-0.627-0.318-1.01-0.318s-0.831 0.143-1.01 0.318c-0.459 0.459-0.459 37.3 0 37.7 0.503 0.503 1.74 0.386 2.05-0.194zm-73.5-18.8v-24.1h12.4v5.01l-4.63 0.153v14l4.63 0.153v4.99l-4.63 0.153v18.5l4.63 0.153v5.01h-12.4zm40.3 0.0661 0.0675-24 6.48 4e-3c7.01 4e-3 8.48 0.202 9.98 1.35 1.57 1.2 1.79 2.56 1.79 11.2 0 7.4-0.0118 7.56-0.627 8.81-0.391 0.795-1.03 1.54-1.69 1.98-0.96 0.636-1.01 0.727-0.567 0.975 0.271 0.15 0.926 0.69 1.45 1.2 1.45 1.4 1.56 2.35 1.56 13.1v9.38h-7.94v-10c0-9.66-0.0196-10.1-0.512-10.3-0.281-0.151-0.877-0.274-1.32-0.274h-0.811v20.6h-7.94zm9.93-2.59c0.585-0.409 0.588-0.457 0.588-8.05 0-8.49 0.0043-8.47-1.74-8.47h-0.907v16.9h0.735c0.404 0 0.999-0.185 1.32-0.412z" fill="#333"/></g></svg>
