<svg xmlns="http://www.w3.org/2000/svg" viewBox="0 0 185 82.2"><g stroke-width=".3"><path fill="#006984" fill-opacity=".6" d="M74.2 82a80 80 0 0 0 28.5-27.1c2-4 2.8-6.7 2.8-10.5 0-2.9 0-3.4-.8-5.5a40 40 0 0 0-9.3-13.8 146 146 0 0 0-31.1-23c-3.7-2-3.5-2 3.4.2 26.4 8.7 45.2 20.3 51.6 32a21 21 0 0 1 .3 20 33 33 0 0 1-7 9.2A78 78 0 0 1 87 78.4c-3.9 1.5-11.5 4-13.5 4.4q-1.3.3.6-.8zm17.1-8.5c3.6-1.5 8.2-4 11.1-5.9a35 35 0 0 0 15-17c.9-2.6 1-3 1-6.2 0-3-.1-3.8-.7-5.3Q113 25 88.4 12.8a48 48 0 0 0-7.6-3.5c-.1.1.7.7 1.6 1.4 3 2.1 7.7 6 10.7 8.9a52 52 0 0 1 14.4 19.2c.7 2 .8 2.7.8 5.5 0 2.5-.2 3.7-.6 5.3a40 40 0 0 1-7.8 13.8 84 84 0 0 1-9.3 9.3c-2.3 1.8-2.2 1.7-1.8 1.7zM-.1 44.1v-12zm131 17c-1.1-.4-1.3-.6-1.8-1.7-.5-1-.6-2-.7-5.7l-.1-4.4h5.6V53c0 4 .2 4.9 1 4.9 1 0 1.1-.5 1.1-5.7 0-6 .3-5.4-3.8-7.4-3.8-1.9-3.7-1.8-3.7-8.3 0-4.7 0-5.3.5-6.4.8-1.7 1.6-2 6.2-2 5.8 0 6.1.5 6.3 6.8l.1 4h-5.5l-.1-3.5c-.1-3-.2-3.5-.6-3.8q-.5-.4-1 .3c-.5.6-.5 1-.5 4.2 0 2 .1 3.8.3 4.2q.3.6 3.2 2.2c4.2 2.2 4 1.8 4 8.7.2 8-.1 9.2-2.6 9.8-1.6.5-6.4.4-8-.1zm17.9 0q-1.4 0-2-.6c-1.5-.9-1.5-1.1-1.5-15.5V31.8h-1.6v-1.7c0-1.6 0-1.7.7-1.8h.8l.1-7.6h5.6v7.7h2.3v3.4h-2.4l.2 25.8 2.2.2v3.7h-1.5zm8.8-.1q-1.2-.5-1.8-1.2c-.6-.8-.6-1-.7-14.7 0-15.7 0-15.2 2-16.3.9-.5 1.5-.6 4.6-.6 3.2 0 3.7.1 4.7.6 1.8 1 1.8.6 1.8 16.1 0 15.4 0 15-2 16-1.4.6-6.8.7-8.6.1m4.9-3.5q.3-.6.3-12.8a47 47 0 0 0-.5-12.7l-.6-.4-.6.4c-.4.4-.5 1.9-.5 12.9 0 9.4.1 12.6.4 12.8.4.5 1.2.4 1.5-.2m9.3-12.6V28.4h2.9q3 0 2.7.3-.3 1 1 .2c1-.8 3.3-1 4.5-.4 1.7.8 2 1.6 2 7.8l.1 5.3h-5.6l-.1-9.6-.7-.1c-1.3-.2-1.3-.3-1.3 15.2v14.4h-5.6zm-123-3.2h.6l-.3.1q-.6 0-.4-.1m23-22h1.7z"/><path fill="#333" d="M23.2 68c-3.1-.3-4.5-1-5.1-2.5-1-2-1-6-1-26.3V20l7.9-.2v21.3c0 19.3 0 21.3.4 21.7.6.6 1.7.4 2.1-.4.3-.5.4-5.3.4-21.6v-21h7.7l-.1 22c0 20.8-.1 22.1-.6 23.2-1 2.2-2.4 2.9-7.1 3.1zm46.3 0c-3.7-.4-4.8-1-5.6-3.3-.4-1.2-.4-3.2-.5-19.6-.1-18.7 0-20.8 1-22.8.8-1.9 3.6-2.6 9.3-2.4 3.2 0 4 .2 5.2.7 2.9 1.3 3 2.4 2.9 25.2a103 103 0 0 1-.6 18.8c-.6 1.8-1.3 2.5-3.1 3s-6.1.8-8.6.5zm4.1-5.3c.4-.8.4-37 0-37.5q-.3-.2-1-.3-1 0-1 .3c-.5.5-.5 37.3 0 37.7s1.7.4 2-.2M.1 44V20h12.4v5H8v14l4.6.2v5l-4.6.2v18.5l4.6.1v5H.1zm40.3.1.1-24H47c7 0 8.5.2 10 1.4s1.7 2.5 1.7 11.2c0 7.4 0 7.5-.6 8.8q-.6 1.2-1.7 2-1.4.7-.5 1 .5.2 1.4 1.1C58.8 47 59 48 59 58.6V68h-8V58c0-9.7 0-10.1-.5-10.3q-.6-.3-1.3-.3h-.8V68h-8zm10-2.6c.5-.4.5-.4.5-8 0-8.5 0-8.5-1.7-8.5h-.9v16.9h.7q.7 0 1.4-.4"/></g></svg>