<svg xmlns="http://www.w3.org/2000/svg" xml:space="preserve" viewBox="0 0 279 166"><path d="M210 165q-5-1-7-4l-2-2-1-44q0-44-2-47l-1-3 7-1h9l1 46 1 46h3q4 0 4 4l1 4c-2 1-9 2-13 1m48 0q-9-2-13-7l-2-29v-26h-11v-9h11l1-4v-7q0-7 7-7l7-2 1 10-1 10h11c10 0 10 0 10 2-2 6-3 7-13 7h-9v24c1 30 0 29 12 29l9 1 1 4q1 2-4 3-10 2-17 1M0 72V61h48v21H0zm0 31V92h48v21H0zm0-62V30h48v21H0z"/><path fill="#a61c40" d="m5 160 24-26 18-21 2-2 17-20c17-19 17-19 15-21q-2-5-17-20L47 30h18l13 17 13 16 29-32 28-31h18l-7 7-55 59-6 6 12 13 13 14-5 13c-1 3-26-30-27-30l-33 42-33 42H0z"/><path d="m123 99 7-3c9-3 26-4 33-2q8 2 13 9c2 3 2 4 2 27v23l3 3 3 3-2 3-5 4q-6-1-10-6l-1-3-5 3q-10 6-24 6-24-3-24-20 0-10 7-15 11-9 36-10h8v-6q1-7-3-9-5-5-17-3-13 2-21 8-3 2-5 1c-1-2 4-13 5-13m32 55c7-3 8-5 9-16l1-9h-11q-18 1-22 7c-6 6-4 16 2 19 5 3 15 2 21-1"/></svg>