<svg xmlns="http://www.w3.org/2000/svg" xml:space="preserve" viewBox="0 0 396.6 121.9"><path fill="#abd589" d="m66.6 117.9-4.7-4.3 5.4-20c4.3-15.7 5.6-19.3 6.1-17l3.7 21c1.7 9.9 3.5 19 4 20 .7 2 .4 2.3-2 2.8-1.5.3-4 .8-5.3 1.2-1.9.5-3.4-.3-7.2-3.7m33.5-8.2q.1-.5 1.7-1.8 2.3-1.9.4.4-2 2.6-2.1 1.4m8.5-8.6q1.7-1.8 2.3-2 .3.2-1.3 2c-1 1-2 2-2.4 2-.2 0 .4-1 1.4-2m-11-23.7c-11-1.9-20.7-3.6-21.5-4s7-3 17.5-5.9l19-5.3 5 5 5.2 5-1 4.4q-1.1 4.5-2.7 4.3zM4.8 56.2 0 51.4l1.1-5.2c1-4.3 1.4-5 2.8-4.3 1 .5 11 2.4 22.4 4.2s20.8 3.6 20.8 4c0 .2-8 2.6-17.8 5.3s-18.2 5-18.8 5.3c-.5.2-3.1-1.8-5.7-4.5m44-10.4c-1.4-5.2-7.9-43-7.5-43.3.2-.2 2.3-.8 4.7-1.3 4.3-1 4.4-1 9.3 3.7l5 4.7-5.3 19c-2.8 10.4-5.3 19-5.4 19.2q-.4.1-.9-2"/><path fill="#5d9dd4" d="M45.5 121c-3.5-.9-4.1-1.3-3.8-3.2l7.6-43.3c.1-.1 2.7 8.5 5.7 19.2l5.4 19.5-4.4 4.4c-2.4 2.5-4.8 4.4-5.4 4.3-.6 0-2.9-.5-5.1-1m-25.6-13.7q-1.9-2.3.4-.4 2.6 2 1.4 2.2-.5-.2-1.8-1.8m-6-6q-1.9-2.3.4-.4 1.7 1.3 1.8 1.8-.1 1.2-2.2-1.4M1.3 76.1l-1-5 4.2-4c2.3-2.2 4.7-4 5.5-4 1.1 0 31.5 8 36 9.5q1.2.5 1 .9C46.5 74 6 81 3.8 81q-1.5 0-2.5-5m89.8-21.4-18.5-5 24-4.2 24-4 1.2 4.5 1.2 4.6-4.7 4.7c-2.8 2.8-5.5 4.7-6.7 4.6a305 305 0 0 1-20.5-5.2m-23.9-25a429 429 0 0 1-5.1-19.3c0-.5 2.1-3 4.8-5.7L71.7 0l5 1.2c4.3 1 5 1.4 4.3 2.8-.5.8-1.8 7.4-3 14.6a273 273 0 0 1-5.2 29c-.2.3-2.8-7.8-5.6-17.9m40.3-9.9-2-2.2 2.3 1.9q3.1 2.6 2 2.6-.6-.2-2.3-2.3m-5.6-5.5q-1.9-2.3.4-.4 2.6 2 1.4 2.2-.4-.2-1.8-1.8"/><path fill="#78bf3f" d="M81 118.3c0-.9-6.6-38.4-7.5-42.3l-.5-2.6 21.8 3.7 23.6 4c1.6.4 1.4 1.2-2 8a66 66 0 0 1-26 26.3c-7.3 3.7-9.3 4.3-9.3 2.9M30 46.5 9.9 43c-3.7-.6-6.7-1.6-6.7-2.1s1.3-3.8 3-7.2A62 62 0 0 1 40.4 3.2c.2.2 2 9.8 4 21.4s3.9 21.7 4.2 22.7c.6 2.3-1.2 2.2-18.6-.8"/><path fill="#0077c0" d="M33.5 116A62 62 0 0 1 3.2 81.6c.2-.2 10-2 21.6-4s22-4 23-4.2c1.3-.6 1.5-.2 1 2.2L45 98.8a111 111 0 0 1-4.3 20.2 43 43 0 0 1-7.1-3m40-70.7 2-11.2c.8-4.2 2.3-12.7 3.2-19 1-6.6 2.3-11.5 3-11.7 1.9-.8 13.4 5.2 18.9 9.8a70 70 0 0 1 16.9 21.6c1.6 3.4 2.7 6.4 2.5 6.6-.6.4-44 7.7-45.7 7.7q-1.5.2-.7-3.8"/><path fill="#1d191a" d="M155.6 84.2a23 23 0 0 1-13.3-24.3A23 23 0 0 1 169 38.5c11.6 1.6 19 10.5 19 22.8v3.8h-18.4c-17.4 0-18.5 0-18.5 1.8 0 3 4.1 8.3 8 10.3 6.1 3.3 12.5 2.3 18-2.8l2.6-2.3 3.3 2.8 3.4 2.8-3.5 2.6a35 35 0 0 1-7.1 4.2 32 32 0 0 1-20.2-.3m23.1-28.8c-1-5.8-5.3-9.6-11.8-10a14 14 0 0 0-13.8 6.9c-4 6.6-3.7 6.8 12 6.8h14.2zm136.7 28.2c-8.5-4.3-13-13.2-12-23.5 1.1-13.4 9.6-21.4 22.7-21.4 6.9 0 9.8 1 14.2 5.2l2.8 2.5V16.1h8v69h-4c-3.8 0-4-.2-4-3v-3l-4.6 3.2c-3.8 2.7-5.6 3.2-11.2 3.5-5.7.3-7.5 0-11.9-2.2M336 76c3.8-2.3 7.1-8.8 7.1-13.9.1-16.2-21.4-22.2-28.7-8-4.5 8.7-1.4 19.8 6.3 23 3.8 1.6 11.8 1 15.3-1m28.2 8.3q-7.4-3.7-7.4-11.7c0-9.3 7.9-14.7 22.6-15.4l8.8-.4V54c0-1.6-1.1-4.1-2.5-5.6-2.1-2.6-3-2.8-8.7-2.8-5 0-7 .4-9.7 2.3l-3.3 2.4-2.4-2.3c-1.3-1.3-2.4-2.7-2.4-3.2s2.5-2 5.7-3.5c4.6-2.2 7.2-2.7 12.8-2.7 7.6 0 11.3 1.5 15.5 6 2.4 2.5 2.5 3 3 21.5l.5 19h-3.8c-3.7 0-3.7-.1-3.8-3.8s0-3.7-1.7-1.6c-5 6.2-15.9 8.3-23.2 4.6m19-7.1q5-3.7 5-10.5v-3.9l-7.8.4q-17.6 1-14.8 11.4c1.3 5.3 11.8 6.8 17.6 2.6m-195 7.5c0-.2 4-5.7 9-12.2 5.6-7.3 8.6-12.2 8.1-12.9l-8-10.3c-4-5-7.1-9.5-7.1-9.7 0-.3 2.3-.5 5.2-.5h5.3l5.4 8c3 4.4 5.6 8 6 8 .3 0 3-3.6 6-8l5.4-8h4.9c5.7 0 6-1-3.4 11.7-3.8 5-6.8 9.5-6.8 9.9 0 .3 4 6 9 12.5l9 11.9h-10.9l-6.7-9.5a81 81 0 0 0-7-9.5c-.1 0-3.3 4.2-7 9.5L198 85h-5c-2.7 0-5-.2-5-.4M240 62V39h9v46h-9zm17-.1V39l4.2.2c4 .3 4.3.6 4.6 3.5l.3 3L269 43c7.8-7.8 22.7-5.4 27 4.3 1.7 3.6 2 6.7 2 21v16.8h-8.4l.3-10.3c.5-14.8-.5-22.2-3.3-25.5-2-2.4-3.1-2.7-8-2.7s-5.9.3-8.8 3.2l-3.2 3.3-.4 16-.3 16h-8.8zm-17-35.6c-2.5-3.2-2.6-4.5-.2-7.4s7-3 9.3 0 2.3 4.2-.2 7.4c-2.7 3.4-6.2 3.4-8.9 0"/></svg>