<svg version="1.2" baseProfile="tiny" xmlns="http://www.w3.org/2000/svg" viewBox="0 0 652.8 285.1"><path fill-rule="evenodd" fill="#F4763B" d="M146.7 280.6c-28.9 0-52.4-23.5-52.3-52.5.1-28.9 23.2-51.9 51.7-52.3 30.1-.4 53.9 24.2 53.2 53.7-.7 28.4-24 51.3-52.6 51.1z"/><path fill-rule="evenodd" fill="#F78144" d="M50.3 217.5c-23.6 0-42.6-19-42.6-42.6s19.2-43 43.3-42.6c23.8.3 42.4 20.1 42 43.5-.5 23.2-19.7 42-42.7 41.7z"/><path fill-rule="evenodd" fill="#00549A" d="M160.8 103H131c-.9 0-1.2.2-1.1 1.2.5 5.4 1.5 10.7 4.4 15.4 5.1 8.3 12.6 12.1 22.4 11.6 9.7-.6 15.6-6.1 19.2-14.6.9-2.2.9-2.2 3.2-2 3.8.4 7.7 1 11.5 1.4.7.1.7.4.6 1-3.7 12.1-11 20.8-23.6 24.2-10.4 2.9-20.8 2.5-30.8-1.9-10.2-4.5-16.4-12.6-19.4-23.1-2.1-7.3-2.4-14.8-1.8-22.3.5-6.5 1.9-12.8 5.1-18.6 5.9-10.8 15-17.2 27.2-18.9 7.8-1.1 15.4-.4 22.6 3 9.5 4.5 15.6 12 18.9 22 2.2 6.8 2.7 13.8 2.4 20.9 0 1-.6.7-1.1.7h-29.9zm-6.9-11.6h20.4c2.7 0 2.8 0 2.4-2.7-.5-3.9-1.5-7.8-3.7-11.1-7.8-11.9-23.4-12.1-32.1-5.7-6.1 4.4-9.2 10.6-10 17.9-.2 1.7-.1 1.7 1.6 1.7 7.1-.1 14.2-.1 21.4-.1zM374.2 103h-29.6c-1 0-1.2.3-1.2 1.3.6 6.6 2.1 12.9 6.4 18.2 5.2 6.3 11.9 9.1 20.1 8.7 10-.5 16-6.2 19.7-15.1.8-1.8.8-1.9 2.7-1.6 3.9.5 7.8 1 11.8 1.5.8.1.8.5.6 1-3.6 12.1-11 20.6-23.4 24.2-8.8 2.5-17.7 2.5-26.5-.2-12.3-3.7-20-12.1-23.8-24.2-2.2-7.1-2.5-14.4-2.1-21.7.4-6.1 1.5-12 4-17.5 5.7-12.2 15.1-19.4 28.5-21.2 7.6-1 15-.4 22 2.8 10.2 4.7 16.5 12.7 19.7 23.4 1.8 6.2 2.2 12.6 2.1 19 0 1.1-.3 1.5-1.5 1.4h-29.5zm-7-11.6h19.9c1 0 2.4.5 3-.2.7-.7 0-2-.1-3.1-.6-3.9-1.6-7.6-3.8-10.9-5.2-7.8-14.8-11.3-24.4-8.9-9.1 2.2-16.6 10.1-17.7 21.8-.1 1 .2 1.3 1.2 1.3h21.9z"/><path fill-rule="evenodd" fill="#F88C4E" d="M35.5 124c-17.1 0-30.7-13.7-31.2-30.2C3.8 75.7 18.4 62 34.8 61.7c17-.4 31.9 13.1 31.9 31.1 0 17.8-14.4 31.2-31.2 31.2z"/><path fill-rule="evenodd" fill="#00549A" d="M548 57.9H561.9c.8 0 1.2.2 1.5 1 5.6 15.7 11.3 31.5 17 47.2 2.2 6.1 4.2 12.3 5.9 18.8.8-2.7 1.4-5.1 2.1-7.5 3.2-10.6 7.3-20.8 11.1-31.2 3.3-9.1 6.7-18.2 10-27.3.3-.8.7-1.1 1.6-1.1 3.9.1 7.8 0 11.6 0 1.3 0 1.3 0 .9 1.3-5.8 15.5-11.5 31-17.3 46.5-5.7 15.2-11.2 30.5-17.1 45.6-1.8 4.5-3.7 8.9-6.3 13-6.1 9.4-14.9 12-25.1 9.5-1.8-.4-2.7-1.1-2.9-3.1-.2-3.4-.8-6.7-1.2-10.1v-.6c2.9.7 5.7 1.3 8.6 1.2 6.1-.1 10.5-2.7 12.9-8.5 1.5-3.5 2.7-7.2 4.1-10.7.2-.5.1-1-.1-1.5-6.1-16.2-12.2-32.4-18.4-48.6-4.1-11-8.3-21.9-12.4-32.9-.3-.3-.5-.5-.4-1zM275.1 57.9c-5 7-9.7 13.8-14.5 20.6-4.3 6.1-8.6 12.3-13 18.4-.5.7-.4 1.1 0 1.7 9.6 13.8 19.3 27.6 28.9 41.3.2.3.5.5.5 1H261.1c-.8 0-1.3-.3-1.7-.9-6.6-10-13.3-20-19.9-30.1-.2-.3-.4-.6-.7-1-2.3 3.3-4.5 6.4-6.7 9.6l-15 21.6c-.3.5-.6.8-1.3.8h-16.1c-.1-.5.3-.8.6-1.1 9.6-13.6 19.2-27.3 28.9-40.9.5-.8.5-1.2 0-1.9-9-12.8-18-25.7-27-38.6-.1-.1-.2-.3-.2-.4.2-.3.4-.2.6-.2h15.7c.8 0 1.1.4 1.5.9 6 9 12.1 17.9 17.8 27.1.1.1.2.2.4.5.4-.5.7-1 1.1-1.5 6.2-8.7 12.3-17.5 18.5-26.2.4-.6.9-.9 1.6-.9h14.6c.3.2.7.2 1.3.2zM305.5 29c.3.4.2.9.2 1.3v26.2c0 1.2.3 1.4 1.5 1.4 3.9-.1 7.8 0 11.6 0 .9 0 1.1.3 1 1.1 0 3-.1 5.9 0 8.9 0 .9-.2 1.2-1.1 1.1-4-.1-7.9 0-11.9 0-.9 0-1.2.1-1.2 1.1v49.4c0 1.3.2 2.6.3 3.9.3 3.2 2.6 5.3 6.2 5.5 2.2.2 4.4 0 6.6-.4.9-.2 1.2.1 1.3 1 .5 3.5 1 7 1.6 10.5.1.5.2.9-.6 1-6 1.2-12.1 1.7-18.2.1-6.2-1.6-10-6.1-10.7-12.4-.5-4.1-.6-8.3-.6-12.4V70.2c0-1.1-.4-1.4-1.4-1.3-2.7.1-5.4 0-8 0-.8 0-1-.2-1-1 0-3 .1-6.1 0-9.1 0-.8.3-1 1-1h8.4c.8 0 1-.2 1-1V38.3c0-.7.1-1.2.8-1.6 4.3-2.5 8.5-5.1 12.8-7.6 0 .1.2 0 .4-.1zM527.9 29.1v27.7c0 .9.2 1.2 1.2 1.2 3.9-.1 7.8 0 11.8 0 .9 0 1.2.1 1.2 1.1-.1 3-.1 6 0 9 0 .7-.2.9-.9.9h-12.1c-.8 0-1.1.2-1.1 1v49.1c0 1.4.2 2.9.3 4.3.2 2.9 2.3 5.3 6.2 5.6 2.2.1 4.5 0 6.7-.4.7-.1.9 0 1 .7.5 3.7 1.1 7.3 1.7 11 .1.4.1.7-.5.8-6.6 1.3-13.2 2-19.6-.2-5.5-1.9-8.7-5.9-9.4-11.9-.4-3.5-.6-7-.6-10.5v-48c0-1.3-.4-1.5-1.5-1.5-2.6.1-5.3 0-7.9 0-.7 0-1.1-.1-1-1 .1-3.1 0-6.2 0-9.2 0-.7.2-.9.9-.9h8.5c.8 0 1.1-.2 1.1-1.1V38.3c0-.6 0-1 .6-1.4 4.3-2.5 8.6-5.1 13-7.7 0 0 .1-.1.4-.1zM435.1 69.8c1.6-2.4 3.1-4.7 4.8-6.9 4.6-6.1 10.8-7.9 18.1-6.3 3.1.7 5.9 1.9 8.6 3.5.6.3.9.6.6 1.4-1.5 3.8-2.9 7.6-4.3 11.4-.3.8-.6.7-1.2.4-3.6-2-7.5-3.1-11.6-2.4-5.6 1-9.2 4.4-11.1 9.8-1.8 5.1-2.5 10.5-2.5 15.9v43.3c0 1.1-.2 1.4-1.4 1.4-3.8-.1-7.7-.1-11.5 0-1.1 0-1.4-.2-1.4-1.4V74.3 59.2c0-.8.1-1.1 1-1.1 3.6.1 7.3 0 10.9 0 .8 0 1 .2 1 1v10.7z"/><path fill-rule="evenodd" fill="#F99859" d="M75.3 21.8c11.9 0 21.2 9.3 21.2 21.2 0 11.7-9.5 21.1-21.3 21.1-11.6 0-21.1-9.5-21-21.2.1-11.8 9.4-21.1 21.1-21.1z"/><path fill-rule="evenodd" fill="#00549A" d="M475.9 68.8c6.6 4.4 10.7 3 14.1 0 .3.2.1.6.1.9v70.2c0 1-.3 1.2-1.3 1.2-3.9-.1-7.8-.1-11.6 0-1.1 0-1.4-.2-1.4-1.4V88.8 70.3c.1-.4.1-.9.1-1.5z"/><path fill-rule="evenodd" fill="#F99859" d="M111.4 8.2c6.5-.1 12.9 5 12.9 12.9 0 7.1-5.8 12.8-12.9 12.8-7.2 0-12.9-5.7-12.9-12.9 0-7.1 5.7-12.8 12.9-12.8z"/><path fill-rule="evenodd" fill="#00549A" d="M494.5 50.5c0 6.1-4.9 11-10.9 11-6.1 0-11-4.9-11-11s4.8-10.9 11-10.9c6.1-.1 10.9 4.8 10.9 10.9z"/><path fill-rule="evenodd" fill="#F99859" d="M140.5 24.3c-5.8 0-10.6-4.6-10.6-10.4 0-5.8 4.6-10.5 10.5-10.5 5.8 0 10.5 4.6 10.6 10.4 0 5.9-4.6 10.5-10.5 10.5z"/><path fill-rule="evenodd" fill="#FFF" d="M153.9 91.4h-21.5c-1.7 0-1.7 0-1.6-1.7.8-7.4 3.8-13.5 10-17.9 8.7-6.3 24.4-6.2 32.1 5.7 2.2 3.4 3.2 7.2 3.7 11.1.4 2.7.3 2.7-2.4 2.7-6.7.1-13.5.1-20.3.1zM367.2 91.4h-21.8c-1 0-1.3-.2-1.2-1.3 1.1-11.8 8.5-19.6 17.7-21.8 9.5-2.3 19.2 1.2 24.4 8.9 2.2 3.3 3.2 7 3.8 10.9.2 1 .8 2.4.1 3.1-.6.6-2 .2-3 .2h-20z"/></svg>