<svg xmlns="http://www.w3.org/2000/svg" viewBox="0 0 652.8 285.1"><g fill-rule="evenodd"><path fill="#f4763b" d="M146.7 280.6a52.3 52.3 0 0 1-.6-104.8 52.4 52.4 0 1 1 .6 104.8"/><path fill="#f78144" d="M50.3 217.5a42.5 42.5 0 1 1 .7-85.2 42.7 42.7 0 0 1-.7 85.2"/><path fill="#00549a" d="M160.8 103H131q-1.3-.1-1.1 1.2c.5 5.4 1.5 10.7 4.4 15.4a23 23 0 0 0 22.4 11.6c9.7-.6 15.6-6.1 19.2-14.6.9-2.2.9-2.2 3.2-2l11.5 1.4q.9.1.6 1c-3.7 12.1-11 20.8-23.6 24.2a45 45 0 0 1-30.8-1.9 34 34 0 0 1-19.4-23.1 62 62 0 0 1 3.3-40.9 35 35 0 0 1 27.2-18.9 39 39 0 0 1 22.6 3q14.1 6.9 18.9 22a59 59 0 0 1 2.4 20.9c0 1-.6.7-1.1.7zm-6.9-11.6h20.4c2.7 0 2.8 0 2.4-2.7q-.6-6-3.7-11.1c-7.8-11.9-23.4-12.1-32.1-5.7a24 24 0 0 0-10 17.9c-.2 1.7-.1 1.7 1.6 1.7zM374.2 103h-29.6q-1.4-.1-1.2 1.3c.6 6.6 2.1 12.9 6.4 18.2a23 23 0 0 0 20.1 8.7c10-.5 16-6.2 19.7-15.1.8-1.8.8-1.9 2.7-1.6l11.8 1.5q1 .2.6 1a33 33 0 0 1-23.4 24.2 46 46 0 0 1-26.5-.2 34 34 0 0 1-23.8-24.2 61 61 0 0 1 1.9-39.2 35 35 0 0 1 28.5-21.2c7.6-1 15-.4 22 2.8a36 36 0 0 1 19.7 23.4 64 64 0 0 1 2.1 19q.1 1.6-1.5 1.4zm-7-11.6h19.9c1 0 2.4.5 3-.2s0-2-.1-3.1q-.7-5.9-3.8-10.9a22 22 0 0 0-24.4-8.9 24 24 0 0 0-17.7 21.8q-.2 1.4 1.2 1.3z"/><path fill="#f88c4e" d="M35.5 124A31 31 0 0 1 4.3 93.8a31.2 31.2 0 1 1 62.4-1A31 31 0 0 1 35.5 124"/><path fill="#00549a" d="M548 57.9h13.9q1.1-.1 1.5 1l17 47.2a217 217 0 0 1 5.9 18.8l2.1-7.5c3.2-10.6 7.3-20.8 11.1-31.2l10-27.3q.3-1.1 1.6-1.1h11.6c1.3 0 1.3 0 .9 1.3l-17.3 46.5q-8.4 22.9-17.1 45.6a78 78 0 0 1-6.3 13c-6.1 9.4-14.9 12-25.1 9.5-1.8-.4-2.7-1.1-2.9-3.1l-1.2-10.1v-.6q4.3 1.2 8.6 1.2 9.2 0 12.9-8.5l4.1-10.7q.3-.7-.1-1.5l-18.4-48.6-12.4-32.9q-.5-.3-.4-1m-272.9 0-14.5 20.6-13 18.4q-.7 1 0 1.7l28.9 41.3q.4.4.5 1h-15.9q-1.1 0-1.7-.9l-19.9-30.1-.7-1-6.7 9.6-15 21.6q-.3.8-1.3.8h-16.1q0-.7.6-1.1l28.9-40.9q.8-1 0-1.9L202 58q.3-.3.6-.2h15.7q1 0 1.5.9 9.1 13.4 17.8 27.1l.4.5 1.1-1.5 18.5-26.2q.6-.9 1.6-.9h14.6q.4.3 1.3.2M305.5 29q.3.6.2 1.3v26.2c0 1.2.3 1.4 1.5 1.4h11.6q1.3 0 1 1.1v8.9q.1 1.3-1.1 1.1h-11.9c-.9 0-1.2.1-1.2 1.1v49.4l.3 3.9c.3 3.2 2.6 5.3 6.2 5.5q3.3.3 6.6-.4 1.3-.3 1.3 1l1.6 10.5c.1.5.2.9-.6 1a40 40 0 0 1-18.2.1c-6.2-1.6-10-6.1-10.7-12.4a103 103 0 0 1-.6-12.4V70.2q0-1.6-1.4-1.3h-8q-1.1.1-1-1v-9.1q0-1.1 1-1h8.4q1.1.1 1-1V38.3q-.1-1 .8-1.6l12.8-7.6zm222.4.1v27.7q-.1 1.3 1.2 1.2h11.8q1.3-.2 1.2 1.1v9q0 1-.9.9h-12.1q-1.1-.1-1.1 1v49.1l.3 4.3c.2 2.9 2.3 5.3 6.2 5.6q3.4.2 6.7-.4 1-.2 1 .7l1.7 11q.3.6-.5.8c-6.6 1.3-13.2 2-19.6-.2a13 13 0 0 1-9.4-11.9q-.6-5.2-.6-10.5v-48c0-1.3-.4-1.5-1.5-1.5h-7.9q-1.1.2-1-1v-9.2q0-1 .9-.9h8.5q1.1.1 1.1-1.1V38.3q-.1-.8.6-1.4l13-7.7zm-92.8 40.7q2.3-3.6 4.8-6.9c4.6-6.1 10.8-7.9 18.1-6.3q4.6 1 8.6 3.5 1 .3.6 1.4l-4.3 11.4q-.4 1-1.2.4c-3.6-2-7.5-3.1-11.6-2.4q-8.3 1.6-11.1 9.8a48 48 0 0 0-2.5 15.9v43.3c0 1.1-.2 1.4-1.4 1.4h-11.5c-1.1 0-1.4-.2-1.4-1.4V59.2q-.2-1.1 1-1.1h10.9q1.1-.1 1 1z"/><path fill="#f99859" d="M75.3 21.8a21.1 21.1 0 1 1 .1 42.3 21.1 21.1 0 0 1-.1-42.3"/><path fill="#00549a" d="M475.9 68.8c6.6 4.4 10.7 3 14.1 0q.3.4.1.9v70.2q.1 1.3-1.3 1.2h-11.6c-1.1 0-1.4-.2-1.4-1.4V70.3z"/><path fill="#f99859" d="M111.4 8.2a12.8 12.8 0 1 1 0 25.7c-7.2 0-12.9-5.7-12.9-12.9 0-7.1 5.7-12.8 12.9-12.8"/><path fill="#00549a" d="M494.5 50.5a11 11 0 1 1-21.9 0c0-6.1 4.8-10.9 11-10.9 6.1-.1 10.9 4.8 10.9 10.9"/><path fill="#f99859" d="M140.5 24.3a10.4 10.4 0 1 1-.1-20.9c5.8 0 10.5 4.6 10.6 10.4s-4.6 10.5-10.5 10.5"/><path fill="#fff" d="M153.9 91.4h-21.5c-1.7 0-1.7 0-1.6-1.7.8-7.4 3.8-13.5 10-17.9 8.7-6.3 24.4-6.2 32.1 5.7q3.1 5.2 3.7 11.1c.4 2.7.3 2.7-2.4 2.7zm213.3 0h-21.8q-1.4.2-1.2-1.3c1.1-11.8 8.5-19.6 17.7-21.8a23 23 0 0 1 24.4 8.9c2.2 3.3 3.2 7 3.8 10.9.2 1 .8 2.4.1 3.1-.6.6-2 .2-3 .2z"/></g></svg>