<svg xmlns="http://www.w3.org/2000/svg" xml:space="preserve" viewBox="0 0 2174.5 363.8"><path fill="#acaeb1" d="M237.4 362c-10.7-5.6-18.9-23.8-22-48.6a372 372 0 0 1 1.5-64.4c4.6-29.9 13.5-49 25-54 2.3-1 6.1-2 8.6-2.4l4.5-.7 1.8 13c5.5 40.7 19 67.8 38.4 77l5.8 2.6 59.3-.4 59.3-.3-.6 3.3c-2.8 17.3-4.3 24-7.7 34.4q-9.5 30-26 39l-5.3 3-69.5.2c-66.9.2-69.7.2-73.1-1.7M104 206.1c-4.3-2.6-6-4.8-9-11.3-9.3-20.2-7-69.4 4-88.5 4.6-8 3.4-7.6 56.6-15.3 40.3-5.9 48.8-6.8 51.2-5.9 18 7.5 21.2 75.2 5.1 105.9-4.3 8.1-10.6 14.4-16 16-2.5.6-19.3 1-46.4 1-39.7 0-42.7-.1-45.5-1.9M7 82.6C1.4 76.7 0 70 0 50.5c0-14.7.4-18.1 2.4-25.4 2.3-8.3 6.2-14.4 9.9-15.5 2.5-.9 64-9.6 67.2-9.6 15 0 17.6 56.8 3.5 77.9-5.3 8-5.6 8.1-41.4 8.1H10.2z"/><path fill="#06a" d="M1993.5 210.1V67.2l7.2-.6c24.3-2 52-3 86.8-3 44.2-.1 48 .3 61.6 6.8a40 40 0 0 1 23.8 30.8c1.3 6.5 1.6 16.7 1.6 66 0 34.8-.5 60.8-1 64.6-4 24.5-19.6 36.9-50.7 40.3-12.5 1.3-38.8.7-61.8-1.6l-16.8-1.5c-1.6 0-1.7 2.7-1.7 42v42h-49ZM2115 233c6.4-3.2 9.1-7.4 10-15.3.3-3.4.4-29 .3-56.9-.3-49.7-.4-50.7-2.4-53.5a22 22 0 0 0-5.5-4.8c-3.2-1.9-5.5-2-39.2-2.3l-35.7-.3v136.2l33.7-.3c33.7-.3 33.8-.3 38.8-2.8m-772.2 37.6a58 58 0 0 1-31.4-14.5c-10.4-10.4-12.4-18.6-12.2-49.5.2-24 1-30.7 4.7-39.1 5-11.1 16.1-19.3 32.3-23.7 14.4-3.9 61.7-3.4 90.6.8l3.9.6-.4-12.3c-.3-9.5-.8-13.2-2.2-15.9a30 30 0 0 0-14.6-13.2c-5.4-2.2-6.7-2.3-50-2.6-39-.3-44.7-.5-46.3-2-1.4-1.2-1.7-3.1-1.7-9.1 0-9.8 1.4-14.7 5.4-18.7 4.8-4.8 11.4-6.4 30.6-7 25.2-.8 78 1 85.5 3 16.8 4.6 31.1 15 36.7 26.6 5.9 12 5.8 10.5 5.8 95.6V268l-4.3.5c-22 2.9-120.5 4.5-132.4 2.2m87.7-61.6v-27h-62c-6.7.1-15 3.8-17.6 7.7-4.4 6.7-4.1 31.8.4 38.1 2.5 3.5 7.6 6 14 7.2 2.6.4 18.3.8 35 .9l30.2.1Zm392.5 61q-27.1-2-40.8-14.8c-5.6-5.2-9-11.3-11.5-20.5-1.6-5.6-1.7-12.5-1.7-67.2 0-56 .1-61.5 1.8-67.4a38 38 0 0 1 10.7-19.3c5.9-5.8 16.2-11 26.9-13.5 6.6-1.6 12.8-1.8 50.6-1.8 38.1 0 43.9.2 51 1.8 16.3 3.8 28.5 11.9 33.9 22.6 5.4 10.6 5.5 12.6 5.5 77.7 0 56.9 0 60.5-2 68-4.4 17.7-16.6 28-39 32.9-5.9 1.3-14.5 1.7-41.4 2-18.7.2-38.5 0-44-.4m57.6-37c9-1.7 13.9-4.8 17-11l2.9-5.2v-49.2c0-45.5-.2-49.4-2-53.1-2.3-5.3-7-9-13.1-11-7-2-30.4-3-42-1.6-11 1.2-15.3 2.8-19.4 6.8-6 6-6 5.5-6.3 55.6-.3 31 0 47.6.8 51.2 2 9.9 7.2 14.8 18 17.1 6.8 1.5 36.8 1.8 44 .4M639.8 269c-28-2.8-44-13.7-49.5-33.9-1.7-6.1-1.8-12.3-1.8-92.3 0-58.7.3-87.4 1-91 4.8-22.7 21.7-34.2 54-36.9 15.1-1.2 118-.2 125.6 1.2Q778.7 18 783 25c1.6 2.8 2.1 5.7 2.4 14 .3 9.3.1 10.7-1.5 12.2s-7.2 1.7-61.9 2c-56.5.3-60.3.5-65.4 2.3a26 26 0 0 0-15.4 15 81 81 0 0 0 0 32.8 27 27 0 0 0 14.1 15.3c4.2 1.6 9.2 1.9 45 2.2l40.3.3V157l-40.3.3c-44.6.4-46 .6-52.7 7-7 6.8-7.5 9.2-7.5 29.9v18.6l3 4.8a31 31 0 0 0 7 7.7c7.7 5.4 12.3 5.8 74.5 5.8h56.6l2.3 2.5c2.2 2.3 2.3 3 1.9 12.2-.7 14.1-3.5 18.4-14.2 22-4.6 1.5-11.5 1.7-64.1 1.9-32.5.1-62.7-.2-67.2-.6m152.7.5c0-.2 13.3-23.5 29.6-51.7l30.6-53.3c.8-1.8-3.4-9.8-26.6-51l-27.4-49 27-.3c15-.1 27.5.1 27.9.5S862.3 82 872 102s18 36.8 18.3 37.3c.5.4 9-16.4 19.2-37.3L928 64h27.3c24.6 0 27.3.2 26.8 1.6L954.5 115l-27 47.9 30 52c16.5 28.7 30.3 52.8 30.6 53.6.5 1.3-2.9 1.5-25.8 1.5H936l-22.2-41.3a951 951 0 0 0-23-41.4c-.5-.1-11 18.4-23.3 41.2L845 270h-26.3c-14.4 0-26.2-.2-26.2-.5m286-1c-19.5-3-33.4-11.4-39.7-23.7-5.2-10.3-5.3-12.3-5.3-80.6V101h-29V68h3.7c6.5-.2 24.2-1.6 24.7-2.1.2-.3 3-11.7 6-25.4l6-27.3c.6-2.2.7-2.2 19-2.2h18.6v53h57v37h-57v117.6l2.2 4.4c1.6 3.2 3.6 5.2 6.8 7 4.3 2.4 5.2 2.5 26.5 2.8 18.2.3 22.3.6 23.7 2 1.4 1.2 1.8 3.2 1.8 10.6 0 15.3-4.6 21.1-18.6 23.5-8.3 1.5-36 1.2-46.5-.4m101-100.3V66.3l19.7-1.2c32.7-2 56.1-3 67.5-3l10.8-.1v37h-49v171h-49Zm344-25.7V15h51v104h100V15h51v255h-51V158h-100v112h-51ZM306.6 259.8a41 41 0 0 1-15.7-14.3c-4.1-7-8.4-20-10.6-32.4-1.8-9.6-2.2-15.6-2.2-34.6q0-56.7 13.8-86.2c4-8.3 10.9-16.2 16.3-18.6 3.2-1.4 145.7-22.8 162.8-24.4 16-1.6 28 19 33.1 57 2 14.6 2.2 49 .4 64.7-5.3 47-21.2 80.2-41.8 87.4-5 1.8-151 3-156 1.4"/></svg>