<svg xmlns="http://www.w3.org/2000/svg" xml:space="preserve" viewBox="0 0 827.8 133.2"><path d="M227.2 132.5a38 38 0 0 1-28.2-20.8c-2.4-5-2.7-7-2.7-16.2 0-9.4.3-11 2.7-16 3.5-7 10.7-14.3 17.7-17.7a43 43 0 0 1 29.5-1.3A36 36 0 0 1 266.3 79a25 25 0 0 1 4 16.5 34 34 0 0 1-9 24.9 41 41 0 0 1-20 11.7c-7.5 1.2-9 1.3-14.1.5m10.8-18c8.6-2.4 13.4-10.3 12.6-20.9-.8-11.4-7.8-17.7-18.7-17-10.3.8-16 7.6-16 19.2q-.2 14.1 11.6 18.2c4.7 1.7 5.8 1.8 10.5.5M377.8 132a38 38 0 0 1-25.1-48.3 35 35 0 0 1 29-25.2c15.3-2.7 31.2 5 37.6 18.5 4.3 9.1 4 9.5-6.4 9.5H404l-2-3.4q-4-6.8-13.8-6.8c-10.8-.1-16.9 7-16.9 19.8 0 6 .4 7.7 2.8 11.2 3.4 5.2 7.8 7.6 14.2 7.6 6 0 11-2.5 13.4-6.5 1.6-2.9 1.7-2.9 10.9-2.9 10.5 0 10.7.2 7.3 7.7a36.6 36.6 0 0 1-42 18.8m226.1.3a48 48 0 0 1-9.7-2.8 42 42 0 0 1-18-18.3c-2.5-5.4-2.8-7.4-2.8-15.7s.3-10.3 2.6-15.2a39 39 0 0 1 17-18c6.1-3.2 6.7-3.3 17.3-3.3s11.2.1 17.3 3.4a40 40 0 0 1 17 18c2.4 4.8 2.7 6.9 2.7 15.1 0 8.7-.3 10-3.2 16a31 31 0 0 1-11.5 14.2 38 38 0 0 1-28.7 6.6m12.2-18.2c2.1-.8 4.8-2.2 5.9-3.3 8.3-7.5 7.5-25.2-1.4-31.7-3.9-2.8-13.4-3.4-18.2-1-5.4 2.5-8.9 8.2-9.4 15.5-.7 10.3 3.3 17.5 11.5 20.4 4.8 1.8 6.8 1.8 11.6 0M129.8 95.5v-36h59v16h-40v14l16.8.2 16.7.3v16l-16.7.3-16.7.2-.3 12.3-.3 12.2-9.2.3-9.3.3zm152 0v-36h17.5c20 0 25.8 1 31.5 5.1 10.8 7.8 12.3 29 2.7 36.6-1.5 1.2-2.7 2.3-2.7 2.6s3.4 6.2 7.5 13a118 118 0 0 1 7.5 13.6q0 1-10.3 1.1H325l-6-10.5-6.2-10.5h-12v21h-19zm35.6-2.6c3.5-3.8 3.5-11.5 0-15-2.2-2-3.4-2.4-9.5-2.4h-7v20h7c6.3 0 7.3-.3 9.5-2.6m182.4 2.6v-36h21c12.1 0 23 .5 25.5 1.1A26 26 0 0 1 561 72.9a39 39 0 0 1 1.4 24.3c-1.7 5.2-6 10-11.2 12.6-4.9 2.5-16 4-24.6 3.2l-7.8-.6v19.1h-19zm41.4-1c3.2-2.9 4.2-7.7 2.6-12.4-1.8-5.6-4-6.6-15.2-6.6h-9.8v22.2l10-.4c8.8-.3 10.1-.6 12.4-2.7m117.6 1v-36h19v72h-19zm35 0c0-22 .4-36 1-36 1.2 0 10.8 7.9 26.7 22.2 7.3 6.5 13.5 11.8 13.8 11.8s.5-7.7.5-17v-17h18V95c0 20.6-.4 35.7-.9 36-1 .6-12.3-7.9-30.8-23l-10.2-8.5-.3 15.8-.3 15.8-8.7.3-8.8.3zm93 9v-27l-11 .7-11 .6V59.5h63v19.2l-10.7-.3-10.8-.4-.2 26.7-.3 26.8h-19zm-354-9.5V59.5h50v15h-31v12h30v16h-30v12h32v16h-51z"/><path fill="#28a505" d="M.3 130.3C0 129.6-.1 100 0 64.5L.3 0h112v25l-43.7.3-43.8.2v106h-12c-8.7 0-12.2-.3-12.5-1.2m54.5-40.5V52l19 19c10.5 10.4 19 19.5 19 20.1s-8.5 9.2-19 18.9l-19 17.6z"/></svg>