<svg xmlns="http://www.w3.org/2000/svg" viewBox="0 0 155 18.8"><path fill="#231f20" d="M100.5 17.6h-4.3V.2H110s2.5-.1 4 1.5c0 0 1.7 1.4 1.7 4.7v11.2h-4.3V6.1s0-1.2-.3-1.6c0 0-.4-.4-1-.4h-9.6zm18.2 0V.2h17v3.9H123v3h9v3.7h-9v3h13v3.8zm-29.9 0V.2h4.3v17.4zM143 3v-.6zm-1.1 14.6V4.1h-4V.2h16v3.9H146v13.5zM75.9 3v-.6zm-1.1 14.6V4.1h-4V.2h16v3.9H79v13.5zM62 7l1.9-.1s.4-.3.4-.8V5a1 1 0 0 0-.4-.8q-.5-.2-2.2-.1h-8.3v3h8.8zm2.3 10.6v-6c0-.5-.5-.7-.5-.7l-1.7-.1h.2-9v6.8h-4.2V.2h13.3q3.4-.1 5 1.4c1 1.1 1.1 2.5 1.2 4v1.2A4 4 0 0 1 67 10l.2.1.5.4q.8 1.1.6 2.2v5zM0 .2v17.4h4.3v-6.8H17V7H4.3V4h15V.3zm152.4 14.3v.8h.7q.3 0 .5-.3-.1-.6-.5-.5zm-.3-.2h1q.6-.1.8.5 0 .4-.3.6.2.2.2.6t.2.6h-.4v-.3q.1-.6-.4-.7h-.8v1h-.3zm.8-.7c-1 0-1.9.8-1.9 1.9a1.9 1.9 0 1 0 1.9-1.9m0 4a2.1 2.1 0 1 1 0-4.2 2.1 2.1 0 0 1 0 4.2"/><path fill="#ee2e24" d="M43.3 17.8q2.2-.9 2.7-4V13h-7v4.7zM46 4.6v-.5c-.3-2-1.4-3.7-3-4.1h-4.2v4.6zm-25 8.5v.6q.6 3.2 2.8 4h4.4v-4.6zM24 0q-2.4.8-2.9 4.1v.5h7V0zm22 6.6h-7v4.6h7zM30 17.8h7V13h-7zM37 0h-7v4.6h7zM21.1 11.2h7V6.6h-7z"/></svg>