<svg viewBox="0 0 155 18.83" xmlns="http://www.w3.org/2000/svg"><path d="M100.5 17.6h-4.27V.19l13.72.01s2.52-.1 4.11 1.49c0 0 1.63 1.36 1.63 4.69V17.6h-4.25V6.09s.05-1.18-.35-1.59c0 0-.35-.45-1.02-.45h-9.58V17.6zm18.16 0V.2h17.12v3.87H122.9v2.96h8.95v3.74h-8.95v2.96h12.96v3.87h-17.21zm-29.86 0V.2h4.25v17.4H88.8zm54.19-14.62v-.59.59zm-1.1 14.62V4.07h-4V.2h15.95v3.87h-7.7V17.6h-4.24zM75.88 2.98v-.59.59zm-1.1 14.62V4.07h-4.01V.2h15.95v3.87h-7.69V17.6h-4.25zM61.96 7.02c1.04-.01 1.66 0 1.9-.15 0 0 .45-.25.45-.76V4.97a.9.9 0 0 0-.44-.76c-.33-.18-.9-.15-2.22-.15h-8.28v2.96h8.78-.19zm2.29 10.58v-5.94c0-.53-.45-.76-.45-.76a4.8 4.8 0 0 0-1.69-.15h.2-8.94v6.85h-4.25V.2h13.26c2.3 0 3.87.35 4.96 1.4 1.07 1.1 1.21 2.52 1.22 4v1.24a4.12 4.12 0 0 1-1.44 3.08l.16.08c.32.16.5.38.5.38.6.77.6 1.43.59 2.24v4.98h-4.12zM0 .2V17.6h4.25v-6.84h12.87V7.02H4.26V4.06h14.96V.2H0zM152.4 14.52v.8h.74c.2 0 .4-.06.43-.36.04-.4-.24-.44-.43-.44h-.74zm-.3-.26h1.04c.36 0 .7.07.73.59.02.3-.07.4-.3.58.24.15.24.19.28.59.02.3-.02.35.11.55h-.35l-.05-.29c-.05-.27.08-.7-.4-.7h-.76v1h-.3v-2.32zm.78-.64c-1.02 0-1.86.83-1.85 1.86a1.86 1.86 0 1 0 1.85-1.87m0 3.97a2.1 2.1 0 1 1 0-4.2 2.1 2.1 0 0 1 0 4.2" style="fill:#231f20"/><path d="M43.28 17.77c1.38-.47 2.45-2.06 2.71-4.06v-.57h-7.07v4.63h4.36zm2.71-13.13v-.52C45.72 2.03 44.57.39 43.1 0h-4.17v4.64h7.07zm-24.9 8.5v.57c.26 2 1.33 3.6 2.72 4.06h4.34v-4.63h-7.06zM24 0c-1.47.38-2.63 2.03-2.9 4.11v.52h7.06V.01h-4.16zm22 6.56h-7.07v4.64H46V6.57zm-15.91 11.2H37v-4.63h-6.92v4.63zM37 0h-6.92v4.64H37V0zM21.1 11.2h7.05V6.57H21.1v4.63z" style="fill:#ee2e24"/></svg>
