<?xml version="1.0" encoding="UTF-8" standalone="no"?>
<svg
   xmlns:dc="http://purl.org/dc/elements/1.1/"
   xmlns:cc="http://creativecommons.org/ns#"
   xmlns:rdf="http://www.w3.org/1999/02/22-rdf-syntax-ns#"
   xmlns:svg="http://www.w3.org/2000/svg"
   xmlns="http://www.w3.org/2000/svg"
   xmlns:sodipodi="http://sodipodi.sourceforge.net/DTD/sodipodi-0.dtd"
   xmlns:inkscape="http://www.inkscape.org/namespaces/inkscape"
   version="1.1"
   id="svg25166"
   viewBox="0 0 1028.9351 171.233"
   height="171.233"
   width="1028.9351"
   inkscape:version="0.91 r13725"
   sodipodi:docname="Fujifilm_logo.svg">
  <sodipodi:namedview
     pagecolor="#ffffff"
     bordercolor="#666666"
     borderopacity="1"
     objecttolerance="10"
     gridtolerance="10"
     guidetolerance="10"
     inkscape:pageopacity="0"
     inkscape:pageshadow="2"
     inkscape:window-width="1366"
     inkscape:window-height="705"
     id="namedview4952"
     showgrid="false"
     inkscape:zoom="0.5"
     inkscape:cx="409.70319"
     inkscape:cy="-19.745299"
     inkscape:window-x="-8"
     inkscape:window-y="-8"
     inkscape:window-maximized="1"
     inkscape:current-layer="svg25166" />
  <defs
     id="defs25168" />
  <metadata
     id="metadata25171">
    <rdf:RDF>
      <cc:Work
         rdf:about="">
        <dc:format>image/svg+xml</dc:format>
        <dc:type
           rdf:resource="http://purl.org/dc/dcmitype/StillImage" />
        <dc:title></dc:title>
      </cc:Work>
    </rdf:RDF>
  </metadata>
  <g
     id="g5512"
     transform="matrix(2.0661355,0,0,2.0661355,0,-4.1323115)">
    <g
       style="fill:#000000"
       transform="matrix(4.3916816,0,0,-4.3916816,379.3486,2.01011)"
       id="g24728">
      <path
         id="path24730"
         style="fill:#000000;fill-opacity:1;fill-rule:nonzero;stroke:none"
         d="m 0,0 0,-14.77 c 0,-0.96 0.474,-1.453 1.44,-1.502 0.012,-0.001 4.867,-0.001 4.867,-0.001 l 0,-1.657 c 0,-0.185 -0.1,-0.315 -0.306,-0.315 l -7.879,0 c -2.434,0 -2.794,1.34 -2.794,2.557 l 0,14.684 c 0,0.693 0.264,1.021 1.083,1.003 L 0,0"
         inkscape:connector-curvature="0" />
    </g>
    <g
       style="fill:#000000"
       transform="matrix(4.3916816,0,0,-4.3916816,339.47168,2.01011)"
       id="g24732">
      <path
         id="path24734"
         style="fill:#000000;fill-opacity:1;fill-rule:nonzero;stroke:none"
         d="m 0,0 0.001,-17.283 c 0,-0.769 -0.326,-0.962 -0.98,-0.962 l -3.697,0 0,17.291 c 0,0.57 0.218,0.953 1.047,0.953 L 0,0"
         inkscape:connector-curvature="0" />
    </g>
    <g
       style="fill:#000000"
       transform="matrix(4.3916816,0,0,-4.3916816,0,13.05386)"
       id="g24736">
      <path
         id="path24738"
         style="fill:#000000;fill-opacity:1;fill-rule:nonzero;stroke:none"
         d="m 0,0 c 0,1.391 0.003,2.517 2.288,2.517 l 10.044,0 0,-1.756 c 0,-0.125 -0.059,-0.238 -0.234,-0.238 L 6.079,0.525 C 5.27,0.525 4.863,0.137 4.863,-0.679 l 0,-4.633 7.082,0 10e-4,-1.84 c 0,-0.163 -0.102,-0.249 -0.262,-0.249 l -6.821,0 0,-7.351 C 4.848,-15.461 4.494,-15.743 3.716,-15.729 L 0,-15.729 0,0"
         inkscape:connector-curvature="0" />
    </g>
    <g
       style="fill:#000000"
       transform="matrix(4.3916816,0,0,-4.3916816,86.0146,2.00221)"
       id="g24740">
      <path
         id="path24742"
         style="fill:#000000;fill-opacity:1;fill-rule:nonzero;stroke:none"
         d="m 0,0 0,-13.907 c 0,-1.194 0.169,-2.031 1.007,-2.515 1.123,-0.65 3.025,-0.66 4.17,-0.018 0.783,0.437 1.082,1.139 1.082,2.529 l 0,12.984 C 6.259,-0.343 6.482,0 7.298,0 l 3.635,0 10e-4,-13.496 c 0,-3.135 -1.974,-4.421 -3.719,-4.898 -2.322,-0.633 -5.849,-0.643 -8.04,0.015 -2.618,0.788 -3.841,2.338 -3.844,4.882 l -0.002,12.56 C -4.671,-0.331 -4.453,0 -3.756,0 L 0,0"
         inkscape:connector-curvature="0" />
    </g>
    <g
       style="fill:#000000"
       transform="matrix(4.3916816,0,0,-4.3916816,474.26296,2.01451)"
       id="g24744">
      <path
         id="path24746"
         style="fill:#000000;fill-opacity:1;fill-rule:nonzero;stroke:none"
         d="M 0,0 C -0.922,0 -1.448,-0.43 -1.656,-1.253 L -4.633,-13.834 -4.714,-13.832 -7.789,0 -11.993,0 c -0.811,0 -1.066,-0.417 -1.066,-1.061 l 0,-17.183 1.776,0 c 0.286,0 0.404,0.142 0.404,0.433 l 0,14.407 0.281,0 3.801,-14.84 2.489,0 c 0.938,0 1.287,0.385 1.518,1.312 l 3.412,13.528 0.276,0 -0.001,-14.84 3.321,0.005 c 0.815,0 1.187,0.313 1.187,1.114 l 0,17.126 L 0,0"
         inkscape:connector-curvature="0" />
    </g>
    <g
       style="fill:#000000"
       transform="matrix(4.3916816,0,0,-4.3916816,231.57952,45.55406)"
       id="g24748">
      <path
         id="path24750"
         style="fill:#000000;fill-opacity:1;fill-rule:nonzero;stroke:none"
         d="m 0,0 -4.674,0 0,-8.33 3.696,0 c 0.651,0 0.979,0.191 0.979,0.962 C 0.001,-7.368 0,-3.805 0,0"
         inkscape:connector-curvature="0" />
    </g>
    <g
       transform="matrix(4.3916816,0,0,-4.3916816,230.38322,29.92143)"
       id="g24752">
      <path
         id="path24754"
         style="fill:#ed1a3a;fill-opacity:1;fill-rule:nonzero;stroke:none"
         d="m 0,0 c 0.164,0.133 0.26,0.233 0.272,0.519 l 0,5.835 -3.629,0 c -0.817,0 -1.044,-0.399 -1.044,-0.967 l 0,-8.834 L 0,0"
         inkscape:connector-curvature="0" />
    </g>
    <g
       style="fill:#000000"
       transform="matrix(4.3916816,0,0,-4.3916816,160.01264,75.79827)"
       id="g24756">
      <path
         id="path24758"
         style="fill:#000000;fill-opacity:1;fill-rule:nonzero;stroke:none"
         d="m 0,0 c 2.03,0.287 2.705,1.493 2.705,3.271 l 0,12.54 c 0,0.75 0.406,0.993 0.93,0.993 l 3.744,0 0,-11.857 C 7.379,2.031 6.765,0.558 5.038,-0.685 4.139,-1.33 2.567,-2.066 -0.839,-2.066 c -1.95,0 -2.817,0.11 -2.934,0.137 -0.165,0.038 -0.232,0.139 -0.232,0.282 l 0,1.531 C -3.204,-0.139 -1.37,-0.195 0,0"
         inkscape:connector-curvature="0" />
    </g>
    <g
       style="fill:#000000"
       transform="matrix(4.3916816,0,0,-4.3916816,262.67744,2.00221)"
       id="g24760">
      <path
         id="path24762"
         style="fill:#000000;fill-opacity:1;fill-rule:nonzero;stroke:none"
         d="m 0,0 c -2.283,0 -2.284,-1.126 -2.284,-2.517 l 0,-4.701 c 0,-0.097 -0.042,-0.136 -0.086,-0.179 l -3.197,-2.519 3.283,0 0,-8.329 3.714,0 c 0.778,-0.015 1.132,0.268 1.145,0.976 l 0,7.351 6.821,0 c 0.16,0 0.263,0.087 0.263,0.249 l 0,1.841 -7.084,0 0,4.633 c 0,0.815 0.408,1.204 1.216,1.204 l 6.021,-0.002 c 0.173,0 0.234,0.112 0.234,0.237 L 10.046,0 0,0"
         inkscape:connector-curvature="0" />
    </g>
  </g>
</svg>
