<svg xmlns="http://www.w3.org/2000/svg" xml:space="preserve" viewBox="0 0 180 50"><path d="M136.2 1v23q0 2.3 2.2 2.3h7.6v2.6q0 .5-.5.5h-12.3c-3.8 0-4.4-2.1-4.4-4V2.6q-.1-1.6 1.7-1.6zm-14.1 0v26.9q0 1.6-1.5 1.5h-5.8V2.5q-.2-1.4 1.6-1.5zM1.7 4.9c0-2.2 0-3.9 3.6-3.9h15.6v2.7q0 .4-.4.4h-9.4Q9.3 4.1 9.3 6v7.2h11v2.9q0 .4-.4.4H9.3v11.4q0 1.6-1.8 1.5H1.7zM32.2 1v21.7q-.2 2.8 1.6 3.9c1.7 1 4.7 1 6.5 0q1.8-.9 1.7-3.9V2.4Q41.8 1 43.6 1h5.7v21c0 4.9-3.1 6.9-5.8 7.6-3.6 1-9.1 1-12.5 0q-6-1.7-6-7.6V2.4Q24.9 1 26.4.9h5.8m137.7.1q-2.1 0-2.6 2l-4.6 19.6h-.1L157.7 1h-6.5q-1.8 0-1.7 1.7v26.8h2.8q.6 0 .6-.7V6.3h.4l5.9 23.1h3.9c1.5 0 2-.6 2.4-2l5.3-21.1h.4v23.1h5.2q1.9 0 1.8-1.7V1zM83.8 16.4h-7.3v13h5.8q1.5.1 1.5-1.5z"/><path fill="#fb0020" d="M83.4 10.9q.4-.2.4-.8V1h-5.7q-1.8 0-1.6 1.5v13.8z"/><path d="M58.4 27.2c3.2-.4 4.2-2.3 4.2-5.1V2.5Q62.7.9 64 1h5.8v18.5c0 4.5-1 6.8-3.6 8.8-1.4 1-3.8 2.2-9.2 2.2l-4.6-.2q-.4-.1-.4-.4v-2.4c1.5-.1 4.3 0 6.4-.3M94.9 1c-3.6 0-3.6 1.8-3.6 3.9v7.3l-.1.3-5 3.9h5.1v13h5.8q1.8 0 1.8-1.5V16.4h10.6q.4 0 .4-.4v-2.9h-11V5.9q0-2 1.9-1.9h9.4q.4 0 .4-.4V1zM10.8 37.9l3.4 7.5 3.2-7.5H19l-4.5 10.6q-.2.4-.6.4h-.7L8.4 38.3q0-.4.3-.4zm19.1 10.5q0 .4-.4.4h-1.9V37.2q0-.4.4-.4h1.9zm65-10q0-.4.5-.4h2.1v10.4q0 .4-.4.5H95zm33.7 2.1 2.3 5.1 2.3-5.1h1.6l-3.7 8.1q-.2.4-.6.4h-.6l-3.6-8.1q0-.4.3-.4zm21.9.6q0-.4.4-.5h1.9v7.8q0 .4-.4.4h-1.9zm-85.7-.7q-1.1 0-2.1.9v-.7h-1.9q-.4 0-.5.5v7.8h1.9q.4 0 .5-.5v-5.6c1.4-1.4 2.8-.7 3.5-.1v-1.9q-.3-.4-1.4-.4M23.2 47v-2.7q-2.4 1-2.3 2.3 0 1 .9 1.1 1-.3 1.4-.7m-.9-6.6c2.6 0 3.2 1.2 3.2 2.2v5.7q0 .4-.5.4h-1.9v-.8c-.7.7-1.7.9-2.2.9s-2.4-.2-2.4-2.2c0-2.2 2.8-3 4.7-3.5l-.1-1.2c-.1-.4-.7-.5-.9-.5q-1.6 0-3.1.8v-1.1q1.5-.6 3.2-.7m36-2.1 1.6.2v-1.1l-1.8-.2c-1 0-3.2.4-3.2 2.3v1.1h-1.5v1h1.5v7.2h1.9q.4 0 .4-.4v-6.8h1.9v-1h-1.9v-.5l.1-1.2q.6-.6 1-.6"/><path fill-rule="evenodd" d="M40.4 45a4 4 0 0 0 4 4c1.3 0 2.3-.7 2.9-1.3q.8-.7 1-2h-1.2c-.1.4-.7 1.7-2.2 1.7-1.8 0-2.1-1.7-2.1-2.8h5.4c.1-2.3-1.2-4-3.6-4.1-2.3-.1-4.2 1.6-4.2 4.5m3.6-3.5q1.2-.2 1.4 2.2h-2.7c.1-.7.2-2.2 1.3-2.2" clip-rule="evenodd"/><path d="M70.6 41.4c-.8.1-1.8 1.4-1.3 4.2.3 1.8 1.2 2.4 1.9 2.4s1.5-1 1.5-2.7c0-3.5-1.5-4-2.1-3.9m4.6 3.2c0 2.3-1.8 4.4-4.3 4.4-2.4 0-4.3-1.8-4.3-4.2s1.7-4.3 4.3-4.3a4 4 0 0 1 4.3 4.1m46-3.2c-.8.1-1.8 1.4-1.3 4.2q.7 2.5 1.9 2.4c.7 0 1.5-1 1.5-2.7 0-3.5-1.5-4-2.1-3.9m4.6 3.2c0 2.3-1.8 4.4-4.3 4.4-2.4 0-4.3-1.8-4.3-4.2s1.7-4.3 4.3-4.3a4 4 0 0 1 4.3 4.1m32.6-3.2c-.8.1-1.8 1.4-1.3 4.2q.7 2.5 1.9 2.4c.7 0 1.5-1 1.5-2.7 0-3.5-1.4-4-2.1-3.9m4.7 3.2c0 2.3-1.8 4.4-4.3 4.4-2.4 0-4.3-1.8-4.3-4.2s1.7-4.3 4.3-4.3a4 4 0 0 1 4.3 4.1m-10.1-6q-.1 1.2-1.3 1.3-1.2-.1-1.3-1.3.1-1.2 1.3-1.3 1.2.1 1.3 1.3m-118.8 2v5.8c0 .5.4 1.2 1.1 1.2q.6-.1 1.3-1v-5.5q0-.4.5-.4H39v7.8q0 .4-.5.4h-1.9v-.8l-1 .7q-.5.3-1 .2a3 3 0 0 1-2.7-2.6v-5.3q0-.4.5-.4h1.8m110.5-.1v-2.1q0-.4.4-.5h1.9v2.6h1.9v1H147v5.3l.1.4.5.2c.5 0 1.2-.4 1.3-.6v1.2q-.8.8-2.3.9c-1.5 0-2-1.1-2-2v-5.4h-1.2v-1zM111 42.8c.1-.1.9-.9 1.6-.9q.8.1.8 1.3v5.6h1.9q.4 0 .4-.4V43c0-1.5-1.3-2.5-2.4-2.5a4 4 0 0 0-2.4.8v-.6H109q-.4 0-.5.4v7.8h1.9q.4 0 .5-.4zm55.9 0c.1-.1.9-.9 1.6-.9q.8.1.8 1.3v5.6h1.9q.3 0 .4-.4V43c0-1.5-1.3-2.5-2.4-2.5a4 4 0 0 0-2.4.8v-.6H165q-.4 0-.4.4v7.8h1.9q.4 0 .4-.4zm-31-1.7v1.1q1.5-.7 3.1-.8c.2 0 .8.1.9.5l.1 1.2c-1.9.5-4.7 1.3-4.7 3.5 0 2 1.9 2.2 2.4 2.2s1.5-.1 2.2-.9v.8h1.9q.4 0 .5-.4v-5.7c0-1-.6-2.2-3.2-2.2q-1.7.1-3.2.7m2.7 6.5q-.9-.2-.9-1.1 0-1.2 2.3-2.3v2.7q-.4.6-1.4.7M102 42.8c.1-.1.9-.9 1.6-.9q.8.1.8 1.3v5.6h1.9q.4 0 .4-.4V43c0-1.5-1.3-2.5-2.4-2.5a4 4 0 0 0-2.4.8v-.6H100q-.4 0-.5.4v7.8h1.9q.4 0 .5-.4zm-15.7-2.4q-1.8.1-2.8 1-1-1.1-2-1a4 4 0 0 0-2.4.8v-.6h-1.9q-.4 0-.4.4v7.8h1.9q.4 0 .5-.4v-5.6c.1-.1.9-.9 1.6-.9q.8.1.8 1.3v5.6h1.9q.4 0 .4-.4v-5.6c.1-.1.9-.9 1.6-.9q.8.1.8 1.3v5.6h1.9q.3 0 .4-.4V43c0-1.6-1.2-2.6-2.3-2.6"/></svg>