<svg xmlns="http://www.w3.org/2000/svg" xml:space="preserve" viewBox="0 0 1104 369"><path d="m748 214-3-2c-2-2-2-6-2-70V73l3-2q2-2 10-2 7 0 10 2l2 3v67c0 80 1 73-11 73zm-329-3q-9-5-16-17l-2-6V95l2-6q7-11 16-17l6-3h62c72-1 66-1 67 10v11c-2 7 2 7-63 7l-61 1-4 3-1 41c0 37 0 38 2 41l2 3h47l49-1q4-3 4-14 0-12-4-14l-31-1h-30l-2-3c-2-2-2-3-2-11 0-16-3-14 36-14h33l6 3q19 9 19 40 0 30-19 40l-6 3H424Zm171 0q-11-5-17-17l-2-6V94l2-5q7-11 17-18l5-2h62c61 0 63 0 65 2l1 12q0 12-2 12c-1 1-7 2-60 2-62 0-64 0-65 4l-1 14v13h60l62 1q3 5 3 17c-1 10 4 10-65 10h-60v12c0 11 0 13 2 15l2 3h60c71 0 64-2 64 14q0 12-2 12c-1 1-7 2-64 2h-62zm198 0q-2-1-2-11c0-9 0-10 2-12l3-2h60c71 0 64 1 64-15q0-13-2-13c-2-2-6-2-52-2-57-1-54-1-63-9l-9-12c-2-6-2-6-2-23 0-16 0-17 2-23q7-12 16-17l6-3h62c74-1 67-2 67 14q0 10-2 12c-1 1-7 2-61 2h-60l-3 3c-3 2-3 3-3 12s0 10 2 12l3 3 50 1c46 0 51 0 54 2q10 4 16 16l4 8v16c0 13-1 17-2 21q-7 16-20 21l-66 2h-63zm233 0c-2-2-2-9-2-58V97h-32c-36 0-35 0-37-7V79c1-11-6-10 77-10h72l3 2c2 2 2 3 2 12 0 15 2 14-32 14h-28v56c0 49 0 56-2 58q0 3-10 3c-9 0-10-1-11-3"/><path fill="#f0d700" d="M148 348 42 284 0 258V152L1 45l84-23 86-22-73 27-73 27v96l1 96 19 10 138 74 155-83 4-2v-91l1-91-78 34-77 34-1 7-8 140-1-15-5-71-3-80 192-85 4-2v233l-88 53-92 56-4 2z"/></svg>