<?xml version="1.0" encoding="utf-8"?>
<!-- Generator: Adobe Illustrator 16.0.0, SVG Export Plug-In . SVG Version: 6.00 Build 0)  -->
<!DOCTYPE svg PUBLIC "-//W3C//DTD SVG 1.1//EN" "http://www.w3.org/Graphics/SVG/1.1/DTD/svg11.dtd">
<svg version="1.1" id="Layer_1" xmlns="http://www.w3.org/2000/svg" xmlns:xlink="http://www.w3.org/1999/xlink" x="0px" y="0px"
	 width="130px" height="130px" viewBox="0 0 130 130" enable-background="new 0 0 130 130" xml:space="preserve">
<g>
	<polygon fill="#B2D2D3" points="65.522,50.132 1.521,87.088 65.522,124.037 129.521,87.088 	"/>
	<polygon fill="#8DB1B2" points="31.875,78.682 31.875,104.612 65.522,124.037 120.885,92.074 120.885,82.101 114.963,78.682 	"/>
	<g>
		<path fill="#374851" d="M98.192,61.013c-9.393-15.071-9.722-48.246-9.722-48.246l-11.735,2.777l-11.736-2.777
			c0,0-0.335,34.02-10.08,48.808l0.001,0.002c-2.903,4.724-1.098,10.216,5.424,13.98c9.016,5.211,23.776,5.211,32.8,0
			C99.92,71.643,101.602,65.856,98.192,61.013z"/>
		<path fill="#25343A" d="M98.192,61.013c-7.207-11.564-9.078-33.785-9.559-43.5l-7.293,1.725l-12.615-2.984
			c0,0-0.362,36.564-10.836,52.463h0.002c-0.776,1.264-1.24,2.578-1.39,3.902c1.017,1.055,2.295,2.045,3.842,2.938
			c9.016,5.211,23.776,5.211,32.8,0C99.92,71.643,101.602,65.856,98.192,61.013z"/>
		<path fill="#FF7F00" d="M88.471,12.767l-11.735,2.777l-11.736-2.777c0,0-0.06,5.93-0.836,13.912
			c0.444,1.434,1.614,2.805,3.525,3.908c4.98,2.877,13.125,2.877,18.106,0c1.896-1.095,3.064-2.456,3.516-3.88
			C88.529,18.71,88.471,12.767,88.471,12.767z"/>
		<path fill="#FF5B00" d="M89.301,26.601c-0.031-0.311-0.061-0.618-0.088-0.922c-0.012-0.131-0.023-0.262-0.035-0.391
			c-0.029-0.316-0.057-0.63-0.082-0.939c-0.013-0.136-0.024-0.27-0.035-0.404c-0.024-0.301-0.049-0.598-0.071-0.891
			c-0.011-0.135-0.021-0.266-0.03-0.397c-0.023-0.283-0.043-0.563-0.063-0.84c-0.009-0.122-0.018-0.242-0.026-0.362
			c-0.017-0.229-0.03-0.455-0.046-0.676c-0.01-0.149-0.02-0.295-0.029-0.441c-0.014-0.221-0.028-0.437-0.041-0.648
			c-0.006-0.111-0.012-0.223-0.02-0.33c-0.015-0.246-0.028-0.484-0.041-0.719c-0.007-0.113-0.012-0.224-0.019-0.334
			c-0.012-0.223-0.023-0.441-0.034-0.653c-0.002-0.046-0.005-0.097-0.007-0.14l-7.293,1.725l-12.615-2.984
			c0,0-0.061,6.115-0.849,14.432c4.993,2.773,12.997,2.744,17.918-0.098c1.896-1.095,3.064-2.456,3.516-3.88
			C89.307,26.671,89.304,26.636,89.301,26.601z"/>
		<path fill="#F4B13B" d="M85.082,7.951c-4.589-2.651-12.093-2.651-16.681,0c-4.592,2.647-4.592,6.982,0,9.631
			c4.588,2.651,12.092,2.651,16.681,0C89.672,14.934,89.672,10.599,85.082,7.951z"/>
		<path fill="#F4B13B" d="M85.688,32.771c-4.922,2.845-12.973,2.845-17.894,0c-2.348-1.354-3.572-3.119-3.683-4.901
			c-0.12,1.957,1.104,3.94,3.683,5.427c4.921,2.843,12.972,2.843,17.894,0c2.576-1.486,3.801-3.47,3.681-5.427
			C89.261,29.652,88.035,31.418,85.688,32.771z"/>
		<path fill="#F4B13B" d="M87.768,51.821c-6.064,3.503-15.986,3.503-22.052,0c-2.894-1.67-4.403-3.846-4.538-6.045
			c-0.148,2.414,1.361,4.859,4.538,6.691c6.065,3.504,15.987,3.504,22.052,0c3.176-1.832,4.686-4.277,4.536-6.691
			C92.169,47.976,90.66,50.151,87.768,51.821z"/>
		<path fill="#EDA411" d="M68.401,17.582c4.588,2.651,12.092,2.651,16.681,0c4.59-2.648,4.59-6.983,0-9.631"/>
		<path fill="#25343A" d="M83.578,8.728c-3.762-2.174-9.912-2.174-13.674,0c-3.764,2.17-3.764,5.723,0,7.895
			c3.762,2.172,9.912,2.172,13.674,0C87.341,14.45,87.341,10.897,83.578,8.728z"/>
		<path fill="#1C2B30" d="M81.919,11.04c-2.849-1.646-7.508-1.646-10.355,0c-2.848,1.643-2.848,4.334,0,5.978
			c2.848,1.645,7.507,1.645,10.355,0C84.767,15.374,84.767,12.683,81.919,11.04z"/>
		<path fill="#081316" d="M80.162,13.485c-1.883-1.086-4.96-1.086-6.842,0c-1.882,1.088-1.882,2.863,0,3.951
			c1.882,1.086,4.959,1.086,6.842,0C82.044,16.349,82.044,14.573,80.162,13.485z"/>
	</g>
	<g>
		<path fill="#374851" d="M76.49,73.427c-9.393-15.072-9.722-48.246-9.722-48.246l-11.734,2.777l-11.737-2.777
			c0,0-0.335,34.019-10.08,48.807l0.001,0.002c-2.903,4.724-1.097,10.217,5.424,13.98c9.016,5.211,23.776,5.211,32.8,0
			C78.219,84.056,79.9,78.271,76.49,73.427z"/>
		<path fill="#25343A" d="M76.49,73.427c-7.207-11.564-9.078-33.785-9.559-43.502l-7.293,1.727l-12.615-2.985
			c0,0-0.362,36.565-10.836,52.463h0.002c-0.776,1.265-1.24,2.579-1.389,3.903c1.016,1.054,2.294,2.045,3.841,2.938
			c9.016,5.211,23.776,5.211,32.8,0C78.219,84.056,79.9,78.271,76.49,73.427z"/>
		<path fill="#FF7F00" d="M66.769,25.181l-11.734,2.777l-11.737-2.777c0,0-0.059,5.93-0.836,13.911
			c0.444,1.435,1.615,2.806,3.525,3.909c4.98,2.877,13.126,2.877,18.106,0c1.897-1.096,3.064-2.457,3.516-3.881
			C66.828,31.124,66.769,25.181,66.769,25.181z"/>
		<path fill="#FF5B00" d="M67.599,39.015c-0.031-0.312-0.061-0.619-0.087-0.923c-0.013-0.13-0.024-0.261-0.036-0.391
			c-0.029-0.315-0.057-0.63-0.082-0.938c-0.013-0.137-0.024-0.271-0.035-0.404c-0.024-0.301-0.048-0.598-0.071-0.891
			c-0.011-0.135-0.02-0.266-0.03-0.398c-0.022-0.283-0.043-0.563-0.063-0.84c-0.008-0.121-0.018-0.242-0.026-0.361
			c-0.016-0.23-0.03-0.455-0.046-0.676c-0.01-0.15-0.019-0.296-0.029-0.441c-0.014-0.221-0.027-0.438-0.041-0.649
			c-0.006-0.11-0.012-0.222-0.019-0.33c-0.016-0.247-0.029-0.484-0.041-0.718c-0.007-0.113-0.012-0.225-0.02-0.334
			c-0.012-0.224-0.022-0.441-0.034-0.654c-0.002-0.046-0.005-0.096-0.007-0.141l-7.293,1.727l-12.615-2.985
			c0,0-0.061,6.116-0.849,14.433c4.993,2.773,12.997,2.744,17.918-0.098c1.897-1.096,3.064-2.457,3.516-3.881
			C67.604,39.085,67.602,39.049,67.599,39.015z"/>
		<path fill="#F4B13B" d="M63.38,20.364c-4.588-2.65-12.093-2.65-16.681,0c-4.592,2.648-4.592,6.982,0,9.631
			c4.588,2.651,12.093,2.651,16.681,0C67.97,27.347,67.97,23.013,63.38,20.364z"/>
		<path fill="#F4B13B" d="M63.987,45.185c-4.923,2.846-12.974,2.846-17.895,0c-2.348-1.354-3.572-3.119-3.683-4.902
			c-0.12,1.959,1.105,3.941,3.683,5.428c4.921,2.844,12.972,2.844,17.895,0c2.575-1.486,3.801-3.469,3.681-5.428
			C67.559,42.065,66.333,43.831,63.987,45.185z"/>
		<path fill="#F4B13B" d="M66.066,64.233c-6.065,3.504-15.987,3.504-22.053,0c-2.893-1.669-4.403-3.844-4.537-6.043
			c-0.149,2.414,1.361,4.858,4.537,6.69c6.065,3.503,15.987,3.503,22.053,0c3.175-1.832,4.685-4.276,4.535-6.69
			C70.468,60.39,68.958,62.564,66.066,64.233z"/>
		<path fill="#EDA411" d="M46.699,29.995c4.588,2.651,12.093,2.651,16.681,0c4.59-2.648,4.59-6.982,0-9.631"/>
		<path fill="#25343A" d="M61.877,21.141c-3.762-2.173-9.913-2.173-13.675,0c-3.763,2.171-3.763,5.724,0,7.896
			c3.762,2.172,9.913,2.172,13.675,0S65.639,23.312,61.877,21.141z"/>
		<path fill="#1C2B30" d="M60.217,23.453c-2.849-1.646-7.507-1.646-10.355,0c-2.848,1.644-2.848,4.334,0,5.978
			c2.849,1.645,7.507,1.645,10.355,0C63.064,27.787,63.064,25.097,60.217,23.453z"/>
		<path fill="#081316" d="M58.46,25.899c-1.883-1.087-4.96-1.087-6.842,0s-1.882,2.863,0,3.95s4.959,1.087,6.842,0
			C60.342,28.763,60.342,26.986,58.46,25.899z"/>
	</g>
	<g>
		<g>
			<g>
				<g>
					<g>
						<g>
							<g>
								<g>
									<polygon fill="#BF3600" points="120.885,87.761 101.985,98.674 101.985,81.013 112.819,68.903 120.885,70.439 									"/>
									<polygon fill="#EF990F" points="101.985,74.749 83.082,70.439 83.082,87.761 101.985,98.674 									"/>
									<polygon fill="#DB5A03" points="120.885,86.123 101.985,97.036 101.985,85.981 112.819,67.265 120.885,68.802 									"/>
									<polyline fill="#C14E00" points="101.985,97.036 101.985,79.717 112.819,67.265 120.885,68.802 									"/>
									<polyline fill="#BF3600" points="101.985,79.717 112.819,71.021 120.885,68.802 									"/>
									<polygon fill="#EDA411" points="101.985,85.981 83.082,68.802 83.082,86.123 101.985,97.036 									"/>
									<polyline fill="#EF990F" points="101.985,97.036 101.985,79.717 83.082,68.802 									"/>
									<polygon fill="#2A3D42" points="112.819,67.265 93.884,60.09 83.082,68.802 101.985,79.717 									"/>
									<polyline fill="#25343A" points="101.985,79.717 112.819,71.021 93.884,60.09 									"/>
									<polygon fill="#1C2B30" points="93.884,60.09 101.985,57.889 120.885,68.802 112.819,71.021 									"/>
									<polygon fill="#0D1619" points="100.199,58.374 100.199,63.735 105.779,66.958 105.779,60.08 101.985,57.889 									"/>
									<polyline fill="#0D1619" points="120.885,68.802 112.819,71.021 93.884,60.09 									"/>
								</g>
							</g>
						</g>
						<g opacity="0.4">
							<g>
								<g>
									<line fill="#847D6F" x1="120.885" y1="81.026" x2="101.985" y2="91.94"/>
									<path fill="#847D6F" d="M101.985,92.002c-0.022,0-0.044-0.011-0.054-0.03c-0.019-0.029-0.009-0.068,0.021-0.084
										l18.903-10.914c0.029-0.016,0.068-0.009,0.086,0.024c0.016,0.028,0.005,0.067-0.024,0.084l-18.9,10.913
										C102.006,92,101.995,92.002,101.985,92.002z"/>
								</g>
								<g>
									<line fill="#847D6F" x1="83.082" y1="81.026" x2="101.985" y2="91.94"/>
									<path fill="#847D6F" d="M101.985,92.002c-0.011,0-0.022-0.002-0.033-0.007L83.05,81.082
										c-0.028-0.017-0.038-0.056-0.021-0.084c0.018-0.033,0.056-0.04,0.086-0.024l18.902,10.914
										c0.028,0.016,0.04,0.055,0.021,0.084C102.027,91.991,102.006,92.002,101.985,92.002z"/>
								</g>
							</g>
							<g>
								<g>
									<g>
										<line fill="#847D6F" x1="120.885" y1="87.761" x2="101.985" y2="98.674"/>
										<path fill="#847D6F" d="M101.985,98.733c-0.022,0-0.044-0.008-0.054-0.029c-0.019-0.028-0.009-0.066,0.021-0.084
											l18.903-10.912c0.029-0.018,0.068-0.008,0.086,0.021c0.016,0.029,0.005,0.07-0.024,0.088l-18.9,10.912
											C102.006,98.731,101.995,98.733,101.985,98.733z"/>
									</g>
									<g>
										<line fill="#847D6F" x1="83.082" y1="87.761" x2="101.985" y2="98.674"/>
										<path fill="#847D6F" d="M101.985,98.733c-0.011,0-0.022-0.002-0.033-0.004L83.05,87.817
											c-0.028-0.018-0.038-0.059-0.021-0.088c0.018-0.029,0.056-0.039,0.086-0.021l18.902,10.912
											c0.028,0.018,0.04,0.056,0.021,0.084C102.027,98.726,102.006,98.733,101.985,98.733z"/>
									</g>
								</g>
								<g>
									<g>
										<line fill="#847D6F" x1="120.885" y1="86.92" x2="101.985" y2="97.833"/>
										<path fill="#847D6F" d="M101.985,97.896c-0.022,0-0.044-0.011-0.054-0.033c-0.019-0.028-0.009-0.067,0.021-0.086
											l18.903-10.91c0.029-0.016,0.068-0.008,0.086,0.022c0.016,0.027,0.005,0.07-0.024,0.085l-18.9,10.914
											C102.006,97.892,101.995,97.896,101.985,97.896z"/>
									</g>
									<g>
										<line fill="#847D6F" x1="83.082" y1="86.92" x2="101.985" y2="97.833"/>
										<path fill="#847D6F" d="M101.985,97.896c-0.011,0-0.022-0.004-0.033-0.008L83.05,86.974
											c-0.028-0.015-0.038-0.058-0.021-0.085c0.018-0.03,0.056-0.038,0.086-0.022l18.902,10.91
											c0.028,0.019,0.04,0.058,0.021,0.086C102.027,97.885,102.006,97.896,101.985,97.896z"/>
									</g>
								</g>
								<g>
									<g>
										<line fill="#847D6F" x1="120.885" y1="86.078" x2="101.985" y2="96.991"/>
										<path fill="#847D6F" d="M101.985,97.052c-0.022,0-0.044-0.011-0.054-0.029c-0.019-0.031-0.009-0.068,0.021-0.086
											l18.903-10.912c0.029-0.018,0.068-0.01,0.086,0.021c0.016,0.031,0.005,0.069-0.024,0.088l-18.9,10.909
											C102.006,97.05,101.995,97.052,101.985,97.052z"/>
									</g>
									<g>
										<line fill="#847D6F" x1="83.082" y1="86.078" x2="101.985" y2="96.991"/>
										<path fill="#847D6F" d="M101.985,97.052c-0.011,0-0.022-0.002-0.033-0.009L83.05,86.134
											c-0.028-0.019-0.038-0.057-0.021-0.088c0.018-0.031,0.056-0.039,0.086-0.021l18.902,10.912
											c0.028,0.018,0.04,0.055,0.021,0.086C102.027,97.041,102.006,97.052,101.985,97.052z"/>
									</g>
								</g>
								<g>
									<g>
										<line fill="#847D6F" x1="120.885" y1="85.235" x2="101.985" y2="96.147"/>
										<path fill="#847D6F" d="M101.985,96.212c-0.022,0-0.044-0.01-0.054-0.031c-0.019-0.03-0.009-0.068,0.021-0.088
											l18.903-10.91c0.029-0.016,0.068-0.008,0.086,0.021c0.016,0.029,0.005,0.07-0.024,0.088l-18.9,10.911
											C102.006,96.21,101.995,96.212,101.985,96.212z"/>
									</g>
									<g>
										<line fill="#847D6F" x1="83.082" y1="85.235" x2="101.985" y2="96.147"/>
										<path fill="#847D6F" d="M101.985,96.212c-0.011,0-0.022-0.002-0.033-0.009L83.05,85.292
											c-0.028-0.018-0.038-0.059-0.021-0.088c0.018-0.029,0.056-0.037,0.086-0.021l18.902,10.91
											c0.028,0.02,0.04,0.058,0.021,0.088C102.027,96.202,102.006,96.212,101.985,96.212z"/>
									</g>
								</g>
								<g>
									<g>
										<line fill="#847D6F" x1="120.885" y1="84.395" x2="101.985" y2="95.306"/>
										<path fill="#847D6F" d="M101.985,95.37c-0.022,0-0.044-0.012-0.054-0.031c-0.019-0.033-0.009-0.067,0.021-0.088
											l18.903-10.908c0.029-0.021,0.068-0.01,0.086,0.021c0.016,0.031,0.005,0.068-0.024,0.087l-18.9,10.91
											C102.006,95.368,101.995,95.37,101.985,95.37z"/>
									</g>
									<g>
										<line fill="#847D6F" x1="83.082" y1="84.395" x2="101.985" y2="95.306"/>
										<path fill="#847D6F" d="M101.985,95.37c-0.011,0-0.022-0.002-0.033-0.01L83.05,84.45
											c-0.028-0.019-0.038-0.056-0.021-0.087c0.018-0.03,0.056-0.041,0.086-0.021l18.902,10.908
											c0.028,0.021,0.04,0.055,0.021,0.088C102.027,95.358,102.006,95.37,101.985,95.37z"/>
									</g>
								</g>
								<g>
									<g>
										<line fill="#847D6F" x1="120.885" y1="83.554" x2="101.985" y2="94.466"/>
										<path fill="#847D6F" d="M101.985,94.53c-0.022,0-0.044-0.013-0.054-0.033c-0.019-0.029-0.009-0.068,0.021-0.086
											l18.903-10.912c0.029-0.018,0.068-0.008,0.086,0.023c0.016,0.028,0.005,0.066-0.024,0.084l-18.9,10.913
											C102.006,94.523,101.995,94.53,101.985,94.53z"/>
									</g>
									<g>
										<line fill="#847D6F" x1="83.082" y1="83.554" x2="101.985" y2="94.466"/>
										<path fill="#847D6F" d="M101.985,94.53c-0.011,0-0.022-0.007-0.033-0.011L83.05,83.606
											c-0.028-0.018-0.038-0.056-0.021-0.084c0.018-0.031,0.056-0.041,0.086-0.023l18.902,10.912
											c0.028,0.018,0.04,0.057,0.021,0.086C102.027,94.518,102.006,94.53,101.985,94.53z"/>
									</g>
								</g>
								<g>
									<g>
										<line fill="#847D6F" x1="120.885" y1="82.712" x2="101.985" y2="93.624"/>
										<path fill="#847D6F" d="M101.985,93.687c-0.022,0-0.044-0.012-0.054-0.031c-0.019-0.031-0.009-0.066,0.021-0.086
											l18.903-10.914c0.029-0.016,0.068-0.006,0.086,0.026c0.016,0.03,0.005,0.065-0.024,0.086l-18.9,10.911
											C102.006,93.683,101.995,93.687,101.985,93.687z"/>
									</g>
									<g>
										<line fill="#847D6F" x1="83.082" y1="82.712" x2="101.985" y2="93.624"/>
										<path fill="#847D6F" d="M101.985,93.687c-0.011,0-0.022-0.004-0.033-0.008L83.05,82.768
											c-0.028-0.021-0.038-0.056-0.021-0.086c0.018-0.032,0.056-0.042,0.086-0.026l18.902,10.914
											c0.028,0.02,0.04,0.055,0.021,0.086C102.027,93.675,102.006,93.687,101.985,93.687z"/>
									</g>
								</g>
								<g>
									<g>
										<line fill="#847D6F" x1="120.885" y1="81.87" x2="101.985" y2="92.782"/>
										<path fill="#847D6F" d="M101.985,92.845c-0.022,0-0.044-0.011-0.054-0.031c-0.019-0.029-0.009-0.07,0.021-0.086
											l18.903-10.912c0.029-0.017,0.068-0.007,0.086,0.023c0.016,0.029,0.005,0.066-0.024,0.086l-18.9,10.909
											C102.006,92.842,101.995,92.845,101.985,92.845z"/>
									</g>
									<g>
										<line fill="#847D6F" x1="83.082" y1="81.87" x2="101.985" y2="92.782"/>
										<path fill="#847D6F" d="M101.985,92.845c-0.011,0-0.022-0.003-0.033-0.011L83.05,81.925
											c-0.028-0.02-0.038-0.057-0.021-0.086c0.018-0.03,0.056-0.04,0.086-0.023l18.902,10.912
											c0.028,0.016,0.04,0.057,0.021,0.086C102.027,92.834,102.006,92.845,101.985,92.845z"/>
									</g>
								</g>
								<g>
									<g>
										<line fill="#847D6F" x1="120.885" y1="80.187" x2="101.985" y2="91.097"/>
										<path fill="#847D6F" d="M101.985,91.162c-0.022,0-0.044-0.01-0.054-0.032c-0.019-0.029-0.009-0.07,0.021-0.085
											l18.903-10.914c0.029-0.014,0.068-0.006,0.086,0.025c0.016,0.028,0.005,0.067-0.024,0.085l-18.9,10.911
											C102.006,91.158,101.995,91.162,101.985,91.162z"/>
									</g>
									<g>
										<line fill="#847D6F" x1="83.082" y1="80.187" x2="101.985" y2="91.097"/>
										<path fill="#847D6F" d="M101.985,91.162c-0.011,0-0.022-0.004-0.033-0.01L83.05,80.241
											c-0.028-0.018-0.038-0.057-0.021-0.085c0.018-0.031,0.056-0.039,0.086-0.025l18.902,10.914
											c0.028,0.015,0.04,0.056,0.021,0.085C102.027,91.152,102.006,91.162,101.985,91.162z"/>
									</g>
								</g>
								<g>
									<g>
										<line fill="#847D6F" x1="120.885" y1="79.345" x2="101.985" y2="90.257"/>
										<path fill="#847D6F" d="M101.985,90.319c-0.022,0-0.044-0.01-0.054-0.029c-0.019-0.031-0.009-0.07,0.021-0.085
											l18.903-10.913c0.029-0.018,0.068-0.01,0.086,0.021c0.016,0.031,0.005,0.068-0.024,0.085l-18.9,10.914
											C102.006,90.317,101.995,90.319,101.985,90.319z"/>
									</g>
									<g>
										<line fill="#847D6F" x1="83.082" y1="79.345" x2="101.985" y2="90.257"/>
										<path fill="#847D6F" d="M101.985,90.319c-0.011,0-0.022-0.002-0.033-0.007L83.05,79.398
											c-0.028-0.017-0.038-0.054-0.021-0.085c0.018-0.031,0.056-0.039,0.086-0.021l18.902,10.913
											c0.028,0.015,0.04,0.054,0.021,0.085C102.027,90.31,102.006,90.319,101.985,90.319z"/>
									</g>
								</g>
								<g>
									<g>
										<line fill="#847D6F" x1="120.885" y1="78.503" x2="101.985" y2="89.415"/>
										<path fill="#847D6F" d="M101.985,89.479c-0.022,0-0.044-0.015-0.054-0.03c-0.019-0.031-0.009-0.07,0.021-0.088
											l18.903-10.911c0.029-0.019,0.068-0.006,0.086,0.024c0.016,0.027,0.005,0.066-0.024,0.085l-18.9,10.911
											C102.006,89.475,101.995,89.479,101.985,89.479z"/>
									</g>
									<g>
										<line fill="#847D6F" x1="83.082" y1="78.503" x2="101.985" y2="89.415"/>
										<path fill="#847D6F" d="M101.985,89.479c-0.011,0-0.022-0.004-0.033-0.009L83.05,78.559
											c-0.028-0.019-0.038-0.058-0.021-0.085c0.018-0.03,0.056-0.043,0.086-0.024l18.902,10.911
											c0.028,0.018,0.04,0.057,0.021,0.088C102.027,89.464,102.006,89.479,101.985,89.479z"/>
									</g>
								</g>
								<g>
									<g>
										<line fill="#847D6F" x1="120.885" y1="77.659" x2="101.985" y2="88.573"/>
										<path fill="#847D6F" d="M101.985,88.636c-0.022,0-0.044-0.012-0.054-0.032c-0.019-0.03-0.009-0.065,0.021-0.082
											l18.903-10.915c0.029-0.016,0.068-0.007,0.086,0.023c0.016,0.029,0.005,0.068-0.024,0.086l-18.9,10.913
											C102.006,88.634,101.995,88.636,101.985,88.636z"/>
									</g>
									<g>
										<line fill="#847D6F" x1="83.082" y1="77.659" x2="101.985" y2="88.573"/>
										<path fill="#847D6F" d="M101.985,88.636c-0.011,0-0.022-0.002-0.033-0.007L83.05,77.716
											c-0.028-0.018-0.038-0.057-0.021-0.086c0.018-0.03,0.056-0.039,0.086-0.023l18.902,10.915
											c0.028,0.017,0.04,0.052,0.021,0.082C102.027,88.624,102.006,88.636,101.985,88.636z"/>
									</g>
								</g>
								<g>
									<g>
										<line fill="#847D6F" x1="120.885" y1="76.819" x2="101.985" y2="87.731"/>
										<path fill="#847D6F" d="M101.985,87.795c-0.022,0-0.044-0.011-0.054-0.032c-0.019-0.029-0.009-0.068,0.021-0.084
											l18.903-10.912c0.029-0.02,0.068-0.008,0.086,0.02c0.016,0.031,0.005,0.072-0.024,0.086l-18.9,10.912
											C102.006,87.791,101.995,87.795,101.985,87.795z"/>
									</g>
									<g>
										<line fill="#847D6F" x1="83.082" y1="76.819" x2="101.985" y2="87.731"/>
										<path fill="#847D6F" d="M101.985,87.795c-0.011,0-0.022-0.004-0.033-0.011L83.05,76.872
											c-0.028-0.014-0.038-0.055-0.021-0.086c0.018-0.027,0.056-0.039,0.086-0.02l18.902,10.912
											c0.028,0.016,0.04,0.055,0.021,0.084C102.027,87.784,102.006,87.795,101.985,87.795z"/>
									</g>
								</g>
								<g>
									<g>
										<line fill="#847D6F" x1="120.885" y1="75.978" x2="101.985" y2="86.89"/>
										<path fill="#847D6F" d="M101.985,86.954c-0.022,0-0.044-0.014-0.054-0.031c-0.019-0.033-0.009-0.068,0.021-0.085
											l18.903-10.913c0.029-0.018,0.068-0.009,0.086,0.021c0.016,0.029,0.005,0.068-0.024,0.087l-18.9,10.911
											C102.006,86.952,101.995,86.954,101.985,86.954z"/>
									</g>
									<g>
										<line fill="#847D6F" x1="83.082" y1="75.978" x2="101.985" y2="86.89"/>
										<path fill="#847D6F" d="M101.985,86.954c-0.011,0-0.022-0.002-0.033-0.01L83.05,76.033
											c-0.028-0.019-0.038-0.058-0.021-0.087c0.018-0.03,0.056-0.039,0.086-0.021l18.902,10.913
											c0.028,0.017,0.04,0.052,0.021,0.085C102.027,86.94,102.006,86.954,101.985,86.954z"/>
									</g>
								</g>
								<g>
									<g>
										<line fill="#847D6F" x1="120.885" y1="75.136" x2="101.985" y2="86.047"/>
										<path fill="#847D6F" d="M101.985,86.112c-0.022,0-0.044-0.014-0.054-0.032c-0.019-0.031-0.009-0.067,0.021-0.085
											l18.903-10.914c0.029-0.016,0.068-0.005,0.086,0.023c0.016,0.029,0.005,0.07-0.024,0.086l-18.9,10.912
											C102.006,86.108,101.995,86.112,101.985,86.112z"/>
									</g>
									<g>
										<line fill="#847D6F" x1="83.082" y1="75.136" x2="101.985" y2="86.047"/>
										<path fill="#847D6F" d="M101.985,86.112c-0.011,0-0.022-0.004-0.033-0.01L83.05,75.19
											c-0.028-0.016-0.038-0.057-0.021-0.086c0.018-0.028,0.056-0.039,0.086-0.023l18.902,10.914
											c0.028,0.018,0.04,0.054,0.021,0.085C102.027,86.099,102.006,86.112,101.985,86.112z"/>
									</g>
								</g>
							</g>
						</g>
						<g>
							<g>
								<polygon fill="#3AA3D8" points="95.698,79.806 97.517,80.86 97.517,79.341 95.698,78.283 								"/>
								<polygon fill="#2585CC" points="95.882,79.704 97.517,80.649 97.517,79.341 95.882,78.393 								"/>
								<polyline fill="#1676BF" points="97.517,80.649 97.517,79.341 95.882,78.393 								"/>
								<polygon fill="#4DBBFF" points="95.882,79.17 97.517,80.113 97.517,80.011 95.882,79.072 								"/>
								<polygon fill="#4DBBFF" points="95.882,78.825 97.517,79.767 97.517,79.669 95.882,78.728 								"/>
								<polygon fill="#4DBBFF" points="95.882,78.483 97.517,79.431 97.517,79.326 95.882,78.384 								"/>
							</g>
							<g>
								<polygon fill="#3AA3D8" points="98.275,81.29 100.097,82.343 100.097,80.823 98.275,79.767 								"/>
								<polygon fill="#2585CC" points="98.464,81.191 100.097,82.134 100.097,80.823 98.464,79.875 								"/>
								<polyline fill="#1676BF" points="100.097,82.134 100.097,80.823 98.464,79.875 								"/>
								<polygon fill="#4DBBFF" points="98.464,80.653 100.097,81.597 100.097,81.495 98.464,80.554 								"/>
								<polygon fill="#4DBBFF" points="98.464,80.31 100.097,81.253 100.097,81.152 98.464,80.21 								"/>
								<polygon fill="#4DBBFF" points="98.464,79.968 100.097,80.912 100.097,80.81 98.464,79.868 								"/>
							</g>
						</g>
						<g>
							<g>
								<polygon fill="#3AA3D8" points="90.191,76.618 92.009,77.673 92.009,76.153 90.191,75.097 								"/>
								<polygon fill="#2585CC" points="90.373,76.52 92.009,77.464 92.009,76.153 90.373,75.206 								"/>
								<polyline fill="#1676BF" points="92.009,77.464 92.009,76.153 90.373,75.206 								"/>
								<polygon fill="#4DBBFF" points="90.373,75.983 92.009,76.924 92.009,76.825 90.373,75.885 								"/>
								<polygon fill="#4DBBFF" points="90.373,75.64 92.009,76.579 92.009,76.481 90.373,75.536 								"/>
								<polygon fill="#4DBBFF" points="90.373,75.298 92.009,76.241 92.009,76.14 90.373,75.196 								"/>
							</g>
							<g>
								<polygon fill="#3AA3D8" points="92.768,78.101 94.589,79.156 94.589,77.635 92.768,76.579 								"/>
								<polygon fill="#2585CC" points="92.956,78.004 94.589,78.946 94.589,77.635 92.956,76.689 								"/>
								<polyline fill="#1676BF" points="94.589,78.946 94.589,77.635 92.956,76.689 								"/>
								<polygon fill="#4DBBFF" points="92.956,77.466 94.589,78.407 94.589,78.308 92.956,77.364 								"/>
								<polygon fill="#4DBBFF" points="92.956,77.122 94.589,78.065 94.589,77.965 92.956,77.022 								"/>
								<polygon fill="#4DBBFF" points="92.956,76.782 94.589,77.725 94.589,77.622 92.956,76.682 								"/>
							</g>
						</g>
						<g>
							<g>
								<polygon fill="#3AA3D8" points="84.684,73.431 86.502,74.484 86.502,72.965 84.684,71.911 								"/>
								<polygon fill="#2585CC" points="84.866,73.335 86.502,74.277 86.502,72.965 84.866,72.019 								"/>
								<polyline fill="#1676BF" points="86.502,74.277 86.502,72.965 84.866,72.019 								"/>
								<polygon fill="#4DBBFF" points="84.866,72.796 86.502,73.737 86.502,73.641 84.866,72.696 								"/>
								<polygon fill="#4DBBFF" points="84.866,72.449 86.502,73.392 86.502,73.294 84.866,72.351 								"/>
								<polygon fill="#4DBBFF" points="84.866,72.11 86.502,73.052 86.502,72.954 84.866,72.007 								"/>
							</g>
							<g>
								<polygon fill="#3AA3D8" points="87.261,74.915 89.081,75.967 89.081,74.447 87.261,73.392 								"/>
								<polygon fill="#2585CC" points="87.448,74.817 89.081,75.761 89.081,74.447 87.448,73.503 								"/>
								<polyline fill="#1676BF" points="89.081,75.761 89.081,74.447 87.448,73.503 								"/>
								<polygon fill="#4DBBFF" points="87.448,74.279 89.081,75.22 89.081,75.12 87.448,74.179 								"/>
								<polygon fill="#4DBBFF" points="87.448,73.937 89.081,74.878 89.081,74.778 87.448,73.837 								"/>
								<polygon fill="#4DBBFF" points="87.448,73.597 89.081,74.538 89.081,74.436 87.448,73.495 								"/>
							</g>
						</g>
						<g>
							<g>
								<polygon fill="#3AA3D8" points="95.698,83.753 97.517,84.807 97.517,83.288 95.698,82.231 								"/>
								<polygon fill="#2585CC" points="95.882,83.651 97.517,84.597 97.517,83.288 95.882,82.339 								"/>
								<polyline fill="#1676BF" points="97.517,84.597 97.517,83.288 95.882,82.339 								"/>
								<polygon fill="#4DBBFF" points="95.882,83.117 97.517,84.062 97.517,83.959 95.882,83.019 								"/>
								<polygon fill="#4DBBFF" points="95.882,82.772 97.517,83.715 97.517,83.616 95.882,82.674 								"/>
								<polygon fill="#4DBBFF" points="95.882,82.432 97.517,83.378 97.517,83.273 95.882,82.329 								"/>
							</g>
							<g>
								<polygon fill="#3AA3D8" points="98.275,85.237 100.097,86.289 100.097,84.771 98.275,83.715 								"/>
								<polygon fill="#2585CC" points="98.464,85.138 100.097,86.08 100.097,84.771 98.464,83.821 								"/>
								<polyline fill="#1676BF" points="100.097,86.08 100.097,84.771 98.464,83.821 								"/>
								<polygon fill="#4DBBFF" points="98.464,84.601 100.097,85.542 100.097,85.441 98.464,84.499 								"/>
								<polygon fill="#4DBBFF" points="98.464,84.257 100.097,85.199 100.097,85.101 98.464,84.157 								"/>
								<polygon fill="#4DBBFF" points="98.464,83.915 100.097,84.858 100.097,84.758 98.464,83.817 								"/>
							</g>
						</g>
						<g>
							<g>
								<polygon fill="#3AA3D8" points="90.191,80.564 92.009,81.62 92.009,80.101 90.191,79.044 								"/>
								<polygon fill="#2585CC" points="90.373,80.466 92.009,81.41 92.009,80.101 90.373,79.153 								"/>
								<polyline fill="#1676BF" points="92.009,81.41 92.009,80.101 90.373,79.153 								"/>
								<polygon fill="#4DBBFF" points="90.373,79.931 92.009,80.872 92.009,80.772 90.373,79.832 								"/>
								<polygon fill="#4DBBFF" points="90.373,79.587 92.009,80.527 92.009,80.429 90.373,79.484 								"/>
								<polygon fill="#4DBBFF" points="90.373,79.245 92.009,80.188 92.009,80.087 90.373,79.144 								"/>
							</g>
							<g>
								<polygon fill="#3AA3D8" points="92.768,82.049 94.589,83.103 94.589,81.583 92.768,80.527 								"/>
								<polygon fill="#2585CC" points="92.956,81.951 94.589,82.894 94.589,81.583 92.956,80.638 								"/>
								<polyline fill="#1676BF" points="94.589,82.894 94.589,81.583 92.956,80.638 								"/>
								<polygon fill="#4DBBFF" points="92.956,81.415 94.589,82.355 94.589,82.255 92.956,81.312 								"/>
								<polygon fill="#4DBBFF" points="92.956,81.069 94.589,82.013 94.589,81.912 92.956,80.97 								"/>
								<polygon fill="#4DBBFF" points="92.956,80.728 94.589,81.672 94.589,81.57 92.956,80.63 								"/>
							</g>
						</g>
						<g>
							<g>
								<polygon fill="#3AA3D8" points="84.684,77.378 86.502,78.431 86.502,76.911 84.684,75.856 								"/>
								<polygon fill="#2585CC" points="84.866,77.281 86.502,78.224 86.502,76.911 84.866,75.967 								"/>
								<polyline fill="#1676BF" points="86.502,78.224 86.502,76.911 84.866,75.967 								"/>
								<polygon fill="#4DBBFF" points="84.866,76.743 86.502,77.685 86.502,77.587 84.866,76.644 								"/>
								<polygon fill="#4DBBFF" points="84.866,76.397 86.502,77.339 86.502,77.242 84.866,76.298 								"/>
								<polygon fill="#4DBBFF" points="84.866,76.06 86.502,76.999 86.502,76.901 84.866,75.955 								"/>
							</g>
							<g>
								<polygon fill="#3AA3D8" points="87.261,78.862 89.081,79.915 89.081,78.396 87.261,77.339 								"/>
								<polygon fill="#2585CC" points="87.448,78.765 89.081,79.708 89.081,78.396 87.448,77.45 								"/>
								<polyline fill="#1676BF" points="89.081,79.708 89.081,78.396 87.448,77.45 								"/>
								<polygon fill="#4DBBFF" points="87.448,78.228 89.081,79.166 89.081,79.067 87.448,78.126 								"/>
								<polygon fill="#4DBBFF" points="87.448,77.883 89.081,78.825 89.081,78.726 87.448,77.784 								"/>
								<polygon fill="#4DBBFF" points="87.448,77.544 89.081,78.485 89.081,78.384 87.448,77.442 								"/>
							</g>
						</g>
					</g>
					<g>
						<polygon fill="#EDA411" points="100.199,42.483 102.99,44.095 102.99,63.62 100.199,62.009 						"/>
						<polygon fill="#DB5A03" points="105.779,42.483 102.99,44.095 102.99,63.62 105.779,62.009 						"/>
						<polyline fill="#C14E00" points="105.779,42.483 102.99,44.095 102.99,63.62 						"/>
						<g>
							<polygon fill="#D16822" points="102.99,40.874 105.778,42.485 102.99,44.093 100.204,42.485 							"/>
						</g>
						<g>
							<polygon fill="#25343A" points="102.99,41.396 104.875,42.485 102.99,43.572 101.106,42.485 							"/>
						</g>
						<g>
							<polyline fill="#0D1619" points="102.99,41.396 104.875,42.485 102.99,43.572 							"/>
						</g>
					</g>
				</g>
				<g>
					<polygon fill="#6FAEDD" points="85.529,82.653 85.529,89.088 99.324,97.048 99.324,90.62 					"/>
					<polygon fill="#3AA3D8" points="85.787,88.968 99.324,96.782 99.324,90.62 85.787,82.804 					"/>
					<polyline fill="#1D96CC" points="99.324,96.782 99.324,90.62 85.787,82.804 					"/>
					<polygon opacity="0.6" fill="#3AA3D8" points="89.442,91.294 95.409,94.737 95.409,88.437 89.442,84.99 					"/>
					<polygon opacity="0.6" fill="#3AA3D8" points="92.428,86.702 92.215,86.583 92.215,92.885 92.428,93.009 					"/>
				</g>
			</g>
			<g>
				<polygon fill="#EF990F" points="119.354,78.449 110.843,83.408 110.843,93.581 119.354,88.665 				"/>
				<polygon fill="#0D1619" points="118.957,88.896 110.843,93.581 110.843,83.408 118.957,78.682 				"/>
				<polyline fill="#25343A" points="118.957,88.896 110.843,93.581 110.843,84.419 				"/>
				<polygon fill="#566860" points="118.957,85.11 110.843,89.796 110.843,83.408 118.957,78.682 				"/>
				<polyline fill="#323F38" points="110.843,89.796 110.843,83.408 118.957,78.682 				"/>
				<polygon fill="#6A7F75" points="118.957,84.598 110.843,89.284 110.843,88.966 118.957,84.281 				"/>
				<polygon fill="#6A7F75" points="118.957,83.948 110.843,88.634 110.843,88.316 118.957,83.631 				"/>
				<polygon fill="#6A7F75" points="118.957,83.298 110.843,87.983 110.843,87.667 118.957,82.981 				"/>
				<polygon fill="#6A7F75" points="118.957,82.651 110.843,87.335 110.843,87.017 118.957,82.333 				"/>
				<polygon fill="#6A7F75" points="118.957,82.002 110.843,86.686 110.843,86.367 118.957,81.683 				"/>
				<polygon fill="#6A7F75" points="118.957,81.351 110.843,86.035 110.843,85.718 118.957,81.032 				"/>
				<polygon fill="#6A7F75" points="118.957,80.702 110.843,85.388 110.843,85.067 118.957,80.382 				"/>
				<polygon fill="#6A7F75" points="118.957,80.051 110.843,84.739 110.843,84.419 118.957,79.735 				"/>
				<polygon fill="#6A7F75" points="118.957,79.401 110.843,84.089 110.843,83.771 118.957,79.086 				"/>
			</g>
		</g>
		<g>
			<g>
				<g>
					<g>
						<g>
							<g>
								<g>
									<polygon fill="#BF3600" points="101.595,98.796 82.693,109.709 82.693,92.047 93.527,79.937 101.595,81.475 									"/>
									<polygon fill="#EF990F" points="82.693,85.784 63.791,81.475 63.791,98.796 82.693,109.709 									"/>
									<polygon fill="#DB5A03" points="101.595,97.158 82.693,108.071 82.693,97.017 93.527,78.298 101.595,79.837 									"/>
									<polyline fill="#C14E00" points="82.693,108.071 82.693,90.752 93.527,78.298 101.595,79.837 									"/>
									<polyline fill="#BF3600" points="82.693,90.752 93.527,82.056 101.595,79.837 									"/>
									<polygon fill="#EDA411" points="82.693,97.017 63.791,79.837 63.791,97.158 82.693,108.071 									"/>
									<polyline fill="#EF990F" points="82.693,108.071 82.693,90.752 63.791,79.837 									"/>
									<polygon fill="#2A3D42" points="93.527,78.298 74.593,71.124 63.791,79.837 82.693,90.752 									"/>
									<polyline fill="#25343A" points="82.693,90.752 93.527,82.056 74.593,71.124 									"/>
									<polygon fill="#1C2B30" points="74.593,71.124 82.693,68.924 101.595,79.837 93.527,82.056 									"/>
									<polygon fill="#0D1619" points="80.908,69.409 80.908,74.771 86.488,77.993 86.488,71.114 82.693,68.924 									"/>
									<polyline fill="#0D1619" points="101.595,79.837 93.527,82.056 74.593,71.124 									"/>
								</g>
							</g>
						</g>
						<g opacity="0.4">
							<g>
								<g>
									<line fill="#847D6F" x1="101.595" y1="92.062" x2="82.693" y2="102.976"/>
									<path fill="#847D6F" d="M82.693,103.036c-0.021,0-0.043-0.01-0.054-0.029c-0.018-0.029-0.008-0.068,0.022-0.085
										l18.901-10.913c0.029-0.016,0.068-0.009,0.087,0.024c0.017,0.028,0.006,0.067-0.024,0.084L82.725,103.03
										C82.716,103.035,82.705,103.036,82.693,103.036z"/>
								</g>
								<g>
									<line fill="#847D6F" x1="63.791" y1="92.062" x2="82.693" y2="102.976"/>
									<path fill="#847D6F" d="M82.693,103.036c-0.011,0-0.021-0.001-0.031-0.006L63.76,92.117
										c-0.03-0.017-0.039-0.056-0.022-0.084c0.018-0.033,0.056-0.04,0.087-0.024l18.9,10.913c0.03,0.017,0.041,0.056,0.023,0.085
										C82.736,103.026,82.716,103.036,82.693,103.036z"/>
								</g>
							</g>
							<g>
								<g>
									<g>
										<line fill="#847D6F" x1="101.595" y1="98.796" x2="82.693" y2="109.709"/>
										<path fill="#847D6F" d="M82.693,109.769c-0.021,0-0.043-0.008-0.054-0.029c-0.018-0.029-0.008-0.066,0.022-0.084
											l18.901-10.914c0.029-0.016,0.068-0.006,0.087,0.023c0.017,0.029,0.006,0.07-0.024,0.088l-18.901,10.912
											C82.716,109.767,82.705,109.769,82.693,109.769z"/>
									</g>
									<g>
										<line fill="#847D6F" x1="63.791" y1="98.796" x2="82.693" y2="109.709"/>
										<path fill="#847D6F" d="M82.693,109.769c-0.011,0-0.021-0.002-0.031-0.004L63.76,98.853
											c-0.03-0.018-0.039-0.059-0.022-0.088c0.018-0.029,0.056-0.039,0.087-0.023l18.9,10.914
											c0.03,0.018,0.041,0.055,0.023,0.084C82.736,109.761,82.716,109.769,82.693,109.769z"/>
									</g>
								</g>
								<g>
									<g>
										<line fill="#847D6F" x1="101.595" y1="97.955" x2="82.693" y2="108.867"/>
										<path fill="#847D6F" d="M82.693,108.931c-0.021,0-0.043-0.012-0.054-0.033c-0.018-0.028-0.008-0.067,0.022-0.086
											l18.901-10.91c0.029-0.017,0.068-0.008,0.087,0.021c0.017,0.028,0.006,0.07-0.024,0.086l-18.901,10.913
											C82.716,108.927,82.705,108.931,82.693,108.931z"/>
									</g>
									<g>
										<line fill="#847D6F" x1="63.791" y1="97.955" x2="82.693" y2="108.867"/>
										<path fill="#847D6F" d="M82.693,108.931c-0.011,0-0.021-0.004-0.031-0.009L63.76,98.009
											c-0.03-0.016-0.039-0.058-0.022-0.086c0.018-0.029,0.056-0.038,0.087-0.021l18.9,10.91
											c0.03,0.019,0.041,0.058,0.023,0.086C82.736,108.919,82.716,108.931,82.693,108.931z"/>
									</g>
								</g>
								<g>
									<g>
										<line fill="#847D6F" x1="101.595" y1="97.113" x2="82.693" y2="108.026"/>
										<path fill="#847D6F" d="M82.693,108.087c-0.021,0-0.043-0.011-0.054-0.029c-0.018-0.031-0.008-0.068,0.022-0.086
											l18.901-10.912c0.029-0.018,0.068-0.01,0.087,0.021c0.017,0.031,0.006,0.07-0.024,0.089l-18.901,10.909
											C82.716,108.085,82.705,108.087,82.693,108.087z"/>
									</g>
									<g>
										<line fill="#847D6F" x1="63.791" y1="97.113" x2="82.693" y2="108.026"/>
										<path fill="#847D6F" d="M82.693,108.087c-0.011,0-0.021-0.002-0.031-0.009L63.76,97.169
											c-0.03-0.019-0.039-0.058-0.022-0.089c0.018-0.03,0.056-0.038,0.087-0.021l18.9,10.912
											c0.03,0.018,0.041,0.055,0.023,0.086C82.736,108.076,82.716,108.087,82.693,108.087z"/>
									</g>
								</g>
								<g>
									<g>
										<line fill="#847D6F" x1="101.595" y1="96.271" x2="82.693" y2="107.183"/>
										<path fill="#847D6F" d="M82.693,107.247c-0.021,0-0.043-0.011-0.054-0.031c-0.018-0.031-0.008-0.068,0.022-0.088
											l18.901-10.912c0.029-0.014,0.068-0.006,0.087,0.023c0.017,0.029,0.006,0.07-0.024,0.088l-18.901,10.911
											C82.716,107.245,82.705,107.247,82.693,107.247z"/>
									</g>
									<g>
										<line fill="#847D6F" x1="63.791" y1="96.271" x2="82.693" y2="107.183"/>
										<path fill="#847D6F" d="M82.693,107.247c-0.011,0-0.021-0.002-0.031-0.009L63.76,96.327
											c-0.03-0.018-0.039-0.059-0.022-0.088c0.018-0.029,0.056-0.037,0.087-0.023l18.9,10.912
											c0.03,0.02,0.041,0.057,0.023,0.088C82.736,107.236,82.716,107.247,82.693,107.247z"/>
									</g>
								</g>
								<g>
									<g>
										<line fill="#847D6F" x1="101.595" y1="95.429" x2="82.693" y2="106.341"/>
										<path fill="#847D6F" d="M82.693,106.405c-0.021,0-0.043-0.012-0.054-0.031c-0.018-0.033-0.008-0.068,0.022-0.088
											l18.901-10.91c0.029-0.019,0.068-0.008,0.087,0.022c0.017,0.03,0.006,0.068-0.024,0.087l-18.901,10.91
											C82.716,106.401,82.705,106.405,82.693,106.405z"/>
									</g>
									<g>
										<line fill="#847D6F" x1="63.791" y1="95.429" x2="82.693" y2="106.341"/>
										<path fill="#847D6F" d="M82.693,106.405c-0.011,0-0.021-0.004-0.031-0.01L63.76,95.485
											c-0.03-0.019-0.039-0.057-0.022-0.087c0.018-0.03,0.056-0.041,0.087-0.022l18.9,10.91c0.03,0.02,0.041,0.055,0.023,0.088
											C82.736,106.394,82.716,106.405,82.693,106.405z"/>
									</g>
								</g>
								<g>
									<g>
										<line fill="#847D6F" x1="101.595" y1="94.588" x2="82.693" y2="105.501"/>
										<path fill="#847D6F" d="M82.693,105.565c-0.021,0-0.043-0.012-0.054-0.033c-0.018-0.031-0.008-0.07,0.022-0.086
											l18.901-10.912c0.029-0.019,0.068-0.009,0.087,0.023c0.017,0.027,0.006,0.066-0.024,0.084l-18.901,10.912
											C82.716,105.559,82.705,105.565,82.693,105.565z"/>
									</g>
									<g>
										<line fill="#847D6F" x1="63.791" y1="94.588" x2="82.693" y2="105.501"/>
										<path fill="#847D6F" d="M82.693,105.565c-0.011,0-0.021-0.007-0.031-0.012L63.76,94.642
											c-0.03-0.018-0.039-0.057-0.022-0.084c0.018-0.032,0.056-0.042,0.087-0.023l18.9,10.912
											c0.03,0.016,0.041,0.055,0.023,0.086C82.736,105.554,82.716,105.565,82.693,105.565z"/>
									</g>
								</g>
								<g>
									<g>
										<line fill="#847D6F" x1="101.595" y1="93.747" x2="82.693" y2="104.659"/>
										<path fill="#847D6F" d="M82.693,104.722c-0.021,0-0.043-0.012-0.054-0.031c-0.018-0.031-0.008-0.066,0.022-0.086
											l18.901-10.914c0.029-0.016,0.068-0.006,0.087,0.026c0.017,0.03,0.006,0.065-0.024,0.087l-18.901,10.91
											C82.716,104.718,82.705,104.722,82.693,104.722z"/>
									</g>
									<g>
										<line fill="#847D6F" x1="63.791" y1="93.747" x2="82.693" y2="104.659"/>
										<path fill="#847D6F" d="M82.693,104.722c-0.011,0-0.021-0.004-0.031-0.008L63.76,93.804
											c-0.03-0.021-0.039-0.057-0.022-0.087c0.018-0.032,0.056-0.042,0.087-0.026l18.9,10.914
											c0.03,0.02,0.041,0.055,0.023,0.086C82.736,104.71,82.716,104.722,82.693,104.722z"/>
									</g>
								</g>
								<g>
									<g>
										<line fill="#847D6F" x1="101.595" y1="92.905" x2="82.693" y2="103.817"/>
										<path fill="#847D6F" d="M82.693,103.879c-0.021,0-0.043-0.01-0.054-0.03c-0.018-0.029-0.008-0.07,0.022-0.086
											l18.901-10.912c0.029-0.017,0.068-0.008,0.087,0.023c0.017,0.029,0.006,0.066-0.024,0.086l-18.901,10.909
											C82.716,103.876,82.705,103.879,82.693,103.879z"/>
									</g>
									<g>
										<line fill="#847D6F" x1="63.791" y1="92.905" x2="82.693" y2="103.817"/>
										<path fill="#847D6F" d="M82.693,103.879c-0.011,0-0.021-0.003-0.031-0.01L63.76,92.96c-0.03-0.02-0.039-0.057-0.022-0.086
											c0.018-0.031,0.056-0.04,0.087-0.023l18.9,10.912c0.03,0.016,0.041,0.057,0.023,0.086
											C82.736,103.869,82.716,103.879,82.693,103.879z"/>
									</g>
								</g>
								<g>
									<g>
										<line fill="#847D6F" x1="101.595" y1="91.222" x2="82.693" y2="102.132"/>
										<path fill="#847D6F" d="M82.693,102.197c-0.021,0-0.043-0.01-0.054-0.032c-0.018-0.029-0.008-0.07,0.022-0.085
											l18.901-10.914c0.029-0.014,0.068-0.006,0.087,0.025c0.017,0.028,0.006,0.067-0.024,0.084l-18.901,10.912
											C82.716,102.193,82.705,102.197,82.693,102.197z"/>
									</g>
									<g>
										<line fill="#847D6F" x1="63.791" y1="91.222" x2="82.693" y2="102.132"/>
										<path fill="#847D6F" d="M82.693,102.197c-0.011,0-0.021-0.004-0.031-0.01L63.76,91.275
											c-0.03-0.017-0.039-0.056-0.022-0.084c0.018-0.031,0.056-0.039,0.087-0.025l18.9,10.914
											c0.03,0.015,0.041,0.056,0.023,0.085C82.736,102.188,82.716,102.197,82.693,102.197z"/>
									</g>
								</g>
								<g>
									<g>
										<line fill="#847D6F" x1="101.595" y1="90.38" x2="82.693" y2="101.292"/>
										<path fill="#847D6F" d="M82.693,101.354c-0.021,0-0.043-0.01-0.054-0.03c-0.018-0.03-0.008-0.069,0.022-0.084
											l18.901-10.913c0.029-0.018,0.068-0.01,0.087,0.021c0.017,0.031,0.006,0.068-0.024,0.085l-18.901,10.914
											C82.716,101.353,82.705,101.354,82.693,101.354z"/>
									</g>
									<g>
										<line fill="#847D6F" x1="63.791" y1="90.38" x2="82.693" y2="101.292"/>
										<path fill="#847D6F" d="M82.693,101.354c-0.011,0-0.021-0.002-0.031-0.007L63.76,90.434
											c-0.03-0.017-0.039-0.054-0.022-0.085c0.018-0.031,0.056-0.039,0.087-0.021l18.9,10.913
											c0.03,0.015,0.041,0.054,0.023,0.084C82.736,101.345,82.716,101.354,82.693,101.354z"/>
									</g>
								</g>
								<g>
									<g>
										<line fill="#847D6F" x1="101.595" y1="89.538" x2="82.693" y2="100.45"/>
										<path fill="#847D6F" d="M82.693,100.515c-0.021,0-0.043-0.016-0.054-0.031c-0.018-0.031-0.008-0.07,0.022-0.088
											l18.901-10.911c0.029-0.019,0.068-0.006,0.087,0.024c0.017,0.027,0.006,0.066-0.024,0.084l-18.901,10.912
											C82.716,100.51,82.705,100.515,82.693,100.515z"/>
									</g>
									<g>
										<line fill="#847D6F" x1="63.791" y1="89.538" x2="82.693" y2="100.45"/>
										<path fill="#847D6F" d="M82.693,100.515c-0.011,0-0.021-0.005-0.031-0.01L63.76,89.593
											c-0.03-0.018-0.039-0.057-0.022-0.084c0.018-0.03,0.056-0.043,0.087-0.024l18.9,10.911
											c0.03,0.018,0.041,0.057,0.023,0.088C82.736,100.499,82.716,100.515,82.693,100.515z"/>
									</g>
								</g>
								<g>
									<g>
										<line fill="#847D6F" x1="101.595" y1="88.694" x2="82.693" y2="99.608"/>
										<path fill="#847D6F" d="M82.693,99.671c-0.021,0-0.043-0.014-0.054-0.032c-0.018-0.03-0.008-0.067,0.022-0.083
											l18.901-10.914c0.029-0.016,0.068-0.007,0.087,0.023c0.017,0.029,0.006,0.068-0.024,0.085L82.725,99.663
											C82.716,99.669,82.705,99.671,82.693,99.671z"/>
									</g>
									<g>
										<line fill="#847D6F" x1="63.791" y1="88.694" x2="82.693" y2="99.608"/>
										<path fill="#847D6F" d="M82.693,99.671c-0.011,0-0.021-0.002-0.031-0.008L63.76,88.75
											c-0.03-0.017-0.039-0.056-0.022-0.085c0.018-0.03,0.056-0.039,0.087-0.023l18.9,10.914
											c0.03,0.016,0.041,0.053,0.023,0.083C82.736,99.657,82.716,99.671,82.693,99.671z"/>
									</g>
								</g>
								<g>
									<g>
										<line fill="#847D6F" x1="101.595" y1="87.854" x2="82.693" y2="98.767"/>
										<path fill="#847D6F" d="M82.693,98.83c-0.021,0-0.043-0.013-0.054-0.032c-0.018-0.029-0.008-0.068,0.022-0.085
											l18.901-10.911c0.029-0.02,0.068-0.008,0.087,0.02c0.017,0.031,0.006,0.072-0.024,0.086L82.725,98.819
											C82.716,98.826,82.705,98.83,82.693,98.83z"/>
									</g>
									<g>
										<line fill="#847D6F" x1="63.791" y1="87.854" x2="82.693" y2="98.767"/>
										<path fill="#847D6F" d="M82.693,98.83c-0.011,0-0.021-0.004-0.031-0.011L63.76,87.907
											c-0.03-0.014-0.039-0.055-0.022-0.086c0.018-0.027,0.056-0.039,0.087-0.02l18.9,10.911
											c0.03,0.017,0.041,0.056,0.023,0.085C82.736,98.817,82.716,98.83,82.693,98.83z"/>
									</g>
								</g>
								<g>
									<g>
										<line fill="#847D6F" x1="101.595" y1="87.013" x2="82.693" y2="97.925"/>
										<path fill="#847D6F" d="M82.693,97.988c-0.021,0-0.043-0.013-0.054-0.03c-0.018-0.033-0.008-0.068,0.022-0.085
											l18.901-10.913c0.029-0.018,0.068-0.01,0.087,0.021c0.017,0.029,0.006,0.068-0.024,0.086L82.725,97.979
											C82.716,97.987,82.705,97.988,82.693,97.988z"/>
									</g>
									<g>
										<line fill="#847D6F" x1="63.791" y1="87.013" x2="82.693" y2="97.925"/>
										<path fill="#847D6F" d="M82.693,97.988c-0.011,0-0.021-0.001-0.031-0.009L63.76,87.067
											c-0.03-0.018-0.039-0.057-0.022-0.086c0.018-0.031,0.056-0.039,0.087-0.021l18.9,10.913
											c0.03,0.017,0.041,0.052,0.023,0.085C82.736,97.976,82.716,97.988,82.693,97.988z"/>
									</g>
								</g>
								<g>
									<g>
										<line fill="#847D6F" x1="101.595" y1="86.171" x2="82.693" y2="97.082"/>
										<path fill="#847D6F" d="M82.693,97.147c-0.021,0-0.043-0.014-0.054-0.033c-0.018-0.03-0.008-0.066,0.022-0.084
											l18.901-10.915c0.029-0.015,0.068-0.004,0.087,0.024c0.017,0.029,0.006,0.069-0.024,0.086L82.725,97.138
											C82.716,97.144,82.705,97.147,82.693,97.147z"/>
									</g>
									<g>
										<line fill="#847D6F" x1="63.791" y1="86.171" x2="82.693" y2="97.082"/>
										<path fill="#847D6F" d="M82.693,97.147c-0.011,0-0.021-0.004-0.031-0.01L63.76,86.226
											c-0.03-0.017-0.039-0.057-0.022-0.086c0.018-0.028,0.056-0.039,0.087-0.024l18.9,10.915
											c0.03,0.018,0.041,0.054,0.023,0.084C82.736,97.134,82.716,97.147,82.693,97.147z"/>
									</g>
								</g>
							</g>
						</g>
						<g>
							<g>
								<polygon fill="#3AA3D8" points="76.406,90.84 78.227,91.896 78.227,90.376 76.406,89.318 								"/>
								<polygon fill="#2585CC" points="76.591,90.739 78.227,91.685 78.227,90.376 76.591,89.427 								"/>
								<polyline fill="#1676BF" points="78.227,91.685 78.227,90.376 76.591,89.427 								"/>
								<polygon fill="#4DBBFF" points="76.591,90.205 78.227,91.148 78.227,91.046 76.591,90.106 								"/>
								<polygon fill="#4DBBFF" points="76.591,89.86 78.227,90.802 78.227,90.704 76.591,89.763 								"/>
								<polygon fill="#4DBBFF" points="76.591,89.519 78.227,90.466 78.227,90.361 76.591,89.417 								"/>
							</g>
							<g>
								<polygon fill="#3AA3D8" points="78.985,92.325 80.805,93.378 80.805,91.858 78.985,90.802 								"/>
								<polygon fill="#2585CC" points="79.172,92.226 80.805,93.169 80.805,91.858 79.172,90.91 								"/>
								<polyline fill="#1676BF" points="80.805,93.169 80.805,91.858 79.172,90.91 								"/>
								<polygon fill="#4DBBFF" points="79.172,91.688 80.805,92.631 80.805,92.53 79.172,91.587 								"/>
								<polygon fill="#4DBBFF" points="79.172,91.345 80.805,92.287 80.805,92.187 79.172,91.244 								"/>
								<polygon fill="#4DBBFF" points="79.172,91.003 80.805,91.946 80.805,91.845 79.172,90.903 								"/>
							</g>
						</g>
						<g>
							<g>
								<polygon fill="#3AA3D8" points="70.9,87.651 72.719,88.708 72.719,87.188 70.9,86.132 								"/>
								<polygon fill="#2585CC" points="71.083,87.556 72.719,88.499 72.719,87.188 71.083,86.24 								"/>
								<polyline fill="#1676BF" points="72.719,88.499 72.719,87.188 71.083,86.24 								"/>
								<polygon fill="#4DBBFF" points="71.083,87.019 72.719,87.959 72.719,87.86 71.083,86.92 								"/>
								<polygon fill="#4DBBFF" points="71.083,86.675 72.719,87.614 72.719,87.517 71.083,86.571 								"/>
								<polygon fill="#4DBBFF" points="71.083,86.333 72.719,87.276 72.719,87.175 71.083,86.231 								"/>
							</g>
							<g>
								<polygon fill="#3AA3D8" points="73.478,89.136 75.297,90.191 75.297,88.67 73.478,87.614 								"/>
								<polygon fill="#2585CC" points="73.666,89.039 75.297,89.981 75.297,88.67 73.666,87.725 								"/>
								<polyline fill="#1676BF" points="75.297,89.981 75.297,88.67 73.666,87.725 								"/>
								<polygon fill="#4DBBFF" points="73.666,88.501 75.297,89.442 75.297,89.343 73.666,88.399 								"/>
								<polygon fill="#4DBBFF" points="73.666,88.157 75.297,89.101 75.297,89 73.666,88.058 								"/>
								<polygon fill="#4DBBFF" points="73.666,87.815 75.297,88.76 75.297,88.657 73.666,87.717 								"/>
							</g>
						</g>
						<g>
							<g>
								<polygon fill="#3AA3D8" points="65.393,84.466 67.211,85.52 67.211,83.999 65.393,82.944 								"/>
								<polygon fill="#2585CC" points="65.575,84.369 67.211,85.312 67.211,83.999 65.575,83.054 								"/>
								<polyline fill="#1676BF" points="67.211,85.312 67.211,83.999 65.575,83.054 								"/>
								<polygon fill="#4DBBFF" points="65.575,83.831 67.211,84.772 67.211,84.675 65.575,83.731 								"/>
								<polygon fill="#4DBBFF" points="65.575,83.484 67.211,84.427 67.211,84.329 65.575,83.386 								"/>
								<polygon fill="#4DBBFF" points="65.575,83.146 67.211,84.087 67.211,83.989 65.575,83.042 								"/>
							</g>
							<g>
								<polygon fill="#3AA3D8" points="67.97,85.95 69.79,87.002 69.79,85.482 67.97,84.427 								"/>
								<polygon fill="#2585CC" points="68.157,85.853 69.79,86.796 69.79,85.482 68.157,84.538 								"/>
								<polyline fill="#1676BF" points="69.79,86.796 69.79,85.482 68.157,84.538 								"/>
								<polygon fill="#4DBBFF" points="68.157,85.314 69.79,86.253 69.79,86.155 68.157,85.214 								"/>
								<polygon fill="#4DBBFF" points="68.157,84.972 69.79,85.913 69.79,85.813 68.157,84.872 								"/>
								<polygon fill="#4DBBFF" points="68.157,84.632 69.79,85.573 69.79,85.472 68.157,84.529 								"/>
							</g>
						</g>
						<g>
							<g>
								<polygon fill="#3AA3D8" points="76.406,94.787 78.227,95.841 78.227,94.322 76.406,93.267 								"/>
								<polygon fill="#2585CC" points="76.591,94.687 78.227,95.632 78.227,94.322 76.591,93.374 								"/>
								<polyline fill="#1676BF" points="78.227,95.632 78.227,94.322 76.591,93.374 								"/>
								<polygon fill="#4DBBFF" points="76.591,94.152 78.227,95.097 78.227,94.993 76.591,94.054 								"/>
								<polygon fill="#4DBBFF" points="76.591,93.808 78.227,94.75 78.227,94.651 76.591,93.709 								"/>
								<polygon fill="#4DBBFF" points="76.591,93.466 78.227,94.411 78.227,94.309 76.591,93.364 								"/>
							</g>
							<g>
								<polygon fill="#3AA3D8" points="78.985,96.271 80.805,97.324 80.805,95.806 78.985,94.75 								"/>
								<polygon fill="#2585CC" points="79.172,96.173 80.805,97.114 80.805,95.806 79.172,94.856 								"/>
								<polyline fill="#1676BF" points="80.805,97.114 80.805,95.806 79.172,94.856 								"/>
								<polygon fill="#4DBBFF" points="79.172,95.635 80.805,96.577 80.805,96.477 79.172,95.534 								"/>
								<polygon fill="#4DBBFF" points="79.172,95.292 80.805,96.234 80.805,96.136 79.172,95.192 								"/>
								<polygon fill="#4DBBFF" points="79.172,94.95 80.805,95.894 80.805,95.793 79.172,94.853 								"/>
							</g>
						</g>
						<g>
							<g>
								<polygon fill="#3AA3D8" points="70.9,91.599 72.719,92.655 72.719,91.136 70.9,90.079 								"/>
								<polygon fill="#2585CC" points="71.083,91.501 72.719,92.445 72.719,91.136 71.083,90.187 								"/>
								<polyline fill="#1676BF" points="72.719,92.445 72.719,91.136 71.083,90.187 								"/>
								<polygon fill="#4DBBFF" points="71.083,90.965 72.719,91.907 72.719,91.807 71.083,90.866 								"/>
								<polygon fill="#4DBBFF" points="71.083,90.622 72.719,91.563 72.719,91.464 71.083,90.519 								"/>
								<polygon fill="#4DBBFF" points="71.083,90.28 72.719,91.224 72.719,91.121 71.083,90.177 								"/>
							</g>
							<g>
								<polygon fill="#3AA3D8" points="73.478,93.083 75.297,94.138 75.297,92.618 73.478,91.563 								"/>
								<polygon fill="#2585CC" points="73.666,92.985 75.297,93.929 75.297,92.618 73.666,91.672 								"/>
								<polyline fill="#1676BF" points="75.297,93.929 75.297,92.618 73.666,91.672 								"/>
								<polygon fill="#4DBBFF" points="73.666,92.45 75.297,93.391 75.297,93.29 73.666,92.347 								"/>
								<polygon fill="#4DBBFF" points="73.666,92.104 75.297,93.048 75.297,92.946 73.666,92.005 								"/>
								<polygon fill="#4DBBFF" points="73.666,91.763 75.297,92.706 75.297,92.605 73.666,91.663 								"/>
							</g>
						</g>
						<g>
							<g>
								<polygon fill="#3AA3D8" points="65.393,88.413 67.211,89.466 67.211,87.946 65.393,86.892 								"/>
								<polygon fill="#2585CC" points="65.575,88.316 67.211,89.259 67.211,87.946 65.575,87.002 								"/>
								<polyline fill="#1676BF" points="67.211,89.259 67.211,87.946 65.575,87.002 								"/>
								<polygon fill="#4DBBFF" points="65.575,87.776 67.211,88.72 67.211,88.622 65.575,87.679 								"/>
								<polygon fill="#4DBBFF" points="65.575,87.433 67.211,88.374 67.211,88.277 65.575,87.333 								"/>
								<polygon fill="#4DBBFF" points="65.575,87.093 67.211,88.034 67.211,87.937 65.575,86.989 								"/>
							</g>
							<g>
								<polygon fill="#3AA3D8" points="67.97,89.897 69.79,90.949 69.79,89.431 67.97,88.374 								"/>
								<polygon fill="#2585CC" points="68.157,89.799 69.79,90.743 69.79,89.431 68.157,88.485 								"/>
								<polyline fill="#1676BF" points="69.79,90.743 69.79,89.431 68.157,88.485 								"/>
								<polygon fill="#4DBBFF" points="68.157,89.261 69.79,90.201 69.79,90.103 68.157,89.161 								"/>
								<polygon fill="#4DBBFF" points="68.157,88.918 69.79,89.86 69.79,89.761 68.157,88.817 								"/>
								<polygon fill="#4DBBFF" points="68.157,88.577 69.79,89.52 69.79,89.417 68.157,88.478 								"/>
							</g>
						</g>
					</g>
					<g>
						<polygon fill="#EDA411" points="80.908,53.519 83.699,55.13 83.699,74.655 80.908,73.044 						"/>
						<polygon fill="#DB5A03" points="86.488,53.519 83.699,55.13 83.699,74.655 86.488,73.044 						"/>
						<polyline fill="#C14E00" points="86.488,53.519 83.699,55.13 83.699,74.655 						"/>
						<g>
							<polygon fill="#D16822" points="83.699,51.909 86.486,53.519 83.699,55.128 80.914,53.519 							"/>
						</g>
						<g>
							<polygon fill="#25343A" points="83.699,52.431 85.584,53.519 83.699,54.607 81.816,53.519 							"/>
						</g>
						<g>
							<polyline fill="#0D1619" points="83.699,52.431 85.584,53.519 83.699,54.607 							"/>
						</g>
					</g>
				</g>
				<g>
					<polygon fill="#6FAEDD" points="66.239,93.688 66.239,100.123 80.033,108.083 80.033,101.655 					"/>
					<polygon fill="#3AA3D8" points="66.496,100.003 80.033,107.817 80.033,101.655 66.496,93.839 					"/>
					<polyline fill="#1D96CC" points="80.033,107.817 80.033,101.655 66.496,93.839 					"/>
					<polygon opacity="0.6" fill="#3AA3D8" points="70.151,102.329 76.119,105.772 76.119,99.472 70.151,96.024 					"/>
					<polygon opacity="0.6" fill="#3AA3D8" points="73.136,97.737 72.925,97.618 72.925,103.92 73.136,104.043 					"/>
				</g>
			</g>
			<g>
				<polygon fill="#EF990F" points="100.064,89.484 91.553,94.442 91.553,104.616 100.064,99.7 				"/>
				<polygon fill="#0D1619" points="99.667,99.931 91.553,104.616 91.553,94.442 99.667,89.717 				"/>
				<polyline fill="#25343A" points="99.667,99.931 91.553,104.616 91.553,95.454 				"/>
				<polygon fill="#566860" points="99.667,96.146 91.553,100.831 91.553,94.442 99.667,89.717 				"/>
				<polyline fill="#323F38" points="91.553,100.831 91.553,94.442 99.667,89.717 				"/>
				<polygon fill="#6A7F75" points="99.667,95.633 91.553,100.319 91.553,100.001 99.667,95.316 				"/>
				<polygon fill="#6A7F75" points="99.667,94.983 91.553,99.669 91.553,99.352 99.667,94.665 				"/>
				<polygon fill="#6A7F75" points="99.667,94.333 91.553,99.019 91.553,98.702 99.667,94.017 				"/>
				<polygon fill="#6A7F75" points="99.667,93.686 91.553,98.37 91.553,98.052 99.667,93.368 				"/>
				<polygon fill="#6A7F75" points="99.667,93.036 91.553,97.722 91.553,97.402 99.667,92.718 				"/>
				<polygon fill="#6A7F75" points="99.667,92.386 91.553,97.07 91.553,96.753 99.667,92.067 				"/>
				<polygon fill="#6A7F75" points="99.667,91.737 91.553,96.423 91.553,96.103 99.667,91.417 				"/>
				<polygon fill="#6A7F75" points="99.667,91.086 91.553,95.772 91.553,95.454 99.667,90.771 				"/>
				<polygon fill="#6A7F75" points="99.667,90.436 91.553,95.123 91.553,94.806 99.667,90.121 				"/>
			</g>
		</g>
		<g>
			<g>
				<g>
					<g>
						<g>
							<g>
								<g>
									<polygon fill="#BF3600" points="82.304,109.83 63.402,120.743 63.402,103.082 74.237,90.972 82.304,92.51 									"/>
									<polygon fill="#EF990F" points="63.402,96.819 44.5,92.51 44.5,109.83 63.402,120.743 									"/>
									<polygon fill="#DB5A03" points="82.304,108.193 63.402,119.106 63.402,108.052 74.237,89.333 82.304,90.871 									"/>
									<polyline fill="#C14E00" points="63.402,119.106 63.402,101.787 74.237,89.333 82.304,90.871 									"/>
									<polyline fill="#BF3600" points="63.402,101.787 74.237,93.091 82.304,90.871 									"/>
									<polygon fill="#EDA411" points="63.402,108.052 44.5,90.871 44.5,108.193 63.402,119.106 									"/>
									<polyline fill="#EF990F" points="63.402,119.106 63.402,101.787 44.5,90.871 									"/>
									<polygon fill="#2A3D42" points="74.237,89.333 55.302,82.159 44.5,90.871 63.402,101.787 									"/>
									<polyline fill="#25343A" points="63.402,101.787 74.237,93.091 55.302,82.159 									"/>
									<polygon fill="#1C2B30" points="55.302,82.159 63.402,79.959 82.304,90.871 74.237,93.091 									"/>
									<polygon fill="#0D1619" points="61.617,80.443 61.617,85.806 67.198,89.028 67.198,82.149 63.402,79.959 									"/>
									<polyline fill="#0D1619" points="82.304,90.871 74.237,93.091 55.302,82.159 									"/>
								</g>
							</g>
						</g>
						<g opacity="0.4">
							<g>
								<g>
									<line fill="#847D6F" x1="82.304" y1="103.097" x2="63.402" y2="114.011"/>
									<path fill="#847D6F" d="M63.402,114.071c-0.021,0-0.043-0.01-0.053-0.029c-0.019-0.029-0.008-0.068,0.021-0.085
										l18.903-10.913c0.028-0.016,0.068-0.009,0.086,0.023c0.016,0.029,0.005,0.068-0.023,0.085l-18.901,10.912
										C63.424,114.069,63.413,114.071,63.402,114.071z"/>
								</g>
								<g>
									<line fill="#847D6F" x1="44.5" y1="103.097" x2="63.402" y2="114.011"/>
									<path fill="#847D6F" d="M63.402,114.071c-0.01,0-0.021-0.002-0.032-0.007l-18.901-10.912
										c-0.029-0.017-0.039-0.056-0.022-0.085c0.018-0.032,0.056-0.039,0.086-0.023l18.902,10.913
										c0.028,0.017,0.04,0.056,0.021,0.085C63.444,114.062,63.424,114.071,63.402,114.071z"/>
								</g>
							</g>
							<g>
								<g>
									<g>
										<line fill="#847D6F" x1="82.304" y1="109.83" x2="63.402" y2="120.743"/>
										<path fill="#847D6F" d="M63.402,120.804c-0.021,0-0.043-0.009-0.053-0.029c-0.019-0.029-0.008-0.066,0.021-0.084
											l18.903-10.914c0.028-0.016,0.068-0.006,0.086,0.023c0.016,0.029,0.005,0.069-0.023,0.088L63.435,120.8
											C63.424,120.802,63.413,120.804,63.402,120.804z"/>
									</g>
									<g>
										<line fill="#847D6F" x1="44.5" y1="109.83" x2="63.402" y2="120.743"/>
										<path fill="#847D6F" d="M63.402,120.804c-0.01,0-0.021-0.002-0.032-0.004l-18.901-10.912
											c-0.029-0.019-0.039-0.059-0.022-0.088c0.018-0.029,0.056-0.039,0.086-0.023l18.902,10.914
											c0.028,0.018,0.04,0.055,0.021,0.084C63.444,120.795,63.424,120.804,63.402,120.804z"/>
									</g>
								</g>
								<g>
									<g>
										<line fill="#847D6F" x1="82.304" y1="108.99" x2="63.402" y2="119.902"/>
										<path fill="#847D6F" d="M63.402,119.966c-0.021,0-0.043-0.012-0.053-0.033c-0.019-0.029-0.008-0.067,0.021-0.086
											l18.903-10.91c0.028-0.017,0.068-0.008,0.086,0.021c0.016,0.028,0.005,0.07-0.023,0.086l-18.901,10.913
											C63.424,119.962,63.413,119.966,63.402,119.966z"/>
									</g>
									<g>
										<line fill="#847D6F" x1="44.5" y1="108.99" x2="63.402" y2="119.902"/>
										<path fill="#847D6F" d="M63.402,119.966c-0.01,0-0.021-0.004-0.032-0.009l-18.901-10.913
											c-0.029-0.016-0.039-0.058-0.022-0.086c0.018-0.029,0.056-0.038,0.086-0.021l18.902,10.91
											c0.028,0.019,0.04,0.057,0.021,0.086C63.444,119.954,63.424,119.966,63.402,119.966z"/>
									</g>
								</g>
								<g>
									<g>
										<line fill="#847D6F" x1="82.304" y1="108.147" x2="63.402" y2="119.061"/>
										<path fill="#847D6F" d="M63.402,119.122c-0.021,0-0.043-0.011-0.053-0.031c-0.019-0.03-0.008-0.067,0.021-0.084
											l18.903-10.912c0.028-0.018,0.068-0.01,0.086,0.021c0.016,0.031,0.005,0.07-0.023,0.089l-18.901,10.908
											C63.424,119.12,63.413,119.122,63.402,119.122z"/>
									</g>
									<g>
										<line fill="#847D6F" x1="44.5" y1="108.147" x2="63.402" y2="119.061"/>
										<path fill="#847D6F" d="M63.402,119.122c-0.01,0-0.021-0.002-0.032-0.01l-18.901-10.908
											c-0.029-0.019-0.039-0.058-0.022-0.089c0.018-0.03,0.056-0.038,0.086-0.021l18.902,10.912
											c0.028,0.017,0.04,0.054,0.021,0.084C63.444,119.111,63.424,119.122,63.402,119.122z"/>
									</g>
								</g>
								<g>
									<g>
										<line fill="#847D6F" x1="82.304" y1="107.306" x2="63.402" y2="118.218"/>
										<path fill="#847D6F" d="M63.402,118.282c-0.021,0-0.043-0.011-0.053-0.031c-0.019-0.031-0.008-0.068,0.021-0.088
											l18.903-10.912c0.028-0.015,0.068-0.006,0.086,0.023c0.016,0.029,0.005,0.069-0.023,0.087l-18.901,10.912
											C63.424,118.28,63.413,118.282,63.402,118.282z"/>
									</g>
									<g>
										<line fill="#847D6F" x1="44.5" y1="107.306" x2="63.402" y2="118.218"/>
										<path fill="#847D6F" d="M63.402,118.282c-0.01,0-0.021-0.002-0.032-0.009l-18.901-10.912
											c-0.029-0.018-0.039-0.058-0.022-0.087c0.018-0.029,0.056-0.038,0.086-0.023l18.902,10.912
											c0.028,0.02,0.04,0.057,0.021,0.088C63.444,118.271,63.424,118.282,63.402,118.282z"/>
									</g>
								</g>
								<g>
									<g>
										<line fill="#847D6F" x1="82.304" y1="106.464" x2="63.402" y2="117.376"/>
										<path fill="#847D6F" d="M63.402,117.44c-0.021,0-0.043-0.012-0.053-0.031c-0.019-0.033-0.008-0.068,0.021-0.088
											l18.903-10.91c0.028-0.02,0.068-0.008,0.086,0.022c0.016,0.03,0.005,0.067-0.023,0.087l-18.901,10.91
											C63.424,117.437,63.413,117.44,63.402,117.44z"/>
									</g>
									<g>
										<line fill="#847D6F" x1="44.5" y1="106.464" x2="63.402" y2="117.376"/>
										<path fill="#847D6F" d="M63.402,117.44c-0.01,0-0.021-0.004-0.032-0.01l-18.901-10.91
											c-0.029-0.02-0.039-0.057-0.022-0.087c0.018-0.03,0.056-0.042,0.086-0.022l18.902,10.91
											c0.028,0.02,0.04,0.055,0.021,0.088C63.444,117.429,63.424,117.44,63.402,117.44z"/>
									</g>
								</g>
								<g>
									<g>
										<line fill="#847D6F" x1="82.304" y1="105.622" x2="63.402" y2="116.534"/>
										<path fill="#847D6F" d="M63.402,116.6c-0.021,0-0.043-0.013-0.053-0.032c-0.019-0.031-0.008-0.07,0.021-0.086
											l18.903-10.912c0.028-0.019,0.068-0.009,0.086,0.023c0.016,0.027,0.005,0.066-0.023,0.084l-18.901,10.912
											C63.424,116.594,63.413,116.6,63.402,116.6z"/>
									</g>
									<g>
										<line fill="#847D6F" x1="44.5" y1="105.622" x2="63.402" y2="116.534"/>
										<path fill="#847D6F" d="M63.402,116.6c-0.01,0-0.021-0.006-0.032-0.011l-18.901-10.912
											c-0.029-0.018-0.039-0.057-0.022-0.084c0.018-0.032,0.056-0.042,0.086-0.023l18.902,10.912
											c0.028,0.016,0.04,0.055,0.021,0.086C63.444,116.587,63.424,116.6,63.402,116.6z"/>
									</g>
								</g>
								<g>
									<g>
										<line fill="#847D6F" x1="82.304" y1="104.782" x2="63.402" y2="115.694"/>
										<path fill="#847D6F" d="M63.402,115.757c-0.021,0-0.043-0.012-0.053-0.031c-0.019-0.031-0.008-0.068,0.021-0.087
											l18.903-10.913c0.028-0.016,0.068-0.006,0.086,0.026c0.016,0.03,0.005,0.065-0.023,0.086l-18.901,10.911
											C63.424,115.753,63.413,115.757,63.402,115.757z"/>
									</g>
									<g>
										<line fill="#847D6F" x1="44.5" y1="104.782" x2="63.402" y2="115.694"/>
										<path fill="#847D6F" d="M63.402,115.757c-0.01,0-0.021-0.004-0.032-0.008l-18.901-10.911
											c-0.029-0.021-0.039-0.056-0.022-0.086c0.018-0.032,0.056-0.042,0.086-0.026l18.902,10.913
											c0.028,0.019,0.04,0.056,0.021,0.087C63.444,115.745,63.424,115.757,63.402,115.757z"/>
									</g>
								</g>
								<g>
									<g>
										<line fill="#847D6F" x1="82.304" y1="103.938" x2="63.402" y2="114.853"/>
										<path fill="#847D6F" d="M63.402,114.914c-0.021,0-0.043-0.01-0.053-0.03c-0.019-0.029-0.008-0.07,0.021-0.086
											l18.903-10.912c0.028-0.017,0.068-0.008,0.086,0.023c0.016,0.029,0.005,0.066-0.023,0.086l-18.901,10.909
											C63.424,114.911,63.413,114.914,63.402,114.914z"/>
									</g>
									<g>
										<line fill="#847D6F" x1="44.5" y1="103.938" x2="63.402" y2="114.853"/>
										<path fill="#847D6F" d="M63.402,114.914c-0.01,0-0.021-0.003-0.032-0.01l-18.901-10.909
											c-0.029-0.02-0.039-0.057-0.022-0.086c0.018-0.031,0.056-0.04,0.086-0.023l18.902,10.912
											c0.028,0.016,0.04,0.057,0.021,0.086C63.444,114.904,63.424,114.914,63.402,114.914z"/>
									</g>
								</g>
								<g>
									<g>
										<line fill="#847D6F" x1="82.304" y1="102.257" x2="63.402" y2="113.167"/>
										<path fill="#847D6F" d="M63.402,113.232c-0.021,0-0.043-0.011-0.053-0.032c-0.019-0.029-0.008-0.07,0.021-0.086
											l18.903-10.913c0.028-0.014,0.068-0.006,0.086,0.025c0.016,0.028,0.005,0.065-0.023,0.084l-18.901,10.911
											C63.424,113.229,63.413,113.232,63.402,113.232z"/>
									</g>
									<g>
										<line fill="#847D6F" x1="44.5" y1="102.257" x2="63.402" y2="113.167"/>
										<path fill="#847D6F" d="M63.402,113.232c-0.01,0-0.021-0.004-0.032-0.011l-18.901-10.911
											c-0.029-0.019-0.039-0.056-0.022-0.084c0.018-0.031,0.056-0.039,0.086-0.025l18.902,10.913
											c0.028,0.016,0.04,0.057,0.021,0.086C63.444,113.222,63.424,113.232,63.402,113.232z"/>
									</g>
								</g>
								<g>
									<g>
										<line fill="#847D6F" x1="82.304" y1="101.413" x2="63.402" y2="112.327"/>
										<path fill="#847D6F" d="M63.402,112.39c-0.021,0-0.043-0.012-0.053-0.03c-0.019-0.03-0.008-0.069,0.021-0.085
											l18.903-10.913c0.028-0.017,0.068-0.009,0.086,0.021c0.016,0.031,0.005,0.07-0.023,0.087l-18.901,10.913
											C63.424,112.388,63.413,112.39,63.402,112.39z"/>
									</g>
									<g>
										<line fill="#847D6F" x1="44.5" y1="101.413" x2="63.402" y2="112.327"/>
										<path fill="#847D6F" d="M63.402,112.39c-0.01,0-0.021-0.002-0.032-0.008l-18.901-10.913
											c-0.029-0.017-0.039-0.056-0.022-0.087c0.018-0.029,0.056-0.037,0.086-0.021l18.902,10.913
											c0.028,0.016,0.04,0.055,0.021,0.085C63.444,112.378,63.424,112.39,63.402,112.39z"/>
									</g>
								</g>
								<g>
									<g>
										<line fill="#847D6F" x1="82.304" y1="100.573" x2="63.402" y2="111.485"/>
										<path fill="#847D6F" d="M63.402,111.549c-0.021,0-0.043-0.015-0.053-0.031c-0.019-0.03-0.008-0.069,0.021-0.087
											l18.903-10.912c0.028-0.018,0.068-0.004,0.086,0.025c0.016,0.027,0.005,0.066-0.023,0.084l-18.901,10.91
											C63.424,111.545,63.413,111.549,63.402,111.549z"/>
									</g>
									<g>
										<line fill="#847D6F" x1="44.5" y1="100.573" x2="63.402" y2="111.485"/>
										<path fill="#847D6F" d="M63.402,111.549c-0.01,0-0.021-0.004-0.032-0.011l-18.901-10.91
											c-0.029-0.018-0.039-0.057-0.022-0.084c0.018-0.029,0.056-0.043,0.086-0.025l18.902,10.912
											c0.028,0.018,0.04,0.057,0.021,0.087C63.444,111.534,63.424,111.549,63.402,111.549z"/>
									</g>
								</g>
								<g>
									<g>
										<line fill="#847D6F" x1="82.304" y1="99.729" x2="63.402" y2="110.644"/>
										<path fill="#847D6F" d="M63.402,110.706c-0.021,0-0.043-0.014-0.053-0.032c-0.019-0.03-0.008-0.067,0.021-0.083
											l18.903-10.914c0.028-0.016,0.068-0.007,0.086,0.023c0.016,0.029,0.005,0.068-0.023,0.084l-18.901,10.914
											C63.424,110.704,63.413,110.706,63.402,110.706z"/>
									</g>
									<g>
										<line fill="#847D6F" x1="44.5" y1="99.729" x2="63.402" y2="110.644"/>
										<path fill="#847D6F" d="M63.402,110.706c-0.01,0-0.021-0.002-0.032-0.008L44.469,99.784
											c-0.029-0.016-0.039-0.055-0.022-0.084c0.018-0.03,0.056-0.039,0.086-0.023l18.902,10.914
											c0.028,0.016,0.04,0.053,0.021,0.083C63.444,110.692,63.424,110.706,63.402,110.706z"/>
									</g>
								</g>
								<g>
									<g>
										<line fill="#847D6F" x1="82.304" y1="98.89" x2="63.402" y2="109.801"/>
										<path fill="#847D6F" d="M63.402,109.865c-0.021,0-0.043-0.013-0.053-0.032c-0.019-0.029-0.008-0.068,0.021-0.085
											l18.903-10.912c0.028-0.019,0.068-0.008,0.086,0.021c0.016,0.031,0.005,0.072-0.023,0.086l-18.901,10.912
											C63.424,109.86,63.413,109.865,63.402,109.865z"/>
									</g>
									<g>
										<line fill="#847D6F" x1="44.5" y1="98.89" x2="63.402" y2="109.801"/>
										<path fill="#847D6F" d="M63.402,109.865c-0.01,0-0.021-0.005-0.032-0.011L44.469,98.942
											c-0.029-0.014-0.039-0.055-0.022-0.086c0.018-0.028,0.056-0.039,0.086-0.021l18.902,10.912
											c0.028,0.017,0.04,0.056,0.021,0.085C63.444,109.853,63.424,109.865,63.402,109.865z"/>
									</g>
								</g>
								<g>
									<g>
										<line fill="#847D6F" x1="82.304" y1="98.048" x2="63.402" y2="108.96"/>
										<path fill="#847D6F" d="M63.402,109.023c-0.021,0-0.043-0.013-0.053-0.031c-0.019-0.032-0.008-0.067,0.021-0.084
											l18.903-10.913c0.028-0.018,0.068-0.01,0.086,0.021c0.016,0.028,0.005,0.068-0.023,0.086l-18.901,10.912
											C63.424,109.021,63.413,109.023,63.402,109.023z"/>
									</g>
									<g>
										<line fill="#847D6F" x1="44.5" y1="98.048" x2="63.402" y2="108.96"/>
										<path fill="#847D6F" d="M63.402,109.023c-0.01,0-0.021-0.003-0.032-0.009L44.469,98.103
											c-0.029-0.018-0.039-0.058-0.022-0.086c0.018-0.031,0.056-0.039,0.086-0.021l18.902,10.913
											c0.028,0.017,0.04,0.052,0.021,0.084C63.444,109.011,63.424,109.023,63.402,109.023z"/>
									</g>
								</g>
								<g>
									<g>
										<line fill="#847D6F" x1="82.304" y1="97.206" x2="63.402" y2="108.117"/>
										<path fill="#847D6F" d="M63.402,108.183c-0.021,0-0.043-0.014-0.053-0.033c-0.019-0.03-0.008-0.066,0.021-0.084
											L82.273,97.15c0.028-0.015,0.068-0.005,0.086,0.024c0.016,0.029,0.005,0.069-0.023,0.086l-18.901,10.912
											C63.424,108.179,63.413,108.183,63.402,108.183z"/>
									</g>
									<g>
										<line fill="#847D6F" x1="44.5" y1="97.206" x2="63.402" y2="108.117"/>
										<path fill="#847D6F" d="M63.402,108.183c-0.01,0-0.021-0.004-0.032-0.01L44.469,97.261
											c-0.029-0.017-0.039-0.057-0.022-0.086c0.018-0.029,0.056-0.039,0.086-0.024l18.902,10.915
											c0.028,0.018,0.04,0.054,0.021,0.084C63.444,108.169,63.424,108.183,63.402,108.183z"/>
									</g>
								</g>
							</g>
						</g>
						<g>
							<g>
								<polygon fill="#3AA3D8" points="57.116,101.875 58.936,102.929 58.936,101.411 57.116,100.354 								"/>
								<polygon fill="#2585CC" points="57.3,101.774 58.936,102.72 58.936,101.411 57.3,100.462 								"/>
								<polyline fill="#1676BF" points="58.936,102.72 58.936,101.411 57.3,100.462 								"/>
								<polygon fill="#4DBBFF" points="57.3,101.24 58.936,102.183 58.936,102.081 57.3,101.142 								"/>
								<polygon fill="#4DBBFF" points="57.3,100.896 58.936,101.837 58.936,101.739 57.3,100.797 								"/>
								<polygon fill="#4DBBFF" points="57.3,100.554 58.936,101.499 58.936,101.396 57.3,100.452 								"/>
							</g>
							<g>
								<polygon fill="#3AA3D8" points="59.693,103.359 61.515,104.413 61.515,102.894 59.693,101.837 								"/>
								<polygon fill="#2585CC" points="59.882,103.261 61.515,104.202 61.515,102.894 59.882,101.945 								"/>
								<polyline fill="#1676BF" points="61.515,104.202 61.515,102.894 59.882,101.945 								"/>
								<polygon fill="#4DBBFF" points="59.882,102.723 61.515,103.665 61.515,103.565 59.882,102.622 								"/>
								<polygon fill="#4DBBFF" points="59.882,102.38 61.515,103.322 61.515,103.222 59.882,102.279 								"/>
								<polygon fill="#4DBBFF" points="59.882,102.037 61.515,102.981 61.515,102.88 59.882,101.938 								"/>
							</g>
						</g>
						<g>
							<g>
								<polygon fill="#3AA3D8" points="51.609,98.687 53.428,99.743 53.428,98.224 51.609,97.167 								"/>
								<polygon fill="#2585CC" points="51.793,98.59 53.428,99.532 53.428,98.224 51.793,97.275 								"/>
								<polyline fill="#1676BF" points="53.428,99.532 53.428,98.224 51.793,97.275 								"/>
								<polygon fill="#4DBBFF" points="51.793,98.054 53.428,98.994 53.428,98.896 51.793,97.954 								"/>
								<polygon fill="#4DBBFF" points="51.793,97.709 53.428,98.649 53.428,98.552 51.793,97.606 								"/>
								<polygon fill="#4DBBFF" points="51.793,97.368 53.428,98.312 53.428,98.21 51.793,97.265 								"/>
							</g>
							<g>
								<polygon fill="#3AA3D8" points="54.186,100.171 56.007,101.226 56.007,99.704 54.186,98.649 								"/>
								<polygon fill="#2585CC" points="54.375,100.074 56.007,101.017 56.007,99.704 54.375,98.76 								"/>
								<polyline fill="#1676BF" points="56.007,101.017 56.007,99.704 54.375,98.76 								"/>
								<polygon fill="#4DBBFF" points="54.375,99.536 56.007,100.478 56.007,100.378 54.375,99.435 								"/>
								<polygon fill="#4DBBFF" points="54.375,99.192 56.007,100.136 56.007,100.035 54.375,99.093 								"/>
								<polygon fill="#4DBBFF" points="54.375,98.851 56.007,99.795 56.007,99.692 54.375,98.752 								"/>
							</g>
						</g>
						<g>
							<g>
								<polygon fill="#3AA3D8" points="46.102,95.501 47.92,96.556 47.92,95.034 46.102,93.979 								"/>
								<polygon fill="#2585CC" points="46.285,95.404 47.92,96.347 47.92,95.034 46.285,94.089 								"/>
								<polyline fill="#1676BF" points="47.92,96.347 47.92,95.034 46.285,94.089 								"/>
								<polygon fill="#4DBBFF" points="46.285,94.864 47.92,95.808 47.92,95.71 46.285,94.766 								"/>
								<polygon fill="#4DBBFF" points="46.285,94.52 47.92,95.462 47.92,95.364 46.285,94.421 								"/>
								<polygon fill="#4DBBFF" points="46.285,94.181 47.92,95.122 47.92,95.024 46.285,94.077 								"/>
							</g>
							<g>
								<polygon fill="#3AA3D8" points="48.679,96.985 50.499,98.037 50.499,96.518 48.679,95.462 								"/>
								<polygon fill="#2585CC" points="48.865,96.888 50.499,97.831 50.499,96.518 48.865,95.573 								"/>
								<polyline fill="#1676BF" points="50.499,97.831 50.499,96.518 48.865,95.573 								"/>
								<polygon fill="#4DBBFF" points="48.865,96.35 50.499,97.288 50.499,97.19 48.865,96.249 								"/>
								<polygon fill="#4DBBFF" points="48.865,96.005 50.499,96.948 50.499,96.849 48.865,95.905 								"/>
								<polygon fill="#4DBBFF" points="48.865,95.665 50.499,96.608 50.499,96.505 48.865,95.564 								"/>
							</g>
						</g>
						<g>
							<g>
								<polygon fill="#3AA3D8" points="57.116,105.821 58.936,106.876 58.936,105.357 57.116,104.302 								"/>
								<polygon fill="#2585CC" points="57.3,105.722 58.936,106.667 58.936,105.357 57.3,104.409 								"/>
								<polyline fill="#1676BF" points="58.936,106.667 58.936,105.357 57.3,104.409 								"/>
								<polygon fill="#4DBBFF" points="57.3,105.188 58.936,106.13 58.936,106.028 57.3,105.089 								"/>
								<polygon fill="#4DBBFF" points="57.3,104.843 58.936,105.785 58.936,105.687 57.3,104.744 								"/>
								<polygon fill="#4DBBFF" points="57.3,104.501 58.936,105.446 58.936,105.343 57.3,104.399 								"/>
							</g>
							<g>
								<polygon fill="#3AA3D8" points="59.693,107.307 61.515,108.359 61.515,106.84 59.693,105.785 								"/>
								<polygon fill="#2585CC" points="59.882,107.208 61.515,108.149 61.515,106.84 59.882,105.892 								"/>
								<polyline fill="#1676BF" points="61.515,108.149 61.515,106.84 59.882,105.892 								"/>
								<polygon fill="#4DBBFF" points="59.882,106.67 61.515,107.612 61.515,107.511 59.882,106.569 								"/>
								<polygon fill="#4DBBFF" points="59.882,106.327 61.515,107.27 61.515,107.171 59.882,106.228 								"/>
								<polygon fill="#4DBBFF" points="59.882,105.985 61.515,106.929 61.515,106.827 59.882,105.888 								"/>
							</g>
						</g>
						<g>
							<g>
								<polygon fill="#3AA3D8" points="51.609,102.634 53.428,103.69 53.428,102.171 51.609,101.114 								"/>
								<polygon fill="#2585CC" points="51.793,102.536 53.428,103.48 53.428,102.171 51.793,101.222 								"/>
								<polyline fill="#1676BF" points="53.428,103.48 53.428,102.171 51.793,101.222 								"/>
								<polygon fill="#4DBBFF" points="51.793,102 53.428,102.942 53.428,102.842 51.793,101.901 								"/>
								<polygon fill="#4DBBFF" points="51.793,101.657 53.428,102.598 53.428,102.499 51.793,101.554 								"/>
								<polygon fill="#4DBBFF" points="51.793,101.314 53.428,102.259 53.428,102.156 51.793,101.212 								"/>
							</g>
							<g>
								<polygon fill="#3AA3D8" points="54.186,104.118 56.007,105.173 56.007,103.651 54.186,102.598 								"/>
								<polygon fill="#2585CC" points="54.375,104.021 56.007,104.964 56.007,103.651 54.375,102.707 								"/>
								<polyline fill="#1676BF" points="56.007,104.964 56.007,103.651 54.375,102.707 								"/>
								<polygon fill="#4DBBFF" points="54.375,103.485 56.007,104.426 56.007,104.325 54.375,103.38 								"/>
								<polygon fill="#4DBBFF" points="54.375,103.138 56.007,104.082 56.007,103.981 54.375,103.04 								"/>
								<polygon fill="#4DBBFF" points="54.375,102.798 56.007,103.741 56.007,103.641 54.375,102.698 								"/>
							</g>
						</g>
						<g>
							<g>
								<polygon fill="#3AA3D8" points="46.102,99.448 47.92,100.501 47.92,98.981 46.102,97.927 								"/>
								<polygon fill="#2585CC" points="46.285,99.352 47.92,100.294 47.92,98.981 46.285,98.037 								"/>
								<polyline fill="#1676BF" points="47.92,100.294 47.92,98.981 46.285,98.037 								"/>
								<polygon fill="#4DBBFF" points="46.285,98.812 47.92,99.755 47.92,99.657 46.285,98.714 								"/>
								<polygon fill="#4DBBFF" points="46.285,98.468 47.92,99.409 47.92,99.313 46.285,98.368 								"/>
								<polygon fill="#4DBBFF" points="46.285,98.128 47.92,99.068 47.92,98.972 46.285,98.024 								"/>
							</g>
							<g>
								<polygon fill="#3AA3D8" points="48.679,100.933 50.499,101.983 50.499,100.466 48.679,99.409 								"/>
								<polygon fill="#2585CC" points="48.865,100.834 50.499,101.778 50.499,100.466 48.865,99.52 								"/>
								<polyline fill="#1676BF" points="50.499,101.778 50.499,100.466 48.865,99.52 								"/>
								<polygon fill="#4DBBFF" points="48.865,100.296 50.499,101.236 50.499,101.138 48.865,100.195 								"/>
								<polygon fill="#4DBBFF" points="48.865,99.953 50.499,100.896 50.499,100.796 48.865,99.853 								"/>
								<polygon fill="#4DBBFF" points="48.865,99.612 50.499,100.556 50.499,100.452 48.865,99.513 								"/>
							</g>
						</g>
					</g>
					<g>
						<polygon fill="#EDA411" points="61.617,64.554 64.408,66.165 64.408,85.69 61.617,84.079 						"/>
						<polygon fill="#DB5A03" points="67.198,64.554 64.408,66.165 64.408,85.69 67.198,84.079 						"/>
						<polyline fill="#C14E00" points="67.198,64.554 64.408,66.165 64.408,85.69 						"/>
						<g>
							<polygon fill="#D16822" points="64.408,62.944 67.196,64.554 64.408,66.163 61.623,64.554 							"/>
						</g>
						<g>
							<polygon fill="#25343A" points="64.408,63.464 66.293,64.554 64.408,65.643 62.524,64.554 							"/>
						</g>
						<g>
							<polyline fill="#0D1619" points="64.408,63.464 66.293,64.554 64.408,65.643 							"/>
						</g>
					</g>
				</g>
				<g>
					<polygon fill="#6FAEDD" points="46.947,104.724 46.947,111.158 60.742,119.118 60.742,112.688 					"/>
					<polygon fill="#3AA3D8" points="47.206,111.038 60.742,118.853 60.742,112.688 47.206,104.874 					"/>
					<polyline fill="#1D96CC" points="60.742,118.853 60.742,112.688 47.206,104.874 					"/>
					<polygon opacity="0.6" fill="#3AA3D8" points="50.86,113.364 56.828,116.808 56.828,110.506 50.86,107.06 					"/>
					<polygon opacity="0.6" fill="#3AA3D8" points="53.846,108.772 53.635,108.653 53.635,114.955 53.846,115.078 					"/>
				</g>
			</g>
			<g>
				<polygon fill="#EF990F" points="80.772,100.519 72.262,105.478 72.262,115.651 80.772,110.735 				"/>
				<polygon fill="#0D1619" points="80.375,110.966 72.262,115.651 72.262,105.478 80.375,100.752 				"/>
				<polyline fill="#25343A" points="80.375,110.966 72.262,115.651 72.262,106.489 				"/>
				<polygon fill="#566860" points="80.375,107.179 72.262,111.865 72.262,105.478 80.375,100.752 				"/>
				<polyline fill="#323F38" points="72.262,111.865 72.262,105.478 80.375,100.752 				"/>
				<polygon fill="#6A7F75" points="80.375,106.668 72.262,111.354 72.262,111.035 80.375,106.352 				"/>
				<polygon fill="#6A7F75" points="80.375,106.019 72.262,110.704 72.262,110.386 80.375,105.7 				"/>
				<polygon fill="#6A7F75" points="80.375,105.368 72.262,110.054 72.262,109.737 80.375,105.05 				"/>
				<polygon fill="#6A7F75" points="80.375,104.722 72.262,109.405 72.262,109.087 80.375,104.402 				"/>
				<polygon fill="#6A7F75" points="80.375,104.071 72.262,108.756 72.262,108.437 80.375,103.753 				"/>
				<polygon fill="#6A7F75" points="80.375,103.421 72.262,108.105 72.262,107.787 80.375,103.103 				"/>
				<polygon fill="#6A7F75" points="80.375,102.772 72.262,107.458 72.262,107.138 80.375,102.452 				"/>
				<polygon fill="#6A7F75" points="80.375,102.121 72.262,106.808 72.262,106.489 80.375,101.806 				"/>
				<polygon fill="#6A7F75" points="80.375,101.472 72.262,106.158 72.262,105.84 80.375,101.155 				"/>
			</g>
		</g>
	</g>
</g>
</svg>
