<svg xmlns="http://www.w3.org/2000/svg" viewBox="0 0 467.4 45.1"><path fill="#00246a" d="m337.6 36.8-1.2.1h-20.1q-.8 0-1.6-.4l-5.4-2.2-6.7-2.8-5.3-2.2-5.7-2.4-.1-.1q-1.6-1-1.5 1l-.3 8q.1 1.2-1.1 1h-11.7c-1.2 0-1.3-.1-1.3-1.3v-7.8c0-1-.1-1.1-1.1-1.1h-4.2q-1.2.1-1.1-1.1V23q-.1-1.3 1.2-1.1h4q1.4.2 1.1-1.2l-.1-7.8c0-1.3.1-1.3 1.3-1.3H311q6 .1 11.9 1.4 3.6.6 6.8 2.4c1.3.8 2.6 1.6 2.9 3.2q.4 2.8-2 4.3c-2.4 1.5-3.2 1.6-5 2q-5.5 1.3-11.2 1.4l-.7.1-.1.2 1 .8 7.6 3.1 7 2.8 7.7 3.2q.3 0 .7.3m-38.5-15v-.1q4.5.1 8.9-.1 1.6-.3 3-1.1c.7-.4.7-1.4 0-1.9q-.6-.5-1.3-.7-2.2-.5-4.4-.7h-14.7q-1.2-.1-1.1 1.1v2.2c0 1.2.1 1.3 1.3 1.3zm-246.9 0h14q1.7-.1 1 1.5a13 13 0 0 1-4.6 6 31 31 0 0 1-9 4.6 70 70 0 0 1-28.7 2.9q-5.9-.4-11.5-2.5-4.6-1.5-8.2-4.9a10 10 0 0 1-2.7-6.1q0-3.2 2.6-5.3 2.8-2.3 6.1-3.4a68 68 0 0 1 19-3.3q8.1-.4 16.2.4 4.7.5 9.2 1.6l5 1.4q2.7 1 4.9 2.6.3.2.2.6t-.5.4l-3.8.7-8.3 1.4q-.9.3-1.5-.4c-1-1.2-2.4-1.6-3.8-2.1q-5.5-1.4-11.2-1.5c-3.8 0-7.5 0-11.2.8q-3.4.6-6.3 2.5-1.5 1-1.9 2.8c-.3 1.3.6 2.9 1.9 3.7q2.6 1.5 5.6 2 6.8 1.1 13.6.5 4-.4 7.7-1.3l.6-.4-.8-.4h-8.1q-.9 0-.8-.8v-3.1q0-1 .9-.8h5.1zm53.7 15.1H81c-1 0-1.1-.1-1.1-1.2v-7.9q.1-1.5-1.4-1.4h-5.6q-1.2.1-1.1-1.1v-2.2c0-1.1.2-1.2 1.3-1.2h5.3c1.2 0 1.4-.2 1.4-1.4v-7.6c0-1.2.1-1.4 1.3-1.4h49.4c1.2 0 1.3.1 1.4 1.3l.1 2q.2 1.3-1.1 1.2H95.4q-1.1 0-1.2 1.1l.1 4q.1.5.7.8l.7.1h24.1l6.8.1q1.2-.1 1.1 1.1v2.3q0 1-1 1H95.9c-1.5 0-1.8.3-1.7 1.8l.1 2.9q0 1.4 1.2 1.3h35.3q1.3-.1 1.2 1.2v2.1q.2 1.4-1.3 1.2h-18.5zm265.2 0h-24.7c-1.4 0-1.4 0-1.4-1.4v-7.8q.2-1.5-1.2-1.3h-5.6q-1.2.1-1.1-1V23q0-1.2 1.2-1.1h5.7q1.2.1 1.1-1.1v-8c0-1.1 0-1.2 1.1-1.2H396c1.1 0 1.2 0 1.2 1.1l.1 2.2q.2 1.4-1.1 1.1h-35.6q-1 0-1 1.1v3.8q0 1 1 1h31.6q.9 0 .9.9v2.6q0 .9-1 .9l-30.9-.1c-1.3 0-1.5.2-1.5 1.5v2.7c0 1.6.1 1.7 1.7 1.7h34.9c1 0 1.1.1 1.1 1.1v2.4c0 .9-.1 1.1-1.1 1.1q-12.7.3-25.2.2m-131.9 0h-24.7c-1.3 0-1.3 0-1.3-1.3v-7.8q.2-1.5-1.3-1.4h-5.5q-1.3 0-1.3-1.2v-2.3q0-1.2 1.2-1.1h5.3c1.4 0 1.5-.1 1.5-1.5v-7.6c0-1.1.1-1.2 1.2-1.2H264c1.1 0 1.2.1 1.2 1.2v2.2c0 1-.1 1.1-1.1 1.1h-34.7c-1.7 0-1.8 0-1.8 1.8v2.9c0 1.1.1 1.2 1.2 1.2h21.9l9.2.1q1 0 1 1v2.4q0 1-.9 1l-17.5-.1h-14.2q-.8 0-.8.8v4.2q0 1 1.2.9h35.2c1.2 0 1.3.1 1.3 1.3v2.3q0 1-1 .9h-11.4q-6.7.3-13.6.2m225-.2-.7.1h-14.1a5 5 0 0 1-2.7-.8l-6-3.5-6.1-3.6q-.9-.6-1.8 0l-5.2 2.9-6.5 3.6a9 9 0 0 1-4.8 1.4h-12.4l-.7-.1-.1-.2 1.9-1.2 9.3-5.4 9.7-5.6q.8-.5-.1-1.1l-2.7-1.5-8.5-4.8-7.4-4.1-1-.8.1-.2.6-.1 13.8-.1q1.5 0 2.8.8l8.3 5 3.2 1.9q.6.4 1.3 0l5.7-3.5 6.4-3.9q.5-.2 1.1-.2h14.6l.9.1.1.2-2 1.3-7.1 4.1-7.2 4.2-2.7 1.5-.6.4q-.8.4 0 1l4.2 2.5 6 3.5 7.2 4.2zq0-.2 0 0M199.3 24.2v12q0 .8-.8.5l-7.8-2.5-10.9-3.5-7-2.2-8.8-2.9-7.1-2.2-2-.6q-1.2-.4-1.1.9v12.4q0 .7-.7.7h-8.2q-.8 0-.9-.8l-.1-2.3-.2-20.9c0-1.3.2-1.4 1.5-.9l4.5 1.5 7.3 2.4 6.9 2.2 6.7 2.2 4.5 1.5 7.3 2.4 4.6 1.5.7.2q1.5.7 1.4-1l-.1-9.9v-2.4q0-1 .9-1l8.2.1q1 0 .8.9v11.8z"/></svg>