<svg viewBox="0 0 467.4 45.1" xmlns="http://www.w3.org/2000/svg"><path d="m337.6 36.8c-.5.1-.9.1-1.2.1h-20.1c-.5 0-1.1-.2-1.6-.4-1.8-.7-3.6-1.4-5.4-2.2-2.2-.9-4.5-1.9-6.7-2.8-1.8-.7-3.6-1.5-5.3-2.2l-5.7-2.4s-.1 0-.1-.1c-1.2-.5-1.5-.4-1.5 1-.1 2.7-.2 5.3-.3 8 0 .9-.2 1-1.1 1h-11.7c-1.2 0-1.3-.1-1.3-1.3v-7.8c0-1-.1-1.1-1.1-1.1h-4.2c-.9 0-1.1-.2-1.1-1.1v-2.5c0-1 .2-1.1 1.2-1.1h4c1 0 1.2-.2 1.1-1.2 0-2.6-.1-5.2-.1-7.8 0-1.3.1-1.3 1.3-1.3h34.3c4 0 8 .6 11.9 1.4 2.4.5 4.7 1.1 6.8 2.4 1.3.8 2.6 1.6 2.9 3.2.4 1.9-.5 3.3-2 4.3s-3.2 1.6-5 2c-3.7.9-7.4 1.3-11.2 1.4-.2 0-.4.1-.7.1 0 .1-.1.2-.1.2.3.3.7.6 1 .8 2.5 1.1 5.1 2.1 7.6 3.1 2.3.9 4.7 1.9 7 2.8 2.6 1 5.1 2.1 7.7 3.2.3 0 .4 0 .7.3zm-38.5-15v-.1c3 0 6 .1 8.9-.1 1-.1 2.1-.6 3-1.1.7-.4.7-1.4 0-1.9-.4-.3-.8-.6-1.3-.7-1.5-.3-2.9-.6-4.4-.7-3.6-.1-7.1 0-10.7 0h-4c-.9 0-1.1.2-1.1 1.1v2.2c0 1.2.1 1.3 1.3 1.3zm-246.9 0h14c1.2 0 1.4.3 1 1.5-.9 2.5-2.5 4.4-4.6 6-2.7 2.1-5.8 3.5-9 4.6-9.4 3.2-19 3.7-28.7 2.9-3.9-.3-7.8-1.1-11.5-2.5-3-1.1-5.9-2.5-8.2-4.9-1.6-1.7-2.6-3.8-2.7-6.1-.1-2.2 1-3.9 2.6-5.3 1.8-1.6 3.9-2.6 6.1-3.4 6.2-2.2 12.5-2.9 19-3.3 5.4-.3 10.8-.1 16.2.4 3.1.3 6.2.9 9.2 1.6 1.7.3 3.3.9 5 1.4 1.8.6 3.5 1.5 4.9 2.6.1.1.3.4.2.6 0 .2-.3.3-.5.4-1.3.2-2.6.5-3.8.7-2.8.5-5.6.9-8.3 1.4-.6.1-1.1.1-1.5-.4-1-1.2-2.4-1.6-3.8-2.1-3.7-1-7.4-1.4-11.2-1.5-3.8 0-7.5 0-11.2.8-2.2.5-4.4 1.1-6.3 2.5-1 .7-1.7 1.6-1.9 2.8-.3 1.3.6 2.9 1.9 3.7 1.7 1.1 3.7 1.6 5.6 2 4.5.9 9.1.8 13.6.5 2.6-.2 5.2-.8 7.7-1.3.2 0 .4-.3.6-.4-.3-.1-.5-.4-.8-.4h-8.1c-.6 0-.8-.3-.8-.8v-3.1c0-.6.3-.9.9-.8h5.1c3-.1 6.2-.1 9.3-.1zm53.7 15.1h-24.9c-1 0-1.1-.1-1.1-1.2v-7.9c0-1.1-.3-1.4-1.4-1.4h-5.6c-.9 0-1.1-.2-1.1-1.1v-2.2c0-1.1.2-1.2 1.3-1.2h5.3c1.2 0 1.4-.2 1.4-1.4v-7.6c0-1.2.1-1.4 1.3-1.4h49.4c1.2 0 1.3.1 1.4 1.3 0 .7.1 1.3.1 2 .1.9-.2 1.2-1.1 1.2h-35.5c-.7 0-1.2.3-1.2 1.1 0 1.3 0 2.6.1 4 0 .3.4.6.7.8.2.1.5.1.7.1h24.1c2.3 0 4.5 0 6.8.1.9 0 1.1.2 1.1 1.1v2.3c0 .7-.3 1-1 1h-30.8c-1.5 0-1.8.3-1.7 1.8.1 1 .1 1.9.1 2.9s.3 1.3 1.2 1.3h35.3c1 0 1.2.2 1.2 1.2v2.1c0 1-.2 1.2-1.3 1.2h-18.5c-2.1-.1-4.2-.1-6.3-.1zm265.2 0h-24.7c-1.4 0-1.4 0-1.4-1.4v-7.8c0-1.1-.2-1.3-1.2-1.3h-5.6c-.8 0-1.1-.2-1.1-1v-2.4c0-.9.3-1.1 1.2-1.1h5.7c.9 0 1.1-.2 1.1-1.1v-8c0-1.1 0-1.2 1.1-1.2h49.8c1.1 0 1.2 0 1.2 1.1 0 .7.1 1.5.1 2.2 0 1.1-.1 1.2-1.1 1.1h-35.6c-.7 0-1 .4-1 1.1v3.8c0 .7.3 1 1 1h31.6c.6 0 .9.4.9.9v2.6c0 .6-.4.9-1 .9-10.3 0-20.6 0-30.9-.1-1.3 0-1.5.2-1.5 1.5v2.7c0 1.6.1 1.7 1.7 1.7h34.9c1 0 1.1.1 1.1 1.1v2.4c0 .9-.1 1.1-1.1 1.1-8.5.2-16.8.2-25.2.2zm-131.9 0h-24.7c-1.3 0-1.3 0-1.3-1.3v-7.8c0-1.1-.2-1.4-1.3-1.4h-5.5c-.9 0-1.3-.3-1.3-1.2v-2.3c0-.9.3-1.1 1.2-1.1h5.3c1.4 0 1.5-.1 1.5-1.5v-7.6c0-1.1.1-1.2 1.2-1.2h49.7c1.1 0 1.2.1 1.2 1.2v2.2c0 1-.1 1.1-1.1 1.1h-34.7c-1.7 0-1.8 0-1.8 1.8v2.9c0 1.1.1 1.2 1.2 1.2h21.9c3.1 0 6.1.1 9.2.1.7 0 1 .3 1 1v2.4c0 .6-.3 1-.9 1-5.8 0-11.7 0-17.5-.1h-14.2c-.5 0-.8.3-.8.8v4.2c0 .8.5.9 1.2.9h35.2c1.2 0 1.3.1 1.3 1.3v2.3c0 .7-.3.9-1 .9h-11.4c-4.4.2-9 .2-13.6.2zm225-.2c-.2 0-.5.1-.7.1-4.7 0-9.4-.1-14.1 0-1 0-1.9-.3-2.7-.8-2-1.2-4-2.3-6-3.5s-4.1-2.4-6.1-3.6c-.6-.4-1.2-.4-1.8 0-1.7 1-3.4 1.9-5.2 2.9-2.2 1.2-4.4 2.4-6.5 3.6-1.5.9-3 1.4-4.8 1.4-4.1-.1-8.3 0-12.4 0-.2 0-.5-.1-.7-.1 0-.1 0-.2-.1-.2.6-.4 1.3-.9 1.9-1.2l9.3-5.4c3.2-1.9 6.4-3.8 9.7-5.6.5-.3.5-.8-.1-1.1l-2.7-1.5c-2.8-1.6-5.7-3.2-8.5-4.8-2.5-1.4-4.9-2.7-7.4-4.1-.4-.2-.6-.5-1-.8 0-.1.1-.1.1-.2.2 0 .4-.1.6-.1 4.6 0 9.2 0 13.8-.1 1.1 0 1.9.3 2.8.8 2.8 1.7 5.5 3.3 8.3 5 1.1.6 2.1 1.3 3.2 1.9.4.3.8.3 1.3 0 1.9-1.2 3.8-2.3 5.7-3.5 2.1-1.3 4.3-2.7 6.4-3.9.3-.2.7-.2 1.1-.2h14.6c.3 0 .6.1.9.1 0 .1 0 .1.1.2-.7.4-1.3.9-2 1.3-2.4 1.4-4.8 2.7-7.1 4.1l-7.2 4.2-2.7 1.5c-.2.1-.4.3-.6.4-.5.3-.5.6 0 1 1.4.8 2.8 1.6 4.2 2.5 2 1.2 4 2.3 6 3.5l7.2 4.2c1.1.6 2.2 1.3 3.2 2 0-.2 0-.1 0 0zm-264.9-12.5v12c0 .5-.3.7-.8.5-2.6-.8-5.2-1.7-7.8-2.5-3.6-1.2-7.2-2.4-10.9-3.5-2.3-.7-4.7-1.4-7-2.2-3-.9-5.9-1.9-8.8-2.9-2.3-.8-4.7-1.5-7.1-2.2-.7-.2-1.3-.5-2-.6-.9-.2-1.1 0-1.1.9v12.4c0 .5-.3.7-.7.7h-8.2c-.6 0-.8-.3-.9-.8 0-.8-.1-1.5-.1-2.3-.1-7-.1-13.9-.2-20.9 0-1.3.2-1.4 1.5-.9 1.5.6 3 1 4.5 1.5 2.4.8 4.9 1.6 7.3 2.4 2.3.7 4.6 1.5 6.9 2.2 2.2.7 4.5 1.5 6.7 2.2l4.5 1.5c2.4.8 4.9 1.6 7.3 2.4 1.5.5 3 1 4.6 1.5.2.1.5.1.7.2 1.1.4 1.4.2 1.4-1 0-3.3-.1-6.6-.1-9.9v-2.4c0-.7.3-1 .9-1 2.7 0 5.5.1 8.2.1.7 0 .8.4.8.9v11.8c.3-.1.3-.1.4-.1z" fill="#00246a"/></svg>