<svg xmlns="http://www.w3.org/2000/svg" viewBox="0 0 182 82.95"><defs><style>.cls-1{fill:#2fa6d9;}.cls-2{fill:#595757;}</style></defs><title>資產 3</title><g id="圖層_2" data-name="圖層 2"><g id="圖層_1-2" data-name="圖層 1"><circle class="cls-1" cx="136.65" cy="18.93" r="4.52" transform="translate(116.38 155.39) rotate(-89.43)"/><path class="cls-1" d="M86.36,41.83l-.15.44A8.33,8.33,0,0,1,84.62,45a12.3,12.3,0,0,1-2.79,2.37A15.12,15.12,0,0,1,78.15,49a13.68,13.68,0,0,1-4.21.64,10.59,10.59,0,0,1-4.78-1.08,11.56,11.56,0,0,1-3.75-3A13.7,13.7,0,0,1,63,41.12a18,18,0,0,1-.87-5.24h26v-.46a12,12,0,0,0-1.19-5.22,14.25,14.25,0,0,0-3.3-4.38,15.91,15.91,0,0,0-5-3,17.88,17.88,0,0,0-6.42-1.11A18.46,18.46,0,0,0,65,23.07a16.28,16.28,0,0,0-5.54,3.76,16.5,16.5,0,0,0-3.57,5.71,19.94,19.94,0,0,0-1.26,7.17A14,14,0,0,0,56,45.86a15.68,15.68,0,0,0,3.77,5,18.14,18.14,0,0,0,5.54,3.33,19,19,0,0,0,6.78,1.21,16.46,16.46,0,0,0,5.48-1,20.27,20.27,0,0,0,5-2.56,18.42,18.42,0,0,0,4-3.81A15.26,15.26,0,0,0,89,43.37L89.1,43Zm-7.82-9.39H62.18A9.07,9.07,0,0,1,63,29.8a9.94,9.94,0,0,1,1.77-2.54,7.71,7.71,0,0,1,2.4-1.68,8.21,8.21,0,0,1,6.2,0,8.37,8.37,0,0,1,2.73,1.69,8,8,0,0,1,1.82,2.52A7.27,7.27,0,0,1,78.54,32.44Z"/><path class="cls-1" d="M179.25,41.83l-.14.44a8.33,8.33,0,0,1-1.59,2.7,12.52,12.52,0,0,1-2.79,2.37A15.12,15.12,0,0,1,171.05,49a13.72,13.72,0,0,1-4.21.64,10.59,10.59,0,0,1-4.78-1.08,11.56,11.56,0,0,1-3.75-3,13.7,13.7,0,0,1-2.45-4.51,17.64,17.64,0,0,1-.87-5.24h26v-.46a11.88,11.88,0,0,0-1.2-5.22,14.07,14.07,0,0,0-3.29-4.38,16,16,0,0,0-5-3,18,18,0,0,0-6.42-1.11,18.48,18.48,0,0,0-7.2,1.36,16.48,16.48,0,0,0-5.54,3.76,16.81,16.81,0,0,0-3.57,5.71,20.15,20.15,0,0,0-1.25,7.17,14.13,14.13,0,0,0,1.38,6.15,16,16,0,0,0,3.77,5,18.31,18.31,0,0,0,5.55,3.33A19,19,0,0,0,165,55.38a16.5,16.5,0,0,0,5.48-1,20.27,20.27,0,0,0,5-2.56,18.66,18.66,0,0,0,4-3.81,15.26,15.26,0,0,0,2.48-4.69L182,43Zm-7.81-9.39H155.08a8.78,8.78,0,0,1,.79-2.64,9.69,9.69,0,0,1,1.77-2.54,7.71,7.71,0,0,1,2.4-1.68,8.21,8.21,0,0,1,6.2,0A8.37,8.37,0,0,1,169,27.28a8,8,0,0,1,1.82,2.52A7.48,7.48,0,0,1,171.44,32.44Z"/><path class="cls-1" d="M125.07,28.94A9.63,9.63,0,0,0,123,25.89a9.77,9.77,0,0,0-3-2.05,9.12,9.12,0,0,0-3.73-.77,18.69,18.69,0,0,0-7.4,1.56,23.38,23.38,0,0,0-6.21,4V23.7H94.55V55.38h8.08V32.15A24.28,24.28,0,0,1,105,30.53a21.69,21.69,0,0,1,2.58-1.32,17.11,17.11,0,0,1,2.53-.85,9.72,9.72,0,0,1,2.32-.3,5.35,5.35,0,0,1,3.84,1.39,5.57,5.57,0,0,1,1.47,4.2V55.38h8.12V32.66A9.33,9.33,0,0,0,125.07,28.94Z"/><polygon class="cls-1" points="132.63 28.75 132.63 55.38 140.67 55.38 140.67 25.49 132.63 28.75"/><path class="cls-1" d="M49.92,53.41a32,32,0,0,0-17.06-6.67c-.84-.08-9.92-.57-13.31-.93s-7.21-.44-10.41-2.12A4.74,4.74,0,0,1,7.2,42.05c-.94-1.55-.12-3.34,1-4.5a4.54,4.54,0,0,1,1.67-1.22c.8-.25,1.19.18,1.85.42A26.25,26.25,0,0,0,28,42c12.33,0,22.32-7.49,22.32-16.72,0-5.64-3.73-10.62-9.44-13.65a7.6,7.6,0,0,1,3.35-1.91,2,2,0,0,1,1.05.09h0l.6.27a8.66,8.66,0,0,0,3.17.58A7.57,7.57,0,0,0,53.3,9.38a4.48,4.48,0,0,0,2.23-3.85,4.63,4.63,0,0,0-.88-2.78A6,6,0,0,0,52.35.89L51.92.67A8.76,8.76,0,0,0,50.5.2a6.58,6.58,0,0,0-5.81,1.32,5.09,5.09,0,0,0-2.2,4.14,4.9,4.9,0,0,0,.1,1h0c.05.52-.25.68-3.07,3.18l-.87.77A28.22,28.22,0,0,0,28,8.56C15.63,8.56,5.64,16,5.64,25.28A13.35,13.35,0,0,0,8,32.69a2,2,0,0,1,0,.6,2.22,2.22,0,0,1-.67,1.27c-.67.84-1.49,1.56-2.16,2.41a12.77,12.77,0,0,0-1.5,2.49,11.26,11.26,0,0,0-1,6.69q.08.41.18.81A10.39,10.39,0,0,0,7,52.62a12.59,12.59,0,0,0,1.34.85,27.72,27.72,0,0,0,10.45,2.8c3.9.37,9.94.27,10.48.26a27.43,27.43,0,0,1,14.86,3.84c3.32,2.12,6.18,5.71,5,9.87C47,78,36,80.16,29.22,80.16,18.06,80.15,9,74.87,9,68.34c0-4.29,3.93-8,9.79-10.1a20,20,0,0,0-5.68-.81C5.88,57.43,0,61.05,0,65.52,0,70.31,3.75,75,9,78.16c.74.41,1.5.8,2.27,1.14A43.53,43.53,0,0,0,28.54,83C40.33,82.79,50.33,77.88,54.2,71,57.78,64.68,55.18,57.77,49.92,53.41ZM47.2,2.31a1.93,1.93,0,0,1,1.81-1,2,2,0,0,1,1.92,1,6.62,6.62,0,0,1,.51,3,6.27,6.27,0,0,1-.59,3.12A2,2,0,0,1,49,9.32a2,2,0,0,1-1.91-.78,6.94,6.94,0,0,1-.52-3.19A6.21,6.21,0,0,1,47.2,2.31Zm-28.9,23h0c0-8.17,4.32-14.8,9.66-14.8s9.66,6.63,9.66,14.8h0c0,8.17-4.32,14.79-9.66,14.79S18.3,33.45,18.3,25.28Z"/><path class="cls-2" d="M75.93,66.11c0-.46.37-.67.87-.67s.86.21.86.67V77.32a1,1,0,0,1-1.09,1c-.78,0-1.07-.28-1.53-.93l-4.8-7a34,34,0,0,1-2-3.47c.11,1,.25,3.32.25,5.72v5c0,.44-.36.67-.85.67s-.87-.23-.87-.67V66.42c0-.61.43-1,1.14-1a1.52,1.52,0,0,1,1.47.78L73.9,72.9a42.77,42.77,0,0,1,2.32,3.88c-.11-1-.29-3.38-.29-5.73Z"/><path class="cls-2" d="M82.17,76.31c0,.37.27.52.67.52h6.5a.66.66,0,0,1,.72.7.68.68,0,0,1-.72.72h-7c-1.29,0-1.85-.51-1.85-1.75V67.3c0-1.26.56-1.77,1.85-1.77h6.85a.71.71,0,1,1,0,1.42H82.79c-.44,0-.62.18-.62.58V70.9h6.19a.66.66,0,0,1,.7.71.67.67,0,0,1-.7.68H82.17Z"/><path class="cls-2" d="M92.53,67a.67.67,0,0,1-.71-.7.69.69,0,0,1,.69-.74h10a.69.69,0,0,1,.69.74.68.68,0,0,1-.69.7H98.38V77.68c0,.44-.38.67-.87.67s-.87-.23-.87-.67V67Z"/><path class="cls-2" d="M110.86,77.57a1.09,1.09,0,0,1-1.19.78,1.14,1.14,0,0,1-1.22-.8L105,66.32a1,1,0,0,1,0-.23c0-.38.34-.57.76-.64H106a.73.73,0,0,1,.78.52l2.27,7.7c.25.87.49,2.37.65,3.2.16-.85.42-2.31.67-3.18l2.16-7.53c.15-.5.56-.71,1.18-.71a1,1,0,0,1,1.14.73L117,73.7c.24.81.47,2.33.64,3.18.18-.88.45-2.37.69-3.17L120.62,66a.77.77,0,0,1,.82-.52h.23c.42.07.77.26.77.62a.71.71,0,0,1,0,.2l-3.56,11.3a1.12,1.12,0,0,1-1.21.78,1.1,1.1,0,0,1-1.2-.8l-2.07-7.33c-.29-1-.49-2.43-.65-3.33-.18.9-.4,2.28-.69,3.3Z"/><path class="cls-2" d="M136.34,71.9c0,4-2.43,6.61-6.31,6.61s-6.35-2.58-6.35-6.63,2.45-6.59,6.35-6.59S136.34,67.87,136.34,71.9Zm-10.86,0c0,3.15,1.78,5.19,4.55,5.19s4.52-2,4.52-5.29c0-3.08-1.76-5.11-4.52-5.11S125.48,68.75,125.48,71.9Z"/><path class="cls-2" d="M149.29,77.39a.66.66,0,0,1,.06.27.69.69,0,0,1-.6.64,1.83,1.83,0,0,1-.4,0,.72.72,0,0,1-.71-.43l-.45-1c-1.31-3.18-1.81-4.34-3.63-4.34h-3.34v5.12c0,.46-.34.69-.83.69s-.87-.23-.87-.7V67.3c0-1.26.56-1.77,1.85-1.77h4.24c2.63,0,4.09,1.26,4.09,3.27A3.09,3.09,0,0,1,145.83,72c1.09.3,1.67,1.39,3,4.44ZM144.4,71.2c1.54,0,2.55-.87,2.55-2.17s-.83-2.14-2.45-2.14h-3.68c-.38,0-.6.18-.6.57V71.2Z"/><path class="cls-2" d="M161.48,77.12a.68.68,0,0,1,.16.43.85.85,0,0,1-.39.65.92.92,0,0,1-.55.17.83.83,0,0,1-.63-.28L154.93,72l-2,1.81v3.92c0,.44-.37.67-.86.67s-.87-.23-.87-.67V66.11c0-.46.37-.67.87-.67s.86.21.86.67V71.8l6.56-6.17a.8.8,0,0,1,.56-.21.91.91,0,0,1,.6.2.77.77,0,0,1,.31.62.58.58,0,0,1-.18.44l-4.68,4.24Z"/><path class="cls-2" d="M168.77,71.05c2.83.54,4.37,1.41,4.37,3.77,0,2.11-1.79,3.69-5,3.69-4.14,0-5-1.92-5.42-3.25a.86.86,0,0,1,0-.21c0-.36.31-.6.69-.68a1.65,1.65,0,0,1,.31,0,.79.79,0,0,1,.8.49c.32,1.1.92,2.32,3.57,2.32,2.07,0,3.35-.9,3.35-2.3s-.81-1.93-3-2.32L167,72.24c-2.72-.5-4-1.43-4-3.57,0-1.72,1.42-3.38,4.83-3.38,3.26,0,4.39,1.57,4.79,2.74a.7.7,0,0,1,0,.25.74.74,0,0,1-.67.65,1.48,1.48,0,0,1-.31,0,.82.82,0,0,1-.8-.47c-.29-.93-1-1.85-3.06-1.85s-3.07,1-3.07,2,.64,1.78,2.67,2.14Z"/></g></g></svg>