<svg xmlns="http://www.w3.org/2000/svg" xml:space="preserve" viewBox="0 0 1213.6 196.1"><path fill="#90a4c5" d="M112.9 79.7c-4.5-5.4-7.6-9.9-7-10 .7-.2 5 .8 9.7 2.1s8 2.7 6.8 2.8c-2 0-2.8.3-2.8 6.1 0 3.6 1 6.8 1.6 7.4q1.1 1.2.7 1.3c-.2 0-4.5-4.4-9-9.7"/><path fill="#3da3c5" d="M76.2 34.2s-4.6-5.3-15.7-16.4C51.5 8.8 42.7.6 43.1.2c1.2-1.1 26.3 2.1 38 4.7a336 336 0 0 1 70.5 26.3c.3.3-5.7.3-13.2 0-20-.8-50 .2-62.2 3-1.1.2-.8.3 0 0"/><path fill="#3690b3" d="M177.6 127q.2-.5 1.8-1.7 2.3-1.9.3.4-2 2.6-2 1.4M31.6 25.3a147 147 0 0 0-19.4-18c-3.7-.6 11.3-4.8 21.4-5.9l9.5-1L59.8 17c9.2 9.2 16.6 17 16.4 17-.2.3-4.4 1.5-9.5 3-5 1.3-11 3.2-13.3 4.1l-4.8 1.5z"/><path fill="#6f7072" d="M162.6 139q.2-.5 1.8-1.7 2.3-1.9.3.4-2 2.6-2 1.4m4-3q.2-.5 1.8-1.7 2.3-1.9.3.4-2 2.6-2 1.4M144 125.7c-.7-.4-3-4.4-5.1-8.7-2.1-4.4-7.3-13-11.5-19.3-7.4-11-7.7-11.5-7.7-17.2 0-7.3 0-7.3 14-2.4 30.6 10.6 56 30 52 39.6-2.2 5.5-4.1 6.5-14.2 7.7-11 1.3-25.7 1.5-27.5.3"/><path fill="#1b478a" d="M103.6 148.7c0-23.3-.3-31.2-1.2-32.2q-1.7-1.5.7-.2a173 173 0 0 0 26.6 7.8c9 2 39.9 2.6 46.9 1 3.3-.7 3.4-.7 1.5 1-8.7 8-61.3 45.4-74.5 53.2-1 .6 0-6.2 0-30.6M233 132.3c-6.4-1.8-6.8-3.5-6.8-30.4 0-21.5.2-24.3 1.8-26.8 1-1.5 3-3.2 4.4-3.8 1.6-.6 13.6-.8 30.5-.7l27.8.3 2.5 2.5q2.4 2.6 3.1 7.3l.7 4.7h-10.3v-7h-51v46h51.1l-.3-9.2-.3-9.3-12.7-.2-12.8-.3v-7h36.2l-.3 13.8c-.4 15.9-1.4 18.5-7.6 20.2-4.7 1.3-51.5 1.2-56 0m92.7-30.4V70.3l29.6.3 29.6.3 2.4 2.8c2.3 2.7 2.4 3.6 2.4 15.7s-.1 13-2.4 15.7c-2.2 2.5-3.1 2.8-11.1 3.3l-8.8.5 13 11 14.3 12.2c1.2 1.1.2 1.3-6.2 1.3h-7.6l-13-12.5-13-12.5-9.4.2-9.3.3-.3 12.3-.2 12.2h-10Zm52.4-3c1.2-1.2 1.6-3.6 1.6-9.1 0-12 1.4-11.4-23-11.4h-21v22H356c17.3 0 20.7-.2 22-1.5m29.3 31.3 17.3-31.6L440 70.3l6 .3 5.8.3 14.5 26 17.4 31.3 3 5.2H475l-3.9-8-3.9-8h-43.1l-4 7.8-4.2 7.7-5.3.3-5.2.3zm55.3-20.3c0-.7-10.7-21.2-14.7-28.3l-2.5-4.4L437 93c-4.6 8.7-8.3 16.2-8.4 16.6s7.7.7 17 .7 17-.2 17-.5m43-8V70.4h3.6c3.2 0 5.8 2 26.7 20.6a878 878 0 0 1 30.9 28.4c.2 0 .2-11 0-24.5l-.3-24.5h9.1v63.2l-2.9-.4c-2.2-.2-9-5.7-26.6-21.7l-30.9-28 .2 25 .4 25h-10.1Zm102 0V70.2l25.3.3 25.4.3 5.8 3c11 5.6 16.2 16.2 15.3 30.5-.7 9.1-2.7 14.3-7.6 19.4-7.9 8.1-14.6 9.6-44 9.6h-20.2Zm51.2 19.7c5.7-2.8 8.5-7 10-14.9 2.1-11.5-1.7-20.9-10.6-25.5-3.7-2-6-2.3-22.3-2.6l-18.3-.4v46.4l18.3-.3c16.7-.3 18.6-.6 23-2.7m51 10.7c-4-1.1-6-4.1-6.8-10.2l-.7-4.7h10.3v7h47v-19H738c-12 0-23.5-.4-25.5-1-5.8-1.6-7-4.9-6.6-18 .5-16.4-1.4-15.5 30.8-15.5h26l2.5 2.5c1.4 1.5 2.7 4.3 3.1 6.8l.7 4.2h-4.7c-4.4 0-4.6 0-4.6-3v-3h-45v18H737c24 .2 28.3.8 30.4 5a72 72 0 0 1 0 27c-.7 1.4-2.8 3-4.7 3.7a324 324 0 0 1-52.7.2M814.7 106V78.4h-29v-8h68v8h-29v55h-10zm56-4V70.4h28c32.4 0 33.2.2 35 7.3.7 2.4 1 8.6.8 14.5-.3 9.6-.5 10.4-3 13-2.5 2.4-3.7 2.8-10.8 3-4.5.3-8 .8-7.8 1.2s6.4 5.9 13.7 12.1L940 133l-7.3.3-7.2.3-13.2-12.5-13.2-12.5h-18.5v24.9h-10zm52.1-3.1q1.4-1.7 1.4-9.4c0-11.5 1-11-23.1-11h-20.4v22H901c17.7 0 20.5-.2 21.7-1.6m40 3.1V70.4h60.9v8h-51v18h31v8h-31v21h51v8h-61Zm74 29.3 17.1-31.5 16-29.3h11.6l17 30.9a1080 1080 0 0 1 17.2 31.5c0 .3-2.4.6-5.3.6h-5.3l-4.3-8-4.2-8h-42.9l-4 8-4 8h-5c-5 0-5 0-3.9-2.2m55.1-21.3a325 325 0 0 0-16-31.7c-.7-.7-16.2 27.8-17 30.9-.3 1 2.9 1.3 16 1.3 9.1 0 16.7-.2 17-.5m43.8-8V70.4h8.9l15.2 20.6a156 156 0 0 0 16 19.7l14.4-20.5 13.7-19.8h9.9v63h-9.1v-25.7c0-20.3-.4-25.4-1.3-24-9.1 14-27 39.3-28.1 39.5-1 .3-26-32.3-30-39.2q-1.1-2-.8 23.9l.3 25.5h-9.1ZM24.8 27.3c-11-11-20-17-17.9-18 5.3-3 0 0 4.7-2.4 1.4-.7 8 6 20 18 9.6 9.6 17.2 17.6 17 17.8l-3 1.8c-.7.4-2.4 1.2-3.2 1-2-.6-4.6-5-17.6-18.2"/><path fill="#1f4776" d="M62.1 194.6a41 41 0 0 1-7-6.3c-5.7-6.2-17-22-14.8-20.6.4.3-2.6-23.4-1.7-49.6L40.1 73l-.5 47c-.3 25.9-.7 46.6-1 46-.3-.5-.3-22 0-47.8l.5-46.8 4.9 5.1c6 6.2 21.6 19 31.1 25.2 6.5 4.3 27.4 15.4 28.5 15.1.3 0 .4 14 .2 31.3l-.2 31.3-5.8 3.5A131 131 0 0 1 69.1 196c-3 .4-4.8 0-7-1.4m104.3-68.8c.7-.3 1.8-.3 2.5 0q.8.4-1.3.5-2.2-.1-1.2-.5m9-1q1.3-.5 2 0 .4.6-1.4.6t-.6-.6m-141.6-72 2.8-3-18-17.9C8.7 22 .6 13.6.6 13.2S2 11.8 3.8 11l3.1-1.7 17.9 17.9c9.8 9.8 17.7 18 17.6 18.3-.2.3-2.8 2.8-5.8 5.5s-4.3 3.6-2.8 2"/><path fill="#16365f" d="M40 167.2c-.2-.7-.3-22.2-.1-47.8L40 73l.5 47.7c.3 26.3.4 47.8.2 47.8q-.3 0-.7-1.2m0 0c-.4-.9-2.9-5.8-3.4-5.8q-1 0-.5-1t-.5-1-.5-1-.3-1c-.5 0-3-4.4-5.5-9.7C13.8 114.5-1 79 .1 35l.5-21.9c.1-3.1 8.8 9.5 17.5 18.2l18.4 18.4-4.1 4.8-4 4.8 2.5 3.3c1.3 1.8 3.6 4.4 5.1 5.9l4.1 4.3.5 47.7c.3 25.8 1.7 50.6-.5 46.6"/></svg>