<svg viewBox="0 0 406.9 112.9" xmlns="http://www.w3.org/2000/svg"><g fill="#262223"><path d="m179.4 34.3v45.3h-7.1v-23.9h-26.8v23.9h-7.1v-45.3h7.1v15.2h26.8v-15.2z"/><path d="m196.4 79.6c-3.3 0-5.9-.9-7.9-2.8s-3-4.2-3-7.2v-2.4c0-3 1-5.4 3-7.2 1.9-1.9 4.5-2.8 7.9-2.8h18.5v-.2c0-3.6-2-5.4-6-5.4h-20.6v-6h20.4c4.3 0 7.5 1.1 9.8 3.2s3.4 5.1 3.4 9.1v12c0 3.1-1 5.5-3.1 7.3-1.9 1.6-4.5 2.4-8 2.4zm13-16.4h-11.2c-3.6 0-5.4 1.5-5.4 4.6v1.1c0 3 1.8 4.6 5.4 4.6h11.2c3.7 0 5.6-1.5 5.6-4.6v-1.1c-.1-3.1-1.9-4.6-5.6-4.6z"/><path d="m242.8 45.5h7c4.4 0 7.9 1.3 10.4 3.8 2.5 2.6 3.8 6.1 3.8 10.7v19.5h-7.1v-19.1c0-2.8-.6-4.9-1.7-6.2-1.4-1.7-3.4-2.5-6-2.5h-6c-2.5 0-4.5.8-5.9 2.5-1 1.3-1.5 3.4-1.5 6.2v19.2h-7.1v-19.5c0-4.6 1.3-8.1 3.8-10.7 2.4-2.6 5.9-3.9 10.3-3.9z"/><path d="m296.6 75c-2.5 3-5.7 4.6-9.4 4.6h-4.4c-3.9 0-7.1-1.2-9.4-3.7-2.2-2.3-3.3-5.6-3.3-9.9v-20.5h7v20.5c0 2.5.5 4.3 1.6 5.4 1.2 1.3 2.8 2 4.8 2h3.1c2 0 3.6-.7 4.8-2 1.1-1.1 1.7-3 1.7-5.4v-20.5h7v20.5c0 2.5.5 4.3 1.6 5.4 1.2 1.3 2.8 2 4.8 2h3.1c2 0 3.6-.7 4.8-2 1.1-1.1 1.7-3 1.7-5.4v-20.5h7v20.5c0 4.3-1.1 7.5-3.4 9.9-2.3 2.5-5.5 3.7-9.5 3.7h-4.3c-3.7 0-6.8-1.5-9.3-4.6z"/><path d="m343.9 51.7c-2.5 0-4.5.8-5.9 2.5-1 1.3-1.5 3.4-1.5 6.2v19.2h-7.1v-45.4h7.1v13.4c2-1.4 4.4-2.1 7-2.1h7c4.4 0 7.9 1.3 10.4 3.8 2.5 2.6 3.8 6.1 3.8 10.7v19.5h-7.1v-19.1c0-2.8-.5-4.9-1.7-6.2-1.4-1.7-3.4-2.5-6-2.5z"/><path d="m381.3 79.6c-3.3 0-5.9-.9-7.9-2.8s-3-4.2-3-7.2v-2.4c0-3 1-5.4 3-7.2 1.9-1.9 4.6-2.8 7.9-2.8h18.5v-.2c0-3.6-2-5.4-6-5.4h-20.6v-6h20.4c4.3 0 7.5 1.1 9.8 3.2s3.4 5.1 3.4 9.1v12c0 3.1-1 5.5-3.1 7.3-1.9 1.6-4.6 2.4-8 2.4zm12.9-16.4h-11.2c-3.6 0-5.4 1.5-5.4 4.6v1.1c0 3 1.8 4.6 5.4 4.6h11.2c3.7 0 5.6-1.5 5.6-4.6v-1.1c0-3.1-1.9-4.6-5.6-4.6z"/></g><path d="m45 56.6c-1.6-14.4 13.5-25.9 33.6-25.7s37.8 11.9 39.3 26.3c1.6 14.4-13.5 25.9-33.6 25.7-20.1-.1-37.7-11.9-39.3-26.3m76.7 4.5c-1.8-17.8-22.1-32.4-45.3-32.6s-40.5 14.1-38.7 31.9 22.1 32.4 45.3 32.6 40.5-14.1 38.7-31.9" fill="#f9b382"/><path d="m86.7 93.4c-11.4 12-29.8 12.9-41 2.2s-11-29.1.4-41 29.8-12.9 41-2.2 11 29-.4 41m-42.3-39.2c-13.3 13.9-13.5 35.2-.5 47.7 13 12.4 34.3 11.3 47.6-2.6s13.5-35.2.5-47.7c-13-12.4-34.3-11.3-47.6 2.6" fill="#f89a57"/><path d="m45.6 9.5c23.8-8.9 47.3.1 52.5 20.1s-9.8 43.5-33.6 52.4-47.3-.1-52.5-20.1 9.8-43.5 33.6-52.4m-22.1 7.7c-24.6 19.5-30.9 47.8-14 63.1 16.9 15.4 50.6 12 75.3-7.5s30.9-47.8 14-63.2c-17-15.3-50.6-12-75.3 7.6" fill="#ee7423"/><g fill="#262223"><path d="m146.4 112.9v-18h-8.2v-2.9h19.7v2.9h-8.2v18z"/><path d="m175.9 102.9c0 1.3-.5 2.4-1.4 3.3s-2.1 1.3-3.6 1.3h-8.5v.1c0 1.7.9 2.5 2.8 2.5h10v2.8h-10c-1.9 0-3.4-.5-4.5-1.5-1-1-1.6-2.4-1.6-4.2v-5.4c0-1.4.5-2.5 1.4-3.3.9-.9 2.1-1.3 3.7-1.3h6.7c1.5 0 2.8.4 3.7 1.3s1.4 2 1.4 3.3v1.1zm-5.8 1.8c1.7 0 2.5-.7 2.5-2.1v-.5c0-1.4-.8-2.1-2.5-2.1h-5.2c-1.7 0-2.5.7-2.5 2.1v.5c0 1.4.8 2.1 2.5 2.1z"/><path d="m185 112.9c-1.9 0-3.5-.6-4.6-1.7s-1.7-2.7-1.7-4.7v-2.9c0-2.1.6-3.6 1.7-4.7s2.6-1.7 4.6-1.7h10.4v2.8h-10.2c-1.2 0-2 .4-2.6 1.1-.4.6-.6 1.5-.6 2.7v2.6c0 1.2.2 2 .6 2.6.6.7 1.4 1.1 2.6 1.1h10.2v2.8z"/><path d="m202.3 101.2c-.5.6-.7 1.6-.7 2.9v8.8h-3.3v-20.9h3.3v6.2c.9-.6 2-1 3.2-1h3.2c2 0 3.6.6 4.8 1.8s1.7 2.8 1.7 4.9v9h-3.3v-8.8c0-1.3-.3-2.3-.8-2.9-.6-.8-1.6-1.2-2.8-1.2h-2.6c-1.1 0-2 .4-2.7 1.2z"/><path d="m225.4 112.9h-2c-1.8 0-3.3-.6-4.3-1.7s-1.5-2.6-1.5-4.6v-9.4h3.2v9.5c0 1.1.2 2 .7 2.5.6.6 1.3.9 2.2.9h1.4c.9 0 1.7-.3 2.2-.9.5-.5.8-1.4.8-2.5v-9.5h3.2v9.5c0 1.1.2 2 .7 2.5.6.6 1.3.9 2.2.9h1.4c.9 0 1.7-.3 2.2-.9.5-.5.8-1.4.8-2.5v-9.5h3.2v9.4c0 2-.5 3.5-1.6 4.6s-2.5 1.7-4.4 1.7h-2c-1.7 0-3.1-.7-4.3-2.1-1 1.4-2.4 2.1-4.1 2.1z"/><path d="m248.3 95.5c-.4.4-.9.5-1.5.5s-1.1-.2-1.5-.5c-.4-.4-.6-.8-.6-1.4s.2-1.1.6-1.5.9-.6 1.5-.6 1.1.2 1.5.6.6.9.6 1.5c0 .5-.2 1-.6 1.4zm-3.2 1.7h3.3v15.7h-3.3z"/><path d="m261.3 97.2c2 0 3.6.6 4.8 1.8s1.7 2.8 1.7 4.9v9h-3.3v-8.8c0-1.3-.3-2.3-.8-2.9-.6-.8-1.6-1.2-2.8-1.2h-2.8c-1.2 0-2.1.4-2.7 1.2-.5.6-.7 1.6-.7 2.9v8.8h-3.3v-9c0-2.1.6-3.8 1.7-4.9 1.2-1.2 2.8-1.8 4.8-1.8z"/></g></svg>