<svg xmlns="http://www.w3.org/2000/svg" viewBox="0 0 406.9 112.9"><path fill="#262223" d="M179.4 34.3v45.3h-7.1V55.7h-26.8v23.9h-7.1V34.3h7.1v15.2h26.8V34.3zm17 45.3q-5 0-7.9-2.8c-2.9-2.8-3-4.2-3-7.2v-2.4q0-4.5 3-7.2 2.8-2.8 7.9-2.8h18.5V57q0-5.4-6-5.4h-20.6v-6h20.4q6.4 0 9.8 3.2c3.4 3.2 3.4 5.1 3.4 9.1v12a9 9 0 0 1-3.1 7.3 12 12 0 0 1-8 2.4zm13-16.4h-11.2q-5.4 0-5.4 4.6v1.1q0 4.5 5.4 4.6h11.2q5.6 0 5.6-4.6v-1.1q-.1-4.6-5.6-4.6m33.4-17.7h7q6.6 0 10.4 3.8T264 60v19.5h-7.1V60.4q0-4.2-1.7-6.2-2.1-2.5-6-2.5h-6q-3.8 0-5.9 2.5-1.5 2-1.5 6.2v19.2h-7.1V60.1q0-6.9 3.8-10.7 3.7-3.9 10.3-3.9M296.6 75a12 12 0 0 1-9.4 4.6h-4.4q-5.9 0-9.4-3.7-3.3-3.5-3.3-9.9V45.5h7V66q0 3.7 1.6 5.4 1.8 2 4.8 2h3.1q3 0 4.8-2 1.7-1.7 1.7-5.4V45.5h7V66q0 3.7 1.6 5.4 1.8 2 4.8 2h3.1q3 0 4.8-2 1.7-1.7 1.7-5.4V45.5h7V66q0 6.4-3.4 9.9a12 12 0 0 1-9.5 3.7h-4.3q-5.5 0-9.3-4.6m47.3-23.3q-3.8 0-5.9 2.5-1.5 2-1.5 6.2v19.2h-7.1V34.2h7.1v13.4a12 12 0 0 1 7-2.1h7q6.6 0 10.4 3.8 3.8 3.9 3.8 10.7v19.5h-7.1V60.4q0-4.2-1.7-6.2-2.1-2.5-6-2.5zm37.4 27.9q-5 0-7.9-2.8c-2.9-2.8-3-4.2-3-7.2v-2.4q0-4.5 3-7.2 2.9-2.8 7.9-2.8h18.5V57q0-5.4-6-5.4h-20.6v-6h20.4q6.4 0 9.8 3.2c3.4 3.2 3.4 5.1 3.4 9.1v12a9 9 0 0 1-3.1 7.3 12 12 0 0 1-8 2.4zm12.9-16.4H383q-5.4 0-5.4 4.6v1.1q0 4.5 5.4 4.6h11.2q5.6 0 5.6-4.6v-1.1q0-4.6-5.6-4.6"/><path fill="#f9b382" d="M45 56.6c-1.6-14.4 13.5-25.9 33.6-25.7s37.8 11.9 39.3 26.3c1.6 14.4-13.5 25.9-33.6 25.7S46.6 71 45 56.6m76.7 4.5c-1.8-17.8-22.1-32.4-45.3-32.6S35.9 42.6 37.7 60.4 59.8 92.8 83 93s40.5-14.1 38.7-31.9"/><path fill="#f89a57" d="M86.7 93.4c-11.4 12-29.8 12.9-41 2.2s-11-29.1.4-41 29.8-12.9 41-2.2 11 29-.4 41M44.4 54.2c-13.3 13.9-13.5 35.2-.5 47.7s34.3 11.3 47.6-2.6 13.5-35.2.5-47.7-34.3-11.3-47.6 2.6"/><path fill="#ee7423" d="M45.6 9.5c23.8-8.9 47.3.1 52.5 20.1S88.3 73.1 64.5 82 17.2 81.9 12 61.9s9.8-43.5 33.6-52.4m-22.1 7.7C-1.1 36.7-7.4 65 9.5 80.3s50.6 12 75.3-7.5 30.9-47.8 14-63.2c-17-15.3-50.6-12-75.3 7.6"/><path fill="#262223" d="M146.4 112.9v-18h-8.2V92h19.7v2.9h-8.2v18zm29.5-10q0 2-1.4 3.3c-1.4 1.3-2.1 1.3-3.6 1.3h-8.5v.1q0 2.5 2.8 2.5h10v2.8h-10q-2.8 0-4.5-1.5-1.6-1.5-1.6-4.2v-5.4q0-2.1 1.4-3.3 1.3-1.3 3.7-1.3h6.7q2.3 0 3.7 1.3c1.4 1.3 1.4 2 1.4 3.3zm-5.8 1.8q2.5 0 2.5-2.1v-.5q0-2.1-2.5-2.1h-5.2q-2.5 0-2.5 2.1v.5q0 2.1 2.5 2.1zm14.9 8.2q-2.9 0-4.6-1.7c-1.7-1.7-1.7-2.7-1.7-4.7v-2.9q0-3.1 1.7-4.7c1.7-1.6 2.6-1.7 4.6-1.7h10.4v2.8h-10.2q-1.7 0-2.6 1.1a5 5 0 0 0-.6 2.7v2.6q0 1.8.6 2.6.8 1 2.6 1.1h10.2v2.8zm17.3-11.7q-.7 1-.7 2.9v8.8h-3.3V92h3.3v6.2q1.4-1 3.2-1h3.2q3 0 4.8 1.8c1.8 1.8 1.7 2.8 1.7 4.9v9h-3.3v-8.8q0-2-.8-2.9-1-1.2-2.8-1.2H205q-1.7 0-2.7 1.2m23.1 11.7h-2q-2.8 0-4.3-1.7c-1.5-1.7-1.5-2.6-1.5-4.6v-9.4h3.2v9.5q0 1.7.7 2.5a3 3 0 0 0 2.2.9h1.4q1.4 0 2.2-.9t.8-2.5v-9.5h3.2v9.5q0 1.7.7 2.5a3 3 0 0 0 2.2.9h1.4q1.4 0 2.2-.9t.8-2.5v-9.5h3.2v9.4q0 3-1.6 4.6c-1.6 1.6-2.5 1.7-4.4 1.7h-2q-2.5 0-4.3-2.1a5 5 0 0 1-4.1 2.1m22.9-17.4q-.6.6-1.5.5c-.9-.1-1.1-.2-1.5-.5q-.6-.6-.6-1.4 0-1 .6-1.5.8-.7 1.5-.6 1 0 1.5.6.7.8.6 1.5 0 .8-.6 1.4m-3.2 1.7h3.3v15.7h-3.3zm16.2 0q3 0 4.8 1.8c1.8 1.8 1.7 2.8 1.7 4.9v9h-3.3v-8.8q0-2-.8-2.9-1-1.2-2.8-1.2h-2.8q-1.8 0-2.7 1.2-.7 1-.7 2.9v8.8h-3.3v-9q0-3.2 1.7-4.9a7 7 0 0 1 4.8-1.8z"/></svg>