<svg xmlns="http://www.w3.org/2000/svg" fill="#fff" fill-rule="evenodd" stroke="#000" stroke-linecap="round" stroke-linejoin="round" viewBox="0 0 107 31"><use x=".5" y=".5" href="#a"/><symbol id="a" overflow="visible"><g fill-rule="nonzero" stroke="none"><path fill="#169bd6" d="M41.4 19.8v-4h-4.8v4h-1.8v-9.7h1.8v4h4.8v-4h1.8v9.7z"/><path fill="#256ea5" d="M52.5 18h-5l-.9 1.8h-2l4.4-9.7h2l4.4 9.7h-2zM50 12l-1.8 4.2h3.6z"/><path fill="#24405d" d="M61.4 17h-2.8v2.8h-1.8v-9.7h4.6c4.8 0 4.8 6.9 0 6.9m-2.8-1.7h2.8c2.4 0 2.4-3.5 0-3.5h-2.8zm16.5 4.5H73l-2.8-3.3h-1.8v3.3h-1.8V10H71c2.3 0 3.5 1.6 3.5 3.3s-.6 2.7-2.4 3l3 3.4zm-6.8-8v3.1h2.8q1.8-.2 1.7-1.6c-.1-1.4-.5-1.5-1.7-1.5zM85.7 15c0 2.5-1.6 5-5 5s-5-2.4-5-5 1.6-5.1 5-5.1 5 2.5 5 5m-8.2 0c0 1.6.9 3.4 3.2 3.4s3.1-1.8 3.2-3.4-1-3.5-3.2-3.5-3.3 1.9-3.2 3.5m15-5h2v.1l-3.1 5 3.4 4.9h-2L90 16.2l-2.5 3.6h-2l3.4-5-3.3-4.7h2l2.4 3.6zm7.7 4.1 2.6-4h2.2l-3.9 5.7v4h-1.8v-4L95.5 10h2.2z"/></g><path fill="none" stroke="#284a6a" stroke-width=".1" d="m14.9 11-3.2-3.4M5 8.4l2.5 3.5m7.4-.9 3-3.5m.7 7.5 3.6-3m-3.6 3 3.6 3.2m-4.2 4-3.1-3.4m-3.2 3.5 3.2-3.5m-7.4-.7L11 15m-3.5-3 3.5 3m3.9-4-7.4 1m7.4-1 7.3 1m-3.6 3-.7-7.5m.7 7.5-.6 7.3m4.2-4.1-7.3.6m-7.4-.7 7.4.7m-3.2 3.5L11 15m.7-7.4L11 15m-6.9-2.1 3.4-1M8.2 5l3.5 2.6m.9-4.2-.9 4.2m.9-4.2 5.3 4.1m-.8-4 .8 4M21.5 5l-3.6 2.5m6.8.9-6.8-.9m4.3 4.4 2.5-3.5m-2.5 3.5 3.5 1m-3.5-.9 3.4 5M17.1 3.5l-5.4 4.2M22.2 12l-.7-7m.7 13.2 3.4-1.1m-3.4 1.1 3.5-5.3m-3.5 5.3 2.5 3.3m-2.5-3.3-.7 6.6M18 22.3l3.5 2.5M18 22.3l6.7-.8m-6.7.8-.8 4.1m.8-4.1-5.4 4.1m-.9-4.1.9 4.1m-.9-4.1 5.5 4.1m-5.5-4.1-3.5 2.5m3.5-2.5-6.6-.8m2.4-3.4L5 21.5M7.5 18l.7 6.8m-.7-6.7L4 17m3.4-5.2L4 17m3.5 1L4 13m4-7.9-.6 7M5 8.4l6.7-.8"/><path fill="none" stroke="#24405d" stroke-width="0" d="M8.2 5 5.6 3.8M8.2 5 8 2.2m4.6 1.2L8 2.2m4.6 1.2-2-2.4m2 2.4.8-2.8M8.2 5l2.4-4M17 3.4 13.4.6m3.7 2.8-.8-3m-3.7 3 3.7-3m.8 3 2-2.4m2.4 4L19 1m2.5 4 .2-2.8m-4.6 1.2 4.6-1.2M21.5 5 24 3.7M21.5 5l4.6.7m-1.4 2.7L26 5.7m-1.4 2.7L24 3.7m.6 4.7 3-.3m-3 .3 4.1 2.3m-3 2.2 2-4.8m-2 4.8 3.1-2.2M25.7 13l3.5.7M25.6 17l3.6-3.5M25.6 17l3.7-.6m-3.6-3.5 3.6 3.5m-3.7.7 3.1 2m-4 2.4 4-2.3m-4 2.3 3 .3m-2.1-4.7 2 4.7m-3-.3 1.5 2.7m-1.4-2.7-.6 4.7m0 0-2.6-1.4m0 0 .2 3m-.2-3 4.6-.6m-4.6.6-2.4 4m-1.9-2.4L19 29m-2-2.5 4.6 1.4m-4.5-1.4-1 3m1-3-3.8 3m-.7-3.1.8 3m-.8-3 3.7 3m-3.7-3-2 2.5m-2.4-4 2.4 4m2-2.5L8 27.8m.2-3-.2 3m.2-3-2.6 1.5M5 21.5l.5 4.8m2.7-1.5-4.6-.6M5 21.5l-1.5 2.7M5 21.5l-3 .3m3-.3L.9 19.2M4 17 .9 19.2M4 17l-3.7-.6M4 17l-2 4.8m2.1-9L.4 16.5M4 17 .5 13.6m3.7-.7L1 10.8m3.1 2.1-3.7.7m3.7-.7L2.1 8m2.9.4L2 8m3 .3-4 2.4m4-2.4L3.7 5.9m1.5 2.5.5-4.6M8.2 5 3.6 6"/><g fill-rule="nonzero" stroke="none"><path fill="#256ea5" d="M9.2 16.8v-3.6h3.6v3.6zm3.8-4V9.3h3.6V13zm0 7.8v-3.5h3.6v3.6zm4-3.9v-3.5h3.5v3.5z"/><path fill="#3378bc" d="M16.7 8.8V6.3h2.5v2.5zm-6.2 0V6.3H13v2.5zm-4.3 4.4v-2.5h2.5v2.5zm0 6.2v-2.5h2.5v2.5zm14.8 0v-2.6h2.5v2.5zm0-6.2v-2.5h2.6v2.5z"/><path fill="#169bd6" d="M4.2 9.2V7.6h1.6v1.6zm3.2-3.3V4.3H9v1.6zm4.3-1.7V2.6h1.7v1.7zm-8.4 9.5V12h1.6v1.6zm20.5-6.1h1.7v1.6h-1.7zm-3.1-3.4h1.6v1.6h-1.6zm-4.4-1.6h1.6v1.6h-1.6zm8.5 9.5h1.6v1.6h-1.6z"/><path fill="#3378bc" d="M10.5 23.6V21H13v2.5zm6.2 0V21h2.5v2.5z"/><path fill="#169bd6" d="M23.8 22.3v-1.6h1.7v1.6zm-3.1 3.4V24h1.6v1.7zm-4.4 1.6v-1.7H18v1.7zm8.5-9.5v-1.6h1.6v1.6zM4.2 20.7h1.6v1.6H4.3zM7.4 24H9v1.6H7.4zm4.3 1.6h1.7v1.6h-1.7zm-8.4-9.4h1.6v1.6H3.3z"/><g fill="#00a8da"><use href="#b"/><use x="1.2" y="2.7" href="#b"/><use x="-1.6" y="-2.3" href="#b"/><use x="-22.1" y="-4.4" href="#b"/><use x="-27.2" y="5.4" href="#b"/><use x="-3.5" y="-4.4" href="#b"/><use x="-26.7" y="2.7" href="#b"/><use x="-17.1" y="-7.1" href="#b"/><use x="-25.6" href="#b"/><use x="-24" y="-2.4" href="#b"/><path d="M7.5 1.7h1v1h-1zM13 0h.8v1H13z"/><use x="-5.9" y="-5.9" href="#b"/><use x="1.6" y="5.4" href="#b"/><path d="M15.8.9V0h1v1z"/><use x="-8.6" y="-7.1" href="#b"/><use x="-3.5" y="18" href="#b"/><use x="1.6" y="8.2" href="#b"/><use x="-22.1" y="18" href="#b"/><use x="1.2" y="11.1" href="#b"/><use x="-8.6" y="20.8" href="#b"/><use y="13.7" href="#b"/><use x="-1.6" y="16.1" href="#b"/><path d="M21.3 27.4h.9v.9h-1zM15.9 29h.9v1h-1z"/><use x="-19.7" y="19.7" href="#b"/><use x="-25.7" y="13.7" href="#b"/><use x="-26.7" y="11.1" href="#b"/><path d="M3.2 24.7v-1l.9.1v.9z"/><use x="-27.2" y="8.2" href="#b"/><use x="-14.2" y="21.3" href="#b"/><use x="-17.1" y="20.8" href="#b"/></g></g></symbol><defs><path id="b" d="M27.2 8.6v-1l1 .1v.9z"/></defs></svg>