<svg xmlns="http://www.w3.org/2000/svg" viewBox="0 0 52.9 15.9"><g fill="#004076"><path d="M.6 1.2h6.5l-.9.2-.5.3C4.4 2.2 4 3.6 3.8 4.8q1.8-1.1 3.7-1.7 2.4-.6 4.1-2h.3v2.7l-.4.3-.4.2-.4.3-.4.2-.6.2-.6.3-.6.2-.6.3-.7.2-.7.2-.7.3-.7.2-.3.2-.4.2C3.2 7.5 3 8.8 2.8 9.9l-.1.6C6 8.3 9 8 11.9 6.2v2.6l-.3.2-.3.2-.3.2-.2.3-.7.3-.7.3-.7.4-.8.3-1 .4-1.1.4-1.1.4-1.1.4q-1.7.6-1.6 2.1H.6zm4.6 13.4q3.6-1.2 6.5-3l.2-.1v3.2z"/><text xml:space="preserve" x="13.6" y="7.8" stroke-width=".2" font-family="sans-serif" font-size="8.9" font-weight="400" letter-spacing="0" style="line-height:1.25" transform="matrix(.9208773 0 0 1.085921 .2 -.2)" word-spacing="0"><tspan x="13.6" y="7.8" font-family="Noto Sans CJK TC" style="-inkscape-font-specification:&quot;Noto Sans CJK TC&quot;">HATTERAS</tspan></text><text xml:space="preserve" x="11.9" y="15.7" stroke-width=".2" font-family="sans-serif" font-size="6.9" font-weight="400" letter-spacing="0" style="line-height:1.25" transform="matrix(1.0603272 0 0 .94310511 .2 -.2)" word-spacing="0"><tspan x="11.9" y="15.7" font-family="Noto Sans CJK TC" style="-inkscape-font-specification:&quot;Noto Sans CJK TC&quot;">NETWORKS</tspan></text></g></svg>