<svg xmlns="http://www.w3.org/2000/svg" viewBox="0 0 54.799757 13.605252"><g fill="#004076"><path d="M0 .1h6.5l-.9.2-.5.3c-1.3.5-1.7 1.9-1.9 3.1Q5 2.6 6.9 2q2.4-.6 4.1-2h.3v2.7l-.4.3-.4.2-.4.3-.4.2-.6.2-.6.3-.6.2-.6.3-.7.2-.7.2-.7.3-.7.2-.3.2-.4.2c-1.2.4-1.4 1.7-1.6 2.8l-.1.6c3.3-2.2 6.3-2.5 9.2-4.3v2.6l-.3.2-.3.2-.3.2-.2.3-.7.3-.7.3-.7.4-.8.3-1 .4-1.1.4-1.1.4-1.1.4q-1.7.6-1.6 2.1H0Zm4.6 13.4q3.6-1.2 6.5-3l.2-.1v3.2z"/><text xml:space="preserve" x="13.6" y="7.8000002" stroke-width=".2" font-family="sans-serif" font-size="8.9" font-weight="400" letter-spacing="0" style="line-height:1.25" transform="matrix(.9208773 0 0 1.085921 -.4 -1.3)" word-spacing="0"><tspan x="13.6" y="7.8000002" font-family="'Noto Sans CJK TC'" style="-inkscape-font-specification:&quot;Noto Sans CJK TC&quot;">HATTERAS</tspan></text><text xml:space="preserve" x="11.9" y="15.7" stroke-width=".2" font-family="sans-serif" font-size="6.9" font-weight="400" letter-spacing="0" style="line-height:1.25" transform="matrix(1.0603272 0 0 .94310511 -.4 -1.3)" word-spacing="0"><tspan x="11.9" y="15.7" font-family="'Noto Sans CJK TC'" style="-inkscape-font-specification:&quot;Noto Sans CJK TC&quot;">NETWORKS</tspan></text></g></svg>