<svg xmlns="http://www.w3.org/2000/svg" viewBox="0 0 774.7 222.1"><g fill-rule="evenodd"><path fill="#4d4d4d" d="M597.3 2.8v41.9h56.2s-.3-41.9 0-41.9h27.6v104.8h-27.6V61.5h-56.2v46h-27.6V2.9zm-263.4 0v17.8h-42.6v87h-28v-87h-42.2V2.8zm108 104.8h-31.1l-9.1-22.7h-52l-9.1 22.7h-30.8L358.7 2.8h33.9zm-66-87-19.6 47.5H395zm327.2 87V2.8h28v104.8zM77.5 2.8v41.9h56V2.8h27.9v104.8h-28V61.5H77.5v46H49.6s.3-104.7 0-104.7zm105.8 104.8V2.8H211v104.8zm257.4-29a70 70 0 0 1-3.9-22.4c0-11.1 2.1-21.6 7.4-30.7A46 46 0 0 1 468 5.6a88 88 0 0 1 65.7 1.7 35 35 0 0 1 20 24.5l1 6.6h-29c-.4-2.8-.7-5.6-1.8-8-2-6-7-10.5-12.9-12.3q-5.9-1.6-12.2-1.7-7.5 0-13.7 2.4a24 24 0 0 0-15.3 15.4 64 64 0 0 0-1 40.2c2 7.7 7.6 14 15 16.7q7.1 2.8 15 2.8a40 40 0 0 0 12.9-2c5.2-1.8 9.8-5.7 12.2-10.9q2.1-5.3 2.1-11.2h29.3q-.3 5-1.4 9.8a33 33 0 0 1-19.5 23 87 87 0 0 1-35.6 7.4q-14.8 0-28.3-4.2a45 45 0 0 1-29.7-27.2m-416 58.3L0 139v3.8h1c9.8 1.1 9.8 1.1 9.8 8.4V203h15v-66zm52.4 19.6c-9.1 0-14.7 6.3-17.1 10.1v-10.5l-1 .4-20 3.1v3.5h.7c6.3.4 7.7 1.4 7.7 7.4v32.4h12.6v-23.7c0-6.3 6-14.7 12.2-14.7 6 0 6.3 5.3 6.3 13.3V203h12.6v-32.5c0-9.1-5-14-14-14m48.9 18.1c-4.9-2.4-9.1-4.5-9.1-8 0-3.8 4.5-4.2 6.6-4.2 5.3 0 9.8 2.8 12 3.9l1.7 1.4v-9.5l-1.4-.3c-2.5-.4-6.7-1.4-11.6-1.4-11.5 0-18.8 4.9-18.8 13.6 0 7.4 7.3 11.2 14 14.3 4.8 2.5 9.7 4.6 9.7 8.4 0 3.5-3.1 5.3-8.4 5.3a26 26 0 0 1-13.6-4.6l-1.4-1v9.8h.7c2.8.7 7.4 1.7 14 1.7 12.6 0 20.3-5.2 20.3-14 0-8.4-7.7-12.2-14.7-15.3m55.2-18.2q-7 0-13.3 6.3V156l-1 .4-20 3.1v3.5h1.1c6 .4 7.3 1.4 7.3 7.4v51.7H168v-23.4c2.1 2.7 6 5.2 13 5.2 12.8 0 19.8-8.4 19.8-24.5 0-14.6-7-23-19.5-23zm-3.5 7c8.4 0 9.4 9 9.4 16q0 17.8-9.4 17.8c-8 0-9.8-7.6-9.8-14v-4.1c0-4.6 1-15.7 9.8-15.7m31.8-3.9v3.5h.7c6.3.4 7.6 1.4 7.6 7.4v32.4h12.3v-46.8l-.7.4zm14.7-8.7c4.2 0 7.7-3.2 7.7-7 0-3.5-3.5-6.6-7.7-6.6s-7.6 3.1-7.6 6.6c0 3.8 3.5 7 7.6 7m58.7 15.7v-9.4l-1-.4q-2.8-.4-6-.3c-7 0-10.8 5.2-12.5 9v-9.4l-1 .4-20 3.1v3.5h.7c6.3.4 7.7 1.4 7.7 7.4v32.4h12.6v-23.4c0-3.8 1.4-12.9 12.9-12.9q2.3.1 4.5.7l2.1.7zm49.3 8.7q-.1-18.8-20.6-18.8-23.5-.1-23.4 22.3c0 15.8 10 25.2 27.2 25.2 7.3 0 13-1.8 15-2.5l.7-.3v-6l-1 .4a31 31 0 0 1-9.8 1.7c-13.3 0-18.5-11.1-18.5-21.3h30.4zm-21-14c6.7 0 8.4 5 8.4 9.5h-17.8c.3-3.5 2-9.4 9.4-9.4m135.2-5c-9.5 0-14.7 5.7-17.1 9.8v-31h-1l-20 2.8v3.5h.7c6.3 0 7.7 1.4 7.7 7.6V203h12.6v-23c0-8.8 6.3-15.4 11.5-15.4 7 0 7 5.3 7 9.8V203h12.6v-30c0-4.9 0-16.4-14-16.4m70.2 18.8q-.1-18.8-20.6-18.8-23.5-.1-23.4 22.3c0 15.8 10.1 25.2 26.9 25.2 7.6 0 13.3-1.8 15.3-2.5l.7-.3v-6l-1 .4a31 31 0 0 1-9.8 1.7c-13.3 0-18.5-11.1-18.5-21.3h30.4zm-21.3-14c7 0 8.7 5 8.7 9.5h-17.8c0-3.5 2.1-9.4 9.1-9.4m-119.1-18.2v14.3h-8.4v5.6h8.4v28c0 12.2 7.7 12.9 17 12.9q3.8-.1 7.4-.7h.7v-5.6h-1q-1.7.5-3.9.4c-7.3 0-7.7-2.1-7.7-8.4V163h14v-5.6h-14v-14.3zm246.2-5.2h-12.6v49.2L577.4 138h-29v3.5l2.4.7c7.7 1 8 1.4 8 8.7v52h13.7v-51.7c2.4 3.9 34.2 51.7 34.2 51.7h16.4v-65zm57 37.4q0-18.8-21-18.8-23.2-.1-23.4 22.3c0 15.8 10.2 25.2 27.2 25.2 7.4 0 13.3-1.8 15.4-2.5l.7-.3v-6l-1 .4a34 34 0 0 1-10.2 1.7c-13.2 0-18.1-11.1-18.5-21h30.8zm-21.3-14c6.6 0 8.4 5 8.7 9.5h-18.2c.4-3.5 2.5-9.4 9.4-9.4m90.1-18.2v14.3h-8.3v5.6h8.3v28c0 12.2 7.7 12.9 17.2 12.9q3.6-.1 7.3-.7h1v-5.6h-1.3q-1.4.5-3.5.4c-7.7 0-8-2.1-8-8.4V163h14v-5.6h-14v-14.3zm-25.2 29 13-14.7h-13.3l-12.3 14-10.8-14h-19.2v3.5h1c6.3.7 8 1.8 12 7l8 10.5-13 14.7h13.3l5.6-6.7 12.6 16.4h14.7L711 172.2z"/><path fill="#d40000" d="M748.2 143.2h-13.3l16-18.5h13.4z"/></g></svg>