<svg xmlns="http://www.w3.org/2000/svg" viewBox="0 0 118.7 38.9"><path fill="#0a417d" d="M118 16.8q-1.6 3-4.2 4.7c-2.6 1.7-3.4 1.7-5.3 1.7q-1.6 0-3-.6t-2.3-1.8a7 7 0 0 1-1.4-2.8 9 9 0 0 1 .9-6.6q.8-1.5 2.2-2.8 1.3-1.2 2.8-1.8c1.5-.6 2.1-.6 3.2-.6q2.4 0 4.2 1.3c1.8 1.3 2 2.2 2.6 3.8l-8.5 5.4-1.5-3 4.6-3-.8-.4-.9-.1a4 4 0 0 0-2.7 1.1q-1.2 1.2-1.4 2.8a4 4 0 0 0 .6 2.9q1 1.2 2.3 1.2c1.3 0 1.8-.3 2.7-.9s1.7-1.4 2.4-2.5zM28.1 3.3q-.2 1.2-1.4 1.3h-2.1q-1.1-.1-1.1-1.3l.3-2.1q.2-1 1.4-1.2h2.1q1.1.1 1.1 1.3zm-6-3.3-.2 1-3 21.1-.1 1h-4.9l1.3-9.6H6.3l-1.4 9.6H0l.1-1 3-21L3.3 0h4.9L6.8 9.4h9L17.1 0zm.9 6.3h4.7l-2.4 16.9h-4.6zm8.8 16.9h-4.7L30.4 0h4.7zM63.9 9.9h4.3l.5-3.6h-4.3l.9-6.3h-3.6s-.3 0-.7.4l-.5.7-.7 5.2H47.2q-2.7 0-4 .9a6 6 0 0 0-2.4 4q-.2 1.3.2 2.5c.4 1.2.7 1.4 1.2 1.8s1 .6 1.5.7l2.5.2H49l2 .2q.8.4.6 1.4-.2 1.2-1.4 1.4H38.8L41.5 0h-3.6s-.3-.1-.8.4l-.5.7-3 21s-.1.4.2.7.7.3.7.3H49q2.5 0 3.7-.4c1.2-.4 1.5-.8 2.1-1.6q1.2-1.5 1.5-3.4.3-2.4-1.2-3.7-1.3-1.2-4-1.1h-2.8q-1.9 0-2.2-.3-.7-.5-.6-1.4.1-1.1 1-1.3l1.8-.1h10.9l-1 6.9q-.5 3.4.6 4.9c1.1 1.5 2.1 1.5 4.1 1.5h3.4l.5-3.6H65q-1.5 0-2-.8-.3-.6 0-2.7zm37.9-2.5-2.1 14.7-.2 1.1h-4.7l1.9-13.3h-4q-1.2 0-1.9.6-.8.8-.8 1.8l-1.5 10.9h-4.7l1.5-10.4q.5-3.6 2.5-5.1.9-.8 2.1-1.1 1.1-.3 3.1-.3h7.9s.3 0 .7.4q.3.6.2.7M83.5 18.6q-.3 2.3-1.5 3.4t-3.2 1.1H71q-2.1 0-2.9-1.1-.9-1.2-.6-3.4l1.1-7.7q.3-2.3 1.5-3.5c1.2-1.2 1.9-1.1 3.3-1.1h7.8q2.1 0 2.9 1.1.8 1 .5 3.5zm-11.4.6h6.7l1.3-9h-6.7z"/><path fill="#333" d="m113.8 36.8 1.2-.1q.1.6.4.9t.9.3l.9-.2.3-.6-.1-.4-.4-.3-1-.3-1.4-.6q-.6-.4-.6-1.2l.3-.9q.3-.5.7-.6l1.2-.2q1.2 0 1.7.5.7.6.6 1.3h-1.2l-.3-.7-.8-.2-.8.2-.2.4.2.4 1.1.4 1.3.4q.4.2.7.6t.2 1q0 .5-.3 1-.4.6-.8.7l-1.3.2q-1.1 0-1.8-.5t-.7-1.5M.5 38.9v-6h1.2l2.5 4v-4h1.1v6H4.1L1.7 35v3.9zm16.2 0v-6h4.4v1h-3.2v1.3h3v1.1h-3v1.6h3.3v1zm16.9 0v-5h-1.7v-1h4.7v1h-1.7v5zm14.7 0-1.4-6h1.2L49 37l1.1-4.1h1.5l1 4.2.9-4.2h1.2l-1.4 6H52l-1.2-4.5-1.2 4.5zm16.8-3.1q0-.9.3-1.6.1-.5.6-.8l.8-.5q.6-.3 1.3-.2 1.4 0 2.1.8t.8 2.3c0 1.5-.3 1.7-.8 2.3s-1.2.8-2.1.8-1.6-.3-2.1-.8a3 3 0 0 1-.9-2.3m1.3 0q0 1 .5 1.6t1.2.5q.8-.2 1.2-.5.5-.6.5-1.6c0-1-.2-1.2-.5-1.5s-.7-.5-1.2-.5-.9.2-1.2.5q-.6.4-.5 1.5M82 38.9v-6h2.6l1.4.2q.4.1.7.6.4.6.3.9 0 .7-.4 1.1a2 2 0 0 1-1.2.6l.7.5.7 1 .7 1.2H86l-1-1.4-.6-.9-.4-.3-.6-.1h-.2v2.5zm1.2-3.4h.9l1.1-.1.3-.2.1-.5-.2-.5-.4-.2h-1.8zM98.1 39v-6h1.2v2.7l2.4-2.7h1.7l-2.3 2.3 2.4 3.7h-1.6l-1.6-2.8-1 1V39z"/></svg>