<?xml version="1.0" encoding="UTF-8"?>
<!-- Generator: Adobe Illustrator 18.1.1, SVG Export Plug-In . SVG Version: 6.00 Build 0)  -->
<!DOCTYPE svg PUBLIC "-//W3C//DTD SVG 1.1//EN" "http://www.w3.org/Graphics/SVG/1.1/DTD/svg11.dtd">
<svg version="1.1" id="Layer_1" xmlns="http://www.w3.org/2000/svg" xmlns:xlink="http://www.w3.org/1999/xlink" x="0px" y="0px" viewBox="0 0 118.7 38.9" enable-background="new 0 0 118.7 38.9" xml:space="preserve">
<g>
	<path fill="#0A417D" d="M118,16.8c-1.1,2-2.5,3.6-4.2,4.7c-1.7,1.1-3.4,1.7-5.3,1.7c-1.1,0-2-0.2-3-0.6c-0.9-0.4-1.7-1-2.3-1.8   c-0.7-0.8-1.1-1.7-1.4-2.8c-0.3-1-0.3-2.1-0.2-3.3c0.2-1.1,0.5-2.2,1.1-3.3c0.5-1,1.3-1.9,2.2-2.8c0.9-0.8,1.8-1.4,2.8-1.8   c1-0.4,2.1-0.6,3.2-0.6c1.6,0,3,0.4,4.2,1.3c1.2,0.9,2,2.2,2.6,3.8l-8.5,5.4l-1.5-3l4.6-3c-0.2-0.2-0.5-0.3-0.8-0.4   c-0.3-0.1-0.6-0.1-0.9-0.1c-1,0-1.9,0.4-2.7,1.1c-0.8,0.8-1.3,1.7-1.4,2.8c-0.2,1.1,0.1,2.1,0.6,2.9c0.6,0.8,1.4,1.2,2.3,1.2   c0.9,0,1.8-0.3,2.7-0.9c0.9-0.6,1.7-1.4,2.4-2.5L118,16.8"/>
	<path fill="#0A417D" d="M28.1,3.3C28,4,27.4,4.6,26.7,4.6h-2.1c-0.7,0-1.2-0.6-1.1-1.3l0.3-2.1C23.8,0.6,24.5,0,25.2,0h2.1   c0.7,0,1.2,0.6,1.1,1.3L28.1,3.3"/>
	<polyline fill="#0A417D" points="22.1,0 21.9,1 18.9,22.1 18.8,23.1 13.9,23.1 15.2,13.5 6.3,13.5 4.9,23.1 0,23.1 0.1,22.1    3.1,1.1 3.3,0 8.2,0 6.8,9.4 15.8,9.4 17.1,0 22.1,0  "/>
	<polyline fill="#0A417D" points="23,6.3 27.7,6.3 25.3,23.2 20.7,23.2 23,6.3  "/>
	<polyline fill="#0A417D" points="31.8,23.2 27.1,23.2 30.4,0 35.1,0 31.8,23.2  "/>
	<path fill="#0A417D" d="M63.9,9.9h4.3l0.5-3.6h-4.3L65.3,0h-3.6c0,0-0.3,0-0.7,0.4c-0.5,0.4-0.5,0.7-0.5,0.7l-0.7,5.2H47.2   c-1.8,0-3.2,0.3-4,0.9c-1.4,1-2.2,2.3-2.4,4c-0.1,0.9-0.1,1.7,0.2,2.5c0.3,0.8,0.7,1.4,1.2,1.8c0.5,0.4,1,0.6,1.5,0.7   c0.6,0.1,1.4,0.2,2.5,0.2h2.8c1.1,0,1.7,0.1,2,0.2c0.5,0.3,0.7,0.7,0.6,1.4c-0.1,0.8-0.6,1.3-1.4,1.4c-0.4,0-1.1,0-2.1,0h-9.3   L41.5,0h-3.6c0,0-0.3-0.1-0.8,0.4c-0.5,0.4-0.5,0.7-0.5,0.7l-3,21c0,0-0.1,0.4,0.2,0.7c0.3,0.3,0.7,0.3,0.7,0.3H49   c1.7,0,2.9-0.1,3.7-0.4c0.8-0.3,1.5-0.8,2.1-1.6c0.8-1,1.3-2.2,1.5-3.4c0.2-1.6-0.2-2.8-1.2-3.7c-0.9-0.8-2.2-1.1-4-1.1h-2.8   c-1.2,0-2-0.1-2.2-0.3c-0.5-0.3-0.7-0.8-0.6-1.4c0.1-0.7,0.4-1.2,1-1.3c0.3-0.1,0.9-0.1,1.8-0.1h10.9l-1,6.9   c-0.3,2.3-0.1,3.9,0.6,4.9c0.7,1,2.1,1.5,4.1,1.5h3.4l0.5-3.6H65c-1,0-1.7-0.3-2-0.8c-0.2-0.4-0.2-1.3,0-2.7L63.9,9.9"/>
	<path fill="#0A417D" d="M101.8,7.4l-2.1,14.7l-0.2,1.1h-4.7l1.9-13.3h-4c-0.8,0-1.5,0.2-1.9,0.6c-0.4,0.4-0.7,1-0.8,1.8l-1.5,10.9   h-4.7l1.5-10.4c0.3-2.4,1.2-4.1,2.5-5.1c0.6-0.5,1.3-0.9,2.1-1.1c0.7-0.2,1.8-0.3,3.1-0.3h7.9c0,0,0.3,0,0.7,0.4   C101.9,7,101.8,7.4,101.8,7.4"/>
	<path fill="#0A417D" d="M83.5,18.6c-0.2,1.5-0.7,2.7-1.5,3.4c-0.8,0.8-1.9,1.1-3.2,1.1H71c-1.4,0-2.4-0.4-2.9-1.1   c-0.6-0.8-0.8-1.9-0.6-3.4l1.1-7.7c0.2-1.6,0.7-2.7,1.5-3.5c0.8-0.8,1.9-1.1,3.3-1.1h7.8c1.4,0,2.4,0.4,2.9,1.1   c0.6,0.7,0.7,1.9,0.5,3.5L83.5,18.6 M72.1,19.2h6.7l1.3-9h-6.7L72.1,19.2z"/>
</g>
<g>
	<path fill="#333333" d="M113.8,36.8l1.2-0.1c0.1,0.4,0.2,0.7,0.4,0.9c0.2,0.2,0.5,0.3,0.9,0.3c0.4,0,0.7-0.1,0.9-0.2   c0.2-0.2,0.3-0.4,0.3-0.6c0-0.1,0-0.3-0.1-0.4c-0.1-0.1-0.2-0.2-0.4-0.3c-0.1,0-0.5-0.1-1-0.3c-0.6-0.2-1.1-0.4-1.4-0.6   c-0.4-0.3-0.6-0.7-0.6-1.2c0-0.3,0.1-0.6,0.3-0.9c0.2-0.3,0.4-0.5,0.7-0.6c0.3-0.1,0.7-0.2,1.2-0.2c0.8,0,1.3,0.2,1.7,0.5   c0.4,0.3,0.6,0.8,0.6,1.3l-1.2,0c-0.1-0.3-0.2-0.5-0.3-0.7c-0.2-0.1-0.4-0.2-0.8-0.2c-0.4,0-0.6,0.1-0.8,0.2   c-0.1,0.1-0.2,0.2-0.2,0.4c0,0.1,0.1,0.3,0.2,0.4c0.2,0.1,0.5,0.3,1.1,0.4c0.6,0.1,1,0.3,1.3,0.4c0.3,0.1,0.5,0.4,0.7,0.6   c0.2,0.3,0.2,0.6,0.2,1c0,0.3-0.1,0.7-0.3,1c-0.2,0.3-0.5,0.5-0.8,0.7c-0.4,0.1-0.8,0.2-1.3,0.2c-0.8,0-1.3-0.2-1.8-0.5   C114.1,38,113.9,37.5,113.8,36.8"/>
	<polyline fill="#333333" points="0.5,38.9 0.5,32.9 1.7,32.9 4.2,36.9 4.2,32.9 5.3,32.9 5.3,38.9 4.1,38.9 1.7,35 1.7,38.9    0.5,38.9  "/>
	<polyline fill="#333333" points="16.7,38.9 16.7,32.9 21.1,32.9 21.1,33.9 17.9,33.9 17.9,35.2 20.9,35.2 20.9,36.3 17.9,36.3    17.9,37.9 21.2,37.9 21.2,38.9 16.7,38.9  "/>
	<polyline fill="#333333" points="33.6,38.9 33.6,33.9 31.9,33.9 31.9,32.9 36.6,32.9 36.6,33.9 34.9,33.9 34.9,38.9 33.6,38.9  "/>
	<polyline fill="#333333" points="48.3,38.9 46.9,32.9 48.1,32.9 49,37 50.1,32.9 51.6,32.9 52.6,37.1 53.5,32.9 54.7,32.9    53.3,38.9 52,38.9 50.8,34.4 49.6,38.9 48.3,38.9  "/>
	<path fill="#333333" d="M65.1,35.8c0-0.6,0.1-1.1,0.3-1.6c0.1-0.3,0.3-0.6,0.6-0.8c0.2-0.2,0.5-0.4,0.8-0.5   c0.4-0.2,0.8-0.2,1.3-0.2c0.9,0,1.6,0.3,2.1,0.8c0.5,0.6,0.8,1.3,0.8,2.3c0,1-0.3,1.7-0.8,2.3c-0.5,0.6-1.2,0.8-2.1,0.8   c-0.9,0-1.6-0.3-2.1-0.8C65.4,37.5,65.1,36.8,65.1,35.8 M66.4,35.8c0,0.7,0.2,1.2,0.5,1.6c0.3,0.4,0.7,0.5,1.2,0.5   c0.5,0,0.9-0.2,1.2-0.5c0.3-0.4,0.5-0.9,0.5-1.6c0-0.7-0.2-1.2-0.5-1.5c-0.3-0.3-0.7-0.5-1.2-0.5c-0.5,0-0.9,0.2-1.2,0.5   C66.5,34.6,66.4,35.1,66.4,35.8z"/>
	<path fill="#333333" d="M82,38.9v-6h2.6c0.6,0,1.1,0.1,1.4,0.2c0.3,0.1,0.5,0.3,0.7,0.6c0.2,0.3,0.3,0.6,0.3,0.9   c0,0.5-0.1,0.8-0.4,1.1c-0.3,0.3-0.7,0.5-1.2,0.6c0.3,0.2,0.5,0.3,0.7,0.5c0.2,0.2,0.4,0.5,0.7,1l0.7,1.2h-1.5L85,37.6   c-0.3-0.5-0.5-0.8-0.6-0.9c-0.1-0.1-0.2-0.2-0.4-0.3c-0.1,0-0.3-0.1-0.6-0.1h-0.2v2.5H82 M83.2,35.4h0.9c0.6,0,0.9,0,1.1-0.1   c0.1,0,0.3-0.1,0.3-0.2c0.1-0.1,0.1-0.3,0.1-0.5c0-0.2-0.1-0.4-0.2-0.5C85.4,34,85.2,34,85,33.9c-0.1,0-0.4,0-0.9,0h-0.9V35.4z"/>
	<polyline fill="#333333" points="98.1,38.9 98.1,32.9 99.3,32.9 99.3,35.6 101.7,32.9 103.4,32.9 101.1,35.2 103.5,38.9    101.9,38.9 100.3,36.1 99.3,37.1 99.3,38.9 98.1,38.9  "/>
</g>
<g>
</g>
<g>
</g>
<g>
</g>
<g>
</g>
<g>
</g>
<g>
</g>
<g>
</g>
<g>
</g>
<g>
</g>
<g>
</g>
<g>
</g>
<g>
</g>
<g>
</g>
<g>
</g>
<g>
</g>
</svg>