<svg xmlns="http://www.w3.org/2000/svg" viewBox="0 0 118.7 38.9"><g fill="#0A417D"><path d="M118 16.8c-1.1 2-2.5 3.6-4.2 4.7-1.7 1.1-3.4 1.7-5.3 1.7-1.1 0-2-.2-3-.6-.9-.4-1.7-1-2.3-1.8-.7-.8-1.1-1.7-1.4-2.8-.3-1-.3-2.1-.2-3.3.2-1.1.5-2.2 1.1-3.3.5-1 1.3-1.9 2.2-2.8.9-.8 1.8-1.4 2.8-1.8 1-.4 2.1-.6 3.2-.6 1.6 0 3 .4 4.2 1.3 1.2.9 2 2.2 2.6 3.8l-8.5 5.4-1.5-3 4.6-3c-.2-.2-.5-.3-.8-.4-.3-.1-.6-.1-.9-.1-1 0-1.9.4-2.7 1.1-.8.8-1.3 1.7-1.4 2.8-.2 1.1.1 2.1.6 2.9.6.8 1.4 1.2 2.3 1.2.9 0 1.8-.3 2.7-.9.9-.6 1.7-1.4 2.4-2.5l3.5 2M28.1 3.3c-.1.7-.7 1.3-1.4 1.3h-2.1c-.7 0-1.2-.6-1.1-1.3l.3-2.1c0-.6.7-1.2 1.4-1.2h2.1c.7 0 1.2.6 1.1 1.3l-.3 2M22.1 0l-.2 1-3 21.1-.1 1h-4.9l1.3-9.6H6.3l-1.4 9.6H0l.1-1 3-21L3.3 0h4.9L6.8 9.4h9L17.1 0h5M23 6.3h4.7l-2.4 16.9h-4.6L23 6.3M31.8 23.2h-4.7L30.4 0h4.7l-3.3 23.2M63.9 9.9h4.3l.5-3.6h-4.3l.9-6.3h-3.6s-.3 0-.7.4c-.5.4-.5.7-.5.7l-.7 5.2H47.2c-1.8 0-3.2.3-4 .9-1.4 1-2.2 2.3-2.4 4-.1.9-.1 1.7.2 2.5.3.8.7 1.4 1.2 1.8.5.4 1 .6 1.5.7.6.1 1.4.2 2.5.2H49c1.1 0 1.7.1 2 .2.5.3.7.7.6 1.4-.1.8-.6 1.3-1.4 1.4H38.8L41.5 0h-3.6s-.3-.1-.8.4c-.5.4-.5.7-.5.7l-3 21s-.1.4.2.7c.3.3.7.3.7.3H49c1.7 0 2.9-.1 3.7-.4.8-.3 1.5-.8 2.1-1.6.8-1 1.3-2.2 1.5-3.4.2-1.6-.2-2.8-1.2-3.7-.9-.8-2.2-1.1-4-1.1h-2.8c-1.2 0-2-.1-2.2-.3-.5-.3-.7-.8-.6-1.4.1-.7.4-1.2 1-1.3.3-.1.9-.1 1.8-.1h10.9l-1 6.9c-.3 2.3-.1 3.9.6 4.9.7 1 2.1 1.5 4.1 1.5h3.4l.5-3.6H65c-1 0-1.7-.3-2-.8-.2-.4-.2-1.3 0-2.7l.9-6.1M101.8 7.4l-2.1 14.7-.2 1.1h-4.7l1.9-13.3h-4c-.8 0-1.5.2-1.9.6-.4.4-.7 1-.8 1.8l-1.5 10.9h-4.7l1.5-10.4c.3-2.4 1.2-4.1 2.5-5.1.6-.5 1.3-.9 2.1-1.1.7-.2 1.8-.3 3.1-.3h7.9s.3 0 .7.4c.3.3.2.7.2.7M83.5 18.6c-.2 1.5-.7 2.7-1.5 3.4-.8.8-1.9 1.1-3.2 1.1H71c-1.4 0-2.4-.4-2.9-1.1-.6-.8-.8-1.9-.6-3.4l1.1-7.7c.2-1.6.7-2.7 1.5-3.5.8-.8 1.9-1.1 3.3-1.1h7.8c1.4 0 2.4.4 2.9 1.1.6.7.7 1.9.5 3.5l-1.1 7.7m-11.4.6h6.7l1.3-9h-6.7l-1.3 9z"/></g><g fill="#333"><path d="M113.8 36.8l1.2-.1c.1.4.2.7.4.9.2.2.5.3.9.3s.7-.1.9-.2c.2-.2.3-.4.3-.6 0-.1 0-.3-.1-.4-.1-.1-.2-.2-.4-.3-.1 0-.5-.1-1-.3-.6-.2-1.1-.4-1.4-.6-.4-.3-.6-.7-.6-1.2 0-.3.1-.6.3-.9.2-.3.4-.5.7-.6.3-.1.7-.2 1.2-.2.8 0 1.3.2 1.7.5.4.3.6.8.6 1.3h-1.2c-.1-.3-.2-.5-.3-.7-.2-.1-.4-.2-.8-.2s-.6.1-.8.2c-.1.1-.2.2-.2.4 0 .1.1.3.2.4.2.1.5.3 1.1.4.6.1 1 .3 1.3.4.3.1.5.4.7.6.2.3.2.6.2 1 0 .3-.1.7-.3 1-.2.3-.5.5-.8.7-.4.1-.8.2-1.3.2-.8 0-1.3-.2-1.8-.5-.4-.3-.6-.8-.7-1.5M.5 38.9v-6h1.2l2.5 4v-4h1.1v6H4.1L1.7 35v3.9H.5M16.7 38.9v-6h4.4v1h-3.2v1.3h3v1.1h-3v1.6h3.3v1h-4.5M33.6 38.9v-5h-1.7v-1h4.7v1h-1.7v5h-1.3M48.3 38.9l-1.4-6h1.2L49 37l1.1-4.1h1.5l1 4.2.9-4.2h1.2l-1.4 6H52l-1.2-4.5-1.2 4.5h-1.3M65.1 35.8c0-.6.1-1.1.3-1.6.1-.3.3-.6.6-.8.2-.2.5-.4.8-.5.4-.2.8-.2 1.3-.2.9 0 1.6.3 2.1.8.5.6.8 1.3.8 2.3 0 1-.3 1.7-.8 2.3-.5.6-1.2.8-2.1.8-.9 0-1.6-.3-2.1-.8-.6-.6-.9-1.3-.9-2.3m1.3 0c0 .7.2 1.2.5 1.6.3.4.7.5 1.2.5s.9-.2 1.2-.5c.3-.4.5-.9.5-1.6 0-.7-.2-1.2-.5-1.5-.3-.3-.7-.5-1.2-.5s-.9.2-1.2.5c-.4.3-.5.8-.5 1.5zM82 38.9v-6h2.6c.6 0 1.1.1 1.4.2.3.1.5.3.7.6.2.3.3.6.3.9 0 .5-.1.8-.4 1.1-.3.3-.7.5-1.2.6.3.2.5.3.7.5.2.2.4.5.7 1l.7 1.2H86l-1-1.4c-.3-.5-.5-.8-.6-.9-.1-.1-.2-.2-.4-.3-.1 0-.3-.1-.6-.1h-.2v2.5H82m1.2-3.4h.9c.6 0 .9 0 1.1-.1.1 0 .3-.1.3-.2.1-.1.1-.3.1-.5s-.1-.4-.2-.5c0-.1-.2-.1-.4-.2h-1.8v1.5zM98.1 38.9v-6h1.2v2.7l2.4-2.7h1.7l-2.3 2.3 2.4 3.7h-1.6l-1.6-2.8-1 1v1.8h-1.2"/></g></svg>