<svg xmlns="http://www.w3.org/2000/svg" xmlns:xlink="http://www.w3.org/1999/xlink" viewBox="0 0 1403 459.01"><path d="M391.205 318.095h4.862l17.93 45.703h-4.672l-5.577-14.224h-20.796l-5.502 14.224h-4.677l18.432-45.703zm-6.91 27.773h17.99l-8.828-23.42-9.16 23.42z"/><defs><path id="a" d="M0 0h1403v459.01H0z"/></defs><clipPath id="b"><use xlink:href="#a" overflow="visible" width="100%" height="100%"/></clipPath><path clip-path="url(#b)" d="M435.67 318.103h25.02c12.03 0 14.596 6.776 14.596 11.438 0 4.626-2.244 7.123-5.634 8.97 4.097 1.414 7.938 4.67 7.938 11.403 0 9.15-7.938 13.89-15.996 13.89h-25.92v-45.7h-.005zm14.08 17.772h7.428c2.942 0 4.79-.83 4.79-3.766 0-2.307-1.913-3.135-4.79-3.135h-7.43v6.9zm0 17.04H458c2.95 0 5.506-.828 5.506-4.356 0-2.684-1.6-4.166-4.922-4.166h-8.833v8.52h-.004z"/><defs><path id="c" d="M0 0h1403v459.01H0z"/></defs><clipPath id="d"><use xlink:href="#c" overflow="visible" width="100%" height="100%"/></clipPath><path clip-path="url(#d)" d="M484.73 318.095h37.83V329.8h-23.75v5.703h21.577v10.878H498.81v5.71h24.462V363.8h-38.54z"/><defs><path id="e" d="M0 0h1403v459.01H0z"/></defs><clipPath id="f"><use xlink:href="#e" overflow="visible" width="100%" height="100%"/></clipPath><path clip-path="url(#f)" d="M531.42 318.095h14.087v33.996h20.222V363.8h-34.31z"/><defs><path id="g" d="M0 0h1403v459.01H0z"/></defs><clipPath id="h"><use xlink:href="#g" overflow="visible" width="100%" height="100%"/></clipPath><path clip-path="url(#h)" d="M573.37 318.103h23.115c15.238 0 20.616 11.252 20.616 22.773 0 14.03-7.432 22.918-23.376 22.918H573.37v-45.69zm14.086 33.988h5.51c8.77 0 10.05-7.108 10.05-11.398 0-2.884-.904-10.878-11.067-10.878h-4.494v22.277z"/><defs><path id="i" d="M0 0h1403v459.01H0z"/></defs><clipPath id="j"><use xlink:href="#i" overflow="visible" width="100%" height="100%"/></clipPath><path clip-path="url(#j)" d="M624.806 318.095h37.826V329.8h-23.75v5.703h21.588v10.878h-21.588v5.71h24.45V363.8h-38.526z"/><defs><path id="k" d="M0 0h1403v459.01H0z"/></defs><clipPath id="l"><use xlink:href="#k" overflow="visible" width="100%" height="100%"/></clipPath><path clip-path="url(#l)" d="M671.56 318.095h14.403l13.312 24.453h.13v-24.453h13.308v45.703h-13.69L685 338.835h-.125v24.963H671.56z"/><defs><path id="m" d="M0 0h1403v459.01H0z"/></defs><clipPath id="n"><use xlink:href="#m" overflow="visible" width="100%" height="100%"/></clipPath><path clip-path="url(#n)" d="M742.066 318.103h19.342c7.682 0 14.663 2.677 14.663 11.197 0 4.79-3.208 9.21-7.937 10.232v.13c5.89.778 9.662 5.202 9.662 11.14 0 4.357-1.546 12.996-16.388 12.996h-19.342v-45.695zm4.36 20.033h14.98c6.98 0 10.307-3.465 10.307-7.742 0-5.708-3.52-8.594-10.306-8.594h-14.98v16.336zm0 21.948h14.98c6.467.06 12.04-2.104 12.04-9.4 0-5.822-4.42-8.85-12.04-8.85h-14.98v18.25z"/><defs><path id="o" d="M0 0h1403v459.01H0z"/></defs><clipPath id="p"><use xlink:href="#o" overflow="visible" width="100%" height="100%"/></clipPath><path clip-path="url(#p)" d="M785.428 318.095h20.943c7.55 0 13.88 3.643 13.88 11.906 0 5.763-3 10.496-8.887 11.648v.135c5.958.77 7.684 4.866 7.995 10.308.188 3.133.188 9.4 2.115 11.708h-4.796c-1.093-1.787-1.093-5.192-1.226-7.106-.383-6.39-.89-13.51-9.145-13.188h-16.522v20.294h-4.355v-45.703zm4.355 21.703h16.268c5.314 0 9.854-3.33 9.854-8.903 0-5.563-3.324-9.095-9.853-9.095h-16.267v17.998z"/><defs><path id="q" d="M0 0h1403v459.01H0z"/></defs><clipPath id="r"><use xlink:href="#q" overflow="visible" width="100%" height="100%"/></clipPath><path clip-path="url(#r)" d="M843.135 318.095H848l17.924 45.703h-4.67l-5.568-14.224h-20.8l-5.514 14.224h-4.674l18.437-45.703zm-6.906 27.773h17.987l-8.833-23.42-9.155 23.42z"/><defs><path id="s" d="M0 0h1403v459.01H0z"/></defs><clipPath id="t"><use xlink:href="#s" overflow="visible" width="100%" height="100%"/></clipPath><path clip-path="url(#t)" d="M871.646 318.095h4.86l26.637 38.66h.125v-38.66h4.35v45.703h-4.86l-26.627-38.67h-.134v38.67h-4.35z"/><defs><path id="u" d="M0 0h1403v459.01H0z"/></defs><clipPath id="v"><use xlink:href="#u" overflow="visible" width="100%" height="100%"/></clipPath><path clip-path="url(#v)" d="M918.4 318.103h15.815c13.763.315 20.993 7.87 20.993 22.836 0 14.984-7.23 22.543-20.993 22.854H918.4v-45.69zm4.354 41.98h9.282c13.13.062 18.814-5.508 18.814-19.14 0-13.63-5.688-19.203-18.814-19.145h-9.282v38.286z"/><defs><path id="w" d="M0 0h1403v459.01H0z"/></defs><clipPath id="x"><use xlink:href="#w" overflow="visible" width="100%" height="100%"/></clipPath><path clip-path="url(#x)" d="M372.77 119.855h23.526v41.21h43.263v-41.21h23.496v107.34H439.56V180.9h-43.264v46.296H372.77z" fill="#004489"/><defs><path id="y" d="M0 0h1403v459.01H0z"/></defs><clipPath id="z"><use xlink:href="#y" overflow="visible" width="100%" height="100%"/></clipPath><path clip-path="url(#z)" d="M483.75 119.855h23.498v107.34H483.75z" fill="#004489"/><defs><path id="A" d="M0 0h1403v459.01H0z"/></defs><clipPath id="B"><use xlink:href="#A" overflow="visible" width="100%" height="100%"/></clipPath><path clip-path="url(#B)" d="M527.926 119.855h57.62c19.133 0 31.293 13.388 31.293 29.617 0 12.636-5.11 22.11-16.94 26.91v.313c11.534 2.994 14.845 14.27 15.59 25.09.452 6.76.287 19.393 4.478 25.412h-23.516c-2.828-6.764-2.53-17.128-3.698-25.734-1.66-11.252-6.01-16.227-17.837-16.227h-23.505v41.96H527.93v-107.34h-.004zm23.482 48.565h25.75c10.47 0 16.168-4.52 16.168-15.34 0-10.384-5.7-14.88-16.17-14.88H551.41v30.22z" fill="#004489"/><g><defs><path id="C" d="M0 0h1403v459.01H0z"/></defs><clipPath id="D"><use xlink:href="#C" overflow="visible" width="100%" height="100%"/></clipPath><path clip-path="url(#D)" d="M652.017 191.582c0 14.244 11.06 19.828 23.68 19.828 8.23 0 20.804-2.396 20.804-13.38 0-11.573-16.007-13.535-31.77-17.723-15.838-4.227-31.876-10.378-31.876-30.53 0-21.942 20.658-32.464 39.983-32.464 22.295 0 42.804 9.767 42.804 34.57h-22.728c-.77-12.92-9.893-16.228-21.132-16.228-7.51 0-16.162 3.143-16.162 12.172 0 8.276 5.08 9.337 31.895 16.23 7.79 1.947 31.723 6.916 31.723 31.267 0 19.706-15.412 34.412-44.457 34.412-23.66 0-45.833-11.708-45.52-38.15h22.76l-.003-.004z" fill="#004489"/></g><g><defs><path id="E" d="M0 0h1403v459.01H0z"/></defs><clipPath id="F"><use xlink:href="#E" overflow="visible" width="100%" height="100%"/></clipPath><path clip-path="url(#F)" d="M804.45 155.952c-1.515-10.692-11.703-18.816-23.36-18.816-21.13 0-29.07 18.055-29.07 36.842 0 17.886 7.94 35.918 29.07 35.918 14.354 0 22.436-9.896 24.22-24.034h22.777c-2.384 26.752-20.805 43.873-46.997 43.873-33.13 0-52.554-24.794-52.554-55.753 0-31.878 19.423-56.673 52.554-56.673 23.485 0 43.262 13.814 46.104 38.644l-22.743-.002z" fill="#004489"/></g><g><defs><path id="G" d="M0 0h1403v459.01H0z"/></defs><clipPath id="H"><use xlink:href="#G" overflow="visible" width="100%" height="100%"/></clipPath><path clip-path="url(#H)" d="M844.105 119.855h23.498v41.21h43.274v-41.21H934.4v107.34h-23.523V180.9h-43.274v46.296h-23.498z" fill="#004489"/></g><g><defs><path id="I" d="M0 0h1403v459.01H0z"/></defs><clipPath id="J"><use xlink:href="#I" overflow="visible" width="100%" height="100%"/></clipPath><path clip-path="url(#J)" d="M188.764 82.082S177.06 93.85 176.09 94.806h-9.916c.73-3 4.146-16.73 4.146-16.73s-15.582 15.76-16.5 16.73h-10.41c.74-3 4.212-16.673 4.212-16.673l-22.635 22.746v4.275c-3.072 0-32.18.08-32.18.08s21.595 12.21 23.202 13.113v129.397c-1.405.836-13.783 8.242-13.783 8.242h35.156l.233-57.71c0-19.822 12.54-33.002 31.996-33.553 11.318-.358 19.11 4.854 23.667 9.3 5.76 5.604 9.497 13.1 9.497 19.08v54.1c-1.353.873-13.467 8.784-13.467 8.784h34.858v-60.385c0-30.866-24.51-47.53-47.583-47.53-16.297 0-29.495 7.337-39.342 21.69v-54.42c.862-.898 10.122-10.436 10.122-10.436h-9.604v-1.376h71.814l6.59-25.993s-15.872 15.997-16.81 16.94h-10.416c.782-3.032 4.364-16.948 4.364-16.948l-4.538 4.552z" fill="#004489"/></g><g><defs><path id="K" d="M0 0h1403v459.01H0z"/></defs><clipPath id="L"><use xlink:href="#K" overflow="visible" width="100%" height="100%"/></clipPath><path clip-path="url(#L)" d="M52.037 174.006c0 62.86 50.933 114.038 113.573 114.038 62.625 0 113.54-51.178 113.54-114.038 0-62.868-50.918-114.02-113.54-114.02-62.64.005-113.573 51.152-113.573 114.02m8.012 0c0-58.44 47.37-105.97 105.56-105.97 58.183 0 105.53 47.534 105.53 105.97s-47.348 105.958-105.53 105.958c-58.193.004-105.56-47.515-105.56-105.958" fill="#004489"/></g><g><defs><path id="M" d="M0 0h1403v459.01H0z"/></defs><clipPath id="N"><use xlink:href="#M" overflow="visible" width="100%" height="100%"/></clipPath><path clip-path="url(#N)" d="M955.063 119.855h33.077l24.987 73.817h.293l23.676-73.817h33.09v107.34h-22.008v-76.062h-.298l-26.196 76.063h-18.144l-26.197-75.317h-.305v75.316h-21.975z" fill="#004489"/></g><g><defs><path id="O" d="M0 0h1403v459.01H0z"/></defs><clipPath id="P"><use xlink:href="#O" overflow="visible" width="100%" height="100%"/></clipPath><path clip-path="url(#P)" d="M1120.07 119.855h24.106l39.945 107.337h-24.394l-8.07-23.895h-39.975l-8.388 23.895h-23.812l40.59-107.337zm-2.274 65.852h27.71l-13.48-39.373h-.297l-13.934 39.373z" fill="#004489"/></g><g><defs><path id="Q" d="M0 0h1403v459.01H0z"/></defs><clipPath id="R"><use xlink:href="#Q" overflow="visible" width="100%" height="100%"/></clipPath><path clip-path="url(#R)" d="M1193.397 119.855h23.376l44.616 72.008h.303v-72.008h21.998v107.34h-23.48l-44.506-71.855h-.3v71.856h-22.007z" fill="#004489"/></g><g><defs><path id="S" d="M0 0h1403v459.01H0z"/></defs><clipPath id="T"><use xlink:href="#S" overflow="visible" width="100%" height="100%"/></clipPath><path clip-path="url(#T)" d="M1304.35 119.855h23.353l44.615 72.008h.287v-72.008h22.032v107.34h-23.535l-44.445-71.855h-.304v71.856h-22.003z" fill="#004489"/></g><g><defs><path id="U" d="M52.037 59.998h1342.596v303.8H52.037z"/></defs><clipPath id="V"><use xlink:href="#U" overflow="visible" width="100%" height="100%"/></clipPath><path clip-path="url(#V)" d="M373.263 272.545H1393.85" fill="none" stroke="#000" stroke-width="1.041"/></g></svg>