<svg xmlns="http://www.w3.org/2000/svg" viewBox="0 0 1403 459"><defs><path id="a" d="M0 0h1403v459H0z"/></defs><clipPath id="b"><use href="#a"/></clipPath><clipPath id="c"><use href="#a"/></clipPath><clipPath id="d"><use href="#a"/></clipPath><clipPath id="e"><use href="#a"/></clipPath><clipPath id="f"><use href="#a"/></clipPath><clipPath id="g"><use href="#a"/></clipPath><clipPath id="h"><use href="#a"/></clipPath><clipPath id="i"><use href="#a"/></clipPath><clipPath id="j"><use href="#a"/></clipPath><clipPath id="k"><use href="#a"/></clipPath><clipPath id="l"><use href="#a"/></clipPath><clipPath id="m"><use href="#a"/></clipPath><clipPath id="n"><use href="#a"/></clipPath><clipPath id="o"><use href="#a"/></clipPath><clipPath id="p"><use href="#a"/></clipPath><clipPath id="q"><use href="#a"/></clipPath><clipPath id="r"><use href="#a"/></clipPath><clipPath id="s"><use href="#a"/></clipPath><clipPath id="t"><use href="#a"/></clipPath><clipPath id="u"><use href="#a"/></clipPath><clipPath id="v"><use href="#a"/></clipPath><clipPath id="w"><use href="#a"/></clipPath><clipPath id="x"><use href="#a"/></clipPath><clipPath id="y"><path d="M52 60h1343v304H52z"/></clipPath><path d="M391 318h5l18 46h-5l-5-14h-21l-6 14h-4zm-7 28h18l-9-24z"/><path d="M436 318h25c12 0 14 7 14 12q0 6-5 9 7 1 8 11c0 9-8 14-16 14h-26zm14 18h7q5 0 5-4 0-3-5-3h-7zm0 17h8q5 0 6-4 0-5-5-5h-9z" clip-path="url(#b)"/><path d="M485 318h38v12h-24v6h21v10h-21v6h24v12h-38z" clip-path="url(#c)"/><path d="M531 318h15v34h20v12h-35z" clip-path="url(#d)"/><path d="M573 318h23c16 0 21 11 21 23q0 22-23 23h-21zm14 34h6c9 0 10-7 10-11 0-3-1-11-11-11h-5z" clip-path="url(#e)"/><path d="M625 318h38v12h-24v6h21v10h-21v6h24v12h-38z" clip-path="url(#f)"/><path d="M672 318h14l13 25v-25h14v46h-14l-14-25v25h-13z" clip-path="url(#g)"/><path d="M742 318h19q14-1 15 11 0 9-8 11 10 1 10 11c0 4-2 13-17 13h-19zm4 20h15q11 0 11-8t-11-8h-15zm0 22h15q11 1 12-9 0-9-12-9h-15z" clip-path="url(#h)"/><path d="M785 318h21q13 0 14 12 0 9-9 12 9 2 8 10l2 12h-4l-2-7c0-7 0-14-9-13h-16v20h-5zm5 22h16q9-1 10-9 0-9-10-9h-16z" clip-path="url(#i)"/><path d="M843 318h5l18 46h-5l-5-14h-21l-6 14h-4zm-7 28h18l-9-24z" clip-path="url(#j)"/><path d="M872 318h5l26 39v-39h5v46h-5l-27-39v39h-4z" clip-path="url(#k)"/><path d="M918 318h16q21 0 21 23 0 22-21 23h-16zm5 42h9q19 1 19-19t-19-19h-9z" clip-path="url(#l)"/><g fill="#004489"><path d="M373 120h23v41h44v-41h23v107h-23v-46h-44v46h-23z" clip-path="url(#m)"/><path d="M484 120h23v107h-23z" clip-path="url(#n)"/><path d="M528 120h58c19 0 31 13 31 29q1 20-17 27v1c11 3 15 14 15 25 1 7 1 19 5 25h-24l-3-26q-2-16-18-16h-24v42h-23zm23 48h26q16 1 16-15 0-15-16-15h-26z" clip-path="url(#o)"/><path d="M652 192c0 14 11 19 24 19 8 0 21-2 21-13 0-12-17-14-32-18-16-4-32-10-32-30 0-22 21-33 40-33 22 0 43 10 43 35h-23q-3-18-21-16c-8 0-16 3-16 12 0 8 5 9 32 16 7 2 31 7 31 31 0 20-15 35-44 35-24 0-46-12-46-38z" clip-path="url(#p)"/><path d="M804 156q-3-18-23-19c-21 0-29 18-29 37 0 18 8 36 29 36q22-1 24-24h23c-2 27-21 44-47 44-33 0-52-25-52-56 0-32 19-57 52-57 24 0 43 14 46 39z" clip-path="url(#q)"/><path d="M844 120h24v41h43v-41h23v107h-23v-46h-43v46h-24z" clip-path="url(#r)"/><path d="m189 82-13 13h-10l4-17-16 17h-11l5-17-23 23v4H93l23 13v130l-14 8h35l1-58q1-31 32-33c11-1 19 5 23 9q9 10 10 19v54l-14 9h35v-60c0-31-24-48-47-48q-25 0-40 22v-55l10-10h-9v-1h72l6-26-17 16h-10l4-16z" clip-path="url(#s)"/><path d="M52 174A114 114 0 1 0 166 60c-63 0-114 51-114 114m8 0a106 106 0 1 1 106 106c-59 0-106-48-106-106" clip-path="url(#t)"/><path d="M955 120h33l25 74 24-74h33v107h-22v-76l-26 76h-18l-27-75v75h-22z" clip-path="url(#u)"/><path d="M1120 120h24l40 107h-24l-8-24h-40l-9 24h-24zm-2 66h28l-14-40z" clip-path="url(#v)"/><path d="M1193 120h24l44 72h1v-72h22v107h-24l-44-72h-1v72h-22z" clip-path="url(#w)"/><path d="M1304 120h24l44 72h1v-72h22v107h-24l-44-72h-1v72h-22z" clip-path="url(#x)"/></g><path fill="none" stroke="#000" d="M373 273h1021" clip-path="url(#y)"/></svg>