<svg xmlns="http://www.w3.org/2000/svg" viewBox="0 0 1372.9 573.4"><path fill="#00b188" d="M440.5 105.6H29.3V29.4h411zM469.8 0H0v135h469.8z"/><path fill="#231f20" d="M29.4 358H0V223h29.4v53.3h52.4V223h29.4v134.9H81.8V302H29.4zm126.3-59.2h35c-.7-10-4.8-16.9-16.2-16.9-8.7 0-16.2 3.7-18.8 16.9m22.2 61.3c-29.8 0-50-18.8-50-49.7 0-30 19.8-50.7 46.1-50.7 28.8 0 43 19.2 43 48v10.7h-61.3c3.4 14.9 15 18.8 26.8 18.8a46 46 0 0 0 26.5-7.8h1.1v22.2a55 55 0 0 1-32.2 8.4m115.7-58.7-15 56.5h-25.8l-29.3-95v-1.1h28l16 56.8 15.1-56.8h23l15.2 56.8 16.2-56.8h27v1l-29.3 95H309L293.6 301m118.1 58.7c-23.3 0-32.8-9.3-32.8-31.1V223h28.5v104c0 6.8 2.6 9.1 8.2 9.1 2 0 4.8-.6 6.5-1.3h.4v23.5c-2.3 1-6.4 1.8-10.8 1.8m46.7-61.3h35c-.7-10-4.8-16.9-16.2-16.9-8.7 0-16.2 3.7-18.8 16.9m22.2 61.3c-29.8 0-50-18.8-50-49.7 0-30 19.8-50.7 46.1-50.7 28.8 0 43 19.2 43 48v10.7h-61.3c3.5 14.9 15.1 18.8 26.8 18.8 10.2 0 17.5-2.2 26.6-7.8h1.1v22.2a54 54 0 0 1-32 8.4m156-98.2H658v22.8h-21.2v39c0 8.4 3.2 12.3 11.9 12.3q3.7.2 8.6-1.3h.6V357a51 51 0 0 1-17.5 2.8c-23 0-32.2-10.6-32.2-35v-40.3h-36.5v39c0 8.5 3.3 12.4 12 12.4q3.6.2 8.6-1.3h.6V357a51 51 0 0 1-17.4 2.8c-23.1 0-32.2-10.5-32.2-35v-40.2h-14.7v-22.8h14.7v-26.3h28.5v26.3h36.5v-26.3h28.5v26.4M754 289.3c14.9 0 22-8.4 22-20.5 0-12.6-7.1-21-22-21h-18.6v41.5zm51.8-20.5c0 29.3-19.7 45.3-49.5 45.3h-21v43.8H706V223h50.3c29.8 0 49.5 16 49.5 45.8m62.6 58.9v-8.2c-4.4-2.4-10-3.2-15.8-3.2-9.3 0-14.9 3.4-14.9 11.2 0 8 5.6 11.4 14 11.4 8 0 14-4 16.6-11.2m.8 20.7a32 32 0 0 1-25.5 11.2c-18.7 0-34-11.4-34-31.7 0-18.7 15.3-31.3 37.3-31.3q10.3 0 21.4 3.3v-1.7c0-10.4-5.9-14.9-21.2-14.9-9.7 0-19 2.8-27 7.4h-1v-22.9a71 71 0 0 1 33.1-7.9c29 0 44.7 13.8 44.7 38V358h-27.7v-9.5m42.1-38.4a48 48 0 0 1 50.3-50.3c10.2 0 19.7 2.1 26.8 7.3v24.4h-1a35 35 0 0 0-22-7.6c-14.2 0-25 9.7-25 26s10.8 26 25.1 26q12.6-.2 22-7.6h1.1v24.4A45 45 0 0 1 962 360c-28.5 0-50.3-19.2-50.3-50.1m123.4 4.3v43.6h-28.5V223h28.5v76.8l28.8-38h32.4v1.1l-34.6 43.6 34.5 50.3v1.1h-32.6l-28.5-43.6m125 13.4v-8.2a33 33 0 0 0-15.7-3.2c-9.3 0-15 3.4-15 11.2 0 8 5.7 11.4 14 11.4 8 0 14.2-4 16.7-11.2m1 20.7a32 32 0 0 1-25.6 11.3c-18.8 0-34-11.5-34-31.8 0-18.7 15.3-31.3 37.3-31.3q10.4 0 21.4 3.3v-1.7c0-10.4-5.9-14.9-21.2-14.9-9.7 0-19 2.8-27 7.4h-1v-22.9a71 71 0 0 1 33-7.9c28.9 0 44.6 13.8 44.6 38V358H1161v-9.5m75.6-71c5.2-10.6 12.8-16.7 23.3-16.7 3.9 0 7.8.9 9.3 1.7v27.2h-1.1a32 32 0 0 0-12.5-2.1c-8.9 0-15.8 5.2-18.1 15V358H1209v-96.1h27.7zm108.1 48v-31a21 21 0 0 0-18-9.8c-12.6 0-21 9-21 25.4s8.4 25.3 21 25.3a21 21 0 0 0 18-9.9m1 22.6q-9.1 11.9-28.6 12c-24.6 0-40.3-22.4-40.3-50s15.7-50.3 40.4-50.3q18.7.2 27.6 11V223h28.5v135h-27.6zM0 402h83.3v16.4H18.8v41.2h58.5v16H18.8v45h64.6v16.3H0zm152.2 38c21.4 0 33.3 14 33.3 37.1V537h-18v-59.4c0-12.3-6.2-21.1-19.8-21.1a25 25 0 0 0-24 17.2V537h-17.9v-95h18v14a33 33 0 0 1 28.5-15.8m81.4 2h24.4v15.4h-24.4v51.2c0 10.8 5.6 14.5 15.8 14.5a22 22 0 0 0 8-1.3h.7v15c-2.6 1-6.2 2-11.2 2-22.2 0-31-10.2-31-28.8v-52.9h-16.5V442H216v-25.2h18V442m54.4 38.2h47.3c-.6-14-7.5-24.8-22.2-24.8-13.6 0-22.4 10.2-25 24.8zm28.3 58.8c-27.8 0-46.8-18.5-46.8-48.3s17.7-50.5 43.4-50.5c26.1 0 39.7 18.8 39.7 46.6v8.2h-65.3c2 19.2 14.3 28.5 31.3 28.5 10.6 0 18.2-2.3 26.6-8.6h.7v15.8a47 47 0 0 1-29.6 8.4m75.4-82.2a25 25 0 0 1 23.6-16.2c4 0 7.8.7 9.3 1.5v17.7h-.6A29 29 0 0 0 413 458c-9.7 0-17.9 6.5-20.9 17.3V537h-18v-95H392v14.7m90.7 66c17.7 0 28-14 28-33.2 0-19-10.3-33.3-28-33.3-9.7 0-18.8 5.9-23.5 15.1v36.5a27 27 0 0 0 23.5 15zm3-82.6c28.2 0 43.4 23 43.4 49.4S513.8 539 485.5 539c-11.7 0-21.6-6-26.6-12.5v47H441V442h18v10.8a34 34 0 0 1 26.5-12.7m82.4 16.6a25 25 0 0 1 23.6-16.2c4 0 7.7.7 9.3 1.5v17.7h-.7c-2.6-1.3-6.9-2-11.2-2-9.7 0-18 6.5-21 17.3v62h-18v-95h18zm58.7-53.1a11.2 11.2 0 1 1 0 22.4c-6 0-11.4-5-11.4-11.3s5.4-11.2 11.5-11.2m-9 133.4h18v-95h-18zm81.9-55.5c13.6 4.3 28.7 9.9 28.7 28 0 19.4-16 29.3-36.5 29.3a55 55 0 0 1-32.2-8.7v-17h.9c8 7.3 19.8 10.5 31 10.5 10 0 19.2-4 19.2-12.1 0-8.4-7.6-10.4-22.5-15.3-13.4-4.3-28.3-9.3-28.3-27.2 0-18.4 15-29.2 34.3-29.2a51 51 0 0 1 29 7.8V465h-.6a43 43 0 0 0-28.1-10c-11.3 0-17.5 5-17.5 11.7 0 7.6 6.9 9.7 22.2 14.7m62.9-1.3h47.3c-.7-14-7.6-24.8-22.3-24.8-13.6 0-22.5 10.1-25.1 24.8zm28.3 58.7c-28 0-47-18.5-47-48.3S761.3 440 787 440c26.1 0 39.7 18.8 39.7 46.6v8.2h-65.2c2 19.2 14.3 28.5 31.3 28.5 10.6 0 18.2-2.4 26.6-8.6h.7v15.7a47 47 0 0 1-29.6 8.4"/></svg>