<?xml version="1.0" encoding="UTF-8" standalone="no"?>
<!-- Created with Inkscape (http://www.inkscape.org/) -->
<svg xmlns:svg="http://www.w3.org/2000/svg" xmlns="http://www.w3.org/2000/svg" version="1.0" width="802.85712" height="157.14285" id="svg3200">
  <defs id="defs3202">
    <clipPath id="clipPath325">
      <path d="M 0,924.57 L 2545.5,924.57 L 2545.5,0 L 0,0 L 0,924.57 z" id="path327"/>
    </clipPath>
    <clipPath id="clipPath319">
      <path d="M 19.587,902.504 L 2525.413,902.504 L 2525.413,20.929 L 19.587,20.929 L 19.587,902.504 z" id="path321"/>
    </clipPath>
    <clipPath id="clipPath313">
      <path d="M 643.208,246.992 L 781.783,246.992 L 781.783,219.501 L 643.208,219.501 L 643.208,246.992 z" id="path315"/>
    </clipPath>
    <clipPath id="clipPath307">
      <path d="M 780.141,244.346 L 652.705,244.346 L 652.705,222.209 L 780.141,222.209 L 780.141,244.346 z" id="path309"/>
    </clipPath>
  </defs>
  <g transform="translate(364.85715,-400.93362)" id="layer1">
    <path d="M -191.28601,449.48358 L -172.13065,449.48358 L -172.13065,467.91398 L -159.94372,467.91398 L -159.94372,449.48358 L -140.78836,449.48358 L -140.78836,504.19353 L -159.94372,504.19353 L -159.94372,485.18192 L -172.13065,485.18192 L -172.13065,504.19353 L -191.28601,504.19353 L -191.28601,449.48358" id="path329" style="fill:#155195;fill-opacity:1;fill-rule:nonzero;stroke:none"/>
    <path d="M -83.091053,449.56483 L -83.091053,481.91957 C -83.091053,497.88133 -93.103086,505.13724 -108.41487,505.13724 C -123.72666,505.13724 -133.73869,497.88133 -133.73869,481.91957 L -133.73869,449.56483 L -113.85837,449.56483 L -113.85837,480.03216 C -113.85837,484.31321 -113.71462,488.08803 -108.41487,488.08803 C -103.12137,488.08803 -102.97763,484.31321 -102.97763,480.03216 L -102.97763,449.56483 L -83.091053,449.56483" id="path331" style="fill:#155195;fill-opacity:1;fill-rule:nonzero;stroke:none"/>
    <path d="M -57.698487,491.13164 L -55.448592,491.13164 C -52.186244,491.13164 -47.467714,491.0629 -47.467714,486.56311 C -47.467714,481.98832 -52.542477,482.06332 -55.736078,482.06332 L -57.698487,482.06332 L -57.698487,491.13164 z M -55.879822,470.52635 C -52.979957,470.52635 -49.717609,470.23887 -49.717609,466.46404 C -49.717609,462.40173 -53.417437,462.68922 -56.317301,462.68922 L -57.698487,462.68922 L -57.698487,470.52635 L -55.879822,470.52635 z M -76.128877,449.48358 L -52.979957,449.48358 C -42.386701,449.48358 -31.574705,452.02722 -31.574705,464.65163 C -31.574705,469.4389 -33.968344,474.15743 -38.75562,475.67611 L -38.75562,476.11359 C -32.812148,478.21974 -29.037324,482.56954 -29.037324,489.10049 C -29.037324,500.34996 -39.486836,504.19353 -49.06139,504.19353 L -76.128877,504.19353 L -76.128877,449.48358" id="path333" style="fill:#155195;fill-opacity:1;fill-rule:nonzero;stroke:none"/>
    <path d="M -23.437585,449.48358 L 13.348199,449.48358 L 13.348199,464.42664 L -3.4135189,464.42664 L -3.4135189,469.65764 L 11.898267,469.65764 L 11.898267,483.87573 L -3.4135189,483.87573 L -3.4135189,489.25048 L 13.929422,489.25048 L 13.929422,504.19353 L -23.437585,504.19353 L -23.437585,449.48358" id="path335" style="fill:#155195;fill-opacity:1;fill-rule:nonzero;stroke:none"/>
    <path d="M 40.55318,473.71995 L 41.934366,473.71995 C 45.196714,473.71995 48.465311,473.21373 48.465311,469.14517 C 48.465311,464.94536 45.49045,464.42664 42.078109,464.42664 L 40.55318,464.42664 L 40.55318,473.71995 z M 21.110337,449.48358 L 45.127967,449.48358 C 57.458642,449.48358 67.908154,454.70834 67.908154,468.4952 C 67.908154,476.76981 64.720803,480.2509 57.314899,482.71328 L 57.314899,483.15076 C 58.333601,483.95073 59.564794,484.81944 60.652243,486.41936 L 72.551688,504.19353 L 49.627757,504.19353 L 40.915663,486.6381 L 40.55318,486.6381 L 40.55318,504.19353 L 21.110337,504.19353 L 21.110337,449.48358" id="path337" style="fill:#155195;fill-opacity:1;fill-rule:nonzero;stroke:none"/>
    <path d="M 112.77481,484.65694 L 113.79351,485.45691 C 117.3496,488.21303 121.63065,490.46292 126.19294,490.46292 C 128.16159,490.46292 131.2802,489.66921 131.2802,487.20058 C 131.2802,484.73194 128.66157,484.5132 126.84916,484.15072 L 122.86809,483.42575 C 115.0997,482.04457 108.56876,477.47603 108.56876,468.91393 C 108.56876,455.92703 120.39321,448.67112 132.29265,448.67112 C 138.53611,448.67112 144.26709,450.19605 149.63559,453.4584 L 144.26709,467.464 C 140.85475,465.14535 137.01118,463.32669 132.73638,463.32669 C 130.98646,463.32669 128.44908,463.98291 128.44908,466.2328 C 128.44908,468.25771 130.91772,468.55145 132.44264,468.91393 L 136.93618,469.93263 C 145.35454,471.82004 151.45426,476.31358 151.45426,485.60065 C 151.45426,498.66254 139.54856,505.12474 127.72411,505.12474 C 120.83069,505.12474 112.84981,503.23108 106.68135,500.11247 L 112.77481,484.65694" id="path339" style="fill:#155195;fill-opacity:1;fill-rule:nonzero;stroke:none"/>
    <path d="M 207.95162,449.53983 L 207.95162,481.90082 C 207.95162,497.86258 197.93334,505.12474 182.6278,505.12474 C 167.31602,505.12474 157.30398,497.86258 157.30398,481.90082 L 157.30398,449.53983 L 177.18431,449.53983 L 177.18431,480.01341 C 177.18431,484.29446 177.32805,488.06929 182.6278,488.06929 C 187.92131,488.06929 188.0713,484.29446 188.0713,480.01341 L 188.0713,449.53983 L 207.95162,449.53983" id="path341" style="fill:#155195;fill-opacity:1;fill-rule:nonzero;stroke:none"/>
    <path d="M 215.21378,449.53983 L 234.36914,449.53983 L 234.36914,467.97647 L 246.54982,467.97647 L 246.54982,449.53983 L 265.71143,449.53983 L 265.71143,504.25603 L 246.54982,504.25603 L 246.54982,485.23817 L 234.36914,485.23817 L 234.36914,504.25603 L 215.21378,504.25603 L 215.21378,449.53983" id="path343" style="fill:#155195;fill-opacity:1;fill-rule:nonzero;stroke:none"/>
    <path d="M 273.61731,449.53983 L 292.71017,449.53983 L 310.55934,479.86967 L 311.14056,479.86967 C 310.33435,475.30113 309.46564,470.5826 309.46564,465.93907 L 309.46564,449.53983 L 328.47725,449.53983 L 328.47725,504.25603 L 309.46564,504.25603 L 291.9852,475.51362 L 291.40398,475.51362 C 292.05395,479.28844 292.62892,482.84453 292.62892,486.46936 L 292.62892,504.25603 L 273.61731,504.25603 L 273.61731,449.53983" id="path345" style="fill:#155195;fill-opacity:1;fill-rule:nonzero;stroke:none"/>
    <path d="M 336.39563,449.53983 L 373.18767,449.53983 L 373.18767,464.48913 L 356.42595,464.48913 L 356.42595,469.71389 L 371.73773,469.71389 L 371.73773,483.93198 L 356.42595,483.93198 L 356.42595,489.30673 L 373.77514,489.30673 L 373.77514,504.25603 L 336.39563,504.25603 L 336.39563,449.53983" id="path347" style="fill:#155195;fill-opacity:1;fill-rule:nonzero;stroke:none"/>
    <path d="M 399.65518,473.78245 L 401.03012,473.78245 C 404.30496,473.78245 407.56106,473.26998 407.56106,469.20142 C 407.56106,464.99536 404.5862,464.48913 401.18011,464.48913 L 399.65518,464.48913 L 399.65518,473.78245 z M 380.21234,449.53983 L 404.22372,449.53983 C 416.56064,449.53983 427.01016,454.76459 427.01016,468.55145 C 427.01016,476.82606 423.81655,480.30715 416.41065,482.77578 L 416.41065,483.20701 C 417.4356,484.00697 418.66054,484.87568 419.74799,486.46936 L 431.64744,504.25603 L 408.72351,504.25603 L 400.01766,486.69435 L 399.65518,486.69435 L 399.65518,504.25603 L 380.21234,504.25603 L 380.21234,449.53983" id="path349" style="fill:#155195;fill-opacity:1;fill-rule:nonzero;stroke:none"/>
    <path d="M 84.451133,462.95796 L 93.09448,462.95796 L 93.09448,473.38247 L 103.51899,473.38247 L 103.51899,482.02582 L 93.09448,482.02582 L 93.09448,492.51283 L 84.451133,492.51283 L 84.451133,482.02582 L 74.01412,482.02582 L 74.01412,473.38247 L 84.451133,473.38247 L 84.451133,462.95796" id="path351" style="fill:#155195;fill-opacity:1;fill-rule:nonzero;stroke:none"/>
    <path d="M -312.93658,441.85269 L -292.75627,441.85269 L -292.75627,466.88277 L -277.08825,466.88277 L -277.08825,441.85269 L -256.89545,441.85269 L -256.89545,512.13691 L -277.08825,512.13691 L -277.08825,487.10683 L -292.75627,487.10683 L -292.75627,512.13691 L -312.93658,512.13691 L -312.93658,441.85269" id="path353" style="fill:#155195;fill-opacity:1;fill-rule:nonzero;stroke:none"/>
    <path d="M -215.84736,458.30817 L -244.996,407.84803 L -324.87353,407.84803 L -364.79041,476.9948 L -358.37196,488.09428 L -320.32374,488.09428 L -320.31124,465.80782 L -333.0044,465.80782 L -312.13037,429.85325 L -257.73291,429.85325 L -241.28367,458.30817 L -215.84736,458.30817" id="path355" style="fill:#155195;fill-opacity:1;fill-rule:nonzero;stroke:none"/>
    <path d="M -212.20378,465.80782 L -205.04161,476.9948 L -244.971,546.19782 L -324.84228,546.19782 L -354.07841,495.55019 L -328.68585,495.55644 L -312.15537,524.05511 L -257.70791,524.05511 L -236.74639,488.09428 L -249.43329,488.09428 L -249.43329,465.80782 L -212.20378,465.80782" id="path357" style="fill:#155195;fill-opacity:1;fill-rule:nonzero;stroke:none"/>
  </g>
</svg>