<svg xmlns="http://www.w3.org/2000/svg" viewBox="0 0 282.88 67.049941"><path fill="#0fa2d3" d="M0 0v66.88c3.198948-.0501 6.400103.008 9.599519-.00098 1.290769-.004 3.21449.24435 4.269427-.67817C15.497281 64.7769 14.72 60.49205 14.72 58.56V37.12h14.720001l.000044 19.84.442246 8.5326 3.08936 1.34488 7.977139.0237 3.124839-1.24508.406367-5.77607.000005-13.12v-46.72h-14.72l-.32 20.16-.465752 8.29267-3.062114 1.24258-7.973287-.0171-2.812476-1.4381L14.72 19.52001v-19.52H0m59.200002 0v48.64l.000224 12.47991c.0012 1.43722-.350791 3.73152.678926 4.90904 1.38667 1.5857 5.443799.85105 7.32085.85105h37.760003c2.71522 0 6.16205.53659 8.74246-.44901 3.45163-1.31835 6.30808-5.32152 8.85754-7.87099 2.23936-2.23935 4.48681-4.47095 6.71644-6.72 1.32585-1.33739 2.87659-2.71478 3.63251-4.48.71758-1.67567.53021-3.65923.53096-5.44l.0001-8.96v-32.96h-15.04001v34.88l-.00001 10.24c-.00018 1.86385.23386 3.97536-.40635 5.76-1.06445 2.96719-5.1884 7.12192-8.2336 8.01608-1.90472.55929-4.11574.30387-6.08004.30392V.00002h-14.72v59.2h-14.72001v-59.2H59.200002m82.240013 0v28.48h141.44v-28.48z"/><path fill="#4a4a4a" d="M156.305605 57.361144v5.44l-6.68998-.41277-6.43002-2.78724c1.1806 5.85891 5.87525 6.90625 11.2 6.68028 2.5158-.10676 5.2733-.55383 6.92418-2.6603 2.43656-3.10898 1.71582-8.32625 1.71582-12.01998l-.0001-10.23996c-.00063-1.47845.28625-3.45239-.40627-4.81611-.72229-1.42233-2.73348-1.24872-4.07553-1.26036-3.72584-.0323-8.80228-.83445-12.07842 1.30093-1.17939.76873-2.078 1.8889-2.605 3.19155-.69351 1.71429-.66545 3.60609-.67287 5.42395-.0142 3.48314-.49732 7.68602 2.40729 10.23391 2.82345 2.4767 7.23205 1.92597 10.7109 1.9261m25.28.95999.00004-9.91998c.00035-1.69566-.24702-3.70797.40632-5.31356.88248-2.16872 3.59082-3.21096 5.66723-3.82874 1.00777-.29984 2.42844-.42341 3.1366-1.29929 1.17832-1.45739-.62347-2.42349-1.89869-2.36853-2.69293.11607-5.13656 1.41091-7.3115 2.8901v-3.2c-1.65688.00025-4.81516-.55069-6.04086.85106-.97703 1.11737-.67651 3.22425-.67867 4.58917l-.00024 11.83968c.001 1.43728-.3508 3.73144.67891 4.90904 1.2257 1.40174 4.38398.85081 6.04086.85105m23.36066-22.77182c-6.26648 1.27719-5.76486 7.53492-5.76039 12.53182.002 2.44948-.15904 5.11199 1.29399 7.22996 2.49181 3.63214 8.59304 3.52356 12.46507 2.71222 6.23455-1.30637 5.76745-7.49216 5.76014-12.50218-.004-2.50307.10797-5.15913-1.43023-7.28951-2.56745-3.55582-8.42157-3.47862-12.32858-2.68231m44.47934 22.77182v-23.04h-6.72v19.52001h-6.4v-19.52c-1.65688.00024-4.81516-.5507-6.04086.85105-1.08053 1.23572-.6784 3.72102-.67904 5.22899-.002 4.32234-1.14065 10.74318 1.88377 14.29118 2.14162 2.51241 5.29644 2.65466 8.35613 2.66698 3.19992.0129 6.40006.002 9.6.002m11.84 6.40001h6.72v-6.40001c3.32584-.00004 7.36738.54028 10.16877-1.63284 3.3908-2.63035 2.95602-7.01454 2.9507-10.84715-.002-1.79907.0956-3.70467-.47064-5.43763-.45266-1.38534-1.33221-2.59962-2.47932-3.49536-3.18267-2.48521-8.30514-1.64441-12.08853-1.6251-1.32207.007-3.41715-.23256-4.26993 1.04445-1.25537 1.87991-.53105 5.75182-.53105 7.91364zm-104.96-25.92v15.04h-6.4v-15.04zm56 .32-.32 15.68h-6.4v-16zm62.08-.32v16h-6.4v-16z"/></svg>
