<svg version="1.2" baseProfile="tiny" xmlns="http://www.w3.org/2000/svg" viewBox="0 0 737 176.1"><title>hw</title><path fill="#00B0EA" d="M38.1 1.3c1 4.4.4 8.9.4 13.4.1 19.3.1 38.6 0 58 0 3.4.7 4.6 4.3 4.5 10-.2 20-.2 30 0 3.7.1 4.3-1.3 4.3-4.6 0-22.1.2-44.3-.1-66.4-.1-5 1.4-6.1 6.1-5.9 9 .4 18 .4 27 0 4.5-.2 5.9.9 5.8 5.7-.2 34.5-.1 69-.1 103.4 0 19.8-.1 39.6.1 59.4 0 3.8-1.1 4.8-4.8 4.7-9.8-.3-19.7-.3-29.5 0-3.9.1-4.6-1.3-4.6-4.8.2-22.3 0-44.6.2-67 0-4.2-1.3-5.3-5.3-5.2-9.2.3-18.3.3-27.5 0-4.4-.2-6 .9-5.9 5.7.3 22 0 44 .2 65.9 0 4.1-1 5.4-5.2 5.3-11.3-.3-22.4-.1-33.6-.1v-2c1-1.7.5-3.6.5-5.4V6.3C.4.8.4.7 5.7.8c10.9.3 21.7-.4 32.4.5z"/><path fill="#0EB4EB" d="M38.1 1.3c-10.7 0-21.3.2-32 0C1.8 1.2.9 2.7.9 6.7c.1 53 .1 106 0 159 0 1.9.8 4-1 5.7V.4h33.6c1.6 0 3.5-.9 4.6.9z"/><path fill="#00B0EA" d="M553 .1c59.5 0 119 0 178.5-.1 4.3 0 5.6 1 5.5 5.5-.3 21.5-.2 43 0 64.5 0 3.5-.9 4.5-4.4 4.5-120-.1-240-.1-359.9 0-3.2 0-4.2-.7-4.2-4.2.2-21.7.1-43.3-.1-65 0-4.2 1.1-5.3 5.2-5.3 59.8.2 119.6.2 179.4.1zM154.3 86.4c0-27.2.1-54.3-.1-81.5 0-3.8 1-4.8 4.7-4.7 9.8.3 19.7.3 29.5 0 4.2-.2 4.8 1.4 4.8 5.1-.1 47.7 0 95.3-.2 143 0 5 1.4 6.1 6.1 5.9 9.5-.4 19-.2 28.5-.1 2.9.1 3.9-.6 3.9-3.9-.1-48.1-.1-96.3-.2-144.5 0-4.2.8-5.8 5.4-5.6 9.1.4 18.3.4 27.5 0 4.7-.2 6.1.9 6.1 5.9-.2 47.5 0 95-.2 142.5 0 4.9 1.6 5.3 5.9 5.7 9.1 1 15.2-2.7 21.9-8.8 8.4-7.6 11.3-15.5 11.1-26.8-.7-37.8-.2-75.6-.4-113.5 0-4.3 1.2-5.2 5.2-5 9.8.3 19.7.2 29.5 0 2.8 0 4.1.4 4.1 3.7-.1 39-.1 78 0 117 .1 1.8-.7 3.6-2 4.8-15.2 15.1-30.4 30.3-45.6 45.5-1.4 1.4-3.3 2.2-5.3 2.1-45.3-.1-90.7-.1-136 0-3.8 0-4.3-1.4-4.3-4.7.1-27.1.1-54.6.1-82.1z"/><path fill="#4A4A4A" d="M423.8 129.4c0 9 .1 18 0 27-.1 13.4-6.2 19.5-19.7 19.6-5.8 0-11.7.6-17.5-.5-6.6-1.2-11.2-5-13.2-11.5-.5-1.5-1.9-4.2.5-4.7s5.9-2 7.5 1.5c2.4 5.2 6.5 6.6 11.8 6.5 2-.1 4 0 6 0 7.6 0 7.7 0 7.6-7.6-.1-8.3 1-6.9-7.2-7-3.8-.1-7.7.1-11.5-.2-8.6-.7-14.9-7.1-15.2-15.7-.3-8.1-.3-16.3 0-24.5.4-8.9 7.6-16 16.6-16.2 10.3-.3 20.7 0 31-.1 3.2 0 3.5 1.4 3.4 4-.2 9.7-.1 19.6-.1 29.4zM680.4 134.2c0-11.3.1-22.7-.1-34 0-3.2.7-4.4 4.2-4.3 9.7.2 19.3 0 29 .1 10 .1 17.5 7 17.9 17.1.4 8.3.4 16.7 0 25-.5 10.1-7.6 16.9-17.8 17.3-4.3.2-8.7.2-13 0-2.4-.1-3.2.8-3.2 3.2.1 3.2-.2 6.4.1 9.5.4 3.7-1.2 4.3-4.5 4.3-12.7-.1-12.7 0-12.7-12.7l.1-25.5zM649 125.9c0 8.7-.1 17.3.1 26 .1 2.9-.9 3.7-3.7 3.6-9.8-.1-19.7.1-29.5-.1-11.2-.3-17.8-7.3-17.9-18.5-.1-12.3.1-24.6-.1-37 0-3 .7-3.9 3.9-4 13.3-.2 13.3-.3 13.3 13 0 11.2.1 22.3-.1 33.5 0 3 .4 4.3 4 4.4 13 .1 13 .2 13-12.8 0-11.3.1-22.6-.1-34 0-3 .7-3.9 3.8-4 13.3-.2 13.3-.3 13.3 13v16.9zM569.1 125.7c0 4.3.2 8.7 0 13-.4 9.2-6.4 15.7-15.6 16.4-6.5.5-13 .5-19.4 0-9.5-.7-15.7-7.6-15.8-17.3-.1-8.1-.1-16.3 0-24.5.2-9.8 7.3-17.1 17-17.4 5.7-.2 11.3-.2 17 0 9.9.3 16.7 7.2 17 17.2.1 4.2 0 8.3 0 12.5h-.2zM472.8 103.7c6.4-4.6 14-7.2 21.8-7.6 2.2-.1 3.8.2 3.3 2.8-.4 2 1.9 5.3-2.5 5.7-6.8.6-13.4 2.8-19.2 6.5-2.5 1.3-4 4-3.8 6.9.2 11.1-.1 22.3.2 33.5.1 3.4-1 4.1-4.2 4.1-13 0-13 .1-13-12.8 0-14.2.1-28.3-.1-42.5 0-3.2.7-4.7 4.1-4.2 1.8.1 3.7.1 5.5 0 7.3-.1 7.3-.1 7.9 7.6z"/><path fill="#FDFDFD" d="M406.8 124.9c0 5.1-.1 10.3 0 15.4.1 2.8-.7 3.7-3.6 3.8-13.4.5-13.4.6-13.4-12.8 0-7.5.1-15-.1-22.4-.1-3.1.6-4.3 4.1-4.3 12.9-.1 12.9-.2 12.9 12.8.1 2.5.1 5 .1 7.5zM714.3 125.8c0 5.8-.1 11.6 0 17.4.1 2.6-.8 3.3-3.4 3.4-13.5.5-13.5.6-13.5-12.7 0-8.5.1-16.9-.1-25.4-.1-3.1.9-3.9 3.9-4 13-.2 13-.3 13 12.8l.1 8.5zM552.1 125.7c0 5.5-.2 11 .1 16.5.2 3.4-.7 4.6-4.3 4.6-12.7-.1-12.7.1-12.7-12.6 0-8.6.1-17.3 0-25.9 0-2.5.7-3.4 3.3-3.5 13.7-.7 13.7-.8 13.7 12.6-.1 2.6-.1 5.4-.1 8.3z"/></svg>