<svg id="Calque_1" data-name="Calque 1" xmlns="http://www.w3.org/2000/svg" viewBox="0 0 737.01 176.12"><defs><style>.cls-1{fill:#00b0ea}.cls-2{fill:#0eb4eb}.cls-3{fill:#4a4a4a}.cls-4{fill:#fdfdfd}</style></defs><title>hw</title><path class="cls-1" d="M39.14 8.94c1 4.45.39 8.94.41 13.41.08 19.32.12 38.64 0 58 0 3.41.71 4.61 4.33 4.53 10-.25 20-.25 30 0 3.69.09 4.35-1.3 4.33-4.61-.13-22.15.1-44.3-.2-66.45-.07-5 1.44-6.08 6.12-5.88 9 .39 18 .35 27 0 4.46-.17 5.86.95 5.83 5.67-.22 34.48-.12 69-.12 103.43 0 19.82-.1 39.64.09 59.45 0 3.82-1.06 4.79-4.77 4.7-9.82-.26-19.66-.29-29.48 0-3.93.12-4.62-1.26-4.6-4.84.16-22.32 0-44.64.18-67 0-4.25-1.26-5.29-5.32-5.16-9.15.3-18.32.32-27.47 0-4.44-.16-6 .9-5.91 5.68.28 22 0 44 .22 65.95 0 4.1-1 5.43-5.21 5.32C23.32 180.86 12.16 181 1 181v-2c1-1.72.49-3.59.49-5.38V14c0-5.47 0-5.57 5.27-5.46 10.81.21 21.6-.54 32.38.4z" transform="translate(-1 -7.63)"/><path class="cls-2" d="M39.14 8.94c-10.67 0-21.34.25-32 0-4.3-.11-5.23 1.39-5.22 5.42q.18 79.48.05 159c0 1.91.76 4-1 5.69V8h33.65c1.5 0 3.38-.86 4.52.94z" transform="translate(-1 -7.63)"/><path class="cls-1" d="M554 7.73q89.24 0 178.46-.1c4.34 0 5.58 1 5.53 5.46-.26 21.49-.2 43 0 64.48 0 3.47-.89 4.49-4.43 4.49q-180-.14-359.9 0c-3.21 0-4.2-.73-4.18-4.16q.23-32.49-.14-65c0-4.16 1.08-5.27 5.25-5.26q89.71.21 179.41.09zM155.26 94c0-27.16.08-54.32-.09-81.48 0-3.77 1-4.81 4.73-4.7 9.83.26 19.67.32 29.49 0 4.19-.15 4.8 1.4 4.79 5.09-.11 47.65 0 95.31-.2 143 0 5 1.4 6.13 6.11 5.94 9.49-.37 19-.2 28.49-.06 2.94.05 3.95-.64 3.95-3.89-.14-48.15-.05-96.31-.21-144.46 0-4.24.78-5.8 5.39-5.59 9.14.41 18.33.39 27.48 0 4.68-.2 6.1.87 6.08 5.86-.22 47.49 0 95-.25 142.47 0 4.86 1.65 5.29 5.86 5.74 9.13 1 15.19-2.74 21.85-8.76 8.43-7.61 11.33-15.54 11.12-26.78-.71-37.81-.19-75.64-.38-113.47 0-4.31 1.21-5.18 5.24-5 9.82.3 19.66.17 29.48 0 2.8 0 4.13.39 4.12 3.73q-.17 58.49 0 117a6.19 6.19 0 0 1-2 4.82q-22.87 22.67-45.58 45.54a6.8 6.8 0 0 1-5.31 2.1q-68-.08-136 0c-3.8 0-4.27-1.45-4.26-4.68.15-27.42.1-54.94.1-82.42z" transform="translate(-1 -7.63)"/><path class="cls-3" d="M424.8 137c0 9 .07 18 0 27-.14 13.44-6.22 19.53-19.67 19.59-5.82 0-11.68.55-17.46-.49-6.64-1.19-11.16-5-13.22-11.46-.48-1.49-1.88-4.19.48-4.7s5.9-2 7.47 1.46c2.38 5.25 6.55 6.65 11.76 6.51 2-.06 4 0 6 0 7.62 0 7.67 0 7.62-7.6-.06-8.29 1-6.89-7.22-7-3.83-.06-7.68.13-11.49-.19-8.6-.73-14.91-7.11-15.21-15.69-.29-8.15-.32-16.34 0-24.49a16.92 16.92 0 0 1 16.59-16.2c10.32-.29 20.66 0 31-.14 3.16 0 3.45 1.43 3.42 4-.13 9.76-.07 19.59-.07 29.4zM681.37 141.82c0-11.33.09-22.66-.07-34 0-3.18.74-4.37 4.16-4.28 9.66.23 19.33 0 29 .11 10 .12 17.46 7 17.89 17.08.37 8.31.39 16.66 0 25-.45 10.1-7.64 16.87-17.79 17.27-4.32.17-8.67.16-13 0-2.44-.09-3.25.82-3.15 3.18.13 3.16-.24 6.36.1 9.48.41 3.73-1.16 4.34-4.49 4.33-12.67-.08-12.67 0-12.67-12.67zM650 133.5c0 8.66-.11 17.32.07 26 .06 2.9-.91 3.66-3.7 3.62-9.82-.15-19.65.14-29.46-.13-11.16-.3-17.84-7.3-17.94-18.47-.1-12.32.08-24.64-.09-37 0-3 .73-3.94 3.87-4 13.27-.16 13.27-.27 13.27 13 0 11.15.08 22.31-.06 33.46 0 3 .43 4.34 4 4.35 13 .05 13 .2 13-12.82 0-11.32.1-22.64-.07-34-.05-3 .71-3.94 3.85-4 13.31-.16 13.31-.27 13.31 13zM570.06 133.36c0 4.32.17 8.66 0 13-.42 9.2-6.42 15.74-15.6 16.42a134.19 134.19 0 0 1-19.44 0c-9.49-.67-15.7-7.65-15.85-17.26q-.2-12.22 0-24.46c.18-9.76 7.3-17.06 17-17.4 5.65-.2 11.31-.19 17 0 9.94.33 16.71 7.24 17 17.22.12 4.15 0 8.32 0 12.48zM473.76 111.33a40.9 40.9 0 0 1 21.84-7.63c2.21-.14 3.8.21 3.29 2.8-.4 2 1.86 5.34-2.54 5.69a42.82 42.82 0 0 0-19.2 6.5 7 7 0 0 0-3.77 6.86c.21 11.15-.07 22.32.18 33.47.07 3.43-1 4.1-4.19 4.1-13 0-13 .08-13-12.81 0-14.16.08-28.31-.06-42.47 0-3.17.71-4.71 4.15-4.25a43.85 43.85 0 0 0 5.5 0c7.24.03 7.24.03 7.8 7.74z" transform="translate(-1 -7.63)"/><path class="cls-4" d="M407.78 132.5c0 5.15-.14 10.3.05 15.44.11 2.76-.67 3.71-3.56 3.82-13.43.51-13.42.6-13.42-12.82 0-7.47.13-15-.07-22.42-.09-3.12.62-4.31 4.06-4.33 12.94-.09 12.93-.22 12.93 12.84q0 3.73.01 7.47zM715.28 133.45c0 5.81-.12 11.62.05 17.43.07 2.6-.79 3.31-3.38 3.4-13.5.49-13.5.57-13.5-12.72 0-8.46.13-16.93-.06-25.39-.07-3.06.87-3.92 3.92-4 13-.2 13-.31 13 12.79zM553.06 133.3c0 5.49-.19 11 .08 16.46.16 3.37-.65 4.57-4.31 4.55-12.68-.06-12.68.09-12.68-12.61 0-8.64.08-17.29 0-25.94 0-2.54.68-3.4 3.32-3.54 13.65-.74 13.65-.81 13.65 12.6-.05 2.83-.06 5.65-.06 8.48z" transform="translate(-1 -7.63)"/></svg>