<svg xmlns="http://www.w3.org/2000/svg" viewBox="0 0 737 176.1"><path fill="#00b0ea" d="M38.1 1.3c1 4.4.4 8.9.4 13.4v58c0 3.4.7 4.6 4.3 4.5q15-.3 30 0c3.7.1 4.3-1.3 4.3-4.6q.2-33.2-.1-66.4c-.1-5 1.4-6.1 6.1-5.9q13.5.6 27 0c4.5-.2 5.9.9 5.8 5.7q-.2 51.8-.1 103.4-.1 29.7.1 59.4c0 3.8-1.1 4.8-4.8 4.7q-14.7-.5-29.5 0c-3.9.1-4.6-1.3-4.6-4.8.2-22.3 0-44.6.2-67 0-4.2-1.3-5.3-5.3-5.2q-13.7.5-27.5 0c-4.4-.2-6 .9-5.9 5.7.3 22 0 44 .2 65.9 0 4.1-1 5.4-5.2 5.3q-16.9-.3-33.6-.1v-2c1-1.7.5-3.6.5-5.4V6.3C.4.8.4.7 5.7.8c10.9.3 21.7-.4 32.4.5"/><path fill="#0eb4eb" d="M38.1 1.3q-16 .2-32 0C1.8 1.2.9 2.7.9 6.7v159c0 1.9.8 4-1 5.7V.4h33.6c1.6 0 3.5-.9 4.6.9"/><path fill="#00b0ea" d="M553 .1 731.5 0c4.3 0 5.6 1 5.5 5.5q-.4 32.3 0 64.5c0 3.5-.9 4.5-4.4 4.5H372.7c-3.2 0-4.2-.7-4.2-4.2q.3-32.5-.1-65c0-4.2 1.1-5.3 5.2-5.3q89.7.3 179.4.1M154.3 86.4q.1-40.7-.1-81.5c0-3.8 1-4.8 4.7-4.7q14.8.5 29.5 0c4.2-.2 4.8 1.4 4.8 5.1l-.2 143c0 5 1.4 6.1 6.1 5.9q14.3-.4 28.5-.1c2.9.1 3.9-.6 3.9-3.9l-.2-144.5c0-4.2.8-5.8 5.4-5.6q13.7.6 27.5 0c4.7-.2 6.1.9 6.1 5.9-.2 47.5 0 95-.2 142.5 0 4.9 1.6 5.3 5.9 5.7 9.1 1 15.2-2.7 21.9-8.8a32 32 0 0 0 11.1-26.8c-.7-37.8-.2-75.6-.4-113.5 0-4.3 1.2-5.2 5.2-5q14.8.4 29.5 0c2.8 0 4.1.4 4.1 3.7v117q0 2.8-2 4.8l-45.6 45.5a7 7 0 0 1-5.3 2.1h-136c-3.8 0-4.3-1.4-4.3-4.7z"/><path fill="#4a4a4a" d="M423.8 129.4v27c-.1 13.4-6.2 19.5-19.7 19.6-5.8 0-11.7.6-17.5-.5q-10-1.8-13.2-11.5c-.5-1.5-1.9-4.2.5-4.7s5.9-2 7.5 1.5c2.4 5.2 6.5 6.6 11.8 6.5h6c7.6 0 7.7 0 7.6-7.6-.1-8.3 1-6.9-7.2-7q-5.8 0-11.5-.2a16 16 0 0 1-15.2-15.7q-.5-12.2 0-24.5a17 17 0 0 1 16.6-16.2c10.3-.3 20.7 0 31-.1 3.2 0 3.5 1.4 3.4 4q-.2 14.6-.1 29.4m256.6 4.8q.1-17-.1-34c0-3.2.7-4.4 4.2-4.3l29 .1c10 .1 17.5 7 17.9 17.1q.6 12.5 0 25c-.5 10.1-7.6 16.9-17.8 17.3q-6.5.3-13 0-3.4-.3-3.2 3.2c.1 3.2-.2 6.4.1 9.5.4 3.7-1.2 4.3-4.5 4.3-12.7-.1-12.7 0-12.7-12.7zm-31.4-8.3q-.1 13 .1 26c.1 2.9-.9 3.7-3.7 3.6l-29.5-.1c-11.2-.3-17.8-7.3-17.9-18.5l-.1-37c0-3 .7-3.9 3.9-4 13.3-.2 13.3-.3 13.3 13q.1 16.8-.1 33.5c0 3 .4 4.3 4 4.4 13 .1 13 .2 13-12.8q.1-17-.1-34c0-3 .7-3.9 3.8-4 13.3-.2 13.3-.3 13.3 13zm-79.9-.2q.2 6.5 0 13c-.4 9.2-6.4 15.7-15.6 16.4q-9.8.8-19.4 0c-9.5-.7-15.7-7.6-15.8-17.3v-24.5c.2-9.8 7.3-17.1 17-17.4a241 241 0 0 1 17 0c9.9.3 16.7 7.2 17 17.2v12.5zm-96.3-22a41 41 0 0 1 21.8-7.6c2.2-.1 3.8.2 3.3 2.8-.4 2 1.9 5.3-2.5 5.7q-10.3 1-19.2 6.5c-2.5 1.3-4 4-3.8 6.9.2 11.1-.1 22.3.2 33.5.1 3.4-1 4.1-4.2 4.1-13 0-13 .1-13-12.8q.1-21.2-.1-42.5c0-3.2.7-4.7 4.1-4.2h5.5c7.3-.1 7.3-.1 7.9 7.6"/><path fill="#fdfdfd" d="M406.8 124.9v15.4c.1 2.8-.7 3.7-3.6 3.8-13.4.5-13.4.6-13.4-12.8q.1-11.3-.1-22.4c-.1-3.1.6-4.3 4.1-4.3 12.9-.1 12.9-.2 12.9 12.8zm307.5.9v17.4c.1 2.6-.8 3.3-3.4 3.4-13.5.5-13.5.6-13.5-12.7q.1-12.7-.1-25.4c-.1-3.1.9-3.9 3.9-4 13-.2 13-.3 13 12.8zm-162.2-.1q-.2 8.2.1 16.5c.2 3.4-.7 4.6-4.3 4.6-12.7-.1-12.7.1-12.7-12.6v-25.9c0-2.5.7-3.4 3.3-3.5 13.7-.7 13.7-.8 13.7 12.6z"/></svg>