<svg xmlns="http://www.w3.org/2000/svg" xml:space="preserve" viewBox="0 0 731.1 219.5"><g fill="#072b61"><path d="M99.5 219A113 113 0 0 1 39 193.5a137 137 0 0 1-22-25.3l-1.7-2.8L31 127.5l16-37.7 9.8-40.2C64.8 17.2 67 9.2 68.6 8.2a110 110 0 0 1 147.5 72c0 .3-9.7.7-21.6.8l-21.7.3-1.8 5c-2.5 7.1-2.4 7.5 1.7 7.5q3.7 0 3.2 1.2c-1.7 4.3-17.8 55.8-17.8 56.7 0 .7 2.9 1 7.8 1h7.8L178 139l9.2-29.5 5-15.7h26.6l.7 5.2c2 17.2-1.6 39.3-9.4 56.5-4.7 10.4-13.6 23-22.4 31.8a110 110 0 0 1-88 31.8M50 132.9l15.1-36.5 9.5-37.9c5.2-20.8 9-37.5 8.7-37S76 38.5 68 58.4l-14.6 36-9.6 37-10.2 38.5q-.5 1.3.4.5c.5-.6 7.7-17.5 16-37.5m38.3-60.5c4.3-17 7.7-31 7.6-31.2a832 832 0 0 0-12.4 30c-11 27.3-12.8 33-19.7 59.3-4.2 16-7.6 29.5-7.6 30s5.5-12.2 12.2-28.1l12-29zm25.7 44.5L125 81c0-.2-3.4-.2-7.7 0l-7.7.3-7.7 24.5-11.2 35.8-3.5 11.3 7.6-.3 7.7-.3zm37.8 30.7 2.2-6.4c.3-1-2.6-1.3-11-1.5l-11.5-.3 7.1-22.8 7.1-22.7h18.6l1.8-4.3c1-2.3 2.1-5.2 2.5-6.5l.8-2.2h-18.6a211 211 0 0 0-18.6.4l-11 35.6-11 35.6c0 .2 9 .4 20 .4h19.9zm-51.7-64c3.3-12.6 5.7-22.6 5.4-22.3a518 518 0 0 0-23.4 65.3 636 636 0 0 0-5.9 23c0 .4 4.1-9.1 9-21.2a287 287 0 0 0 15-44.8M8.7 152c-6-15.1-6.4-12.7 6.2-42.6L26 82.9l7-28.8 7-28.8 3-2.5c4-3.5 19-12.4 19.6-11.8.3.3-6.3 17.4-14.6 38L32.8 86.2l-9.5 36.5c-5.2 20-9.8 36.8-10.2 37.3-.5.4-2.4-3.2-4.4-8M.5 104.3C1.8 81.7 10.3 58.4 23 42.8l2-2.5-.9 2.5-7.6 19c-4 9.6-8.8 24-11.6 34.5l-4.9 18z"/><text xml:space="preserve" x="195.1" y="-118.8" font-family="Arial" font-size="48" font-style="italic" style="line-height:2.1;-inkscape-font-specification:&quot;Arial Italic&quot;;text-align:start" transform="translate(28.8 233.3)"><tspan x="195.1" y="-118.8" fill="#000">The Power of Reliability</tspan></text></g></svg>