<svg xmlns="http://www.w3.org/2000/svg" viewBox="0 0 416.2 106.5"><path fill="#e2904a" d="M.6 103.2c.3-1.7.7-3.8 1-4.5.2-1 12.7-1.2 57.8-1.2 31.7 0 57.5-.3 57.5-.8s-2.8-3.2-6.3-6.4a52 52 0 0 1-16.6-40c0-21.3 9.8-39.2 25.8-47l6.6-3.3h50l6.7 3.3c15.4 7.5 25.8 26.2 25.8 46 0 18.6-8.4 36.8-20.5 44.2-1.9 1.2-3.5 2.6-3.5 3 0 .6 42.8 1 107.2 1h107l-.5 2.3c-.4 1.2-.6 3.2-.6 4.5v2.2H0zm123.7-15A53 53 0 0 1 109.7 49c.1-15.2 4.8-27 15-37.8q9.6-9.7-3.5-3.1C108.2 14.6 98.9 32 98.9 50c0 18.2 9.6 35.7 23 42.3q12.2 6.1 2.4-4m20.6 6c0-.1-2.3-2.8-5.3-5.9a58 58 0 0 1-.4-76.3c2.7-3 4.7-5.9 4.4-6.2s-3 .6-6 2c-21 10.3-29.3 42.8-17.1 66.7A45 45 0 0 0 137.2 92c4.5 2.3 7.7 3.2 7.7 2.3m21.6-2.6c25.7-14.8 29.4-57.4 6.8-78-4.9-4.5-13.7-9.1-15-7.9-.2.3 1.7 2.8 4.4 5.4A61 61 0 0 1 177.9 50c0 13.4-6.3 29.6-15.1 38.7a47 47 0 0 0-4.9 5.4c0 1.2 4.1 0 8.6-2.5m14 .7c17.2-8 27.5-33.9 22-55.1a47 47 0 0 0-18.3-27.5c-4.7-3-10.3-5-10.3-3.7 0 .4 2.3 3 5 5.7a53 53 0 0 1 14.4 38.8 51 51 0 0 1-14 37c-7.3 7.7-7 8.8 1.3 4.8M159.8 84a47 47 0 0 0 11.7-23 44 44 0 0 0 0-22A46 46 0 0 0 158 14.1c-6.7-6.4-6.9-6.4-13.4 0q-7.8 7.5-11.8 19.3a58 58 0 0 0 0 33.4 50 50 0 0 0 14.3 21.6c5 3.6 5.6 3.4 12.6-4.4M3.3 88.3l7.8-44 7.3-41.8h8.8c4.8 0 8.7.4 8.7.9s-3.3 19.9-7.5 43.2l-7.5 43c0 .5-4 .9-9 .9H2.6zm29.6 1.4c0-4.2 14.5-80.2 15.6-81.9 3.4-5.3 4-5.4 34.4-5l28.3.2-4.5 3.2a43 43 0 0 0-8.3 8.7l-3.8 5.6H80.7c-7.6 0-14.7.5-15.8 1-1.8 1-3 4.5-4.4 12.2l-.6 3.8h29.3l-.6 2.2c-.4 1.3-.6 5.3-.6 9v6.7l-15.8.3-15.8.3-3 17.2-2.9 17.3h-8.8c-4.8 0-8.8-.4-8.8-.8m177.5-1.5 5.6-30.7 5.5-31.1q1.3-6-8-5.9h-5.2l-3.9-5.6c-2.1-3-5.8-7.1-8.3-9l-4.4-3.4h39.1c21.5 0 39.1.4 39.1.8 0 1-1.8 11.6-2.5 15l-.5 2.2h-11.8c-10.6 0-12 .2-13.7 2-1.3 1.5-3.2 9.7-7.1 31.8l-5.9 33-.5 3.2h-18zm58 .9c-3.4-1.5-4.5-3.3-4.5-7.4 0-4.8 12.2-70.5 13.6-73.2 3-5.9 3.8-6 34-6H339l-.5 1.7-1.7 8.5-1.2 6.8H297l-2.7 2.3c-1.9 1.6-3 4-3.9 8.4-.7 3.4-1 6.5-.7 6.8s10 .5 21.6.5l21-.2-.3 2.9-1.5 8.8-1.2 6-21.7.3-21.6.2-1 5c-2.6 11.8-2.2 12 22.4 12h19.1l-1.6 8.8-1.6 8.7-26 .2c-20 .2-26.7 0-29-1.1m74 0c-3.4-1.5-4.5-3.3-4.5-7.2S350 12.3 351.1 9a12 12 0 0 1 4.3-4.7l3-1.9h57.8l-.6 2.2-1.7 9-1.2 6.8h-43.6l-1.9 2.4c-1.3 1.7-3 8.8-5.7 24l-3.8 21.7 1.8 2 1.8 1.9h42.3l-1.6 8.7-1.6 8.8-27.5.2c-21.3.2-28.1 0-30.6-1.1"/><path fill="#108bc7" d="m3.3 88.2 7.8-44 7.3-41.7h8.8c4.8 0 8.7.4 8.7.9s-3.3 19.9-7.5 43.2l-7.5 43c0 .5-4 .9-9 .9H2.6zm29.6 1.5c0-4.2 14.5-80.2 15.6-81.9 3.4-5.3 4-5.4 34.4-5l28.3.2-4.5 3.2a43 43 0 0 0-8.3 8.7l-3.8 5.6H80.7c-7.6 0-14.7.5-15.8 1-1.8 1-3 4.5-4.4 12.2l-.6 3.8h29.3l-.6 2.2c-.4 1.3-.6 5.3-.6 9v6.7l-15.8.3-15.7.3-3 17.2-3 17.3h-8.8c-4.8 0-8.8-.4-8.8-.8m177.5-1.5 5.6-30.7 5.5-31.1q1.3-6-8-5.9h-5.2l-3.9-5.6c-2.1-3-5.8-7.1-8.3-9l-4.4-3.4h39.1c21.5 0 39.1.4 39.1.8 0 1-1.8 11.6-2.5 15l-.5 2.2h-11.8c-10.6 0-12 .2-13.7 2-1.3 1.5-3.2 9.7-7.1 31.8l-5.9 33-.5 3.2h-18zm58 .9c-3.4-1.5-4.5-3.3-4.5-7.4 0-4.8 12.2-70.5 13.6-73.2 3-5.9 3.8-6 34-6H339l-.5 1.7-1.7 8.5-1.2 6.8H297l-2.7 2.3c-1.9 1.6-3 4-3.9 8.4-.7 3.4-1 6.5-.7 6.8s10 .5 21.6.5l21-.2-.3 2.9-1.5 8.8-1.2 6-21.7.3-21.6.2-1 5c-2.6 11.8-2.2 12 22.4 12h19.1l-1.6 8.7-1.6 8.8-26 .2c-20 .2-26.7 0-29-1.1m74 0c-3.4-1.5-4.5-3.3-4.5-7.2S350 12.3 351.1 9a12 12 0 0 1 4.3-4.7l3-1.9h57.8l-.6 2.2-1.7 9-1.2 6.8h-43.6l-1.9 2.4c-1.3 1.7-3 8.8-5.7 24l-3.8 21.7 1.8 2 1.8 1.9h42.3l-1.6 8.7-1.6 8.8-27.5.2c-21.3.2-28.1 0-30.6-1.1"/></svg>