<svg xmlns="http://www.w3.org/2000/svg" xml:space="preserve" viewBox="0 0 1184.5 388"><path fill="#f89829" d="M118.2 387.8c-6.1-.7-13.4-1.8-18.6-3a121 121 0 0 1-17.8-5.2 199 199 0 0 1 6.2-24.1c.1-.2 3.2.4 6.8 1.4a123 123 0 0 0 40.9 5.2 48 48 0 0 0 32.6-14.2c4.4-4.4 5.3-5.7 7.3-9.8 4.4-8.9 4-5.3 4.3-53a887 887 0 0 0-.4-46.3 55 55 0 0 0-14.5-31.3c-5.8-6.1-11-9.4-18.6-11.6a52 52 0 0 0-41.3 7.1 45 45 0 0 0-19.4 33.4 45 45 0 0 0-.3 13 49 49 0 0 0 25.8 41.4 46 46 0 0 0 17.3 4.8c10.9 1.1 20.7-1.3 34.6-8.3l6-3.1c.2 0 .4 6.2.4 13.9v14l-3.4 1.6c-5.1 2.3-15.8 5.7-21.4 6.7A72 72 0 0 1 81 300.1 74 74 0 0 1 59.6 260a140 140 0 0 1-.2-28.3 67 67 0 0 1 22.1-43.3 86 86 0 0 1 37.5-18.5c6.5-1.4 23.8-1.3 30.8.2a67 67 0 0 1 36.2 19.6 68 68 0 0 1 20 38.4c1 5.4 1 8.4 1 47.8 0 45.4 0 46-2.8 56.9a69 69 0 0 1-20.3 36.5 61 61 0 0 1-36.4 17.7c-4.6.8-24.6 1.4-29.3.9m515-66.2a75 75 0 0 1-42-21.7 74 74 0 0 1-20.8-38c-.9-4.2-1-6.7-1.1-15.3 0-11.2.5-16 2.7-24.7a62 62 0 0 1 15.5-28.4 79 79 0 0 1 73-23.7A71 71 0 0 1 708 201c4 5.8 8.7 13.8 8.2 14.2-1.2 1.1-98.8 54.9-99.1 54.6-.5-.6-11.5-21.3-11.4-21.5l68.6-37.8 4.5-2.6-2.5-2.2a45 45 0 0 0-32.2-11.3 45 45 0 0 0-41.5 25.9 55 55 0 0 0-4 36.6 50 50 0 0 0 27 35.3 58 58 0 0 0 44.7-1.7c11.2-5.9 19.8-19.3 23.6-37 .8-3.8 1-4 2.2-3.7l13.4 1.9 12.1 1.6v1.8c0 6.2-3 16.7-7.3 25.4a76 76 0 0 1-53.5 40.2c-6.2 1.2-22.1 1.7-27.4.9m356.5-.3a77 77 0 0 1-61.8-60 105 105 0 0 1-.6-16c0-11 .1-13.1 1-18a66 66 0 0 1 22.3-39.1 82 82 0 0 1 36-18.2c4.5-1 6.6-1.1 16.1-1.1a70 70 0 0 1 35.3 7.2 83 83 0 0 1 26.3 22.9 96 96 0 0 1 9.5 15.9c-.1.4-98.1 55.2-98.8 55.2-.3 0-11.2-20.3-11.4-21.2 0-.3 16.1-9.6 36-20.5l36.4-20.1c.4-.3-2.7-3.3-5.8-5.4a51 51 0 0 0-41.5-7 46 46 0 0 0-28.8 25 42 42 0 0 0-4.6 23 51 51 0 0 0 15.4 39.6c4.6 4.5 5.6 5.2 10.3 7.5a48 48 0 0 0 27.2 4.6c19-1.7 29.3-8.4 37-23.9a83 83 0 0 0 7.2-21.7c.3-.3 25 2.8 26.5 3.4.6.2.6.6-.5 8A76 76 0 0 1 1067 289a78 78 0 0 1-53 32.2 98 98 0 0 1-24.2 0M874.6 320a32 32 0 0 1-17.7-9c-2.3-2.6-6-10-42.5-85.8-22-45.6-40.1-83.2-40.4-83.4s-.4 38.2-.4 88.1v88.6H745l.1-98.1c.1-93.9.2-98.3 1-100.9a26 26 0 0 1 13.2-15.8c3.3-1.6 4.2-1.9 8.6-2 2.8-.2 6 0 7.7.3a27 27 0 0 1 16.3 11.6c1.1 1.8 19.5 39 40.9 83 21.3 43.8 39 79.9 39.3 80.1.2.3.4-35.1.4-86V104H901l-.1 101.4-.2 101.4-1.2 2.7a18 18 0 0 1-11.3 9.5 35 35 0 0 1-13.7 1M0 211.4V104h29v214.5H0zm233 59.3c0-52 0-52 2.8-60.4q4.4-13 14.6-23.2c9.8-9.6 22.4-16 35.9-18.3a68 68 0 0 1 24.4 1 64 64 0 0 1 31.1 17 59 59 0 0 1 15.2 26.8c1.9 8.2 2 11.6 2 58.9v46.1h-27l-.1-47.1-.2-47.1-1.1-3.5a39 39 0 0 0-20.1-24c-5.4-2.4-8.5-3-15-3a32 32 0 0 0-15.5 3.5 37 37 0 0 0-16 16.5c-3.6 7.5-3.5 5.7-3.5 58v46.7H233zM401.5 245v-73.5H428v147h-26.5zm109.7 73c-18-2.4-30.2-13.6-34.8-32.4-1.1-4.3-1.1-4.6-1.3-78L475 134h26.5l.1 18.6.1 18.7h26.4l26.4.2V197l-26.4.1-26.4.2v83.5l1.4 2.5c2 3.8 5.8 7 9.8 8.3 3.1 1 4.5 1 22.5 1.3l19.1.2v25.4h-19.9c-11 0-21.4-.3-23.4-.6m630 0c-7.9-1-15.7-4.2-21-8.5a46 46 0 0 1-14.7-29.5c-.3-2.7-.5-29.3-.5-75.1v-70.9h26.5l.1 18.6.2 18.7h26.3l26.4.2v25.5l-26.4.1-26.3.2v83.5l1.1 2.3c1.9 3.7 5.8 7.1 9.9 8.5 3.3 1 4.4 1 22.6 1.3l19.1.2v25.4h-19.9c-11 0-21.4-.3-23.3-.6m-751-157.6a131 131 0 0 1-22.3-22.4 50 50 0 0 1-11-35.2c1.7-10.3 8.6-23.3 22.5-42.2A110 110 0 0 0 397 31.2a48 48 0 0 0 3-20.6c-.2-4.2-.5-8.3-.7-9.2L399-.3l4.7 3.1c28.6 19.2 51.2 42.8 61.9 64.7a67 67 0 0 1 7.8 30 53 53 0 0 1-.5 12.3 78 78 0 0 1-23.1 41.3 113 113 0 0 1-12.9 11.2 11 11 0 0 1 1.4-3.4 97 97 0 0 0 10.3-52.9 61 61 0 0 0-21-37.5 89 89 0 0 0-11.5-8.2c-.2 0-.5 1.4-.7 3.2a52 52 0 0 1-9.6 23.6L397 98.6c-10.2 12.3-13.8 18.8-14.8 26.6-1.2 9.8 2.6 21.8 10.9 34.6 2.9 4.4 3.1 4.8 2.9 4.8zm20-6.6c-4.6-1.4-9-5.7-10.5-10-1.3-3.8-.8-9.8 1-13.2q4.6-8.4 14.8-8.3c9.8.1 16 7.2 15.4 17.5-.4 6.5-4.3 12-9.8 14-2.7.9-8 .9-10.9 0"/></svg>