<svg xmlns="http://www.w3.org/2000/svg" xml:space="preserve" viewBox="0 0 998.1 248.9"><path fill="#fba600" d="M119.5 248.5a7 7 0 0 1 3.5 0q1.3.3-1.7.4-3 0-1.8-.4M98.3 246c-15.5-3.3-15.6-3.4-6.5-4.9a85 85 0 0 0 10-2c1.8-.7 2.3-.3 3.4 2.5.7 2 1.9 4.1 2.7 5 2 1.9 1.4 1.8-9.6-.6m-51.1-39c-33-8.3-55.2-56.5-44.5-96.3C5.3 101.4 12 89 13 91.8c.6 1.3 7 11.5 8.3 13a5 5 0 0 1 1 2.8q.2 1.5.9 1.6c.4 0 1.6 1.4 2.5 3.2l4.1 7.3 4.2 7 2.3 3.5c.4.2 2 2.7 3.6 5.5a437 437 0 0 0 11.9 19l4 7c1.4 2.2 3.2 5.4 4.1 7.2 1 1.8 2.1 3.3 2.6 3.3q.8.2.9 1.5 0 1.5 1 2.8c1.6 2 7.4 11 9 14 .7 1.4 1.7 2.7 2.2 2.7q.7.2.8 2c0 1 .4 2 .9 2s1.4 1.3 2 3c.8 1.6 1.8 3 2.5 3s-1.4 1-4.4 2.1c-6.2 2.4-24 3.4-30.1 1.9m-31-121.4c2-2 3.7-3.5 4-3.5s-1 1.5-3 3.5c-1.8 1.9-3.5 3.5-3.8 3.5s1-1.6 2.9-3.5M13 71.3q1.7-1.8 2.3-2 .3.2-1.3 2c-1 1-2 2-2.3 2s.3-1 1.3-2"/><path fill="#fc9700" d="M118.3 248.4c-9.6-.4-10.5-.7-12.5-5.2-1-2.2-1.6-4.2-1.4-4.3l7.2-3.7a73 73 0 0 0 13.3-9.3 28 28 0 0 1 6.2-5.1c-.3 1.4 1.2 5.4 2.1 5.4q.8.2 1.4 1.7c.3 1 2 4 3.7 6.8l3.7 6.5a17 17 0 0 0 2.5 3.5c2.5 2.6-10.1 4.5-26.2 3.7m-39-48.2c-.7-1.7-1.7-3-2.1-3s-1-1-1-2q0-1.8-.7-2c-.5 0-1.5-1.3-2.3-2.8-1.5-3-7.3-12-9-14a5 5 0 0 1-1-2.7q0-1.3-.8-1.5c-.5 0-1.6-1.5-2.6-3.3l-4-7.2-4.1-7c-1-1.7-2-3.3-2.4-3.5s-1.6-2-2.6-4a158 158 0 0 0-6.9-11.5 43 43 0 0 0-3.6-5.5c-.3-.3-1.4-1.9-2.3-3.5l-4.2-7-4.1-7.3c-1-1.8-2-3.2-2.5-3.2q-.7-.1-.8-1.6c0-.8-.5-2-1-2.7a98 98 0 0 1-7.5-11.6c-1.9-3.7 6.5-12.4 16.7-17.1 8.5-4 9-3.9 13.7 5.2.8 1.5 1.8 2.8 2.3 2.8q.7.1.8 1.4c0 .8 1.7 4 3.7 7.3 5.4 8.3 6 9.4 7.9 12.7 1 1.6 2.3 3.6 3 4.3q1.3 1.3 1.4 2.4c0 .5.8 2.2 1.9 3.7l5 7.7 3.8 6c.5.5 2.6 4 4.8 7.8 6.7 11.6 7.7 13.2 8.6 13.5q.8.4.9 1.8c0 .8.4 2 1 2.7 1.5 1.8 7.3 10.9 8.9 14 .8 1.4 1.8 2.7 2.3 2.7q.7.2.8 2c0 1 .4 2 .9 2s1.4 1.4 2.1 3 2 3.8 2.8 4.6c1.8 1.9-.5 4.6-9.3 10.9-12.4 8.7-16.6 10-18.5 5.5m-69-126.9c0-.9 8.3-15.6 11.3-20l3-4.4 1.9 3.7c1 2 2.5 4 3.3 4.2q1.4.6-4.3 4.4A96 96 0 0 0 15 69.5a23 23 0 0 1-4.7 3.8"/><path fill="#fd8700" d="M144.2 244.4c-.9-1-1.8-2.5-2.2-3.3s-2-3.7-3.7-6.4a52 52 0 0 1-3.7-6.8q-.6-1.6-1.3-1.7c-3.7 0-2.6-5 2.6-12 3-4 7.3-11 9.5-15.3 3.3-6.6 5.4-9.3 5-6.3-.1.6 5.8 9.8 7.9 12.3a5 5 0 0 1 1 2.7q.1 1.5.8 1.6c.4 0 1.7 1.7 2.8 3.7 3.3 6 4.8 8.7 5.5 9.3.3.2 1.4 2 2.4 4 1 1.9 2 3.7 2.5 4s1.4 1.9 2.3 3.6l1.6 3.1-8.2 3c-15.9 6-22.5 7.2-24.8 4.5m-37-60.5c-.9-.9-2.2-3-2.9-4.6-.7-1.7-1.7-3.1-2.1-3.1s-1-1-1-2q0-1.8-.7-2c-.5 0-1.5-1.3-2.3-2.8-1.6-3-7.4-12-9-14-.5-.6-1-1.8-1-2.6q0-1.3-.8-1.8c-1-.3-2-1.9-8.6-13.5a132 132 0 0 0-8.7-13.8l-5-7.7c-1-1.5-1.8-3.2-1.8-3.7q-.1-1-1.4-2.4c-.7-.7-2-2.7-3-4.3-1.8-3.3-2.5-4.4-7.9-12.7-2-3.2-3.7-6.5-3.7-7.3q-.1-1.3-.8-1.4c-.5 0-1.5-1.3-2.3-2.8l-3.1-5.1a10 10 0 0 1-1.8-3.2c0-3 35.3-3.8 37.2-.7a504 504 0 0 1 11 18.2l4.5 7.2c1.8 2.9 3.7 5.5 4.3 5.9.6.3.8 1 .6 1.3-.3.5.6 2 2 3.6s2.4 3.3 2.4 3.8 1.7 3.4 3.7 6.6c2.1 3.1 4.4 7 5.2 8.4s1.8 2.8 2.3 2.8q.7.2.8 2c0 1 .4 2 .8 2s1.6 1.4 2.5 3.2q3.8 7.3 7.4 12.4a13 13 0 0 1 2.3 4.3q0 1 .9 1c4.3 0-2.5 12.4-13.7 25-4.3 4.8-5 5.2-6.3 3.8m-80-130c-3-5 1-11.5 14.1-22.5 6.8-5.7 7.1-5.8 10-.4l4.2 7.2c5.5 9 5.7 8.2-3 10.5-4.2 1.1-10.8 3.5-14.6 5.2-8.4 4-8.2 4-10.6 0"/><path fill="#fe7700" d="M175.3 233.2c-.7-1.7-1.6-3-2-3s-1.3-1.4-2-3.1c-.8-1.7-1.8-3.6-2.4-4.3-1.2-1.3-2.8-4-6-9.9-1-2-2.4-3.7-2.8-3.7q-.7-.1-.8-1.6c0-.8-.5-2-1-2.7-2.6-3.1-8-11.7-7.3-11.7q.6-.1-.4-1c-.7-.8 0-3.8 2.3-10a234 234 0 0 0 5.6-16.7c2.2-7.5 4.8-9.7 4.8-4 0 .8.7 2 1.5 2.6s2 2.5 2.8 4c2 4 4.1 7.5 4.8 8 .3.3 1.4 2 2.3 3.9 1 1.8 2.5 4.2 3.4 5.2 1 1.1 1.7 2.4 1.7 2.7s1 2.2 2.2 4a18 18 0 0 1 2.3 3.6c0 .6 4.2 7.3 5.8 9.2.4.5 2.5 4 4.5 7.6 2 3.7 4.4 7.2 5.2 7.9 1.8 1.4-2.6 5-14.2 11.8-8.5 5-8.7 5-10.3 1.2m-47.8-77.5q-1.1-1.4-1.2-2c0-.4-1-2.1-2.3-3.9q-3.7-5.2-7.4-12.4c-1-1.8-2-3.2-2.5-3.2s-.8-1-.8-2q-.1-1.8-.8-2c-.5 0-1.5-1.3-2.3-2.8s-3.1-5.3-5.2-8.4c-2-3.2-3.7-6.1-3.7-6.6s-1.1-2.2-2.5-3.8-2.2-3.1-2-3.6q.4-.7-.5-1.3a31 31 0 0 1-4.3-6l-7.7-12.5c-2.4-4.2-3.9-6.5-6.3-10.3-2.2-3.2-2-3.3 7.6-1.1q31.6 7 31.7 12.4c0 .6.8 2.3 1.8 3.8a207 207 0 0 1 12.2 19.2c.4.2 1.7 2.3 2.9 4.5l4 7c6.4 9.7 6.4 9.4-2.1 25.2-6.4 11.8-6.6 12-8.6 9.8m-68.3-111-3.3-6c-6-9.6-7.6-13-6.9-13.5 15.7-11 22.8-14.7 23.7-12.2.6 2 2.6 5.2 7.9 13.4 2 3.2 3.7 6 3.7 6.3s.9 1.9 2 3.5l4 6c3.1 4.5 3 4.6-14.1 4.5-15.1 0-16.2-.2-17-2"/><path fill="#fe6700" d="M199.1 219.4c-.8-1-3-4.4-4.9-7.7l-4.1-7a66 66 0 0 1-5.8-9.2c0-.3-1-2-2.3-3.7a16 16 0 0 1-2.2-3.9c0-.3-.8-1.6-1.7-2.7-1-1-2.5-3.4-3.4-5.2a21 21 0 0 0-2.3-3.8c-.7-.6-2.8-4.1-4.8-8.2-.8-1.4-2-3.2-2.8-3.9s-1.5-2-1.5-3-.6-2-1.2-2.2c-.9-.3-.2-4.8 2.4-16.3 2-8.8 4-17.8 4.4-20.2l.6-4.2 3 4.5 2.8 5c0 .4 1.1 2 2.5 3.9s2.5 3.5 2.5 3.8c0 .4 1.7 3.3 3.7 6.5 5.3 8.2 6 9.3 8.3 13.3s3 5 8.2 13.3c2.1 3.2 3.8 6 3.8 6.4 0 .3 1.1 2 2.5 3.9a19 19 0 0 1 2.5 3.8c0 .3 1.7 3.1 3.7 6.3s4.5 7.1 5.4 8.8c1 1.6 2.3 2.8 3 2.7 1.7-.4-9.6 12.2-15.2 16.8-5.4 4.6-5.1 4.5-7.1 2.2M142 127l-3.7-6.2c-1-1.7-3-4.8-4.1-7a25 25 0 0 0-2.9-4.5A207 207 0 0 0 119.1 90c-1-1.5-1.8-3.4-1.8-4.2q-.1-1.4-1.3-2-1.1-.3-.7-1c.6-.6 40.2 12.5 41.1 13.7.6.9-4.5 15-10 27.4l-2.8 6.2zm-20.7-74.3a413 413 0 0 0-25.7-5c-1.7-.3-3.4-1.3-3.7-2.2s-2-3.8-3.6-6.2l-3.7-6-4.5-7.4a47 47 0 0 1-3.8-6.5c0-.3-1-1.8-2-3.1-2.6-3.4-2.5-4.5.7-6C82.3 7 100.8 1.5 100 3c-.3.4.4 2 1.4 3.7l4 7c1.2 2.2 2.4 4.2 2.8 4.5.7.5 2.7 4 4.8 8.2.8 1.5 1.8 3 2.2 3.2s2.1 3 3.6 5.8c1.5 2.9 3.8 6.7 5.1 8.4s2.4 3.5 2.4 4 .9 1.9 2 2.9c4.1 3.7 2.2 4.2-7 2"/><path fill="#fe5700" d="M218.9 198.7a62 62 0 0 0-5.6-9.4c-2.2-3.3-4-6.3-4-6.7 0-.3-1.1-2-2.5-3.8a18 18 0 0 1-2.5-4c0-.2-1.7-3.1-3.8-6.3-5.2-8.2-6-9.4-8.2-13.3-2.3-4-3-5.1-8.3-13.3-2-3.2-3.7-6.1-3.7-6.5 0-.3-1.1-2-2.5-3.8a18 18 0 0 1-2.5-3.9c0-.3-1.2-2.4-2.7-4.6l-2.7-4 1.7-8.6c2-10.3 1.5-9.8 7.4-8.5l8.6 1.7c2.2.3 4 1.3 4.4 2.2s2.3 4.2 4.2 7.3c5.1 8 5.8 9 8 13 2.6 4.3 4 6.7 6.6 10.4 2.3 3.6 3.2 5 6.2 10.2l3.5 5.8a264 264 0 0 1 12.5 20.8c.8 1.5 1.8 3 2.3 3.3 1.2.7-3.6 9.6-9.7 18.2-5.1 7.2-4.6 7-6.7 3.8m28.6-74.5q0-3 .5-1.8c.2 1 .2 2.6 0 3.5q-.5 1.3-.5-1.7m-13.2-30.4q.2-.5 1.7-1.8 2.4-1.9.4.4-2 2.6-2.1 1.4M148 59.3a86 86 0 0 1-17.7-5.7c0-.6-1-2-2-3-1.1-1-2-2.2-2-2.7s-1-2.4-2.4-4.1a72 72 0 0 1-5-8.4 29 29 0 0 0-3.7-5.8c-.4-.2-1.4-1.7-2.2-3.2a45 45 0 0 0-4.8-8.2c-.4-.3-1.6-2.3-2.8-4.5s-3-5.5-4.1-7.2c-2.4-4-2.4-4 8-5.3 18.2-2.4 17.6-2.8 28.1 16l5.2 8.2c2 3.2 3.7 6 3.7 6.4 0 .3 1.2 2 2.6 4 1.4 1.8 2.3 3.4 1.8 3.4q-.5.2 1.2 2.2a204 204 0 0 1 14 22.7z"/><path fill="#fe4a00" d="M234.7 176c-.9-1.3-1.6-2.6-4.6-7.8-1.2-2.2-5.7-9.5-9.6-15.6l-3.5-5.8c-3-5.2-3.9-6.6-6.2-10.2a158 158 0 0 1-6.5-10.4c-2.3-4-3-5-8-13-6-9.1-6-9 1.8-8.4 16.9 1.5 34.2-5.4 40.6-16l2.3-3.7 1.1 2.8c4.6 11.2 6.6 41.2 3.8 57s-9.3 34-11.2 31.2M187.9 68c-7.6-1-7.4-.2-3.5-11.5 9-26 22-29.3 36.2-9.2 12.1 17.3-.7 25.4-32.7 20.8m-23.2-6.6c-1-1.5-2.5-4-3.6-5.4a14 14 0 0 1-1.8-3.3 62 62 0 0 0-7.4-11.3q-1.7-2-1.2-2.2c.5 0-.4-1.6-1.8-3.5a20 20 0 0 1-2.6-4 51 51 0 0 0-3.7-6.3 211 211 0 0 1-8-12.9l-4.5-7.8-2.8-4.7 6.8.7c18.2 1.8 43.5 10 53 17.1.3.2-.8 1.8-2.3 3.6-4.1 4.8-7.5 12.5-12.5 28.5-4.8 15.3-5.1 15.7-7.6 11.5"/><path fill="#595959" d="M740.8 198.1c-57.9-11.6-53.7-104.6 4.8-107.7 30.7-1.6 52.7 20.3 52.7 52.5v4.8h-87.5l.3 3.5c3 35.3 42.8 51.1 71 28.2l4.4-3.5 2.3 2.9c3.1 3.8 3.2 3.6-1.8 8-11 9.5-31 14.4-46.2 11.3m46.5-62.8c0-48.3-67.8-47.7-76.4.6l-.6 3.3h77zm123.6 62.8c-26.3-6.2-36.2-38.2-17.6-57 14-14.3 40.5-14.4 57.6-.4 5.6 4.6 5.4 5 5.4-7.9 0-33.5-32-46.5-56.9-23.2l-5 4.7-2.7-3.7-2.9-3.7 5-4.5c17.7-16.1 50.9-16.7 64.9-1.2 7.4 8.3 7.6 9.6 7.6 55v40h-10v-5.5c0-6.6.2-6.5-6.3-1.6a49 49 0 0 1-39.1 9m24-8.5a39 39 0 0 0 18.1-10.2l3.3-3.4v-22.9l-3.3-3.3c-21.2-21.2-57.7-11.9-57.7 14.7 0 19.4 17.8 30.8 39.5 25.1m-615.6-65.5v-72l5.5.3 5.5.3.3 71.7.2 71.8h-11.5zm48 20v-52h10v7.6c0 8.7-.2 8.6 5.8 3.4 20.7-18.2 52-17.4 61.3 1.7l3.4 6.8.3 42.3.3 42.3h-10.6l.3-36.7c.3-40-.3-45.3-5.4-52-9.7-12.7-34.9-10.3-50.2 4.7l-5.2 5.1v78.9h-10zM488 149l-.2-47.2-8.8-.3-8.7-.3v-8.9h18v-8.9c0-19.7 8.5-31.2 24.4-32.8 5.3-.6 15.1 1 16.1 2.7 1.2 2-2.4 8.2-4.3 7.4-14.1-6-25.2 3.5-26 22.2l-.5 9.4h21.3v9h-21v95h-10zm59.3-4.7v-52h10v104h-10zm46 0v-52h11v16.2l5.6-5.1c17.8-16.3 47.6-17.8 58.4-3 5.7 8 6 10.2 6 55v40.9h-10v-37.8c0-22-.5-39.6-1-42.2-4.7-20.5-33.6-23.1-53.5-4.9l-5.5 5v79.9h-11zm229 0v-52h11v18l6.5-6.5a45 45 0 0 1 23.7-13l4.8-.7V101l-5.3.5c-7.7.6-17.7 5.6-24.2 12.2l-5.5 5.4v77.2h-11zm158.1-34.6c-10.2-8.6 2.1-24.2 13.3-16.9 8.4 5.5 3.8 19.5-6.4 19.5a10 10 0 0 1-6.9-2.6m12.8-1c6.5-5.5 2.5-16.4-6-16.4-8.3 0-12 10-6 16q5.6 5.7 12 .4m-10-7.4c0-6 .1-6 3-6 3.6 0 6.5 2.6 5.5 4.8-.4 1-.8 2.9-.7 4.4 0 3.2-1.3 3.7-2.2.8q-.8-1.8-2-2-1.4.2-1.5 2c0 1-.5 2-1 2s-1-2.7-1-6m6.6-2q-.2-1.5-2.3-1.9-2.4-.5-2.2 1.9-.2 2.3 2.2 1.8 2.1-.5 2.3-1.8M547.4 71.6c-4.7-4-4.2-10.3 1-13 4-2 6.6-1.8 9.4 1 7.6 7.6-2.2 18.9-10.4 12"/></svg>