<?xml version="1.0" encoding="UTF-8" standalone="no"?>
<svg
   xmlns:dc="http://purl.org/dc/elements/1.1/"
   xmlns:cc="http://creativecommons.org/ns#"
   xmlns:rdf="http://www.w3.org/1999/02/22-rdf-syntax-ns#"
   xmlns:svg="http://www.w3.org/2000/svg"
   xmlns="http://www.w3.org/2000/svg"
   viewBox="0 0 498.66666 72"
   height="72"
   width="498.66666"
   xml:space="preserve"
   id="svg2"
   version="1.1"><metadata
     id="metadata8"><rdf:RDF><cc:Work
         rdf:about=""><dc:format>image/svg+xml</dc:format><dc:type
           rdf:resource="http://purl.org/dc/dcmitype/StillImage" /></cc:Work></rdf:RDF></metadata><defs
     id="defs6"><clipPath
       id="clipPath20"
       clipPathUnits="userSpaceOnUse"><path
         id="path18"
         d="m 304.227,498.594 c -23.61,3.332 -33.032,-1.18 -42.641,-24.328 -0.363,-0.844 -0.816,-2.047 -1.156,-2.961 -9.313,1.746 -18.856,3.347 -29.012,4.742 C 141.926,488.578 74.2813,488.031 39.2422,484.289 18.5508,482.367 6.00391,477.832 5.50781,463.223 -6.61328,35.7852 343.898,10.3555 343.898,10.3555 c 23.563,-3.35941 32.954,1.1836 42.59,24.2383 0.356,0.9179 0.793,2.0625 1.239,3.0078 9.183,-1.7188 18.808,-3.3203 28.886,-4.7071 89.532,-12.5976 157.176,-11.9726 192.184,-8.2422 20.726,1.875 33.269,6.504 33.789,21.0547 12.051,427.457 -338.359,452.887 -338.359,452.887 z M 492.41,224.934 v 0 C 481.578,152.27 464.922,99.75 453.453,73.3242 445.375,53.8633 437.469,50.1914 417.73,52.9336 c 0,0 -294.179,21.3281 -284.05,380.0664 0.41,12.289 11,16.129 28.371,17.68 29.375,3.183 86.133,3.668 161.265,-6.895 146.836,-20.527 190.211,-77.961 169.094,-218.851 z" /></clipPath><linearGradient
       id="linearGradient28"
       gradientTransform="matrix(10,0,0,10,324.047,254.465)"
       gradientUnits="userSpaceOnUse"
       y2="0"
       x2="33.066002"
       y1="0"
       x1="-33.066002"><stop
         id="stop22"
         offset="0"
         style="stop-opacity:1;stop-color:#00adef" /><stop
         id="stop24"
         offset="0.1875"
         style="stop-opacity:1;stop-color:#00adef" /><stop
         id="stop26"
         offset="1"
         style="stop-opacity:1;stop-color:#2c3797" /></linearGradient><clipPath
       id="clipPath66"
       clipPathUnits="userSpaceOnUse"><path
         id="path64"
         d="m 1029.74,368.07 c -2.25,0 -4.04,-0.097 -6.13,-0.117 -2.14,0.02 -3.93,0.117 -6.18,0.117 -98.766,0 -147.735,-63.945 -147.735,-132.793 v -57.461 c 27.567,-3.984 55.649,-7.832 84.239,-11.523 v 26.797 c 0,22.297 2.636,53.332 17.281,74.687 10.871,14.063 27.726,23.153 52.315,24.004 24.58,-0.851 41.4,-9.922 52.27,-23.965 14.68,-21.359 17.29,-52.41 17.29,-74.726 v -43.184 c 27.77,-2.949 55.89,-5.781 84.39,-8.484 v 93.855 c 0,68.848 -49.05,132.793 -147.74,132.793 z" /></clipPath><linearGradient
       id="linearGradient74"
       gradientTransform="matrix(10,0,0,10,2168.02,254.752)"
       gradientUnits="userSpaceOnUse"
       y2="0"
       x2="143.687"
       y1="0"
       x1="-143.687"><stop
         id="stop68"
         offset="0"
         style="stop-opacity:1;stop-color:#1082ce" /><stop
         id="stop70"
         offset="0.351563"
         style="stop-opacity:1;stop-color:#1082ce" /><stop
         id="stop72"
         offset="1"
         style="stop-opacity:1;stop-color:#1c63b7" /></linearGradient><clipPath
       id="clipPath84"
       clipPathUnits="userSpaceOnUse"><path
         id="path82"
         d="m 3047.21,368.07 c -2.21,0 -4.03,-0.097 -6.13,-0.117 -2.14,0.02 -3.93,0.117 -6.17,0.117 -98.73,0 -147.75,-63.945 -147.75,-132.793 v -85.879 c 28.56,3.028 56.7,6.192 84.4,9.493 v 34.199 c 0,22.297 2.59,53.332 17.24,74.687 10.88,14.082 27.7,23.164 52.24,24.024 24.54,-0.86 41.37,-9.903 52.24,-23.906 14.76,-21.387 17.35,-52.469 17.35,-74.805 v -15.938 c 28.7,4.121 56.87,8.391 84.37,12.793 v 45.332 c 0,68.848 -49.03,132.793 -147.79,132.793 z" /></clipPath><linearGradient
       id="linearGradient92"
       gradientTransform="matrix(10,0,0,10,2168.02,258.74)"
       gradientUnits="userSpaceOnUse"
       y2="0"
       x2="143.687"
       y1="0"
       x1="-143.687"><stop
         id="stop86"
         offset="0"
         style="stop-opacity:1;stop-color:#1082ce" /><stop
         id="stop88"
         offset="0.351563"
         style="stop-opacity:1;stop-color:#1082ce" /><stop
         id="stop90"
         offset="1"
         style="stop-opacity:1;stop-color:#1c63b7" /></linearGradient><clipPath
       id="clipPath102"
       clipPathUnits="userSpaceOnUse"><path
         id="path100"
         d="M 2138.99,457.32 H 2054.6 V 133.363 c 0,-10.039 0.35,-19.433 1.12,-28.218 30.03,0.191 59.86,0.503 89.53,0.992 -4.46,8.976 -6.26,20.468 -6.26,34.218 v 147.579 h 92.67 v 71.679 h -92.67 z" /></clipPath><linearGradient
       id="linearGradient110"
       gradientTransform="matrix(10,0,0,10,2168.02,281.242)"
       gradientUnits="userSpaceOnUse"
       y2="0"
       x2="143.687"
       y1="0"
       x1="-143.687"><stop
         id="stop104"
         offset="0"
         style="stop-opacity:1;stop-color:#1082ce" /><stop
         id="stop106"
         offset="0.351563"
         style="stop-opacity:1;stop-color:#1082ce" /><stop
         id="stop108"
         offset="1"
         style="stop-opacity:1;stop-color:#1c63b7" /></linearGradient><clipPath
       id="clipPath120"
       clipPathUnits="userSpaceOnUse"><path
         id="path118"
         d="m 1315.51,386.945 c 0,37.129 7.03,69.52 54.06,69.52 11.97,0 23.23,-2.137 35.15,-4.93 l 5.68,71.649 c -17.6,3.601 -35.15,4.918 -53.45,4.918 -104.67,0 -125.79,-61.075 -125.79,-154.551 V 136.547 c 27.8,-2.422 55.92,-4.695 84.35,-6.871 v 158.258 h 81.53 v 71.679 h -81.53 z" /></clipPath><linearGradient
       id="linearGradient128"
       gradientTransform="matrix(10,0,0,10,2168.02,328.891)"
       gradientUnits="userSpaceOnUse"
       y2="0"
       x2="143.687"
       y1="0"
       x1="-143.687"><stop
         id="stop122"
         offset="0"
         style="stop-opacity:1;stop-color:#1082ce" /><stop
         id="stop124"
         offset="0.351563"
         style="stop-opacity:1;stop-color:#1082ce" /><stop
         id="stop126"
         offset="1"
         style="stop-opacity:1;stop-color:#1c63b7" /></linearGradient><clipPath
       id="clipPath138"
       clipPathUnits="userSpaceOnUse"><path
         id="path136"
         d="m 731.156,199.848 c 28.856,-5.02 58.379,-9.879 88.633,-14.563 v 314.871 h -88.633 z" /></clipPath><linearGradient
       id="linearGradient146"
       gradientTransform="matrix(10,0,0,10,2168.02,342.721)"
       gradientUnits="userSpaceOnUse"
       y2="0"
       x2="143.687"
       y1="0"
       x1="-143.687"><stop
         id="stop140"
         offset="0"
         style="stop-opacity:1;stop-color:#1082ce" /><stop
         id="stop142"
         offset="0.351563"
         style="stop-opacity:1;stop-color:#1082ce" /><stop
         id="stop144"
         offset="1"
         style="stop-opacity:1;stop-color:#1c63b7" /></linearGradient><clipPath
       id="clipPath156"
       clipPathUnits="userSpaceOnUse"><path
         id="path154"
         d="M 3520.53,533.797 V 316.82 h -2.17 c -17.52,21.621 -51.27,51.25 -114.5,51.25 -94.14,0 -159.85,-73.906 -162.76,-170.425 29.55,5.035 58.36,10.293 86.42,15.679 8.96,43.235 43.79,78.809 96.77,78.809 35.62,0 63.04,-16.18 79.89,-39.903 35.46,8.907 69.1,18.125 100.71,27.657 v 253.91 z" /></clipPath><linearGradient
       id="linearGradient164"
       gradientTransform="matrix(10,0,0,10,2168.02,365.721)"
       gradientUnits="userSpaceOnUse"
       y2="0"
       x2="143.687"
       y1="0"
       x1="-143.687"><stop
         id="stop158"
         offset="0"
         style="stop-opacity:1;stop-color:#1082ce" /><stop
         id="stop160"
         offset="0.351563"
         style="stop-opacity:1;stop-color:#1082ce" /><stop
         id="stop162"
         offset="1"
         style="stop-opacity:1;stop-color:#1c63b7" /></linearGradient><clipPath
       id="clipPath174"
       clipPathUnits="userSpaceOnUse"><path
         id="path172"
         d="m 2680.67,368.07 c -101.92,0 -183.47,-70.976 -183.47,-177.031 0,-26.269 5.04,-50.371 14.09,-71.797 27.77,1.582 55.27,3.262 82.53,5.078 -6.25,10.735 -10.68,23.067 -12.26,37.2 h 257.21 v 23.132 c 0,117.403 -63.96,183.418 -158.1,183.418 z m -99.11,-143.437 v 0 c 6.37,48.523 37.23,80.215 87.14,80.215 52.7,0 85.05,-30.965 85.73,-80.215 z" /></clipPath><linearGradient
       id="linearGradient182"
       gradientTransform="matrix(10,0,0,10,2168.02,243.654)"
       gradientUnits="userSpaceOnUse"
       y2="0"
       x2="143.687"
       y1="0"
       x1="-143.687"><stop
         id="stop176"
         offset="0"
         style="stop-opacity:1;stop-color:#1082ce" /><stop
         id="stop178"
         offset="0.351563"
         style="stop-opacity:1;stop-color:#1082ce" /><stop
         id="stop180"
         offset="1"
         style="stop-opacity:1;stop-color:#1c63b7" /></linearGradient><clipPath
       id="clipPath192"
       clipPathUnits="userSpaceOnUse"><path
         id="path190"
         d="m 2004.53,363.117 c -3.9,0.832 -7.71,1.731 -11.81,2.395 -7.32,1.125 -16.01,1.855 -26.89,2.226 -1.25,0 -2.21,0.332 -3.42,0.332 -2.25,0 -4.08,-0.117 -6.12,-0.117 -2.15,0 -3.97,0.117 -6.22,0.117 -1.21,0 -2.14,-0.332 -3.43,-0.332 -10.75,-0.371 -19.6,-1.101 -26.87,-2.226 -4.07,-0.664 -7.88,-1.563 -11.84,-2.395 -0.24,-0.094 -0.47,-0.094 -0.66,-0.23 -69.84,-15.871 -104.91,-69.719 -104.91,-127.61 V 106.82 c 27.96,-0.566 56.04,-1.015 84.3,-1.308 v 87.578 c 0,22.59 2.78,54.023 17.96,75.43 2.34,2.968 4.7,5.859 7.58,8.273 0.07,0 0.11,0.066 0.11,0.066 10.57,8.965 25.02,14.258 43.98,14.961 16.85,-0.605 29.78,-5.359 39.98,-12.656 l 31.68,76.641 c -7.09,2.797 -14.62,5.273 -22.57,7.082 -0.32,0.136 -0.59,0.136 -0.85,0.23 z" /></clipPath><linearGradient
       id="linearGradient200"
       gradientTransform="matrix(10,0,0,10,2168.02,236.797)"
       gradientUnits="userSpaceOnUse"
       y2="0"
       x2="143.687"
       y1="0"
       x1="-143.687"><stop
         id="stop194"
         offset="0"
         style="stop-opacity:1;stop-color:#1082ce" /><stop
         id="stop196"
         offset="0.351563"
         style="stop-opacity:1;stop-color:#1082ce" /><stop
         id="stop198"
         offset="1"
         style="stop-opacity:1;stop-color:#1c63b7" /></linearGradient><clipPath
       id="clipPath210"
       clipPathUnits="userSpaceOnUse"><path
         id="path208"
         d="m 2479.84,362.887 c -0.21,0.136 -0.51,0.136 -0.71,0.23 -3.88,0.832 -7.73,1.731 -11.8,2.395 -7.31,1.125 -16.13,1.855 -26.96,2.226 -1.24,0 -2.14,0.332 -3.37,0.332 -2.26,0 -4.05,-0.117 -6.18,-0.117 -2.05,0 -3.88,0.117 -6.14,0.117 -1.21,0 -2.2,-0.332 -3.48,-0.332 -10.77,-0.371 -19.62,-1.101 -26.81,-2.226 -4.15,-0.664 -7.96,-1.563 -11.87,-2.395 -0.21,-0.094 -0.52,-0.094 -0.72,-0.23 -69.82,-15.871 -104.82,-69.719 -104.82,-127.61 V 109.164 c 28.32,0.84 56.36,1.836 84.24,2.91 v 81.016 c 0,22.59 2.83,54.023 17.98,75.43 2.42,2.968 4.7,5.859 7.55,8.273 0.06,0 0.06,0.066 0.14,0.066 10.49,8.965 25.02,14.258 43.93,14.961 16.9,-0.605 29.78,-5.359 39.97,-12.656 l 31.76,76.641 c -7.19,2.797 -14.64,5.273 -22.71,7.082 z" /></clipPath><linearGradient
       id="linearGradient218"
       gradientTransform="matrix(10,0,0,10,2168.02,238.621)"
       gradientUnits="userSpaceOnUse"
       y2="0"
       x2="143.687"
       y1="0"
       x1="-143.687"><stop
         id="stop212"
         offset="0"
         style="stop-opacity:1;stop-color:#1082ce" /><stop
         id="stop214"
         offset="0.351563"
         style="stop-opacity:1;stop-color:#1082ce" /><stop
         id="stop216"
         offset="1"
         style="stop-opacity:1;stop-color:#1c63b7" /></linearGradient><clipPath
       id="clipPath228"
       clipPathUnits="userSpaceOnUse"><path
         id="path226"
         d="m 1584.07,368.07 c -101.94,0 -183.51,-70.976 -183.51,-177.031 0,-24.844 4.63,-47.656 12.78,-68.203 33.48,-2.141 67.38,-4.063 101.61,-5.82 -19.31,19.004 -30.02,45.859 -30.02,74.023 0,52.578 37.28,101.094 99.14,101.094 61.79,0 99.04,-48.516 99.04,-101.094 0,-31.172 -13.09,-60.781 -36.46,-79.851 33.47,-1.223 67.26,-2.278 101.32,-3.157 12.35,24.121 19.44,52.012 19.44,83.008 0,106.055 -81.46,177.031 -183.34,177.031 z" /></clipPath><linearGradient
       id="linearGradient236"
       gradientTransform="matrix(10,0,0,10,2168.02,238.057)"
       gradientUnits="userSpaceOnUse"
       y2="0"
       x2="143.687"
       y1="0"
       x1="-143.687"><stop
         id="stop230"
         offset="0"
         style="stop-opacity:1;stop-color:#1082ce" /><stop
         id="stop232"
         offset="0.351563"
         style="stop-opacity:1;stop-color:#1082ce" /><stop
         id="stop234"
         offset="1"
         style="stop-opacity:1;stop-color:#1c63b7" /></linearGradient></defs><g
     transform="matrix(1.3333333,0,0,-1.3333333,0,72)"
     id="g10"><g
       transform="scale(0.1)"
       id="g12"><g
         id="g14"><g
           clip-path="url(#clipPath20)"
           id="g16"><path
             id="path30"
             style="fill:url(#linearGradient28);fill-opacity:1;fill-rule:nonzero;stroke:none"
             d="m 304.227,498.594 c -23.61,3.332 -33.032,-1.18 -42.641,-24.328 -0.363,-0.844 -0.816,-2.047 -1.156,-2.961 -9.313,1.746 -18.856,3.347 -29.012,4.742 C 141.926,488.578 74.2813,488.031 39.2422,484.289 18.5508,482.367 6.00391,477.832 5.50781,463.223 -6.61328,35.7852 343.898,10.3555 343.898,10.3555 c 23.563,-3.35941 32.954,1.1836 42.59,24.2383 0.356,0.9179 0.793,2.0625 1.239,3.0078 9.183,-1.7188 18.808,-3.3203 28.886,-4.7071 89.532,-12.5976 157.176,-11.9726 192.184,-8.2422 20.726,1.875 33.269,6.504 33.789,21.0547 12.051,427.457 -338.359,452.887 -338.359,452.887 z M 492.41,224.934 v 0 C 481.578,152.27 464.922,99.75 453.453,73.3242 445.375,53.8633 437.469,50.1914 417.73,52.9336 c 0,0 -294.179,21.3281 -284.05,380.0664 0.41,12.289 11,16.129 28.371,17.68 29.375,3.183 86.133,3.668 161.265,-6.895 146.836,-20.527 190.211,-77.961 169.094,-218.851" /></g></g><path
         id="path32"
         style="fill:#1d4e9e;fill-opacity:1;fill-rule:nonzero;stroke:none"
         d="m 3685.08,533.867 c -26.28,0 -48.35,-20.656 -48.35,-47.746 0,-27.601 22.07,-48.258 48.35,-48.258 26.22,0 48.17,20.657 48.17,48.258 0,27.09 -21.95,47.746 -48.17,47.746 z m 0,-88.957 v 0 c -22.44,0 -39.63,17.711 -39.63,41.211 0,22.973 17.19,40.68 39.63,40.68 22.23,0 39.44,-17.707 39.44,-40.68 0,-23.5 -17.21,-41.211 -39.44,-41.211" /><path
         id="path34"
         style="fill:#1d4e9e;fill-opacity:1;fill-rule:nonzero;stroke:none"
         d="m 3707.69,497.922 c 0,10.773 -6.29,16.047 -19.65,16.047 h -21.67 v -56.086 h 8.73 v 24.14 h 9.25 l 15.26,-24.14 h 9.36 l -16.04,24.781 c 8.35,0.895 14.76,5.125 14.76,15.258 z m -23.5,-8.852 v 0 h -9.09 v 17.848 h 11.54 c 5.9,0 12.31,-1.164 12.31,-8.602 0,-8.859 -7.02,-9.246 -14.76,-9.246" /><path
         id="path36"
         style="fill:#1d4e9e;fill-opacity:1;fill-rule:nonzero;stroke:none"
         d="m 1093.09,22.3281 h 84.39 V 141.422 c -28.5,2.703 -56.62,5.535 -84.39,8.484 V 22.3281" /><path
         id="path38"
         style="fill:#1d4e9e;fill-opacity:1;fill-rule:nonzero;stroke:none"
         d="m 731.156,22.3281 h 88.633 V 185.285 c -30.254,4.684 -59.777,9.543 -88.633,14.563 V 22.3281" /><path
         id="path40"
         style="fill:#1d4e9e;fill-opacity:1;fill-rule:nonzero;stroke:none"
         d="m 869.695,22.3281 h 84.239 V 166.293 c -28.59,3.691 -56.672,7.539 -84.239,11.523 V 22.3281" /><path
         id="path42"
         style="fill:#1d4e9e;fill-opacity:1;fill-rule:nonzero;stroke:none"
         d="M 3110.63,22.3281 H 3195 V 189.945 c -27.5,-4.402 -55.67,-8.672 -84.37,-12.793 V 22.3281" /><path
         id="path44"
         style="fill:#1d4e9e;fill-opacity:1;fill-rule:nonzero;stroke:none"
         d="m 1584.07,89.7891 c -28.82,0 -52.23,10.6129 -69.12,27.2269 -34.23,1.757 -68.13,3.679 -101.61,5.82 26.65,-67.2266 92.63,-109.004 170.73,-109.004 72.13,0 133.88,35.7227 163.9,94.199 -34.06,0.879 -67.85,1.934 -101.32,3.157 -16.2,-13.2153 -37.29,-21.3989 -62.58,-21.3989" /><path
         id="path46"
         style="fill:#1d4e9e;fill-opacity:1;fill-rule:nonzero;stroke:none"
         d="m 1802.36,22.3281 h 84.3 v 83.1839 c -28.26,0.293 -56.34,0.742 -84.3,1.308 V 22.3281" /><path
         id="path48"
         style="fill:#1d4e9e;fill-opacity:1;fill-rule:nonzero;stroke:none"
         d="m 2164.9,13.832 c 19.68,0 49.21,2.8946 66.76,11.3672 v 70.8985 c -10.49,-7.7539 -30.91,-10.5469 -45.64,-10.5469 -22.05,0 -34.33,7.539 -40.77,20.5862 -29.67,-0.489 -59.5,-0.801 -89.53,-0.992 5.32,-60.727 31.28,-91.313 109.18,-91.313" /><path
         id="path50"
         style="fill:#1d4e9e;fill-opacity:1;fill-rule:nonzero;stroke:none"
         d="m 2680.67,13.832 c 53.36,0 103.31,19.0039 142.62,67.5 l -60.45,45.703 c -21.08,-25.984 -48.46,-45.703 -90.65,-45.703 -33.7,0 -62.56,15.7539 -78.37,42.988 -27.26,-1.816 -54.76,-3.496 -82.53,-5.078 27.53,-65.1639 92.67,-105.41 169.38,-105.41" /><path
         id="path52"
         style="fill:#1d4e9e;fill-opacity:1;fill-rule:nonzero;stroke:none"
         d="m 2276.98,22.3281 h 84.24 v 89.7459 c -27.88,-1.074 -55.92,-2.07 -84.24,-2.91 V 22.3281" /><path
         id="path54"
         style="fill:#1d4e9e;fill-opacity:1;fill-rule:nonzero;stroke:none"
         d="m 2887.16,22.3281 h 84.4 V 158.891 c -27.7,-3.301 -55.84,-6.465 -84.4,-9.493 V 22.3281" /><path
         id="path56"
         style="fill:#1d4e9e;fill-opacity:1;fill-rule:nonzero;stroke:none"
         d="m 1231.16,22.3281 h 84.35 V 129.676 c -28.43,2.176 -56.55,4.449 -84.35,6.871 V 22.3281" /><path
         id="path58"
         style="fill:#1d4e9e;fill-opacity:1;fill-rule:nonzero;stroke:none"
         d="m 3523.32,191.039 c 0,-52.754 -37.27,-101.2499 -99.03,-101.2499 -61.91,0 -99.15,48.4959 -99.15,101.2499 0,7.566 0.86,15.02 2.38,22.285 -28.06,-5.386 -56.87,-10.644 -86.42,-15.679 -0.05,-2.223 -0.28,-4.379 -0.28,-6.606 0,-99.7929 62.54,-177.207 166.5,-177.207 101.48,0 197.57,53.0078 197.57,177.402 v 88.653 c -31.61,-9.532 -65.25,-18.75 -100.71,-27.657 12.39,-17.441 19.14,-38.925 19.14,-61.191" /><g
         id="g60"><g
           clip-path="url(#clipPath66)"
           id="g62"><path
             id="path76"
             style="fill:url(#linearGradient74);fill-opacity:1;fill-rule:nonzero;stroke:none"
             d="m 1029.74,368.07 c -2.25,0 -4.04,-0.097 -6.13,-0.117 -2.14,0.02 -3.93,0.117 -6.18,0.117 -98.766,0 -147.735,-63.945 -147.735,-132.793 v -57.461 c 27.567,-3.984 55.649,-7.832 84.239,-11.523 v 26.797 c 0,22.297 2.636,53.332 17.281,74.687 10.871,14.063 27.726,23.153 52.315,24.004 24.58,-0.851 41.4,-9.922 52.27,-23.965 14.68,-21.359 17.29,-52.41 17.29,-74.726 v -43.184 c 27.77,-2.949 55.89,-5.781 84.39,-8.484 v 93.855 c 0,68.848 -49.05,132.793 -147.74,132.793" /></g></g><g
         id="g78"><g
           clip-path="url(#clipPath84)"
           id="g80"><path
             id="path94"
             style="fill:url(#linearGradient92);fill-opacity:1;fill-rule:nonzero;stroke:none"
             d="m 3047.21,368.07 c -2.21,0 -4.03,-0.097 -6.13,-0.117 -2.14,0.02 -3.93,0.117 -6.17,0.117 -98.73,0 -147.75,-63.945 -147.75,-132.793 v -85.879 c 28.56,3.028 56.7,6.192 84.4,9.493 v 34.199 c 0,22.297 2.59,53.332 17.24,74.687 10.88,14.082 27.7,23.164 52.24,24.024 24.54,-0.86 41.37,-9.903 52.24,-23.906 14.76,-21.387 17.35,-52.469 17.35,-74.805 v -15.938 c 28.7,4.121 56.87,8.391 84.37,12.793 v 45.332 c 0,68.848 -49.03,132.793 -147.79,132.793" /></g></g><g
         id="g96"><g
           clip-path="url(#clipPath102)"
           id="g98"><path
             id="path112"
             style="fill:url(#linearGradient110);fill-opacity:1;fill-rule:nonzero;stroke:none"
             d="M 2138.99,457.32 H 2054.6 V 133.363 c 0,-10.039 0.35,-19.433 1.12,-28.218 30.03,0.191 59.86,0.503 89.53,0.992 -4.46,8.976 -6.26,20.468 -6.26,34.218 v 147.579 h 92.67 v 71.679 h -92.67 v 97.707" /></g></g><g
         id="g114"><g
           clip-path="url(#clipPath120)"
           id="g116"><path
             id="path130"
             style="fill:url(#linearGradient128);fill-opacity:1;fill-rule:nonzero;stroke:none"
             d="m 1315.51,386.945 c 0,37.129 7.03,69.52 54.06,69.52 11.97,0 23.23,-2.137 35.15,-4.93 l 5.68,71.649 c -17.6,3.601 -35.15,4.918 -53.45,4.918 -104.67,0 -125.79,-61.075 -125.79,-154.551 V 136.547 c 27.8,-2.422 55.92,-4.695 84.35,-6.871 v 158.258 h 81.53 v 71.679 h -81.53 v 27.332" /></g></g><g
         id="g132"><g
           clip-path="url(#clipPath138)"
           id="g134"><path
             id="path148"
             style="fill:url(#linearGradient146);fill-opacity:1;fill-rule:nonzero;stroke:none"
             d="m 731.156,199.848 c 28.856,-5.02 58.379,-9.879 88.633,-14.563 V 500.156 H 731.156 V 199.848" /></g></g><g
         id="g150"><g
           clip-path="url(#clipPath156)"
           id="g152"><path
             id="path166"
             style="fill:url(#linearGradient164);fill-opacity:1;fill-rule:nonzero;stroke:none"
             d="M 3520.53,533.797 V 316.82 h -2.17 c -17.52,21.621 -51.27,51.25 -114.5,51.25 -94.14,0 -159.85,-73.906 -162.76,-170.425 29.55,5.035 58.36,10.293 86.42,15.679 8.96,43.235 43.79,78.809 96.77,78.809 35.62,0 63.04,-16.18 79.89,-39.903 35.46,8.907 69.1,18.125 100.71,27.657 v 253.91 h -84.36" /></g></g><g
         id="g168"><g
           clip-path="url(#clipPath174)"
           id="g170"><path
             id="path184"
             style="fill:url(#linearGradient182);fill-opacity:1;fill-rule:nonzero;stroke:none"
             d="m 2680.67,368.07 c -101.92,0 -183.47,-70.976 -183.47,-177.031 0,-26.269 5.04,-50.371 14.09,-71.797 27.77,1.582 55.27,3.262 82.53,5.078 -6.25,10.735 -10.68,23.067 -12.26,37.2 h 257.21 v 23.132 c 0,117.403 -63.96,183.418 -158.1,183.418 z m -99.11,-143.437 v 0 c 6.37,48.523 37.23,80.215 87.14,80.215 52.7,0 85.05,-30.965 85.73,-80.215 h -172.87" /></g></g><g
         id="g186"><g
           clip-path="url(#clipPath192)"
           id="g188"><path
             id="path202"
             style="fill:url(#linearGradient200);fill-opacity:1;fill-rule:nonzero;stroke:none"
             d="m 2004.53,363.117 c -3.9,0.832 -7.71,1.731 -11.81,2.395 -7.32,1.125 -16.01,1.855 -26.89,2.226 -1.25,0 -2.21,0.332 -3.42,0.332 -2.25,0 -4.08,-0.117 -6.12,-0.117 -2.15,0 -3.97,0.117 -6.22,0.117 -1.21,0 -2.14,-0.332 -3.43,-0.332 -10.75,-0.371 -19.6,-1.101 -26.87,-2.226 -4.07,-0.664 -7.88,-1.563 -11.84,-2.395 -0.24,-0.094 -0.47,-0.094 -0.66,-0.23 -69.84,-15.871 -104.91,-69.719 -104.91,-127.61 V 106.82 c 27.96,-0.566 56.04,-1.015 84.3,-1.308 v 87.578 c 0,22.59 2.78,54.023 17.96,75.43 2.34,2.968 4.7,5.859 7.58,8.273 0.07,0 0.11,0.066 0.11,0.066 10.57,8.965 25.02,14.258 43.98,14.961 16.85,-0.605 29.78,-5.359 39.98,-12.656 l 31.68,76.641 c -7.09,2.797 -14.62,5.273 -22.57,7.082 -0.32,0.136 -0.59,0.136 -0.85,0.23" /></g></g><g
         id="g204"><g
           clip-path="url(#clipPath210)"
           id="g206"><path
             id="path220"
             style="fill:url(#linearGradient218);fill-opacity:1;fill-rule:nonzero;stroke:none"
             d="m 2479.84,362.887 c -0.21,0.136 -0.51,0.136 -0.71,0.23 -3.88,0.832 -7.73,1.731 -11.8,2.395 -7.31,1.125 -16.13,1.855 -26.96,2.226 -1.24,0 -2.14,0.332 -3.37,0.332 -2.26,0 -4.05,-0.117 -6.18,-0.117 -2.05,0 -3.88,0.117 -6.14,0.117 -1.21,0 -2.2,-0.332 -3.48,-0.332 -10.77,-0.371 -19.62,-1.101 -26.81,-2.226 -4.15,-0.664 -7.96,-1.563 -11.87,-2.395 -0.21,-0.094 -0.52,-0.094 -0.72,-0.23 -69.82,-15.871 -104.82,-69.719 -104.82,-127.61 V 109.164 c 28.32,0.84 56.36,1.836 84.24,2.91 v 81.016 c 0,22.59 2.83,54.023 17.98,75.43 2.42,2.968 4.7,5.859 7.55,8.273 0.06,0 0.06,0.066 0.14,0.066 10.49,8.965 25.02,14.258 43.93,14.961 16.9,-0.605 29.78,-5.359 39.97,-12.656 l 31.76,76.641 c -7.19,2.797 -14.64,5.273 -22.71,7.082" /></g></g><g
         id="g222"><g
           clip-path="url(#clipPath228)"
           id="g224"><path
             id="path238"
             style="fill:url(#linearGradient236);fill-opacity:1;fill-rule:nonzero;stroke:none"
             d="m 1584.07,368.07 c -101.94,0 -183.51,-70.976 -183.51,-177.031 0,-24.844 4.63,-47.656 12.78,-68.203 33.48,-2.141 67.38,-4.063 101.61,-5.82 -19.31,19.004 -30.02,45.859 -30.02,74.023 0,52.578 37.28,101.094 99.14,101.094 61.79,0 99.04,-48.516 99.04,-101.094 0,-31.172 -13.09,-60.781 -36.46,-79.851 33.47,-1.223 67.26,-2.278 101.32,-3.157 12.35,24.121 19.44,52.012 19.44,83.008 0,106.055 -81.46,177.031 -183.34,177.031" /></g></g></g></g></svg>