<svg xmlns="http://www.w3.org/2000/svg" xml:space="preserve" viewBox="0 0 1231 178.5"><path fill="#00aaec" d="M68.5 163.2C24 139.4 0 93.3 0 31.6 0 19.3.5 18.5 9 17c10-1.8 47.4-.7 62.4 1.8l1.6.2v8h-3.6C56.7 27 47 28.5 45 30.8L43.7 32v11.3c.2 33.2 9 60.9 26 82l3.3 4-.1 18-.1 18zm6.5-31.6-1.8-1.9 2 1.8q2.4 2.2 1.6 2s-.9-.8-1.8-1.9m-.6-104.4h1.2q.5.2-.6.2t-.6-.2"/><path fill="#0e81cd" d="M108.1 177.2c-9-1.6-21.2-5.5-30-9.4l-4.9-2.2v-18l-.2-17.9 3.9 3.8a109 109 0 0 0 29.4 20.3l6.2 3v10.6c0 5.8-.2 10.6-.4 10.5zm519.7-31.6-13.4-.1.2-25.4.2-25.4 1.3-4.7c6-22.5 25.8-34.5 54.6-33.4 5.5.3 14.5 1.5 15.2 2l.1 7.5v7.2l-2.5 6.2c-3 7.5-2.4 6.9-5.6 5.3-11.6-5.7-25.4-1.7-30.6 8.8-3.6 7.5-4.3 13.5-4.3 35.8 0 15.5 0 16.6-.9 16.5zm-47.3-1.1-14.2-.4-4.9-.1 1.6-1.3c18.3-15.4 12-49.9-10.6-58.4-33-12.4-60.7 26-39.2 54.5l2.1 3-15.3-.8-16.8-1c-8.7-.1-7.4-37.6 1.8-53.7C522.3 21 625.2 70 598 139.9l-2 5.1h-3.2zM432 136.2l-13-1.1c-.6-.2.5-92.8 1.2-97.8 3-21.3 12.4-31.9 30.8-34.8 7.4-1.1 28-.4 28.8 1.1 1 1.5-1.5 24-2.5 23.7C456.5 22.3 448 29 448 51v8.6h27.5v24H448v54h-1.6zm-46.8-4.2-13-1.5c-.1 0-.2-4.3-.2-9.6 0-25.7-5.2-35.7-19.7-38.2q-27-4.8-28.1 33.2l-.3 9.1-1.6-.2-25.7-3.6c-2.1-.4-1.5-24.8 1-33 13-44 89.2-43 101.5 1.5 1 3.8 1.1 5.3 1.3 24l.2 19.8h-1.2zm-122.7-16-14.4-2.5-.1-51v-51h30V65c0 42.5-.1 53.5-.6 53.4-.4 0-7-1-14.9-2.4M110.2 30.5a383 383 0 0 0-34-3.3l-3.2-.3v-8l1.6.3c6.4 1 12.5 1.8 12.6 1.7 4.6-9.4 6.1-10.2 17.4-8.7l7 1c.8.4 1.6 18 .9 17.7z"/><path fill="#1277c6" d="m114.1 178.1-1.6-.2v-10.4c0-5.8 0-10.5.2-10.5l4.6 1.5c2.4.9 7 2.2 10 3l5.4 1.4.2 3.3.1 3.3-1.2-.3c-1.1-.3-1.4 0-2 1.6-3 6.9-6.4 8.5-15.7 7.3M701.3 145c-.1-.6-.3-27.6-.3-60V26h28.5v33.5H761v24h-31.5v27.9c0 23.4.1 28.4.8 30.8.9 3.6 3 3.1-14.1 3.5l-14.6.3zm75.7-24c0-39 4.8-50 25.8-59.5 13-5.9 44.3-6.5 50.4-1 2.3 2.2-10.4 25.7-13.1 24.3-11.4-5.7-25.3-1.6-30.5 9-3.4 6.8-3.7 9.5-4 30.6l-.2 19-5.6.4-14.2.6-8.6.3zm79.3 18.4a66 66 0 0 1 2.5-50.6c16.7-33.8 68.5-43.6 93.4-17.6 1.7 1.7 2.7 2.8 2.2 2.4-.9-.6-.9.7-.9 26.2v26.8H881v1.4c0 2 1.3 6.3 2.8 9.2l1.2 2.4h-1.6c-1 0-6.5.3-12.4.8-14.8 1-13.9 1-14.7-1m83.7-36.2c0-27.6-43-35.4-55.4-10-2 4-3.6 9-3.6 11.3v1.1h59zM686 65.8c0-4 .2-6.8.5-6.8.7 0 4.5 1.6 4.5 1.8 0 .3-4.6 11.4-4.8 11.7a53 53 0 0 1-.2-6.7M129.3 34.4c-1.7-.5-6-1.6-9.8-2.3l-6.8-1.4V22c-.2-8.1-.2-8.7.7-8.4l4.2 1c1.9.4 6.2 1.7 9.5 2.8l6.1 2-.1 8c0 4.4-.3 8-.5 8z"/><path fill="#1867ba" d="M173 173.7q.5-.3.9 0 .1.3-.7.3-.9 0-.3-.3m-10-.6c-4.9-.3-19.5-2-24.6-2.9l-5.4-.8V166c0-3 0-3.2 1.1-3 6.7 1.7 13.1 1.5 15.5-.5 4.2-3.5 11.4-25.9 15.2-47.1l1.4-8c.1-.4.2 14.3.2 32.6 0 26.5 0 33.4-.5 33.3zm539.1-27h1.5q.5.3-.9.3-1.2 0-.6-.2m-83.5-.5h2.5q.8.3-1.4.3-2 0-1-.3m-40.7-1h1.2q.5.3-.6.3t-.6-.2m201.2 0h1.5q.5.3-.9.3-1.2 0-.6-.2m-216.2-.4h1.2q.5.2-.6.2t-.6-.2m231.2 0q.9-.3 1.5 0t-.9.2q-1.2 0-.6-.2M508 141.7h1.2q.4.2-.6.2-1.1 0-.6-.2m-17.5-1q.6-.3 1 0 .1.3-.7.3-.9 0-.3-.3m-8.5-.5q.6-.3 1 0 .1.3-.7.3-.9 0-.3-.3m393.5 0q.6-.3 1 0 .1.3-.7.3-.9 0-.3-.3m8-.5q.6-.3 1 0 .1.3-.7.3-.9 0-.3-.3m103.7-9-1.6-.3V116c0-20 1-26.9 4.9-34.7 18-35.6 82.9-33 97.1 3.9 3 7.7 4.6 31.9 2 31.9q-.8 0-1.2.3c-.3.4-2.5.7-4.7.7q-1.2 0-1.7.3c-.6.4-2.7.7-4.8.7q-1.2 0-1.7.3c-.3.2-1.2.4-1.9.5a80 80 0 0 0-8.8 1.2c-2.5.7-2.6.5-2.8-7.6-.8-22.7-10.6-33.6-27.7-31-14.5 2.4-20.2 13-20.2 37.8 0 6.7 0 7.3-1 7.3q-.7 0-1.2.4t-2.2.4l-4.4.4-4.3.3c-1 0-2 .2-2.1.4q-.5.5-2.2.2t-2.3.3q-.4.5-2 .3t-2.6.1a6 6 0 0 1-2.6.3m-33.6-31c0-30.5-.4-28.6 4.2-21.8a67 67 0 0 1 10.6 38.5l.3 10.1h-15.1zm154.2 14.4c-3.2-.5 2-21.3 7.8-31.2 17.6-29.4 59.3-35.7 82.4-12.6 5 5 4.6 7.7 4.6-33.6V0h28.5v42.7c0 40.9 0 44.6-1 44q-.5-.1-1.8.4l-2.5.7-1.7.5-1.8.5-1.7.5-2 .6q-1.2.1-1.9.7-.5.5-.6.2a68 68 0 0 0-11.3 2.8 1 1 0 0 0-1 .4q-.2.3-1 .2-.5-.2-1 .3-.2.5-.8.2-.5-.2-1.2.3t-.7.3-1 .2c-.7.4-1.4-.1-4-2.8a34 34 0 0 0-56.8 12l-1.4 4.3-2.3.5a87 87 0 0 1-12.2 2.2l-3 .6-2 .5zM168.1 88q0-1.6.2-.9.3.9 0 1.8-.1.6-.2-.9m0-6.5q0-1.6.2-.9.3.9 0 1.8-.1.6-.2-.9m-2.8-17.3A46 46 0 0 0 135 36l-1.9-.6v-7.7q0-7.6.5-7.7c3.7 0 31.8 15.6 32.8 18.2.1.3.2 7 0 14.8v14.2zm8.1-20q-1-1.3.2-.3 1.3 1 .7 1.1z"/><path fill="#224ca6" d="m170.4 173.6-3.9-.1v-33.6c0-28.1.1-34.6.8-39.4 1.1-8 1.2-22.8 0-28.9-.6-3.6-.8-7.6-.8-18.9V38.4l1.4 1c9.5 6.8 21 20.1 29.1 33.5l3.2 5.4v47.9L200 174l-12.9-.1c-7 0-14.6-.2-16.7-.3m31 0 1 .1q.1.3-.7.3-.9 0-.3-.3"/><path fill="#1c4d9d" d="M532 176.7a61 61 0 0 1-48-31.9c-2.6-4.9-3.2-4.6 8.1-3.9l16.6 1 7 .3 2.3 1.8c10.8 9 28.7 10 40.5 2.2l2.7-1.8 15 .3c15.4.3 18.8.6 18.8 1.3 0 1-5.5 8.6-8.7 12a66 66 0 0 1-54.3 18.7m195.7-.4c-14.9-2.5-22.2-9-25.2-22.6-1.8-8-2.7-7.7 18.8-7.7h10l1.7 2c4.2 5.2 15.7 6.6 25.2 3l2.7-1 .1 11.7v11.6l-2.4.9a84 84 0 0 1-30.9 2.1m179.3.4a61 61 0 0 1-47.5-30.9c-2.6-4.8-3.7-4.2 9.5-5 15.3-1 16.4-1 16.8.2 5 16 37.2 17.5 52.8 2.5l4.6-4.4 10 7.5c11.6 8.8 11 7.1 4.4 13.5a61 61 0 0 1-50.6 16.6m247.3-.2c-28.2-4.5-45.6-25.2-47.6-56.6l-.3-5.3 2.2-.3c3-.4 24.4-4.3 25.7-4.6 1-.2 1 0 1 6.4 0 25.1 21.5 41.2 45 33.7 19.7-6.3 29-31.1 18.7-50.1l-2-3.6 1.7-.5 5.8-1.6a704 704 0 0 0 25.7-7c.7 0 .3 36.7-.5 41.3-5.6 32.4-39.2 53.9-75.4 48.2M248.5 144v-30l1.4.2a873 873 0 0 0 27 4.6l1.1.2v55h-29.5zm47 3.7c0-14.4.1-26.2.2-26.2l6.9 1 20.3 2.8 1.1.2V174h-28.5zm76.5 4.8v-21.6l1.9.3 12.6 1.3c6 .6 11.5 1.1 12.4 1.3l1.6.2v40H372zm47.5 2.2v-19.2l1.9.2c1 .2 6.3.6 11.8 1l12.2 1 2.1.4V174h-28zm195 5.2v-14.2l14.2.2 14.3.1v28h-28.5zm162.5-.4v-14.4l5.1-.3 14.3-.6 9.1-.3V174H777zm208.5-7v-21.3l12.6-1.4 14.3-1.6 1.6-.3V174h-28.5zm76.5-4.6v-26.2l12.9-2 14.2-2 1.4-.3V174H1062z"/><path fill="#283c9a" d="M200 126.4V78.7l2.7 5.5q14.5 30 14.5 71.4v13.3l-1.2 1.3q-2.3 2.5-9.9 3l-5 .6-1.1.2z"/></svg>