<svg viewBox="0 0 792 213" xmlns="http://www.w3.org/2000/svg"><path d="m116.5 94.4v74.2h-18.2v-69.2c0-6.6-1.2-11.5-3.6-14.6-2.4-3.2-6.1-4.7-11.2-4.7-3.9 0-8 1.1-12.2 3.3s-8.5 5.5-12.8 10v75.3h-17.9v-102.3h16.6v13.7c6-5.4 11.5-9.2 16.5-11.5s10.2-3.5 15.5-3.5c8.6 0 15.4 2.6 20.2 7.7 4.7 5 7.1 12.3 7.1 21.6m59.2-66.9v15c-4.3-.3-6-.5-7.5-.6-1.5-.2-2.9-.2-4-.2-4.2 0-7.1 1-8.9 2.9s-2.7 5.2-2.7 9.7v12.1h22.4v15.3h-22.3v87h-18v-116.9c0-8.4 2.2-14.7 6.6-19.1s10.8-6.6 19.2-6.6c1.7 0 3.7.1 5.9.4 2.1.1 4.5.5 9.3 1m45.7 37.1c13.3 0 23.7 4.5 31.1 13.6s11.1 21.8 11.1 38.2-3.7 29.2-11.1 38.3-17.7 13.7-31.1 13.7c-13.3 0-23.7-4.6-31.2-13.7-7.4-9.1-11.2-21.9-11.2-38.3s3.7-29.1 11.2-38.2 17.9-13.6 31.2-13.6m0 15.7c-7.8 0-13.7 3.1-17.7 9.2s-6 15.1-6 27c0 12 2 21 6 27.2s9.9 9.2 17.7 9.2c7.7 0 13.6-3.1 17.6-9.2 4-6.2 6.1-15.2 6.1-27 0-11.9-2-21-6-27.1-4-6.3-9.9-9.3-17.7-9.3m159.1-54h17.9v142.4h-17.9zm-376.3 0h17.9v142.4h-17.9zm293.9 142.4v-11.1c2.9 3.2 6.1 5.7 9.6 7.4 4.4 2.2 9.4 3.3 15 3.3 12.6 0 22.4-4.6 29.4-13.8s10.6-22.1 10.6-38.6c0-15.7-3.6-28.1-10.9-37.3s-17-13.8-29.3-13.8c-5 0-9.5 1.1-13.7 3.2-4.1 2.1-7.7 5.2-10.8 9.3v-51h-17.9v142.4zm39.8-24.8c-4.2 6.2-10.2 9.3-18 9.3-4.1 0-7.9-1-11.5-3.1s-7.1-5.2-10.4-9.3v-48.9c3.3-4 6.7-7.1 10.2-9.1s7.2-3 11-3c8.2 0 14.3 3.2 18.6 9.5 4.2 6.4 6.3 15.6 6.3 27.8.1 11.7-2 20.5-6.2 26.8m120.1-79.3c13.3 0 23.7 4.5 31 13.6 7.4 9.1 11.1 21.8 11.1 38.2s-3.7 29.2-11.1 38.3-17.7 13.7-31 13.7-23.7-4.6-31.1-13.7-11.2-21.9-11.2-38.3 3.7-29.1 11.2-38.2c7.4-9.1 17.7-13.6 31.1-13.6m0 15.7c-7.8 0-13.7 3.1-17.7 9.2s-6 15.1-6 27c0 12 2 21 6 27.2s9.9 9.2 17.7 9.2c7.7 0 13.6-3.1 17.6-9.2 4.1-6.2 6.1-15.2 6.1-27 0-11.9-2-21-6-27.1-4-6.3-10-9.3-17.7-9.3m48.1-15.7h20.7l18.9 34.3 19.1-34.3h19.6l-28.7 49.2 32.4 54.2h-20.9l-21.9-40.3-22.1 40.3h-19.8l32.2-54.2z" fill="#010101"/><path d="m648 95.4-30.6-23c-.9-.7-1.4-1.5-1.4-2.3s.5-1.7 1.4-2.3l30.6-23c2.3-1.8 6.4-1.8 8.8 0l30.6 23c.9.7 1.4 1.5 1.4 2.3s-.5 1.7-1.4 2.3l-30.6 23c-2.3 1.7-6.4 1.7-8.8 0" fill="#9cce6f"/><path d="m648 169.6-30.6-23c-.9-.7-1.4-1.5-1.4-2.3s.5-1.7 1.4-2.3l30.6-23c2.3-1.8 6.4-1.8 8.8 0l30.6 23c.9.7 1.4 1.5 1.4 2.3s-.5 1.7-1.4 2.3l-30.6 23c-2.3 1.8-6.4 1.8-8.8 0" fill="#5ecde2"/><path d="m697.5 58.4-30.6-23c-.9-.7-1.4-1.5-1.4-2.4 0-.8.5-1.6 1.4-2.3l30.6-23c2.4-1.8 6.5-1.8 8.8 0l30.6 23c.9.7 1.4 1.5 1.4 2.3s-.5 1.7-1.4 2.4l-30.6 23c-2.3 1.8-6.4 1.8-8.8 0" fill="#f4eb5a"/><path d="m697.5 132.7-30.6-23c-.9-.7-1.4-1.5-1.4-2.3s.5-1.7 1.4-2.3l30.6-23c2.4-1.8 6.5-1.8 8.8 0l30.6 23c.9.7 1.4 1.5 1.4 2.3s-.5 1.7-1.4 2.3l-30.6 23c-2.3 1.7-6.4 1.7-8.8 0" fill="#4bc5b9"/><path d="m697.5 208.2-30.6-23c-.9-.7-1.4-1.5-1.4-2.4 0-.8.5-1.7 1.4-2.3l30.6-23c2.4-1.8 6.5-1.8 8.8 0l30.6 23c.9.7 1.4 1.5 1.4 2.3s-.5 1.7-1.4 2.4l-30.6 23c-2.3 1.8-6.4 1.8-8.8 0" fill="#0081c3"/><path d="m747 95.4-30.6-23c-.9-.7-1.4-1.5-1.4-2.3s.5-1.7 1.4-2.3l30.6-23c2.3-1.8 6.4-1.8 8.8 0l30.6 23c.9.7 1.4 1.5 1.4 2.3s-.5 1.7-1.4 2.3l-30.6 23c-2.3 1.7-6.5 1.7-8.8 0" fill="#71c14e"/><path d="m747 169.6-30.6-23c-.9-.7-1.4-1.5-1.4-2.3s.5-1.7 1.4-2.3l30.6-23c2.3-1.8 6.4-1.8 8.8 0l30.6 23c.9.7 1.4 1.5 1.4 2.3s-.5 1.7-1.4 2.3l-30.6 23c-2.3 1.8-6.5 1.8-8.8 0" fill="#009cd8"/></svg>