<svg xmlns="http://www.w3.org/2000/svg" viewBox="0 0 792 213"><path fill="#010101" d="M116.5 94.4v74.2H98.3V99.4q0-10-3.6-14.6-3.6-4.7-11.2-4.7-5.9 0-12.2 3.3a41 41 0 0 0-12.8 10v75.3H40.6V66.4h16.6v13.7q9-8 16.5-11.5c7.5-3.5 10.2-3.5 15.5-3.5q13 0 20.2 7.7 7 7.6 7.1 21.6m59.2-66.9v15l-7.5-.6-4-.2q-6.2 0-8.9 2.9c-2.7 2.9-2.7 5.2-2.7 9.7v12.1H175v15.3h-22.3v87h-18V51.8q0-12.5 6.6-19.1c6.6-6.6 10.8-6.6 19.2-6.6q2.6 0 5.9.4c2.1.1 4.5.5 9.3 1m45.7 37.1q20 0 31.1 13.6c11.1 13.6 11.1 21.8 11.1 38.2s-3.7 29.2-11.1 38.3-17.7 13.7-31.1 13.7a38 38 0 0 1-31.2-13.7Q179.1 141 179 116.4c-.1-24.6 3.7-29.1 11.2-38.2s17.9-13.6 31.2-13.6m0 15.7q-11.7 0-17.7 9.2c-6 9.2-6 15.1-6 27q0 18 6 27.2c6 9.2 9.9 9.2 17.7 9.2q11.6 0 17.6-9.2a50 50 0 0 0 6.1-27q0-17.9-6-27.1-6-9.4-17.7-9.3m159.1-54h17.9v142.4h-17.9zm-376.3 0h17.9v142.4H4.2zm293.9 142.4v-11.1a32 32 0 0 0 24.6 10.7q18.9 0 29.4-13.8c10.5-13.8 10.6-22.1 10.6-38.6q0-23.5-10.9-37.3c-10.9-13.8-17-13.8-29.3-13.8A30 30 0 0 0 298 77.3v-51h-17.9v142.4zm39.8-24.8a20 20 0 0 1-18 9.3q-6.1 0-11.5-3.1a31 31 0 0 1-10.4-9.3V91.9q5-6 10.2-9.1c5.2-3.1 7.2-3 11-3a21 21 0 0 1 18.6 9.5 51 51 0 0 1 6.3 27.8 47 47 0 0 1-6.2 26.8M458 64.6q20 0 31 13.6t11.1 38.2c0 24.6-3.7 29.2-11.1 38.3s-17.7 13.7-31 13.7-23.7-4.6-31.1-13.7-11.2-21.9-11.2-38.3 3.7-29.1 11.2-38.2A38 38 0 0 1 458 64.6m0 15.7q-11.7 0-17.7 9.2c-6 9.2-6 15.1-6 27q0 18 6 27.2c6 9.2 9.9 9.2 17.7 9.2q11.6 0 17.6-9.2a49 49 0 0 0 6.1-27q0-17.9-6-27.1-6-9.4-17.7-9.3m48.1-15.7h20.7l18.9 34.3 19.1-34.3h19.6l-28.7 49.2 32.4 54.2h-20.9l-21.9-40.3-22.1 40.3h-19.8l32.2-54.2z"/><path fill="#9cce6f" d="m648 95.4-30.6-23q-1.4-1-1.4-2.3c0-1.3.5-1.7 1.4-2.3l30.6-23a8 8 0 0 1 8.8 0l30.6 23q1.4 1 1.4 2.3c0 1.3-.5 1.7-1.4 2.3l-30.6 23a8 8 0 0 1-8.8 0"/><path fill="#5ecde2" d="m648 169.6-30.6-23q-1.4-1-1.4-2.3c0-1.3.5-1.7 1.4-2.3l30.6-23a8 8 0 0 1 8.8 0l30.6 23q1.4 1 1.4 2.3c0 1.3-.5 1.7-1.4 2.3l-30.6 23a8 8 0 0 1-8.8 0"/><path fill="#f4eb5a" d="m697.5 58.4-30.6-23q-1.4-1-1.4-2.4 0-1.2 1.4-2.3l30.6-23a8 8 0 0 1 8.8 0l30.6 23q1.4 1 1.4 2.3c0 1.3-.5 1.7-1.4 2.4l-30.6 23a8 8 0 0 1-8.8 0"/><path fill="#4bc5b9" d="m697.5 132.7-30.6-23q-1.4-1-1.4-2.3c0-1.3.5-1.7 1.4-2.3l30.6-23a8 8 0 0 1 8.8 0l30.6 23q1.4 1 1.4 2.3c0 1.3-.5 1.7-1.4 2.3l-30.6 23a8 8 0 0 1-8.8 0"/><path fill="#0081c3" d="m697.5 208.2-30.6-23q-1.4-1-1.4-2.4t1.4-2.3l30.6-23a8 8 0 0 1 8.8 0l30.6 23q1.4 1 1.4 2.3c0 1.3-.5 1.7-1.4 2.4l-30.6 23a8 8 0 0 1-8.8 0"/><path fill="#71c14e" d="m747 95.4-30.6-23q-1.4-1-1.4-2.3c0-1.3.5-1.7 1.4-2.3l30.6-23a8 8 0 0 1 8.8 0l30.6 23q1.4 1 1.4 2.3c0 1.3-.5 1.7-1.4 2.3l-30.6 23a8 8 0 0 1-8.8 0"/><path fill="#009cd8" d="m747 169.6-30.6-23q-1.4-1-1.4-2.3c0-1.3.5-1.7 1.4-2.3l30.6-23a8 8 0 0 1 8.8 0l30.6 23q1.4 1 1.4 2.3c0 1.3-.5 1.7-1.4 2.3l-30.6 23a8 8 0 0 1-8.8 0"/></svg>