<svg xmlns="http://www.w3.org/2000/svg" viewBox="0 0 1137 288.3"><path d="M578.2 221.4C496.9 206.7 492.9 82.3 573 61c57.3-15.3 108.5 29 102.4 88.4-5.2 50.8-46.3 81.3-97.2 72.1m31.6-19.9c60.2-12.7 59.9-109.5-.5-122-34.6-7-64.5 11.9-71.4 45-10 49 25.4 86.9 71.9 77m448.2 20q-43-7-40-21.6c1.6-7.2 8-8.4 20.2-4 32.3 11.8 67.5 8.2 75.6-7.8 9-17.8 0-26.9-36.3-36-25.4-6.6-38.7-12.3-47-20.2-19.7-19-11.6-54.7 15.3-66.9 34.7-15.7 102.6-1.4 81.7 17.3-3.7 3.3-3.3 3.3-18.5-.7-36.6-9.7-68 .4-68 21.9.1 14 8.2 19.5 40.5 27.5 43.3 10.7 55.5 20.9 55.5 46.5 0 32.8-33.3 51.4-79 44m-711.7-1c-6-3.3-5.8-1-5.8-76.8 0-83.6-.2-82.2 13.4-84.2 12.3-1.9 9.7-5 61.7 70.3l43.4 62.7.5-63.7.5-63.6 2.4-2.6q5-5.3 11.9-2c6.5 3.3 6.2-.1 6.2 78.5v71.6l-2.2 3.3c-6.7 9.7-19.3 10.8-27 2.2a3198 3198 0 0 1-45.8-65.1L363 89.6l-.5 62.5c-.5 69.3-.2 66.4-7.2 68.8-4 1.4-5.7 1.3-9-.5m370.6-.5c-1.2-.4-3-2-4.2-3.5l-2.2-2.8v-73.2c0-82.5-.5-76.8 7.7-79.6 5.5-1.8 59.3-.6 69.3 1.6 84.6 18.3 77.6 147-8.5 157.4-10.5 1.3-59 1.4-62 .1m65.1-21c49-11.5 61.6-80 20-108-12.9-8.5-25-11-53.7-11h-16.8v121.2l22.8-.5c12.5-.3 25-1 27.7-1.7m107 21c-1.3-.4-3.2-2-4.3-3.5l-2.2-2.8v-73.2c0-92.4-8.5-80.7 58.9-80.3l47.3.3 2.9 3.3c4 4.4 4 9.3 0 13.3l-3 2.9h-85.1v50h35.8c21.4 0 37.2.4 39.4 1 7.8 2.2 10.4 10.6 4.9 16l-3 3h-77.1v51h85.2l2.9 3c5.2 5.2 3.3 13.4-3.7 16-3.1 1.2-96 1.2-99 0"/><path fill="#097890" d="M7.5 286.2C-.7 281.7 0 296 0 144 0 9.2 0 9.2 2 6.3 7-.5-3.2 0 143.4 0 288.6 0 280-.4 284.6 6.1l2.4 3.4v134.7c0 152 .8 137.8-7.6 142-5.4 2.8-266.6 2.8-271.9 0m46-59.7c1.6-.8 4-3 5.2-4.7l2.3-3.3v-73.7c0-72.8 0-73.7-2-76.4-7-9.4-18-9.4-25 0-3 4.2-3.2 148.3 0 153 4.1 6.2 13 8.5 19.5 5.1m138.8-.4C289 206 273.8 61 175 61 72.5 61 62.2 210.5 163.5 227.3c6.6 1.1 20.3.5 28.8-1.2M166 198a54 54 0 0 1-29-91.6c43.1-43 113.5 7.6 86.6 62.3A56 56 0 0 1 166 198"/></svg>