<svg xmlns="http://www.w3.org/2000/svg" xml:space="preserve" viewBox="-153 -46 652 192"><path fill="#ff9e16" d="M-127 7.2h42.7V93H-127Zm0-32.7h42.7v22.4H-127Zm108.8 75.8q0 10.2 5.6 15.1t14.1 4.9q7.5 0 12.5-4.7t5-16q0-10.3-5.3-15.3A18 18 0 0 0 .9 29.4q-8.2 0-13.6 4.9t-5.5 16M-61 125.5V7.2h40v12.7A51 51 0 0 1-5.8 9.1a55 55 0 0 1 20.7-3.8 45 45 0 0 1 34.6 13.2A46 46 0 0 1 61.7 51q0 21.5-13.3 32.7A51 51 0 0 1 14.7 95q-9.9 0-18-2.6a44 44 0 0 1-14.5-7.7v40.8z"/><path fill="#0f2558" d="M78.3 31h10.2v49.9H78.3Zm0-19h10.2v9.7H78.3Zm35.6 68.9V53.6q0-9.6 4.7-13t11.2-3.4q4 0 7.1 1.5c3.1 1.5 3.4 2.4 4.2 4.1a19 19 0 0 1 1.2 7.7v30.4h10.2V50.2q0-5.9-.6-8.2-1-3.6-3.2-6.3a16 16 0 0 0-6.8-4.3q-4.5-1.6-10-1.6-12.5 0-19.1 8.2v-7.1h-9.1v49.9h10.2zm66.5 0V37.6h11.7V31h-11.7v-4.6q0-4.5 1.9-6.2 2-1.6 6.5-1.6 2.8 0 6 .5l1.5-7.4q-5.2-.8-9.5-.8-6.6 0-10.3 2a12 12 0 0 0-5.2 5.3q-1 2.4-1.1 7.5V31h-9v6.6h9v43.3zm67.8 0V31h-10.1v26.7a23 23 0 0 1-1.7 9.8q-1.6 3.3-5.7 5.3t-8.6 2-7.7-1.9a9 9 0 0 1-4.1-5.2q-.6-2.3-.6-8.9V31.1h-10.2V62q0 5.4.6 7.9.9 3.8 3.1 6.3t6.8 4.3 9.9 1.7q12 0 19-8.5V81zM260 66a18 18 0 0 0 7.8 12q6.1 4 17.8 4 7 0 12.6-2t8.5-5.8q3-3.7 3-8t-2.4-7.2a15 15 0 0 0-6.7-4.4q-4.3-1.5-15-3.9-7.5-1.6-9-2.2a8 8 0 0 1-3.9-2.3 4 4 0 0 1-1.2-3q0-2.6 3-4.5 3-2 10-1.9 6 0 9.2 2.2a8 8 0 0 1 3.9 6l9.9-1.1q-1-4.8-3.5-7.7a17 17 0 0 0-7.9-4.6 42 42 0 0 0-21.2-.7q-4.1 1-6.5 2.5a15 15 0 0 0-5 4.7 12 12 0 0 0 .4 12.9q2.3 3 6.5 4.7t15.5 4.1q8.3 1.8 10.4 2.9 3 1.6 3 4.5 0 3.2-3.4 5.6a18 18 0 0 1-10.4 2.4q-6.9 0-10.8-2.7a11 11 0 0 1-4.7-7.7zm61.7-35h10.2v49.9h-10.2zm0-19h10.2v9.7h-10.2zm32.2 44q0 9.6 5 14.4t12.6 4.8c7.6 0 9.2-1.6 12.6-4.8q5-4.8 5-14.6 0-9.3-5-14-5-4.8-12.6-4.8c-7.6 0-9.3 1.6-12.6 4.7q-5 4.7-5 14.3m-10.5 0q0-13.8 9.3-20.5a31 31 0 0 1 18.8-5.5q12.3 0 20.2 6.7a23 23 0 0 1 7.8 18.6q0 9.6-3.5 15.2a23 23 0 0 1-10.1 8.6q-6.6 3-14.5 3.1-12.6 0-20.3-6.7a25 25 0 0 1-7.7-19.5m78.1 24.9V53.6q0-9.6 4.7-13t11.2-3.4q4 0 7.1 1.5c3.1 1.5 3.4 2.4 4.2 4.1a19 19 0 0 1 1.2 7.7v30.4h10.2V50.2q0-5.9-.6-8.2-1-3.6-3.2-6.3a16 16 0 0 0-6.8-4.3q-4.5-1.6-10-1.6-12.5 0-19.1 8.2v-7.1h-9.1v49.9h10.2zm42.9-51.2v-8.6h2.7l1.6 5.9 1.6-5.9h2.7v8.6h-1.7v-6.9l-1.9 6.9h-1.6l-1.9-6.9v6.9zm-5.4 0v-7.2h-2.7V21h7v1.5h-2.6v7.1z"/></svg>