<svg xmlns="http://www.w3.org/2000/svg" viewBox="0 0 422.6 41.8"><g fill="#393939"><path d="M58.2.5v40.9H109v-8.7H67.4v-7.4h41.4v-8.7H67.4V9.1H109V.5z"/><use href="#a"/><use x="115.9" href="#a"/><path d="M289.7.5v8.6H310v32.3h9.1V9.1h20.4V.5zm56.7 0h9.2v40.9h-9.2zM215.7.5v28.9L183.3.5h-9.2v40.9h9.2V12.5l32.4 28.9h9.1V.5zM33.4 17.1 51 .5H37L20.8 16.3H9.2V.5H0v40.9h9.2V25.5h16.2q10.2 0 14 4.4a10 10 0 0 1 2.2 6.9v4.6h9.2v-4.6q0-7.6-4.4-12.8a22 22 0 0 0-13-6.9M407 27.6l-.3.3c-2.9 3.1-8.5 5.2-16.3 5.2-7.3 0-12.7-1.8-15.7-4.6l-.6-.6q-2.4-2.7-2.5-7c-.1-4.3.8-5.2 2.5-7l.6-.6c3-2.7 8.4-4.6 15.7-4.6 7.8 0 13.4 2.1 16.3 5.2l.2.3 8.4-4.1-1.9-2.5q-7-7.5-23-7.6t-23.1 7.7q-4.9 5.4-5 13.3c-.1 7.9 1.7 9.8 5 13.3q7.1 7.7 23.1 7.7t23.1-7.7l1.9-2.5z"/></g><defs><path id="a" d="M116.2.5v40.9h50.7v-8.7h-41.6v-7.4h41.4v-8.7h-41.4V9.1h41.6V.5z"/></defs></svg>