<?xml version="1.0" encoding="utf-8"?>
<!-- Generator: Adobe Illustrator 24.1.0, SVG Export Plug-In . SVG Version: 6.00 Build 0)  -->
<svg version="1.1" id="Livello_1" xmlns="http://www.w3.org/2000/svg" xmlns:xlink="http://www.w3.org/1999/xlink" x="0px" y="0px"
	 viewBox="0 0 198.5 47.6" style="enable-background:new 0 0 198.5 47.6;" xml:space="preserve">
<style type="text/css">
	.st0{fill:url(#bottom-3_1_);}
	.st1{fill:url(#middle-3_1_);}
	.st2{fill:url(#top-3_1_);}
	.st3{fill:url(#K-3_1_);}
	.st4{fill:url(#Y-3_1_);}
	.st5{fill:url(#M-3_1_);}
	.st6{fill:url(#A-5_1_);}
	.st7{fill:url(#T-3_1_);}
	.st8{fill:url(#A-6_1_);}
</style>
<g id="Logo_Kymata_Mini" transform="translate(40.873 447.086)">
	<g id="Pittogramma-3" transform="translate(26.839)">
		
			<linearGradient id="bottom-3_1_" gradientUnits="userSpaceOnUse" x1="-106.0946" y1="162.1825" x2="-106.0946" y2="161.1825" gradientTransform="matrix(27.72 0 0 -9.094 2924.4241 1043.7723)">
			<stop  offset="0" style="stop-color:#1D2A33"/>
			<stop  offset="0.345" style="stop-color:#2D3D47"/>
			<stop  offset="1" style="stop-color:#556D7B"/>
		</linearGradient>
		<path id="bottom-3" class="st0" d="M-26.2-427.6L-26.2-427.6l-1.3-1.2l-2.9,2.9l3.9,3.9c3.4-3.6,7-5.4,10.7-5.4
			c3.5,0,7.1,1.7,10.5,5.1l2.6-2.7c-3.7-4-8.3-6.1-13.1-6.1C-19.5-431.1-23.2-429.9-26.2-427.6"/>
		
			<linearGradient id="middle-3_1_" gradientUnits="userSpaceOnUse" x1="-106.0846" y1="156.0407" x2="-106.0846" y2="155.0407" gradientTransform="matrix(38.276 0 0 -12.814 4045.0732 1560.8602)">
			<stop  offset="0" style="stop-color:#2DABE3"/>
			<stop  offset="0.271" style="stop-color:#2DABE3"/>
			<stop  offset="0.5" style="stop-color:#1CA1DC"/>
			<stop  offset="0.922" style="stop-color:#1366AF"/>
			<stop  offset="1" style="stop-color:#1366AF"/>
		</linearGradient>
		<path id="middle-3" class="st1" d="M-34.6-430l4.2,4.1l2.9-3l-1.4-1.4c8.6-6.6,20.1-6.4,28.7,2.6l3.9-3.9l-2.9-2.8l-1.2,1.2
			c-0.9-1.3-7.5-5.7-15.8-5.7C-21.9-438.6-28.5-436.6-34.6-430"/>
		
			<linearGradient id="top-3_1_" gradientUnits="userSpaceOnUse" x1="-106.0795" y1="154.1046" x2="-106.0795" y2="153.1046" gradientTransform="matrix(47.637 0 0 -14.711 5037.2808 1820.8619)">
			<stop  offset="0" style="stop-color:#1D2A33"/>
			<stop  offset="0.345" style="stop-color:#2D3D47"/>
			<stop  offset="1" style="stop-color:#556D7B"/>
		</linearGradient>
		<path id="top-3" class="st2" d="M-39.8-435.3l2.7,2.7c5.6-6.1,13.5-9.6,21.7-9.7c6.5,0,12.7,2.4,17.5,6.7l0,0l-1.3,1.3l2.8,2.7
			l4.1-4.2c-5.6-6.4-15-10.5-24.1-10.5C-22.6-446.2-31.7-444.3-39.8-435.3"/>
	</g>
	<g id="Logotype-3" transform="translate(0 27.038)">
		
			<linearGradient id="K-3_1_" gradientUnits="userSpaceOnUse" x1="-79.2522" y1="124.4696" x2="-79.2522" y2="123.4696" gradientTransform="matrix(30.593 0 0 -18.356 2400.0132 1838.5947)">
			<stop  offset="0" style="stop-color:#1D2A33"/>
			<stop  offset="0.345" style="stop-color:#2D3D47"/>
			<stop  offset="1" style="stop-color:#556D7B"/>
		</linearGradient>
		<path id="K-3" class="st3" d="M-12.3-446.2v1.5c0,3.4-2.7,6.1-6.1,6.1c0,0,0,0,0,0h-18.4v-7.6h-3.1v18.4h3.1v-7.6h18.4
			c3.4,0,6.1,2.7,6.1,6.1v1.5h3.1v-1.5c0-3.1-1.5-5.9-4.1-7.6c2.6-1.7,4.1-4.6,4.1-7.7v-1.5H-12.3z"/>
		
			<linearGradient id="Y-3_1_" gradientUnits="userSpaceOnUse" x1="-79.2512" y1="124.4702" x2="-79.2512" y2="123.4702" gradientTransform="matrix(31.607 0 0 -18.355 2515.2891 1838.4791)">
			<stop  offset="0" style="stop-color:#1D2A33"/>
			<stop  offset="0.345" style="stop-color:#2D3D47"/>
			<stop  offset="1" style="stop-color:#556D7B"/>
		</linearGradient>
		<path id="Y-3" class="st4" d="M21.1-446.2l-10.7,8l-10.7-8h-5.1l14.3,10.7v7.6h3.1v-7.6l14.3-10.7H21.1z"/>
		
			<linearGradient id="M-3_1_" gradientUnits="userSpaceOnUse" x1="-79.2506" y1="124.4696" x2="-79.2506" y2="123.4696" gradientTransform="matrix(32.12 0 0 -18.356 2591.6372 1838.5939)">
			<stop  offset="0" style="stop-color:#1D2A33"/>
			<stop  offset="0.345" style="stop-color:#2D3D47"/>
			<stop  offset="1" style="stop-color:#556D7B"/>
		</linearGradient>
		<path id="M-3" class="st5" d="M59.2-446.2l-13.1,11.7L33-446.2h-3v18.4h3.1V-442l13,11.6l13-11.6v14.2h3.1v-18.4H59.2z"/>
		
			<linearGradient id="A-5_1_" gradientUnits="userSpaceOnUse" x1="-79.2481" y1="124.4696" x2="-79.2481" y2="123.4696" gradientTransform="matrix(35.031 0 0 -18.356 2859.6733 1838.5939)">
			<stop  offset="0" style="stop-color:#1D2A33"/>
			<stop  offset="0.345" style="stop-color:#2D3D47"/>
			<stop  offset="1" style="stop-color:#556D7B"/>
		</linearGradient>
		<path id="A-5" class="st6" d="M83.5-443.1l8.1,9.2H75.5L83.5-443.1z M82.2-446.2L66-427.8h4.1l2.7-3.1h21.5l2.7,3.1h4.1
			l-16.2-18.4H82.2z"/>
		
			<linearGradient id="T-3_1_" gradientUnits="userSpaceOnUse" x1="-79.2522" y1="124.4696" x2="-79.2522" y2="123.4696" gradientTransform="matrix(30.591 0 0 -18.356 2535.615 1838.5939)">
			<stop  offset="0" style="stop-color:#1D2A33"/>
			<stop  offset="0.345" style="stop-color:#2D3D47"/>
			<stop  offset="1" style="stop-color:#556D7B"/>
		</linearGradient>
		<path id="T-3" class="st7" d="M95.9-446.2v3.1h13.8v15.3h3.1v-15.3h13.8v-3.1H95.9z"/>
		
			<linearGradient id="A-6_1_" gradientUnits="userSpaceOnUse" x1="-79.2481" y1="124.4696" x2="-79.2481" y2="123.4696" gradientTransform="matrix(35.0309 0 0 -18.356 2915.0212 1838.5939)">
			<stop  offset="0" style="stop-color:#1D2A33"/>
			<stop  offset="0.345" style="stop-color:#2D3D47"/>
			<stop  offset="1" style="stop-color:#556D7B"/>
		</linearGradient>
		<path id="A-6" class="st8" d="M138.9-443.1l8.1,9.2h-16.1L138.9-443.1z M137.5-446.2l-16.1,18.4h4.1l2.7-3.1h21.5l2.7,3.1h4.1
			l-16.1-18.4H137.5z"/>
	</g>
</g>
</svg>
