<svg xmlns="http://www.w3.org/2000/svg" viewBox="0 0 347.17374 55.728897"><path d="M121.86 1.24v7.122h11.408V54.7h7.53V8.362h11.357v-7.12zM0 1.24V54.7h32.93l19.015-38.516L70.19 54.7h14.264V17.73l32.48 36.97h2.632V1.24h-7.573v36.673L79.83 1.24H77V51.81L53.337 1.24h-2.952L27.023 50.725v-3.247H7.21V1.24zm242.345 0V54.7h7.344V17.853L282.167 54.7h2.404V1.24h-7.453v36.8l-32.23-36.8zm49.732-.12V54.7h7.183V1.12zM185.89 15.925c-.016-6.07-3.49-11.298-8.978-13.45-2.49-.976-3.597-1.086-12.73-1.26l-9.868-.187v7.203l9.544.23c10.963.267 12.416 1.347 13.777 4.212 1.034 2.482 1.006 5.615-.778 7.736-2.248 2.672-3.21 2.907-13.036 3.18l-8.987.25L179.05 54.7h8.5L169.3 30.724l2.656-.34c5.91-.757 10.293-3.147 12.373-7.635 1.048-2.266 1.567-4.204 1.56-6.824zM212.67 0a27.927 27.864 0 0 0-27.927 27.864A27.927 27.864 0 0 0 212.67 55.73a27.927 27.864 0 0 0 27.927-27.866A27.927 27.864 0 0 0 212.67 0zm0 6.778a21.024 21.086 0 0 1 21.024 21.086A21.024 21.086 0 0 1 212.67 48.95a21.024 21.086 0 0 1-21.023-21.086A21.024 21.086 0 0 1 212.67 6.778z" fill="#8f989d"/><path d="M313.294 1.232h-8.158l33.827 53.264h8.21zm33.88 0h-8.21l-33.828 53.264h8.158z" fill="#f25822"/></svg>