<svg xmlns="http://www.w3.org/2000/svg" viewBox="0 0 347.2 55.7"><path fill="#8f989d" d="M121.9 1.2v7.2h11.4v46.3h7.5V8.4h11.4V1.2zM0 1.2v53.5h33l19-38.5 18.2 38.5h14.3v-37l32.4 37h2.7V1.2H112V38L79.8 1.2H77v50.6L53.3 1.2h-3L27 50.7v-3.2H7.2V1.2zm242.3 0v53.5h7.4V17.9l32.5 36.8h2.4V1.2H277V38L245 1.2zm49.8 0v53.5h7.2V1.1zM185.9 15.8c0-6-3.5-11.3-9-13.4-2.5-1-3.6-1.1-12.7-1.3l-9.9-.2v7.2l9.6.3c11 .2 12.4 1.3 13.7 4.2 1 2.5 1 5.6-.7 7.7-2.3 2.7-3.3 3-13 3.2l-9 .2 24.1 31h8.5l-18.3-24 2.7-.3q9-1 12.3-7.7A15 15 0 0 0 186 16m26.7-16a28 27.9 0 0 0-28 27.9 28 27.9 0 0 0 28 27.8A28 27.9 0 0 0 240.6 28a28 27.9 0 0 0-28-27.9m0 6.8a21 21 0 0 1 21 21 21 21 0 0 1-21 21.2 21 21 0 0 1-21-21.1 21 21 0 0 1 21-21.1"/><path fill="#f25822" d="M313.3 1.2H305l34 53.3h8.2zm33.9 0H339l-34 53.3h8.2z"/></svg>