<svg xmlns="http://www.w3.org/2000/svg" viewBox="0 0 347.17374 55.911793"><path d="M121.86 1.432v7.12h11.408v46.34h7.53V8.55h11.357v-7.12zM0 1.432v53.46h32.93l19.015-38.518L70.19 54.89h14.264V17.92l32.48 36.97h2.632V1.433h-7.573v36.67L79.83 1.433H77v50.566L53.337 1.432h-2.952L27.023 50.914v-3.247H7.21V1.432zm242.345 0v53.46h7.344V18.04l32.478 36.85h2.404V1.43h-7.453V38.23L244.89 1.432zm49.732-.122v53.58h7.183V1.31zM212.984 0c-10.37-.09-20.64 5.488-25.557 15.747l-1.537 3.207v-2.838c0-6.07-3.49-11.297-8.978-13.45-2.49-.976-3.597-1.086-12.73-1.258l-9.868-.19v7.206l9.544.23c10.963.267 12.416 1.347 13.777 4.21 1.034 2.483 1.006 5.616-.778 7.737-2.248 2.673-3.21 2.908-13.036 3.18l-8.987.25 24.218 30.86h8.5L169.3 30.914l2.656-.34c5.91-.757 10.013-3.288 12.373-7.634.633-1.168 1.022-1.71.863-1.206-.724 2.302-.747 8.833-.044 12.163 2.153 10.19 10.26 18.625 20.476 21.308 5.837 1.533 15.075.483 20.177-2.294 5.217-2.838 10.012-7.965 12.418-13.275 1.815-4.004 2.456-7.237 2.41-12.163-.072-7.97-2.974-14.454-8.973-20.046C226.317 2.448 219.63.06 212.984 0zm-.314 7.265c3.01.01 6.54.857 9.4 2.288 5.804 2.906 11.096 10.034 11.096 18.662 0 3.687-1.09 7.768-2.892 10.845-2.33 3.973-7.503 7.833-12.033 8.975-7.6 1.916-14.96.02-20.177-5.197-6.138-6.138-7.73-15.79-3.946-23.914 3.428-7.362 10.86-11.682 18.553-11.66z" fill="#8f989d"/><path d="M313.294 1.627h-8.158l33.827 53.264h8.21zm33.88 0h-8.21L305.135 54.89h8.158z" fill="#f25822"/></svg>