<svg xmlns="http://www.w3.org/2000/svg" viewBox="-248 389 114 16"><path fill="#231f20" d="M-164.6 405h4v-5.2l7.2-10.8h-4.4l-4.6 7.3-4.6-7.3h-4.7l7.1 10.9zm-38.9-8 8.7-8h5.4l-8.7 8 8.7 8h-5.4zm-26.1-8h4.1v16h-4.1zm41.1 16h12.8c2.2 0 3.7-1.2 3.7-3.8V399q0-3.6-3.7-3.8h-9.6v-3h12.4V389h-12.6q-3.6 0-3.7 3.8v2q0 3.5 3.7 3.7h9.6v3.3h-12.6zm35.4 0h13.5q3.5 0 3.7-3.8V399q0-3.6-3.7-3.8h-9.6v-3h12.4V389h-12.7q-3.6 0-3.7 3.8v2q0 3.5 3.7 3.7h9.6v3.3h-13.2zm-94.9 0h15.9v-3.2h-11.8V389h-4.1zm25.6 0h3.7v-11.4l12.1 11.4h2.5v-16h-3.7v9.6l-10.1-9.6h-4.5zm87.4-15.8h-.4v1h-.2v-1h-.4v-.2h.9zm1.4-.2h-.2l-.4.9-.5-.9h-.2v1.2h.2v-.9l.4.8h.1l.4-.8v.8h.2z"/></svg>