<?xml version="1.0" encoding="UTF-8"?><svg id="Layer_1" xmlns="http://www.w3.org/2000/svg" viewBox="0 0 127.16 34.49"><defs><style>.cls-1{fill:#1c1819;}</style></defs><g><path class="cls-1" d="M39.57,7.18c-2.86,0-4.97,1.15-6.13,3.26v-2.83h-4.47V27.89h4.47v-10.78c0-3.66,1.24-6.29,4.7-6.29s3.83,2.68,3.83,5.43v11.65h4.47V15.17c0-4.83-1.99-7.99-6.88-7.99Z"/><polygon class="cls-1" points="67.32 7.62 61.95 7.62 54.46 15.76 54.46 .57 49.99 .57 49.99 27.89 54.46 27.89 54.46 21.41 56.61 19.11 62.96 27.89 68.19 27.89 59.58 15.95 67.32 7.62"/><path class="cls-1" d="M78.2,15.8l-2.87-.57c-1.77-.34-2.71-1.05-2.71-2.41s1.8-2.22,3.76-2.22c2.26,0,3.95,.72,4.44,2.56h4.21c-.83-4.06-4.44-5.98-8.39-5.98-4.36,0-8.24,2.3-8.24,5.86s2.67,5.2,6.09,5.92l3.05,.6c1.99,.42,3.5,1.13,3.5,2.79s-1.69,2.64-4.06,2.64c-2.67,0-4.14-1.15-4.54-3.26h-4.36c.49,3.8,3.8,6.67,8.76,6.67,4.59,0,8.57-2.34,8.57-6.56,0-3.96-3.12-5.24-7.22-6.03Z"/><path class="cls-1" d="M95.12,22.16l-4.58-14.55h-4.9l7.35,20.17-.23,.49c-.9,2.64-1.73,2.79-3.68,2.79h-1.69v3.43h2.01c4.55,0,5.87-1.4,7.79-6.63l7.11-20.24h-4.58l-4.58,14.55Z"/><path class="cls-1" d="M114.74,15.8l-2.87-.57c-1.77-.34-2.71-1.05-2.71-2.41s1.8-2.22,3.76-2.22c2.26,0,3.95,.72,4.44,2.56h4.21c-.83-4.06-4.44-5.98-8.38-5.98-4.36,0-8.24,2.3-8.24,5.86s2.67,5.2,6.09,5.92l3.05,.6c1.99,.42,3.5,1.13,3.5,2.79s-1.69,2.64-4.06,2.64c-2.66,0-4.14-1.15-4.54-3.26h-4.36c.49,3.8,3.8,6.67,8.76,6.67,4.59,0,8.58-2.34,8.58-6.56,0-3.96-3.12-5.24-7.22-6.03Z"/><polygon class="cls-1" points="4.78 .57 0 .57 0 27.89 18.5 27.89 18.5 23.86 4.78 23.86 4.78 .57"/><path class="cls-1" d="M23.28,0h0c-1.47,0-2.66,1.2-2.66,2.67,0,1.47,1.19,2.67,2.66,2.66,1.47,0,2.66-1.2,2.66-2.67,0-1.47-1.19-2.66-2.66-2.66Z"/><rect class="cls-1" x="21.06" y="7.62" width="4.45" height="20.28"/></g><path class="cls-1" d="M124.82,7.5c-1.31,0-2.34,1.01-2.34,2.37s1.03,2.37,2.34,2.37,2.34-1.01,2.34-2.37-1.03-2.37-2.34-2.37Zm0,4.38c-1.1,0-1.91-.85-1.91-2.01s.81-2,1.91-2,1.91,.85,1.91,2-.8,2.01-1.91,2.01Z"/><path class="cls-1" d="M125.5,9.95v-.02c.28-.1,.43-.31,.43-.6,0-.47-.41-.73-.9-.73h-1.21v2.51h.68v-.91h.33c.25,0,.37,.11,.39,.33,.03,.24,.04,.54,.11,.58h.67v-.05c-.1-.05-.06-.34-.12-.66-.05-.24-.14-.38-.37-.45Zm-.59-.24h-.42v-.57h.42c.25,0,.35,.1,.35,.28s-.12,.28-.35,.28Z"/></svg>