<svg xmlns="http://www.w3.org/2000/svg" viewBox="0 0 175 19.5"><defs><linearGradient id="a"><stop offset="0" stop-color="#e707e9"/><stop offset="1" stop-color="#00eba7"/></linearGradient><linearGradient id="b" x1="-.4" x2="22.4" y1="-31.1" y2="-17.1" gradientTransform="translate(4.3 39.7)" gradientUnits="userSpaceOnUse" href="#a"/></defs><path fill="#54009c" d="M164.2 6.3v13h1.8v-5.2h2.6l2.1 2.6 2.2 2.6h2.1l-2-2.6-2.1-2.6.6-.1q1.6-.2 2.1-1.4.5-.7.4-2.8c0-1.2 0-1.4-.3-2q-.3-.8-1.3-1.2l-.5-.3H168zm1.8 1.5h2.5c2.9 0 3 0 3.5.7.2.3.2.5.2 1.6 0 1.5-.1 1.8-.7 2.1-.3.2-.5.2-3 .3H166v-2.4Zm-12.7 5V6.3h9.1v1.5H155v4h6.6v1.5H155v4.5h7.4v1.5h-9zm-24.6 0V6.3h1.7l3.2 5 3.3 5v-10h1.8v13h-1.8l-3.2-5-3.3-5v10h-1.7zM120 6.3l-2.3 6.5-2.4 6.5h1.8l.7-2 .7-1.8h5.5l.3.8.7 1.9.4 1.1h1.8l-2.3-6.6-2.3-6.4h-1.3zm1.2 1.6c.1-.1.3.5 1.8 4.7l.5 1.4H119zm-16 5V6.2h1.7v11.5h7v1.5h-8.8zm-7.5-6.6q-1.5 0-1.3.2l-4.6 12.7.9.1h.9l.3-.8.6-2 .4-1h5.6l.5 1.4.7 2 .2.4h1.8l-2.4-6.6L99 6.3Zm0 1.5 2.2 6.1h-4.4l.4-1zm-17-1.5v13h7.4q1.8-.3 2.3-1.6c.2-.4.2-.7.3-1.8 0-1.9-.3-2.7-1.3-3.2l-.4-.2.3-.2c.8-.6 1-1.1 1-2.6q0-2.4-1.4-3l-.6-.4h-3.8zm1.8 1.5h2.3c2.6 0 3 0 3.4.6.5.7.5 2.4 0 3l-.5.3c-.3.1-.8.2-2.8.2h-2.4v-2Zm0 5.5H85c2.7.1 3 .1 3.5.6q.4.3.4 1.7.1 1.7-1 2c-.3.1-.7.2-2.9.2h-2.5v-2.2zm-14-7v13h7.3q1.5-.3 2.1-1.5l.3-.5V13l-.1-4.8a3 3 0 0 0-1.3-1.6l-.6-.3h-3.9zm1.7 1.5h2.6c2.4 0 2.6 0 2.9.2.8.5.8.9.8 5.1 0 2.9 0 3.4-.2 3.7l-.9.8c-.4.2-5 .3-5.2.2v-5zm-8-1.5h-2.7l-2.3 6.5-2.3 6.5h1.8l.7-1.9.6-1.9h5.6l.7 2 .7 1.8h1.8l-2.4-6.6zm-1.3 1.6 2.1 6a24 24 0 0 1-4.4 0zm-27.4 5V6.2h1.8v11.5h7v1.5h-8.8Zm110.1 6.5q-1.5-.2-2.1-1.5l-.2-.4V8.1l.2-.5q.3-.8 1.3-1.2c.4-.2.6-.2 3.5-.2h3l.7.3q.6.3.9.7.5.9.5 2v.4h-.6l-1 .1-.1-.4q-.1-1-.8-1.5l-2.6-.1c-3.5 0-3.4-.2-3.4 5.4 0 3.8 0 4 .6 4.4.4.4.8.5 2.9.5 1.8 0 2 0 2.4-.3q.8-.4.9-1.4v-.5l.7.1c1.1.1 1 0 1 .9q-.1 2-1.9 2.5a35 35 0 0 1-5.9.1M48.7 6.1c-1.2 0-2.5-.2-3.7.4q-1 .5-1.3 1.8v9q.5 1.8 2.3 2 2 .3 3.9.2c1 0 2.4 0 3.2-.9q.7-.9.7-2v-8q-.1-1.8-1.9-2.3-1.5-.2-3.2-.2m-1.1 1.5 3.6.2q1 .6.9 1.7l-.1 7.2c0 .7-.7 1-1.2 1.2h-2.5q-1.2.2-2.3-.3-.8-.7-.6-1.8V9q.1-1.2 1.3-1.3z"/><path fill="url(#b)" d="M12.6 14.6v-1.8H16v3.5h-3.4zM6.2 9.8V3.3h3.5v13H6.2Zm12.7 5v-5h-6.3V0H16v6.5h6.4v13H19zM0 13V6.5h3.5v13H0Z"/></svg>