<svg xmlns="http://www.w3.org/2000/svg" xml:space="preserve" viewBox="0 0 781.7 205.8"><path fill="#a3a2cf" d="M178.8 155.6c-2-.8-6.5-1.4-10-1.4h-12.2l-1.5-16.3-7-16.3-10.3.4c-8.4.4-10.9-.8-11.2-2-.2-1-.7-2-.2-1.3.6.7 7.4 1.4 18.4 1.7 23.4.8 21-.8 30.2 19.6l7.4 17zm-45.4-67.2c-.4-.7-5.4-11.7-11-24.4a127 127 0 0 0-11-21.7q-.5 1 0-1.2a38 38 0 0 1 1.8-5.5c.8-1.6 2.1-6.6 3.1-11s2-8.3 2.4-8.7 5.4 10 11.3 23.2l10.7 24-3.3 13.2c-2 8-3.5 12.8-4 12"/><path fill="#837bb4" d="m29.2 175.9-2-2.3 2.3 2q3.1 2.5 2 2.5-.6-.2-2.3-2.2m25-24-3-3.3 3.3 3c3 2.7 3.7 3.5 3 3.5a25 25 0 0 1-3.3-3.2m74.8 2.5c3.7-.2 9.8-.2 13.5 0s.2-.3-7.2-.3-10 .5-6.3.3m44.6 0q1.2-.3 1.9.1.3.6-1.3.6-1.8 0-.6-.6M144.3 139l-7.3-16.6c-.4-1 .8-1.2 5.3-1l5.7.3 6.9 15.5c8.2 18.5 8 17 1.5 17h-5.3zm-25.5-57.3A232 232 0 0 0 107.2 57l2.6-8.6 2.1-7.4 11 24.3 10.5 23.2-1.6 8.5c-.7 4.1-2 7.6-2.2 7.8s-5-10.2-10.8-23.1M118 12q0-3 .5-1.7c.2 1 .2 2.5 0 3.5q-.5 1.3-.5-1.8M94.5.5q1.3-.4 2.5 0 .9.5-1.2.5-2.2 0-1.3-.5"/><path fill="#675aa1" d="M141.3 154.4H131l-14-37-16.2-36.8 3.2-11.2c1.6-5.6 2.2-12 3.2-12.5 1.7-.9 4 8.3 11.7 24.9l10.7 22.9-2 7.3c-2.3 8.5-2 9.1 4 9.1h4.9l7.3 16.5 7.2 16.5 11.2.3 11 .3h-12c-6.5 0-15.5-.1-20-.3"/><path fill="#473087" d="M85.4 204.6C2.3 188.9-28.9 88.2 31.4 30.1c7-6.8 21.7-17.9 20-15.2a77 77 0 0 0 6 16l6.5 15-8.9 8.8C7.3 102.4 49.6 184 115.4 171.3l4-.8 7 15.7 7 15.7-7.5 1.7a129 129 0 0 1-40.5 1m9.3-52.7c-5.1-3.5-8-8.3-8-13.6 0-4 12.3-54.3 14.1-57.7.6-1 32 70.5 32 72.8 0 2.1-34.7.8-38.1-1.5"/><path fill="#41297c" d="m127 187.4-6.7-15.2c-.2-.4-1.2-1.6-.8-1.7l4.5-1.3c2.3-.7 8-3.2 12.7-5.7 4.6-2.4 8.5-4.3 8.7-4 .2 0 3.8 6.2 7.2 13.8s5.8 14.9 6.3 15.4c0 .1 3.3-1.4.6.2-2.4 1.5-21.9 13-26 13-.7 0-3.2-7-6.5-14.5M57.4 31c-4.1-9.2-7-15.9-5.9-16.5 4.5-2.4 3.4-1.9 8.3-4 6.3-3 17-6.6 17.4-6.2.2.2 2.6 7.4 6.4 15.9L90 35l-4.8 2c-3.7 1.4-15 5.4-21.4 8.9-.3.1-2.8-6.6-6.5-15"/><path fill="#382168" d="M157.3 185.9c-.8-1.8-3.8-8.8-6.9-15.5l-5.3-11 2.2-2.7c2.5-3 28-2.2 33-.1 8.5 3.5.2 18.3-17.2 30.4-4 2.8-4.2 2.7-5.8-1.1m-73.9-166a112 112 0 0 1-6.2-15.6c8.7-8.6 41.4-3.2 41.4 7 1 4.1-.3 7.6-3.6 18.6l-1.4 4.9h-12.1L90 35z"/><path fill="#010101" d="M311 121.1c-31.3-6.6-32.6-62.1-1.6-69 23-5.2 39.6 6.6 41.9 29.6 2.6 26.8-15.6 44.6-40.2 39.4m13-10c18.8-5.2 18.5-45-.3-50-13.2-3.5-23 7.2-23 25 0 18.3 9.8 28.7 23.3 25m57.8 8.4c-31-10.9-29.7-57.7 1.9-66.8 9.7-2.8 32-1.4 30.7 2-.3.7-.8 2.9-1.2 4.8-.6 3.3-.8 3.5-2.8 2.4-4.5-2.4-16.6-1.5-23.1 1.7-24.2 12.1-16 49 10.6 47.3 9-.6 8.9-.5 8.9-10.8v-9h-6c-5.5 0-5.8-.1-6.5-2.7l-1.1-4.5c-.5-1.6.5-1.8 13-1.8h13.6l-.3 17.8-.2 17.7-6.5 1.7a75 75 0 0 1-31 .2m192.3.5c-3.9-5-3.5-11 .7-9.8 25.5 7.5 34-8.3 11-20.1-29.4-15-23.2-39 10-39 12.2 0 12.3 0 10.8 5.8l-1 4.2-7.3-.6c-21.2-1.8-23.4 9.4-3.6 19.3 18 9 22.8 18.5 15.5 31-5 8.4-31.4 15.2-36 9.2M239.8 86V52h14v58h30.9l1 3.8c.6 2 1 4.3 1 5 0 1-5.3 1.2-23.4 1.2h-23.5Zm190 0V52l5.6.2 5.7.3 10.3 16c5.7 8.8 10.6 16 10.9 16s5.1-7.2 10.8-16l10.3-16 5.7-.3 5.7-.3V120h-12l-.3-22.8-.2-23-10 14.8-10 14.7-10-14.8a148 148 0 0 0-10.8-14.8c-.4 0-.7 10.3-.7 23v23h-11zm71 33.3c0-.4 5.8-15.6 12.8-33.8l12.8-33H542l12.8 33c7 18.2 12.8 33.4 12.8 33.8s-3 .7-6.8.7H554l-2.4-6.7-2.5-6.8-8.2-.3-8.2-.2-2-4.6c-1-2.5-2-4.7-2-5s3.7-.4 8-.4c4.5 0 8-.4 8-.9A206 206 0 0 0 534.4 67c-.8 0-3 6-16 42.4l-3.8 10.7h-6.8c-3.8 0-7-.3-7-.7m131.7-28.5-.2-29.3-10.1-.2L612 61l1-4.5 1-4.5h52l-.7 3.8c-1 5.3-.8 5.2-10.6 5.2h-9v59h-12.9zm41.3-4.8v-34h22c20.6 0 22 .2 21.6 1.8l-1.2 4.5-.6 2.7-14.2.3-14.1.2-.3 9.3-.3 9.2h24v10h-24v20h28.8l.7 3.6 1.2 5c.5 1.2-2.8 1.4-21.5 1.4h-22.1Zm52 0v-34h15c17.2 0 23.8 1.2 28.1 4.8 9.5 8 7 23.9-4.6 28.2l-3 1.1 3 1.8c4.2 2.6 6 5 8.3 10.6 1 2.8 3.6 8.8 5.6 13.3l3.5 8.3-7.1-.3-7.2-.3-4.1-10.5c-6-15-7-16.3-14.5-17.2-2-.2-2.7-1-3.6-4.8l-1.1-4.5 5.1-.5c18.6-1.8 16.6-19.7-2.4-20.8l-8-.4V120h-13z"/></svg>