<svg xmlns="http://www.w3.org/2000/svg" viewBox="0 0 1024 238"><path fill="#154a9a" d="M0 157V77h71l8 15 47 83c1 3 0 4 12-17l40-70 6-11h70v161h-46l-1-57v-57l-2 5-16 27-36 64-10 18h-32l-1-2-63-112v114H0zm278 81 33-66 45-86 4-9h61l1 2 47 87 38 70 1 2H378l9-20 9-19h38l-3-5-41-78-30 61-31 61h-52m253-81V77h47v161h-47zm77 42v-38h133l3-2c15-7 15-35-1-42l-3-1-66-1h-66V77h74c81 0 77 0 86 3 26 9 38 38 32 77q-6 30-35 41c-8 2-11 2-62 2l-48-1v39h-47zm251 38q-27-8-34-34l-1-5V77h46v104l1 3q4 9 13 13l3 2h74l3-1q10-5 13-16l1-54V77h46v121l-1 5q-7 25-33 33l-3 2H863zM548 61c-16-3-27-20-24-37 6-26 41-33 56-10 15 22-5 52-32 47"/></svg>