<svg xmlns="http://www.w3.org/2000/svg" preserveAspectRatio="xMidYMin" viewBox="0 0 113.1 22.1"><path fill="#c01818" d="m56.5 14.4-3-1.8-.2.4a3 3 0 0 1-2.7 1.6c-2 0-3.4-1.5-3.4-3.5s1.5-3.4 3.4-3.4q1.7 0 2.7 1.6l.2.4 3-1.8-.3-.4q-2-3-5.6-3a6.7 6.7 0 1 0 0 13.3q3.6 0 5.6-3zm-.2 3.4h4.1l1.2-3h6.1l1.3 3h4L65.9 0H62l1 2.4zM64.7 7l1.7 4.1H63zm10 10.7h3.6v-8h2.3V6.6h-2.3V5q0-1.2 1.3-1.4.7 0 1 .2l.4.1L82.5.7l-.4-.2Q80.9.2 79.9.2a5 5 0 0 0-4 1.5A5 5 0 0 0 74.8 5v1.5h-1.5v3.3h1.5zM38.2 7.6v10.2H42V0l-7.7 5.8L26.8 0v17.8h3.8V7.6l3.8 2.8zm50.5-3.1a6.6 6.6 0 1 0 0 13.3q3.1 0 5.5-2.7l-2.9-1.6q-1.1 1.2-2.7 1.2c-1.4 0-2.7-1-3-2.3h9.7v-.9c0-4.8-3.9-7-6.6-7m-3.1 5q.8-1.8 2.8-1.9a3 3 0 0 1 2.9 2zm17.7-5a6.6 6.6 0 1 0 0 13.3q3.2 0 5.6-2.7l-3-1.6q-1 1.2-2.6 1.2-2.4-.2-3.2-2.3h9.8v-.8c0-4.9-3.8-7-6.6-7m-3 5q.7-2 2.7-1.9a3 3 0 0 1 2.9 2zm9.1-5.6h1.5v.3h-.6v1.6h-.3V4.2h-.6zm1.8 0h.4l.6 1.5.5-1.5h.4v1.9h-.3V4.3l-.5 1.5h-.3l-.5-1.5v1.5h-.3zM9.6 4.4 0 0v17.7L9.6 22v-4.3l-5.7-2.6v-9l5.7 2.6z"/><path fill="#75160d" d="M9.6 4.4 19.2 0v17.7L9.6 22v-4.3l5.7-2.6v-9L9.6 8.8z"/></svg>