<svg xmlns="http://www.w3.org/2000/svg" preserveAspectRatio="xMidYMin" viewBox="0 0 113.111 22.119"><path fill="#c01818" d="M56.49 14.367l-2.963-1.746-.212.344c-.661 1.058-1.587 1.587-2.725 1.587-1.958 0-3.413-1.481-3.413-3.413 0-1.958 1.481-3.413 3.413-3.413 1.164 0 2.01.503 2.725 1.587l.212.344 2.963-1.746-.264-.37c-1.43-2.064-3.255-3.043-5.662-3.043-4.525 0-6.96 3.44-6.96 6.668s2.435 6.667 6.96 6.667c2.301 0 4.47-1.164 5.662-3.07zm-.159 3.413h4.075l1.217-3.016h6.112l1.217 3.016h4.101L65.75.132H62.1l.978 2.355-6.747 15.293m8.388-10.69l1.64 4.155h-3.334zm10.027 10.717h3.572V9.869h2.329V6.535h-2.329v-1.56c0-.689.45-1.403 1.297-1.403.45 0 .74.08 1.005.185l.397.159L82.499.662l-.397-.133c-.662-.264-1.588-.37-2.25-.37-1.613 0-2.963.529-3.862 1.534-.794.874-1.244 2.09-1.244 3.44v1.429h-1.587v3.334h1.587zM38.18 7.62v10.16h3.89V.026l-7.647 5.768L26.75.026v17.727l3.89.027V7.62l3.783 2.804zM88.716 4.498c-4.498 0-6.932 3.413-6.932 6.641s2.434 6.641 6.932 6.641c2.064-.026 3.996-.952 5.504-2.672l-2.91-1.588c-.742.768-1.668 1.164-2.673 1.164-1.482 0-2.778-.979-3.122-2.275h9.736v-.873c.027-4.842-3.81-7.012-6.535-7.038zm-3.122 5.027c.477-1.217 1.482-1.905 2.778-1.905 1.323 0 2.355.688 2.884 1.932zm17.754-5.001c-4.498 0-6.932 3.414-6.932 6.641 0 3.228 2.434 6.641 6.932 6.641 2.064-.026 3.995-.952 5.503-2.672l-2.91-1.587c-.741.767-1.667 1.164-2.673 1.164-1.481 0-2.778-.98-3.122-2.276h9.737v-.873c.026-4.842-3.81-7.038-6.535-7.038zm-3.122 5.001c.476-1.217 1.481-1.931 2.778-1.905 1.323 0 2.355.688 2.884 1.932zm9.207-5.609h1.508v.291h-.608v1.587h-.318V4.207h-.582zm1.747 0h.45l.528 1.455.503-1.455h.45v1.878h-.318V4.339l-.529 1.456H112l-.53-1.456v1.456h-.317v-1.88zM9.606 4.445L0 0v17.674l9.604 4.445v-4.34L3.942 15.16V6.166l5.662 2.62z"/><path fill="#75160d" d="M9.606 4.445L19.236 0v17.674l-9.63 4.445v-4.34l5.688-2.619V6.166l-5.689 2.62z"/></svg>
