<svg xmlns="http://www.w3.org/2000/svg" viewBox="0 0 977.11 225.11">
  <defs>
    <style>
      .a{fill:#0068b1;}.b{fill:#fff;}
    </style>
  </defs>
  <path d="M488.35 225.11H28.45C11.56 225.11 0 213.49 0 196.51V28C0 11.93 12 0 28.09 0h920.82c16.4 0 28.2 11.91 28.2 28.45v168.47c0 16.55-11.71 28.19-28.35 28.19zm.74-217.37H30.15C14.77 7.75 7.78 14.66 7.77 30v165c0 15.74 6.85 22.55 22.56 22.55h916.38c15.74 0 22.61-6.8 22.63-22.48v-166c0-8.28-2.39-15.43-10.24-19-3.75-1.72-8.37-2.18-12.6-2.18q-228.69-.21-457.41-.14z" class="a"/>
  <path d="M489.09 7.75q228.72 0 457.44.09c4.23 0 8.84.46 12.6 2.18 7.85 3.6 10.26 10.76 10.24 19q-.09 42 0 84v82c0 15.68-6.9 22.48-22.63 22.48H30.33c-15.71 0-22.56-6.81-22.56-22.55v-165c0-15.32 7-22.23 22.38-22.23zM63.49 181.9c8.44 0 16.23.12 24-.15 1.06 0 2.54-1.87 3-3.16 1.84-5.35 3.37-10.81 5-16.24 10.2-34.12 20.51-68.25 30.57-102.43 1.16-3.93 3-5.41 7-5.23 6.15.28 12.33 0 18.49.11 7.13.14 9.54 3.56 7.5 10.4q-11.44 38.3-22.9 76.59c-2.67 8.94-5.45 17.85-7.94 26.83-1.49 5.37 1.18 11.21 5.35 12.63 7.61 2.6 14.56.31 16.73-5.88 2.59-7.38 4.88-14.87 7.17-22.35q13.61-44.43 27.14-88.87c2.37-7.73 4.65-9.34 12.54-9.37 3 0 6-.06 9 0 8.66.23 13 6.25 10.5 14.44Q203 113.12 189.36 157c-2.5 8.05-4.93 16.13-7.6 24.85 6.37 0 12-.22 17.61.08 3.32.18 4.71-1.06 5.61-4.12 3.45-11.66 7.11-23.25 10.71-34.86l23.24-74.92c4.36-14.12-3.13-24.4-17.67-24.4-8.33 0-16.67.11-25 0a13.26 13.26 0 0 0-11.9 6.1 36.52 36.52 0 0 0-4.4 9.41q-17.12 55.63-34 111.33c-1.62 5.3-4.18 7.3-8 6.07-4.94-1.58-4.08-5.19-3-9q9.56-32.08 19-64.19c4.59-15.66 9.35-31.27 13.45-47.06 2.14-8.24-1.92-12.61-10.54-12.64-15.66-.06-31.33.14-47-.12-4.3-.07-6 1.38-7.19 5.44-9.41 32.47-19.11 64.86-28.68 97.27-3.48 11.62-6.87 23.25-10.51 35.66zm406.66-.33c6.89 0 13.22-.41 19.47.12 5.41.46 7.38-1.64 8.85-6.68 11.23-38.53 22.84-77 34.19-115.46 1.12-3.81 2.82-5.45 7-5.28 8 .31 16 0 24 .12 10.2.14 15.51 8.47 11 17.47-9 18-5.72 16.73-26.42 16.7-19.4 0-15.86-1.48-20.11 16.67 0 .16-.07.33-.1.49-.86 5.62 1.56 8.63 7.27 8.72 6.5.11 13-.11 19.5.08 7.86.23 11.37 5.5 8.62 12.84-4.56 12.17-9.23 24.29-13.82 36.44-2.21 5.87-4.36 7.47-10.84 7.52-9 .07-18 0-27 0-8.37 0-9.21.82-9.86 9.88 1.12.11 2.25.32 3.39.33 13.83 0 27.66.07 41.49 0 8.48-.05 13.76-3.76 16.47-11.9q7.89-23.7 15.38-47.54c2.81-9-2.57-16-12.06-16.15-8-.11-16 0-24 0-1.77 0-3.53-.24-5.26-.36.08-9.74 1.31-11 10.06-11h27.5c5.13 0 9.24-2.08 11.17-6.92a196.83 196.83 0 0 0 6.55-18.86c3-10.33-5-26-20.08-25.44-18.81.64-37.66.23-56.49.09-3.73 0-5.46 1-6.59 4.88-12.51 42.67-25.26 85.28-37.93 127.9-.5 1.48-.81 3.07-1.35 5.34zm206.3.68c7.84 0 14.81-.2 21.77.09 3.5.15 5-1.08 5.93-4.38 5.7-19.67 11.6-39.29 17.45-58.92 5.91-19.79 11.78-39.59 17.88-59.31.62-2 2.72-5 4.24-5.07a244.19 244.19 0 0 1 29 .08c7.84.6 12 8.94 8.76 16.11-1.71 3.8-3.72 7.45-5.44 11.24-2.12 4.68-5.69 6.61-10.75 6.51-7-.14-14 0-21 0-4.27 0-6.93 1.86-7.67 6.22-.64 3.77-1.51 7.51-2.1 11.3-.84 5.42 1.49 8.33 6.93 8.47 6 .15 12 0 18 .06 7.66.06 9.33 2.26 7.23 9.45q-7.63 26.14-15.27 52.27c-.44 1.51-.73 3.07-1.24 5.22 5 0 9.29-.12 13.59 0 2.9.11 4.06-1.18 4.75-3.87 4.72-18.39 9.66-36.71 14.36-55.11 2.62-10.26-2.44-16.59-13.07-16.69-7.5-.06-15 .05-22.49-.09-1.29 0-3.28-.61-3.7-1.52-1.64-3.49 2.88-9.75 6.91-9.78 9.5-.06 19 0 28.49-.05 7.51-.07 12.25-3.39 14.84-10.39 2-5.46 3.88-11 5.68-16.53 4.42-13.65-3.12-24.12-17.44-24.12-19.49 0-39 .26-58.48.07-4.43 0-6.4 1.22-7.65 5.55-8.06 27.83-16.41 55.58-24.66 83.36zm-243.3-.83c4.46 0 8.28-.23 12.06.07 3.48.28 5-1 5.85-4.37 3.1-11.92 6.51-23.77 9.82-35.64 6.94-24.86 14-49.68 20.8-74.58 3.8-13.9-4.03-23.9-18.3-23.9-19 0-38 .12-57-.1-4.16 0-6.07 1.06-7.3 5.27-11.7 40.12-23.66 80.17-35.54 120.24-1.3 4.4-2.59 8.81-4.07 13.86h16.8c9.53 0 9.46 0 12.2-9.21q17-57 34-113.91c.81-2.73 1.72-4.87 5.27-4.8 8.49.17 17 0 25.49.13 4.69.09 8.95 2.24 10.17 6.71a23.77 23.77 0 0 1-.17 12c-9.42 34.19-19.14 68.3-28.77 102.44-.46 1.72-.76 3.45-1.31 5.79zM861 97.17c4.25 0 8-.12 11.83 0 9 .34 14.11 7 11.6 15.6-4.8 16.47-9.76 32.89-14.77 49.29-1.89 6.17-5.72 9.26-12 9.4-9.49.22-19 .28-28.49 0-8.91-.26-14-7.19-11.71-15.75q12-45.15 24.08-90.26c2.25-8.4 5.93-11.09 14.76-11.1 16.33 0 32.66.05 49-.09 1.71 0 4.23-.74 5-2 1.52-2.59 2.1-5.73 3.21-9.08-2.22-.11-3.69-.25-5.16-.25h-66.48c-9.23 0-15.61 4.38-18.18 13.4q-14.84 52.13-29.21 104.4c-3 11 4.75 20.58 16 20.62q29 .1 58 0c7.84 0 13.61-3.82 15.79-11.31 6.06-20.78 12-41.6 17.56-62.53 2.7-10.19-4.27-18.68-14.83-19-5.66-.15-11.33 0-17 0-7.23.06-7.23.07-9 8.66zM333.26 43.81c-1.92-.14-3.38-.35-4.84-.35h-48c-12 0-18.77 5.15-22.11 16.83-2.1 7.36-4 14.78-6.07 22.15-2.54 9.13-.38 12.09 9 12.1 14 0 28-.06 42 .09 1.7 0 4.45.83 4.9 2 1.53 3.89-2.93 9.31-7.24 9.31-14 0-28-.06-42 0-10.17.07-16.57 5-19.45 14.68-1.37 4.63-2.69 9.27-4 13.92-2.8 9.76-5.64 19.51-8.39 29.29-2.45 8.74 2.5 18.41 13.84 17.9 15-.67 30-.16 45-.17 7.68 0 9-1.39 9.41-9.79-1.14-.07-2.28-.19-3.43-.2-11.33 0-22.65.07-34 0-8.15-.08-11.6-4.54-9.67-12.32q4.14-16.72 8.43-33.41c2.07-8 6-11.11 14.23-11.17 9.33-.07 18.65 0 28 0 15.88 0 14.92 1.21 17.91-15 1.59-8.61-.31-11-9-11.07H278.3c-6.61 0-7.45-1.09-6-7.32 1.06-4.54 2.13-9.07 3.27-13.59 2.28-9 7.52-13.2 16.79-13.26 10.16-.07 20.32 0 30.48 0 8.24 0 8.24 0 10.15-7.89.12-.69.12-1.35.27-2.73zm325.3 127.77h-5.42c-10.83 0-21.65.1-32.48 0-7.86-.1-11.28-4.51-9.45-12.05 2.75-11.32 5.66-22.6 8.52-33.9 2-7.73 5.86-10.87 13.87-11 9.16-.09 18.32-.07 27.48 0 17.77.1 15.48.84 18.87-15.68 1.53-7.47-.78-10.31-8.39-10.36-10.16-.06-20.32 0-30.48 0-6.37 0-7.24-1.22-5.75-7.52 1-4.21 2-8.41 3.05-12.62 2.38-9.91 7.49-14 17.68-14 10.83 0 21.66-.23 32.47.1 4.22.13 6.16-1.33 6.73-5.3.23-1.6.72-3.16 1.25-5.37-2.28-.14-4-.35-5.79-.35h-47.47c-11.63 0-18.27 4.89-21.62 16.09-2.19 7.33-4.08 14.76-6.07 22.15-2.76 10.23-.81 12.83 9.56 12.84 13.82 0 27.65-.07 41.47.11 1.61 0 4.36 1.17 4.6 2.25 1.09 4.84-2.92 9-8.08 9-13.82 0-27.65-.07-41.47 0-8.18.06-15.22 3.24-17.82 11.21-5.21 16-9.72 32.18-14 48.43-2.14 8.14 3.79 16.47 13.36 16.11 15-.55 30-.15 45-.15 8.68 0 9.1-.37 10.38-9.99zM314 182.25c7.64 0 14.29-.31 20.9.11 4.36.27 6-1.4 7.2-5.4Q361 113 380.11 49.23c.45-1.53.76-3.1 1.3-5.32-7.4 0-14.2.27-21-.1-4.12-.23-5.74 1.23-6.87 5.13-9.85 33.7-19.92 67.32-29.93 101z" class="b"/>
  <path d="M63.49 181.9c3.64-12.41 7-24 10.48-35.66 9.61-32.41 19.31-64.8 28.76-97.26 1.18-4.06 2.89-5.51 7.19-5.44 15.66.26 31.33.06 47 .12 8.63 0 12.68 4.41 10.54 12.64-4.1 15.79-8.86 31.4-13.45 47.06q-9.41 32.12-19 64.19c-1.13 3.79-2 7.39 3 9 3.81 1.22 6.38-.78 8-6.07q17-55.67 34-111.33a36.52 36.52 0 0 1 4.4-9.41 13.26 13.26 0 0 1 11.9-6.1c8.33.14 16.66 0 25 0 14.54 0 22 10.29 17.67 24.4q-11.6 37.48-23.27 74.96c-3.6 11.61-7.27 23.2-10.71 34.86-.9 3.06-2.29 4.3-5.61 4.12-5.61-.3-11.25-.08-17.61-.08 2.66-8.72 5.1-16.8 7.6-24.85q13.62-43.9 27.27-87.79c2.54-8.19-1.83-14.2-10.5-14.44-3-.08-6 0-9 0-7.89 0-10.17 1.64-12.54 9.37Q171 108.55 157.46 153c-2.29 7.48-4.58 15-7.17 22.35-2.18 6.19-9.13 8.48-16.73 5.88-4.17-1.42-6.84-7.26-5.35-12.63 2.49-9 5.27-17.89 7.94-26.83q11.45-38.29 22.9-76.59c2-6.84-.37-10.26-7.5-10.4-6.16-.12-12.34.17-18.49-.11-4-.18-5.84 1.3-7 5.23-10.06 34.2-20.37 68.33-30.59 102.47-1.63 5.43-3.15 10.89-5 16.24-.44 1.29-1.92 3.12-3 3.16-7.75.23-15.54.13-23.98.13zm406.66-.33c.55-2.27.85-3.86 1.31-5.41 12.67-42.63 25.42-85.23 37.93-127.9 1.13-3.86 2.86-4.91 6.59-4.88 18.83.14 37.68.56 56.49-.09 15.12-.52 23 15.12 20.08 25.44A196.83 196.83 0 0 1 586 87.6c-1.93 4.83-6 6.91-11.17 6.92h-27.5c-8.76 0-10 1.28-10.06 11 1.73.12 3.49.35 5.26.36 8 0 16-.06 24 0 9.49.12 14.87 7.19 12.06 16.15q-7.47 23.84-15.38 47.54c-2.71 8.14-8 11.84-16.47 11.9-13.83.08-27.66 0-41.49 0-1.13 0-2.26-.21-3.39-.33.65-9.06 1.49-9.88 9.86-9.88h27c6.49 0 8.63-1.65 10.84-7.52 4.58-12.16 9.26-24.28 13.82-36.44 2.75-7.34-.76-12.62-8.62-12.84-6.49-.19-13 0-19.5-.08-5.71-.09-8.13-3.1-7.27-8.72 0-.16.06-.33.1-.49 4.26-18.15.71-16.7 20.11-16.67 20.7 0 17.42 1.28 26.42-16.7 4.51-9-.8-17.33-11-17.47-8-.11-16 .2-24-.12-4.14-.16-5.84 1.47-7 5.28-11.35 38.5-23 76.93-34.19 115.46-1.47 5-3.44 7.13-8.85 6.68-6.21-.47-12.58-.06-19.43-.06zm206.3.68l14.81-49.81c8.25-27.78 16.6-55.52 24.66-83.36 1.25-4.33 3.22-5.59 7.65-5.55 19.49.19 39-.07 58.48-.07 14.31 0 21.86 10.48 17.44 24.12-1.8 5.54-3.66 11.07-5.68 16.53-2.59 7-7.33 10.31-14.84 10.39-9.5.09-19 0-28.49.05-4 0-8.55 6.28-6.91 9.78.43.91 2.42 1.49 3.7 1.52 7.5.14 15 0 22.49.09 10.62.09 15.68 6.43 13.07 16.69-4.7 18.39-9.64 36.72-14.36 55.11-.69 2.69-1.85 4-4.75 3.87-4.3-.17-8.6 0-13.59 0 .51-2.15.8-3.71 1.24-5.22q7.62-26.14 15.27-52.27c2.1-7.19.43-9.39-7.23-9.45-6 0-12 .09-18-.06-5.44-.14-7.78-3-6.93-8.47.59-3.78 1.46-7.52 2.1-11.3.74-4.36 3.4-6.23 7.67-6.22 7 0 14-.12 21 0 5.06.1 8.63-1.83 10.75-6.51 1.72-3.79 3.73-7.45 5.44-11.24 3.23-7.17-.92-15.51-8.76-16.11a244.19 244.19 0 0 0-29-.08c-1.52.07-3.61 3.06-4.24 5.07-6.11 19.72-12 39.52-17.88 59.31-5.86 19.63-11.75 39.24-17.45 58.92-1 3.29-2.43 4.52-5.93 4.38-6.92-.36-13.9-.11-21.73-.11zm-243.3-.83c.55-2.34.9-4.07 1.37-5.77 9.62-34.14 19.35-68.24 28.77-102.44a23.77 23.77 0 0 0 .17-12c-1.23-4.47-5.49-6.62-10.17-6.71-8.49-.17-17 0-25.49-.13-3.54-.07-4.45 2.07-5.27 4.8q-17 57-34 113.91c-2.74 9.19-2.68 9.21-12.2 9.21h-16.8c1.49-5.05 2.77-9.46 4.07-13.86 11.88-40.07 23.83-80.12 35.54-120.24 1.23-4.21 3.14-5.32 7.3-5.27 19 .22 38 .08 57 .1 14.28 0 22.1 10 18.31 23.92-6.78 24.9-13.86 49.72-20.8 74.58-3.31 11.87-6.72 23.71-9.82 35.64-.88 3.38-2.38 4.65-5.85 4.37-3.85-.34-7.67-.11-12.13-.11zM861 97.17c1.74-8.59 1.74-8.59 8.94-8.6 5.67 0 11.33-.11 17 0 10.56.28 17.53 8.77 14.83 19-5.55 20.92-11.5 41.74-17.56 62.53-2.19 7.49-8 11.29-15.79 11.31q-29 .05-58 0c-11.29 0-19-9.66-16-20.62q14.32-52.28 29.21-104.4c2.57-9 9-13.39 18.18-13.4h66.48c1.47 0 2.94.14 5.16.25-1.11 3.36-1.69 6.5-3.21 9.08-.72 1.23-3.24 2-5 2-16.33.14-32.66.07-49 .09-8.83 0-12.5 2.7-14.76 11.1q-12.11 45.11-24.08 90.26c-2.27 8.56 2.8 15.49 11.71 15.75 9.49.28 19 .22 28.49 0 6.32-.15 10.15-3.24 12-9.4 5-16.4 10-32.82 14.77-49.29 2.5-8.59-2.56-15.27-11.6-15.6-3.68-.23-7.48-.06-11.77-.06zM333.26 43.81c-.15 1.38-.15 2-.3 2.67-1.91 7.89-1.91 7.89-10.15 7.89h-30.48c-9.26.06-14.51 4.24-16.79 13.26-1.14 4.52-2.21 9.05-3.27 13.59-1.46 6.22-.62 7.29 6 7.32h29.48c8.68 0 10.58 2.46 9 11.07-3 16.19-2 15-17.91 15-9.33 0-18.66-.06-28 0-8.27.07-12.16 3.13-14.23 11.17q-4.29 16.69-8.43 33.41c-1.93 7.78 1.52 12.24 9.67 12.32 11.32.11 22.65 0 34 0 1.14 0 2.29.13 3.43.2-.37 8.4-1.73 9.79-9.41 9.79-15 0-30-.51-45 .17-11.34.51-16.3-9.16-13.84-17.9 2.74-9.78 5.58-19.53 8.39-29.29 1.33-4.64 2.65-9.29 4-13.92 2.87-9.69 9.27-14.61 19.45-14.68 14-.1 28 0 42 0 4.31 0 8.76-5.42 7.24-9.31-.45-1.15-3.2-2-4.9-2-14-.16-28-.08-42-.09-9.34 0-11.5-3-9-12.1 2.05-7.38 4-14.79 6.07-22.15 3.34-11.69 10.11-16.82 22.11-16.83h48c1.49.06 2.95.27 4.87.41zm325.3 127.77c-1.29 9.62-1.7 10-10.39 10-15 0-30-.41-45 .15-9.57.35-15.49-8-13.36-16.11 4.26-16.25 8.78-32.46 14-48.43 2.6-8 9.64-11.15 17.82-11.21 13.82-.1 27.65 0 41.47 0 5.17 0 9.18-4.2 8.08-9-.24-1.07-3-2.22-4.6-2.25-13.82-.18-27.65-.1-41.47-.11-10.37 0-12.32-2.61-9.56-12.84 2-7.39 3.88-14.82 6.07-22.15 3.35-11.2 10-16.07 21.62-16.09h47.47c1.76 0 3.51.21 5.79.35-.52 2.21-1 3.77-1.25 5.37-.57 4-2.5 5.43-6.73 5.3-10.82-.34-21.65-.14-32.47-.1-10.19 0-15.3 4.13-17.68 14-1 4.21-2.05 8.41-3.05 12.62-1.5 6.3-.63 7.49 5.75 7.52 10.16.05 20.32 0 30.48 0 7.61 0 9.92 2.89 8.39 10.36-3.39 16.52-1.1 15.78-18.87 15.68-9.16-.05-18.32-.07-27.48 0-8 .08-11.91 3.22-13.87 11-2.87 11.29-5.77 22.58-8.52 33.9-1.84 7.55 1.59 12 9.45 12.05 10.82.13 21.65 0 32.48 0zM314 182.25l9.62-32.33c10-33.65 20.08-67.28 29.93-101 1.14-3.9 2.75-5.36 6.87-5.13 6.76.37 13.56.1 21 .1-.54 2.22-.84 3.79-1.3 5.32q-19 63.85-38 127.72c-1.18 4-2.84 5.67-7.2 5.4-6.62-.39-13.27-.08-20.92-.08z" class="a"/>
</svg>
