<svg xmlns="http://www.w3.org/2000/svg" viewBox="0 0 977.1 225.1"><path fill="#fff" d="m972.6 206.4-15.9 14.9H17.8L4.7 205V17.7L18.7 5l937.6-1 16.2 12.3z"/><g fill="#0068b1"><path d="M488.4 225.1h-460A27 27 0 0 1 0 196.5V28C0 12 12 0 28 0h921c16.2 0 28 12 28 28.5v168.4a27 27 0 0 1-28.3 28.2zM489 7.7H30c-15.3 0-22.3 7-22.3 22.3v165c0 15.7 6.8 22.6 22.5 22.6h916.4c15.7 0 22.6-6.8 22.6-22.5V29c0-8.3-2.3-15.5-10.2-19a31 31 0 0 0-12.6-2.2Q717.7 7.6 489 7.7"/><path d="M63.5 181.9 74 146.2Q88.5 97.6 102.7 49c1.2-4 3-5.5 7.2-5.5q23.5.3 47 .2c8.7 0 12.7 4.4 10.6 12.6-4.1 15.8-8.9 31.4-13.5 47q-9.4 32.2-19 64.3c-1.1 3.7-2 7.3 3 9q5.7 1.8 8-6.1l34-111.3a37 37 0 0 1 4.4-9.5 13 13 0 0 1 12-6h25c14.5 0 22 10.2 17.6 24.3l-23.3 75q-5.5 17.4-10.7 34.9c-.9 3-2.3 4.3-5.6 4h-17.6q3.8-13 7.6-24.8l27.2-87.8c2.6-8.2-1.8-14.2-10.5-14.5h-9c-7.8 0-10.1 1.7-12.5 9.4L157.5 153q-3.4 11.3-7.2 22.4c-2.2 6.1-9.1 8.4-16.7 5.8-4.2-1.4-6.9-7.2-5.4-12.6q3.8-13.5 8-26.8L159 65.2q3-10.3-7.5-10.4l-18.5-.1c-4-.2-5.9 1.3-7 5.2q-15.2 51.3-30.6 102.5-2.4 8.2-5 16.2c-.5 1.3-2 3.1-3 3.2q-11.5.2-24 .1m406.7-.3q.6-3.3 1.3-5.4l37.9-128c1.1-3.8 2.9-4.9 6.6-4.8 18.8.1 37.7.5 56.5-.1 15-.5 23 15.1 20 25.4a197 197 0 0 1-6.5 18.9q-3.2 7.1-11.2 7h-27.5c-8.7 0-10 1.2-10 11l5.2.3h24c9.5.1 14.9 7.2 12 16.1q-7.4 23.9-15.3 47.6c-2.7 8.1-8 11.8-16.5 11.9h-41.4q-1.8 0-3.4-.4c.6-9 1.5-9.8 9.8-9.8h27c6.5 0 8.7-1.7 10.9-7.6l13.8-36.4c2.7-7.3-.8-12.6-8.6-12.8l-19.5-.1q-8.6-.2-7.3-8.7v-.5c4.4-18.2.8-16.7 20.2-16.7 20.7 0 17.4 1.3 26.4-16.7 4.5-9-.8-17.3-11-17.5q-12 .2-24 0c-4.1-.3-5.8 1.4-7 5.2-11.3 38.5-23 77-34.2 115.5-1.4 5-3.4 7-8.8 6.6-6.2-.4-12.6 0-19.4 0m206.3.6 14.8-49.8q12.5-41.6 24.6-83.3c1.3-4.4 3.2-5.6 7.7-5.6h58.4c14.4 0 22 10.4 17.5 24q-2.7 8.4-5.7 16.6-3.7 10.4-14.8 10.4h-28.5c-4 0-8.6 6.3-7 9.8.5 1 2.5 1.5 3.8 1.6h22.5c10.6.1 15.6 6.5 13 16.7l-14.3 55.1c-.7 2.7-1.9 4-4.8 4-4.3-.3-8.6 0-13.6 0q.6-3.2 1.3-5.3l15.2-52.3c2.1-7.2.5-9.4-7.2-9.4h-18q-8.1-.2-7-8.6l2.2-11.3q1.2-6.3 7.7-6.2h21c5 .1 8.6-1.8 10.7-6.5l5.4-11.2c3.3-7.2-.9-15.5-8.7-16.1a244 244 0 0 0-29-.1c-1.5 0-3.6 3-4.3 5l-17.8 59.4q-8.9 29.4-17.5 58.9c-1 3.3-2.4 4.5-6 4.4-6.8-.4-13.8-.1-21.6-.1m-243.3-.8 1.3-5.8q14.6-51 28.8-102.4a24 24 0 0 0 .2-12c-1.3-4.5-5.5-6.6-10.2-6.7l-25.5-.1c-3.5-.1-4.4 2-5.3 4.8l-34 113.9c-2.7 9.2-2.6 9.2-12.2 9.2h-16.8l4.1-13.9q17.9-60 35.5-120.2c1.3-4.2 3.2-5.3 7.3-5.3q28.5.2 57 .1c14.3 0 22.1 10 18.4 24l-20.8 74.5q-5.2 17.8-9.9 35.7c-.8 3.3-2.3 4.6-5.8 4.3-3.9-.3-7.7 0-12.1 0M861 97.2c1.7-8.6 1.7-8.6 9-8.6h17c10.5.2 17.5 8.7 14.8 19q-8.4 31.3-17.6 62.5c-2.2 7.5-8 11.3-15.8 11.3h-58c-11.3 0-19-9.7-16-20.6q14.3-52.3 29.2-104.4c2.6-9 9-13.4 18.2-13.4h66.5l5.2.2c-1.2 3.4-1.7 6.5-3.3 9.1-.7 1.2-3.2 2-5 2l-49 .1c-8.8 0-12.5 2.7-14.7 11.1l-24.1 90.3c-2.3 8.5 2.8 15.5 11.7 15.7q14.3.4 28.5 0 9.4-.1 12-9.4 7.5-24.6 14.8-49.3c2.5-8.6-2.6-15.2-11.6-15.6q-5.5-.2-11.8 0M333.3 43.8l-.3 2.7c-2 7.9-2 7.9-10.2 7.9h-30.5c-9.2 0-14.5 4.2-16.8 13.2l-3.2 13.6c-1.5 6.2-.7 7.3 6 7.3h29.4c8.7 0 10.6 2.5 9 11.1-3 16.2-2 15-17.9 15h-28c-8.2 0-12.1 3.1-14.2 11.2l-8.4 33.4c-2 7.8 1.5 12.2 9.6 12.3h34l3.5.2c-.4 8.4-1.8 9.8-9.4 9.8-15 0-30-.5-45 .2-11.4.5-16.3-9.2-13.9-18l8.4-29.2 4-14Q243.7 106 259 106h42c4.3 0 8.7-5.4 7.2-9.3-.4-1.2-3.2-2-4.9-2q-21-.2-42-.1c-9.3 0-11.5-3-9-12.1l6-22.2c3.4-11.7 10.2-16.8 22.2-16.8h48l4.9.4m325.3 127.8c-1.3 9.6-1.7 10-10.4 10-15 0-30-.4-45 .1-9.6.4-15.5-8-13.4-16q6.3-24.5 14-48.5c2.6-8 9.6-11.2 17.8-11.2h41.5c5.2 0 9.2-4.2 8-9-.2-1-3-2.2-4.5-2.3q-20.7-.2-41.5 0c-10.4 0-12.3-2.7-9.6-13l6.1-22c3.4-11.3 10-16.1 21.6-16.2h47.5q2.5 0 5.8.4-.8 3.1-1.2 5.4c-.6 4-2.5 5.4-6.8 5.3q-16.2-.4-32.4-.1c-10.2 0-15.3 4-17.7 14l-3 12.6c-1.6 6.3-.7 7.5 5.7 7.5h30.5c7.6 0 9.9 2.9 8.3 10.4-3.3 16.5-1 15.7-18.8 15.6h-27.5c-8 .1-12 3.3-13.9 11l-8.5 34c-1.8 7.5 1.6 12 9.5 12H653zM314 182.2l9.6-32.3 30-101c1-3.9 2.7-5.3 6.8-5.1 6.8.4 13.6 0 21 0q-.6 3.3-1.3 5.4l-38 127.7c-1.2 4-2.8 5.7-7.2 5.4-6.6-.4-13.3 0-20.9 0"/></g></svg>