<svg xmlns="http://www.w3.org/2000/svg" viewBox="0 0 1238 240"><path fill="#62b144" d="M814 239q-14-5-26-15c-6-6-12-18-15-28-2-9-2-31 0-40q12-43 53-44 24 0 38 15 15 16 17 42v10h-97v4c0 6 4 18 7 25 11 20 36 28 58 17q11-5 15-16l2-5h7l6 1-3 8q-8 17-28 24c-7 3-26 4-34 2m54-74q-2-28-24-39c-6-3-7-3-18-3-9 0-11 0-15 2q-22 10-26 39l-1 5h84zm140 73q-25-9-25-34 1-24 28-32l55-11v-10c0-9-1-11-3-15q-9-14-32-14-10 1-16 4-12 6-15 17l-1 4h-12v-4q4-19 27-28c7-3 23-4 31-2q28 6 33 31l1 49v44h-5c-6 0-5 0-7-13q1-9-2-5-6 9-17 15c-11 6-27 8-40 4m26-9q19-4 29-20c2-5 3-6 3-22l-1-16-44 8q-18 5-23 16c-2 4-3 15-1 19 5 12 20 18 37 15m-449-76V68h10l9 1 31 76 32 76a2523 2523 0 0 0 58-152l10-1h9v169h-13v-75l-1-74-28 74-29 75h-14l-30-75-31-76v151h-13zm326 83V116h5l6 1 1 11v10l4-6q12-23 37-20l6 1v13l-3-1c-6-2-16-1-22 1q-9 5-16 17c-4 10-5 15-5 56v38h-6zm200 0v-84l1-83 6-1h6v48l1 48 29-24 29-25h8q8 0 7 1l-60 52 12 13 35 34 22 22h-17l-33-32-32-32-1 32v32h-6zm113 0v-61l1-59 6-1h6v122h-6zm-1-159 1-8 7-1h7v17h-15z"/><path d="M73 237q-12-2-21-11-4-4-7-11c-3-6-4-7-4-17 0-11 1-12 4-18 7-17 25-25 45-22l9 2 1 10v10l-6-2q-9-3-18 0-13 4-14 20c0 16 16 25 34 19l4-2v10l-1 11-5 1zm113 0-7-1h-4v-17l5 1 14 1c8 0 9-1 11-3q9-7-9-13-13-5-18-12-3-3-3-10 0-12 5-17 11-11 35-8l8 1v17l-3-1c-14-4-25-1-25 6q-1 4 12 8 21 6 21 23 0 16-15 22-6 4-15 4zm94 0c-20-4-33-22-32-42q3-26 26-35c7-3 19-3 27-2l6 2 1 10c0 10 0 10-2 10q-21-9-33 5c-7 10-4 25 7 31a34 34 0 0 0 28-1v20l-4 1c-5 2-19 2-24 1m79-1c-20-5-33-25-29-46q5-25 30-31a41 41 0 1 1-1 77m21-20c12-7 14-22 6-32q-5-6-15-7-10 0-15 5-6 7-6 16 0 13 11 18c5 3 15 2 19 0m-252-19v-39h19v78h-19zm-17-76-2-3-1-55 1-57q3-5 9-6l6 3 3 2v113l-2 3q-7 5-14 0m217-1-3-3V5l3-3q7-5 13 1l3 3v111l-3 3q-2 4-7 3-4 1-6-3M5 102c-4-2-5-5-5-19 0-12 0-13 2-15l6-4c3 0 9 2 10 6v29q-3 4-9 5zm54 1c-5-3-5-5-5-32 0-22 0-27 2-29 2-6 10-7 14-2l3 3v27l-1 29q-3 4-9 5zm109 0-4-3c-1-2-2-4-2-30V43l4-3q6-6 12 0l3 3v55l-2 2q-5 4-11 3m54 0c-4-2-5-4-5-19 0-12 0-14 2-16 4-6 13-5 16 2l1 16c0 11-1 12-3 14q-5 4-11 3m54-1-4-3-1-29V43l3-3c4-5 12-4 14 2 2 2 2 7 2 28 0 28 0 30-5 33q-5 2-9-1m108 1c-5-3-5-5-5-32 0-28 0-30 5-33q7-3 11 2l3 3v27c0 28 0 28-2 31q-5 5-12 2m55 0-4-3c-1-2-2-4-2-16V70l4-3q6-6 12 0l3 3v14c0 13 0 14-2 16q-5 4-11 3"/></svg>