<svg xmlns="http://www.w3.org/2000/svg" viewBox="0 0 357.4 43.1"><path fill="#0b5190" d="M98.9 43c-7.3-1.3-11-3.1-14.6-6.7A20 20 0 0 1 79 21.6c0-6.8 1.6-11.1 5.8-15.2 1.9-2 3-2.8 5.1-3.8C94.4.5 96.2.1 103 .2c5.2 0 6 0 9 .9l3.2 1c.1 0-.4 5.8-.7 7.7l-.2 1-2.7-1.1c-8.4-3.4-16.1-1.4-19.4 5-2.8 5.3-2.3 11.7 1.3 15.7 2.9 3.2 6 4.5 11 4.5 3 0 7.5-.8 9.9-1.8.4-.2.5.4.7 4v4.4c0 .1-1.4.5-3 .8-2.6.6-11.2 1-13.1.7m77 0q-13-2.2-16.1-14.4c-.8-3.1-.8-11.3 0-14.2Q162 5.6 169 2.2A22 22 0 0 1 180 0c7 0 11.5 1.6 15.2 5.4 3.6 3.6 5.3 8 5.6 14.4.7 11.7-4.4 20-14 22.6-1.7.5-9 .9-11 .6m7.6-8.8c3.7-1.5 6-6.3 6-12.6q-.2-11-6.8-13.1a8 8 0 0 0-5.4 0c-3.1 1-5.5 4.1-6.4 8.4a31 31 0 0 0 .5 11.3c2.1 5.8 7 8.2 12.1 6m29.6 8.7-4.4-.9-2.3-.5.2-1 .8-7.7c0-.4.3-.3 1.9.3 4.7 2 11.2 2.5 14.1 1.2 3.5-1.5 3.3-5.4-.3-7.2-.8-.4-3.4-1.4-5.7-2.1-6.2-2-8.9-4-10.5-7.4-1-2.2-1-7.5.1-9.8 1.4-3.2 4.9-5.8 9.5-7 3.8-1.1 12.8-1 17.2.2l1.3.3-.3 3.3c0 1.8-.2 3.7-.3 4.2l-.2 1-2.5-.8a17 17 0 0 0-6.3-.8c-5.8 0-7.8 1-7.8 3.8 0 2 1.4 3 5.5 4.3 8 2.4 10.4 3.7 12.3 6.5 1.4 2 1.7 3.3 1.7 6.8q.1 10.2-10.6 12.8a58 58 0 0 1-13.4.5m120.2 0c-3.9-.6-6.6-1.3-6.6-1.8l.8-7.7.2-1 1.4.6c4 1.8 10.7 2.5 13.9 1.5 3-.9 4-4 2-6.1-1-1.2-2.6-1.9-7.6-3.5-8.3-2.6-11-5.6-11-12.1 0-6.3 3.2-10 10.2-12 3-.9 12.6-.9 16.2 0l2.5.5-.2 1.4-.4 4.3c-.2 2.5-.3 3-.7 2.7a21 21 0 0 0-8.6-1.5c-4 0-5.4.3-6.8 1.5-1 .9-1.2 2.4-.5 3.7s2.2 2 7.3 3.6c5 1.5 6.8 2.4 8.8 4.3s3 4 3.2 7.3c.5 9.5-6 14.6-18.5 14.5-2 0-4.6-.1-5.6-.3M0 21.5V.6h17.5l4.4 14c2.5 7.6 4.6 13.8 4.7 13.6l4.7-13.9L36 .6h16.9v42h-11V10.4l-5.4 16.1-5.3 16H21l-4.5-14.1-5.2-16.2-.7-2.1v16.2l.1 16.3H0Zm60.8 0V.6H72v42H60.8zm59.5 0V.6l12.1.1c11.5.1 12.2.2 14 .8q4.4 1.6 6 5c1 1.7 1 2.2 1 4.7 0 5.6-2.1 8.6-7.3 10.4q-1 .1.3.6c2 .9 2.8 2.4 7.5 16l1.6 4.4-5.8-.1-5.8-.1-1.5-5c-3.2-10-4.4-11.5-9.1-11.5h-2.1v16.7h-10.9zm19.4-4.3c2-.9 2.5-1.7 2.6-3.8.2-1.6 0-2-.7-2.8-1.2-1.5-3-2-7-2.3l-3.4-.2V18h3.6c2.8 0 3.9-.1 4.9-.6m104.1 4.3V.6h29.5v7.7h-18.6v9H272V25h-17.3v9.6H274v8h-30zm37.2 0V.6h14l7.2 14.4 7.2 14.3V.6h10v42l-7-.1-6.9-.1-7.2-14L291 14c-.2-.2-.2 7 0 22.7l.1 5.9h-10z"/></svg>
