<svg xmlns="http://www.w3.org/2000/svg" xml:space="preserve" viewBox="0 0 345.3 59.5"><defs><clipPath id="a" clipPathUnits="userSpaceOnUse"><path d="M0 173.1h356.3V0H0Z"/></clipPath></defs><g clip-path="url(#a)" transform="matrix(1.3333333 0 0 -1.3333333 -67 193.4)"><path fill="#272d33" d="M84.5 117a2 2 0 0 0-1-1.8l-2.7-1.5a.5.5 0 0 0-.7.4v10.6q-.1.6-.8.5l-4.8-2.7a2 2 0 0 1-1-1.8v-10.5a1 1 0 0 0-.6-.8l-.7-.4a2 2 0 0 0-2 0l-.7.4a1 1 0 0 0-.5.8v10.5a2 2 0 0 1-1 1.8L57.8 128v.5a2 2 0 0 0 1 1.8l1.1.6a2 2 0 0 0 2 0l8.3-4.6a2 2 0 0 1 1.9 0l3.8 2.1q.6.4 0 .9l-8.6 4.7q-.6.4 0 .9l2.9 1.6a2 2 0 0 0 1.9 0l11.3-6.2q1-.6 1-1.8Zm-22.2-3q-.1-.6-.7-.4l-2.7 1.5q-1 .5-1 1.7v8q.1.6.7.4l3.2-1.7q.5-.3.5-.9zm29.4 19.4-.4.7q-.6.9-2 1.6l-7.6 4.1-7.6 4.2a8 8 0 0 1-2.9 1q-1.2 0-3-1l-7.5-4.2-7.5-4a7 7 0 0 1-2.4-2l-.1-.4q-.4-1-.4-2.5v-16.5q0-2 .5-3 .7-1 2.4-1.9l7.5-4.1 7.6-4.1a8 8 0 0 1 3-1h.3q1.1.2 2.5 1l15.1 8.2q1.7 1 2.4 2l.1.3q.5 1 .5 2.6V131q0 1.6-.5 2.5m217.4-19.9L301 124q-.3.4 0 .7l7.3 7.2c.4.3.1.9-.3.9h-4.3q-.3 0-.5-.2l-8.3-7.6a.5.5 0 0 0-.8.4v6.6q-.1.7-.8.8h-3a1 1 0 0 1-.8-.8v-18.3q0-.7.8-.8h3q.7.1.8.8v4.3l.2.6 2.6 2.3q.4.3.7 0l6.2-7.7q.3-.3.7-.3h4.2q.8.2.4.8M132.4 133q-4.1-.1-6.8-2.6h-.7a8 8 0 0 1-6.2 2.6q-3.7 0-5.8-2v1q0 .7-.9.8h-2.8a1 1 0 0 1-.8-.8v-18.3q.1-.7.8-.8h3q.7.1.8.8v9.4q.1 5.5 5 5.6 4.2 0 4.2-4.8v-10.2q.1-.7.8-.8h3q.7.1.8.8v9.4q.1 5.5 5 5.6 4.2 0 4.2-4.8v-10.2q.1-.7.8-.8h3q.8.1.8.8v10.6c0 5.5-3 8.7-8.2 8.7m144.3-.2h-3a1 1 0 0 1-.8-.8v-18.3q0-.7.9-.8h3q.6.1.7.8V132q0 .7-.8.8m-43.5-10c0 3.6-2.2 6-5.6 6s-5.7-2.5-5.7-6 2.3-6 5.7-6c3.3 0 5.6 2.5 5.6 6m4.7 0a10 10 0 0 0-10.3-10.1 10 10 0 0 0-10.4 10.1 10 10 0 0 0 10.4 10.2c6 0 10.3-4.3 10.3-10.2m25 10h-18a1 1 0 0 1-.8-.8v-2.7q.1-.7.8-.8h6.1q.5 0 .5-.5v-14.3q.1-.7.8-.8h3.1q.8.1.8.8V128q0 .5.6.5h6q.8.1.9.8v2.7q-.1.7-.8.8m-106.6 0h-3a1 1 0 0 1-.7-.8v-18.3q0-.7.8-.8h3q.7.1.8.8V132q0 .7-.9.8m24.3-8.8q-.2.4 0 .7l7.4 7.2c.3.3 0 .9-.4.9h-4.2q-.5 0-.6-.2l-8.2-7.6a.5.5 0 0 0-.9.4v6.6q-.1.7-.8.8h-3a1 1 0 0 1-.8-.8v-18.3q.1-.7.8-.8h3q.7.1.8.8v4.3l.2.6 2.6 2.3q.4.3.7 0l6.2-7.7q.3-.3.7-.3h4.2q.8.2.4.8zm30.4 7.7v-2.5q-.1-.7-.8-.8l-2.3.1q-5.2 0-5.3-5.7v-9q-.1-.9-.8-1h-3q-.7.1-.8 1V132q.1.7.8.8h2.9q.7-.1.8-.8v-1.2q2 2.2 6.2 2.2l1.4-.1q.9-.2 1-1.2"/></g></svg>