<?xml version="1.0" encoding="UTF-8" standalone="no"?>
<!-- Created with Inkscape (http://www.inkscape.org/) -->

<svg
   version="1.1"
   id="svg41"
   xml:space="preserve"
   viewBox="0 0 345.30188 59.528"
   xmlns="http://www.w3.org/2000/svg"
   xmlns:svg="http://www.w3.org/2000/svg"><defs
     id="defs45"><clipPath
       clipPathUnits="userSpaceOnUse"
       id="clipPath55"><path
         d="M 0,173.126 H 356.278 V 0 H 0 Z"
         id="path53" /></clipPath></defs><g
     id="g47"
     transform="matrix(1.3333333,0,0,-1.3333333,-67.012798,193.3948)"
     style="display:inline"><g
       id="g49"><g
         id="g51"
         clip-path="url(#clipPath55)"><g
           id="g57"
           transform="translate(84.5346,116.9191)"><path
             d="m 0,0 c 0,-0.724 -0.395,-1.391 -1.03,-1.74 l -2.697,-1.477 c -0.33,-0.181 -0.734,0.058 -0.734,0.434 V 7.804 c 0,0.377 -0.403,0.616 -0.733,0.435 l -4.874,-2.671 c -0.635,-0.348 -1.03,-1.014 -1.03,-1.739 V -6.672 c 0,-0.362 -0.197,-0.695 -0.515,-0.869 l -0.765,-0.418 c -0.593,-0.325 -1.312,-0.325 -1.906,10e-4 l -0.76,0.417 c -0.317,0.174 -0.515,0.507 -0.515,0.869 V 3.829 c 0,0.724 -0.394,1.391 -1.03,1.739 l -10.069,5.519 v 0.522 c 0,0.724 0.395,1.39 1.03,1.738 l 1.111,0.609 c 0.594,0.325 1.312,0.325 1.905,0 l 8.33,-4.565 c 0.594,-0.326 1.312,-0.326 1.905,0 l 3.85,2.109 c 0.343,0.188 0.343,0.681 0,0.869 l -8.649,4.741 c -0.344,0.188 -0.344,0.682 0,0.87 l 2.894,1.586 c 0.593,0.325 1.312,0.325 1.906,0 L -1.031,13.348 C -0.395,13 0,12.333 0,11.608 Z m -22.197,-2.782 c 0,-0.377 -0.404,-0.616 -0.734,-0.435 l -2.697,1.478 c -0.636,0.348 -1.03,1.015 -1.03,1.739 v 7.989 c 0,0.376 0.403,0.615 0.733,0.434 l 3.213,-1.759 c 0.317,-0.175 0.515,-0.508 0.515,-0.87 z M 7.209,16.615 c -0.054,0.125 -0.111,0.244 -0.176,0.351 -0.065,0.106 -0.142,0.213 -0.229,0.319 -0.45,0.553 -1.183,1.094 -2.12,1.608 l -7.54,4.133 -7.541,4.133 c -0.937,0.514 -1.797,0.846 -2.526,0.94 -0.14,0.018 -0.276,0.028 -0.406,0.028 -0.806,0 -1.815,-0.356 -2.933,-0.968 l -7.54,-4.133 -7.54,-4.133 c -0.937,-0.514 -1.67,-1.055 -2.12,-1.608 -0.087,-0.106 -0.164,-0.213 -0.229,-0.319 -0.065,-0.107 -0.123,-0.226 -0.176,-0.351 -0.279,-0.646 -0.408,-1.517 -0.408,-2.544 V -2.462 c 0,-1.225 0.181,-2.232 0.584,-2.895 0.403,-0.663 1.231,-1.315 2.349,-1.927 l 7.54,-4.134 7.54,-4.133 c 0.937,-0.513 1.798,-0.845 2.527,-0.939 0.14,-0.018 0.276,-0.029 0.406,-0.029 0.13,0 0.266,0.011 0.406,0.029 0.729,0.094 1.589,0.426 2.526,0.939 l 15.081,8.267 c 1.117,0.612 1.946,1.264 2.349,1.927 0.065,0.107 0.122,0.226 0.176,0.35 0.279,0.647 0.408,1.518 0.408,2.545 v 16.533 c 0,1.027 -0.129,1.898 -0.408,2.544 m 217.382,-19.917 -8.139,10.33 c -0.161,0.206 -0.142,0.5 0.044,0.683 l 7.315,7.187 c 0.327,0.321 0.1,0.877 -0.36,0.877 h -4.257 c -0.205,0 -0.404,-0.077 -0.554,-0.215 l -8.236,-7.561 c -0.329,-0.301 -0.859,-0.069 -0.859,0.377 v 6.579 c 0,0.453 -0.368,0.82 -0.82,0.82 h -2.972 c -0.453,0 -0.82,-0.367 -0.82,-0.82 V -3.311 c 0,-0.453 0.367,-0.82 0.82,-0.82 h 2.967 c 0.455,0 0.823,0.37 0.82,0.825 l -0.027,4.237 c -0.001,0.231 0.093,0.45 0.263,0.607 l 2.563,2.377 c 0.217,0.2 0.561,0.177 0.747,-0.056 l 6.191,-7.685 c 0.156,-0.194 0.391,-0.305 0.639,-0.305 h 4.271 c 0.429,0 0.668,0.493 0.404,0.829 M 47.834,15.95 c -2.681,0 -5.092,-0.924 -6.738,-2.558 -0.22,-0.218 -0.56,-0.202 -0.762,0.033 -1.407,1.634 -3.569,2.525 -6.172,2.525 -2.386,0 -4.427,-0.707 -5.834,-2.019 v 1.025 c 0,0.453 -0.368,0.819 -0.82,0.819 h -2.832 c -0.453,0 -0.821,-0.366 -0.821,-0.819 V -3.312 c 0,-0.453 0.368,-0.82 0.821,-0.82 h 2.974 c 0.452,0 0.819,0.367 0.819,0.82 v 9.415 c 0,3.551 1.819,5.587 4.989,5.587 2.794,0 4.211,-1.631 4.211,-4.847 V -3.312 c 0,-0.453 0.367,-0.82 0.819,-0.82 h 2.974 c 0.453,0 0.821,0.367 0.821,0.82 v 9.415 c 0,3.551 1.817,5.587 4.986,5.587 2.796,0 4.213,-1.631 4.213,-4.847 V -3.312 c 0,-0.453 0.368,-0.82 0.82,-0.82 h 2.974 c 0.452,0 0.82,0.367 0.82,0.82 V 7.231 c 0,5.541 -3.012,8.719 -8.262,8.719 m 144.354,-0.175 h -2.972 c -0.45,0 -0.819,-0.368 -0.819,-0.819 V -3.312 c 0,-0.453 0.367,-0.82 0.819,-0.82 h 2.972 c 0.453,0 0.821,0.367 0.821,0.82 v 18.268 c 0,0.453 -0.368,0.819 -0.821,0.819 M 148.699,5.822 c 0,3.551 -2.274,5.938 -5.659,5.938 -3.35,0 -5.691,-2.442 -5.691,-5.938 0,-3.518 2.341,-5.975 5.691,-5.975 3.331,0 5.659,2.457 5.659,5.975 m 4.647,0 c 0,-5.89 -4.334,-10.165 -10.306,-10.165 -5.991,0 -10.34,4.275 -10.34,10.165 0,5.869 4.349,10.128 10.34,10.128 5.972,0 10.306,-4.259 10.306,-10.128 m 24.975,9.953 h -17.949 c -0.451,0 -0.82,-0.368 -0.82,-0.819 v -2.658 c 0,-0.453 0.367,-0.82 0.82,-0.82 h 6.103 c 0.283,0 0.512,-0.23 0.512,-0.513 V -3.312 c 0,-0.453 0.367,-0.82 0.821,-0.82 h 3.078 c 0.453,0 0.82,0.367 0.82,0.82 v 14.277 c 0,0.283 0.229,0.513 0.512,0.513 h 6.103 c 0.453,0 0.82,0.367 0.82,0.82 v 2.658 c 0,0.453 -0.367,0.819 -0.82,0.819 m -106.508,0 h -2.974 c -0.452,0 -0.819,-0.366 -0.819,-0.819 V -3.312 c 0,-0.453 0.367,-0.82 0.819,-0.82 h 2.974 c 0.452,0 0.82,0.367 0.82,0.82 v 18.268 c 0,0.453 -0.368,0.819 -0.82,0.819 M 96.076,7.029 c -0.161,0.205 -0.143,0.499 0.044,0.682 l 7.315,7.186 c 0.327,0.322 0.099,0.878 -0.36,0.878 h -4.257 c -0.206,0 -0.403,-0.077 -0.554,-0.216 l -8.236,-7.56 c -0.329,-0.302 -0.86,-0.068 -0.86,0.378 v 6.579 c 0,0.453 -0.367,0.819 -0.819,0.819 h -2.973 c -0.452,0 -0.82,-0.366 -0.82,-0.819 V -3.312 c 0,-0.453 0.368,-0.82 0.82,-0.82 h 2.967 c 0.455,0 0.823,0.37 0.821,0.825 l -0.027,4.239 c -0.002,0.229 0.094,0.45 0.263,0.607 l 2.563,2.375 C 92.18,4.116 92.524,4.091 92.71,3.86 l 6.192,-7.686 c 0.155,-0.193 0.39,-0.306 0.638,-0.306 h 4.271 c 0.429,0 0.668,0.493 0.403,0.83 z m 30.417,7.693 0.001,-2.496 c 0.001,-0.465 -0.383,-0.837 -0.849,-0.82 -0.709,0.028 -1.697,0.063 -2.303,0.073 -3.388,0 -5.259,-2.022 -5.259,-5.693 v -9.098 c 0,-0.453 -0.368,-0.82 -0.82,-0.82 h -2.974 c -0.452,0 -0.819,0.367 -0.819,0.82 v 18.268 c 0,0.453 0.367,0.819 0.819,0.819 h 2.833 c 0.452,0 0.819,-0.366 0.819,-0.819 v -1.165 c 1.354,1.404 3.515,2.159 6.186,2.159 0.443,0 1.003,-0.062 1.393,-0.116 0.555,-0.075 0.973,-0.552 0.973,-1.112"
             style="fill:#272d33;fill-opacity:1;fill-rule:nonzero;stroke:none"
             id="path59" /></g><g
           id="g61"
           transform="translate(68.976,46.9015)" /></g></g></g></svg>
