<svg xmlns="http://www.w3.org/2000/svg" viewBox="0 0 535.5 157.1"><g fill-rule="evenodd"><path fill="#ed192d" d="M59.7 155.2H0l29.9-51.9h59.4zm59.5 0h59.6l-29.9-51.9H89.3zm0-103.5L89.3 0 59.7 51.7l29.6 51.6z"/><path fill="#231f20" d="M205 133.9h23.9v-8.7h-24v-10.8h27v-8.6h-37.3V156h38v-8.9H205zM204 60l10.8 37.2h9.8L235.3 60v37.2h9.4V47h-14.5l-10.5 35.4L209.3 47h-14.7v50.3h9.5zm231.4-13h-10v50.3h10zm8.4 58.8h-10.2V156h10.2zM535.5 47h-10.2v50.3h10.2zm-276.6 0h-10.1v50.3h10.1zm252.4 19.7h-20V47H481v50.3h10.2v-22h20.1v22h9.9V47h-9.9zM273.8 97.3h10.4V55.7h12.2V47h-34.8v8.7h12.2zM366 156h10.3v-41.6h12.4v-8.6h-35v8.6H366zm-6.8-57.3c12.8 0 20-5.8 20-17.1V47h-10.1v35.6c0 4.3-3.8 7.8-10 7.8-7.6 0-9.9-4.3-9.9-7.8V47h-10v34.6c0 12.1 7.8 17.1 20 17.1M282.7 134h24v-8.7h-24v-10.8h27.1v-8.6h-37.2V156h37.8v-8.9h-27.7zm110.7-36.7h14.4c9.3 0 15.2-5.5 15.2-13.4a14 14 0 0 0-9.8-13.2c4.4-1 7.9-5.6 7.9-11.2 0-7.4-5.4-12.4-15.5-12.4h-22.8v50.2zm11.4-7.6h-11.9V75.1h11.9c4 0 7.6 2.5 7.6 7.3 0 4.1-3.1 7.2-7.6 7.2m.8-34.5a6 6 0 0 1 5.8 6c0 2.9-2.1 6.2-6.4 6.2h-12V55.1zm16 76.7c4.2-1.2 9-5.2 9-12.2 0-8.8-6.2-14-16.3-14h-23v50.2h10.2V136h8.6c5.2 0 8.1 3 9 6.5.7 4 .5 9.7 1.5 13.4H431a70 70 0 0 1-1.9-13.2c-.4-6.8-3.9-9.5-7.6-10.8m-20.1-3.7v-13.8h12.1c4.2 0 6.9 2.8 6.9 7 0 2.6-2.3 6.8-6.4 6.8zM246 105.8h-10.3V156h33.9v-8.9H246zm67.5-29.6c8 1.2 12.5 2.9 12.5 7.6 0 3.3-3 6.4-9.9 6.4-6.8 0-10.3-3.7-10.3-8.2h-9.7c0 8.7 5.7 16.5 20.4 16.5 14 0 20-7.4 20-15.9 0-7.9-5.1-12.9-14.2-14.7s-15.1-2-15.1-7.8c0-3.8 3.6-6 9-6 5.7 0 9.2 2.6 9.2 7.6h9.7c0-8-6-16.2-19.4-16.2-9.1 0-18.6 5.4-18.6 15.4 0 8.3 6 13.4 16.4 15.3m141.4 0c8.3 1.2 12.8 2.9 12.8 7.6 0 3.3-3.3 6.4-9.9 6.4-6.8 0-10.4-3.7-10.4-8.2h-9.7c0 8.7 5.6 16.5 20.5 16.5 14.1 0 20-7.4 20-15.9q-.1-12-14.4-14.7c-8.9-1.7-14.9-2-14.9-7.8 0-3.8 3.5-6 9-6 5.7 0 9 2.6 9 7.6h10c0-8-6-16.2-19.5-16.2-9.1 0-18.9 5.4-18.9 15.4 0 8.3 6.2 13.4 16.4 15.3m-121.6 72c-8.3 0-13-8.1-13-17.6s4.7-17.6 13-17.6c6.2 0 9.5 4 10.7 8.7h10.6c-1.6-10-9.3-17.2-21.5-17.2-15.5 0-23.2 11.8-23.2 26.3s8 26.3 23.2 26.3c12 0 20-7 21.5-17.8H344c-1.4 4.9-4.5 8.8-10.7 8.8m136 0c-8 0-12.7-8.1-12.7-17.6s4.5-17.6 12.8-17.6c6.2 0 9.5 4 10.7 8.7h10.6c-1.6-10-9.3-17.2-21.5-17.2-15.3 0-23.2 11.8-23.2 26.3s8 26.3 23.2 26.3c12 0 20-7 21.7-17.8h-10.8c-1.2 4.9-4.5 8.8-10.7 8.8"/></g></svg>