<svg xmlns="http://www.w3.org/2000/svg" viewBox="0 0 535.49011 157.08025"><g fill-rule="evenodd"><path d="M59.702 155.172H0l29.85-51.87h59.455zm59.457 0H178.8l-29.854-51.87H89.305zm0-103.488L89.304 0 59.702 51.684 89.305 103.3l29.854-51.616" fill="#ed192d"/><path d="M204.96 133.885h23.943v-8.69H204.96V114.44h26.883v-8.688h-37.259v50.265h38.073v-8.877H204.96zm-.875-73.833L214.84 97.25h9.752l10.75-37.198V97.25h9.315V46.983H230.153L219.65 82.372l-10.375-35.388H194.584V97.25h9.502zm231.252-13.068H425.21V97.25h10.127zm8.314 58.768h-10.123v50.265h10.124zm91.84-58.768H525.3V97.25h10.19zm-276.577 0h-10.127V97.25h10.127zM511.3 66.68h-20.072V46.983h-10.19V97.25h10.19V75.37h20.07v21.88h9.876V46.983H511.3zM273.793 97.25h10.377V55.675h12.193v-8.692h-34.76v8.692h12.192zm92.275 58.767h10.314V114.44h12.442v-8.688H353.88v8.69h12.19zm-6.816-57.268c12.82 0 20.07-5.817 20.07-17.193V46.984h-10.127v35.64c0 4.31-3.75 7.81-9.943 7.81-7.69 0-9.94-4.314-9.94-7.81v-35.64h-9.943v34.573c0 12.19 7.692 17.192 19.884 17.192zm-76.52 35.135h23.944v-8.69h-23.945V114.44h27.073v-8.688h-37.201v50.265h37.822v-8.877h-27.694zM393.388 97.25h14.44c9.313 0 15.133-5.565 15.133-13.443 0-6.373-4.754-11.938-9.756-13.19 4.376-1.062 7.878-5.625 7.878-11.192 0-7.44-5.377-12.44-15.507-12.44h-22.753v50.264zm11.377-7.627h-11.815V75.12h11.815c4.126 0 7.632 2.498 7.632 7.252 0 4.126-3.132 7.25-7.633 7.25zm.81-34.51c2.692 0 5.817 2.438 5.817 5.938 0 2.94-2.126 6.253-6.44 6.253h-12.002v-12.19zm15.945 76.71c4.314-1.25 9.064-5.192 9.064-12.192 0-8.876-6.185-14.066-16.316-14.066h-22.943v50.266h10.127v-19.883h8.69c5.125 0 8.065 2.876 8.877 6.443.815 3.936.627 9.688 1.626 13.44h10.377c-1.06-3.752-1.687-9.126-1.875-13.258-.436-6.816-3.94-9.498-7.626-10.75zm-20.068-3.754v-13.814h12.19c4.126 0 6.815 2.874 6.815 7 0 2.69-2.25 6.813-6.38 6.813zM246.1 105.75h-10.318v50.265h33.883v-8.877H246.1zm67.454-29.57c8.066 1.252 12.568 2.877 12.568 7.625 0 3.318-3.067 6.443-9.88 6.443-6.878 0-10.378-3.752-10.378-8.253h-9.69c0 8.69 5.75 16.503 20.44 16.503 14.068 0 20.072-7.44 20.072-15.877 0-7.88-5.187-12.883-14.255-14.693-9.124-1.69-15.13-2.065-15.13-7.878 0-3.752 3.566-6 8.943-6 5.752 0 9.25 2.685 9.25 7.625h9.755c0-8.068-6-16.128-19.44-16.128-9.13 0-18.634 5.373-18.634 15.313 0 8.318 6 13.443 16.38 15.32zm141.478 0c8.253 1.252 12.816 2.877 12.816 7.625 0 3.318-3.315 6.443-9.94 6.443-6.815 0-10.38-3.752-10.38-8.253h-9.69c0 8.69 5.564 16.503 20.504 16.503 14.072 0 20.01-7.44 20.01-15.877 0-7.88-5.127-12.883-14.443-14.693-8.878-1.69-14.88-2.065-14.88-7.878 0-3.752 3.5-6 8.878-6 5.817 0 9.065 2.685 9.065 7.625h9.94c0-8.068-6.004-16.128-19.444-16.128-9.065 0-18.818 5.373-18.818 15.313 0 8.318 6.19 13.443 16.38 15.32zm-121.66 71.957c-8.25 0-13.002-8.067-13.002-17.568 0-9.506 4.753-17.566 13.003-17.566 6.19 0 9.5 3.936 10.752 8.69h10.566c-1.624-9.94-9.315-17.198-21.507-17.198-15.502 0-23.193 11.818-23.193 26.262 0 14.506 8.066 26.32 23.193 26.32 12.005 0 20.07-7.067 21.508-17.815h-10.565c-1.438 4.935-4.563 8.874-10.752 8.874zm136.102 0c-8.063 0-12.816-8.067-12.816-17.568 0-9.506 4.563-17.566 12.816-17.566 6.19 0 9.5 3.936 10.75 8.69h10.57c-1.628-9.94-9.318-17.198-21.508-17.198-15.317 0-23.192 11.818-23.192 26.262 0 14.506 8.065 26.32 23.192 26.32 12.002 0 20.07-7.067 21.693-17.815h-10.755c-1.25 4.935-4.56 8.874-10.75 8.874" fill="#231f20"/></g></svg>