<?xml version="1.0" encoding="utf-8"?>
<!-- Generator: Adobe Illustrator 23.0.3, SVG Export Plug-In . SVG Version: 6.00 Build 0)  -->
<svg version="1.1" id="Layer_1" xmlns="http://www.w3.org/2000/svg" xmlns:xlink="http://www.w3.org/1999/xlink" x="0px" y="0px"
	 viewBox="0 0 229.41 23.1" style="enable-background:new 0 0 229.41 23.1;" xml:space="preserve">
<style type="text/css">
	.st0{fill:#231F20;}
	.st1{fill:#002F87;}
	.st2{fill:none;stroke:#002F87;stroke-width:0.8237;}
</style>
<path class="st0" d="M33.76,16.6h-2.37V9.45h-0.03l-2.27,7.16h-2.49l-2.22-7.16h-0.03v7.16h-2.38V8.04h3.72l2.21,6.75h0.03
	l2.17-6.75h3.68V16.6z"/>
<path class="st0" d="M40.73,7.82c1.55,0,5.62,0.49,5.62,4.51s-4.07,4.51-5.62,4.51c-1.55,0-5.62-0.49-5.62-4.51
	S39.18,7.82,40.73,7.82z M40.73,15.32c1.32,0,3.18-0.6,3.18-2.99c0-2.4-1.86-2.99-3.18-2.99c-1.32,0-3.18,0.6-3.18,2.99
	C37.55,14.72,39.41,15.32,40.73,15.32z"/>
<path class="st0" d="M54.61,8.04h2.22v8.56h-2.38l-4.65-6.11h-0.03v6.11h-2.22V8.04h2.51L54.57,14h0.03V8.04z"/>
<path class="st0" d="M63.68,16.6h-2.37V9.56h-3.42V8.04h9.21v1.51h-3.42V16.6z"/>
<path class="st0" d="M75.45,10.84c-0.19-0.51-0.55-1.48-2.5-1.48c-1.13,0-2.79,0.57-2.79,2.99c0,1.54,0.8,2.92,2.79,2.92
	c1.3,0,2.21-0.56,2.5-1.61h2.35c-0.47,1.86-2.07,3.16-4.9,3.16c-3,0-5.15-1.54-5.15-4.5c0-2.99,2.28-4.52,5.18-4.52
	c3.37,0,4.74,1.76,4.86,3.03H75.45z"/>
<path class="st0" d="M81.19,15.05h5.53v1.55h-7.86V8.04h2.33V15.05z"/>
<path class="st0" d="M89.43,16.6H87l3.94-8.56h2.66l3.89,8.56h-2.51l-0.71-1.76H90.2L89.43,16.6z M90.81,13.36h2.82l-1.37-3.39
	h-0.03L90.81,13.36z"/>
<path class="st0" d="M100.6,16.6H98.3V8.04h2.29V16.6z"/>
<path class="st0" d="M102.74,8.04h5.55c2.92,0,3.46,1.68,3.46,2.42c0,0.94-0.61,1.75-1.7,2.04c0.9,0.31,1.39,0.57,1.39,2.17
	c0,1.25,0,1.56,0.49,1.71v0.23h-2.54c-0.15-0.41-0.24-0.85-0.24-1.73c0-1.17-0.09-1.62-1.79-1.62h-2.37v3.35h-2.25V8.04z
	 M107.68,11.81c1.19,0,1.77-0.32,1.77-1.17c0-0.45-0.26-1.12-1.61-1.12h-2.86v2.29H107.68z"/>
<path class="st1" d="M117.53,16.6V8.02h5.77v0.69h-4.93v3.1h4.48v0.69h-4.48v4.1H117.53z"/>
<path class="st1" d="M124.83,16.6V8.02h0.85v8.59H124.83z"/>
<path class="st1" d="M127.05,16.6V8.02h3.7c2.4,0,3.35,0.87,3.35,2.16c0,1.19-0.81,1.73-1.64,1.85v0.02c1.41,0.18,2.1,1,2.1,2.14
	c0,1.79-1.39,2.42-3.34,2.42H127.05z M128.02,11.81h2.44c2.02,0,2.67-0.6,2.67-1.63c0-1.07-0.77-1.47-2.89-1.47h-2.23V11.81z
	 M128.02,15.91h2.46c2.13,0,3.13-0.24,3.13-1.73c0-1.42-1.2-1.68-3.02-1.68h-2.57V15.91z"/>
<path class="st1" d="M136.29,16.6V8.02h5.96v0.69h-5.11v3.1h4.62v0.69h-4.62v3.41h5.24v0.69H136.29z"/>
<path class="st1" d="M144.81,12.71v3.9h-0.93V8.02h3.88c2.18,0,3.37,0.67,3.37,2.25c0,1.08-0.47,1.66-1.61,2.1
	c1.17,0.35,1.24,1.42,1.27,2.33c0.04,1.3,0.17,1.66,0.41,1.82v0.08h-1.03c-0.39-0.58-0.29-2.19-0.44-2.85
	c-0.22-0.93-1.03-1.05-1.97-1.05H144.81z M147.73,12.01c1.39,0,2.47-0.5,2.47-1.71c0-1.29-1.16-1.6-2.41-1.6h-2.98v3.3H147.73z"/>
<path class="st1" d="M159.85,7.79c3.08,0,4.64,2.02,4.64,4.53c0,2.47-1.56,4.51-4.6,4.51c-3.04,0-4.59-2.04-4.59-4.51
	C155.29,9.82,156.9,7.79,159.85,7.79z M163.56,12.32c0-2.38-1.41-3.84-3.68-3.84c-2.53,0-3.64,1.85-3.64,3.84
	c0,2.03,1.1,3.82,3.67,3.82C162.46,16.14,163.56,14.33,163.56,12.32z"/>
<path class="st1" d="M165.29,16.6V8.02h4.02c2.86,0,3.59,1.11,3.59,2.4c0,1.92-2.18,2.4-4.22,2.4h-2.35v3.79H165.29z M168.71,12.12
	c1.94,0,3.15-0.31,3.15-1.76c0-1.07-0.89-1.65-2.84-1.65h-2.69v3.41H168.71z"/>
<path class="st1" d="M173.77,8.02h5.11v0.69h-2.22v7.89h-0.66V8.71h-2.22V8.02z"/>
<path class="st1" d="M180.95,16.6V8.02h0.95v8.59H180.95z"/>
<path class="st1" d="M190.9,10.51c-0.41-1.47-1.53-2.03-3.34-2.03c-2.56,0-3.66,1.78-3.66,3.8c0,1.92,0.87,3.85,3.75,3.85
	c1.82,0,2.96-1,3.35-2.36h1.05c-0.47,1.66-1.75,3.05-4.59,3.05c-3.26,0-4.56-2.09-4.56-4.52c0-3.28,2.12-4.52,4.93-4.52
	c2.18,0,3.77,0.94,4.1,2.72H190.9z"/>
<path class="st1" d="M193.87,14.04c0.15,1.54,1.3,2.1,2.76,2.1c1.72,0,2.44-0.84,2.44-1.78c0-2.66-5.86-0.89-5.86-4.27
	c0-1.19,1.11-2.3,3.26-2.3c2.16,0,3.24,1.17,3.23,2.56h-0.87c0-1.31-1.13-1.87-2.36-1.87c-1.84,0-2.51,1.01-2.35,1.9
	c0.41,2.22,5.85,0.62,5.85,3.95c0,1.57-1.29,2.5-3.51,2.5c-2,0-3.48-0.93-3.48-2.79H193.87z"/>
<path class="st1" d="M202.93,16.96c0,0.69-0.39,1.12-0.91,1.28V17.8c0.2-0.12,0.42-0.31,0.42-0.79V16.6h-0.42v-1.05h0.91V16.96z"/>
<path class="st1" d="M207.11,16.6V8.02h0.85v8.59H207.11z"/>
<path class="st1" d="M210.3,9.12h-0.03v7.49h-0.96V8.02h1.09l5.87,7.5h0.03v-7.5h0.96v8.59h-1.11L210.3,9.12z"/>
<path class="st1" d="M225.61,10.51c-0.35-1.47-1.29-2.03-2.82-2.03c-2.17,0-3.1,1.78-3.1,3.8c0,1.92,0.73,3.85,3.17,3.85
	c1.54,0,2.5-1,2.84-2.36h0.88c-0.4,1.66-1.48,3.05-3.88,3.05c-2.76,0-3.86-2.09-3.86-4.52c0-3.28,1.79-4.52,4.17-4.52
	c1.84,0,3.18,0.94,3.47,2.72H225.61z"/>
<path class="st1" d="M228.5,16.6v-1.05h0.91v1.05H228.5z"/>
<path class="st2" d="M9.26,13.7c1.11-0.07,2.01-0.97,2.01-2.1c0-1.13-0.89-2.03-2.01-2.1"/>
<path class="st2" d="M9.26,9.5c0-0.5,0-5.95,0-6.51c4.65,0.16,8.39,3.97,8.39,8.66c0,4.69-3.74,8.5-8.39,8.66c0-0.56,0-6.09,0-6.6"
	/>
<path class="st1" d="M9.23,11.6c0,0.14-0.12,0.26-0.26,0.26v1.55c0.06,0,0.11,0.02,0.17,0.02c1.01,0,1.83-0.82,1.83-1.83
	c0-1.01-0.82-1.83-1.83-1.83c-0.06,0-0.12,0.01-0.17,0.02v1.55C9.11,11.33,9.23,11.45,9.23,11.6z"/>
<path class="st1" d="M0,11.33h7.33h1.63V9.78V2.66C4.11,2.66,0.17,6.52,0,11.33z"/>
<path class="st1" d="M7.34,11.86H0c0.12,4.86,4.08,8.76,8.97,8.76v-7.21v-1.55H7.34z"/>
<line class="st2" x1="9.17" y1="14.82" x2="9.17" y2="23.1"/>
<line class="st2" x1="9.17" y1="0" x2="9.17" y2="13.84"/>
</svg>
