<svg xmlns="http://www.w3.org/2000/svg" xml:space="preserve" viewBox="0 0 229.4 23.1"><path d="M33.8 16.6h-2.4V9.4L29 16.7h-2.5l-2.2-7.2v7.2H22V8h3.7l2.2 6.8L30.1 8h3.7zm6.9-8.8c1.6 0 5.6.5 5.6 4.5s-4 4.5-5.6 4.5-5.6-.5-5.6-4.5 4-4.5 5.6-4.5m0 7.5c1.3 0 3.2-.6 3.2-3s-1.9-3-3.2-3-3.2.6-3.2 3 2 3 3.2 3M54.6 8h2.2v8.6h-2.3l-4.7-6.1v6.1h-2.3V8h2.6l4.5 6zm9.1 8.6h-2.4v-7H58V8h9v1.5h-3.4zm11.8-5.8c-.2-.5-.6-1.4-2.5-1.4-1.2 0-2.8.5-2.8 3 0 1.5.8 2.9 2.7 2.9q2 0 2.5-1.6h2.4q-.7 2.9-4.9 3.1c-3 0-5.2-1.5-5.2-4.5S70 7.8 73 7.8c3.4 0 4.8 1.8 4.9 3zm5.7 4.2h5.5v1.6H79V8h2.3zm8.2 1.6H87L91 8h2.6l3.9 8.6H95l-.7-1.8h-4.1zm1.4-3.2h2.8L92.3 10zm9.8 3.2h-2.3V8h2.3zm2.1-8.6h5.6c3 0 3.4 1.7 3.4 2.5q0 1.4-1.7 2c1 .3 1.4.6 1.4 2.2q-.1 1.6.5 1.7v.2h-2.5q-.3-.5-.3-1.7c0-1.2 0-1.6-1.7-1.6H105v3.3h-2.3zm5 3.8q1.8 0 1.8-1.2c0-.4-.3-1-1.7-1H105v2.2z" class="st0"/><path d="M117.5 16.6V8h5.8v.7h-5v3.1h4.6v.7h-4.5v4.1zm7.3 0V8h.9v8.6zm2.2 0V8h3.7q3.6.1 3.4 2.2-.2 1.7-1.6 1.8 2 .3 2 2.2-.2 2.5-3.3 2.4zm1-4.8h2.5q2.8 0 2.6-1.6c0-1-.7-1.5-2.9-1.5H128zm0 4.1h2.5c2.1 0 3.1-.2 3.1-1.7 0-1.4-1.2-1.7-3-1.7H128zm8.3.7V8h6v.7H137v3.1h4.7v.7H137v3.4h5.3v.7zm8.5-3.9v4h-1V8h4q3.2 0 3.3 2.3.1 1.5-1.6 2c1.2.4 1.3 1.5 1.3 2.4q0 1.8.4 1.8v.1h-1c-.4-.6-.3-2.2-.5-2.9q-.4-1.2-2-1zm3-.7c1.3 0 2.4-.5 2.4-1.7 0-1.3-1.2-1.6-2.4-1.6h-3V12zm12.1-4.2c3 0 4.6 2 4.6 4.5s-1.6 4.5-4.6 4.5-4.6-2-4.6-4.5 1.6-4.5 4.5-4.5m3.7 4.5q-.1-3.7-3.7-3.8c-2.6 0-3.7 1.8-3.7 3.8s1.1 3.8 3.7 3.8 3.7-1.8 3.7-3.8m1.8 4.3V8h4c2.9 0 3.6 1.1 3.6 2.4 0 2-2.2 2.4-4.2 2.4h-2.4v3.8zm3.4-4.5q3.1.2 3.2-1.7 0-1.7-2.9-1.7h-2.7v3.4zm5.1-4.1h5v.7h-2.1v7.9h-.7V8.7h-2.2zm7.2 8.6V8h.9v8.6zm9.9-6.1q-.6-2.1-3.3-2c-2.6 0-3.7 1.8-3.7 3.8s.9 3.8 3.8 3.8q2.8-.2 3.3-2.3h1c-.4 1.6-1.7 3-4.5 3-3.3 0-4.6-2-4.6-4.5 0-3.3 2.1-4.5 5-4.5q3.3 0 4 2.7zm3 3.5c.1 1.6 1.3 2.1 2.7 2.1q2.6-.2 2.5-1.7c0-2.7-5.9-1-5.9-4.3 0-1.2 1.1-2.3 3.3-2.3s3.2 1.2 3.2 2.6h-.9c0-1.4-1.1-2-2.3-2-1.9 0-2.5 1-2.4 2 .4 2.2 5.9.6 5.9 4q-.1 2.3-3.5 2.4c-2 0-3.5-.9-3.5-2.8zm9.1 3q-.1 1-1 1.2v-.4q.3-.1.4-.8v-.4h-.4v-1h1zm4.1-.4V8h.9v8.6zm3.2-7.5v7.5h-1V8h1.1l5.9 7.5V8h1v8.6h-1.1zm15.3 1.4q-.5-2.1-2.8-2c-2.2 0-3.1 1.8-3.1 3.8s.7 3.8 3.2 3.8q2.3-.2 2.8-2.3h.9c-.4 1.6-1.5 3-3.9 3-2.8 0-3.9-2-3.9-4.5 0-3.3 1.8-4.5 4.2-4.5q2.9 0 3.5 2.7zm2.9 6.1v-1h1v1z" class="st1"/><path d="M9.3 13.7c1 0 2-1 2-2.1s-1-2-2-2.1" class="st2"/><path d="M9.3 9.5V3a8.7 8.7 0 0 1 0 17.3v-6.6" class="st2"/><path d="M9.2 11.6q0 .2-.2.3v1.5a1.8 1.8 0 0 0 0-3.6v1.5q.2 0 .2.3M0 11.3h9V2.7a9 9 0 0 0-9 8.6m7.3.6H0a9 9 0 0 0 9 8.7V12z" class="st1"/><path d="M9.2 14.8v8.3M9.2 0v13.8" class="st2"/></svg>