<svg xmlns="http://www.w3.org/2000/svg" xml:space="preserve" viewBox="0 0 1158 127"><path d="M309 83q-20-3-29-20c-2-5-3-7-3-17 0-9 1-11 3-16q11-22 43-21 35 4 39 34 2 20-13 32-15 11-40 8m28-11q15-7 16-24 0-12-7-20c-8-11-31-14-46-6q-15 7-14 26 1 13 9 19c7 7 12 8 27 8zm417 11q-11-2-18-6-15-9-16-24-3-39 37-44 17 0 28 5c6 3 13 8 13 10l-4 3-3 2-4-3q-11-11-32-8-14 2-20 9-7 8-6 20 1 25 27 28c21 2 36-5 37-17v-5h-31v-9h40v22l-5 5q-8 9-20 11t-23 1m96 0-10-2c-5-1-16-7-20-10l-3-2 4-3 3-3 6 4c11 7 17 8 32 8 12-1 14-1 19-5q9-7 2-14c-4-3-8-4-24-6q-40-4-38-20 0-9 8-14 9-8 27-6c11 0 13 0 20 2 6 3 16 8 16 10l-3 3q-4 3-6 1-17-11-35-8t-18 11c0 7 7 10 30 12 21 3 29 5 33 12s1 18-6 23c-7 6-23 9-37 7m-685-2-1-35V11h10l17 21 18 21 11-14 20-23q3-6 8-5h5v70h-9V53l-1-28-17 21-18 21-30-37-5-6v28c0 28 0 29-2 29zm220 1V11h56l6 3q14 8 11 23-3 13-16 16l-4 2 8 9 15 17h-12l-11-13-11-13h-33v13l-1 13-4 1zm57-38c8-3 10-12 5-19-4-5-10-6-33-6h-20v27h22c20 0 23 0 26-2m40 37V11h9l28 28 29 28V11h9v70h-4c-5 0-5 0-33-29l-29-29v29l-1 29zm103 0V11h9v35l-1 35zm36 0V11h10l28 28 28 28 1-28V11h8v70h-4c-3 0-5-2-33-29l-29-30v59l-4 1zm317 0V50l-1-31h-32v-8h75v8h-33v31l-1 31zm39 0 33-60 5-10h5q7-1 7 3l36 66-4 1h-5l-5-9-5-9h-24l-24 1-5 10-4 8h-5zm61-27-3-6-12-24-3-4-7 13-11 21zm44 27V11h25c29 0 34 1 40 5 7 6 8 8 8 17q1 8-2 11-4 6-14 9l-4 2 11 13 12 13h-11l-12-13-11-13h-33v13l-1 13zm57-37c10-4 10-18 0-23-3-1-8-2-26-2h-22v27h22c20 0 23 0 26-2M6 63l21-36L42 0h30l29 1-35 61-7 11H0z"/><path fill="#e16c37" d="M99 93 78 57l-3-5 3-5 26-45 41 74-28 48z"/><path fill="#848484" d="M26 119 2 77l40-1 41 1q3 0 5 5l22 38 4 7H30z"/></svg>