<svg xmlns="http://www.w3.org/2000/svg" fill="#008880" viewBox="0 0 594.2 87.7"><path d="M395.8 43.9c-.6-.4-.6-1.2 0-1.5l44.3-36.9q.8-.7-.2-.8h-32.4q-1.3.1-2.3.8L378.7 28a2 2 0 0 1-1.9 0L350.5 5.5q-1-.7-2.3-.8h-32.4q-1.2.1-.2.8l44.3 36.9c.6.4.6 1.2 0 1.5l-46.6 39.4q-.9.7-.9 1h31.8q1.3-.1 2.3-.8L377 58a2 2 0 0 1 1.9 0l30.7 25.5q1 .7 2.3.8h31.8l-.9-1z"/><path d="M593.5 84.3q1.2 0 .4-1L533.3 5.7q-.7-1-2.1-1h-25a3 3 0 0 0-2.1 1l-60.4 77.6q-.5 1 .4 1h28.4q1.3 0 1.9-1l43.4-57.8q.8-.9 1.5 0l43.2 57.8q.8 1 1.9 1zM292.7 43.8c0 17.5-21.8 29.2-48.9 29.2-26.9 0-48.7-11.9-48.7-29.2s21.8-29.2 48.7-29.2c27.2 0 48.9 11.9 48.9 29.2m25.2 0C317.9 19.6 284.8 0 244 0s-73.9 19.6-73.9 43.8 33.1 44 73.9 44 73.9-19.9 73.9-44M121 4.8q-1.2 0-1.9 1L78.2 64.9q-.6.9-1.5 0L35.6 6q-.8-1-1.9-1H1.1Q.1 4.9 0 6.2v77q.1 1.3 1.3 1.3H28q1.3-.1 1.3-1.3V31.7q.1-1.2.8-.2L67 83.3q.8 1 1.9 1h17.2q1.3 0 1.9-1l36.9-52q.7-.8.8.2V83q.1 1.2 1.3 1.3h26.5q1.3-.1 1.3-1.3V6.2q-.1-1.2-1.3-1.3H121z"/></svg>