<svg xmlns="http://www.w3.org/2000/svg" xml:space="preserve" viewBox="0 0 954 373"><path fill="#a09fa4" d="M535 366v-7h4q11 1 14-16c2-4 2-5-2-15l-19-61q-2-1 7-1h9l1 3 5 20c1 0 3 9 2 10l1 1 2 7 3 6 2-7 4-10 4-16 4-13 9-1h10l-1 3-18 55q0 7-1 3-1-2-1 1c1 2-7 30-11 34q-5 9-21 11h-7zm-53-26-6-3-1-1q0 2-4-3c-4-3-7-10-5-12l9-1 8 1 2 5q2 2 9 3 6 0 8-3 4-3 3-7c-1-5-3-6-15-10l-10-4-1-1-4-2c-11-7-12-21-1-30q5-5 8-4l1-1q2-2 9-2 15 0 23 7 6 7 6 11v1l1 1-9 1-9-1q1-3-2-4c-5-4-15-3-17 1q-2 6 1 10l10 4q16 5 16 7l1 1c3-2 9 8 9 16q-1 15-18 21c-5 1-18 1-23-1m136 1q-15-8-17-18v-3h8q11-1 9 2l4 4q2 3 8 3l6-1 2-2q3-3 2-8 1-4-13-9c-15-4-20-8-24-14q-2-6-1-14c2-6 11-13 17-14l3-1 10-1q8 1 13 4 10 5 12 14v3h-18l-1-3c-2-5-13-6-17-1q-7 9 9 14l9 3h1q3 0 11 5 11 11 5 24l-4 4-1 1c1 1-5 6-10 7-5 2-18 2-23 1m77 0-5-1q-10 0-16-8c-2-3-2-5-2-29v-26h-10v-11h10v-24h18v24h13v11h-13v21l1 28 3 1 6 1h3v14h-4zm29-1-8-5c-6-6-6-8-7-28 0-23 1-28 7-34q7-8 22-8 14-1 22 8c6 6 7 10 7 25v11h-39v7q0 9 5 11 11 3 14-4l1-3h10c9 0 9 0 9 2l-1 4-1 1v1c1 2-9 10-15 12-6 3-19 2-26 0m24-48q1-7-2-10-2-2-8-2-5-1-8 2-2 3-2 10v6h20zm34 12v-38h19v4l1 3 4-3q6-6 16-5 6 0 5 2h2l5 2q5 4 6 1h4l1-1c-2-2 5-4 13-4q11 0 16 6l1 2 2 1c1 2 2 4 2 35v33h-19v-58l-3-2c-3-3-11-4-14 0-2 2-3 2-3 31v29h-19v-28c0-29 0-29-2-32l-7-3q-5-1-8 3l-3 3v57h-19zm58-29-1-1v1zm69 65-8-4q-7-6-8-14c0-2 0-2 9-2q9-1 9 2c2 6 10 9 16 5q7-3 5-10-1-6-15-8-23-7-23-23 0-14 17-20c7-2 19-1 26 2 4 3 12 10 10 12l1 1 1 3q1 3-8 2c-9 0-9 0-10-3-3-5-14-6-18-2l-2 9 2 1 8 4 8 4q1 2 0 0 0-2 7 1c12 5 17 18 12 28-2 3-9 11-11 11l-5 2c-5 2-18 1-23-1M83 232h16v-64l1-64v129zH67zm202 0h8l-4 1q-8 0-4-1m-82-11 4-4-3 4-4 3zm-71-1-2-2zl3 3zm110-23v2zm-123-7v2zm98 0v2zm-33-65 1-6zm-151-9q0-2 1-1v2q-1 1-1-1m86-7q0-2 1-1v2q-1 1-1-1m98 0v2zM46 98h2zm179-18 1-7zm-23-2-1-2zl2 3zm73-36V17h-16l-16-1h16l17 1v26l-1 25zm-99 23h2z"/><path fill="#008cb9" d="M472 233q-29-2-35-27l-2-105V0h33v96c0 108 0 102 7 105l7 2 3 4q1 15 9 23l3 4h-8zm45 0q-16-5-22-23c-2-6-2-8-2-21 0-28 5-41 20-49q11-5 33-5h15v-12c-1-19-4-24-17-24q-13 0-17 10l-3 5h-15c-18 0-17 1-14-10q3-13 12-23 14-16 37-15 31 0 43 24c6 12 6 13 6 80v62h-32v-8l-1-9-2 2c-3 5-12 12-16 14-6 3-18 3-25 2m36-31 5-6c2-4 2-6 3-20v-15h-2c-4-1-14-1-19 1q-15 4-15 22 1 15 10 20c4 2 15 1 18-2m94 31c-20-4-36-21-38-42v-6h15l15 1 2 4q3 13 16 13 18-1 19-18c0-12-5-16-24-23-15-6-22-10-29-16q-10-11-12-26-3-23 13-41c19-18 48-18 67-1 8 8 14 21 14 31v4h-30l-1-3q-3-14-18-14c-11 1-18 12-14 23 2 6 6 8 22 15 24 9 32 15 37 26q12 24 0 47a49 49 0 0 1-54 26m249 0q-16-2-28-14-8-9-11-21l-1-47c-1-46 0-51 6-62q13-23 43-24 21 0 34 14 13 12 14 33l1 5h-33v-5q-3-15-16-14-11 0-15 8c-2 4-2 7-2 44 0 36 0 40 2 43 3 7 15 10 23 6q5-2 7-12l1-3h33l-1 6c-3 29-27 47-57 43M319 116V0h98v31h-66v69h57v30h-28l-29 1v68h66v33h-98zm437 114q-21-5-26-28l-1-57V93h-16V67h16V17h33v50h20v26h-20v102l3 3q3 2 10 3h7v31h-10zm47-80V67h33v165h-33zm0-118V16h33v32h-33z"/><path fill="#010101" d="M154 232q-25-7-33-31l-1-51 1-51q4-12 12-20 17-17 43-13 30 4 40 34l2 34v28h-66v14c0 15 1 19 6 22q3 3 11 3 7 0 10-3 3-4 4-9l2-5h16l17 1-1 5q-1 18-15 31t-35 13zm31-109c-1-15-2-18-7-22q-3-2-10-2-9-2-14 8c-2 4-2 6-2 17v12h33ZM0 150V67h33v16l6-6c9-9 14-11 25-11q22-2 31 18l4 7v141H66V111l-2-4q-5-9-14-8-11-1-14 8c-2 3-3 6-3 64v61H0zm269 81q-21-6-26-31l-1-57V93h-16V67h16V17h33v50h21v26h-21v47l1 51 3 7q3 2 10 3h7v31h-11z"/></svg>