<svg xmlns="http://www.w3.org/2000/svg" xml:space="preserve" viewBox="0 0 236 102"><path d="m62 100-3-4c-5-9 2-18 10-15q4 3 3-4 0-6 2-6 2-1 2 15c0 13 0 14-2 14l-2-1-3 1zm8-4c6-6 0-17-6-13q-4 2-3 7 2 12 9 6M0 86c0-12 0-13 2-13l7 11 5 11 6-11 7-11c2 0 2 1 2 13l-1 14q-2 1-2-11l-1-11-5 11-6 11-6-11-6-11v11q-1 23-2-3m38 12-3-5c-3-9 7-17 15-10q4 2 3 7l-2 8q-6 4-13 0m10-2q4-7 0-12l-4-2q-5 1-6 8 0 8 6 8zm36 2c-3-2-3-17-1-17q2-1 2 7 0 10 4 10 6 0 6-10l1-7q2-1 2 9 0 11-2 10l-1-1h-2q-6 2-9-1m21-13c0-12 0-14 2-14l1 14-1 15c-2 0-2-2-2-15m11 13q-5-5-3-12 2-5 9-6 6 1 7 7 2 4-7 3-9 0-4 5 2 4 7 3 5-2 3 1-6 2-12-1m10-12c0-5-8-5-9 0q-2 3 4 2 6 1 5-2M39 53V38h6q7 0 6 2h3l7-2q13-1 11 22l-1 7-5 1h-6V58q1-15-5-13-4-1-4 13v10H39zm44 14c-8-4-11-16-6-23q4-6 14-6 12 0 13 12v4h-9c-9 0-9 0-8 2q0 6 9 5 6-2 7 2 2 2-1 3c-4 2-15 2-19 1m12-19q-1-4-5-6c-2 1-4 6-3 7 0 2 7 1 8-1m16 18q-2 0-2-12c0-10-1-11-3-11-3 0-3-5 1-5q3 1 2-3-1-5 4-5l5-1q2 0 2 4v5h4q5 0 4 2 1 4-4 3h-4v8q-1 13 5 11 3-1 3 2v3l-7 1q-8 1-9-2"/><path fill="#0c84c1" d="m189 100 1-2q2-3-1-3l-4-5-5-7q-14-11-11 4 0 9-2 10-3 2-8 2-9-2-16-13-3-5-1-7 3-4 10-7 5 0 5-3 1-2-6-6l-7-4c-1 0-1-6 1-10 2-5 13-9 15-5 8 9 8 9 14 6q5-2 7-12 1-5-8-7-7 0-10-5-2-3 1-9 1-6 10-13 6-5 6-2c0 2 9 16 12 18q7 5 13 6 6-1 7-6l-1-7c-2-9 4-16 12-12l10 7q4 5 3 8l-3 6-3 3-3 3q-8 2 3 11l6 7-3 6q-4 10-9 14h-7l-1-1q-2 0-7-6-8-10-12-1-3 6 4 10 10 5 9 12c0 4 0 4-9 13l-10 9zm-25-6q3 0 2-8t2-9q11-4 20 13l3 5 14-13q2-3-6-8-6-4-7-9-1-9 5-13 6-5 15 4 6 7 8 7 5-1 11-15 3-3-1-5l-3-2-7-7q0-7 8-11l3-3q3-4 1-6-3-7-12-10-7 0-6 7l1 8q0 4-3 8l-7 3c-5 0-17-5-19-7l-9-14q0-4-5 1-9 9-6 15c1 3 2 3 11 5q7 2 7 12l-2 7-2 2-5 3q-6 4-9 2-4-1-6-5-3-7-10-1l-3 4 9 7c9 5 7 16-3 16l-6 2v5q3 6 8 9 6 5 9 1"/></svg>