<svg xmlns="http://www.w3.org/2000/svg" viewBox="0 0 378.3 48.2"><g fill="none" fill-rule="evenodd"><path fill="#a8cb3a" d="m323.2 47.8-.7.3h-13.7q-.8 0-1-.6-.4-.8.2-1.3L333.1 25c.6-.4.6-1.3 0-1.8L308.1 2q-.5-.5-.5-1 .3-1 1.1-1H322q.3 0 .7.3l27.3 23 .2.1q.6.7 0 1.4l-.2.3z"/><path fill="#174489" d="M55.1.3h-8.4c-1 0-1.8.9-1.8 1.9v27c0 .7-.8 1-1.3.6l-31-27A10 10 0 0 0 5.7 0C3.6 0 0 1 0 6.8V46q.2 1.6 1.8 1.8h8.4q1.6-.1 1.8-1.8V18.8c0-.7.8-1 1.3-.6l31.4 27.4q2.9 2.6 6.2 2.6c2.3 0 6-.9 6-7v-39Q56.7.5 55.1.3m61.4 0h-9.8a1 1 0 0 0-1 1.1v31.8q0 4-9.7 4H82.7q-9.8 0-9.8-4V1.4q-.1-1-1.1-1h-9.9a1 1 0 0 0-1 1v32.3q0 3.3 1 5.7a12 12 0 0 0 3 4q1.8 1.5 4.2 2.5t4.8 1.3q2.6.5 5.1.5l4.8.1h10.8q11.8 0 17.2-3.3 5.8-3.6 5.8-10.8V1.4q-.1-1-1.1-1m57 8.3V2.5c0-1.2-1-2.2-2.2-2.2h-47.7q-2 .2-2.2 2.2v6.2c0 1.2 1 2.2 2.2 2.2h16.7q1 .1 1 1.1v33.6q.2 2 2.3 2.2h7.6q2-.2 2.2-2.2V12q.1-1 1.1-1h16.8q2-.2 2.2-2.3M186 24l6.1-8.8q.6-.6 1.2 0l6.1 8.7q.3.8-.5 1h-12.4a.6.6 0 0 1-.5-1m13.4-20.5a7.6 7.6 0 0 0-12.8.1L157 46.1a1 1 0 0 0 .1 1.4q.4.3.9.3h11.6a1 1 0 0 0 .9-.5L178 36q.2-.4.7-.4h28.4q.4 0 .7.3l7.6 11.4q.3.5.9.5h11a1 1 0 0 0 1-.6 1 1 0 0 0 0-1zM286.2.3h-8.6q-1.6.2-1.7 1.7v27.5q-.2 1-1 .5L243.6 2.8a10 10 0 0 0-6.8-2.8c-2.2 0-5.8.9-5.8 6.8V46q.2 1.6 1.7 1.7h8.6q1.7-.1 1.8-1.7V18.5q.2-.9 1-.5l31.6 27.6q3 2.6 6.3 2.6c2.2 0 6-.9 6-7V2.1q-.1-1.6-1.8-1.8m16.5 0H293a1 1 0 0 0-1.1 1.1v45.3q.1 1 1 1.1h10q.9-.1 1-1V1.3q-.1-1-1-1m51.3 19.9q.7.4 1.5 0L377.6 2q.5-.5.4-1-.1-1-1-1h-13.3q-.4 0-.7.3l-15.4 12.5q-.7.9 0 1.8zm-.1 7.9q.7-.6 1.5 0L378 46.3q.4.4.4 1-.2 1-1.1 1H364q-.4 0-.8-.3L348 35.3c-.6-.5-.6-1.4 0-1.8z"/></g></svg>