<svg xmlns="http://www.w3.org/2000/svg" viewBox="0 0 696.62 211.26"><defs><style>.cls-1{fill:#231f20;}.cls-2{fill:#ff6319;}.cls-3{fill:#eeaf00;}.cls-4{fill:#c4262e;}</style></defs><g id="Isolation_Mode" data-name="Isolation Mode"><g id="nVent_Logo" data-name="nVent Logo"><g id="nVent_Logotype" data-name="nVent Logotype"><path class="cls-1" d="M325.16,146.1h-20.3v42.1a24,24,0,0,0,.77,6.61,9.28,9.28,0,0,0,2.23,4.07,7.47,7.47,0,0,0,3.46,2,16.47,16.47,0,0,0,4.31.54,18.14,18.14,0,0,0,4.53-.61,22.91,22.91,0,0,0,4.54-1.7l.46,9.08a31,31,0,0,1-5.77,1.61,36.86,36.86,0,0,1-6.53.54,26.67,26.67,0,0,1-6.15-.77,15.45,15.45,0,0,1-6-2.92,15.88,15.88,0,0,1-4.53-5.84,22.55,22.55,0,0,1-1.77-9.69v-45H279.49v-8.77h14.92V117.16h10.45v20.17h20.3Z"/><path class="cls-1" d="M222.53,137.33v12.18h0a22.7,22.7,0,0,1,9.8-10A29.22,29.22,0,0,1,247,135.61q13.68,0,20.52,8.15t6.85,21.53v44.13H263.89V169.59a53.15,53.15,0,0,0-.92-10.3,21.85,21.85,0,0,0-3.15-7.92,15.14,15.14,0,0,0-6-5.15,21.47,21.47,0,0,0-9.46-1.84,20.11,20.11,0,0,0-8.07,1.69,19.86,19.86,0,0,0-7,5.15,25.73,25.73,0,0,0-4.92,8.76,38.26,38.26,0,0,0-1.84,12.53v36.91H212.07V137.33Z"/><path class="cls-1" d="M188.23,195.19a33.51,33.51,0,0,1-4.43,3.39,27.54,27.54,0,0,1-24.37,1.69,26.61,26.61,0,0,1-8.3-5.61,25.59,25.59,0,0,1-5.54-8.31,28,28,0,0,1-2.15-10.15H203.1a24.21,24.21,0,0,0,.15-2.61v-2.31A42,42,0,0,0,201,157.45a32.92,32.92,0,0,0-6.53-11.31,30.66,30.66,0,0,0-10.76-7.68,36.67,36.67,0,0,0-14.92-2.85,35.73,35.73,0,0,0-14.3,2.85A35.24,35.24,0,0,0,143,146.37a36.6,36.6,0,0,0-7.69,12,40.28,40.28,0,0,0-2.77,15.07,39.23,39.23,0,0,0,2.85,15.07,37.38,37.38,0,0,0,7.76,12,34.85,34.85,0,0,0,11.76,7.92,38.39,38.39,0,0,0,14.84,2.84,39.91,39.91,0,0,0,16.69-3.53,38.89,38.89,0,0,0,14.87-12.54ZM145.9,159.06a26,26,0,0,1,5.38-7.53,25.57,25.57,0,0,1,7.84-5.23,24.26,24.26,0,0,1,9.69-1.92q11.22,0,17.3,6.68t6.53,16.84h-49A24.48,24.48,0,0,1,145.9,159.06Z"/><polygon class="cls-1" points="135.43 100.55 100.06 195.12 99.76 195.12 78.14 137.33 66.42 137.33 93.91 209.42 105.6 209.42 147.27 100.55 135.43 100.55"/><path class="cls-1" d="M10.46,137.33v12.18h0a22.7,22.7,0,0,1,9.8-10,29.21,29.21,0,0,1,14.6-3.92q13.7,0,20.53,8.15t6.84,21.53v44.13H51.82V169.59a53.15,53.15,0,0,0-.92-10.3,21.68,21.68,0,0,0-3.16-7.92,15,15,0,0,0-6-5.15,21.5,21.5,0,0,0-9.46-1.84,20.11,20.11,0,0,0-8.07,1.69,19.77,19.77,0,0,0-7,5.15A25.73,25.73,0,0,0,12.3,160a38.26,38.26,0,0,0-1.84,12.53v36.91H0V137.33Z"/></g><g id="nVent_Logomark" data-name="nVent Logomark"><path class="cls-2" d="M79.1,85.16a5.66,5.66,0,0,1,4.44-6.68l33.36-6.73a5.67,5.67,0,1,1,2.24,11.12L85.78,89.6A5.67,5.67,0,0,1,79.1,85.16Z"/><path class="cls-3" d="M127.53,56.05a5.66,5.66,0,0,1-7.86,1.58L91.32,38.8a5.67,5.67,0,1,1,6.28-9.44L126,48.19A5.66,5.66,0,0,1,127.53,56.05Z"/><path class="cls-4" d="M149,37.92a5.68,5.68,0,0,1-11.13,2.24L131.15,6.8a5.68,5.68,0,1,1,11.13-2.24Z"/><path class="cls-2" d="M163.12,40.69,182,12.34a5.67,5.67,0,1,1,9.44,6.28L172.57,47a5.67,5.67,0,0,1-9.45-6.27Z"/><path class="cls-3" d="M216.2,63.29,182.84,70A5.67,5.67,0,0,1,180.6,58.9L214,52.17a5.67,5.67,0,0,1,2.24,11.12Z"/><path class="cls-4" d="M210,110.83a5.68,5.68,0,0,1-7.87,1.59L173.79,93.59a5.67,5.67,0,0,1,6.28-9.45L208.42,103A5.67,5.67,0,0,1,210,110.83Z"/></g></g><rect class="cls-4" x="344.82" y="117.19" width="4.47" height="92.29"/><path class="cls-4" d="M696.62,209.36H684.36l-18.13-31.83v31.83H653.9V158.21h12.33L684.33,190V158.21h12.29Z"/><path class="cls-4" d="M635.55,199.8h-16.9l-2.95,9.56H602.53l18.76-51.15h11.59l18.9,51.15H638.54Zm-13.95-9.52h11l-5.52-17.74Z"/><path class="cls-4" d="M561.37,158.21l11.42,35.59,11.38-35.59h16.24v51.15H588V197.42L589.23,173l-12.36,36.39h-8.16l-12.4-36.43,1.2,24.49v11.94H545.17V158.21Z"/><path class="cls-4" d="M537.42,189H517.54v20.37H505.21V158.21h34.21v9.52H517.54V179.5h19.88Z"/><path class="cls-4" d="M497.45,189H477.57v20.37H465.24V158.21h34.21v9.52H477.57V179.5h19.88Z"/><path class="cls-4" d="M461,184.84a30.14,30.14,0,0,1-2.78,13.24,20.44,20.44,0,0,1-7.89,8.87,21.88,21.88,0,0,1-11.64,3.12,22.33,22.33,0,0,1-11.6-3,20.54,20.54,0,0,1-7.89-8.59,29.32,29.32,0,0,1-3-12.83v-2.87A30.32,30.32,0,0,1,419,169.5a20.43,20.43,0,0,1,7.9-8.87,22.16,22.16,0,0,1,11.72-3.12,21.82,21.82,0,0,1,11.59,3.09,20.73,20.73,0,0,1,7.92,8.8A29.45,29.45,0,0,1,461,182.49ZM448.5,182.7c0-5.09-.85-8.94-2.55-11.58a8.18,8.18,0,0,0-7.29-4q-9.29,0-9.8,13.91l0,3.76q0,7.51,2.5,11.56a8.16,8.16,0,0,0,7.41,4,8.06,8.06,0,0,0,7.2-4q2.54-4,2.57-11.42Z"/><path class="cls-4" d="M412.08,209.36H399.81V188H381.65v21.36H369.32V158.21h12.33v20.31h18.16V158.21h12.27Z"/></g></svg>