<svg xmlns="http://www.w3.org/2000/svg" xml:space="preserve" viewBox="0 0 884 202"><path fill="#005b99" d="M518 202c-2-1-2-1-2-8l-1-4 4 1 6-1q5-2 6-7l1-3-10-27-10-27h14l7 19 7 19 6-19 6-19h8l7 1-24 64q-5 11-18 11zm-337-21q-20-1-41-11l-7-3-7 3q-19 10-43 11c-17 1-41-4-54-12q-13-8-21-21l-5-15c-2-9-3-14-3-27 0-12 1-18 4-29 5-20 11-32 23-44Q62-3 117 7l22 8c4 1 11 6 13 8l2 1 5-4q18-12 42-14h197q9 1 13 10l1 9-1 15-2 9h-79l-10 56-10 58q-3 13-19 16c-4 2-5 2-23 2h-18l1-8 2-9-9 4a112 112 0 0 1-63 13m-91-40q13-2 21-20c9-23 13-49 7-61q-3-7-13-10-3-3-9-2-9 0-16 4-10 5-18 19c-6 12-10 37-7 50q5 21 27 21zm115-2q7-1 9-4l2-8q-2-6-15-11l-26-5-2 12q2 12 16 16zm64-70 4-20h-36c-38 0-38 0-42 3l-3 2q-2 4 1 7 1 2 9 3l42 10q12 4 18 12l4 3zm202 112q-15-2-22-14l-3-11 6-1h7l2-1 1 4q2 6 7 9c4 2 13 2 18 0q8-6 3-14-2-2-16-6-20-4-23-14l-2-8 2-8q5-9 16-12h19q7 1 12 6t7 12v3l-3 1h-12l-1-3q-1-5-7-7-8-2-14 1-5 2-5 6c0 4 3 6 17 10 13 3 17 5 21 9l6 12q1 20-19 25zm121 0q-14-1-18-12-5-5 4-5l7-1 3 3 3 4 7 1 7-1q6-4 2-8l-10-3c-14-4-18-6-21-11q-2-1-2-7 0-7 5-10 6-7 21-6 11 1 16 6l3 5 2 3-6 1c-7 1-7 1-9-1q-1-4-9-4-7 0-9 2v5l14 4q16 4 19 10 5 12-6 21-8 6-23 4m54 0q-6-2-7-5c-2-3-2-7-2-23v-16h-7v-11h7v-11l7-4 6-4 1 9v10h9v11h-9v31q2 2 7 1 3-3 3 6v4l-2 1q-7 2-13 1m41 0q-13-2-19-16c-1-5-2-15-1-20q4-12 13-17c8-5 21-4 28 3q7 6 8 18l1 6v2h-36v2q2 10 11 12 6 1 9-5l1-3 6 1 7 1h1l-2 4q-3 7-10 10t-17 2m16-35-5-9q-5-3-9-1-7 4-8 11v1h22zm134 35q-8-1-14-6l-6-9v-1l6-1 7-1 2 1q2 7 11 7 10 0 10-5c0-4 0-4-10-7q-11-2-16-5-8-4-8-12 0-6 3-10 5-6 17-7 19-2 25 10 4 5-5 5l-6 1-2-2q-1-4-9-4-12 0-10 6l14 5q18 5 20 10 3 7 0 14t-14 10zm-109-28v-27h13v8l2-3 7-4c3-2 3-2 8-2q5 0 8 2l5 4 2 2 3-2 6-4c3-2 3-2 8-2s5 0 8 2q4 1 5 4c4 4 4 5 4 28v21h-14v-19l-1-21q-1-4-6-4-5-1-8 3c-3 4-3 6-3 25v16h-14v-19l-2-22c-3-6-14-4-16 4l-1 20v17h-14zM454 76q-15-3-23-15-6-12-5-31 3-13 11-21 9-8 22-9 29-1 37 25c2 5 2 17 1 22q-2 14-11 21-5 5-14 8zm14-13q15-5 15-27-2-17-12-22l-9-1-8 1q-13 5-13 24l1 9q2 10 9 14 8 5 17 2m237 13q-7-1-8-10V33h-7V22h7V11l6-4 7-4 1 9v10h10v11h-10v31h1q3 3 7 1l2-1v11l-10 2zm84 0q-7-2-12-6c-7-6-10-18-8-28q4-16 19-20l15-1q16 5 20 20v16q-4 13-17 18-8 3-17 1m11-11 5-3q4-5 4-13 0-12-7-15-2-3-6-2-5 0-9 4t-4 13q-1 6 2 9 3 7 11 7zM509 49V22h13v7l2-2q12-9 23-5l5 4 2 3 3-3 6-4 8-1q8 0 12 4c5 5 5 5 5 30v20h-14V58c0-18 0-22-2-24q-3-5-10-2-3 2-5 6l-1 20v17h-14V56l-2-21q-1-4-6-4-8 0-10 8l-1 19v17h-14zm94 0V22h13v7l3-2q8-7 19-6 9 2 12 8c2 4 2 10 2 31v15h-14V57c0-19 0-21-3-23-3-4-11-3-15 1-3 3-3 5-3 24v16h-14zm64 0V22h14v53h-14zm63 0V22h13v8l1-2q8-10 18-6l3 1-4 12-2-1q-8-3-12 3c-2 4-2 7-3 23v15h-14zm106-1V21h13v8l3-3 6-4 9-1 8 1q6 3 8 8l1 23v21h-13V59c0-22-1-25-5-27q-4-3-10 0-4 2-5 7l-1 18v17h-14zM667 7V1h14v13h-14z"/></svg>