<svg xmlns="http://www.w3.org/2000/svg" xml:space="preserve" viewBox="0 0 1037 254"><path fill="#fe7600" d="M46 166a51 51 0 0 1-46-56q0-14 4-25 13-35 46-48c18-6 40-5 55 2q20 10 25 34c1 5 2 18 1 25q-6 57-54 66c-10 2-23 3-31 2m21-28q9-2 15-8c7-8 13-26 13-42q0-27-23-27-18 1-28 19c-6 12-9 28-7 39q5 23 30 19m56 26 14-64 14-64h22l22-1 2 7 25 78 3-27 12-57h34l-14 64-14 64h-43l-27-84-10 55-6 30h-17zm131 0 29-128h114l-4 14-5 13-38 1h-39l-2 9-2 10-1 2h57l-3 14-3 13h-28l-29 1-5 23h63l-7 14-7 14z"/><path fill="#3a5363" d="m990 252-1-2 3-3c6-2 11-9 11-12l-4-19-3-16h6l5 29q1 2 2-2l7-15 6-12h6l-21 40q-7 11-15 14h-2zm-362 0 8-46c2-8 1-7 4-7h3v3l-1 3 3-1q4-5 10-5c12-1 16 12 9 26-5 10-16 15-25 12l-2-1-1 3-2 13zm22-20c10-5 15-24 7-28q-9-2-16 11l-3 16 7 2zm211 20 10-52 3-1h3l-1 2v3l-1 3 3-3q6-6 12-5l6 1q6 5 4 17-6 22-24 21l-5-2-1 1-3 15zm23-20q7-5 10-14 2-11-4-14-9-3-15 11l-3 16 7 2zm-531 6q-9-3-9-13 2-20 20-26c4-1 16 0 16 1l-5 30v7h-6l1-5v-5l-1 2c-3 6-11 10-16 9m8-6q5-3 8-9c2-4 5-18 4-19s-9 0-11 1q-11 6-11 19 0 6 2 7 4 3 8 1m239 5q-4-1-7-4l-3-4-1-7q1-15 12-22l8-1 8 1q9 7 7 19-5 17-19 19zm10-6q8-6 8-17l-2-6q-2-5-7-5-11 1-13 15-3 8 3 13 4 4 11 0m69 6-6-2 1-2 1-2q7 3 11 1 5-3 3-9l-4-3-5-5q-2-1-2-5-1-4 2-6 4-5 10-5 6-1 8 1v2q0 2-2 2h-9q-3 2-3 6 0 2 5 6 9 5 7 11-3 12-17 10m55 0q-5 0-8-3-4-3-3-11l1-10q7-13 19-14 7-1 10 1l-1 3-1 2-2-1q-12-2-18 10-3 2-2 8l1 6q2 4 8 4h6l3-1v3q1 3-2 2-5 2-11 1m34 0q-5-1-8-4-3-4-3-11c0-12 8-23 19-23q11-1 14 7 2 3 2 8c0 12-8 23-19 24zm7-5 4-2q6-6 7-16l-2-6-3-3q-4-3-9 0c-7 3-11 16-8 23l5 4zm141 6q-8-3-8-13c0-12 9-24 20-26 5-1 16 0 16 1l-5 30-1 7h-5v-10l-1 2q-6 10-16 9m9-6q4-3 7-9c2-3 5-18 5-19h-10q-8 4-11 13-3 10 1 15zm-538 4 7-35 3-1h2v7l2-3q5-5 11-5 11-1 10 11l-4 24-1 3h-6l2-11c4-17 4-20 0-22q-9-3-15 11l-3 12-2 10h-3zm61 0 9-51h27v2l-1 2-10 1h-10l-2 7-1 9-1 1h20l-1 2v3h-10l-10 1-3 18 11 1h10v3l-1 2h-28zm38 0 11-54h6l-4 17-3 17 9-8 8-9 4 1h4l-8 7-8 8 5 11 6 11h-7l-4-9-5-9-3 2c-2 2-2 2-4 9l-1 7h-3zm38 1 7-37 3-1 3 1-6 36-4 1zm20 0 7-35v-2h5v7l3-3q3-4 6-4 9-4 14 4c1 3 1 7-2 21l-2 12h-3q-5 0-3-1l2-12q3-18 0-19-2-3-8 0-7 2-10 19l-2 10-1 3zm255-1 6-32q1-6 4-4h2v2q-2 7 3 1l5-4q10-3 13 5 1 4 3 0 8-8 16-5 5 3 5 11l-5 26-3 1-3-1 4-30-5-2q-7 1-11 9l-3 13-2 11h-6l2-11c3-14 3-18 2-20q-5-6-12 1c-3 4-5 7-7 19l-2 11h-3zm152 0 6-35 3-1h3v1l-1 6 3-3q4-5 10-5 11-1 11 11l-5 26-3 1h-3l4-27q0-6-6-6-7 0-12 11l-2 12-2 10h-3zm-417-44q-2-4 0-6 5-3 6 2-1 7-6 3m42-24q-13 0-25-7-14-7-23-19-10-17-9-37c3-31 25-54 57-60q21-4 43 1l4 1v30l-2-2q-16-14-30-13-18 0-27 16-5 9-5 23-1 18 5 30 6 13 18 16a42 42 0 0 0 38-7c1 0 12 11 11 12l-4 3a73 73 0 0 1-51 13m108 1c-11-2-15-3-22-6q-27-11-35-38c-2-6-2-18-1-25q9-45 59-56c12-2 28-1 40 2l4 1v31l-3-3q-13-13-27-13-31-1-34 39-1 17 6 30l6 9q9 9 23 9 12 0 23-7l3-2 6 6 6 5-2 2c-1 2-10 7-14 9l-18 6zm186-1q-16-2-28-6l-5-1v-29l5 3q15 9 29 13l19-1q16-8 7-20c-3-3-7-5-20-10-17-7-23-10-29-16q-10-8-9-20 0-13 9-22 14-14 42-17l30 3 3 1v26l-2-1q-25-15-42-8-6 3-6 10c0 6 4 9 25 16 18 7 23 10 29 16q8 8 8 18 2 29-31 41-9 4-23 4zm102 0-28-6-6-1v-29l5 3q14 9 28 12h20q9-4 10-11l-1-6c-3-5-6-7-24-14-16-7-23-11-29-17q-5-5-6-11V73q5-19 29-27 22-7 51-1l3 1v26l-2-1-18-8c-7-2-17-2-21-1q-8 3-9 10c0 7 5 10 27 18q17 7 23 12c18 13 17 39-3 54q-16 12-42 12zm-618-4 4-10c13-24 26-57 51-124l6-14-3-8-3-8h57l2 7c4 15 10 32 30 83a695 695 0 0 0 31 74l-57-1-8-23-3-8h-55l-2 5-7 21-1 6zm98-60-17-48-16 39-3 10h18zm289 56c1-14 2-21 2-55 0-35-1-42-2-56v-3h91v20l-6-1-26-1h-21v31l17-1h19l1-1v21l-2-1h-19l-16-1v33h18l37-2h1v21h-94z"/></svg>