<svg viewBox="0 0 321 230" xmlns="http://www.w3.org/2000/svg" xmlns:xlink="http://www.w3.org/1999/xlink"><path d="m254.123 76.08c-5.46-.2-9.747-4.804-9.564-10.272.083-2.648 1.214-5.095 3.138-6.902 1.93-1.806 4.453-2.746 7.1-2.647 5.47.19 9.756 4.786 9.573 10.263-.082 2.64-1.198 5.086-3.13 6.9-1.94 1.8-4.462 2.74-7.117 2.657zm2.3-8.983c2.43 0 4.4-1.314 4.4-2.93 0-1.622-1.97-2.938-4.4-2.938-2.433 0-4.398 1.315-4.398 2.938 0 1.615 1.965 2.93 4.397 2.93" fill="#73ba25"/><path d="m141.78 133.035.35-.033.058-.416c-.09-.327-.302-.62-.63-4.67-.278-3.586-.84-13.417 4.107-18.292 1.92-1.902 4.85-3.593 7.162-4.14 9.48-2.31 21.786-.71 32.295 11.44 5.422 6.28 8.084 9.146 9.415 10.428l.457.424.555.4c.432.245 18.06 8.362 18.06 8.362l.36-.09.01-.383c-.115-.13-11.17-14.413-9.212-26.18 1.552-9.373 9.015-8.532 19.328-7.357 3.373.384 7.21.825 11.18.915 11.08.065 23.018-1.968 30.376-5.185 4.76-2.082 7.797-3.455 9.7-5.186.685-.563 1.045-1.494 1.412-2.474l.254-.66c.31-.793.76-2.49.956-3.414.09-.408.13-.85-.156-1.07l-1.02.188c-3.226 1.935-11.302 5.626-18.863 5.773-9.366.196-28.245-9.423-30.213-10.444l-.187-.22-3.904-9.242c13.59 8.95 24.857 13.897 33.488 14.665 9.603.857 17.09-4.385 20.292-6.623.628-.424 1.103-.767 1.298-.84l.204-.335c-.53-3.373-5.553-19.704-9.34-23.624-1.054-1.077-1.896-2.12-3.594-3.118-13.727-8.002-46.316-12.837-47.842-13.057l-.262.074-.097.227s-.123 6.76-.14 7.513c-3.332-1.11-27.525-8.925-50.21-9.717-19.23-.678-45.498-1.593-82.62 21.222l-1.094.686c-17.458 10.893-29.51 24.318-35.813 39.928-1.977 4.908-4.64 15.99-2.01 26.416 1.143 4.565 3.258 9.138 6.117 13.237 6.442 9.26 17.262 15.41 28.914 16.446 16.446 1.468 28.907-5.92 33.34-19.754 3.046-9.546 0-23.55-11.676-30.694-9.497-5.823-19.72-4.492-25.64-.58-5.144 3.413-8.06 8.704-8.002 14.526.114 10.313 9.007 15.8 15.392 15.81 1.862 0 3.723-.32 5.83-1.005.744-.23 1.454-.507 2.23-.99l.237-.153.155-.09-.057.024c1.462-.98 2.344-2.596 2.344-4.327 0-.474-.074-.956-.205-1.438-.75-2.606-3.33-4.19-6.01-3.7l-.36.074-.49.163-.71.237c-1.47.367-2.58.392-2.808.4-.752-.05-4.435-1.15-4.435-5.185v-.05c.01-1.478.604-2.515.93-3.08 1.136-1.795 4.272-3.56 8.51-3.183 5.552.473 9.553 3.323 12.207 8.696 2.466 4.997 1.82 11.138-1.658 15.645-3.454 4.468-9.602 6.362-17.784 5.47-8.248-.905-15.22-5.65-19.124-13.04-3.82-7.218-4.034-15.783-.547-22.364 8.353-15.76 24.12-15.597 32.768-14.102 12.803 2.212 24.423 12.46 29.592 26.09.824 2.17 1.25 3.894 1.616 5.46l.556 2.36 14.46 7.064.197.14zm102.787-76.92c-2.726 2.53-4.287 5.985-4.417 9.71-.253 7.674 5.774 14.142 13.448 14.428 3.74.122 7.284-1.193 10.003-3.74 2.72-2.54 4.28-5.986 4.42-9.7.26-7.685-5.766-14.16-13.457-14.438-3.724-.122-7.277 1.192-9.995 3.74" fill="#73ba25" fill-rule="evenodd"/><path d="m284.78 152.072h-.16c-.188 0-.35-.162-.35-.348v-2.502l-.547.834c-.062.087-.175.124-.274.124h-.063c-.1 0-.212-.037-.274-.124l-.56-.834v2.502c0 .186-.162.348-.36.348h-.163c-.186 0-.348-.162-.348-.348v-2.987h-1.68v2.987c0 .186-.175.348-.374.348h-.15c-.186 0-.348-.162-.348-.348v-2.987h-1.256c-.187 0-.337-.125-.337-.324v-.174c0-.2.15-.325.337-.325h4.405c.173 0 .285.062.348.162l.833 1.257.835-1.257c.062-.087.162-.162.35-.162h.56v3.833c0 .187-.175.35-.375.35" fill="#73ba25"/><path id="a" d="m140.727 146.833c-6.024 0-9.36 5.102-9.36 8.637v4.53c0 5.19 4.244 8.413 8.19 8.413h13.814c1.73 0 2.092 1.132 2.092 2.09v2.925c0 .31-.05 3.124-2.09 3.124h-18.856c-1.867 0-3.223 1.294-3.223 3.074v.81c0 1.766 1.344 3.073 3.223 3.073h19.888c5.19 0 8.55-3.61 8.55-9.21v-4.892c0-5.252-3.783-7.604-7.53-7.604h-13.59c-2.053 0-2.974-1.518-2.974-2.613v-2.687c0-1.705 1.132-2.676 3.123-2.676h15.06c1.84 0 3.223-1.32 3.223-3.074v-.81c0-1.742-1.407-3.073-3.286-3.073h-16.23" fill="#73ba25"/><path d="m197.265 146.833c-1.78 0-3.223 1.443-3.223 3.223v23.148c0 1.842-1.506 3.336-3.335 3.336h-10.504c-1.842 0-3.336-1.494-3.336-3.336v-23.148c0-1.78-1.43-3.223-3.223-3.223h-1.02c-1.792 0-3.224 1.418-3.224 3.223v24.032c0 5.588 4.394 9.645 10.454 9.645h11.226c6.06 0 10.454-4.057 10.454-9.645v-24.032c0-1.805-1.42-3.223-3.223-3.223h-1.02" fill="#73ba25"/><use transform="translate(76.657)" xlink:href="#a"/><path d="m249.162 146.833c-1.78 0-3.148 1.32-3.148 3.074v30.528c0 1.742 1.32 3.074 3.086 3.074h24.33c1.867 0 3.224-1.296 3.224-3.075v-.81c0-1.766-1.344-3.073-3.224-3.073h-19.924v-7.778h14.598c1.867 0 3.223-1.295 3.223-3.087v-.796c0-1.78-1.356-3.086-3.223-3.086h-14.598v-7.99h18.916c1.867 0 3.224-1.294 3.224-3.074v-.81c0-1.778-1.357-3.072-3.224-3.072h-23.247m-206.865 14.498c-3.037 0-5.514 2.365-5.514 5.29v11.51c0 2.963 2.39 5.378 5.327 5.378h7.442c2.937 0 5.34-2.415 5.34-5.377v-11.512c0-2.912-2.478-5.29-5.514-5.29h-7.08zm-1.606 16.353v-10.504c0-1.233 1.008-2.24 2.24-2.24h5.8c1.207 0 2.24 1.02 2.24 2.24v10.503c0 1.232-1.008 2.24-2.24 2.24h-5.85c-1.232 0-2.19-.984-2.19-2.24m31.076-16.488c-2.153 0-3.76.77-5.066 1.393-.784.373-1.468.697-2.003.697-.223 0-.435-.1-.547-.274l-.485-.946c-.112-.248-.61-.734-1.232-.734h-.722c-.697 0-1.27.623-1.27 1.406v29.185c0 .908.71 1.63 1.63 1.63h.636c.896 0 1.63-.734 1.63-1.63v-9.683c0-.286.187-.585.36-.585.536 0 1.22.298 2.017.67 1.294.586 2.912 1.333 5.065 1.333h.672c3.796 0 6.16-2.165 6.16-5.65v-11.14c0-3.434-2.414-5.66-6.16-5.66h-.684v-.014zm-7.443 16.265v-10.043c0-1.38 1.083-2.464 2.465-2.464h5.426c1.38 0 2.464 1.083 2.464 2.464v10.043c0 1.357-1.095 2.465-2.464 2.465h-5.426c-1.357 0-2.465-1.108-2.465-2.465m25.313-16.129c-3.036 0-5.512 2.365-5.512 5.29v11.424c0 2.962 2.402 5.476 5.24 5.476h7.678c.946 0 1.63-.647 1.63-1.543v-.498c0-.896-.684-1.543-1.63-1.543h-6.296c-1.77 0-2.702-.86-2.702-2.514v-3.336h11.375c1.817 0 2.912-1.12 2.912-3.01v-4.432c0-2.912-2.476-5.29-5.513-5.29h-7.168l-.013-.024zm-1.604 5.8c0-1.22.958-2.19 2.19-2.19h5.986c1.232 0 2.19.958 2.19 2.19v3.56h-10.366zm30.13-5.936c-2.14 0-3.76.76-5.053 1.38-.81.374-1.506.71-2.066.71-.25 0-.35-.025-.535-.36l-.448-.822c-.25-.51-.685-.772-1.282-.772h-.635c-.76 0-1.306.585-1.306 1.406v19.14c0 .91.722 1.644 1.63 1.644h.635c.897 0 1.63-.734 1.63-1.643v-14.486c0-1.356 1.108-2.464 2.465-2.464h5.426c1.357 0 2.464 1.108 2.464 2.464v14.486c0 .91.722 1.643 1.63 1.643h.635c.896 0 1.63-.734 1.63-1.643v-15.02c0-3.436-2.414-5.664-6.16-5.664h-.684" fill="#73ba25"/></svg>