<svg viewBox="0 0 692.82 154.42" xmlns="http://www.w3.org/2000/svg"><path d="m145.54 52.66c-2.14 2.93-4.42 5.64-7.84 6.57-.56-.51-1.11-1-1.66-1.54a168 168 0 0 1 -16.25-17.81 164.68 164.68 0 0 1 -12.89-18.42c-.39-.65-.77-1.3-1.15-2 1.64-3.14 4.78-4.79 8.1-6.25a47 47 0 0 0 7.23-3.53c-11.23 4.32-30.08 5.66-30.64 16.32-.29 5.16 11.29 17.83 16.3 24.08l.71.88.58.73c5 6.24 14.92 20.27 20 21.09 10.55 1.7 15.92-16.37 22.48-26.43a47 47 0 0 0 -4.97 6.31z" fill="#e32a30"/><path d="m142.32 74.14c-3.39 4.64-7 8.94-12.44 10.41-.89-.81-1.76-1.62-2.64-2.44a266.42 266.42 0 0 1 -25.77-28.25 261 261 0 0 1 -20.43-29.2c-.61-1-1.22-2.06-1.82-3.1 2.61-5 7.58-7.6 12.84-9.91 3.94-1.74 8.05-3.31 11.46-5.59-17.79 6.74-47.61 8.94-48.52 25.82-.47 8.19 17.9 28.27 25.85 38.18l1.12 1.39.92 1.15c8 9.89 23.65 32.14 31.75 33.44 16.72 2.69 25.24-26 35.64-41.9-3 2.86-5.42 6.52-7.96 10z" fill="#a4a4a4"/><path d="m138.45 105c-5.23 7.16-10.8 13.78-19.17 16.05-1.37-1.24-2.72-2.51-4.06-3.77a410.78 410.78 0 0 1 -39.73-43.59 402.49 402.49 0 0 1 -31.49-45.01c-.94-1.59-1.89-3.17-2.81-4.78 4-7.69 11.68-11.71 19.8-15.28 6.08-2.68 12.42-5.1 17.66-8.62-27.44 10.38-73.41 13.73-74.88 39.8-.72 12.62 27.6 43.58 39.85 58.86l1.73 2.15 1.42 1.77c12.29 15.25 36.46 49.55 48.94 51.56 25.79 4.16 38.92-40 54.94-64.6-4.55 4.37-8.28 10.04-12.2 15.46z"/><path d="m241.46 69.22a32.3 32.3 0 0 1 -9.7 23.48 32.94 32.94 0 0 1 -46.93.07 32.35 32.35 0 0 1 -9.64-23.54 31.21 31.21 0 0 1 9.9-23.41 33.06 33.06 0 0 1 23.76-9.52 31.12 31.12 0 0 1 23 9.79 31.9 31.9 0 0 1 9.61 23.13zm-47.65.13a15.07 15.07 0 0 0 4.19 10.65 14.31 14.31 0 0 0 20.72 0 15.23 15.23 0 0 0 4.16-10.81 14.55 14.55 0 0 0 -4.22-10.47 13.92 13.92 0 0 0 -10.43-4.38 13.44 13.44 0 0 0 -10.23 4.54 14.84 14.84 0 0 0 -4.19 10.47zm53.99 3.23q0-15.71 8.32-25.61 9-10.69 24.42-10.69a32.23 32.23 0 0 1 23.46 9.66 31.7 31.7 0 0 1 9.77 23.41 32.67 32.67 0 0 1 -9.37 23.41 30.57 30.57 0 0 1 -23 9.79 36.48 36.48 0 0 1 -5.81-.43l-5.59-1.29v-18.83q2.51 1 5.21 1.74a18.65 18.65 0 0 0 5.08.77 14.7 14.7 0 0 0 15-15.11 14.77 14.77 0 0 0 -4.16-10.67 14 14 0 0 0 -10.49-4.31q-8.71 0-12.14 7.26-2.38 5.15-2.38 15v49.24h-18.32zm106.25 11.88a26.36 26.36 0 0 0 9.37-2 82 82 0 0 0 8.58-4.2l4.88 18.44a69.46 69.46 0 0 1 -11.67 4.3 45.82 45.82 0 0 1 -11.81 1.53 35.08 35.08 0 0 1 -24.69-9.53 31.23 31.23 0 0 1 -10.3-23.94 31.6 31.6 0 0 1 9.64-23.15 31.63 31.63 0 0 1 23.23-9.66 31 31 0 0 1 16.9 4.75 42.71 42.71 0 0 1 12.41 12.67l-31.82 30.4zm3.67-28.28a12.58 12.58 0 0 0 -6.59-1.82 13.5 13.5 0 0 0 -10.13 4.3 14.06 14.06 0 0 0 -4.15 10.1 16.38 16.38 0 0 0 .2 2.91 18.86 18.86 0 0 0 1.13 3.3zm28.01 11.39q0-13.46 7.26-22 7.79-9.24 21-9.24t20.86 9.11q7.26 8.71 7.26 22.18v33.66h-18.36v-35.56a12.93 12.93 0 0 0 -2.51-8.05 8.57 8.57 0 0 0 -7.26-3.3 8.82 8.82 0 0 0 -7.33 3.23 12.63 12.63 0 0 0 -2.57 8.12v35.51h-18.35zm74.05 39.07q4.62 1.19 8.58 1.85a46.61 46.61 0 0 0 7.66.66q7.92 0 12.21-4t4.29-11.95v-20.09q0-10.69-3.7-15.18-2.91-3.56-8.71-3.56a11.87 11.87 0 0 0 -8.84 3.83 12.51 12.51 0 0 0 -3.7 9 11.94 11.94 0 0 0 3.7 9 12.78 12.78 0 0 0 9.24 3.56 16.31 16.31 0 0 0 4.22-.53 34.29 34.29 0 0 0 4.27-1.5v19q-1.72.53-3.89 1.06a22.34 22.34 0 0 1 -5.21.53 30 30 0 0 1 -21.91-8.84 29.53 29.53 0 0 1 -9-21.91 30.4 30.4 0 0 1 9-22.18 29.74 29.74 0 0 1 22-9.11q14.78 0 23.1 10.43 7.79 9.77 7.79 24.95v19.8q0 17-9.31 26.07t-26.47 9a62.52 62.52 0 0 1 -7.39-.4q-3.3-.4-7.92-1.19zm93.59-22.18a26.36 26.36 0 0 0 9.37-2 82 82 0 0 0 8.58-4.22l4.88 18.44a69.46 69.46 0 0 1 -11.67 4.32 45.82 45.82 0 0 1 -11.81 1.53 35.08 35.08 0 0 1 -24.72-9.53 31.23 31.23 0 0 1 -10.3-23.94 31.6 31.6 0 0 1 9.64-23.15 31.63 31.63 0 0 1 23.23-9.66 31 31 0 0 1 16.93 4.75 42.7 42.7 0 0 1 12.4 12.71l-31.81 30.36zm3.63-28.27a12.58 12.58 0 0 0 -6.59-1.82 13.5 13.5 0 0 0 -10.08 4.29 14.06 14.06 0 0 0 -4.15 10.1 16.38 16.38 0 0 0 .2 2.91 18.86 18.86 0 0 0 1.13 3.3zm73.33 45.04q0-4 .46-10.89t.46-8.91q0-11.35-2.38-17.42-3.7-9.63-13.07-9.64a13.82 13.82 0 0 0 -10.36 4.31 14.77 14.77 0 0 0 -4.16 10.67 14.87 14.87 0 0 0 4.22 10.74 14.23 14.23 0 0 0 10.69 4.37 18.59 18.59 0 0 0 4.55-.49 57.86 57.86 0 0 0 5.87-2v18.88q-3 .71-6 1.22a34 34 0 0 1 -5.61.5 30.66 30.66 0 0 1 -22.77-9.85 32.37 32.37 0 0 1 -9.57-23.35 31.74 31.74 0 0 1 9.7-23.48 32.27 32.27 0 0 1 23.56-9.59q15.57 0 24.42 10.56 8.32 9.9 8.32 25.74v28.64zm27.58 0v-34.32q0-13.59 6.73-21.78 7.26-8.84 20.59-8.84h3.83v18.08l-2.77.26q-5.28 0-7.66 3.56a16.11 16.11 0 0 0 -2.38 9.11v33.92z" fill="#231f20"/></svg>