<svg xmlns="http://www.w3.org/2000/svg" viewBox="0 0 321 230"><path fill="#73ba25" d="M254.1 76a10 10 0 0 1-6.4-17q3.1-2.8 7.1-2.7a10 10 0 0 1-.7 19.8m2.3-8.9c2.5 0 4.4-1.3 4.4-3s-2-2.9-4.4-2.9-4.4 1.3-4.4 3 2 2.9 4.4 2.9"/><path fill="#73ba25" fill-rule="evenodd" d="M141.8 133h.3v-.4c0-.3-.2-.6-.5-4.7-.3-3.6-.9-13.4 4-18.3 2-1.9 5-3.6 7.2-4.1 9.5-2.3 21.8-.7 32.3 11.4 5.4 6.3 8.1 9.2 9.4 10.5l.5.4.5.4 18.1 8.3h.4v-.4c-.1-.2-11.2-14.4-9.2-26.2 1.5-9.4 9-8.5 19.3-7.4q5.1.7 11.2 1c11 0 23-2 30.4-5.2 4.7-2.1 7.7-3.5 9.7-5.2q.9-1 1.4-2.5l.2-.7 1-3.4q.1-.7-.2-1l-1 .1c-3.2 2-11.3 5.7-18.9 5.8-9.3.2-28.2-9.4-30.2-10.4l-.2-.2-3.9-9.3q20.5 13.6 33.5 14.7c9.6.8 17.1-4.4 20.3-6.6l1.3-.9.2-.3a76 76 0 0 0-9.3-23.6q-1.4-1.7-3.6-3.2c-13.7-8-46.3-12.8-47.9-13h-.2l-.1.3-.2 7.5c-3.3-1.1-27.5-9-50.2-9.7C148.2 36 122 35 84.8 57.9l-1 .7a86 86 0 0 0-35.9 40c-2 4.8-4.6 15.9-2 26.3q1.7 7 6.1 13.3a40 40 0 0 0 29 16.4c16.4 1.5 28.8-6 33.3-19.7 3-9.6 0-23.6-11.7-30.7a24 24 0 0 0-25.7-.6c-5.1 3.4-8 8.7-8 14.5A16 16 0 0 0 84.3 134a19 19 0 0 0 8.1-2l.2-.1.2-.1a5.2 5.2 0 0 0-4-9.5l-.3.1-.5.2-.7.2q-2.4.5-2.8.4a5 5 0 0 1-4.4-5.2 6 6 0 0 1 .9-3.1c1.1-1.8 4.3-3.6 8.5-3.2q8.2.7 12.2 8.7A15 15 0 0 1 100 136c-3.4 4.4-9.6 6.3-17.7 5.4a24 24 0 0 1-19.2-13c-3.8-7.2-4-15.8-.5-22.4 8.3-15.7 24.1-15.6 32.8-14a41 41 0 0 1 31.2 31.5l.5 2.3 14.5 7zm102.8-76.9q-4.2 4-4.4 9.7a14 14 0 0 0 23.4 10.7 14 14 0 0 0-19-20.4"/><path fill="#73ba25" d="M284.8 152h-.2l-.3-.3v-2.5l-.6.9h-.6l-.5-.9v2.5q0 .3-.4.4h-.2l-.3-.4v-3H280v3q0 .3-.4.4h-.1a.4.4 0 0 1-.4-.4v-3H278q-.4 0-.4-.3v-.2q0-.3.4-.3h4.4q.3 0 .3.2l.9 1.2.8-1.2.3-.2h.6v3.8q0 .3-.4.4"/><path id="a" fill="#73ba25" d="M140.7 146.8c-6 0-9.3 5.1-9.3 8.7v4.5c0 5.2 4.2 8.4 8.2 8.4h13.8c1.7 0 2 1.1 2 2.1v3c0 .2 0 3-2 3h-18.9a3 3 0 0 0-3.2 3.1v.8q.2 2.9 3.2 3.1h20c5.1 0 8.5-3.6 8.5-9.2v-4.9c0-5.2-3.8-7.6-7.6-7.6h-13.6c-2 0-3-1.5-3-2.6v-2.7q.1-2.6 3.2-2.7h15c1.9 0 3.3-1.3 3.3-3v-.9c0-1.7-1.4-3-3.3-3z"/><path fill="#73ba25" d="M197.3 146.8a3.2 3.2 0 0 0-3.3 3.3v23.1c0 1.8-1.5 3.3-3.3 3.3h-10.5a3.3 3.3 0 0 1-3.3-3.3v-23.1c0-1.8-1.5-3.3-3.3-3.3h-1a3 3 0 0 0-3.2 3.3v24c0 5.6 4.4 9.6 10.5 9.6H191c6 0 10.4-4 10.4-9.6v-24c0-1.8-1.4-3.3-3.2-3.3z"/><use href="#a" transform="translate(76.7)"/><path fill="#73ba25" d="M249.2 146.8a3 3 0 0 0-3.2 3.1v30.5a3 3 0 0 0 3.1 3.1h24.3c1.9 0 3.3-1.3 3.3-3v-.9c0-1.7-1.4-3-3.3-3h-19.9v-7.8h14.6c1.9 0 3.2-1.3 3.2-3.1v-.8q-.2-2.9-3.2-3.1h-14.6v-8h19a3 3 0 0 0 3.1-3v-.9c0-1.7-1.3-3-3.2-3zM42.3 161.4c-3 0-5.5 2.3-5.5 5.2v11.6c0 3 2.4 5.3 5.3 5.3h7.5c2.9 0 5.3-2.4 5.3-5.3v-11.6c0-2.9-2.5-5.2-5.5-5.2zm-1.6 16.3v-10.5c0-1.2 1-2.2 2.2-2.2h5.8q2.1.2 2.3 2.2v10.5c0 1.2-1 2.2-2.3 2.2H43c-1.2 0-2.2-1-2.2-2.2m31-16.5c-2 0-3.7.8-5 1.4q-1.2.7-2 .7l-.5-.3-.5-1q-.2-.4-1.3-.6h-.7q-1.1.1-1.2 1.4v29.1q.1 1.6 1.6 1.7h.6q1.6-.2 1.7-1.7v-9.6q0-.5.3-.6.8 0 2 .6c1.3.6 3 1.4 5 1.4h.8c3.8 0 6.1-2.2 6.1-5.7v-11c0-3.4-2.4-5.7-6.1-5.7zm-7.4 16.3v-10q.2-2.3 2.5-2.5h5.4q2.3.2 2.5 2.4v10c0 1.4-1.1 2.6-2.5 2.6h-5.4a2.5 2.5 0 0 1-2.5-2.5m25.3-16.1c-3 0-5.5 2.3-5.5 5.2v11.5c0 3 2.4 5.4 5.3 5.4H97q1.5 0 1.6-1.5v-.5q-.1-1.4-1.6-1.5h-6.3q-2.7 0-2.7-2.6v-3.3h11.3q2.8 0 3-3v-4.4c0-3-2.5-5.3-5.6-5.3zm-1.6 5.8q.2-2 2.2-2.2h6q2 .2 2.2 2.2v3.5H88zm30.2-6c-2.2 0-3.8.8-5 1.4q-1.4.7-2.1.7-.4 0-.6-.3l-.4-.9q-.4-.7-1.3-.7h-.6q-1.2 0-1.3 1.4v19.1q.1 1.5 1.6 1.6h.6q1.5-.1 1.6-1.6v-14.5c0-1.3 1.2-2.4 2.5-2.4h5.4c1.4 0 2.5 1 2.5 2.4V182q.1 1.6 1.6 1.6h.7q1.5-.1 1.6-1.6v-15c0-3.5-2.4-5.7-6.2-5.7z"/></svg>