<svg xmlns="http://www.w3.org/2000/svg" viewBox="0 0 692.8 154.4"><path fill="#e32a30" d="M145.5 52.7c-2.1 2.9-4.4 5.6-7.8 6.5l-1.7-1.5a168 168 0 0 1-16.2-17.8 165 165 0 0 1-12.9-18.4l-1.2-2c1.7-3.2 4.8-4.8 8.1-6.3a47 47 0 0 0 7.3-3.5C109.8 14 91 15.3 90.4 26c-.3 5.2 11.3 17.8 16.3 24l.7 1 .6.7c5 6.2 15 20.3 20 21 10.6 1.8 16-16.3 22.5-26.4a47 47 0 0 0-5 6.4"/><path fill="#a4a4a4" d="M142.3 74.1c-3.4 4.7-7 9-12.4 10.5l-2.7-2.5A266 266 0 0 1 101.5 54 261 261 0 0 1 81 24.7l-1.8-3.1c2.6-5 7.6-7.6 12.9-10 3.9-1.7 8-3.3 11.4-5.5C85.7 12.8 56 15 55 31.9 54.5 40 72.9 60.2 80.9 70l1 1.4 1 1.1c8 9.9 23.6 32.1 31.7 33.4 16.8 2.7 25.3-26 35.7-41.9-3 2.9-5.4 6.6-8 10"/><path d="M138.5 105c-5.3 7.2-10.9 13.8-19.2 16l-4-3.7a411 411 0 0 1-39.8-43.6 403 403 0 0 1-31.5-45l-2.8-4.8c4-7.7 11.7-11.7 19.8-15.3C67 6 73.4 3.6 78.6 0 51.2 10.4 5.2 13.7 3.8 39.8 3 52.4 31.4 83.4 43.6 98.7l1.7 2.1 1.5 1.8C59 117.8 83.2 152 95.8 154c25.7 4.2 38.8-40 54.8-64.6-4.5 4.4-8.2 10-12.2 15.5"/><path fill="#231f20" d="M241.5 69.2a32 32 0 0 1-9.7 23.5 33 33 0 0 1-47 0 32 32 0 0 1-9.6-23.5 31 31 0 0 1 9.9-23.4 33 33 0 0 1 23.8-9.5 31 31 0 0 1 23 9.8 32 32 0 0 1 9.6 23.1m-47.7.1A15 15 0 0 0 198 80a14.3 14.3 0 0 0 20.7 0 15 15 0 0 0 4.2-10.8 15 15 0 0 0-4.2-10.5 14 14 0 0 0-10.5-4.4A13 13 0 0 0 198 59a15 15 0 0 0-4.2 10.4m54 3.3q0-15.7 8.3-25.6 9-10.7 24.4-10.7A32 32 0 0 1 304 46a32 32 0 0 1 9.8 23.5 33 33 0 0 1-9.4 23.4 31 31 0 0 1-23 9.7 37 37 0 0 1-5.8-.4l-5.6-1.3V82q2.5 1 5.2 1.7a19 19 0 0 0 5 .8 14.7 14.7 0 0 0 15-15.1 15 15 0 0 0-4-10.7 14 14 0 0 0-10.6-4.3q-8.7 0-12.1 7.3-2.4 5.1-2.4 15v49.2h-18.3zm106.3 11.9a26 26 0 0 0 9.3-2 82 82 0 0 0 8.6-4.2l4.9 18.4a70 70 0 0 1-11.7 4.3 46 46 0 0 1-11.8 1.5 35 35 0 0 1-24.7-9.5 31 31 0 0 1-10.3-24 32 32 0 0 1 9.6-23 32 32 0 0 1 23.3-9.8 31 31 0 0 1 16.9 4.8 43 43 0 0 1 12.4 12.7L348.8 84zm3.6-28.3a13 13 0 0 0-6.6-1.8 14 14 0 0 0-10.1 4.3 14 14 0 0 0-4.1 10l.2 3 1 3.3zm28 11.4q0-13.5 7.3-22 7.8-9.3 21-9.3t20.9 9.1q7.2 8.7 7.2 22.2v33.7h-18.4V65.7a13 13 0 0 0-2.5-8 9 9 0 0 0-7.2-3.3 9 9 0 0 0-7.3 3.2 13 13 0 0 0-2.6 8.1v35.5h-18.4zm74 39q4.7 1.2 8.7 1.9a47 47 0 0 0 7.6.6q8 0 12.2-4t4.3-11.9v-20q0-10.8-3.7-15.3-2.9-3.5-8.7-3.5a12 12 0 0 0-8.8 3.8 13 13 0 0 0-3.7 9 12 12 0 0 0 3.7 9 13 13 0 0 0 9.2 3.6 16 16 0 0 0 4.2-.6l4.3-1.5v19q-1.7.6-3.9 1a22 22 0 0 1-5.2.6 30 30 0 0 1-22-8.8 30 30 0 0 1-9-22 30 30 0 0 1 9-22.1 30 30 0 0 1 22-9.1q14.9 0 23.2 10.4 7.8 9.8 7.8 25v19.8q0 17-9.3 26t-26.5 9a63 63 0 0 1-7.4-.4l-8-1.2zm93.7-22.1a26 26 0 0 0 9.3-2 82 82 0 0 0 8.6-4.3l4.9 18.5a70 70 0 0 1-11.7 4.3 46 46 0 0 1-11.8 1.5A35 35 0 0 1 528 93a31 31 0 0 1-10.3-24 32 32 0 0 1 9.6-23 32 32 0 0 1 23.3-9.8 31 31 0 0 1 16.9 4.8 43 43 0 0 1 12.4 12.7l-31.8 30.4zm3.6-28.3a13 13 0 0 0-6.6-1.8 14 14 0 0 0-10 4.3 14 14 0 0 0-4.2 10l.2 3 1.1 3.3zm73.3 45q0-4 .5-10.9t.5-8.9q0-11.3-2.4-17.4-3.7-9.6-13.1-9.6a14 14 0 0 0-10.4 4.3 15 15 0 0 0-4.1 10.6 15 15 0 0 0 4.2 10.8 14 14 0 0 0 10.7 4.4 19 19 0 0 0 4.5-.5l6-2v18.8q-3 .8-6 1.3a34 34 0 0 1-5.7.5 31 31 0 0 1-22.8-9.9 32 32 0 0 1-9.5-23.3 32 32 0 0 1 9.7-23.5 32 32 0 0 1 23.5-9.6q15.6 0 24.4 10.6 8.4 9.9 8.4 25.7v28.6zm27.6 0V67q0-13.6 6.7-21.8 7.3-8.8 20.6-8.8h3.9v18l-2.8.3q-5.3 0-7.7 3.6a16 16 0 0 0-2.3 9.1v34z"/></svg>