<svg xmlns="http://www.w3.org/2000/svg" viewBox="0 0 360.1 122.6"><g fill-rule="evenodd"><path fill="#b4131d" d="m359 30-32.3 23.9-6.1-9.3L346 25.9V24q-1-7.5-7.5-7.5-7.6 0-13.9 8.2a71 71 0 0 0-13.8 38q.2 8.2 7.6 8.2 2.4 0 5.4-1.3 3-1.2 5.1-3.6l1.6-1.6 9.7 6.9-3.2 3q-13.3 12.3-24.6 12.4-9.5 0-13.2-6.4a27 27 0 0 1-2.7-16.4q.9-10 4.8-20.6A113 113 0 0 1 311.5 23a57 57 0 0 1 14-15.3q8.2-6.1 18-6.4a16 16 0 0 1 10.8 3.4q4 3.6 5.2 9.2 1.2 5.8 0 12.3z"/><path fill="#576265" d="M18 43.7a54 54 0 0 0-3.7 19.1Q14.6 71 23 71q14.3 0 24.7-28.7a55 55 0 0 0 4-18.5q0-7-8.9-7.5-13.8 0-24.6 27.4M48.7 0q11 0 14.8 6t2.7 15.1a111 111 0 0 1-22.3 52 32 32 0 0 1-25.6 12.6Q7.1 85.7 3 79.5A23 23 0 0 1 .3 63.9Q1.5 54.5 5.7 43 21.3-.1 48.7 0m59.5 16.3h-.4q-6 0-10.4 3.5a28 28 0 0 0-7 9.1q-2.9 5.7-6.3 15.3-3.2 9-4.4 13.8t.2 8.9q1.6 4 8 4.1 7 0 13.2-7.5 6-7.5 9.6-17.5 4.5-12 5.3-21 .8-8.7-7.8-8.7M97.8 8.4l3-2.3q6.5-5.4 13.5-6 8.8 0 12.4 6 3.4 6 2.7 15-.8 9.2-4.4 19.1-15.9 44-40.5 45.5-9.6 0-13-5.8L56 122.6H44.1L88.3.8h12.3zM191.5 30l-32.3 24-6-9.3L178.6 26v-2q-1-7.5-7.5-7.5-7.5 0-13.9 8.2a71 71 0 0 0-13.8 38q.2 8.2 7.7 8.2 2.3 0 5.3-1.3 3-1.2 5.2-3.6l1.6-1.6 9.6 6.9-3.2 3Q156.4 86.7 145 86.8q-9.5 0-13.1-6.4A27 27 0 0 1 129 64q1-10 4.9-20.6A113 113 0 0 1 144 23a57 57 0 0 1 14-15.3q8.3-6.1 18-6.4a16 16 0 0 1 10.8 3.4q4 3.6 5.2 9.2 1.3 5.8.1 12.3zm57 4.9-17.7 48.8H219l16-44 .9-2.6q7.6-21-2.6-21.1-14.7 0-22.9 22.5L194 83.6h-12.3l30-82.8H224l-2.9 8A33 33 0 0 1 240.5.4q20.3.5 8 34.3m40.8 9.1H260l5.4-14.8h29.4z"/></g></svg>