<svg xmlns="http://www.w3.org/2000/svg" viewBox="0 0 360.10553 122.59895"><g fill-rule="evenodd"><path d="M358.98 29.907l-32.305 23.958-6.084-9.268 25.476-18.712-.035-1.75c-.63-5.015-3.1-7.52-7.443-7.52-5.103 0-9.73 2.71-13.893 8.16-4.135 5.452-7.498 11.748-10.12 18.978-2.582 7.11-3.796 13.436-3.675 18.974.115 5.54 2.664 8.307 7.623 8.307 1.57 0 3.365-.438 5.345-1.312 1.97-.843 3.72-2.07 5.18-3.582l1.594-1.606 9.617 6.85-3.177 2.97c-8.868 8.28-17.07 12.424-24.62 12.424-6.325 0-10.712-2.13-13.15-6.417-2.47-4.28-3.37-9.764-2.714-16.38.628-6.645 2.242-13.497 4.81-20.58 2.83-7.403 6.2-14.195 10.13-20.372 3.903-6.183 8.59-11.31 14-15.362 5.415-4.08 11.402-6.21 17.948-6.412 4.55 0 8.148 1.164 10.808 3.467 2.622 2.334 4.37 5.394 5.182 9.183.802 3.817.834 7.9.1 12.33l-.6 3.674" fill="#b4131d"/><path d="M18.087 43.723c-2.643 7.286-3.902 13.64-3.78 19.092.15 5.45 2.975 8.19 8.57 8.19 9.563 0 17.813-9.562 24.75-28.683 2.78-7.664 4.118-13.847 4.042-18.537-.106-4.694-3.072-7.202-8.93-7.522-9.27 0-17.488 9.154-24.653 27.46zM48.637 0c7.29 0 12.21 2.01 14.805 6.034 2.594 4.02 3.476 9.064 2.686 15.098-.792 6.033-2.593 13.086-5.386 21.19-4.43 12.215-10.078 22.474-16.93 30.838-6.883 8.368-15.388 12.538-25.565 12.538-7.463 0-12.54-2.073-15.205-6.21C.376 75.347-.54 70.16.304 63.894c.835-6.237 2.634-13.203 5.404-20.84C16.123 14.34 30.423 0 48.638 0zm59.482 16.263h-.38c-4.11 0-7.565 1.166-10.434 3.528-2.827 2.332-5.19 5.393-7.04 9.126-1.86 3.758-3.945 8.86-6.29 15.332-2.09 5.915-3.546 10.494-4.39 13.786-.836 3.265-.738 6.208.255 8.862 1.03 2.622 3.714 3.99 8.04 4.108 4.663 0 9.042-2.506 13.078-7.52 4.032-5.013 7.253-10.842 9.664-17.488 2.932-8.075 4.67-15.04 5.233-20.93.58-5.858-1.993-8.803-7.736-8.803zm-10.302-7.84l2.962-2.304c4.295-3.643 8.802-5.624 13.526-5.943 5.888 0 10.008 1.98 12.356 5.942 2.336 3.935 3.257 8.95 2.736 15.043-.538 6.062-1.998 12.417-4.41 19.06-10.626 29.295-24.11 44.457-40.454 45.475-6.384 0-10.73-1.927-13.006-5.773L56.048 122.6H44.124L88.295.842h12.272zm93.702 21.484l-32.304 23.958-6.082-9.268 25.474-18.712-.036-1.75c-.63-5.015-3.104-7.52-7.446-7.52-5.1 0-9.728 2.71-13.888 8.16-4.138 5.452-7.5 11.748-10.123 18.978-2.58 7.11-3.796 13.436-3.675 18.974.12 5.54 2.668 8.307 7.622 8.307 1.573 0 3.365-.438 5.345-1.312 1.97-.843 3.724-2.07 5.18-3.582l1.597-1.606 9.614 6.85-3.176 2.97c-8.866 8.28-17.067 12.424-24.615 12.424-6.33 0-10.716-2.13-13.155-6.417-2.47-4.28-3.366-9.764-2.714-16.38.632-6.645 2.244-13.497 4.814-20.58 2.832-7.403 6.2-14.195 10.13-20.372 3.904-6.183 8.593-11.31 13.998-15.362 5.414-4.08 11.404-6.21 17.95-6.412 4.546 0 8.145 1.164 10.81 3.467 2.62 2.334 4.37 5.394 5.175 9.183.807 3.817.84 7.9.108 12.33zm57.012 4.896l-17.698 48.8h-11.922l15.99-44.077.9-2.48c5.117-14.108 4.238-21.162-2.612-21.162-9.767 0-17.39 7.52-22.848 22.56l-16.38 45.158h-12.274L211.714.842h12.268l-2.864 7.902c2.625-2.42 5.734-4.403 9.252-5.917 3.566-1.544 6.93-2.302 10.138-2.302 13.527.318 16.203 11.747 8.024 34.278zm40.778 9.093h-29.384l5.38-14.835h29.385l-5.38 14.836" fill="#576265"/></g></svg>
