<svg xmlns="http://www.w3.org/2000/svg" version="1.2" viewBox="0 0 1522 320"><defs><linearGradient id="b" x1="59.1" x2="277.5" y1="114.2" y2="238.1" gradientUnits="userSpaceOnUse"><stop offset="0" stop-color="#7fb8e7"/><stop offset=".1" stop-color="#70acdd"/><stop offset=".7" stop-color="#2c76b3"/><stop offset="1" stop-color="#1261a3"/></linearGradient><linearGradient id="c" x1="247.7" x2="119" y1="160.3" y2="86.9" gradientUnits="userSpaceOnUse"><stop offset="0" stop-color="#9dceea"/><stop offset="1" stop-color="#2257a1"/></linearGradient><linearGradient id="d" x1="229.9" x2="215.1" y1="145.2" y2="169.8" gradientUnits="userSpaceOnUse"><stop offset=".1" stop-color="#fff"/><stop offset="1" stop-color="#fff" stop-opacity="0"/></linearGradient><linearGradient id="e" x1="166.3" x2="241.9" y1="194.9" y2="255.1" gradientUnits="userSpaceOnUse"><stop offset="0" stop-color="#fff"/><stop offset="1" stop-color="#0e69b1"/></linearGradient><linearGradient id="f" x1="12.7" x2="217.3" y1="203.3" y2="203.3" gradientUnits="userSpaceOnUse"><stop offset="0" stop-color="#9dceea"/><stop offset="1" stop-color="#2257a1"/></linearGradient><linearGradient id="g" x1="12.7" x2="217.3" y1="195.2" y2="195.2" gradientUnits="userSpaceOnUse"><stop offset="0" stop-color="#9dceea"/><stop offset="1" stop-color="#2257a1"/></linearGradient><linearGradient id="h" x1="133.1" x2="172.4" y1="-2" y2="314.4" gradientUnits="userSpaceOnUse"><stop offset="0" stop-color="#9dceea"/><stop offset=".1" stop-color="#87b9dd"/><stop offset=".1" stop-color="#689bcb"/><stop offset=".3" stop-color="#4e82bb"/><stop offset=".4" stop-color="#3a6fb0"/><stop offset=".5" stop-color="#2c61a7"/><stop offset=".7" stop-color="#2459a2"/><stop offset=".9" stop-color="#2257a1"/></linearGradient><radialGradient id="a" cx="144.7" cy="273.9" r="161.1" gradientUnits="userSpaceOnUse"><stop offset="0" stop-color="#9dceea"/><stop offset="0" stop-color="#9bcce9"/><stop offset=".3" stop-color="#679aca"/><stop offset=".6" stop-color="#4176b4"/><stop offset=".9" stop-color="#2a5fa6"/><stop offset="1" stop-color="#2257a1"/></radialGradient></defs><path fill-rule="evenodd" d="M806.9 112v41.2h93.6l-5.6 26.8h-87.8v59h-42.8V85.1H915l-5.8 26.9zm518.5 127h-49l-14.7-31.2h-82.2l-14.2 31.2h-30.9l72.5-153.9h28.9c10.9 0 15 4.5 20.6 16 5.3 10.7 69 137.9 69 137.9zm-76.4-58.1h-.1l.1.2zm-29-61.3-28.1 61.3h57zM743.1 239h-49l-14.7-31.1h-82.2L583 239h-30.9l72.7-153.9h28.9c10.9 0 15 4.5 20.6 16 4.9 10.8 68.8 137.9 68.8 137.9zm-76.4-57.9-29.1-61.3-28 61.3zm-300.5 32 16.2-19.6s31.6 21 67.9 22.8c37.8 1.8 46.4-8.6 46.4-17 0-10.9-16.6-12.4-44.9-20.5-46.3-13.2-78-23.2-78-52.6 0-29.7 27.9-45.8 80.9-45.8 48.6 0 79.1 22.6 79.1 22.6l-13.4 21.2s-21.6-14.3-55.6-16c-27.1-1.3-44.7 4-44.7 13.7 0 10.2 18.8 11.9 49 20.1 50.7 13.9 73.8 26.9 73.8 52.5 0 29.4-25.4 49.5-80.6 49.5-61.3 0-95.9-30.9-96.1-30.9zm0 0zM1489.8 85h31.3v153.9h-11c-14.9 0-21.7-2.7-35-13.2-7.5-5.8-96.9-77.2-96.9-77.2V239h-31.6V85.1h11.1c14.8 0 21 3.5 34.3 14.1 7.5 5.9 97.8 77.8 97.8 77.8zm-371.6 154.1h-28.9c-17.2 0-27.6-11.9-33.9-20.1-6.9-9.1-24.2-32-24.2-32h-46.9v52.1h-42.8V85.2h86.7c33.2 0 80.9 3.4 80.9 50.9 0 27.6-16.2 40.3-36.2 46.1zm-55.4-103c0-16.1-10.3-24-32.9-24h-45l-.5-.4v48.9l.5-.4h45c22.6 0 32.9-7.9 32.9-24.1z" style="fill:#525668"/><path d="M144.8 319.5c-63.6 0-118.6-37.3-144.1-91h3.4C35.7 271.8 87 300 144.8 300c57.7 0 108.9-28.2 140.6-71.5h3.5c-25.8 53.7-80.6 90.8-144.1 91z" style="fill:url(#a)"/><path d="M178.6 284.4c.2 0 31.2-19.8 31.7-41.8.2-9.4-3.5-21.2-30.7-30.1C129.7 196.3 0 170.2 13.4 104.6 16 91.4 23.9 76.9 42.8 62.7 74.6 38.9 106 39.1 106 39.1 89.3 49.5 74.6 67 74.3 80.8c-.3 11.9 6.1 23 43.6 34.5 23.6 7.3 51.3 15.3 85 27.1 43.1 15 79.5 34.9 72.1 74.2-1.5 8.6-8.4 20.4-16.2 29-20.4 23.1-54.8 38.1-80.2 38.8z" style="fill:url(#b)"/><path d="M275.2 216.6c7.4-39.3-29.1-59.2-72.2-74.2-33.6-11.8-61.4-19.8-85-27.1-37.4-11.5-43.9-22.6-43.6-34.5.4-13.8 15.1-31.3 31.7-41.7-24.2 15-32.3 29.4-34.5 40.1-2.9 14.5 7.6 26.9 43.5 38.1 23.6 7.4 51.3 15.3 85 27 28.2 9.9 52.5 20.3 65.5 37.5 11.9 15.8 9.6 34.8 9.6 34.8z" style="opacity:.7;fill:url(#c)"/><path d="M199.9 144.3c40.8 14.1 78.9 32.5 73.8 69.1-2.6 18.8-19.6 26.3-20.5 27.4 6.1-8.2 7.1-11.7 8.6-19.4 6.3-37.8-27.4-53.5-64.4-65.5-11-3.7-24.6-8.3-34.8-11.6-21-6.9-15.8-17.5 2-11.8 11.5 3.6 25.1 8.2 35.3 11.8z" style="opacity:.8;fill:url(#d)"/><path d="M253.2 240.7c-16.6 22.9-52.8 41.4-74.4 43.3 3.8-2.1 34.5-19.9 37.9-38.7 3.3-17.7-5.9-29.4-34.1-37.5-5.8-1.6-11.9-3.4-18.7-5.4l33.5-46.5c37 12 70.7 27.7 64.4 65.5-1.5 7.5-2.5 11.2-8.6 19.3z" style="opacity:.3;fill:url(#e)"/><g style="opacity:.7"><path d="M178.9 284s-.1 0 0 0q-.2 0 0 0z" style="fill:url(#f)"/><path d="M182.6 207.8c-14.7-4.3-32.7-9.5-54.3-16-16.5-4.9-37.7-12.3-57.3-21.1-52.5-23.2-59.1-51.3-57.8-64.5-10.4 64.2 117.2 89.9 166.6 105.9 27.2 8.9 30.8 20.8 30.7 30.2-.5 21.3-29.6 40.4-31.6 41.6 4.2-2.3 34.4-20.1 37.8-38.8 3.2-17.5-6.1-29.2-34.1-37.3z" style="fill:url(#g)"/></g><path d="M288.9 91.5h-3.5C253.7 48.2 202.5 20 144.8 20 87 20 35.7 48.2 4.1 91.5H.7C26.2 37.8 81.2.5 144.8.5c63.5 0 118.3 37.3 144.1 91z" style="fill:url(#h)"/></svg>