<svg xmlns="http://www.w3.org/2000/svg" viewBox="0 0 195.8 54.9"><g fill-rule="evenodd"><path fill="#83a840" d="M45 10.3q0-1-.6-1.8l-2-2a17 17 0 0 0-5-3.7 25.7 25.7 0 0 0-28.7 42c10.4 9.1 27.3 7 34.8-5A32 32 0 0 0 45 10.4M32.8 37.9a14.5 14.5 0 0 1-21.9-4.4A17 17 0 0 1 16.1 12c5.3-3.8 11-4.1 16.6-2.7l.2.2c9.8 4.6 7.3 22.4-.1 28.5"/><path fill="#241f21" d="M64.6 31.8v8.6q-.2 7.2-6.5 7.2-6.5 0-6.5-7.2v-8.8c0-4.8 2.7-7 6.6-7q6.2 0 6.4 7.2m-8.6-.3v9.1c0 1.8.6 3.1 2.1 3.1q2.1 0 2-3.2v-9c0-1.7-.4-3-2-3q-2 0-2 3m10.5-.1v-6.5h4.2l.1 2.2a4 4 0 0 1 4.1-2.5q4.6 0 4.6 6.5v9.2q0 7.5-5 7.3-2.8-.2-3.6-1.9v9h-4.4zm4.4 8.4c0 2.3.5 3.9 2 3.9q2.4-.1 2.2-3.4v-8.8q0-3-2-2.9-2.2-.2-2.2 3.5zm15-2.5v3.3c0 1.7.3 3.3 2 3.3 1.8 0 2-1.6 2-3.2v-.1h4.3c0 2.4-.5 7-6.2 7s-6.5-3.5-6.5-8v-7.3c0-3.1 1-7.7 6.5-7.7 4.7 0 6.2 3.2 6.2 7.6v5.1zm4.1-3.5v-2.3q.1-3.1-2-3.2-2.2 0-2.1 3.2v2.3zm6.4-2V25h4.2l.1 2a4 4 0 0 1 4.1-2.3c2.7 0 4.6 1.7 4.6 5.9v16.8H105v-16q0-2.9-2-2.7c-1.5 0-2.2.8-2.2 3.9v14.8h-4.4zm18.6 9.1v1q.1 3.8 2.8 3.7 2.9 0 2.7-3.6c0-2.6-.7-3.6-3-5.2-2.9-2-4.2-3.4-4.2-6.4 0-2.9 1.3-5.3 4.6-5.3 3.6 0 4.5 2.6 4.5 5.3v1.1h-2v-1q.2-3.4-2.5-3.5-2.6 0-2.4 3.2c0 2 .6 2.9 2.8 4.5 2.8 1.8 4.4 3.4 4.4 7q0 5.7-5 5.8c-3.8 0-4.9-2.7-4.9-5.6v-1zm10.7-15.4c1.6 8.4 3.2 16.5 3.4 18.9.5-3.4 2.4-12.3 3.6-19h2.1l-4.7 23c-1.3 6-2.8 6.4-5 6.4l-1.3-.1v-2h1.2c1.7 0 2.3-.7 3-4.8l-4.5-22.4zm12 15.4v1q.1 3.8 2.8 3.7 2.8 0 2.7-3.6c0-2.6-.8-3.6-3.1-5.2-2.8-2-4.1-3.4-4.1-6.4 0-2.9 1.2-5.3 4.6-5.3 3.6 0 4.5 2.6 4.5 5.3v1.1H143v-1q.2-3.4-2.5-3.5-2.5 0-2.4 3.2c0 2 .6 2.9 2.9 4.5 2.7 1.8 4.4 3.4 4.4 7q0 5.7-5 5.8c-3.8 0-4.9-2.7-4.9-5.6v-1zm8-15.4h2.7V20h2v5.5h3.3v1.9h-3.3v15.8c0 1.2.3 2.4 1.7 2.4l1.5-.1v1.7l-2.2.2c-1.6 0-3-.8-3-3.8V27.4h-2.6zm11 11v3.8c0 2.5.5 5.3 3 5.3 2.3 0 2.8-1.8 2.8-4.2v-.2h2v.2c0 2.7-.6 6.1-4.8 6.1-3.8 0-5-2.6-5-7v-8.8c0-3.6 1.3-6.6 5-6.6 4 0 4.9 3 4.9 6.6v4.8zm5.9-1.8v-3c0-2-.3-4.7-2.9-4.7-2.5 0-3 2.2-3 4.7v3zm4.6-3v-6.2h1.9v2a4 4 0 0 1 3.7-2.4q2.5-.1 3.3 2.6c.6-1.4 1.7-2.6 3.8-2.6s4 .8 4 5v17h-2.1V30.7c0-2-.3-3.5-2.4-3.5-2.3 0-2.9 2.3-2.9 4.7v15.4h-2V30.8q0-3.8-2.4-3.7c-2.3 0-2.8 2.3-2.8 5v15h-2.1zm20.8 9.2v1c0 2.6 1.2 3.7 2.8 3.7q2.9 0 2.8-3.6c0-2.6-.8-3.6-3.2-5.2-2.8-2-4-3.4-4-6.4 0-2.9 1.2-5.3 4.5-5.3 3.6 0 4.5 2.6 4.5 5.3v1.1h-2v-1q.2-3.4-2.5-3.5-2.5 0-2.4 3.2c0 2 .6 2.9 2.8 4.5 2.8 1.8 4.4 3.4 4.4 7q.1 5.7-5 5.8c-3.8 0-4.8-2.7-4.8-5.6v-1z"/></g></svg>