<svg viewBox="0 0 195.81 54.855" xmlns="http://www.w3.org/2000/svg"><g fill-rule="evenodd"><path d="M45.053 10.27c-.064-.642-.32-1.22-.7-1.735-.638-.77-1.274-1.477-1.975-2.12a16.492 16.492 0 00-4.968-3.598C27.857-2.26 15.31-.33 7.412 7.637-2.906 17.98-2.396 35.393 8.686 44.903c10.445 8.995 27.323 6.81 34.775-5.012 4.904-7.839 6.24-20.883 1.592-29.622M32.76 37.9c-7.134 5.783-17.388 3.47-21.846-4.37-4.204-7.389-1.465-16.834 5.223-21.653 5.222-3.79 10.954-4.112 16.559-2.635.064.065.127.13.19.13 9.81 4.625 7.326 22.424-.126 28.53" fill="#83a840"/><path d="M64.568 31.794v8.588c0 4.79-2.353 7.25-6.503 7.25-4.32 0-6.46-2.503-6.46-7.207V31.62c0-4.834 2.739-7.034 6.589-7.034 3.978 0 6.374 2.503 6.374 7.207m-8.556-.259v9.063c0 1.77.556 3.107 2.096 3.107 1.497 0 2.053-1.122 2.053-3.194v-8.976c0-1.727-.47-2.978-2.053-2.978-1.454 0-2.096 1.035-2.096 2.978m10.608-.173c0-3.02 0-5.05-.043-6.43h4.193c.085.431.17 1.424.17 2.2.643-1.424 1.883-2.545 4.065-2.545 3.122 0 4.577 2.2 4.577 6.56v9.15c0 5.134-1.668 7.335-5.048 7.335-1.882 0-2.951-.906-3.508-1.899v9.063H66.62V31.362zm4.406 8.46c0 2.243.428 3.84 2.054 3.84 1.668 0 2.095-1.295 2.095-3.323v-8.804c0-2.029-.64-2.935-1.924-2.935-1.412 0-2.225.863-2.225 3.453zm14.887-2.504v3.28c0 1.726.427 3.28 2.096 3.28 1.753 0 1.968-1.597 1.968-3.194v-.087h4.277v.087c0 2.33-.47 6.948-6.16 6.948-5.647 0-6.46-3.539-6.46-8.027v-7.337c0-3.064.942-7.682 6.46-7.682 4.706 0 6.246 3.237 6.246 7.64v5.092zm4.19-3.496v-2.287c0-2.072-.47-3.194-2.051-3.194-1.412 0-2.097 1.036-2.097 3.194v2.287h4.15zm6.418-1.985c0-4.532 0-5.87-.043-6.905h4.192c.085.518.17 1.424.17 2.028.643-1.295 1.84-2.373 4.108-2.373 2.695 0 4.534 1.682 4.534 5.87v16.83h-4.406V31.32c0-2.029-.684-2.719-1.925-2.719-1.54 0-2.224.82-2.224 3.884v14.803H96.52v-15.45zm18.565 9.113v.906c0 2.676 1.155 3.755 2.823 3.755 1.968 0 2.738-1.252 2.738-3.625 0-2.59-.77-3.626-3.123-5.222-2.823-1.9-4.106-3.41-4.106-6.345 0-2.89 1.24-5.308 4.577-5.308 3.636 0 4.492 2.59 4.492 5.308v1.08h-2.054v-1.08c0-2.07-.556-3.452-2.48-3.452-1.712 0-2.396 1.165-2.396 3.237 0 2.028.599 2.891 2.866 4.488 2.737 1.856 4.363 3.366 4.363 6.95 0 3.796-1.54 5.868-5.005 5.868-3.764 0-4.834-2.676-4.834-5.568v-.992h2.14zm10.736-15.493c1.583 8.458 3.166 16.572 3.38 18.903h.042c.47-3.367 2.31-12.214 3.55-18.903h2.14l-4.75 22.96c-1.24 5.911-2.736 6.43-5.004 6.43a5.45 5.45 0 01-1.283-.173v-2.028c.257.043.813.13 1.155.13 1.71 0 2.396-.82 3.123-4.835l-4.62-22.484zm11.934 15.493v.906c0 2.676 1.155 3.755 2.823 3.755 1.968 0 2.738-1.252 2.738-3.625 0-2.59-.77-3.626-3.123-5.222-2.823-1.9-4.107-3.41-4.107-6.345 0-2.89 1.24-5.308 4.578-5.308 3.636 0 4.492 2.59 4.492 5.308v1.08h-2.054v-1.08c0-2.07-.556-3.452-2.481-3.452-1.71 0-2.395 1.165-2.395 3.237 0 2.028.599 2.891 2.866 4.488 2.737 1.856 4.363 3.366 4.363 6.95 0 3.796-1.54 5.868-5.005 5.868-3.765 0-4.834-2.676-4.834-5.568v-.992zm8.127-15.493h2.61v-5.438h2.052v5.438h3.295v1.898h-3.295v15.84c0 1.165.257 2.416 1.626 2.416.428 0 1.155-.043 1.497-.13v1.684c-.6.215-1.454.258-2.14.258-1.667 0-3.035-.863-3.035-3.84V27.354h-2.61zm10.993 11.09v3.798c0 2.504.47 5.266 2.952 5.266 2.267 0 2.78-1.77 2.78-4.186v-.26h2.054v.216c0 2.676-.642 6.13-4.877 6.13-3.807 0-4.962-2.634-4.962-7.079v-8.76c0-3.54 1.283-6.56 5.048-6.56 3.85 0 4.833 3.063 4.833 6.56v4.876h-7.828zm5.775-1.812V31.67c0-2.028-.214-4.704-2.823-4.704-2.481 0-2.952 2.201-2.952 4.747v3.021zm4.62-3.064c0-3.668 0-5.135-.044-6.214h1.968c.086.603.086 1.424.086 2.114.599-1.467 1.71-2.46 3.636-2.46 1.583 0 2.823.648 3.25 2.633.6-1.424 1.712-2.633 3.85-2.633 1.969 0 3.937.777 3.937 4.92v17.134h-2.097V30.55c0-1.856-.3-3.453-2.31-3.453-2.395 0-2.908 2.288-2.908 4.748v15.32h-2.097v-16.4c0-2.589-.6-3.668-2.352-3.668-2.31 0-2.823 2.331-2.823 5.093v14.976h-2.097V31.67zm20.83 9.28v.905c0 2.676 1.157 3.755 2.825 3.755 1.967 0 2.738-1.252 2.738-3.625 0-2.59-.77-3.626-3.123-5.222-2.823-1.9-4.107-3.41-4.107-6.345 0-2.89 1.24-5.308 4.577-5.308 3.637 0 4.492 2.59 4.492 5.308v1.08h-2.053v-1.08c0-2.07-.557-3.452-2.482-3.452-1.71 0-2.395 1.165-2.395 3.237 0 2.028.599 2.891 2.866 4.488 2.738 1.856 4.363 3.366 4.363 6.95 0 3.796-1.54 5.868-5.005 5.868-3.764 0-4.834-2.676-4.834-5.568v-.992h2.14z" fill="#241f21"/></g></svg>