<svg xmlns="http://www.w3.org/2000/svg" viewBox="0 0 1165 330"><path fill="#347564" d="M0 165V0h1165v330H0Zm1155 1V10H337v156l-1 156h819Zm-196 17v30zm-51 31v1zm-110-30v-14zm-169-27v-17zm320-7v-14zm-256 8 1-18v-18 18zm-127-35v-1q0-1 0 0l17 1h16zm-14-24-2-1zl1 2zM67 283l2-2-1-1-1-2c2-2 2-3 2-12 0-10 0-10-4-12l-13-1c-12 0-13 0-15 3-2 2-2 2-2 10l1 11 3 3 12 1h11l2 2 1 1zm-25-9-1-1 1-13 1-1h19l1 7v7q-1 3-3-1l-3-3-1 2q-3 2-1 3t-6 1zm69 7 3-3 2-2v-24l-3 1h-3v10c0 10-1 11-2 12l-9 1-10-1-1-12v-10h-3l-3-1v17q-1 8 1 9c3 3 5 3 16 3zm22-4 2-4h18l2 4 3 5h3l3-1-9-14-8-14h-6l-8 14-8 14h5Zm4-8 3-4 3-6 1-2 2 5 4 6q2 2-6 2zm62 11v-2h-21v-25h-3l-3 1v28h27zm13-13v-14h-6v29l3-1h3zm68 8v-6l8-8 9-8h-7l-6 7-7 6-6-6-7-7h-6l8 9 8 8v12l3-1h3zm-43-7v-12h14v-4l-17 1h-17v3h14v24l3 1h3Zm-101-71v-30h93l17-5q23-12 30-41l1-16-1-16q-4-22-17-35-9-9-23-13l-4-1h-89l-88-1v188h81zm34-54q-8-3-7-11c0-9 12-12 18-5 7 7-1 18-11 16m23-16c-7-3-9-12-4-17 6-6 17-4 19 5q1 7-5 12-4 3-10 0m-49 0c-7-3-8-14-2-18q7-4 12 0 5 3 5 9l-2 6q-3 4-8 4zm27-13c-10-1-12-15-3-20q8-2 14 3c6 8-1 19-11 17m-24-14q-9-2-9-12c0-11 13-15 20-7 5 7 1 17-7 19zm48-1q-7-4-7-10c-1-10 11-15 18-9q4 3 3 8 0 8-6 11zm-27-15q-6-2-6-9 2-13 14-11 8 2 8 10l-1 6q-6 8-15 4"/><path d="M392 164V84l67 1c74 0 69 0 76 3 13 5 27 21 31 32v3h33l14 34 16 35v-70l25 1h24l8 17 8 18v-35h36v121h-48l-8-15-9-15v30h-62l-5-10-4-10h-41l-4 10-4 10h-41v-2l20-51-24 1h-34v52h-74zm189 32c0-1-10-22-11-21l-6 20-1 2h9zm-93-29 1-28v-27l-1-2-12-1h-10v59h11zm256 16v-60h85l3 1q5 3 9 9l1 2v49l-1 51q-1 5-6 8l-2 1h-89zm53 31 1-30c0-34 0-31-6-31h-4v62h4zm64 29-4-2c-5-5-4 0-4-63v-55h44v44c0 53-1 48 6 48q7 0 6-2l1-46v-44h39v83c0 33 0 30-4 34-3 4 0 4-43 4zm99-60v-60h41v121h-41zm72 60v-90h-22v-30h87v30h-23v91h-21z"/></svg>