<?xml version="1.0" encoding="utf-8"?>
<!-- Generator: Adobe Illustrator 24.0.2, SVG Export Plug-In . SVG Version: 6.00 Build 0)  -->
<svg version="1.1" id="Layer_1" xmlns="http://www.w3.org/2000/svg" xmlns:xlink="http://www.w3.org/1999/xlink" x="0px" y="0px"
	 viewBox="0 0 1355 247.76" style="enable-background:new 0 0 1355 247.76;" xml:space="preserve">
<style type="text/css">
	.st0{fill:#F04E23;}
</style>
<path d="M575.68,45.45c-17.5,0-35.68,4.77-58.18,16.82L530,93.18c19.54-10.91,35.68-15.68,47.5-15.68c13.41,0,19.32,5,19.32,11.59
	v0.45c0,4.55-3.64,7.05-12.5,7.96l-15.45,1.59c-38.64,4.09-54.55,20.91-54.55,44.09v1.59c0,22.05,18.18,39.32,43.86,39.32
	c16.91,0,31.6-7.14,40.53-19.74l2.88,17.47h35V102.5C636.59,65,615,45.45,575.68,45.45 M572.27,153.86c-12.95,0-19.09-5-19.09-12.73
	v-0.45c0-6.82,3.86-11.82,17.95-13.86l6.14-0.91c8.97-1.25,14.48-2.9,19.55-5.97V130C596.82,145.23,587.27,153.86,572.27,153.86"/>
<polygon class="st0" points="246.59,46.36 201.82,1.59 157.05,46.36 179.32,68.64 67.05,180.91 111.82,225.68 156.59,180.91 
	134.32,158.64 "/>
<rect x="-0.87" y="48.45" transform="matrix(0.7071 -0.7071 0.7071 0.7071 -33.65 78.9869)" class="st0" width="158.78" height="63.32"/>
<rect x="155.72" y="115.5" transform="matrix(0.7071 -0.7071 0.7071 0.7071 -35.193 209.3551)" class="st0" width="158.78" height="63.32"/>
<rect x="659.32" width="39.77" height="181.82"/>
<path d="M447.5,45.45c-18.08,0-32.6,8-40.59,20.53l-3.04-18.26h-35v179.54h39.77v-62.23c7.57,11.67,21.89,19.05,38.86,19.05
	c31.82,0,57.73-28.18,57.73-67.05v-4.55C505.23,73.64,479.32,45.45,447.5,45.45 M464.32,115.91c0,20.45-10.68,35.23-28.41,35.23
	c-17.73,0-28.41-14.77-28.41-35.23v-2.27c0-20.46,10.68-35.23,28.41-35.23c17.73,0,28.41,14.77,28.41,35.23V115.91z"/>
<path d="M1235.68,45.45c-40.68,0-69.32,28.18-69.32,67.05v4.55c0,38.86,28.64,67.05,69.32,67.05c40.68,0,69.32-28.18,69.32-67.05
	v-4.55C1305,73.64,1276.36,45.45,1235.68,45.45 M1264.09,115.91c0,20.45-10.68,35.23-28.41,35.23c-17.73,0-28.41-14.77-28.41-35.23
	v-2.27c0-20.46,10.68-35.23,28.41-35.23c17.73,0,28.41,14.77,28.41,35.23V115.91z"/>
<path d="M1342.5,53.64v-0.68c0-3.86-2.95-6.59-8.18-6.59h-9.09v20.91h4.32v-7.05h4.8l3.61,7.05h4.77l-4.44-8.27
	C1340.99,58.18,1342.5,56.16,1342.5,53.64 M1329.54,50.23h4.77c2.73,0,3.86,0.91,3.86,2.96v0.23c0,1.82-1.14,2.95-3.86,2.95h-4.77
	V50.23z"/>
<path d="M1333.41,35.23c-12.27,0-21.59,9.32-21.59,21.59s9.32,21.59,21.59,21.59c12.27,0,21.59-9.32,21.59-21.59
	S1345.68,35.23,1333.41,35.23 M1333.41,75.45c-10.68,0-18.41-7.73-18.41-18.64s7.73-18.64,18.41-18.64
	c10.68,0,18.41,7.73,18.41,18.64S1344.09,75.45,1333.41,75.45"/>
<rect x="1009.54" width="39.77" height="181.82"/>
<path d="M1127.73,151.14c-11.59,0-15.91-5.68-15.91-17.95V78.41h46.82V47.73h-46.82V17.04l-39.77,5.91v114.09
	c0,31.14,15.91,47.05,47.73,47.05c14.09,0,30.68-4.32,44.32-12.05l-11.36-28.18C1144.77,148.18,1133.64,151.14,1127.73,151.14"/>
<path d="M925.91,45.45c-17.5,0-35.68,4.77-58.18,16.82l12.5,30.91c19.54-10.91,35.68-15.68,47.5-15.68c13.41,0,19.32,5,19.32,11.59
	v0.45c0,4.55-3.64,7.05-12.5,7.96l-15.45,1.59c-38.64,4.09-54.55,20.91-54.55,44.09v1.59c0,22.05,18.18,39.32,43.86,39.32
	c16.9,0,31.6-7.14,40.53-19.74l2.88,17.47h35V102.5C986.82,65,965.23,45.45,925.91,45.45 M922.5,153.86
	c-12.96,0-19.09-5-19.09-12.73v-0.45c0-6.82,3.86-11.82,17.95-13.86l6.14-0.91c8.97-1.25,14.48-2.9,19.54-5.97V130
	C947.04,145.23,937.5,153.86,922.5,153.86"/>
<path d="M786.14,45.45c-40.68,0-69.32,28.18-69.32,67.05v4.55c0,38.86,28.64,67.05,69.32,67.05c40.68,0,69.32-28.18,69.32-67.05
	v-4.55C855.45,73.64,826.82,45.45,786.14,45.45 M814.54,115.91c0,20.45-10.68,35.23-28.41,35.23s-28.41-14.77-28.41-35.23v-2.27
	c0-20.46,10.68-35.23,28.41-35.23s28.41,14.77,28.41,35.23V115.91z"/>
<polygon points="948.93,214.06 959.12,214.06 973.19,232.61 973.33,232.61 973.33,214.06 982.68,214.06 982.68,246.77 
	972.82,246.77 958.42,227.75 958.28,227.75 958.28,246.77 948.93,246.77 "/>
<polygon points="995.11,214.06 1023.71,214.06 1024.09,222 1004.88,222 1004.88,226.49 1019.97,226.49 1019.97,233.73 
	1004.88,233.73 1004.88,238.83 1024.65,238.83 1024.27,246.77 995.11,246.77 "/>
<polygon points="1044.56,222.47 1033.11,222.47 1033.48,214.06 1065.49,214.06 1065.87,222.47 1054.42,222.47 1054.42,246.77 
	1044.56,246.77 "/>
<polygon points="1073.77,214.06 1084.23,214.06 1089.56,236.77 1090.08,236.77 1096.99,214.06 1106.58,214.06 1113.35,236.77 
	1113.87,236.77 1119.1,214.06 1129.1,214.06 1120.5,246.77 1107.65,246.77 1101.67,227.05 1101.39,227.05 1095.31,246.77 
	1082.41,246.77 "/>
<path d="M1136.3,230.42c0-10.66,7.24-17.34,18.69-17.34c11.45,0,18.7,6.68,18.7,17.34c0,10.66-7.24,17.34-18.7,17.34
	C1143.54,247.76,1136.3,241.07,1136.3,230.42 M1163.92,230.42c0-5.65-3.27-9.02-8.93-9.02c-5.66,0-8.93,3.37-8.93,9.02
	c0,5.66,3.27,9.02,8.88,9.02C1160.6,239.44,1163.92,236.07,1163.92,230.42"/>
<path d="M1184.3,214.06h19.07c8.69,0,12.95,4.11,12.95,11.73c0,5.23-2.15,8.79-6.36,10.47l7.76,10.52h-11.12l-6.03-8.6h-6.45v8.6
	h-9.82V214.06z M1202.1,230.51c3.27,0,4.44-1.82,4.44-4.3s-1.17-4.25-4.44-4.25h-7.99v8.55H1202.1z"/>
<polygon points="1229.07,214.06 1238.88,214.06 1238.88,226.12 1242.9,226.12 1252.48,214.06 1263.51,214.06 1263.56,214.1 
	1251.04,229.76 1264.26,246.73 1264.21,246.77 1252.76,246.77 1242.86,234.2 1238.88,234.2 1238.88,246.77 1229.07,246.77 "/>
<path d="M1271.78,244.62v-8.97h0.05c5.47,2.76,10.8,4.11,15.42,4.11c3.51,0,5.28-0.84,5.28-2.48c0-1.64-1.17-2.06-8.18-3.18
	c-7.66-1.21-12.76-3.51-12.76-10.1c0-6.12,5.38-10.84,15.89-10.84c4.21,0,8.6,0.89,12.67,2.62v8.88l-0.05,0.05
	c-3.88-2.24-9.11-3.65-13.32-3.65c-3.74,0-5.23,0.89-5.23,2.38c0,1.92,2.29,2.1,8.04,3.09c7.66,1.31,12.76,3.46,12.76,10.38
	c0,5.37-4.02,10.75-15.56,10.75C1281.09,247.66,1276.55,246.49,1271.78,244.62"/>
</svg>
