<svg viewBox="0 0 295 158" xmlns="http://www.w3.org/2000/svg"><path d="m294.3 99.9-273.2 58.1-21.1-99.1 273.2-58.1z" fill="#356d87"/><path d="m190 104.8 1.5-.3s-1.2-5.5-1.3-6.2c.5.4 6.2 5.2 6.2 5.2l1.6-.3-1.8-8.4-1.5.3s1.2 5.5 1.3 6.2c-.5-.4-6.2-5.2-6.2-5.2l-1.6.3zm9.9-2.1 6.8-1.4-.3-1.3s-5 1.1-5.3 1.1l-.5-2.3 5-1.1-.3-1.3-5 1.1c-.1-.2-.4-1.8-.4-2.1.3-.1 5.2-1.1 5.2-1.1l-.3-1.3-6.7 1.4zm6.6-8.8s2.7-.6 3-.6c.1.3 1.5 7.1 1.5 7.1l1.5-.3s-1.4-6.8-1.5-7.1c.3-.1 3-.6 3-.6l-.3-1.3-7.4 1.6zm12.8 4.6 1.5-.3s.6-6.2.7-6.9c.4.6 3.5 6 3.5 6l1.5-.3 1-9-1.5.3s-.5 6-.6 6.7c-.4-.6-3.4-5.9-3.4-5.9l-1.6.3s-.6 6-.7 6.7c-.4-.7-3.3-5.9-3.3-5.9l-1.6.3zm13.1-11.7c-1.4.3-2.5 1-3.1 2-.6.9-.8 2.2-.5 3.4.3 1.3.9 2.3 1.9 2.9 1 .7 2.2.8 3.6.5 3.4-.7 4-3.3 3.6-5.4-.4-2-2.1-4.2-5.5-3.4m-.9 7.1c-.6-.4-1.1-1.1-1.3-2s-.1-1.7.3-2.4 1.2-1.1 2.1-1.3c1.9-.4 3.3.5 3.7 2.4s-.5 3.3-2.4 3.7c-.8.1-1.7 0-2.4-.4m8.9.2 1.5-.3s-.7-3.2-.7-3.4l2.9-.6c.8-.2 1.4 0 1.8 1.5l.1.3c.2.8.3 1.1.6 1.3h.1l1.6-.3-.3-.2c-.3-.2-.4-.6-.8-2-.2-.9-.7-1.4-1.3-1.5.6-.5.9-1.3.7-2.2-.2-1.1-1.1-2.2-2.8-1.8l-5 1.1zm0-7.4c.3-.1 3.2-.7 3.2-.7.8-.2 1.3.1 1.5.9.1.4.1 1.2-1.1 1.4 0 0-2.9.6-3.1.7-.1-.3-.5-2.1-.5-2.3m9.5 5.4 1.5-.3s-.6-2.6-.6-2.7c.1-.1.9-1.2 1-1.4.2.2 4 3.2 4 3.2l2-.4s-4.9-3.8-5.1-4c.2-.2 3.2-4.4 3.2-4.4l-2.1.4s-3.1 4.3-3.4 4.8l-.8-3.9-1.5.3zm7.7-8c.4 1.9 2.3 1.8 3 1.7l1.9-.1c1 0 1.5.2 1.6.8.1.3 0 .5-.1.8-.3.4-.8.7-1.6.9-.9.2-2.4.3-2.8-1.2v-.1l-1.5.3v.1c.2.8.6 1.5 1.2 1.9 1 .7 2.3.6 3.2.4.7-.2 2-.6 2.7-1.6.4-.6.5-1.2.3-2-.4-1.8-2.3-1.7-3-1.7l-2 .1c-1.1 0-1.3-.4-1.4-.7s0-.5.1-.8c.2-.4.7-.7 1.3-.8 1.8-.4 2.3.3 2.5.9v.1l1.4-.3v-.2c-.5-1.7-1.9-2.4-4.1-1.9-1.9.5-3 1.8-2.7 3.4m-144.9-8.1c-1.7-1.2-4.2-1.6-6.8-1-2.8.6-4.7 1.8-6.1 4.6l-.3-1.6c-.8-.7-1.8-1-2.8-.8s-1.8.9-2.2 1.8l7.6 35.7 5.2-1.1-2.8-13.3c2.4 1.9 4.6 2.2 7.4 1.6 2.6-.5 4.6-1.9 5.7-3.7 2-3.2 1.4-7.8.5-11.8-1-3.9-2.3-8.3-5.4-10.4m-3.4 21.5c-4.7 1-6.2-3-7.2-7.6-1-4.7-1.1-8.9 3.5-9.9 4.7-1 6.2 2.9 7.2 7.6 1 4.6 1.2 8.9-3.5 9.9m30.3-1.9-.5-2.4c-1.5 2.3-3.1 3.5-6.3 4.2s-5.5.4-7.4-.9c-1.6-1.1-2.8-3-3.2-5.2-.9-4.4 1.4-8.2 7.3-9.5l6.8-1.4-.4-1.9c-.7-3.3-2.7-4.6-6.7-3.7-2.8.6-4.1 1.6-5.1 3.7l-4.1-2.5c1.8-3.4 4.2-4.8 8.4-5.7 7-1.5 11.2.8 12.5 6.8l3.7 17.6zm-2.5-11.6-6 1.3c-3 .6-4.3 2.4-3.8 4.8s2.3 3.4 5.5 2.7c2-.4 3.4-.9 4.5-2.5.6-.9.7-2.3.3-4.1zm19.7 3.3c-2.1.4-3-.4-3.4-2.5l-6.2-29.4c-.8-.7-1.8-1-2.9-.8s-1.9.9-2.3 1.9l6.3 29.7c.8 3.9 3.7 6.8 8.6 5.8l3.2-.7-1-4.5zm22.8-3.1c-1.3 2.1-3.5 4-7 4.7s-6.3-.1-8.3-1.5c-3-2.1-4.3-5.3-5.2-9.7s-1-7.9.8-11c1.3-2.1 3.5-4 7-4.7s6.3.1 8.4 1.5c3 2.1 4.3 5.3 5.2 9.7s1 7.9-.9 11m-7.6-16.8c-1.2-.8-2.6-1-4.1-.7s-2.7 1.1-3.4 2.3c-1.2 1.9-.8 4.7-.2 7.6s1.4 5.6 3.3 6.8c1.2.8 2.6 1.1 4.1.8s2.7-1.2 3.5-2.4c1.2-1.9.8-4.7.2-7.6-.7-2.8-1.5-5.5-3.4-6.8m48 6.4c-2.1.4-3-.4-3.4-2.5l-6.3-29.3c-.8-.7-1.8-1-2.9-.8s-1.9.9-2.3 1.9l6.3 29.7c.8 3.9 3.7 6.8 8.6 5.8l3.2-.7-1-4.5zm-17.9 8.5-.5-2.4c-1.5 2.3-3.1 3.5-6.3 4.2s-5.5.4-7.4-.9c-1.6-1.1-2.8-3-3.2-5.2-.9-4.4 1.4-8.2 7.2-9.5l6.8-1.4-.4-1.9c-.7-3.3-2.7-4.6-6.7-3.7-2.8.6-4.1 1.6-5.1 3.7l-4.1-2.5c1.8-3.4 4.2-4.8 8.4-5.7 7-1.5 11.2.8 12.5 6.8l3.7 17.6zm-2.5-11.6-6 1.3c-3 .6-4.3 2.4-3.8 4.8s2.3 3.4 5.5 2.7c2-.4 3.4-.9 4.5-2.5.6-.9.7-2.3.3-4.1zm33.3-17.7-.9-4-5 1.1-1.7-8c-.8-.7-1.8-1-2.9-.8s-1.9.9-2.3 1.9l1.7 8-2.9.6.9 4 2.9-.6 3.1 14.5c.8 3.8 3.8 6.8 8.6 5.8l3.1-.7-1-4.5-2.1.5c-1.9.4-3.1-.5-3.5-2.5l-3-14.2zm25.5 14.4c-1.3 2.1-3.5 4-7 4.7s-6.3-.1-8.3-1.5c-3-2.1-4.3-5.3-5.2-9.7s-1-7.9.8-11c1.3-2.1 3.5-4 7-4.7s6.3.1 8.4 1.5c3 2.1 4.3 5.3 5.2 9.7.9 4.5 1 7.9-.9 11m-7.6-16.7c-1.2-.8-2.6-1-4.1-.7s-2.7 1.1-3.4 2.3c-1.2 1.9-.8 4.7-.2 7.6s1.4 5.6 3.3 6.8c1.2.8 2.6 1.1 4.1.8s2.7-1.2 3.5-2.4c1.2-1.9.8-4.7.2-7.6-.7-2.8-1.5-5.5-3.4-6.8m19 33.6c-1.4.3-2.7-.6-3-2s.6-2.8 1.9-3.1c1.4-.3 2.7.6 3 2 .3 1.5-.5 2.9-1.9 3.1m-1-4.7c-1.2.2-1.9 1.4-1.6 2.6s1.4 2 2.5 1.7c1.2-.2 1.9-1.4 1.6-2.6-.2-1.1-1.4-1.9-2.5-1.7m1.3 3.5-.9-1-.4.1.2 1.1-.4.1-.6-2.8.9-.2c.5-.1.9.2 1 .7.1.4-.1.7-.4.9l.9 1zm-1-2.4-.5.1.2 1 .5-.1c.3-.1.5-.3.4-.6 0-.3-.3-.4-.6-.4m-187.1 14.3c0-1.2.8-2.4 2-2.7l-3.5-16.6c-.9-4.3-5.1-7-9.3-6.1l-33.8 7.2c-4.2.9-6.9 5.1-6 9.4l7.3 34.1c.9 4.3 5.1 7 9.3 6.1l33.8-7.2c4.2-.9 6.9-5.1 6-9.4l-2.3-10.8c-.3.3-.7.5-1.1.5-1.2.3-2.2-.6-2.2-1.8zm-39.1 12.8.1 2.8c0 1.2-.9 2.4-2.1 2.7s-2.2-.5-2.2-1.8l-.1-2.8c0-1.2.9-2.4 2-2.7 1.2-.3 2.2.5 2.3 1.8m7.2-1.6.4 9.9c0 1.2-.9 2.4-2 2.7-1.2.3-2.2-.5-2.2-1.8l-.4-9.9c0-1.2.9-2.4 2-2.7 1.2-.2 2.2.6 2.2 1.8m7.1-6 .7 19c.1 1.2-.9 2.4-2 2.7-1.2.3-2.2-.5-2.2-1.8l-.7-19c0-1.2.9-2.4 2-2.7 1.2-.3 2.2.5 2.2 1.8m6.9-10.6 1 25.6c0 1.2-.9 2.4-2.1 2.7s-2.2-.5-2.2-1.8l-1-25.6c0-1.2.9-2.4 2-2.7 1.3-.3 2.3.5 2.3 1.8m7.2-4 .7 19c0 1.2-.9 2.4-2 2.7s-2.2-.6-2.2-1.8l-.7-19c0-1.2.9-2.4 2.1-2.7 1.1-.2 2.1.6 2.1 1.8m7.4 3 .4 9.9c0 1.2-.9 2.4-2 2.7-1.2.3-2.2-.5-2.2-1.8l-.4-9.9c0-1.2.9-2.4 2.1-2.7 1.1-.2 2.1.6 2.1 1.8" fill="#fff"/></svg>