<svg version="1.2" baseProfile="tiny" xmlns="http://www.w3.org/2000/svg" viewBox="0 0 295 158"><path fill="#356D87" d="M294.3 99.9L21.1 158 0 58.9 273.2.8l21.1 99.1"/><path fill="#FFF" d="M190 104.8l1.5-.3s-1.2-5.5-1.3-6.2c.5.4 6.2 5.2 6.2 5.2l1.6-.3-1.8-8.4-1.5.3s1.2 5.5 1.3 6.2c-.5-.4-6.2-5.2-6.2-5.2l-1.6.3 1.8 8.4M199.9 102.7l6.8-1.4-.3-1.3s-5 1.1-5.3 1.1l-.5-2.3 5-1.1-.3-1.3-5 1.1c-.1-.2-.4-1.8-.4-2.1.3-.1 5.2-1.1 5.2-1.1l-.3-1.3-6.7 1.4 1.8 8.3M206.5 93.9s2.7-.6 3-.6c.1.3 1.5 7.1 1.5 7.1l1.5-.3s-1.4-6.8-1.5-7.1c.3-.1 3-.6 3-.6l-.3-1.3-7.4 1.6.2 1.2M219.3 98.5l1.5-.3s.6-6.2.7-6.9c.4.6 3.5 6 3.5 6l1.5-.3 1-9-1.5.3s-.5 6-.6 6.7c-.4-.6-3.4-5.9-3.4-5.9l-1.6.3s-.6 6-.7 6.7c-.4-.7-3.3-5.9-3.3-5.9l-1.6.3 4.5 8M232.4 86.8c-1.4.3-2.5 1-3.1 2-.6.9-.8 2.2-.5 3.4.3 1.3.9 2.3 1.9 2.9 1 .7 2.2.8 3.6.5 3.4-.7 4-3.3 3.6-5.4-.4-2-2.1-4.2-5.5-3.4m-.9 7.1c-.6-.4-1.1-1.1-1.3-2-.2-.9-.1-1.7.3-2.4s1.2-1.1 2.1-1.3c1.9-.4 3.3.5 3.7 2.4.4 1.9-.5 3.3-2.4 3.7-.8.1-1.7 0-2.4-.4M240.4 94.1l1.5-.3s-.7-3.2-.7-3.4l2.9-.6c.8-.2 1.4 0 1.8 1.5l.1.3c.2.8.3 1.1.6 1.3h.1l1.6-.3-.3-.2c-.3-.2-.4-.6-.8-2-.2-.9-.7-1.4-1.3-1.5.6-.5.9-1.3.7-2.2-.2-1.1-1.1-2.2-2.8-1.8l-5 1.1 1.6 8.1m0-7.4c.3-.1 3.2-.7 3.2-.7.8-.2 1.3.1 1.5.9.1.4.1 1.2-1.1 1.4 0 0-2.9.6-3.1.7-.1-.3-.5-2.1-.5-2.3M249.9 92.1l1.5-.3s-.6-2.6-.6-2.7c.1-.1.9-1.2 1-1.4.2.2 4 3.2 4 3.2l2-.4s-4.9-3.8-5.1-4c.2-.2 3.2-4.4 3.2-4.4l-2.1.4s-3.1 4.3-3.4 4.8l-.8-3.9-1.5.3 1.8 8.4M257.6 84.1c.4 1.9 2.3 1.8 3 1.7l1.9-.1c1 0 1.5.2 1.6.8.1.3 0 .5-.1.8-.3.4-.8.7-1.6.9-.9.2-2.4.3-2.8-1.2v-.1l-1.5.3v.1c.2.8.6 1.5 1.2 1.9 1 .7 2.3.6 3.2.4.7-.2 2-.6 2.7-1.6.4-.6.5-1.2.3-2-.4-1.8-2.3-1.7-3-1.7l-2 .1c-1.1 0-1.3-.4-1.4-.7-.1-.3 0-.5.1-.8.2-.4.7-.7 1.3-.8 1.8-.4 2.3.3 2.5.9v.1l1.4-.3v-.2c-.5-1.7-1.9-2.4-4.1-1.9-1.9.5-3 1.8-2.7 3.4M112.7 76c-1.7-1.2-4.2-1.6-6.8-1-2.8.6-4.7 1.8-6.1 4.6l-.3-1.6c-.8-.7-1.8-1-2.8-.8-1 .2-1.8.9-2.2 1.8l7.6 35.7 5.2-1.1-2.8-13.3c2.4 1.9 4.6 2.2 7.4 1.6 2.6-.5 4.6-1.9 5.7-3.7 2-3.2 1.4-7.8.5-11.8-1-3.9-2.3-8.3-5.4-10.4m-3.4 21.5c-4.7 1-6.2-3-7.2-7.6-1-4.7-1.1-8.9 3.5-9.9 4.7-1 6.2 2.9 7.2 7.6 1 4.6 1.2 8.9-3.5 9.9M139.6 95.6l-.5-2.4c-1.5 2.3-3.1 3.5-6.3 4.2-3.2.7-5.5.4-7.4-.9-1.6-1.1-2.8-3-3.2-5.2-.9-4.4 1.4-8.2 7.3-9.5l6.8-1.4-.4-1.9c-.7-3.3-2.7-4.6-6.7-3.7-2.8.6-4.1 1.6-5.1 3.7L120 76c1.8-3.4 4.2-4.8 8.4-5.7 7-1.5 11.2.8 12.5 6.8l3.7 17.6-5 .9M137.1 84l-6 1.3c-3 .6-4.3 2.4-3.8 4.8s2.3 3.4 5.5 2.7c2-.4 3.4-.9 4.5-2.5.6-.9.7-2.3.3-4.1l-.5-2.2zM156.8 87.3c-2.1.4-3-.4-3.4-2.5l-6.2-29.4c-.8-.7-1.8-1-2.9-.8-1.1.2-1.9.9-2.3 1.9l6.3 29.7c.8 3.9 3.7 6.8 8.6 5.8l3.2-.7-1-4.5-2.3.5M179.6 84.2c-1.3 2.1-3.5 4-7 4.7-3.5.7-6.3-.1-8.3-1.5-3-2.1-4.3-5.3-5.2-9.7-.9-4.4-1-7.9.8-11 1.3-2.1 3.5-4 7-4.7 3.5-.7 6.3.1 8.4 1.5 3 2.1 4.3 5.3 5.2 9.7.9 4.4 1 7.9-.9 11M172 67.4c-1.2-.8-2.6-1-4.1-.7-1.5.3-2.7 1.1-3.4 2.3-1.2 1.9-.8 4.7-.2 7.6.6 2.9 1.4 5.6 3.3 6.8 1.2.8 2.6 1.1 4.1.8 1.5-.3 2.7-1.2 3.5-2.4 1.2-1.9.8-4.7.2-7.6-.7-2.8-1.5-5.5-3.4-6.8M220 73.8c-2.1.4-3-.4-3.4-2.5L210.3 42c-.8-.7-1.8-1-2.9-.8-1.1.2-1.9.9-2.3 1.9l6.3 29.7c.8 3.9 3.7 6.8 8.6 5.8l3.2-.7-1-4.5-2.2.4M202.1 82.3l-.5-2.4c-1.5 2.3-3.1 3.5-6.3 4.2-3.2.7-5.5.4-7.4-.9-1.6-1.1-2.8-3-3.2-5.2-.9-4.4 1.4-8.2 7.2-9.5l6.8-1.4-.4-1.9c-.7-3.3-2.7-4.6-6.7-3.7-2.8.6-4.1 1.6-5.1 3.7l-4.1-2.5c1.8-3.4 4.2-4.8 8.4-5.7 7-1.5 11.2.8 12.5 6.8l3.7 17.6-4.9.9m-2.5-11.6l-6 1.3c-3 .6-4.3 2.4-3.8 4.8s2.3 3.4 5.5 2.7c2-.4 3.4-.9 4.5-2.5.6-.9.7-2.3.3-4.1l-.5-2.2zM232.9 53l-.9-4-5 1.1-1.7-8c-.8-.7-1.8-1-2.9-.8-1.1.2-1.9.9-2.3 1.9l1.7 8-2.9.6.9 4 2.9-.6 3.1 14.5c.8 3.8 3.8 6.8 8.6 5.8l3.1-.7-1-4.5-2.1.5c-1.9.4-3.1-.5-3.5-2.5l-3-14.2 5-1.1M258.4 67.4c-1.3 2.1-3.5 4-7 4.7-3.5.7-6.3-.1-8.3-1.5-3-2.1-4.3-5.3-5.2-9.7-.9-4.4-1-7.9.8-11 1.3-2.1 3.5-4 7-4.7 3.5-.7 6.3.1 8.4 1.5 3 2.1 4.3 5.3 5.2 9.7.9 4.5 1 7.9-.9 11m-7.6-16.7c-1.2-.8-2.6-1-4.1-.7-1.5.3-2.7 1.1-3.4 2.3-1.2 1.9-.8 4.7-.2 7.6.6 2.9 1.4 5.6 3.3 6.8 1.2.8 2.6 1.1 4.1.8 1.5-.3 2.7-1.2 3.5-2.4 1.2-1.9.8-4.7.2-7.6-.7-2.8-1.5-5.5-3.4-6.8M269.8 84.3c-1.4.3-2.7-.6-3-2-.3-1.4.6-2.8 1.9-3.1 1.4-.3 2.7.6 3 2 .3 1.5-.5 2.9-1.9 3.1m-1-4.7c-1.2.2-1.9 1.4-1.6 2.6.3 1.2 1.4 2 2.5 1.7 1.2-.2 1.9-1.4 1.6-2.6-.2-1.1-1.4-1.9-2.5-1.7m1.3 3.5l-.9-1-.4.1.2 1.1-.4.1-.6-2.8.9-.2c.5-.1.9.2 1 .7.1.4-.1.7-.4.9l.9 1-.3.1zm-1-2.4l-.5.1.2 1 .5-.1c.3-.1.5-.3.4-.6 0-.3-.3-.4-.6-.4M82 95c0-1.2.8-2.4 2-2.7l-3.5-16.6c-.9-4.3-5.1-7-9.3-6.1l-33.8 7.2c-4.2.9-6.9 5.1-6 9.4l7.3 34.1c.9 4.3 5.1 7 9.3 6.1l33.8-7.2c4.2-.9 6.9-5.1 6-9.4L85.5 99c-.3.3-.7.5-1.1.5-1.2.3-2.2-.6-2.2-1.8L82 95m-39.1 12.8l.1 2.8c0 1.2-.9 2.4-2.1 2.7-1.2.3-2.2-.5-2.2-1.8l-.1-2.8c0-1.2.9-2.4 2-2.7 1.2-.3 2.2.5 2.3 1.8m7.2-1.6l.4 9.9c0 1.2-.9 2.4-2 2.7-1.2.3-2.2-.5-2.2-1.8l-.4-9.9c0-1.2.9-2.4 2-2.7 1.2-.2 2.2.6 2.2 1.8m7.1-6l.7 19c.1 1.2-.9 2.4-2 2.7-1.2.3-2.2-.5-2.2-1.8l-.7-19c0-1.2.9-2.4 2-2.7 1.2-.3 2.2.5 2.2 1.8m6.9-10.6l1 25.6c0 1.2-.9 2.4-2.1 2.7-1.2.3-2.2-.5-2.2-1.8l-1-25.6c0-1.2.9-2.4 2-2.7 1.3-.3 2.3.5 2.3 1.8m7.2-4l.7 19c0 1.2-.9 2.4-2 2.7s-2.2-.6-2.2-1.8l-.7-19c0-1.2.9-2.4 2.1-2.7 1.1-.2 2.1.6 2.1 1.8m7.4 3l.4 9.9c0 1.2-.9 2.4-2 2.7-1.2.3-2.2-.5-2.2-1.8l-.4-9.9c0-1.2.9-2.4 2.1-2.7 1.1-.2 2.1.6 2.1 1.8"/></svg>