<svg version="1.1" id="Layer_1" xmlns="http://www.w3.org/2000/svg" x="0" y="0" viewBox="0 0 1355 247.76" xml:space="preserve"><style>.st0{fill:#f04e23}</style><path d="M575.68 45.45c-17.5 0-35.68 4.77-58.18 16.82L530 93.18c19.54-10.91 35.68-15.68 47.5-15.68 13.41 0 19.32 5 19.32 11.59v.45c0 4.55-3.64 7.05-12.5 7.96l-15.45 1.59c-38.64 4.09-54.55 20.91-54.55 44.09v1.59c0 22.05 18.18 39.32 43.86 39.32 16.91 0 31.6-7.14 40.53-19.74l2.88 17.47h35V102.5c0-37.5-21.59-57.05-60.91-57.05m-3.41 108.41c-12.95 0-19.09-5-19.09-12.73v-.45c0-6.82 3.86-11.82 17.95-13.86l6.14-.91c8.97-1.25 14.48-2.9 19.55-5.97V130c0 15.23-9.55 23.86-24.55 23.86"/><path class="st0" d="M246.59 46.36L201.82 1.59l-44.77 44.77 22.27 22.28L67.05 180.91l44.77 44.77 44.77-44.77-22.27-22.27z"/><path transform="rotate(-45.001 78.52 80.114)" class="st0" d="M-.87 48.45h158.78v63.32H-.87z"/><path transform="rotate(-45.001 235.117 147.163)" class="st0" d="M155.72 115.5H314.5v63.32H155.72z"/><path d="M659.32 0h39.77v181.82h-39.77zM447.5 45.45c-18.08 0-32.6 8-40.59 20.53l-3.04-18.26h-35v179.54h39.77v-62.23c7.57 11.67 21.89 19.05 38.86 19.05 31.82 0 57.73-28.18 57.73-67.05v-4.55c0-38.84-25.91-67.03-57.73-67.03m16.82 70.46c0 20.45-10.68 35.23-28.41 35.23s-28.41-14.77-28.41-35.23v-2.27c0-20.46 10.68-35.23 28.41-35.23s28.41 14.77 28.41 35.23v2.27zM1235.68 45.45c-40.68 0-69.32 28.18-69.32 67.05v4.55c0 38.86 28.64 67.05 69.32 67.05 40.68 0 69.32-28.18 69.32-67.05v-4.55c0-38.86-28.64-67.05-69.32-67.05m28.41 70.46c0 20.45-10.68 35.23-28.41 35.23s-28.41-14.77-28.41-35.23v-2.27c0-20.46 10.68-35.23 28.41-35.23s28.41 14.77 28.41 35.23v2.27zM1342.5 53.64v-.68c0-3.86-2.95-6.59-8.18-6.59h-9.09v20.91h4.32v-7.05h4.8l3.61 7.05h4.77l-4.44-8.27c2.7-.83 4.21-2.85 4.21-5.37m-12.96-3.41h4.77c2.73 0 3.86.91 3.86 2.96v.23c0 1.82-1.14 2.95-3.86 2.95h-4.77v-6.14z"/><path d="M1333.41 35.23c-12.27 0-21.59 9.32-21.59 21.59s9.32 21.59 21.59 21.59S1355 69.09 1355 56.82s-9.32-21.59-21.59-21.59m0 40.22c-10.68 0-18.41-7.73-18.41-18.64s7.73-18.64 18.41-18.64 18.41 7.73 18.41 18.64-7.73 18.64-18.41 18.64M1009.54 0h39.77v181.82h-39.77zM1127.73 151.14c-11.59 0-15.91-5.68-15.91-17.95V78.41h46.82V47.73h-46.82V17.04l-39.77 5.91v114.09c0 31.14 15.91 47.05 47.73 47.05 14.09 0 30.68-4.32 44.32-12.05l-11.36-28.18c-7.97 4.32-19.1 7.28-25.01 7.28M925.91 45.45c-17.5 0-35.68 4.77-58.18 16.82l12.5 30.91c19.54-10.91 35.68-15.68 47.5-15.68 13.41 0 19.32 5 19.32 11.59v.45c0 4.55-3.64 7.05-12.5 7.96l-15.45 1.59c-38.64 4.09-54.55 20.91-54.55 44.09v1.59c0 22.05 18.18 39.32 43.86 39.32 16.9 0 31.6-7.14 40.53-19.74l2.88 17.47h35V102.5c0-37.5-21.59-57.05-60.91-57.05m-3.41 108.41c-12.96 0-19.09-5-19.09-12.73v-.45c0-6.82 3.86-11.82 17.95-13.86l6.14-.91c8.97-1.25 14.48-2.9 19.54-5.97V130c0 15.23-9.54 23.86-24.54 23.86M786.14 45.45c-40.68 0-69.32 28.18-69.32 67.05v4.55c0 38.86 28.64 67.05 69.32 67.05 40.68 0 69.32-28.18 69.32-67.05v-4.55c-.01-38.86-28.64-67.05-69.32-67.05m28.4 70.46c0 20.45-10.68 35.23-28.41 35.23s-28.41-14.77-28.41-35.23v-2.27c0-20.46 10.68-35.23 28.41-35.23s28.41 14.77 28.41 35.23v2.27zM948.93 214.06h10.19l14.07 18.55h.14v-18.55h9.35v32.71h-9.86l-14.4-19.02h-.14v19.02h-9.35zM995.11 214.06h28.6l.38 7.94h-19.21v4.49h15.09v7.24h-15.09v5.1h19.77l-.38 7.94h-29.16zM1044.56 222.47h-11.45l.37-8.41h32.01l.38 8.41h-11.45v24.3h-9.86zM1073.77 214.06h10.46l5.33 22.71h.52l6.91-22.71h9.59l6.77 22.71h.52l5.23-22.71h10l-8.6 32.71h-12.85l-5.98-19.72h-.28l-6.08 19.72h-12.9zM1136.3 230.42c0-10.66 7.24-17.34 18.69-17.34 11.45 0 18.7 6.68 18.7 17.34s-7.24 17.34-18.7 17.34c-11.45 0-18.69-6.69-18.69-17.34m27.62 0c0-5.65-3.27-9.02-8.93-9.02s-8.93 3.37-8.93 9.02c0 5.66 3.27 9.02 8.88 9.02 5.66 0 8.98-3.37 8.98-9.02M1184.3 214.06h19.07c8.69 0 12.95 4.11 12.95 11.73 0 5.23-2.15 8.79-6.36 10.47l7.76 10.52h-11.12l-6.03-8.6h-6.45v8.6h-9.82v-32.72zm17.8 16.45c3.27 0 4.44-1.82 4.44-4.3s-1.17-4.25-4.44-4.25h-7.99v8.55h7.99zM1229.07 214.06h9.81v12.06h4.02l9.58-12.06h11.03l.05.04-12.52 15.66 13.22 16.97-.05.04h-11.45l-9.9-12.57h-3.98v12.57h-9.81zM1271.78 244.62v-8.97h.05c5.47 2.76 10.8 4.11 15.42 4.11 3.51 0 5.28-.84 5.28-2.48 0-1.64-1.17-2.06-8.18-3.18-7.66-1.21-12.76-3.51-12.76-10.1 0-6.12 5.38-10.84 15.89-10.84 4.21 0 8.6.89 12.67 2.62v8.88l-.05.05c-3.88-2.24-9.11-3.65-13.32-3.65-3.74 0-5.23.89-5.23 2.38 0 1.92 2.29 2.1 8.04 3.09 7.66 1.31 12.76 3.46 12.76 10.38 0 5.37-4.02 10.75-15.56 10.75-5.7 0-10.24-1.17-15.01-3.04"/></svg>
