<svg xmlns="http://www.w3.org/2000/svg" xml:space="preserve" viewBox="0 0 1355 247.8"><path d="M575.7 45.5c-17.5 0-35.7 4.7-58.2 16.8L530 93.2c19.5-11 35.7-15.7 47.5-15.7 13.4 0 19.3 5 19.3 11.6v.4c0 4.6-3.6 7-12.5 8L569 99.1c-38.7 4-54.6 20.9-54.6 44v1.7c0 22 18.2 39.3 43.9 39.3 16.9 0 31.6-7.1 40.5-19.7l2.9 17.4h35v-79.3c0-37.5-21.6-57-61-57m-3.3 108.4c-13 0-19.1-5-19.1-12.8v-.4c0-6.8 3.8-11.8 18-13.9l6-.9c9-1.2 14.6-2.9 19.6-6V130c0 15.2-9.5 23.9-24.5 23.9"/><path fill="#f04e23" d="M246.6 46.4 201.8 1.6 157 46.4l22.3 22.2L67 181l44.8 44.8 44.8-44.8-22.3-22.3zM0 113.9 112.3 1.6 157 46.4 44.8 158.6zM156.6 181 268.9 68.5l44.7 44.8-112.2 112.3z" class="st0"/><path d="M659.3 0h39.8v181.8h-39.8zM447.5 45.5c-18 0-32.6 8-40.6 20.5l-3-18.3h-35v179.6h39.7V165a45 45 0 0 0 38.9 19c31.8 0 57.7-28.1 57.7-67v-4.5c0-38.9-25.9-67-57.7-67m16.8 70.4c0 20.5-10.7 35.2-28.4 35.2s-28.4-14.7-28.4-35.2v-2.3c0-20.4 10.7-35.2 28.4-35.2s28.4 14.8 28.4 35.2zm771.4-70.4c-40.7 0-69.3 28.1-69.3 67v4.6c0 38.8 28.6 67 69.3 67s69.3-28.2 69.3-67v-4.6c0-38.9-28.6-67-69.3-67m28.4 70.4c0 20.5-10.7 35.2-28.4 35.2s-28.4-14.7-28.4-35.2v-2.3c0-20.4 10.7-35.2 28.4-35.2s28.4 14.8 28.4 35.2zm78.4-62.3V53c0-3.9-3-6.6-8.2-6.6h-9v20.9h4.3v-7h4.8l3.6 7h4.7l-4.4-8.3q4.1-1.3 4.2-5.4m-13-3.4h4.8q4 0 3.9 3v.2q0 2.8-3.9 3h-4.8z"/><path d="M1333.4 35.2c-12.3 0-21.6 9.3-21.6 21.6s9.3 21.6 21.6 21.6 21.6-9.3 21.6-21.6-9.3-21.6-21.6-21.6m0 40.3c-10.7 0-18.4-7.8-18.4-18.7s7.7-18.6 18.4-18.6 18.4 7.7 18.4 18.6-7.7 18.7-18.4 18.7M1009.5 0h39.8v181.8h-39.8zm118.2 151.1c-11.6 0-15.9-5.6-15.9-18V78.5h46.8V47.7h-46.8V17l-39.8 6v114q0 46.9 47.8 47c14 0 30.7-4.2 44.3-12l-11.4-28.1c-8 4.3-19 7.2-25 7.2M926 45.5c-17.5 0-35.7 4.7-58.2 16.8l12.5 30.9c19.6-11 35.7-15.7 47.5-15.7 13.4 0 19.3 5 19.3 11.6v.4c0 4.6-3.6 7-12.4 8L919 99.1c-38.6 4-54.5 20.9-54.5 44v1.7c0 22 18.1 39.3 43.8 39.3 17 0 31.6-7.1 40.5-19.7l3 17.4h35v-79.3c0-37.5-21.7-57-61-57m-3.4 108.4c-13 0-19-5-19-12.8v-.4c0-6.8 3.8-11.8 17.9-13.9l6.1-.9c9-1.2 14.5-2.9 19.5-6V130c0 15.2-9.5 23.9-24.5 23.9M786.1 45.5c-40.6 0-69.3 28.1-69.3 67v4.6c0 38.8 28.7 67 69.3 67 40.7 0 69.4-28.2 69.4-67v-4.6c0-38.9-28.7-67-69.4-67m28.4 70.4c0 20.5-10.6 35.2-28.4 35.2s-28.4-14.7-28.4-35.2v-2.3c0-20.4 10.7-35.2 28.4-35.2s28.4 14.8 28.4 35.2zM949 214.1h10.2l14 18.5h.2v-18.5h9.4v32.7h-9.9l-14.4-19h-.1v19H949zm46.2 0h28.6l.4 7.9H1005v4.5h15v7.2h-15v5.1h19.8l-.4 8H995zm49.5 8.4H1033l.4-8.4h32l.4 8.4h-11.5v24.3h-9.8zm29.2-8.4h10.4l5.4 22.7h.5l6.9-22.7h9.6l6.8 22.7h.5l5.2-22.7h10l-8.6 32.7h-12.8l-6-19.7h-.3l-6 19.7h-13zm62.5 16.3c0-10.6 7.2-17.3 18.7-17.3s18.7 6.7 18.7 17.3-7.2 17.4-18.7 17.4-18.7-6.7-18.7-17.4m27.6 0c0-5.6-3.3-9-9-9s-8.8 3.4-8.8 9c0 5.7 3.2 9 8.8 9s9-3.3 9-9m20.4-16.3h19q13.1 0 13 11.7 0 7.9-6.3 10.5l7.7 10.5h-11.1l-6-8.6h-6.5v8.6h-9.8zm17.8 16.4c3.3 0 4.4-1.8 4.4-4.3s-1.1-4.2-4.4-4.2h-8v8.5zm27-16.4h9.8v12h4l9.6-12h11l-12.5 15.7 13.3 17h-11.5l-10-12.6h-4v12.6h-9.7zm42.7 30.5v-9a35 35 0 0 0 15.4 4.2q5.3 0 5.3-2.5c0-1.7-1.1-2-8.2-3.2-7.6-1.2-12.7-3.5-12.7-10.1 0-6.1 5.4-10.8 15.9-10.8q6.4 0 12.7 2.6v8.9h-.1a29 29 0 0 0-13.3-3.6c-3.8 0-5.2.9-5.2 2.3 0 2 2.2 2.1 8 3.1 7.7 1.3 12.8 3.5 12.8 10.4 0 5.4-4 10.8-15.6 10.8-5.7 0-10.2-1.2-15-3"/></svg>