<svg xmlns="http://www.w3.org/2000/svg" xml:space="preserve" viewBox="0 0 456.3 105.5"><path fill="#bc0d14" d="M423.8 51.4h-27.4c-2.3 0-4.3-1.9-4.3-4 0-2.5 1.6-4.4 4-4.4h45.4V23.4h-47.3c-13.8 0-25 8.6-25 23.3 0 15.2 11.1 24.3 25 24.3H425c3.7 0 6 1.9 6 5.2 0 3.7-2.3 5.5-6 5.5h-56.3l19.7 19.6h35.4c14.3 0 28.4-6.8 28.4-26.3 0-16.3-12.6-23.6-28.4-23.6" class="st0"/><path fill="#bc0d14" d="m338.7 59.5 36-36h-35.3L309.8 53V23.3h-26v65.5l12 12 .5.6h13.5v-35l35 34.9h35.4c-20.3-20.3-27-27.4-41.5-41.8M107.2 35.9c0-17.5-12.2-31.8-33.4-31.8H4.1v97.4h29.8v-73h35.5c5.4.3 9.7 4.8 9.7 10.3S74.5 49 69 49H34q9.9 10 18.3 18.8h23a32 32 0 0 0 32-31.9" class="st0"/><path fill="#bc0d14" d="M274.3 49c0-14-11.1-25.4-25.1-25.5h-62.6v78h26.1v-42q8 7.8 14.7 15c10.8 11.2 19.3 20.7 25.6 27h34.7l-27.4-29.8c8.3-4.2 14-12.8 14-22.7m-32.6 10.4h-29V43.2H240l2.2.1a8.1 8.1 0 0 1-.4 16.2m-177.4 42h37.2l52.6-52.2v52.3h26v-78h-37.6z" class="st0"/></svg>