<svg xmlns="http://www.w3.org/2000/svg" xml:space="preserve" id="Camada_1" x="0" y="0" version="1.1" viewBox="0 0 456.27 105.54"><style>.st0{fill-rule:evenodd;clip-rule:evenodd;fill:#bc0d14}</style><path d="M423.75 51.44H396.4c-2.34 0-4.3-1.91-4.3-4.03 0-2.47 1.65-4.41 4.05-4.41H425l16.49.01.03-19.65H394.2c-13.84 0-25.06 8.62-25.06 23.31 0 15.23 11.2 24.36 25.06 24.36h30.78c3.68 0 6.05 1.87 6.05 5.19 0 3.72-2.37 5.47-6.05 5.47h-56.32l19.78 19.65h35.31c14.38 0 28.45-6.86 28.45-26.33 0-16.34-12.61-23.57-28.45-23.57" class="st0"/><path d="M338.67 59.45c11.67-11.64 22.27-22.25 36.05-36.02h-35.33c-3.99 3.99-21.24 21.2-29.62 29.55V23.34l-26.02.02v65.43c4.11 4.11 8.16 8.16 12.1 12.09.16.17.32.31.48.48h13.44V66.31c10.11 10.07 30.02 29.93 35.06 34.96h35.33c-20.26-20.24-26.96-27.33-41.49-41.82M107.21 35.92c0-17.52-12.21-31.85-33.4-31.85H4.06v97.41h29.86V28.56H69c.13 0 .24.01.35.03 5.48.18 9.76 4.67 9.76 10.19 0 5.64-4.57 10.21-10.21 10.21H33.92c6.6 6.57 12.7 12.87 18.31 18.76h23c17.58 0 31.98-14.26 31.98-31.83" class="st0"/><path d="M274.28 48.98c0-14.03-11.08-25.41-25.08-25.49-.04 0-.07-.01-.11-.01l-61.74.01h-.72v77.99h26.11V59.47c5.28 5.26 10.15 10.27 14.65 14.99h.02c10.76 11.29 19.28 20.74 25.57 27h34.77c-27.58-29.78-1.51-1.51-27.43-29.73 8.27-4.22 13.96-12.82 13.96-22.75M241.7 59.39c-.55.04-1.1.06-1.67.06h-27.3V43.08h27.18c.7 0 1.45.05 2.21.14 3.87.64 6.77 3.99 6.77 8.05.02 4.19-3.13 7.64-7.19 8.12M64.34 101.48h37.16c13.61-13.56 52.59-52.31 52.59-52.31l-.02 52.31h26.08V23.46h-37.63s-54.31 54.15-78.18 78.02" class="st0"/></svg>