<svg xmlns="http://www.w3.org/2000/svg" xml:space="preserve" viewBox="0 0 199.115 28.905"><path d="M138.965 427.453V325.574H6.945l.153 101.879h131.867M456.047 62.629V10.664L77.195 9.02v53.609h378.852M720.125 568.793c23.66 23.758 62.293 42.023 123.27 41.184h329.165c50.47-2.481 84.6-18.215 106.49-41.184H720.125M1810.84 62.629V8.762h-374.72v53.867h374.72M2645.43 427.453V325.574h-131.77v101.879h131.77M3382.13 427.453l-.23-101.879h-131.52l.15 101.879h131.6M3649.56 62.629V9.019h-329.18v53.61h329.18M3909.03 62.629 3909 9.53l-160.35.258v21.36l-21.15 31.48h181.53M3579.77 184.238c8.25-8.855 19.39-14.949 32.99-17.195l28.05-.516 8.75-12.355V82.363h-329.18v80.559h32.94c20.55.613 36.78 10.164 46.72 21.316h179.73M3909.1 184.238l-.06-101.875h-194.8l-68.44 101.875h263.3M3909.17 305.848l-.06-101.879h-276.57l-60.96 90.734h-8.24v-61.519c-.36-10.579 1.18-20.461 4.43-29.215h-157.15c.27 1.476.39 2.898.36 4.25v97.629h498.19M3909.24 427.453l-.06-101.879h-498.2v101.879h290.11l47.56-71.246 8.23.266v70.98h152.36M3946.06 471.77c-10.83-1.219-22.52-13.508-29.77-24.59h-164.78c-10.73 16.687-35.99 28.203-61.99 30.129l-274.16-1.172c-8.62 1.027-27.99-10.399-32.34-28.957h-132.47l.09 53.152c-.24 17.481 3.92 33.91 11.41 48.731h741.66v-77.032l-57.65-.261M2678.12 471.246c-12.06-.176-27.6-11.73-31.7-24.066h-132.76v65c-.09 12.574 3.13 25.086 9.02 36.883h668.91c18.43-27.95 26.22-60.477 26.23-90.426V447.18h-205.65c-7.02 18.078-23.23 25.539-57.89 24.066h-276.16M2674.4 325.574l.11 101.879h201.28l.11-101.879h-201.5M3016.05 325.574v101.879h201.77V325.574h-201.77M2875.92 305.848l.12-101.879h-201.77l.11 101.879h201.54M2700.88 82.36c-19.55 32.906-26.27 71.191-26.61 101.878h205.43c8.87-21.894 31.72-29.929 45.75-30.066h45.3c18.3 1.098 33.67 13.957 41 30.066h206.07v-5.359c.01-32.059-7.3-66.856-25.02-96.52h-491.92M2826.63 10.047c-52.91 3.672-88.46 24.652-111.82 52.582h463.95c-24.11-28.523-60.73-49.191-113.56-52.582h-238.57M3016.05 203.969v101.879h201.77V203.969h-201.77M2393.98 62.629V9.277h-374.73V62.63h374.73M1715.89 202.57l-186.12 1.399 1.06 6.57-.01 95.309h185.31l-.24-103.278M1530.82 325.574l.01 107.328h185.3V325.574h-185.31M1501.88 427.453l.12-101.879h-156.48v101.879h156.36M1743.06 447.18c-4.67 7.867-12.15 12.156-22.81 14.55h-193.54c-4.74.715-13.32-4.347-19.08-14.55h-162.11v47.5c.61 20.383 6.37 38.64 15.58 54.383h544.4l-.09-101.883h-162.35M1749.07 416.43c.02 4-.12 7.664-.44 11.023h156.77l-.1-101.879h-156.23v90.856M815.07 427.453c-.621-2.742-.879-5.129-.761-6.906l-.004-94.973H686.648v101.879H815.07M1120.68 447.18c-4.98 6.281-12.43 11.074-21.98 14.55H847.254c-9.934-.058-17.816-6.546-23.383-14.55H686.648v39.261c-.75 16.286 3.524 40.176 17.719 62.622h589.623c12.51-21.055 17.92-45.696 18.33-70.856l.03-31.027h-191.67M847.254 325.574v101.879H1003.5l.23-48.086c.28-5.105 4.05-8.246 12.36-8.234h98.82c10.37-.012 12.25 3.129 12.36 8.234v48.086h185.1l.09-101.879H847.254M1049.03 62.629V8.762H752.535v53.867h296.495M1004.81 184.238c5-20.05 31.24-33.461 44.22-31.351V82.363H752.535v70.524h32.942c20.125.144 43.203 12.066 54.617 31.351h164.716M1127.27 203.969v35.39c-.53 4.59-4.5 8.61-12.36 8.239h-100.22c-6.28.996-11.94-3.309-10.96-7.801l.18-35.828H846.883c.265 2.14.39 4.332.371 6.57v95.309h465.226l.09-101.879h-185.3M1407.29 62.629V8.762h-325.32l.1 53.867h325.22M1407.29 152.887V82.363H1082.1l.13 70.524c17.42.687 36.34 11.125 42.77 31.351h193.27c9.54-17.656 31.46-37.547 89.02-31.351M359.766 184.238c8.996-18.277 23.285-28.883 50.984-31.351h45.297V82.363H77.195v70.524h45.297c19.86 4.316 31.321 11.926 40.071 31.351h197.203M655.578 305.848c-18.441-59.41-74.625-89.672-141.883-91.196H357.219v-10.683h-189.43v101.879h487.789M460.164 428.816l201.606-1.363.168-72.531c.242-10.359-.391-20.141-1.825-29.348H167.789v101.879h185.313v-77.07c-.676-2.32 2.445-8.797 6.238-8.074h72c18.48 3.679 26.019 13.73 28.824 29.089v57.418M7.125 447.18l.066 43.379c2.872 22.879 9.36 42.336 18.82 58.504h618.145c13.352-23.934 19.778-53.727 17.535-87.333l.032-14.55H452.77c-4.954 6.965-12.172 12.488-21.43 14.812l-259.168-.262c-10.508-1.003-20.649-6.539-27.293-14.55H7.125M40.434 568.793c23.12 25.527 56.218 38.98 94.675 41.184h411.274c34.91-2.719 63.855-17.539 84.07-41.184H40.433M1436.12 82.363v70.524h32.94c27.47-1.567 45.55 15.023 55.29 31.351h198.26c9.74-16.328 27.82-32.918 55.29-31.351h32.94V82.363h-374.72M2019.26 82.363v70.524h32.94c27.47-1.567 45.55 15.023 55.29 31.351h198.26c9.74-16.328 27.82-32.918 55.29-31.351h32.94V82.363h-374.72M2298.86 202.57l-186.13 1.399 1.07 6.57-.01 95.309h185.31l-.24-103.278M2113.79 325.574l.01 107.328h185.3V325.574h-185.31M2084.84 427.453l.13-101.879h-156.48v101.879h156.35M2326.03 447.18c-4.66 7.867-12.15 12.156-22.82 14.55h-193.53c-4.74.715-13.32-4.347-19.08-14.55h-162.11v47.5c.61 20.383 6.38 38.64 15.58 54.383h544.4l-.09-101.883h-162.35M2332.04 416.43c.02 4-.12 7.664-.44 11.023h156.77l-.1-101.879h-156.23v90.856M1905.52 568.793h-532.27c23.12 25.527 56.22 38.98 94.68 41.184h437.59v-41.184M2535.4 568.793c23.12 25.527 56.22 38.98 94.68 41.184h461.14c34.91-2.719 63.86-17.539 84.07-41.184H2535.4M2488.53 568.793h-532.27c23.12 25.527 56.22 38.98 94.67 41.184h437.6v-41.184M4003.71 568.793h-729.02c23.12 25.527 56.21 38.98 94.67 41.184h634.35v-41.184" style="fill:#231f20;fill-opacity:1;fill-rule:nonzero;stroke:none" transform="matrix(.04805 0 0 -.04805 -.334 29.326)"/><path d="M4035.15 552.98c0-33.164 26.53-57.996 58.15-57.996 31.47 0 57.84 24.832 57.84 57.996 0 32.547-26.37 57.383-57.84 57.383-31.62 0-58.15-24.836-58.15-57.383zm10.49 0c0 27.61 20.67 48.899 47.66 48.899 26.69 0 47.36-21.289 47.36-48.899 0-28.226-20.67-49.511-47.36-49.511-26.99 0-47.66 21.285-47.66 49.511zm25.15-33.933h10.48v29h11.11l18.35-29h11.26l-19.28 29.769c10.03 1.082 17.74 6.168 17.74 18.356 0 12.957-7.56 19.281-23.6 19.281h-26.06zm10.48 58.922h13.89c7.09 0 14.8-1.387 14.8-10.332 0-10.645-8.48-11.11-17.74-11.11h-10.95v21.442" style="fill:#231f20;fill-opacity:1;fill-rule:evenodd;stroke:none" transform="matrix(.04805 0 0 -.04805 -.334 29.326)"/></svg>