<svg xmlns="http://www.w3.org/2000/svg" xml:space="preserve" viewBox="0 0 199.1 28.9"><path fill="#231f20" d="M6.3 8.8v4.9H0v-5zm15.3 17.6v2.5H3.4v-2.5zM34.3 2q1.6-1.8 5.9-2H56q3.5.3 5.1 2zm52.4 24.3V29h-18v-2.6zm40-17.5v4.9h-6.3v-5zm35.4 0v5h-6.4v-5zM175 26.4V29h-15.8v-2.6zm12.5 0V29h-7.7v-1l-1-1.6zm-15.8-5.8q.6.6 1.6.8h1.3l.4.6v3.5h-15.8v-3.9h1.6q1.6-.1 2.2-1zm15.8 0v4.9h-9.4l-3.3-5zm0-5.8v5h-13.3l-3-4.4h-.3v3l.2 1.3h-7.6v-4.9zm0-5.8v4.9h-24v-5h14l2.3 3.5h.4V8.8zm1.8-2.1q-.8.2-1.5 1.1H180q-.9-1.2-3-1.4h-13.1c-.4 0-1.4.5-1.6 1.4H156V5.3q0-1.3.5-2.4H192v3.7zm-61 0c-.5 0-1.3.6-1.5 1.2h-6.4v-3q0-1 .5-1.9H153a8 8 0 0 1 1.3 4.4v.5h-9.9q-.3-1.2-2.8-1.1zm-.1 7v-5h9.6v5zm16.4 0v-5h9.7v5zm-6.7 1v4.8h-9.7v-4.9zm-8.5 10.8a10 10 0 0 1-1.2-5h9.8a3 3 0 0 0 2.2 1.5h2.2q1.4-.2 2-1.4h9.9v.2q0 2.4-1.2 4.7zm6 3.4a7 7 0 0 1-5.3-2.5h22.3a8 8 0 0 1-5.5 2.5zm9-9.3v-4.9h9.8v5zm-29.9 6.7V29h-18v-2.6zm-32.6-6.7h-9l.1-.4v-4.6h9zm-9-6v-5h9v5zM71.5 9v4.9H64v-5zm11.6-.9q-.3-.4-1-.7H73q-.4 0-.9.7h-7.8V5.6q0-1.5.8-2.7h26.1v5zm.3 1.4V9h7.5v4.9h-7.5zM38.5 9v4.9h-6.1v-5zm14.7-.9-1-.7H40.4q-.8.1-1.1.7h-6.6V6q-.1-1.3.8-3h28.3q.9 1.5 1 3.3v1.5zM40.1 14V9h7.5v2.4q0 .3.6.4h4.7q.7 0 .6-.4V8.8h9v4.9zM50 26.3V29H35.8v-2.6zm-2.2-5.8c.3 1 1.5 1.6 2.2 1.5v3.4H35.8V22h1.6q1.6 0 2.6-1.5zm5.8-1v-1.7q0-.4-.6-.4h-4.8q-.5 0-.5.4v1.7h-7.5v-4.9h22.3v5zm13.5 6.7V29H51.7v-2.6zm0-4.3v3.4H51.7V22q1.4 0 2-1.5H63c.5.8 1.5 1.8 4.3 1.5M17 20.5q.4 1.3 2.4 1.5h2.2v3.4H3.4V22h2.2q1.4-.2 1.9-1.5zm14.2-5.9c-1 2.9-3.6 4.3-6.9 4.4h-7.5v.5h-9v-4.9zm-9.4-5.9h9.7v3.6l-.1 1.4H7.7v-5h9v3.8q-.1.3.2.4h3.5q1.2-.3 1.4-1.4zM0 7.8v-2q.2-1.6 1-2.9h29.6q1 1.8.9 4.2v.7h-10q-.5-.5-1.1-.7H7.9a2 2 0 0 0-1.3.7zM1.6 2a6 6 0 0 1 4.6-2h19.7q2.5.3 4 2zm67 23.4V22h1.7q1.9-.1 2.6-1.5h9.5c.5.8 1.4 1.6 2.7 1.5h1.6v3.4zm28 0V22h1.6q2-.1 2.6-1.5h9.6c.4.8 1.3 1.6 2.6 1.5h1.6v3.4zm13.4-5.8h-9l.1-.4v-4.6h9zm-9-6v-5h9v5zm-1.4-4.8v4.9h-7.5v-5zm11.6-.9q-.3-.4-1-.7H101q-.4 0-.9.7h-7.8V5.6q0-1.5.8-2.7h26.1v5zm.3 1.4v-.5h7.5v4.9h-7.5zM91.2 2H65.7a6 6 0 0 1 4.5-2h21zm30.3 0a6 6 0 0 1 4.5-2h22.2q2.5.3 4 2zm-2.3 0H93.7a6 6 0 0 1 4.5-2h21zM192 2h-35a6 6 0 0 1 4.6-2H192z"/><path fill="#231f20" fill-rule="evenodd" d="M193.6 2.8c0 1.5 1.2 2.7 2.7 2.7s2.8-1.2 2.8-2.7Q199 .2 196.3 0a3 3 0 0 0-2.7 2.8m.5 0a2.3 2.3 0 1 1 4.5 0q-.2 2.1-2.3 2.3c-1.2 0-2.2-1-2.2-2.3m1.2 1.6h.5V3h.5l.9 1.4h.5l-.9-1.4q.8 0 .9-1 0-.8-1.2-.9h-1.2zm.5-2.8h.6q.7-.1.7.5-.1.6-.8.5h-.5z"/></svg>