<?xml version="1.0" encoding="UTF-8" standalone="no"?>
<!-- Created with Inkscape (http://www.inkscape.org/) -->

<svg
   width="752.5545"
   height="109.24627"
   viewBox="0 0 199.11463 28.904761"
   version="1.1"
   id="svg1"
   xml:space="preserve"
   xmlns="http://www.w3.org/2000/svg"
   xmlns:svg="http://www.w3.org/2000/svg"><defs
     id="defs1" /><g
     id="layer1"
     transform="translate(-7.3343462,-6.8510451)"><g
       id="g1"
       transform="matrix(0.36034983,0,0,0.36034983,7.0006473,6.3878959)"><path
         id="path1"
         d="M 138.965,427.453 V 325.574 H 6.94531 L 7.09766,427.453 H 138.965"
         style="fill:#231f20;fill-opacity:1;fill-rule:nonzero;stroke:none"
         transform="matrix(0.13333333,0,0,-0.13333333,0,82.666667)" /><path
         id="path2"
         d="M 456.047,62.6289 V 10.6641 L 77.1953,9.01953 V 62.6289 H 456.047"
         style="fill:#231f20;fill-opacity:1;fill-rule:nonzero;stroke:none"
         transform="matrix(0.13333333,0,0,-0.13333333,0,82.666667)" /><path
         id="path3"
         d="m 720.125,568.793 c 23.66,23.758 62.293,42.023 123.27,41.184 h 329.165 c 50.47,-2.481 84.6,-18.215 106.49,-41.184 H 720.125"
         style="fill:#231f20;fill-opacity:1;fill-rule:nonzero;stroke:none"
         transform="matrix(0.13333333,0,0,-0.13333333,0,82.666667)" /><path
         id="path4"
         d="M 1810.84,62.6289 V 8.76172 H 1436.12 V 62.6289 h 374.72"
         style="fill:#231f20;fill-opacity:1;fill-rule:nonzero;stroke:none"
         transform="matrix(0.13333333,0,0,-0.13333333,0,82.666667)" /><path
         id="path5"
         d="M 2645.43,427.453 V 325.574 h -131.77 v 101.879 h 131.77"
         style="fill:#231f20;fill-opacity:1;fill-rule:nonzero;stroke:none"
         transform="matrix(0.13333333,0,0,-0.13333333,0,82.666667)" /><path
         id="path6"
         d="m 3382.13,427.453 -0.23,-101.879 h -131.52 l 0.15,101.879 h 131.6"
         style="fill:#231f20;fill-opacity:1;fill-rule:nonzero;stroke:none"
         transform="matrix(0.13333333,0,0,-0.13333333,0,82.666667)" /><path
         id="path7"
         d="M 3649.56,62.6289 V 9.01953 H 3320.38 V 62.6289 h 329.18"
         style="fill:#231f20;fill-opacity:1;fill-rule:nonzero;stroke:none"
         transform="matrix(0.13333333,0,0,-0.13333333,0,82.666667)" /><path
         id="path8"
         d="M 3909.03,62.6289 3909,9.53125 3748.65,9.78906 V 31.1484 l -21.15,31.4805 h 181.53"
         style="fill:#231f20;fill-opacity:1;fill-rule:nonzero;stroke:none"
         transform="matrix(0.13333333,0,0,-0.13333333,0,82.666667)" /><path
         id="path9"
         d="m 3579.77,184.238 c 8.25,-8.855 19.39,-14.949 32.99,-17.195 l 28.05,-0.516 8.75,-12.355 V 82.3633 h -329.18 v 80.5587 h 32.94 c 20.55,0.613 36.78,10.164 46.72,21.316 h 179.73"
         style="fill:#231f20;fill-opacity:1;fill-rule:nonzero;stroke:none"
         transform="matrix(0.13333333,0,0,-0.13333333,0,82.666667)" /><path
         id="path10"
         d="m 3909.1,184.238 -0.06,-101.8747 h -194.8 L 3645.8,184.238 h 263.3"
         style="fill:#231f20;fill-opacity:1;fill-rule:nonzero;stroke:none"
         transform="matrix(0.13333333,0,0,-0.13333333,0,82.666667)" /><path
         id="path11"
         d="m 3909.17,305.848 -0.06,-101.879 h -276.57 l -60.96,90.734 h -8.24 v -61.519 c -0.36,-10.579 1.18,-20.461 4.43,-29.215 h -157.15 c 0.27,1.476 0.39,2.898 0.36,4.25 v 97.629 h 498.19"
         style="fill:#231f20;fill-opacity:1;fill-rule:nonzero;stroke:none"
         transform="matrix(0.13333333,0,0,-0.13333333,0,82.666667)" /><path
         id="path12"
         d="m 3909.24,427.453 -0.06,-101.879 h -498.2 v 101.879 h 290.11 l 47.56,-71.246 8.23,0.266 v 70.98 h 152.36"
         style="fill:#231f20;fill-opacity:1;fill-rule:nonzero;stroke:none"
         transform="matrix(0.13333333,0,0,-0.13333333,0,82.666667)" /><path
         id="path13"
         d="m 3946.06,471.77 c -10.83,-1.219 -22.52,-13.508 -29.77,-24.59 h -164.78 c -10.73,16.687 -35.99,28.203 -61.99,30.129 l -274.16,-1.172 c -8.62,1.027 -27.99,-10.399 -32.34,-28.957 h -132.47 l 0.09,53.152 c -0.24,17.481 3.92,33.91 11.41,48.731 h 741.66 v -77.032 l -57.65,-0.261"
         style="fill:#231f20;fill-opacity:1;fill-rule:nonzero;stroke:none"
         transform="matrix(0.13333333,0,0,-0.13333333,0,82.666667)" /><path
         id="path14"
         d="m 2678.12,471.246 c -12.06,-0.176 -27.6,-11.73 -31.7,-24.066 h -132.76 v 65 c -0.09,12.574 3.13,25.086 9.02,36.883 h 668.91 c 18.43,-27.95 26.22,-60.477 26.23,-90.426 V 447.18 h -205.65 c -7.02,18.078 -23.23,25.539 -57.89,24.066 h -276.16"
         style="fill:#231f20;fill-opacity:1;fill-rule:nonzero;stroke:none"
         transform="matrix(0.13333333,0,0,-0.13333333,0,82.666667)" /><path
         id="path15"
         d="m 2674.4,325.574 0.11,101.879 h 201.28 l 0.11,-101.879 h -201.5"
         style="fill:#231f20;fill-opacity:1;fill-rule:nonzero;stroke:none"
         transform="matrix(0.13333333,0,0,-0.13333333,0,82.666667)" /><path
         id="path16"
         d="m 3016.05,325.574 v 101.879 h 201.77 V 325.574 h -201.77"
         style="fill:#231f20;fill-opacity:1;fill-rule:nonzero;stroke:none"
         transform="matrix(0.13333333,0,0,-0.13333333,0,82.666667)" /><path
         id="path17"
         d="m 2875.92,305.848 0.12,-101.879 h -201.77 l 0.11,101.879 h 201.54"
         style="fill:#231f20;fill-opacity:1;fill-rule:nonzero;stroke:none"
         transform="matrix(0.13333333,0,0,-0.13333333,0,82.666667)" /><path
         id="path18"
         d="m 2700.88,82.3594 c -19.55,32.9066 -26.27,71.1916 -26.61,101.8786 h 205.43 c 8.87,-21.894 31.72,-29.929 45.75,-30.066 h 45.3 c 18.3,1.098 33.67,13.957 41,30.066 h 206.07 v -5.359 c 0.01,-32.059 -7.3,-66.856 -25.02,-96.5196 h -491.92"
         style="fill:#231f20;fill-opacity:1;fill-rule:nonzero;stroke:none"
         transform="matrix(0.13333333,0,0,-0.13333333,0,82.666667)" /><path
         id="path19"
         d="m 2826.63,10.0469 c -52.91,3.6719 -88.46,24.6523 -111.82,52.582 h 463.95 C 3154.65,34.1055 3118.03,13.4375 3065.2,10.0469 h -238.57"
         style="fill:#231f20;fill-opacity:1;fill-rule:nonzero;stroke:none"
         transform="matrix(0.13333333,0,0,-0.13333333,0,82.666667)" /><path
         id="path20"
         d="m 3016.05,203.969 v 101.879 h 201.77 V 203.969 h -201.77"
         style="fill:#231f20;fill-opacity:1;fill-rule:nonzero;stroke:none"
         transform="matrix(0.13333333,0,0,-0.13333333,0,82.666667)" /><path
         id="path21"
         d="M 2393.98,62.6289 V 9.27734 H 2019.25 V 62.6289 h 374.73"
         style="fill:#231f20;fill-opacity:1;fill-rule:nonzero;stroke:none"
         transform="matrix(0.13333333,0,0,-0.13333333,0,82.666667)" /><path
         id="path22"
         d="m 1715.89,202.57 -186.12,1.399 1.06,6.57 -0.01,95.309 h 185.31 l -0.24,-103.278"
         style="fill:#231f20;fill-opacity:1;fill-rule:nonzero;stroke:none"
         transform="matrix(0.13333333,0,0,-0.13333333,0,82.666667)" /><path
         id="path23"
         d="m 1530.82,325.574 0.01,107.328 h 185.3 V 325.574 h -185.31"
         style="fill:#231f20;fill-opacity:1;fill-rule:nonzero;stroke:none"
         transform="matrix(0.13333333,0,0,-0.13333333,0,82.666667)" /><path
         id="path24"
         d="M 1501.88,427.453 1502,325.574 h -156.48 v 101.879 h 156.36"
         style="fill:#231f20;fill-opacity:1;fill-rule:nonzero;stroke:none"
         transform="matrix(0.13333333,0,0,-0.13333333,0,82.666667)" /><path
         id="path25"
         d="m 1743.06,447.18 c -4.67,7.867 -12.15,12.156 -22.81,14.55 h -193.54 c -4.74,0.715 -13.32,-4.347 -19.08,-14.55 h -162.11 v 47.5 c 0.61,20.383 6.37,38.64 15.58,54.383 h 544.4 l -0.09,-101.883 h -162.35"
         style="fill:#231f20;fill-opacity:1;fill-rule:nonzero;stroke:none"
         transform="matrix(0.13333333,0,0,-0.13333333,0,82.666667)" /><path
         id="path26"
         d="m 1749.07,416.43 c 0.02,4 -0.12,7.664 -0.44,11.023 h 156.77 l -0.1,-101.879 h -156.23 v 90.856"
         style="fill:#231f20;fill-opacity:1;fill-rule:nonzero;stroke:none"
         transform="matrix(0.13333333,0,0,-0.13333333,0,82.666667)" /><path
         id="path27"
         d="m 815.07,427.453 c -0.621,-2.742 -0.879,-5.129 -0.761,-6.906 l -0.004,-94.973 H 686.648 V 427.453 H 815.07"
         style="fill:#231f20;fill-opacity:1;fill-rule:nonzero;stroke:none"
         transform="matrix(0.13333333,0,0,-0.13333333,0,82.666667)" /><path
         id="path28"
         d="m 1120.68,447.18 c -4.98,6.281 -12.43,11.074 -21.98,14.55 H 847.254 c -9.934,-0.058 -17.816,-6.546 -23.383,-14.55 H 686.648 v 39.261 c -0.75,16.286 3.524,40.176 17.719,62.622 h 589.623 c 12.51,-21.055 17.92,-45.696 18.33,-70.856 l 0.03,-31.027 h -191.67"
         style="fill:#231f20;fill-opacity:1;fill-rule:nonzero;stroke:none"
         transform="matrix(0.13333333,0,0,-0.13333333,0,82.666667)" /><path
         id="path29"
         d="M 847.254,325.574 V 427.453 H 1003.5 l 0.23,-48.086 c 0.28,-5.105 4.05,-8.246 12.36,-8.234 h 98.82 c 10.37,-0.012 12.25,3.129 12.36,8.234 v 48.086 h 185.1 l 0.09,-101.879 H 847.254"
         style="fill:#231f20;fill-opacity:1;fill-rule:nonzero;stroke:none"
         transform="matrix(0.13333333,0,0,-0.13333333,0,82.666667)" /><path
         id="path30"
         d="M 1049.03,62.6289 V 8.76172 H 752.535 V 62.6289 h 296.495"
         style="fill:#231f20;fill-opacity:1;fill-rule:nonzero;stroke:none"
         transform="matrix(0.13333333,0,0,-0.13333333,0,82.666667)" /><path
         id="path31"
         d="m 1004.81,184.238 c 5,-20.05 31.24,-33.461 44.22,-31.351 V 82.3633 H 752.535 v 70.5237 h 32.942 c 20.125,0.144 43.203,12.066 54.617,31.351 h 164.716"
         style="fill:#231f20;fill-opacity:1;fill-rule:nonzero;stroke:none"
         transform="matrix(0.13333333,0,0,-0.13333333,0,82.666667)" /><path
         id="path32"
         d="m 1127.27,203.969 v 35.39 c -0.53,4.59 -4.5,8.61 -12.36,8.239 h -100.22 c -6.28,0.996 -11.94,-3.309 -10.96,-7.801 l 0.18,-35.828 H 846.883 c 0.265,2.14 0.39,4.332 0.371,6.57 v 95.309 h 465.226 l 0.09,-101.879 h -185.3"
         style="fill:#231f20;fill-opacity:1;fill-rule:nonzero;stroke:none"
         transform="matrix(0.13333333,0,0,-0.13333333,0,82.666667)" /><path
         id="path33"
         d="M 1407.29,62.6289 V 8.76172 h -325.32 l 0.1,53.86718 h 325.22"
         style="fill:#231f20;fill-opacity:1;fill-rule:nonzero;stroke:none"
         transform="matrix(0.13333333,0,0,-0.13333333,0,82.666667)" /><path
         id="path34"
         d="M 1407.29,152.887 V 82.3633 H 1082.1 l 0.13,70.5237 c 17.42,0.687 36.34,11.125 42.77,31.351 h 193.27 c 9.54,-17.656 31.46,-37.547 89.02,-31.351"
         style="fill:#231f20;fill-opacity:1;fill-rule:nonzero;stroke:none"
         transform="matrix(0.13333333,0,0,-0.13333333,0,82.666667)" /><path
         id="path35"
         d="m 359.766,184.238 c 8.996,-18.277 23.285,-28.883 50.984,-31.351 h 45.297 V 82.3633 H 77.1953 v 70.5237 h 45.2967 c 19.86,4.316 31.321,11.926 40.071,31.351 h 197.203"
         style="fill:#231f20;fill-opacity:1;fill-rule:nonzero;stroke:none"
         transform="matrix(0.13333333,0,0,-0.13333333,0,82.666667)" /><path
         id="path36"
         d="M 655.578,305.848 C 637.137,246.438 580.953,216.176 513.695,214.652 H 357.219 v -10.683 h -189.43 v 101.879 h 487.789"
         style="fill:#231f20;fill-opacity:1;fill-rule:nonzero;stroke:none"
         transform="matrix(0.13333333,0,0,-0.13333333,0,82.666667)" /><path
         id="path37"
         d="m 460.164,428.816 201.606,-1.363 0.168,-72.531 c 0.242,-10.359 -0.391,-20.141 -1.825,-29.348 H 167.789 v 101.879 h 185.313 v -77.07 c -0.676,-2.32 2.445,-8.797 6.238,-8.074 h 72 c 18.48,3.679 26.019,13.73 28.824,29.089 v 57.418"
         style="fill:#231f20;fill-opacity:1;fill-rule:nonzero;stroke:none"
         transform="matrix(0.13333333,0,0,-0.13333333,0,82.666667)" /><path
         id="path38"
         d="m 7.125,447.18 0.06641,43.379 c 2.87109,22.879 9.35939,42.336 18.82029,58.504 H 644.156 c 13.352,-23.934 19.778,-53.727 17.535,-87.333 l 0.032,-14.55 H 452.77 c -4.954,6.965 -12.172,12.488 -21.43,14.812 L 172.172,461.73 c -10.508,-1.003 -20.649,-6.539 -27.293,-14.55 H 7.125"
         style="fill:#231f20;fill-opacity:1;fill-rule:nonzero;stroke:none"
         transform="matrix(0.13333333,0,0,-0.13333333,0,82.666667)" /><path
         id="path39"
         d="m 40.4336,568.793 c 23.1211,25.527 56.2187,38.98 94.6754,41.184 h 411.274 c 34.91,-2.719 63.855,-17.539 84.07,-41.184 H 40.4336"
         style="fill:#231f20;fill-opacity:1;fill-rule:nonzero;stroke:none"
         transform="matrix(0.13333333,0,0,-0.13333333,0,82.666667)" /><path
         id="path40"
         d="m 1436.12,82.3633 v 70.5237 h 32.94 c 27.47,-1.567 45.55,15.023 55.29,31.351 h 198.26 c 9.74,-16.328 27.82,-32.918 55.29,-31.351 h 32.94 V 82.3633 h -374.72"
         style="fill:#231f20;fill-opacity:1;fill-rule:nonzero;stroke:none"
         transform="matrix(0.13333333,0,0,-0.13333333,0,82.666667)" /><path
         id="path41"
         d="m 2019.26,82.3633 v 70.5237 h 32.94 c 27.47,-1.567 45.55,15.023 55.29,31.351 h 198.26 c 9.74,-16.328 27.82,-32.918 55.29,-31.351 h 32.94 V 82.3633 h -374.72"
         style="fill:#231f20;fill-opacity:1;fill-rule:nonzero;stroke:none"
         transform="matrix(0.13333333,0,0,-0.13333333,0,82.666667)" /><path
         id="path42"
         d="m 2298.86,202.57 -186.13,1.399 1.07,6.57 -0.01,95.309 h 185.31 l -0.24,-103.278"
         style="fill:#231f20;fill-opacity:1;fill-rule:nonzero;stroke:none"
         transform="matrix(0.13333333,0,0,-0.13333333,0,82.666667)" /><path
         id="path43"
         d="m 2113.79,325.574 0.01,107.328 h 185.3 V 325.574 h -185.31"
         style="fill:#231f20;fill-opacity:1;fill-rule:nonzero;stroke:none"
         transform="matrix(0.13333333,0,0,-0.13333333,0,82.666667)" /><path
         id="path44"
         d="m 2084.84,427.453 0.13,-101.879 h -156.48 v 101.879 h 156.35"
         style="fill:#231f20;fill-opacity:1;fill-rule:nonzero;stroke:none"
         transform="matrix(0.13333333,0,0,-0.13333333,0,82.666667)" /><path
         id="path45"
         d="m 2326.03,447.18 c -4.66,7.867 -12.15,12.156 -22.82,14.55 h -193.53 c -4.74,0.715 -13.32,-4.347 -19.08,-14.55 h -162.11 v 47.5 c 0.61,20.383 6.38,38.64 15.58,54.383 h 544.4 l -0.09,-101.883 h -162.35"
         style="fill:#231f20;fill-opacity:1;fill-rule:nonzero;stroke:none"
         transform="matrix(0.13333333,0,0,-0.13333333,0,82.666667)" /><path
         id="path46"
         d="m 2332.04,416.43 c 0.02,4 -0.12,7.664 -0.44,11.023 h 156.77 l -0.1,-101.879 h -156.23 v 90.856"
         style="fill:#231f20;fill-opacity:1;fill-rule:nonzero;stroke:none"
         transform="matrix(0.13333333,0,0,-0.13333333,0,82.666667)" /><path
         id="path47"
         d="m 1905.52,568.793 h -532.27 c 23.12,25.527 56.22,38.98 94.68,41.184 h 437.59 v -41.184"
         style="fill:#231f20;fill-opacity:1;fill-rule:nonzero;stroke:none"
         transform="matrix(0.13333333,0,0,-0.13333333,0,82.666667)" /><path
         id="path48"
         d="m 2535.4,568.793 c 23.12,25.527 56.22,38.98 94.68,41.184 h 461.14 c 34.91,-2.719 63.86,-17.539 84.07,-41.184 H 2535.4"
         style="fill:#231f20;fill-opacity:1;fill-rule:nonzero;stroke:none"
         transform="matrix(0.13333333,0,0,-0.13333333,0,82.666667)" /><path
         id="path49"
         d="m 2488.53,568.793 h -532.27 c 23.12,25.527 56.22,38.98 94.67,41.184 h 437.6 v -41.184"
         style="fill:#231f20;fill-opacity:1;fill-rule:nonzero;stroke:none"
         transform="matrix(0.13333333,0,0,-0.13333333,0,82.666667)" /><path
         id="path50"
         d="m 4003.71,568.793 h -729.02 c 23.12,25.527 56.21,38.98 94.67,41.184 h 634.35 v -41.184"
         style="fill:#231f20;fill-opacity:1;fill-rule:nonzero;stroke:none"
         transform="matrix(0.13333333,0,0,-0.13333333,0,82.666667)" /><path
         id="path51"
         d="m 4035.15,552.98 c 0,-33.164 26.53,-57.996 58.15,-57.996 31.47,0 57.84,24.832 57.84,57.996 0,32.547 -26.37,57.383 -57.84,57.383 -31.62,0 -58.15,-24.836 -58.15,-57.383 z m 10.49,0 c 0,27.61 20.67,48.899 47.66,48.899 26.69,0 47.36,-21.289 47.36,-48.899 0,-28.226 -20.67,-49.511 -47.36,-49.511 -26.99,0 -47.66,21.285 -47.66,49.511 z m 25.15,-33.933 h 10.48 v 29 h 11.11 l 18.35,-29 h 11.26 l -19.28,29.769 c 10.03,1.082 17.74,6.168 17.74,18.356 0,12.957 -7.56,19.281 -23.6,19.281 h -26.06 z m 10.48,58.922 h 13.89 c 7.09,0 14.8,-1.387 14.8,-10.332 0,-10.645 -8.48,-11.11 -17.74,-11.11 h -10.95 v 21.442"
         style="fill:#231f20;fill-opacity:1;fill-rule:evenodd;stroke:none"
         transform="matrix(0.13333333,0,0,-0.13333333,0,82.666667)" /></g></g></svg>
