<svg xmlns="http://www.w3.org/2000/svg" viewBox="0 0 282.8 84.2" aria-labelledby="pfsense-logo"><path d="M27.8 57.7c2.9 0 5.4-.9 7.5-2.6 2.1-1.7 3.6-4 4.4-6.8.8-2.8.6-5.1-.5-6.8-1.1-1.7-3.2-2.6-6.1-2.6-2.9 0-5.4.9-7.5 2.6-2.1 1.7-3.5 4-4.3 6.8-.8 2.8-.7 5.1.5 6.8 1 1.8 3 2.6 6 2.6M115.1 46.6c-1.5-.8-3-1.4-4.7-1.8-1.7-.4-3.2-.7-4.7-1.1-1.5-.3-2.7-.7-3.6-1.1-.9-.4-1.4-1.1-1.4-2 0-1.1.5-1.9 1.4-2.4.9-.5 1.9-.7 2.8-.7 2.8 0 5 1 6.7 3.1l7-7c-1.7-1.8-3.9-3.1-6.4-3.8-2.5-.7-5-1.1-7.4-1.1-1.9 0-3.9.2-5.7.7-1.9.5-3.6 1.2-5 2.3-1.5 1-2.6 2.3-3.5 3.9-.9 1.6-1.3 3.5-1.3 5.7 0 2.3.5 4.2 1.4 5.6.9 1.4 2.1 2.5 3.6 3.3 1.5.8 3 1.3 4.7 1.7 1.7.4 3.2.7 4.7 1.1 1.5.3 2.7.7 3.6 1.2.9.5 1.4 1.2 1.4 2.2 0 1-.5 1.7-1.6 2.1-1.1.4-2.3.6-3.6.6-1.7 0-3.3-.3-4.6-1-1.3-.7-2.5-1.7-3.6-3l-7 7.7c1.8 1.9 4.1 3.2 6.7 3.9 2.7.7 5.3 1.1 7.9 1.1 2 0 4-.2 6.1-.6 2-.4 3.9-1 5.5-2 1.6-.9 3-2.2 4-3.8 1-1.6 1.6-3.5 1.6-5.9 0-2.3-.5-4.2-1.4-5.6-1-1.3-2.2-2.5-3.6-3.3M156.3 34.1c-1.5-1.7-3.3-3-5.5-3.9-2.2-.9-4.6-1.4-7.2-1.4-2.9 0-5.6.5-8.1 1.4-2.5.9-4.7 2.2-6.6 3.9-1.9 1.7-3.3 3.8-4.4 6.2-1.1 2.4-1.6 5.1-1.6 8 0 3 .5 5.6 1.6 8 1.1 2.4 2.5 4.5 4.4 6.2 1.9 1.7 4.1 3 6.6 3.9 2.5.9 5.2 1.4 8.1 1.4 3 0 5.9-.6 8.7-1.9 2.8-1.3 5.1-3.1 7-5.4l-8-5.9c-1 1.3-2.1 2.4-3.4 3.3-1.3.8-2.9 1.3-4.8 1.3-2.2 0-4.1-.7-5.7-2-1.5-1.3-2.5-3.1-3-5.2H161v-3.6c0-3-.4-5.6-1.2-8-.8-2.5-2-4.6-3.5-6.3m-22 10c.1-.9.3-1.8.7-2.6.4-.8.9-1.6 1.6-2.2.7-.6 1.5-1.2 2.5-1.6 1-.4 2.1-.6 3.4-.6 2.1 0 3.8.7 5.1 2.1 1.3 1.4 2 3 1.9 5h-15.2zM198.3 33.8c-1-1.6-2.4-2.8-4.2-3.7-1.8-.9-4.1-1.3-7-1.3-1.4 0-2.7.2-3.8.5-1.2.4-2.2.8-3.1 1.4-.9.6-1.7 1.2-2.4 1.9s-1.2 1.4-1.5 2.1h-.3v-5.1h-11v37.2h11.5V48.4c0-1.2.1-2.4.2-3.5.2-1.1.5-2.1 1-3 .5-.9 1.2-1.6 2.1-2.1.9-.5 2.1-.8 3.6-.8s2.6.3 3.4.9c.8.6 1.4 1.4 1.8 2.4.4 1 .6 2 .7 3.2.1 1.1.1 2.3.1 3.3V67h11.5V46.4c0-2.5-.2-4.8-.5-7-.5-2.1-1.1-4-2.1-5.6M231.5 46.6c-1.5-.8-3-1.4-4.7-1.8-1.7-.4-3.2-.7-4.7-1.1-1.5-.3-2.7-.7-3.6-1.1-.9-.4-1.4-1.1-1.4-2 0-1.1.5-1.9 1.4-2.4.9-.5 1.9-.7 2.8-.7 2.8 0 5 1 6.7 3.1l7-7c-1.7-1.8-3.9-3.1-6.4-3.8-2.5-.7-5-1.1-7.4-1.1-1.9 0-3.9.2-5.7.7-1.9.5-3.6 1.2-5 2.3-1.5 1-2.6 2.3-3.5 3.9-.9 1.6-1.3 3.5-1.3 5.7 0 2.3.5 4.2 1.4 5.6.9 1.4 2.1 2.5 3.6 3.3 1.5.8 3 1.3 4.7 1.7 1.7.4 3.2.7 4.7 1.1 1.5.3 2.7.7 3.6 1.2.9.5 1.4 1.2 1.4 2.2 0 1-.5 1.7-1.6 2.1-1.1.4-2.3.6-3.6.6-1.7 0-3.3-.3-4.6-1-1.3-.7-2.5-1.7-3.6-3l-7 7.7c1.8 1.9 4.1 3.2 6.7 3.9 2.7.7 5.3 1.1 7.9 1.1 2 0 4-.2 6.1-.6 2-.4 3.9-1 5.5-2 1.6-.9 3-2.2 4-3.8 1-1.6 1.6-3.5 1.6-5.9 0-2.3-.5-4.2-1.4-5.6-1-1.3-2.2-2.5-3.6-3.3M277.4 51.9v-4.2c-.1-2.7-.5-5.2-1.2-7.4-.8-2.4-2-4.5-3.5-6.2-1.5-1.7-3.3-3-5.5-3.9-2.2-.9-4.6-1.4-7.2-1.4-2.9 0-5.6.5-8.1 1.4-2.5.9-4.7 2.2-6.6 3.9-1.9 1.7-3.3 3.8-4.4 6.2-1.1 2.4-1.6 5.1-1.6 8 0 3 .5 5.6 1.6 8 1.1 2.4 2.5 4.5 4.4 6.2 1.9 1.7 4.1 3 6.6 3.9 2.5.9 5.2 1.4 8.1 1.4 3 0 5.9-.6 8.7-1.9 2.8-1.3 5.1-3.1 7-5.4l-8-5.9c-1 1.3-2.1 2.4-3.4 3.3-1.3.8-2.9 1.3-4.8 1.3-2.2 0-4.1-.7-5.7-2-1.5-1.3-2.5-3.1-3-5.2h26.6zm-26.7-7.8c.1-.9.3-1.8.7-2.6.4-.8.9-1.6 1.6-2.2.7-.6 1.5-1.2 2.5-1.6 1-.4 2.1-.6 3.4-.6 2.1 0 3.8.7 5.1 2.1 1.3 1.4 2 3 1.9 5h-15.2z" class="logo-st0"/><path d="M52.6 38.9l2.6-9.2h4.6l1.8-6.6c.6-2 1.3-4 2.2-5.8.8-1.8 2-3.4 3.4-4.8s3.2-2.5 5.3-3.3c2.1-.8 4.8-1.2 7.9-1.2.8 0 1.5 0 2.3.1-.7-2.9-3.3-5-6.3-5.1H11.9C8.3 3 5.4 6 5.4 9.6V67l10.5-37.3h10.6l-1.4 4.9h.2c.6-.7 1.4-1.3 2.4-2s2-1.3 3.1-1.9c1.1-.6 2.3-1 3.6-1.4 1.3-.4 2.6-.5 3.9-.5 2.8 0 5.1.5 7.1 1.4 2 .9 3.5 2.3 4.7 4 1 1.5 1.6 3.3 1.9 5.4l.8-.6h-.2z" class="logo-st1"/><path d="M82.1 17.9c-.5-.1-1.1-.2-1.8-.2-1.8 0-3.3.4-4.5 1.2-1.1.8-2.1 2.4-2.8 4.9l-1.7 5.9h6.5l1.6 5.1-4.2 4.1h-6.5l-7.9 28H49.4l7.9-28h-4.4l-.9.6c0 .2.1.5.1.7.2 2.3-.1 4.9-.9 7.7-.7 2.6-1.8 5.1-3.3 7.5-1.5 2.4-3.2 4.5-5.1 6.3-2 1.8-4.2 3.3-6.6 4.4-2.4 1.1-4.9 1.6-7.6 1.6-2.4 0-4.5-.4-6.4-1.1-1.9-.7-3.2-2-4-3.8H18l-5 17.7h63.3c3.6 0 6.6-2.9 6.6-6.6V18.2c-.3-.1-.6-.2-.8-.3" class="logo-st2"/><path d="M277.6 68.5h.8c.4 0 .6-.1.7-.2.1-.1.2-.2.2-.4 0-.1 0-.2-.1-.3-.1-.1-.1-.2-.3-.2-.1 0-.3-.1-.6-.1h-.7v1.2zm-.6 2.1v-3.8h1.3c.5 0 .8 0 1 .1.2.1.4.2.5.4.1.2.2.4.2.6 0 .3-.1.5-.3.7-.2.2-.5.3-.8.3.1.1.2.1.3.2.2.2.3.4.6.8l.5.7h-.8l-.3-.6c-.3-.5-.5-.8-.6-.9-.1-.1-.3-.1-.5-.1h-.4v1.6h-.7zm1.6-4.9c-.5 0-1 .1-1.5.4-.5.3-.8.6-1.1 1.1-.3.5-.4 1-.4 1.5s.1 1 .4 1.5c.3.5.6.8 1.1 1.1.5.3 1 .4 1.5.4s1-.1 1.5-.4c.5-.3.8-.6 1.1-1.1.3-.5.4-1 .4-1.5s-.1-1-.4-1.5c-.3-.5-.6-.8-1.1-1.1-.5-.3-1-.4-1.5-.4zm0-.6c.6 0 1.2.2 1.8.5.6.3 1 .7 1.3 1.3.3.6.5 1.2.5 1.8 0 .6-.2 1.2-.5 1.8-.3.6-.8 1-1.3 1.3-.6.3-1.2.5-1.8.5-.6 0-1.2-.2-1.8-.5-.6-.3-1-.8-1.3-1.3-.3-.6-.5-1.2-.5-1.8 0-.6.2-1.2.5-1.8.3-.6.8-1 1.3-1.3.6-.4 1.2-.5 1.8-.5z" class="logo-st0"/></svg>
