<svg xmlns="http://www.w3.org/2000/svg" aria-labelledby="pfsense-logo" viewBox="0 0 282.8 84.2"><path d="M27.8 57.7q4.4 0 7.5-2.6 3.2-2.6 4.4-6.8t-.5-6.8-6.1-2.6q-4.3 0-7.5 2.6-3.1 2.6-4.3 6.8t.5 6.8q1.5 2.6 6 2.6m87.3-11.1a19 19 0 0 0-4.7-1.8l-4.7-1.1q-2.2-.5-3.6-1.1t-1.4-2q0-1.6 1.4-2.4t2.8-.7q4.2 0 6.7 3.1l7-7a14 14 0 0 0-6.4-3.8q-3.8-1-7.4-1.1-3 0-5.7.7a14 14 0 0 0-8.5 6.2q-1.3 2.4-1.3 5.7 0 3.5 1.4 5.6a10 10 0 0 0 3.6 3.3q2.2 1.1 4.7 1.7l4.7 1.1q2.3.4 3.6 1.2t1.4 2.2q0 1.5-1.6 2.1t-3.6.6q-2.6 0-4.6-1t-3.6-3l-7 7.7q2.8 2.9 6.7 3.9a31 31 0 0 0 14 .5q3-.6 5.5-2t4-3.8 1.6-5.9-1.4-5.6-3.6-3.3m41.2-12.5q-2.2-2.6-5.5-3.9-3.3-1.4-7.2-1.4-4.3 0-8.1 1.4t-6.6 3.9a18 18 0 0 0-6 14.2 19 19 0 0 0 12.6 18.1q3.8 1.4 8.1 1.4a20 20 0 0 0 15.7-7.3l-8-5.9q-1.5 2-3.4 3.3a9 9 0 0 1-4.8 1.3q-3.3 0-5.7-2a10 10 0 0 1-3-5.2H161v-3.6q0-4.5-1.2-8-1.2-3.8-3.5-6.3m-22 10a8 8 0 0 1 2.3-4.8 9 9 0 0 1 2.5-1.6 9 9 0 0 1 3.4-.6q3.2 0 5.1 2.1 2 2 1.9 5zm64-10.3q-1.5-2.4-4.2-3.7t-7-1.3q-2.1 0-3.8.5a13 13 0 0 0-5.5 3.3q-1 1-1.5 2.1h-.3v-5.1h-11v37.2h11.5V48.4l.2-3.5q.3-1.7 1-3 .8-1.4 2.1-2.1t3.6-.8c2.3 0 2.6.3 3.4.9q1.2.9 1.8 2.4.6 1.4.7 3.2l.1 3.3V67h11.5V46.4q0-3.7-.5-7-.7-3.2-2.1-5.6m33.2 12.8a19 19 0 0 0-4.7-1.8l-4.7-1.1q-2.2-.5-3.6-1.1t-1.4-2q0-1.6 1.4-2.4t2.8-.7q4.2 0 6.7 3.1l7-7a14 14 0 0 0-6.4-3.8q-3.8-1-7.4-1.1-3 0-5.7.7a14 14 0 0 0-8.5 6.2q-1.3 2.4-1.3 5.7 0 3.5 1.4 5.6a10 10 0 0 0 3.6 3.3q2.2 1.1 4.7 1.7l4.7 1.1q2.2.4 3.6 1.2t1.4 2.2q0 1.5-1.6 2.1t-3.6.6q-2.6 0-4.6-1t-3.6-3l-7 7.7q2.8 2.9 6.7 3.9a31 31 0 0 0 14 .5q3-.6 5.5-2t4-3.8 1.6-5.9-1.4-5.6-3.6-3.3m45.9 5.3v-4.2a28 28 0 0 0-1.2-7.4q-1.2-3.6-3.5-6.2t-5.5-3.9q-3.3-1.4-7.2-1.4-4.3 0-8.1 1.4t-6.6 3.9a18 18 0 0 0-6 14.2 19 19 0 0 0 12.6 18.1q3.8 1.4 8.1 1.4a20 20 0 0 0 15.7-7.3l-8-5.9q-1.5 2-3.4 3.3a9 9 0 0 1-4.8 1.3q-3.3 0-5.7-2a10 10 0 0 1-3-5.2h26.6zm-26.7-7.8a8 8 0 0 1 2.3-4.8 9 9 0 0 1 2.5-1.6 9 9 0 0 1 3.4-.6q3.1 0 5.1 2.1 2 2 1.9 5z" class="logo-st0"/><path d="m52.6 38.9 2.6-9.2h4.6l1.8-6.6q.9-3 2.2-5.8t3.4-4.8c2.1-2.1 3.2-2.5 5.3-3.3a23 23 0 0 1 10.2-1.1c-.7-2.9-3.3-5-6.3-5.1H11.9C8.3 3 5.4 6 5.4 9.6V67l10.5-37.3h10.6l-1.4 4.9h.2q.9-1 2.4-2l3.1-1.9q1.7-.9 3.6-1.4a17 17 0 0 1 11 .9q3 1.4 4.7 4 1.5 2.3 1.9 5.4l.8-.6h-.2z" class="logo-st1"/><path d="M82.1 17.9a9 9 0 0 0-6.3 1q-1.7 1.2-2.8 4.9l-1.7 5.9h6.5l1.6 5.1-4.2 4.1h-6.5l-7.9 28H49.4l7.9-28h-4.4l-.9.6.1.7q.3 3.5-.9 7.7-1 3.9-3.3 7.5a26 26 0 0 1-11.7 10.7 18 18 0 0 1-7.6 1.6q-3.6 0-6.4-1.1-2.8-1-4-3.8H18l-5 17.7h63.3c3.6 0 6.6-2.9 6.6-6.6V18.2z" class="logo-st2"/><path d="M277.6 68.5h.8q.6 0 .7-.2l.2-.4-.1-.3q0-.2-.3-.2l-.6-.1h-.7zm-.6 2.1v-3.8h1.3l1 .1.5.4.2.6q0 .4-.3.7t-.8.3l.3.2.6.8.5.7h-.8l-.3-.6-.6-.9-.5-.1h-.4v1.6zm1.6-4.9q-.7 0-1.5.4a3 3 0 0 0-1.1 1.1q-.4.8-.4 1.5 0 .9.4 1.5t1.1 1.1 1.5.4q.9 0 1.5-.4a3 3 0 0 0 1.1-1.1q.4-.7.4-1.5c0-.8-.1-1-.4-1.5a3 3 0 0 0-1.1-1.1q-.7-.4-1.5-.4m0-.6a4 4 0 0 1 1.8.5q.9.4 1.3 1.3t.5 1.8a4 4 0 0 1-.5 1.8q-.5.9-1.3 1.3a4 4 0 0 1-1.8.5 4 4 0 0 1-1.8-.5q-.9-.5-1.3-1.3a4 4 0 0 1-.5-1.8q0-.9.5-1.8t1.3-1.3a3 3 0 0 1 1.8-.5" class="logo-st0"/></svg>