 <svg version="1.0" xmlns="http://www.w3.org/2000/svg" width="700.000000pt" height="247.000000pt" viewBox="0 0 700.000000 247.000000" preserveAspectRatio="xMidYMid meet">
<metadata>
Created by potrace 1.12, written by Peter Selinger 2001-2015
</metadata>
<g transform="translate(0.000000,247.000000) scale(0.100000,-0.100000)" fill="#000000" stroke="none">
<path d="M295 1553 c-44 -24 -130 -113 -147 -153 -40 -92 -51 -206 -27 -267
42 -105 76 -152 143 -198 48 -33 60 -37 93 -32 42 7 73 37 73 71 0 26 -17 46
-40 46 -24 0 -96 71 -119 117 -56 112 0 264 109 298 39 12 50 25 50 60 0 59
-73 91 -135 58z"></path>
<path d="M560 1557 c-20 -10 -26 -21 -28 -54 -3 -40 -1 -43 35 -62 106 -54
162 -198 118 -304 -17 -40 -96 -114 -128 -119 -19 -3 -22 -9 -22 -53 l0 -49
43 -13 c43 -12 45 -12 97 27 63 47 107 98 136 160 17 35 22 65 23 136 0 51 -4
102 -11 115 -6 13 -19 41 -28 63 -23 52 -77 110 -132 141 -51 28 -67 30 -103
12z"></path>
<path d="M6103 1444 c-55 -25 -110 -83 -119 -124 -3 -14 -10 -35 -16 -47 -6
-12 -8 -42 -5 -68 24 -169 165 -257 345 -214 72 18 74 22 75 149 l0 113 -79 0
-79 0 0 -29 c0 -27 3 -29 41 -30 22 0 45 -3 50 -6 5 -3 7 -34 6 -68 -3 -54 -7
-62 -29 -71 -47 -18 -123 -11 -169 16 -69 40 -89 77 -89 160 1 79 14 107 71
150 26 20 51 28 92 32 50 4 62 2 96 -22 l39 -26 23 22 c37 34 37 35 -69 78
-46 19 -127 12 -184 -15z"></path>
<path d="M1050 1456 c-1 -3 -1 -108 -1 -233 l-1 -228 29 0 28 0 2 170 c1 94 2
176 2 184 1 11 6 10 21 -4 11 -10 20 -22 20 -26 0 -5 48 -80 107 -166 l107
-158 40 0 41 0 0 230 0 230 -30 0 -30 0 -1 -179 c0 -183 -7 -213 -35 -159 -7
16 -55 89 -105 163 -49 74 -93 143 -97 153 -4 11 -17 17 -36 17 -16 0 -36 3
-45 6 -9 3 -16 3 -16 0z"></path>
<path d="M1575 1450 c-4 -6 5 -35 19 -65 14 -29 26 -61 26 -69 0 -8 5 -18 10
-21 6 -3 10 -15 10 -26 0 -10 4 -27 9 -37 8 -16 20 -45 42 -97 4 -11 15 -42
24 -70 20 -61 31 -75 61 -75 28 0 25 -5 139 282 37 92 64 171 61 176 -3 5 -18
7 -34 4 -24 -3 -32 -11 -42 -45 -12 -40 -41 -113 -61 -149 -5 -10 -9 -26 -9
-36 0 -11 -6 -32 -14 -48 -8 -16 -20 -42 -26 -58 -13 -36 -21 -28 -49 54 -12
36 -26 74 -31 85 -5 11 -21 56 -36 100 -15 44 -29 83 -33 86 -12 13 -60 19
-66 9z"></path>
<path d="M2794 1445 c-3 -6 -3 -109 -2 -230 l3 -220 29 0 29 0 1 100 1 100 75
0 c116 0 170 39 170 122 0 103 -32 126 -188 133 -74 3 -116 1 -118 -5z m227
-74 c25 -31 24 -73 -2 -97 -17 -15 -36 -19 -93 -19 l-71 0 -3 59 c-5 88 -3 89
79 84 60 -3 74 -8 90 -27z"></path>
<path d="M3259 1450 c-11 -7 -14 -50 -12 -232 l1 -223 29 0 28 0 0 104 0 105
120 0 120 0 3 -107 3 -107 29 0 30 0 0 220 c0 121 1 223 3 228 1 4 -13 8 -30
10 l-33 3 0 -96 0 -96 -122 3 -123 3 4 91 c3 84 1 92 -17 96 -10 3 -25 2 -33
-2z"></path>
<path d="M3734 1449 c-3 -6 3 -20 13 -32 11 -12 53 -70 92 -130 l73 -107 -3
-93 -4 -92 30 0 30 0 -3 92 -4 91 86 128 c48 70 84 134 82 141 -8 20 -57 6
-82 -24 -12 -14 -30 -41 -41 -62 -61 -113 -71 -121 -96 -73 -38 73 -61 112
-81 135 -23 27 -81 43 -92 26z"></path>
<path d="M5205 1450 c-3 -5 -6 -110 -6 -232 l-1 -223 29 0 28 0 3 224 c2 173
-1 226 -10 233 -18 11 -36 10 -43 -2z"></path>
<path d="M2054 1435 c-14 -35 2 -43 69 -38 47 4 66 2 72 -8 5 -7 9 -98 9 -203
l1 -191 30 0 30 0 0 190 c1 105 5 196 9 204 6 9 27 12 75 9 65 -3 66 -3 66 22
l0 25 -178 3 c-151 2 -178 0 -183 -13z"></path>
<path d="M4260 1222 l0 -227 115 1 c109 2 117 3 151 29 39 30 54 60 54 107 0
23 -10 41 -41 70 l-40 39 30 28 c24 23 31 37 31 68 0 85 -48 113 -195 113
l-105 0 0 -228z m208 162 c15 -10 22 -25 22 -49 0 -50 -37 -75 -111 -75 l-59
0 0 70 0 70 63 0 c40 0 70 -5 85 -16z m10 -194 c27 -17 32 -26 32 -58 0 -62
-35 -87 -118 -87 l-67 0 -3 69 c-2 38 -1 75 2 83 9 21 114 17 154 -7z"></path>
<path d="M4740 1448 c-1 -2 -2 -104 -3 -228 l-1 -225 29 0 30 0 0 90 c1 50 4
96 8 103 5 6 22 12 38 12 24 0 33 -6 45 -32 8 -18 26 -51 39 -73 14 -22 29
-49 34 -60 12 -28 30 -41 64 -47 39 -7 45 15 14 52 -41 48 -99 149 -92 160 3
5 14 10 24 10 10 0 30 15 45 34 20 27 26 46 26 85 0 44 -4 55 -35 86 l-36 35
-114 0 c-63 0 -115 -1 -115 -2z m219 -72 c28 -25 28 -77 0 -102 -17 -15 -36
-19 -92 -19 l-71 0 -1 68 c0 46 4 71 12 76 23 13 130 -4 152 -23z"></path>
<path d="M5434 1437 c-2 -7 -3 -109 -2 -227 l3 -215 117 1 c134 2 162 11 219
71 54 56 63 80 62 158 0 101 -38 167 -119 204 -36 17 -63 21 -159 21 -85 0
-117 -3 -121 -13z m210 -48 c87 -24 126 -75 126 -166 0 -72 -24 -114 -80 -143
-43 -22 -162 -41 -181 -29 -8 4 -11 58 -11 170 0 90 1 167 1 172 1 11 101 8
145 -4z"></path>
<path d="M6570 1445 c-3 -62 0 -439 3 -442 3 -2 71 -5 153 -6 l149 -2 3 28 3
28 -116 -2 c-65 -1 -121 3 -126 8 -6 6 -9 39 -7 74 l3 64 105 1 105 1 0 29 0
29 -108 3 -108 3 3 67 3 67 115 0 115 1 0 24 0 25 -147 3 c-82 1 -148 0 -148
-3z"></path>
<path d="M362 1370 l-42 -40 0 -83 c0 -54 5 -95 15 -113 19 -40 71 -88 84 -79
16 9 10 347 -5 352 -6 2 -30 -14 -52 -37z"></path>
<path d="M530 1405 c-4 -48 0 -358 4 -363 9 -8 75 57 92 90 31 60 10 175 -43
237 -31 36 -52 51 -53 36z"></path>
</g>
</svg>