<svg viewBox="0 0 700 247" xmlns="http://www.w3.org/2000/svg"><path d="m30 92c-5 2-13 11-15 15-4 9-5 21-3 27 4 10 8 15 14 19 5 4 6 4 10 4 4-1 7-4 7-7s-2-5-4-5-10-7-12-12c-5-11 0-26 11-29 4-2 5-3 5-6 0-6-7-10-13-6zm26-1c-2 1-3 2-3 6s0 4 4 6c10 5 16 20 12 30-2 4-10 12-13 12-2 0-2 1-2 5v5l4 2c4 1 4 1 9-3 7-5 11-10 14-16 2-3 2-6 2-14l-1-11-3-6c-2-6-7-11-13-14-5-3-6-3-10-2zm554 12c-5 2-11 8-12 12l-1 5-1 7c3 16 17 25 35 21 7-2 7-2 7-15v-11h-15v3c0 2 0 3 4 3h5v7c0 5 0 6-3 7-4 2-12 1-17-1-6-4-8-8-8-16s1-11 7-15c2-2 5-3 9-4 5 0 6 0 9 3l4 2 3-2c3-3 3-4-7-8-5-2-13-1-19 2zm-505-2v47h6v-36h2l2 3 11 17 10 15 4 1h5v-46h-6l-1 17c0 19 0 22-3 16l-11-16-9-15-4-2-4-1zm53 1c-1 1 0 4 1 7l3 6 1 3 1 2 1 4 4 9 2 8c3 6 4 7 7 7 2 0 2 1 13-28l7-18h-4c-2 0-3 1-4 4l-6 15-1 4-1 5-3 5c-1 4-2 3-5-5l-3-8a200 200 0 0 1 -7-19c-1-1-6-2-7-1zm121 1v23l1 22h5v-10l1-10h7c12 0 17-4 17-13 0-10-3-12-19-13zm23 7c3 3 3 7 0 10-2 1-4 2-9 2h-7l-1-6c0-9 0-9 8-9 6 1 7 1 9 3zm24-8-1 23v23h6v-21h24v21h6v-45l-3-1h-3v19h-12l-12-1v-9c0-8 0-9-2-9zm47 0 2 3 9 13 7 11v19h6l-1-10v-9l8-13 9-14c-1-2-6 0-9 3l-4 6c-6 11-7 12-9 7l-8-13c-3-3-8-5-10-3zm148 0-1 23v23h5l1-23-1-23h-5zm-316 2c-1 3 1 4 7 3l8 1v20l1 20h6v-40l8-1c6 0 7 0 7-2v-3h-18l-19 1zm221 21v23l12-1c10 0 11 0 15-2 4-3 5-6 5-11 0-2-1-4-4-7l-4-4 3-3c2-2 3-4 3-7 0-8-5-11-19-11h-11zm21-16 2 4c0 6-4 8-11 8h-6v-14h6zm1 19c3 2 3 3 3 6 0 6-3 9-12 9h-7v-16c1-2 12-1 16 1zm26-26v45l2 1h3v-9l1-11 4-1c2 0 3 1 5 3a90 90 0 0 0 7 14c1 2 3 4 6 4 4 1 5-1 2-5l-10-16 3-1 4-3c2-3 3-5 3-9s0-5-4-9l-3-3zm22 7c3 3 3 8 0 11l-9 1-7 1-1-7c0-5 1-7 2-8 2-1 13 1 15 2zm47-6v44h12c14 0 16-1 22-7 5-5 6-8 6-15 0-11-4-17-12-21-3-2-6-2-16-2zm21 5c9 2 13 8 13 17 0 7-2 11-8 14-4 2-16 4-18 3l-1-17v-17zm93-5v44h30l1-2v-3h-12l-12-1-1-7v-7h21v-6h-21v-14h23v-5h-29z"/><path d="m36 110-4 4v8l2 12c1 4 7 8 8 7 1 0 1-34-1-35zm17-3v36c1 1 8-6 10-9 3-6 1-18-5-24-3-3-5-5-5-3z"/></svg>