<svg xmlns="http://www.w3.org/2000/svg" xml:space="preserve" viewBox="0 0 1248 376"><path d="M538 245q-39-5-51-35c-5-11-7-29-4-42a64 64 0 0 1 51-50c6-2 25-2 32 0q16 3 28 12 18 13 22 38v24a63 63 0 0 1-66 53zm20-12q19-6 27-32c2-10 3-25 2-36q-5-30-29-37h-17q-18 5-26 28c-4 12-5 29-3 42q5 28 22 34 13 4 24 1m88 11q-12-2-16-6l2-8 2-11 1-4h1q2 0 3 2 3 10 11 15 14 5 26-1 7-6 7-16 0-7-5-11-5-5-18-12l-13-7q-11-7-15-18-2-7-1-17 2-25 28-32c5-2 20-2 25 0q13 4 15 8l-7 17-3-3q-3-6-8-10-10-4-20-1-9 5-10 15c0 9 5 14 23 23 15 8 21 12 26 19q4 6 5 13 1 13-5 25-7 14-27 20zm390 0q-33-4-46-31c-5-10-7-18-7-32q0-20 11-37a64 64 0 0 1 58-27c12 0 16 0 25 3q34 12 40 47a67 67 0 0 1-11 52q-14 19-39 25zm23-11q8-2 15-9 15-15 15-46 0-18-7-31c-10-20-33-26-50-14q-15 12-19 38c-1 8 0 24 1 31q6 26 28 32 9 1 17-1m-131-19-16-28-1 23 1 28v6h-29v-2c2-12 2-104 0-120v-2h2l57 1a28 28 0 0 1 24 24q1 20-12 30l-14 8h-2l2 3 36 58h-32zm-4-37q13-4 15-20l-2-17q-3-11-19-11h-6l-1 4 1 45c1 1 9 0 12-1m215 63a1273 1273 0 0 0 2-113v-8h14l59 64 19 21v-85h15v14c-2 30-2 42-2 75l-1 35h-14l-5-7-59-66-13-14v82l1 5h-17zm-749-1V119h38c15 0 20 0 26 3q12 6 16 17c2 4 2 16 1 22q-5 23-35 27l-11 1-8 1 1 48 1 5h-30Zm35-60q10-2 15-9 4-5 4-16 0-15-7-21-6-4-14-4h-5v51h1zm302 59V124l-1-6 3 1h27l-1 3v117l1 4h-30zm79 3 1-17-1-92-30 2-2 1v-17l9 1h75l7-1v17l-2-1-29-2v106l1 5h-30Z"/><path fill="#e31837" d="m31 375-9-2q-14-4-18-15c-4-8-4 8-4-162L1 39Q7 10 37 1l60-1h57v31c0 35-1 35-3 44l-7 15q-12 16-34 21l-38 1-33 1v22h32l38 1q18 5 29 15 8 8 12 21c3 12 3 7 3 97v81l-1 4q-5 19-28 22zm144-158 1-35q4-15 11-26 11-13 29-19l5-2h70v-22h-35c-40 0-38 0-48-5q-10-5-18-13-10-10-13-24l-2-5V0h112l5 2q13 3 23 13t13 24l2 6v77l-1 82q-3 15-10 24c-5 7-16 15-25 17l-61 1h-58z"/></svg>