<svg xmlns="http://www.w3.org/2000/svg" xml:space="preserve" viewBox="0 0 265 217.8"><path fill="#d0edf8" d="M124.9 213.3q-2-2.3.4-.4 1.6 1.3 1.7 1.8 0 1.2-2.1-1.4m62.6-56.3q-.6-1-.2-1.6.4-.2 1 1.1c.7 1.8.1 2-.8.5M52.3 125.3c3.2-.2 8.1-.2 11 0s.3.4-5.8.4-8.4-.2-5.2-.4m61 0c3.2-.2 8.1-.2 11 0s.3.4-5.8.4-8.4-.2-5.2-.4m40.5 0c1.8-.2 4.5-.2 6 0s0 .5-3.3.4-4.5-.1-2.7-.4m-17.8-8.2c0-3 .4-4 2.1-4.4q1.9-.4 1.5 0-.5.8.3 1.8c.4.6 1.1 2.2 1.4 3.7.6 2.3.4 2.6-2.3 2.6-2.8.1-3-.1-3-3.7m-39 1.3c-15.4-2.4-21-3.7-21-4.9 0-.7-1-1.4-2.2-1.6-2-.3-5.8-5.2-4.8-6.2.3-.3 5.7.6 12 1.9a121 121 0 0 0 21 3.4q4.5.1 1.3 1-2.4.9-2.3 4c0 1.7-.3 3-.7 3-.5-.2-2-.4-3.3-.6m71-3.3q0-2.7-1.2-3.1c-1.6-.2 3-1.7 5.4-1.8 1.3-.1 5.8 5.6 5.8 7.4 0 .3-2.2.5-5 .5-4.9 0-5-.1-5-3m31.2-2.4c.4-.5-.2-2-1.2-3.4-2.6-3.3-2.5-3.9.9-4.6l5.6-1.2 2.8-.7-2 3.2c-1 1.7-3 4.2-4.3 5.4q-2.2 2-1.8 1.3M37.2 102A67 67 0 0 1 8 77.1a26 26 0 0 1 .5-23 65 65 0 0 1 28.2-24.8c8.8-4.4 9.4-4 9.2 5.3 0 3.3-.3 5-.5 3.7q-.4-2-1-2.2a48 48 0 0 0-5.6 3.3c-8 5-15.3 13.8-16.8 19.9a29 29 0 0 0 1.5 17.6 65 65 0 0 0 16.1 15.6c5 3.3 5 3.4 5.7 1.2q.6-2 .7 3c.1 5.2-.6 8.4-1.8 8.4a59 59 0 0 1-6.8-3M231 97.3c1.3-4.7 2.7-6.8 7.8-11.9 7.4-7.2 9.4-10.8 10.1-18 .8-7.6-1.6-13-9.2-21-5.3-5.6-6.6-7.6-7.8-12.5-.8-3.2-1.1-5.8-.7-5.8a63 63 0 0 1 15 8.8q12 9.5 16.2 18.8c2 4.7 2.5 13 1 18-2.5 8.2-14.8 20-27 26.2l-6.6 3.2c-.2 0 .3-2.6 1.2-5.8m-19-16.8q0-1.8.6-.6.4 1.3-.1 1.9-.6.3-.5-1.3m-46.8-17c0-2.1.2-3 .4-1.7s.2 3 0 4-.5 0-.4-2.2M134 54.8q.2-.5 1.8-1.8 2.3-1.9.3.4-2 2.6-2.1 1.4m32-7.2q.2-1.8.7-.6t-.1 1.9q-.6.3-.5-1.3m46-1q.2-1.8.7-.6t-.1 1.9q-.6.3-.5-1.3m-1-7q.2-1.8.7-.6t-.1 1.9q-.6.3-.5-1.3m-9-12.7c-3.6-1-6.8-2.2-7.2-2.6s.1-2.2 1.2-4c1.7-2.6 2.5-3.1 4.3-2.6 1.2.4 2.8 1.2 3.5 1.8 1.4 1 5.6 8.7 5 9.1-.2.1-3.2-.6-6.8-1.7M68.8 22.6q.9-6.4 4.2-4.2c2 1.5 5 5.8 5 7.1q-.1.9-.8-.2c-.6-.9-1.7-1-4.2-.2-4.8 1.3-4.6 1.4-4.2-2.5m38.2-1.4c0-.6-1.5-1.1-3.5-1.1-3 0-3.7-.5-5.4-3.9l-2-3.8 2.5.4c1.3.3 2.4.8 2.4 1.3q.2.7 2.3 1.3c2.3.6 5.4 5.3 4.2 6.5q-.5.3-.5-.7m64.5 0c-.6-.6-3.2-1.2-6-1.3-4.7-.3-5.1-.6-7.2-4.4l-2.3-4.1 5.3.4c2.8.2 7.3.7 9.8 1.1l4.7.7-1.7 4.2q-1.6 4.2-2.6 3.3m-36-1a8 8 0 0 0-3.5-1.4q-3.2-.3-.7-1.2 1.9-1 4 1.3c2 2 2.2 3.2.1 1.2m17.4-12.9q-2-2.3.4-.4 2.4 2 1.3 2.2-.5-.2-1.7-1.8m58.5-.5-1.9-2.2 2.3 1.9q3 2.7 1.9 2.6-.5-.2-2.3-2.3"/><path fill="#a1d9f1" d="M135.5 112.5q-5.4-2-5.5-4.6c0-.3 1.8-.8 4-1 3.8-.4 3.9-.3 4.8 3.4.6 2 1 3.7.8 3.7zM83.2 108a132 132 0 0 1-13.8-3.2c-.2-.3-.7-2.1-1-4.1l-.7-3.6 5 1.4a306 306 0 0 0 30 6c3 .4 5.3 1 5.3 1.1l-1.2 3c-1 2.2-1.7 2.5-5.7 2.3-2.5 0-10.6-1.4-17.9-2.9m79.4.2c-1.5-2.8-1.4-3 .7-3.5 1.2-.3 3.6-.6 5.2-.6 2.5 0 3.3.5 4.2 2.9 1 2.7.9 2.9-2 3.5-5.2 1-6.6.6-8.1-2.3m31.3-5.3c-.6-1.6-1-3.1-.7-3.3a73 73 0 0 1 15.7-5c.2.2-.1 2.2-.7 4.3-1.1 3.7-1.5 4-7.1 5.4l-6 1.5zM39.5 92.5A62 62 0 0 1 23.4 77a29 29 0 0 1-1.5-17.6 24 24 0 0 1 6.4-10.8c5-5.5 15.3-13.2 16.4-12 .3.2.7 3.5.9 7.3s0 5.7-.4 4.5c-.7-2.3-.8-2.2-4.5 1.4C30.3 59.7 30 71 39.8 81l4.6 4.7.7-3c.5-2.3.7-1.6.7 3 0 3.3-.3 7-.6 8.1-.7 2.2-.8 2.1-5.7-1.2M233 87.3a214 214 0 0 0 3.3-23.7l-.8-6c-1.5-9.3-2.2-16-1.8-16.5 1-1.1 12.3 12.3 13.9 16.5 1.9 5 1.5 13.5-.8 17.7-2 3.9-7.6 10.4-11.3 13.2l-3.3 2.5zM165.2 70q0-3.1.5-1.8c.2 1 .2 2.5 0 3.5q-.5 1.3-.5-1.7m0-12.5q0-2.6.5-1.3c.2 1 .2 2.3 0 3q-.5 1-.5-1.7m-26.2-15q0-1.8.6-.6.4 1.3-.1 1.9-.6.3-.5-1.3m62.9-8.3-8.9-2.8q-1.5-.3-.7-3.5c.3-1.8.7-3.3.9-3.5.1-.1 3.6.8 7.6 2 7.5 2.3 9.7 4.4 8.9 8.7-.3 1.4-1.2 1.3-7.8-.9m-134-4c0-3.5.3-4 2.8-4.6l4.4-1.1q1.5-.5 2.2 1.5l1.2 4.2q.6 2-.4 1.5c-.9-.5-4.4.2-8.5 1.9-1.4.6-1.7 0-1.7-3.3m32.3-7-1-3.7 3.6.4c4 .5 5 1.5 5 5 .1 1.8-.4 2.2-3.3 2.2-3 0-3.4-.4-4.3-3.8m62 3c-.6-.3-1.6-2.4-2.2-4.6-.8-3-.8-3.6.1-2.7.7.6 3.3 1.2 6 1.2 5.3 0 5.8.4 5 4.2-.4 2.4-.9 2.8-4 2.7-2 0-4.2-.3-4.8-.7M129 22.6c0-3.4.1-3.6 3.2-3.3 2.3.3 3.7 1.2 5 3.4l1.7 3-5 .2-4.9.2z"/><path fill="#75c5e9" d="M129 104.2c0-2.6.4-3 3.5-3.3 2-.3 3.5 0 3.5.6s.3 2 .6 3.3c.6 2 .3 2.3-3.5 2.3-3.9 0-4.1-.2-4.1-3m-28.5.1c-4-.5-25.2-5-29-6-2.4-.7-3-1.5-3.3-4-.2-1.8 0-3.2.5-3.2s4.4 1 8.8 2.3 13 3.2 19.3 4.2c11.2 1.9 11.2 1.9 11.2 4.7 0 3-.4 3-7.5 2m59.4-1.9a9 9 0 0 1-.7-2.8c.2-.2 2.6-.6 5.4-1 5-.6 5.2-.5 5.7 2.2.3 1.5.5 2.8.4 2.9l-5 .7c-4.5.6-4.8.5-5.8-2m32-3.7c0-.6-.2-2.1-.5-3.3-.5-1.8.1-2.3 5.3-3.9a79 79 0 0 0 9.6-3.7c2.2-1 4-1.7 4.3-1.4.8.7-.8 8.6-1.6 8.2-.4-.3-4.4.8-8.9 2.4-5 1.7-8.1 2.4-8.1 1.7M40 80.9c-9.9-10-9.6-21.1.8-31.2 3.7-3.6 3.8-3.7 4.5-1.4.8 3 .7 30.5-.1 34.3l-.7 3zm194-5.4q0-1.8.6-.6.4 1.3-.1 1.9-.6.3-.5-1.3m1-9.5q0-6.5.8-5c.9 1.3.4 10-.5 11-.2.2-.4-2.5-.4-6M207 43a77 77 0 0 0-10.3-4c-6.1-2-6.8-2.4-6.3-4.3.3-1.2.6-2.7.6-3.4q0-1.3 1.8-.4c2.6 1.4 16.6 5.7 17.4 5.4q.8 0 .8 1.1c0 .8.3 2.8.6 4.5.7 3.6.3 3.7-4.6 1M68 37.2q0-4.5 8-5.4c2.1-.2 2.5.2 2.5 2.6s-.6 3-4 4.2c-5.7 2-6.5 1.8-6.5-1.4m70.8-4c-.6-2-1-2-5.2-1.5l-4.6.6v-3.1c0-3.3-.2-3.2 6.7-3.4 2.4-.1 2.8.3 3.5 3.7 1 4.3.5 7.4-.4 3.8m-37.2-1.7c-1.3-3.4-.7-4.4 2.9-4.4 3.2 0 3.5.2 3.5 3 0 2.6-.3 3-2.9 3q-2.7-.1-3.5-1.6m60 .9c-.3-.4-.6-2-.6-3.4 0-2.7.2-2.7 4.3-2.2 2.3.3 4.3.6 4.5.8.1 0-.2 1.4-.7 2.8-.8 2-1.7 2.7-4 2.7-1.5 0-3-.3-3.4-.7"/><path fill="#56b3dc" d="M129 97.1c0-3.1.3-3.8 1.8-3.6 1.7.2 4.2 4 4.2 6.3 0 .7-1.3 1.3-3 1.3-2.8 0-3-.3-3-4m-35.7 0c-5-1-12.8-2.8-17.2-4L68 90.8v-4.4c0-4.7.1-4.8 2.8-3.5C75 85.1 78 86.1 86 88.1a79 79 0 0 0 11.5 2.2c1.6 0 3.5.4 4.2 1 .6.5 2.2.8 3.5.6 2-.3 2.3.1 2.6 3.4.3 3.5.2 3.8-2.5 3.7-1.5-.1-7-1-12-1.9m64.7-.5q-1.8-4.6-.2-4.6c9.8-1 10-1 10.7 2.2.9 3.8.6 4-5 4.6-4.1.5-4.5.3-5.5-2.2m32-6c0-1.3-.2-3-.5-3.8q-.4-1.3.7-1.5c3-.2 13.5-4.6 16.8-7.2 6.3-4.9 6.5-4.7 4.5 5.5q-.6 3.4-13.9 7.6c-7.4 2.4-7.6 2.3-7.6-.6m19.5-36a38 38 0 0 0-16.4-8.8c-1.1-.1-2.1-.6-2.1-1q-.1-.8-1-.2-1.1.6-.8-3.2c.3-3.6.5-3.8 3.2-3.5 3.4.3 15.5 4.9 18 6.7q1.7 1.2 2.1 7.3c.3 3.4.4 6.1.2 6.1zM68 44.9v-4.3l5.3-1.6 5.2-1.5.3 3.5c.3 2.6-.1 3.8-1.5 4.5q-1.7 1-2 .9c-.2 0-1.8.5-3.8 1.3L68 49.1Zm34-5.6c0-1-.2-3.4-.5-5.3s-.3-2.8 0-2c.4.6 2 1.2 3.6 1.2 2.9 0 3 .2 2.7 3.6-.3 3.2-.7 3.8-3 4s-2.8 0-2.8-1.5m37.1 1.1q0-1.2-5.1-1.2h-5v-3.5c0-3 .3-3.5 2.3-3.6 1.2 0 3.2-.2 4.4-.6 1.8-.4 2.5 0 3.3 2.2.6 1.6 1 4 .7 5.4q-.4 2.2-.6 1.3m25.5-.1q-.7-1-2.1-.5c-1.2.4-1.5-.3-1.5-3.3 0-3.8 0-3.8 3.8-3.8h3.9l-.8 3.3c-.9 4-2.4 5.8-3.3 4.3"/><path fill="#34a4d4" d="M129.5 93.2c-.3-.3-.5-3-.4-6v-5.6l1.9 5 2 6c0 1.1-2.6 1.6-3.5.6m22.8-12.6-4-12.4 3-2.8A35 35 0 0 0 160 47c1.3-6.6 2.5-8.5 4.5-6.9q1 .8 1.8.2c.4-.4.4 1 0 3.3-1.2 5.5-.9 37 .3 42.7 1.1 5.2 1.5 4.8-5.2 5.2a12 12 0 0 0-4 .8c-.7.4-2.8-4.5-5.2-11.7m-50.7 10.6c-.3-.5-2-1-3.8-1-3.3 0-18.4-3.4-22.3-5-7-3-7.5-3.4-7.5-7.2v-3.7l7.8-.5C91.3 72.8 99 65.2 101 49c.5-4 1-7.3 1.3-7.5.2-.2 1.6-.5 3-.8l2.8-.5v51.4l-3 .3c-1.5 0-3.1-.2-3.4-.7m87.3-8c-1.7-4.1-1.4-37.2.2-38.2.7-.5 1.6-.5 1.9-.1q.7.6 2.5 1c4.1.6 13.1 5.6 16.3 9s3.3 3.8 3.1 11.2l-.2 7.8-5.5 4a30 30 0 0 1-6.8 4.2c-.7 0-3.3.8-5.8 2l-4.7 2zM68 54c0-4.5.3-5.1 2.8-6 1.5-.7 3.2-1.2 3.7-1.3l2.3-1Q78 45 78 47c0 4.2-4.1 10-8.2 11.4-1.6.5-1.8 0-1.8-4.4m61-6.4v-8.5h10v3.5c0 6.5-3 11.4-7.7 12.9-2.3.7-2.3.5-2.3-7.9"/><path fill="#030303" d="M47 217.2q.1-1 1.8-1.1c3.8 0 4.1-2 1.1-7.2a40 40 0 0 1-2.9-5.4q.2-.3 2.3-.4c1.7 0 2.8 1 4.2 3.7l1.8 3.8 1.5-3.8c1.2-3.1 2-3.7 4.3-3.7h3l-3.2 5.7a62 62 0 0 1-4.3 7c-1.5 1.6-9.6 2.8-9.6 1.4M25 207c0-6.8 0-7 2.5-7q2.7-.1 2.5 2c0 2 .4 2.1 3.5 1.5q8-1.7 7.3 5.8l-.3 4.2-7.7.2-7.8.3zm10.6 3.5q1.2-5.7-2.8-5.4c-4 .6-3.8 7.9.1 7.9q2.1-.1 2.7-2.5m50.7 2.8q-1.3-.5-1.3-7V200h3c3 0 3 0 3 5.8 0 5 .3 6 1.9 6.4 3.6 1 5.1-1 5.1-6.8 0-5.4 0-5.4 3-5.4s3 0 3 6c0 4.8-.4 6-2 7-1.9 1-13.4 1.2-15.7.3M113 207c0-7 0-7 2.7-7q2.8 0 7 4.2l4.3 4.2v-4.2c0-4 .1-4.2 3-4.2h3v14h-3.5c-2.8 0-4-.8-6.6-4-1.8-2.2-3.6-4-4-4-.5 0-.9 1.8-.9 4 0 3.6-.2 4-2.5 4-2.4 0-2.5-.2-2.5-7m29 0v-7h6v14h-6zm16 0v-7l8.3.1q8.9.2 3 .6c-4.8.3-5.3.6-5.3 2.7 0 2 .6 2.5 3.8 2.8l3.7.4-3.7.2c-3.6.1-3.8.3-3.8 3.7 0 3.2-.2 3.5-3 3.5h-3zm22.2 5.8c-.7-.7-1.2-3.6-1.2-6.4 0-5 .2-5.3 3.1-6.3 1.8-.6 4.6-1.1 6.4-1.1s4.6.5 6.4 1c3 1.1 3.1 1.4 3.1 6.4 0 2.8-.5 5.7-1.2 6.4s-4.1 1.2-8.3 1.2-7.6-.5-8.3-1.2m10.6-.7q1.3-.9 1-5.7c-.3-4.8-.4-5-3.3-5-2.8 0-3 .3-3.3 4.4-.4 5.9 2 8.6 5.6 6.3m15.7.6c-1.9-1-1.8-1.1.8-1.9q2.9-.8 5.7 1c2.8 1.5 3 1.5 4.7 0 1.6-1.7 1.5-1.9-2.3-3.3-6.5-2.6-8.9-4-9.2-5.7s4.3-3.8 8.8-3.8c3.4 0 9 1.9 9 3 0 1.3-4.7 1.2-6.9-.2-2-1.2-5.1-.6-5.1 1 0 .5 2.5 2 5.5 3.1 7 2.9 8.6 4.7 6 6.7-2.3 1.7-14.1 1.8-17 .1m23.5.7c0-.3 1.3-3.4 3-7l2.9-6.4h4.3c4.2 0 4.3 0 6.5 5.2 3.9 9 3.9 8.8.5 8.8-1.7 0-3.2-.7-3.6-1.5-.3-1-1.8-1.5-3.6-1.5s-3.3.6-3.6 1.5c-.6 1.3-6.4 2.2-6.4 1m11.5-7.2q-1-4.3-2-3.2l-1 3.2c-.6 2.4-.4 2.8 1.5 2.8 2 0 2.1-.4 1.5-2.8M18.7 164.8 11 150.1q-5.4-11.2-9.2-11-1.6-.1-1.8-1.5c0-1.3 2-1.5 11.5-1.5s11.5.2 11.5 1.5q-.2 1.4-2 1.5c-1.1 0-2.3.6-2.6 1.3s2 6.5 5.2 12.8l5.7 11.4 4.5-9.3 4.6-9.2-2-2.8a12 12 0 0 0-5.2-3.7c-1.8-.5-3.2-1.5-3.2-2.3 0-1 2.9-1.2 12-1.2 10 0 12 .2 12 1.5q-.2 1.4-2 1.5c-1 0-2.2.5-2.6 1.1a96 96 0 0 0 10.7 22.9c.8 0 9.9-19.8 9.9-21.7 0-.8-1.3-1.7-3-2s-3-1.2-3-2c0-1 2.2-1.3 10-1.3 8.2 0 10 .2 10 1.5q-.1 1.4-1.4 1.5c-3.2 0-6.8 4.8-14 19-7.7 15-7.7 15-11.2 15-3.3 0-3.5-.2-8.6-10.5A77 77 0 0 0 41 152c-.3 0-2.9 4.7-5.8 10.5-5 10.2-5.3 10.5-8.6 10.5s-3.7-.4-8-8.3m62.3 6.8c0-.8 1.2-2 2.8-2.7a76 76 0 0 0 13.2-17l10.5-15.8h11.2l10.3 16c8 12.4 11 16.4 13.2 17.2 1.5.5 2.8 1.6 2.8 2.4 0 1-2.5 1.4-13 1.4-10.9 0-13-.3-13-1.5q.2-1.5 2.4-1.5c5.4 0 5.8-.8 3-6.2l-2.7-4.8H99.5l-2.4 4.1c-2.3 4-2.3 4.3-.5 5.5 1 .8 2.6 1.4 3.6 1.4q1.7 0 1.8 1.5c0 1.2-1.8 1.5-10.5 1.5-8.5 0-10.5-.3-10.5-1.5m37.7-16.9c-.6-1.7-7.7-12.6-8-12.6-.4 0-6.8 10.3-8.4 13.2-.2.4 3.5.8 8.2.8 6.8 0 8.6-.3 8.2-1.4m28.3 17.1c0-.7 1.5-2 3.3-2.7l3.2-1.5v-27l-3.2-1c-1.8-.5-3.3-1.6-3.3-2.3 0-1.2 3.8-1.4 21.8-1 24.1.3 28.3 1.2 30.3 6.4q2.9 8-10.5 12.1l-2.9.9 7.8 6.6c4.2 3.7 9 7 10.6 7.3s2.9 1.3 2.9 2c0 1.1-1.8 1.5-8.1 1.5h-8.1l-9.3-8.5c-8-7.5-9.7-8.5-12.9-8.5H165v5.4c0 4.5.4 5.7 2.2 7 1.2.9 3 1.6 4 1.6q1.6 0 1.8 1.5c0 1.2-2.1 1.5-13 1.5-9.7 0-13-.4-13-1.3m36.7-21c2.3-1 2.8-2 2.8-4.8 0-3-.5-3.7-3.5-5.2-3.9-2-13-2.3-16-.7-1.6.8-2 2.1-2 6.3 0 3 .3 5.7.8 6.1 1 1.2 14.7 0 17.9-1.6m25.3 20.8q.2-1.4 2-1.5a7 7 0 0 0 4-2c1.8-1.8 2-3.4 2-13.3 0-12.5-1.1-15.7-5.6-15.7q-2.3 0-2.4-1.5c0-1.3 3.3-1.5 23.3-1.5h23.3l3.7 5c2 2.7 3.7 5 3.7 5.3s-1 .7-2.2 1q-2.3.6-4.3-1.3c-5-4.8-20-8.3-25.8-6.1-2.4 1-2.7 1.5-2.7 6v5h4.5c4.7 0 8.5-2.4 8.5-5.4q.2-1.4 2-1.5c1.8 0 2 .6 2 8.5 0 7.5-.2 8.5-1.8 8.5-1 0-2.4-1.2-3-2.6-1.3-2.8-4.8-4.4-9.3-4.4H228v7c0 6.7.1 7 2.8 8 2.9 1.2 11.3.6 17.4-1.2 2-.6 5.9-2.8 8.7-5 3.7-2.7 5.6-3.6 7-3 1.8.6 1.6 1.1-2.5 7l-4.5 6.2h-24c-20.6 0-23.9-.3-23.9-1.5m-2-46.3c11.7-7.7 18.5-23.8 21-49.1 3.4-33.2-6.2-65.6-22-74.2l-3.5-2 3.5.7q21.3 4 27 44.2c2 13.3.8 38.4-2.3 50.2q-6.1 23.5-18.8 30c-5 2.5-8.6 2.6-4.9.2m-139-6.7c0-5.8-.2-6.5-2-6.5-4.2 0-5-3.4-5-21.3V74.1h7V90c0 8.8.4 17 1 18.5a7 7 0 0 0 3.5 3.5c2.3 1 2.5 1.5 2.5 7v6h-7zm61 0c0-5.7-.2-6.5-1.9-6.5-4 0-4.6-2.4-5-22.2-.2-18.2-.2-18.8 1.7-18.8q1.8.1 2.8 1.7c1 1.6 1 9.2 1.3 18.3.7 17 1.5 20.3 5.3 21.3 1.5.4 1.8 1.5 1.8 6.6v6h-6zm32.7 5.8c-.4-.4-.7-3.3-.7-6.4 0-5-.3-6-2-6.4-2.7-.9-3.6-3-11-24.7l-6.4-18.6 3.2-3c13-12.2 13.2-48.5.3-59.4l-3.6-3 3.3.5Q157.4 5.8 160 27c2 15.6-1.6 30.7-9 38l-3.5 3.3 6 17.2c7.7 22.5 9 25.3 11.4 26.1 1.8.6 2.1 1.5 2.1 7.1 0 6.1-.1 6.5-2.3 6.5-1.3 0-2.7-.3-3-.7M190 108c-6.5-9-9.6-27.3-8.7-51.3.8-20.8 4.1-33.3 10.4-39.2 2.3-2.1 7.3-3.3 7.3-1.7 0 .3-1.3 2.1-3 4-6.1 7-9.7 27.2-8.7 50.4.8 19.5 4.5 33.8 10.1 39.5l2.5 2.5h-3.4c-3 0-4-.7-6.5-4.2M81.6 70.4c4.9-3.3 6-4.6 9.2-11.3 2.2-4.7 2.6-7.3 3-16.5Q94.9 14 82.2 6c-4-2.6-4.3-3-2-3 1.3 0 4.8 1.2 7.6 2.7 9.6 4.7 13.7 16.4 13 36.4-.5 12.6-2.5 18.9-7.6 24.3-3 3.3-9.6 6.6-13 6.6-2.2 0-2-.2 1.4-2.6M61 39.1V19l2.5-1.6c2.8-1.9 6.2-1.5 5.5.6-.3.8-.6 10.3-.8 21.2L68 59.1h-7Zm61.2-2c.2-10.4.6-19.2 1-19.5.3-.4 1.8-.7 3.4-.8q3.1-.4 2.4 1.3c-.2.8-.6 9.7-.8 19.7l-.3 18.3h-6z"/></svg>