<svg xmlns="http://www.w3.org/2000/svg" viewBox="0 0 800 130"><defs><path id="b" d="M276.3 226.6 466.9 17a82 82 0 0 0-57.5-23.9 78 78 0 0 0-59 26.4l-74.1 80.9-73.6-81a85 85 0 0 0-26.6-19 79 79 0 0 0-64.6-.7A82 82 0 0 0 85.7 17z"/></defs><clipPath id="a"><path d="M212-271.7 532.5 24.4 276.3 226.6-44.2-69.5z"/></clipPath><g clip-path="url(#a)" transform="matrix(-.23853 0 0 .23853 139.5 6.6)"><use href="#b"/></g><g clip-path="url(#a)" transform="matrix(.23853 0 0 -.23853 7.7 122.4)"><use href="#b"/></g><path fill="#e57000" d="M69.8 64.5 35.6 27q-3-3.2-7-5a21 21 0 0 0-16.9-.2A21 21 0 0 0 5 26.3l34.8 38.2L5 102.7a21 21 0 0 0 30.6-.5zm7.6 0L111.7 27q3-3.2 7-5a21 21 0 0 1 16.8-.2q3.9 1.6 6.7 4.5l-34.7 38.2 34.7 38.2a21 21 0 0 1-30.5-.5z"/><path d="M218 26.6h-50q-3 .1-5 2.2c-2 2-2 3-2 5v68.9a19 19 0 0 0 18.9-19h38a19 19 0 0 0 19.1-19v-19a19 19 0 0 0-19.1-19m-38 40.5V45.8h33.3q.3-.2 2.4.5 2 .8 2.3 4.1v11.9l-.6 2.4q-.6 2.1-4 2.4zM324 60V45.8a19 19 0 0 0-19-19.2h-50a7 7 0 0 0-5 2.2q-2 2-2 5v68.9a19 19 0 0 0 19-19v-4.8h21.6l11 15.6a19 19 0 0 0 15.5 8.2 19 19 0 0 0 8.8-2.2l-15.3-21.8A19 19 0 0 0 324 60m-57 2.3V45.8h33.2q.3-.2 2.4.5 2.1.8 2.4 4.1v7.2l-.6 2.3q-.8 2.1-4.2 2.4zm124.7-35.7h-37.9q-8.1.2-13.4 5.7c-5.3 5.5-5.5 8-5.6 13.5v37.9a19 19 0 0 0 19 19h38a19 19 0 0 0 19-19v-38a19 19 0 0 0-19-19m0 52.3q.2.3-.6 2.4-.7 2.1-4.2 2.4h-28.3l-2.4-.6q-2.1-.8-2.4-4.2V50.4l.6-2.3q.8-2 4.2-2.3H387q.3-.2 2.4.5 2.1.8 2.4 4.1z"/><path fill="#e57000" d="M506.5 32a18 18 0 0 0-20.2-3.7 18 18 0 0 0-5.9 4.3l-16.4 18-16.5-18a17 17 0 0 0-13.1-5.9 18 18 0 0 0-12.8 5.4l29.6 32.6-29.6 32.5a18 18 0 0 0 26-.4l16.4-18 16.4 18a18 18 0 0 0 20.3 4.4q3.3-1.5 5.8-4l-29.6-32.5z"/><path d="M605.3 26.6h-12q-5.7.2-10.4 3.2-4.5 3-6.9 8.3l.1-.3-11.2 24.6-11-24.6v.3a19 19 0 0 0-17.4-11.5h-11.9q-3 .1-5 2.2s-2.1 3-2.1 5v68.9a19 19 0 0 0 19-19V47.3q0-.8.4-1.2t1.2-.4l.8.2q.4.2.6.6l21 46.5a5 5 0 0 0 4.4 2.8q1.4 0 2.6-.7c1.2-.7 1.3-1.2 1.8-2l21-46.6.7-.6q.4-.2.9-.2t1 .4.5 1.2v36.4a19 19 0 0 0 19 19V33.8q-.1-3-2-5c-2-2-3-2.1-5-2.2m74.8 0h-37.9q-8.1.2-13.4 5.7a19 19 0 0 0-5.6 13.5v37.9a19 19 0 0 0 19 19h38a19 19 0 0 0 19-19v-38a19 19 0 0 0-19-19m0 52.3q.2.3-.6 2.4-.7 2.1-4.2 2.4h-28.3l-2.4-.6q-2.1-.8-2.4-4.2V50.4l.6-2.3q.8-2 4.2-2.3h28.3q.3-.2 2.4.5 2.1.8 2.4 4.1z"/><path fill="#e57000" d="M795 32a18 18 0 0 0-20.2-3.7 18 18 0 0 0-5.9 4.3l-16.4 18-16.5-18a17 17 0 0 0-13.1-5.9 18 18 0 0 0-12.8 5.4l29.6 32.6-29.6 32.5a18 18 0 0 0 26-.4l16.4-18 16.4 18a18 18 0 0 0 20.3 4.4q3.4-1.5 5.8-4l-29.6-32.5z"/></svg>