<?xml version="1.0" encoding="UTF-8" standalone="no"?>
<!DOCTYPE svg PUBLIC "-//W3C//DTD SVG 1.1//EN" "http://www.w3.org/Graphics/SVG/1.1/DTD/svg11.dtd">
<svg version="1.1" xmlns="http://www.w3.org/2000/svg" xmlns:xlink="http://www.w3.org/1999/xlink" preserveAspectRatio="xMidYMid meet" viewBox="138.1923212326891 71.10800867082732 320.615006120867 70.61612425807049"><defs><path d="M142.28 74.53C147.73 69.47 156.56 73.42 161.88 76.63C165.3 78.69 168.63 81.2 171.81 83.96C176.75 80.22 186.83 73.05 195 72.35C190.11 73.33 182.73 77.62 173.02 86.26C206 65.48 192.42 87.57 182.9 100.64C162.19 78.99 144.04 72.02 140.03 77.83C140.5 76.61 141.23 75.5 142.28 74.53ZM150 138.48C154.9 137.5 162.27 133.21 171.98 124.57C139.01 145.35 152.58 123.26 162.1 110.19C182.81 131.84 200.96 138.81 204.97 133C204.5 134.22 203.77 135.34 202.72 136.31C197.27 141.36 188.44 137.42 183.12 134.21C179.7 132.14 176.37 129.63 173.19 126.87C168.25 130.61 158.18 137.78 150 138.48Z" id="a1ndVUXtWp"></path><path d="M141.61 135.64C136.55 130.18 140.5 121.35 143.71 116.04C145.77 112.62 148.28 109.29 151.05 106.11C147.3 101.16 140.13 91.09 139.43 82.92C140.42 87.81 144.7 95.19 153.35 104.89C132.57 71.92 154.65 85.5 167.73 95.01C146.08 115.73 139.1 133.87 144.91 137.88C143.69 137.42 142.58 136.69 141.61 135.64ZM203.39 75.19C208.45 80.65 204.5 89.48 201.29 94.8C199.23 98.22 196.72 101.55 193.96 104.73C197.7 109.67 204.87 119.74 205.57 127.91C204.58 123.02 200.3 115.64 191.65 105.94C212.43 138.91 190.35 125.33 177.27 115.82C198.92 95.1 205.9 76.96 200.09 72.95C201.31 73.41 202.42 74.14 203.39 75.19Z" id="emDVlcRJd"></path><path d="M316.74 132.53C316.74 132.76 316.78 132.96 316.85 133.12C316.92 133.28 317.01 133.41 317.14 133.52C317.26 133.62 317.41 133.7 317.58 133.75C317.75 133.8 317.93 133.84 318.13 133.86C318.32 133.88 318.53 133.89 318.74 133.89C318.95 133.89 320.57 133.89 320.77 133.89C320.99 133.89 321.2 133.89 321.41 133.87C321.62 133.85 321.82 133.82 322.01 133.77C322.19 133.72 322.35 133.64 322.49 133.54C322.63 133.44 322.74 133.3 322.82 133.12C322.9 132.95 322.94 132.73 322.94 132.47C322.94 132.43 322.94 132.15 322.94 132.12C322.94 131.81 322.88 131.56 322.74 131.36C322.6 131.17 322.38 131.02 322.08 130.93C321.78 130.83 321.4 130.79 320.92 130.79C320.71 130.79 318.98 130.79 318.76 130.79C318.48 130.79 318.25 130.77 318.07 130.75C317.89 130.72 317.76 130.67 317.66 130.6C317.57 130.53 317.5 130.45 317.47 130.33C317.43 130.23 317.42 130.09 317.42 129.93C317.42 129.71 317.45 129.54 317.52 129.41C317.59 129.28 317.69 129.18 317.84 129.12C317.99 129.05 318.19 129.01 318.43 128.99C318.68 128.98 318.98 128.97 319.33 128.97C319.4 128.97 320.02 128.97 320.1 128.97C320.42 128.97 320.69 128.97 320.92 128.98C321.14 129 321.33 129.01 321.47 129.04C321.62 129.07 321.74 129.11 321.83 129.15C321.91 129.2 321.98 129.27 322.02 129.34C322.06 129.41 322.09 129.5 322.1 129.61C322.11 129.72 322.12 129.84 322.12 129.98C322.17 129.98 322.4 129.98 322.81 129.98C322.81 129.87 322.81 129.81 322.81 129.8C322.81 129.6 322.79 129.43 322.75 129.28C322.7 129.13 322.63 128.99 322.53 128.88C322.43 128.77 322.3 128.67 322.12 128.6C321.95 128.52 321.73 128.47 321.47 128.43C321.21 128.39 320.9 128.37 320.54 128.37C320.38 128.37 319.13 128.37 318.97 128.37C318.59 128.37 318.26 128.39 317.98 128.43C317.7 128.48 317.47 128.55 317.29 128.66C317.1 128.77 316.96 128.93 316.87 129.12C316.78 129.32 316.73 129.57 316.73 129.88C316.73 130.16 316.76 130.4 316.83 130.59C316.89 130.78 316.99 130.93 317.13 131.05C317.27 131.16 317.46 131.25 317.69 131.31C317.92 131.36 318.2 131.4 318.53 131.42C318.86 131.44 319.25 131.45 319.69 131.44C319.83 131.44 320.94 131.44 321.08 131.44C321.31 131.44 321.49 131.46 321.65 131.48C321.8 131.51 321.92 131.55 322.01 131.61C322.1 131.68 322.16 131.77 322.2 131.88C322.24 131.99 322.26 132.13 322.26 132.29C322.26 132.49 322.24 132.65 322.19 132.78C322.15 132.91 322.07 133.01 321.97 133.09C321.86 133.16 321.72 133.21 321.55 133.25C321.37 133.28 321.15 133.3 320.88 133.29C320.66 133.29 318.84 133.29 318.62 133.29C318.39 133.29 318.2 133.28 318.05 133.25C317.9 133.21 317.77 133.17 317.68 133.1C317.59 133.04 317.52 132.95 317.48 132.86C317.44 132.76 317.42 132.64 317.43 132.51C317.43 132.49 317.43 132.36 317.43 132.13L316.74 132.13C316.74 132.34 316.74 132.47 316.74 132.53ZM326.37 133.83L327.1 133.83L327.1 129.03L329.83 129.03L329.83 128.43L323.64 128.43L323.64 129.03L326.37 129.03L326.37 133.83ZM336.76 132.15C336.76 132.38 336.73 132.57 336.66 132.72C336.6 132.87 336.51 132.99 336.39 133.07C336.27 133.16 336.14 133.21 335.99 133.25C335.84 133.28 335.67 133.3 335.49 133.29C335.2 133.29 332.83 133.29 332.53 133.29C332.36 133.3 332.19 133.28 332.04 133.25C331.89 133.21 331.75 133.16 331.64 133.07C331.52 132.99 331.43 132.87 331.37 132.72C331.3 132.57 331.27 132.38 331.27 132.15C331.27 131.94 331.27 130.32 331.27 130.12C331.27 129.88 331.3 129.69 331.37 129.54C331.43 129.39 331.52 129.27 331.64 129.19C331.75 129.11 331.89 129.05 332.04 129.02C332.19 128.98 332.36 128.97 332.53 128.97C332.83 128.97 335.2 128.97 335.49 128.97C335.67 128.97 335.84 128.98 335.99 129.02C336.14 129.05 336.27 129.11 336.39 129.19C336.51 129.27 336.6 129.39 336.66 129.54C336.73 129.69 336.76 129.88 336.76 130.12C336.76 130.52 336.76 131.74 336.76 132.15ZM330.53 131.87C330.53 132.21 330.56 132.51 330.63 132.76C330.7 133.01 330.8 133.22 330.95 133.39C331.1 133.56 331.29 133.68 331.54 133.77C331.79 133.85 332.09 133.89 332.46 133.89C332.77 133.89 335.26 133.89 335.57 133.89C335.93 133.89 336.24 133.85 336.49 133.77C336.73 133.68 336.93 133.56 337.08 133.39C337.23 133.22 337.33 133.01 337.4 132.76C337.46 132.51 337.49 132.21 337.49 131.87C337.49 131.72 337.49 130.54 337.49 130.39C337.49 130.05 337.46 129.75 337.4 129.5C337.33 129.25 337.23 129.04 337.08 128.87C336.93 128.7 336.73 128.58 336.49 128.5C336.24 128.41 335.93 128.37 335.57 128.37C335.26 128.37 332.77 128.37 332.46 128.37C332.09 128.37 331.79 128.41 331.54 128.5C331.29 128.58 331.1 128.7 330.95 128.87C330.8 129.04 330.7 129.25 330.63 129.5C330.56 129.75 330.53 130.05 330.53 130.39C330.53 130.69 330.53 131.57 330.53 131.87ZM338.74 133.83L339.47 133.83L339.47 131.7C341.61 131.7 342.79 131.7 343.03 131.7C343.2 131.7 343.35 131.71 343.48 131.73C343.61 131.75 343.72 131.79 343.82 131.86C343.91 131.92 343.98 132.02 344.03 132.14C344.08 132.27 344.11 132.44 344.11 132.65C344.11 132.72 344.11 133.12 344.11 133.83L344.79 133.83C344.79 133 344.79 132.54 344.79 132.45C344.79 132.33 344.78 132.21 344.75 132.1C344.73 132 344.68 131.9 344.61 131.81C344.54 131.72 344.45 131.65 344.33 131.58C344.21 131.52 344.05 131.47 343.87 131.44C343.87 131.44 343.87 131.42 343.87 131.42C344.01 131.41 344.14 131.39 344.26 131.35C344.38 131.31 344.48 131.25 344.57 131.18C344.66 131.1 344.73 131 344.78 130.87C344.83 130.75 344.86 130.59 344.86 130.4C344.86 130.36 344.86 130.01 344.86 129.96C344.86 129.76 344.85 129.58 344.82 129.41C344.79 129.25 344.74 129.11 344.67 128.98C344.6 128.86 344.5 128.76 344.36 128.68C344.23 128.6 344.06 128.54 343.84 128.49C343.63 128.45 343.37 128.43 343.05 128.43C342.77 128.43 341.33 128.43 338.74 128.43L338.74 133.83ZM339.47 131.1L339.47 129.03C341.46 129.03 342.57 129.03 342.79 129.03C343.06 129.03 343.28 129.04 343.45 129.07C343.63 129.1 343.77 129.14 343.86 129.2C343.96 129.26 344.03 129.34 344.07 129.45C344.11 129.55 344.13 129.68 344.13 129.83C344.13 129.88 344.13 130.27 344.13 130.32C344.13 130.51 344.09 130.66 344.01 130.77C343.93 130.89 343.8 130.97 343.63 131.02C343.46 131.08 343.24 131.1 342.97 131.1C342.51 131.1 341.34 131.1 339.47 131.1ZM345.54 133.83L346.37 133.83L347.04 132.69L351.36 132.69L352.03 133.83L352.86 133.83L349.65 128.43L348.74 128.43L345.54 133.83ZM351.01 132.09L347.39 132.09L349.2 129.03L351.01 132.09ZM360.31 131.15L356.81 131.15L356.81 131.75L359.58 131.75C359.58 132.08 359.58 132.26 359.58 132.29C359.58 132.54 359.53 132.74 359.44 132.89C359.34 133.03 359.21 133.14 359.03 133.2C358.86 133.26 358.65 133.3 358.4 133.29C358.12 133.29 355.83 133.29 355.54 133.29C355.37 133.3 355.2 133.28 355.05 133.25C354.9 133.21 354.76 133.16 354.65 133.07C354.53 132.99 354.44 132.87 354.38 132.72C354.31 132.57 354.28 132.38 354.28 132.15C354.28 131.94 354.28 130.32 354.28 130.12C354.28 129.88 354.31 129.69 354.38 129.54C354.44 129.39 354.53 129.27 354.65 129.19C354.76 129.11 354.9 129.05 355.05 129.02C355.2 128.98 355.37 128.97 355.54 128.97C355.73 128.97 357.25 128.97 357.44 128.97C357.8 128.97 358.1 128.97 358.35 128.99C358.6 129 358.8 129.02 358.96 129.06C359.12 129.1 359.24 129.16 359.33 129.24C359.41 129.31 359.47 129.42 359.5 129.55C359.54 129.68 359.55 129.85 359.55 130.05C359.6 130.05 359.82 130.05 360.24 130.05C360.24 129.93 360.24 129.87 360.24 129.86C360.23 129.61 360.2 129.4 360.12 129.22C360.04 129.05 359.94 128.91 359.81 128.8C359.68 128.68 359.53 128.6 359.35 128.54C359.18 128.47 359 128.43 358.81 128.41C358.62 128.38 358.42 128.37 358.23 128.37C357.95 128.37 355.75 128.37 355.47 128.37C355.11 128.37 354.8 128.41 354.55 128.5C354.31 128.58 354.11 128.7 353.96 128.87C353.81 129.04 353.71 129.25 353.64 129.5C353.58 129.75 353.55 130.05 353.55 130.39C353.55 130.54 353.55 131.72 353.55 131.87C353.55 132.21 353.58 132.51 353.64 132.76C353.71 133.01 353.81 133.22 353.96 133.39C354.11 133.56 354.31 133.68 354.55 133.77C354.8 133.85 355.11 133.89 355.47 133.89C355.77 133.89 358.18 133.89 358.48 133.89C358.82 133.89 359.1 133.86 359.34 133.79C359.57 133.72 359.76 133.6 359.9 133.45C360.05 133.29 360.15 133.09 360.21 132.83C360.28 132.58 360.31 132.27 360.31 131.9C360.31 131.8 360.31 131.55 360.31 131.15ZM361.6 133.83L366.93 133.83L366.93 133.23L362.33 133.23L362.33 131.35L366.72 131.35L366.72 130.75L362.33 130.75L362.33 129.03L366.9 129.03L366.9 128.43L361.6 128.43L361.6 133.83ZM371.59 133.83L372.32 133.83L372.32 129.09L372.34 129.09L375.63 133.83L376.15 133.83L379.44 129.09L379.45 129.09L379.45 133.83L380.18 133.83L380.18 128.43L379.04 128.43L375.89 132.96L372.73 128.43L371.59 128.43L371.59 133.83ZM380.97 133.83L381.79 133.83L382.46 132.69L386.79 132.69L387.46 133.83L388.29 133.83L385.08 128.43L384.17 128.43L380.97 133.83ZM386.44 132.09L382.82 132.09L384.63 129.03L386.44 132.09ZM395.01 131.42C395.01 131.74 394.98 132.01 394.94 132.23C394.89 132.45 394.82 132.63 394.74 132.76C394.65 132.89 394.54 132.99 394.42 133.06C394.3 133.13 394.16 133.18 394.01 133.2C393.85 133.22 393.69 133.24 393.51 133.23C393.26 133.23 392.03 133.23 389.8 133.23L389.8 129.03C392.1 129.03 393.37 129.03 393.63 129.03C393.81 129.03 393.97 129.04 394.12 129.07C394.26 129.1 394.39 129.15 394.5 129.23C394.61 129.3 394.7 129.41 394.78 129.55C394.85 129.69 394.91 129.86 394.95 130.08C394.99 130.3 395.01 130.56 395.01 130.87C395.01 130.98 395.01 131.31 395.01 131.42ZM389.07 133.83C391.68 133.83 393.12 133.83 393.41 133.83C393.78 133.83 394.09 133.8 394.36 133.74C394.62 133.68 394.84 133.58 395.02 133.45C395.2 133.32 395.34 133.15 395.45 132.94C395.55 132.73 395.63 132.47 395.67 132.17C395.72 131.87 395.74 131.53 395.74 131.13C395.74 130.71 395.72 130.34 395.67 130.03C395.63 129.72 395.55 129.47 395.45 129.26C395.35 129.05 395.21 128.89 395.03 128.77C394.85 128.65 394.63 128.56 394.37 128.51C394.11 128.46 393.8 128.43 393.43 128.43C393.14 128.43 391.69 128.43 389.07 128.43L389.07 133.83ZM397.03 133.83L402.36 133.83L402.36 133.23L397.76 133.23L397.76 131.35L402.15 131.35L402.15 130.75L397.76 130.75L397.76 129.03L402.33 129.03L402.33 128.43L397.03 128.43L397.03 133.83ZM406.93 132.53C406.93 132.76 406.97 132.96 407.04 133.12C407.11 133.28 407.2 133.41 407.33 133.52C407.46 133.62 407.6 133.7 407.77 133.75C407.94 133.8 408.12 133.84 408.32 133.86C408.52 133.88 408.72 133.89 408.94 133.89C409.14 133.89 410.76 133.89 410.97 133.89C411.18 133.89 411.4 133.89 411.61 133.87C411.82 133.85 412.01 133.82 412.2 133.77C412.38 133.72 412.54 133.64 412.68 133.54C412.82 133.44 412.93 133.3 413.01 133.12C413.09 132.95 413.13 132.73 413.14 132.47C413.14 132.43 413.14 132.15 413.14 132.12C413.14 131.81 413.07 131.56 412.93 131.36C412.79 131.17 412.57 131.02 412.27 130.93C411.97 130.83 411.59 130.79 411.11 130.79C410.9 130.79 409.17 130.79 408.95 130.79C408.67 130.79 408.44 130.77 408.26 130.75C408.08 130.72 407.95 130.67 407.85 130.6C407.76 130.53 407.69 130.45 407.66 130.33C407.62 130.23 407.61 130.09 407.61 129.93C407.61 129.71 407.64 129.54 407.71 129.41C407.78 129.28 407.89 129.18 408.04 129.12C408.19 129.05 408.38 129.01 408.63 128.99C408.87 128.98 409.17 128.97 409.52 128.97C409.6 128.97 410.22 128.97 410.29 128.97C410.61 128.97 410.88 128.97 411.11 128.98C411.33 129 411.52 129.01 411.67 129.04C411.81 129.07 411.93 129.11 412.02 129.15C412.11 129.2 412.17 129.27 412.21 129.34C412.25 129.41 412.28 129.5 412.29 129.61C412.31 129.72 412.31 129.84 412.31 129.98C412.36 129.98 412.59 129.98 413 129.98C413 129.87 413 129.81 413 129.8C413 129.6 412.98 129.43 412.94 129.28C412.9 129.13 412.83 128.99 412.73 128.88C412.62 128.77 412.49 128.67 412.31 128.6C412.14 128.52 411.93 128.47 411.67 128.43C411.41 128.39 411.1 128.37 410.73 128.37C410.58 128.37 409.32 128.37 409.16 128.37C408.78 128.37 408.46 128.39 408.18 128.43C407.9 128.48 407.66 128.55 407.48 128.66C407.29 128.77 407.15 128.93 407.06 129.12C406.97 129.32 406.92 129.57 406.92 129.88C406.92 130.16 406.95 130.4 407.02 130.59C407.08 130.78 407.18 130.93 407.32 131.05C407.46 131.16 407.65 131.25 407.88 131.31C408.11 131.36 408.39 131.4 408.72 131.42C409.05 131.44 409.44 131.45 409.88 131.44C410.02 131.44 411.13 131.44 411.27 131.44C411.5 131.44 411.69 131.46 411.84 131.48C411.99 131.51 412.11 131.55 412.2 131.61C412.29 131.68 412.36 131.77 412.39 131.88C412.43 131.99 412.45 132.13 412.45 132.29C412.45 132.49 412.43 132.65 412.38 132.78C412.34 132.91 412.27 133.01 412.16 133.09C412.06 133.16 411.92 133.21 411.74 133.25C411.56 133.28 411.34 133.3 411.08 133.29C410.85 133.29 409.04 133.29 408.81 133.29C408.58 133.29 408.39 133.28 408.24 133.25C408.09 133.21 407.96 133.17 407.87 133.1C407.78 133.04 407.72 132.95 407.68 132.86C407.64 132.76 407.62 132.64 407.62 132.51C407.62 132.49 407.62 132.36 407.62 132.13L406.93 132.13C406.93 132.34 406.93 132.47 406.93 132.53ZM414.45 133.83L415.18 133.83L415.18 128.43L414.45 128.43L414.45 133.83ZM416.59 133.83L417.32 133.83L417.32 129.09L417.33 129.09L420.62 133.83L421.14 133.83L424.43 129.09L424.45 129.09L424.45 133.83L425.18 133.83L425.18 128.43L424.04 128.43L420.88 132.96L417.73 128.43L416.59 128.43L416.59 133.83ZM426.57 133.83L427.3 133.83L427.3 131.71C429.44 131.71 430.63 131.71 430.87 131.71C431.18 131.71 431.45 131.68 431.65 131.63C431.86 131.59 432.03 131.51 432.15 131.42C432.27 131.32 432.36 131.2 432.42 131.05C432.48 130.91 432.51 130.74 432.53 130.55C432.55 130.36 432.56 130.14 432.55 129.9C432.55 129.65 432.53 129.44 432.49 129.27C432.44 129.09 432.38 128.95 432.29 128.84C432.21 128.73 432.1 128.65 431.98 128.59C431.85 128.53 431.71 128.49 431.55 128.46C431.39 128.44 431.21 128.43 431.01 128.43C430.71 128.43 429.23 128.43 426.57 128.43L426.57 133.83ZM431.82 130.34C431.82 130.53 431.78 130.68 431.71 130.79C431.64 130.9 431.53 130.98 431.4 131.03C431.26 131.09 431.09 131.11 430.9 131.11C430.66 131.11 429.46 131.11 427.3 131.11L427.3 129.03C429.42 129.03 430.6 129.03 430.84 129.03C431.05 129.03 431.23 129.05 431.38 129.09C431.52 129.14 431.63 129.22 431.71 129.33C431.78 129.45 431.82 129.61 431.82 129.83C431.82 129.93 431.82 130.24 431.82 130.34ZM433.57 133.83L438.49 133.83L438.49 133.23L434.3 133.23L434.3 128.43L433.57 128.43L433.57 133.83ZM439.27 133.83L444.6 133.83L444.6 133.23L440 133.23L440 131.35L444.39 131.35L444.39 130.75L440 130.75L440 129.03L444.57 129.03L444.57 128.43L439.27 128.43L439.27 133.83ZM446.38 133.83L447.21 133.83L447.21 132.91L446.38 132.91L446.38 133.83Z" id="cQYjh4C5h"></path><path d="M243.2 109.73C242.46 112.21 239.97 114.06 237.04 114.06C237.03 114.06 236.96 114.06 236.83 114.06L234.22 114.06C231.77 114.06 230.4 114.06 230.13 114.06C226.62 114.06 223.75 111.43 223.75 108.22C223.75 107.52 223.75 101.94 223.75 101.24C223.75 98.02 226.62 95.39 230.13 95.39C230.82 95.39 236.35 95.39 237.04 95.39C240.55 95.39 243.42 98.02 243.42 101.24C243.42 101.94 243.42 107.52 243.42 108.22C243.42 108.74 243.34 109.24 243.2 109.73C243.2 109.73 243.2 109.73 243.2 109.73ZM375.47 107.41L374.4 106.32L369.83 110.98L370.9 112.07L373.75 114.97L373.75 114.97L378.98 120.29L388.12 120.29L378.37 110.37L375.47 107.41ZM236.83 120.29C236.96 120.29 237.03 120.29 237.04 120.29C243.36 120.29 248.68 116.15 249.93 110.69C249.94 110.68 249.94 110.67 249.94 110.65L249.95 110.61L249.96 110.57L249.96 110.55L249.97 110.54L249.97 110.5L249.98 110.46L249.99 110.42L250 110.39L250.01 110.35L250.03 110.23L250.03 110.2L250.04 110.16L250.05 110.12L250.05 110.08L250.06 110.05L250.07 109.97L250.08 109.93L250.09 109.89L250.09 109.86L250.1 109.82L250.1 109.78L250.11 109.74L250.11 109.73C250.11 109.73 250.11 109.73 250.11 109.73C250.18 109.23 250.21 108.73 250.21 108.22C250.21 108.16 250.21 107.87 250.21 107.34C250.7 107.46 250.97 107.52 251.03 107.54C251.87 107.74 252.74 107.84 253.61 107.84C255.03 107.84 266.37 107.84 267.78 107.84C269.65 107.84 271.18 109.24 271.18 110.95C271.18 112.66 269.65 114.06 267.78 114.06C266.22 114.06 253.73 114.06 252.16 114.06C251.01 116.56 249.14 118.7 246.81 120.29C248.91 120.29 265.69 120.29 267.78 120.29C273.39 120.29 277.97 116.09 277.97 110.95C277.97 105.82 273.39 101.61 267.78 101.61C266.37 101.61 255.03 101.61 253.61 101.61C251.74 101.61 250.21 100.21 250.21 98.5C250.21 96.79 251.74 95.39 253.61 95.39C254.93 95.39 261.54 95.39 273.43 95.39L273.43 89.16C261.54 89.16 254.93 89.16 253.61 89.16C250.87 89.16 248.28 90.17 246.36 91.95C246.34 91.98 246.2 92.11 245.94 92.34C245.67 92.13 245.51 92.01 245.48 91.99C243.11 90.16 240.14 89.16 237.04 89.16C236.35 89.16 230.82 89.16 230.13 89.16C222.89 89.16 216.96 94.6 216.96 101.24C216.96 101.94 216.96 107.52 216.96 108.22C216.96 114.86 222.89 120.29 230.13 120.29C230.4 120.29 231.77 120.29 234.22 120.29L236.83 120.29Z" id="c5drHiYTy"></path><path d="M362.75 94.46L362.75 94.46C361.81 93.5 361.29 92.97 361.18 92.86C358.7 90.5 355.3 89.16 351.71 89.16C348.8 89.16 325.45 89.16 322.53 89.16C315.29 89.16 309.36 94.6 309.36 101.24C309.36 102.02 309.36 105.92 309.36 112.95C300.71 101.79 295.9 95.59 294.94 94.35C292.47 91.11 288.46 89.16 284.14 89.16C283.97 89.16 283.13 89.16 281.6 89.16L281.6 120.29L288.4 120.29L288.4 96.5C297.05 107.67 301.86 113.87 302.82 115.11C305.29 118.34 309.3 120.29 313.62 120.29C313.79 120.29 314.64 120.29 316.16 120.29C316.16 108.86 316.16 102.51 316.16 101.24C316.16 98.02 319.03 95.39 322.53 95.39C325.45 95.39 348.8 95.39 351.71 95.39C353.36 95.39 354.94 95.99 356.15 97.05C356.28 97.18 356.94 97.85 358.13 99.06L358.13 99.06L362.1 103.11L366.67 98.45L365.62 97.38L364.76 96.51L362.75 94.46ZM363.3 105.13C359.02 109.49 356.64 111.91 356.16 112.4C354.97 113.46 353.38 114.06 351.71 114.06C349.92 114.06 335.57 114.06 333.78 114.06C330.39 114.06 327.55 111.56 327.41 108.46C327.41 108.42 327.4 108.21 327.38 107.84L351.92 107.84L351.92 101.61L320.61 101.61L320.61 108.21C320.61 108.34 320.61 108.41 320.61 108.43C320.73 114.98 326.63 120.29 333.78 120.29C335.57 120.29 349.92 120.29 351.71 120.29C355.3 120.29 358.69 118.95 361.17 116.6C361.61 116.15 363.82 113.91 367.78 109.87L373.22 104.33C377.47 100 379.83 97.6 380.3 97.12C381.5 96.02 383.12 95.39 384.82 95.39C384.87 95.39 385.11 95.39 385.55 95.39C385.55 103.09 385.55 107.36 385.55 108.22C385.55 114.86 391.48 120.29 398.72 120.29C399.21 120.29 401.67 120.29 406.08 120.29L406.28 120.29L406.62 120.29L406.65 120.29L406.95 120.28L406.99 120.28L407.24 120.26L407.37 120.25L407.55 120.24L407.68 120.22L407.86 120.21L408 120.19L408.03 120.19L408.28 120.15L408.29 120.15L408.6 120.1L408.61 120.1L408.88 120.05L408.89 120.05L409.09 120.01L409.19 120L409.36 119.96L409.5 119.93L409.65 119.89L409.77 119.86L409.95 119.81L409.99 119.8L410.19 119.75L410.21 119.74L410.4 119.68L410.5 119.66L410.52 119.65L410.79 119.56L410.8 119.56L411.05 119.47L411.1 119.45L411.31 119.37L411.35 119.36L411.49 119.3L411.62 119.25L411.78 119.19L411.91 119.13L412.02 119.08L412.2 119L412.27 118.97L412.32 118.94L412.55 118.83L412.57 118.82L412.81 118.7L412.83 118.69L413.05 118.57L413.06 118.56L413.25 118.45L413.3 118.43L413.47 118.32L413.57 118.26L413.69 118.19L413.81 118.11L413.96 118.01L414.02 117.98L414.18 117.87L414.2 117.85L414.4 117.71L414.42 117.7L414.63 117.54L414.65 117.53L414.84 117.38L414.86 117.37L415.02 117.24L415.06 117.2L415.22 117.07L415.28 117.01L415.45 116.87L415.47 116.85L415.64 116.7C415.67 116.67 415.68 116.65 415.69 116.65C415.93 116.42 416.16 116.19 416.39 115.94C416.39 115.94 416.39 115.94 416.4 115.93L416.52 115.79L416.6 115.71L416.69 115.6L416.78 115.5L416.88 115.37L416.95 115.29L417.05 115.16C417.09 115.1 417.11 115.07 417.12 115.07C417.36 114.74 417.59 114.4 417.8 114.06C417.8 114.06 417.8 114.05 417.8 114.05C417.89 113.91 417.98 113.76 418.06 113.62C418.06 113.61 418.07 113.6 418.08 113.58L418.18 113.38L418.2 113.35L418.3 113.14L418.42 112.91L418.42 112.91C418.48 112.76 418.52 112.68 418.52 112.67C418.8 112.03 419.02 111.37 419.18 110.69C419.18 110.69 419.18 110.69 419.18 110.69C419.36 109.89 419.46 109.06 419.46 108.22C419.46 108.16 419.46 107.87 419.46 107.34C419.95 107.46 420.22 107.52 420.27 107.54C421.11 107.74 421.98 107.84 422.85 107.84C424.27 107.84 435.61 107.84 437.03 107.84C438.89 107.84 440.42 109.24 440.42 110.95C440.42 112.66 438.89 114.06 437.03 114.06C435.46 114.06 422.97 114.06 421.41 114.06C420.25 116.56 418.39 118.7 416.06 120.29C418.15 120.29 434.93 120.29 437.03 120.29C442.63 120.29 447.22 116.09 447.22 110.95C447.22 105.82 442.63 101.61 437.03 101.61C435.61 101.61 424.27 101.61 422.85 101.61C420.98 101.61 419.46 100.21 419.46 98.5C419.46 96.79 420.98 95.39 422.85 95.39C424.22 95.39 431.04 95.39 443.32 95.39L443.32 89.16C431.04 89.16 424.22 89.16 422.85 89.16C417.29 89.16 412.72 93.3 412.66 98.39C412.66 101.67 412.66 104.94 412.66 108.22C412.66 109.13 412.43 110 412.01 110.78C412.01 110.78 412.01 110.78 412.01 110.78L411.96 110.87L411.95 110.87L411.9 110.96L411.88 110.99L411.85 111.05L411.83 111.07L411.79 111.14L411.74 111.23L411.73 111.24L411.68 111.32L411.63 111.39L411.62 111.4L411.56 111.47L411.55 111.49L411.49 111.57L411.48 111.59L411.42 111.65L411.38 111.7L411.36 111.74L411.29 111.82L411.29 111.82L411.22 111.9L411.16 111.96L411.15 111.97L411.1 112.03L411.08 112.05L411 112.13L410.99 112.14L410.93 112.2L410.89 112.24L410.85 112.28L410.78 112.34L410.77 112.35L410.69 112.42L410.67 112.44L410.61 112.49L410.56 112.53L410.53 112.56L410.45 112.63L410.44 112.63L410.36 112.69L410.33 112.72L410.28 112.76L410.26 112.77L410.19 112.82L410.1 112.88L410.09 112.89L410.01 112.95L409.96 112.98L409.92 113L409.84 113.06L409.83 113.06L409.73 113.12L409.71 113.13L409.64 113.17L409.58 113.21L409.54 113.23L409.45 113.28L409.44 113.28L409.35 113.33L409.31 113.35L409.25 113.38L409.17 113.42L409.15 113.43L409.05 113.47L409.04 113.48L409.01 113.49L408.9 113.54L408.85 113.56L408.75 113.6L408.75 113.6L408.64 113.64L408.61 113.65L408.54 113.68L408.46 113.7L408.43 113.72L408.32 113.75L408.32 113.75L408.22 113.78L408.17 113.8L408.11 113.81L408.02 113.84L408 113.84L407.89 113.87L407.87 113.88L407.78 113.9L407.71 113.91L407.67 113.92L407.56 113.94L407.56 113.94L407.44 113.96L407.4 113.97L407.33 113.98L407.25 113.99L407.22 114L407.1 114.01L407.09 114.02L406.99 114.03L406.93 114.03L406.87 114.04L406.77 114.05L406.75 114.05L406.64 114.05L406.61 114.05L406.52 114.06L406.45 114.06L406.4 114.06L406.28 114.06L406.08 114.06C401.66 114.06 399.21 114.06 398.72 114.06C395.23 114.06 392.35 111.42 392.35 108.22C392.35 106.95 392.35 100.6 392.35 89.16C387.83 89.16 385.32 89.16 384.82 89.16C381.23 89.16 377.84 90.5 375.36 92.86C374.89 93.34 372.53 95.73 368.29 100.05L363.3 105.13ZM448.55 115.02C448.75 114.56 449.02 114.17 449.35 113.83C449.69 113.5 450.09 113.23 450.55 113.05C451.01 112.86 451.51 112.76 452.03 112.76C452.57 112.76 453.06 112.86 453.52 113.05C453.98 113.23 454.38 113.5 454.72 113.83C455.05 114.17 455.32 114.56 455.52 115.02C455.71 115.48 455.81 115.98 455.81 116.53C455.81 117.07 455.71 117.57 455.52 118.03C455.32 118.49 455.06 118.89 454.72 119.22C454.38 119.56 453.98 119.82 453.52 120.01C453.06 120.19 452.57 120.29 452.03 120.29C451.51 120.29 451.01 120.19 450.55 120.01C450.09 119.82 449.69 119.55 449.35 119.22C449.02 118.89 448.75 118.49 448.55 118.03C448.36 117.57 448.26 117.07 448.26 116.53C448.26 115.98 448.36 115.48 448.55 115.02ZM449.29 117.72C449.43 118.08 449.63 118.41 449.89 118.68C450.15 118.95 450.46 119.16 450.82 119.32C451.18 119.48 451.59 119.56 452.03 119.56C452.48 119.56 452.89 119.48 453.25 119.32C453.61 119.17 453.92 118.95 454.18 118.68C454.44 118.41 454.64 118.08 454.78 117.72C454.92 117.34 454.99 116.95 454.99 116.53C454.99 116.11 454.92 115.71 454.78 115.34C454.64 114.97 454.44 114.65 454.18 114.38C453.92 114.1 453.61 113.89 453.25 113.73C452.89 113.57 452.48 113.49 452.03 113.49C451.59 113.49 451.18 113.57 450.82 113.73C450.46 113.89 450.15 114.1 449.89 114.38C449.63 114.65 449.43 114.97 449.29 115.34C449.15 115.71 449.08 116.11 449.08 116.53C449.08 116.95 449.15 117.34 449.29 117.72ZM453.65 118.43L452.76 118.43L451.82 116.95L451.42 116.95L451.42 118.43L450.65 118.43L450.65 114.57C451.45 114.57 451.89 114.57 451.98 114.57C452.18 114.57 452.38 114.59 452.57 114.63C452.76 114.67 452.92 114.74 453.07 114.83C453.22 114.92 453.34 115.05 453.42 115.19C453.51 115.34 453.55 115.52 453.55 115.74C453.55 116.05 453.47 116.3 453.29 116.48C453.12 116.66 452.88 116.78 452.59 116.84C452.59 116.84 452.94 117.37 453.65 118.43ZM451.42 115.23L451.42 116.29C451.68 116.29 451.82 116.29 451.85 116.29C452.15 116.29 452.37 116.25 452.52 116.17C452.67 116.08 452.74 115.94 452.74 115.74C452.74 115.59 452.69 115.47 452.59 115.38C452.49 115.28 452.31 115.23 452.05 115.23C451.97 115.23 451.76 115.23 451.42 115.23Z" id="avFG2Ul2y"></path></defs><g><g><use xlink:href="#a1ndVUXtWp" opacity="1" fill="#93bf2c" fill-opacity="1"></use><g><use xlink:href="#a1ndVUXtWp" opacity="1" fill-opacity="0" stroke="#000000" stroke-width="1" stroke-opacity="0"></use></g></g><g><use xlink:href="#emDVlcRJd" opacity="1" fill="#0d0d10" fill-opacity="1"></use><g><use xlink:href="#emDVlcRJd" opacity="1" fill-opacity="0" stroke="#000000" stroke-width="1" stroke-opacity="0"></use></g></g><g><use xlink:href="#cQYjh4C5h" opacity="1" fill="#0d0d10" fill-opacity="1"></use><g><use xlink:href="#cQYjh4C5h" opacity="1" fill-opacity="0" stroke="#000000" stroke-width="1" stroke-opacity="0"></use></g></g><g><use xlink:href="#c5drHiYTy" opacity="1" fill="#93bf2c" fill-opacity="1"></use><g><use xlink:href="#c5drHiYTy" opacity="1" fill-opacity="0" stroke="#000000" stroke-width="1" stroke-opacity="0"></use></g></g><g><use xlink:href="#avFG2Ul2y" opacity="1" fill="#0d0d10" fill-opacity="1"></use><g><use xlink:href="#avFG2Ul2y" opacity="1" fill-opacity="0" stroke="#000000" stroke-width="1" stroke-opacity="0"></use></g></g></g></svg>
