<svg xmlns="http://www.w3.org/2000/svg" preserveAspectRatio="xMidYMid" viewBox="138.2 71.1 316.6 66.6"><defs><path id="e" d="M142.3 74.5c5.4-5 14.3-1 19.6 2.1a72 72 0 0 1 10 7.4c4.8-3.8 15-11 23.1-11.7-4.9 1-12.3 5.3-22 14 33-20.8 19.4 1.3 9.9 14.3C162.2 79 144 72 140 77.8a9 9 0 0 1 2.3-3.3m7.7 64c4.9-1 12.3-5.3 22-14-33 20.9-19.4-1.2-9.9-14.3 20.7 21.6 38.9 28.6 42.9 22.8a9 9 0 0 1-2.3 3.3c-5.4 5-14.3 1.1-19.6-2a73 73 0 0 1-10-7.4c-4.8 3.7-15 10.9-23.1 11.6"/><path id="c" d="M141.6 135.6c-5-5.4-1.1-14.3 2.1-19.6q3.1-5.1 7.4-9.9c-3.8-5-11-15-11.7-23.2 1 5 5.3 12.3 14 22-20.8-33 1.2-19.4 14.3-9.9-21.6 20.7-28.6 38.9-22.8 42.9a9 9 0 0 1-3.3-2.3m61.8-60.4c5 5.4 1.1 14.3-2.1 19.6a72 72 0 0 1-7.3 10c3.7 4.9 10.9 15 11.6 23.1-1-4.9-5.3-12.3-14-22 20.8 33-1.2 19.4-14.3 10 21.6-20.8 28.6-39 22.8-43q1.8.7 3.3 2.3"/><path id="b" d="M316.7 132.5q0 .5.2.6a1 1 0 0 0 .7.7h4.4q.3 0 .5-.3l.3-.4.1-.6v-.4q0-.4-.2-.7t-.6-.5l-1.2-.1h-2.8l-.4-.2q-.2 0-.2-.3v-.9l.3-.3.6-.1h3.1l.3.2.2.1.1.3v.4h.7v-.7l-.3-.4-.4-.3-.6-.2H318l-.7.3-.4.4-.2.8.1.7q0 .3.3.5l.6.2.8.1h3.1l.4.2.2.3v.9l-.2.3-.5.2H318l-.3-.2-.2-.2v-.8h-.8zm9.7 1.3h.7V129h2.7v-.6h-6.2v.6h2.8zm10.4-1.6-.1.5-.3.4-.4.1h-4l-.4-.1-.2-.4-.1-.5v-2.7l.3-.3.4-.2h4l.4.2.3.3v2.6m-6.3-.3.1.9.3.6.6.4h5l.6-.4.3-.6v-3.3l-.3-.6-.6-.4-1-.1h-3l-1 .1q-.3 0-.6.4l-.3.6zm8.2 2h.8v-2.2h4q.2 0 .3.2l.2.2.1.6v1.1h.7V132l-.2-.3-.3-.2-.4-.2h.4l.3-.2.2-.3v-1.5l-.1-.4-.3-.3-.6-.2h-5.1zm.8-2.8v-2h3.9l.5.1.2.3v1.3l-.5.2-.6.1zm6 2.7h.9l.6-1.1h4.4l.6 1.1h.9l-3.3-5.4h-.9zm5.5-1.7h-3.6l1.8-3zm9.3-1h-3.5v.7h2.8v.5l-.2.6-.4.3h-4l-.4-.1-.2-.4-.1-.5v-2.7l.3-.3.4-.2h4l.3.2.2.4v.5h.7v-.9l-.4-.4-.5-.3h-.5l-.6-.1h-2.7l-1 .1q-.3 0-.5.4-.3.2-.4.6v3.3l.4.6q.2.3.6.4h4.7q.4 0 .6-.3.3-.3.3-.7l.1-.9zm1.3 2.7h5.3v-.6h-4.6v-1.8h4.4v-.6h-4.4V129h4.6v-.6h-5.3zm10 0h.7V129l3.3 4.7h.6l3.2-4.7v4.7h.8v-5.4H379l-3 4.7-3.2-4.6h-1.1zm9.4 0h.8l.7-1.1h4.3l.7 1.1h.8l-3.2-5.4h-1zm5.4-1.7h-3.6l1.8-3zm8.6-.7v.8l-.3.6-.7.4h-4.2V129h4.3l.4.2.3.4.2.5zm-6 2.4h5.4l.6-.4q.3 0 .5-.5l.2-.7V130l-.2-.7-.5-.5-.6-.3H389zm8 0h5.4v-.6h-4.6v-1.8h4.3v-.6h-4.3V129h4.5v-.6H397zm10-1.3v.6a1 1 0 0 0 .8.7h4.4q.2 0 .5-.3l.3-.4.1-.6v-.4q0-.4-.2-.7t-.6-.5l-1.2-.1h-2.8l-.5-.2-.1-.3v-.9l.3-.3.6-.1h3.1l.3.2.2.1v.3l.1.4h.7v-.7l-.3-.4-.4-.3-.6-.2h-3.5l-.7.3-.4.4-.2.8.1.7q0 .3.3.5l.6.2.8.1h3.1l.4.2.2.3v.9l-.2.3-.5.2h-3.5l-.3-.2-.2-.2v-.8h-.8zm7.5 1.3h.7v-5.4h-.7zm2 0h.8V129l3.3 4.7h.5l3.3-4.7v4.7h.8v-5.4H424l-3 4.6-3.2-4.6h-1.1zm10 0h.8v-2h3.6l.8-.2q.3 0 .4-.2.3 0 .3-.4l.1-.5v-1.2l-.2-.5-.3-.2-.5-.1h-4.9zm5.3-3.5v.5l-.4.2-.5.1h-3.6v-2h4.1l.3.2.1.5zm1.8 3.5h4.9v-.6h-4.2v-4.8h-.7zm5.7 0h5.3v-.6H440v-1.8h4.4v-.6H440V129h4.6v-.6h-5.3zm7 0h1v-.9h-1z"/><path id="d" d="M243.2 109.7a6.4 6.4 0 0 1-6.2 4.4h-6.8c-3.6 0-6.5-2.7-6.5-5.9v-7c0-3.2 3-5.8 6.4-5.8h7c3.4 0 6.3 2.6 6.3 5.8v7zm132.3-2.3-1.1-1-4.6 4.6 1.1 1 2.9 3 5.2 5.3h9.1l-9.7-10zm-138.7 12.9h.2a13 13 0 0 0 13-9.6v-.8h.1v-.1l.1-1.6v-.9l.8.2q1.3.3 2.6.3h14.2c1.8 0 3.4 1.4 3.4 3.1s-1.6 3.2-3.4 3.2h-15.6q-1.8 3.8-5.4 6.2h21c5.6 0 10.2-4.2 10.2-9.4 0-5-4.6-9.3-10.2-9.3h-14.2c-1.9 0-3.4-1.4-3.4-3.1s1.5-3.1 3.4-3.1h19.8v-6.2h-19.8a11 11 0 0 0-7.7 3.1l-.4-.3a14 14 0 0 0-8.5-2.8h-6.9c-7.2 0-13.1 5.4-13.1 12v7c0 6.7 5.9 12 13.1 12h4.1z"/><path id="a" d="m362.8 94.5-1.6-1.6a14 14 0 0 0-9.5-3.7h-29.2c-7.2 0-13.1 5.4-13.1 12V113l-14.5-18.6a14 14 0 0 0-10.8-5.1h-2.5v31h6.8V96.6l14.4 18.6c2.5 3.2 6.5 5.2 10.8 5.2h2.6v-19c0-3.3 2.8-6 6.3-6h29.2q2.6 0 4.4 1.8.3.1 2 2l4 4 4.6-4.6-1-1.1-1-.9zm.5 10.6-7.1 7.3a7 7 0 0 1-4.5 1.7h-18a6 6 0 0 1-6.3-5.6v-.7h24.5v-6.2h-31.3v6.8c.1 6.6 6 11.9 13.2 11.9h18q5.4-.1 9.4-3.7l6.6-6.7 5.4-5.6 7.1-7.2a7 7 0 0 1 4.5-1.7h.8v12.8c0 6.7 5.9 12 13.1 12h9.6l.3-.1h.5v-.1h.4l.2-.1h.2v-.1h.3l.2-.1h.1l.3-.1.2-.1h.1l.2-.1.2-.1h.1l.2-.1h.1l.1-.1.2-.1h.1l.2-.2.3-.1.2-.1.3-.2h.2v-.1l.2-.1h.1l.2-.2.2-.1.2-.2.2-.2.2-.1.2-.2.2-.1.3-.2.1-.2.8-.8.1-.1h.1v-.2l.2-.1v-.1l.1-.1.2-.1v-.1l.7-1q0-.2.3-.5v-.2h.1l.1-.3.1-.2.1-.2.7-2q.3-1.2.3-2.5v-.9l.8.2q1.2.3 2.6.3H437c1.9 0 3.4 1.4 3.4 3.1s-1.5 3.2-3.4 3.2h-15.6q-1.8 3.8-5.3 6.2h21c5.5 0 10.1-4.2 10.1-9.4 0-5-4.6-9.3-10.2-9.3h-14.2c-1.8 0-3.3-1.4-3.3-3.1s1.5-3.1 3.3-3.1h20.5v-6.2h-20.5c-5.5 0-10 4.1-10.1 9.2v9.8q0 1.4-.7 2.6l-.1.2-.1.1v.1l-.1.1v.1h-.1l-.1.2-.1.1-.1.1v.1h-.1l-.1.1-.1.1v.1h-.1l-.1.1-.1.1-.1.1-.1.1h-.1v.1h-.1l-.1.1h-.1v.1h-.1v.1h-.2v.1h-.2v.1h-.1l-.1.1h-.1l-.1.1h-.1l-.2.1-.1.1h-.2l-.1.1h-.2l-.1.1h-.3l-.1.1h-.5v.1h-8.6c-3.5 0-6.3-2.6-6.3-5.8v-19h-7.6q-5.6 0-9.4 3.7l-7.1 7.2zm85.3 10q.2-.8.7-1.3.6-.5 1.3-.7a4 4 0 0 1 3 0 4 4 0 0 1 2.2 3.4q0 .8-.3 1.5a4 4 0 0 1-3.5 2.3l-1.4-.3q-.8-.3-1.3-.8a4 4 0 0 1-.7-4.2m.7 2.6q.1.6.6 1a3 3 0 0 0 2.1.9 3 3 0 0 0 2.2-1l.6-.9a3 3 0 0 0 0-2.4 3 3 0 0 0-1.5-1.6l-1.3-.2a3 3 0 0 0-2.1.9q-.5.4-.6 1a3 3 0 0 0 0 2.3m4.4.7h-1l-.9-1.5h-.4v1.5h-.7v-3.8h1.9l.5.2a1 1 0 0 1 .5 1q0 .3-.3.7t-.7.3zm-2.3-3.2v1h1.1q.3-.2.2-.5l-.1-.3-.5-.2z"/></defs><g transform="translate(-1 -1)"><use fill="#0d0d10" href="#a"/><use fill="#0d0d10" href="#b"/><use fill="#0d0d10" href="#c"/><use fill="#93bf2c" href="#d"/><use fill="#93bf2c" href="#e"/></g></svg>