<svg version="1.1" id="Layer_1" xmlns="http://www.w3.org/2000/svg" x="0" y="0" viewBox="0 0 441.9 127.8" style="enable-background:new 0 0 441.9 127.8" xml:space="preserve"><style>.st0{fill:#2790cd}</style><path class="st0" d="M389 48.3v11.8h20.4v64.6h12.4V59.9h19.9V48.3zM83 125.2h13l21.1-52 23.7 52h12.4l-36.5-78.1zM47.6 88c3.8-3.8 5.8-9.4 5.8-16.9 0-6.2-1.8-11.7-5.5-15.7s-9.2-6.3-16.3-6.3H0V125h11V59.7h18.1c4.5 0 7.8 1 9.4 2.2 2.4 2.1 3.9 4.9 3.9 9.5 0 3.6-1.1 6.5-3.2 8.5s-5.4 3.2-10.1 3.2H11.2L45.7 125h15l-27-31.3c5.7-.5 10.5-2.3 13.9-5.7M187.2 48.1v55.8c0 3.9-.2 7.3-1.4 9.5-.6 1.1-1.4 1.9-2.6 2.6-1.2.6-2.8 1-5.1 1-2.2 0-3.3-.4-5.3-1l-2.7-.9-.3 2.6v8.6l1.7.3c1.7.3 4.1.8 6.7.8 4.5 0 8.2-.7 11.1-2 4.3-1.9 6.9-5.2 8.3-8.9 1.4-3.8 1.8-8 1.8-12.2v-56h-12.2zM355.6 49.8v48.7l-47.4-50.1v77h12V76.5l47.4 50.3v-77h-.9zM218.4 125h13.3l8.6-20.5h28.2l9.7 20.5H291l-37.7-78.1-34.9 78.1zm45.5-30.1h-19.6l9.2-22 10.4 22zM107.4 46.7c0-.9.2-1.8.6-2.6.6-1.3 1.8-2.5 3.3-3.4 1.5-.9 3.5-1.4 5.6-1.4 2.8 0 5.3 1 7 2.4.8.7 1.5 1.5 1.9 2.4.4.8.6 1.7.6 2.6h8.9c0-2.3-.6-4.6-1.6-6.6-1.5-3-3.9-5.4-6.8-7.1-2.9-1.7-6.4-2.6-10-2.6-4.9 0-9.4 1.7-12.8 4.5-1.7 1.4-3.1 3.2-4.1 5.2-1 2-1.6 4.3-1.6 6.6h9z"/><path class="st0" d="M93.2 37.8c0-2.2.6-4.2 1.7-6.1 1.6-2.9 4.5-5.6 8.3-7.5 3.8-1.9 8.5-3.1 13.5-3.1 6.7 0 12.8 2.1 17 5.2 2.1 1.6 3.7 3.4 4.8 5.3 1.1 1.9 1.7 4 1.7 6.1h6.7c0-3.4-.9-6.6-2.5-9.4-2.4-4.3-6.4-7.7-11.1-10.1-4.8-2.4-10.4-3.8-16.5-3.8-8.1 0-15.5 2.4-21 6.5-2.8 2.1-5 4.5-6.7 7.4-1.6 2.9-2.5 6.1-2.5 9.4h6.6z"/><path class="st0" d="M79 29c0-3.2 1-6.3 2.8-9.1 2.7-4.3 7.5-8.1 13.6-10.9 6.1-2.7 13.5-4.3 21.5-4.3 10.7 0 20.3 2.9 27.1 7.4 3.4 2.3 6.1 4.9 7.9 7.8 1.8 2.9 2.8 5.9 2.8 9.1h4.4c0-4.1-1.3-8.1-3.5-11.5-3.4-5.2-8.8-9.5-15.5-12.5-6.7-3-14.7-4.7-23.3-4.7-11.5 0-21.9 3.1-29.6 8.2-3.8 2.6-7 5.6-9.2 9.1-2.2 3.5-3.5 7.4-3.5 11.5H79z"/></svg>