<svg xmlns="http://www.w3.org/2000/svg" xml:space="preserve" viewBox="0 0 441.9 127.8"><path fill="#2790cd" d="M389 48.3v11.8h20.4v64.6h12.4V59.9h19.9V48.3zM83 125.2h13l21.1-52 23.7 52h12.4l-36.5-78.1zM47.6 88q5.7-5.7 5.8-16.9 0-9.5-5.5-15.7c-5.5-6.2-9.2-6.3-16.3-6.3H0V125h11V59.7h18.1q6.9.2 9.4 2.2c2.4 2.1 3.9 4.9 3.9 9.5q0 5.4-3.2 8.5c-3.2 3.1-5.4 3.2-10.1 3.2H11.2L45.7 125h15l-27-31.3q8.7-.7 13.9-5.7m139.6-39.9v55.8c0 3.9-.2 7.3-1.4 9.5a7 7 0 0 1-2.6 2.6q-1.7 1-5.1 1c-2.2 0-3.3-.4-5.3-1l-2.7-.9-.3 2.6v8.6l1.7.3q2.7.6 6.7.8 6.8 0 11.1-2c4.3-1.9 6.9-5.2 8.3-8.9q2-5.8 1.8-12.2v-56h-12.2zm168.4 1.7v48.7l-47.4-50.1v77h12V76.5l47.4 50.3v-77h-.9zM218.4 125h13.3l8.6-20.5h28.2l9.7 20.5H291l-37.7-78.1zm45.5-30.1h-19.6l9.2-22zM107.4 46.7q0-1.4.6-2.6a8 8 0 0 1 3.3-3.4 11 11 0 0 1 5.6-1.4q4.3.1 7 2.4 1.3 1 1.9 2.4.6 1.2.6 2.6h8.9a15 15 0 0 0-1.6-6.6q-2.3-4.5-6.8-7.1a20 20 0 0 0-10-2.6q-7.5.2-12.8 4.5a16 16 0 0 0-5.7 11.8z" class="st0"/><path fill="#2790cd" d="M93.2 37.8q0-3.3 1.7-6.1 2.5-4.5 8.3-7.5a31 31 0 0 1 30.5 2.1q3.1 2.4 4.8 5.3t1.7 6.1h6.7q0-5.1-2.5-9.4a26 26 0 0 0-11.1-10.1 37 37 0 0 0-16.5-3.8c-8.1 0-15.5 2.4-21 6.5q-4.2 3.1-6.7 7.4a19 19 0 0 0-2.5 9.4h6.6z" class="st0"/><path fill="#2790cd" d="M79 29q0-4.9 2.8-9.1c2.7-4.3 7.5-8.1 13.6-10.9a54 54 0 0 1 21.5-4.3c10.7 0 20.3 2.9 27.1 7.4q5.2 3.5 7.9 7.8a17 17 0 0 1 2.8 9.1h4.4q-.1-6.3-3.5-11.5A36 36 0 0 0 140.1 5Q129.9.4 116.8.3a54 54 0 0 0-29.6 8.2 32 32 0 0 0-9.2 9.1 22 22 0 0 0-3.5 11.5H79z" class="st0"/></svg>