<svg xmlns="http://www.w3.org/2000/svg" viewBox="0 0 123.6 58.2"><path fill="#231f20" d="M75.3 47.5v2.1h2.3v5.5h2v-7.6zm-.2 2.1v-2.8h-.5v2.8z"/><path fill="#231f20" d="M76.5 55v-2h-2.2v-5.5h-2v7.6zm.3-2v2.8h.5V53z"/><path fill="#ed1c24" d="M84 55.5v-8.2h-1.8v8.2zm12.6-6v6h1.9v-3c0-1.6 1.7-1.7 1.7-1.7v-1.4a3 3 0 0 0-1.7.7v-.6zm8 0v6h1.8v-3.6a.7.7 0 0 1 1.4 0v3.6h1.8V51c0-1-1.2-2.2-3.2-1v-.5z"/><path fill="#ed1c24" d="M100.6 50.8h.9c.8 0 .7.7.7.7l-1-.2a2 2 0 0 0-2 2.1 2 2 0 0 0 2 2l1.2-.3v.4h1.7v-4.1a2 2 0 0 0-.5-1.4 3 3 0 0 0-1.7-.6h-1.2zm.2 2.5a.8.8 0 1 1 .8.7 1 1 0 0 1-.8-.7m11.7.4a1.2 1.2 0 1 1 1.2-1.2 1.2 1.2 0 0 1-1.2 1.2m0-4a2.7 2.7 0 0 0-2.7 2.8 2.6 2.6 0 0 0 2.7 3l1-.5v.5h1.9v-8.2h-1.9V50zm-19.3 4a1.2 1.2 0 1 1 1.2-1.2 1.2 1.2 0 0 1-1.2 1.1m.1 2.7c-.8 0-1-.5-1-.5h-2.1c.4 3 5.7 3 6 .2v-6.6h-1.9v.6c-1.2-1.2-4-.3-4 2.5.1 2.6 2.9 3.4 4 2.4v.7c0 .8-1 .7-1 .7m-7.1-4.7a1 1 0 0 1 2 0zm1-2.4a3 3 0 0 0-2.9 3c0 2.2 1.3 3.4 3 3.3a3 3 0 0 0 2.7-2h-1.8a1 1 0 0 1-1 .4 1 1 0 0 1-1-1h4c.2-2.2-1.3-3.7-3-3.7"/><g fill="#231f20"><path d="M116.9 49.2a.9.9 0 1 1 .9-.9 1 1 0 0 1-1 1m0-2a1 1 0 1 0 1 1 1 1 0 0 0-1-1"/><path d="M116.6 48.3h.3q.2 0 .3-.2-.1-.3-.2-.2h-.4zm0 .6v-1.1h.4q.3 0 .4.3l-.1.2v.4l.1.1h-.1v-.2q0-.2-.2-.2h-.4zM26.8 55l-.4-1.3h-2.7l-.4 1.3h-1.5l2.7-7.4h1.1l2.7 7.4zm-1.7-5.2-1 2.7H26zm10.4 4.8a2 2 0 0 1-1.3.5 2 2 0 0 1-1.4-.6v.5h-1.3v-7.4H33v2.5a2 2 0 0 1 1.3-.6 2 2 0 0 1 1.3.5 3 3 0 0 1 .5 2.3 3 3 0 0 1-.5 2.3m-1.7-3.8q-1.1 0-1 1.5c.2 1.5.2 1.6 1 1.6s.9-.7.9-1.6-.1-1.5-1-1.5m6.1.3a.9.9 0 0 0-1.6.7V55H37v-5.4h1.3v.5a2 2 0 0 1 1.4-.5 2 2 0 0 1 1.2.5zm4.2 4v-.6a2 2 0 0 1-1.4.6 2 2 0 0 1-1.3-.5 2 2 0 0 1-.5-1.2q0-1.5 1.8-1.6H44v-.3q0-.9-1-.8a1 1 0 0 0-1 .4l-.9-.8a2 2 0 0 1 2-.7q2.3 0 2.3 1.9V55zm0-2.4H43q-.8 0-.8.6 0 .8.8.7a1 1 0 0 0 .9-.3l.2-.7zm5.5 2.3v-3.3a.9.9 0 1 0-1.8 0V55h-1.3v-5.4h1.3v.5a2 2 0 0 1 1.3-.6 2 2 0 0 1 1.3.5 2 2 0 0 1 .6 1.6V55zm5.5 0v-.5a2 2 0 0 1-1.3.6 2 2 0 0 1-1.3-.5 3 3 0 0 1-.6-2.3 3 3 0 0 1 .6-2.3 2 2 0 0 1 1.3-.5 2 2 0 0 1 1.3.6v-2.5h1.4V55zm-1-4.2q-1 0-.9 1.5c.1 1.5.1 1.6 1 1.6s.9-.7.9-1.6-.1-1.5-1-1.5m9.4 3.6a2 2 0 0 1-1.7.7 2 2 0 0 1-1.7-.7 3 3 0 0 1-.6-2 3 3 0 0 1 .6-2.2 2 2 0 0 1 1.7-.7 2 2 0 0 1 1.7.7 3 3 0 0 1 .6 2.1 3 3 0 0 1-.6 2.1m-1-3.4-.7-.2-.6.2a2 2 0 0 0-.3 1.3 2 2 0 0 0 .3 1.3l.6.3.7-.3a2 2 0 0 0 .3-1.3 2 2 0 0 0-.4-1.3zm4-.2V55h-1.3v-4.2h-.5v-1h.5v-.7a1.5 1.5 0 0 1 1.6-1.5h.8v1.1H67q-.5 0-.5.5v.6h1v1zm-52-12.1-5-15.9H6.1v15.9H0V0h9.8c7 0 9.9 3.4 9.9 11.4 0 4.8-1 8.2-4.5 10.1l5.7 17.2zM9.9 5.5H6.1v11.8h3.7c3.3 0 3.8-2.7 3.8-5.9s-.5-6-3.8-6m23.3 33.2v-2.5a7 7 0 0 1-1.8 2 5 5 0 0 1-3.2 1 6 6 0 0 1-5.4-2.5q-1.7-2-1.7-6.4a8 8 0 0 1 2.7-6.4c1.4-1.2 3.2-2 6.5-2h2.6v-4q0-3.2-2.8-3.3a2 2 0 0 0-1.9.8 4 4 0 0 0-.9 2.7h-5.7a8 8 0 0 1 2.4-6.2 9 9 0 0 1 6-2.4 8 8 0 0 1 6.1 2.2 9 9 0 0 1 2.5 6.8v20.2zM32.8 26h-2a4 4 0 0 0-3 .9 5 5 0 0 0-1 3.2q0 4 3 4c1.7 0 3-1.5 3-3.8zm19-10.8a4.6 4.6 0 0 0-4.7 5v18.5h-5.8V10H47v3a8 8 0 0 1 2.5-2.3 9 9 0 0 1 4.4-1.2v5.6zm3.9-12A3 3 0 0 1 58.9 0 3 3 0 0 1 62 3.2a3 3 0 0 1-3.1 3.2 3 3 0 0 1-3.2-3.2m.3 35.5V10.8h5.8v27.9zm13.9-1.8q-2.8-2-3-7V15.2h-3.6v-4.4H67v-8h5.8v8h4v4.4h-4v14.5q0 3.9 4 3.8v5.2c-2.7 0-5-.2-7-1.8m20 1.8v-2.5a7 7 0 0 1-1.7 2 5 5 0 0 1-3.3 1 6 6 0 0 1-5.4-2.5q-1.7-2-1.7-6.4a8 8 0 0 1 2.7-6.4c1.4-1.2 3.2-2 6.5-2h2.6v-4q0-3.2-2.8-3.3a2 2 0 0 0-1.9.8 4 4 0 0 0-.9 2.7h-5.7a8 8 0 0 1 2.4-6.2 9 9 0 0 1 6-2.3 8 8 0 0 1 6.1 2.1 9 9 0 0 1 2.5 6.8v20.2zM89.6 26h-2a4 4 0 0 0-3 .9 5 5 0 0 0-1 3.2q0 4 3 4c1.7 0 3-1.5 3-3.8zm20 12.7V18c0-2.2-1.3-3.3-2.9-3.3s-2.8 1-2.8 3.3v20.6h-5.7V10h5.5v2.1a7 7 0 0 1 2-1.8 6 6 0 0 1 2.8-.7 6 6 0 0 1 5.2 2.2c1.1 1.3 1.6 2.9 1.6 6.2v20.6zm10.8.2a3.2 3.2 0 1 1 3.2-3.2 3 3 0 0 1-3.2 3.2m0-5.8a2.6 2.6 0 1 0 2.6 2.6 2.5 2.5 0 0 0-2.6-2.6m.5 4.3-.4-1.4h-.3v1.4h-.6V34h1l.6.2.2.8-.2.8-.2.1.5 1.5zm-.2-2.8h-.5v1h.3l.2-.2.1-.4z"/></g></svg>