<svg xmlns="http://www.w3.org/2000/svg" xml:space="preserve" viewBox="0 0 401 55"><g fill="#c40c1c"><path d="M0 28V0h16c15 0 17 0 21 2q7 6 8 15-1 9-8 15l-4 2 2 3 7 11 4 7H31l-5-10q-6-12-9-10h-4v20H0Zm29-5c3-2 3-9 0-11q-2-2-9-2l-6 1-1 7v7h7q7 1 9-2m23 5V0h17l10 17 11 17 1-17V0h13v55H88L77 36 66 18l-1 18v19H52zm59 25 10-14 8-12-2-4-10-13-7-10h17l8 13 9 14-10 15-9 13h-8q-9 1-6-2m34-5-4-8 3-6q4-6 5-4l16 24-8 1h-7zm-1-29-4-5 5-7 5-7h8l7 1-9 11-8 13z"/><text xml:space="preserve" x="179" y="-40" font-family="Arial" font-size="24" font-style="italic" style="line-height:2.1;-inkscape-font-specification:&quot;Arial Italic&quot;;text-align:start" transform="translate(0 95)"><tspan x="179" y="-40" font-style="normal" font-weight="700" style="-inkscape-font-specification:&quot;Arial Bold&quot;">REIDO NETWORKS</tspan></text></g></svg>