<svg xmlns="http://www.w3.org/2000/svg" xml:space="preserve" viewBox="0 0 1211.8 339.8"><path fill="#4da6e5" d="M235.5 339.3A259 259 0 0 1 164 321l-5.6-2.9C135 306.7 121 290.4 117.5 271c-.8-4.6-.9-14.7-.2-19.7a104 104 0 0 1 5.7-20.2 130 130 0 0 1 20.3-33.4 64 64 0 0 1 5.2-6.4l3.1-3.8 11.9-13.7 3.5-4a265 265 0 0 1 11.1-12.5l6.8-7.8a631 631 0 0 0 20.6-25c9.3-13 12.6-18.5 15.4-25 2.3-5.3 3.4-9.3 3.6-13.6.8-12-8.7-21.2-26.1-25.2a135 135 0 0 0-48.6 2.6 375 375 0 0 0-67 22.4l-2.9 1.2-1.3-8.5c-3.3-20.2-9-35-17-43.2-1.5-1.5-2.5-2.8-2.3-3 .9-.5 23.1-4 35.7-5.5 25.6-3.1 52.8-3.8 71.5-1.7 8.5.9 9.3 1 15.8 2.3q54.3 11 59.5 55.3c.6 4.7.4 17.1-.2 22.9a205 205 0 0 1-17.6 56 423 423 0 0 1-28.7 52.5 125 125 0 0 0-18 40.5c-.7 3-1 11.5-.6 15.5a50 50 0 0 0 15.3 30.3 97 97 0 0 0 33 21 218 218 0 0 0 54.4 13.7q.4 0 .4.5a60 60 0 0 1-17.5 3.8c-3 .6-20.7.6-26.8 0"/><path fill="#fd0000" d="M26.8 130V0h259.5l-.1 129.9-.2 129.9h-51.2c-28.2.1-51.4 0-51.6-.2-.6-.6.9-8 2.9-14.2a133 133 0 0 1 12.5-25.1c9-14 18.5-30.8 25.5-44.8q37-74.3 18-114.8c-10-21.1-31.2-34.7-62.6-40.2a182 182 0 0 0-37.2-2.7c-9.5 0-19.5.1-22.3.3a584 584 0 0 0-63 8.2l-13.1 2.2q-2.3-.1 4 4c8.6 5.8 9.7 6.8 12.6 11.1C67.3 54 71.7 69.2 74 90.5l.6 4.1.3 1.4 2.8-1.3C129.9 70.9 174.5 61 200 67.6c7.6 1.9 14 6 16.7 10.3 1.2 2.2 1.3 2.8 1.3 7.4 0 4.3-.2 5.5-1.6 9.1-3.7 10-12.2 22.7-26.4 39.6-5.4 6.4-18.4 21.4-23 26.5-9 10-27.5 31.8-32.9 39-8 10.6-15.1 24-18.8 34.7a89 89 0 0 0-4.5 21.5c0 1.7-.3 3.4-.6 3.7-.5.5-10.5.6-42 .6H26.8z"/><path fill="#001097" d="M1034 308c-.9-.4-1-144.5-.2-146 .3-.5.5-1.7.5-2.7q0-1.7.6-1.8.5 0 .3-.3c-.2-.2 0-1.2.4-2.2q.5-1.8.3-2l.7-1.1c.6-.6 1.6-2 2.2-3.1s2.5-3.4 4-5c1.7-1.6 3-3.2 3-3.4q0-.5.3-.3c.1.2 1.8-.6 3.6-1.8a37 37 0 0 1 9.3-4.4 8 8 0 0 1 3-.4q1.2 0 2-.5a43 43 0 0 1 16.7.4q1.3 0 1.9.2c1 .7 4.9 1.8 5.3 1.6q.3-.2.4.3 0 .5 1 .5.8.1 1.2.8t1 .5q.8-.2.6.1c-.2.4 1 1.2 2.4 1.6q.5.1 1.2 1 .5.7.6.4a48 48 0 0 1 8 8.5q.3 1.3 1 1.2.5 0 .3.3c-.3.5 1.2 3.6 1.8 3.6q.3 0 0 1 0 .8.3 1.2.5.5.6 2 0 1.7.5 2t.5 1.8q0 1.3.4 1.7c.2.1.2 14.8 0 32.6-.2 29.2-.3 32.7-1 34.6l-1.1 3.4a6 6 0 0 1-1.2 2.2 10 10 0 0 0-1.6 2.6q-.7 1.2-1 1.4-.5.1-.5.8t-.5.4-.5.4c0 1.2-6.6 7.4-7.9 7.4q-.5 0-.8.7c-.1.4-1.2 1.2-2.3 1.8q-1.8 1-2 1.5 0 .5-.5.2-.5-.1-.5.2t-.6.5c-.4 0-2.4.6-4.6 1.3a28 28 0 0 1-6.4 1.6c-.2.2-4.4.3-9.3.4h-8.9v24.8q-.3 24.7-.7 25.3c-.5.5-3.3.6-12 .6-6.2 0-11.6-.1-11.9-.3m43-75.8c3.2-1.5 6.4-5 7.4-8.1.8-2.4.9-5.3.9-26.3a483 483 0 0 0-.5-28.6c.5-1.2-.6-5.6-1.5-6.2q-.5-.4-.6-.8 0-2-1.7-2.5-1-.3-1-.7c.2-.2-.8-.8-2-1.3-2-.8-3.4-1-6.9-.9-2.4 0-4.6.3-4.8.5q-.3.5-1.2.6c-1.5.3-4.7 2.7-5 3.9l-1.2 2.8c-.7 1.6-.9 68-.2 68.6.2.2 4 .3 8.3.2 6.7-.1 8.4-.3 10-1.2M.7 258.6q-.3-.6.2-6c.1-.9.6-2 1.2-2.3 1.4-1.1 4.3-1 5.8.2l1.3 1 1.8-1q1.7-1 1.8-1.5 0-.3 1.2-.7t2.3-1.4q.9-1 1-.5c0 .8-2.5 3.6-3.2 3.6s-3 2-4 3.6c-1.4 2.2-.5 2.9 3.8 2.9 3.3 0 3.4 0 3.4 1.3v1.2H9a49 49 0 0 1-8.4-.4m7.5-4.1c.3-3.3-2.7-5-5.1-2.8-1.1 1-1.3 1.5-1.1 2.7.3 2.3.5 2.4 3.4 2.1 2.6-.2 2.6-.3 2.8-2m339.3 3.5c-9-.1-16.9-.4-17.3-.7-.9-.4-1-4-1-65.6 0-69 .1-70.4 2.4-77.3.4-1.3.6-2.6.4-2.9q-.1-.5.2-.5c.5 0 2.3-4 2-4.3q-.2-.4.2-1a16 16 0 0 0 2.3-3.2c1.8-3.4 2.4-4.4 4-6l1.6-2.1q0-.3.7-.4.8 0 .8-.7a50 50 0 0 1 10.5-9.8q.8-1 1.2-1c.9 0 1.3-.1 2.6-1.1.7-.6 1.8-1.2 2.4-1.3l1.5-.5a40 40 0 0 1 6.7-2.3q.6 0 1-.6.4-.4 1.3-.5l4.8-.7c2-.3 9-.7 15.6-.8l11.8-.3.3 1.2c.2.6.3 8.8.2 18.1l-.2 17-10-.2a97 97 0 0 0-10.8.3 8 8 0 0 1-3.6.7c-1.2 0-3.8 1.5-3.8 2.1q0 .4-.5.2c-.5-.3-3.7 2.2-3.3 2.6q.1.3-1 1.2-1.1 1-1.2 1.7t-.5.7q-.5.2-1 2t-1 2c-.1 0-.2 30-.1 66.7.1 59.6 0 66.8-.6 66.8q-.8 0-.8.5t-.6.4zm90.4-.4-7.6-.1v-183h37v182.9l-3.8.3c-3.7.3-8 .3-25.6 0m100.2-.3q-.2-.5-1.1-.6c-1.8 0-5.5-.8-9-1.9l-3.8-1q-.4.2-.4-.2c0-.2-1.4-1-3-1.8s-3-1.7-3-2q0-.3-.6-.2-.8 0-2.5-1.2l-2-1.4q-.5-.2-2-1.7c-.8-1-1.8-1.8-2.2-1.8q-.6-.1-1-1c-.2-.6-1.2-2-2.3-3s-2-2.1-2-2.4q0-.5-.3-.6-.5-.1-1.1-1.4a15 15 0 0 0-2.3-3.3q-.6-.6-.1-1.2.4-.4-.3-1.2t-.4-1q.1-.4-.2-.4-.6-.2-1.1-1.7-.7-1.7-1.2-1.8-.4 0-.3-.3.3-.5-.4-2.8a8 8 0 0 1-.5-3.2q.2-.5-.5-.9-.6-.3-.4-1c.2-.5 0-1.9-.3-3.1-.4-1.7-.5-14.4-.5-45.4 0-36.6.1-43.8.8-47.8l.9-5.7c0-.6.5-2 1-3 .4-1.1 1-2.6 1.1-3.3s1-2.4 1.8-3.9c.8-1.4 1.4-3 1.4-3.4q0-.8.3-.6.5.1 2-2.3a68 68 0 0 1 5.7-6.4 16 16 0 0 0 3.6-4.2q-.3-.3.2 0 .6.1 1.5-.7c.4-.6 1.2-1 1.5-1q.6 0 .7-.8 0-.7.4-.6c.6.2 4.6-2 4.6-2.6q0-.5.4-.3c.2.1 1.7-.4 3.3-1.2 1.7-.8 3.5-1.5 4-1.5q1 0 1.6-.5t1.9-.6 1.6-.7 1.7-.3c.7.1 2 0 2.6-.4s2.1-.6 3.3-.5q1.9 0 2-.3c-.2-.3 2.8-.5 6.6-.5s6.8.2 6.6.5q0 .3 2 .3c1.2 0 2.5 0 3 .2s1.6.4 2.6.5q1.6 0 1.8.7.1.5 1.4.6c1.8 0 4.2.8 8.8 3 2 1 3.6 1.6 3.7 1.6l1 .8c1.4 1.3 5.8 4.3 6.2 4.2q.4 0 .6.9.5 1 2.2 2.2c1 .7 2.3 1.9 2.8 2.6l2 2.4c2 2.2 5 7 6 9.5a10 10 0 0 0 1.5 3q.5.6.6 1c0 1.4.8 3.8 1.3 3.8q.3 0 .2.5c-.2.3-.1 1.4.2 2.4s.6 3.3.8 5l.6 3.4c.2.4.3 14 .2 30.2l-.1 29.5-1.3.5c-.8.3-15.4.5-37.7.5-31.7 0-36.4.1-36.7.7-.1.5-.2 5.3 0 11 .1 12 .1 11.7.7 12q.3.3.2 1c-.4 1 3 5.7 5.5 7.5 1.4 1 2.7 1.6 2.9 1.5q.3-.1.4.2c0 .7 4.3 2.3 4.9 2q.5-.3 1.2.5c.7.7 1.4.8 4.2.6 7.6-.7 10.9-1.9 14.3-5 1.5-1.5 3.5-4.9 3.1-5.5q-.1-.4.3-.6c.3 0 .6-1 .7-2.2 0-1 .4-2.5.7-3l.6-1.2 17.9.1 17.8.1v2.5c0 1.4-.1 2.8-.3 3-.2.4-.5 1.6-.6 2.7s-.6 3.2-1.2 4.7c-1 2.6-1.8 5.2-1.8 6.1q0 .6-.3.8c-.6.6-3.2 6.3-3 6.7q0 .5-.3.2-.5-.2-1.8 1.9l-2.6 3.6q-1.2 1.2-1 1.7c.1.2-1 1.2-2.3 2.2s-2.5 2.2-2.5 2.6q0 .5-.6.6c-1 0-3.9 2.2-3.9 2.9q0 .5-.6.6c-.4 0-1.7.7-3 1.5-1.1.9-2.7 1.8-3.3 2q-1 .5-1.1 1 0 .5-.5.3c-.2-.2-1.8.4-3.6 1.1-1.7.8-3.8 1.6-4.5 1.8q-1.3.4-1.4.8t-.5.3a40 40 0 0 0-8.5 1.5c-1.6.5-18 .4-18.2 0M568.6 148q.6-.3.6-10.1c0-13.7-.8-17.4-5.3-21.8q-2.8-2.7-4.5-3l-2-.2q-.3 0-.6-.5c-.6-1-8.5-1.3-11.9-.5-1.5.3-3.7 1.1-5 1.7l-3.2 1.5c-1.7.5-6.3 8.3-6.5 11l-.2 11.3c-.2 8-.1 10.3.4 10.6.8.5 37.4.5 38.2 0m64.3 109.5c-.5-.1-.6-26.4-.6-128.9V0h37v257.4l-6.4.3c-6.9.3-29 .3-30 0m64.5 0-2.1-.2V0h36.5l.1 128.3c0 70.5 0 128.6-.3 129-.3.6-3 .7-16.2.6zm106.3-.4q-1.7-.6-2.7-.7c-.6 0-3.5-.8-6.4-1.7l-6-1.8q-.6-.1-1-.8t-1-.5-.8-.3-.3-.3q-.4.3-1.3-.7-.9-.8-1.4-.7t-.6 0c0-.3-1.3-1.3-2.7-2.4l-6.5-5.7q-.6-.5-1-.2-.3.3 0-.2c.1-.3-.8-1.6-2-2.9a12 12 0 0 1-2.2-2.9q0-.3-.5-.2-.5.3-.2-.4.3-.8-.6-.8-.7 0-.6-.3.2-.4-.8-2.1a43 43 0 0 1-4.2-10.3c-.3-.6-.8-2.4-1.1-4s-.8-3.3-1-3.5c-.4-1-.4-2.1-.5-46.5 0-44.3 0-45.6 1.8-53.4l1.2-5.4c.5-.4 2-3.6 2-4.3q0-.7.5-.7t.5-1q0-.8.5-1.3.5-.3.2-.7-.1-.5.2-.5c.6 0 2.9-3.6 2.7-4.2q0-.3.3 0 .5 0 1.2-1.3t1-1.5l3.9-3.5c2-1.9 4-3.6 4.6-3.8q.8-.3.9-1t.4-.6c.7.1 4.1-1.6 3.9-2q-.2-.4.3-.4c1 0 4.4-1.8 4.4-2.2q0-.5.7-.2c.3.1 1-.1 1.3-.5q.6-.7 1-.5.6.2 1.6-.4a7 7 0 0 1 2.6-.6q1.5 0 2-.4l2.3-.6q1.7-.4 2.2-.7a8 8 0 0 1 2.7-.2q1.9.1 2-.2c-.2-.3 2.8-.4 6.6-.4a36 36 0 0 1 10.6.9c2.2.2 4.6.7 5.4 1 .8.5 2 .8 2.5.8l1.9.4c1.6.9 3.8 1.8 4.7 2a6 6 0 0 1 2.4.9q1.4.7 1.5.4t1.4.9l3.6 2.7c1.2.7 2.7 1.8 3.4 2.4q1 .8 1 .6c0-.2 1.1.9 2.4 2.3a20 20 0 0 0 3.1 3c.5.3 1.6 1.6 2.5 3 1 1.3 2 2.4 2.2 2.4q.3 0 .2.5-.4.6 2 3.2.5.6.3 1.2t.4.3.3.2q-.3.7.2 1.3a38 38 0 0 1 3.3 10.4c.5 2.2 1 3.9 1.1 3.9s.4 19.7.3 43.9a860 860 0 0 0 .3 45.3 5 5 0 0 0-.5 2.4 6 6 0 0 1-.4 2.8 6 6 0 0 0-.6 2.8c0 .8-.1 2.2-.4 3l-3.3 9q-.2.6-1.4 2.3a48 48 0 0 1-16.1 16.6q-.3-.2-.3.4 0 .5-.8.3h-.6c.3.9-2.3 2.8-4.8 3.7l-3.8 1.5a60 60 0 0 1-14.1 3.8c-1 .6-18.4.4-20-.1m20-36.6c2.6-.9 2.5-.9 5.2-3.1q1.7-1.5 1.7-2-.2-.4.7-1.2 1-.7 1-1.5t.6-.8q.4 0 .3-1.2-.2-1 .4-1.7c.5-.4.6-9.8.7-41.9a883 883 0 0 0-.4-41q-.4 0-.4-2c-.2-2.7-1.6-6.3-2.4-5.9q-.4.3-.1-.2c.8-1.4-5.6-6-8.9-6.4a7 7 0 0 1-2.5-.7 30 30 0 0 0-12.1.7c-1.4-.5-8.5 3.5-8 4.4q.3.4-.4 0-.8-.2-.8.8t-.8 1.1-.5.4c.1.2-.2 1.3-.7 2.4-1.2 2.8-1.3 4.1-1.3 49.2v39.3l1.3 3c.8 1.6 1.6 2.9 2 2.8q.4 0 .5.6c0 1.8 6.3 5.4 9.9 5.6q1.5 0 2 .4a41 41 0 0 0 13-1m139.8 36.5c-.8-.3-2.1-.6-3-.5s-2-.2-2.7-.5a65 65 0 0 0-8.3-3l-2.2-2.1c-1.2-1.3-2.3-2.1-2.4-2-.1.3-2.4-1.4-3.7-2.7a62 62 0 0 1-6-8.7c-.9-1.7-1.3-3.1-1.7-5.3q-.3-1.5-.8-2.2c-.3-.3-.7-1.5-.8-2.5s-.3-22.8-.4-48.5l-.2-46.6h25.5v44a1768 1768 0 0 0 0 45q-.5-1-.5.6 0 1.2.8 2 .6.6.5.8-.3.3.5 1.7a14 14 0 0 0 15 6.5q.5-.3 1.8-.4t2.8-.9c1.6-.8 4.8-4.2 4.4-4.7q-.2-.2.2-.9c.4-.4.5-15.3.5-47.2v-46.5h25.7v47.4c-.1 28.6-.4 47.8-.7 48.6-.5 1.3-1.3 5.5-1.1 6.1q0 .3-.3.4c-.3 0-1 1.1-1.5 2.4a41 41 0 0 1-6.6 9.1 32 32 0 0 1-8.2 6q-1 .4-1 1 .3.8-.5-.1-.7-1.4-1 .1-.2 1-.9.9-.7-.2-1.3.4t-1.7.7c-.5 0-1.5.3-2 .6s-1.8.5-2.6.5-1.8.2-2.1.5c-1 .7-11.9.8-13.5 0m201.7.2a6 6 0 0 0-2.2-.5c-1-.1-3-.7-4.4-1.2l-3.6-1.4q-1-.3-1.4-1t-1-.7q-.8 0-.8-.4c0-.2-1-1-2-1.6q-1.8-1.2-2-1.9 0-.5-.4-.6a30 30 0 0 1-10.4-14.7l-1.5-4.8c-.5-1.2-.5-5.7 0-6.6.3-.8 1.3-1 12.2-.8l11.8.2.8 2.6q.8 2.4 1.1 2.3t.1.4c-.3 1 2.7 4.4 4 4.4q.6 0 1 .8.3.6 1.3.7t1 .5c0 .8 9.5.3 11.3-.6 1.9-1 4.3-3.4 3.9-4q-.2-.4.3-.3c1.6.4 2.8-10.5 1.4-12q-.6-.6-.6-1.7 0-1-.7-1t-.4-.3q.4-.8-2.7-3.2a16 16 0 0 0-9.6-2.3q-2.1.3-4.3-.4a9 9 0 0 0-3.4-.6q-1.1.2-1.3-.1t-1.7-.6-2-.5l-4.1-2.2a41 41 0 0 1-13.1-10.7q0-.5-1.2-1.6-1-1.3-1-1.6.3-.4-.4-1.2c-.7-1-2.5-4.5-2.6-5.3-.3-1.7-1-4.3-1.3-4.5-.1-.1-.3-4-.2-8.6 0-7.3.2-8.7 1-10.5.6-1.1 1-2.5 1-3q0-1.1.5-1.4.7-.3.7-1c0-1 2-4.8 2.6-4.8q.5 0 .2-.7t1.2-1.6 1.5-1.5a22 22 0 0 1 6.4-5.7q.5 0 .6-.5t.7-.5q.8-.1.8-.8 0-.6.5-.5.5.3 2.2-.7a8 8 0 0 1 2.5-1q.7 0 1.4-.6c.8-.8 1.3-.9 4.6-1.2a34 34 0 0 1 19-.4q1 0 1.3.2c.5.5 5.7 2.6 6.7 2.7q.8 0 1.2.6l2.6 2a23 23 0 0 1 5 4c0 .5 3.8 3.9 4.2 3.8q.5-.1.2.2c-.4.3 2.4 4.8 3.2 5.1q.4.3.4 1 0 .9.4 1.3l.4.7.9 2.3a49 49 0 0 1 2.8 11.3v1.5h-12.3c-10 0-12.4-.1-13-.7q-.7-.7-.4-1.5c.3-.8-.8-3.8-1.4-3.8q-.4 0-.4-.8c0-.8-3-3.7-3.9-3.7q-.5 0-.6-.4c0-1-4.3-2.2-7.2-2.2a8 8 0 0 0-3.3.5q-.2.3-.9.4l-1.3.1c-1.6.2-5.7 5-5.4 6.2q0 .3-.4.4c-1.1 0-2.1 8-1 8.7q.3.3.2 1c-.3.9 1.2 4.4 1.8 4q.5-.2.4.3c-.2.8 3.4 3.4 4.8 3.6l1.8.6c.4.3 2.6.6 5 .6a41 41 0 0 1 14.5 2.8c1 .5 2 .7 2.2.5q.5-.1.2.1c-.2.2.7 1 2 1.6a32 32 0 0 1 7 5c1 1 2 1.7 2.2 1.7q.4 0 .2.5t0 .6a11 11 0 0 1 2.7 3.8q0 .6 1.2 1.4 1 .9 1 1.5-.2.7.3 1t.5 1 .8 1.5.4 1.8q-.1.8.3.9t.5 1.4c0 .7.3 2.3.7 3.4a26 26 0 0 1 .3 11c-.3.3-.8 2.1-1 4a27 27 0 0 1-4.6 11q-1 1.1-.6 1.7.3.6-.1.4t-1.1.4q-.6.6-.3.7c.2 0-1.6 1.9-3.9 4.1-4 3.9-7.6 6.4-9.2 6.4q-.7 0-.7.4c0 .3-1.4.9-3 1.4s-3 1-3 1.2c0 .3-1.4.5-10.5.8-4.3.2-8 .1-8 0M.4 241.9c.2-.5 2.4-.7 8.6-.8 7.2-.1 8.3 0 8.3.6s-1.2.8-8.5.8c-6.7 0-8.5-.1-8.4-.6m.6-6.4-.5-4.8c-.3-4.2-.3-4.4.5-3.7.7.5.8 1.3.7 3.6-.1 3.6.4 4 4 3.8l2.3-.1.3-4q.4-6.5 1.2.4c.2 1.6.4 3.1.6 3.4s1.2.4 2.4.4c3.2 0 3.8-.8 3.8-5 0-2 .2-3.5.5-3.5s.5 2 .5 4.9v4.9h-8a75 75 0 0 1-8.3-.3m.1-13c-1.2-.1-1-1 .3-1h6.7c7 .1 7.7-.2 7.7-3.4q0-4.4 1-4.6c.3 0 .5 2 .5 4.5v4.5h-1.6c-7 .2-13.9.2-14.6 0m2-12.9c-1.5 0-2.8-.4-2.8-.6 0-.3 3-.5 7.2-.5 8.2 0 8.3 0 8.3-3.8 0-2.4.5-4.2 1-4.2.3 0 .5 2 .5 4.4 0 4.2 0 4.5-1.1 4.8a86 86 0 0 1-13 0m2.4-12.5c-1.4-.3-4.2-3.1-4.2-4.2q0-.7-.6-1.5c-1.6-1.7-.2-7 2.5-9.5 1.9-1.7 2-1.8 5.8-1.7q4 0 4.2.7.1.5.7.6c.7 0 2.9 2.7 2.9 3.6q0 .8.4.9c.6 0 0 6-.6 6.9l-2.4 2.7c-1.7 1.8-2 1.9-4.7 1.8a19 19 0 0 1-4-.3m7.3-2c2.2-1.3 3.6-4 3.4-6.6q-.7-6.8-7.2-7c-2.2 0-5 1-4.3 1.7q.3.3-.4 0c-1.2-.4-2.3 2.6-2.3 6 0 2.6.3 3.4 1.3 4.6.7.9 1.7 1.5 2.1 1.4q.8 0 .9.4c0 .7 5.1.3 6.5-.5M.3 163.8c0-3.2.1-4.1.7-4.1s.7.7.7 3c0 1.6.2 3 .5 3.2s1.8.3 3.3.2l2.8-.2v-3.2c0-4.1.9-4.2 1 0l.2 3 3.5.2 3.4.1-.3-2.4c-.3-2.7 0-4.6.8-4.6.2 0 .4 2 .4 4.5v4.4H.3zm7.5-8.7C2 155 .3 154.7.3 154c0-.3 2.9-.5 7.4-.5H15l.6-1.7c.3-.9.6-2.7.6-4s.2-2.3.5-2.3.5 2 .5 5v5l-1.3-.6q-1.5-.7-1.6 0t-.8.5zm-6.4-13.5c-1.1-.2-1.1-.4-1-4.1 0-2.2.4-4 .6-4 .3 0 .4 1.3.3 3-.1 3.5.6 4.1 4.4 3.9l2.3-.1.2-3.4c.2-4.1 1-4.5 1-.5 0 1.6.4 3.2.7 3.5.8.8 5 .8 5.8 0 .3-.3.6-2 .6-4q0-3.2.5-3.4c.3 0 .5 1.8.5 4.4 0 4.2 0 4.5-1.1 4.8-1.3.3-13 .3-14.8 0m-1-18.4c-.1-5.6 0-7.2.5-7q.6 0 .5 2.9c-.2 2.3 0 2.8.7 3.1.5.2 4.1.4 8 .3h7.2v2.5H1.8v1.4l-.2 2.6q0 1-.6 1.3-.5 0-.6-7m-.1-15.6c0-3.8.2-6.7.5-6.8q.5-.2.5 2.3c0 3.6.6 3.9 9.3 3.9 5.6 0 6.7.1 6.7.8 0 .6-1.2.7-7.5.7a27 27 0 0 0-7.8.5l-.4 2.6q-.3 2-.8 2.3t-.5-6.3m.2-10.7C0 96 .9 91 1.8 89.5c1-1.4 1.2-1.5 3.4-1.4q2.3.1 2.3.5-.3.3.5.4.7 0 .8.8c0 .8.8 1 1.2.2q.4-.5.8-.2.4.1 1-.8t1.1-1q.8-.2 2.4-1.5 1.8-1.5 1.9-.8c.1.7-1.6 2.8-2.7 3.2-3.5 1.5-4.9 2.7-5 4.5 0 1.6.4 1.8 4.4 1.6 3.4 0 3.4 0 3.4 1.2v1.4L9 97.4c-4.6 0-8.4-.3-8.5-.5m7-1.9c1.4 0 1-3-.5-4.4-1.4-1.1-3.2-1.5-3.2-.6q-.1.5-.8.5t-.5.3T2 92c-1 1-1.2 2.8-.4 2.6q.5 0 .6.3c0 .2 1 .3 2.1.3zM5.8 83.1q-.7-.5-1.2-.3-.6 0-1.6-1.5-.8-1.6-1.4-1.5-.4.1-.4-.7 0-.9-.7-1.5C0 77 0 74 .6 72c.5-1.7 3.6-5.5 4.5-5.5q.8-.1 2-.8c1.2-.8 1.9-.7 5.1.7l2.2.7q.3 0 0 .7t.7.4q1-.5.5.5-.1.7.2.8.5.1.8 1.3.3 1 .7 1.2c.5 0 0 4.2-.6 6.4q-.8 2.1-4.7 5c-.8.6-5.5.4-6.1-.3m5.4-1.7q0-.3.4-.2c.7.4 2.5-1.1 3.4-2.7q.7-1.3.4-1.5-.3 0 .2-.6c.7-.7.8-2.7.1-3.1q-.3-.4-.2-1 .2-.8-.3-.8T15 71q.2-.4-1.5-1.9c-1.4-1.2-2.3-1.5-4.5-1.5q-2.6 0-2.7.4 0 .5-.5.3t-.5 0q-.1.5-1.1 1c-1.3.5-3.2 4.2-2.6 4.6q.5.5.5 2.3a5.4 5.4 0 0 0 3.7 5.1c2.2.7 5.5.8 5.5.1M.3 61.3c0-.8 1.5-2.8 2-2.8.2 0 1.5-1.1 3-2.5 1.4-1.4 3-2.5 3.4-2.5q.6 0 .5-.3c-.4-.3 3.2-3.7 4-3.7q.5 0 .8-.7c.2-.6-1-.7-6.1-.8-7.8-.1-7.6-.1-7.6-.4l.7-1c.6-.5 2.3-.6 8.5-.6 8.7.1 9.1.3 6 2.8-2.8 2.2-4.7 4.2-4.7 4.7q0 .5-.4.3c-.3-.1-1.8 1-3.4 2.5-2.2 2-2.8 2.8-2.3 3.3.3.3 2.8.6 6.4.7 5 0 6 .2 6.1.9s-.8.8-8.4.8c-7.2 0-8.5-.1-8.5-.7M.3 40c0-.5 2-.6 8.5-.6 5.3 0 8.5.2 8.5.5 0 .5 0 .5-10.4.7-5 0-6.6-.1-6.6-.6m430-21.6V0h37v18.2c0 16.4 0 18.2-.8 18.5-.5.2-8.8.3-18.5.3h-17.7zM4.9 33.9Q3.3 33 2.5 32c-2.1-2.6-3-7.3-1.7-9.8 1.1-2.3 2-2.2 1.5 0a9 9 0 0 0-.2 3.2q.4 1.4-.3.5c-1-1.4 0 2.1 1 3.6q1 1.3 1 1.9t.7.5 1.3.7c.7.8 5.6.7 6.7-.1q.5-.5.9-.4.2 0 1.4-1.5c1.5-2.2 2-6.2.9-7.8q-.7-1.1-.4-2.1.3-1.6 1 .3.6 1.3 1 1.4l-.1 3.6c-.5 5-.6 5.4-.8 5.2 0 0-1 .6-2 1.6-1.8 1.6-2.4 1.8-4.9 1.8A11 11 0 0 1 5 34m9.6-18.3c-.8-.5-2-1-2.5-1.2A42 42 0 0 1 2.7 10C2.5 10 .3 9.4.3 9c0-.2 2.3-1.5 5.1-2.8l6.1-3c1-.2 3.8-1.4 3.8-1.7q0-.3 1-.5c1.8 0 1 1.3-1.2 2.4l-2.7 1c-.6 0-.2 7.2.5 8.6.2.5 1.3 1.1 2.4 1.5q1.8.6 2 1.2 0 1.5-2.8-.2m-4-4.7c.3-.6.6-2 .5-2.9 0-2-.9-2.2-4.4-.8-3 1.2-3.3 3.1-.5 2.8q.4 0 .6.4c.4.5 2.2 1.6 2.7 1.6q.4-.1 1-1.1"/></svg>