<svg xmlns="http://www.w3.org/2000/svg" viewBox="0 0 410.9 566.9"><path d="M0 466.9h402v-20.5H0zm223.5-129.6-.5 1.5-5.9 20.3h13.4L207 430.2h24.4l23.4-71.3h13.4l6.7-21.6zm-62.6 0-7 21.6h15.4l-22.7 71.3h23.8l23.1-71.3h13.7l6.7-21.6zm-33.6 0-30.2 92.9h24l30.2-92.9zM402 408.7h-37.4l23.3-71.3h-24.1l-29.6 92.8H402zm-105.9-71.4-52.3 92.9h24.7l7.5-13.5h26.4l-1.4 13.5h23.8l8.8-92.9zm8.3 60.2h-17.8l22-39.9zm-194.9-39q0 4.4-1.5 9.1C102.7 384 91 394 76 396l-2.2.2 14.2 34H63.3L50.4 395l-10.7 35.2H15.8l10.8-33.5H0v-19.2h32.5l13.2-40.1h41.4a22 22 0 0 1 18.4 8.4q4 5.4 4 12.7M86.3 363a7 7 0 0 0-1.2-4.1q-2-2.6-5.9-2.6H62.3l-6.4 21.1h14.8a17 17 0 0 0 15.1-11.2q.5-1.7.5-3.2"/><g fill-rule="evenodd"><path fill="#e3006b" d="M8.8 0h402.1v308.8h-50.6V50.6H8.8zm402.1 495.4v71.5h-50.6v-71.5z"/><path fill="#94127d" d="M8.8 57.5h344.6v251.3h-50.6V108.1H8.8zm344.6 437.9v71.5h-50.6v-71.5z"/><path fill="#005ea8" d="M8.8 115h287.1v193.8h-50.6V165.6H8.8zm287.1 380.4v71.5h-50.6v-71.5z"/><path fill="#008cd1" d="M8.8 172.5h229.5v136.3h-50.5v-85.7H8.8zm229.5 322.9v71.5h-50.5v-71.5z"/><path fill="#008f4f" d="M8.8 566.9h172v-71.5H8.8zm172-258.1V230H8.8v78.8z"/></g></svg>