<svg viewBox="0 0 410.9 566.9" xmlns="http://www.w3.org/2000/svg"><path d="m0 466.9h402v-20.5h-402zm223.5-129.6-.5 1.5-5.9 20.3h13.4l-23.5 71.1h24.4l23.4-71.3h13.4l6.7-21.6zm-62.6 0-7 21.6h15.4l-22.7 71.3h23.8l23.1-71.3h13.7l6.7-21.6zm-33.6 0-30.2 92.9h24l30.2-92.9zm274.7 71.4h-37.4l23.3-71.3h-24.1l-29.6 92.8h67.8zm-105.9-71.4-52.3 92.9h24.7l7.5-13.5h26.4l-1.4 13.5h23.8l8.8-92.9zm8.3 60.2h-17.8l22-39.9zm-194.9-39c0 2.9-.5 6-1.5 9.1-5.3 16.4-17 26.4-32 28.4l-2.2.2 14.2 34h-24.7l-12.9-35.2-10.7 35.2h-23.9l10.8-33.5h-26.6v-19.2h32.5l13.2-40.1h41.4c7.9 0 14.4 3 18.4 8.4 2.7 3.6 4 7.9 4 12.7zm-23.2 4.5c0-1.6-.4-2.9-1.2-4.1-1.2-1.7-3.4-2.6-5.9-2.6h-16.9l-6.4 21.1h14.8c6.4 0 13.1-5 15.1-11.2.3-1.1.5-2.2.5-3.2z"/><g fill-rule="evenodd"><path d="m8.8 0h402.1v308.8h-50.6v-258.2h-351.5zm402.1 495.4v71.5h-50.6v-71.5z" fill="#e3006b"/><path d="m8.8 57.5h344.6v251.3h-50.6v-200.7h-294zm344.6 437.9v71.5h-50.6v-71.5z" fill="#94127d"/><path d="m8.8 115h287.1v193.8h-50.6v-143.2h-236.5zm287.1 380.4v71.5h-50.6v-71.5z" fill="#005ea8"/><path d="m8.8 172.5h229.5v136.3h-50.5v-85.7h-179zm229.5 322.9v71.5h-50.5v-71.5z" fill="#008cd1"/><path d="m8.8 566.9h172v-71.5h-172zm172-258.1v-78.8h-172v78.8z" fill="#008f4f"/></g></svg>