<svg xmlns="http://www.w3.org/2000/svg" viewBox="0 0 300 240.2"><g fill-rule="evenodd"><path d="M125.3.2c0 .1-1.5.3-3.4.4a11 11 0 0 0-3.7.5 7 7 0 0 1-2.6.5c-1.1 0-2.2.2-2.4.3 0 .2-1 .3-1.9.4s-1.9.3-2.1.5q-.6.3-1.6.3t-1.4.4a4 4 0 0 1-1.8.5c-.7 0-1.5.3-1.6.5q-.4.3-1.2.3-1 0-1 .4-.2.3-1.1.3-.8 0-1.4.5-.4.5-1.3.5t-1.2.3q-.4.4-1.2.4-1 0-1 .4-.2.3-.8.3-.5 0-1 .5t-.8.5l-.7.3q-.4.4-1.3.4t-1 .4-.7.3-1 .5-.8.5-1.1.7-1.2.7-.8.4a1 1 0 0 1-.8.4l-.8.4q-.5.5-.8.5-.5 0-1.1.7t-1.2.8q-.5 0-1.2.8t-1.2.8-1.4.9q-.7.7-1.2.8t-1.9 1.6-2 1.5a77 77 0 0 0-13.8 15q-1.1 1.2-1.2 1.7t-.9 1.2-.8 1.2-.4.9l-.3.7q0 .4-.9 1.2t-.8 1.4-.4.7-.3.6q-.1.6-.5 1t-.5.9l-.4.7-.3.7q0 .4-.4.7-.3.4-.3 1.2 0 .9-.5 1.3t-.5.9l-.4.7q-.3.4-.3 1.2t-.4 1.2q-.3.3-.3.8l-.5 1.5q-.5.9-.5 1.6 0 .5-.4 1-.3.2-.3.8 0 .5-.4.7l-.4.8q.1.6-1 .7-1 0-1.5.5t-.8.5l-.7.4q-.4.3-1.3.3t-1 .4-.7.3-1 .5q-.4.5-1 .5t-.6.4-.8.3-.7.4-.7.3-1.4.9q-.7.7-1.2.8-.4 0-1.2.9-.7.7-1.2.8-.5 0-1.2.7t-1.2.7c-.2 0-1.2 1-2.4 2a11 11 0 0 1-2.4 2.1c-.4 0-3 2.7-3 3.2 0 .2-1 1.2-2.1 2.3q-1.8 2-2 2.5t-.9 1Q9 89 9 89.3q-.1.5-.8 1.3t-.9 1.2l-.4.7-.3.7q0 .4-.5.8t-.5 1-.3.8q-.4 0-.4 1 0 .8-.3 1.2-.4.3-.4.8t-.5 1-.5 1.2-.3 1q-.4.5-.4 1.4t-.3 1.6l-.5 1.9q-.1 1.2-.5 1.6-.3.5-.5 3.3a64 64 0 0 0 3 29.5q.5.5.5 1.4 0 1 .4 1 .2.2.3.7 0 .7.4 1 .3.2.3 1t.5 1.2.5 1 .3.6.4.7q0 .7.9 1.4.7.8.8 1.2 0 .5.4.7.3.4.3.8.1.6 1.2 1.6 1.1 1.2 1.2 1.6t.7 1.2c1.2 1.1 1 1.4-2.7 5.2a19 19 0 0 0-3.5 3.9q0 .4-.5.8t-.5 1-.3.7q-.4 0-.4 1 0 .8-.3 1.2T4 174q0 1.6-.5 2.3c-.7 1-.8 43.8 0 44.5q.3.4.5 2.2.1 1.6.5 2 .3.3.3 1.2t.4 1.2.3.7.5.8.5 1 .7 1 .7 1.1c0 .6 2 2.6 2.6 2.6q.4 0 1 .7t1.1.7 1 .5.8.5q.5 0 .7.3.4.3.9.4.5 0 .7.3.4.3 1.5.5l1.7.5c.6.6 11.5.6 12 0a4 4 0 0 1 1.8-.5q1.1-.1 1.4-.5.3-.3 1.2-.3t1.2-.4c.4-.4 2-.4 2.4 0q.3.3 1.2.4.8 0 1.2.4.3.3 1.5.3 1.4 0 1.7.5c.7.7 12 .7 12.8 0q.3-.6 1.6-.5t1.6-.3c.4-.5 3.5-.5 4.3 0l2 .4 1.6.5q.4.3 2.5.4 2 .2 2.3.4a49 49 0 0 0 15.2-.8q.5-.3 1.7-.5 1.3-.1 1.6-.5.4-.3 1.1-.3t1-.4 1-.3.8-.5c.3-.7 2.6-.7 3.1 0q.5.5 1.3.5t1 .3 1.4.5 1.2.4l1.1.2q1 0 1.2.5c.2.3.6.4 2.8.6a36 36 0 0 0 11.7.3c0-.2 2.5-.3 11-.3 10.7 0 10.9 0 11.2-.6.5-.7 5.6-.7 6.4 0 .7.7 12.8.8 13.6.1.5-.4 2.6-.5 3.2 0q.6.3 3.4.5a57 57 0 0 0 19-.6q.3-.5 1.6-.5t1.6-.3 1.2-.4q1 0 1-.4.1-.3 1.3-.3 1 0 1.2.3.2.4 1 .4 1 0 1.3.4.3.3 1.2.3t1.3.5c.3.3.9.4 3 .6q2.3 0 2.6.4a38 38 0 0 0 13.6-1c.6-.5 6.4-.5 7 0q.4.5 3 .6 2.3 0 2.6.4a50 50 0 0 0 15.3-1q.3-.5 1.7-.5 1.2 0 1.5-.3.2-.4 2.3-.4 2-.1 2.3.4.3.3 1.1.3t1.4.5c.9.8 12.8.8 13.7 0a2 2 0 0 1 1.2-.5q.7 0 1-.3.4-.4 1.3-.4t1.2-.4.7-.3 1.2-.9q.7-.7 1.3-.8c.5 0 3.3-2.7 3.3-3.3q0-.5.7-1.2t.7-1 .5-.9.5-.8.3-.7.4-1.2.3-1.2q.3-.2.5-3.2c0-1.6.3-3 .4-3.2l.2-3q0-4.5 1.8-4.3c.7 0 6.4-5.8 6.4-6.5q0-.5.3-.6.3-.2.4-.7 0-.5.4-.9.3-.3.3-1.2t.5-1.2c.3-.2.4-.6.6-2.8 0-1.4.2-2.6.4-2.7l.2-2q0-1.9-.2-2.1c-.2 0-.3-1.3-.4-2.7-.2-2-.3-2.6-.6-3q-.5-.3-.5-1.3t-.3-1-.4-.7q0-.5-.4-.9l-.3-.7q0-.4-.9-1.2-.7-.8-.8-1.3c0-.5-1.7-2.3-2.4-2.4q-.6 0-.7-.7t-.5-1c-.6-.2-.6-1 0-1.5q.5-.4.5-.8t.3-.7.4-1.3.3-1 .5-1.2.5-1.3q.4-.4.4-1.4 0-1.2.3-1.6c.2-.3.4-1.5.5-2.7a49 49 0 0 0 .3-12.8c-.4-.4-.4-10.9 0-11 .5-.2.4-9.2 0-9.6s-.4-10.8 0-11.2a42 42 0 0 0-.3-12.4q-.2-2.6-.5-2.7-.3-.3-.3-1.5 0-1.4-.5-1.7t-.5-1.3q0-.8-.3-1.2t-.4-.9-.4-.6-.3-.8-.5-1q-.5-.4-.5-.8t-.3-.7l-.4-.7a1 1 0 0 0-.4-.8q-.3-.2-.3-.8t-.9-1.3-.8-1.2a62 62 0 0 0-9-8.7q-.8-.6-1.4-.7t-.6-.7-1-1.4q-.6-.8-.7-1.3l-.4-.7q-.3-.3-.4-1.2.1-1-.4-1.2a1 1 0 0 1-.5-.8q0-.5-.4-.9l-.3-.7-.4-.7q-.4-.3-.4-.8t-.8-1.2-.8-1.3-.4-.8l-.4-.7q0-.4-.8-1.2t-.8-1.3q-.2-.5-1.2-1.6-1.1-1-1.2-1.6A73 73 0 0 0 248 40.6q-.5 0-.7-.4-.1-.3-.7-.3t-.9-.4l-.7-.3q-.4-.1-.8-.5t-.9-.5l-.7-.4q-.3-.3-.8-.3t-.9-.4-1-.3q-.9 0-1.1-.4-.4-.4-.9-.4t-1-.5q-.4-.4-1.2-.4t-1-.4q-.4-.4-1.2-.4t-1.2-.3-1.6-.4q-1.3.1-1.7-.5-.3-.4-1.9-.4-1.3 0-2-.4c-.2-.1-1.4-.4-2.5-.4l-2.4-.4-3.5-.4a11 11 0 0 1-3.6-.5q-.5-.3-3.3-.4h-3l-3.8-4a33 33 0 0 0-6-5q-1-1.2-1.5-1.3-.5 0-1.5-1.2-1.2-1-1.7-1.2-.4 0-1.3-.8-.7-.8-1.2-.8a1 1 0 0 1-.8-.4l-.7-.4q-.4 0-1.2-.8t-1.4-.8-.7-.4-.6-.4-.9-.3l-.7-.4-.7-.3q-.4-.4-.9-.4a1 1 0 0 1-.8-.5 1 1 0 0 0-.8-.5q-.5 0-.9-.3l-.7-.4-.7-.4-.9-.3a1 1 0 0 1-.8-.5 1 1 0 0 0-.8-.5q-.5 0-.9-.3-.4-.4-1.2-.4-1 0-1.1-.4-.2-.3-1-.3t-1.4-.5-1.2-.5-1.2-.3-1.2-.4-1-.3c-.2-.2-1-.4-1.6-.5q-1.3-.1-1.8-.5t-1.5-.4-1.5-.3-1.4-.4l-1.7-.3c-.4-.2-1.7-.4-2.8-.5q-1.9 0-2.4-.4c-.3-.3-1.3-.5-4.1-.6a149 149 0 0 0-20.5-.4M143.8 21q1.5.4 2.7.4l2.3.3 2.5.6a37 37 0 0 1 6 1.5 30 30 0 0 1 5 1.7l1 .3q2.2 1 3 1.2l.6.4.3.2a34 34 0 0 1 5.9 3l1.8.9 2.4 1.6 4.4 3c4.6 3.4 10 8.8 14.6 14.8l1.8 2.3h1.9l5.6-.2a64 64 0 0 1 22 3q.5.4.8.4a43 43 0 0 1 20 14.8l.7.9q1.8 2.3 0 3l-.7.6q-.1.2-.3.2l-1.4.8q-1.1.8-1.5.9l-.2.2c0 .3-1.2.8-1.8.6q-.5 0-.6-.3a41 41 0 0 0-9-9.2 11 11 0 0 0-2.5-1.7q-.7-.2-.7-.4a33 33 0 0 0-7.4-3.1l-2.6-.8a57 57 0 0 0-25.4 0q-1 .3-2.3.2h-1.1l-.6-1.8c-.3-1-.7-2.1-1-2.5l-.2-1.1c0-.5-.9-2.4-1.2-2.7l-1.2-1.4A61 61 0 0 0 176 42.8l-1-.8a14 14 0 0 0-3.3-2.2 21 21 0 0 0-4.3-2.5c-.1-.2-1.9-1.1-2.6-1.4l-.7-.3-3-1.3-.8-.3-1-.4-.9-.3-1-.4q-.4 0-1-.3-.7-.4-1.8-.5l-1.2-.4q-.2-.2-1.2-.3l-2.2-.5a40 40 0 0 0-6.4-1.1l-4.2-.5a80 80 0 0 0-31.7 4.7q-.4.3-.8.3l-1.3.5-1.2.5q-.4 0-.6.4l-.8.3-.7.4q-.3.3-1 .5-.6 0-.7.3l-.6.5a23 23 0 0 0-5.3 3.1l-1.2.9-1.1.8A47 47 0 0 0 81.8 53l-.5.6-2.2 3.3-.8 1.3-4 8.4-.5 1.4q-.3.6-.3 1l-.3 1.2q-.6 1.2-1.2 5.3l-.6 3.4c-.2.9-.3 3.7-.3 7 0 4.7 0 5.7-.3 5.9-.5.2-5.2 1-6.5 1-.6 0-1.8 0-2.6.3l-3 .5a49 49 0 0 0-12.3 3.5l-2.6 1.3a31 31 0 0 0-9.8 7.4l-1.4 1.9a24 24 0 0 0-2.4 5 26 26 0 0 0-.2 12.6l.4 1c.1.9.3 1.2 1.3 3.4l.5 1.4q0 .3.2.3l.5.6c.4 1 .7 1.5 1.6 2.7q.8.8.8 1.2c0 .1 4.9 5 5.6 5.5 1.2.8 2.2 1.5 4 2.3l3 1.4 1.2.4c.7.4 4 .4 57.7.5l56.9.2.3.6c.7 1.4.3 7.4-.5 8-.6.3-111.7.2-112.8-.2l-1.8-.4a22 22 0 0 1-6.1-1.9l-1.7-.6q-.5-.2-.5-.4t-.3-.2A40 40 0 0 1 21 124.7a47 47 0 0 1 .4-12.8 31 31 0 0 1 4.4-9.5 34 34 0 0 1 9.6-9.2l1.2-.7a61 61 0 0 1 21.9-7.6l2.5-.5 1.1-.1.3-2.2.9-7.6.4-2q.1-1.6.4-2l.4-1.4a37 37 0 0 1 2.3-7 61 61 0 0 1 5.4-10.5 67 67 0 0 1 37.2-27.4 63 63 0 0 1 12.4-2.8l2.5-.4c.9-.6 17-.5 19.5 0m122.3 77.7c9 2.8 10.4 16.7 2.1 20.7q-3 1.7-1 1.9c1 0 3.8 2.4 4.8 4.1 3.6 5.6.8 15.3-4.8 16.7q-1.7.6.9 1.7c7.1 3.5 7.5 15.3.6 19.6-3 1.9.8 1.7-40 1.7h-36.2l-1.3-.5q-7.4-3-7.4-10.6c0-4.7 2.7-9.4 6.2-10.5q1.7-.6-.4-1.7c-6-3-7.8-11.8-3.5-17.3 1-1.3 3.4-3.1 4.4-3.3l.7-.2-.5-.6-1-.7c-2.2-.7-5-4-5.6-7a11.4 11.4 0 0 1 7.5-14c1.7-.7 72.4-.6 74.5 0m-74.2 2-1.5.6c-4.6 2-6 10.3-2.5 14.4a9 9 0 0 0 4.3 2.7c2.3.8 70.9.8 73.2 0 7.6-2.4 8.5-13.4 1.4-17.2l-1.3-.7h-36.3c-29.8 0-36.6 0-37.3.2m41.1 6.4c1.7.7 2.2 2.5 1 3.8l-.6.8h-18c-17.6 0-18.1 0-18.6-.5-1.4-1.3-.8-3.7 1-4.1 1-.3 34.7-.2 35.2 0m28.4.4q1.3 1 1 2.5c-.5 2.4-5.3 2.3-5.8-.1-.4-2.3 2.7-3.8 4.8-2.4m-69.2 15.3c-8.7 2-8.4 15.5.3 17.9 1.9.5 70.6.4 72.5 0 8.8-2.3 8.8-15.6 0-18-1.2-.3-71.3-.3-72.8 0M234 130c1 1.2.7 3-.7 3.6s-34.8.6-36.1 0-1.7-2.6-.5-3.8l.5-.6h36.1zm27.6-.1q1.7 2-.3 3.5c-2.2 1.5-5.2 0-4.8-2.4.4-1.8 3.7-2.6 5-1.1M192 145a9.4 9.4 0 0 0-1 17.3l1.4.7H265l1.3-.7c7.4-3.4 6.8-14.7-.8-17.3-1.9-.6-72-.6-73.7 0m42.2 7.1c1 1.2.6 3.1-.7 3.7-1.4.6-35 .5-36.2 0-1.6-.9-1.6-3.7 0-4.2.5-.1 8-.2 18.6-.2h17.7zm27.8.2c1.8 2-.6 4.4-3.6 3.6q-2.5-.9-1.5-3.3c.7-1.5 3.8-1.7 5-.3m-219.3 23c4.5.7 6.3 1.5 8.4 3.6a10 10 0 0 1-2.7 16.2l-1.6.8q-1.3.6.4 1.2c4.3 1.3 5.3 3.6 6.3 14.3.6 5.9-.3 7.9-3.8 7.9q-4.7.2-4.8-10.7 0-1.2-.3-2.2l-.4-2c-.8-3.8-2.7-4.6-11.2-4.6-4.1 0-4.5 0-4.7.5q-.2.7-.2 8.5v8l-.6.7a4.4 4.4 0 0 1-7 0c-.5-.6-.5-.7-.5-20.3v-19.6l.7-1c1.3-1.7 1.6-1.7 10.8-1.7 7 0 8.7 0 11.2.4m93.7.1c2.1 1.1 2 .4 2.1 13.3 0 13 0 12.3 2.2 10.2l3.6-3.4 3.6-3.2 2.3-2c2.2-2.2 3.6-2.4 5.4-.9 2.3 2 1.9 2.5-6.6 9.6q-3 2.5-3 3c0 .3 2.2 2.8 4 4.8 5.4 5.6 7.5 8 7.7 8.8.6 2.4-2.4 4.5-4.7 3.4q-.8-.4-3.6-3.7l-8-9-1.3-1.6c-1.5-1.8-1.5-1.7-1.6 5.7 0 6-.1 6.7-.5 7.3a3.6 3.6 0 0 1-6.4-.6c-.5-1.2-.5-1.2-.4-20.3 0-22.2-.2-20.4 2.4-21.5 1.3-.5 1.5-.5 2.8.1m70 2c1.3 1 1.3 1 1.3 6v4.6l3 .1c3.5.1 4.3.6 4.3 2.8s-1.2 3-4.8 3c-2.8 0-2.6-1-2.4 9.1.2 10.8.1 10.8 4.3 10.8h2.7l.8.8c2.1 2.3.4 4.6-4 5.2q-7.6.9-10-3.8l-.9-1.6q-.6-1.3-.6-12.7c0-8.5 0-7.9-1.8-7.9-5 0-5-5.4 0-5.7h2v-1l.8-7c.2-2.4 3.3-4 5.3-2.6m-178 3.6c-.3.5-.4 12-.2 12.6.3.8 11.2.4 13.3-.4 5.2-2 5.7-9.2.9-11.6-2.2-1.1-13.6-1.6-14-.6m151.4 7a16 16 0 0 1 6 1.6c1.3.5 2.7 2.4 2.7 3.4 0 1.6-2.8 2.4-4.8 1.4-3.7-1.7-10.7-1.6-12.3.2-2 2.3.5 4.8 5.7 5.5l1.2.4 1.4.3 1.5.4 1.2.4q5.4 1.4 7.2 4.6c1.3 2.1 1 6.6-.7 8.6a11 11 0 0 1-3.6 3l-1.1.6c-6.4 3.7-21.7.2-20.8-4.6q.5-3.3 7-.5l1.1.4 1.2.3c2.5 1 7.8.4 9.4-1.2 1.6-1.5 1-4.6-1-5.3l-1.1-.5-1.1-.3q-.7 0-1.6-.3l-2.1-.6a29 29 0 0 1-7.3-2.2c-2 0-4.4-3.7-4.5-6.8 0-6.5 6-9.7 16.4-8.8m59.5 0a14 14 0 0 1 6.2 2 24 24 0 0 1 4.7 4.3c5.3 8.6 2.5 20.1-5.7 23.9-2.2 1-3 1.2-5.5 1.5-7.8.9-14.2-2.1-17.2-8l-.9-2.2q0-.4-.4-1.1c-.3-.7-.4-1.6-.4-4.6s.1-3.9.4-4.5q.4-.8.4-1.2c0-1 2-4 3.5-5.7 3.7-3.8 8.3-5.1 15-4.4m37.3 0c3.7.8 3.2 5.7-.7 6-7.2.8-8.2 2.8-8.2 16 0 7.5-.2 8.7-1.4 8.7l-.5.4c-.9 1-4 .3-5.1-1.2l-.6-.7v-26.7l.6-.7c2-2.7 6.4-2 7 1l.1 1 1.4-1.3c1.6-1.6 2.7-2.3 4.4-2.5 1.6-.3 2-.3 3 0m-194 .7c16 4.9 13.5 29.3-3.1 30.7-11 1-18-4.7-18.6-15-.6-11.3 10.2-19.1 21.7-15.7m37.5 0q5.7 1.8 4.5 5c-.6 1.5-2 1.6-5.4.4-6.5-2.2-12.2 2.3-12.2 9.6 0 8 5.8 12 13.2 9.4 2.8-1 3.5-1 4.3-.1 3.2 3.4-3.8 7.2-12 6.4-15.6-1.5-18-25.4-2.9-30.6 2.7-.9 7.7-1 10.5-.1m-46.5 5c-6.6 3.4-6.6 17 .1 20.4 1.1.6 4.9.8 6 .4 7.4-2.7 8-17.2.8-20.9a10 10 0 0 0-7 0m159.7.1c-2 1-4 3.3-4 4.3l-.3 1a20 20 0 0 0 .4 10.8c0 .3 1.6 2.8 2 2.9l.4.3c1.5 1.5 5.9 2 8 .9 6.6-3.5 6.5-16.7-.2-20.2-1.3-.6-5.2-.6-6.3 0"/><path fill="#e96645" d="M191.6 98.6c-6.1 2.3-9 7.8-7.5 14 .7 3 3.4 6.4 5.6 7.1l1 .7.5.6-.7.2c-1 .2-3.4 2-4.4 3.3-4.3 5.5-2.5 14.3 3.5 17.3q2.2 1 .4 1.7c-3.5 1.1-6.2 5.8-6.2 10.5q0 7.6 7.4 10.6l1.3.5h36.3c40.7 0 37 .2 40-1.7 6.8-4.3 6.4-16.1-.7-19.6q-2.6-1.2-.9-1.7c5.6-1.4 8.4-11 4.8-16.7-1-1.7-3.8-4-4.7-4.1-1.5 0-1-1 1-1.9 8.2-4 6.8-17.9-2.2-20.7-2-.6-72.8-.7-74.5 0m75.2 2.5c7.1 3.8 6.2 14.8-1.4 17.2-2.3.8-70.9.8-73.2 0a9 9 0 0 1-4.3-2.7c-3.6-4.1-2.1-12.5 2.5-14.4l1.5-.6c.7-.2 7.5-.3 37.2-.2h36.4zm-69 5.9c-1.8.4-2.4 2.8-1 4.1.5.5 1 .5 18.6.5h18l.7-.8c1.1-1.3.6-3-1-3.8-.6-.2-34.4-.3-35.3 0m60.2.2q-1.6 1-1.4 2.6c.5 2.4 5.3 2.5 5.8 0 .5-2-2.3-3.8-4.4-2.6m7 15.5c8.8 2.3 8.8 15.6 0 17.8-1.9.5-70.6.6-72.5 0-8.7-2.3-9-15.9-.3-17.8 1.5-.4 71.6-.4 72.9 0m-68.3 7c-1.2 1.2-1 3.2.5 3.8 1.3.6 34.8.6 36.1 0s1.7-2.4.7-3.6l-.7-.8h-36.1zm60.6 0c-1.2.9-1 2.9.4 3.7 2.1 1.3 5.2-.3 4.6-2.4-.4-1.8-3.4-2.6-5-1.4m8.2 15.3c7.6 2.6 8.2 13.9.8 17.3l-1.3.7h-72.8l-1.4-.7a9.4 9.4 0 0 1 1-17.3c1.7-.6 71.8-.6 73.7 0M164 150.5q0 2.9.1 1.6v-3.4zm33 1c-1.6.6-1.6 3.4 0 4.2 1.2.6 34.8.7 36.2 0 1.3-.5 1.7-2.4.7-3.6l-.6-.7h-17.7c-10.5 0-18 0-18.5.2m60.5 0c-2 1-1.6 3.7.5 4.3 3 .8 5.4-1.6 3.6-3.6-.8-1-2.8-1.2-4-.7M22.1 175.3q-1 .6-1.7 1.4l-.7.9v19.6c0 19.6 0 19.7.5 20.3a4.4 4.4 0 0 0 7 0l.6-.8v-8c0-5 0-8.1.2-8.4s.6-.5 4.7-.5c8.5 0 10.4.8 11.2 4.6l.4 2q.3 1 .3 2.2 0 10.9 4.8 10.7c3.5 0 4.4-2 3.8-8-1-10.6-2-13-6.3-14.2q-1.7-.6-.4-1.2l1.6-.8c8.3-3.8 7.3-15.7-1.6-19-3.7-1.2-22-1.9-24.4-.8m111.2 0c-2.6 1-2.4-.7-2.4 21.5-.1 19-.1 19.1.4 20.3 1.2 2.7 4.8 3 6.4.6.4-.6.4-1.4.5-7.3.1-7.4.1-7.5 1.6-5.7l1.3 1.6 8 9q2.8 3.3 3.6 3.7c2.3 1.1 5.3-1 4.7-3.4-.2-.7-2.3-3.2-7.6-8.8a36 36 0 0 1-4.1-4.7q0-.7 3-3.1c8.5-7 8.9-7.6 6.6-9.6-1.8-1.5-3.2-1.3-5.4.8l-5.9 5.3-3.6 3.4c-2.3 2-2.1 2.8-2.2-10.2 0-13 0-12.2-2.1-13.3-1.3-.6-1.5-.6-2.8-.1M39 180.9c8.8 1.1 8.9 11.7.2 13-2.7.3-11 .2-11.2-.2-.2-.7-.2-12.1.1-12.6s7-.7 11-.2m34.9 7.4c-18 2.1-17.3 29.8.8 31.2 11 .9 18.4-5.3 18.4-15.6 0-10.5-8-17-19.2-15.6m38.3 0c-17.3 2-17 29.6.2 31.2 8.1.8 15.1-3 12-6.4-1-1-1.6-1-4.4 0-7.4 2.8-13.2-1.3-13.2-9.3 0-7.3 5.7-11.8 12.2-9.6q6.1 2.4 5.5-1.9c-.4-2.8-6.3-4.7-12.3-4m-31.9 5.4c7.2 3.7 6.6 18.2-.8 20.9-1.1.4-4.9.2-6-.4-6.7-3.3-6.8-17-.1-20.5 1.6-.8 5.3-.8 7 0m95.7-.4h1l-.5-.1z"/></g></svg>