<svg height="84.740334mm" viewBox="0 0 300.00576 240.20882" xmlns="http://www.w3.org/2000/svg"><g fill-rule="evenodd" transform="translate(.00575 .002272)"><path d="m125.34.227c-.043.12-1.594.296-3.442.39-2.273.11-3.484.27-3.738.488-.215.188-1.273.391-2.52.485-1.183.086-2.261.246-2.398.351-.14.11-1.004.274-1.922.364-.922.093-1.886.312-2.148.492-.258.18-.953.324-1.54.324-.632 0-1.237.156-1.484.375-.226.207-1.02.438-1.757.516-.739.074-1.465.285-1.618.465-.148.18-.675.328-1.175.328-.582 0-.957.129-1.043.36-.09.233-.465.358-1.07.358-.626 0-1.075.16-1.368.48-.285.317-.738.481-1.328.481-.5 0-1.023.16-1.191.36-.168.207-.696.363-1.207.363-.582 0-.954.129-1.043.36-.075.199-.395.359-.711.359-.313 0-.766.219-1.004.48-.238.266-.621.48-.848.48-.226 0-.55.165-.715.36-.172.211-.695.363-1.234.363-.613 0-.988.125-1.078.36-.078.199-.383.36-.676.36-.297 0-.734.214-.973.48-.238.265-.613.48-.832.48-.218 0-.71.324-1.09.719-.378.398-.925.722-1.214.722-.293 0-.664.16-.828.36-.165.2-.485.36-.711.36-.227 0-.61.218-.848.48-.242.265-.617.48-.836.48s-.707.324-1.086.723c-.379.394-.914.719-1.187.719-.274 0-.813.378-1.2.843-.398.477-.922.84-1.21.84-.282 0-.88.38-1.329.84s-.984.84-1.195.84c-.207 0-1.074.703-1.926 1.562-.851.86-1.746 1.563-1.984 1.563-.563 0-9.547 9-9.547 9.562 0 .23-.703 1.114-1.559 1.965-.859.852-1.562 1.715-1.562 1.922s-.54.91-1.203 1.563c-.66.652-1.2 1.402-1.2 1.671 0 .27-.378.805-.84 1.192-.495.414-.84.918-.84 1.23 0 .293-.163.664-.362.828-.196.164-.36.48-.36.704 0 .222-.379.77-.84 1.218-.488.473-.84 1.051-.84 1.375 0 .309-.164.625-.363.7-.195.078-.36.382-.36.675 0 .297-.214.735-.48.973-.261.238-.48.621-.48.848 0 .23-.16.55-.36.714-.199.165-.359.489-.359.72 0 .234-.164.558-.36.722-.202.168-.363.691-.363 1.191 0 .59-.164 1.043-.48 1.328-.262.243-.48.621-.48.848 0 .23-.16.55-.36.715-.203.168-.36.691-.36 1.2 0 .51-.155 1.034-.359 1.202-.199.164-.359.532-.359.82 0 .286-.219.942-.484 1.462-.262.519-.477 1.23-.477 1.582 0 .351-.164.777-.363.94-.196.165-.36.552-.36.856 0 .309-.152.649-.336.754-.187.106-.374.461-.421.793-.07.516-.223.61-1.078.672-.61.043-1.16.254-1.418.54-.235.257-.61.468-.836.468-.227 0-.551.164-.715.36-.172.206-.696.359-1.239.359-.613 0-.984.125-1.074.363-.078.195-.383.36-.676.36-.296 0-.734.214-.972.48-.238.265-.676.48-.973.48s-.601.16-.676.36c-.078.199-.414.36-.754.36s-.68.163-.753.362c-.079.196-.375.36-.668.36-.29 0-.895.379-1.34.84-.45.46-.989.84-1.203.84-.211 0-.75.378-1.2.843-.449.461-1.003.84-1.234.84-.23 0-.773.324-1.207.719-.434.398-.957.722-1.16.722-.207 0-1.285.918-2.402 2.04-1.118 1.124-2.2 2.042-2.407 2.042-.476 0-3.12 2.657-3.12 3.133 0 .2-.919 1.274-2.04 2.39-1.125 1.118-2.043 2.2-2.043 2.403 0 .207-.324.73-.719 1.164-.398.434-.722.977-.722 1.207s-.38.785-.84 1.235c-.461.445-.84.992-.84 1.215 0 .222-.164.539-.363.703-.196.164-.36.488-.36.715 0 .226-.214.609-.48.847-.262.238-.48.692-.48 1.004 0 .316-.16.633-.36.711-.23.09-.36.46-.36 1.043 0 .512-.156 1.035-.359 1.207-.199.164-.363.54-.363.832 0 .293-.215.73-.48.969-.29.261-.48.738-.48 1.207 0 .426-.161.91-.36 1.074-.211.176-.36.703-.36 1.29-.004.546-.148 1.269-.324 1.605-.176.335-.387 1.187-.469 1.894-.086.703-.304 1.457-.488 1.668-.226.262-.383 1.328-.484 3.27-.082 1.617-.254 2.914-.39 2.96-.337.114-.337 11.262 0 11.372.136.046.308 1.347.39 2.964.101 1.942.258 3.008.484 3.266.184.215.402.965.488 1.672.082.703.293 1.559.47 1.894.175.336.32 1.06.323 1.602 0 .59.149 1.113.36 1.293.203.168.36.691.36 1.191 0 .59.163 1.043.48 1.329.32.289.48.742.48 1.335 0 .575.129.946.363 1.036.196.074.36.398.36.714 0 .32.16.715.36.88.198.163.358.648.358 1.074 0 .468.192.945.48 1.207.267.238.481.675.481.972s.164.602.36.676c.199.074.363.39.363.7 0 .324.352.902.84 1.374.46.45.84.996.84 1.22 0 .222.164.538.36.702.198.164.362.508.362.762 0 .258.54.984 1.2 1.617s1.199 1.363 1.199 1.625c0 .258.324.781.722 1.16 1.165 1.117 1.02 1.387-2.761 5.164-1.914 1.914-3.485 3.668-3.485 3.903 0 .234-.214.613-.48.836-.262.226-.48.664-.48.968 0 .305-.16.618-.36.692-.23.09-.36.46-.36 1.043 0 .5-.148 1.027-.327 1.18-.192.16-.38.945-.446 1.906-.074 1.03-.285 1.886-.574 2.328-.664 1.015-.715 43.73-.055 44.465.25.277.465 1.101.57 2.183.098.988.313 1.856.5 2.012.184.148.333.68.333 1.176 0 .508.156 1.031.36 1.199.198.164.358.488.358.715 0 .226.22.61.48.847.267.239.485.66.493.938.004.277.328.77.719 1.094.39.324.71.797.71 1.05 0 .602 1.962 2.563 2.563 2.563.254 0 .727.32 1.051.71.324.392.816.716 1.094.72.277.007.699.226.937.492.239.265.621.48.848.48.23 0 .55.16.715.36.164.199.55.36.855.36.309 0 .649.148.754.323.106.18.774.395 1.485.473.71.082 1.476.316 1.699.52.605.546 11.422.546 12.027 0 .223-.204.988-.438 1.7-.52.714-.078 1.382-.293 1.488-.473.105-.18.593-.324 1.109-.324.527 0 1.05-.152 1.219-.36.39-.468 2.011-.468 2.402 0 .168.204.695.36 1.203.36s1.031.156 1.2.363c.195.235.73.36 1.554.36.95 0 1.36.117 1.688.48.675.742 12.058.742 12.73 0 .328-.363.742-.48 1.688-.48.824 0 1.359-.125 1.554-.36.387-.468 3.465-.496 4.336-.039.336.176 1.192.387 1.895.473.707.082 1.457.3 1.668.488.242.211 1.199.383 2.543.465 1.242.074 2.191.238 2.242.39.121.368 10.3.368 10.422 0 .05-.152 1.004-.316 2.242-.39 1.367-.082 2.3-.254 2.55-.473.22-.191 1-.406 1.739-.484.742-.074 1.469-.285 1.617-.465.149-.18.625-.328 1.055-.328s.914-.16 1.078-.36c.164-.199.555-.359.863-.359.317 0 .676-.21.82-.48.372-.692 2.594-.692 3.184 0 .262.305.711.48 1.227.48.449 0 .937.149 1.09.332.152.188.757.407 1.347.496.586.086 1.13.262 1.207.387.078.125.563.227 1.078.227.664 0 1.004.129 1.176.441.2.371.653.469 2.828.602 1.426.09 2.63.265 2.676.398.125.375 8.86.317 8.984-.062.079-.235 2.524-.309 11.008-.336 10.774-.04 10.907-.047 11.239-.543.503-.758 5.609-.762 6.418 0 .718.672 12.8.777 13.53.117.524-.473 2.61-.504 3.27-.055.293.203 1.57.387 3.356.485 1.586.09 2.918.265 2.96.398.11.32 10.302.316 10.41-.004.044-.133 1.24-.308 2.657-.394 2.07-.13 2.656-.246 2.98-.602.294-.324.743-.445 1.657-.445.824 0 1.36-.125 1.555-.36.167-.207.69-.363 1.203-.363.586 0 .957-.125 1.043-.36.097-.245.484-.359 1.234-.359.754 0 1.14.114 1.234.36.09.234.461.36 1.047.36.512 0 1.035.155 1.203.362.168.2.692.36 1.196.36.562 0 1.039.164 1.297.445.32.356.914.477 2.976.61 1.418.09 2.613.269 2.656.394.118.336 8.625.305 8.735-.031.054-.153 1.004-.317 2.242-.39 1.5-.09 2.293-.247 2.601-.52.653-.57 6.383-.57 7.036 0 .32.277 1.164.433 2.968.542 1.387.09 2.555.266 2.602.395.105.313 9.578.316 9.687.004.043-.125 1.239-.305 2.657-.395 2.062-.132 2.656-.254 2.98-.609.293-.328.738-.445 1.656-.445.82 0 1.36-.125 1.555-.36.219-.27.813-.363 2.281-.363 1.47 0 2.059.094 2.282.363.164.196.683.36 1.156.36.543 0 1.055.187 1.398.511.852.801 12.774.801 13.625 0 .309-.293.86-.511 1.282-.511.402 0 .867-.164 1.035-.36.168-.207.691-.363 1.199-.363s1.031-.156 1.2-.36c.167-.199.484-.359.702-.359.223 0 .774-.379 1.219-.84.45-.464 1.02-.843 1.27-.843.578 0 3.296-2.739 3.296-3.317 0-.238.325-.746.72-1.125.398-.379.722-.87.722-1.09 0-.218.215-.593.48-.832.262-.238.48-.62.48-.847s.16-.551.36-.715c.203-.168.36-.691.36-1.2 0-.495.144-1.023.324-1.171.222-.184.379-1.207.492-3.211.09-1.617.27-3.043.394-3.168.13-.129.23-1.516.23-3.086 0-3.027.524-4.258 1.817-4.258.653 0 6.348-5.773 6.348-6.43.004-.3.164-.609.363-.687.2-.074.36-.383.36-.684 0-.3.164-.68.359-.843.207-.172.363-.696.363-1.223 0-.652.13-.992.442-1.16.37-.2.468-.656.601-2.832.086-1.426.266-2.63.399-2.672.133-.043.238-.969.238-2.082s-.105-2.04-.238-2.082c-.133-.043-.313-1.238-.399-2.656-.125-2.07-.242-2.657-.601-2.98-.282-.255-.442-.731-.442-1.302 0-.574-.129-.945-.363-1.035-.195-.074-.36-.398-.36-.719 0-.316-.16-.71-.359-.875-.199-.164-.36-.48-.36-.703 0-.222-.378-.77-.843-1.218-.46-.45-.84-1.012-.84-1.25 0-.582-1.746-2.293-2.441-2.395-.406-.059-.582-.258-.637-.738-.039-.363-.285-.774-.539-.91-.601-.32-.594-1.004.016-1.551.261-.242.48-.621.48-.852 0-.226.16-.547.36-.71.207-.173.359-.696.359-1.239 0-.582.129-.988.336-1.066.187-.07.406-.602.492-1.176s.313-1.176.504-1.332c.215-.18.352-.727.352-1.41 0-.614.144-1.332.324-1.59.18-.262.398-1.445.484-2.63.09-1.187.27-2.26.399-2.39.367-.367.304-10.058-.067-10.43-.418-.417-.402-10.894.016-11.03.414-.141.402-9.212-.016-9.63-.414-.414-.402-10.718.016-11.136.379-.38.402-9.34.023-9.719-.144-.145-.32-1.383-.394-2.75-.094-1.727-.235-2.547-.461-2.684-.207-.12-.324-.644-.324-1.46 0-.97-.118-1.376-.48-1.708-.317-.285-.481-.738-.481-1.328 0-.504-.16-1.027-.36-1.195-.199-.164-.363-.543-.363-.844 0-.3-.16-.61-.36-.683-.199-.075-.359-.395-.359-.711 0-.313-.219-.766-.48-1.004-.266-.238-.48-.621-.48-.848 0-.226-.165-.55-.36-.715-.2-.164-.363-.488-.363-.718s-.16-.555-.36-.72c-.199-.167-.363-.53-.367-.812-.004-.28-.383-.882-.84-1.34-.457-.457-.832-.996-.832-1.203 0-.48-7.457-7.937-7.937-7.937-.2 0-.711-.317-1.133-.7-.426-.39-1.016-.738-1.317-.78-.363-.055-.57-.27-.625-.653-.043-.316-.449-.953-.902-1.418-.45-.465-.816-1.031-.816-1.258 0-.226-.164-.55-.364-.715-.203-.168-.359-.695-.359-1.222 0-.676-.129-.989-.48-1.18-.27-.144-.48-.5-.48-.816 0-.313-.161-.7-.36-.864-.2-.164-.36-.488-.36-.722 0-.23-.164-.555-.359-.719-.2-.164-.363-.527-.363-.813 0-.289-.36-.812-.84-1.21-.496-.415-.84-.922-.84-1.23 0-.294-.164-.665-.36-.83-.199-.163-.363-.48-.363-.702 0-.223-.379-.77-.84-1.219-.46-.45-.84-1.016-.84-1.262s-.538-.965-1.199-1.597c-.664-.633-1.203-1.36-1.207-1.61 0-.578-8.882-9.465-9.457-9.465-.23 0-.945-.539-1.586-1.199-.644-.66-1.375-1.199-1.62-1.199-.247 0-.817-.379-1.262-.844-.45-.46-.989-.84-1.203-.84-.211 0-.754-.378-1.2-.84-.449-.46-1.054-.84-1.343-.84-.29 0-.59-.163-.665-.363-.078-.195-.398-.359-.718-.359-.317 0-.715-.16-.88-.36-.163-.199-.484-.359-.71-.359-.227 0-.61-.218-.848-.48-.238-.266-.62-.48-.847-.48-.23 0-.551-.165-.715-.364-.164-.195-.543-.36-.84-.36s-.676-.16-.84-.359-.652-.359-1.082-.359-.918-.164-1.082-.36c-.164-.199-.54-.363-.832-.363-.293 0-.73-.215-.969-.48-.262-.29-.738-.48-1.207-.48-.426 0-.91-.16-1.074-.36-.168-.203-.691-.36-1.203-.36-.508 0-1.031-.156-1.2-.359-.195-.238-.73-.36-1.554-.36-.95 0-1.36-.116-1.688-.483-.343-.38-.738-.477-1.906-.477-.84 0-1.672-.14-1.945-.328-.258-.176-1.438-.395-2.613-.485-1.18-.085-2.262-.253-2.403-.367-.144-.117-1.719-.289-3.504-.383-2.109-.113-3.367-.28-3.601-.488-.242-.21-1.317-.34-3.274-.394l-2.918-.078-3.902-3.903c-2.148-2.148-4.086-3.902-4.3-3.902-.22 0-.93-.543-1.579-1.203-.652-.66-1.351-1.2-1.555-1.2-.203 0-.91-.539-1.57-1.195s-1.402-1.195-1.656-1.199c-.25-.004-.824-.387-1.27-.848-.449-.465-1.015-.843-1.257-.843-.243 0-.575-.16-.739-.36-.164-.199-.488-.36-.715-.36-.23 0-.785-.378-1.234-.839-.457-.469-1.055-.84-1.36-.84-.304 0-.613-.164-.687-.363-.074-.2-.383-.36-.683-.36-.301 0-.68-.164-.844-.359-.164-.2-.488-.363-.723-.363-.23 0-.555-.16-.719-.36-.164-.199-.554-.359-.863-.359-.316 0-.676-.21-.82-.48-.145-.27-.5-.48-.82-.48-.31 0-.696-.161-.86-.36-.164-.2-.488-.36-.719-.36-.234 0-.558-.164-.722-.363-.164-.195-.551-.36-.864-.36-.316 0-.671-.21-.816-.48a1.008 1.008 0 0 0 -.82-.48c-.309 0-.7-.16-.864-.36-.171-.207-.695-.359-1.238-.359-.613 0-.984-.125-1.074-.363-.09-.23-.461-.36-1.04-.36-.589 0-1.042-.164-1.331-.48-.258-.285-.738-.48-1.192-.48-.418 0-.968-.157-1.222-.352-.258-.195-.805-.356-1.219-.36-.414-.003-.875-.156-1.023-.335-.149-.18-.875-.391-1.614-.465-.742-.078-1.53-.309-1.761-.516-.243-.223-.852-.375-1.489-.375-.593 0-1.285-.156-1.543-.351-.257-.192-.882-.356-1.39-.36s-1.266-.16-1.68-.348c-.418-.187-1.648-.386-2.738-.44-1.313-.067-2.121-.224-2.403-.47-.32-.28-1.316-.406-4.144-.527-2.047-.09-3.758-.266-3.805-.39-.105-.313-16.543-.317-16.652-.008m18.488 20.816c.836.184 2.04.336 2.676.336.637 0 1.684.152 2.328.34.64.187 1.762.453 2.488.586 1.914.347 3.621.746 4.446 1.03.394.138 1.097.34 1.558.45 1.082.258 3.031.914 4 1.34.418.184.867.336 1.004.336.133 0 .55.148.922.328 1.527.746 2.398 1.106 3.023 1.25.364.086.66.25.66.367 0 .121.118.215.266.215.293 0 4.348 1.91 4.54 2.14.066.079.66.415 1.32.743.66.332 1.468.777 1.8.992l2.403 1.563c.992.644 2.238 1.492 2.773 1.89.535.395 1.274.934 1.64 1.2 4.598 3.312 9.938 8.703 14.63 14.773l1.761 2.281 1.907-.023c1.05-.016 3.566-.11 5.593-.22 3.676-.19 9.145.09 12.047.622.727.133 2.024.352 2.88.488.859.137 1.667.336 1.8.446.137.105.73.273 1.328.37.594.094 1.371.325 1.727.509.355.18.902.328 1.214.328.313 0 .778.16 1.036.355.254.192.605.356.777.36.473.011 6.027 2.546 6.293 2.874.066.079.39.282.719.45 2.379 1.207 6.101 4.015 8.59 6.476 1.937 1.918 4.382 4.664 4.382 4.922 0 .082.325.504.723.938 1.254 1.375 1.254 2.562 0 3.082-.398.164-.723.394-.723.511 0 .114-.109.211-.242.211-.137 0-.781.375-1.441.84-.656.461-1.305.84-1.438.84s-.242.09-.242.203c0 .356-1.21.766-1.816.613-.32-.082-.586-.226-.586-.328 0-.785-7.11-8.414-7.84-8.414-.07 0-.574-.351-1.125-.781-1.203-.938-1.77-1.297-2.559-1.637-.328-.14-.652-.328-.722-.422-.168-.222-2.067-1.12-4.926-2.336-.399-.168-1.48-.523-2.402-.789-.926-.27-2.114-.609-2.645-.765-2.71-.785-8.332-1.399-12.848-1.399-4.636 0-10.304.594-12.523 1.313-.613.195-1.64.324-2.281.285l-1.164-.074-.575-1.801c-.316-.992-.722-2.09-.906-2.441-.18-.348-.328-.86-.328-1.133 0-.45-.86-2.383-1.191-2.672-.075-.066-.618-.715-1.211-1.441-2.77-3.403-7.11-7.692-9.32-9.22-.555-.382-1.008-.761-1.008-.84 0-.081-.407-.417-.899-.75a32.756 32.756 0 0 1 -1.14-.784c-1.575-1.203-2.536-1.856-2.731-1.856-.133 0-.395-.156-.586-.347-.371-.371-2.539-1.645-3.523-2.07-.328-.141-.653-.329-.723-.423-.121-.16-1.926-1.082-2.645-1.347a5.347 5.347 0 0 1 -.722-.348c-.77-.457-2.59-1.23-2.906-1.238-.184-.004-.547-.168-.801-.36-.258-.195-.696-.351-.977-.351s-.719-.16-.976-.356c-.254-.191-.68-.355-.946-.359-.261-.008-.777-.164-1.14-.355-.36-.188-1.145-.418-1.743-.504-.597-.09-1.14-.25-1.203-.356-.066-.105-.578-.265-1.136-.351a25.319 25.319 0 0 1 -2.223-.489c-1.703-.464-3.73-.808-6.367-1.082a151.92 151.92 0 0 1 -4.2-.504c-4.44-.613-15.355.172-21.019 1.516-.594.14-1.621.36-2.281.488-.66.125-1.309.317-1.442.422-.132.106-.707.27-1.28.363-.571.094-1.329.325-1.68.508-.352.184-.86.336-1.122.344-.265.004-.691.168-.949.36-.254.195-.695.355-.972.355-.282 0-.72.156-.977.351-.254.192-.629.356-.828.36-.203.004-.77.222-1.262.488-.492.262-1.043.48-1.226.48-.184 0-.47.16-.633.36-.164.2-.489.36-.719.36s-.55.156-.707.347c-.16.188-.606.414-.992.496-.387.086-.703.246-.703.356 0 .109-.297.316-.66.457-.774.308-3.247 1.691-3.422 1.914-.204.254-1.653 1.234-1.829 1.234-.09 0-.628.379-1.19.84-.563.465-1.08.844-1.142.844-.136 0-.933.668-3.703 3.097-2.73 2.395-3.96 3.715-6.906 7.418-.133.168-.352.438-.484.602-.133.16-.563.777-.961 1.37-.395.595-.778 1.138-.844 1.2-.07.067-.262.39-.426.723-.164.328-.504.926-.758 1.32-.402.629-2.55 4.899-3.507 6.965-.207.46-.371.937-.496 1.426a6.866 6.866 0 0 1 -.489 1.32c-.18.34-.324.805-.324 1.031 0 .227-.152.766-.336 1.2-.367.867-.723 2.417-1.215 5.351-.191 1.125-.39 2.246-.597 3.363-.16.864-.25 3.7-.223 7.075.039 4.652-.012 5.66-.293 5.8-.504.258-5.277.938-6.566.938-.618 0-1.79.152-2.61.34-.972.215-1.953.41-2.933.582-2.649.453-6.325 1.367-7.512 1.867-.438.183-.977.336-1.203.34-.227.004-.844.219-1.371.472-.532.254-1.09.47-1.243.473-.156.004-.59.164-.96.352-.864.425-1.731.843-2.598 1.261-2.059.98-4.414 2.418-5.649 3.438-.242.2-.851.703-1.359 1.117-1.453 1.191-2.078 1.816-2.848 2.848-.78 1.047-1.07 1.422-1.437 1.87-.41.497-2.043 3.755-2.043 4.075-.004.164-.145.57-.32.906-1.125 2.156-1.239 11.184-.157 12.606.098.129.254.617.344 1.078.16.828.293 1.172 1.309 3.39.277.61.504 1.23.504 1.38 0 .152.097.277.218.277s.34.297.489.66c.375.914.73 1.484 1.636 2.625.43.543.782 1.07.782 1.176 0 .175 4.851 4.988 5.558 5.507 1.192.88 2.254 1.512 3.98 2.368.762.379 1.676.84 2.028 1.02.352.183.836.335 1.082.335.242 0 .766.188 1.16.418.68.395 4.07.426 57.64.54l56.919.12.304.602c.72 1.418.336 7.418-.507 7.98-.578.39-111.688.215-112.793-.175-.563-.196-1.367-.36-1.79-.36-.425 0-1.519-.223-2.433-.5-1.738-.52-1.95-.598-3.703-1.379-.594-.262-1.324-.55-1.621-.637-.297-.085-.54-.257-.54-.382 0-.121-.12-.223-.269-.223-.922 0-5.43-3.285-8.215-5.984-2.16-2.098-5.93-6.75-5.93-7.325 0-.054-.374-.675-.84-1.378-.46-.7-.839-1.47-.839-1.704 0-.23-.102-.425-.227-.425-.12 0-.289-.243-.375-.54-.132-.43-.293-.851-.476-1.261-.695-1.54-1.324-3.227-1.324-3.559 0-.191-.16-.66-.36-1.035-.195-.379-.36-1.027-.36-1.441 0-.41-.163-1.207-.362-1.77-.43-1.226-.512-9.46-.106-10.812.137-.461.348-1.325.461-1.918.402-2.067 2.871-7.883 3.57-8.403.09-.07.465-.586.832-1.152 1.739-2.688 7.739-8.46 8.79-8.46.144 0 .265-.09.265-.2 0-.113.242-.328.54-.485a19.5 19.5 0 0 0 1.26-.75c1.095-.714 6.497-3.367 6.876-3.375.184-.007.543-.168.797-.363.258-.191.691-.355.96-.36.274-.003.704-.167.962-.359.257-.195.687-.355.96-.355.274 0 .79-.156 1.153-.344.363-.191 1.148-.418 1.746-.508s1.14-.254 1.207-.359c.066-.11.633-.27 1.258-.352.625-.085 1.543-.308 2.043-.496.496-.187 1.234-.34 1.64-.34.407 0 1.403-.164 2.22-.359.812-.2 1.972-.418 2.577-.488l1.102-.133.289-2.21c.16-1.22.383-3.368.496-4.778s.281-2.688.375-2.84.266-1.031.383-1.957c.113-.922.293-1.805.394-1.961.102-.16.313-.828.465-1.488.512-2.172 1.383-4.89 1.91-5.965.184-.371.332-.793.332-.934 0-.816 3.528-7.691 5.395-10.515 7.379-11.153 17.707-19.532 30.875-25.043.46-.196 1.219-.52 1.68-.723.465-.207 1.597-.617 2.523-.914s1.899-.629 2.16-.742c.95-.403 5.285-1.532 7.328-1.907.727-.132 1.668-.351 2.098-.484.426-.133 1.762-.34 2.965-.465s2.312-.304 2.465-.402c.886-.559 16.98-.492 19.566.082m122.262 77.68c8.98 2.812 10.414 16.664 2.144 20.71-1.93.946-2.39 1.844-.957 1.86.883.012 3.707 2.45 4.754 4.105 3.555 5.637.762 15.297-4.828 16.7-1.148.289-.84.91.852 1.726 7.172 3.453 7.578 15.235.672 19.578-3.008 1.891.738 1.73-39.946 1.73h-36.265l-1.325-.523c-4.89-1.93-7.445-5.578-7.445-10.644 0-4.664 2.797-9.356 6.223-10.442 1.21-.386 1.078-1.03-.36-1.73-6.058-2.969-7.828-11.797-3.48-17.344 1.012-1.289 3.363-3.058 4.363-3.277l.742-.16-.539-.575c-.297-.316-.765-.644-1.043-.73-2.144-.668-4.863-4.098-5.562-7.02-1.516-6.335 1.367-11.757 7.465-14.042 1.715-.645 72.472-.57 74.535.078m-74.176 2.011c-.465.176-1.152.446-1.531.602-4.633 1.867-6.078 10.254-2.477 14.348 1.203 1.363 2.434 2.152 4.301 2.75 2.305.734 70.89.718 73.2-.016 7.632-2.441 8.5-13.422 1.355-17.238l-1.23-.66-36.387-.051c-29.747-.043-36.543.008-37.23.265m41.116 6.383c1.688.703 2.168 2.461 1.04 3.801l-.645.77h-18.07c-17.598 0-18.079-.012-18.57-.47-1.407-1.308-.821-3.69 1.023-4.156.918-.234 34.656-.18 35.222.055m28.395.375c.762.5 1.187 1.582.988 2.496-.535 2.434-5.324 2.356-5.781-.09-.434-2.308 2.613-3.835 4.793-2.406m-69.27 15.297c-8.617 1.918-8.344 15.555.36 17.879 1.855.496 70.613.477 72.523-.023 8.766-2.282 8.777-15.54.012-17.887-1.285-.344-71.344-.313-72.895.031m41.89 7.172c1.056 1.258.743 3.004-.655 3.668-1.278.61-34.84.61-36.118 0-1.402-.664-1.668-2.621-.523-3.84l.531-.566h36.145zm27.642-.078c1.203 1.285 1.093 2.594-.297 3.535-2.235 1.52-5.207-.008-4.754-2.441.34-1.805 3.703-2.536 5.05-1.094m-69.773 15.152c-7.68 2.856-8.328 13.5-1.05 17.215l1.41.719h72.777l1.379-.645c7.363-3.449 6.789-14.738-.88-17.328-1.823-.617-71.98-.578-73.636.04m42.176 7.077c1.027 1.196.648 3.086-.735 3.664-1.39.578-34.988.512-36.152-.074-1.61-.808-1.562-3.64.063-4.117.46-.137 7.98-.211 18.507-.188l17.735.043zm27.762.137c1.843 2.063-.516 4.477-3.547 3.629-1.57-.441-2.172-1.754-1.485-3.262.688-1.512 3.805-1.742 5.032-.367m-219.336 23.086c4.523.695 6.285 1.445 8.406 3.578 4.883 4.902 3.445 13.348-2.762 16.219l-1.562.722c-.88.41-.735.891.359 1.215 4.313 1.278 5.34 3.578 6.387 14.282.582 5.933-.38 7.945-3.805 7.945-3.27 0-4.777-3.32-4.863-10.692-.004-.66-.117-1.632-.25-2.16a55.676 55.676 0 0 1 -.465-2.093c-.758-3.735-2.68-4.512-11.184-4.512-4.12 0-4.433.031-4.668.465-.156.293-.246 3.402-.246 8.445v7.977l-.613.808c-1.746 2.29-5.234 2.29-6.93 0-.504-.676-.504-.758-.504-20.312v-19.637l.688-.906c1.324-1.735 1.633-1.785 10.84-1.797 6.91-.012 8.629.058 11.172.453m93.668.062c2.156 1.102 2.039.368 2.117 13.29.082 13.023-.082 12.273 2.21 10.164l3.606-3.32a285.276 285.276 0 0 1 3.602-3.262c.726-.641 1.746-1.567 2.27-2.063 2.183-2.07 3.64-2.281 5.386-.785 2.273 1.945 1.879 2.52-6.574 9.57-1.965 1.64-3.004 2.696-3.004 3.059 0 .207 2.152 2.715 4.082 4.758 5.32 5.629 7.41 8.046 7.598 8.796.593 2.372-2.407 4.524-4.672 3.352-.618-.316-1.672-1.379-3.625-3.637-1.88-2.175-7.25-8.273-7.953-9.023a28.65 28.65 0 0 1 -1.344-1.567c-1.442-1.851-1.485-1.699-1.574 5.657-.07 5.922-.125 6.722-.512 7.308-1.586 2.418-5.246 2.094-6.39-.566-.512-1.188-.512-1.258-.446-20.348.074-22.176-.129-20.394 2.46-21.488 1.278-.54 1.52-.527 2.763.105m69.964 2.063c1.336.883 1.364.996 1.372 5.96l.007 4.599 2.875.085c3.586.106 4.348.598 4.368 2.82.015 2.18-1.172 2.91-4.747 2.91-2.808 0-2.582-.866-2.433 9.188.16 10.813.133 10.747 4.328 10.747h2.637l.808.859c2.16 2.289.39 4.59-3.949 5.144-5.047.649-8.559-.66-10.11-3.765a789.56 789.56 0 0 0 -.804-1.613c-.43-.852-.645-5.032-.652-12.668-.008-8.493.129-7.891-1.801-7.891-5.047 0-5.024-5.457.027-5.719l1.985-.105.117-.992c.14-1.208.617-5.7.734-6.926.223-2.38 3.29-3.914 5.238-2.633m-178.038 3.629c-.265.496-.359 11.933-.101 12.605.289.754 11.207.442 13.305-.379 5.156-2.023 5.675-9.257.84-11.668-2.15-1.07-13.528-1.523-14.044-.558m151.438 6.96c2.18.18 4.457.712 5.402 1.259.196.113.52.277.719.367 1.203.531 2.656 2.422 2.633 3.422-.035 1.57-2.781 2.386-4.813 1.43-3.726-1.762-10.66-1.65-12.273.199-2.024 2.316.46 4.734 5.629 5.484.629.09 1.195.25 1.261.355.067.106.684.266 1.38.36.69.094 1.37.258 1.511.37.137.11.676.306 1.2.434 3.554.883 5.952 2.391 7.222 4.528 1.266 2.137.883 6.652-.734 8.668-1.141 1.414-2.317 2.41-3.618 3.058-.394.196-.882.45-1.078.563-6.367 3.613-21.699.16-20.789-4.684.414-2.203 2.547-2.332 7.012-.418.418.18.918.325 1.113.325.196 0 .742.164 1.219.363 2.414 1.008 7.707.332 9.332-1.192 1.613-1.52.984-4.671-1.063-5.308a4.6 4.6 0 0 1 -1.023-.5c-.258-.18-.77-.328-1.133-.328-.367 0-1.07-.149-1.57-.328-.496-.184-1.445-.442-2.106-.582-3.07-.637-6.539-1.668-6.746-2.004-.07-.114-.316-.207-.547-.207-2.066 0-4.437-3.641-4.453-6.836-.023-6.477 5.883-9.664 16.313-8.797m59.562.027c2.028.223 4.25.82 4.97 1.332.175.125.741.442 1.257.703.934.473 4.066 3.395 4.64 4.32 5.282 8.579 2.532 20.087-5.699 23.837-2.214 1.007-3.066 1.246-5.5 1.523-7.789.89-14.191-2.106-17.16-8.031-.484-.965-.883-1.922-.883-2.117 0-.2-.18-.727-.402-1.176-.328-.656-.406-1.524-.406-4.547 0-3.02.078-3.887.406-4.543.223-.45.402-.977.402-1.176 0-.96 1.895-4.058 3.485-5.703 3.652-3.773 8.3-5.152 14.89-4.422m37.434-.023c3.695.86 3.102 5.695-.75 6.097-7.191.75-8.219 2.735-8.219 15.864 0 7.586-.187 8.789-1.351 8.797-.149 0-.407.164-.57.363-.852 1.027-3.9.308-5.087-1.2l-.558-.71v-26.684l.55-.7c2.094-2.663 6.446-1.968 6.973 1.11l.168.996 1.367-1.379c1.602-1.613 2.739-2.27 4.395-2.53 1.676-.263 2.031-.267 3.082-.024m-194.09.765c16.031 4.871 13.59 29.266-3.07 30.684-10.985.937-17.969-4.7-18.543-14.965-.637-11.324 10.18-19.191 21.613-15.719m37.57-.02c3.747 1.13 5.278 2.876 4.438 5.06-.563 1.452-1.918 1.546-5.402.363-6.5-2.207-12.172 2.242-12.172 9.55 0 7.977 5.785 12.094 13.21 9.403 2.833-1.028 3.462-1.047 4.321-.125 3.2 3.426-3.816 7.215-11.95 6.457-15.718-1.465-18.027-25.446-2.94-30.598 2.663-.91 7.667-.965 10.495-.11m-46.554 4.915c-6.625 3.453-6.535 17.172.136 20.504 1.102.55 4.891.777 6.032.363 7.39-2.684 7.93-17.223.773-20.887-1.64-.843-5.305-.832-6.941.02m159.586.117c-1.903 1.023-3.91 3.227-3.91 4.285 0 .227-.153.63-.336.89-.864 1.235-.864 8.329 0 10.009.183.355.336.761.336.902 0 .309 1.671 2.738 1.96 2.855.114.043.34.211.504.368 1.48 1.445 5.836 1.894 7.914.82 6.696-3.465 6.586-16.7-.164-20.125-1.265-.64-5.117-.645-6.304-.004"/><path d="m128.383 20.684c-2.113.09-4.223.28-4.684.43-.46.144-1.324.265-1.922.269-.593.004-1.511.117-2.043.258-.527.136-1.714.398-2.64.582-2.785.547-4.57 1-5.106 1.285-.277.148-.742.27-1.027.27s-.86.144-1.277.32c-.418.175-1.512.562-2.438.859-.926.3-2.031.7-2.46.883-.52.226-1.04.445-1.563.66-2.375.973-6.782 3.102-6.868 3.32-.043.114-.187.203-.324.203-.3 0-4.543 2.48-5.84 3.418-.527.383-1.734 1.258-2.675 1.95-7.536 5.52-15.25 14.656-18.692 22.136a24.786 24.786 0 0 1 -.644 1.32c-.133.231-.246.473-.348.72-.074.199-.344.804-.598 1.347s-.46 1.113-.46 1.266c0 .152-.11.465-.239.695-.613 1.07-2.031 5.86-2.683 9.063-.137.66-.399 1.8-.582 2.539-.188.734-.34 1.816-.34 2.402-.004 1.223-.684 7.234-.84 7.387-.055.054-.781.183-1.613.285-1.614.195-3.79.597-5.352.988a41.22 41.22 0 0 1 -2.281.477c-.727.132-1.426.34-1.551.464-.125.125-.395.227-.602.227-.511-.008-3.582.93-4.414 1.344-.375.187-.867.34-1.093.34-.23 0-.625.16-.883.351-.254.195-.621.356-.813.363-.437.008-5.785 2.645-6.215 3.063-.175.168-.421.305-.55.305-.274 0-1.739.996-1.856 1.261-.043.102-.176.18-.297.18-.886 0-6.023 4.762-7.976 7.39-2 2.696-2.086 2.833-3.184 5.102-1.09 2.246-1.262 2.742-2.293 6.485-.469 1.707-.57 10.062-.14 11.597.195.688.425 1.762.511 2.387s.258 1.2.383 1.277c.125.075.227.356.227.621 0 .446.55 1.98 1.324 3.692.176.398.394.965.476 1.262.086.296.247.539.36.539.11 0 .273.328.363.722.086.395.23.719.324.719s.301.297.465.66c.844 1.887 3.356 5.281 5.797 7.84 1.39 1.457 5.793 5.191 6.117 5.191.067 0 .598.32 1.176.715.582.39 1.316.82 1.633.957.32.137.742.344.941.465.196.117.766.387 1.258.602.496.21 1.254.547 1.684.746.43.195 1.16.426 1.62.512.462.085.962.25 1.11.363.145.117 1.012.304 1.922.426.906.117 1.957.332 2.328.476 1.219.477 112.2.363 112.68-.113.492-.492.558-7.453.074-8.102-.277-.379-4.18-.41-57.105-.468-53.524-.055-56.848-.086-57.528-.48-.394-.231-.906-.419-1.133-.419-.382 0-3.734-1.543-4.87-2.238-2.024-1.242-2.958-2-5.223-4.246-1.422-1.406-2.582-2.64-2.582-2.742s-.352-.633-.782-1.184c-.992-1.273-1.324-1.8-1.648-2.621-.145-.363-.356-.66-.477-.66-.12 0-.218-.125-.218-.278 0-.148-.227-.77-.504-1.379-1.34-2.93-1.844-4.57-2.203-7.167-.5-3.618-.188-8.192.68-9.848.19-.367.343-.809.347-.988 0-.29.39-1.149.996-2.2.117-.199.344-.629.504-.96.164-.333.383-.708.48-.84 1.676-2.184 2.32-2.973 2.801-3.426 1.02-.953 2.95-2.57 3.352-2.805.215-.121.5-.316.633-.43.66-.566 2.851-1.843 4.57-2.664.867-.418 1.734-.836 2.597-1.261.372-.188.805-.348.961-.352.153-.004.711-.219 1.243-.473.527-.254 1.144-.468 1.37-.472.227-.004.766-.156 1.204-.34 1.137-.48 4.648-1.36 7.39-1.852.727-.129 2.079-.39 3.004-.578a32.03 32.03 0 0 1 3.5-.465c2.121-.144 5.243-.593 5.72-.832.273-.132.327-1.203.296-5.797-.023-3.164.074-6.27.219-7.078l.597-3.363c.547-3.121.868-4.516 1.223-5.352.184-.433.336-.972.336-1.199 0-.226.145-.691.324-1.031.207-.422.371-.863.489-1.32.09-.387.316-1.028.5-1.426.187-.395.562-1.234.832-1.86 1.07-2.468 2.8-5.703 3.328-6.234.16-.156.293-.379.293-.496 0-.113.347-.672.777-1.242.39-.52.773-1.043 1.14-1.578.2-.297.473-.66.61-.809.137-.148.766-.918 1.402-1.71 2.176-2.708 5.692-6.134 7.993-7.786.445-.316.804-.668.804-.781 0-.11.113-.2.246-.2.137 0 .918-.527 1.742-1.171.825-.645 1.739-1.246 2.036-1.336.296-.094.543-.25.543-.352 0-.101.566-.48 1.257-.843a36.447 36.447 0 0 0 1.985-1.118c.394-.254.988-.566 1.32-.703a6.62 6.62 0 0 0 .961-.484c.2-.133.523-.305.719-.38.199-.073.523-.233.722-.358a5.4 5.4 0 0 1 .72-.364c.452-.187.905-.386 1.347-.597.543-.254 1.137-.465 1.32-.47.184-.003.547-.167.8-.359.259-.195.696-.351.978-.351.277 0 .718-.16.972-.356.258-.191.668-.355.914-.359.242-.004.781-.16 1.2-.344.726-.32 1.378-.515 3.757-1.113.598-.148 1.621-.414 2.285-.59 1.625-.437 3.887-.816 6.485-1.094 1.187-.125 2.972-.335 3.96-.472 2.321-.309 9.145-.309 11.637.008 1.067.132 2.856.347 3.977.48 2.723.316 4.902.688 6.363 1.078 1.149.305 2.211.574 4.325 1.098.527.129 1.3.394 1.718.59.418.191.926.351 1.133.351s.73.153 1.164.34c.434.188 1.383.57 2.11.856 1.808.703 5.882 2.625 7.328 3.453 1.707.976 3.867 2.25 4.336 2.558 1.593 1.035 3.988 2.742 4.496 3.2.422.37.863.726 1.32 1.058 1.914 1.379 6.617 6.035 8.723 8.637.84 1.031 1.586 1.93 1.664 1.996.285.242 1.195 2.187 1.195 2.555 0 .207.145.714.32 1.132.176.414.59 1.567.926 2.559l.606 1.8.988.075c.543.04 1.398-.05 1.898-.203.934-.281 4.094-.797 7.274-1.188 4.773-.582 14.511-.027 17.773 1.012.465.149 1.274.352 1.8.45.911.167 2.79.745 3.845 1.175 2.644 1.082 5.261 2.352 6.289 3.047.449.309.875.559.941.559.16 0 2.086 1.437 3.45 2.582 1.761 1.472 4.304 4.148 5.706 5.992 1.516 2.004 2 2.254 2.965 1.535.38-.277.735-.504.793-.504.125 0 3.946-2.504 4.414-2.894.606-.5-.379-3.11-1.172-3.11-.113 0-.207-.125-.207-.273 0-.352-1.75-2.403-3.953-4.633-2.648-2.68-6.492-5.625-9.02-6.91-.327-.168-.652-.371-.718-.45-.266-.328-5.82-2.863-6.293-2.874-.172-.004-.523-.168-.777-.36-.258-.195-.723-.355-1.036-.355-.312 0-.859-.149-1.214-.328-.356-.184-1.133-.415-1.727-.508-.598-.098-1.191-.266-1.328-.371-.133-.11-.941-.301-1.8-.43-1-.156-2-.32-3-.492-3.067-.547-8.462-.828-12.052-.633-1.957.11-4.418.207-5.468.219l-1.907.023-1.761-2.281c-4.86-6.29-8.813-10.27-14.48-14.57-3.278-2.493-5.36-3.926-5.696-3.926-.149 0-.305-.098-.348-.215-.074-.2-1.922-1.309-3.324-2-.328-.164-.652-.363-.719-.445-.148-.184-4.894-2.43-6.965-3.297-.464-.196-1.168-.492-1.562-.66-.395-.168-1.477-.551-2.402-.848-.926-.297-1.899-.629-2.16-.742-.962-.41-5.145-1.496-7.688-1.996a54.797 54.797 0 0 1 -2.64-.582 9.31 9.31 0 0 0 -1.923-.258c-.53-.004-1.718-.156-2.644-.344-2.012-.402-9.918-.586-15.371-.355m13.691.578c6.594.843 10.586 1.601 14.293 2.722.856.258 1.992.594 2.52.746.527.149 1.175.372 1.441.497.563.257 2.309.882 3.414 1.218.426.13.836.34.914.465.078.13.297.23.48.23.891 0 8.048 3.786 12.259 6.489 4.835 3.098 10.742 8.258 14.878 12.996.528.605 1.23 1.414 1.563 1.793.691.8 1.332 1.64 1.922 2.516.226.332.488.64.781.918.23.207.418.496.418.64 0 1.133.883 1.305 5.41 1.047 4.988-.281 11.918-.102 14.528.383.988.183 2.394.437 3.12.57 2.747.492 7.356 1.82 9.25 2.66 3.481 1.547 8.477 4.32 9.844 5.47.133.108.891.722 1.684 1.362 3.89 3.137 9.27 9.332 8.812 10.149-.105.183-.937.808-1.859 1.394-.918.586-1.777 1.153-1.91 1.266-1.527 1.293-2.715 1.473-3.184.484-.968-2.047-9.785-10.265-11.007-10.265-.079 0-.75-.356-1.5-.793a24.821 24.821 0 0 0 -2.805-1.371c-.79-.317-1.547-.645-1.68-.73-.133-.083-1.05-.395-2.039-.688-.844-.25-1.687-.504-2.523-.77-.746-.242-3.72-.808-6.246-1.191-1.965-.297-12.575-.293-14.653.004-2.883.418-5.722.937-6.746 1.246-1.289.383-1.683.199-1.887-.88-.09-.487-.257-1.066-.37-1.28-.231-.434-.887-2.399-1.18-3.52-.325-1.25-1.082-2.387-3.266-4.906-2.926-3.38-12.094-11.54-12.96-11.54-.075 0-.673-.378-1.333-.843-.656-.46-1.305-.84-1.437-.84-.133 0-.243-.097-.243-.215 0-.12-.297-.336-.66-.484-.363-.145-1.148-.543-1.742-.883-2.89-1.656-5.063-2.664-9.05-4.195-5.47-2.102-11.458-3.426-19.532-4.317-2.66-.293-8.934-.289-11.531.008-8.207.942-12.215 1.785-17.895 3.77-.922.32-2.027.691-2.453.82-.422.125-.836.336-.914.461-.078.129-.305.23-.5.23-.34 0-3.652 1.438-4.418 1.918-.2.122-1.008.559-1.8.97-.794.41-1.766.956-2.165 1.21-.394.254-.883.54-1.078.633-1.102.516-6.332 4.336-8.148 5.95-2.895 2.57-9.149 9.62-9.149 10.312 0 .086-.347.668-.777 1.3-1.164 1.715-1.246 1.86-2.707 4.852a400.829 400.829 0 0 1 -1.695 3.441c-.188.375-.344.805-.344.961 0 .153-.168.598-.371.985-.2.386-.461 1.09-.578 1.562a24.968 24.968 0 0 1 -.45 1.578c-.37 1.102-.765 2.707-1.12 4.563-.2 1.039-.4 2.082-.606 3.12-.168.856-.301 4.024-.32 7.81l-.04 6.363-2.28.164c-1.255.086-2.864.277-3.575.418-.711.144-1.668.258-2.129.258-.457 0-1.55.16-2.426.351-.879.192-2.136.457-2.797.586-2.101.41-4.12.906-4.39 1.07-.145.09-.73.262-1.301.383-1.164.242-2.984.856-3.613 1.215-.23.133-.543.238-.696.238-.152 0-.722.207-1.265.461-.54.254-1.528.711-2.188 1.012-6.847 3.129-11.406 7.746-14.308 14.5-.243.563-.633 2.461-.977 4.746-.43 2.817.598 9 1.934 11.664.113.223.656 1.324 1.207 2.446 3.242 6.578 9.062 11.859 15.867 14.402 2.531.941 2.64.945 59.941.957 42.64.012 55.32.078 55.543.3.403.403.403 6.95 0 7.352-.394.395-109.554.418-112.176.024-3.328-.5-7.828-1.774-8.46-2.395a.896.896 0 0 0 -.56-.222c-.179 0-1.374-.622-2.651-1.38-2.188-1.3-2.508-1.507-3.235-2.105-.16-.133-.883-.719-1.613-1.3-1.582-1.266-4.313-4.071-5.34-5.485-.41-.563-.836-1.02-.945-1.02-.11 0-.2-.101-.2-.222s-.527-1.012-1.171-1.98c-1.016-1.524-1.692-2.762-3.297-6.044-.184-.375-.336-.808-.336-.96 0-.157-.152-.57-.336-.926a6.536 6.536 0 0 1 -.504-1.442 26.01 26.01 0 0 0 -.488-1.879c-1.395-4.64-1.383-10.86.023-15.402.192-.613.348-1.242.348-1.395 0-.27.387-1.207 1.5-3.617.273-.594 1.055-1.945 1.734-3.004 1.559-2.414 3.293-4.336 6.668-7.37.809-.731 3.48-2.598 3.715-2.598.086 0 .324-.149.535-.336.512-.453 4.36-2.45 6.14-3.184.794-.324 1.782-.75 2.2-.937.418-.192.871-.344 1.012-.344.14 0 .613-.153 1.047-.336 1.058-.45 4.793-1.52 7.992-2.297a60.03 60.03 0 0 1 3.242-.621c2.5-.41 4.293-.781 4.555-.945.11-.067.27-1.66.355-3.547.09-1.883.309-4.18.492-5.106.18-.926.457-2.332.61-3.12.468-2.434 1.226-5.298 1.937-7.329 1.274-3.625 1.414-3.969 2.844-6.965 1.539-3.222 4.113-7.594 5.18-8.797.132-.152.402-.515.601-.812.2-.297.469-.66.602-.809.133-.148.562-.703.957-1.23 1.808-2.422 6.586-7.137 9.73-9.61.992-.777 1.856-1.476 1.922-1.55.285-.317 2.457-1.77 4.684-3.133.672-.41 1.34-.828 2.008-1.25 1.136-.73 7.933-4.035 8.296-4.035.196 0 .422-.102.5-.23.079-.126.489-.337.915-.466 1.007-.304 2.804-.941 3.414-1.207.484-.21 2.847-.945 5.043-1.562 8.511-2.403 21.203-3.446 29.304-2.414m60.606 156.187c-1.328.875-1.715 1.664-1.907 3.871l-.328 3.868c-.261 3.027-.066 2.789-2.449 2.96-2.7.188-3.531.848-3.531 2.786 0 1.925.914 2.64 3.695 2.886l1.559.137.148 9.484c.137 8.95.176 9.563.664 10.809 1.442 3.688 3.055 5.035 6.586 5.508 6.567.87 11.196-2.004 8.246-5.13l-.808-.858h-2.637c-4.2 0-4.176.062-4.328-10.754-.14-10.059-.375-9.18 2.433-9.18 3.575 0 4.762-.73 4.747-2.91-.02-2.196-.727-2.653-4.34-2.801l-2.903-.121-.007-4.59c-.008-4.953-.036-5.07-1.372-5.953-.859-.566-2.62-.57-3.468-.012m3.75.863.855.81v4.565c0 5.325-.297 4.864 3.133 4.864 3.586 0 5.144 1.691 3.547 3.851l-.524.711h-2.828c-3.687 0-3.37-.96-3.281 9.918.094 11.348.164 11.516 4.711 11.133 2.871-.242 4.285 1.098 3.402 3.227-1.082 2.609-9.61 2.875-12.293.386-2.457-2.277-2.691-3.492-2.832-14.613-.066-5.242-.21-9.617-.32-9.73-.11-.11-1.082-.235-2.16-.282-2.418-.105-3.043-.53-3.043-2.074 0-1.762 1.05-2.527 3.476-2.531 2.52-.004 2.422.18 2.77-5.356.258-4.132.418-4.597 1.8-5.293 1.298-.66 2.61-.507 3.587.415m-33.18 9.765c-9.828.809-13.676 9.754-6.531 15.184.304.23.742.422.969.422.23 0 .476.093.546.207.215.343 3.407 1.289 6.985 2.062.793.172 1.746.434 2.117.582.375.149.937.27 1.258.27 3.289 0 5.465 4.011 3.332 6.144-1.5 1.504-6.723 2.18-9.403 1.219-.898-.313-1.8-.61-2.707-.895-.992-.312-2.015-.707-2.277-.878-2.137-1.383-4.988.574-4.219 2.902.414 1.262 3.657 3.52 5.055 3.52.277 0 .797.144 1.152.324 1.938.968 10.348.96 12.899-.012 3.164-1.207 4.601-2.18 6.312-4.277 2.88-3.532 1.52-9.422-2.71-11.73-1.446-.79-5.798-2.11-9.368-2.845-.66-.136-1.555-.398-1.988-.582-.434-.183-.977-.34-1.203-.343-2.227-.04-3.672-2.98-2.266-4.61 1.11-1.285 8.492-2.191 9.734-1.195.16.129.665.308 1.13.402.46.098 1.109.344 1.44.555 1.59 1.012 4.75.152 4.794-1.305.082-2.543-3.692-4.703-8.977-5.14-2.91-.243-2.875-.243-6.074.02m60.008.01c-1.106.106-2.367.364-2.797.567-.434.207-.934.38-1.113.387-.18.004-.758.273-1.286.598-.527.324-1.207.695-1.503.824-.707.308-3.836 3.437-4.149 4.148-.133.297-.5 1.004-.816 1.567-.32.562-.656 1.375-.746 1.8-.094.43-.27.907-.395 1.06-.121.155-.328 1.315-.46 2.581-.243 2.399.027 6.645.46 7.184.125.156.3.632.395 1.058.09.43.425 1.239.746 1.805.316.562.68 1.258.808 1.547 1.875 4.238 9.375 7.27 16.23 6.562 7.188-.746 12.891-5.894 13.704-12.37.082-.66.258-1.634.39-2.157.434-1.707-.425-6.023-1.792-9.012-1.344-2.941-6.02-7.199-7.914-7.207-.168-.004-.614-.164-.989-.36-.61-.32-5.062-.89-6.281-.808-.266.02-1.387.121-2.492.227m40.32-.012c-1.816.29-2.879.895-4.535 2.586l-1.41 1.441-.117-1.03c-.348-3.071-4.871-3.845-6.957-1.192l-.551.699v26.684l.558.71c1.567 1.989 4.079 2.212 5.895.524l1.113-1.04v-7.429c0-13.062 1.082-15.21 7.992-15.87 2.704-.259 4.133-2.208 3.141-4.282-.816-1.7-2.352-2.238-5.129-1.8m-91.031.831c4.187 1.363 5.91 3.207 4.707 5.04-.469.714-2.258.855-3.426.265-2.277-1.145-2.71-1.219-6.797-1.219-4.969 0-6.199.566-7.047 3.254-.488 1.55 2.094 3.48 5.473 4.086.66.117 1.469.324 1.8.46.333.134 1.09.349 1.684.474 1.895.402 3.957 1.011 4.192 1.234.129.121.437.219.695.219 1.492 0 4.66 2.484 5.453 4.285 2.11 4.762-1.148 9.82-7.695 11.96-1.852.602-9.723.606-11.14.005-.508-.22-1.16-.403-1.442-.407-.281-.004-.941-.214-1.469-.472-.531-.254-1.086-.469-1.234-.473-.832-.023-2.73-2.32-2.73-3.3 0-1.61 1.831-2.473 3.449-1.63.378.2.812.364.96.368.153.004.708.214 1.235.472.527.254 1.156.469 1.394.473.239.004.73.16 1.094.351.84.434 4.785.73 6.82.512 3.754-.402 6.036-3.656 4.266-6.097-1.172-1.618-2.055-1.961-9.73-3.766-2.438-.574-4.047-1.066-4.297-1.32-.133-.133-.422-.243-.645-.243-2.043 0-4.426-3.492-4.426-6.484 0-4.629 2.57-7.164 8.528-8.398 1.844-.383 8.797-.145 10.328.351m59.207.082c9.078 2.973 13.16 13.348 8.793 22.344-1.067 2.191-1.219 2.41-2.754 3.898-3.871 3.75-11.504 5.446-16.727 3.723-3.449-1.137-5.656-2.625-7.906-5.336-4.347-5.234-3.62-15.887 1.434-20.96 3.863-3.88 11.523-5.516 17.16-3.669m36.035.059c.621.617.856 2.144.504 3.242-.293.902-1.617 1.543-3.207 1.543-2.574 0-5.168 1.348-6.406 3.332-1.192 1.906-1.211 2.062-1.34 11.355-.14 9.864-.04 9.329-1.977 10.317-1.64.84-3.863.168-4.605-1.387-.656-1.375-.582-26.062.082-27.152 1.668-2.73 5.945-1.973 6.383 1.133.285 2.023.32 2.05 1.148.793 2.3-3.508 7.375-5.22 9.418-3.176m-43.96 4.027c-7.798 2.961-8.606 17.305-1.204 21.254 2.55 1.36 7.063.61 9.176-1.531 4.972-5.031 3.84-16.137-1.969-19.238-1.02-.543-5-.864-6.004-.485m5.543.781c6.637 3.11 6.836 16.746.29 20.036-2.345 1.175-6.29.75-8.376-.903-.504-.402-2.14-2.75-2.14-3.074 0-.14-.157-.55-.344-.914-.899-1.742-.903-8.074-.004-10.04.191-.417.348-.87.348-1.01 0-.954 2.285-3.29 4.082-4.169 1.554-.762 4.43-.726 6.144.074" fill="#8a8a8a"/><path d="m125.5 21.293c-2.71.344-5.027.7-6.727 1.035l-.957.192 1.32.027c.727.015 1.594-.113 1.93-.293.364-.188 1.895-.379 3.743-.469 1.722-.082 3.425-.262 3.789-.398.851-.325 9.992-.328 10.843-.008.352.137 1.954.305 3.559.383 1.605.074 3.324.289 3.82.476.5.188 1.473.328 2.164.309l1.254-.027-.96-.192c-1.337-.265-3.817-.633-7.204-1.066-3.61-.457-12.82-.442-16.574.031m-9.727 1.66c-.464.176-1.097.324-1.41.332-.543.012-1.023.149-4.234 1.203-1.352.442-1.387.473-.57.48.492.009 1-.144 1.168-.347.168-.2.691-.363 1.171-.363s1.184-.164 1.563-.36c.379-.199 1.27-.43 1.98-.515 1.293-.149 2.72-.817 1.653-.77-.266.012-.86.164-1.32.34m35.132-.062c.23.191 1.067.422 1.856.507.785.09 1.73.32 2.097.512.364.192.989.352 1.387.356.395.004.93.168 1.188.363.254.191.796.34 1.199.332.722-.023.722-.027.133-.23-1.98-.688-5.047-1.512-7.567-2.036-.652-.136-.68-.117-.293.196m-43.191 2.308c-.125.117-.606.328-1.07.465-1.48.438-2.997 1.023-3.23 1.254a.887.887 0 0 1 -.548.223c-.344 0-7.187 3.343-8.265 4.035-.348.226-1.254.789-2.008 1.25-2.227 1.363-4.399 2.816-4.684 3.133-.066.074-.93.773-1.922 1.55-3.144 2.473-7.922 7.188-9.73 9.61a29.591 29.591 0 0 1 -.957 1.23 9.458 9.458 0 0 0 -.602.809c-.199.297-.469.66-.601.812-1.07 1.207-3.649 5.59-5.176 8.797-.43.91-.871 1.817-1.32 2.723-.45.87-.457 1.27-.016.902.184-.148.394-.601.477-1.004.082-.398.308-.89.507-1.09.2-.203.364-.582.364-.843 0-.266.164-.645.363-.844.195-.195.36-.57.36-.828 0-.262.152-.531.34-.602.183-.07.405-.406.491-.742.082-.336.309-.77.5-.96.192-.192.348-.548.348-.786 0-.242.164-.5.36-.578.199-.074.363-.254.363-.395 0-.218.832-1.55 1.199-1.918.289-.289 1.129-1.597 1.27-1.984.085-.23.269-.418.406-.418.136 0 .246-.156.246-.348 0-.191.136-.437.3-.543.168-.105.938-.988 1.715-1.96 1.637-2.047 6.25-6.758 6.621-6.758.137 0 .25-.086.25-.192 0-.101.563-.617 1.25-1.14.688-.52 1.489-1.164 1.782-1.43.336-.3.691-.582 1.058-.84.516-.36 1.024-.73 1.524-1.105.547-.41 1.234-.825 1.53-.918.302-.094.544-.274.544-.403 0-.125.242-.336.539-.465.297-.132.867-.449 1.262-.707.468-.3.949-.582 1.441-.84.395-.203 1.953-1.015 3.465-1.808 1.508-.793 2.871-1.441 3.031-1.441s.426-.16.59-.36c.164-.199.547-.36.852-.36.304 0 .718-.163.914-.359.199-.199.586-.363.859-.363s.902-.215 1.395-.48c.492-.262 1.128-.48 1.41-.48.285 0 .648-.16.816-.36.344-.414-.2-.54-.613-.14m52.012.14c.164.2.53.36.816.36.281 0 .918.218 1.41.48.492.265 1.121.48 1.395.48.273 0 .66.164.859.363.195.196.61.36.914.36.305 0 .688.16.852.36.164.198.43.359.59.359s1.523.648 3.03 1.441a583.04 583.04 0 0 0 3.466 1.809 20.49 20.49 0 0 1 1.441.84c.395.257.965.574 1.262.706.297.13.539.34.539.465 0 .13.242.309.539.403.3.093.988.507 1.535.918.547.41 1.23.906 1.523 1.105.532.36 1.258.926 1.918 1.496.196.164.711.543 1.145.84.535.375 1.035.8 1.5 1.262.39.398.781.726.863.726.274 0 8.27 8.262 8.27 8.543 0 .059.219.348.48.645.922 1.035 1.121 1.297 1.274 1.699.086.219.265.402.402.402s.246.149.246.332c0 .184.164.399.36.473.199.078.363.285.363.461 0 .95 2.312 2.102 2.761 1.375.254-.41 15.403-.309 16.57.113.532.192 1.665.332 2.524.32.86-.015 1.184-.07.723-.117-.465-.05-1.543-.238-2.402-.422-2.266-.48-9.54-.68-14.528-.398-4.527.258-5.41.086-5.41-1.047 0-.144-.187-.433-.418-.64a5.647 5.647 0 0 1 -.781-.918 26.587 26.587 0 0 0 -1.922-2.516c-2.059-2.363-2.672-3.047-3.965-4.422-.793-.844-2.629-2.582-4.082-3.86-4.625-4.074-7.473-6.109-13.055-9.335-1.875-1.086-7.199-3.66-7.566-3.66a.856.856 0 0 1 -.527-.223c-.235-.23-1.75-.816-3.23-1.254-.466-.137-.946-.348-1.071-.465-.414-.398-.957-.273-.613.14m-32.907 3.224c-.988.093-2.07.3-2.402.46-.645.313-.559.309 3.844-.203.992-.117 3.531-.215 5.644-.218 3.446-.008 5.11.097 9.13.582l1.198.144-.84-.394c-.937-.446-13.007-.715-16.574-.372m-6.86 1.094c-.257.196-.995.356-1.667.364-.66.003-1.488.156-1.84.34-.348.183-1.183.41-1.848.5-.664.093-1.335.32-1.492.507-.355.426-.199.422 1.188-.012 1.902-.597 5.258-1.359 7.957-1.808l1.082-.18-1.457-.031c-.95-.02-1.617.09-1.922.32m25.836-.11c2.7.45 6.055 1.212 7.957 1.81 1.422.445 1.902.449 1.273.011-.265-.183-1.007-.418-1.648-.512-.64-.097-1.45-.324-1.793-.503-.344-.176-1.164-.329-1.824-.332-.672-.008-1.41-.168-1.668-.364-.305-.23-.973-.34-1.922-.32l-1.457.031 1.082.18m-34.957 2.413c-.266.43-.016.457.98.105l.95-.34-.887-.011c-.488-.004-.957.105-1.043.246m45.5.117c.45.195.879.293.957.219.219-.219-.52-.586-1.172-.578-.547.004-.527.039.215.36m-47.668.698c-.254.196-.629.36-.828.364-.203.004-.742.207-1.203.449-.461.246-1.133.515-1.496.605-.364.09-.66.266-.66.399 0 .129-.262.234-.583.234-.324 0-.746.16-.945.36-.2.199-.516.359-.707.359-.188 0-.617.219-.953.48-.336.266-.79.48-1.004.48a.616.616 0 0 0 -.527.364c-.075.195-.329.36-.563.36s-.558.16-.723.359c-.164.2-.433.36-.593.36-.164 0-.543.218-.848.48-.305.265-.703.48-.887.48-.18 0-.394.164-.468.363-.079.196-.293.36-.48.36a.556.556 0 0 0 -.474.336c-.07.187-.363.398-.652.472-.289.075-.883.461-1.32.864-.438.402-.856.73-.934.73-.219 0-2.226 1.66-3.539 2.934-.656.633-1.277 1.148-1.383 1.148-.105 0-.191.16-.191.36 0 .199-.11.359-.242.359-.246 0-2.16 1.82-2.16 2.055 0 .074-.309.425-.688.78-1.18 1.118-4.473 5.517-4.754 6.352-.078.235-.242.422-.363.422-.125 0-.387.352-.582.782-.242.515-.52 1.015-.824 1.5-.258.398-.535.882-.61 1.082a5.41 5.41 0 0 1 -.367.718c-.121.2-.328.633-.46.961a13.25 13.25 0 0 1 -.602 1.239c-.2.351-.36.851-.36 1.117 0 .261-.16.539-.36.613-.198.078-.359.39-.359.695 0 .309-.218.985-.48 1.5-.266.52-.484 1.164-.488 1.434s-.168.7-.364.957c-.191.254-.351.883-.351 1.394 0 .516-.16 1.098-.36 1.293-.226.23-.351.774-.332 1.485l.028 1.125.195-.84c.371-1.59.75-3.004.992-3.723.133-.398.336-1.105.45-1.578a8.682 8.682 0 0 1 .578-1.562c.203-.387.37-.832.37-.985 0-.156.157-.586.344-.96.192-.376.954-1.922 1.696-3.442 1.46-2.992 1.543-3.137 2.707-4.852.43-.632.777-1.214.777-1.3 0-.692 6.254-7.743 9.149-10.313 1.816-1.613 7.046-5.433 8.148-5.95a13.66 13.66 0 0 0 1.078-.632c.399-.254 1.371-.8 2.164-1.21.793-.411 1.602-.848 1.801-.97.766-.48 4.078-1.918 4.418-1.918.195 0 .422-.101.5-.23.078-.125.492-.336.914-.465 2.098-.637 2.754-.96 1.961-.972-.406-.008-.945.148-1.203.34m49.375-.11c.328.11 1.195.434 1.922.715.676.27 1.36.527 2.039.777.398.14.86.363 1.027.496.168.133.371.176.445.102.243-.242-.16-.653-.644-.653-.258 0-.871-.214-1.363-.476-.493-.266-1.063-.484-1.262-.488-.2-.004-.574-.168-.828-.364-.258-.191-.797-.343-1.203-.332-.715.02-.72.028-.133.223m7.445 3.098c.992.515 2.29 1.218 2.883 1.562.594.34 1.379.738 1.742.883.363.148.66.363.66.484 0 .117.11.215.243.215.132 0 .78.38 1.437.84.66.465 1.258.844 1.332.844.488 0 6.969 5.41 9.356 7.808 4.824 4.848 6.406 6.836 6.867 8.637.453 1.758.918 2.719.93 1.914.007-.406-.149-.945-.34-1.2a2.107 2.107 0 0 1 -.364-1.038c-.008-.68-.816-2.055-1.742-2.965-.367-.36-.668-.719-.668-.8 0-.446-8.07-8.516-8.516-8.516-.078 0-.445-.297-.808-.66-.844-.837-2.11-1.739-2.434-1.739-.136 0-.25-.094-.25-.207 0-.242-2.785-2.195-3.129-2.195-.129 0-.234-.113-.234-.254 0-.14-.324-.367-.719-.504-.398-.137-.722-.336-.722-.445 0-.106-.297-.313-.66-.465-.844-.344-1.708-.848-2.047-1.188-.149-.148-.422-.27-.606-.27-.183 0-.61-.214-.945-.48-.336-.261-.766-.48-.953-.48-.192 0-.508-.16-.707-.36-.2-.199-.594-.359-.883-.359-.32 0 .176.363 1.277.938m54.934 19.007c.16.168.926.395 1.695.5.774.106 1.723.36 2.113.559.387.203.977.375 1.305.379.332.004.813.168 1.066.363.258.192.758.352 1.114.352.355 0 .781.16.945.36.164.198.543.359.84.359s.676.164.84.363c.164.195.422.36.574.36.148 0 .676.214 1.172.48.492.261 1.047.48 1.23.48.184 0 .399.16.473.36.078.199.312.359.527.359s.668.219 1.004.48c.336.266.746.48.91.48.168 0 .368.165.442.36.078.2.254.363.394.363.235 0 1.364.72 2.07 1.32.157.134.696.563 1.204.962 1.496 1.172 7.535 7.343 7.535 7.703 0 .168 1.035 1.629 1.281 1.812.219.16-.316 1.172-.62 1.172-.102 0-.724.38-1.384.84-.656.465-1.293.84-1.41.84-.121 0-.281.164-.355.363-.078.2-.297.36-.489.36-.195 0-.52.164-.718.367-.395.394-1.348.047-1.348-.492 0-.137-.191-.418-.422-.63-.23-.206-.625-.663-.879-1.019-1.39-1.945-5.644-6.152-6.219-6.152-.074 0-.496-.328-.933-.73-.438-.403-1.031-.79-1.32-.864-.286-.07-.583-.285-.653-.469-.07-.187-.281-.34-.469-.34-.183 0-.472-.164-.636-.359-.164-.2-.457-.363-.653-.363-.195 0-.629-.215-.964-.477-.336-.265-.766-.484-.954-.484-.191 0-.507-.16-.707-.36-.199-.195-.609-.359-.914-.359-.304 0-.687-.16-.851-.36-.164-.198-.582-.359-.93-.359h-.633l.602.301c.328.168 1.25.567 2.039.887.96.402 1.898.863 2.805 1.379.75.437 1.421.793 1.5.793 1.222 0 10.039 8.218 11.007 10.265.47.989 1.657.809 3.184-.484.133-.113.992-.68 1.91-1.266.922-.586 1.754-1.21 1.86-1.394.457-.817-4.922-7.012-8.813-10.149-.563-.453-1.121-.906-1.684-1.363-1.367-1.148-6.363-3.922-9.843-5.469-1.223-.543-4.094-1.453-6.489-2.054-2.629-.66-2.672-.668-2.351-.325m-29.473 5.352c0 .207.098.438.219.512s.293.574.383 1.11c.199 1.167.586 1.362 1.898.964.54-.168 1.469-.387 2.063-.488l1.082-.188-1.336-.035c-.848-.02-1.504.098-1.801.32-.957.723-1.79.067-1.79-1.414 0-.308-.16-.695-.358-.86-.293-.241-.36-.23-.36.079m12.73.766c-1.433.27-1.128.293 3.723.293 4.918.004 5.184-.02 3.844-.313-1.77-.383-5.469-.375-7.566.02m-6.38.734c-.437.352-.402.363.493.2a57.952 57.952 0 0 1 2.164-.345c1.184-.16 1.18-.164-.496-.199-1.219-.023-1.828.074-2.16.344m17.785-.129c.664.098 1.637.254 2.164.344.898.152.93.14.496-.215-.336-.27-.941-.367-2.164-.344l-1.695.035zm4.086.7c.937.16 1.293.257 3.926 1.085.707.223 1.328.356 1.39.297.192-.191-1.535-.887-2.23-.894-.375-.004-.895-.168-1.153-.364-.28-.21-.941-.34-1.68-.32l-1.214.031.96.164m-152.42 1.279c-1.442 3.843-2.211 6.652-1.598 5.824.196-.266.434-.95.531-1.524.098-.57.325-1.328.508-1.68.184-.35.336-.89.336-1.198 0-.31.164-.72.364-.918.289-.29.53-1.532.3-1.528-.035 0-.234.461-.441 1.024m-2.2 7.144c-.09.465-.199.926-.32 1.38-.093.323-.054.542.098.542.305 0 .598-1.371.473-2.191-.07-.477-.114-.434-.25.27m-.618 2.968c-.027.508-.199 1.535-.386 2.281-.184.746-.414 2.95-.504 4.899-.094 1.949-.258 3.601-.367 3.668-.27.168-2.082.539-4.649.953-1.172.191-2.472.453-2.883.582-.441.136-.89.25-1.343.336-.332.054-.063.113.597.129.66.02 1.48-.114 1.82-.29.337-.175 1.419-.398 2.4-.488.983-.094 2.382-.37 3.108-.62l1.32-.454.153-1.52c.082-.835.164-2.363.18-3.394.015-1.031.195-2.39.402-3.02.227-.695.34-1.695.285-2.566-.058-.91-.105-1.09-.132-.496m7.218 1.715c-.668 1.656-1.07 10.394-.66 14.445l.172 1.715-2.992.086c-1.719.05-3.133.203-3.328.355-.184.149-1.336.325-2.559.391-1.219.066-2.355.234-2.523.371-.168.14-1.004.332-1.864.426-.855.094-1.773.332-2.039.523-.46.34-.457.348.121.219.641-.137 1.282-.27 1.922-.394.973-.196 1.946-.403 2.918-.614.875-.191 1.969-.351 2.426-.351.46 0 1.418-.114 2.129-.258.71-.14 2.32-.332 3.574-.418l2.281-.164-.07-3.63c-.086-4.171.293-10.667.684-11.792.375-1.074.203-1.887-.192-.91m-18.864 11.316c-.082.082-.504.23-.941.336l-.793.188.992.023c.613.016 1.105-.113 1.293-.336.304-.367-.2-.562-.551-.21m-2.836.808c-.207.125-.8.328-1.32.457-1.149.289-2.856.89-3.82 1.351l-.723.348.633.004c.347.004.765-.156.93-.356.163-.195.585-.359.937-.359.351 0 .851-.148 1.11-.324.26-.18.901-.406 1.425-.504.976-.18 2.238-.86 1.566-.848-.195.004-.527.11-.738.23m-9.441 3.727c-1.707.856-3.282 1.72-3.504 1.918-.219.203-.469.364-.555.364-.234 0-2.906 1.867-3.715 2.597-3.375 3.035-5.11 4.957-6.668 7.371-.68 1.059-1.46 2.41-1.734 3.004-1.113 2.41-1.5 3.348-1.5 3.617 0 .153-.156.782-.348 1.395-1.57 5.062-1.414 11.129.438 17.086.058.195.117-.024.129-.488.011-.465-.125-1.059-.305-1.32-.18-.262-.395-1.415-.48-2.563-.087-1.145-.266-2.371-.399-2.715-.313-.824-.309-4.23.008-5.059.137-.355.312-1.472.394-2.48.082-1.004.297-2.043.477-2.305.18-.258.324-.812.324-1.23s.16-.89.36-1.055c.199-.168.359-.477.359-.695 0-.215.219-.797.48-1.29.266-.495.48-1.046.48-1.234 0-.183.165-.398.364-.472a.602.602 0 0 0 .36-.516c0-.312.753-1.598 1.203-2.039.062-.066.43-.582.812-1.14.379-.563.785-1.02.899-1.02.113 0 .207-.11.207-.242 0-.309 3.543-3.844 3.855-3.844.125 0 .227-.09.227-.2 0-.109.543-.55 1.203-.976.66-.43 1.199-.867 1.199-.976 0-.106.191-.258.422-.34.23-.078.746-.36 1.14-.621 1.024-.676 2.293-1.383 3.063-1.704.363-.152.66-.37.66-.492 0-.117.164-.215.363-.215.2 0 .762-.214 1.258-.48.492-.266 1.02-.48 1.168-.48.153 0 .41-.165.574-.36.5-.605.008-.418-3.218 1.2m12.5 3.124c-.196.196-.723.36-1.164.36-.442 0-1.024.152-1.29.34-.269.187-.882.414-1.367.503-.484.094-1.004.317-1.156.5-.34.41.043.465.684.098.629-.36 2.449-.973 3.613-1.215.57-.12 1.156-.293 1.3-.383.145-.09.598-.242 1.005-.34.71-.167.699-.175-.262-.199-.602-.015-1.149.118-1.363.336m-6.88 2.399c-.163.199-.44.363-.616.363-.348 0-2.489 1.09-2.856 1.453a.891.891 0 0 1 -.547.227c-.34 0-1.808.953-1.945 1.261-.043.098-.215.18-.383.18s-.5.215-.738.48c-.239.266-.555.481-.703.481-.149 0-.438.188-.645.418-.203.234-.824.82-1.375 1.305-.55.488-1 1-1 1.14 0 .145-.164.258-.36.258-.198 0-.363.082-.366.18-.004.101-.383.613-.84 1.144-1.285 1.477-1.309 1.508-1.555 2.153-.125.336-.332.61-.457.61s-.297.316-.383.702c-.086.387-.308.832-.5.989-.187.16-.344.53-.344.828 0 .297-.16.675-.359.84-.21.175-.348.66-.332 1.171.023.774.047.805.203.27 1.805-6.188 7.39-12.082 14.54-15.34 3.034-1.383 3.175-1.465 2.491-1.469-.347 0-.765.16-.93.356m-16.816 17.894c-.55 1.297-.472 8.258.102 9.25l.418.72-.137-.84c-.672-4.052-.707-6.907-.105-8.45.406-1.047.144-1.684-.278-.68m.512 10.961c-.02.617.11 1.106.332 1.29.2.163.36.523.36.796 0 .445.671 2.14 1.206 3.047.118.2.493.93.832 1.621.34.695.711 1.262.825 1.262.113 0 .27.242.343.539.079.297.47.898.868 1.336.402.437.73.855.73.93 0 .355 4.7 5.12 5.05 5.12.114 0 .563.329 1 .731.438.399 1.04.79 1.337.867.297.075.539.223.539.328 0 .27 3.828 2.157 4.379 2.157.254 0 .62.164.82.363.215.215.758.348 1.363.332l1.004-.027-.84-.188c-6.625-1.469-14.035-7.762-17.55-14.89-.399-.817-.801-1.633-1.207-2.446-.227-.453-1.067-2.933-1.246-3.68-.067-.265-.13-.035-.145.512m-6.754 3.77c0 .207.098.433.215.508.117.07.281.43.367.793.324 1.378 2.23 5.156 3.77 7.468.644.97 1.172 1.86 1.172 1.98 0 .122.09.223.199.223.11 0 .535.457.945 1.02 1.027 1.414 3.758 4.219 5.34 5.484.73.582 1.453 1.168 1.613 1.301.727.598 1.047.805 3.235 2.106 1.277.757 2.472 1.379 2.652 1.379a.9.9 0 0 1 .559.222c.207.203 1.664.79 2.87 1.156.41.125.438.09.176-.23-.168-.203-.656-.438-1.082-.52-.707-.136-1.906-.625-2.816-1.148a6.038 6.038 0 0 0 -.719-.34 5.001 5.001 0 0 1 -.722-.363 14.143 14.143 0 0 0 -.961-.516c-.328-.164-.653-.351-.72-.422-.066-.066-.605-.449-1.202-.843-.594-.395-1.203-.829-1.356-.961a69.631 69.631 0 0 0 -1.172-.961c-1.66-1.336-5.879-5.707-5.879-6.09 0-.094-.214-.352-.48-.578-.262-.227-.48-.563-.48-.75 0-.184-.16-.399-.36-.477-.199-.074-.36-.297-.36-.492a.727.727 0 0 0 -.304-.547c-.164-.105-.605-.789-.976-1.516a68.587 68.587 0 0 0 -.88-1.68 6.37 6.37 0 0 1 -.343-.718c-.074-.2-.23-.523-.348-.723-.55-.925-1.234-2.62-1.234-3.058 0-.266-.16-.621-.36-.785-.292-.243-.359-.23-.359.078m28.66 17.387c.407.226 13.012.296 56.317.3l55.789.008-.067 3.426-.066 3.422h-57.285c-34.38 0-56.758.086-55.965.215 2.078.336 112.879.453 113.281.117.469-.387.473-7 .008-7.387-.23-.191-15.816-.281-56.43-.328-44.113-.05-55.996 0-55.582.226m-4.52 6.563c.442.121.88.246 1.321.375.54.164.566.14.27-.223-.22-.265-.66-.39-1.32-.375-.958.024-.966.032-.27.223m156.136 24.656c-.914.492-1.558 1.27-1.558 1.88 0 .347.16.218.59-.481.71-1.157 2.203-1.688 3.57-1.266 1.375.418 1.59 1.23 1.59 6.027 0 4.942-.121 4.723 2.652 4.723 2.293 0 3.488.313 4.121 1.066.52.622.563 1.958.07 2.145a.593.593 0 0 0 -.359.508c0 .308-.465.367-2.996.367-3.887 0-3.535-1.05-3.445 10.285l.074 9.3.563.716c1.043 1.324 3.562 1.976 5.191 1.34.277-.11.723-.055 1.082.132.336.176.746.32.91.32.203.005.3.419.3 1.27 0 1.282-.495 2.098-1.269 2.098-.168 0-.543.168-.84.375-.417.293-1.222.375-3.69.379-3.13.004-3.657-.102-5.247-1.04a5.192 5.192 0 0 0 -.781-.35c-.23-.079-.422-.294-.422-.481 0-.188-.16-.403-.36-.477-.199-.078-.359-.277-.359-.449 0-.328-.941-1.566-.953-1.258-.016.328 1.223 2.149 1.863 2.742 2.684 2.489 11.211 2.223 12.293-.386.883-2.13-.53-3.47-3.402-3.227-4.547.383-4.617.215-4.711-11.133-.09-10.879-.406-9.918 3.281-9.918h2.828l.524-.71c1.597-2.16.039-3.852-3.547-3.852-3.43 0-3.133.46-3.133-4.863v-4.567l-.855-.809c-.985-.93-2.328-1.082-3.575-.406m-1.816 5.18c-.004 4.805-.336 5.457-2.766 5.46-2.425.005-3.476.77-3.476 2.532 0 1.543.625 1.969 3.043 2.074 1.078.047 2.05.172 2.16.282.11.113.258 4.379.324 9.488l.13 9.289.05-9.383c.066-10.828.289-9.953-2.535-9.953-2.297 0-2.91-.395-2.926-1.871-.016-1.438 1.348-2.215 3.871-2.215 2.242 0 2.367-.223 2.367-4.32 0-1.852-.054-3.364-.12-3.364-.067 0-.122.891-.122 1.98m-26.371 5.403c.887.047 2.398.047 3.363 0 .965-.043.239-.082-1.61-.082-1.85 0-2.636.035-1.753.082m60.187 0c.833.047 2.13.047 2.883 0 .754-.047.078-.086-1.508-.086-1.585 0-2.203.04-1.375.086m40.286.035c2.312.239 3.004.793 3.004 2.43 0 1.23-.06 1.371-.723 1.762-.399.234-.719.527-.719.652s-.84.23-1.863.235c-1.336.007-2.133.14-2.824.472-.528.258-1.047.469-1.157.473-.421.02-2.804 2.691-2.953 3.312-.086.364-.277.813-.426.996-.18.227-.304 3.243-.386 9.247-.137 10.175-.055 9.796-2.246 10.507-1.496.485-3.125-.105-3.758-1.359-.473-.941-.68-24.336-.227-25.98.668-2.418 4.235-3.024 5.692-.965.297.418.535.601.53.406-.054-2.399-4.843-2.711-6.245-.41-.664 1.09-.738 25.777-.082 27.152.742 1.555 2.965 2.227 4.605 1.387 1.938-.988 1.836-.453 1.977-10.317.129-9.293.148-9.449 1.34-11.355 1.238-1.984 3.832-3.332 6.406-3.332 2.418 0 3.379-.89 3.336-3.094-.035-1.715-.774-2.293-2.98-2.332l-1.743-.031zm-104.723.442c-2.844.875-5.203 2.601-6.11 4.469-.59 1.222-.628 1.527-.136 1.12.2-.163.36-.452.36-.636 0-.719 1.816-2.824 2.667-3.094.25-.078.453-.246.453-.367 0-.125.196-.227.43-.227s.652-.156.93-.351c.277-.195.976-.426 1.554-.512.579-.09 1.32-.304 1.653-.48l.597-.317-.597.012c-.332.008-1.14.18-1.801.383m10.566-.082c.395.172 1.196.387 1.774.476.578.094 1.277.325 1.554.52.278.195.645.351.817.351 1.312 0 2.691 2.864 1.781 3.688-.465.422-2.441.566-2.441.176 0-.121-.352-.297-.781-.39-.43-.095-.997-.317-1.254-.5-.262-.18-.965-.317-1.563-.298l-1.086.028.961.187c1.16.227 3.035.902 3.348 1.211.535.523 2.742.258 3.16-.383 1.191-1.816-.543-3.695-4.621-5.004-1.563-.5-2.766-.547-1.649-.062m49.684.117c-3.781 1.223-6.922 3.8-8.555 7.023-.972 1.922-1.097 2.36-.535 1.895.2-.164.36-.41.36-.543 0-1.29 3.597-5.7 5.304-6.5.188-.086.504-.254.7-.367.913-.524 2.124-1.004 3.023-1.196 1.222-.265 2.183-.757 1.422-.73-.266.012-1.04.2-1.719.418m9.523-.11c.332.176 1.028.395 1.551.489.52.094 1.168.324 1.434.512.265.187.617.34.773.34.375 0 3.207 1.953 3.207 2.21 0 .106.164.192.364.192.195 0 .359.164.359.363 0 .195.086.36.195.36.324 0 2.207 2.886 2.207 3.386 0 .258.16.531.36.61.214.082.359.445.363.894 0 .414.184 1.078.41 1.473.52.918.625 7.496.129 8.094-.168.199-.371.859-.453 1.464-.082.606-.3 1.16-.48 1.23-.18.071-.329.395-.329.723 0 .329-.136.68-.3.786-.165.109-.461.504-.657.882a5.378 5.378 0 0 1 -.898 1.2c-.297.285-.543.648-.543.812-.004.168-.106.3-.23.3-.126 0-.497.25-.821.552-.39.347-.816.648-1.273.898-.375.195-.77.488-.875.653-.106.167-.461.3-.79.3-.328 0-.656.164-.734.364-.082.21-.445.359-.89.359-.418 0-1.083.172-1.477.379-1.043.547-8.082.547-9.129 0-.394-.207-1.059-.38-1.473-.38-.449 0-.812-.148-.894-.358-.078-.2-.414-.364-.754-.364s-.68-.16-.754-.36c-.078-.198-.23-.358-.344-.358-.832 0-4.547-3.676-4.547-4.5 0-.137-.156-.375-.343-.532-.192-.16-.414-.597-.496-.972-.145-.66-.84-1.512-.84-1.028 0 .25 1.601 3.344 1.953 3.77 5.34 6.46 14.586 7.844 22.539 3.379.805-.457 3.5-3.086 3.89-3.805 1.372-2.504 2.098-4.355 2.372-6.043 1.379-8.5-2.73-15.8-10.22-18.156-1.671-.524-2.433-.582-1.562-.117m31.43.18c-1.152.6-2.316 1.734-3.262 3.167-.824 1.258-.82 1.258-1.105-.566-.059-.356-.11-.192-.129.402-.05 1.625.664 2.492 1.05 1.274.216-.68 1.364-2.395 1.602-2.395.11 0 .2-.164.2-.36 0-.198.117-.363.261-.363.145 0 .54-.214.875-.48.336-.262.797-.477 1.028-.477.23 0 .554-.164.718-.363.414-.5-.097-.433-1.238.16m-96.762 3.563c-.246.16.41.226 2.043.21 1.618-.019 2.164-.085 1.68-.21-1.055-.266-3.305-.266-3.723 0m60.168 0c-.332.144.043.21 1.203.219 1.168.011 1.57-.055 1.32-.22-.437-.28-1.863-.28-2.523 0m-63.484.848c-1.79 1.274-2.559 3.72-1.426 4.543.23.172.418.407.418.524 0 .223.34.441 1.582 1.02.387.18.988.476 1.34.66.348.183 1.05.335 1.559.34.507.007 1.132.167 1.39.363.258.191.852.347 1.32.34l.856-.008-.96-.352c-.528-.191-1.5-.45-2.161-.57-3.399-.621-5.965-2.54-5.477-4.09.496-1.57 1.77-2.746 3.434-3.168.512-.129.477-.152-.238-.16-.508-.004-1.157.219-1.637.558m60.965-.246c-.168.2-.422.364-.57.368-.278.007-1.594 1.074-1.594 1.289 0 .066-.274.418-.61.78-.89.962-1.797 2.892-1.765 3.767l.023.761.176-.719c.727-2.972 2.887-5.41 5.66-6.39.383-.133.328-.172-.273-.192-.41-.011-.883.137-1.047.336m6.125-.144c7.797 2.75 8.62 17.281 1.199 21.242-1.41.754-5.797.754-7.207 0-1.867-.996-4.043-3.867-4.52-5.965-.058-.265-.12-.094-.136.39-.016.513.12.997.336 1.173.195.164.36.472.36.687s.378.805.839 1.305c.46.504.84 1.016.84 1.14 0 .125.164.227.36.227.198 0 .362.094.362.207 0 .41 1.84 1.477 2.547 1.477.395 0 .848.129 1.012.289.16.164.883.293 1.605.293.723 0 1.446-.13 1.606-.293.16-.16.64-.29 1.066-.29s.918-.136 1.094-.3c.172-.164.703-.563 1.18-.879.472-.32 1.11-.941 1.41-1.383.305-.441.644-.8.762-.8.113 0 .207-.208.207-.465 0-.254.164-.625.363-.825.2-.199.426-.722.504-1.16.078-.437.3-1.156.5-1.597.457-1.024.375-7.04-.106-7.52-.164-.164-.3-.508-.3-.766 0-.91-2.024-4.39-2.727-4.691-.117-.047-.383-.293-.598-.54-.21-.25-.511-.452-.664-.452-.152 0-.41-.16-.574-.36-.164-.199-.637-.347-1.05-.336-.598.02-.657.059-.27.192m-74.957 4.11c.082 3.734 1.945 5.609 7.254 7.292 1.539.488 2.035.504 1.37.04-.277-.196-.976-.427-1.554-.516-.578-.09-1.262-.309-1.523-.489-.262-.18-.707-.324-.996-.324-.286 0-.582-.164-.66-.36-.075-.198-.29-.363-.477-.363-.352 0-2.317-1.78-2.32-2.101 0-.098-.184-.504-.407-.899-.226-.398-.48-1.53-.57-2.523l-.16-1.8.043 2.042m57.09 2.25c-.356 1.219-.239 1.711.207.88.148-.282.238-.849.199-1.263-.07-.718-.09-.703-.406.383m6.714 1.317c-.425.797-.332 5.855.118 6.414.355.445.367.43.222-.254-.347-1.653-.402-3.871-.129-5.098.313-1.387.22-1.863-.21-1.062m-7.133 3.156c0 1.652.039 2.328.086 1.504.046-1 .046-2.004 0-3.004-.047-.824-.086-.149-.086 1.5m-40.684-2.18c.594.262 1.387.48 1.758.485.371.007.84.175 1.039.375.2.199.719.359 1.152.359.438 0 .93.164 1.094.363.164.196.48.36.703.36.746 0 3.38 2.398 3.38 3.074 0 .242.16.644.355.902.484.64.484 3.895 0 4.535-.196.258-.356.668-.356.918s-.133.602-.297.782c-.168.18-.57.699-.898 1.152-.68.941-2.723 2.414-3.68 2.652-.355.09-.648.27-.648.399 0 .132-.328.238-.727.238-.402 0-1.129.168-1.621.379-1.277.543-8.656.539-9.953-.004-.492-.207-1.262-.375-1.711-.375-.453 0-.953-.164-1.121-.36-.164-.199-.547-.363-.852-.363-.304 0-.715-.16-.914-.36-.199-.198-.453-.358-.57-.358-.113 0-.606-.41-1.098-.91-.945-.97-1.3-2.696-.558-2.696.183 0 .464-.16.632-.36.165-.199.594-.359.961-.359.364 0 .793.16.961.36.164.199.586.36.942.36.355 0 .855.16 1.113.355.254.19.629.359.824.367.2.008.793.222 1.324.48.547.266 1.48.469 2.172.473.668.004 1.336.129 1.485.277.355.36 3.496.406 3.93.063.187-.149.792-.325 1.35-.399.56-.07 1.177-.273 1.376-.453.355-.308.719-.613 1.086-.91.402-.324.73-.684.73-.797 0-.117.16-.371.36-.57.98-.98-.34-4.89-1.649-4.89-.11 0-.472-.216-.808-.481-.336-.266-.946-.485-1.36-.489-.41-.004-.957-.164-1.215-.359-.265-.203-.93-.34-1.558-.324-1.098.027-1.098.027-.258.21 7.016 1.516 9.156 5.196 4.711 8.095-1.781 1.156-7.617 1.414-9.547.417-.363-.19-.855-.347-1.094-.351-.238-.004-.867-.219-1.394-.473-.528-.258-1.082-.469-1.235-.472-.148-.004-.582-.168-.96-.368-1.618-.843-3.45.02-3.45 1.63 0 .98 1.899 3.277 2.73 3.3.15.004.704.219 1.235.473.528.258 1.188.469 1.469.472.281.004.934.188 1.441.407 1.418.601 9.29.597 11.14-.004 6.548-2.14 9.806-7.2 7.696-11.961-.793-1.801-3.96-4.285-5.453-4.285-.258 0-.566-.098-.695-.22-.246-.233-2.664-.944-3.828-1.124-.586-.09-.516-.02.36.363m-5.888 3.387c.442.121.883.25 1.325.379.539.16.566.14.27-.223-.22-.265-.665-.394-1.321-.375-.957.024-.965.031-.274.219m46.73 2.156c-.003.2.153.793.34 1.32l.348.961.012-.851c.004-.473-.148-1.067-.344-1.324-.265-.352-.351-.38-.355-.106m-19.938 5.285c0 .2.153.793.344 1.32l.348.962.008-.856c.007-.469-.149-1.062-.34-1.32-.27-.356-.356-.38-.36-.106" fill="#c7c7c7"/><path d="m128.516 21.402c-.325.13-1.996.301-3.711.383-1.844.09-3.375.281-3.739.469-.336.18-1.234.32-2 .324-.765 0-1.629.149-1.921.332-.293.184-1.09.402-1.778.488-.683.082-1.55.313-1.922.504-.37.196-1.066.356-1.547.356-.48 0-1.003.164-1.171.363-.168.203-.692.36-1.2.36-.507 0-1.03.156-1.199.359-.168.2-.531.36-.816.36-.282 0-.918.218-1.41.48-.493.265-1.122.48-1.395.48s-.66.164-.86.363c-.195.196-.609.36-.913.36-.305 0-.688.16-.852.36-.164.198-.43.359-.59.359s-1.523.648-3.031 1.441a583.04 583.04 0 0 1 -3.465 1.809c-.394.203-1.047.582-1.441.84a11.32 11.32 0 0 1 -1.262.706c-.297.13-.54.34-.54.465 0 .13-.241.309-.542.403-.297.093-.984.507-1.531.918-.5.375-1.008.746-1.524 1.105-.289.2-.765.578-1.058.84-.293.266-1.094.91-1.782 1.43-.687.523-1.25 1.039-1.25 1.14 0 .106-.113.192-.25.192-.37 0-4.984 4.71-6.62 6.757-.778.973-1.548 1.856-1.716 1.961a.728.728 0 0 0 -.3.543c0 .192-.11.348-.246.348-.137 0-.32.188-.407.418-.14.387-.98 1.695-1.27 1.984-.284.285-1.124 1.598-1.269 1.98-.086.231-.265.423-.402.423s-.25.207-.25.46c0 .255-.156.622-.348.813-.191.192-.418.625-.5.961-.086.336-.308.672-.492.742-.187.07-.34.34-.34.602 0 .258-.164.633-.36.828-.198.2-.362.578-.362.844 0 .261-.164.64-.364.843-.199.2-.425.692-.507 1.09-.083.403-.293.856-.477 1.004-.184.153-.332.578-.332.95 0 .37-.16.835-.36 1.035-.199.199-.363.609-.363.918 0 .308-.152.847-.336 1.199-.183.351-.41 1.11-.504 1.68-.093.574-.289 1.187-.433 1.363-.14.175-.336.984-.434 1.793-.094.812-.289 1.515-.433 1.562-.149.051-.266.762-.27 1.688-.004.879-.168 2.03-.355 2.562-.192.528-.364 1.824-.38 2.883a53.22 53.22 0 0 1 -.183 3.438l-.152 1.519-1.32.453c-.727.25-2.126.528-3.11.621-.98.09-2.062.313-2.398.489-.34.175-1.172.32-1.852.324-.797 0-1.336.125-1.527.36-.18.214-.703.362-1.297.362-.55 0-1.219.153-1.484.34-.27.188-.915.418-1.434.512-.524.098-1.164.324-1.426.504-.258.176-.758.324-1.11.324-.35 0-.773.164-.937.36-.164.199-.597.363-.96.363-.364 0-.798.16-.962.36-.164.194-.422.359-.574.359-.148 0-.676.214-1.168.48-.496.266-1.058.48-1.258.48-.199 0-.363.098-.363.215 0 .121-.297.34-.66.492-.77.32-2.04 1.028-3.063 1.704-.394.261-.91.543-1.14.62-.23.083-.422.235-.422.34 0 .11-.54.547-1.2.977-.66.426-1.202.867-1.202.977 0 .109-.102.199-.227.199-.312 0-3.855 3.535-3.855 3.844 0 .132-.094.242-.207.242-.114 0-.52.457-.899 1.02-.383.558-.75 1.074-.812 1.14-.45.441-1.204 1.727-1.204 2.039a.602.602 0 0 1 -.359.516c-.2.074-.363.289-.363.472 0 .188-.215.739-.48 1.235-.262.492-.481 1.074-.481 1.289 0 .219-.16.527-.36.695-.199.164-.359.637-.359 1.055s-.144.972-.324 1.23c-.18.262-.395 1.301-.477 2.305-.082 1.008-.257 2.125-.394 2.48-.317.829-.32 4.235-.008 5.059.133.344.313 1.57.398 2.715.086 1.148.301 2.3.48 2.562.18.262.325.868.325 1.352 0 .488.16 1.012.36 1.176.199.164.359.52.359.785 0 .437.683 2.133 1.234 3.058.117.2.274.524.348.723.074.195.23.52.344.719.113.199.511.953.879 1.68.37.726.812 1.41.976 1.515.18.125.29.328.305.547 0 .195.16.418.36.492.198.078.359.293.359.477 0 .187.218.523.48.75.266.226.48.484.48.578 0 .383 4.22 4.754 5.88 6.09.492.398 1.019.828 1.171.96.153.133.762.567 1.356.962.597.394 1.136.777 1.203.843.066.07.39.258.719.422.367.18.726.371 1.082.574.968.563 1.207.688 1.562.82.195.075.684.29 1.078.477.399.188 1.07.414 1.496.496s.899.297 1.051.48c.153.18.715.333 1.246.333.59 0 1.157.164 1.438.418.441.398 3.527.422 57.668.422h57.199l.066-3.422.067-3.426-55.79-.008c-47.913-.008-55.878-.054-56.394-.351-.328-.188-1.105-.348-1.722-.352-.668-.004-1.27-.156-1.485-.367-.2-.2-.566-.363-.82-.363-.551 0-4.38-1.887-4.38-2.157 0-.105-.241-.253-.538-.328-.297-.078-.899-.468-1.336-.867-.438-.402-.887-.73-1-.73-.352 0-5.05-4.766-5.05-5.121 0-.075-.329-.493-.731-.93-.399-.438-.79-1.04-.868-1.336-.074-.297-.23-.54-.343-.54-.114 0-.485-.566-.825-1.26a39.48 39.48 0 0 0 -.832-1.622c-.535-.906-1.207-2.601-1.207-3.047 0-.273-.16-.633-.359-.797-.215-.175-.363-.703-.363-1.289 0-.547-.18-1.316-.399-1.71-.601-1.087-.613-8.313-.015-9.419.23-.422.418-1.136.418-1.59 0-.453.16-.96.36-1.124.198-.165.358-.543.358-.84s.157-.668.344-.828c.192-.157.414-.602.5-.989.086-.386.258-.703.383-.703s.332-.273.457-.61c.246-.644.27-.675 1.555-2.152.457-.53.836-1.043.84-1.144.003-.098.168-.18.367-.18.195 0 .36-.113.36-.258 0-.14.448-.652 1-1.14.55-.485 1.171-1.07 1.374-1.305.207-.23.496-.418.645-.418.148 0 .465-.215.703-.48.238-.266.57-.48.738-.48s.34-.083.383-.18c.137-.31 1.605-1.262 1.945-1.262a.891.891 0 0 0 .547-.227c.367-.363 2.508-1.453 2.856-1.453.175 0 .453-.164.617-.363.164-.196.597-.36.96-.36.364 0 .786-.148.942-.336.152-.183.672-.406 1.156-.5.485-.09 1.098-.316 1.367-.503.266-.188.848-.34 1.29-.34.441 0 .968-.164 1.164-.36.207-.207.793-.363 1.37-.363.555 0 1.223-.144 1.485-.324s1.176-.406 2.031-.5c.86-.094 1.696-.285 1.864-.426.168-.137 1.304-.305 2.523-.371 1.223-.066 2.375-.242 2.559-.39.195-.153 1.609-.305 3.328-.356l2.992-.086-.172-1.715c-.43-4.25.024-13.219.738-14.598.188-.367.344-1.203.344-1.859 0-.742.137-1.332.36-1.559.199-.195.359-.777.359-1.293 0-.511.16-1.14.351-1.394.196-.258.36-.688.364-.957.004-.27.222-.914.488-1.434.262-.515.48-1.191.48-1.5 0-.304.16-.617.36-.695.2-.074.36-.352.36-.613 0-.266.16-.766.359-1.117.195-.352.468-.907.601-1.239.133-.328.34-.761.461-.96.14-.231.262-.47.367-.72.075-.199.352-.683.61-1.081.257-.395.629-1.07.824-1.5s.457-.782.582-.782c.121 0 .285-.187.363-.422.281-.836 3.574-5.234 4.754-6.351.379-.356.688-.707.688-.781 0-.235 1.914-2.055 2.16-2.055.133 0 .242-.16.242-.36 0-.199.086-.359.191-.359.106 0 .727-.515 1.383-1.148 1.313-1.274 3.32-2.934 3.54-2.934.077 0 .495-.328.933-.73.437-.403 1.031-.79 1.32-.864.29-.074.582-.285.652-.472a.556.556 0 0 1 .473-.336c.188 0 .402-.164.48-.36.075-.199.29-.363.47-.363.183 0 .581-.215.886-.48.305-.262.684-.48.848-.48.16 0 .43-.16.593-.36.165-.2.489-.36.723-.36s.488-.164.563-.359c.093-.21.3-.351.527-.363.215 0 .668-.215 1.004-.48.336-.262.766-.481.953-.481.191 0 .508-.16.707-.36.2-.199.621-.359.945-.359.32 0 .582-.105.582-.234 0-.133.297-.309.66-.399.364-.09 1.036-.36 1.497-.605.46-.242 1-.445 1.203-.45.199-.003.574-.167.828-.363.258-.191.812-.351 1.234-.351.465 0 .824-.145.91-.36.09-.234.465-.359 1.075-.359.52 0 1.066-.156 1.222-.34.157-.187.828-.414 1.492-.508.665-.09 1.5-.316 1.848-.5.352-.183 1.18-.336 1.84-.34.672-.007 1.41-.167 1.668-.363.305-.23 1.035-.351 2.098-.351 1.004 0 2.027-.164 2.656-.422 1.547-.633 17.078-.633 18.625 0 .629.258 1.652.422 2.656.422 1.063 0 1.793.12 2.098.351.258.196.996.356 1.668.364.66.003 1.48.156 1.824.332.344.18 1.152.406 1.793.503.64.094 1.383.329 1.648.512.266.188.778.34 1.133.34.36 0 .813.16 1.012.36.2.195.672.359 1.05.359.383 0 .903.16 1.16.351.255.196.63.36.829.364.2.004.77.222 1.262.488.492.262 1.117.476 1.382.476.27 0 .551.165.63.364.074.195.39.36.695.36.304 0 .718.16.918.358.199.2.515.36.707.36.187 0 .617.219.953.48.336.266.762.48.945.48.184 0 .457.122.606.27.34.34 1.203.844 2.046 1.188.364.152.66.36.66.465 0 .11.325.308.723.445.395.137.719.363.719.504 0 .14.106.254.234.254.344 0 3.13 1.953 3.13 2.195 0 .113.113.207.25.207.324 0 1.59.903 2.433 1.738.363.364.73.66.809.66.445 0 8.515 8.07 8.515 8.516 0 .082.3.442.668.801.926.91 1.734 2.285 1.742 2.965.008.312.168.781.364 1.039.191.254.351.809.351 1.23 0 .422.16.899.36 1.063.199.164.359.55.359.86 0 1.48.832 2.136 1.789 1.413.289-.215 1.023-.355 1.922-.36.898-.003 1.633-.14 1.922-.358.32-.243 1.097-.356 2.52-.36 1.132-.008 2.921-.164 3.98-.355 2.48-.45 5.328-.45 7.445-.004.922.199 2.66.36 3.855.363 1.536 0 2.313.106 2.645.356.262.199.996.355 1.68.359.687.004 1.418.164 1.68.36.257.195.792.359 1.19.363.4.004 1.13.222 1.622.488.492.262 1.152.48 1.469.48.312 0 .707.16.87.36.165.199.548.36.852.36.305 0 .715.163.914.358.2.2.516.36.707.36.188 0 .618.219.953.484.336.262.77.477.965.477.196 0 .489.164.653.363.164.195.453.36.636.36.188 0 .399.152.47.34.07.183.366.398.651.468.29.074.883.461 1.32.863.438.403.86.73.934.73.575 0 4.829 4.208 6.22 6.153.253.356.648.813.878 1.02.23.21.422.492.422.629 0 .539.953.886 1.348.492.199-.203.523-.367.718-.367.192 0 .41-.16.489-.36.074-.199.234-.363.355-.363.117 0 .754-.375 1.41-.84.66-.46 1.281-.84 1.383-.84.305 0 .84-1.011.621-1.172-.246-.183-1.281-1.644-1.281-1.812 0-.36-6.04-6.531-7.535-7.703a71.98 71.98 0 0 1 -1.203-.961c-.575-.489-1.723-1.239-2.133-1.39-.23-.087-.418-.266-.418-.403s-.149-.25-.328-.25c-.18 0-.602-.215-.938-.48-.336-.262-.789-.481-1.004-.481a.605.605 0 0 1 -.527-.36c-.074-.199-.29-.359-.473-.359s-.738-.219-1.23-.48c-.496-.266-1.024-.48-1.172-.48-.152 0-.41-.165-.574-.36-.164-.2-.543-.363-.84-.363s-.676-.16-.84-.36-.59-.36-.945-.36c-.356 0-.856-.16-1.114-.35-.253-.196-.734-.36-1.066-.364-.328-.004-.922-.18-1.32-.387-.395-.207-1.262-.433-1.922-.508-.66-.07-1.438-.277-1.73-.46-.301-.188-1.196-.336-2.044-.344-.832-.004-1.941-.164-2.472-.356-1.168-.422-16.317-.523-16.57-.113-.45.727-2.762-.426-2.762-1.375 0-.176-.164-.383-.364-.461-.195-.074-.359-.289-.359-.473 0-.183-.11-.332-.246-.332-.137 0-.316-.183-.402-.402-.086-.223-.352-.629-.594-.902-.926-1.051-1.16-1.34-1.16-1.442 0-.281-7.996-8.543-8.27-8.543-.082 0-.472-.328-.863-.726-.465-.461-.965-.887-1.5-1.262-.434-.297-.95-.676-1.145-.84a22.562 22.562 0 0 0 -1.918-1.496c-.515-.36-1.023-.73-1.523-1.105-.547-.41-1.234-.825-1.535-.918-.297-.094-.54-.274-.54-.403 0-.125-.241-.336-.538-.465a11.32 11.32 0 0 1 -1.262-.707c-.469-.3-.95-.582-1.441-.84a502.358 502.358 0 0 1 -3.465-1.808c-1.508-.793-2.871-1.441-3.031-1.441s-.426-.16-.59-.36c-.164-.199-.547-.36-.852-.36s-.719-.163-.914-.359c-.2-.199-.586-.363-.86-.363-.273 0-.902-.215-1.394-.48-.492-.262-1.129-.48-1.41-.48-.285 0-.652-.16-.816-.36-.165-.2-.641-.36-1.063-.36s-.976-.16-1.23-.351c-.258-.195-.793-.36-1.188-.363-.398-.004-1.016-.164-1.375-.352-.36-.187-1.277-.41-2.043-.504-.762-.09-1.625-.312-1.918-.496s-1.129-.336-1.855-.336c-.73 0-1.735-.152-2.235-.34-.496-.187-2.215-.402-3.82-.476-1.605-.078-3.207-.246-3.559-.383-.82-.309-10.14-.293-10.925.023m74.984 156.664c-1.855.5-2.203 1.434-2.21 5.98-.009 4.571-.099 4.743-2.376 4.743-2.523 0-3.887.777-3.871 2.215.016 1.476.629 1.871 2.926 1.871 2.816 0 2.59-.867 2.597 9.953.008 7.867.067 9.457.364 9.848.191.258.351.836.351 1.285 0 .453.215 1.086.48 1.426.262.336.481.746.481.914 0 .164.16.363.36.441.199.074.359.29.359.477s.191.402.422.48c.27.094.531.215.781.352 1.59.937 2.117 1.043 5.246 1.039 2.469-.004 3.274-.086 3.692-.38.296-.206.671-.374.84-.374.773 0 1.269-.816 1.269-2.098 0-.851-.098-1.265-.3-1.27-.165 0-.575-.144-.911-.32-.36-.187-.805-.242-1.082-.132-1.629.636-4.148-.016-5.191-1.34l-.563-.715-.074-9.3c-.09-11.337-.442-10.286 3.445-10.286 2.531 0 2.996-.059 2.996-.367 0-.203.16-.43.36-.508.492-.188.449-1.523-.07-2.145-.633-.753-1.829-1.066-4.122-1.066-2.773 0-2.652.219-2.652-4.723 0-4.53-.258-5.675-1.336-5.945-.297-.074-.688-.18-.863-.234-.18-.051-.786.027-1.348.18m-31.281 10.82c-.332.175-1.074.39-1.653.48-.578.086-1.277.317-1.554.512-.278.195-.696.351-.93.351s-.43.102-.43.227c0 .121-.203.29-.453.367-.851.27-2.668 2.375-2.668 3.094 0 .184-.16.473-.36.637-.48.398-.503 3.77-.03 4.449.18.262.406.73.504 1.039.21.684 1.972 2.437 2.445 2.437.187 0 .402.165.476.364.079.195.375.36.66.36.29 0 .735.144.997.323.261.18.945.399 1.523.489s1.277.32 1.555.515c.277.196 1.008.352 1.62.352.704 0 1.231.137 1.419.363.187.227.719.36 1.426.36.617 0 1.336.156 1.59.351.257.195.804.356 1.214.36.414.003 1.024.222 1.36.488.336.265.699.48.808.48 1.309 0 2.63 3.91 1.649 4.89-.2.2-.36.454-.36.571 0 .113-.328.473-.73.797-.367.297-.73.602-1.086.91-.2.18-.816.383-1.375.453-.559.074-1.164.25-1.352.399-.433.343-3.574.297-3.93-.063-.148-.148-.816-.273-1.484-.277-.691-.004-1.625-.207-2.172-.473-.53-.258-1.125-.472-1.324-.48-.195-.008-.57-.176-.824-.367-.258-.196-.758-.356-1.113-.356-.356 0-.778-.16-.942-.36-.168-.199-.597-.359-.96-.359-.368 0-.798.16-.962.36-.168.199-.449.36-.632.36-.762 0-.387 1.769.582 2.714.5.488.996.89 1.097.89.102 0 .348.16.547.36.2.2.61.36.914.36.305 0 .688.163.852.363.168.195.668.359 1.12.359.45 0 1.22.168 1.712.375 1.297.543 8.676.547 9.953.004.492-.211 1.219-.38 1.621-.38.399 0 .727-.105.727-.237 0-.13.293-.309.648-.399.957-.238 3-1.71 3.68-2.652.328-.453.73-.973.898-1.152.164-.18.297-.532.297-.782s.16-.66.356-.918c.484-.64.484-3.894 0-4.535-.196-.258-.356-.66-.356-.902 0-.676-2.633-3.074-3.379-3.074-.222 0-.539-.164-.703-.36-.164-.199-.656-.363-1.094-.363-.433 0-.953-.16-1.152-.36-.2-.199-.633-.359-.969-.359s-1.16-.219-1.828-.48c-.672-.266-1.574-.48-2.004-.48-.433 0-.996-.16-1.254-.352-.258-.196-.883-.356-1.39-.364-.508-.004-1.211-.156-1.559-.34-.445-.226-.89-.449-1.34-.66-1.242-.578-1.582-.796-1.582-1.02 0-.116-.187-.35-.418-.523-1.144-.835-.351-3.308 1.457-4.535 1.586-1.074 9.25-1.258 10.856-.258.265.168.832.38 1.261.473.426.094.778.27.778.39 0 .427 2.066.247 2.484-.218.82-.906-.55-3.645-1.824-3.645-.172 0-.531-.152-.8-.34-.267-.187-.915-.41-1.434-.5a11.837 11.837 0 0 1 -1.856-.5c-1.223-.46-7.953-.46-8.82-.003m60.187-.055c-.254.148-.902.363-1.441.48-.899.192-2.11.672-3.024 1.196-.195.113-.511.281-.699.367-1.707.8-5.304 5.21-5.304 6.5 0 .133-.16.379-.36.543-.203.168-.36.691-.36 1.184 0 .488-.16 1.097-.355 1.351-.504.668-.504 6.27 0 6.938.196.257.356.867.356 1.351 0 .488.152 1.016.344 1.172.187.16.41.598.496.977.082.375.304.812.496.972.187.157.343.395.343.532 0 .824 3.715 4.5 4.547 4.5.114 0 .266.16.344.359.074.2.414.36.754.36s.676.163.754.363c.082.21.445.359.894.359.414 0 1.079.172 1.473.379 1.047.547 8.086.547 9.129 0 .394-.207 1.059-.38 1.477-.38.445 0 .808-.148.89-.358.078-.2.406-.364.735-.364.328 0 .683-.133.789-.3.105-.165.5-.458.875-.653.457-.25.882-.55 1.273-.898.324-.301.695-.551.82-.551s.227-.133.23-.3c0-.165.247-.528.544-.813.297-.282.703-.82.898-1.2.196-.378.492-.773.656-.882.165-.106.301-.457.301-.786 0-.328.149-.652.328-.722.18-.07.399-.625.48-1.23.083-.606.286-1.266.454-1.465.496-.598.39-7.176-.129-8.094-.226-.395-.41-1.059-.41-1.473-.004-.45-.149-.812-.363-.894-.2-.079-.36-.352-.36-.61 0-.5-1.883-3.387-2.207-3.387-.11 0-.195-.164-.195-.359 0-.2-.164-.363-.36-.363-.199 0-.363-.086-.363-.192 0-.257-2.832-2.21-3.207-2.21-.156 0-.508-.153-.773-.34-.266-.188-.914-.418-1.434-.512-.523-.094-1.242-.32-1.597-.5-.817-.414-7.043-.45-7.739-.047m40.453.078c-.164.2-.488.363-.718.363s-.692.215-1.028.477c-.336.266-.73.48-.875.48-.144 0-.261.165-.261.364 0 .195-.09.36-.2.36-.238 0-1.386 1.714-1.601 2.394-.38 1.195-1.082.379-1.082-1.258 0-3.516-5.293-4.211-6.23-.82-.454 1.644-.247 25.039.226 25.98.633 1.254 2.262 1.844 3.758 1.36 2.191-.712 2.109-.333 2.246-10.508.082-6.004.207-9.02.386-9.247.149-.183.34-.632.426-.996.149-.62 2.531-3.293 2.953-3.312.11-.004.63-.215 1.157-.473.691-.332 1.488-.465 2.824-.472 1.023-.004 1.863-.11 1.863-.235s.32-.418.719-.652c1.148-.676 1.078-2.848-.121-3.625-1.031-.668-3.938-.785-4.442-.18m-34.238 3.867c.59.078 1.195.297 1.352.48.152.184.402.337.554.337.153 0 .453.203.664.453.215.246.48.492.598.539.703.3 2.727 3.781 2.727 4.691 0 .258.136.602.3.766.48.48.563 6.496.106 7.52-.2.44-.422 1.16-.5 1.597-.078.438-.305.961-.504 1.16-.2.2-.363.57-.363.825 0 .257-.094.464-.207.464-.118 0-.457.36-.762.801-.3.442-.938 1.063-1.41 1.383-.477.316-1.008.715-1.18.879-.176.164-.668.3-1.094.3-.425 0-.906.13-1.066.29-.16.164-.883.293-1.606.293-.722 0-1.445-.13-1.605-.293-.164-.16-.617-.29-1.012-.29-.707 0-2.547-1.066-2.547-1.476 0-.113-.164-.207-.363-.207-.195 0-.36-.101-.36-.226s-.378-.637-.84-1.141c-.46-.5-.839-1.09-.839-1.305s-.164-.523-.36-.687c-.214-.176-.367-.711-.37-1.293-.004-.543-.164-1.2-.36-1.457-.262-.348-.351-1.176-.351-3.258s.09-2.906.351-3.254c.196-.258.356-.809.36-1.23.011-.895.933-2.836 1.8-3.766.336-.363.61-.715.61-.781 0-.215 1.316-1.282 1.594-1.29.148-.003.402-.167.57-.367.164-.199.687-.367 1.168-.379.48-.007 1.086-.113 1.351-.23.457-.207 1.13-.18 3.594.152" fill="#fff"/><path d="m191.555 98.645c-6.098 2.285-8.98 7.707-7.465 14.043.7 2.921 3.418 6.351 5.562 7.019.278.086.746.414 1.043.73l.54.575-.743.16c-1 .219-3.351 1.988-4.363 3.277-4.348 5.547-2.578 14.375 3.48 17.344 1.438.7 1.57 1.344.36 1.73-3.426 1.086-6.223 5.778-6.223 10.442 0 5.066 2.555 8.715 7.445 10.644l1.325.524h36.265c40.684 0 36.938.16 39.946-1.73 6.906-4.344 6.5-16.126-.672-19.579-1.692-.816-2-1.437-.852-1.726 5.59-1.403 8.383-11.063 4.828-16.7-1.047-1.656-3.87-4.093-4.754-4.105-1.433-.016-.972-.914.957-1.86 8.27-4.046 6.836-17.898-2.144-20.71-2.063-.649-72.82-.723-74.535-.078m75.207 2.535c7.144 3.816 6.277 14.797-1.356 17.238-2.308.734-70.894.75-73.199.016-1.867-.598-3.098-1.387-4.3-2.75-3.602-4.094-2.157-12.48 2.476-14.348a68.015 68.015 0 0 1 1.531-.602c.688-.257 7.484-.308 37.23-.265l36.387.05 1.23.66m-68.952 5.883c-1.844.465-2.43 2.848-1.024 4.157.492.457.973.469 18.57.469h18.07l.645-.77c1.13-1.34.649-3.098-1.039-3.8-.566-.235-34.304-.29-35.222-.055m60.156.253c-1.05.575-1.535 1.508-1.332 2.582.457 2.446 5.246 2.524 5.781.09.48-2.183-2.289-3.851-4.45-2.672m7.087 15.442c8.765 2.347 8.754 15.605-.012 17.887-1.91.5-70.668.52-72.523.023-8.703-2.324-8.977-15.961-.36-17.879 1.551-.344 71.61-.375 72.895-.031m-68.301 7.031c-1.145 1.219-.879 3.176.523 3.84 1.278.61 34.84.61 36.118 0 1.398-.664 1.71-2.41.656-3.668l-.621-.738h-36.146l-.531.566m60.656-.074c-1.238.976-1.047 2.965.375 3.832 2.133 1.3 5.211-.324 4.664-2.461-.457-1.781-3.476-2.602-5.039-1.371m8.145 15.281c7.668 2.59 8.242 13.879.879 17.328l-1.38.645h-72.777l-1.41-.719c-7.277-3.715-6.629-14.36 1.051-17.215 1.656-.617 71.813-.656 73.637-.039m-101.406 5.484c.003 1.848.039 2.575.085 1.61a40.143 40.143 0 0 0 0-3.36c-.046-.886-.085-.097-.085 1.75m33.12 1.106c-1.624.476-1.671 3.309-.062 4.117 1.164.586 34.762.652 36.152.074 1.383-.578 1.762-2.468.735-3.664l-.582-.672-17.735-.043c-10.527-.023-18.046.051-18.507.188m60.574.059c-1.961.89-1.66 3.64.465 4.234 3.03.848 5.39-1.566 3.547-3.629-.805-.898-2.73-1.188-4.012-.605m-235.652 23.69c-.547.243-1.301.849-1.684 1.345l-.688.906v19.637c0 19.554 0 19.636.504 20.312 1.696 2.29 5.184 2.29 6.93 0l.613-.808v-7.977c0-5.043.09-8.152.246-8.445.235-.434.547-.465 4.668-.465 8.504 0 10.426.777 11.184 4.512.125.62.336 1.566.465 2.093.133.528.246 1.5.25 2.16.086 7.372 1.594 10.692 4.863 10.692 3.426 0 4.387-2.012 3.805-7.945-1.047-10.704-2.074-13.004-6.387-14.282-1.094-.324-1.238-.804-.36-1.215l1.563-.722c8.328-3.852 7.328-15.719-1.601-18.957-3.641-1.32-21.88-1.95-24.371-.84m111.234-.043c-2.59 1.094-2.387-.688-2.461 21.488-.066 19.09-.066 19.16.445 20.348 1.145 2.66 4.805 2.984 6.39.566.388-.586.442-1.386.513-7.308.09-7.356.132-7.508 1.574-5.657.43.54.879 1.063 1.344 1.567.703.75 6.074 6.848 7.953 9.023 1.953 2.258 3.007 3.32 3.625 3.637 2.265 1.172 5.265-.98 4.672-3.352-.188-.75-2.278-3.167-7.598-8.796-1.93-2.043-4.082-4.551-4.082-4.758 0-.363 1.039-1.418 3.004-3.059 8.453-7.05 8.847-7.625 6.574-9.57-1.746-1.496-3.203-1.285-5.387.785-.523.496-1.543 1.422-2.27 2.063-.726.64-2.347 2.109-3.6 3.261l-3.606 3.32c-2.293 2.11-2.13 2.86-2.211-10.163-.078-12.922.039-12.188-2.117-13.29-1.243-.632-1.485-.644-2.762-.105m-94.406 5.605c8.742 1.098 8.851 11.653.136 12.942-2.64.39-10.98.281-11.144-.145-.258-.672-.164-12.11.101-12.605.301-.559 7.036-.68 10.907-.192m34.964 7.395c-17.996 2.11-17.25 29.848.84 31.25 11.059.855 18.375-5.363 18.375-15.621 0-10.484-7.953-16.953-19.215-15.629m38.31 0c-17.247 2.016-17.087 29.605.179 31.215 8.133.758 15.148-3.031 11.949-6.457-.86-.922-1.488-.903-4.32.125-7.426 2.691-13.211-1.426-13.211-9.403 0-7.308 5.672-11.757 12.172-9.55 4.265 1.445 5.886.886 5.52-1.914-.364-2.801-6.25-4.723-12.29-4.016m-31.879 5.402c7.156 3.664 6.617 18.203-.773 20.887-1.14.414-4.93.188-6.032-.363-6.671-3.332-6.761-17.051-.136-20.504 1.636-.852 5.3-.863 6.941-.02m95.832-.41c.301.055.735.055.961-.004.23-.062-.012-.11-.543-.105-.527 0-.715.05-.418.11" fill="#e96645"/></g></svg>