<svg xmlns="http://www.w3.org/2000/svg" fill="none" viewBox="0 0 1165 256"><path fill="#10b981" fill-rule="evenodd" d="M219 160a96 96 0 1 0-186.7-31.7c0 26.2 10.5 50 27.6 67.3l97.4-97.4zm-17.5 30.5-44.2-44.2-69.2 69.2a95.6 95.6 0 0 0 113.3-25z" clip-rule="evenodd"/><path fill="#000" d="M283 178V77h49.2q7.5 0 14 2.3t11.1 6.5q4.6 4 7.2 9.8c2.6 5.8 2.6 8 2.6 12.7a28 28 0 0 1-5.5 17q-5.3 7.5-14.3 11l22.3 41.6h-23.3l-19.7-38.6h-22.8v38.6zm47.4-82.8h-26.5v27.1h26.5a16 16 0 0 0 11.2-3.7q4.3-3.8 4.3-9.8c0-6-1.4-7.3-4.3-9.8a16 16 0 0 0-11.2-3.8m41.2 45.4a38.6 38.6 0 0 1 40-39 41 41 0 0 1 28.4 11.3 36 36 0 0 1 8.5 12.4q3.2 7 3.2 15.3c0 8.3-1 10.6-3.2 15.4a39 39 0 0 1-21.2 20.4q-7.2 3-15.7 3c-8.5 0-10.8-1-15.7-3s-9.2-4.7-12.8-8.2a40 40 0 0 1-8.5-12.2q-3-7.2-3-15.4m40 21.7q8.7 0 14.7-6.3c6-6.3 6-9.4 6-15.4q0-9.2-6-15.6c-6-6.4-9-6.4-14.7-6.4s-10.7 2.1-14.7 6.4-6 9.4-6 15.6q0 9 6 15.4c6 6.4 9 6.3 14.7 6.3m89.4-.1q5 0 9.4-2t8.5-6.4l11.8 12.2a41 41 0 0 1-46.1 10.4q-7.2-3-12.5-8.2a39 39 0 0 1-8.2-43 38.5 38.5 0 0 1 36.3-23.7q9 0 17 3.6a40 40 0 0 1 14 9.8l-12 12.8q-4-4.5-8.7-6.8c-4.7-2.3-6.4-2.3-10-2.3q-8.4 0-14.3 6.4-5.8 6.3-5.8 15.6c0 9.3 2 11.3 6 15.4q6 6 14.6 6.1zm39.9 15.8V77l19.7-4.4v61.8l32.4-31.7h22.3l-35.1 34.4 37.3 40.6h-25.2l-31.7-34.3v34.3h-19.7zm104 3.4 1.2-2.7-29.3-75.7h21.7l18.6 51 21.3-51h21.3l-34.6 80.9q-5.7 13.6-13.4 19.3c-7.7 5.7-11.7 5.7-19.9 5.7a43 43 0 0 1-8.7-.8v-17a29 29 0 0 0 6.9.5q5.2 0 9-2.5 3.6-2.7 5.8-7.7zM739 178V77h11.1v90.9h60v9.9H739zm90.2-86q-3 0-5-2.2c-2-2.2-2.2-3.1-2.2-5q0-3 2.2-5a7 7 0 0 1 5-2.2q3 0 5 2.1 2.2 2 2.2 5a7 7 0 0 1-2.2 5.1 7 7 0 0 1-5 2.2m5.3 13.8v72h-10.7v-72zm18.2 72v-72h10.7v8.5q4.2-5 10-7.4 5.6-2.6 12.8-2.6 12.2 0 20 7.8c7.8 7.8 7.8 12 7.8 20.2V178h-10.5v-43.5q0-9.5-5.5-15c-5.5-5.6-8.6-5.7-14.7-5.7q-6.4 0-11.7 2.9-5 2.8-8.2 8.2v53zm88.6-72v43.5q0 9.5 5.5 15c5.5 5.6 8.5 5.7 14.7 5.7q6.5 0 11.5-2.9 5.2-3 8.4-8.4v-53H992v72.1h-10.7v-8.3a27 27 0 0 1-10 7.3q-5.6 2.5-12.7 2.5-12.4 0-20.2-7.8c-7.8-7.8-7.8-11.9-7.8-20.2v-45.6zm60.5 72 28.4-37.1-26.9-35h12.7l20.4 27 20.4-27h12.2l-26.6 34.8 28.5 37.3h-12.7l-22-29.4-22.3 29.4zM1080 102V86.4h-5.2v-3h5.2v-6.1l3.5-1v7h7.3v3.1h-7.3v14.7q0 2 .9 2.8t2.8.8l1.8-.1 1.7-.5v3q-1 .5-2 .6l-2.2.1q-3.1 0-4.8-1.5c-1.7-1.5-1.7-2.4-1.7-4.3m14.6 5.4v-24h3.6V86q1.3-1.5 3-2.3a9 9 0 0 1 8.5.4 8 8 0 0 1 3 3.2 10 10 0 0 1 8.3-4.4q3.9 0 6.4 2.6 2.4 2.6 2.5 6.7v15.2h-3.5V93q0-3.1-1.7-5c-1.7-2-2.7-1.9-4.6-1.9q-2 0-3.6 1a7 7 0 0 0-2.8 3l.3 2.2v15.2h-3.5V92.9q0-3.2-1.7-5c-1.7-1.8-2.6-2-4.5-2q-2 0-3.5 1-1.6.8-2.7 2.6v17.9z"/></svg>