<svg fill="none" xmlns="http://www.w3.org/2000/svg" viewBox="0 0 1165 256"><path d="M219 160c3.46-9.91 5.34-20.6 5.34-31.7 0-53-43-96-96-96s-96 43-96 96c0 26.2 10.5 50 27.6 67.3l97.4-97.4 61.7 61.7zm-17.5 30.5-44.2-44.2-69.2 69.2c12.2 5.65 25.8 8.8 40.2 8.8 29.3 0 55.5-13.1 73.1-33.8z" clip-rule="evenodd" fill="#10B981" fill-rule="evenodd"/><path d="M283 178V77h49.2c5.09 0 9.74.768 14 2.3 4.32 1.54 8.02 3.7 11.1 6.48 3.07 2.69 5.47 5.95 7.2 9.79s2.59 8.06 2.59 12.7c0 6.34-1.82 12-5.47 17-3.55 4.99-8.3 8.69-14.3 11.1l22.3 41.5h-23.3l-19.7-38.6h-22.8v38.6h-20.9zm47.4-82.8h-26.5v27.1h26.5c4.7 0 8.45-1.25 11.2-3.74 2.88-2.5 4.32-5.76 4.32-9.79s-1.44-7.3-4.32-9.79c-2.78-2.5-6.53-3.74-11.2-3.74zm41.2 45.4c0-5.47 1.01-10.6 3.02-15.3 2.11-4.8 4.94-8.93 8.5-12.4 3.65-3.55 7.92-6.34 12.8-8.35s10.1-3.02 15.7-3.02 10.8 1.01 15.7 3.02 9.12 4.8 12.7 8.35c3.65 3.46 6.48 7.58 8.5 12.4 2.11 4.7 3.17 9.79 3.17 15.3s-1.06 10.6-3.17 15.4c-2.02 4.7-4.85 8.78-8.5 12.2-3.55 3.46-7.78 6.19-12.7 8.21s-10.1 3.02-15.7 3.02-10.8-1.01-15.7-3.02-9.17-4.75-12.8-8.21c-3.55-3.46-6.38-7.54-8.5-12.2-2.02-4.8-3.02-9.94-3.02-15.4zm40 21.7c5.76 0 10.7-2.11 14.7-6.34s6.05-9.36 6.05-15.4c0-6.14-2.02-11.3-6.05-15.6s-8.93-6.34-14.7-6.34-10.7 2.11-14.7 6.34-6.05 9.41-6.05 15.6c0 6.05 2.02 11.2 6.05 15.4s8.93 6.34 14.7 6.34zm89.4-.144c3.36 0 6.48-.672 9.36-2.02 2.98-1.34 5.81-3.46 8.5-6.34l11.8 12.2c-3.84 4.22-8.45 7.54-13.8 9.94-5.38 2.3-10.9 3.46-16.7 3.46-5.47 0-10.7-1.01-15.6-3.02-4.8-2.02-8.98-4.75-12.5-8.21-3.46-3.46-6.19-7.54-8.21-12.2-2.02-4.8-3.02-9.94-3.02-15.4s1.01-10.6 3.02-15.3c2.02-4.8 4.75-8.93 8.21-12.4 3.55-3.55 7.73-6.34 12.5-8.35 4.9-2.02 10.1-3.02 15.6-3.02 5.95 0 11.7 1.2 17.1 3.6 5.47 2.3 10.1 5.57 14 9.79l-12.1 12.8c-2.69-2.98-5.57-5.23-8.64-6.77s-6.38-2.3-9.94-2.3c-5.66 0-10.5 2.11-14.4 6.34-3.84 4.22-5.76 9.41-5.76 15.6s1.97 11.3 5.9 15.4c4.03 4.13 8.93 6.19 14.7 6.19zm39.9 15.8v-101l19.7-4.32v61.8l32.4-31.7h22.3l-35.1 34.4 37.3 40.6h-25.2l-31.7-34.3v34.3h-19.7zm104 3.46 1.15-2.74-29.2-75.7h21.7l18.6 51.1 21.3-51.1h21.3l-34.6 80.9c-3.84 9.02-8.3 15.5-13.4 19.3s-11.7 5.76-19.9 5.76c-1.73 0-3.41-.096-5.04-.288-1.54-.096-2.78-.288-3.74-.576v-17c.96.192 1.97.336 3.02.432s2.35.144 3.89.144c3.55 0 6.53-.864 8.93-2.59 2.5-1.73 4.46-4.27 5.9-7.63zm94.1-3.46v-101h11.1v90.9h60v9.94H739zm90.2-86c-1.92 0-3.6-.72-5.04-2.16s-2.16-3.12-2.16-5.04c0-2.02.72-3.7 2.16-5.04 1.44-1.44 3.12-2.16 5.04-2.16 2.02 0 3.7.72 5.04 2.16 1.44 1.34 2.16 3.02 2.16 5.04 0 1.92-.72 3.6-2.16 5.04-1.34 1.44-3.02 2.16-5.04 2.16zm5.33 13.8v72.1h-10.7v-72.1h10.7zm18.2 72.1v-72.1h10.7v8.5c2.78-3.26 6.1-5.71 9.94-7.34 3.84-1.73 8.11-2.59 12.8-2.59 8.16 0 14.8 2.59 20 7.78s7.78 11.9 7.78 20.2v45.6h-10.5v-43.5c0-6.34-1.82-11.4-5.47-15.1s-8.54-5.62-14.7-5.62c-4.32 0-8.21.96-11.7 2.88-3.36 1.92-6.1 4.66-8.21 8.21v53.1h-10.7zm88.6-72.1v43.5c0 6.34 1.82 11.4 5.47 15.1s8.54 5.62 14.7 5.62c4.32 0 8.16-.96 11.5-2.88 3.46-2.02 6.24-4.8 8.35-8.35v-53h10.7v72.1h-10.7v-8.35c-2.78 3.26-6.1 5.71-9.94 7.34-3.74 1.63-7.97 2.45-12.7 2.45-8.26 0-15-2.59-20.2-7.78s-7.78-11.9-7.78-20.2v-45.6h10.5zm60.5 72.1 28.4-37.2-26.9-35h12.7l20.4 27.1 20.4-27.1h12.2l-26.6 34.8 28.5 37.3h-12.7l-22-29.4-22.3 29.4h-12.1zM1080 102V86.4h-5.18v-3.02h5.18v-6.1l3.5-.912v7.01h7.25v3.02h-7.25v14.7c0 1.28.29 2.21.87 2.78.57.544 1.52.816 2.83.816.67 0 1.26-.048 1.78-.144a9.924 9.924 0 0 0 1.72-.48v3.12c-.6.224-1.29.384-2.06.48-.74.096-1.46.144-2.16.144-2.08 0-3.68-.496-4.8-1.49s-1.68-2.43-1.68-4.32zm14.6 5.38v-24h3.55v2.64c.89-1.02 1.93-1.79 3.12-2.3 1.18-.544 2.49-.816 3.93-.816 1.67 0 3.16.4 4.47 1.2a8.046 8.046 0 0 1 3.12 3.17c.99-1.47 2.17-2.56 3.55-3.26 1.41-.736 2.98-1.1 4.7-1.1 2.6 0 4.71.864 6.34 2.59 1.66 1.73 2.5 3.97 2.5 6.72v15.2h-3.51v-14.5c0-2.11-.56-3.79-1.68-5.04s-2.64-1.87-4.56-1.87c-1.31 0-2.51.336-3.6 1.01s-2.01 1.65-2.78 2.93c.06.352.11.72.14 1.1.07.352.1.736.1 1.15v15.2h-3.51v-14.5c0-2.11-.56-3.79-1.68-5.04s-2.62-1.87-4.51-1.87c-1.28 0-2.45.304-3.5.912-1.03.576-1.91 1.44-2.64 2.59v17.9h-3.55z" fill="#000"/></svg>
