<svg baseProfile="tiny" xmlns="http://www.w3.org/2000/svg" viewBox="0 0 263 68"><path fill="#B5B9BC" d="M229 0l-34 34 34 34 34-34-34-34zm28.6 34l-13.8 13.8c.3-.7.5-1.5.5-2.3 0-2.6-1.8-4.9-5.3-5.6l-2.5-.5c-1.3-.2-1.8-.9-1.8-1.8 0-1 1-2 2.5-2 2.2 0 2.9 1.4 3.1 2.2l3.6-1.5c-.6-2.1-2.4-4.4-6.6-4.4-1.6 0-3 .5-4.2 1.3 1.4-1.9 2.9-3.8 4.5-5.4 4.7-4.7 7.3-6.1 7.9-6.3L257.6 34zm-15.2-15.2c-.5.3-3.2 1.7-7.9 6.3-2.4 2.4-4.5 5.4-6.6 8.4l-2.3-4.7c1.9-1.1 2.7-3.2 2.7-5.2 0-3.3-2.3-5.8-6-5.8h-5.7L229 5.4l13.4 13.4zm-18.3 4.9c0 1.3-.9 2.2-2.6 2.2h-2.4v-4.5h2.4c1.7 0 2.6.9 2.6 2.3zM200.4 34l14.5-14.5v16.9h4.1v-6.9h2.5l3.7 7.7c-1.1 1.4-2.2 2.7-3.4 3.9-4.7 4.7-7.5 6.1-8 6.3L200.4 34zm16.4 16.3c.4-.2 3.3-1.6 8-6.3 2.3-2.3 4.2-4.9 6.1-7.5-.1.5-.2 1-.2 1.6 0 2.7 1.9 4.8 5 5.4l2.5.5c1.2.2 2 .9 2 1.9 0 1.1-1 1.9-2.6 1.9-2.5 0-3.6-1.4-3.8-3.1l-3.7 1.5c.6 2.5 2.8 5.2 7.4 5.2 1.4 0 2.5-.3 3.5-.8l-11.9 11.9-12.3-12.2zM8.8 58.8H7.6v-9.2L5 58.8H3.7l-2.6-9.2v9.2H0v-10h1.9l2.4 8.8 2.4-8.8h1.9v10h.2zm6.4 0h-1.1v-.9c-.5.7-1.1 1-1.9 1-.6 0-1.1-.2-1.4-.6-.2-.3-.4-.8-.4-1.4 0-1 .4-1.7 1.1-2 .5-.2 1.3-.4 2.5-.4v-.3c0-.6 0-1-.1-1.2-.1-.4-.5-.6-.9-.6-.3 0-.6.1-.8.3s-.3.4-.3.8v.1h-1.1v-.1c0-.6.2-1.1.7-1.4.4-.3.9-.4 1.6-.4.8 0 1.4.2 1.7.6s.4.9.4 1.7v2.6c-.1.8-.1 1.6 0 2.2zM14 56.1v-.8h-.3c-1.5 0-2.2.5-2.2 1.5 0 .9.3 1.3 1 1.3.5 0 .9-.2 1.2-.7.2-.3.3-.7.3-1.3zm4 2.7h-1.1v-10H18v10zm3.7 0h-1.3l-2.3-3.9 2.1-3.1h1.2l-2.1 3.1 2.4 3.9zm5.3-3.3h-3.7v.5c0 .7.1 1.2.2 1.5.2.5.5.7 1.1.7.8 0 1.2-.5 1.3-1.5H27c-.1 1.6-.8 2.3-2.3 2.3-1 0-1.6-.3-2-1-.3-.5-.4-1.3-.4-2.4 0-1.2.1-2.1.3-2.7.4-.8 1.1-1.3 2.1-1.3s1.7.4 2 1.1c.2.5.3 1.3.3 2.4v.4zm-1.1-.8c0-.7 0-1.2-.1-1.4-.2-.6-.5-.8-1.1-.8-.8 0-1.2.5-1.3 1.4 0 .3-.1.6-.1.9l2.6-.1zm6.9-4.6h-1.2v-1.2h1.2v1.2zm-.1 8.7h-1.1v-7h1.1v7zm6.5 0h-1.1V58c-.4.6-.9.9-1.6.9-.9 0-1.5-.4-1.8-1.2-.2-.5-.3-1.4-.3-2.5s.1-1.9.4-2.4c.3-.8.9-1.1 1.8-1.1.7 0 1.2.3 1.6.8v-3.7h1.1v8.7c-.2.3-.1.7-.1 1.3zm-1.1-3.4c0-1-.1-1.6-.2-2-.2-.6-.6-.9-1.1-.9s-.9.3-1.1.9c-.1.4-.2 1-.2 1.9s.1 1.6.2 2c.2.6.5.9 1 .9.6 0 1-.3 1.2-.9.1-.4.2-1 .2-1.9zm7.4.1h-3.7v.5c0 .7.1 1.2.2 1.5.2.5.5.7 1.1.7.8 0 1.2-.5 1.3-1.5h1.1c-.1 1.6-.8 2.3-2.3 2.3-1 0-1.6-.3-2-1-.3-.5-.4-1.3-.4-2.4 0-1.2.1-2.1.3-2.7.4-.8 1.1-1.3 2.1-1.3s1.7.4 2 1.1c.2.5.3 1.3.3 2.4v.4zm-1.1-.8c0-.7 0-1.2-.1-1.4-.2-.6-.5-.8-1.1-.8-.8 0-1.2.5-1.3 1.4 0 .3-.1.6-.1.9l2.6-.1zm7 4.1h-1.1v-.9c-.5.7-1.1 1-1.9 1-.6 0-1.1-.2-1.4-.6s-.4-.9-.4-1.5c0-1 .4-1.7 1.1-2 .5-.2 1.3-.4 2.5-.4v-.3c0-.6 0-1-.1-1.2-.1-.4-.5-.6-.9-.6-.3 0-.6.1-.8.3s-.3.4-.3.8v.1H47v-.1c0-.6.2-1.1.7-1.4.4-.3.9-.4 1.6-.4.8 0 1.4.2 1.7.6.3.4.4.9.4 1.7v2.6c-.1.9-.1 1.7 0 2.3zm-1.2-2.7v-.8h-.3c-1.5 0-2.2.5-2.2 1.5 0 .9.3 1.3 1 1.3.5 0 .9-.2 1.2-.7.2-.3.3-.7.3-1.3zm6.8.8c0 1.4-.7 2-2.2 2-1.4 0-2.1-.8-2.1-2.3h1.1v.4c.1.7.4 1.1 1 1.1.7 0 1.1-.4 1.1-1.1 0-.4-.1-.7-.3-.9-.1-.1-.4-.4-.9-.6-.7-.4-1.1-.6-1.2-.8-.4-.3-.5-.8-.5-1.3 0-.6.2-1.1.6-1.4s.9-.4 1.5-.4c.7 0 1.2.2 1.5.5s.5.9.5 1.6H56c0-.9-.3-1.3-1-1.3-.3 0-.5.1-.7.3s-.2.4-.2.7.1.6.4.8c.1.1.5.3 1 .6.6.3 1 .6 1.2.8.1.4.3.8.3 1.3zm7.5-4.1h-.2c-.5 0-.9.2-1.2.5s-.4.8-.4 1.3v4.3h-1.1v-7h1.1v.9c.4-.7 1-1.1 1.8-1.1v1.1zm5.4 2.7h-3.7v.5c0 .7.1 1.2.2 1.5.2.5.5.7 1.1.7.8 0 1.2-.5 1.3-1.5h1.1c-.1 1.6-.8 2.3-2.3 2.3-1 0-1.6-.3-2-1-.3-.5-.4-1.3-.4-2.4 0-1.2.1-2.1.3-2.7.4-.8 1.1-1.3 2.1-1.3s1.7.4 2 1.1c.2.5.3 1.3.3 2.4v.4zm-1.1-.8c0-.7 0-1.2-.1-1.4-.2-.6-.5-.8-1.1-.8-.8 0-1.2.5-1.3 1.4 0 .3-.1.6-.1.9l2.6-.1zm7 4.1h-1.1v-.9c-.5.7-1.1 1-1.9 1-.6 0-1.1-.2-1.4-.6s-.4-.9-.4-1.5c0-1 .4-1.7 1.1-2 .5-.2 1.3-.4 2.5-.4v-.3c0-.6 0-1-.1-1.2-.1-.4-.5-.6-.9-.6-.3 0-.6.1-.8.3-.3.3-.4.6-.4.9v.1h-1.1v-.1c0-.6.2-1.1.7-1.4.4-.3.9-.4 1.6-.4.8 0 1.4.2 1.7.6.3.4.4.9.4 1.7v2.6c0 .8.1 1.6.1 2.2zm-1.1-2.7v-.8h-.3c-1.5 0-2.2.5-2.2 1.5 0 .9.3 1.3 1 1.3.5 0 .9-.2 1.2-.7.2-.3.3-.7.3-1.3zm4 2.7h-1.1v-10h1.1v10zM3.4 30.2h1.5c1.2 0 1.6.4 1.6 1 0 .9-.8 1-1.4 1H3.4v-2zM.1 27.7v10.5h3.3v-3.7h1.7c1.3 0 1.4 1.1 1.5 2.1 0 .5.1 1.1.3 1.6h3.2c-.3-.5-.3-1.7-.4-2.3-.1-1.3-.7-2.3-1.6-2.6 1.1-.4 1.6-1.6 1.6-2.6 0-2-1.6-3-3.4-3H.1zm30.4 0v3.7h-3v-3.7h-3.2v10.5h3.2V34h3v4.2h3.2V27.7h-3.2zm9.7 2.7h1c2.3 0 2.6 1.8 2.6 2.5 0 1-.3 2.6-2.3 2.6h-1.3v-5.1zm-3.3-2.7v10.5h4.7c3.7 0 5.4-2.1 5.4-5.3 0-2.7-1.2-5.3-4.8-5.3l-5.3.1zm12.1 0v10.5h8.9v-2.7h-5.6v-1.3h5v-2.5h-5v-1.3h5.5v-2.7H49zm54.9 0v3.7h-3v-3.7h-3.2v10.5h3.2V34h3v4.2h3.2V27.7h-3.2zm16.6 0l-1.3 6.6-1.2-6.6h-2.9l-1.3 6.5-1.3-6.5h-3.2l2.9 10.5h3.2l1.1-6.4 1.1 6.4h3.2l3-10.5h-3.3zm9.1 3.5l1 3.3h-2l1-3.3zm-1.6-3.5l-3.9 10.5h3.3l.5-1.5h3.4l.4 1.5h3.4l-3.8-10.5H128zm12.2 2.5h1.5c1.2 0 1.6.4 1.6 1 0 .9-.8 1-1.4 1h-1.7v-2zm-3.2-2.5v10.5h3.2v-3.7h1.7c1.3 0 1.4 1.1 1.5 2.1 0 .5.1 1.1.3 1.6h3.3c-.3-.5-.3-1.7-.4-2.3-.1-1.3-.7-2.3-1.6-2.6 1.1-.4 1.6-1.6 1.6-2.6 0-2-1.6-3-3.4-3H137zm12.2 0v2.7h4.6l-4.9 5.3v2.5h9.4v-2.7h-5.2L158 30v-2.4h-8.8v.1zM14.8 33c0-2.3 1.3-2.9 2.1-2.9s2.1.5 2.1 2.9-1.3 2.9-2.1 2.9c-.9 0-2.1-.6-2.1-2.9m-3.3 0c0 3.2 2.1 5.5 5.3 5.5s5.3-2.3 5.3-5.5-2.1-5.5-5.3-5.5-5.3 2.3-5.3 5.5m62.8-2.1c0 2.1 1.9 2.6 3.6 3.1 1.8.5 2.3.7 2.3 1.2 0 .8-.8 1-1.3 1-.6 0-1.3-.1-1.5-.8-.1-.2-.1-.4-.1-.7H74c0 3.4 3.4 3.8 4.6 3.8 2.3 0 4.9-.9 4.9-3.6 0-1.9-1.5-2.6-3-3s-3-.6-3.1-1.3c0-.6.7-.7 1.2-.7.3 0 .7.1 1 .3s.4.4.4.8h3.1c-.1-2.6-2.1-3.4-4.4-3.4-2.3-.1-4.4.9-4.4 3.3M85 33c0 3.1 1.9 5.5 5.3 5.5 3.1 0 4.8-2.3 4.8-4.4h-3.2c-.2 1-.6 1.8-1.7 1.8-1.5 0-2-1.5-2-2.9s.5-2.9 2-2.9c1.3 0 1.6 1.2 1.7 1.5h3.2c-.3-2.6-1.9-4.2-4.8-4.2-3.2.1-5.3 2.3-5.3 5.6m-21 2.2c0-.5.6-.9 1-1.2l1.2 1.5c-.4.3-.8.6-1.3.6-.4.1-.9-.3-.9-.9m1.2-5.1c0-.5.4-.7.8-.7s.7.3.7.7c0 .5-.4.9-.9 1.1-.2-.3-.6-.7-.6-1.1m.6-2.7c-1.6 0-3.2 1.1-3.2 2.8 0 .7.3 1.4.8 1.9-1.2.6-2.4 1.6-2.4 3 0 2.1 1.6 3.5 3.6 3.5 1.2 0 2.1-.2 3-1l.6.7h3.5l-2.2-2.6c.7-.7 1.1-1.7 1.3-2.6h-2.5c0 .3-.2.6-.4.8l-.8-1c1-.5 2-1.5 2-2.8.1-1.9-1.3-2.7-3.3-2.7"/></svg>