<svg xmlns="http://www.w3.org/2000/svg" baseProfile="tiny" viewBox="0 0 263 68"><path fill="#b5b9bc" d="m229 0-34 34 34 34 34-34zm28.6 34-13.8 13.8a6 6 0 0 0 .5-2.3c0-2.6-1.8-4.9-5.3-5.6l-2.5-.5q-1.9-.4-1.8-1.8c0-1 1-2 2.5-2 2.2 0 2.9 1.4 3.1 2.2l3.6-1.5c-.6-2.1-2.4-4.4-6.6-4.4q-2.4 0-4.2 1.3a48 48 0 0 1 12.4-11.7zm-15.2-15.2c-.5.3-3.2 1.7-7.9 6.3a63 63 0 0 0-6.6 8.4l-2.3-4.7c1.9-1.1 2.7-3.2 2.7-5.2 0-3.3-2.3-5.8-6-5.8h-5.7L229 5.4zm-18.3 4.9q0 2-2.6 2.2h-2.4v-4.5h2.4q2.6.1 2.6 2.3M200.4 34l14.5-14.5v16.9h4.1v-6.9h2.5l3.7 7.7a43 43 0 0 1-11.4 10.2zm16.4 16.3c.4-.2 3.3-1.6 8-6.3q3.4-3.5 6.1-7.5l-.2 1.6c0 2.7 1.9 4.8 5 5.4l2.5.5q1.9.4 2 1.9-.1 1.8-2.6 1.9c-2.5 0-3.6-1.4-3.8-3.1l-3.7 1.5c.6 2.5 2.8 5.2 7.4 5.2q2 0 3.5-.8l-11.9 11.9zm-208 8.5H7.6v-9.2L5 58.8H3.7l-2.6-9.2v9.2H0v-10h1.9l2.4 8.8 2.4-8.8h1.9v10zm6.4 0h-1.1v-.9q-.7 1-1.9 1-1 0-1.4-.6t-.4-1.4q0-1.5 1.1-2 .7-.4 2.5-.4v-.3l-.1-1.2q-.2-.6-.9-.6-.5 0-.8.3t-.3.8v.1h-1.1v-.1q0-1 .7-1.4t1.6-.4q1.2 0 1.7.6t.4 1.7zM14 56.1v-.8h-.3q-2.2 0-2.2 1.5 0 1.3 1 1.3.8 0 1.2-.7.3-.4.3-1.3m4 2.7h-1.1v-10H18zm3.7 0h-1.3l-2.3-3.9 2.1-3.1h1.2l-2.1 3.1zm5.3-3.3h-3.7v.5l.2 1.5q.3.7 1.1.7 1.2 0 1.3-1.5H27q-.1 2.4-2.3 2.3-1.5 0-2-1-.4-.7-.4-2.4 0-1.8.3-2.7.6-1.2 2.1-1.3c1.5-.1 1.7.4 2 1.1q.3.7.3 2.4zm-1.1-.8-.1-1.4q-.2-.8-1.1-.8-1.2 0-1.3 1.4l-.1.9zm6.9-4.6h-1.2v-1.2h1.2zm-.1 8.7h-1.1v-7h1.1zm6.5 0h-1.1V58q-.6.9-1.6.9-1.4 0-1.8-1.2-.3-.8-.3-2.5c0-1.7.1-1.9.4-2.4q.5-1.1 1.8-1.1a2 2 0 0 1 1.6.8v-3.7h1.1v8.7q-.2.4-.1 1.3m-1.1-3.4-.2-2q-.3-.9-1.1-.9-1 0-1.1.9l-.2 1.9.2 2q.3.9 1 .9.9 0 1.2-.9zm7.4.1h-3.7v.5l.2 1.5q.3.7 1.1.7 1.2 0 1.3-1.5h1.1q-.1 2.4-2.3 2.3-1.4 0-2-1-.4-.7-.4-2.4 0-1.8.3-2.7.6-1.2 2.1-1.3c1.5-.1 1.7.4 2 1.1q.3.8.3 2.4zm-1.1-.8-.1-1.4q-.2-.9-1.1-.8-1.2 0-1.3 1.4l-.1.9zm7 4.1h-1.1v-.9q-.7 1-1.9 1-1 0-1.4-.6-.5-.7-.4-1.5 0-1.5 1.1-2 .7-.4 2.5-.4v-.3l-.1-1.2q-.2-.6-.9-.6-.5 0-.8.3t-.3.8v.1H47v-.1q0-1 .7-1.4t1.6-.4q1.2 0 1.7.6t.4 1.7zm-1.2-2.7v-.8h-.3q-2.2 0-2.2 1.5 0 1.3 1 1.3.8 0 1.2-.7.3-.4.3-1.3m6.8.8q0 2-2.2 2-2.1 0-2.1-2.3h1.1v.4q.1 1 1 1.1 1 0 1.1-1.1 0-.6-.3-.9l-.9-.6q-1-.5-1.2-.8-.6-.5-.5-1.3 0-1 .6-1.4.7-.5 1.5-.4 1 0 1.5.5t.5 1.6H56q0-1.3-1-1.3-.4 0-.7.3t-.2.7q0 .6.4.8l1 .6 1.2.8zm7.5-4.1h-.2q-.7 0-1.2.5t-.4 1.3v4.3h-1.1v-7h1.1v.9a2 2 0 0 1 1.8-1.1zm5.4 2.7h-3.7v.5l.2 1.5q.3.7 1.1.7 1.2 0 1.3-1.5h1.1q-.1 2.4-2.3 2.3-1.4 0-2-1-.4-.7-.4-2.4 0-1.8.3-2.7.6-1.2 2.1-1.3c1.5-.1 1.7.4 2 1.1q.3.8.3 2.4zm-1.1-.8-.1-1.4q-.2-.9-1.1-.8-1.2 0-1.3 1.4l-.1.9zm7 4.1h-1.1v-.9q-.7 1-1.9 1-1 0-1.4-.6-.5-.7-.4-1.5 0-1.5 1.1-2 .7-.4 2.5-.4v-.3l-.1-1.2q-.2-.6-.9-.6-.5 0-.8.3-.4.4-.4.9v.1h-1.1v-.1q0-1 .7-1.4t1.6-.4q1.2 0 1.7.6t.4 1.7v2.6zm-1.1-2.7v-.8h-.3q-2.2 0-2.2 1.5 0 1.3 1 1.3.8 0 1.2-.7.3-.4.3-1.3m4 2.7h-1.1v-10h1.1zM3.4 30.2h1.5q1.7 0 1.6 1c0 .9-.8 1-1.4 1H3.4zM.1 27.7v10.5h3.3v-3.7h1.7c1.3 0 1.4 1.1 1.5 2.1q0 .8.3 1.6h3.2c-.3-.5-.3-1.7-.4-2.3q-.2-2-1.6-2.6c1.1-.4 1.6-1.6 1.6-2.6 0-2-1.6-3-3.4-3zm30.4 0v3.7h-3v-3.7h-3.2v10.5h3.2V34h3v4.2h3.2V27.7zm9.7 2.7h1c2.3 0 2.6 1.8 2.6 2.5 0 1-.3 2.6-2.3 2.6h-1.3zm-3.3-2.7v10.5h4.7c3.7 0 5.4-2.1 5.4-5.3 0-2.7-1.2-5.3-4.8-5.3zm12.1 0v10.5h8.9v-2.7h-5.6v-1.3h5v-2.5h-5v-1.3h5.5v-2.7zm54.9 0v3.7h-3v-3.7h-3.2v10.5h3.2V34h3v4.2h3.2V27.7zm16.6 0-1.3 6.6-1.2-6.6h-2.9l-1.3 6.5-1.3-6.5h-3.2l2.9 10.5h3.2l1.1-6.4 1.1 6.4h3.2l3-10.5zm9.1 3.5 1 3.3h-2zm-1.6-3.5-3.9 10.5h3.3l.5-1.5h3.4l.4 1.5h3.4l-3.8-10.5zm12.2 2.5h1.5q1.7 0 1.6 1c0 .9-.8 1-1.4 1h-1.7zm-3.2-2.5v10.5h3.2v-3.7h1.7c1.3 0 1.4 1.1 1.5 2.1q0 .8.3 1.6h3.3c-.3-.5-.3-1.7-.4-2.3q-.2-2-1.6-2.6c1.1-.4 1.6-1.6 1.6-2.6 0-2-1.6-3-3.4-3zm12.2 0v2.7h4.6l-4.9 5.3v2.5h9.4v-2.7h-5.2L158 30v-2.4zM14.8 33c0-2.3 1.3-2.9 2.1-2.9s2.1.5 2.1 2.9-1.3 2.9-2.1 2.9-2.1-.6-2.1-2.9m-3.3 0c0 3.2 2.1 5.5 5.3 5.5s5.3-2.3 5.3-5.5-2.1-5.5-5.3-5.5-5.3 2.3-5.3 5.5m62.8-2.1c0 2.1 1.9 2.6 3.6 3.1q2.5.6 2.3 1.2c0 .8-.8 1-1.3 1q-1 .1-1.5-.8l-.1-.7H74c0 3.4 3.4 3.8 4.6 3.8 2.3 0 4.9-.9 4.9-3.6 0-1.9-1.5-2.6-3-3s-3-.6-3.1-1.3c0-.6.7-.7 1.2-.7q.5 0 1 .3t.4.8h3.1c-.1-2.6-2.1-3.4-4.4-3.4-2.3-.1-4.4.9-4.4 3.3M85 33c0 3.1 1.9 5.5 5.3 5.5 3.1 0 4.8-2.3 4.8-4.4h-3.2q-.2 1.6-1.7 1.8c-1.5 0-2-1.5-2-2.9s.5-2.9 2-2.9c1.3 0 1.6 1.2 1.7 1.5h3.2q-.5-4-4.8-4.2c-3.2.1-5.3 2.3-5.3 5.6m-21 2.2q.2-.7 1-1.2l1.2 1.5q-.6.5-1.3.6t-.9-.9m1.2-5.1q.1-.7.8-.7.9 0 .7.7 0 .8-.9 1.1-.4-.5-.6-1.1m.6-2.7c-1.6 0-3.2 1.1-3.2 2.8q0 1.1.8 1.9c-1.2.6-2.4 1.6-2.4 3 0 2.1 1.6 3.5 3.6 3.5q1.7.1 3-1l.6.7h3.5l-2.2-2.6q1-1.2 1.3-2.6h-2.5q0 .5-.4.8l-.8-1c1-.5 2-1.5 2-2.8.1-1.9-1.3-2.7-3.3-2.7"/></svg>