<svg xmlns="http://www.w3.org/2000/svg" viewBox="0 0 125.2 35.5"><defs><linearGradient id="a" x1="11.9" x2="36.4" y1="-.5" y2="24.3" gradientTransform="scale(1.0093477 .99073888)" gradientUnits="userSpaceOnUse"><stop offset="0%" stop-color="#00b388"/><stop offset="13.2%" stop-color="#00b097"/><stop offset="51.2%" stop-color="#00a9bf"/><stop offset="81.4%" stop-color="#00a5d7"/><stop offset="100%" stop-color="#00a3e0"/></linearGradient><linearGradient id="b" x1="-.4" x2="24.3" y1="11.8" y2="36.5" gradientTransform="scale(1.0032688 .99674183)" gradientUnits="userSpaceOnUse"><stop offset="0%" stop-color="#00b388"/><stop offset="13.2%" stop-color="#00b097"/><stop offset="51.2%" stop-color="#00a9bf"/><stop offset="81.4%" stop-color="#00a5d7"/><stop offset="100%" stop-color="#00a3e0"/></linearGradient><linearGradient id="c" x1="12" x2="36.6" y1="-.5" y2="24.2" gradientTransform="scale(1.0033337 .99667743)" gradientUnits="userSpaceOnUse"><stop offset="0%" stop-color="#00b388"/><stop offset="13.2%" stop-color="#00b097"/><stop offset="51.2%" stop-color="#00a9bf"/><stop offset="81.4%" stop-color="#00a5d7"/><stop offset="100%" stop-color="#00a3e0"/></linearGradient><linearGradient id="d" x1="-6.2" x2="23.2" y1="14" y2="34.7" gradientTransform="scale(.84131166 1.1886202)" gradientUnits="userSpaceOnUse"><stop offset="0%" stop-color="#00b388"/><stop offset="13.2%" stop-color="#00b097"/><stop offset="51.2%" stop-color="#00a9bf"/><stop offset="81.4%" stop-color="#00a5d7"/><stop offset="100%" stop-color="#00a3e0"/></linearGradient><linearGradient id="e" x1="1.9" x2="31.5" y1="8.2" y2="28.8" gradientTransform="scale(.83553511 1.1968378)" gradientUnits="userSpaceOnUse"><stop offset="0%" stop-color="#00b388"/><stop offset="13.2%" stop-color="#00b097"/><stop offset="51.2%" stop-color="#00a9bf"/><stop offset="81.4%" stop-color="#00a5d7"/><stop offset="100%" stop-color="#00a3e0"/></linearGradient><linearGradient id="f" x1="5.8" x2="30.5" y1="5.7" y2="30.3" gradientTransform="scale(1.0032776 .99673309)" gradientUnits="userSpaceOnUse"><stop offset="0%" stop-color="#00b388"/><stop offset="13.2%" stop-color="#00b097"/><stop offset="51.2%" stop-color="#00a9bf"/><stop offset="81.4%" stop-color="#00a5d7"/><stop offset="100%" stop-color="#00a3e0"/></linearGradient><linearGradient id="g" x1="14" x2="34.6" y1="-6.4" y2="23.2" gradientTransform="scale(1.2046448 .83012018)" gradientUnits="userSpaceOnUse"><stop offset="0%" stop-color="#00b388"/><stop offset="13.2%" stop-color="#00b097"/><stop offset="51.2%" stop-color="#00a9bf"/><stop offset="81.4%" stop-color="#00a5d7"/><stop offset="100%" stop-color="#00a3e0"/></linearGradient><linearGradient id="h" x1="20.1" x2="49.5" y1="-4.5" y2="16.2" gradientTransform="scale(.84145276 1.1884208)" gradientUnits="userSpaceOnUse"><stop offset="0%" stop-color="#00b388"/><stop offset="13.2%" stop-color="#00b097"/><stop offset="51.2%" stop-color="#00a9bf"/><stop offset="81.4%" stop-color="#00a5d7"/><stop offset="100%" stop-color="#00a3e0"/></linearGradient><linearGradient id="i" x1="1.3" x2="21.2" y1="12.3" y2="42.8" gradientTransform="scale(1.2433333 .80428956)" gradientUnits="userSpaceOnUse"><stop offset="0%" stop-color="#00b388"/><stop offset="13.2%" stop-color="#00b097"/><stop offset="51.2%" stop-color="#00a9bf"/><stop offset="81.4%" stop-color="#00a5d7"/><stop offset="100%" stop-color="#00a3e0"/></linearGradient><linearGradient id="j" x1="5.8" x2="30.5" y1="5.7" y2="30.3" gradientTransform="scale(1.0032776 .99673309)" gradientUnits="userSpaceOnUse"><stop offset="0%" stop-color="#00b388"/><stop offset="13.2%" stop-color="#00b097"/><stop offset="51.2%" stop-color="#00a9bf"/><stop offset="81.4%" stop-color="#00a5d7"/><stop offset="100%" stop-color="#00a3e0"/></linearGradient><linearGradient id="k" x1="11.9" x2="41.2" y1="1.2" y2="22" gradientTransform="scale(.84361364 1.1853767)" gradientUnits="userSpaceOnUse"><stop offset="0%" stop-color="#00b388"/><stop offset="13.2%" stop-color="#00b097"/><stop offset="51.2%" stop-color="#00a9bf"/><stop offset="81.4%" stop-color="#00a5d7"/><stop offset="100%" stop-color="#00a3e0"/></linearGradient><linearGradient id="l" x1="8.4" x2="29.1" y1="1.7" y2="31.1" gradientTransform="scale(1.1962541 .8359428)" gradientUnits="userSpaceOnUse"><stop offset="0%" stop-color="#00b388"/><stop offset="13.2%" stop-color="#00b097"/><stop offset="51.2%" stop-color="#00a9bf"/><stop offset="81.4%" stop-color="#00a5d7"/><stop offset="100%" stop-color="#00a3e0"/></linearGradient><linearGradient id="m" x1="-3.4" x2="21.3" y1="14.9" y2="39.5" gradientTransform="scale(1.0032776 .99673309)" gradientUnits="userSpaceOnUse"><stop offset="0%" stop-color="#00b388"/><stop offset="13.2%" stop-color="#00b097"/><stop offset="51.2%" stop-color="#00a9bf"/><stop offset="81.4%" stop-color="#00a5d7"/><stop offset="100%" stop-color="#00a3e0"/></linearGradient><linearGradient id="n" x1="-4.4" x2="16.5" y1="19.7" y2="48.8" gradientTransform="scale(1.1849605 .84390997)" gradientUnits="userSpaceOnUse"><stop offset="0%" stop-color="#00b388"/><stop offset="13.2%" stop-color="#00b097"/><stop offset="51.2%" stop-color="#00a9bf"/><stop offset="81.4%" stop-color="#00a5d7"/><stop offset="100%" stop-color="#00a3e0"/></linearGradient><linearGradient id="o" x1="15" x2="39.6" y1="-3.5" y2="21.1" gradientTransform="scale(1.0032776 .99673309)" gradientUnits="userSpaceOnUse"><stop offset="0%" stop-color="#00b388"/><stop offset="13.2%" stop-color="#00b097"/><stop offset="51.2%" stop-color="#00a9bf"/><stop offset="81.4%" stop-color="#00a5d7"/><stop offset="100%" stop-color="#00a3e0"/></linearGradient><linearGradient id="p" x1="-.4" x2="24.2" y1="11.9" y2="36.7" gradientTransform="scale(1.0093923 .99069505)" gradientUnits="userSpaceOnUse"><stop offset="0%" stop-color="#00b388"/><stop offset="13.2%" stop-color="#00b097"/><stop offset="51.2%" stop-color="#00a9bf"/><stop offset="81.4%" stop-color="#00a5d7"/><stop offset="100%" stop-color="#00a3e0"/></linearGradient></defs><g fill="none"><path fill="url(#a)" d="M18.7 11.1q-.5.5-1 0l-5-5a1 1 0 0 1 0-1l5-4.9q.5-.4 1 0l5 5q.4.5 0 1.1z" transform="translate(0 -.2)"/><path fill="url(#b)" d="M18.7 35.7q-.5.3-1 0l-5-5a1 1 0 0 1 0-1.1l5-5q.5-.5 1 0l5 5q.4.5 0 1z" transform="translate(0 -.2)"/><path fill="url(#c)" d="M31.1 23.3q-.5.5-1 0l-5-5a1 1 0 0 1 0-1l5-5q.5-.5 1 0l5 5q.4.5 0 1z" transform="translate(0 -.2)"/><path fill="url(#d)" d="M12 31q-.1-.6-.6-.2L9.3 33q-.5.5.1 1l2 .8q.7.3.7-.4z" transform="translate(0 -.2)"/><path fill="url(#e)" d="M27 34q.6-.3.1-1L25 30.8q-.5-.4-.6.3v3.3q0 .7.7.4z" transform="translate(0 -.2)"/><path fill="url(#f)" d="M30.5 24.9q-.1-.8-.9-.9h-4.4q-.8 0-.9.9v4.4q0 .7.9.8h4.4q.8-.1.9-.8z" transform="translate(0 -.2)"/><path fill="url(#g)" d="M34.4 9.2q-.4-.6-1-.1L31 11.3q-.2.5.3.5h3.4q.7 0 .4-.7z" transform="translate(0 -.2)"/><path fill="url(#h)" d="M27.1 2.8q.5-.7-.1-1L25 1q-.6-.2-.7.5v3.3q0 .6.6.3z" transform="translate(0 -.2)"/><path fill="url(#i)" d="M3 9q-.6-.3-1 .2L1 11q0 .6.6.7h3.3q.7 0 .3-.6z" transform="translate(0 -.2)"/><path fill="url(#j)" d="M12 6.6q-.1-.7-1-.9H6.9q-.8.2-.9.9V11q0 .7.9.8h4.4q.8-.1.9-.8z" transform="translate(0 -.2)"/><path fill="url(#k)" d="M12 1.5q-.1-.8-.8-.5L9.4 2q-.7.2-.1 1l2.2 2q.5.2.6-.3z" transform="translate(0 -.2)"/><path fill="url(#l)" d="M35.2 24.9q.2-.7-.4-.7h-3.4q-.6 0-.3.5l2.3 2.2q.5.5 1-.1z" transform="translate(0 -.2)"/><path fill="url(#m)" d="M12 24.9q-.1-.8-1-.9H6.9q-.8 0-.9.9v4.4q0 .7.9.8h4.4q.8-.1.9-.8z" transform="translate(0 -.2)"/><path fill="url(#n)" d="M5 24.6q.5-.5-.2-.6H1.6q-.7 0-.4.7l.8 2q.4.6 1 0z" transform="translate(0 -.2)"/><path fill="url(#o)" d="M30.5 11q-.1.7-.9.8h-4.4q-.8-.1-.9-.8V6.6q0-.7.9-.9h4.4q.8.2.9.9z" transform="translate(0 -.2)"/><path fill="url(#p)" d="M6.3 23.3q-.5.5-1 0l-5-5a1 1 0 0 1 0-1l5-5q.5-.3 1 0l5 5q.5.8 0 1.2z" transform="translate(0 -.2)"/><path fill="#4a4a4a" d="M100.1 11.4c-1.4 0-2 .4-3.5 1.9v-.7c0-.8 0-1-1-1H95q-1.2-.1-1 1v13.2q-.2 1.1 1 1h.7q1.1.1 1-1v-7.1q-.1-2.7.5-3.6a3 3 0 0 1 3-1.4l.6.2h.3l.3-.2.4-.7.3-.4.3-.5q-.5-.6-2.3-.7m-46.2 0c-1.4 0-2.1.4-3.5 1.9v-.7q.1-1.1-1-1h-.7q-1.1-.1-1 1v13.2q-.1 1.1 1 1h.7q1.1.1 1-1v-7.1q0-2.7.5-3.6a3 3 0 0 1 3-1.4l.7.2h.2l.3-.2q.3-.2.4-.7l.3-.4.3-.5q-.4-.6-2.2-.7m7.5 9.1q0 2 .4 2.8 1 1.5 3 1.5 1.9 0 2.9-1.5.4-.9.4-2.8v-7.9q-.2-1.1 1-1h.7q1.1-.1 1 1v8.2c0 2.2-.5 3.4-1.5 4.5a6 6 0 0 1-4.6 2q-2.9 0-4.6-2-1.4-1.3-1.4-4.5v-8.2q-.1-1.1 1-1h.7q1.2-.1 1 1zm16.3-6.6c1.5-1.7 3-2.5 5.3-2.5 4.2 0 7.2 3.3 7.2 7.9 0 4.5-3 8-7.3 8q-3.1 0-5.3-2.5v1.1q.1 1.1-1 1h-.7q-1.2.1-1-1V1.3q-.2-1.2 1-1h.7q1.1-.2 1 1v12.6zm-.3 5.4c0 3.3 2.1 5.6 5 5.6 3 0 5-2.3 5-5.6 0-3-2-5.4-5-5.4-2.9-.2-5 2-5 5.4M108.8 6c0 1-.9 1.8-1.8 1.8q-1.7-.2-1.9-2c0-1 .9-1.8 1.9-1.8q1.7.4 1.8 2m-.7 19.9q.1 1.1-1 1h-.7q-1.1.1-1-1V12.7q-.1-1.1 1-1h.7q1.1-.1 1 1zm12.5-13.7c.4-.4.4-.4 1.1-.4h1.1q1 0 1 .5 0 .3-.4.7l-5.3 5.3 6.7 7.5q.4.4.4.7 0 .5-1 .5h-1c-.8 0-.8 0-1.2-.4l-5.7-6.4-.7.3v5.3q.2 1.1-1 1h-.7q-1.1.1-1-1V1.3q-.1-1.2 1-1h.7q1.2-.2 1 1v16z"/></g></svg>