<?xml version="1.0" encoding="UTF-8"?>
<svg id="gray_bkgrd" data-name="gray bkgrd" xmlns="http://www.w3.org/2000/svg" viewBox="0 0 219.69 108.38">
  <defs>
    <style>
      .cls-1 {
        fill: #231f20;
      }

      .cls-2 {
        fill: #f47920;
      }
    </style>
  </defs>
  <line class="cls-1" x1="72.75" y1="37.22" x2="72.73" y2="37.23"/>
  <g>
    <path class="cls-1" d="M82.14,37.07l-1.24-1.58-6.75,2.88-2.84-1.93-4.55.98-4.99,2.23-1.29,2.88,2.4,2.83,1.83.54,4.85-5.04-4.29,7-3.3-1.07-.76-1.11-5.54,6.86-17.24,4.54c-.6,0-1.49.02-1.49.02-15.97-6.84-6.79-16.01-6.7-16.12-.11.06-13.1,6.62,1.58,18.71l-2.75,3.12-1.95,8.82-4.94,3.92-5.41,11.75h5.13s.84-1.98.84-1.98l-1.99-.49,3.24-5.64c1.69-.9,7.72-3.33,8.91-4.15l8.02-10.09,8.98,2.83,1.26-5.58.44.93.69,7.96-3.8,17.01h5.37v-1.73l-2.01-.85,6.53-14.66s9.93-6.33,9.92-6.39c-.03-.16,4.82-15.09,4.82-15.09l6-.51,1.76-2.41-7.11.02,8.25-6.08.08-3.32Z"/>
    <g>
      <polygon class="cls-1" points="60.07 71.78 66.6 67.64 59.54 84.1 61.55 84.87 61.55 86.53 56.82 86.53 60.07 71.78"/>
      <path class="cls-1" d="M43.59,75.49l-7.47,3.79-2.75,4.86,2.09.58-.84,1.79h-4.6s3.58-9.52,3.58-9.52c.35-.21,4.13-3.6,4.13-3.6l.32-2.14,3.5-4.39,5.19,1.65-3.14,6.98Z"/>
      <polygon class="cls-2" points="71.87 56.11 56.9 50.48 58.39 48.61 72.51 53.68 71.87 56.11"/>
    </g>
  </g>
  <g>
    <polygon class="cls-2" points="87.12 36.89 87.12 46.47 91.7 46.47 91.7 33.59 87.12 36.89"/>
    <polygon class="cls-2" points="96.94 29.83 96.94 46.47 101.52 46.47 101.52 26.53 96.94 29.83"/>
    <polygon class="cls-2" points="107 22.59 107 46.47 111.58 46.47 111.58 19.29 107 22.59"/>
  </g>
  <g>
    <path class="cls-2" d="M94.63,88.99h-2.82l-2.91-5.61h-.05c.02.17.03.38.05.62.01.24.03.48.04.73.01.25.02.47.02.67v3.59h-1.91v-7.97h2.81l2.9,5.54h.03c-.01-.17-.02-.38-.03-.61s-.02-.46-.03-.7c0-.24-.01-.45-.01-.63v-3.6h1.92v7.97Z"/>
    <path class="cls-2" d="M103.03,88.99h-4.73v-7.97h4.73v1.73h-2.58v1.25h2.39v1.73h-2.39v1.5h2.58v1.76Z"/>
    <path class="cls-2" d="M110,88.99h-2.15v-6.21h-1.95v-1.76h6.04v1.76h-1.94v6.21Z"/>
    <path class="cls-2" d="M125.86,81.02l-1.96,7.97h-2.55l-.76-3.47c-.01-.07-.04-.18-.07-.33s-.07-.33-.1-.53-.07-.4-.1-.59c-.03-.19-.05-.36-.07-.49-.01.13-.04.3-.07.49-.03.19-.07.39-.11.59s-.07.38-.11.53c-.03.16-.06.27-.07.33l-.77,3.47h-2.55l-1.97-7.97h2.08l.87,4c.02.1.05.24.09.42.04.18.08.38.12.59s.08.42.12.61c.04.2.06.36.08.49.03-.23.07-.48.12-.77.05-.29.1-.58.16-.88.06-.3.12-.57.17-.83.05-.25.1-.46.14-.62l.7-3.01h2l.68,3.01c.04.16.08.36.14.62s.11.53.17.83.12.59.17.88c.05.29.09.54.11.76.02-.18.06-.41.11-.69.05-.28.1-.55.16-.81.05-.26.09-.46.12-.6l.88-4.01h2.08Z"/>
    <path class="cls-2" d="M136.11,84.99c0,.61-.07,1.17-.22,1.68-.15.5-.38.94-.69,1.3-.31.36-.71.64-1.2.84-.49.19-1.08.29-1.76.29s-1.25-.1-1.74-.29c-.49-.19-.89-.47-1.21-.83-.32-.36-.55-.79-.7-1.3-.15-.5-.23-1.07-.23-1.69,0-.83.14-1.55.41-2.16s.7-1.09,1.27-1.42,1.31-.5,2.2-.5,1.65.17,2.22.51c.57.34.99.81,1.25,1.43.27.61.4,1.34.4,2.16ZM130.63,84.99c0,.48.05.89.16,1.24.11.35.28.61.52.8.24.19.55.28.93.28s.71-.09.95-.28c.23-.19.4-.45.51-.8.1-.34.16-.76.16-1.24,0-.72-.12-1.29-.36-1.71-.24-.42-.65-.63-1.24-.63-.39,0-.7.09-.94.28-.24.19-.41.46-.52.81-.11.35-.16.76-.16,1.24Z"/>
    <path class="cls-2" d="M142.1,81.02c.72,0,1.32.09,1.8.26.48.18.84.44,1.08.79.24.35.36.78.36,1.3,0,.32-.05.62-.16.88-.11.27-.26.5-.47.71-.2.21-.44.39-.72.55l2.32,3.47h-2.44l-1.69-2.9h-.54v2.9h-2.15v-7.97h2.61ZM142.06,82.65h-.43v1.82h.4c.33,0,.6-.07.81-.22.21-.15.32-.4.32-.78,0-.26-.09-.46-.26-.61-.17-.15-.46-.22-.84-.22Z"/>
    <path class="cls-2" d="M155.94,88.99h-2.43l-1.58-3.05-.64.38v2.67h-2.16v-7.97h2.16v3.46c.09-.17.2-.35.31-.52s.23-.34.35-.5l1.67-2.44h2.35l-2.51,3.57,2.47,4.4Z"/>
    <path class="cls-2" d="M164.17,86.57c0,.43-.11.84-.33,1.23s-.56.7-1.02.94c-.46.24-1.05.36-1.78.36-.36,0-.68-.02-.96-.05-.27-.03-.53-.09-.77-.16s-.48-.17-.74-.29v-1.92c.43.22.87.38,1.31.5.44.11.84.17,1.19.17.21,0,.39-.03.53-.08.14-.05.24-.12.3-.21.07-.09.1-.19.1-.31,0-.14-.05-.26-.14-.35s-.25-.2-.46-.3c-.21-.11-.49-.24-.83-.39-.29-.14-.56-.28-.8-.43-.24-.15-.44-.31-.61-.5s-.3-.41-.39-.66c-.09-.25-.14-.55-.14-.89,0-.51.13-.94.38-1.29.25-.35.61-.61,1.06-.78.45-.17.97-.26,1.57-.26.52,0,.99.06,1.4.17.42.12.79.25,1.12.4l-.66,1.66c-.34-.16-.68-.28-1.01-.37-.33-.09-.64-.14-.92-.14-.19,0-.34.02-.46.07-.12.05-.21.11-.26.18-.06.08-.08.16-.08.26,0,.12.05.23.14.33.1.1.26.2.49.32.23.11.54.26.93.44.39.17.72.36.99.56.27.2.48.44.62.72.14.28.22.63.22,1.04Z"/>
  </g>
  <g>
    <g>
      <g>
        <path class="cls-1" d="M123.74,65.66c0,5.93-2.83,8.9-8.5,8.9s-8.25-2.9-8.25-8.69v-11.4h4.58v11.46c0,3.19,1.28,4.79,3.84,4.79s3.77-1.54,3.77-4.63v-11.62h4.56v11.2Z"/>
        <path class="cls-1" d="M141.87,73.51c-1.48.7-3.41,1.05-5.79,1.05-3.11,0-5.55-.89-7.33-2.67-1.78-1.78-2.67-4.15-2.67-7.12,0-3.16,1-5.72,3-7.68,2-1.96,4.6-2.95,7.79-2.95,1.98,0,3.64.24,5,.73v4.28c-1.36-.79-2.9-1.18-4.63-1.18-1.9,0-3.44.58-4.6,1.75-1.17,1.17-1.75,2.75-1.75,4.74s.55,3.43,1.65,4.56c1.1,1.13,2.58,1.7,4.45,1.7s3.41-.42,4.89-1.27v4.06Z"/>
        <path class="cls-1" d="M181.53,65.66c0,5.93-2.83,8.9-8.5,8.9s-8.25-2.9-8.25-8.69v-11.4h4.58v11.46c0,3.19,1.28,4.79,3.84,4.79s3.77-1.54,3.77-4.63v-11.62h4.56v11.2Z"/>
        <path class="cls-1" d="M184.1,73.46v-4.41c.82.67,1.71,1.17,2.67,1.51.96.34,1.93.5,2.91.5.57,0,1.08-.05,1.5-.15.43-.1.79-.24,1.07-.42.29-.18.5-.39.64-.63.14-.24.21-.51.21-.79,0-.39-.11-.73-.34-1.03s-.53-.58-.93-.84c-.39-.26-.85-.5-1.39-.74-.54-.24-1.12-.48-1.74-.73-1.58-.64-2.76-1.43-3.54-2.35-.78-.93-1.17-2.05-1.17-3.36,0-1.03.21-1.91.64-2.65.42-.74,1-1.35,1.73-1.82.73-.48,1.57-.83,2.54-1.05.96-.22,1.98-.34,3.05-.34s1.99.06,2.8.19c.81.12,1.57.31,2.25.57v4.12c-.34-.23-.71-.43-1.11-.61-.4-.17-.81-.32-1.24-.43-.42-.11-.85-.2-1.26-.25-.42-.06-.82-.08-1.19-.08-.52,0-.99.05-1.41.14-.42.1-.78.23-1.07.41-.29.17-.52.38-.68.63-.16.24-.24.52-.24.82,0,.33.09.63.27.89.18.26.43.51.76.74.33.23.73.46,1.2.69.47.22,1,.46,1.6.7.81.33,1.54.68,2.18,1.05.64.37,1.2.79,1.66,1.26.46.47.81,1,1.06,1.6.24.6.37,1.3.37,2.1,0,1.1-.21,2.03-.64,2.77-.43.75-1.01,1.35-1.74,1.82-.73.46-1.59.8-2.56,1s-2,.3-3.09.3-2.17-.09-3.17-.28c-1-.18-1.87-.46-2.61-.83Z"/>
        <path class="cls-1" d="M149.62,74.21h-4.56v-19.75h4.56v19.75Z"/>
      </g>
      <polygon class="cls-1" points="151.42 65.64 158.48 74.21 164.24 74.21 155.41 63.89 162.47 54.47 157.04 54.47 151.44 62.7 151.42 65.64"/>
      <path class="cls-1" d="M100.41,66.53c.55-.26,1.06-.58,1.52-.96,1.46-1.23,2.2-2.83,2.2-4.81,0-4.2-2.55-6.29-7.65-6.29h-9.42v19.75h4.56v-16.33h4.07c2.43,0,3.64,1.01,3.64,3.04s-1.21,3.11-3.64,3.11v.02s-2.58,0-2.58,0l8.11,10.16h5.76l-6.56-7.68Z"/>
    </g>
    <path class="cls-1" d="M202.91,55.69c0,1.14-.92,2.04-2.12,2.04s-2.13-.9-2.13-2.04.94-2.02,2.13-2.02,2.12.9,2.12,2.02ZM199.19,55.69c0,.9.68,1.61,1.61,1.61s1.57-.71,1.57-1.6-.67-1.62-1.59-1.62-1.6.73-1.6,1.61ZM200.47,56.75h-.48v-2.02c.19-.04.45-.06.79-.06.39,0,.57.06.72.15.11.09.2.25.2.44,0,.22-.18.39-.43.47v.02c.2.07.31.22.38.49.06.31.1.43.15.5h-.52c-.06-.07-.1-.26-.16-.49-.04-.22-.16-.32-.43-.32h-.23v.81ZM200.48,55.61h.23c.26,0,.48-.09.48-.29,0-.18-.14-.31-.44-.31-.13,0-.21.01-.26.02v.58Z"/>
  </g>
</svg>