<svg xmlns="http://www.w3.org/2000/svg" viewBox="673 109 1958 576"><path d="M1520 311v113c0 51 23 65 52 65 32 0 55-21 55-66V311h39v208h-36v-22h-1c-10 18-35 28-61 28q-37-1-60-21c-17-15-27-38-27-80V311zm361 69c-6-13-21-39-59-39-50 0-68 42-68 74 0 36 23 74 68 74 29 0 49-17 59-38h43c-15 46-56 74-102 74-69 0-107-56-107-110 0-57 41-110 107-110 59 0 95 44 102 75zm445 43c0 45-23 66-55 66-29 0-52-14-52-65V311h-39v113c0 42 10 65 28 80q23 20 59 21c26 0 51-10 61-28h1v22h36V311h-39zm-252-14 76-98h-49l-71 101 83 108h49m-193-279h39v279h-39zm-686 91h48c46 0 62 22 62 40 0 42-60 43-77 43h-21l74 84 20 20h59l-81-80c18 0 66-9 66-66q0-30-25-52c-15-10-35-18-74-18h-92v217h41zm1248 33q-6-25-33-25c-17 0-30 9-30 23 0 19 19 23 39 29 19 4 74 18 74 66 0 36-30 66-82 66-31 0-85-17-86-72h44q4 36 43 38c22 0 37-12 37-30 0-19-20-26-44-33-26-8-69-18-69-62 0-30 31-59 77-59 33 0 74 20 74 59zm77-87c12 0 22 9 22 21s-10 21-22 21-21-9-21-21 10-21 21-21m0 39q16-2 18-18-1-16-18-18c-17-2-17 8-17 18q2 17 17 18m-7-30h9q8 0 8 7-1 6-6 6l7 11h-4l-7-10h-4v10h-4zm3 11h4q7 0 7-4-1-5-6-4h-5zM1425 633q5 9 15 9 15-1 16-14c0-19-36-8-36-34 0-12 11-18 22-18q12 0 19 8l-6 4q-4-6-13-6-13 0-15 13c0 20 35 8 35 33 0 13-10 19-21 19q-14 2-22-10zm57-54q5 1 5 4 0 5-5 5-6 0-4-5 2-6 4-4m-2 22h5v45h-5zm26 13-1-13h6v8h1q4-8 15-9 10 0 13 10 5-10 15-10c14 0 17 9 17 19v27h-6v-27q1-12-11-14c-10 0-13 9-13 16v25h-6v-27q0-13-9-14-15 0-16 18v23h-6zm84-13h6v8q7-9 18-9 23 2 24 23c1 21-10 24-24 24q-10 0-18-9v29h-6zm24 41c11 0 18-9 18-19s-7-18-18-18q-16 2-18 18c-2 16 8 19 18 19m41-69h6v73h-6zm39 86q-3 10-12 10l-6-1 1-6 5 2q6-1 7-8l4-10-18-45h7l14 38 15-38h6zm66-82h20c10 0 22 3 22 18q0 11-12 15 14 1 15 17c0 15-14 19-23 19h-22zm7 30h13c13 0 16-7 16-12q-1-13-15-12h-14zm0 33h14c15 0 18-8 18-13 0-10-9-14-17-14h-15zm96-3q-8 10-20 10-21-1-22-24 1-21 22-23c14 0 21 10 21 21v4h-37c0 5 3 17 16 17q10-1 15-8zm-5-17q-1-13-15-15c-13 0-16 12-16 15zm45-14h-13v29q0 6 6 7l7-2v5l-7 2q-13-1-12-12v-29h-9v-5h9v-13h6v13h13zm35 0h-12v29q0 6 6 7l7-2v5l-7 2q-13-1-12-12v-29h-10v-5h10v-13h6v13h13zm54 31q-7 10-19 10-22-1-23-24 1-21 22-23c14 0 21 10 21 21v4h-37c0 5 3 17 17 17q10-1 15-8zm-4-17q-1-13-16-15c-12 0-16 12-16 15zm22-6v-13h5l1 8q4-8 14-9h3v6h-2q-15 2-15 15v25h-6zm58-37h6l17 61h1l17-61h8l17 61 17-61h7l-20 69h-8l-17-61-17 61h-8zm108 2q4 1 4 4 0 5-4 5-5 0-4-5 1-6 4-4m-3 22h6v45h-6zm26 13v-13h5l1 8q4-8 14-9h3v6h-2q-15 2-15 15v25h-6zm74 23q-8 10-20 10-21-1-22-24 1-21 22-23c14 0 21 10 21 21v4h-37c0 5 3 17 17 17q9-1 14-8zm-5-17q-2-13-15-15c-13 0-16 12-16 15zm24-47h6v73h-6zm65 64q-6 10-19 10-22-1-23-24 2-21 23-23c13 0 20 10 20 21v4h-37c0 5 3 17 17 17q10-1 15-8zm-4-17q-1-13-16-15c-12 0-16 12-16 15zm22 14q5 8 13 8 9-1 10-9c0-12-26-3-26-20 0-9 8-13 15-13q11 0 16 8l-5 3q-3-6-11-6-7 1-9 7c0 12 26 3 26 21q-1 14-16 14-12 0-18-9zm45 0q5 8 13 8 9-1 10-9c0-12-26-3-26-20 0-9 8-13 15-13q11 0 16 8l-5 3q-4-6-11-6-8 1-9 7c0 12 26 3 26 21q-1 14-16 14-12 0-18-9zm50 3q5 0 5 5 0 6-5 4-6-2-5-4 0-5 5-5M979 356s-3-16 4-23 20 0 20 0l35 21s28 16 35 17q11 1 15-8c3-5-2-11-3-13l-8-10-31-33s-16-15-17-24c0-6 22-19 22-19l44-24c22-13 8-30 1-31s-35 5-35 5-30 6-53 8-31-16-31-16l-15-28q-5-13-15-7c-6 2 4 24 4 24l9 18q6 9-2 14c-8 5-9-8-9-8l-16-29-7-10c-9-12-31 13-31 17 0 13 17 0 21 9l10 21c2 4 11 28-6 35s-88 39-180 39c-31 0-47-4-47-4s-31-9-13 17c0 0 13 16 17 29 7 21 3 52-2 64s-16 24-16 24a3051 3051 0 0 0 6 212s1 15 18 25c13 8 14-2 14-9s-8-17-13-22-4-15-4-15l16-174s4-18 15-4c9 11-3 23-3 23l7 144q-2 29 0 39 5 15 24 20c11 4 10-6 10-6s-2-16-11-20c-6-2-5-31-5-31l3-101s-2-79 34-89c30-9 91 5 91 5s44 6 53 41c10 38 23 154 23 154s12 59 49 48l2-1s10-4-6-15-21-10-28-46-11-140-11-148l-2-23s2-10 8-3c6 8 14 48 14 48l17 99c2 8 6 42 27 59 17 13 41 4 41 4s7-14-12-16c-17-2-27-8-33-27s-44-246-44-246"/><path fill="#ee9601" stroke="#ee9601" stroke-miterlimit="3.9" stroke-width=".9" d="M1067 611c-4-7-29-56-27-97l2-21c6-37 3-43-33-110l6-11c36 67 39 73 33 110l-2 21c-2 42 24 92 27 98 22 41 62 72 94 72q21 0 32-15-9 26-37 27c-33 0-73-32-95-74z"/><path fill="#ee9601" d="M1104 630c22-10 41-12 65-6 27 7 38 22 29 37 4-11-10-24-37-30-24-6-39-7-57-1m-99-265s-84-63-95-98c-2-6-27 7-27 7s62 67 108 94q7 3 10 1z"/><path fill="none" stroke="#000" stroke-miterlimit="3.9" stroke-width="6.1" d="M991 372a12 12 0 1 1 24 0 12 12 0 0 1-24 0z"/><path fill="#ee9601" d="m1179 109 15 6-8 19-44 77 29-84zm47 29 13 10-14 15-67 59 55-70zm39 42 8 14-17 10-83 34 74-49z"/></svg>