<svg xmlns="http://www.w3.org/2000/svg" viewBox="673 108.9 1958 576.1"><path d="M1520.1 310.8v113c0 51.6 23 65.2 51.9 65.2 32.4 0 54.6-20.7 54.6-66.3V310.8h39.1v208.7h-35.8v-22.6h-.7c-10.5 18.1-35 27.9-61.4 27.9-23.7 0-44.4-7.5-59.5-20.7-17.3-15.1-27.5-38.4-27.5-80.2v-113l39.3-.1zm361 69.3c-6.4-13.2-21.5-39.2-58.7-39.2-50.4 0-68.5 42.2-68.5 73.8 0 36.2 23 74.2 67.8 74.2 29.4 0 49.3-16.9 59.1-38.4h43.7c-15.8 46.3-56.5 74.2-102.8 74.2-68.5 0-106.9-56.1-106.9-110 0-56.5 41.4-109.6 107.3-109.6 59.1 0 94.5 44.1 102.4 75h-43.4zm444.6 42.6c0 45.6-22.2 66.3-54.6 66.3-29 0-51.9-13.6-51.9-65.2v-113h-39.1v113c0 41.8 10.2 65.2 27.5 80.2 15.1 13.2 35.8 20.7 59.5 20.7 26.3 0 50.8-9.8 61.3-27.9h.8v22.6h35.8V310.8h-39.2v111.9h-.1zm-251.3-13.6l75.6-98.3h-48.6l-71.2 101.3 82.9 107.4h49m-192.9-278.6h39.1v278.6h-39.1zm-686.5 91.3h48.4c45.9 0 61.7 22.2 61.7 40.3 0 41.8-60.2 42.4-76.8 42.4h-21.4l74.3 83.7 19.9 20.8h59.1l-80.9-80.5c18.1 0 66.4-9.1 66.4-66.3 0-18.1-7.9-38-25.6-51.1-14.7-10.8-35-18.1-74.1-18.1H1242v216.2h40.6l.1-187.4zM2531.1 365c-3.3-17.2-15.8-25.4-32.7-25.4-17.8 0-30.4 9.5-30.4 23.5 0 18.4 18.9 23.1 39.3 28.4 19.1 4.9 73.3 18 73.3 66.8 0 35.8-29.8 65.2-81.3 65.2-31.1 0-85.4-17-85.8-71.3l43.8-.1c1.8 23.4 17.2 38 43 38 22.1 0 36.8-12 36.8-29.7 0-19.3-19.8-26.3-43.8-33.5-26.7-8.3-68.8-18.2-68.8-61.6 0-30.5 30.6-59.2 76.3-59.2 32.8 0 74.1 19.8 74.1 58.6l-43.8.3zm77.4-87.2c11.5 0 21.2 9.1 21.2 21 0 12.1-9.7 21.2-21.2 21.2s-21.2-9.1-21.2-21c0-12.2 9.6-21.2 21.2-21.2zm0 39.1c9.9 0 17.8-7.8 17.8-18.1 0-10.1-7.9-17.9-17.8-17.9s-17.8 7.8-17.8 18.1c0 10.1 7.9 17.9 17.8 17.9zm-7.9-30.1h9c5.8 0 8.6 2.2 8.6 7 0 4.4-2.8 6.2-6.5 6.6l7 10.8h-3.7l-6.7-10.5h-4.4v10.5h-3.4l.1-24.4zm3.4 10.9h4.2c3.4 0 6.6-.2 6.6-4 0-3.4-2.9-3.8-5.5-3.8h-5.3v7.8zM1424.7 633c3.4 5.7 8.9 8.6 15.6 8.6 8.6 0 15.3-5.2 15.3-13.4 0-19.1-35.2-7.9-35.2-33.8 0-12.2 10.4-18.7 21.9-18.7 7.4 0 14 2.5 18.6 8.6l-5.5 4c-3.2-4.4-7.4-6.7-13.3-6.7-8.2 0-15.3 4.2-15.3 12.9 0 20.5 35.2 8.2 35.2 33.8 0 12.3-10.1 19.2-21.2 19.2-9 0-16.9-2.9-22.2-10.3l6.1-4.2zm57.8-53.9c2.4 0 4.3 1.9 4.3 4.3s-1.9 4.3-4.3 4.3-4.3-1.9-4.3-4.3 1.9-4.3 4.3-4.3zm-2.9 22h5.8v44.6h-5.8v-44.6zm26 12.5c0-3.3-.5-10.2-.5-12.5h5.8c.1 3.3.2 7 .4 7.8h.3c2.3-4.9 8-9 15.2-9 5.9 0 11.3 2.9 13.4 9.7 2.8-6.7 9-9.7 15.1-9.7 13.9 0 17 9.5 17 19.2v26.5h-5.8v-26.2c0-7.2-2-14.3-11.2-14.3-10.7 0-13.5 9.1-13.5 15.4v25.1h-5.8v-26.8c0-8.2-3-13.7-9.3-13.7-8.6 0-15.4 6-15.4 18.2v22.3h-5.8v-32h.1zm84.8-12.5h5.8v7.8h.2c3.6-6.2 11.2-9 17.8-9 13.7 0 23.4 9.8 23.4 23.4s-9.7 23.4-23.4 23.4c-6.6 0-14.3-2.8-17.8-9h-.2v29.8h-5.8v-66.4zm23.8 40.5c10.9 0 17.6-8.2 17.6-18.2s-6.7-18.2-17.6-18.2c-10.5 0-18.6 8.2-18.6 18.2s8.1 18.2 18.6 18.2zm41.1-68.9h5.8v72.9h-5.8v-72.9zm38.6 86.7c-2.2 5.7-5.9 9.3-12.2 9.3-1.9 0-3.9-.4-5.7-.9l.6-5.4c1.6.5 3.5 1.1 5.2 1.1 4.2 0 6.1-4 7.4-7.4l4-10.3-18.1-44.8h6.5l14.7 37.5 14.4-37.5h6.2l-23 58.4zm66.5-82.1h19.7c10.4 0 22 2.6 22 18 0 6.9-4.1 12.5-12.2 14.2v.2c9 .7 15.2 7.2 15.2 16.8 0 15.7-13.6 19.1-22.8 19.1h-21.8l-.1-68.3zm6.4 29.5h13.2c13.2 0 15.7-7.2 15.7-11.5 0-9.5-6.7-12.2-14.8-12.2h-14.1v23.7zm0 33h14.6c14.9 0 17.3-8.3 17.3-13.1 0-10.1-8.3-14.1-16.4-14.1h-15.5v27.2zm95.9-2.6c-4.5 6.7-11.4 9.5-19.3 9.5-13.6 0-22.6-9.7-22.6-23.5 0-13.3 9.3-23.3 22.3-23.3 13.7 0 20.9 10.5 20.9 20.8v4h-37.4c0 4.8 3.4 16.8 16.9 16.8 5.9 0 12-3.1 14.9-7.9l4.3 3.6zm-4.5-17.6c0-7.9-6.8-14.5-15.4-14.5-12.6 0-16.2 12.2-16.2 14.5h31.6zm44.4-13.3h-12.7v29c0 3.9 2.3 6.3 6.2 6.3 2.2 0 4.5-.7 6.6-1.6l.5 5.2c-2.1.8-5.3 1.5-7.5 1.5-8.3 0-11.5-5.1-11.5-11.5v-29h-9.6V601h9.6v-12.8h5.8V601h12.7l-.1 5.3zm35.9 0h-12.7v29c0 3.9 2.3 6.3 6.2 6.3 2.2 0 4.5-.7 6.6-1.6l.5 5.2c-2.1.8-5.3 1.5-7.5 1.5-8.3 0-11.5-5.1-11.5-11.5v-29h-9.6V601h9.6v-12.8h5.8V601h12.7l-.1 5.3zm53.5 30.9c-4.5 6.7-11.4 9.5-19.3 9.5-13.6 0-22.6-9.7-22.6-23.5 0-13.3 9.3-23.3 22.3-23.3 13.7 0 20.9 10.5 20.9 20.8v4h-37.4c0 4.8 3.4 16.8 16.9 16.8 5.9 0 12-3.1 14.9-7.9l4.3 3.6zm-4.4-17.6c0-7.9-6.8-14.5-15.4-14.5-12.6 0-16.2 12.2-16.2 14.5h31.6zm22.6-6c0-3.3-.5-10.2-.5-12.5h5.8c.1 3.3.2 7 .4 7.8 2.9-5.2 7.5-9 14.2-9 1.2 0 2.2.2 3.4.5l-.7 5.7c-.9-.3-1.6-.4-2.2-.4-10 0-14.5 6.9-14.5 15.6v24.3h-5.8v-32h-.1zm57.6-36.3h6.6l17 60.5h.2l17.3-60.5h8.1l17.3 60.5h.2l17-60.5h6.6l-19.8 68.3h-7.8l-17.2-60.8h-.2l-17.3 60.8h-7.8l-20.2-68.3zm108.2 1.8c2.4 0 4.3 1.9 4.3 4.3s-1.9 4.3-4.3 4.3-4.3-1.9-4.3-4.3 1.9-4.3 4.3-4.3zm-2.8 22h5.8v44.6h-5.8v-44.6zm26 12.5c0-3.3-.5-10.2-.5-12.5h5.8c.1 3.3.2 7 .4 7.8 2.9-5.2 7.5-9 14.2-9 1.2 0 2.2.2 3.4.5l-.7 5.7c-.9-.3-1.6-.4-2.2-.4-10 0-14.5 6.9-14.5 15.6v24.3h-5.8l-.1-32zm73.5 23.6c-4.5 6.7-11.4 9.5-19.3 9.5-13.6 0-22.5-9.7-22.5-23.5 0-13.3 9.3-23.3 22.3-23.3 13.7 0 20.9 10.5 20.9 20.8v4h-37.4c0 4.8 3.4 16.8 16.9 16.8 5.9 0 12-3.1 14.9-7.9l4.2 3.6zm-4.4-17.6c0-7.9-6.8-14.5-15.4-14.5-12.6 0-16.2 12.2-16.2 14.5h31.6zm23.5-46.9h5.8v72.9h-5.8v-72.9zm65.4 64.5c-4.5 6.7-11.4 9.5-19.3 9.5-13.6 0-22.6-9.7-22.6-23.5 0-13.3 9.3-23.3 22.3-23.3 13.7 0 20.9 10.5 20.9 20.8v4h-37.4c0 4.8 3.4 16.8 16.9 16.8 5.9 0 12-3.1 14.9-7.9l4.3 3.6zm-4.5-17.6c0-7.9-6.8-14.5-15.4-14.5-12.6 0-16.2 12.2-16.2 14.5h31.6zm22.7 14.6c2.4 4.7 7.7 7.3 12.9 7.3 5 0 10.2-3.1 10.2-8.2 0-12.3-26.4-3.7-26.4-20.6 0-8.7 7.9-12.8 15.2-12.8 7.2 0 12.8 2.7 15.7 8.4l-5.2 3.1c-2.2-4.1-5.3-6.3-10.5-6.3-4.1 0-9.5 2.5-9.5 7.1 0 12 26.4 2.7 26.4 20.7 0 9.2-7.6 13.8-16.1 13.8-7.6 0-14.5-2.9-17.9-9.1l5.2-3.4zm44.9 0c2.4 4.7 7.7 7.3 12.9 7.3 5 0 10.2-3.1 10.2-8.2 0-12.3-26.4-3.7-26.4-20.6 0-8.7 7.9-12.8 15.2-12.8 7.2 0 12.8 2.7 15.7 8.4l-5.2 3.1c-2.2-4.1-5.3-6.3-10.5-6.3-4.1 0-9.4 2.5-9.4 7.1 0 12 26.4 2.7 26.4 20.7 0 9.2-7.6 13.8-16.1 13.8-7.6 0-14.5-2.9-17.9-9.1l5.1-3.4zm49.7 2.7c2.6 0 4.6 2 4.6 4.6s-2 4.6-4.6 4.6c-2.6 0-4.6-2-4.6-4.6-.1-2.5 1.9-4.6 4.6-4.6zM978.7 356.4s-2.8-16.5 4.5-23.6c7.3-7.1 19.4.6 19.4.6l35 20.3s28.3 16.5 35 17.5c6.4.9 13.1-1.9 15.9-8.5 2.2-5.2-2.1-11-3.2-12.8-2-3.2-8.1-10.3-8.1-10.3l-31.3-32.2s-16.3-15.1-16.9-24c-.4-6.2 21.7-19.5 21.7-19.5s22.1-11.4 44.2-24 8.3-29.5 1.5-30.7-35.6 4.9-35.6 4.9-29.8 6.2-52.8 7.4c-23 1.2-30.7-15.4-30.7-15.4s-11-19.1-15.6-28.3-6.9-11-14.3-7.3c-5.9 2.9 3.9 24 3.9 24s5.8 13.1 8.6 18.9c2.8 5.9 3.7 10.7-1.8 13.5-5.5 2.8-9.5-7.6-9.5-7.6l-16-29.2s-5.1-8-7-10.4c-8.9-11.3-30.3 13.2-30.4 17.3-.2 13.3 16.7-.2 21.2 9.1 2.5 5.2 8.2 17.8 9.8 21.2 1.5 3.4 11.1 27.7-6.1 34.7-17.2 7.1-87.8 38.7-179.7 38.7-31.8 0-47.4-3.8-47.4-3.8s-31.2-9-12.8 17.3c0 0 13 15.9 17 28.7 6.5 20.8 2.6 52.5-1.7 63.6-4.3 11.1-16.7 24.4-16.7 24.4s6.9 158.7 3.9 177.2c-3.1 19.5 2.3 35.3 2.3 35.3s1.4 14.1 18.1 24.7c13 8.3 13.6-2.3 13.6-9.1s-7.7-17-12.8-22.2c-5.1-5.1-3.4-14.9-3.4-14.9l15.2-174.4s4.2-17.5 15.1-3.9c8.9 11-2.3 23-2.3 23s6.9 127.2 6.9 144.5c0 20.2-2.1 31.6-.4 38.4 1.7 6.8 11.6 16.2 23.6 20.2 11.9 4 10.2-5.7 10.2-5.7s-1.9-15.7-11.1-19.6c-6-2.6-5.1-31.3-5.1-31.3L756 512s-2.4-79.4 34-89.4c30.2-8.3 91.4 5.1 91.4 5.1s43.3 6.6 52.3 40.9c10 37.9 23.2 154.2 23.2 154.2s11.9 58.9 48.7 47.9c1.3-.4 2.5-.9 2.5-.9s9.8-4-6.3-14.7c-16-10.7-20.4-10.2-27.7-46.2-7.3-36-10.7-139.8-11.2-148.1-.5-8.3-1.9-23.3-1.9-23.3s2.2-9.6 7.8-2.4c6.4 8.1 14.4 48 14.4 48s14.7 87.3 17.1 99.2c1.6 7.9 5.6 42.1 27.1 58.5 16.5 12.7 40.5 3.8 40.5 3.8s6.8-13.6-12.2-15.6c-16.7-1.7-26.2-8.3-32.6-27.3-6.3-18.7-44.4-245.3-44.4-245.3z"/><path fill="#EE9601" stroke="#EE9601" stroke-width=".91" stroke-miterlimit="3.86" d="M1067.1 611.1c-3.6-6.7-29-55.9-27.5-97.1.3-7 1.1-13.9 2.3-20.8 6.1-37 3-43.4-33-110.6l6-10.8c35.9 67.1 39.1 73.6 33 110.6-1.2 6.9-2.1 13.8-2.3 20.8-1.5 41.8 24.6 91.8 27.6 97.4 22.3 41.4 61.7 72.7 94.2 72.7 14 0 24.8-5.8 31.6-15.7-5.6 16.6-18.4 26.9-37.1 26.9-32.7 0-72.7-31.4-94.8-73.4z"/><path fill="#EE9601" d="M1103.9 630.3c21.7-9.8 40.6-12.1 65.3-5.9 26.5 6.7 37.4 22.1 28.5 37 4.7-11.2-9.6-23.9-36.3-30.7-24.2-6.1-39.5-6.4-57.5-.4zm-99.3-265.1s-83.8-63-94.3-98.1c-1.9-6.1-27.6 7.3-27.6 7.3S944.5 340.8 991 368c4.5 2.7 7.7 2.5 9.8 1.4 2.8-1.2 3.8-4.2 3.8-4.2z"/><path fill="none" stroke="#000" stroke-width="6.13" stroke-miterlimit="3.86" d="M991.1 371.6c0-6.6 5.3-12 12-12 6.6 0 11.9 5.4 11.9 12s-5.3 12-11.9 12c-6.6 0-12-5.4-12-12z"/><path fill="#EE9601" d="M1178.5 109l15.4 6.4-8 18.1-44.4 77 29-83.3 8-18.2zm47.6 28.5l12.5 10.9-13.4 14.6-66.7 58.7 54.2-69.7 13.4-14.5zm38.6 42.4l8.3 14.4-17.4 9.5-82.1 33.9 73.8-48.3 17.4-9.5z"/></svg>