<svg xmlns="http://www.w3.org/2000/svg" xml:space="preserve" viewBox="0 0 306.5 91.2"><path fill="#d9012f" d="M169.4 88.3q1.6-6.2 3.7-6.4c3.4 0 10-4.5 12.2-8.4 2.5-4.3 6.6-18.3 11-37.7l2.8-11.6 8-1.2a46 46 0 0 1 8.5-.7c.2.2-2.2 10.4-5.3 22.7-6.3 25.3-9.3 32.1-16.2 37.5-5.2 4-13 7-20.2 8l-5.2.7zM0 64l8.3-23 8-22.2h21.5L35.1 26 27 49l-5.6 15.5-10.8.3C4.4 64.8-.2 64.6 0 64m50-10.6a114 114 0 0 1-11-11.8c.2-.2 3.6-1.4 7.5-2.6C62 33.9 75.9 25.2 75.9 20.3q0-4.4-6-6.8C66.4 12.1 61 12 35.8 12h-30l.6-2.3c.4-1.2 1.3-3.5 2.1-5L10 1.8l36.2.3 36.2.3 5 2.5c6.4 3.2 10 9.7 9 16-1.6 9.4-12.1 17-26.5 19.3-3.9.6-7 1.4-7 1.7s1.9 2 4.2 3.8c6 4.6 19.8 17.4 19.8 18.4 0 .4-5.8.8-12.8.8H61.3zm51.2 10c-5.6-2.5-5.8-4.8-1.7-23 2-8.8 4-17.7 4.6-19.8l1-3.7h8.4c5.2 0 8.5.4 8.5 1s-1.9 8.3-4 17.1c-2.3 8.9-3.8 17-3.5 18 1.5 4.8 13.3 4.8 18.6 0 3-2.7 5.9-11.9 9-28.9l1.3-7.2h8.3c6.7 0 8.3.3 8.3 1.5 0 4.1-8.2 36-10 39-3.5 5.6-8 6.8-28 7.2-13.9.3-18.2 0-20.8-1.1m62-6.3 5.6-24.7c.7-2.8 1.1-3 8.5-4.3 4.3-.8 8-1.1 8.4-.8.5.6-1 8.3-6 28.8l-2 8.8H161zm55.1 6c.6-1.7 3.8-15.5 7.9-33.4l2.2-9.7 6.5-.6c3.6-.4 7.3-.9 8.3-1.2q1.6-.4 1.7.9c0 .7-2.4 11.2-5.3 23.3l-5.2 22-8.3.3c-7.6.2-8.3.1-7.8-1.5m39.7-.5c-14.3-5.9-16.2-21.3-4-33.8 11-11.3 32.8-16 45.2-9.7 10.1 5 9.8 16.8-.6 21.6a123 123 0 0 1-18.6 4.6c-8 1.5-14.8 3-15.2 3.2-1.3.8 1.2 5.1 4 6.5 4.8 2.7 16.4.8 26.5-4.3 2.1-1 4-1.8 4.3-1.5.2.2-.4 2.8-1.4 5.8l-1.7 5.4-8 2.2c-11.1 3-23.2 3-30.5 0m16.7-20.3c8.8-1.8 12.5-3.5 14.7-6.6 2-2.9 2-7.2 0-8.8-2.3-2-9.1-.5-14.5 3-6.4 4.5-12.5 14-9 14 .7 0 4.6-.7 8.8-1.6m-103-23.2c1.4-8.8 1-8.4 11.3-10.9 11.7-2.8 31.2-6 44.8-7.3 12-1.2 56.3-1.2 63.7 0l5 .7-5 .2a508 508 0 0 0-106.7 17.7l-13 3.4c-.4 0-.5-1.7-.1-3.8"/></svg>