<svg xmlns="http://www.w3.org/2000/svg" viewBox="0 0 63.264 8.008"><defs><linearGradient id="g" gradientTransform="matrix(0 9.34787 9.34787 0 496.123 44.498)" gradientUnits="userSpaceOnUse" x2="1"><stop offset="0" stop-color="#61626d"/><stop offset=".159" stop-color="#61626d"/><stop offset=".659" stop-color="#303843"/><stop offset=".828" stop-color="#242d38"/><stop offset="1" stop-color="#242d38"/></linearGradient><radialGradient id="f" spreadMethod="pad" gradientTransform="matrix(12.02043 0 0 -10.49538 403.316 51.632)" gradientUnits="userSpaceOnUse" r="1" cy="0" cx="0" fy="0" fx="0"><stop offset="0" stop-color="#61626d"/><stop offset=".33" stop-color="#3f444f"/><stop offset=".546" stop-color="#242d38"/><stop offset=".753" stop-color="#242d38"/><stop offset=".802" stop-color="#61626d"/><stop offset="1" stop-color="#61626d"/></radialGradient><linearGradient id="e" gradientTransform="matrix(22.07584 0 0 -22.07584 394.653 49.63)" gradientUnits="userSpaceOnUse" x2="1"><stop offset="0" stop-color="#242d38"/><stop offset="1" stop-color="#8c8a92"/></linearGradient><radialGradient id="d" spreadMethod="pad" gradientTransform="matrix(13.4537 0 0 -11.46527 407.159 63.096)" gradientUnits="userSpaceOnUse" r="1" cy="0" cx="0" fy="0" fx="0"><stop offset="0" stop-color="#61626d"/><stop offset=".33" stop-color="#3f444f"/><stop offset=".546" stop-color="#242d38"/><stop offset=".753" stop-color="#242d38"/><stop offset=".802" stop-color="#61626d"/><stop offset="1" stop-color="#61626d"/></radialGradient><linearGradient id="c" gradientTransform="matrix(21.88918 0 0 -21.88918 394.016 65.419)" gradientUnits="userSpaceOnUse" x2="1"><stop offset="0" stop-color="#242d38"/><stop offset="1" stop-color="#8c8a92"/></linearGradient><radialGradient id="b" spreadMethod="pad" gradientTransform="matrix(11.3987 0 0 -10.17105 410.537 59.656)" gradientUnits="userSpaceOnUse" r="1" cy="0" cx="0" fy="0" fx="0"><stop offset="0" stop-color="#61626d"/><stop offset=".177" stop-color="#61626d"/><stop offset=".736" stop-color="#303843"/><stop offset=".812" stop-color="#242d38"/><stop offset="1" stop-color="#242d38"/></radialGradient><linearGradient id="a" gradientTransform="matrix(22.69687 0 0 -22.69687 394.035 57.525)" gradientUnits="userSpaceOnUse" x2="1"><stop offset="0" stop-color="#242d38"/><stop offset="1" stop-color="#8c8a92"/></linearGradient></defs><path d="M394.035 61.415c.195-2.629 2.564-4.48 6.119-5.328l7.192-1.73c1.863-.44 2.795-.455 3.15-2.048 3.846.257 5.467.939 6.236 1.312v.212c0 2.288-1.766 3.814-5.295 4.663l-9.381 2.229c-1.309.368-1.987.94-2.515 2.016-3.898-.281-4.825-.976-5.506-1.326" fill="url(#a)" transform="matrix(.35278 0 0 -.35278 -138.868 24.314)"/><path d="M394.146 61.307a.533.533 0 0 0-.041-.022c.334-2.75 3.616-4.095 6.343-4.742l7.383-1.765c1.831-.432 2.921-.763 3.366-2.337 3.424.253 4.769.825 5.568 1.21v.045c0 2.181-1.703 3.65-5.203 4.49l-9.645 2.279c-1.336.371-2.105.948-2.685 2.026-3.372-.261-4.443-.838-5.086-1.184" fill="url(#b)" transform="matrix(.35278 0 0 -.35278 -138.868 24.314)"/><path d="M394.016 62.44v-.067c1.394.556 4.778 1.477 11.361 1.477 4.655 0 6.846-.57 10.528-1.559v5.026c-3.033.631-4.471 1.23-10.425 1.23-7.496 0-11.464-2.138-11.464-6.107" fill="url(#c)" transform="matrix(.35278 0 0 -.35278 -138.868 24.314)"/><path d="M394.087 63.134c1.67.562 5.092 1.325 11.322 1.325 4.707 0 6.984-.546 10.491-1.458v4.127c-.435.089-.841.179-1.233.264-2.301.505-4.119.905-9.152.905-5.078 0-11.102-.91-11.428-5.163" fill="url(#d)" transform="matrix(.35278 0 0 -.35278 -138.868 24.314)"/><path d="M404.842 51.25c-3.575 0-6.482.559-10.188 1.368v-5.059c2.972-.559 4.809-.963 10.188-.963 6.863 0 12.123 2.081 11.879 6.067-1.483-.604-4.157-1.413-11.879-1.413" fill="url(#e)" transform="matrix(.35278 0 0 -.35278 -138.868 24.314)"/><path d="M394.741 47.819l.212-.039c2.744-.488 4.726-.84 9.924-.84 4.184 0 11.142.642 11.827 4.835-1.766-.596-4.824-1.207-11.827-1.207-3.62 0-6.637.535-10.136 1.244z" fill="url(#f)" transform="matrix(.35278 0 0 -.35278 -138.868 24.314)"/><path d="M527.904 58.895v-6.116c0-4.562 4.508-5.825 9.49-5.825 4.983 0 9.49 1.263 9.49 5.825v6.116c0 4.564-4.507 5.827-9.49 5.827-4.982 0-9.49-1.263-9.49-5.827m4.666-5.776v5.704c0 1.675 1.915 2.208 4.824 2.208 2.907 0 4.823-.533 4.823-2.208v-5.704c0-1.674-1.352-2.475-4.823-2.475-3.473 0-4.824.801-4.824 2.475m-23.668 5.776v-6.116c0-4.562 4.734-5.825 9.715-5.825 3.742 0 4.755.317 6.762.753v3.713c-2.547-.632-3.652-.776-6.739-.776-3.471 0-5.072.801-5.072 2.475v5.704c0 1.675 1.938 2.208 4.846 2.208 3.088 0 4.193-.146 6.74-.777v3.713c-2.006.439-3.02.755-6.763.755-4.981 0-9.489-1.263-9.489-5.827m-46.764-.048v-7.063c0-3.688 4.802-4.83 9.738-4.83 3.133 0 6.515.435 8.317.97v3.812c-1.938-.656-5.229-1.092-7.888-1.092-3.133 0-5.5.703-5.5 2.209v1.504c2.05-.29 3.154-.461 4.8-.461 5.838 0 9.4 1.481 9.4 4.248v1.431c0 2.111-.226 5.147-9.061 5.147-7.664 0-9.806-2.307-9.806-5.875m4.667-1.359v1.262c0 1.311.427 2.281 5.139 2.281 3.155 0 4.215-.314 4.215-1.651v-.485c0-1.31-1.556-1.844-4.375-1.844-1.575 0-3.016.17-4.979.437m-26.307 1.407V53.07c0-3.809 1.915-6.116 9.578-6.116 8.836 0 9.356 3.01 9.356 5.146v3.084c0 1.431-.836 1.817-2.075 1.817h-7.371v-3.25h4.8v-1.457c0-1.334-1.577-1.65-4.71-1.65-3.878 0-4.913.678-4.913 2.257v5.922c0 1.675 1.938 2.208 4.847 2.208 3.312 0 5.588-.389 8.137-1.018v3.954c-2.008.439-4.418.755-8.161.755-4.981 0-9.488-1.263-9.488-5.827m-19.25 4.83v-3.712c2.367.606 3.697 1.018 6.988 1.018 3.132 0 4.687-.728 4.687-2.208v-1.432c-1.736.291-2.704.51-5.139.51-6.243 0-8.137-1.844-8.137-4.635v-1.409c0-2.136.586-4.903 8.341-4.903 7.641 0 9.602 2.307 9.602 5.873v7.064c0 3.665-4.171 4.831-9.105 4.831-3.088 0-5.254-.462-7.237-.997m2.795-11.431v.825c0 .994.654 1.529 3.763 1.529 2.39 0 3.067-.218 5.117-.581v-1.531c0-1.358-1.036-2.038-4.89-2.038-3.177 0-3.99.462-3.99 1.796m142.874 12.16c-.541 0-.967-.267-1.308-.824l-4.597-7.573h-.045l-4.597 7.573c-.338.557-.766.824-1.309.824h-2.457c-1.283 0-1.532-.533-1.62-1.141-.566-3.762-1.219-9.757-1.602-15.924h4.373c.135 3.667.383 8.497.766 11.653h.045l5.004-8.447h2.839l5.006 8.447h.044c.382-3.156.63-7.744.766-11.653h4.373c-.383 6.167-1.037 12.162-1.601 15.924-.09.608-.338 1.141-1.623 1.141zm-66.326 0c-.539 0-.97-.267-1.307-.824l-4.597-7.573h-.045l-4.599 7.573c-.338.557-.766.824-1.307.824h-2.456c-1.286 0-1.534-.533-1.624-1.141-.564-3.762-1.217-9.757-1.599-15.924h4.37c.136 3.667.383 8.497.767 11.653h.045l5.006-8.447h2.84l5.002 8.447h.046c.382-3.156.63-7.744.766-11.653h4.373c-.385 6.167-1.036 12.162-1.601 15.924-.09.608-.338 1.141-1.623 1.141z" fill="url(#g)" transform="matrix(.35278 0 0 -.35278 -138.868 24.314)"/></svg>
