<svg xmlns="http://www.w3.org/2000/svg" viewBox="0 0 63.3 8"><defs><linearGradient id="g" x2="1" gradientTransform="matrix(0 9.34787 9.34787 0 496.1 44.5)" gradientUnits="userSpaceOnUse"><stop offset="0" stop-color="#61626d"/><stop offset=".2" stop-color="#61626d"/><stop offset=".7" stop-color="#303843"/><stop offset=".8" stop-color="#242d38"/><stop offset="1" stop-color="#242d38"/></linearGradient><linearGradient id="e" x2="1" gradientTransform="matrix(22.07584 0 0 -22.07584 394.7 49.6)" gradientUnits="userSpaceOnUse"><stop offset="0" stop-color="#242d38"/><stop offset="1" stop-color="#8c8a92"/></linearGradient><linearGradient id="c" x2="1" gradientTransform="matrix(21.88918 0 0 -21.88918 394 65.4)" gradientUnits="userSpaceOnUse"><stop offset="0" stop-color="#242d38"/><stop offset="1" stop-color="#8c8a92"/></linearGradient><linearGradient id="a" x2="1" gradientTransform="matrix(22.69687 0 0 -22.69687 394 57.5)" gradientUnits="userSpaceOnUse"><stop offset="0" stop-color="#242d38"/><stop offset="1" stop-color="#8c8a92"/></linearGradient><radialGradient id="f" cx="0" cy="0" r="1" fx="0" fy="0" gradientTransform="matrix(12.02043 0 0 -10.49538 403.3 51.6)" gradientUnits="userSpaceOnUse" spreadMethod="pad"><stop offset="0" stop-color="#61626d"/><stop offset=".3" stop-color="#3f444f"/><stop offset=".5" stop-color="#242d38"/><stop offset=".8" stop-color="#242d38"/><stop offset=".8" stop-color="#61626d"/><stop offset="1" stop-color="#61626d"/></radialGradient><radialGradient id="d" cx="0" cy="0" r="1" fx="0" fy="0" gradientTransform="matrix(13.4537 0 0 -11.46527 407.2 63.1)" gradientUnits="userSpaceOnUse" spreadMethod="pad"><stop offset="0" stop-color="#61626d"/><stop offset=".3" stop-color="#3f444f"/><stop offset=".5" stop-color="#242d38"/><stop offset=".8" stop-color="#242d38"/><stop offset=".8" stop-color="#61626d"/><stop offset="1" stop-color="#61626d"/></radialGradient><radialGradient id="b" cx="0" cy="0" r="1" fx="0" fy="0" gradientTransform="matrix(11.3987 0 0 -10.17105 410.5 59.7)" gradientUnits="userSpaceOnUse" spreadMethod="pad"><stop offset="0" stop-color="#61626d"/><stop offset=".2" stop-color="#61626d"/><stop offset=".7" stop-color="#303843"/><stop offset=".8" stop-color="#242d38"/><stop offset="1" stop-color="#242d38"/></radialGradient></defs><path fill="url(#a)" d="M394 61.4c.2-2.6 2.6-4.5 6.2-5.3l7.1-1.7c2-.5 2.8-.5 3.2-2 3.8.2 5.5.8 6.2 1.2v.2q0 3.4-5.3 4.7l-9.3 2.2q-1.9.5-2.6 2c-3.9-.2-4.8-1-5.5-1.3" transform="matrix(.35278 0 0 -.35278 -138.9 24.3)"/><path fill="url(#b)" d="M394.1 61.3c.3-2.8 3.6-4.1 6.3-4.8l7.4-1.7c1.9-.5 3-.8 3.4-2.4 3.4.3 4.8.9 5.6 1.3q0 3.2-5.2 4.5l-9.7 2.3q-1.8.5-2.7 2c-3.3-.3-4.4-.8-5-1.2" transform="matrix(.35278 0 0 -.35278 -138.9 24.3)"/><path fill="url(#c)" d="M394 62.4c1.4.5 4.8 1.4 11.4 1.4 4.6 0 6.8-.5 10.5-1.5v5c-3 .6-4.5 1.2-10.4 1.2q-11.4 0-11.5-6" transform="matrix(.35278 0 0 -.35278 -138.9 24.3)"/><path fill="url(#d)" d="M394 63.1a36 36 0 0 0 11.4 1.4c4.7 0 7-.6 10.5-1.5v4.1l-1.2.3c-2.3.5-4.2.9-9.2.9s-11-1-11.4-5.2" transform="matrix(.35278 0 0 -.35278 -138.9 24.3)"/><path fill="url(#e)" d="M404.8 51.3a45 45 0 0 0-10.1 1.3v-5c3-.6 4.8-1 10.1-1 6.9 0 12.2 2 12 6a36 36 0 0 0-12-1.3" transform="matrix(.35278 0 0 -.35278 -138.9 24.3)"/><path fill="url(#f)" d="M394.7 47.8h.3c2.7-.5 4.7-.9 9.9-.9 4.2 0 11.1.7 11.8 4.9a49 49 0 0 0-22 0z" transform="matrix(.35278 0 0 -.35278 -138.9 24.3)"/><path fill="url(#g)" d="M527.9 58.9v-6.1c0-4.6 4.5-5.8 9.5-5.8s9.5 1.2 9.5 5.8v6.1c0 4.6-4.5 5.8-9.5 5.8s-9.5-1.2-9.5-5.8m4.7-5.8v5.7c0 1.7 1.9 2.2 4.8 2.2s4.8-.5 4.8-2.2v-5.7c0-1.7-1.3-2.5-4.8-2.5s-4.8.8-4.8 2.5M508.9 59v-6.1c0-4.6 4.7-5.8 9.7-5.8 3.8 0 4.8.3 6.8.7v3.7a24 24 0 0 0-6.8-.8q-5 0-5 2.5v5.7c0 1.7 2 2.2 4.8 2.2 3.1 0 4.2-.1 6.8-.7V64c-2 .4-3 .7-6.8.7-5 0-9.5-1.2-9.5-5.8m-46.8 0v-7.1c0-3.7 4.8-4.8 9.8-4.8 3.1 0 6.5.4 8.3 1v3.7c-2-.6-5.2-1-7.9-1-3.1 0-5.5.6-5.5 2.2v1.5c2-.3 3.2-.5 4.8-.5 5.8 0 9.4 1.5 9.4 4.2v1.5c0 2-.2 5.1-9 5.1-7.7 0-9.9-2.3-9.9-5.9m4.7-1.3v1.3c0 1.3.4 2.2 5.1 2.2 3.2 0 4.3-.3 4.3-1.6v-.5q-.1-1.9-4.4-1.8-2.2 0-5 .4m-26.3 1.4V53c0-3.8 2-6.1 9.6-6.1 8.8 0 9.3 3 9.3 5.1v3q-.1 2-2 1.9H450v-3.2h4.8v-1.5q0-1.8-4.7-1.7c-3.9 0-5 .7-5 2.3v6c0 1.6 2 2.1 5 2.1 3.2 0 5.5-.4 8-1v4c-2 .4-4.4.7-8.1.7-5 0-9.5-1.2-9.5-5.8m-19.3 4.8V60c2.4.6 3.7 1 7 1q4.8 0 4.7-2.2v-1.4c-1.7.3-2.7.5-5.1.5-6.3 0-8.2-1.8-8.2-4.6v-1.4c0-2.2.6-5 8.4-5 7.6 0 9.6 2.4 9.6 6v7c0 3.7-4.2 4.8-9.1 4.8q-4.5 0-7.3-1m2.8-11.4v.8c0 1 .7 1.5 3.8 1.5 2.4 0 3-.2 5.1-.5v-1.6c0-1.3-1-2-4.9-2-3.1 0-4 .5-4 1.8m143 12.2q-.9 0-1.4-.9l-4.6-7.5-4.6 7.5q-.6.9-1.3.9h-2.5c-1.3 0-1.5-.6-1.6-1.2-.6-3.7-1.2-9.7-1.6-16h4.4c0 3.8.3 8.6.7 11.7l5-8.4h3l5 8.4c.3-3.1.6-7.7.7-11.6h4.4c-.4 6.2-1 12.2-1.6 16q.2.9-1.6 1zm-66.4 0q-.8 0-1.3-.9l-4.6-7.5-4.7 7.5q-.4.9-1.3.9h-2.4q-1.8-.2-1.6-1.2c-.6-3.7-1.3-9.7-1.6-16h4.3c.2 3.8.4 8.6.8 11.7l5-8.4h2.9l5 8.4c.4-3.1.7-7.7.8-11.6h4.4a201 201 0 0 1-1.6 16c-.1.5-.4 1-1.7 1z" transform="matrix(.35278 0 0 -.35278 -138.9 24.3)"/></svg>