<?xml version="1.0" encoding="UTF-8" standalone="no"?>
<!-- Created with Inkscape (http://www.inkscape.org/) -->

<svg
   xmlns:dc="http://purl.org/dc/elements/1.1/"
   xmlns:cc="http://creativecommons.org/ns#"
   xmlns:rdf="http://www.w3.org/1999/02/22-rdf-syntax-ns#"
   xmlns:svg="http://www.w3.org/2000/svg"
   xmlns="http://www.w3.org/2000/svg"
   xmlns:sodipodi="http://sodipodi.sourceforge.net/DTD/sodipodi-0.dtd"
   xmlns:inkscape="http://www.inkscape.org/namespaces/inkscape"
   viewBox="0 0 63.264343 8.0084083"
   version="1.1"
   id="svg2990"
   inkscape:version="0.92.0 r15299"
   sodipodi:docname="sagemcom.svg">
  <defs
     id="defs2984">
    <linearGradient
       id="linearGradient1496"
       spreadMethod="pad"
       gradientTransform="matrix(-9e-7,-21.524574,-21.524574,9e-7,441.75627,764.95791)"
       gradientUnits="userSpaceOnUse"
       y2="0"
       x2="1"
       y1="0"
       x1="0">
      <stop
         id="stop1482"
         offset="0"
         style="stop-opacity:1;stop-color:#c7cacc" />
      <stop
         id="stop1484"
         offset="0.291209"
         style="stop-opacity:1;stop-color:#c7cacc" />
      <stop
         id="stop1486"
         offset="0.58369018"
         style="stop-opacity:1;stop-color:#c7cacc" />
      <stop
         id="stop1488"
         offset="0.791209"
         style="stop-opacity:1;stop-color:#e8e9ea" />
      <stop
         id="stop1490"
         offset="0.86194025"
         style="stop-opacity:1;stop-color:#e8e9ea" />
      <stop
         id="stop1492"
         offset="0.994505"
         style="stop-opacity:1;stop-color:#ffffff" />
      <stop
         id="stop1494"
         offset="1"
         style="stop-opacity:1;stop-color:#ffffff" />
    </linearGradient>
    <radialGradient
       id="radialGradient1466"
       spreadMethod="pad"
       gradientTransform="matrix(12.467251,0,0,-10.89159,344.76338,750.65857)"
       gradientUnits="userSpaceOnUse"
       r="1"
       cy="0"
       cx="0"
       fy="0"
       fx="0">
      <stop
         id="stop1452"
         offset="0"
         style="stop-opacity:1;stop-color:#ffffff" />
      <stop
         id="stop1454"
         offset="0.307692"
         style="stop-opacity:1;stop-color:#e1e3e3" />
      <stop
         id="stop1456"
         offset="0.61144983"
         style="stop-opacity:1;stop-color:#e1e3e3" />
      <stop
         id="stop1458"
         offset="0.752747"
         style="stop-opacity:1;stop-color:#6d767a" />
      <stop
         id="stop1460"
         offset="0.84806692"
         style="stop-opacity:1;stop-color:#ffffff" />
      <stop
         id="stop1462"
         offset="0.994505"
         style="stop-opacity:1;stop-color:#ffffff" />
      <stop
         id="stop1464"
         offset="1"
         style="stop-opacity:1;stop-color:#ffffff" />
    </radialGradient>
    <linearGradient
       id="linearGradient1436"
       spreadMethod="pad"
       gradientTransform="matrix(22.897387,0,0,-22.897387,335.77938,748.58022)"
       gradientUnits="userSpaceOnUse"
       y2="0"
       x2="1"
       y1="0"
       x1="0">
      <stop
         id="stop1432"
         offset="0"
         style="stop-opacity:1;stop-color:#6d767a" />
      <stop
         id="stop1434"
         offset="1"
         style="stop-opacity:1;stop-color:#ffffff" />
    </linearGradient>
    <radialGradient
       id="radialGradient1416"
       spreadMethod="pad"
       gradientTransform="matrix(14.047123,0,0,-11.898597,348.82601,762.55425)"
       gradientUnits="userSpaceOnUse"
       r="1"
       cy="0"
       cx="0"
       fy="0"
       fx="0">
      <stop
         id="stop1402"
         offset="0"
         style="stop-opacity:1;stop-color:#ffffff" />
      <stop
         id="stop1404"
         offset="0.307692"
         style="stop-opacity:1;stop-color:#e1e3e3" />
      <stop
         id="stop1406"
         offset="0.61144983"
         style="stop-opacity:1;stop-color:#e1e3e3" />
      <stop
         id="stop1408"
         offset="0.752747"
         style="stop-opacity:1;stop-color:#6d767a" />
      <stop
         id="stop1410"
         offset="0.84806692"
         style="stop-opacity:1;stop-color:#ffffff" />
      <stop
         id="stop1412"
         offset="0.994505"
         style="stop-opacity:1;stop-color:#ffffff" />
      <stop
         id="stop1414"
         offset="1"
         style="stop-opacity:1;stop-color:#ffffff" />
    </radialGradient>
    <linearGradient
       id="linearGradient1386"
       spreadMethod="pad"
       gradientTransform="matrix(22.845865,0,0,-22.845865,335.1033,764.96599)"
       gradientUnits="userSpaceOnUse"
       y2="0"
       x2="1"
       y1="0"
       x1="0">
      <stop
         id="stop1382"
         offset="0"
         style="stop-opacity:1;stop-color:#6d767a" />
      <stop
         id="stop1384"
         offset="1"
         style="stop-opacity:1;stop-color:#ffffff" />
    </linearGradient>
    <radialGradient
       id="radialGradient1366"
       spreadMethod="pad"
       gradientTransform="matrix(14.157428,0,0,-12.632682,352.04732,757.88969)"
       gradientUnits="userSpaceOnUse"
       r="1"
       cy="0"
       cx="0"
       fy="0"
       fx="0">
      <stop
         id="stop1354"
         offset="0"
         style="stop-opacity:1;stop-color:#ffffff" />
      <stop
         id="stop1356"
         offset="0.30232959"
         style="stop-opacity:1;stop-color:#e1e3e3" />
      <stop
         id="stop1358"
         offset="0.423077"
         style="stop-opacity:1;stop-color:#e1e3e3" />
      <stop
         id="stop1360"
         offset="0.88920574"
         style="stop-opacity:1;stop-color:#81898c" />
      <stop
         id="stop1362"
         offset="0.912088"
         style="stop-opacity:1;stop-color:#81898c" />
      <stop
         id="stop1364"
         offset="1"
         style="stop-opacity:1;stop-color:#81898c" />
    </radialGradient>
    <linearGradient
       id="linearGradient1338"
       spreadMethod="pad"
       gradientTransform="matrix(23.553665,0,0,-23.553665,335.1236,756.77319)"
       gradientUnits="userSpaceOnUse"
       y2="0"
       x2="1"
       y1="0"
       x1="0">
      <stop
         id="stop1334"
         offset="0"
         style="stop-opacity:1;stop-color:#6d767a" />
      <stop
         id="stop1336"
         offset="1"
         style="stop-opacity:1;stop-color:#ffffff" />
    </linearGradient>
    <linearGradient
       id="linearGradient3371"
       spreadMethod="pad"
       gradientTransform="matrix(-4e-7,9.3478678,9.3478678,4e-7,496.12266,44.497608)"
       gradientUnits="userSpaceOnUse"
       y2="0"
       x2="1"
       y1="0"
       x1="0">
      <stop
         id="stop3361"
         offset="0"
         style="stop-opacity:1;stop-color:#61626d" />
      <stop
         id="stop3363"
         offset="0.15890762"
         style="stop-opacity:1;stop-color:#61626d" />
      <stop
         id="stop3365"
         offset="0.659341"
         style="stop-opacity:1;stop-color:#303843" />
      <stop
         id="stop3367"
         offset="0.82829354"
         style="stop-opacity:1;stop-color:#242d38" />
      <stop
         id="stop3369"
         offset="1"
         style="stop-opacity:1;stop-color:#242d38" />
    </linearGradient>
    <radialGradient
       id="radialGradient3345"
       spreadMethod="pad"
       gradientTransform="matrix(12.02043,0,0,-10.495376,403.31576,51.631853)"
       gradientUnits="userSpaceOnUse"
       r="1"
       cy="0"
       cx="0"
       fy="0"
       fx="0">
      <stop
         id="stop3333"
         offset="0"
         style="stop-opacity:1;stop-color:#61626d" />
      <stop
         id="stop3335"
         offset="0.32967"
         style="stop-opacity:1;stop-color:#3f444f" />
      <stop
         id="stop3337"
         offset="0.54624273"
         style="stop-opacity:1;stop-color:#242d38" />
      <stop
         id="stop3339"
         offset="0.752747"
         style="stop-opacity:1;stop-color:#242d38" />
      <stop
         id="stop3341"
         offset="0.80242323"
         style="stop-opacity:1;stop-color:#61626d" />
      <stop
         id="stop3343"
         offset="1"
         style="stop-opacity:1;stop-color:#61626d" />
    </radialGradient>
    <linearGradient
       id="linearGradient3317"
       spreadMethod="pad"
       gradientTransform="matrix(22.075838,0,0,-22.075838,394.65338,49.629388)"
       gradientUnits="userSpaceOnUse"
       y2="0"
       x2="1"
       y1="0"
       x1="0">
      <stop
         id="stop3313"
         offset="0"
         style="stop-opacity:1;stop-color:#242d38" />
      <stop
         id="stop3315"
         offset="1"
         style="stop-opacity:1;stop-color:#8c8a92" />
    </linearGradient>
    <radialGradient
       id="radialGradient3297"
       spreadMethod="pad"
       gradientTransform="matrix(13.453705,0,0,-11.465274,407.15876,63.095512)"
       gradientUnits="userSpaceOnUse"
       r="1"
       cy="0"
       cx="0"
       fy="0"
       fx="0">
      <stop
         id="stop3285"
         offset="0"
         style="stop-opacity:1;stop-color:#61626d" />
      <stop
         id="stop3287"
         offset="0.32967"
         style="stop-opacity:1;stop-color:#3f444f" />
      <stop
         id="stop3289"
         offset="0.54624273"
         style="stop-opacity:1;stop-color:#242d38" />
      <stop
         id="stop3291"
         offset="0.752747"
         style="stop-opacity:1;stop-color:#242d38" />
      <stop
         id="stop3293"
         offset="0.80242323"
         style="stop-opacity:1;stop-color:#61626d" />
      <stop
         id="stop3295"
         offset="1"
         style="stop-opacity:1;stop-color:#61626d" />
    </radialGradient>
    <linearGradient
       id="linearGradient3269"
       spreadMethod="pad"
       gradientTransform="matrix(21.889182,0,0,-21.889182,394.01575,65.418784)"
       gradientUnits="userSpaceOnUse"
       y2="0"
       x2="1"
       y1="0"
       x1="0">
      <stop
         id="stop3265"
         offset="0"
         style="stop-opacity:1;stop-color:#242d38" />
      <stop
         id="stop3267"
         offset="1"
         style="stop-opacity:1;stop-color:#8c8a92" />
    </linearGradient>
    <radialGradient
       id="radialGradient3249"
       spreadMethod="pad"
       gradientTransform="matrix(11.398695,0,0,-10.171052,410.53725,59.655866)"
       gradientUnits="userSpaceOnUse"
       r="1"
       cy="0"
       cx="0"
       fy="0"
       fx="0">
      <stop
         id="stop3239"
         offset="0"
         style="stop-opacity:1;stop-color:#61626d" />
      <stop
         id="stop3241"
         offset="0.17744681"
         style="stop-opacity:1;stop-color:#61626d" />
      <stop
         id="stop3243"
         offset="0.736264"
         style="stop-opacity:1;stop-color:#303843" />
      <stop
         id="stop3245"
         offset="0.81177269"
         style="stop-opacity:1;stop-color:#242d38" />
      <stop
         id="stop3247"
         offset="1"
         style="stop-opacity:1;stop-color:#242d38" />
    </radialGradient>
    <linearGradient
       id="linearGradient3223"
       spreadMethod="pad"
       gradientTransform="matrix(22.696868,0,0,-22.696868,394.03519,57.524947)"
       gradientUnits="userSpaceOnUse"
       y2="0"
       x2="1"
       y1="0"
       x1="0">
      <stop
         id="stop3219"
         offset="0"
         style="stop-opacity:1;stop-color:#242d38" />
      <stop
         id="stop3221"
         offset="1"
         style="stop-opacity:1;stop-color:#8c8a92" />
    </linearGradient>
  </defs>
  <sodipodi:namedview
     id="base"
     pagecolor="#ffffff"
     bordercolor="#666666"
     borderopacity="1.0"
     inkscape:pageopacity="0.0"
     inkscape:pageshadow="2"
     inkscape:zoom="3.3682007"
     inkscape:cx="119.05466"
     inkscape:cy="14.634"
     inkscape:document-units="mm"
     inkscape:current-layer="layer1"
     showgrid="false"
     fit-margin-top="0"
     fit-margin-left="0"
     fit-margin-right="0"
     fit-margin-bottom="0"
     units="px"
     inkscape:window-width="1280"
     inkscape:window-height="744"
     inkscape:window-x="-4"
     inkscape:window-y="-4"
     inkscape:window-maximized="1" />
  <metadata
     id="metadata2987">
    <rdf:RDF>
      <cc:Work
         rdf:about="">
        <dc:format>image/svg+xml</dc:format>
        <dc:type
           rdf:resource="http://purl.org/dc/dcmitype/StillImage" />
        <dc:title></dc:title>
      </cc:Work>
    </rdf:RDF>
  </metadata>
  <g
     inkscape:label="Layer 1"
     inkscape:groupmode="layer"
     id="layer1"
     transform="translate(-109.49922,-169.82764)">
    <g
       id="g4738"
       transform="translate(0.13228899,-0.13229068)">
      <g
         transform="matrix(0.35277777,0,0,-0.35277777,-29.500863,194.27408)"
         id="g3209">
        <g
           id="g3215">
          <g
             id="g3217">
            <path
               d="m 394.035,61.415 c 0.195,-2.629 2.564,-4.48 6.119,-5.328 v 0 l 7.192,-1.73 c 1.863,-0.44 2.795,-0.455 3.15,-2.048 v 0 c 3.846,0.257 5.467,0.939 6.236,1.312 v 0 0.212 c 0,2.288 -1.766,3.814 -5.295,4.663 v 0 l -9.381,2.229 c -1.309,0.368 -1.987,0.94 -2.515,2.016 v 0 c -3.898,-0.281 -4.825,-0.976 -5.506,-1.326"
               style="fill:url(#linearGradient3223);stroke:none"
               id="path3225"
               inkscape:connector-curvature="0" />
          </g>
        </g>
      </g>
      <g
         transform="matrix(0.35277777,0,0,-0.35277777,-29.500863,194.27408)"
         id="g3229">
        <g
           id="g3235">
          <g
             id="g3237">
            <path
               d="m 394.146,61.307 c -0.013,-0.008 -0.027,-0.015 -0.041,-0.022 v 0 c 0.334,-2.75 3.616,-4.095 6.343,-4.742 v 0 l 7.383,-1.765 c 1.831,-0.432 2.921,-0.763 3.366,-2.337 v 0 c 3.424,0.253 4.769,0.825 5.568,1.21 v 0 0.045 c 0,2.181 -1.703,3.65 -5.203,4.49 v 0 l -9.645,2.279 c -1.336,0.371 -2.105,0.948 -2.685,2.026 v 0 c -3.372,-0.261 -4.443,-0.838 -5.086,-1.184"
               style="fill:url(#radialGradient3249);stroke:none"
               id="path3251"
               inkscape:connector-curvature="0" />
          </g>
        </g>
      </g>
      <g
         transform="matrix(0.35277777,0,0,-0.35277777,-29.500863,194.27408)"
         id="g3255">
        <g
           id="g3261">
          <g
             id="g3263">
            <path
               d="m 394.016,62.44 v -0.067 c 1.394,0.556 4.778,1.477 11.361,1.477 v 0 c 4.655,0 6.846,-0.57 10.528,-1.559 v 0 5.026 c -3.033,0.631 -4.471,1.23 -10.425,1.23 v 0 c -7.496,0 -11.464,-2.138 -11.464,-6.107"
               style="fill:url(#linearGradient3269);stroke:none"
               id="path3271"
               inkscape:connector-curvature="0" />
          </g>
        </g>
      </g>
      <g
         transform="matrix(0.35277777,0,0,-0.35277777,-29.500863,194.27408)"
         id="g3275">
        <g
           id="g3281">
          <g
             id="g3283">
            <path
               d="m 394.087,63.134 c 1.67,0.562 5.092,1.325 11.322,1.325 v 0 c 4.707,0 6.984,-0.546 10.491,-1.458 v 0 4.127 c -0.435,0.089 -0.841,0.179 -1.233,0.264 v 0 c -2.301,0.505 -4.119,0.905 -9.152,0.905 v 0 c -5.078,0 -11.102,-0.91 -11.428,-5.163"
               style="fill:url(#radialGradient3297);stroke:none"
               id="path3299"
               inkscape:connector-curvature="0" />
          </g>
        </g>
      </g>
      <g
         transform="matrix(0.35277777,0,0,-0.35277777,-29.500863,194.27408)"
         id="g3303">
        <g
           id="g3309">
          <g
             id="g3311">
            <path
               d="m 404.842,51.25 c -3.575,0 -6.482,0.559 -10.188,1.368 v 0 -5.059 c 2.972,-0.559 4.809,-0.963 10.188,-0.963 v 0 c 6.863,0 12.123,2.081 11.879,6.067 v 0 c -1.483,-0.604 -4.157,-1.413 -11.879,-1.413"
               style="fill:url(#linearGradient3317);stroke:none"
               id="path3319"
               inkscape:connector-curvature="0" />
          </g>
        </g>
      </g>
      <g
         transform="matrix(0.35277777,0,0,-0.35277777,-29.500863,194.27408)"
         id="g3323">
        <g
           id="g3329">
          <g
             id="g3331">
            <path
               d="m 394.741,47.819 0.212,-0.039 c 2.744,-0.488 4.726,-0.84 9.924,-0.84 v 0 c 4.184,0 11.142,0.642 11.827,4.835 v 0 c -1.766,-0.596 -4.824,-1.207 -11.827,-1.207 v 0 c -3.62,0 -6.637,0.535 -10.136,1.244 v 0 z"
               style="fill:url(#radialGradient3345);stroke:none"
               id="path3347"
               inkscape:connector-curvature="0" />
          </g>
        </g>
      </g>
      <g
         transform="matrix(0.35277777,0,0,-0.35277777,-29.500863,194.27408)"
         id="g3351">
        <g
           id="g3357">
          <g
             id="g3359">
            <path
               d="m 527.904,58.895 v -6.116 c 0,-4.562 4.508,-5.825 9.49,-5.825 v 0 c 4.983,0 9.49,1.263 9.49,5.825 v 0 6.116 c 0,4.564 -4.507,5.827 -9.49,5.827 v 0 c -4.982,0 -9.49,-1.263 -9.49,-5.827 m 4.666,-5.776 v 5.704 c 0,1.675 1.915,2.208 4.824,2.208 v 0 c 2.907,0 4.823,-0.533 4.823,-2.208 v 0 -5.704 c 0,-1.674 -1.352,-2.475 -4.823,-2.475 v 0 c -3.473,0 -4.824,0.801 -4.824,2.475 m -23.668,5.776 v -6.116 c 0,-4.562 4.734,-5.825 9.715,-5.825 v 0 c 3.742,0 4.755,0.317 6.762,0.753 v 0 3.713 c -2.547,-0.632 -3.652,-0.776 -6.739,-0.776 v 0 c -3.471,0 -5.072,0.801 -5.072,2.475 v 0 5.704 c 0,1.675 1.938,2.208 4.846,2.208 v 0 c 3.088,0 4.193,-0.146 6.74,-0.777 v 0 3.713 c -2.006,0.439 -3.02,0.755 -6.763,0.755 v 0 c -4.981,0 -9.489,-1.263 -9.489,-5.827 m -46.764,-0.048 v -7.063 c 0,-3.688 4.802,-4.83 9.738,-4.83 v 0 c 3.133,0 6.515,0.435 8.317,0.97 v 0 3.812 c -1.938,-0.656 -5.229,-1.092 -7.888,-1.092 v 0 c -3.133,0 -5.5,0.703 -5.5,2.209 v 0 1.504 c 2.05,-0.29 3.154,-0.461 4.8,-0.461 v 0 c 5.838,0 9.4,1.481 9.4,4.248 v 0 1.431 c 0,2.111 -0.226,5.147 -9.061,5.147 v 0 c -7.664,0 -9.806,-2.307 -9.806,-5.875 m 4.667,-1.359 v 1.262 c 0,1.311 0.427,2.281 5.139,2.281 v 0 c 3.155,0 4.215,-0.314 4.215,-1.651 v 0 -0.485 c 0,-1.31 -1.556,-1.844 -4.375,-1.844 v 0 c -1.575,0 -3.016,0.17 -4.979,0.437 m -26.307,1.407 V 53.07 c 0,-3.809 1.915,-6.116 9.578,-6.116 v 0 c 8.836,0 9.356,3.01 9.356,5.146 v 0 3.084 c 0,1.431 -0.836,1.817 -2.075,1.817 v 0 h -7.371 v -3.25 h 4.8 v -1.457 c 0,-1.334 -1.577,-1.65 -4.71,-1.65 v 0 c -3.878,0 -4.913,0.678 -4.913,2.257 v 0 5.922 c 0,1.675 1.938,2.208 4.847,2.208 v 0 c 3.312,0 5.588,-0.389 8.137,-1.018 v 0 3.954 c -2.008,0.439 -4.418,0.755 -8.161,0.755 v 0 c -4.981,0 -9.488,-1.263 -9.488,-5.827 m -19.25,4.83 v -3.712 c 2.367,0.606 3.697,1.018 6.988,1.018 v 0 c 3.132,0 4.687,-0.728 4.687,-2.208 v 0 -1.432 c -1.736,0.291 -2.704,0.51 -5.139,0.51 v 0 c -6.243,0 -8.137,-1.844 -8.137,-4.635 v 0 -1.409 c 0,-2.136 0.586,-4.903 8.341,-4.903 v 0 c 7.641,0 9.602,2.307 9.602,5.873 v 0 7.064 c 0,3.665 -4.171,4.831 -9.105,4.831 v 0 c -3.088,0 -5.254,-0.462 -7.237,-0.997 m 2.795,-11.431 v 0.825 c 0,0.994 0.654,1.529 3.763,1.529 v 0 c 2.39,0 3.067,-0.218 5.117,-0.581 v 0 -1.531 c 0,-1.358 -1.036,-2.038 -4.89,-2.038 v 0 c -3.177,0 -3.99,0.462 -3.99,1.796 m 142.874,12.16 c -0.541,0 -0.967,-0.267 -1.308,-0.824 v 0 l -4.597,-7.573 h -0.022 -0.023 l -4.597,7.573 c -0.338,0.557 -0.766,0.824 -1.309,0.824 v 0 h -2.457 c -1.283,0 -1.532,-0.533 -1.62,-1.141 v 0 c -0.566,-3.762 -1.219,-9.757 -1.602,-15.924 v 0 h 4.373 c 0.135,3.667 0.383,8.497 0.766,11.653 v 0 h 0.045 l 5.004,-8.447 h 1.42 1.419 l 5.006,8.447 h 0.044 c 0.382,-3.156 0.63,-7.744 0.766,-11.653 v 0 h 4.373 c -0.383,6.167 -1.037,12.162 -1.601,15.924 v 0 c -0.09,0.608 -0.338,1.141 -1.623,1.141 v 0 z m -66.326,0 c -0.539,0 -0.97,-0.267 -1.307,-0.824 v 0 l -4.597,-7.573 h -0.023 -0.022 l -4.599,7.573 c -0.338,0.557 -0.766,0.824 -1.307,0.824 v 0 h -2.456 c -1.286,0 -1.534,-0.533 -1.624,-1.141 v 0 c -0.564,-3.762 -1.217,-9.757 -1.599,-15.924 v 0 h 4.37 c 0.136,3.667 0.383,8.497 0.767,11.653 v 0 h 0.045 l 5.006,-8.447 h 1.419 1.421 l 5.002,8.447 h 0.046 c 0.382,-3.156 0.63,-7.744 0.766,-11.653 v 0 h 4.373 c -0.385,6.167 -1.036,12.162 -1.601,15.924 v 0 c -0.09,0.608 -0.338,1.141 -1.623,1.141 v 0 z"
               style="fill:url(#linearGradient3371);stroke:none"
               id="path3373"
               inkscape:connector-curvature="0" />
          </g>
        </g>
      </g>
    </g>
  </g>
</svg>
