<svg xmlns="http://www.w3.org/2000/svg" viewBox="0 0 290.835 57.025"><defs><clipPath id="a"><path d="M36.992 766.056h218.127v42.77H36.992z"/></clipPath></defs><text style="-inkscape-font-specification:SourceSansPro-Regular" transform="matrix(1.33333 0 0 1.33333 164 1024.25)" font-weight="400" font-size="9" font-family="Source Sans Pro" fill="#fff"><tspan y="0" x="0 4.8060002 9.9449997 15.813 20.187 24.93 27.297001 31.743 36.486 42.308998 47.601002 52.362 58.167 62.91 68.030998 69.831001 74.925003 80.045998 86.022003 91.556999 97.362 102.339 106.821 111.627 113.427 118.665 123.3">SCHLEIFENBAUER PRODUCTS BV</tspan></text><text style="-inkscape-font-specification:HelveticaNeue-Light" transform="matrix(1.33333 0 0 1.33333 330.785 1024.25)" font-weight="300" font-size="7" font-family="GSGEOZ +HelveticaNeue-Light" fill="#fff"><tspan y="0" x="0 3.5">•</tspan></text><text style="-inkscape-font-specification:SourceSansPro-Regular" transform="matrix(1.33333 0 0 1.33333 338.047 1024.25)" font-weight="400" font-size="9" font-family="Source Sans Pro" fill="#fff"><tspan y="0" x="0 6.4619999 12.924 19.025999 21.267 25.038 29.142 34.037998 36.333 40.797001 43.011002 45.549 50.013 54.936001 59.786999 64.322998 69.219002 73.682999 76.302002 78.444 82.907997 87.804001">www.schleifenbauer.eu</tspan></text><text style="-inkscape-font-specification:HelveticaNeue-Light" transform="matrix(1.33333 0 0 1.33333 457.492 1024.25)" font-weight="300" font-size="7" font-family="GSGEOZ +HelveticaNeue-Light" fill="#fff"><tspan y="0" x="0 3.5">•</tspan></text><text style="-inkscape-font-specification:SourceSansPro-Regular" transform="matrix(1.33333 0 0 1.33333 464.754 1024.25)" font-weight="400" font-size="9" font-family="Source Sans Pro" fill="#fff"><tspan y="0" x="0 2.214 7.1370001 9.684 14.562 22.184999 25.955999 30.059999 34.956001 37.250999 41.715 43.929001 46.476002 50.939999 55.862999 60.714001 65.25 70.146004 74.610001 77.220001 79.371002 83.834999 88.731003">info@schleifenbauer.eu</tspan></text><g clip-path="url(#a)" transform="matrix(1.33333 0 0 -1.33333 -49.323 1078.433)"><path d="M72.358 803.616a2.955 2.955 0 0 0-.27-.014c-6.494 0-10.769-3.245-13.932-11.456-3.762-9.912-5.214-16.58-14.362-16.58-1.538 0-2.392 1.196-2.392 2.48 0 1.195.854 2.48 2.392 2.48 5.3 0 5.644 2.137 9.832 13.248 2.471 6.904 6.682 11.694 12.205 13.714a21.325 21.325 0 0 1-7.456 1.337c-11.807 0-21.383-9.572-21.383-21.382 0-6.467 2.87-12.255 7.408-16.178.082.011.171.011.266.011 6.408 0 10.684 3.25 13.846 11.455 3.765 9.922 5.302 16.584 14.361 16.584 1.624 0 2.478-1.199 2.478-2.395 0-1.367-.854-2.559-2.478-2.559-5.299 0-5.558-2.138-9.747-13.254-2.465-6.893-6.718-11.68-12.224-13.7a21.344 21.344 0 0 1 7.473-1.352c11.81 0 21.384 9.576 21.384 21.388 0 6.467-2.872 12.253-7.4 16.173" fill="#4cb7dd"/><path d="M87.83 789.326l1.142 1.327c.79-.74 1.849-1.243 2.857-1.243 1.244 0 1.916.554 1.916 1.41 0 .908-.706 1.194-1.697 1.614l-1.512.655c-1.076.454-2.218 1.312-2.218 2.924 0 1.748 1.545 3.092 3.696 3.092a4.853 4.853 0 0 0 3.378-1.395l-.992-1.243c-.705.587-1.445.94-2.386.94-1.041 0-1.73-.486-1.73-1.293 0-.856.839-1.176 1.747-1.545l1.496-.622c1.293-.555 2.217-1.378 2.217-2.975 0-1.78-1.478-3.26-3.95-3.26a5.693 5.693 0 0 0-3.964 1.614M97.592 793.375c0 3.596 2.251 5.73 5.023 5.73 1.38 0 2.487-.656 3.176-1.395l-1.042-1.26c-.57.571-1.226.957-2.083.957-1.798 0-3.075-1.512-3.075-3.982 0-2.503 1.177-4.015 3.024-4.015.976 0 1.731.453 2.353 1.126l1.041-1.226c-.889-1.025-2.049-1.597-3.46-1.597-2.773 0-4.957 2.016-4.957 5.662M108.261 798.903h1.95v-4.42h4.452v4.42h1.95v-10.99h-1.95v4.874h-4.452v-4.873h-1.95zM119.82 798.903h1.95v-9.342h4.57v-1.647h-6.52zM128.675 798.903h6.62v-1.646h-4.671v-2.807h3.948v-1.646h-3.948v-3.243h4.839v-1.647h-6.788zM138.134 798.903h1.949v-10.989h-1.949zM143.276 798.903h6.637v-1.646h-4.688v-3.11h4v-1.645h-4v-4.588h-1.949zM152.265 798.903h6.62v-1.646h-4.671v-2.807h3.948v-1.646h-3.948v-3.243h4.839v-1.647h-6.788zM161.724 798.903h2l3.428-6.183 1.124-2.335h.068c-.084 1.125-.252 2.52-.252 3.747v4.77h1.865v-10.988h-1.999l-3.428 6.184-1.126 2.336h-.067c.084-1.16.253-2.487.253-3.714v-4.806h-1.866zM176.76 789.427c1.615 0 2.522.588 2.522 1.815 0 1.159-.876 1.663-2.522 1.663h-1.645v-3.478zm-.25 4.94c1.529 0 2.183.605 2.183 1.545 0 1.076-.722 1.479-2.152 1.479h-1.427v-3.024zm-3.344 4.536h3.512c2.268 0 3.93-.69 3.93-2.705 0-1.042-.57-2.05-1.528-2.386v-.067c1.21-.27 2.1-1.126 2.1-2.604 0-2.202-1.798-3.226-4.217-3.226h-3.797zM185.481 792.418h2.805l-.386 1.343c-.353 1.16-.673 2.42-.99 3.63h-.068a72 72 0 0 0-.975-3.63zm.286 6.485h2.284l3.58-10.988h-2.05l-.858 2.974h-3.696l-.858-2.974h-1.982zM193.143 792.736v6.167h1.949v-6.317c0-2.387.89-3.177 2.218-3.177 1.344 0 2.285.79 2.285 3.177v6.317h1.865v-6.167c0-3.613-1.595-5.024-4.15-5.024-2.537 0-4.167 1.411-4.167 5.024M204.618 798.903h6.62v-1.646h-4.672v-2.807h3.95v-1.646h-3.95v-3.243h4.84v-1.647h-6.788zM217.59 793.761c1.494 0 2.318.639 2.318 1.883 0 1.26-.824 1.697-2.319 1.697h-1.563v-3.58zm-3.513 5.142h3.713c2.286 0 4.034-.806 4.034-3.259 0-1.681-.875-2.689-2.186-3.143l2.621-4.587h-2.183l-2.37 4.302h-1.68v-4.302h-1.949zM89.14 781.75h.491l-1.408-7.12h3.355l-.093-.424h-3.847zM94.465 781.75h.492l-1.499-7.544h-.494zM96.356 781.75h.48l.39-4.464c.08-.824.17-1.682.23-2.531h.045c.41.827.846 1.729 1.27 2.53l2.325 4.465h.503l-3.961-7.544h-.572zM102.942 781.75h.492l-1.5-7.544h-.492zM105.829 781.75h.526l2.004-5.356.526-1.535h.046c.114.723.217 1.5.367 2.22l.927 4.67h.492l-1.512-7.543h-.502l-1.981 5.336-.55 1.59h-.045a43.07 43.07 0 0 0-.39-2.198l-.927-4.728h-.482zM111.762 777.046c0 2.278 1.42 4.842 3.94 4.842.857 0 1.418-.492 1.773-1.066l-.367-.263c-.297.516-.755.905-1.442.905-2.175 0-3.41-2.439-3.41-4.35 0-1.443.616-2.62 2.231-2.62.676 0 1.202.25 1.546.571l.481 2.416h-1.74l.091.411h2.21l-.63-3.067a2.986 2.986 0 0 0-2.015-.756c-1.786 0-2.668 1.224-2.668 2.977M122.37 781.75h3.984l-.092-.424h-3.492l-.607-3.055h2.954l-.091-.425h-2.931l-.732-3.64h-.494zM132.183 778.694c0 1.637-.607 2.77-2.014 2.77-1.936 0-3.047-2.427-3.047-4.2 0-1.639.596-2.77 2.004-2.77 1.934 0 3.057 2.425 3.057 4.2m-5.564-1.487c0 2.093 1.352 4.681 3.583 4.681 1.66 0 2.473-1.294 2.473-3.137 0-2.096-1.339-4.681-3.583-4.681-1.649 0-2.473 1.294-2.473 3.137M136.32 778.063c1.627 0 2.542.756 2.542 1.982 0 .938-.653 1.294-1.946 1.294h-1.283l-.63-3.276zm-1.086 3.686h1.9c1.362 0 2.22-.48 2.22-1.658 0-1.362-1.008-2.245-2.404-2.406l1.43-3.48h-.55l-1.395 3.447h-1.522l-.687-3.447h-.493zM145.542 781.304h-2.313l.092.446h5.116l-.09-.446h-2.313l-1.42-7.098h-.492zM150.034 781.75h.492l-.675-3.33h3.89l.677 3.33h.492l-1.511-7.544h-.491l.766 3.79h-3.893l-.754-3.79h-.493zM157.25 781.75h3.984l-.092-.424h-3.492l-.583-2.906h2.953l-.092-.424h-2.93l-.687-3.366h3.595l-.092-.424h-4.064zM166.574 777.892c1.809 0 2.747.698 2.747 2.06 0 .985-.675 1.387-1.958 1.387h-1.373l-.675-3.447zm-.984 3.857h1.98c1.385 0 2.243-.524 2.243-1.75 0-1.694-1.26-2.518-3.193-2.518h-1.397l-.641-3.276h-.492zM176.274 778.694c0 1.637-.608 2.77-2.015 2.77-1.935 0-3.046-2.427-3.046-4.2 0-1.639.596-2.77 2.004-2.77 1.935 0 3.057 2.425 3.057 4.2m-5.564-1.487c0 2.093 1.352 4.681 3.583 4.681 1.66 0 2.473-1.294 2.473-3.137 0-2.096-1.339-4.681-3.583-4.681-1.649 0-2.473 1.294-2.473 3.137M178.602 781.75h.492l-.023-4.453c-.034-.824-.022-1.648-.045-2.471h.045c.378.823.768 1.647 1.122 2.47l2.072 4.454h.504l.149-4.453c.034-.824.057-1.648.069-2.471h.045c.332.823.675 1.647 1.03 2.47l1.843 4.454h.505l-3.218-7.544h-.617l-.161 5.187c0 .595-.012 1.167 0 1.773h-.046c-.228-.606-.504-1.167-.766-1.773l-2.393-5.187h-.618zM188.019 781.75h3.984l-.092-.424h-3.492l-.583-2.906h2.953l-.092-.424h-2.931l-.686-3.366h3.595l-.092-.424h-4.065zM194.994 778.063c1.626 0 2.54.756 2.54 1.982 0 .938-.652 1.294-1.945 1.294h-1.283l-.63-3.276zm-1.088 3.686h1.9c1.363 0 2.222-.48 2.222-1.658 0-1.362-1.01-2.245-2.404-2.406l1.43-3.48h-.55l-1.396 3.447h-1.522l-.686-3.447h-.494zM204.215 781.304h-2.314l.093.446h5.116l-.091-.446h-2.312l-1.42-7.098h-.492zM213.02 778.694c0 1.637-.607 2.77-2.014 2.77-1.935 0-3.046-2.427-3.046-4.2 0-1.639.596-2.77 2.004-2.77 1.935 0 3.057 2.425 3.057 4.2m-5.564-1.487c0 2.093 1.352 4.681 3.584 4.681 1.659 0 2.472-1.294 2.472-3.137 0-2.096-1.34-4.681-3.583-4.681-1.65 0-2.473 1.294-2.473 3.137M218.866 774.619c2.244 0 3.526 1.889 3.526 4.167 0 1.523-.87 2.553-2.644 2.553h-.825l-1.34-6.72zm-.343 7.131h1.248c2.083 0 3.113-1.166 3.113-2.931 0-2.61-1.407-4.613-4.03-4.613h-1.831zM225.419 781.75h3.984l-.092-.424h-3.492l-.583-2.906h2.953l-.092-.424h-2.93l-.687-3.366h3.595l-.092-.424h-4.064zM231.306 781.75h.492l-1.408-7.12h3.355l-.093-.424h-3.846zM236.633 781.75h.492l-1.5-7.544h-.492zM238.523 781.75h.481l.39-4.464c.08-.824.17-1.682.228-2.531h.045c.412.827.847 1.729 1.271 2.53l2.325 4.465h.503l-3.96-7.544h-.574zM245.11 781.75h3.983l-.091-.424h-3.493l-.582-2.906h2.953l-.092-.424h-2.932l-.686-3.366h3.595l-.092-.424h-4.065zM252.084 778.063c1.626 0 2.541.756 2.541 1.982 0 .938-.653 1.294-1.946 1.294h-1.283l-.629-3.276zm-1.087 3.686h1.9c1.362 0 2.221-.48 2.221-1.658 0-1.362-1.008-2.245-2.404-2.406l1.43-3.48h-.55l-1.396 3.447h-1.522l-.687-3.447h-.493z" fill="#231f20"/></g></svg>
