<?xml version="1.0" encoding="UTF-8" standalone="no"?>
<svg
   xmlns:dc="http://purl.org/dc/elements/1.1/"
   xmlns:cc="http://creativecommons.org/ns#"
   xmlns:rdf="http://www.w3.org/1999/02/22-rdf-syntax-ns#"
   xmlns:svg="http://www.w3.org/2000/svg"
   xmlns="http://www.w3.org/2000/svg"
   viewBox="0 0 290.83477 57.025464"
   xml:space="preserve"
   id="svg2"
   version="1.1"><metadata
     id="metadata8"><rdf:RDF><cc:Work
         rdf:about=""><dc:format>image/svg+xml</dc:format><dc:type
           rdf:resource="http://purl.org/dc/dcmitype/StillImage" /><dc:title></dc:title></cc:Work></rdf:RDF></metadata><defs
     id="defs6"><clipPath
       id="clipPath264"
       clipPathUnits="userSpaceOnUse"><path
         id="path262"
         d="m 36.992,766.056 h 218.127 v 42.77 H 36.992 Z" /></clipPath></defs><g
     transform="matrix(1.3333333,0,0,-1.3333333,-49.322932,1078.4334)"
     id="g10"><text
       id="text156"
       style="font-variant:normal;font-weight:normal;font-stretch:normal;font-size:9px;font-family:'Source Sans Pro';-inkscape-font-specification:SourceSansPro-Regular;writing-mode:lr-tb;fill:#ffffff;fill-opacity:1;fill-rule:nonzero;stroke:none"
       transform="matrix(1,0,0,-1,159.9917,40.6369)"><tspan
         id="tspan154"
         y="0"
         x="0 4.8060002 9.9449997 15.813 20.187 24.93 27.297001 31.743 36.486 42.308998 47.601002 52.362 58.167 62.91 68.030998 69.831001 74.925003 80.045998 86.022003 91.556999 97.362 102.339 106.821 111.627 113.427 118.665 123.3">SCHLEIFENBAUER PRODUCTS BV </tspan></text>
<text
       id="text160"
       style="font-variant:normal;font-weight:300;font-stretch:normal;font-size:7px;font-family:'GSGEOZ +HelveticaNeue-Light';-inkscape-font-specification:HelveticaNeue-Light;writing-mode:lr-tb;fill:#ffffff;fill-opacity:1;fill-rule:nonzero;stroke:none"
       transform="matrix(1,0,0,-1,285.0811,40.6369)"><tspan
         id="tspan158"
         y="0"
         x="0 3.5">• </tspan></text>
<text
       id="text164"
       style="font-variant:normal;font-weight:normal;font-stretch:normal;font-size:9px;font-family:'Source Sans Pro';-inkscape-font-specification:SourceSansPro-Regular;writing-mode:lr-tb;fill:#ffffff;fill-opacity:1;fill-rule:nonzero;stroke:none"
       transform="matrix(1,0,0,-1,290.5273,40.6369)"><tspan
         id="tspan162"
         y="0"
         x="0 6.4619999 12.924 19.025999 21.267 25.038 29.142 34.037998 36.333 40.797001 43.011002 45.549 50.013 54.936001 59.786999 64.322998 69.219002 73.682999 76.302002 78.444 82.907997 87.804001">www.schleifenbauer.eu </tspan></text>
<text
       id="text168"
       style="font-variant:normal;font-weight:300;font-stretch:normal;font-size:7px;font-family:'GSGEOZ +HelveticaNeue-Light';-inkscape-font-specification:HelveticaNeue-Light;writing-mode:lr-tb;fill:#ffffff;fill-opacity:1;fill-rule:nonzero;stroke:none"
       transform="matrix(1,0,0,-1,380.1113,40.6369)"><tspan
         id="tspan166"
         y="0"
         x="0 3.5">• </tspan></text>
<text
       id="text172"
       style="font-variant:normal;font-weight:normal;font-stretch:normal;font-size:9px;font-family:'Source Sans Pro';-inkscape-font-specification:SourceSansPro-Regular;writing-mode:lr-tb;fill:#ffffff;fill-opacity:1;fill-rule:nonzero;stroke:none"
       transform="matrix(1,0,0,-1,385.5576,40.6369)"><tspan
         id="tspan170"
         y="0"
         x="0 2.214 7.1370001 9.684 14.562 22.184999 25.955999 30.059999 34.956001 37.250999 41.715 43.929001 46.476002 50.939999 55.862999 60.714001 65.25 70.146004 74.610001 77.220001 79.371002 83.834999 88.731003">info@schleifenbauer.eu </tspan></text>
<g
       id="g258"><g
         clip-path="url(#clipPath264)"
         id="g260"><g
           transform="translate(72.3582,803.6161)"
           id="g266"><path
             id="path268"
             style="fill:#4cb7dd;fill-opacity:1;fill-rule:nonzero;stroke:none"
             d="m 0,0 c -0.089,-0.008 -0.176,-0.014 -0.27,-0.014 -6.494,0 -10.769,-3.245 -13.932,-11.456 -3.762,-9.912 -5.214,-16.58 -14.362,-16.58 -1.538,0 -2.392,1.196 -2.392,2.479 0,1.196 0.854,2.481 2.392,2.481 5.299,0 5.644,2.137 9.832,13.248 2.471,6.904 6.682,11.694 12.205,13.714 -2.322,0.864 -4.831,1.337 -7.456,1.337 -11.807,0 -21.383,-9.572 -21.383,-21.382 0,-6.467 2.869,-12.255 7.408,-16.178 0.082,0.011 0.171,0.011 0.266,0.011 6.408,0 10.684,3.25 13.846,11.455 3.765,9.922 5.302,16.584 14.361,16.584 1.624,0 2.478,-1.199 2.478,-2.395 0,-1.367 -0.854,-2.559 -2.478,-2.559 -5.299,0 -5.558,-2.138 -9.747,-13.254 -2.465,-6.893 -6.718,-11.68 -12.224,-13.701 2.327,-0.868 4.845,-1.351 7.473,-1.351 11.81,0 21.384,9.576 21.384,21.388 C 7.401,-9.706 4.529,-3.92 0,0" /></g><g
           transform="translate(87.8297,789.3257)"
           id="g270"><path
             id="path272"
             style="fill:#231f20;fill-opacity:1;fill-rule:nonzero;stroke:none"
             d="m 0,0 1.142,1.327 c 0.79,-0.739 1.849,-1.243 2.857,-1.243 1.244,0 1.916,0.554 1.916,1.411 0,0.907 -0.706,1.193 -1.697,1.613 L 2.706,3.763 C 1.63,4.217 0.488,5.075 0.488,6.687 c 0,1.748 1.545,3.092 3.696,3.092 1.277,0 2.521,-0.538 3.378,-1.395 L 6.57,7.141 C 5.865,7.728 5.125,8.082 4.184,8.082 3.143,8.082 2.454,7.595 2.454,6.788 2.454,5.932 3.293,5.612 4.201,5.243 L 5.697,4.621 C 6.99,4.066 7.914,3.243 7.914,1.646 7.914,-0.134 6.436,-1.613 3.965,-1.613 2.487,-1.613 1.042,-1.025 0,0" /></g><g
           transform="translate(97.5924,793.3745)"
           id="g274"><path
             id="path276"
             style="fill:#231f20;fill-opacity:1;fill-rule:nonzero;stroke:none"
             d="m 0,0 c 0,3.596 2.251,5.731 5.023,5.731 1.379,0 2.487,-0.656 3.176,-1.395 L 7.157,3.076 C 6.586,3.647 5.931,4.033 5.074,4.033 3.276,4.033 1.999,2.521 1.999,0.051 c 0,-2.504 1.177,-4.016 3.024,-4.016 0.976,0 1.731,0.453 2.353,1.126 L 8.417,-4.065 C 7.528,-5.09 6.368,-5.662 4.956,-5.662 2.184,-5.662 0,-3.646 0,0" /></g><g
           transform="translate(108.2615,798.9028)"
           id="g278"><path
             id="path280"
             style="fill:#231f20;fill-opacity:1;fill-rule:nonzero;stroke:none"
             d="M 0,0 H 1.949 V -4.419 H 6.402 V 0 H 8.351 V -10.989 H 6.402 v 4.873 H 1.949 v -4.873 H 0 Z" /></g><g
           transform="translate(119.8204,798.9028)"
           id="g282"><path
             id="path284"
             style="fill:#231f20;fill-opacity:1;fill-rule:nonzero;stroke:none"
             d="m 0,0 h 1.949 v -9.342 h 4.57 v -1.647 H 0 Z" /></g><g
           transform="translate(128.6748,798.9028)"
           id="g286"><path
             id="path288"
             style="fill:#231f20;fill-opacity:1;fill-rule:nonzero;stroke:none"
             d="M 0,0 H 6.62 V -1.646 H 1.949 V -4.453 H 5.897 V -6.099 H 1.949 v -3.243 h 4.839 v -1.647 H 0 Z" /></g><path
           id="path290"
           style="fill:#231f20;fill-opacity:1;fill-rule:nonzero;stroke:none"
           d="m 138.134,798.903 h 1.949 v -10.989 h -1.949 z" /><g
           transform="translate(143.2762,798.9028)"
           id="g292"><path
             id="path294"
             style="fill:#231f20;fill-opacity:1;fill-rule:nonzero;stroke:none"
             d="M 0,0 H 6.637 V -1.646 H 1.949 V -4.755 H 5.948 V -6.401 H 1.949 v -4.588 H 0 Z" /></g><g
           transform="translate(152.2646,798.9028)"
           id="g296"><path
             id="path298"
             style="fill:#231f20;fill-opacity:1;fill-rule:nonzero;stroke:none"
             d="M 0,0 H 6.62 V -1.646 H 1.949 V -4.453 H 5.897 V -6.099 H 1.949 v -3.243 h 4.839 v -1.647 H 0 Z" /></g><g
           transform="translate(161.7241,798.9028)"
           id="g300"><path
             id="path302"
             style="fill:#231f20;fill-opacity:1;fill-rule:nonzero;stroke:none"
             d="M 0,0 H 1.999 L 5.428,-6.183 6.552,-8.518 H 6.62 c -0.084,1.125 -0.252,2.52 -0.252,3.747 V 0 H 8.233 V -10.989 H 6.234 L 2.806,-4.805 1.68,-2.469 H 1.613 c 0.084,-1.16 0.253,-2.487 0.253,-3.714 v -4.806 H 0 Z" /></g><g
           transform="translate(176.7605,789.4268)"
           id="g304"><path
             id="path306"
             style="fill:#231f20;fill-opacity:1;fill-rule:nonzero;stroke:none"
             d="M 0,0 C 1.614,0 2.521,0.588 2.521,1.815 2.521,2.974 1.646,3.478 0,3.478 H -1.646 V 0 Z m -0.251,4.94 c 1.529,0 2.183,0.605 2.183,1.545 0,1.076 -0.721,1.479 -2.151,1.479 H -1.646 V 4.94 Z m -3.344,4.536 h 3.512 c 2.268,0 3.931,-0.689 3.931,-2.705 0,-1.042 -0.571,-2.05 -1.529,-2.386 V 4.318 c 1.211,-0.269 2.1,-1.126 2.1,-2.604 0,-2.202 -1.798,-3.226 -4.217,-3.226 h -3.797 z" /></g><g
           transform="translate(185.4812,792.4177)"
           id="g308"><path
             id="path310"
             style="fill:#231f20;fill-opacity:1;fill-rule:nonzero;stroke:none"
             d="M 0,0 H 2.805 L 2.419,1.343 C 2.066,2.503 1.746,3.763 1.428,4.973 H 1.361 C 1.058,3.747 0.739,2.503 0.386,1.343 Z M 0.286,6.485 H 2.57 L 6.149,-4.503 h -2.05 l -0.857,2.974 h -3.696 l -0.858,-2.974 h -1.982 z" /></g><g
           transform="translate(193.1425,792.7363)"
           id="g312"><path
             id="path314"
             style="fill:#231f20;fill-opacity:1;fill-rule:nonzero;stroke:none"
             d="M 0,0 V 6.167 H 1.949 V -0.15 c 0,-2.387 0.891,-3.177 2.218,-3.177 1.344,0 2.285,0.79 2.285,3.177 V 6.167 H 8.317 V 0 c 0,-3.613 -1.595,-5.024 -4.15,-5.024 C 1.63,-5.024 0,-3.613 0,0" /></g><g
           transform="translate(204.6181,798.9028)"
           id="g316"><path
             id="path318"
             style="fill:#231f20;fill-opacity:1;fill-rule:nonzero;stroke:none"
             d="M 0,0 H 6.62 V -1.646 H 1.948 V -4.453 H 5.897 V -6.099 H 1.948 v -3.243 h 4.84 v -1.647 H 0 Z" /></g><g
           transform="translate(217.5894,793.761)"
           id="g320"><path
             id="path322"
             style="fill:#231f20;fill-opacity:1;fill-rule:nonzero;stroke:none"
             d="M 0,0 C 1.495,0 2.319,0.639 2.319,1.883 2.319,3.143 1.495,3.58 0,3.58 H -1.563 V 0 Z m -3.512,5.142 h 3.713 c 2.286,0 4.034,-0.806 4.034,-3.259 0,-1.681 -0.875,-2.689 -2.186,-3.143 L 4.67,-5.847 H 2.487 l -2.37,4.302 h -1.68 v -4.302 h -1.949 z" /></g><g
           transform="translate(89.1391,781.7496)"
           id="g324"><path
             id="path326"
             style="fill:#231f20;fill-opacity:1;fill-rule:nonzero;stroke:none"
             d="M 0,0 H 0.492 L -0.916,-7.12 H 2.439 L 2.346,-7.544 h -3.847 z" /></g><g
           transform="translate(94.4653,781.7496)"
           id="g328"><path
             id="path330"
             style="fill:#231f20;fill-opacity:1;fill-rule:nonzero;stroke:none"
             d="M 0,0 H 0.492 L -1.007,-7.544 H -1.501 Z" /></g><g
           transform="translate(96.3558,781.7496)"
           id="g332"><path
             id="path334"
             style="fill:#231f20;fill-opacity:1;fill-rule:nonzero;stroke:none"
             d="M 0,0 H 0.481 L 0.87,-4.464 C 0.95,-5.288 1.041,-6.146 1.1,-6.995 h 0.045 c 0.411,0.827 0.846,1.729 1.27,2.531 L 4.74,0 H 5.243 L 1.282,-7.544 H 0.71 Z" /></g><g
           transform="translate(102.9417,781.7496)"
           id="g336"><path
             id="path338"
             style="fill:#231f20;fill-opacity:1;fill-rule:nonzero;stroke:none"
             d="M 0,0 H 0.492 L -1.007,-7.544 H -1.5 Z" /></g><g
           transform="translate(105.8286,781.7496)"
           id="g340"><path
             id="path342"
             style="fill:#231f20;fill-opacity:1;fill-rule:nonzero;stroke:none"
             d="M 0,0 H 0.526 L 2.53,-5.356 3.056,-6.891 h 0.046 c 0.114,0.723 0.217,1.5 0.367,2.221 L 4.396,0 H 4.888 L 3.376,-7.544 H 2.874 l -1.981,5.336 -0.55,1.591 H 0.298 C 0.182,-1.362 0.057,-2.106 -0.092,-2.816 l -0.927,-4.728 h -0.482 z" /></g><g
           transform="translate(111.7623,777.0464)"
           id="g344"><path
             id="path346"
             style="fill:#231f20;fill-opacity:1;fill-rule:nonzero;stroke:none"
             d="m 0,0 c 0,2.278 1.42,4.842 3.939,4.842 0.858,0 1.419,-0.492 1.774,-1.066 L 5.346,3.513 C 5.049,4.029 4.591,4.418 3.904,4.418 c -2.175,0 -3.411,-2.439 -3.411,-4.35 0,-1.443 0.617,-2.621 2.232,-2.621 0.676,0 1.202,0.251 1.546,0.572 L 4.752,0.435 H 3.011 L 3.103,0.846 H 5.312 L 4.683,-2.221 C 4.156,-2.68 3.492,-2.977 2.668,-2.977 0.882,-2.977 0,-1.753 0,0" /></g><g
           transform="translate(122.3698,781.7496)"
           id="g348"><path
             id="path350"
             style="fill:#231f20;fill-opacity:1;fill-rule:nonzero;stroke:none"
             d="M 0,0 H 3.984 L 3.892,-0.424 H 0.4 L -0.207,-3.479 H 2.747 L 2.656,-3.904 h -2.931 l -0.732,-3.64 h -0.494 z" /></g><g
           transform="translate(132.1832,778.694)"
           id="g352"><path
             id="path354"
             style="fill:#231f20;fill-opacity:1;fill-rule:nonzero;stroke:none"
             d="m 0,0 c 0,1.637 -0.607,2.77 -2.014,2.77 -1.936,0 -3.047,-2.427 -3.047,-4.2 0,-1.639 0.596,-2.77 2.004,-2.77 C -1.123,-4.2 0,-1.775 0,0 m -5.564,-1.487 c 0,2.093 1.352,4.681 3.583,4.681 1.66,0 2.473,-1.294 2.473,-3.137 0,-2.096 -1.339,-4.681 -3.583,-4.681 -1.649,0 -2.473,1.294 -2.473,3.137" /></g><g
           transform="translate(136.3209,778.0635)"
           id="g356"><path
             id="path358"
             style="fill:#231f20;fill-opacity:1;fill-rule:nonzero;stroke:none"
             d="m 0,0 c 1.626,0 2.541,0.756 2.541,1.982 0,0.938 -0.653,1.294 -1.946,1.294 H -0.688 L -1.317,0 Z m -1.087,3.686 h 1.9 c 1.362,0 2.221,-0.481 2.221,-1.658 0,-1.362 -1.009,-2.245 -2.405,-2.406 L 2.06,-3.858 H 1.51 l -1.396,3.447 h -1.522 l -0.687,-3.447 h -0.493 z" /></g><g
           transform="translate(145.5422,781.304)"
           id="g360"><path
             id="path362"
             style="fill:#231f20;fill-opacity:1;fill-rule:nonzero;stroke:none"
             d="m 0,0 h -2.313 l 0.092,0.446 H 2.895 L 2.804,0 H 0.492 l -1.42,-7.098 H -1.42 Z" /></g><g
           transform="translate(150.0337,781.7496)"
           id="g364"><path
             id="path366"
             style="fill:#231f20;fill-opacity:1;fill-rule:nonzero;stroke:none"
             d="M 0,0 H 0.492 L -0.183,-3.33 H 3.708 L 4.384,0 H 4.876 L 3.365,-7.544 H 2.874 l 0.766,3.79 h -3.893 l -0.754,-3.79 H -1.5 Z" /></g><g
           transform="translate(157.2502,781.7496)"
           id="g368"><path
             id="path370"
             style="fill:#231f20;fill-opacity:1;fill-rule:nonzero;stroke:none"
             d="M 0,0 H 3.984 L 3.892,-0.424 H 0.4 L -0.183,-3.33 H 2.77 L 2.678,-3.754 h -2.93 L -0.939,-7.12 H 2.656 L 2.564,-7.544 H -1.5 Z" /></g><g
           transform="translate(166.5739,777.8923)"
           id="g372"><path
             id="path374"
             style="fill:#231f20;fill-opacity:1;fill-rule:nonzero;stroke:none"
             d="m 0,0 c 1.809,0 2.747,0.698 2.747,2.06 0,0.985 -0.675,1.387 -1.958,1.387 H -0.584 L -1.259,0 Z m -0.984,3.857 h 1.98 c 1.385,0 2.243,-0.524 2.243,-1.75 0,-1.694 -1.259,-2.518 -3.193,-2.518 h -1.397 l -0.641,-3.276 h -0.492 z" /></g><g
           transform="translate(176.2742,778.694)"
           id="g376"><path
             id="path378"
             style="fill:#231f20;fill-opacity:1;fill-rule:nonzero;stroke:none"
             d="m 0,0 c 0,1.637 -0.608,2.77 -2.015,2.77 -1.935,0 -3.046,-2.427 -3.046,-4.2 0,-1.639 0.596,-2.77 2.004,-2.77 C -1.122,-4.2 0,-1.775 0,0 m -5.564,-1.487 c 0,2.093 1.352,4.681 3.583,4.681 1.66,0 2.473,-1.294 2.473,-3.137 0,-2.096 -1.339,-4.681 -3.583,-4.681 -1.649,0 -2.473,1.294 -2.473,3.137" /></g><g
           transform="translate(178.6018,781.7496)"
           id="g380"><path
             id="path382"
             style="fill:#231f20;fill-opacity:1;fill-rule:nonzero;stroke:none"
             d="M 0,0 H 0.492 L 0.469,-4.453 C 0.435,-5.277 0.447,-6.101 0.424,-6.924 h 0.045 c 0.378,0.823 0.768,1.647 1.122,2.471 L 3.663,0 H 4.167 L 4.316,-4.453 C 4.35,-5.277 4.373,-6.101 4.385,-6.924 H 4.43 c 0.332,0.823 0.675,1.647 1.03,2.471 L 7.303,0 H 7.808 L 4.59,-7.544 H 3.973 l -0.161,5.187 c 0,0.595 -0.012,1.167 0,1.773 H 3.766 C 3.538,-1.19 3.262,-1.751 3,-2.357 L 0.607,-7.544 h -0.618 z" /></g><g
           transform="translate(188.0186,781.7496)"
           id="g384"><path
             id="path386"
             style="fill:#231f20;fill-opacity:1;fill-rule:nonzero;stroke:none"
             d="M 0,0 H 3.984 L 3.892,-0.424 H 0.4 L -0.183,-3.33 H 2.77 L 2.678,-3.754 H -0.253 L -0.939,-7.12 H 2.656 L 2.564,-7.544 h -4.065 z" /></g><g
           transform="translate(194.9935,778.0635)"
           id="g388"><path
             id="path390"
             style="fill:#231f20;fill-opacity:1;fill-rule:nonzero;stroke:none"
             d="m 0,0 c 1.626,0 2.541,0.756 2.541,1.982 0,0.938 -0.653,1.294 -1.946,1.294 H -0.688 L -1.317,0 Z m -1.088,3.686 h 1.901 c 1.362,0 2.221,-0.481 2.221,-1.658 0,-1.362 -1.009,-2.245 -2.404,-2.406 l 1.431,-3.48 H 1.51 l -1.396,3.447 h -1.522 l -0.686,-3.447 h -0.494 z" /></g><g
           transform="translate(204.215,781.304)"
           id="g392"><path
             id="path394"
             style="fill:#231f20;fill-opacity:1;fill-rule:nonzero;stroke:none"
             d="m 0,0 h -2.314 l 0.093,0.446 H 2.895 L 2.804,0 H 0.492 l -1.42,-7.098 H -1.42 Z" /></g><g
           transform="translate(213.0209,778.694)"
           id="g396"><path
             id="path398"
             style="fill:#231f20;fill-opacity:1;fill-rule:nonzero;stroke:none"
             d="m 0,0 c 0,1.637 -0.608,2.77 -2.015,2.77 -1.935,0 -3.046,-2.427 -3.046,-4.2 0,-1.639 0.596,-2.77 2.004,-2.77 C -1.122,-4.2 0,-1.775 0,0 m -5.564,-1.487 c 0,2.093 1.352,4.681 3.584,4.681 1.659,0 2.472,-1.294 2.472,-3.137 0,-2.096 -1.339,-4.681 -3.583,-4.681 -1.649,0 -2.473,1.294 -2.473,3.137" /></g><g
           transform="translate(218.8656,774.619)"
           id="g400"><path
             id="path402"
             style="fill:#231f20;fill-opacity:1;fill-rule:nonzero;stroke:none"
             d="M 0,0 C 2.244,0 3.526,1.889 3.526,4.167 3.526,5.69 2.656,6.72 0.882,6.72 H 0.057 L -1.282,0 Z m -0.343,7.131 h 1.248 c 2.083,0 3.113,-1.166 3.113,-2.931 0,-2.61 -1.407,-4.613 -4.029,-4.613 h -1.832 z" /></g><g
           transform="translate(225.4187,781.7496)"
           id="g404"><path
             id="path406"
             style="fill:#231f20;fill-opacity:1;fill-rule:nonzero;stroke:none"
             d="M 0,0 H 3.984 L 3.892,-0.424 H 0.4 L -0.183,-3.33 H 2.77 L 2.678,-3.754 h -2.93 L -0.939,-7.12 H 2.656 L 2.564,-7.544 H -1.5 Z" /></g><g
           transform="translate(231.3064,781.7496)"
           id="g408"><path
             id="path410"
             style="fill:#231f20;fill-opacity:1;fill-rule:nonzero;stroke:none"
             d="M 0,0 H 0.492 L -0.916,-7.12 H 2.439 L 2.346,-7.544 H -1.5 Z" /></g><g
           transform="translate(236.6327,781.7496)"
           id="g412"><path
             id="path414"
             style="fill:#231f20;fill-opacity:1;fill-rule:nonzero;stroke:none"
             d="M 0,0 H 0.492 L -1.007,-7.544 H -1.5 Z" /></g><g
           transform="translate(238.5233,781.7496)"
           id="g416"><path
             id="path418"
             style="fill:#231f20;fill-opacity:1;fill-rule:nonzero;stroke:none"
             d="M 0,0 H 0.481 L 0.87,-4.464 c 0.08,-0.824 0.171,-1.682 0.229,-2.531 h 0.045 c 0.412,0.827 0.847,1.729 1.271,2.531 L 4.74,0 H 5.243 L 1.282,-7.544 H 0.709 Z" /></g><g
           transform="translate(245.1095,781.7496)"
           id="g420"><path
             id="path422"
             style="fill:#231f20;fill-opacity:1;fill-rule:nonzero;stroke:none"
             d="M 0,0 H 3.984 L 3.892,-0.424 H 0.4 L -0.183,-3.33 H 2.77 L 2.678,-3.754 H -0.253 L -0.939,-7.12 H 2.656 L 2.564,-7.544 h -4.065 z" /></g><g
           transform="translate(252.0843,778.0635)"
           id="g424"><path
             id="path426"
             style="fill:#231f20;fill-opacity:1;fill-rule:nonzero;stroke:none"
             d="m 0,0 c 1.626,0 2.541,0.756 2.541,1.982 0,0.938 -0.653,1.294 -1.946,1.294 H -0.688 L -1.317,0 Z m -1.087,3.686 h 1.9 c 1.362,0 2.221,-0.481 2.221,-1.658 0,-1.362 -1.008,-2.245 -2.404,-2.406 l 1.43,-3.48 H 1.51 l -1.396,3.447 h -1.522 l -0.687,-3.447 h -0.493 z" /></g></g></g></g></svg>
