<?xml version="1.0" encoding="UTF-8" standalone="no"?>
<svg
   viewBox="0 0 290.835 57.025"
   version="1.1"
   id="svg6"
   xmlns="http://www.w3.org/2000/svg"
   xmlns:svg="http://www.w3.org/2000/svg">
  <defs
     id="defs1">
    <clipPath
       id="a">
      <path
         d="M36.992 766.056h218.127v42.77H36.992z"
         id="path1" />
    </clipPath>
  </defs>
  <g
     clip-path="url(#a)"
     transform="matrix(1.33333 0 0 -1.33333 -49.323 1078.433)"
     id="g6">
    <path
       d="m 72.358,803.616 a 2.955,2.955 0 0 0 -0.27,-0.014 c -6.494,0 -10.769,-3.245 -13.932,-11.456 -3.762,-9.912 -5.214,-16.58 -14.362,-16.58 -1.538,0 -2.392,1.196 -2.392,2.48 0,1.195 0.854,2.48 2.392,2.48 5.3,0 5.644,2.137 9.832,13.248 2.471,6.904 6.682,11.694 12.205,13.714 a 21.325,21.325 0 0 1 -7.456,1.337 c -11.807,0 -21.383,-9.572 -21.383,-21.382 0,-6.467 2.87,-12.255 7.408,-16.178 0.082,0.011 0.171,0.011 0.266,0.011 6.408,0 10.684,3.25 13.846,11.455 3.765,9.922 5.302,16.584 14.361,16.584 1.624,0 2.478,-1.199 2.478,-2.395 0,-1.367 -0.854,-2.559 -2.478,-2.559 -5.299,0 -5.558,-2.138 -9.747,-13.254 -2.465,-6.893 -6.718,-11.68 -12.224,-13.7 a 21.344,21.344 0 0 1 7.473,-1.352 c 11.81,0 21.384,9.576 21.384,21.388 0,6.467 -2.872,12.253 -7.4,16.173"
       fill="#4cb7dd"
       id="path5"
       style="display:inline" />
    <path
       d="m 87.83,789.326 1.142,1.327 c 0.79,-0.74 1.849,-1.243 2.857,-1.243 1.244,0 1.916,0.554 1.916,1.41 0,0.908 -0.706,1.194 -1.697,1.614 l -1.512,0.655 c -1.076,0.454 -2.218,1.312 -2.218,2.924 0,1.748 1.545,3.092 3.696,3.092 a 4.853,4.853 0 0 0 3.378,-1.395 L 94.4,796.467 c -0.705,0.587 -1.445,0.94 -2.386,0.94 -1.041,0 -1.73,-0.486 -1.73,-1.293 0,-0.856 0.839,-1.176 1.747,-1.545 l 1.496,-0.622 c 1.293,-0.555 2.217,-1.378 2.217,-2.975 0,-1.78 -1.478,-3.26 -3.95,-3.26 a 5.693,5.693 0 0 0 -3.964,1.614 m 9.762,4.049 c 0,3.596 2.251,5.73 5.023,5.73 1.38,0 2.487,-0.656 3.176,-1.395 l -1.042,-1.26 c -0.57,0.571 -1.226,0.957 -2.083,0.957 -1.798,0 -3.075,-1.512 -3.075,-3.982 0,-2.503 1.177,-4.015 3.024,-4.015 0.976,0 1.731,0.453 2.353,1.126 l 1.041,-1.226 c -0.889,-1.025 -2.049,-1.597 -3.46,-1.597 -2.773,0 -4.957,2.016 -4.957,5.662 m 10.669,5.528 h 1.95 v -4.42 h 4.452 v 4.42 h 1.95 v -10.99 h -1.95 v 4.874 h -4.452 v -4.873 h -1.95 z m 11.559,0 h 1.95 v -9.342 h 4.57 v -1.647 h -6.52 z m 8.855,0 h 6.62 v -1.646 h -4.671 v -2.807 h 3.948 v -1.646 h -3.948 v -3.243 h 4.839 v -1.647 h -6.788 z m 9.459,0 h 1.949 v -10.989 h -1.949 z m 5.142,0 h 6.637 v -1.646 h -4.688 v -3.11 h 4 v -1.645 h -4 v -4.588 h -1.949 z m 8.989,0 h 6.62 v -1.646 h -4.671 v -2.807 h 3.948 v -1.646 h -3.948 v -3.243 h 4.839 v -1.647 h -6.788 z m 9.459,0 h 2 l 3.428,-6.183 1.124,-2.335 h 0.068 c -0.084,1.125 -0.252,2.52 -0.252,3.747 v 4.77 h 1.865 v -10.988 h -1.999 l -3.428,6.184 -1.126,2.336 h -0.067 c 0.084,-1.16 0.253,-2.487 0.253,-3.714 v -4.806 h -1.866 z m 15.036,-9.476 c 1.615,0 2.522,0.588 2.522,1.815 0,1.159 -0.876,1.663 -2.522,1.663 h -1.645 v -3.478 z m -0.25,4.94 c 1.529,0 2.183,0.605 2.183,1.545 0,1.076 -0.722,1.479 -2.152,1.479 h -1.427 v -3.024 z m -3.344,4.536 h 3.512 c 2.268,0 3.93,-0.69 3.93,-2.705 0,-1.042 -0.57,-2.05 -1.528,-2.386 v -0.067 c 1.21,-0.27 2.1,-1.126 2.1,-2.604 0,-2.202 -1.798,-3.226 -4.217,-3.226 h -3.797 z m 12.315,-6.485 h 2.805 l -0.386,1.343 c -0.353,1.16 -0.673,2.42 -0.99,3.63 h -0.068 a 72,72 0 0 0 -0.975,-3.63 z m 0.286,6.485 h 2.284 l 3.58,-10.988 h -2.05 l -0.858,2.974 h -3.696 l -0.858,-2.974 h -1.982 z m 7.376,-6.167 v 6.167 h 1.949 v -6.317 c 0,-2.387 0.89,-3.177 2.218,-3.177 1.344,0 2.285,0.79 2.285,3.177 v 6.317 h 1.865 v -6.167 c 0,-3.613 -1.595,-5.024 -4.15,-5.024 -2.537,0 -4.167,1.411 -4.167,5.024 m 11.475,6.167 h 6.62 v -1.646 h -4.672 v -2.807 h 3.95 v -1.646 h -3.95 v -3.243 h 4.84 v -1.647 h -6.788 z m 12.972,-5.142 c 1.494,0 2.318,0.639 2.318,1.883 0,1.26 -0.824,1.697 -2.319,1.697 h -1.563 v -3.58 z m -3.513,5.142 h 3.713 c 2.286,0 4.034,-0.806 4.034,-3.259 0,-1.681 -0.875,-2.689 -2.186,-3.143 l 2.621,-4.587 h -2.183 l -2.37,4.302 h -1.68 v -4.302 h -1.949 z M 89.14,781.75 h 0.491 l -1.408,-7.12 h 3.355 l -0.093,-0.424 h -3.847 z m 5.325,0 h 0.492 l -1.499,-7.544 h -0.494 z m 1.891,0 h 0.48 l 0.39,-4.464 c 0.08,-0.824 0.17,-1.682 0.23,-2.531 h 0.045 c 0.41,0.827 0.846,1.729 1.27,2.53 l 2.325,4.465 h 0.503 l -3.961,-7.544 h -0.572 z m 6.586,0 h 0.492 l -1.5,-7.544 h -0.492 z m 2.887,0 h 0.526 l 2.004,-5.356 0.526,-1.535 h 0.046 c 0.114,0.723 0.217,1.5 0.367,2.22 l 0.927,4.67 h 0.492 l -1.512,-7.543 h -0.502 l -1.981,5.336 -0.55,1.59 h -0.045 a 43.07,43.07 0 0 0 -0.39,-2.198 l -0.927,-4.728 h -0.482 z m 5.933,-4.704 c 0,2.278 1.42,4.842 3.94,4.842 0.857,0 1.418,-0.492 1.773,-1.066 l -0.367,-0.263 c -0.297,0.516 -0.755,0.905 -1.442,0.905 -2.175,0 -3.41,-2.439 -3.41,-4.35 0,-1.443 0.616,-2.62 2.231,-2.62 0.676,0 1.202,0.25 1.546,0.571 l 0.481,2.416 h -1.74 l 0.091,0.411 h 2.21 l -0.63,-3.067 a 2.986,2.986 0 0 0 -2.015,-0.756 c -1.786,0 -2.668,1.224 -2.668,2.977 m 10.608,4.704 h 3.984 l -0.092,-0.424 h -3.492 l -0.607,-3.055 h 2.954 l -0.091,-0.425 h -2.931 l -0.732,-3.64 h -0.494 z m 9.813,-3.056 c 0,1.637 -0.607,2.77 -2.014,2.77 -1.936,0 -3.047,-2.427 -3.047,-4.2 0,-1.639 0.596,-2.77 2.004,-2.77 1.934,0 3.057,2.425 3.057,4.2 m -5.564,-1.487 c 0,2.093 1.352,4.681 3.583,4.681 1.66,0 2.473,-1.294 2.473,-3.137 0,-2.096 -1.339,-4.681 -3.583,-4.681 -1.649,0 -2.473,1.294 -2.473,3.137 m 9.701,0.856 c 1.627,0 2.542,0.756 2.542,1.982 0,0.938 -0.653,1.294 -1.946,1.294 h -1.283 l -0.63,-3.276 z m -1.086,3.686 h 1.9 c 1.362,0 2.22,-0.48 2.22,-1.658 0,-1.362 -1.008,-2.245 -2.404,-2.406 l 1.43,-3.48 h -0.55 l -1.395,3.447 h -1.522 l -0.687,-3.447 h -0.493 z m 10.308,-0.445 h -2.313 l 0.092,0.446 h 5.116 l -0.09,-0.446 h -2.313 l -1.42,-7.098 h -0.492 z m 4.492,0.446 h 0.492 l -0.675,-3.33 h 3.89 l 0.677,3.33 h 0.492 l -1.511,-7.544 h -0.491 l 0.766,3.79 h -3.893 l -0.754,-3.79 h -0.493 z m 7.216,0 h 3.984 l -0.092,-0.424 h -3.492 l -0.583,-2.906 h 2.953 l -0.092,-0.424 h -2.93 l -0.687,-3.366 h 3.595 l -0.092,-0.424 h -4.064 z m 9.324,-3.858 c 1.809,0 2.747,0.698 2.747,2.06 0,0.985 -0.675,1.387 -1.958,1.387 h -1.373 l -0.675,-3.447 z m -0.984,3.857 h 1.98 c 1.385,0 2.243,-0.524 2.243,-1.75 0,-1.694 -1.26,-2.518 -3.193,-2.518 h -1.397 l -0.641,-3.276 h -0.492 z m 10.684,-3.055 c 0,1.637 -0.608,2.77 -2.015,2.77 -1.935,0 -3.046,-2.427 -3.046,-4.2 0,-1.639 0.596,-2.77 2.004,-2.77 1.935,0 3.057,2.425 3.057,4.2 m -5.564,-1.487 c 0,2.093 1.352,4.681 3.583,4.681 1.66,0 2.473,-1.294 2.473,-3.137 0,-2.096 -1.339,-4.681 -3.583,-4.681 -1.649,0 -2.473,1.294 -2.473,3.137 m 7.892,4.543 h 0.492 l -0.023,-4.453 c -0.034,-0.824 -0.022,-1.648 -0.045,-2.471 h 0.045 c 0.378,0.823 0.768,1.647 1.122,2.47 l 2.072,4.454 h 0.504 l 0.149,-4.453 c 0.034,-0.824 0.057,-1.648 0.069,-2.471 h 0.045 c 0.332,0.823 0.675,1.647 1.03,2.47 l 1.843,4.454 h 0.505 l -3.218,-7.544 h -0.617 l -0.161,5.187 c 0,0.595 -0.012,1.167 0,1.773 h -0.046 c -0.228,-0.606 -0.504,-1.167 -0.766,-1.773 l -2.393,-5.187 h -0.618 z m 9.417,0 h 3.984 l -0.092,-0.424 h -3.492 l -0.583,-2.906 h 2.953 l -0.092,-0.424 h -2.931 l -0.686,-3.366 h 3.595 l -0.092,-0.424 h -4.065 z m 6.975,-3.687 c 1.626,0 2.54,0.756 2.54,1.982 0,0.938 -0.652,1.294 -1.945,1.294 h -1.283 l -0.63,-3.276 z m -1.088,3.686 h 1.9 c 1.363,0 2.222,-0.48 2.222,-1.658 0,-1.362 -1.01,-2.245 -2.404,-2.406 l 1.43,-3.48 h -0.55 l -1.396,3.447 h -1.522 l -0.686,-3.447 h -0.494 z m 10.309,-0.445 h -2.314 l 0.093,0.446 h 5.116 l -0.091,-0.446 h -2.312 l -1.42,-7.098 h -0.492 z m 8.805,-2.61 c 0,1.637 -0.607,2.77 -2.014,2.77 -1.935,0 -3.046,-2.427 -3.046,-4.2 0,-1.639 0.596,-2.77 2.004,-2.77 1.935,0 3.057,2.425 3.057,4.2 m -5.564,-1.487 c 0,2.093 1.352,4.681 3.584,4.681 1.659,0 2.472,-1.294 2.472,-3.137 0,-2.096 -1.34,-4.681 -3.583,-4.681 -1.65,0 -2.473,1.294 -2.473,3.137 m 11.409,-2.588 c 2.244,0 3.526,1.889 3.526,4.167 0,1.523 -0.87,2.553 -2.644,2.553 h -0.825 l -1.34,-6.72 z m -0.343,7.131 h 1.248 c 2.083,0 3.113,-1.166 3.113,-2.931 0,-2.61 -1.407,-4.613 -4.03,-4.613 h -1.831 z m 6.896,0 h 3.984 l -0.092,-0.424 h -3.492 l -0.583,-2.906 h 2.953 l -0.092,-0.424 h -2.93 l -0.687,-3.366 h 3.595 l -0.092,-0.424 h -4.064 z m 5.887,0 h 0.492 l -1.408,-7.12 h 3.355 l -0.093,-0.424 h -3.846 z m 5.327,0 h 0.492 l -1.5,-7.544 h -0.492 z m 1.89,0 h 0.481 l 0.39,-4.464 c 0.08,-0.824 0.17,-1.682 0.228,-2.531 h 0.045 c 0.412,0.827 0.847,1.729 1.271,2.53 l 2.325,4.465 h 0.503 l -3.96,-7.544 h -0.574 z m 6.587,0 h 3.983 l -0.091,-0.424 h -3.493 l -0.582,-2.906 h 2.953 l -0.092,-0.424 h -2.932 l -0.686,-3.366 h 3.595 l -0.092,-0.424 h -4.065 z m 6.974,-3.687 c 1.626,0 2.541,0.756 2.541,1.982 0,0.938 -0.653,1.294 -1.946,1.294 h -1.283 l -0.629,-3.276 z m -1.087,3.686 h 1.9 c 1.362,0 2.221,-0.48 2.221,-1.658 0,-1.362 -1.008,-2.245 -2.404,-2.406 l 1.43,-3.48 h -0.55 l -1.396,3.447 h -1.522 l -0.687,-3.447 h -0.493 z"
       fill="#231f20"
       id="path6"
       style="display:inline" />
  </g>
</svg>
