<svg xmlns:svg="http://www.w3.org/2000/svg" xmlns="http://www.w3.org/2000/svg" viewBox="0 0 160 39.4" version="1.1"><style>.s0{fill:#979e96;}.s1{fill:#fff;}</style><path d="m15.4 1.2c0.5-0.3 1-0.6 1.5-0.8 0.2 0.5 0.5 1 0.7 1.5-1.1 0.6-2.2 1.1-3.2 1.8-2.8 1.7-5.4 3.7-7.6 6.2-1.7 2-3.1 4.4-3.4 7.1-0.1 1.6 0.2 3.3 1.2 4.6 0.9 1.1 2.3 1.9 3.7 2.1 1.6 0.3 3.3 0.1 4.8-0.3 3.1-0.8 5.9-2.3 8.6-3.9 1.6-1 3.2-2 4.5-3.4 0.5-0.6 0.9-1.3 0.9-2.1 0-0.6-0.4-1.2-0.9-1.4-0.5-0.3-1.2-0.4-1.8-0.3-0.8 0.2-1.6 0.6-2.4 1-2.3 1.2-4.3 2.8-6.6 4-1.4 0.7-2.9 1.4-4.5 1.4-1 0-2-0.4-2.6-1.2-0.5-0.6-0.7-1.3-0.6-2.1 0.1-1.2 0.6-2.4 1.3-3.3 1.3-1.8 3.1-3.1 5-4.2 3.2-2.1 6.7-3.8 10.4-4.8 2-0.5 4-0.8 6-0.7 2.9 0.1 5.8 1 8.2 2.7 2.8 2 4.9 5.2 5.1 8.7 0.3 2.9-0.6 5.8-1.9 8.4-1 2-2.4 3.8-3.9 5.4-1.2 1.3-2.5 2.5-3.8 3.6-1.7 1.5-3.6 2.8-5.5 4-1.9 1.2-4 2.2-6.1 3.1-0.6 0.3-1.3 0.6-1.9 0.8-0.4-1.8-1-3.6-1.4-5.4 1.7-0.8 3.4-1.5 5.1-2.4 1.9-1 3.7-2.3 5.4-3.6 1.5-1.2 2.9-2.4 4.2-3.8 2.2-2.3 4-5.3 4.4-8.5 0.1-1.2 0.1-2.3-0.2-3.5-0.7-2.4-2.4-4.5-4.7-5.7-1.9-1-4.1-1.4-6.2-1.2-3.1 0.2-6 1.4-8.7 2.8-1.3 0.7-2.5 1.4-3.7 2.2-1.2 0.7-2.3 1.5-3.2 2.6-0.4 0.5-0.7 1.1-0.7 1.7 0 0.4 0.3 0.9 0.7 1 0.7 0.3 1.5 0 2.2-0.3 3.3-1.6 6.1-4.1 9.6-5.3 1.7-0.6 3.7-0.7 5.4 0 1.4 0.6 2.5 1.9 2.8 3.4 0.1 0.9 0.1 1.8-0.2 2.6-0.5 1.3-1.3 2.4-2.3 3.4-1.2 1.2-2.6 2.2-4 3.1-2 1.1-3.9 2.4-6 3.3-1.8 0.8-3.8 1.5-5.7 2-2.2 0.6-4.5 0.7-6.7 0.2C4.5 27.2 2.7 26 1.7 24.3 0.8 22.9 0.4 21.2 0.4 19.6c0.1-1.9 0.5-3.8 1.3-5.5 1.4-2.9 3.5-5.5 6-7.6 2.4-2.1 5-3.9 7.8-5.4z" fill="#70bf4e"/><path d="m38.4 15c0-0.6 0-1.2 0-1.8 0.1 0.6 0.1 1.2 0 1.8zM53.8 14.7c1.2-0.7 2.6-0.7 3.9-0.4 0.7 0.1 1.3 0.6 1.8 1.1-0.4 0.4-0.8 0.8-1.3 1.2-0.8-1.1-2.5-1.3-3.6-0.6-0.7 0.5-0.9 1.6-0.4 2.3 0.5 0.6 1.3 0.8 2.1 1.1 0.9 0.2 1.9 0.5 2.6 1.3 0.7 0.7 0.8 1.7 0.7 2.6-0.1 1-0.7 1.9-1.6 2.4-0.9 0.5-1.9 0.7-2.9 0.6-1.2-0.1-2.4-0.6-3.1-1.6 0.4-0.4 0.9-0.8 1.3-1.1 0.9 1.3 2.9 1.7 4.1 0.7 0.7-0.5 0.9-1.6 0.3-2.3-0.6-0.6-1.5-0.8-2.3-1-0.9-0.3-1.8-0.7-2.4-1.5-0.5-0.6-0.6-1.5-0.6-2.3 0.1-1 0.7-1.8 1.5-2.3zM104.1 14.7c1.3-0.7 2.9-0.8 4.3-0.5 1.1 0.2 2.1 0.6 2.8 1.4-0.4 0.4-0.7 0.8-1.1 1.2-1.6-1.5-4.4-1.7-6-0.1-1.7 1.5-1.9 4.3-0.7 6.1 0.7 1 1.7 1.7 2.9 1.9 1.2 0.1 2.4 0 3.5-0.5 0-1.1 0-2.1 0-3.2-0.8 0-1.7 0-2.5 0 0-0.5 0-1 0-1.5 1.4 0 2.7 0 4.1 0 0 1.8 0 3.7 0 5.5 0 0.2-0.2 0.3-0.4 0.4-1.5 0.7-3.1 0.9-4.7 0.8-1.7-0.1-3.3-1-4.2-2.4-1-1.4-1.3-3.2-1-4.8 0.3-1.8 1.4-3.4 3.1-4.2zM68 14.3c2.5 0 4.9 0 7.4 0 0 0.5 0 1 0 1.5-2 0-3.9 0-5.9 0 0 1.1 0 2.3 0 3.4 1.8 0 3.6 0 5.4 0 0 0.5 0 1 0 1.5-1.8 0-3.6 0-5.4 0 0 1.2-0.1 2.4 0 3.6 0.4 0.1 0.9 0 1.3 0 1.6 0 3.2 0 4.8 0 0 0.5 0 1 0 1.5-2.6 0-5.1 0-7.7 0 0-3.8 0-7.7 0-11.5zM87.7 14.3c0.5 0 1 0 1.4 0 1.6 3.8 3.3 7.6 4.9 11.5-0.6 0-1.2 0.1-1.8 0-0.4-0.9-0.8-1.9-1.2-2.8-1.8 0-3.6 0-5.4 0-0.4 0.9-0.7 1.9-1.1 2.8-0.6 0-1.2 0-1.8 0 1.6-3.8 3.4-7.7 5-11.5zM124 14.3c0.5 0 1 0 1.4 0 1.6 3.8 3.3 7.6 4.9 11.5-0.6 0-1.2 0.1-1.8 0-0.5-0.9-0.8-1.9-1.2-2.8-1.8 0-3.6 0-5.4 0-0.4 0.9-0.7 1.9-1.1 2.8-0.6 0.1-1.2 0-1.8 0 1.7-3.8 3.4-7.7 5.1-11.5zM135.1 14.3c3 0 6 0 9 0 0 0.5 0 1 0 1.5-1.2 0-2.5 0-3.7 0 0 3.3 0 6.7 0 10-0.5 0-1 0-1.6 0 0-3.3 0-6.7 0-10-1.2 0-2.5 0-3.7 0 0-0.5 0-1 0-1.5zM151.9 14.3c2.5 0 4.9 0 7.4 0 0 0.5 0 1 0 1.5-1.9 0-3.9 0-5.8 0 0 1.1 0 2.3 0 3.4 1.8 0 3.6 0 5.5 0 0 0.5 0 1 0 1.5-1.8 0-3.6 0-5.5 0 0 1.2 0 2.4 0 3.6 2 0 4.1 0 6.1 0 0 0.5 0 1 0 1.5-2.6 0-5.1 0-7.7 0 0-3.8 0-7.7 0-11.5z" fill="#979e96"/><path d="m86.2 21.6c0.7-1.7 1.4-3.5 2.2-5.2 0.7 1.7 1.4 3.5 2.1 5.2-1.4 0-2.9 0-4.3 0zM122.5 21.6c0.7-1.7 1.4-3.5 2.2-5.2 0.7 1.7 1.4 3.5 2.1 5.2-1.4 0-2.9 0-4.3 0z" fill="#fff"/></svg>
