<svg xmlns="http://www.w3.org/2000/svg" viewBox="0 0 160 39.4"><path fill="#70bf4e" d="m15.4 1.2 1.5-.8.7 1.5q-1.7.8-3.2 1.8a32 32 0 0 0-7.6 6.2c-1.7 2-3.1 4.4-3.4 7.1q-.2 2.5 1.2 4.6a6 6 0 0 0 3.7 2.1q2.5.4 4.8-.3a33 33 0 0 0 13.1-7.3q.8-.9.9-2.1 0-1-.9-1.4t-1.8-.3q-1.2.3-2.4 1l-6.6 4q-2.1 1.2-4.5 1.4-1.6 0-2.6-1.2-.7-.9-.6-2.1.2-1.9 1.3-3.3 2-2.6 5-4.2 4.8-3.2 10.4-4.8 3-.8 6-.7 4.5.1 8.2 2.7c2.8 2 4.9 5.2 5.1 8.7q.2 4.4-1.9 8.4-1.6 3-3.9 5.4a43 43 0 0 1-15.4 10.7l-1.9.8-1.4-5.4 5.1-2.4a39 39 0 0 0 9.6-7.4c2.2-2.3 4-5.3 4.4-8.5q.2-1.7-.2-3.5a10 10 0 0 0-4.7-5.7q-3-1.5-6.2-1.2c-3.1.2-6 1.4-8.7 2.8a45 45 0 0 0-6.9 4.8q-.7.8-.7 1.7 0 .7.7 1 1.1.3 2.2-.3c3.3-1.6 6.1-4.1 9.6-5.3q2.7-1 5.4 0 2.2 1 2.8 3.4.2 1.4-.2 2.6a10 10 0 0 1-2.3 3.4 24 24 0 0 1-4 3.1q-3 1.8-6 3.3-2.8 1.2-5.7 2-3.4 1-6.7.2t-5-3.4a9 9 0 0 1-1.3-4.7q.1-2.9 1.3-5.5 2.2-4.4 6-7.6 3.6-3.1 7.8-5.4z"/><path fill="#979e96" d="M38.4 15v-1.8zm15.4-.3q1.9-1 3.9-.4 1 .3 1.8 1.1l-1.3 1.2c-.8-1.1-2.5-1.3-3.6-.6-.7.5-.9 1.6-.4 2.3q.8.8 2.1 1.1 1.5.2 2.6 1.3 1 1.1.7 2.6-.2 1.6-1.6 2.4a5 5 0 0 1-2.9.6 4 4 0 0 1-3.1-1.6l1.3-1.1c.9 1.3 2.9 1.7 4.1.7.7-.5.9-1.6.3-2.3q-1-.8-2.3-1-1.4-.4-2.4-1.5-.7-1-.6-2.3a3 3 0 0 1 1.5-2.3zm50.3 0q2-1 4.3-.5 1.7.3 2.8 1.4l-1.1 1.2c-1.6-1.5-4.4-1.7-6-.1-1.7 1.5-1.9 4.3-.7 6.1q1 1.5 2.9 1.9a7 7 0 0 0 3.5-.5V21h-2.5v-1.5h4.1V25q0 .3-.4.4-2.3 1-4.7.8-2.7-.2-4.2-2.4a6 6 0 0 1-1-4.8 6 6 0 0 1 3.1-4.2zM68 14.3h7.4v1.5h-5.9v3.4h5.4v1.5h-5.4v3.6h6.1v1.5h-7.7V14.3zm19.7 0h1.4L94 25.8h-1.8L91 23h-5.4l-1.1 2.8h-1.8zm36.3 0h1.4l4.9 11.5h-1.8l-1.2-2.8h-5.4l-1.1 2.8H119zm11.1 0h9v1.5h-3.7v10h-1.6v-10h-3.7zm16.8 0h7.4v1.5h-5.8v3.4h5.5v1.5h-5.5v3.6h6.1v1.5h-7.7z"/><path fill="#fff" d="m86.2 21.6 2.2-5.2 2.1 5.2zm36.3 0 2.2-5.2 2.1 5.2z"/></svg>