<svg xmlns="http://www.w3.org/2000/svg" viewBox="0 0 425.4 288.9"><g fill-rule="evenodd"><path fill="#b3d3ec" d="M405 253.8v35h20.4zM90.6 288.9H357V171L258.3 0zm309.3-43.1v43h-17.6l1.2-72.4zM378.4 209v80h-16.5V180z"/><path fill="#4e5459" d="M87 105.4a197 197 0 0 0-35.4-4.2c-31.3 0-51.6 15-51.6 41.4 0 21.7 12.8 33 27.4 40.8 24.2 13.3 49.2 21.4 49.2 44.4 0 18.8-13.1 28.8-33.8 28.8-16 0-32.5-7.4-41-11.4v20.4c4 1.2 18.6 5.1 37.9 5.1 32.3 0 58-14.4 58-46.6 0-21.4-8.8-29.1-26.7-41-21.5-14.2-52-21-52-44.8 0-14 11.7-24 28.8-24 16 0 31.8 6.8 39.2 10zm146.4 165.4h19.9v-79.3h66v79.3h20V105h-20v72.7h-66V105h-19.9zm-112.4 0h82.2v-14.2h-62.4v-65.5h57v-13.7h-57v-59.2H201V105h-80z"/></g></svg>