<svg xmlns="http://www.w3.org/2000/svg" viewBox="0 0 363.5 65.4"><path fill="#46565c" d="M6 47.6c-4.4-1.3-6-2.6-6-5 0-2.2 2.8-2.4 5.6-.4 2.8 2.2 9.7 2 11.8-.4q4-4.4-6.1-7.5C3.6 32 1 30 .3 25.7c-.4-2.9 0-4.2 2-6.5 2.1-2.5 3.2-2.9 8.8-3.2 7.2-.4 11.4 1.2 11.4 4.3q0 2-2 1.6c-8.8-1.4-13.1-1.3-14.5.3-2.2 2.8 0 4.8 7.1 7.2 6.3 2.2 10.9 6 10.9 9 0 .8-.6 3-1.4 4.8-2 5-8.6 6.7-16.6 4.4m93 0c-4.3-1.2-7-3.6-6.3-5.4s3.3-1.8 5.7.1c2.4 1.8 9.7 2 11.4.3.7-.7 1.2-2.2 1.2-3.5 0-1.8-1.1-2.6-5.5-4.3-3-1.1-6-2-6.4-2s-2-1-3.5-2.1c-2-1.6-2.6-3-2.6-5.8 0-4.2.5-5 4-7.4 4.9-3.4 19-1.2 19 2.9 0 1.6-2.1 2.2-4.5 1.3-3.6-1.4-11.2-1-12.6.6-2 2.5 0 4.5 7.2 7.2 9.8 3.6 13.1 8.6 9.3 14.1a15 15 0 0 1-10.6 5c-1.3 0-3.9-.5-5.8-1m23.1.2c-1.6-1-1.5-1.3 5.8-18a46 46 0 0 1 7.5-13.9c1.1-.2 2.7 2.2 5.6 8.3a151 151 0 0 1 6.5 15c3 6.6 3.2 8.6.4 8.6q-2 0-3.5-3.5l-1.4-3.5h-7.5c-7 0-7.5 0-8 2.4-.9 3.2-3.7 5.7-5.4 4.6M140 34.4a26 26 0 0 0-4.2-9.6c-1.2 0-5.1 9.6-4.4 10.8s8.6 0 8.6-1.2M161.2 48c-1-.6-1.3-4.2-1.3-12.8 0-6.6-.4-12.5-.7-13-.4-.7-2.8-1.3-5.2-1.5-3.7-.3-4.5-.7-4.5-2.3 0-2 .8-2 12.1-2.3 10-.2 12.3 0 13.4 1.3q2.8 3.2-5 3.7l-4.5.3-.3 12.6c-.3 12.8-1.1 15.8-4 14m21-.4c-1.7-1.6-1.6-29 0-30.5 1.5-1.5 12.9-1.6 18-.2 2 .6 4.4 2 5.3 3.2 2.2 3.1 2 9-.5 11.5-1.1 1.2-2 2.9-2 3.8s.9 3.4 2 5.7c2.3 4.9 2.5 6.4.7 7-2 .8-3-.2-6.3-6.7-3-6-3-6-7.7-6.3l-4.7-.3V39c0 7.6-2.1 11.2-4.9 8.5m18-18.4c4.5-4 .4-8.3-8-8.3H187v10h5.7q5.6 0 7.5-1.7M296 47.3q-1-1.3-.8-16.2c.3-14 .4-14.8 2.3-14.8s2 .7 2.3 15.6c.2 13 0 15.7-1.2 16.2-.8.3-2 0-2.6-.8m20.7 0a20 20 0 0 1-5.1-2.5c-2.5-2-4.6-7.7-4.6-12.5q-.1-9.6 7-14c3.4-2.4 4.7-2.7 9.6-2.3 4.3.3 6.1 1 8.2 3 2 2.2 2.4 3 1.4 4s-2 .8-4.7-.5c-9.8-4.7-18.1 1.9-16 12.6 1.2 6.8 9.5 10.7 15 7 5-3.2 8.3.3 3.5 3.8a17 17 0 0 1-14.3 1.5m27.6-.1c-4.3-1.6-6.1-4-4.3-5.8q1-1 4.5.7c6.2 2.9 13.5 1.7 13.5-2.2 0-2.6-1.7-3.8-8.5-6.1-7.7-2.7-9.5-4.4-9.5-9.2q0-10 14.1-8.6c5.4.5 8.5 2.7 7.6 5.2-.5 1.2-1.2 1.3-3.2.6a24 24 0 0 0-12-.4c-.8.3-1.5 1.6-1.5 2.8q0 3.3 10 6.2c7 1.9 10.2 7.2 7.6 12.2-1 1.7-2.5 3.6-3.6 4.1-3.4 1.9-10.3 2-14.7.5M30.6 45.5a98 98 0 0 1 .7-28c1-1.6 2.7-1.8 10.7-1.5 9 .2 9.5.4 9.8 2.5.3 2.2 0 2.3-7.7 2.3H36v9h5c4.3 0 5 .2 5 2 0 1.5-.8 2-4.7 2.2l-4.8.3-.3 4.2-.3 4.2 8.3.3c7.7.2 8.3.4 8.6 2.5.3 2.2.2 2.3-10.6 2.3-10.5 0-11-.1-11.6-2.3m29 1.6a185 185 0 0 1 0-29.8c1.2-3 3.4-1.4 11.4 9a59 59 0 0 0 8.8 10c.2-.2.4-4.2.3-8.8q-.2-8.4 1.2-10.1c3-4 3.7-1 3.7 15 0 14.6-.1 15.4-2 15.4q-1.9 0-9.6-10a44 44 0 0 0-8.5-9.5c-.5.3-.9 4.8-.9 10 0 8.5-.2 9.5-1.8 9.5-1 0-2.2-.3-2.5-.7m201 0a185 185 0 0 1 0-29.8c1.2-3 3.4-1.4 11.4 9a71 71 0 0 0 9 10.5c.6 0 1-4.7 1-10.5 0-8.3.3-10.5 1.4-10.5 3.1 0 3.7 2.6 3.4 17.1-.3 13.8-.4 14.4-2.4 14.4q-3-.1-14.7-15.8c-1.5-2-3.2-3.7-3.8-3.7s-.9 4.3-.9 10c0 9-.2 10-1.8 10-1 0-2.2-.3-2.5-.7"/><path fill="#d94e1f" d="M225.5 64.9c-4-1-9.5-4-12.2-6.4-2.1-2-2.2-2.2-.7-3.8 1.5-1.7 1.8-1.6 6 1.2a27 27 0 0 0 30.2-.1c4-2.9 4-2.9 5.8-1 1.7 2 1.7 2-.2 3.5a33 33 0 0 1-18.8 7 48 48 0 0 1-10.1-.4m3-16.8c-2.6-.7-7.3-5.1-9-8.5-3.5-6.6-.4-17 6.2-20.9 7.3-4.2 18-1.3 21.8 6 3.4 6.6 1 17.2-4.7 21.4-2.7 2-10.4 3-14.3 2m11-6.1c3-2.4 5.5-6.8 5.5-9.3 0-2.8-3.6-8.6-6-10-2-1-6.3-1.2-9.5-.4-3.1.9-6.5 6.5-6.5 10.9a11 11 0 0 0 10.6 10.5c2.2 0 4.8-.7 6-1.7m-27.4-31.6c-2-2.4 5.4-7.6 13.7-9.6 9.8-2.3 22.7.6 28.2 6.5 1.9 2 2 2.3.4 3.5q-1.6 1.5-3.2.1c-1-.6-4-2.3-7-3.7a27 27 0 0 0-26.2 2.5c-3.3 2.4-4.4 2.5-5.9.7"/></svg>