<svg xmlns="http://www.w3.org/2000/svg" viewBox="0 0 988 442"><path fill="#3db8d4" d="m246 292-14-112v-3h59v11h75v12h-75v39l60-1h59l1-31v-30h31v62h44v-55l6 25 6 27c1 3 1 3 22 3h22l1-4 6-28 5-24 1 28v28h44v-62h21v2q5 24 20 39c7 7 10 9 18 13q15 7 24 8 2 1 2-8l-1-7-5-1a57 57 0 0 1-43-46h32v18h15v-51h-15v18h-32v-4c4-21 21-38 42-43l7-2v-6l-1-8-18 4q-34 15-43 50l-2 9h-21v-62h-63l-8 30-8 30-8-30-8-30h-31l-31-1v63h-31v-12h-76v-12h76v-38H291v62h-31l-30-1L210 0l563 81-30 175z"/><path fill="#003469" d="M13 441q-10-4-12-15l-1-3h5q6-1 7 3l3 5q7 2 9-5 2-6-10-10-11-5-11-15 1-15 16-16 12 0 15 12l1 4h-6q-5 0-5-2c0-4-6-6-10-3q-5 5 9 12 14 6 12 16 0 9-7 14t-15 3m74-1q-22-5-22-29 1-12 9-19t18-7q12 1 16 6 2 4 2-1-1-4 5-3h6v53h-6q-6 1-5-4v-3l-4 3-5 4zm14-13c12-8 8-27-6-30q-9-1-15 7c-5 7-3 19 5 23q9 3 16 0m50 14q-21-7-21-31 1-14 16-23c6-3 17-3 24 1q16 9 15 27 2 2-22 2l-21 1c0 2 3 8 6 9 6 4 17 3 21-2l8-1h6l-3 5q-11 15-29 12m21-35q-1-4-7-9-12-4-19 4c-5 6-5 7 11 7q15 0 15-2m184 34q-10-4-15-14-4-4-4-13t3-13c11-20 40-20 50 0l2 5h-6c-6 1-6 1-10-3-13-14-33 2-24 20 4 9 19 10 25 2q2-4 8-3 9-1 5 5c-5 12-21 18-34 14m92 0c-17-5-25-25-16-41 7-12 23-18 36-11q9 4 13 13c7 14 2 30-12 37q-11 5-21 2m17-13q6-5 6-15 0-14-14-15-15-1-16 16 0 13 10 16 8 1 14-2m45 13c-16-4-25-23-18-38 5-11 17-19 28-17 14 2 25 14 25 27v5h-22c-23 0-23-1-20 6q5 7 14 7 8 0 12-5l8-1h6l-1 2c-6 12-20 18-32 14m22-34-4-6c-8-8-22-5-25 6-1 1 0 2 14 2 13 0 15-1 15-2m61 34q-10-4-15-14-4-4-4-13t3-13c7-13 23-18 36-13 4 2 12 9 14 14l3 10v6h-44l1 2q3 12 16 10 7 0 9-3 2-2 9-2h6q-1 4-7 10-9 8-18 7zm23-35q-2-5-8-8-9-4-17 3c-7 7-6 8 11 8h15Zm132 36q-12-4-18-15-3-5-3-13c0-8 1-10 3-14q9-14 24-14c17 0 28 12 28 28 0 15-10 27-25 28zm16-15q6-3 6-14c0-12-11-19-23-13-11 5-11 23 0 29q9 4 17-2m127 14c-17-4-25-24-18-39q5-10 14-14c13-5 28-1 35 11q7 9-3 8c-6 0-6-1-9-4-7-8-21-7-25 3q-5 9 0 17 6 7 14 8 8-2 12-7 0-2 8-2 8-1 5 2-3 10-14 16c-5 2-14 3-19 1m62 0c-15-3-25-19-21-35q5-15 21-19 12-3 20 4l3 3v-6h12v53h-12v-7l-3 3-4 3q-7 3-16 1m17-16q9-12 0-22-9-9-20-2c-6 3-8 15-4 21q4 9 14 7 7 1 10-4M45 413v-26h11v53H45Zm178 0v-26h12v6l3-3q4-5 12-4 9 0 16 6l3 3 2-3q6-6 14-6 9-1 14 5c5 5 6 10 6 31v18h-12v-18c-1-17-1-19-3-21-4-6-14-5-17 2-2 3-3 5-3 20v17h-12v-17c0-22-2-26-12-26q-8 0-10 8l-1 19v16h-12zm94 0v-26h11v53h-11zm84 0v-26h11v6l3-3q4-3 10-4l1 5q1 7-6 7-3 1-5 4c-2 3-2 5-2 20v18h-12zm153-9v-35h11v71h-11zm88 14v-21h-8v-10h8v-18h12v18h8v10h-8v43h-12zm31 0v-21h-8v-10h8v-18h12v18h8v10h-8v43h-12zm26-5v-26h6q8-1 6 2 0 4 2 1c2-2 8-4 9-4q2-1 2 5v5l-4 2c-8 2-9 4-9 24v18h-12Zm92 0v-26h6q8-1 6 2 0 4 3 1c4-5 14-6 22-2 9 4 11 11 11 38v14h-13v-18c0-22-1-25-11-25s-12 5-12 28v15h-12zm59 0v-26h12v53h-12zM45 375v-6h11v12H45Zm272 0v-6h11v12h-11zm533 0v-6h12v12h-12zM292 219v-18h75v-13h-75v-12H144v-13l74-1h73l1-31v-31h118v37h-75v14h75v12h32v-63h61l8 30 9 32c1 1 1-1 10-33l7-29h61v62h11l11 1 2-9c6-27 28-49 57-54l4-1v7l-1 7-5 1c-21 5-38 23-43 45v4h33v-19h14v50h-14v-18h-33l1 7q4 16 18 28c5 5 17 11 24 13l6 1v13l-5-1a70 70 0 0 1-57-57v-4h-23v62h-43v-29l-1-29-6 29-7 29h-42l-6-28-7-29c-1-1-1 11-1 27v30h-43v-62h-32v62H292zm113-25v-38h-76v-24h76v-26H297v76h75v24h-75v27h108zm75-1c0-39 0-39 2-40h3l9 40 10 39h33l9-39 9-40h3l3 1v79h32V106h-52l-1 2-21 73-19-75h-52v127h32z"/></svg>