<svg xmlns="http://www.w3.org/2000/svg" fill-rule="evenodd" clip-rule="evenodd" image-rendering="optimizeQuality" shape-rendering="geometricPrecision" text-rendering="geometricPrecision" viewBox="0 0 195.7 31.1"><path fill="#099" d="M193.4 1.1v5.8q-4.5-1.7-8-1.7-2 0-3.4.7-1.2.8-1.2 1.9 0 1.5 2.8 2.6l5.5 2.7q6.6 3 6.6 8.4 0 4.5-3.5 7a15 15 0 0 1-9.4 2.6 45 45 0 0 1-9.8-1.2v-6a29 29 0 0 0 9.2 1.7q5 0 5-3 0-1.4-2-2.3l-6.2-2.6q-3.3-1.5-5-3.7a8 8 0 0 1-1.6-5q0-4.2 3.4-6.6a15 15 0 0 1 9-2.4 33 33 0 0 1 8.6 1zM21 1.1v5.8q-4.5-1.7-8-1.7-2 0-3.4.7-1.2.8-1.2 1.9 0 1.5 2.8 2.6l5.5 2.7q6.6 3 6.6 8.4 0 4.5-3.5 7a15 15 0 0 1-9.4 2.6 45 45 0 0 1-9.8-1.2v-6q5.1 1.7 9.2 1.7 5 0 5-2.9 0-1.4-2-2.3l-6.2-2.6q-3.3-1.6-5-3.7A8 8 0 0 1 0 9q0-4 3.4-6.5Q6.7 0 12.4 0A33 33 0 0 1 21 1.1m6.3-.5h9v30h-9zm35.9 12.2v5H51.7v7h13.6v5.8H43V.6h22V6H51.7v6.7zm26.5 18.1h-5.1l-8.4-20.1v19.8h-6V.6h10.9l7.4 18.3L96.3.5h10.4v30.1h-8.4V10.8zm44-18.1v5h-11.5v7h13.5v5.8h-22.1V.6h21.8V6h-13.2v6.7zm12.9 17.8h-6V.6h9.8l10.3 18.9V.5h6v30.1h-9.4l-10.7-19.3z"/></svg>