<svg clip-rule="evenodd" fill-rule="evenodd" image-rendering="optimizeQuality" shape-rendering="geometricPrecision" text-rendering="geometricPrecision" viewBox="0 0 195.72321 31.140699" xmlns="http://www.w3.org/2000/svg"><g fill="#099"><path d="m193.43 1.1v5.8c-3.02-1.14-5.7-1.7-8.06-1.7-1.4 0-2.5.24-3.34.74-.83.5-1.26 1.13-1.26 1.86 0 .97.95 1.83 2.84 2.6l5.5 2.67c4.43 2.1 6.62 4.9 6.62 8.43 0 2.93-1.16 5.27-3.52 7-2.33 1.75-5.48 2.6-9.4 2.6-1.8 0-3.42-.07-4.86-.23-1.44-.15-3.1-.47-4.93-.93v-6.1c3.37 1.14 6.44 1.72 9.2 1.72 3.3 0 4.94-.97 4.94-2.9 0-.95-.67-1.73-2.04-2.34l-6.08-2.6c-2.25-1-3.92-2.23-5-3.7-1.1-1.46-1.63-3.15-1.63-5.08 0-2.7 1.12-4.87 3.37-6.52 2.26-1.64 5.26-2.46 9-2.46 1.2 0 2.6.1 4.16.3 1.56.22 3.06.47 4.5.8z"/><path d="m21.04 1.1v5.8c-3.02-1.14-5.7-1.7-8.06-1.7-1.4 0-2.5.24-3.34.74-.83.5-1.26 1.13-1.26 1.86 0 .97.95 1.83 2.85 2.6l5.48 2.67c4.43 2.1 6.63 4.9 6.63 8.43 0 2.93-1.17 5.27-3.5 7-2.36 1.75-5.5 2.6-9.42 2.6-1.8 0-3.42-.07-4.86-.23-1.44-.15-3.08-.47-4.93-.93v-6.1c3.37 1.16 6.44 1.76 9.17 1.76 3.3 0 4.94-.97 4.94-2.9 0-.95-.67-1.73-2.02-2.34l-6.1-2.6c-2.25-1-3.92-2.23-5-3.7-1.09-1.46-1.62-3.14-1.62-5.06 0-2.7 1.13-4.87 3.4-6.52 2.22-1.66 5.23-2.48 8.96-2.48 1.23 0 2.6.1 4.17.3 1.55.22 3.05.47 4.5.8z"/><path d="m27.32.55h8.92v30.05h-8.92z"/><path d="m63.24 12.76v5h-11.5v7h13.53v5.83h-22.12v-30.05h21.85v5.56h-13.26v6.66z"/><path d="m89.7 30.87h-5.15l-8.32-20.1v19.83h-6.03v-30.06h10.9l7.44 18.4 7.78-18.4h10.35v30.06h-8.33v-19.83z"/><path d="m133.73 12.76v5h-11.5v7h13.46v5.83h-22.14v-30.05h21.86v5.56h-13.2v6.66z"/><path d="m146.64 30.6h-6.02v-30.06h9.75l10.35 18.94v-18.94h6.02v30.06h-9.47l-10.63-19.3z"/></g></svg>