<svg xmlns="http://www.w3.org/2000/svg" viewBox="0 0 1351.412 441.321" fill-rule="evenodd" xmlns:v="https://vecta.io/nano"><path d="M390.575 1.565c13.7-3.38 28.61-1.2 40.87 5.72 18.38 10.07 29.849 31.04 28.699 51.94-13.6-2.24-27.06-5.68-40.869-6.36 13.48 3.83 26.67 8.63 39.94 13.12-.45 5.32-2.49 10.29-4.56 15.15l-1.92-.55c-1.399.309-2.69-.49-3.98-.83-30.91-11.01-62.54-19.93-94.549-27.091 23.039 11.761 48.009 19.011 71.799 29.041 7.501 3 14.871 6.3 22.25 9.589-3.35 3.88-6.81 7.83-11.16 10.611-28.48-12.78-58-23.45-88.149-31.61-3.48-12.82-1.781-26.85 4.03-38.74 7.3-14.87 21.389-26.35 37.6-29.99zm-39.87 74.71c3.09.61 6.03 1.76 8.91 3 21.44 8.44 42.52 18.159 61.71 30.99-13 4.059-27.52 3.609-40.07-1.83-13.98-5.98-25.36-17.84-30.55-32.16z" fill="#32ae49"/><path d="M525.915 4.985l109.249-.01-.079 147.55c-8.101-14.08-20.54-25.07-33.621-34.43-23.25-16.16-49.149-28.11-75.53-38.17l-.019-74.94zm352.778 0l109.194-.01.041 429.768c-36.415 0-72.825.03-109.234-.02V4.985zM48.547 55.375c29.38-23.061 66.979-33.031 103.779-34.99 42.67-1.94 86.41 3.26 125.709 20.74l-22.989 87.41c-30.86-13.751-64.84-20.981-98.659-18.99-11.93 1.029-24.52 3.719-33.75 11.87-7.401 6.5-10.07 17.73-6.27 26.84 3.66 8.671 12.15 13.78 20.07 18.071 16.311 8.419 33.7 14.44 50.8 21.03 23.87 8.689 47.301 19.759 66.92 36.139 17.09 14.13 30.48 33.14 36.13 54.73 6.621 25.2 5.341 52.54-4.02 76.899-6.691 17.091-17.56 32.521-31.35 44.63-14.32 12.83-31.58 22.01-49.589 28.52-20.54 7.27-42.201 10.98-63.89 12.41-25.759 1.6-51.719.23-77.09-4.56-22.099-4.26-44.19-9.98-64.349-20.21l20.61-90.509c15.72 8.099 32.57 13.859 49.68 18.219 20.6 5.081 41.88 8.02 63.129 7.2 13.58-.79 28.149-2.88 39.039-11.73 11.001-8.659 12.93-26.27 4.471-37.31-6.291-8.089-15.45-13.189-24.52-17.559-9.96-4.76-20.34-8.57-30.739-12.22-20.49-6.92-40.48-15.62-58.871-27.08-20.329-12.82-38.799-29.93-49.229-51.91-11.07-22.829-12.36-49.569-6.53-74.03 6.01-25.159 21.21-47.72 41.51-63.609zm404.188 25.21l1.92.55-.65.56-1.27-1.11zm73.22 13.47c15.23 7.379 29.97 15.909 43.57 26.009 12.34 9.3 24.02 20.081 31.539 33.76 6.17 10.991 8.631 24.26 5.45 36.58-4.179 16.99-15.819 30.9-28.309 42.63-15.74 14.411-33.72 26.17-52.29 36.57v-23.19c13.28-8.96 25.83-19.219 36.03-31.64 8.409-10.611 15.069-23.68 14.219-37.57-.399-15.94-10.139-29.82-21.23-40.51-8.79-8.339-18.619-15.51-29-21.74l.02-20.9zm178.359 42.749l130.56-.04-102.89 119.989 69.43 104.57 48.51 73.41c-44.88 0-89.76.07-134.64-.03l-58.529-113.56-18.58 24.75c-1.37 1.911-3.351 3.8-3.01 6.37v82.46l-109.23.03v-152.83c19.76-9.01 39.18-18.91 57.49-30.619 19.901-12.81 39.35-27.81 51.64-48.45.5 18.49-.43 37.04.44 55.51 5.04-9.07 9.35-18.529 14.47-27.56l54.339-93.999zm-355.098-.12l101.38.04c2.88 4.28 6.449 8.43 7.76 13.501l.079 42.009c.141 3.021-1.49 5.671-2.83 8.24-8.769 16.08-21.769 29.39-35.659 41.12-21.65 18.09-45.88 32.79-70.749 45.99l.019-150.9zm705.468 126.52l.01-126.52 109.203.031.041 159.528c.224 12.68 1.476 25.74 6.935 37.37 3.31 7.2 8.931 13.5 16.223 16.82 14.105 6.05 32.283 2.87 42.192-9.3 6.284-7.81 10.887-17.64 10.642-27.83l-.02-176.569 109.254-.05v167.519l.489 74.99c.214 18.531 1.242 37.04 1.762 55.56-31.305 0-62.601-.02-93.897.01l-4.797-39.37c-1.375.089-2.79.32-3.401 1.7-7.872 11.29-17.822 21.2-29.585 28.37-17.893 11.24-39.29 16.24-60.299 15.79-20.592.2-41.765-4.45-59.037-16.03-15.225-9.95-26.458-25.17-33.403-41.84-7.862-18.681-11.05-38.99-11.976-59.139-.652-20.341-.214-40.7-.336-61.04zm-528.689-121.11c9.551 10.441 17.301 23.63 17.411 38.16.1 15.09-7.86 28.799-17.421 39.93l.01-78.09zm-176.869 151.56c37.69-14.711 75.25-30.64 109.239-52.83l.141 28.57c-14.84 8.4-30.239 15.75-45.34 23.659l-53.759 27.9c33.54-11.2 66.779-23.48 99-38.07l-.031 20.95-32.26 16.49c11-2.91 21.52-7.39 32.33-10.93l-.06 125.359c-36.41-.04-72.81.05-109.219-.05l-.04-141.049z" fill="#2b2928"/></svg>
