<svg xmlns="http://www.w3.org/2000/svg" fill-rule="evenodd" viewBox="0 0 1351.4 441.3"><path fill="#32ae49" d="M390.6 1.6A56.5 56.5 0 0 1 460 59.2c-13.6-2.2-27-5.7-40.8-6.3 13.5 3.8 26.6 8.6 40 13a50 50 0 0 1-4.6 15.2l-2-.5c-1.4.3-2.7-.5-4-.8q-46.4-16.5-94.5-27.1c23 11.7 48 19 71.8 29q11.2 4.6 22.3 9.6a54 54 0 0 1-11.2 10.6 596 596 0 0 0-88.2-31.6 56.5 56.5 0 0 1 41.6-68.7m-39.9 74.7q4.5 1 9 3a323 323 0 0 1 61.6 31 56.4 56.4 0 0 1-70.6-34"/><path fill="#2b2928" d="M526 5h109.2l-.1 147.5a116 116 0 0 0-33.6-34.4 350 350 0 0 0-75.6-38.2zm352.7 0h109.2v429.7H878.7zM48.5 55.4c29.4-23 67-33 103.8-35 42.7-2 86.4 3.2 125.7 20.7l-23 87.4a213 213 0 0 0-98.6-19c-12 1-24.5 3.8-33.8 12a24 24 0 0 0-6.2 26.8c3.6 8.6 12.1 13.7 20 18 16.3 8.4 33.7 14.5 50.8 21a221 221 0 0 1 67 36.2c17 14.1 30.4 33.1 36 54.7a126 126 0 0 1-4 77 116 116 0 0 1-31.3 44.6 150 150 0 0 1-49.6 28.5c-20.5 7.2-42.2 11-63.9 12.4-25.7 1.6-51.7.2-77-4.6C42.1 432 20.1 426.1 0 416l20.6-90.5a235 235 0 0 0 49.7 18.2c20.6 5.1 41.9 8 63.1 7.2 13.6-.8 28.2-2.9 39-11.7 11-8.7 13-26.3 4.5-37.3a66 66 0 0 0-24.5-17.6 338 338 0 0 0-30.7-12.2 288 288 0 0 1-58.9-27 129 129 0 0 1-49.2-52A112 112 0 0 1 7 119a116 116 0 0 1 41.5-63.6m404.2 25.2 2 .5-.7.6zM526 94a262 262 0 0 1 43.5 26c12.4 9.3 24 20 31.6 33.7a50 50 0 0 1 5.4 36.6c-4.2 17-15.8 30.9-28.3 42.6a277 277 0 0 1-52.3 36.6v-23.2c13.3-9 25.8-19.2 36-31.6a57 57 0 0 0 14.3-37.6c-.4-16-10.2-29.8-21.3-40.5a166 166 0 0 0-29-21.7zm178.3 42.7H835l-103 120 69.5 104.5 48.5 73.4H715.3L656.8 321l-18.6 24.8c-1.4 1.9-3.4 3.8-3 6.4v82.4H525.9V282c19.8-9 39.2-18.9 57.5-30.6 20-12.8 39.4-27.8 51.7-48.4.5 18.4-.5 37 .4 55.5 5-9.1 9.4-18.6 14.5-27.6zm-355-.1h101.3c2.9 4.3 6.4 8.5 7.8 13.5v42c.2 3-1.5 5.7-2.8 8.3-8.8 16-21.8 29.4-35.7 41a407 407 0 0 1-70.7 46zm705.4 126.5V136.7h109.2v159.5a91 91 0 0 0 7 37.4 34 34 0 0 0 16.2 16.8c14.1 6 32.3 2.9 42.2-9.3a44 44 0 0 0 10.6-27.8V136.7h109.3v167.5l.5 75c.2 18.5 1.2 37 1.7 55.6h-93.9l-4.8-39.4q-2.3-.2-3.4 1.7a100 100 0 0 1-29.6 28.4 109 109 0 0 1-60.3 15.8c-20.6.2-41.7-4.5-59-16a92 92 0 0 1-33.4-42 173 173 0 0 1-12-59c-.6-20.4-.2-40.8-.3-61.1M526 142.1a59 59 0 0 1 17.4 38.2c.1 15-7.9 28.8-17.4 39.9zM349.1 293.7c37.7-14.8 75.3-30.7 109.3-52.9l.1 28.6c-14.8 8.4-30.2 15.7-45.3 23.7L359.4 321c33.5-11.2 66.8-23.5 99-38.1v21L426 320.2c11-2.9 21.5-7.4 32.3-11v125.5l-109.2-.1z"/></svg>