<svg xmlns="http://www.w3.org/2000/svg" xml:space="preserve" viewBox="0 0 2700 1123"><path d="M1829 1122q-51-12-92-61a377 377 0 0 1-58-103 959 959 0 0 1-61-231 1341 1341 0 0 1-18-243 2227 2227 0 0 1 6-174c2-31 6-58 8-61l78-1h77l7-4 19-8 15-5 2-1 5-2 6-1 7-2 8-1a246 246 0 0 1 75-1 277 277 0 0 1 50 13l34 17 3 2-2-17a2253 2253 0 0 0-32-200l-9-32q0-4 4 3l2 4V9q-1-5 3-4l2 1q0 2 3 1l5-2 3-2 3-1 1-1 1 2q-1 3 1 2l1-3q-1-3 2-1l1 3 1 4 3 7 3 9a978 978 0 0 1 32 190l5 55v10l11 11c10 11 27 32 33 44a289 289 0 0 1 27 70l2 9a255 255 0 0 1-6 102l-3 9-5 14a203 203 0 0 1-49 74l-9 9v24a1741 1741 0 0 1-29 256 1217 1217 0 0 1-31 109l-20 42-4 6-5 8-8 10-3 5a119 119 0 0 1-54 39c-7 3-10 3-26 3zm47-112c9-4 10-5 16-10a218 218 0 0 0 55-88 767 767 0 0 0 44-180l9-84-8 4a332 332 0 0 1-53 22l-21 4-10 2a281 281 0 0 1-89-6l-19-6-41-19v8l19 150a1789 1789 0 0 0 29 126l7 20 2 4c1 6 12 28 18 37q9 17 22 20c4 1 14-1 20-4m22-460 6-3h2l21-11q12-10 21-22c4-6 11-20 13-27a131 131 0 0 0 1-67l-1-2c0-4-10-23-15-30-9-12-29-29-34-27h-1q1-2-6-4l-4-1c-2-2-17-4-23-4a101 101 0 0 0-28 6l-19 10a102 102 0 0 0-37 55c-3 7-4 35-2 47 4 27 20 53 39 66a78 78 0 0 0 22 12l5 1 6 2c2 1 26 0 34-1M495 660a312 312 0 0 1-84-20c-16-6-34-16-45-25a191 191 0 0 1-51-70l-2-5-1-3-7-28-2-10c-2-4-2-59-1-71q6-66 40-107a173 173 0 0 1 94-58 393 393 0 0 1 158-5 221 221 0 0 1 61 20 170 170 0 0 1 83 97 219 219 0 0 1 12 45 335 335 0 0 1 5 57v19H458v4c2 16 4 24 8 34q17 33 69 32c13 0 25-2 25-3l2-1q6-2 17-11c4-5 11-16 11-19 0-4 0-4 79-4h76v2l-1 6-14 38-13 21c-6 7-25 26-33 31l-33 17a243 243 0 0 1-74 16c-6 1-71 2-82 1m103-247-1-7-2-10c-2-14-11-31-22-39a57 57 0 0 0-21-10c-1-2-22-4-35-2q-12 0-13 2l-4 1c-4 1-14 6-19 10l-9 9q-11 14-14 42v5h70zm330 247-34-6a155 155 0 0 1-77-44l-9-8h-1q1-2-3-7a192 192 0 0 1-27-65 325 325 0 0 1-4-109 282 282 0 0 1 22-86c4-9 12-22 20-30a136 136 0 0 1 71-45l34-6a401 401 0 0 1 69 3l7 1 6 2 8 3 21 8h1l5 4a88 88 0 0 1 24 19c1 3 2-2 2-91v-94h166l1 271-1 270h-77l-77 1v-4l-2-19-1-14-8 8a129 129 0 0 1-47 31l-10 3-21 4zm90-113q19-6 28-20c4-5 9-14 9-17l1-1 1-5 2-6c3-3 5-31 4-51-1-24-4-37-13-52-8-13-23-24-36-26l-10-2c-7-1-24 2-33 6a58 58 0 0 0-30 33l-1 4q-3 7-5 19l-2 13c-1 7-1 31 1 44q7 42 33 57l10 4 3 1c2 2 31 2 38-1M0 462V273h161l1 5 1 14 2 11v5l6-7a150 150 0 0 1 49-38c6-3 13-4 32-4s26 1 33 3c2 1 2 5 2 75v74h-3l-5-1-19-5-10-1a147 147 0 0 0-42 0q-26 10-39 32l-3 7v102l-1 104c0 1-8 2-83 2H0zm1399 187V378l1-269h165l1 271v270h-83c-66 1-83 0-84-1m734 0-1-189V273h163v3l1 11 1 13 1 8 6-7a174 174 0 0 1 87-46l10-1c5-2 31-3 43-1a174 174 0 0 1 46 10 142 142 0 0 1 40 25 152 152 0 0 1 29 42l3 7 8 33 1 143v136h-166V531a1061 1061 0 0 0-5-131l-1-3q-5-12-20-20a55 55 0 0 0-39 4 80 80 0 0 0-37 38l-4 7v223zm493-341-5-2q-13-2-27-14l-13-17c-3-5-6-15-6-18l-1-3c-2-1-1-13 1-22l3-12 2-4a63 63 0 0 1 38-31c1-2 22-5 25-4l9 2 6 2 3 1c9 2 24 15 31 25 6 10 8 17 8 33 0 14-1 19-4 25l-1 4a69 69 0 0 1-46 35zm25-13q18-6 27-20c8-12 9-15 9-31q0-14-2-15l-1-4-5-9a50 50 0 0 0-69-15q-4 3-3 4h-1c-2 0-10 9-13 14l-2 7-2 5c-2 2-2 24 0 27l2 7q2 5 3 4v1c0 2 6 11 11 15a52 52 0 0 0 21 11c1 1 20 1 25-1m-38-13a518 518 0 0 1 1-74 187 187 0 0 1 45 3q3 1 8 9c2 7 1 19-4 24q-5 4-11 6-3-1 0 3c5 7 17 26 17 28q2 3-6 1h-7l-5-6-10-16-5-8h-10v30zm35-44c6-2 8-11 3-16-3-3-2-3-16-3h-9v21h9zm-945-14-6-1q-36-6-60-32a103 103 0 0 1-17-119c5-9 6-10 12-11l3 1q0 3-3 2l-4 2h1q1-3 2 0l2 1 1 4q0 7-3 5-4-2-4 7c0 10 0 10 6 10l25 2 2-1c1-2 14-2 16 0q1 3 3-9l1-3 2 2h3l1-3 1-6v-8l1-2v-8l3 2 2 2v-3l1-8-3-1q-3 2-2-2v-3c-1 1-3-4-3-6l1-1v-2l-15-1q-13 0-12 1l1 1v4q-5 3-6 0l-1 1-2 5q1 4-4 4-4-1-4 4 1 6-3 5h-7q-10 3 3-11l17-14 3-1q-2-2 7-5l6-3q16-9 44-10 16 0 30 5l28 13q13 8 25 25a91 91 0 0 1 15 27l3 9a105 105 0 0 1-112 130m-57-125q1-2-3-2h-5q-4 4 4 3zm14 0q0-3-2-2-1 3 1 4zm17-1-3-1h-3q0 3 4 2zm-21 0q0-2-5-1v2q4 2 5-1m35-26-1 2 1 1zm-59 0-1 2 1 1zm62-1q0-4-1-1v4zm-63-3h-2v1zm64-24h-2v1zm-21 41q0-3 1-2v4q-1 1-1-2m-3-6 1-2zq-1 1-1-1m11 1v-1l1 1zm-3-3v2q-1 1-1-1m1-4 1-2zq-1 1-1-1m7-26v2q-1 1-1-1m-15-8q-1-1 1-1 3 1 1 2zm6-3v-1l2 1-1 1z"/><path fill="#e01f3e" d="M1828 1122q-49-12-91-61a377 377 0 0 1-58-103 959 959 0 0 1-61-231 1341 1341 0 0 1-18-243 2227 2227 0 0 1 6-174c2-31 6-58 8-61l78-1h77l7-4 19-8 15-5 2-1 5-2 6-1 7-2 8-1a246 246 0 0 1 74-1 277 277 0 0 1 50 13l35 17 3 2-2-17a2253 2253 0 0 0-32-200l-9-32q0-4 4 3l2 4V9q-1-5 2-4l3 1q0 2 3 1l5-2 3-2 3-1 1-1 1 2q-1 3 1 2l1-3q0-3 2-1l1 3 1 4 3 7 3 9a978 978 0 0 1 32 190l5 55v10l11 11c10 11 27 32 33 44a289 289 0 0 1 27 70l2 9a255 255 0 0 1-6 102l-3 9-5 14a203 203 0 0 1-49 74l-9 9v24a1741 1741 0 0 1-29 256 1217 1217 0 0 1-31 109l-20 42-4 6-5 8-8 10-4 5a119 119 0 0 1-54 39c-6 3-9 3-25 3zm48-112c9-4 10-5 16-10a218 218 0 0 0 55-88 767 767 0 0 0 44-180l9-84-8 4a332 332 0 0 1-54 22l-20 4-10 2a281 281 0 0 1-89-6l-20-6-40-19v8l19 150a1789 1789 0 0 0 29 126l7 20 2 4c1 6 12 28 18 37q9 17 22 20c4 1 14-1 20-4m21-454c-1-3 9 2 9 1l31 11c2 3-15-21-9-25 7-6 30-4 35-11 4-6-4-38-2-45 6-15 46-40 42-58 0-4-34-13-35-13l8-5c0-4 3-35-2-43-10-12-40-16-44-15-1 1 43-20-9-1-2 0 6-23 2-23-2-1-8 22-18 17-2-1-11-34-29-1-2 5-23-22-26-21l-2 28c-1 0-29-14-35-10-14 10-10 49-16 67-2 4-9 4-9 5-3 7-37 35-35 48 5 27 37 80 56 93 7 5 34-4 36-4l6-1c-9 4-2 6 0 6 2 1 3 6 4 6 2 2 54 26 51 19zm-194-332-6-1q-36-6-60-32a103 103 0 0 1-17-119c5-9 6-10 12-11l3 1q0 3-3 2l-4 2h1q1-3 2 0l2 1 1 4q0 7-3 5-4-2-4 7c0 10 0 10 6 10l25 2 2-1c1-2 14-2 16 0q1 3 3-9l1-3 2 2h3l1-3 1-6v-8l1-2v-8l3 2 2 2v-3l1-8-3-1q-3 2-2-2v-3c-1 1-3-4-3-6l1-1v-2l-15-1q-13 0-12 1l1 1v4q-5 3-6 0l-1 1-2 5q1 3-4 4-4-1-4 4 1 5-3 5h-7q-10 3 3-11l17-14 3-1q-3-2 7-5l6-3q16-9 44-10 16 0 30 5l28 13q13 8 25 25a91 91 0 0 1 15 27l3 9a105 105 0 0 1-112 130m-57-125q1-2-3-2h-5q-4 4 4 3zm14 0q0-3-2-2-1 3 1 4zm17-1-3-1h-3q0 3 4 2zm-21 0q0-2-5-1v2q4 2 5-1m35-26-1-1-1 2 1 1zm-59 0-1-1-1 2 1 1zm62-1q0-4-1-1v4zm-63-3h-2v1zm64-24h-2v1zm-21 41q0-3 1-2v4q-1 1-1-2m-3-6 1-2zq-1 1-1-1m10 1 1-1 1 1v1zm-2-3v2q-1 1-1-1m1-4 1-2zq-1 1-1-1m7-26v2q-1 1-1-1m-15-8q-1-1 1-1 3 1 1 2zm5-3 1-1 2 1-1 1z"/><path d="M1860 681q-48-4-90-27c-15-8-14-6-15-24l-2-32a2784 2784 0 0 1 10-279 535 535 0 0 1 16-68q3-4-4-4-10 2 4-6a232 232 0 0 1 312 119 232 232 0 0 1-231 321m37-130c35-9 61-39 69-78a121 121 0 0 0-7-66c-4-10-15-25-25-35a82 82 0 0 0-113 2 109 109 0 0 0-4 152q18 19 42 25c10 2 28 2 38 0"/></svg>