<svg xmlns="http://www.w3.org/2000/svg" viewBox="0 0 994 310"><path fill="#3563f3" d="M103 238c-7-1-9-2-51-26-41-24-45-27-49-38-3-6-3-6-3-52l1-51q2-11 9-19c5-4 76-46 86-50q12-4 23 0c8 2 83 46 87 50q7 8 10 19v96q-3 12-10 19l-43 27-42 23q-7 3-18 2m45-48 40-23 2-2v-46c0-41 0-45-2-47l-14-9-12-7-4 3-14 8-9 5v47l-1 47-26 15-26 16c1 2 23 15 26 15zm-79-16 13-8V72l26-15 27-16-27-15-79 45-2 2v46l1 47c1 2 25 16 26 16z"/><path fill="#1b154b" d="M957 307v-3h13l1-4q3-5-1-5l-15-38q0-3 3-2h4l3 10 9 24 6-13c7-22 7-21 10-21h4l-18 49q-3 6-14 6-6 1-5-3m-250-12q-10-4-13-15-1-4 3-3 4-1 5 4 4 8 14 9 5 1 9-2 9-7 1-15l-11-3-12-4q-7-3-7-13 2-15 20-15 8 0 12 3 8 5 8 12 0 3-4 2-4 1-3-2l-3-5c-7-7-23-3-23 6q-1 7 15 10 20 2 18 16 0 10-8 14c-4 2-16 2-21 1m46-1q-10-4-10-19 0-21 20-21 17 0 19 17v6h-17c-14 0-16 0-16 2l1 2 2 5c6 6 16 6 21 0l6-3q5 0 1 5c-5 7-18 10-27 6m22-26q-4-11-16-8-7 3-9 9c0 2 1 2 13 2h13zm25 27q-10-4-12-19c0-6 0-7 3-12q5-10 17-10 15 0 19 12 2 4-3 3-3 0-4-3-3-7-14-6-3 0-7 3c-4 4-4 4-4 12s0 8 4 12q3 4 9 3 6 1 9-3l4-6q-1-2 3-2 6-1 3 6-3 6-10 10zm43-1-6-6c-2-4-2-6-2-19v-14h7v29l3 3q7 6 16 0c4-3 5-7 5-21v-11h6v40h-3q-4 1-3-3 0-3-3-1c-4 5-14 6-20 3m39-19v-20h3q5-1 4 3v3l3-3q2-4 8-3 6-1 5 3 2 4-6 3l-8 3c-2 3-2 4-2 17v14h-7zm29 0v-20h6v40h-6zm26 19c-4-2-5-5-5-19v-14h-5q-5 1-4-3-1-4 4-3h5v-11h7v11h12v6h-12v28h12v3q2 4-6 3zm-28-51v-4h10v9h-10zm-104-13q-14-3-24-11-8-9-11-20v-4h20v4c1 5 10 13 17 15s20 3 26 1q16-6 21-20c2-6 2-22 1-22l-5 4c-12 12-36 14-55 5-7-3-17-13-21-20-7-16-7-37 0-51 10-19 30-29 52-26q14 1 24 11l7 5 3-7 2-7h12v53c-1 53-1 53-3 60q-8 26-35 30c-8 2-23 2-31 0m31-60q11-5 18-17c2-5 2-7 2-17s0-12-2-16q-6-12-16-16c-6-3-7-4-16-4-8 0-10 1-15 3q-12 5-16 16c-3 6-4 7-4 17s1 12 3 17q7 12 18 17c8 3 20 3 28 0m-329 52v-8h14l17-1q2 0 6-10l3-10-5-2-6-3c-2-2-35-96-35-100l9-1h9l15 45c13 38 16 44 17 44 2-1 5-9 17-45l15-44h9c9 0 9 0 9 2 0 3-39 115-43 123q-2 5-7 9c-7 6-11 7-29 8h-15Zm-200-30c-23-5-41-24-41-44v-4h19v5q3 17 19 25c7 3 24 4 33 1q20-5 20-24c-1-15-9-20-39-25-19-4-25-6-33-11q-19-15-14-41 5-15 21-24c10-4 17-5 30-5q32 0 46 21c3 5 6 14 6 19v3h-9l-10-1v-4q-2-10-11-16c-12-9-38-8-49 2-9 8-8 25 2 32 5 4 10 5 30 9 28 5 39 11 45 25 3 6 3 8 3 16 0 10 0 11-3 17q-2 7-6 10-7 7-21 13c-10 3-27 4-38 1m88-73V47h18v88l28-24 27-24h12c10 0 11 0 11 2l-23 21-22 20 45 59q2 3-10 2h-10l-19-25c-19-25-20-25-22-23l-9 8-8 6v34h-18zm220 0V47h18v26l1 27 5-4c7-9 23-13 37-11q29 5 34 32l1 40v34h-18v-34c0-40 0-42-8-50q-7-8-23-7-21 2-27 21c-2 6-2 9-2 38v32h-18zm119 20V87h17v104h-17Zm164-20V47h18v26l1 27 5-4c7-9 23-13 37-11q29 5 34 32l1 40v34h-18v-34c0-40 0-42-8-50q-7-8-23-7-21 2-27 21c-2 6-2 9-2 38v32h-18zM730 59V47h25v24h-25Z"/></svg>