<svg viewBox="0 0 492.79 89.305" xmlns="http://www.w3.org/2000/svg"><path d="m28.644 47.07c-1.376-1.072-2.92-1.993-4.633-2.76s-3.426-1.49-5.14-2.165c-1.346-.553-2.648-1.09-3.902-1.612-1.253-.52-2.37-1.12-3.35-1.796s-1.76-1.412-2.34-2.21c-.58-.8-.87-1.75-.87-2.856 0-1.044.274-1.95.827-2.716.55-.767 1.253-1.413 2.11-1.935.857-.52 1.85-.92 2.983-1.197s2.28-.416 3.443-.416c2.02.186 3.764.446 5.234.782 1.467.337 2.753.75 3.856 1.24 1.1.493 2.064 1.013 2.89 1.565.827.553 1.607 1.102 2.343 1.653 0-.92.013-1.823.046-2.712.03-.887-.047-1.944-.23-3.167-1.228-.73-2.362-1.35-3.405-1.868-1.043-.514-2.145-.924-3.31-1.228s-2.42-.517-3.77-.637-2.882-.183-4.595-.183c-2.21 0-4.325.277-6.347.83-2.023.55-3.816 1.362-5.378 2.435-1.566 1.073-2.806 2.373-3.726 3.906-.92 1.531-1.38 3.249-1.38 5.147 0 2.27.43 4.186 1.29 5.75.86 1.562 1.978 2.878 3.36 3.95 1.382 1.073 2.935 1.98 4.653 2.713 1.72.736 3.47 1.41 5.25 2.023 1.354.488 2.643.98 3.873 1.47 1.225.49 2.315 1.06 3.267 1.702.952.643 1.72 1.38 2.304 2.206.584.825.877 1.793.877 2.894 0 1.227-.277 2.297-.83 3.216-.553.92-1.322 1.704-2.304 2.347-.983.647-2.103 1.136-3.362 1.474-1.258.336-2.594.502-4.006.502-2.95.127-5.515-.056-7.694-.55-2.18-.492-4.406-1.534-6.678-3.127l.827 6.274c2.513.742 4.98 1.266 7.4 1.577 2.42.308 4.796.493 7.127.556 2.083 0 4.196-.262 6.342-.783 2.145-.52 4.075-1.335 5.79-2.44 1.717-1.107 3.113-2.533 4.186-4.285 1.072-1.748 1.61-3.82 1.61-6.216 0-2.15-.43-3.975-1.287-5.48-.857-1.507-1.974-2.795-3.35-3.87zm87.546-17.63c-1.823-2.092-4.187-3.708-7.09-4.847-2.906-1.14-6.428-1.71-10.565-1.71-3.895 0-7.307.6-10.24 1.798-2.936 1.2-5.394 2.944-7.37 5.23-1.794-2.162-4.14-3.814-7.046-4.96-2.905-1.14-6.458-1.714-10.66-1.714-7.476 0-13.208 2.17-17.193 6.512-3.986 4.34-5.977 10.27-5.977 17.78v21.731h10.59v-24.583c0-3.074.31-5.66.933-7.752.62-2.09 1.506-3.754 2.657-4.984 1.147-1.23 2.532-2.093 4.148-2.587 1.616-.49 3.387-.706 5.315-.645 1.925-.06 3.616.168 5.078.692 1.463.524 2.69 1.4 3.683 2.632.993 1.23 1.754 2.863 2.284 4.893s.794 4.553.794 7.568v24.766h10.593v-20.696c0-1.6-.03-2.645-.088-3.14-.06-.49-.09-.86-.09-1.105 0-3.076.31-5.66.934-7.75.62-2.092 1.505-3.755 2.655-4.985 1.147-1.23 2.532-2.09 4.148-2.582 1.616-.49 3.387-.71 5.315-.648 1.925-.06 3.633.17 5.125.692 1.492.524 2.736 1.4 3.73 2.63.992 1.23 1.74 2.876 2.236 4.936.496 2.063.746 4.63.746 7.706v24.94h10.592v-22.093c0-3.753-.42-7.124-1.252-10.108-.833-2.984-2.163-5.525-3.986-7.618zm55.227-.175c-1.953-2.048-4.455-3.623-7.506-4.728-3.054-1.102-6.75-1.654-11.094-1.654-4.153 0-7.678.552-10.572 1.657-2.897 1.104-5.29 2.682-7.177 4.734-1.888 2.05-3.305 4.53-4.25 7.433-.943 2.905-1.48 6.188-1.603 9.85.124 3.662.66 6.944 1.606 9.847.944 2.903 2.362 5.38 4.253 7.43 1.89 2.05 4.285 3.615 7.182 4.69s6.428 1.61 10.587 1.61c1.387 0 2.694-.153 3.922-.463 1.23-.308 2.378-.824 3.45-1.552 1.07-.726 2.125-1.72 3.164-2.983 1.04-1.262 2.097-2.873 3.168-4.83l-.18 9.468v.284h11v-23.543c-.127-3.655-.663-6.932-1.607-9.83-.945-2.898-2.392-5.373-4.343-7.42zm-4.87 15.774c0 6.312-1.22 11.172-3.648 14.58-2.43 3.408-5.634 5.05-9.61 4.922-1.958.06-3.76-.157-5.4-.662-1.64-.504-3.045-1.39-4.212-2.652-1.166-1.262-2.065-2.963-2.696-5.112-.63-2.143-.947-4.795-.947-7.952v-3.313c0-3.155.316-5.804.947-7.95.63-2.146 1.53-3.85 2.696-5.113 1.167-1.263 2.573-2.144 4.213-2.65s3.442-.725 5.4-.663c1.956-.062 3.756.174 5.396.71 1.64.538 3.046 1.436 4.213 2.7 1.166 1.26 2.067 2.95 2.7 5.063.63 2.113.946 4.748.946 7.904v.19zm72.131-44.956h-10.165v22.783h-10.766v.005c-.673-.058-1.644-.022-2.373-.022h-2.027c-8.77 0-16.013 2.53-20.622 6.845-4.61 4.316-6.914 10.208-6.914 17.676v21.94h10.516v-25.635c0-3.065.474-5.622 1.427-7.676.95-2.05 2.868-3.876 4.4-5.104 1.535-1.227 3.314-1.727 5.214-2.248 1.9-.52 3.804-.75 5.704-.69.738 0 1.505.022 2.302.06.792.04 2.145.18 3.24.28.847.076 3.002.076 3.002.076l6.9-.074v41.01h10.164v-41.009h10.674v-5.434h-10.674v-22.783zm55.122 30.045c-1.89-2.18-4.282-3.93-7.175-5.256-2.896-1.325-6.422-1.99-10.572-1.99-4.348 0-8.06.665-11.144 1.99-3.086 1.325-5.605 3.077-7.555 5.256-1.95 2.178-3.398 4.685-4.342 7.526-.944 2.84-1.448 5.808-1.51 8.902.124 3.155.658 6.153 1.603 8.994.944 2.84 2.393 5.35 4.345 7.53 1.95 2.178 4.453 3.898 7.506 5.16 3.055 1.26 6.75 1.893 11.098 1.893 4.15 0 7.69-.632 10.62-1.894 2.925-1.262 5.333-2.95 7.223-5.067 1.886-2.114 3.287-4.608 4.2-7.48.913-2.87 1.432-5.916 1.56-9.137-.128-3.094-.663-6.06-1.607-8.902-.948-2.84-2.365-5.348-4.25-7.526zm-4.966 18.036c0 3.157-.317 5.81-.95 7.952-.627 2.15-1.53 3.85-2.696 5.114-1.167 1.26-2.573 2.145-4.215 2.65-1.64.505-3.44.726-5.396.662-1.958.064-3.76-.174-5.396-.71-1.642-.535-3.047-1.434-4.214-2.696-1.167-1.264-2.066-2.952-2.695-5.064-.632-2.113-.948-4.75-.948-7.908v-3.314c0-3.155.316-5.79.95-7.904.628-2.112 1.527-3.8 2.694-5.063 1.167-1.262 2.572-2.16 4.215-2.7 1.64-.535 3.44-.772 5.397-.71 1.956-.062 3.757.16 5.396.663 1.642.507 3.048 1.388 4.215 2.65 1.167 1.264 2.07 2.968 2.697 5.113.632 2.146.95 4.795.95 7.95v3.314zm59.688-18.884c-1.895-2.054-4.292-3.634-7.194-4.74-2.907-1.105-6.44-1.658-10.605-1.658-4.354 0-8.062.553-11.127 1.66-3.06 1.104-5.555 2.684-7.48 4.737-1.924 2.052-3.36 4.534-4.307 7.44-.947 2.903-1.485 6.19-1.61 9.85v42.735h10.832l.094-21.79c1.834.887 3.84 1.553 6.02 1.994 2.183.443 4.694.663 7.542.663 4.17 0 7.71-.537 10.618-1.61 2.91-1.076 5.312-2.64 7.207-4.694 1.896-2.053 3.318-4.533 4.268-7.437.947-2.905 1.488-6.19 1.615-9.858-.127-3.663-.662-6.95-1.61-9.856-.95-2.906-2.368-5.388-4.263-7.44zm-4.96 18.905c0 3.16-.317 5.813-.954 7.96-.638 2.15-1.545 3.853-2.72 5.116-1.176 1.264-2.593 2.15-4.245 2.656-1.652.504-3.465.724-5.437.662-1.975.062-3.787-.176-5.442-.712-1.65-.535-3.066-1.434-4.24-2.698-1.18-1.263-2.083-2.954-2.722-5.07-.637-2.113-.953-4.754-.953-7.913v-3.316c0-3.16.315-5.796.952-7.912.64-2.115 1.542-3.804 2.72-5.067 1.176-1.263 2.59-2.163 4.242-2.702 1.655-.536 3.468-.772 5.442-.71 1.972-.062 3.784.158 5.437.663 1.652.508 3.07 1.39 4.244 2.654 1.176 1.264 2.083 2.97 2.72 5.117.638 2.15.955 4.8.955 7.96v3.315zm31.456-48.185h-10.176v22.81h-10.782v5.44h10.782v41.058h10.176v-41.058h10.687v-5.44h-10.687m21.572-22.634c-1.898 0-3.507.68-4.825 2.034-1.315 1.354-1.972 2.99-1.972 4.897 0 1.91.656 3.544 1.972 4.9 1.318 1.353 2.927 2.03 4.824 2.03.794 0 1.604-.183 2.436-.554.823-.367 1.57-.877 2.248-1.524.673-.648 1.208-1.386 1.607-2.22.398-.83.6-1.707.6-2.633 0-1.908-.677-3.543-2.023-4.897-1.347-1.353-2.97-2.033-4.867-2.033zm-5.043 22.636h10.528v46.475h-10.528zm47.143 41.586c-3.993-.407-7.408-1.404-10.246-2.998-2.842-1.59-5.086-3.523-6.738-5.8-1.655-2.28-2.604-4.477-2.855-6.6-.437-3.493-.326-6.457.33-8.89.653-2.433 1.668-4.413 3.04-5.943 1.37-1.53 2.978-2.7 4.82-3.51 1.837-.81 3.757-1.342 5.756-1.593 1.807 0 3.338.156 4.584.47 1.25.31 2.342.812 3.277 1.497.935.686 1.776 1.56 2.526 2.622.745 1.06 1.56 2.31 2.434 3.744 1.748-1.5 3.072-2.543 3.98-3.136.9-.59 1.555-.967 1.96-1.123.408-.156.597-.217.562-.187-.034.03-.11-.078-.232-.328-.69-1.435-1.936-2.995-3.746-4.68-1.81-1.682-4.46-3.086-7.955-4.21-4.492-1.06-8.64-1.185-12.446-.374-3.804.81-7.11 2.292-9.918 4.445-2.81 2.153-5.01 4.883-6.6 8.19-1.593 3.305-2.387 6.954-2.387 10.948 0 3.372.56 6.49 1.685 9.36 1.123 2.868 2.715 5.334 4.773 7.392 2.057 2.063 4.493 3.67 7.3 4.823 2.81 1.15 5.898 1.7 9.268 1.637 2.93-.065 5.413-.236 7.44-.515 2.028-.28 3.787-.638 5.288-1.076 1.497-.436 2.838-.92 4.024-1.45 1.183-.53 2.433-1.074 3.742-1.636l-.185-2.998c-4.992 1.688-9.485 2.328-13.48 1.922zm52.815-13.421c-.854-1.5-1.97-2.788-3.343-3.86-1.374-1.073-2.916-1.992-4.626-2.758s-3.42-1.487-5.13-2.16c-1.343-.553-2.645-1.088-3.895-1.61-1.248-.52-2.365-1.118-3.343-1.792-.98-.675-1.757-1.41-2.336-2.207-.578-.797-.868-1.745-.868-2.85 0-1.042.273-1.946.828-2.71.546-.766 1.25-1.41 2.104-1.933.854-.518 1.846-.917 2.98-1.193 1.127-.276 2.272-.416 3.434-.416 2.016.187 3.757.446 5.224.782 1.465.336 2.747.748 3.848 1.238 1.1.49 2.06 1.01 2.886 1.562.824.552 1.604 1.1 2.34 1.65 0-.918.013-1.82.046-2.707.03-.886-.047-1.94-.232-3.16-1.222-.728-2.354-1.348-3.397-1.864-1.04-.515-2.14-.924-3.303-1.227-1.162-.304-2.42-.517-3.765-.637s-2.876-.183-4.586-.183c-2.205 0-4.314.276-6.334.828-2.02.553-3.81 1.36-5.368 2.432-1.564 1.07-2.8 2.368-3.718 3.898s-1.376 3.242-1.376 5.138c0 2.265.427 4.177 1.285 5.737.856 1.56 1.974 2.874 3.352 3.945 1.38 1.07 2.93 1.974 4.646 2.706 1.716.735 3.464 1.407 5.243 2.02 1.35.487 2.635.978 3.862 1.467 1.226.49 2.312 1.056 3.26 1.7.952.64 1.717 1.375 2.3 2.2.583.824.876 1.79.876 2.89 0 1.224-.276 2.292-.828 3.21-.55.917-1.318 1.7-2.297 2.34-.982.645-2.1 1.135-3.357 1.47-1.255.337-2.59.502-4 .502-2.942.127-5.502-.057-7.678-.55-2.177-.49-4.398-1.53-6.664-3.12l.825 6.263c2.506.742 4.97 1.266 7.385 1.575 2.413.306 4.786.49 7.113.554 2.077 0 4.187-.262 6.328-.782 2.143-.518 4.067-1.333 5.78-2.437 1.713-1.103 3.106-2.526 4.177-4.275 1.07-1.746 1.607-3.814 1.607-6.206 0-2.145-.43-3.967-1.285-5.47z"/></svg>