<svg xmlns="http://www.w3.org/2000/svg" viewBox="0 0 493 89"><path d="m29 47-5-3-5-2-10-5-1-3 1-3 2-2 3-1 4-1 9 2 3 2 2 2v-6l-3-2-4-1-4-1h-4l-7 1-5 2-4 4-1 5a12 12 0 0 0 5 10l4 3 9 3 4 2 2 2 1 3-1 3-2 2-4 2H7l-7-3 1 6a48 48 0 0 0 21 1l5-2 5-4 1-7-1-5zm87-18-7-4q-4-3-10-2-6 0-11 2l-7 5-7-5-11-2q-11 0-17 7-6 6-6 18v21h11V45l1-8 2-5 4-3h11l3 3 3 5 1 7v25h10V44l1-7q1-4 3-5 1-3 4-3l5-1 5 1 4 3 2 5 1 7v25h10V47l-1-10zm55 0-7-4q-5-3-11-2-6 0-11 2a19 19 0 0 0-11 12l-2 10 2 9 4 8 7 5q5 2 11 1h4l3-2 3-3 4-5-1 10h11V47l-1-10zm-4 16q-1 9-4 15-4 5-10 5l-5-1-4-3-3-5-1-8v-3l1-8 3-5 4-3 5-1 6 1 4 3 3 5zm72-45h-10v23h-16q-13 0-20 7-7 6-7 17v22h10V44l2-8 4-5 5-2 6-1h16v41h10V28h10v-5h-10zm55 30-7-5-11-2-11 2-8 5-4 8-1 9 1 9 4 7 8 5 11 2q6 1 11-2l7-5 4-7 2-9-2-9zm-5 18-1 8-3 5-4 3-5 1-6-1-4-3-3-5-1-8v-3l1-8 3-5 4-3 6-1 5 1 4 3 3 5 1 8zm60-19-8-4q-4-2-10-2-7-1-11 2l-8 4-4 8-2 10v42h11V68l6 2a38 38 0 0 0 18-1 18 18 0 0 0 12-13l1-9-1-10zm-5 19-1 8-3 5-4 3-6 1-5-1-4-3q-3-2-3-5l-1-8v-3l1-8q0-3 3-5l4-3 5-1 6 1 4 3 3 5 1 8zm31-48h-10v23h-11v5h11v41h10V28h11v-5h-11m22-23-5 2q-3 3-2 5-1 3 2 5a6 6 0 0 0 7 1l4-3V7q1-2-2-5zm-5 23h10v46h-10zm47 41q-6 0-11-3l-6-5-3-7v-9l3-6 5-3 6-2 4 1 4 1 2 3 3 3 6-4-4-5-8-4-12-1-10 5-7 8-2 11q0 5 2 9a21 21 0 0 0 12 13l9 1 13-1 4-2 3-2v-3q-7 3-13 2m53-13-4-4-4-3-6-2-3-1-4-2-2-2-1-3 1-3 2-2 3-1 3-1 9 3 3 1 3 2v-3l-1-3-3-2-3-1-4-1h-5l-6 1-5 2-4 4-1 5a12 12 0 0 0 4 10l5 3 9 3 3 2 3 2v6l-3 2-3 2h-12l-6-3v6a47 47 0 0 0 21 1l6-2 4-4 2-7z"/></svg>