<svg xmlns="http://www.w3.org/2000/svg" xml:space="preserve" viewBox="0 0 1280 221"><path fill="#345ea5" d="m1124 220-3-2-3-5 4-1q5 0 5 2t3 2q7 2 7-6v-3l-1 1q-11 6-17-5-3-6 0-13 3-6 10-7 4 0 7 3l1 1v-3h7l1 13c0 16-1 18-4 21q-3 3-10 3zm10-16 2-3q3-5-1-10 0-2-4-2t-5 3v10q3 3 8 2m-690-2v-18h4l3 1v2l2-2 8-2q10 2 10 15l-1 7q-3 5-7 6-5 1-9-1l-2-1v6l-1 5-3 1h-4zm18 2q3-5 1-11-2-4-5-4t-4 2q-3 1-2 4-1 11 6 11 3 1 4-2m689 16-1-3v-3h2q7 0 4-5l-5-16-3-8q-2-1 3-1h4l1 3 5 14 1-2 3-9 2-6h4c5 0 5-2 0 12l-4 9-3 9q-2 5-4 6zM92 212a107 107 0 0 1-73-45c-6-8-13-23-16-34s-3-12-3-27l1-20q7-32 28-53Q51 11 80 3c10-3 13-3 28-3s17 0 29 3a109 109 0 0 1 57 39l4 8q1 3-3 7l-17 1h-15l-2-3a77 77 0 0 0-64-22q-10 1-22 7a76 76 0 0 0-30 26l-2 4a73 73 0 0 0 3 77 80 80 0 0 0 35 28 79 79 0 0 0 28 5q30-1 50-21l5-5h30l2 2q6 5-2 14a146 146 0 0 1-29 27l-20 9c-3 2-14 4-22 6zm325-1q-5 0-9-4l-5-10c-2-8 2-18 8-21 9-6 22-3 26 6l3 11q0 5-4 11-3 5-8 7zm7-7q4-1 6-5c2-3 1-12-1-15q-3-3-8-4-4 0-7 3-3 6-2 13 0 4 3 6l3 2zm92 7q-4-1-7-5-5-9 1-17 1-3 4-4l6-1 8 1q5 4 5 7v2h-4l-4-1-1-2q-1-3-3-2-3 0-4 2c-3 3-3 10 0 13q1 3 3 2 5 0 5-4l1-2h7v2l-5 8-7 2zm26 0c-6-1-8-10-3-14l7-2q12-1 7-5c-2-3-8-1-8 1l-4 1h-4v-2l6-6h11q6 0 7 5l1 12v10h-3l-4-1-1-1-1 1-4 1zm9-5q3-2 3-6 0-3-1-1h-3l-5 2q-3 3 0 5zm95 5q-6-3-4-11 1-4 9-5l7-1q2-2-1-5l-3-1-5 3-4 1-3-1q0-2 3-5c5-4 18-3 21 2v11l1 11-4 1-4-1v-1l-1 1-5 1zm10-5q3-2 3-6 1-3-2-1h-3l-3 1q-5 3-2 6zm54 5q-6 0-7-5l-1-3 3-1h4v1q2 5 8 3l2-2q1-2-2-3l-5-1q-12-3-9-11 2-5 8-5 11-1 14 4 2 5-3 4l-4-1q-1-3-5-3-7 3 2 6l9 3 2 6q-1 10-16 8m29 0q-13-4-8-19 1-4 5-7l7-1 8 1q4 4 5 8l-4 1-4-1-1-2q-1-2-4-2l-4 2c-3 3-3 10 0 13q6 4 9-2l1-2h3l4 1-1 3q-1 3-5 6-5 2-11 1m30 0q-7-1-9-9-2-5 0-9 1-6 6-8l7-1q5 0 8 2 4 4 5 10v3h-10c-11 0-11 0-9 4q1 3 6 3 3 0 5-3l4-1 3 1-5 7-6 1zm8-18q-1-4-4-4-4 0-6 3l-1 2h12zm62 18q-5 0-8-5-2-5-1-11c1-13 18-16 24-5l2 9h-19v2l3 5h4l4-2q1-2 4-2 4 0 3 2l-5 6q-5 2-11 1m9-18q-2-4-6-4-3 1-5 4v1h11zm81 18q-7-1-9-11v-6q2-11 15-11l6 3q5 3 5 10v3h-10c-10 0-10 0-9 3q1 4 6 4 3 1 5-2 1-2 4-2 5 0 3 2-5 10-16 7m9-17-1-3q0-2-4-2l-3 1-3 4zm21 17-7-5c-2-3-2-3-2-8l1-8q4-5 10-6 5-1 9 1l5 5q2 5-3 4l-4-1-1-2-4-2q-4 0-6 7 0 6 3 9 3 2 7-1l2-2q-1-2 4-2l3 1-1 2c-1 7-9 10-16 8m92 0q-6 0-9-7-3-10 3-17 3-4 10-3 7-1 10 3 4 4 3 10l-1 7q-2 5-5 6-5 2-11 1m8-6 2-4q1-7-2-11h-8q-2 3-2 7l1 6q1 4 5 3zm37 6-3-1q-7-5-7-13 0-6 4-10 3-4 10-3 7-1 10 3 4 4 4 10 0 9-7 13-5 2-11 1m8-6 2-8q0-8-6-8t-6 8q0 6 3 8zm-624 5-2-2v-19h-4v-5h4v-8h7v8h5v5h-5v8q-1 10 4 9h2v2l-1 3h-4zm14 1v-27h8v27zm74 0-1-19v-18h8v37zm36-15v-15h-11v-7h31v3l-1 3-5 1h-6v30h-8zm18 1v-13h6l1 2v2l2-2q3-3 7-3l1 4v4l-2-1q-4 0-6 3-2 0-2 10v8h-7zm50 14v-27h3l4 1v2l2-2q2-2 7-2 6 0 8 4l1 13v11h-7v-10l-1-10-4-2c-5 0-6 2-6 14v8zm118 0v-27h8v27zm20-1-3-9-6-17h8l1 5 4 12 3-7 3-8v-2h4q6-1 2 4l-8 23h-4zm50 1v-27h7v4l2-2q4-3 8-3l1 4v3h-3l-4 1q-4 2-3 12l-1 8zm44 0v-30h-11v-7h30v7h-11v30zm76 0v-37h7v13l2-1q3-3 5-2 5-1 8 1c3 2 3 3 3 15v11h-7v-10l-1-10-4-2c-5 0-6 2-6 14v8zm31-14v-13h4l3 1v2l3-2q2-2 6-2 6 0 8 5l1 12v11h-7v-9l-1-11q-1-2-4-2t-4 2l-1 10-1 10h-7zm63-4v-19h7v37h-7zm-580-16v-3h8v6h-8zm296 0v-3h8v6h-8zm-456-20q-18-2-27-12-8-7-9-19v-4h21l1 3q1 5 4 9c5 5 16 8 25 5q9-1 10-6 3-4 1-9c-2-5-8-7-27-12q-29-6-31-23V77q2-13 17-20 11-6 26-4 13 1 22 8 10 7 12 21v3h-22v-1q-1-8-8-12l-10-1-10 1q-5 2-6 6-1 5 1 8 3 3 9 5l22 6c8 1 18 7 22 12l4 10v14q-7 23-39 24zm101 0c-13-2-19-4-26-10q-11-9-17-27l-1-15 1-14 1-4 1-3 1-3 2-2v-1l3-5a46 46 0 0 1 24-18l4-1 12-1 14 1q20 6 29 24c4 8 7 21 6 30q-2 22-14 35-6 7-17 11c-4 2-19 4-23 3m10-19q8-1 13-6 4-4 7-13l1-14-1-13q-3-9-7-13-5-6-13-7-17-3-27 12c-3 4-5 14-5 21l2 16q5 12 14 16 8 3 16 1m364 19-13-3-15-9-7-9a51 51 0 0 1-8-24q-2-16 4-30l8-13q7-9 21-14c8-3 23-3 31 0q18 6 26 21 7 11 7 23a65 65 0 0 1-2 26 51 51 0 0 1-13 20q-4 4-16 9c-4 3-17 4-23 3m15-20q9-4 14-12a50 50 0 0 0 2-31l-4-12-9-8-13-3-12 3q-10 5-13 19-3 12 0 24 4 16 16 20c4 2 5 2 11 1zm314 20a51 51 0 0 1-30-14 51 51 0 0 1-14-38l1-12 5-14c3-6 3-7 8-12q12-12 29-14 18-2 32 7 13 9 16 25l1 4h-11l-11-1-4-9q-10-10-24-7-15 4-19 22-2 11 0 20 2 12 8 18l8 5 10 1 9-1q10-4 12-16l1-4h22v1l-4 14q-3 7-9 13c-7 7-11 9-21 11-4 1-13 2-15 1m95 0-13-2-10-5c-4-3-11-11-11-13l-1-2-2-12v-1h21v1l3 9q5 8 19 8 13 0 18-6l1-6v-4l-2-2q-4-6-16-8l-16-4q-12-4-17-9-6-5-7-11-2-8 1-17 2-6 9-12 12-9 31-8 24 2 32 18c2 4 3 5 3 12l1 2h-22v-3l-4-8-5-2-10-1-9 1q-10 6-5 14l2 2 7 3 34 10q8 5 11 11 4 5 4 12l-1 10q-6 18-28 22c-4 1-15 2-18 1m-729-52V55h22v81h48v19h-70zm83 0V55h22v100h-22zm41 0V55h25l29 1q24 6 31 29a70 70 0 0 1-3 47q-6 15-22 20c-7 3-9 3-35 3h-25zm50 30q5-1 10-7 3-3 4-9l1-13-1-15q-2-7-8-12c-6-4-11-5-25-5h-9v62h12zm201-30V55h26l29 1q22 6 24 28 1 28-24 35l-18 1h-15v35h-22zm47-4q6-1 9-6l1-8-1-8-7-5-15-1h-12v29h10zm68 13V74h-30V55h82v19h-30v81h-22zm63 41V55h22v100zm-919-30v-11h63l2 2q4 2 4 9 1 4-2 6l-3 3-2 1-31 1h-31zm83 10c-8-3-9-14-2-19l2-2h18l2 2c7 5 6 15-1 19zm39 0q-9-3-7-13l2-5q3-3 9-2c6 0 10 8 7 15q-4 6-11 5M138 88V77h62l2 1q5 3 5 9 1 7-5 10l-2 1h-62zm82 9q-6-3-6-11 1-5 5-8l11-1h9l2 2c6 4 6 12 1 16q-2 4-13 3zm39 1q-7-3-6-13-1-2 2-5l3-3h4q2-1 5 2 7 4 4 13-2 4-7 6z"/></svg>