<svg xmlns="http://www.w3.org/2000/svg" xml:space="preserve" viewBox="0 0 977 163"><path fill="#254fb6" d="M4 149v-15h100l5-3q10-5 10-17-1-12-11-16c-5-2-6-3-38-3-35-1-38-1-48-7C8 82-2 61 0 44Q5 10 35 2l60-1h53l1 14v14h-39c-50 0-65 1-69 4q-7 4-7 13 0 6 2 10c4 9 10 10 44 10l32 1q39 5 40 45c2 26-12 46-35 50l-60 1H4zm222 13q-66-11-61-90c3-46 25-67 71-71l19 1q52 5 63 48c8 32 4 65-10 86q-11 18-36 24c-9 3-35 4-46 2m32-28q14-3 20-17c5-9 6-17 6-34 0-24-3-34-12-44q-13-12-36-10c-26 4-35 20-34 58l2 20q6 21 23 27c8 2 23 3 31 0m85-51V3h50l55 2q12 3 22 13 16 16 14 41-2 28-22 42c-9 5-13 6-51 6h-34v56h-34zm90-5q15-4 14-24 0-12-6-17c-5-4-9-5-37-5h-27v47h26zm72 5V3h34v66h62V3h17l16 1 1 79v80h-34v-33l-1-32-30-1h-31v66h-34zm210 79q-45-9-56-49c-6-23-4-56 5-75q5-13 15-21c15-12 42-18 67-15q42 5 56 32c14 27 14 70 1 96q-12 23-40 30c-10 3-37 4-48 2m38-29q15-6 20-27c3-10 3-35 1-46q-6-21-21-28c-15-7-37-4-48 6-8 8-11 18-12 40-1 24 2 37 11 47 8 9 15 11 32 11 10-1 12-1 17-3m75 16v-15h48l53-1q9-2 13-10 4-11-3-20c-6-7-8-7-44-8-34-1-39-1-48-6-10-5-19-18-21-30-2-7-1-21 2-29q6-19 25-26c8-3 23-4 74-4h46v29h-51l-50 1-5 2q-9 5-9 15 0 12 10 16c4 2 6 3 37 3 35 1 41 2 51 6 18 10 27 39 18 63q-8 19-25 25c-7 2-8 2-64 3h-57z"/></svg>