<svg xmlns="http://www.w3.org/2000/svg" viewBox="0 0 868.14 82.7">
  <defs id="defs1">
    <style id="style1">
      .cls-2{stroke-width:0;fill:#001a47}
    </style>
  </defs>
  <path id="path1" d="M0 0v41.57c0 7.05 3.82 13.53 9.97 16.95l43.27 24.02.28.16L97 58.54c6.15-3.42 9.97-9.9 9.97-16.94V0Zm69.64 49.25a21.8 21.8 0 0 1-10.55 2.73l-40.13-.12 22.5-12.54a14.7 14.7 0 0 1 7.11-1.87l42.48-.13-21.4 11.94h-.01Zm-.62-20.54a14.7 14.7 0 0 1-7.11 1.87l-42.48.13 21.4-11.94c3.23-1.79 6.86-2.73 10.55-2.73l40.13.12-22.5 12.54h.01z" style="fill:#2006f7;stroke-width:0"/>
  <g id="g6" transform="translate(-45.49 -438.7)">
    <path id="path2" d="M889.07 469.03h-68.18c-3.11 0-5.64-2.53-5.64-5.64s2.53-5.64 5.64-5.64h88.72v-18.92h-88.72c-13.54 0-24.56 11.02-24.56 24.56s11.02 24.56 24.56 24.56h68.18c3.11 0 5.64 2.57 5.64 5.67s-2.53 5.54-5.64 5.54h-88.91v18.92h88.91c13.54 0 24.56-10.9 24.56-24.44s-11.02-24.59-24.56-24.59z" class="cls-2"/>
    <path id="path3" d="M375.04 438.87H338.1c-21.87 0-39.67 17.8-39.67 39.67s17.8 39.67 39.67 39.67h36.94c21.87 0 39.67-17.8 39.67-39.67s-17.8-39.67-39.67-39.67m0 60.42H338.1c-11.43 0-20.73-9.3-20.73-20.73s9.3-20.73 20.73-20.73h36.94c11.43 0 20.73 9.3 20.73 20.73s-9.3 20.73-20.73 20.73" class="cls-2"/>
    <path id="path4" d="M748.68 438.87h-36.94c-21.87 0-39.67 17.8-39.67 39.67s17.8 39.67 39.67 39.67h36.94c21.87 0 39.67-17.8 39.67-39.67s-17.8-39.67-39.67-39.67m0 60.42h-36.94c-11.43 0-20.73-9.3-20.73-20.73s9.3-20.73 20.73-20.73h36.94c11.43 0 20.73 9.3 20.73 20.73s-9.3 20.73-20.73 20.73" class="cls-2"/>
    <path id="polygon4" d="M567.9 468.97v-30.01h-18.95v79.16h18.95v-30.2h73.99v30.2h18.95v-79.16h-18.95v30.01z" class="cls-2"/>
    <path id="path5" d="M266.74 469.03h-68.18c-3.11 0-5.64-2.53-5.64-5.64s2.53-5.64 5.64-5.64h88.72v-18.92h-88.72c-13.54 0-24.56 11.02-24.56 24.56s11.02 24.56 24.56 24.56h68.18c3.11 0 5.64 2.57 5.64 5.67s-2.53 5.54-5.64 5.54h-88.91v18.92h88.91c13.54 0 24.56-10.9 24.56-24.44s-11.02-24.59-24.56-24.59z" class="cls-2"/>
    <path id="path6" d="M508.44 438.96h-82.83v79.15h18.95V496.9h63.88c15.98 0 28.98-13 28.98-28.98s-13-28.98-28.98-28.98zm0 39h-63.88V457.9h63.88c5.54 0 10.03 4.49 10.03 10.03s-4.49 10.03-10.03 10.03" class="cls-2"/>
  </g>
</svg>
