<svg xmlns="http://www.w3.org/2000/svg" xml:space="preserve" viewBox="0 0 56.7 21.4"><path d="M14.8 19.4v-10H16l.2.4.2.3.3-.2q1-.8 1.9-.6 1.4.3 1.8 2.3v2q0 1.2-.7 2-.6.5-1.2.7h-1q-.4-.1-.8-.5l-.2-.1v3.8zm3.3-4.9q.4-.1.6-.9V12q-.2-.9-.6-1.1-.6-.2-1.4.5l-.1.1V14l.1.2.6.5zM2.4 16.2a7 7 0 0 1-2.4-.7l.3-.8.3-.7.3.1a5 5 0 0 0 2.7.4q.8-.3.9-1 .1-.8-1.7-1.6l-1.5-.8-.8-.8Q0 9.7.2 8.9q0-1.8 2-2.3a7 7 0 0 1 3.6.4l-.3 1.6-.5-.1Q3.4 8 2.6 8.3q-.4.1-.5.7 0 .4.5.8l1 .4 1.6.9q1 .7 1.3 1.8V14q-.6 1.8-2.6 2.1zm6.8 0q-.6 0-1-.4l-.5-1V9.4h1.7V14l.3.6q.2.2.7.2l.5-.1.5-.3.2-.2V9.4h1.8v6.8h-1.5l-.1-.3-.2-.3-.3.2a3 3 0 0 1-1.5.5zm15 0q-1.6-.2-2.3-1.6a5 5 0 0 1-.3-2.4q.1-2 1.6-2.8a4 4 0 0 1 2.7 0q.4.2.6.5.3.2.5.6a5 5 0 0 1 .3 2.5v.2h-4v.5q.5 1.3 2 1l1.6-.2.3 1.2-1.3.4zm1.4-4.4q0-.9-.8-1.2l-.8.1q-.6.3-.7 1.2v.2h2.3zm2.8 1V9.4H30v.3l.1.3.3-.1.8-.5.6-.1h.5q.3 0 .1.2v1.4H32q-.8-.2-1.5.6l-.3.2v4.5h-1.8z"/><path fill="#662d91" d="m39.7 18.8-.3-.6.2-.1 1.2-1 .2-.5v-.7l-.6-1.4-1.1-3.7-.5-1.3v-.1h1.7l.1.2.6 2.2.7 2.2.2-.5 1-3.6.1-.5H45L43.4 14l-1 2.8a5 5 0 0 1-2.2 2.5l-.2.1zm7.4-2.6h-.5c-.5-.1-1.4-.5-1.3-.6l.3-1v-.2h.2a3 3 0 0 0 1.6.4h.7q.3-.2.3-.4v-.5q-.1-.5-1-.8-1.3-.3-1.6-.7-.5-.5-.4-1.4 0-.7.5-1.1t1-.6a6 6 0 0 1 2.8.3l-.2 1.3v.1h-.3q-1-.4-1.7-.3t-.3.7l.8.3 1.1.5q1.2.6 1.1 1.9 0 .7-.4 1.2a3 3 0 0 1-1.6 1zm6.6 0a3 3 0 0 1-2-1l-.4-.5a4 4 0 0 1-.4-2.2q0-.8.3-1.5.6-1.7 2.5-1.8l1.2.1q1.4.5 1.7 2.1v1.8h-4v.2q.1 1 1.1 1.3.7.1 2.1-.1l.4-.1.1.6.2.6h-.1l-1 .3zm1.2-4.4q0-1-.7-1.2-.8-.2-1.3.4l-.3.8v.3H55zm-20.5 4-1-3.3-.7-2-.3-1.1h1.8l.1.6.5 1.8.7 2.5v-.1l.5-1.8.8-3h1.8l-.1.5-1 3.1-1 2.8v.4h-2zm0-7.7q-.2-.9-.7-1.2h-.2q-.5 0-.9 1v-.3Q33.4 6 34 6q.3 0 .5.3t.5 1l.2.9h-.4zm4.6 0c-.1-.2-.3-1-.5-1.2q-.3-.8-.7-1.1h-.7l-.8 1v-.3q.6-1.4 1.2-1.7t1.2.6a10 10 0 0 1 1 2.8v.1H39zm4.8-.3q-.6-2.7-1.6-3.2h-.7l-1 1V6l.3-1.2q.5-1.1 1.2-1.5.4-.2.7 0 .8.5 1.5 2.4l.6 2.6v.1H44zm5.5.5v-.5a11 11 0 0 0-1.5-4.1l-1-.7-.7.2-.9 1.1-.1.3.3-1q.7-1.5 1.4-2h.8q.5.1 1 .8 1.1 1.6 1.7 5.8zm5.9 0V8l-.7-3a8 8 0 0 0-1.4-2.8q-1-1.1-2-.1-.3.2-.7 1-.3.5 0-.3l1-2q.8-1 1.5-.8 1.5.3 2.6 3.9c.4 1.3.6 2.4.8 4.3v.1z"/><text xml:space="preserve" x="-271.9" y="408.1" fill="#662d91" stroke-width=".2" font-size="36.3" style="line-height:2;text-align:start" transform="matrix(.11817083 0 0 .11587367 49.4 -26.7)"><tspan x="-271.9" y="408.1" fill="#000">OpenBMC</tspan></text></svg>