<svg xmlns="http://www.w3.org/2000/svg" xml:space="preserve" viewBox="0 0 212.6 91.6"><defs><linearGradient id="a" x1="0" x2=".7" y1=".7" y2=".5" gradientUnits="objectBoundingBox"><stop offset="0" stop-color="#2a3c89"/><stop offset="1" stop-color="#2495f0"/></linearGradient><linearGradient id="c" x1="54.5" x2="25.1" y1="52.3" y2="62.5" gradientTransform="scale(.91122043 1.0974293)" gradientUnits="userSpaceOnUse" href="#a"/><linearGradient id="b" x1="32.3" x2="61.6" y1="44.1" y2="34" gradientTransform="scale(.91113448 1.0975328)" gradientUnits="userSpaceOnUse" href="#a"/></defs><g fill-rule="evenodd"><path fill="#24368f" d="M51.2 74.1a34 34 0 0 1-24 4.6l7.9-8A25 25 0 0 0 45 68zm-37.3-1 4.2-7.5-2.3-2A25 25 0 0 1 45 23.7l6.2-6.2A33.4 33.4 0 0 0 14 73.1"/><path fill="url(#b)" d="m29.1 55.7 16.4-16.4h1.6a21 21 0 0 1 8.6 1.8l-23 23zm30.8-30.8 10.7-10.7-6.8 12.3z" transform="translate(-13.7 -14.2)"/><path fill="url(#c)" d="M50 50.1 8.5 91.6 23 65.1l23.5-23.5z"/><path fill="#2495f0" d="m48.2 41.6 1.7 8.5-12.2 12.3C42.5 57.6 48.5 50 43.2 50H17l-1.8-8.5 7.4-7.4c-1.9 2-5.7 7.4-.8 7.4z"/><path fill="#24368f" d="M75.1 44.1a8 8 0 0 0 5.6-1.8 6 6 0 0 0 2.2-4.8 6 6 0 0 0-3.5-5.4l-2.8-1.4-2.5-1.2a3 3 0 0 1-2-2.7c0-1.7 1.5-2.8 3.4-2.8a6 6 0 0 1 4.7 2.4l2.2-2.5a8 8 0 0 0-6.9-3.2 7 7 0 0 0-5.1 1.8 6 6 0 0 0-2 4.5 6 6 0 0 0 3.4 5.5l2.6 1.3 2.3 1q2.3 1.1 2.3 2.9c0 1.7-1.6 3-3.9 3a6 6 0 0 1-5.6-3.4l-2.4 2.3a9 9 0 0 0 8 4.5m17.4.1c4.6 0 7.3-2.7 7.3-7.2v-9.8h-3.4V37q0 4-3.9 4.1c-2.4 0-3.8-1.6-3.8-4v-9.8h-3.4V37c0 4.4 2.8 7.2 7.2 7.2m19.7-17.4a7 7 0 0 0-5.7 2.8v-2.4h-3.3v23.4h3.3v-9.1a7 7 0 0 0 5.7 2.7 8 8 0 0 0 5.9-2.6 9 9 0 0 0 0-12.3 8 8 0 0 0-5.9-2.5m4.8 8.7a6 6 0 0 1-1.4 4 5.4 5.4 0 0 1-7.7 0 6 6 0 0 1-1.4-4 6 6 0 0 1 1.4-4 5.3 5.3 0 0 1 7.7 0 6 6 0 0 1 1.4 4m21.6-.3a8 8 0 0 0-2.2-6.1 8 8 0 0 0-5.9-2.3 8 8 0 0 0-6 2.5 9 9 0 0 0-2.4 6.1c0 4.4 2.7 8.7 8.9 8.7a13 13 0 0 0 7.1-2.3l-1.4-2.5a10 10 0 0 1-5.6 1.8c-3.2 0-5-1.7-5.5-4.3h13zm-8-5.5a4.6 4.6 0 0 1 4.6 4.3h-9.6a5 5 0 0 1 5-4.3m14 14.1v-8.5c0-3.5 1.8-5.3 4.4-5.3l1.8.3.3-3.2-2-.3a5 5 0 0 0-4.7 2.8v-2.4h-3.2v16.6zm18.9.2a12 12 0 0 0 10-4.8L171 37a9 9 0 0 1-7.3 3.7 8 8 0 0 1-5.9-2.3 8 8 0 0 1-2.3-5.9 8 8 0 0 1 2.4-6 8 8 0 0 1 5.8-2.4 9 9 0 0 1 7.1 3.7l2.6-2.2a11 11 0 0 0-4.1-3.6 12 12 0 0 0-5.7-1.3 12 12 0 0 0-8.3 3.3 11 11 0 0 0-3.4 8.5 11 11 0 0 0 3.3 8.3 11 11 0 0 0 8.3 3.3m25-14.6a7 7 0 0 0-5.7-2.7 8 8 0 0 0-5.9 2.4 8 8 0 0 0-2.3 6.2 9 9 0 0 0 2.3 6.2 8 8 0 0 0 6 2.6 7 7 0 0 0 5.6-2.7v2.3h3.2V27.2h-3.2Zm-5.2 11.6a5 5 0 0 1-3.8-1.6 6 6 0 0 1 0-8 5.3 5.3 0 0 1 7.6 0 6 6 0 0 1 0 8 5 5 0 0 1-3.8 1.6m21.1-14.3a7 7 0 0 0-5.7 2.8v-2.4h-3.4v23.4h3.4v-9.1a7 7 0 0 0 5.7 2.7 8 8 0 0 0 5.9-2.6 9 9 0 0 0 0-12.3 8 8 0 0 0-6-2.5m4.8 8.7a6 6 0 0 1-1.5 4 5.4 5.4 0 0 1-7.6 0 6 6 0 0 1-1.5-4 6 6 0 0 1 1.5-4 5.3 5.3 0 0 1 7.6 0 6 6 0 0 1 1.5 4"/><path fill="#2495f0" d="M81.6 70.3v-3.4h-11v-6.4h10.2V57H70.6v-6h11v-3.3H67v22.7zm7.2 0v-9c0-2.9 1.8-4.9 4.4-4.9 2.3 0 4 1.7 4 4.8v9h3.3v-10a7 7 0 0 0-1.9-5.1 6 6 0 0 0-4.6-1.8 6 6 0 0 0-5.2 2.8v-2.4h-3.3v16.6zm31.4-8.6a8 8 0 0 0-2.2-6.1 8 8 0 0 0-5.9-2.3 8 8 0 0 0-6 2.5 9 9 0 0 0-2.4 6.2c0 4.3 2.7 8.6 8.9 8.6a13 13 0 0 0 7.1-2.3l-1.4-2.4a10 10 0 0 1-5.6 1.7q-4.8-.2-5.5-4.3h13zm-8-5.4a4.6 4.6 0 0 1 4.6 4.3h-9.6a5 5 0 0 1 5-4.3m14.8 14v-8.5q.2-5.2 4.3-5.2l1.8.3.3-3.3-2-.3a5 5 0 0 0-4.6 2.8v-2.4h-3.2v16.6zm21-14.4a7 7 0 0 0-5.5-2.6 8 8 0 0 0-6 2.5 8 8 0 0 0-2.4 6 8 8 0 0 0 2.3 6 8 8 0 0 0 6 2.5 7 7 0 0 0 5.5-2.5V69c0 3.1-2.1 5.3-5.6 5.3a10 10 0 0 1-5.9-2L135 75a12 12 0 0 0 7.4 2.4 9 9 0 0 0 6.5-2.4 9 9 0 0 0 2.5-6.3v-15H148zm-5.2 11.4a5 5 0 0 1-3.8-1.6 5 5 0 0 1-1.5-3.9A5 5 0 0 1 139 58a5 5 0 0 1 3.8-1.6 5 5 0 0 1 3.8 1.5 6 6 0 0 1 0 7.8 5 5 0 0 1-3.8 1.6m19.8-1.6-4.9-12h-3.9l7.2 16.5-.5 1.2q-1.3 2.8-3.3 2.8a5 5 0 0 1-2-.5l-.5 2.9a5 5 0 0 0 2.8.7q4 .2 6.2-5.5l6.8-18h-3.7z"/></g></svg>