<svg xmlns="http://www.w3.org/2000/svg" viewBox="0 0 960 560"><path fill="#0f9748" d="M883 315q-7 12-17 22a380 380 0 0 1-123 92 673 673 0 0 1-185 65 835 835 0 0 1-137 18l-18 1h-36l-35-1a656 656 0 0 1-170-31 358 358 0 0 1-115-66q-18-16-30-37A131 131 0 0 1 4 278q10-36 34-66 29-35 65-61a510 510 0 0 1 146-76 809 809 0 0 1 235-48l32-2h41a465 465 0 0 1 61 4 599 599 0 0 1 179 47q30 14 57 35 27 22 44 51 12 23 16 49l1 19h-2v-18q-4-27-19-50-16-22-37-40-29-22-62-37a451 451 0 0 0-129-36 581 581 0 0 0-94-8l-60 1-32 2a801 801 0 0 0-246 64q-35 16-65 38-31 21-57 50-20 24-31 54a112 112 0 0 0 14 98q16 25 41 43 24 19 53 32a426 426 0 0 0 108 34l57 9 25 2a484 484 0 0 0 99 1l23-2a899 899 0 0 0 190-38 614 614 0 0 0 145-75q24-19 43-41z"/><path fill="#374ea1" d="M161 213v37h-3q-2-11-5-17-4-7-11-10c-7-3-9-4-14-4q-8 0-14 5-5 5-5 11t3 9q6 7 24 16l20 13q6 4 9 10l3 12q0 12-10 21-9 9-24 9l-19-4-10-2-3 1-2 5h-2v-37h2l6 17q3 6 11 10 7 3 15 4 10 0 16-5 6-6 6-13l-3-8-6-7-17-10-20-13q-6-4-9-10-3-5-3-12 0-11 9-20 9-8 23-8 9 0 18 4l6 2 4-1 2-5zm77 26v-2h31v2h-3q-5 0-8 4l-1 9v35q0 14-3 20-3 7-10 13-8 5-20 5-15 0-22-5t-10-13q-3-6-2-21v-34q0-8-3-11-1-2-7-2h-3v-2h37v2h-3q-5 0-8 3l-1 10v37l1 12q0 7 3 10l7 6q5 3 11 2 9 0 15-3 8-4 10-10l2-19v-35q0-9-2-10-3-3-7-3zm62 44v25l1 10q3 3 8 3h3v2h-37v-2h3q6 0 8-4l1-9v-56l-1-10q-2-3-8-3h-3v-3h32q11 0 18 3 7 2 11 8 5 6 5 13 0 11-7 18-7 6-20 6h-6zm0-4 6 1h4q7 1 12-5 4-5 4-13 1-5-2-11-2-4-6-7l-10-2-8 1zm75-38v34h19q8 0 10-2 3-3 4-10h2v30h-2l-2-8-4-4-8-1h-19v29l1 7 2 2h19l11-1 6-4q4-3 8-12h3l-8 22h-66v-2h3l6-2 2-3 1-8v-56q0-8-2-11l-7-2h-3v-2h66l1 18h-2l-3-9-5-4-9-1zm143 82h-23l-29-41-5 1h-4v25l2 10q2 3 7 3h4v2h-37v-2h3q5 0 8-4l1-9v-56q0-9-2-10-3-3-7-3h-4v-3h32l20 2q7 2 11 8 5 5 5 13t-5 13q-6 6-16 9l18 25 10 11q5 3 12 3zm-61-44h4q12 0 18-6 7-5 7-13 0-9-5-13-5-5-14-5l-10 1zm116 44-33-73v58q-1 8 2 10 2 3 7 3h3v2h-30v-2h3q6 0 8-4l1-9v-56l-1-9-3-3-8-1v-2h24l32 67 31-67h24v2h-3q-6 0-8 3l-1 10v56q0 8 2 10 2 3 7 3h3v2h-37v-2h3q6 0 8-4l1-9v-58l-33 73zm106-2v2h-37v-3h3q5 2 8-3l1-9v-56l-1-9-2-3-6-1h-3v-3h37v3h-3q-6 0-8 3l-2 10v56l1 8 3 3 5 1zm84-85 2 29h-2q-5-13-11-19-7-6-18-6-9 1-15 4-8 5-11 14-4 11-4 24 0 12 3 20 4 9 12 14 7 4 17 4l15-3q6-4 14-15l2 2q-8 11-15 16-9 6-21 6-21 0-33-16-9-12-9-28 0-13 6-24a43 43 0 0 1 38-22q9 0 18 4l4 1q2 1 3-1l3-4zm99 88h-23l-29-41-5 1h-4v25q-1 7 2 10 2 3 7 3h3v2h-37v-2h3q6 0 8-4 2-2 2-9v-56q0-9-2-10-3-3-8-3h-3v-3h32l20 2q6 2 11 8 5 5 5 13t-6 13-16 9l18 25 11 11q3 3 11 3zm-61-45h3q13 1 19-5 6-5 6-13t-5-14-13-5l-10 2z"/><circle cx="911.1" cy="276.9" r="47.9" fill="#ee2c24"/></svg>