<svg xmlns="http://www.w3.org/2000/svg" viewBox="0 0 960 560"><path fill="#0F9748" d="M883.3 315.3c-4.9 7.8-10.7 14.8-16.8 21.7-24.9 28.3-54.3 51.2-86.2 71-12.1 7.5-24.5 14.5-37.1 21-28.5 14.8-58 27.1-88.3 37.7-31.6 11.1-63.9 19.9-96.7 27-18.7 4-37.6 7.4-56.5 10.1-16.7 2.4-33.5 4.5-50.3 6-10.2.9-20.4 1.7-30.6 2.2-5.8.3-11.6.4-17.4.7-12 .7-24 .8-36 .7-11.7-.2-23.5-.4-35.2-1-14.8-.8-29.6-1.9-44.3-3.7-20.6-2.4-41.1-5.6-61.4-9.8-21.7-4.6-43.1-10.2-64-17.5-30.2-10.4-59-23.6-85.5-41.6-10.7-7.3-20.9-15.4-30.3-24.4-11.5-11-21.5-23.2-29.5-37-9-15.4-14.8-32-17.1-49.8-.6-5-1.1-10.1-1.1-15.1.1-11.9 1.5-23.6 4.6-35.1 6.7-24.8 19-46.6 34.8-66.6 18.5-23.5 40.5-43.3 64.5-61 18-13.2 36.9-25 56.4-35.7C188.1 99.4 218.1 86.2 249 75c23.5-8.5 47.3-15.8 71.5-22.1 26.3-6.9 52.9-12.3 79.8-16.7 15.9-2.6 32-4.7 48.1-6.3 11.8-1.2 23.6-2.3 35.4-3 10.7-.7 21.5-1 32.2-1.5 13.7-.6 27.5-.3 41.3-.3 9.6 0 19.3.6 28.9 1.2 10.7.7 21.4 1.4 32.1 2.5 14.9 1.5 29.7 3.4 44.4 6 23.5 4 46.8 9.2 69.7 16.1 22.1 6.6 43.6 14.6 64.3 24.7 20.4 9.8 39.6 21.4 57.2 35.7 17.7 14.3 32.7 30.8 44 50.7 8.6 15.3 14.1 31.5 16.1 49 .8 6.4.6 12.8.7 19.3-.6.2-1.2.2-1.7-.3.2-6.2.2-12.3-.5-18.5-2.2-18-8.7-34.4-18.6-49.6-9.9-15.3-22.5-28.1-36.7-39.5-19-15.2-39.9-27-62-37C771.3 74.6 746.4 66.5 721 60c-18.2-4.6-36.6-8.3-55.2-11.1-11.5-1.8-23-3.3-34.5-4.4-10.2-1-20.4-1.8-30.6-2.4-9.6-.6-19.2-1.2-28.9-1.3-20-.2-40.1-.2-60.1 1.1-10.5.7-20.9 1.3-31.4 2.2-17.2 1.5-34.4 3.6-51.4 6.2-19.3 2.9-38.5 6.5-57.5 10.9-26.8 6.1-53.1 13.6-79 22.7-19.8 7-39.3 14.9-58.3 23.9-22.8 10.9-44.8 23.2-65.5 37.7-20.7 14.6-39.9 30.9-56.2 50.4-13.6 16.3-24.6 34-31.1 54.4-5.3 16.4-7 33.1-4.7 50.1 2.3 17.2 8.6 32.9 18 47.5 10.9 16.9 25.1 30.9 41 43.1 16.4 12.6 34.4 22.9 53.1 31.7 18 8.4 36.5 15.3 55.4 21.1 17.5 5.4 35.3 9.7 53.2 13.3 18.7 3.7 37.4 6.5 56.4 8.5 8.6.9 17.2 1.5 25.8 2.3 11.3 1 22.7 1.6 34 1.8 21.6.3 43.3.5 65-1l22.2-1.5c12.3-.9 24.6-2.3 36.8-3.7 18.2-2.2 36.2-5 54.1-8.5 33.7-6.6 67-15.1 99.5-26.3 27.5-9.5 54.3-20.6 80.2-33.9 22.9-11.9 44.8-25.4 65.1-41.3 15.5-12.2 29.9-25.5 42.2-41 1.5.4 3.1 1.6 4.7 2.8"/><g fill="#374EA1"><path d="M160.6 212.5v37.2h-2.9c-.9-7.1-2.7-12.8-5.1-17-2.5-4.2-6-7.6-10.5-10.1s-9.2-3.7-14.1-3.7c-5.5 0-10 1.7-13.6 5-3.6 3.4-5.4 7.2-5.4 11.4 0 3.3 1.1 6.3 3.4 9 3.3 4 11.1 9.2 23.4 15.9 10 5.4 16.9 9.5 20.6 12.4 3.7 2.9 6.5 6.3 8.5 10.2 2 3.9 3 8 3 12.3 0 8.1-3.2 15.2-9.5 21-6.3 5.9-14.4 8.8-24.4 8.8-3.1 0-6.1-.2-8.8-.7-1.6-.3-5-1.2-10.2-2.9-5.2-1.7-8.4-2.5-9.8-2.5-1.3 0-2.4.4-3.1 1.2-.8.8-1.3 2.4-1.7 4.9h-2.9V288h2.9c1.4 7.7 3.2 13.5 5.5 17.3 2.3 3.8 5.9 7 10.7 9.6 4.8 2.5 10 3.8 15.7 3.8 6.6 0 11.8-1.7 15.7-5.2 3.8-3.5 5.7-7.6 5.7-12.3 0-2.6-.7-5.3-2.2-8-1.5-2.7-3.7-5.2-6.8-7.5-2.1-1.6-7.7-5-16.9-10.1-9.2-5.2-15.7-9.3-19.6-12.3-3.9-3.1-6.8-6.4-8.8-10.1-2-3.7-3-7.8-3-12.2 0-7.7 3-14.4 8.9-19.9 5.9-5.6 13.4-8.4 22.6-8.4 5.7 0 11.8 1.4 18.1 4.2 3 1.3 5 2 6.3 2 1.4 0 2.5-.4 3.4-1.2.9-.8 1.6-2.5 2.1-5l2.8-.2M238.4 238.9v-2.4H269v2.4h-3.2c-3.4 0-6 1.4-7.8 4.3-.9 1.3-1.3 4.4-1.3 9.2v35c0 8.7-.9 15.4-2.6 20.1-1.7 4.8-5.1 8.9-10.1 12.3-5 3.4-11.9 5.1-20.5 5.1-9.4 0-16.6-1.6-21.5-4.9-4.9-3.3-8.3-7.7-10.4-13.2-1.4-3.8-2-10.9-2-21.3v-33.7c0-5.3-.7-8.8-2.2-10.4-1.5-1.7-3.8-2.5-7.1-2.5H177v-2.4h37.3v2.4H211c-3.6 0-6.1 1.1-7.6 3.4-1.1 1.5-1.6 4.7-1.6 9.5v37.6c0 3.4.3 7.2.9 11.5.6 4.3 1.7 7.7 3.3 10.1 1.6 2.4 3.9 4.4 7 6 3 1.6 6.8 2.4 11.2 2.4 5.6 0 10.7-1.2 15.2-3.7s7.5-5.6 9.1-9.5c1.6-3.8 2.4-10.3 2.4-19.5v-35c0-5.4-.6-8.8-1.8-10.1-1.7-1.9-4.1-2.8-7.4-2.8l-3.3.1M299.7 282.5v25.1c0 5.4.6 8.8 1.8 10.1 1.6 1.9 4.1 2.8 7.3 2.8h3.3v2.4h-37v-2.4h3.2c3.7 0 6.3-1.2 7.8-3.6.9-1.3 1.3-4.4 1.3-9.4v-55.8c0-5.4-.6-8.8-1.7-10.1-1.7-1.9-4.1-2.8-7.4-2.8h-3.2v-2.4h31.6c7.7 0 13.8.8 18.3 2.4 4.5 1.6 8.2 4.3 11.3 8.1 3.1 3.8 4.6 8.3 4.6 13.4 0 7-2.3 12.8-7 17.2-4.6 4.4-11.2 6.6-19.7 6.6-2.1 0-4.3-.1-6.7-.4-2.5-.2-5.1-.6-7.8-1.2m0-3.6c2.2.4 4.2.7 6 1 1.7.2 3.2.3 4.5.3 4.4 0 8.2-1.7 11.4-5.1 3.2-3.4 4.8-7.8 4.8-13.3 0-3.7-.8-7.2-2.3-10.4-1.5-3.2-3.7-5.6-6.5-7.2-2.8-1.6-6-2.4-9.5-2.4-2.2 0-4.9.4-8.3 1.2l-.1 35.9zM375.3 241.3v34.1h19c4.9 0 8.2-.7 9.9-2.2 2.2-2 3.4-5.4 3.7-10.3h2.4v30h-2.4c-.6-4.2-1.2-6.9-1.8-8.1-.8-1.5-2-2.6-3.8-3.5-1.7-.9-4.4-1.3-8-1.3h-19v28.5c0 3.8.2 6.1.5 7 .3.8.9 1.5 1.8 2 .8.5 2.5.7 4.8.7H397c4.9 0 8.4-.3 10.6-1 2.2-.7 4.3-2 6.4-4 2.6-2.6 5.3-6.6 8.1-11.9h2.5l-7.4 21.6h-66.5v-2.4h3.1c2 0 4-.5 5.8-1.5 1.4-.7 2.3-1.7 2.8-3.1.5-1.4.7-4.1.7-8.3v-56.1c0-5.5-.6-8.8-1.7-10.1-1.5-1.7-4.1-2.5-7.6-2.5h-3.1v-2.4h66.5l1 18.9h-2.5c-.9-4.5-1.9-7.7-3-9.4s-2.7-3-4.8-3.9c-1.7-.6-4.7-1-9-1l-23.6.2zM518.4 322.9h-23l-29.2-40.4c-2.2.1-3.9.1-5.3.1h-1.8c-.6 0-1.3-.1-2-.1v25.1c0 5.4.6 8.8 1.8 10.1 1.6 1.9 4 2.8 7.3 2.8h3.4v2.4h-37v-2.4h3.2c3.6 0 6.3-1.2 7.8-3.6.9-1.3 1.3-4.4 1.3-9.4v-55.8c0-5.4-.6-8.8-1.8-10.1-1.7-1.9-4.1-2.8-7.4-2.8h-3.2v-2.4H464c9.2 0 15.9.7 20.3 2 4.3 1.3 8 3.8 11.1 7.4 3 3.6 4.6 7.9 4.6 12.8 0 5.3-1.7 9.9-5.2 13.8-3.5 3.9-8.8 6.7-16.1 8.3l17.8 24.8c4.1 5.7 7.6 9.5 10.5 11.3 2.9 1.9 6.7 3.1 11.5 3.6l-.1 2.5m-61.3-44.3h3.6c8.2 0 14.4-1.8 18.6-5.3 4.2-3.6 6.3-8.1 6.3-13.6 0-5.4-1.7-9.8-5.1-13.1-3.4-3.4-7.8-5.1-13.4-5.1-2.5 0-5.8.4-10 1.2v35.9M573.2 322.9l-33.4-72.6V308c0 5.3.6 8.6 1.7 9.9 1.6 1.8 4.1 2.7 7.4 2.7h3.1v2.4h-30v-2.4h3.1c3.6 0 6.2-1.1 7.8-3.3.9-1.4 1.4-4.5 1.4-9.3v-56.4c0-3.8-.4-6.6-1.3-8.3-.6-1.2-1.7-2.3-3.3-3.1-1.6-.8-4.1-1.2-7.7-1.2v-2.4h24.4l31.3 67.5 30.8-67.5h24.4v2.4h-3c-3.7 0-6.3 1.1-7.8 3.3-.9 1.4-1.4 4.5-1.4 9.3V308c0 5.3.6 8.6 1.8 9.9 1.6 1.8 4.1 2.7 7.4 2.7h3v2.4h-36.7v-2.4h3.1c3.7 0 6.3-1.1 7.8-3.3.9-1.4 1.4-4.5 1.4-9.3v-57.7l-33.3 72.6h-2M678.6 320.5v2.4h-37v-2.4h3.1c3.6 0 6.2-1 7.8-3.1 1-1.4 1.5-4.6 1.5-9.8v-55.8c0-4.4-.3-7.3-.8-8.7-.4-1.1-1.3-2-2.6-2.7-1.9-1-3.8-1.5-5.9-1.5h-3.1v-2.4h37v2.4h-3.1c-3.5 0-6.1 1-7.7 3.1-1.1 1.4-1.6 4.6-1.6 9.8v55.8c0 4.4.3 7.3.8 8.7.4 1.1 1.3 2 2.7 2.7 1.8 1 3.8 1.5 5.8 1.5h3.1M762.9 234.6l2 29.3h-2c-2.6-8.8-6.4-15.1-11.3-19-4.9-3.9-10.7-5.8-17.6-5.8-5.7 0-10.9 1.5-15.5 4.4-4.6 2.9-8.3 7.5-10.9 13.9-2.7 6.4-4 14.3-4 23.7 0 7.8 1.3 14.6 3.8 20.3 2.5 5.7 6.3 10.1 11.3 13.2 5 3.1 10.8 4.6 17.2 4.6 5.6 0 10.5-1.2 14.8-3.6 4.3-2.4 9-7.2 14.1-14.3l2 1.3c-4.3 7.7-9.4 13.3-15.2 16.9-5.8 3.6-12.6 5.3-20.6 5.3-14.3 0-25.4-5.3-33.2-15.9-5.9-7.9-8.8-17.2-8.8-27.9 0-8.6 1.9-16.5 5.8-23.7 3.9-7.2 9.2-12.8 15.9-16.8 6.8-4 14.2-6 22.2-6 6.2 0 12.4 1.5 18.5 4.6 1.8.9 3.1 1.4 3.8 1.4 1.1 0 2.1-.4 3-1.2 1.1-1.1 1.9-2.7 2.4-4.8h2.3M862.1 322.9h-23l-29.2-40.4c-2.2.1-3.9.1-5.3.1h-1.8c-.6 0-1.3-.1-2-.1v25.1c0 5.4.6 8.8 1.8 10.1 1.6 1.9 4 2.8 7.3 2.8h3.4v2.4h-37v-2.4h3.2c3.7 0 6.3-1.2 7.8-3.6.9-1.3 1.3-4.4 1.3-9.4v-55.8c0-5.4-.6-8.8-1.8-10.1-1.7-1.9-4.1-2.8-7.4-2.8h-3.2v-2.4h31.4c9.2 0 15.9.7 20.3 2 4.3 1.3 8 3.8 11.1 7.4 3 3.6 4.6 7.9 4.6 12.8 0 5.3-1.7 9.9-5.2 13.8-3.5 3.9-8.8 6.7-16.1 8.3l17.8 24.8c4.1 5.7 7.6 9.5 10.5 11.3 2.9 1.9 6.7 3.1 11.5 3.6v2.5zm-61.3-44.4h3.6c8.2 0 14.4-1.8 18.6-5.3 4.2-3.6 6.3-8.1 6.3-13.6 0-5.4-1.7-9.8-5.1-13.1-3.4-3.4-7.8-5.1-13.4-5.1-2.5 0-5.8.4-10 1.2v35.9z"/></g><circle cx="911.1" cy="276.9" r="47.9" fill="#EE2C24"/></svg>
