<?xml version="1.0" standalone="no"?>
<!DOCTYPE svg PUBLIC "-//W3C//DTD SVG 20010904//EN"
 "http://www.w3.org/TR/2001/REC-SVG-20010904/DTD/svg10.dtd">
<svg version="1.0" xmlns="http://www.w3.org/2000/svg"
 viewBox="0 0 1227.000000 267.000000"
 preserveAspectRatio="xMidYMid meet">
<metadata>
Created by potrace 1.16, written by Peter Selinger 2001-2019
</metadata>
<g transform="translate(0.000000,267.000000) scale(0.100000,-0.100000)"
fill="#000000" stroke="none">
<path d="M1235 2489 c-38 -5 -112 -20 -163 -34 -380 -101 -705 -425 -806 -804
-111 -416 -1 -834 298 -1133 454 -452 1183 -451 1636 2 598 598 376 1607 -420
1907 -151 57 -386 84 -545 62z m33 -720 c-3 -85 -5 -92 -31 -115 l-28 -24
-275 0 -274 0 0 44 c0 75 29 126 95 167 27 17 53 19 273 19 l244 0 -4 -91z
m832 39 c0 -68 -32 -125 -85 -155 -38 -22 -50 -23 -261 -23 -160 0 -225 -3
-237 -12 -15 -12 -17 -51 -19 -408 l-3 -395 -87 0 c-82 0 -89 2 -115 28 l-28
27 -3 323 c-2 177 0 337 3 356 4 18 17 44 30 57 21 21 33 24 99 24 54 0 79 4
90 16 12 11 16 36 16 90 0 66 3 78 25 99 l24 25 276 0 275 0 0 -52z"/>
<path d="M3130 1650 l0 -60 115 0 115 0 0 -310 0 -310 60 0 60 0 0 310 0 310
120 0 c135 0 128 -5 114 83 l-7 37 -288 0 -289 0 0 -60z"/>
<path d="M4920 1340 l0 -370 59 0 60 0 3 171 3 171 37 34 c32 29 45 34 87 34
34 0 56 -6 76 -22 47 -36 55 -73 55 -238 l0 -150 60 0 60 0 0 158 c-1 174 -9
229 -46 284 -62 96 -221 113 -301 33 l-33 -33 0 149 0 149 -60 0 -60 0 0 -370z"/>
<path d="M7510 1340 l0 -370 65 0 65 0 2 245 3 245 170 -242 171 -243 57 -3
57 -3 0 371 0 370 -65 0 -65 0 -2 -245 -3 -246 -170 245 -170 245 -57 1 -58 0
0 -370z"/>
<path d="M11030 1340 l0 -370 60 0 60 0 0 120 0 121 108 -120 107 -120 80 -1
80 0 -80 83 c-44 45 -102 105 -128 133 l-48 50 116 121 c63 67 115 124 115
127 0 3 -30 6 -67 6 l-68 0 -107 -112 -107 -113 -1 223 0 222 -60 0 -60 0 0
-370z"/>
<path d="M8860 1560 l0 -70 -50 0 -51 0 3 -57 3 -58 48 -3 47 -3 0 -122 c0
-67 5 -139 10 -159 23 -82 101 -132 196 -126 l49 3 3 53 3 52 -41 0 c-33 0
-48 6 -71 29 -29 29 -29 30 -29 150 l0 120 68 3 67 3 0 55 0 55 -67 3 -68 3 0
69 0 70 -60 0 -60 0 0 -70z"/>
<path d="M3865 1491 c-154 -40 -237 -189 -194 -346 47 -169 260 -247 380 -138
l38 34 3 -38 3 -38 58 -3 57 -3 0 266 0 266 -57 -3 -58 -3 -3 -38 -3 -38 -27
26 c-51 51 -130 74 -197 56z m153 -131 c97 -60 97 -210 0 -270 -65 -39 -166
-18 -210 43 -30 41 -35 121 -11 167 39 76 147 105 221 60z"/>
<path d="M4508 1487 c-92 -26 -169 -109 -188 -203 -36 -173 84 -325 259 -327
105 -1 186 47 232 135 31 61 27 68 -38 68 -54 0 -59 -2 -75 -29 -23 -42 -72
-64 -124 -58 -145 16 -187 202 -63 285 28 20 43 23 88 19 48 -3 59 -8 87 -40
29 -34 35 -37 88 -37 32 0 56 4 56 10 0 20 -38 85 -66 114 -63 63 -166 88
-256 63z"/>
<path d="M6218 1486 c-242 -67 -270 -395 -43 -502 96 -46 220 -25 296 48 114
110 113 289 -3 393 -70 64 -162 86 -250 61z m153 -130 c68 -46 87 -129 46
-200 -26 -46 -77 -76 -130 -76 -135 0 -202 164 -105 257 40 37 50 41 108 42
33 1 56 -6 81 -23z"/>
<path d="M6852 1479 c-24 -12 -49 -30 -55 -40 -18 -29 -27 -23 -27 16 l0 35
-55 0 -55 0 0 -260 0 -260 55 0 55 0 0 143 c0 164 9 206 51 241 37 31 105 35
150 9 51 -30 59 -64 59 -237 l0 -156 60 0 60 0 0 163 c0 197 -13 254 -70 308
-62 59 -154 74 -228 38z"/>
<path d="M8399 1486 c-76 -20 -143 -79 -175 -155 -9 -20 -16 -65 -17 -101 -1
-143 87 -246 231 -271 109 -19 216 30 263 122 10 21 19 43 19 49 0 6 -24 10
-55 10 -51 0 -58 -3 -86 -35 -55 -62 -146 -60 -211 5 -21 21 -38 47 -38 59 0
21 3 21 200 21 l200 0 0 38 c0 117 -76 225 -179 256 -64 19 -89 19 -152 2z
m142 -119 c18 -12 39 -34 46 -47 l12 -25 -131 -3 c-72 -1 -133 0 -136 2 -9 10
29 57 61 76 44 27 106 26 148 -3z"/>
<path d="M10198 1486 c-49 -13 -63 -21 -116 -70 -127 -117 -99 -332 55 -423
63 -36 171 -44 234 -16 62 28 110 72 139 130 20 38 25 63 25 123 0 65 -4 82
-30 129 -35 63 -88 105 -158 126 -60 18 -86 18 -149 1z m150 -126 c130 -79 74
-280 -78 -280 -85 0 -150 65 -150 150 0 116 129 190 228 130z"/>
<path d="M10840 1489 c-14 -6 -37 -22 -52 -36 l-28 -27 0 32 0 32 -60 0 -60 0
0 -260 0 -260 60 0 60 0 0 163 c0 145 2 165 20 195 25 41 81 66 132 59 l38 -5
0 53 c0 39 -4 54 -16 59 -23 9 -65 6 -94 -5z"/>
<path d="M5899 1483 l-36 -4 -63 -162 c-34 -89 -66 -166 -70 -170 -4 -5 -38
68 -75 162 l-68 171 -63 0 -64 0 13 -32 c147 -350 187 -448 187 -457 0 -6 -20
-56 -44 -111 l-45 -100 63 0 64 0 20 48 c58 135 272 653 272 657 0 5 -28 4
-91 -2z"/>
<path d="M9160 1488 c0 -2 43 -120 94 -263 l94 -260 47 0 47 0 61 163 c33 90
63 160 67 155 4 -4 24 -55 45 -113 21 -58 46 -129 57 -158 l20 -53 46 3 47 3
92 255 c51 140 93 259 93 263 0 4 -28 7 -62 5 l-62 -3 -51 -157 c-28 -87 -54
-160 -57 -163 -3 -3 -32 68 -65 157 l-60 163 -47 0 -48 0 -56 -157 c-32 -86
-60 -159 -63 -162 -3 -3 -30 68 -59 159 l-54 165 -63 0 c-35 0 -63 -1 -63 -2z"/>
<path d="M11652 1469 c-67 -33 -96 -95 -81 -169 12 -57 54 -85 164 -110 91
-21 135 -44 135 -70 0 -6 -11 -22 -25 -35 -42 -43 -154 -26 -170 25 -5 17 -15
20 -67 20 -51 0 -59 -2 -54 -16 3 -9 6 -22 6 -29 0 -24 63 -88 105 -106 105
-46 215 -30 279 41 35 39 40 57 36 125 -4 63 -56 107 -150 126 -30 6 -72 16
-94 22 -85 24 -64 99 29 101 42 1 50 -3 74 -31 25 -30 33 -33 80 -33 l54 0 -7
32 c-8 41 -49 85 -101 109 -57 26 -157 25 -213 -2z"/>
</g>
</svg>
