<svg xmlns="http://www.w3.org/2000/svg" viewBox="0 0 1227 267"><path d="M123.5 18.1a117 117 0 0 0-96.9 83.8 115 115 0 0 0 29.8 113.3A115.9 115.9 0 1 0 178 24.3a128 128 0 0 0-54.5-6.2m3.3 72c-.3 8.5-.5 9.2-3.1 11.5l-2.8 2.4H66v-4.4a18 18 0 0 1 9.5-16.7c2.7-1.7 5.3-1.9 27.3-1.9h24.4zm83.2-3.9c0 6.8-3.2 12.5-8.5 15.5-3.8 2.2-5 2.3-26.1 2.3-16 0-22.5.3-23.7 1.2-1.5 1.2-1.7 5.1-1.9 40.8l-.3 39.5h-8.7c-8.2 0-8.9-.2-11.5-2.8l-2.8-2.7-.3-32.3c-.2-17.7 0-33.7.3-35.6.4-1.8 1.7-4.4 3-5.7 2.1-2.1 3.3-2.4 9.9-2.4 5.4 0 7.9-.4 9-1.6 1.2-1.1 1.6-3.6 1.6-9 0-6.6.3-7.8 2.5-9.9l2.4-2.5H210zM313 102v6h23v62h12v-62h12c13.5 0 12.8.5 11.4-8.3l-.7-3.7H313zm179 31v37h11.9l.3-17.1.3-17.1 3.7-3.4c3.2-2.9 4.5-3.4 8.7-3.4 3.4 0 5.6.6 7.6 2.2 4.7 3.6 5.5 7.3 5.5 23.8v15h12v-15.8c-.1-17.4-.9-22.9-4.6-28.4-6.2-9.6-22.1-11.3-30.1-3.3l-3.3 3.3V96h-12zm259 0v37h13l.2-24.5.3-24.5 17 24.2 17.1 24.3 5.7.3 5.7.3V96h-13l-.2 24.5-.3 24.6-17-24.5-17-24.5-5.7-.1H751zm352 0v37h12v-24.1l10.8 12 10.7 12 8 .1h8l-8-8.3-12.8-13.3-4.8-5 11.6-12.1c6.3-6.7 11.5-12.4 11.5-12.7s-3-.6-6.7-.6h-6.8l-10.7 11.2-10.7 11.3-.1-22.3V96h-12zm-217-22v7h-10.1l.3 5.7.3 5.8 4.8.3 4.7.3v12.2c0 6.7.5 13.9 1 15.9 2.3 8.2 10.1 13.2 19.6 12.6l4.9-.3.3-5.3.3-5.2H908c-3.3 0-4.8-.6-7.1-2.9-2.9-2.9-2.9-3-2.9-15v-12l6.8-.3 6.7-.3v-11l-6.7-.3-6.8-.3V104h-12zm-499.5 6.9a27 27 0 0 0-19.4 34.6c4.7 16.9 26 24.7 38 13.8l3.8-3.4.3 3.8.3 3.8 5.8.3 5.7.3v-53.2l-5.7.3-5.8.3-.3 3.8-.3 3.8-2.7-2.6a21 21 0 0 0-19.7-5.6m15.3 13.1c9.7 6 9.7 21 0 27a17 17 0 0 1-21-4.3c-3-4.1-3.5-12.1-1.1-16.7a16 16 0 0 1 22.1-6m49-12.7a27 27 0 0 0-18.8 20.3 26.4 26.4 0 0 0 25.9 32.7c10.5.1 18.6-4.7 23.2-13.5 3.1-6.1 2.7-6.8-3.8-6.8-5.4 0-5.9.2-7.5 2.9a12 12 0 0 1-12.4 5.8c-14.5-1.6-18.7-20.2-6.3-28.5 2.8-2 4.3-2.3 8.8-1.9 4.8.3 5.9.8 8.7 4 2.9 3.4 3.5 3.7 8.8 3.7 3.2 0 5.6-.4 5.6-1 0-2-3.8-8.5-6.6-11.4a27 27 0 0 0-25.6-6.3m171 .1a26.8 26.8 0 1 0 14 51.8 26.8 26.8 0 0 0-14-51.8m15.3 13a14.7 14.7 0 0 1 4.6 20 15 15 0 1 1-23.5-18.1c4-3.7 5-4.1 10.8-4.2 3.3-.1 5.6.6 8.1 2.3m48.1-12.3c-2.4 1.2-4.9 3-5.5 4q-2.7 4.3-2.7-1.6V118h-11v52h11v-14.3c0-16.4.9-20.6 5.1-24.1 3.7-3.1 10.5-3.5 15-.9 5.1 3 5.9 6.4 5.9 23.7V170h12v-16.3c0-19.7-1.3-25.4-7-30.8a20 20 0 0 0-22.8-3.8m154.7-.7a27 27 0 0 0-17.5 15.5 33 33 0 0 0-1.7 10.1c-.1 14.3 8.7 24.6 23.1 27.1 10.9 1.9 21.6-3 26.3-12.2 1-2.1 1.9-4.3 1.9-4.9s-2.4-1-5.5-1c-5.1 0-5.8.3-8.6 3.5-5.5 6.2-14.6 6-21.1-.5-2.1-2.1-3.8-4.7-3.8-5.9 0-2.1.3-2.1 20-2.1h20v-3.8c0-11.7-7.6-22.5-17.9-25.6a22 22 0 0 0-15.2-.2m14.2 11.9c1.8 1.2 3.9 3.4 4.6 4.7l1.2 2.5-13.1.3c-7.2.1-13.3 0-13.6-.2-.9-1 2.9-5.7 6.1-7.6a14 14 0 0 1 14.8.3m165.7-11.9c-4.9 1.3-6.3 2.1-11.6 7-12.7 11.7-9.9 33.2 5.5 42.3a30 30 0 0 0 23.4 1.6 28 28 0 0 0 13.9-13c2-3.8 2.5-6.3 2.5-12.3 0-6.5-.4-8.2-3-12.9a26 26 0 0 0-15.8-12.6c-6-1.8-8.6-1.8-14.9-.1m15 12.6c13 7.9 7.4 28-7.8 28-8.5 0-15-6.5-15-15 0-11.6 12.9-19 22.8-13m49.2-12.9c-1.4.6-3.7 2.2-5.2 3.6l-2.8 2.7V118h-12v52h12v-16.3c0-14.5.2-16.5 2-19.5 2.5-4.1 8.1-6.6 13.2-5.9l3.8.5v-5.3c0-3.9-.4-5.4-1.6-5.9-2.3-.9-6.5-.6-9.4.5m-494.1.6-3.6.4-6.3 16.2a211 211 0 0 1-7 17c-.4.5-3.8-6.8-7.5-16.2l-6.8-17.1H546l1.3 3.2c14.7 35 18.7 44.8 18.7 45.7 0 .6-2 5.6-4.4 11.1l-4.5 10h12.7l2-4.8c5.8-13.5 27.2-65.3 27.2-65.7q.2-.7-9.1.2m326.1-.5 9.4 26.3 9.4 26h9.4l6.1-16.3c3.3-9 6.3-16 6.7-15.5s2.4 5.5 4.5 11.3l5.7 15.8 2 5.3 4.6-.3 4.7-.3 9.2-25.5c5.1-14 9.3-25.9 9.3-26.3s-2.8-.7-6.2-.5l-6.2.3-5.1 15.7a206 206 0 0 1-5.7 16.3c-.3.3-3.2-6.8-6.5-15.7l-6-16.3h-9.5l-5.6 15.7c-3.2 8.6-6 15.9-6.3 16.2s-3-6.8-5.9-15.9l-5.4-16.5h-6.3zm249.2 1.9a14.5 14.5 0 0 0-8.1 16.9c1.2 5.7 5.4 8.5 16.4 11q13.6 3.1 13.5 7c0 .6-1.1 2.2-2.5 3.5-4.2 4.3-15.4 2.6-17-2.5-.5-1.7-1.5-2-6.7-2-5.1 0-5.9.2-5.4 1.6.3.9.6 2.2.6 2.9 0 2.4 6.3 8.8 10.5 10.6 10.5 4.6 21.5 3 27.9-4.1 3.5-3.9 4-5.7 3.6-12.5q-.7-9.6-15-12.6l-9.4-2.2c-8.5-2.4-6.4-9.9 2.9-10.1 4.2-.1 5 .3 7.4 3.1 2.5 3 3.3 3.3 8 3.3h5.4l-.7-3.2c-.8-4.1-4.9-8.5-10.1-10.9a30 30 0 0 0-21.3.2"/></svg>