<svg viewBox="0 0 253 17" xmlns="http://www.w3.org/2000/svg" xmlns:xlink="http://www.w3.org/1999/xlink"><clipPath id="a"><path d="m351 766.746h203.139v32.391h-203.139z"/></clipPath><g fill="#00539b"><path d="m14.63375.33947h-14.63375v4.36375h4.97125v12.675h5.0425v-12.675h4.97125v-4.36375zm6.5748 5.94238 1.38875 4.3075h-2.8125zm8.78 10.62-6.23-16.33625-.08625-.22625h-4.895l-.08625.22625-6.23125 16.33625-.1825.47625h5.215l.08375-.2325.96625-2.69625h5.315l.945 2.69375.08125.235h5.28875zm17.0086-16.56238h-4.90625v9.18375l-5.1775-9.0075-.10125-.17625h-5.4825v17.03875h5.25625v-9.285l5.17625 9.1075.10375.1775h5.48125v-17.03875z"/><g clip-path="url(#a)" transform="matrix(1.25 0 0 -1.25 -438.75 998.92)"><path d="m399.2598 792.1232c0-2.458-.89-3.346-3.402-3.399h-1.358v6.65h1.363c1.155 0 2.026-.285 2.586-.848.54-.537.811-1.345.811-2.403m2.232 4.924c-1.19 1.189-2.922 1.818-5.012 1.818h-6.014v-13.631h6.014c2.102 0 3.835.62 5.01 1.795 1.198 1.198 1.805 2.906 1.805 5.075 0 2.054-.624 3.763-1.803 4.943m11.0941-7.34c0-.508-.164-1.184-1.586-1.184h-2.501v2.44h2.501c.595 0 1.027-.13 1.283-.388.203-.202.303-.486.303-.868m-1.68 4.015h-2.407v1.946h2.407c.277 0 .659-.051.898-.291.159-.159.24-.392.24-.691 0-.937-1.022-.964-1.138-.964m3.777-.992c.882.618 1.397 1.545 1.397 2.578 0 .971-.303 1.761-.9 2.348-.847.833-2.261 1.24-4.202 1.209h-6.513v-13.631h6.683c2.001 0 3.475.461 4.385 1.371.722.721 1.087 1.721 1.087 2.973 0 1.403-.743 2.585-1.937 3.152m14.112-4.006h-7.058v1.928h6.536v3.197h-6.536v1.727h7.153v3.289h-11.187v-13.631h11.372v3.49zm9.5127 5.7232c0-.833-.445-1.255-1.324-1.255h-2.631v2.384h2.482c.52 0 .943-.139 1.195-.389.184-.185.278-.433.278-.74m4.365-8.735c-.343.349-.436 2.003-.467 2.546l-.014.223c-.17 1.9-.863 2.771-1.569 3.158 1.074.647 1.719 1.845 1.719 3.266 0 1.052-.341 1.928-1.017 2.603-.875.875-2.272 1.357-3.931 1.357h-7.075v-13.631h4.034v4.759h2.351c1.252 0 1.551-.848 1.661-2.411.007-.061.012-.135.02-.222.059-.759.147-1.601.421-2.004l.083-.122h4.254zm13.4644 7.2408h-5.883v-3.088h2.343c-.318-.88-1.311-1.415-2.697-1.415-.753 0-1.373.237-1.841.707-.63.629-.976 1.656-.976 2.893 0 1.235.346 2.262.976 2.892.468.469 1.088.707 1.841.707 1.317 0 2.262-.619 2.355-1.541l.024-.253h4.037l-.031.308c-.333 3.438-3.408 4.977-6.309 4.977-4.014 0-6.927-2.982-6.927-7.09 0-2.022.717-3.853 2.021-5.157 1.264-1.265 2.962-1.934 4.906-1.934.55 0 2.29.108 3.524 1.336l.118-.82.034-.241h2.766v7.719zm16.798-.83c0-2.458-.892-3.346-3.403-3.399h-1.354v6.65h1.36c1.154 0 2.025-.285 2.588-.848.539-.537.809-1.345.809-2.403m2.232 4.924c-1.19 1.189-2.923 1.818-5.011 1.818h-6.015v-13.631h6.015c2.101 0 3.833.62 5.009 1.795 1.199 1.198 1.804 2.906 1.804 5.075 0 2.054-.621 3.763-1.802 4.943m8.368-2.9357 1.111-3.446h-2.25zm7.025-8.496-4.986 13.069-.069.181h-3.916l-.068-.181-4.987-13.069-.143-.381h4.17l.067.186.773 2.157h4.252l.756-2.155.068-.188h4.228zm9.38 13.2499h-11.707v-3.491h3.976v-10.14h4.034v10.14h3.978v3.491zm4.685-4.7539 1.111-3.446h-2.251zm7.022-8.496-4.983 13.069-.071.181h-3.914l-.07-.181-4.984-13.069-.145-.381h4.17l.068.186.774 2.157h4.251l.754-2.155.067-.188h4.227zm7.715 7.5515h34.345v5.694h-34.345zm0-7.948h34.345v5.694h-34.345z"/></g></g></svg>