<svg xmlns="http://www.w3.org/2000/svg" xml:space="preserve" viewBox="0 0 1044.4 179.4"><path fill="#0070b2" d="M83.4 178.3c-33-3.8-62-24.7-75.5-54.3A83 83 0 0 1 0 86a75 75 0 0 1 8.8-38 83 83 0 0 1 39-38.4 80 80 0 0 1 31.4-9C94-1 107 .8 121.9 6.5a83 83 0 0 1 32.5 21.9A85 85 0 0 1 180 75.9c2 10.8 1.2 30.4-1.6 40a86 86 0 0 1-56.9 58.4c-7.4 2.5-26.8 5.7-30 5zm19.4-4.9c15-1.7 27-6 38.2-13.8a79 79 0 0 0 35.4-67c0-24.1-7.8-42.8-24.9-60.4A86 86 0 0 0 87 5.2 81 81 0 0 0 4.7 81.5a85 85 0 0 0 25.6 66 92 92 0 0 0 61.6 26.8c1 0 6-.3 11-.9m-20-10.5a36 36 0 0 0-10.5-3.4c-7-.1-21.1-6.2-30.3-12.9a79 79 0 0 1-22.6-30.5l-1-2.9 2.8 1.9 9 5.8c3.6 2.4 6 4.6 5.7 5.3l-1 2.6q-.9 1.4 13.9 11.5c8 5.6 15 10.1 15.4 10.1s1.6-1 2.4-2.1c1.4-2.1 1.6-2 14.8 7.1 7.4 5.2 13.9 9.7 14.4 10.2 2.5 2.2-6.7.3-13-2.7m6.6-8.3A187 187 0 0 1 70.7 143c-.1-.5 1-2.4 2.4-4.2l2.8-3.3L96 149c11.2 7.5 20.3 14 20.3 14.4 0 .8-4.9 2.2-7.4 2-.6 0-9.4-4.8-19.6-10.7m18-7.8A515 515 0 0 0 84 131.4c-4.1-2.2-4.3-2.6-2.2-5.3 1.3-1.8 2.7-1 25.9 14.5 13.5 9 24.5 16.6 24.5 17s-4.6 3-5.2 2.8zm6.4-10.5C100 127 88.4 119 88 118.6q-.6-.8.5-1.8c1-.9 7 2.9 26.5 16.5a370 370 0 0 1 25.2 18.7q0 1-.6 1.3a348 348 0 0 1-25.9-16.9M27 116.2l-10-6.9a66 66 0 0 1-3-14.8c.3-.2 6.8 3.9 14.6 9l15.1 10c1.2.8-4.1 9-5.7 8.9-.6 0-5.4-2.9-10.8-6.3m111.2-12.3L111.6 85c-.8-.7 1.2-3.6 2.2-3.2.7.3 13 8.4 27.2 18.1 25.4 17.3 27.2 19 24.5 21.8-.4.4-12.6-7.6-27.2-17.9m-109.2-3L13.4 90v-6.3c0-3.5.2-6.4.5-6.4 1 0 37.5 25.1 37.5 25.9 0 1.1-5 8.1-5.8 8-.4 0-7.8-4.8-16.5-10.6m114.3-9.5a497 497 0 0 1-24.8-17.8q-.2-.8 1.2-2c1.4-1.1 5.2 1.1 25.8 15l24.6 16.6c.7.5-.8 5.3-1.6 5.3a592 592 0 0 1-25.2-17m-109.8-5-19.4-13 .7-3.2c1.9-8.5.3-8.9 22.7 6l21.2 14.4c1 .9-3.8 9-5.2 8.9-.4 0-9.4-6-20-13m114.2-7-22.3-15.4c-.2-.2.3-1.3 1.1-2.4 1.4-2 2-1.6 22.4 12.1A397 397 0 0 1 170.6 89c1 1.4 1 5.5 0 5.5-.5 0-10.7-6.8-22.8-15.1m-92 4.8c-3.2-1.8-13-8-21.7-14L18.4 59.3l2-4q2-3.8 3.3-3.2c.9.5 41 27.8 42.5 29 .5.3-3.1 6.3-3.8 6.3-.3 0-3.2-1.5-6.5-3.3m93.9-16.5c-10-7-18.1-13-18-13.6q.4-.9 1.8-1.9c1.2-.7 5.5 1.8 18 10.7 9.2 6.4 17 12.3 17.3 13.2.8 2.2.7 4.5-.2 4.4-.4 0-9-5.8-19-12.8m-89.1 3.8a202 202 0 0 1-22.2-13.6l-14-9.7 1.8-2.9c.9-1.6 2.1-3.3 2.7-3.8s9.3 4.5 23.3 13.7l22.2 14.5-1.8 3c-.9 1.5-2.1 2.8-2.7 2.8s-4.8-1.8-9.3-4m4.2-13.3c-6-2.8-15.8-8.5-21.8-12.5l-10.8-7.4 3.3-3.4c1.8-1.8 3.6-3.4 4.1-3.4a61 61 0 0 1 8.5 5.4l20.5 14c11.7 8 12.6 8.9 11.5 10.7-.7 1-1.9 1.9-2.7 1.8s-6.5-2.4-12.6-5.2m78.5-12a128 128 0 0 0-27-16c-9.4-3.8-26.5-14.6-24.2-15.4.7-.2 4.2 0 7.7.6 6.2 1 7.6 1.8 32.5 19.2 22.7 15.9 30.3 22 28.9 23.5-.2.2-8.3-5.2-18-12M75 47.8a62 62 0 0 1-21.5-11l-11-7.9a16 16 0 0 1 4.3-3l4.7-2.7 18.4 12.3c12 8 18.4 12.8 18.3 13.8-.5 2.3-1.6 2.2-13.2-1.5m7-9.8c-8.2-3.3-22.8-12-27-15.6-.4-.4 1.8-1.7 5-2.9l5.7-2.2 13.6 9.2c17 11.5 16.6 11.2 15.1 13.8q-1 2-1.8 2c-.4 0-5.2-1.9-10.7-4.2m8.5-8c-5.7-2-19-10.2-20.5-12.7-.7-1 1.2-1.5 7.7-2.4 4.7-.7 5-.5 14.5 6l10 7c1 .6-2.4 4.4-3.7 4.4-.9 0-4.5-1.1-8-2.4m180 88.8V78.4h-32v-26h104v26h-31v81h-41zm83-13V52.4h96v26h-57v14l24.2.3 24.3.2.2 12.6.3 12.6-7.7.7c-4.2.3-15.2.6-24.5.6h-16.8v13h57v27h-96zm107 0V52.3l38.2.3c37.7.3 38.3.4 42.6 2.6a36 36 0 0 1 17.2 38.4 36 36 0 0 1-11.7 19.5l-4.3 3.2 15 20.6c8.2 11.3 15 21 15 21.6s-7.7.9-20.7.7L531 159l-11.8-20-11.8-20v-18.5h3.2q6.2 0 9.3-6c2.7-5.3 1.1-12-3.7-15.4q-2.2-1.5-9.6-1.6h-7.2v82h-39zm112.1 41.9-8.3-11.6 18-41.6 18-41.7h50.7l22.7 52.5c12.5 29 22.7 52.9 22.7 53.3s-9 .7-20 .7h-20l-6-12.5-6-12.5h-37.6l-5.9 12.5-5.8 12.5h-14zm63.9-36.1c0-1.5-10.3-27.3-11-27.2a312 312 0 0 0-10.6 26.2c-.6 1.6.3 1.7 10.5 1.7a42 42 0 0 0 11-.7m-174-78c-2.3-.8-2.6-1.4-2.8-7-.4-8 .6-8.6 13.4-8.1 10.6.4 11.3.8 11.4 7.4s-1.5 7.7-11.1 8c-4.7.2-9.6 0-11-.4m17-7.3v-5h-15v10h15zm11-2.4V13.4h5l-.2 10.3c-.3 9.8-.4 10.3-2.6 10.6s-2.2.1-2.2-10.3m15.2 9.7c-2.8-.5-3-.9-3.6-9-.4-6-.4-6.3 2-6.3 2.3 0 2.4.3 2.4 6.5v6.5h15V25c0-6.2 0-6.5 2.5-6.5 2.4 0 2.5.2 2.5 7.8V34l-9.3.1a96 96 0 0 1-11.5-.4m32.8-.1c-2.3-.7-2.6-1.3-2.8-6.3-.3-4.6-.7-5.7-2.3-6.2-2.5-.6-2.5-2.7 0-2.7q1.9 0 2-1.5c0-.8 1-1.5 2-1.5q1.9.1 2 1.5c0 1.2 1.4 1.5 5.7 1.5 7.3 0 7 2.4-.5 2.8l-5.1.3v10h6c4.5 0 6 .3 5.7 1.2-.4 1.4-8.8 2-12.7.9m18.7.2c-.4-.4-.7-4-.7-8 0-7.2 0-7.4 2.5-7.4s2.6 0 2.3 7.8c-.3 6-.7 7.8-1.9 8q-1.4.3-2.2-.4m14.3 0c-3.3-.7-4-2-4-7.4 0-7.2.4-7.5 12.5-7.5 8.3 0 10.7.4 11.5 1.5 1.2 2 1.2 10 0 11.9a50 50 0 0 1-20 1.5m15.8-7.6-.3-5.3h-14l-.3 5.3-.3 5.2h15.2zm11.1 7.8v-7.8l-.1-7.3 9.4-.2c5.2-.2 10.6.1 12.1.7 2.5 1 2.7 1.4 2.7 7.5s-.2 6.5-2.3 6.5-2.2-.3-1.9-6c.3-5.5.2-6-2-6.5-1.4-.3-4.9-.4-7.9-.3l-5.4.3-.5 6.5c-.4 5.2-.9 6.6-2.3 6.9q-1.6.1-1.8-.3m-358.9-2.5c-1.3-2.4-1.3-9 0-11 1.3-2.2 21-3 21-.9 0 1.1-2 1.4-8.3 1.4H244l-.3 5.2-.3 5.2h9c5.4 0 9 .4 9 1s-4 1-10.4 1c-9.3 0-10.6-.2-11.5-1.9m27.2.7c-1.5-1.4-1.6-9.6-.3-11.8.8-1.1 3.3-1.5 11.6-1.5 12 0 12.4.3 12.5 7.2 0 7.4 0 7.3-12 7.3q-10.6 0-11.8-1.2m18.6-6-.3-5.3h-14l-.3 5.3-.3 5.2h15.2zm10.8 0 .2-7.3 9.4-.2c5.2-.2 10.6.1 12.1.7 2.5 1 2.7 1.4 2.7 7.5s-.2 6.5-2.3 6.5-2.2-.3-1.9-6c.3-5.5.2-6-2-6.5-1.4-.3-4.9-.4-7.9-.3l-5.4.3-.3 6.3c-.3 5.7-.5 6.2-2.5 6.2-2.1 0-2.2-.4-2-7.2m34 6.6c-.3-.4-.6-3.3-.6-6.5 0-5.1-.3-5.8-2.3-6.2l-2.2-.4 2.2-.7q2.1-.9 2.3-2.2.2-1.2 2-1.4c1 0 2 .7 2 1.5 0 1.2 1.2 1.5 5 1.5 2.6 0 5.1.5 5.5 1q.4 1-5 1h-5.5v11h6c3.3 0 6 .5 6 1 0 1.1-14.3 1.5-15.4.4m20-6.6.2-7.3 7.6-.3c6.3-.2 7.6 0 7.6 1.3 0 1.2-1.2 1.5-5.5 1.5h-5.5v6c0 5.6-.2 6-2.3 6s-2.2-.3-2-7.2m20 6.6c-.3-.4-.6-3.3-.6-6.6 0-5.3.2-5.9 2.5-6.8a44 44 0 0 1 19.8.3c1.4 1 1.7 2.5 1.5 7.3l-.3 6-11 .2c-6.2.2-11.5 0-11.8-.4m19.2-6.6-.3-5.3-5.5-.3c-9-.5-10 0-10 5.9v5h16zm11.2-2.8c0-9.9 0-10 2.2-9.8 2.2.3 2.3.8 2.6 10l.2 9.8h-5zm31 9c0-.6 3.6-1 9.5-1 5.2 0 9.5-.3 9.5-.7-.1-2.5-2.2-3.2-10-3.5l-8.5-.3-.3-3.1c-.3-2.4.2-3.5 1.7-4.3 2.9-1.6 20.3-1 20.8.7.3 1-2 1.2-9.1 1.2-7.9 0-9.6.3-9.6 1.5 0 1.3 1.6 1.5 8.3 1.5 9.3 0 11 1 10.5 5.7l-.3 2.8-11.3.3q-11 .3-11.2-.7m197 0c0-.6 3.6-1 9.5-1 8.8 0 9.5-.1 9.5-2s-.7-2-8-2c-9.8 0-11-.4-11-4 0-4 3-5.1 13.8-4.7 12 .4 12 2.4 0 2.3-8 0-9.3.2-9.6 1.7s.6 1.7 8 1.7c9.4 0 11.1 1 10.6 5.7l-.3 2.8-11.3.3q-11 .3-11.2-.7m-72-15.9c0-1.4 1.6-2.1 3.4-1.5 2.4 1 1.9 2.4-1 2.4-1.3 0-2.4-.4-2.4-.9"/><path fill="#9d9e9e" d="M830 162.9a61 61 0 0 1-44.2-43.5 58 58 0 0 1 7.5-42.8 61 61 0 0 1 79-21 71 71 0 0 1 25.8 25.6c15.5 31.2-.1 68-33.8 80a72 72 0 0 1-34.4 1.7m25.9-29.6a29 29 0 0 0 18.2-24.5c2-25.6-30.3-40.7-50-23.3a27 27 0 0 0-6.6 33.9 28 28 0 0 0 16.7 14.3 38 38 0 0 0 21.7-.4M731.4 160a59 59 0 0 1-44-46.2A53 53 0 0 1 719 58.5a56 56 0 0 1 29-6.4c8.2 0 11.5.6 18.5 3l8.5 2.8.2 15.3c.2 8.4.1 15.2-.2 15.2-.2 0-2.5-1.3-5-3-10.9-7.4-25.3-9.4-35.2-5-6 2.6-13.4 9.9-16 15.7a31 31 0 0 0 .5 22 30 30 0 0 0 26 17c8 .6 16.8-2 24.6-7.2l5-3.4.3 15.2c.3 11.4 0 15.3-1 16-7.4 4.8-31.7 7.2-42.7 4.2m284.4.3c-.2-.7-.5-15.2-.7-32.2l-.2-30.8-16.5 21c-9.1 11.7-16.8 21.2-17.2 21.2s-8-9.4-17-21L948 97.5l-.3 31.5-.3 31.4h-28.7l-.7-31.2c-.4-17.2-.5-41.4-.4-53.8L918 53l14.5-.2 14.5-.2 17 21.9c9.3 12 17.3 21.7 17.7 21.4A694 694 0 0 0 999 74l16.8-21.5h28.6v109h-14c-10.4 0-14.2-.3-14.6-1.2"/></svg>