<svg xmlns="http://www.w3.org/2000/svg" xml:space="preserve" viewBox="0 0 487.9 175.1"><path d="M307.7 174.4c-.4-.3-.7-10.8-.7-23.1v-22.5l11.3.4c12.9.4 17 2 20 7.9 3.8 7.6 1 19.2-5.5 22.6-1.8.9-6 1.9-9.5 2.1l-6.2.5-.3 6.1-.3 6.2-4 .3c-2.3.1-4.4 0-4.8-.5m19.8-22.7c1.3-1 1.8-2.7 1.9-6 .1-5.8-1.8-7.6-8-7.6H317v15h4.3a13 13 0 0 0 6.2-1.4m25.5 22.7c-2.9-1-7-5.7-8.2-9.2-.6-2-1.2-8.1-1.1-13.6 0-12 2.2-18.4 7.2-21a47 47 0 0 1 20-1c2.8.7 3.1 1 3.1 4.6v3.9h-8.5c-8.3 0-8.5 0-10 3-1.8 3.5-2 18-.4 21.3 1.8 3.3 2.8 3.6 11.2 3.7h7.7v3.8c0 3.2-.4 4-2.2 4.5-2.8.8-16.7.7-18.8 0m31.3-1.3c-6.3-3.8-8.9-13.8-5.8-22.9 2.2-6.8 5.8-9.4 13.4-9.5 11.3-.2 16.1 4.8 16.1 16.8 0 8.2-1.9 13-6.2 15.5a20 20 0 0 1-17.5.1m13-8.4a29 29 0 0 0-.3-13.7c-1.3-2.4-6.2-2.6-8.1-.3-.9 1-1.3 4-1.3 7.7 0 4.6.5 6.3 2 7.4 2 1.5 6.4.9 7.6-1m17.2 9.1c-.3-.7-.4-11-.3-22.8l.3-21.4h9v45l-4.3.3q-4.2.3-4.7-1m16.2.6c-.4-.3-.7-10.8-.7-23.1V129l11.3.4c16 .5 20.4 3.5 21.5 15 .6 5.9-2.4 12.6-6.7 15.2-1.7 1-6 2-9.5 2.3l-6.5.6-.3 6.2-.3 6-4 .4c-2.3.1-4.4 0-4.8-.5m19.4-22.4c1.5-.8 1.9-2 1.9-6.4 0-6.3-1.3-7.5-8-7.5h-4v15h4c2.3 0 5-.5 6-1M25.6 114a17 17 0 0 1-12.7-9.7c-2.2-4.5-2.4-6-2.7-29l-.4-24.2H0V32h10V10h22v22h20v19H31.9l.3 20.5c.2 17 .6 20.7 1.8 21.5.8.5 5 1 9.1 1 9 0 8.9-.1 8.9 11.6v7.1l-7.5 1.1a46 46 0 0 1-19 0m53.5 0a27 27 0 0 1-22.2-20.2c-2-6.2-2.4-9.2-2.3-20.7 0-11.5.4-14.5 2.3-20C62 38.4 71.7 31 87.2 30.3c13.4-.8 24.2 2.7 30.2 9.8l2.6 3.1v38.9H98.5c-23.4 0-22.5-.3-20.4 5.8q1 3.1 5.6 5.3c4.3 2 5.4 2.1 20.4 1.5L120 94v16.9l-4.8 1c-12 3-27.5 3.8-36 2M103 61c0-4.7-2.6-9.8-5.5-11a25 25 0 0 0-14.5.3c-3 1.5-6 7.1-6 11v2.8h26zm90 52.8c-11-3.2-16.3-11.2-16.3-25.2-.1-13 4.3-19.8 15.4-23.4 2-.7 9.4-1.7 16.5-2.4l12.9-1.3-.2-4.4c-.3-7.2-1-7.5-19.8-7.2l-16.5.3v-8c0-4.4.4-8.2.8-8.5 2-1.2 21-3.6 28.5-3.6 11.5 0 18.2 2 23.2 7.4 5.9 6 6.5 9.2 6.5 33.2 0 11.5.3 22 .7 23.2a6 6 0 0 0 3 3.3c2 .7 2.4 1.4 2 3.1-.4 1.3-.7 5.1-.7 8.6v6.4l-7.2-.7a40 40 0 0 1-11.8-2.8l-4.6-2.2-6.4 2.3a52 52 0 0 1-26 1.9M220 94c1.7-1 2-2 2-8.7V78l-8.2.6q-8.3.8-10.7 2.4c-4.5 3.2-5.2 10-1.4 13.7 1.4 1.4 3 1.6 9 1.2 3.9-.3 8-1 9.2-1.7m57.7 20a25 25 0 0 1-19.1-17.4 90 90 0 0 1-1.2-43.4q6.5-24.8 35.1-22.9c5 .3 10 .9 11.3 1.2l2.2.7V0l11.3.3 11.2.3v112l-11.2.2c-9.4.3-11.3 0-11.3-1.1s-1-1.1-5.7.5a48 48 0 0 1-22.6 1.8m27-21.5c1-.4 1.3-5.5 1.3-20.9V51.3l-3.1-.6a68 68 0 0 0-9.9-.6c-5.9 0-7 .3-9.3 2.6-4 3.9-5.2 8.7-5.2 20.4 0 8.9.4 11.2 2.4 15.2 1.7 3.6 3 5 5.4 5.6a63 63 0 0 0 18.5-1.3m90.6 21.5A28 28 0 0 1 374 94.5c-2-6-2.3-9-2.4-21.4 0-19.7 2.4-28 10.2-35 4.9-4.5 6.6-5.4 13.2-7a92 92 0 0 1 30.6 1.2l6 1.3-.4 8.5c-.2 4.6-.4 8.7-.6 9-.2.2-4.9 0-10.5-.5a42 42 0 0 0-14.8.3c-9 2.5-10.7 5.7-10.7 21.7 0 14 1.3 17.7 7.3 20.2a63 63 0 0 0 24 .7l5.2-.7.2 7.2.2 9.3c0 2-.7 2.4-6.4 3.4a117 117 0 0 1-29.7 1.4m78.5-1.6c-5.8-3.2-6.7-10.7-1.7-14.8 5-4.3 11.5-3.3 14.4 2.3 2.2 4.2 1.9 6.6-1.2 10-3.4 3.7-7.8 4.6-11.5 2.5m6.2-3.4c-1.5-2.8-3-3.4-3-1.2 0 1.1-.6 2.2-1.2 2.5q-.9.5 2 .6c3 0 3.2-.1 2.2-1.9m-6-5c0-3.2-.4-5-1-4.5-1.7 1-1.2 9.5.7 9.5.2 0 .3-2.3.3-5m11 .2c0-2.8-4.2-7.3-6.7-7.2q-1.5 0 1.5 1.5c3.3 1.4 4.2 4 2 6.2q-1.3 1.2.2 2.8c1.6 1.9 3 .4 3-3.3m-5-2.2q-.1-1-1.5-1t-1.5 1q.2.9 1.5 1 1.4-.1 1.5-1m-350.5 9.7c-.3-.7-.4-18.8-.3-40.2l.3-39 11.2-.3L152 32v3.5c0 2 .2 3.6.5 3.6s2.7-1.1 5.4-2.5c7.2-3.6 18.1-7 19.2-5.8.5.5.8 5.6.7 11.4l-.3 10.4-6.2.7c-3.4.5-9 1.8-12.5 3l-6.3 2.3-.3 27.2-.2 27.3h-11c-8 0-11.2-.4-11.5-1.3M341 72.6V32h22v81h-22zm99 0V32l11.3.3 11.2.3v80l-11.2.2-11.3.3zm-99-61V0h22v23h-22zm99 0V0l11.3.3 11.2.3v22l-11.2.2-11.3.3z"/></svg>