<svg xmlns="http://www.w3.org/2000/svg" viewBox="0 0 800 121.9"><path fill="red" d="M765.5 119.8H800L764.4 2h-49.1l-35.7 117.7h34.6l6.3-21.8H759zm-37.4-48 11.7-40.6h.2l11.8 40.6zM172.5 122c35.5 0 52.6-6.3 55-38.3q.8-11.6.7-22.7.2-11-.7-22.6C225.1 6.3 208 0 172.5 0s-52.6 6.2-55 38.3q-1 11.6-.8 22.6-.1 11.1.7 22.7c2.5 32 19.6 38.3 55 38.3m-22.2-61c0-6.5.1-10.3.3-13.1.9-18.2 8-20.3 22-20.3s21.1 2 22 20.3a228 228 0 0 1 0 26.2c-.9 18.1-8 20.3-22 20.3s-21.1-2.2-22-20.3c-.2-2.9-.3-6.7-.3-13.2zM0 2v29.4h35.2v88.3h35.2V31.5h35.1V2.2zm539.9 117.6V2h-33.4v117.7zM405.5 45.1V2h-33.2v117.7h33.2V74.4h38.6v45.4h33.2V2H444v43zm244.2 13.2c14.8-3.8 19.1-12.6 19.1-25.4 0-25.9-16.3-30.8-39.4-30.8h-60v117.7h63c29 0 38.7-12.5 38.7-31.7 0-13.4-3-25.2-21.4-29.8m-47 13.1h23c9.3 0 11.2 4.1 11.2 10.7 0 6.7-3.6 10.8-11.2 10.8h-23zm0-42.4h23c6 0 9.7 2.9 9.7 9.7 0 6-3.7 9.5-9.8 9.5h-23zM247.5 81.2h31.6c0 5.7.8 9.5 3.6 11.6 3.1 2.4 6 3.2 15.3 3.2 9 0 18.8 0 18.8-11.1 0-8.8-5.5-10.8-15.6-11.3-25.3-1.4-34.4-2.1-43.8-9.1-6.4-4.8-9.7-14-9.7-26.6 0-21.3 7.5-28.8 18.2-34 11.1-5.4 54.5-5.4 66.2 0 14.7 6.8 15.2 21.4 15.2 35h-31.6c0-6.9-1.7-8.9-3-10.2-3.2-2.9-7.9-3.5-14.6-3.5-8.2 0-17.6.4-17.6 10.3 0 7.6 3.3 10.7 11.8 11.3 11.8.8 35 1.5 43.3 6.4 11.6 6.9 14.6 16.1 14.6 31.3 0 21.9-7.8 28.3-18.7 33.2-12.6 5.5-54.6 5.5-68.3-.5-15.3-6.7-15.6-20-15.6-36.2"/></svg>