<svg xmlns="http://www.w3.org/2000/svg" version="1" viewBox="0 0 800 121.893"><path d="M765.45 119.78H800L764.35 2.12h-49.1L679.6 119.78h34.56l6.3-21.78h38.66l6.33 21.78m-37.5-47.94l11.75-40.66h.2l11.76 40.66h-23.72zM172.48 121.9c35.48 0 52.63-6.26 55.06-38.28.58-7.6.7-15.43.7-22.68 0-7.23-.12-15.06-.7-22.67C225.1 6.23 207.96 0 172.48 0s-52.62 6.24-55.04 38.27c-.6 7.6-.7 15.44-.7 22.67 0 7.25.1 15.07.7 22.7 2.42 32 19.56 38.25 55.04 38.25m-22.3-61c0-6.5.15-10.3.3-13.1.9-18.2 8.06-20.3 22-20.3 13.95 0 21.12 2.1 22 20.3.15 2.8.32 6.6.32 13.1s-.17 10.3-.3 13.1c-.9 18.15-8.07 20.3-22.02 20.3-13.94 0-21.1-2.15-22-20.3-.15-2.85-.3-6.67-.3-13.15zM0 2.1v29.4h35.17v88.33h35.2V31.5h35.16V2.17H0m539.85 117.6V2.13h-33.4V119.8h33.4M405.5 45.07V2.12h-33.2v117.66h33.2V74.4h38.58v45.38h33.2V2.12h-33.2v42.96H405.5m244.17 13.2c14.8-3.78 19.13-12.6 19.13-25.38 0-25.86-16.27-30.78-39.4-30.78h-59.95v117.66h62.92c28.97 0 38.7-12.48 38.7-31.68 0-13.38-3.05-25.2-21.4-29.82m-47.03 13.17h23.02c9.3 0 11.24 4.07 11.24 10.7 0 6.63-3.64 10.72-11.24 10.72h-23.02V71.45zm0-42.43h23.02c6 0 9.73 2.86 9.73 9.7 0 5.9-3.7 9.5-9.8 9.5h-23v-19.2zM247.58 81.17h31.65c.03 5.7.76 9.52 3.53 11.63 3.15 2.37 5.97 3.15 15.32 3.15 9 0 18.86 0 18.86-11.08 0-8.74-5.5-10.74-15.68-11.28-25.22-1.4-34.34-2.1-43.73-9.1-6.4-4.8-9.72-14-9.72-26.6 0-21.3 7.5-28.76 18.2-33.98 11.1-5.4 54.5-5.4 66.2 0 14.7 6.76 15.16 21.4 15.16 35h-31.6c-.06-6.9-1.62-8.88-2.9-10.17-3.27-2.9-7.94-3.5-14.7-3.5-8.14 0-17.6.36-17.6 10.26 0 7.57 3.3 10.73 11.87 11.3 11.8.75 35 1.5 43.3 6.4 11.6 6.85 14.6 16.14 14.6 31.3 0 21.9-7.83 28.34-18.74 33.16-12.6 5.56-54.65 5.56-68.3-.43-15.3-6.7-15.63-19.98-15.63-36.2" fill="red"/></svg>
