<svg xmlns="http://www.w3.org/2000/svg" viewBox="0 0 1448.9 546"><g fill="#4accd5"><path d="M159 545.4a31 31 0 0 1-19.7-16l-2.3-4.6-.5-58-.5-58-58.5-.5-58.5-.5-4.6-2.7c-5-3-9.8-8-12.6-13C0 389 0 384.7 0 337.8v-51h258v259l-48 .2c-26.4 0-49.3-.2-51-.6"/><path d="M300 404.2c-.3-.8-.4-26.6-.3-57.4l.3-56 28.5-.6c29.4-.6 32.6-1 46.3-5.8 34.7-12 58-49.5 55.3-89.1-2.6-40.8-26.7-70-64.8-78.6-9.6-2.2-29.9-2.3-39.4-.1a90 90 0 0 0-69 66.7c-1.3 5-1.8 13-2.1 34.3-.5 24.8-.7 27.7-2.2 27.8-9.1.2-111.6-.3-112-.6-.8-.8 0-60.6 1-68.5 8.3-66.1 50.5-125 111.1-154.9A198 198 0 0 1 345 0c33.7-.1 62.2 6 90 19.2a189 189 0 0 1 106 138.2c14 72-7.6 142.6-58.8 191.6a201 201 0 0 1-106.5 53.5c-9.7 1.7-17.1 2.2-43.4 2.6s-31.9.2-32.3-1"/></g><path d="M734 466.4a15 15 0 0 1-4-3c-2-2.3-2-3.7-2-88.6v-86.3l5.1-5.8a103 103 0 0 1 47.4-28.5c7-2 11-2.3 23-2.3 17 0 23 1.3 36.5 8 33.3 16.4 50 55 40 93.1a75 75 0 0 1-61 54.8c-5.3 1-14.8 1.5-24.1 1.5-14.1 0-15.4-.1-16.4-2-.5-1-1-7-1-13.5s.5-12.5 1-13.5c1-1.8 2.3-2 15.9-2 20.2 0 28.4-2.5 38.3-11.8a50 50 0 0 0 2.5-68 44 44 0 0 0-40-13.1 52 52 0 0 0-27.5 13.4l-4.2 4.5V384c0 61.5-.3 81.1-1.2 82-1.4 1.4-25 1.6-28.3.3m-83.3-58.6a48 48 0 0 1-21-10 46 46 0 0 1-12.2-25c-1-7.6-1.4-144.2-.4-147 .8-2 32.1-17.8 34-17 1 .3 1.4 5 1.6 22.7l.3 22.3 21.2.3c25 .3 22.5-1.7 22 17.7l-.2 13-21.5.6-21.8.7c-.2.1-.2 18.3 0 40.5.3 38.3.4 40.4 2.3 43.7 1.2 2 3.9 4.4 6.5 5.8 4.2 2 5.6 2.2 25 2.2 14.7 0 21 .4 21.8 1.2q1.2 1.2 1.2 14.3t-1.2 14.3c-1.8 1.8-49.2 1.5-57.6-.3m350.9-1-3.1-2.7V201.8l16.1-8.3c8.9-4.6 16.8-8 17.5-7.8 1.2.5 1.4 18.1 1.4 111.5 0 100.2-.2 111-1.6 111.5-.9.3-7.3.6-14.4.6-12.4 0-13 0-16-2.6m70.2 1.5c-5.5-2.2-5.3.7-5-79.6l.2-73.9h34l.3 76.5c.2 60.4 0 76.6-1 77.2-1.7 1-25.7 1-28.5-.2m67.8-.4c-5-2.8-5-2-5-63.9 0-48.1.1-58.2 1.3-60.5a90 90 0 0 1 18.8-18c7.4-5 20.5-11 29.3-13.3 10.5-2.8 29.7-3 40-.5a73 73 0 0 1 53.5 53c1.9 7.4 2 11.1 2 55.7 0 42.6-.2 47.8-1.6 48.3-3 1.2-31 .7-32.2-.6-.9-.9-1.2-12.4-1.2-45.9 0-41.7-.1-45.1-2-51a37 37 0 0 0-34.4-27.6q-19.7-1.2-33.7 11.5l-3.9 3.5V352c0 35-.4 54.1-1 55.4-1 1.8-2.2 2-14.3 1.9q-13.3 0-15.6-1.4m176.2.4c-5.6-2.2-5.3 3.1-5-106l.2-100.5 16.7-8.5a88 88 0 0 1 17.5-7.6c.4.4 1 30.6 1.3 67l.5 66.1 27.3-32.2 27.3-32.3h20c16.5 0 19.9.3 19.9 1.4 0 .8-13.7 17-30.6 36.2-16.8 19-30.4 35.2-30.2 36s15.5 18.4 34.2 39.4c18.6 21 34 39 34 40 0 1.3-2.3 1.6-20.2 1.8l-20.3.3-2.2-2.5-30.2-36.4a963 963 0 0 0-28.7-34.1c-.5 0-.8 15.5-.8 34.5 0 21.9-.4 35.3-1 36.5-1 1.8-2.2 2-14.3 1.9-7.3 0-14.2-.5-15.4-1m-393.5-60.7a201 201 0 0 1-15.4-33c.4-1 6.7-1.3 31.3-1l30.8.2.3 17c.2 12.8 0 17-1 17.7-.7.4-11 .8-22.9.8-19.3 0-21.8-.2-23.1-1.7m143.5-128.8c-3.4-2.4-5.6-9.5-5.1-16.4q.7-11.1 11.3-17.6c4.2-2.6 5.8-3 12-3 7.8 0 13 2.1 17.7 7.2 7.4 7.7 7.9 21.8 1 29.6-1.3 1.5-3.6 1.7-18.1 1.7-13.2 0-17.1-.3-18.8-1.5"/></svg>