<svg viewBox="0 0 1448.887 545.99" xmlns="http://www.w3.org/2000/svg"><g fill="#4accd5"><path d="m159 545.388c-8.183-2.014-15.446-7.949-19.663-16.066l-2.337-4.5-.5-58-.5-58-58.5-.5-58.5-.5-4.613-2.712c-4.995-2.937-9.815-7.922-12.618-13.052-1.626-2.976-1.769-7.346-1.769-54.236v-51h258v259l-48 .152c-26.4.084-49.35-.18-51-.586z"/><path d="m300.005 404.191c-.288-.753-.408-26.57-.265-57.37l.26-56 28.5-.619c29.427-.639 32.615-1.038 46.336-5.804 34.687-12.05 57.906-49.454 55.308-89.097-2.676-40.84-26.757-70.034-64.863-78.638-9.62-2.172-29.833-2.214-39.425-.082-34.508 7.672-60.291 32.63-68.95 66.74-1.26 4.97-1.763 13.032-2.131 34.25-.433 24.877-.653 27.755-2.129 27.795-9.152.25-111.662-.227-111.955-.52-.875-.875-.077-60.645.915-68.525 8.323-66.141 50.533-124.971 111.142-154.904 30.106-14.867 57.84-21.306 92.252-21.416 33.724-.107 62.157 5.973 90 19.247 56.232 26.806 93.78 75.755 105.973 138.152 14.08 72.053-7.573 142.645-58.757 191.556-29.726 28.407-64.8 46.033-106.482 53.51-9.737 1.747-17.135 2.19-43.47 2.6-26.28.41-31.825.26-32.26-.875z"/></g><path d="m734 466.376c-1.1-.45-2.9-1.819-4-3.041-1.967-2.187-2-3.631-2-88.511v-86.289l5.11-5.856c10.795-12.37 29.844-23.838 47.39-28.527 6.982-1.867 11.09-2.273 23-2.276 17.031-.004 22.916 1.285 36.5 7.993 33.308 16.449 49.94 55.106 40.078 93.154-7.355 28.376-30.91 49.51-61.039 54.764-5.335.93-14.84 1.535-24.135 1.535-14.136 0-15.414-.152-16.369-1.935-.57-1.064-1.035-7.168-1.035-13.565 0-6.398.466-12.502 1.035-13.566.952-1.779 2.226-1.934 15.819-1.934 20.292 0 28.423-2.503 38.372-11.809 18.284-17.102 19.456-49.455 2.461-67.922-9.843-10.696-23.513-15.21-39.95-13.19-9.55 1.174-21.826 7.124-27.585 13.371l-4.152 4.505v80.822c0 61.529-.286 81.109-1.2 82.023-1.384 1.384-25.02 1.596-28.3.254zm-83.291-58.58c-8.182-1.776-15.669-5.319-20.931-9.904-5.591-4.872-10.957-15.849-12.254-25.07-1.074-7.64-1.441-144.25-.394-146.978.787-2.052 32.101-17.84 33.965-17.124 1.087.417 1.422 5.078 1.636 22.813l.269 22.289 21.236.27c25.017.317 22.484-1.72 22.052 17.73l-.288 13-21.5.55c-11.825.302-21.636.64-21.802.75-.167.11-.167 18.312 0 40.45.287 38.282.4 40.42 2.325 43.75 1.198 2.072 3.833 4.417 6.462 5.75 4.176 2.116 5.658 2.25 25.027 2.25 14.68 0 20.932.344 21.788 1.2.811.81 1.2 5.444 1.2 14.3 0 8.855-.389 13.488-1.2 14.3-1.77 1.77-49.174 1.502-57.591-.326zm350.868-1.063-3.077-2.59v-202.39l16.12-8.276c8.867-4.552 16.742-8.038 17.5-7.747 1.162.446 1.38 18.086 1.38 111.454 0 100.226-.153 110.983-1.582 111.532-.87.333-7.36.607-14.423.607-12.356 0-12.958-.098-15.918-2.59zm70.231 1.579c-5.526-2.226-5.343.647-5.065-79.575l.257-73.915h34l.256 76.437c.203 60.488-.01 76.603-1 77.234-1.7 1.08-25.699.926-28.448-.181zm67.802-.386c-5.102-2.828-5.037-1.998-5.075-63.904-.029-48.148.203-58.25 1.39-60.5 1.873-3.55 12.825-14.087 18.816-18.104 7.398-4.962 20.483-10.87 29.259-13.21 10.468-2.791 29.709-3.042 40-.522 26.284 6.439 46.754 26.76 53.492 53.103 1.873 7.325 2.008 11.06 2.008 55.585 0 42.604-.17 47.799-1.582 48.34-3.086 1.185-30.953.672-32.218-.592-.897-.898-1.2-12.466-1.2-45.895 0-41.69-.133-45.125-1.976-51.093-5.117-16.568-17.55-26.507-34.472-27.56-13.189-.82-24.229 2.944-33.677 11.479l-3.875 3.501v53.45c0 34.931-.359 54.12-1.035 55.383-.945 1.766-2.188 1.931-14.25 1.9-9.04-.025-13.97-.455-15.605-1.361zm176.198.386c-5.595-2.254-5.34 3.086-5.063-106.072l.255-100.418 16.691-8.476c9.18-4.661 17.056-8.111 17.5-7.667.445.445 1.034 30.584 1.309 66.975l.5 66.168 27.315-32.25 27.316-32.25h19.934c16.57 0 19.935.24 19.935 1.422 0 .782-13.748 17.033-30.552 36.112-16.803 19.08-30.416 35.257-30.25 35.951s15.55 18.481 34.186 39.527c18.637 21.046 33.937 38.99 34 39.876.103 1.425-2.237 1.643-20.163 1.882l-20.278.271-2.221-2.43c-1.222-1.336-14.822-17.743-30.222-36.459s-28.338-34.057-28.75-34.09c-.413-.035-.75 15.492-.75 34.503 0 21.915-.379 35.274-1.035 36.5-.946 1.768-2.173 1.93-14.25 1.871-7.268-.035-14.201-.46-15.407-.946zm-393.556-60.74c-2.526-2.838-15.852-31.547-15.305-32.973.4-1.044 6.68-1.253 31.277-1.042l30.776.265.275 16.925c.21 12.871-.03 17.12-1 17.735-.701.445-10.993.816-22.87.824-19.318.014-21.76-.169-23.153-1.734zm143.554-128.749c-3.409-2.387-5.618-9.505-5.114-16.472.541-7.487 4.164-13.118 11.26-17.506 4.257-2.632 5.809-3.02 11.97-2.994 7.852.033 13 2.098 17.775 7.129 7.372 7.767 7.859 21.8 1.027 29.592-1.345 1.534-3.577 1.75-18.156 1.75-13.15 0-17.07-.314-18.762-1.499z"/></svg>