<?xml version="1.0" encoding="UTF-8" standalone="no"?>
<!-- Generator: Adobe Illustrator 25.2.0, SVG Export Plug-In . SVG Version: 6.00 Build 0)  -->

<svg
   version="1.1"
   id="Capa_1"
   x="0px"
   y="0px"
   viewBox="0 0 1100.9 312.70001"
   xml:space="preserve"
   width="1100.9"
   height="312.70001"
   sodipodi:docname="tredess.svg"
   inkscape:version="1.3.2 (091e20e, 2023-11-25, custom)"
   xmlns:inkscape="http://www.inkscape.org/namespaces/inkscape"
   xmlns:sodipodi="http://sodipodi.sourceforge.net/DTD/sodipodi-0.dtd"
   xmlns="http://www.w3.org/2000/svg"
   xmlns:svg="http://www.w3.org/2000/svg"><sodipodi:namedview
   id="namedview1"
   pagecolor="#ffffff"
   bordercolor="#000000"
   borderopacity="0.25"
   inkscape:showpageshadow="2"
   inkscape:pageopacity="0.0"
   inkscape:pagecheckerboard="0"
   inkscape:deskcolor="#d1d1d1"
   inkscape:zoom="2.5606322"
   inkscape:cx="550.45001"
   inkscape:cy="156.40669"
   inkscape:window-width="3440"
   inkscape:window-height="1369"
   inkscape:window-x="-8"
   inkscape:window-y="-8"
   inkscape:window-maximized="1"
   inkscape:current-layer="Capa_1" /><defs
   id="defs17" />
<style
   type="text/css"
   id="style1">
	.st0{fill-rule:evenodd;clip-rule:evenodd;fill:#F4F4F4;}
	.st1{fill-rule:evenodd;clip-rule:evenodd;fill:#FF9933;}
	.st2{fill:#FF9933;}
</style>
<path
   class="st0"
   d="m 599.9,120.7 c 4.7,-38 -19.8,-74 -59.8,-74 -37.7,0 -61.3,30.9 -61.3,66.9 0,39 22.3,66.7 62,66.7 27.7,0 51.2,-15.4 57.4,-43.1 h -26.5 c -4.9,14 -14.7,21.1 -30.9,21.1 -23.3,0 -34.1,-17.6 -34.1,-37.5 z m -93.1,-18.4 c 0.7,-18.9 14,-33.6 33.3,-33.6 18.9,0 30.9,15.9 31.9,33.6 z"
   id="path1"
   style="fill:#000000;fill-opacity:1" />
<path
   class="st0"
   d="m 633.2,114.8 c 0,-22.8 9.3,-46.1 35.5,-46.1 21.6,0 35,16.7 35,44.6 0,22.1 -10.5,44.9 -35.5,44.9 -24.2,0 -35,-21.6 -35,-43.4 z m 97.6,-113 h -27.9 v 64.7 h -0.5 c -8.6,-14 -26.2,-19.8 -42.2,-19.8 -27.7,0 -54.9,20.1 -54.9,65.9 0,38 19.4,67.6 59.3,67.6 15.9,0 31.9,-6.1 39.2,-20.6 h 0.5 v 17.2 h 26.5 z"
   id="path2"
   style="fill:#000000;fill-opacity:1" />
<path
   class="st0"
   d="m 865.51894,120.7 c 4.7,-38 -19.9,-74 -59.8,-74 -37.8,0 -61.3,30.9 -61.3,66.9 0,39 22.3,66.7 62,66.7 27.7,0 51.2,-15.4 57.3,-43.1 h -26.5 c -4.9,14 -14.7,21.1 -30.9,21.1 -23.3,0 -34.1,-17.6 -34.1,-37.5 z m -93.2,-18.4 c 0.7,-18.9 14,-33.6 33.3,-33.6 18.9,0 30.9,15.9 31.8,33.6 z"
   id="path3"
   style="fill:#000000;fill-opacity:1" />
<path
   class="st0"
   d="m 870.9,136.1 c 0.5,29.9 24.3,44.1 56.1,44.1 26.2,0 56.6,-11 56.6,-41.2 0,-25 -20.6,-32.4 -40.9,-37 -20.6,-4.7 -41.2,-6.6 -41.2,-20.3 0,-11 15,-13 23,-13 12.3,0 23.3,3.7 25.7,16.9 h 29.2 c -3.4,-28.2 -27,-39 -52.9,-39 -23,0 -53,8.6 -53,36.3 0,25.7 20.1,33.1 40.7,37.5 20.3,4.7 40.7,6.4 41.4,21.1 0.7,14.5 -17.6,16.7 -28.2,16.7 -15,0 -27.2,-5.9 -28.7,-22.1 z"
   id="path4"
   style="fill:#000000;fill-opacity:1" />
<path
   class="st0"
   d="m 988.2,136.1 c 0.5,29.9 24.3,44.1 56.1,44.1 26.2,0 56.6,-11 56.6,-41.2 0,-25 -20.6,-32.4 -40.9,-37 -20.6,-4.7 -41.2,-6.6 -41.2,-20.3 0,-11 15,-13 23,-13 12.3,0 23.3,3.7 25.7,16.9 h 29.2 c -3.4,-28.2 -27,-39 -52.9,-39 -23,0 -52.9,8.6 -52.9,36.3 0,25.7 20.1,33.1 40.7,37.5 20.3,4.7 40.7,6.4 41.4,21.1 0.7,14.5 -17.6,16.7 -28.2,16.7 -14.9,0 -27.2,-5.9 -28.7,-22.1 z"
   id="path5"
   style="fill:#000000;fill-opacity:1" />
<path
   class="st1"
   d="m 273.9,65.2 -81.4,0.2 V 0 h 159.4 c 55.1,0 109.4,25 109.4,88 0,33.7 -16.2,65.7 -49,78.4 v 0.9 c 33.3,7.9 42.9,45.1 45.5,74.9 0.9,13.1 2.2,59.1 13.1,70.5 h -80.6 c -7,-10.5 -8.3,-41.1 -9.2,-49.9 -2.2,-31.5 -7.4,-63.9 -45.5,-63.9 h -55.4 v -63 h 62 c 24.5,0 37.6,-13.1 37.6,-36.8 0,-23.2 -18.4,-33.7 -41.1,-33.7 h -64.8 z"
   id="path6" />
<polygon
   class="st0"
   points="0,65.2 93.2,65.2 93.2,312.6 174.7,312.6 174.7,65.2 252.4,65.2 252.4,0 0,0 "
   id="polygon6"
   style="fill:#000000;fill-opacity:1" />
<rect
   x="197.3"
   y="135.60001"
   class="st2"
   width="62.799999"
   height="62.799999"
   id="rect6" />
<path
   class="st1"
   d="m 1047.8,230.4 c 0,-11.5 9.3,-20.8 20.8,-20.8 11.5,0 20.8,9.3 20.8,20.8 0,11.5 -9.3,20.8 -20.8,20.8 0,0 0,0 0,0 -11.5,0.1 -20.8,-9.3 -20.8,-20.8 z"
   id="path7" />
<path
   class="st1"
   d="m 992.7,230.4 c 0,-10.9 8.8,-19.7 19.7,-19.7 10.9,0 19.7,8.8 19.7,19.7 0,10.9 -8.8,19.7 -19.7,19.7 0,0 0,0 0,0 -10.9,0.1 -19.7,-8.8 -19.7,-19.7 0,0.1 0,0.1 0,0 z"
   id="path8" />
<path
   class="st1"
   d="m 939.8,230.4 c 0,-10.3 8.3,-18.6 18.5,-18.6 10.3,0 18.6,8.3 18.6,18.5 0,10.2 -8.3,18.6 -18.5,18.6 0,0 0,0 0,0 -10.2,0.1 -18.6,-8.2 -18.6,-18.5 z"
   id="path9" />
<path
   class="st1"
   d="m 889.2,230.4 c 0,-9.6 7.8,-17.5 17.5,-17.5 9.7,0 17.5,7.8 17.5,17.5 0,9.7 -7.8,17.5 -17.5,17.5 -9.7,0 -17.5,-7.8 -17.5,-17.5 0,0.1 0,0.1 0,0 z"
   id="path10" />
<path
   class="st1"
   d="m 840.9,230.4 c 0,-9 7.3,-16.4 16.3,-16.4 9,0 16.4,7.3 16.4,16.3 0,9 -7.3,16.4 -16.3,16.4 0,0 0,0 0,0 -9.1,0.1 -16.4,-7.2 -16.4,-16.3 0,0.1 0,0.1 0,0 z"
   id="path11" />
<path
   class="st1"
   d="m 794.8,230.4 c 0,-8.4 6.8,-15.2 15.2,-15.2 8.4,0 15.2,6.8 15.2,15.2 0,8.4 -6.8,15.2 -15.2,15.2 -8.4,0.1 -15.2,-6.7 -15.2,-15.2 0,0.1 0,0.1 0,0 z"
   id="path12" />
<circle
   transform="rotate(-89.319979)"
   class="st2"
   cx="-221.33908"
   cy="767.58826"
   id="ellipse12"
   r="14.099584"
   style="stroke-width:0.99997" />
<path
   class="st1"
   d="m 709.3,230.4 c 0,-7.2 5.8,-13 13,-13 7.2,0 13,5.8 13,13 0,7.2 -5.8,13 -13,13 v 0 c -7.2,0 -13,-5.8 -13,-13 z"
   id="path13" />
<circle
   transform="rotate(-22.66967)"
   class="st2"
   cx="540.16711"
   cy="475.43774"
   id="ellipse13"
   r="11.899455"
   style="stroke-width:0.999954" />
<circle
   transform="rotate(-76.779493)"
   class="st2"
   cx="-77.134949"
   cy="679.0675"
   id="ellipse14"
   r="10.700031"
   style="stroke-width:1" />
<path
   class="st1"
   d="m 597.8,230.4 c 0,-5.3 4.3,-9.6 9.6,-9.6 5.3,0 9.6,4.3 9.6,9.6 0,5.3 -4.3,9.6 -9.6,9.6 0,0 0,0 0,0 -5.3,0.1 -9.6,-4.2 -9.6,-9.6 z"
   id="path14" />
<path
   class="st1"
   d="m 565.2,230.4 c 0,-4.7 3.8,-8.5 8.5,-8.5 4.7,0 8.5,3.8 8.5,8.5 0,4.7 -3.8,8.5 -8.5,8.5 0,0 0,0 0,0 -4.7,0 -8.5,-3.8 -8.5,-8.5 z"
   id="path15" />
<path
   class="st1"
   d="m 534.8,230.4 c 0,-4.1 3.3,-7.4 7.4,-7.4 4.1,0 7.4,3.3 7.4,7.4 0,4.1 -3.3,7.4 -7.4,7.4 -4.1,0 -7.4,-3.3 -7.4,-7.4 0,0.1 0,0.1 0,0 z"
   id="path16" />
<path
   class="st1"
   d="m 506.6,230.4 c 0,-3.5 2.8,-6.3 6.2,-6.3 3.5,0 6.3,2.8 6.3,6.2 0,3.5 -2.8,6.3 -6.2,6.3 0,0 0,0 0,0 -3.5,0.1 -6.3,-2.7 -6.3,-6.2 z"
   id="path17" />
</svg>
