<svg xmlns="http://www.w3.org/2000/svg" data-name="Layer 1" viewBox="0 0 1000 250.5"><defs><radialGradient id="a" cx="856.6" cy="123.2" r="182.2" gradientUnits="userSpaceOnUse"><stop offset=".1" stop-color="#2814ff"/><stop offset=".1" stop-color="#2718ff"/><stop offset=".2" stop-color="#1654ff"/><stop offset=".3" stop-color="#0a80ff"/><stop offset=".5" stop-color="#039bff"/><stop offset=".5" stop-color="#00a5ff"/><stop offset="1" stop-color="#00cd00"/></radialGradient></defs><path fill="url(#a)" d="M904.6 122.1h-52.2L947.8 0h52.2z"/><path fill="#1a1a1a" d="M76.8 43.6H0V0h197.5v43.6h-74v204.1H76.8Zm120.7 19.2h45.3v27.6q8.7-15.7 26.2-24 17.4-8.1 42.9-4.3v48.5q-17.1-6-33.1-2.3a46 46 0 0 0-26 15.7q-10 12-10 29.5v94.2h-45.3zm218.1 187.7a95 95 0 0 1-95.2-95.2 93 93 0 0 1 12.9-48.2 95 95 0 0 1 34.9-34.7 93 93 0 0 1 47.4-12.7 92 92 0 0 1 42.4 10 96 96 0 0 1 33.1 28 94 94 0 0 1 17.7 39.4 84 84 0 0 1 .3 34.9H365.4a47 47 0 0 0 9.6 21 44 44 0 0 0 17.8 13 59 59 0 0 0 22.8 4.4 70 70 0 0 0 26-5 60 60 0 0 0 21.5-14.2l39.7 10.8q-11.2 22-36 35.2-24.7 13.3-51.2 13.3m49.2-113a49 49 0 0 0-9.3-18.8 48 48 0 0 0-17-13.8 52 52 0 0 0-23.2-5 53 53 0 0 0-23.4 5 48 48 0 0 0-17.3 13.8 49 49 0 0 0-9.2 18.8zM531.7 0h45v247.7h-45zM610 0h45v247.7h-45zm76.6 62.8h45v185h-45z" class="cls-2"/><path fill="#1a1a1a" d="M951.2 247.7 806.7 62.8h-52.2l72.3 92.4-72.2 92.5h52.1l46.2-59.1 46.2 59z"/></svg>