<svg xmlns="http://www.w3.org/2000/svg" viewBox="0 0 233.85808 87.635856"><path d="M138.275 38.879c0 2.876-2.085 5.21-4.656 5.21-2.575 0-4.661-2.334-4.661-5.21 0-2.877 2.086-5.206 4.661-5.206 2.571 0 4.656 2.329 4.656 5.206M5.528 17.964l-1.712 9.22h8.352L7.134 56.637h9.854l5.139-29.453h8.033l1.606-9.22H5.528m175.384-.401l-1.712 9.221h8.353l-5.034 29.453h9.853l5.14-29.453h8.032l1.606-9.221h-26.238M53.615 50.403c.535-3.157 1.07-9.474-1.714-11.181 1.714-1.28 4.927-2.134 5.356-9.818.426-7.682-4.07-11.181-11.354-11.524l-13.28.084-6.746 38.588h9.745l2.358-13.831s3.307.012 3.318 0c2.454.135 3.225.443 2.763 4.741-.578 4.18-.386 8.377.23 9.09 0 .034 5.425 0 10.394 0v-2.56s-1.607-.43-1.07-3.588zm-5.932-20.141c-.34 3.832-4.663 3.378-4.663 3.378h-3.43l1.234-6.911s3.507.031 3.507 0c1.81.063 3.699-.369 3.352 3.533m52.755.922c.967-7.654-3.321-12.961-10.605-13.304l-13.28.084-6.746 38.588h9.745l2.235-13.143h3.892c10.558 0 13.68-3.686 14.759-12.225zm-9.711-.245c-.34 3.833-3.93 3.379-3.93 3.379h-3.43l1.272-7.558c.9.008 1.85.063 3.621.063 1.812.06 2.814.214 2.467 4.116m38.227.245c.968-7.654-3.321-12.961-10.605-13.304l-13.28.084-6.746 38.588h9.744l2.236-13.143h3.892c10.558 0 13.679-3.686 14.759-12.225zm-9.711-.245c-.34 3.833-3.931 3.379-3.931 3.379h-3.43l1.272-7.558c.9.008 1.85.063 3.622.063 1.811.06 2.813.214 2.467 4.116M72.476 17.914h-9.557l-6.873 38.58h9.556l6.874-38.58m76.708 29.149l4.926-29.159h-9.752l-4.928 29.159-1.615 9.543h24.167l1.613-9.543h-14.411m30.308-29.473h-9.865l-6.648 38.527h9.865l6.648-38.527m50.13 9.15l1.573-9.246h-22.677l-.018.096h-.343l-5.102 29.56h-.103l-1.532 8.997h23.618l1.531-8.997H212.92l1.123-6.496h12.066l1.531-8.998h-12.047l.851-4.916h13.179m4.236-16.08h-49.141A43.705 43.705 0 0 0 156.323.067c-.068 0-.14-.067-.208-.067-10.943 0-20.97 4.016-28.586 10.66h-28.66C91.412 4.325 81.798.346 71.368.346c-10.818 0-20.746 3.86-28.28 10.314H.002v3.549h233.858V10.66zm-98.857 0a39.14 39.14 0 0 1 21.113-6.2c.068 0 .14.068.208.068 7.941.04 15.357 2.239 21.511 6.132h-42.832m98.857 62.722H.001v3.55h43.104c7.531 6.454 17.444 10.322 28.262 10.322 10.434 0 20.044-3.983 27.505-10.322h28.638c7.619 6.652 17.654 10.674 28.605 10.674.068 0 .14.068.208 0 10.911-.048 20.882-4.085 28.467-10.674h49.069v-3.55zm-77.536 9.764h-.208c-7.707 0-14.996-2.298-21.102-6.214h42.904c-6.172 3.94-13.614 6.175-21.594 6.214m-108.87-18.74l.536-2.512h.858c1.158 0 1.876.07 1.876 1.05 0 1.158-.8 1.462-2.264 1.462h-1.006zm-3.633 5.522h2.456l.762-3.548H48.5c1.575 0 2.678-.137 3.494-.787.744-.58 1.2-1.573 1.2-2.678 0-2.194-1.366-2.912-4.044-2.912h-3.232l-2.098 9.925m15.421-8.116c1.34 0 2.072.784 2.072 2.249 0 2.334-1.23 4.114-2.927 4.114-1.283 0-2.03-.841-2.03-2.278 0-2.236 1.146-4.085 2.885-4.085zm-5.411 3.877c0 2.789 1.726 4.53 4.527 4.53 3.219 0 5.467-2.54 5.467-5.965 0-2.803-1.71-4.502-4.498-4.502-3.259 0-5.496 2.515-5.496 5.937m11.1-5.686h2.32l.55 5.686c.015.18.03.444.03.817.026-.347.07-.595.125-.761l1.78-5.742h2.5l.33 5.631v.414c0 .07 0 .222-.015.458a4.77 4.77 0 0 1 .154-.817l1.821-5.686h2.485l-3.686 9.925h-2.36l-.36-6.018c-.014-.152-.014-.292-.014-.415 0-.097.014-.248.029-.47a5.505 5.505 0 0 1-.181.911l-1.82 5.992h-2.363l-1.325-9.925m13.642 0h6.861l-.414 1.987h-4.376l-.388 1.808h4.017l-.414 1.961H79.84l-.454 2.182h4.626l-.429 1.987H76.46l2.113-9.925m10.408 4.225l.499-2.349h1.406c1.05 0 1.59.18 1.59.94 0 1.05-.677 1.409-1.92 1.409H88.98zm-3.658 5.7h2.445l.8-3.755h1.175c1.062 0 1.558.207 1.558 1.036 0 .552-.152 1.187-.152 1.905 0 .263.015.525.097.814h2.817v-.359c-.317-.166-.414-.373-.414-.732 0-.537.122-1.2.122-1.96 0-.704-.218-1.104-.854-1.436 1.325-.47 2.001-1.395 2.001-2.733 0-1.892-1.298-2.705-3.92-2.705h-3.575l-2.1 9.925m17.673-5.522l.537-2.512h.858c1.158 0 1.876.07 1.876 1.05 0 1.158-.8 1.462-2.264 1.462h-1.007zm-3.632 5.522h2.46l.758-3.548h1.462c1.575 0 2.68-.137 3.495-.787.744-.58 1.201-1.573 1.201-2.678 0-2.194-1.368-2.912-4.046-2.912h-3.23l-2.1 9.925m13.102-5.7l.499-2.349h1.407c1.05 0 1.588.18 1.588.94 0 1.05-.676 1.409-1.918 1.409h-1.576zm-3.658 5.7h2.444l.8-3.755h1.175c1.062 0 1.559.207 1.559 1.036 0 .552-.152 1.187-.152 1.905 0 .263.014.525.096.814h2.818v-.359c-.318-.166-.414-.373-.414-.732 0-.537.125-1.2.125-1.96 0-.704-.221-1.104-.857-1.436 1.324-.47 2-1.395 2-2.733 0-1.892-1.297-2.705-3.92-2.705h-3.574l-2.1 9.925m15.92-8.116c1.338 0 2.07.784 2.07 2.249 0 2.334-1.23 4.114-2.928 4.114-1.284 0-2.027-.841-2.027-2.278 0-2.236 1.146-4.085 2.885-4.085zm-5.412 3.877c0 2.789 1.724 4.53 4.528 4.53 3.217 0 5.466-2.54 5.466-5.965 0-2.803-1.711-4.502-4.501-4.502-3.258 0-5.493 2.515-5.493 5.937m13.819-3.658h-2.761l.427-2.028h7.994l-.426 2.028h-2.68l-1.684 7.897h-2.541l1.671-7.897m6.725-2.028h6.861l-.415 1.987h-4.375l-.387 1.808h4.017l-.415 1.961h-4.017l-.455 2.182h4.624l-.427 1.987h-7.123l2.112-9.925m16.083 6.543c-.374 2.168-2.305 3.685-4.68 3.685-2.555 0-4.17-1.738-4.17-4.458 0-1.601.567-3.147 1.547-4.293a4.99 4.99 0 0 1 3.838-1.754c2.347 0 3.908 1.409 3.935 3.588h-2.43c-.028-1.006-.568-1.558-1.532-1.558-.815 0-1.587.455-2.087 1.255-.495.802-.813 1.934-.813 2.859 0 1.45.773 2.278 1.945 2.278.955 0 1.658-.54 2.03-1.602h2.417m4.252-4.515h-2.761l.427-2.028h7.994l-.426 2.028h-2.68l-1.684 7.897h-2.54l1.67-7.897m6.696-2.028h2.514l-2.114 9.925h-2.497l2.097-9.925m8.437 1.809c1.34 0 2.072.784 2.072 2.249 0 2.334-1.231 4.114-2.93 4.114-1.284 0-2.027-.841-2.027-2.278 0-2.236 1.145-4.085 2.885-4.085zm-5.412 3.877c0 2.789 1.725 4.53 4.529 4.53 3.216 0 5.466-2.54 5.466-5.965 0-2.803-1.712-4.502-4.501-4.502-3.259 0-5.494 2.515-5.494 5.937m12.563-5.686h2.526l2.279 6.515 1.395-6.515h2.415l-2.113 9.925h-2.511l-2.349-6.517-1.38 6.517h-2.36l2.098-9.925" fill="#1c63b7" fill-rule="evenodd"/></svg>