<svg xmlns="http://www.w3.org/2000/svg" viewBox="0 0 233.9 87.6"><path fill="#1c63b7" fill-rule="evenodd" d="M138.3 38.9c0 2.9-2.1 5.2-4.7 5.2s-4.6-2.3-4.6-5.2 2-5.2 4.6-5.2 4.7 2.3 4.7 5.2M5.5 17.9l-1.7 9.3h8.4l-5 29.4H17l5-29.4h8l1.7-9.2zm175.4-.3-1.7 9.2h8.4l-5 29.4h9.8l5.1-29.4h8l1.7-9.2zM53.6 50.4c.5-3.2 1-9.5-1.7-11.2 1.7-1.3 5-2.1 5.4-9.8s-4.1-11.2-11.4-11.5H32.6L26 56.7h9.7l2.3-14h3.3c2.5.2 3.2.5 2.8 4.8-.6 4.1-.4 8.3.2 9h10.4V54s-1.6-.4-1-3.6m-6-20.1c-.3 3.8-4.6 3.3-4.6 3.3h-3.4l1.2-6.9h3.5c1.8 0 3.7-.3 3.4 3.6m52.7.9c1-7.7-3.3-13-10.6-13.3H76.6l-6.8 38.7h9.8l2.2-13.2h3.9c10.5 0 13.7-3.7 14.7-12.2m-9.7-.3c-.3 3.9-3.9 3.4-3.9 3.4h-3.4l1.2-7.5h3.7c1.8 0 2.8.2 2.4 4.1m38.3.3c1-7.7-3.4-13-10.7-13.3h-13.2l-6.8 38.7h9.8l2.2-13.2h3.9c10.6 0 13.7-3.7 14.8-12.2m-9.8-.3c-.3 3.9-3.9 3.4-3.9 3.4H112l1.3-7.5h3.6c1.8 0 2.8.2 2.4 4.1M72.5 18h-9.6L56 56.5h9.6zm76.7 29.2 5-29.2h-9.8l-5 29.2-1.6 9.5H162l1.6-9.5zm30.3-29.5h-9.9L163 56h9.8zm50.1 9.1 1.6-9.2h-23L203 47.3h-.1l-1.6 9H225l1.6-9h-13.7l1.1-6.5h12.1l1.5-9h-12l.8-5zm4.3-16h-49.2A44 44 0 0 0 156.3 0l-.2-.1c-11 0-21 4-28.6 10.7H99a42.5 42.5 0 0 0-55.8 0H0v3.5h233.9zm-98.9 0a39 39 0 0 1 21.1-6.2h.2q12.2.2 21.5 6.2zm98.9 62.7H0V77h43.1a42.5 42.5 0 0 0 55.8 0h28.6a43 43 0 0 0 28.6 10.7h.2c11 0 20.9-4 28.5-10.7h49zM156.3 83h-.2c-7.7 0-15-2.3-21-6.2h42.8q-9.4 6.1-21.6 6.2M47.5 64.4 48 62h.8c1.2 0 2 0 2 1q-.1 1.6-2.3 1.5zM43.8 70h2.5l.7-3.5h1.5q2.4 0 3.5-.8 1.1-1 1.2-2.7 0-3.1-4-2.9h-3.3zm15.4-8q2.1 0 2.1 2.2c0 2.3-1.2 4-3 4q-1.9 0-2-2.2c0-2.2 1.2-4 3-4m-5.4 3.8q.2 4.3 4.6 4.5c3.2 0 5.4-2.5 5.4-6q-.2-4.2-4.5-4.4c-3.2 0-5.5 2.5-5.5 5.9M65 60h2.3l.6 5.7v.8l.2-.8 1.7-5.7h2.5l.4 5.6v.9l.1-.8 1.8-5.7H77l-3.7 10H71l-.4-6v-1l-.2 1-1.8 6h-2.3zm13.7 0h6.8l-.4 2h-4.4l-.3 1.8h4l-.4 2h-4l-.5 2.1H84l-.4 2h-7.1zM89 64.2l.5-2.3h1.4q1.5-.1 1.6 1 0 1.4-2 1.3zM85.3 70h2.5l.8-3.7h1.1q1.6-.1 1.6 1l-.2 2 .1.7h2.9v-.3q-.5-.3-.5-.8l.2-2q0-.8-.9-1.4 2-.7 2-2.7Q95 60 91 60h-3.6zm17.7-5.5.5-2.5h.9c1.1 0 1.9 0 1.9 1q0 1.6-2.3 1.5zM99.4 70h2.4l.8-3.5h1.4q2.3 0 3.5-.8 1.2-1 1.2-2.7 0-3.1-4-2.9h-3.2zm13-5.7.6-2.3h1.4q1.5-.1 1.6 1 0 1.4-2 1.3zm-3.6 5.7h2.5l.8-3.7h1.1q1.6-.1 1.6 1l-.2 2 .1.7h2.8v-.3q-.4-.3-.4-.8l.2-2q0-.8-.9-1.4 2-.7 2-2.7 0-2.8-4-2.7H111zm16-8q2 0 2 2.2c0 2.3-1.2 4-3 4q-1.9 0-2-2.2c0-2.2 1.2-4 3-4m-5.5 3.8q.2 4.3 4.5 4.5c3.3 0 5.5-2.5 5.5-6q-.2-4.2-4.5-4.4c-3.2 0-5.5 2.5-5.5 5.9m13.8-3.7h-2.7l.4-2h8l-.4 2h-2.7l-1.7 8h-2.5zm6.8-2h6.8l-.4 2H142l-.4 1.8h4l-.4 2h-4l-.4 2.1h4.6l-.4 2h-7.2zm16 6.5c-.3 2.2-2.3 3.7-4.6 3.7q-4-.2-4.2-4.4 0-2.5 1.5-4.3a5 5 0 0 1 3.9-1.8q3.7.2 4 3.6H154q0-1.5-1.5-1.5-1.3 0-2.1 1.2-.8 1.4-.8 2.9 0 2.2 1.9 2.2 1.5 0 2-1.6zm4.3-4.5h-2.8l.5-2h8l-.5 2h-2.7l-1.6 8h-2.6zm6.7-2h2.5l-2.1 10h-2.5zm8.4 1.8q2.1 0 2.1 2.3c0 2.3-1.2 4-3 4q-1.9 0-2-2.2c0-2.2 1.2-4 3-4m-5.4 3.9q.1 4.3 4.5 4.5c3.3 0 5.5-2.5 5.5-6q-.2-4.2-4.5-4.4c-3.2 0-5.5 2.5-5.5 5.9m12.6-5.7h2.5l2.3 6.5 1.4-6.5h2.4L189 70h-2.5l-2.4-6.6-1.4 6.5h-2.3z"/></svg>