<svg xmlns="http://www.w3.org/2000/svg" xml:space="preserve" viewBox="0 0 636 258"><path fill="#134d97" d="m57 107-1-69-28-1H0V0h170v37h-28l-28 1-1 69v70H57zm137 51v-19h145l3-2c10-7 11-20 1-27l-3-2-58-1c-65-1-63 0-74-7-12-7-22-21-25-34-2-6-2-19 0-25 3-14 15-29 27-35 13-6 12-6 103-6h83v37h-70l-74 1-8 4c-8 8-5 21 5 26 4 2 8 2 59 2 46 0 56 0 60 2 19 4 34 20 38 38 7 28-8 55-35 64-6 2-7 2-92 3h-85zm300 18c-35-4-65-30-75-66-2-9-3-29-1-39q6-26 24-44 22-22 50-26l76-1h68v37h-60l-65 2a51 51 0 0 0-31 72c3 7 14 18 21 22 12 6 10 6 76 6h59v38h-67z"/><path fill="#e4062d" d="M0 230v-28h636v56H0zm99 19 2-14c3-21 2-19 9-19q6 1 5-2c0-2-1-2-13-2-13 0-14 0-14 2q-1 3 5 2c6 0 6-1 3 19l-1 15zm22 0 2-10q1-13 7-13 5-1 3 12c-1 12-1 12 2 12 2 0 3-1 4-11 1-12 1-15-4-17h-8l-3 2 1-6q2-8-3-7a173 173 0 0 0-6 38zm41-1 4-3q-1-3-5-1-9 3-11-4-1-3 9-2h9v-6q0-5-2-8-3-3-7-2-14 1-14 16-1 7 3 9 6 6 14 1m-11-16q2-4 6-6 5 1 6 5 1 3-6 2zm51 17q10-7 6-15l-9-6q-8-4-8-6 0-5 7-6 6 0 7 5 0 3 3 3 5-1 2-7c-4-9-20-8-24 2q-4 7 9 13 11 5 8 10-2 3-7 3-8 0-8-6l-2-2q-4-1-3 4 0 6 6 8zm17-1 2-10q0-13 6-12c4 0 5 3 3 22q0 2 2 2c2 0 3-1 4-11s2-11 4-12h5q3 0 1 17 0 7 2 6c2 0 3-1 4-11 1-13 1-16-5-17q-3-2-7 1h-5q-4-3-10-1l-3 1h-5l-1 11c-2 15-2 16 0 16zm53 0h2q2 4 5 1l3-25q0-2-3-2l-2 2h-1c-3-5-13-3-16 3-2 4-3 13-2 17q5 9 14 4m-8-5c-2-3 0-11 2-15q5-5 9 1c1 3 0 11-2 14q-6 4-9 0m29-3q1-13 7-13l4-2q0-6-8-1h-1q1-2-3-2h-3l-1 13-1 14 2 1q3 2 4-10m27 7q1-2-2-2-5 1-3-10l1-8 3-1q7-3 1-4-4 1-3-4t-2-4q-3 0-3 4 0 3-3 4-4 3 0 4 3-1 2 2l-2 11q0 9 2 9 7 4 9-1m25 0q3-3 1-4h-4q-6 4-10 1l-1-4c0-2 0-2 9-2h9l-1-6q0-10-7-11-9-1-13 8-5 14 2 20c4 2 12 1 15-2m-13-15q2-5 6-6l4 2q5 6-4 5zm28 8q1-13 7-13l4-2q0-7-8-1h-1q1-2-3-2h-3l-1 13-1 14 2 1q3 2 4-10m43 8q5-2 7-8 0-4-2-3-3 0-4 3c-2 6-11 7-14 2-1-2 0-13 2-20q1-5 7-6 6 0 7 5 0 3 3 3 4 1 3-2c0-9-10-14-19-9q-7 2-8 18-2 15 4 18 6 2 14-1m17 0 2-10q1-13 7-12 5-2 3 12c-1 12-1 12 2 12 2 0 3-1 4-11 1-12 1-15-4-17q-3-2-8 1-2 2-2-6 1-6-2-5c-2 0-2 0-5 18l-2 19q3 3 5-1m41 0q6-4 6-15 1-6-2-9-3-2-7-2-14 0-14 16-1 7 3 9 6 6 14 1m-11-5c-3-6 1-17 7-17q5-1 5 9-1 10-7 10zm28 6 3-24q1-4-3-3l-2 1-2 11c-1 14-1 16 1 16zm24-1c4-1 7-6 6-7q-1-3-6 2-4 3-9 1l-1-8q1-7 3-8 5-5 9 1 3 5 5 2 3-4-4-8-13-5-18 10c-3 13 5 21 15 15m29 0 4-3q-1-4-5-1c-3 2-9 1-10-1-2-4-2-5 8-5h9v-6q0-9-9-11-13 0-14 17-1 7 3 9 6 6 14 1m-11-16q2-5 6-6 5 1 6 5 1 2-6 2zm26 16q3-4-1-5c-3-2-6 3-3 5q2 3 4 0m-64-31 1-4q-1-4-5-1-3 2 0 4 1 3 4 1"/></svg>