<svg xmlns="http://www.w3.org/2000/svg" xml:space="preserve" viewBox="0 0 442.2 148.3"><path fill="#333290" d="M370.2 103c-8.5-2-16-11.3-13.2-16.5 1.4-2.7 6.5-2.7 8 0 1.2 2.2 0 5.4-2.2 6.3-2 .9 4.6 6.5 9.2 7.7 4.4 1.2 10.4 0 14.6-2.7 2.8-1.8 4.7-7.2 3.8-10.7-1-3.9-4.4-6-14.5-9.2a31 31 0 0 1-13.2-6.5c-4.1-3.6-4.2-3.8-4.2-10.2 0-5 .5-7.2 2-9.3 3-4 6.4-6.2 11.6-7.5 6-1.6 14.8 1 18.4 5.3 3 3.5 3.1 5.8.7 8.8-2.6 3.2-7.2 2.1-7.2-1.7 0-1.5.7-3.4 1.6-4.4 1.5-1.7 1.4-2-1.7-3.8-6-3.6-15.7-2-19.3 3-2.3 3.3-2 8.8.5 11.5a38 38 0 0 0 11.3 5.4c15.7 5.2 19 8.4 19 18 0 6.4-1.5 9.4-6.8 13.5a24 24 0 0 1-18.4 3m50.3.8c-7.2-1.6-9.7-2.7-12.9-6-4.7-5-5.8-10-2.6-12.5 2-1.6 2.5-1.7 4.4-.5 2.6 1.8 3.2 5 1.1 6.7-2.2 1.9-1.8 3.6 1.4 5.9 8.9 6.3 21.5 3.8 25.2-5.1 1-2.6 1-3.5-.5-6.3-1.8-3.3-5-5.2-13.1-7.6-13.3-4-18.5-8.8-18.5-17.3s3.9-13.4 12.8-16.3c4.9-1.6 5.5-1.6 10.5 0q10.6 3.5 10.7 10.1c0 4-2 6-5.4 5.2-3.2-.8-4.3-4.2-2.2-6.5 1-1 1.4-2.5 1-3.4-1.2-3.2-11.3-4.9-15.7-2.6-5 2.6-6.7 5.1-6.7 9.6 0 5.9 2.8 8.4 12.7 11.2 14.6 4.2 19.4 8.6 19.5 18q.2 14.4-17.2 17.4a14 14 0 0 1-4.5 0m-401.7-1.5c-7.3-3.4-8.8-9.7-8.8-36V47.6H5c-2.7 0-5-.5-5-1s3.6-1 9-1h8.8l.4 24.3c.3 21.2.5 24.6 2 27 3.5 5.2 10.7 4.4 15.4-1.9 5.3-7 6.7-12.6 7.2-30.7l.5-16.7H38c-2.8 0-5.1-.5-5.1-1s3.7-1 9-1h9l.2 27.2.3 27.3 10.3.3 10.2.3V10.5h-5c-2.8 0-5-.5-5-1q.2-1 9.3-.8l9.2.3.3 23 .2 23 2.5-3.8c6-8.7 17.6-9.3 25.2-1.5 6 6.2 7.8 11.9 7.8 24.4 0 10.3-.2 11.4-3 16.9q-6 11.4-15.3 12.3-9.5.7-14.4-6.4l-2.3-3.4-.5 4.3-.5 4.2-15 .7c-9.2.4-16 .3-17.6-.3-3.1-1.2-4.9-4.7-4.9-9.4q.2-6.8-3.8.5c-4.5 7.9-13.7 11.9-20.4 8.8m82.9-3c2.4-1.2 3.6-3.7 5.4-11.1 1.7-7 .7-29-1.6-34.5-1.8-4.5-5.5-7.2-9.8-7.2-3.7 0-9 4-11.7 9-2 3.8-2.5 6.1-2.8 15.3-.5 12.1.7 18.3 4.4 24 4 6 9.6 7.6 16 4.5m151.4 2.4c-2-1-4.3-3.3-5.5-5.7-2-3.6-2.1-6-2.4-26.3l-.3-22.2h-5c-2.7 0-4.9-.5-4.9-1q.2-1 9.3-.8l9.2.3.5 25.8c.5 27.6.4 26.9 5.8 28.3 4.7 1.3 10.4-3 14.4-11.1q4.1-8.2 3.6-28l-.3-13-5.2-.3c-9-.5-5.8-2.2 4.2-2.2h9.5v26.9c0 22 .3 27 1.4 28 1.2 1 1.9.8 3.5-.8 2.2-2.2 4.1-2.7 4.1-1.3 0 2.3-4.4 4.7-8.7 4.7-5.8 0-8.3-2.8-8.3-9.1 0-2.4-.3-4.4-.7-4.3-.5 0-2.1 2.1-3.8 4.7-3.3 5.2-9.4 9.2-14 9.2a17 17 0 0 1-6.4-1.8m62.1.9a22 22 0 0 1-13.9-11.4c-6.8-13.4-.2-35.4 13-43.2 12.1-7 26-2.4 31.7 10.7 4.2 9.7 1.2 25.6-6.6 34.6-6.5 7.7-16 11.3-24.2 9.3m10.5-4.4c6.7-4.5 16.2-29.4 15-39.4a12.8 12.8 0 0 0-21.5-8 58 58 0 0 0-10.6 21.8c-4.2 13.8-3.1 23 3.2 26.3 4 2.3 10 2 13.9-.7M124 101.6c0-.6 2.4-1.1 5.3-1.3l5.2-.3.3-26.3.2-26.2h-5.5c-3.1 0-5.5-.4-5.5-1q.2-1 9.8-.8l9.7.3v27l.1 27 4.7.3c2.6.2 4.7.7 4.7 1.3 0 .5-6 .9-14.5.9a52 52 0 0 1-14.5-1m10.4-77.2c-1.7-1.9-1.7-2.3-.3-4.7 2.7-5 9.9-3.7 9.9 1.8 0 4.9-6 6.8-9.6 3"/><path fill="#ee1c25" d="M209.5 146.3c-13-5.1-21.5-17.1-23-33.1-.8-7.5-.3-6.8-11-13.6a34 34 0 0 1-14.6-17.2c-2-4.9-2.3-7.4-2.7-27.4-.4-23.1.3-29.5 4-36.8a38 38 0 0 1 14.7-15c5.4-3 6-3.2 17.1-3.2 10 0 12.1.3 16.1 2.3a35 35 0 0 1 16 15.4l3.4 6.3v27c0 27 0 27-2.6 32.5a37 37 0 0 1-15.7 17.1c-8.5 5.6-9.1 6.4-9.1 12.4 0 9.3 6 18 14.1 20.6 4.3 1.4 4.3 1.4 4.6 6.7.5 8.5-1.8 9.8-11.3 6m-4.4-59.7q4.6-2.9 7-7.7c2.3-4.6 2.4-6 2.7-25.3.3-21.8-.4-27-5-33.4a22 22 0 0 0-12.8-7c-4.8-1-13 1.6-16.5 5-6 6-6.5 8.5-6.5 33.8 0 22.8 0 23 2.6 27.4 4 7.2 9 9.9 18 10 5 0 6.8-.4 10.5-2.8"/></svg>