<svg xmlns="http://www.w3.org/2000/svg" xml:space="preserve" viewBox="0 0 530.4 114.3"><path d="M166 83.8c-9.4-3-16.2-9.8-18.6-18.3-.6-2-1-15-1-28.9V11.4h15v23.3c0 22.1 0 23.5 2.2 27.7 4.4 8.7 14.8 11.1 21.9 5.2 5.7-4.7 5.9-6 5.9-32.2v-24h16l-.2 26.2c-.3 25-.4 26.5-2.6 31.4q-6.8 15-26.1 16-7.7.4-12.5-1.2m79.9.6c-19.5-4.2-30.5-19.2-29.3-40a35 35 0 0 1 9.9-24c11.9-12.3 35.4-14.7 48.7-5 2.3 1.6 4.2 3.4 4.2 3.8a27 27 0 0 1-5.8 5.4l-5.8 4.6-2.5-2c-8.9-6.8-24-3.2-29.8 7.2a31 31 0 0 0-2.1 20.4c1.3 5 6.7 12 10.8 14 7 3.5 16 2.4 21.3-2.6l3-2.8L275 68c5.7 4.2 6.2 4.9 5.1 6.5-5.5 7.9-21.8 12.6-34.1 10m67-.3a37 37 0 0 1-25.4-20.6c-2.3-5-2.6-6.9-2.6-16.1 0-9.5.3-11.2 2.9-16.8 6.7-14.5 20.8-22.1 39.2-21 14.7 1 26.6 8.6 32.2 20.8a46 46 0 0 1 1.2 30c-1.9 6.4-3 8.1-8.4 13.4a33 33 0 0 1-12.1 8.4c-7.4 2.8-20 3.7-27 1.9m17.5-14.3c12.2-3.6 18.8-17 15-30.3-5.5-19.2-32.8-21.6-42.3-3.8a28 28 0 0 0 .6 23.9c3 5.3 7 8.5 13 10.3 5.6 1.8 7.4 1.8 13.7-.1m41-22.5v-36l19.7.2c17 .3 20.3.6 23.3 2.2 8.5 4.6 11.3 9.4 11.4 19.2s-2.9 15-10.5 18.8c-4.8 2.4-7.3 2.9-16.8 3.4l-11.1.6v27.7h-16zm36-8.5c2.1-1.9 2.6-7.3 1-10.4q-2.2-4-14.2-4h-6.8v16.9l5.7.3q10.7.6 14.3-2.8m26.6 44a506 506 0 0 1-.6-36V11.3h16v72H442c-4 0-7.6-.3-8-.7m21.4-.2c0-.4 6.8-16.6 15.2-36L486 11.3l6.8.3 6.8.3L515 47.3 530.4 83c0 .2-4 .2-8.8 0H513l-3-7.3-3-7.2h-29.3L475 76l-2.7 7.5h-8.4a24 24 0 0 1-8.4-.8m45.3-28c.5-.8-7-20.2-8.2-21.5-.7-.7-9.1 19-9.1 21.3 0 1.1 16.6 1.3 17.3.2"/><path fill="#f47622" d="M58.4 111.8a57 57 0 0 1-41-75.9c2.1-5.5 2.2-5.6 5.3-5a203 203 0 0 1 56.7 25.5 86 86 0 0 1 26 25.3c3 6.4 2.5 14-1.4 19-5 6.6-21.7 12.7-34.1 12.6-2.8 0-8-.7-11.5-1.5m68.3-25.4a55 55 0 0 0-17.1-30C95.5 42.6 78.5 34 51.4 27a279 279 0 0 0-47-7.7C-5.7 19 3 17.7 16.2 17.5l12.4-.3 6.6-5A54 54 0 0 1 71.4 0c27.7.2 50.7 20 55.5 47.7l.7 3.8-6.9-4.5a101 101 0 0 0-12.8-7c-7-2.8-16.7-5.8-17.3-5.2a73 73 0 0 0 11 6c14.5 7 22.6 13.4 26.4 21.3 2.5 5 2.9 6.9 2.9 14.8a34 34 0 0 1-1.6 12.3l-1.4 3.3zm47.7 27.3c-2.8-1-4-3.7-4-9 0-7.1 1.8-6.8 2.2.3q.6 9.6 5.5 6.8c1.3-.8 1.9-2.7 2-6.8.2-3 .8-5.6 1.3-5.6 1.1 0 1.3 10 .2 11.6-.7 1-4.7 3.5-5.4 3.3zm114 0c-5.7-2.2-7-9.6-2.4-13.3 5.4-4.2 12.4-.9 12.4 5.9 0 2.3-.7 4.4-1.8 5.3-2 1.9-6 2.9-8.2 2m6.4-2.9c1.7-1.7 2-2.7 1.6-6q-.4-4.5-5.4-4.4c-4 0-5.6 1.5-5.6 5.6 0 3.8 2.2 6.4 5.5 6.4 1.3 0 3-.7 3.9-1.6m19.8 2c-2-1.3-2.2-2.4-2-8.2v-6.7l.7 6c.7 7.1 1.4 8.5 4.6 8.5s3.9-1.4 4.6-8.5l.6-6 .1 6.6q.1 6.6-1 7.6c-2.5 2-5.4 2.3-7.6.7m182.8.9c-3-1-4-3.8-4-9.7 0-7.8 1.8-6.3 2.2 1.9.2 5.4.5 6 2.6 6.3 3.9.5 5.2-1.5 5.2-8q0-5.7 1-5.3c.5.3 1 2.8 1 5.6 0 4-.5 5.5-2.5 7.4-2.5 2.5-3 2.7-5.5 1.8m-346-6.8c0-5.9-.2-6.5-2-6.5q-1.8-.1-2-.8c0-.4 2.6-.5 5.7-.3 3.3.3 4.6.6 3 .8-2.7.4-2.7.6-2.7 6.8 0 3.7-.5 6.5-1 6.5s-1-2.9-1-6.5m45.1-.3-.1-7.3 4.1.3c5.3.4 7.1 2.7 4.4 5.8-1.9 2-1.9 2.3-.3 5 1.3 2.3 1.4 3 .3 3-.7 0-1.8-1.4-2.5-3-1.8-4.2-4.8-4-5.3.2-.2 1.8-.5 0-.6-4m7.4-3.7c0-1.6-.8-2.1-3.3-2.3-2.9-.3-3.2 0-3.2 2.3s.3 2.6 3.2 2.3c2.5-.3 3.3-.8 3.3-2.3m15.5 3.5c0-6 .2-7 1.7-7 1.1 0 3.2 2.2 5.3 5.7l3.5 5.8.3-5.8c.4-8.1 2.2-7.1 2.2 1.3 0 8.8-1.6 9.2-6.2 1.5-1.8-3-3.7-5.5-4-5.5-.5 0-.8 2.4-.8 5.5 0 3-.5 5.5-1 5.5s-1-3-1-7m45.1 3.6q.2-3.2-2-6.5c-1.3-1.8-2-3.6-1.6-4q.8-.4 1.2.6c.2.7 1.2 2.2 2.2 3.5l1.8 2.2 1.7-3.2c.9-1.8 2-3.2 2.7-3.2 1 0 .7.8-2.3 5.1a12 12 0 0 0-1.8 5.8c0 1.7-.5 3-1 3s-1-1.4-.9-3.3m72.9-3.7v-7l4.7.3c4.2.2 4.8.6 5.1 2.7a4 4 0 0 1-1.4 3.7c-1.6 1.2-1.6 1.5 0 3.8 1.7 2.8 2 3.6.8 3.6-.4 0-1.8-1.6-3-3.6q-4-6-4.2.6c0 1.7-.5 3-1 3s-1-3-1-7m7.5-3.4q.1-2.1-2.8-2.3c-2.4-.3-2.7 0-2.7 2.3s.3 2.6 2.7 2.3q2.9-.3 2.8-2.3m31.7 3.3q-3-9.9-.6-7.6a23 23 0 0 1 1.7 5.2c.7 2.6 1.7 4.7 2.2 4.6.5 0 1.7-2.2 2.6-4.8.8-2.6 2-4.7 2.5-4.7s1.5 2.4 2.4 5.3c.8 2.8 1.8 5.2 2.1 5.2s1.2-1.7 1.9-3.8l1.6-5.1q.4-1.2 1-.8c1 1-3 13.7-4.2 13.7-.7 0-1.8-2.3-2.6-5-.8-2.9-1.8-5.2-2.3-5.3s-1.6 2-2.5 4.7c-1 2.7-2.1 5.1-2.6 5.3s-2-3-3.2-7m30.8.2c0-3.8.4-7.2 1-7.5q1-.5 1 7c0 4.3-.4 7.5-1 7.5s-1-3-1-7m33 0v-7l4.7.1q6.4.2 1 .6c-3.2.3-3.7.8-3.7 2.8s.5 2.5 3 2.5c1.6 0 3 .4 3 1s-1.4 1-3 1c-2.7 0-3 .3-3 3 0 1.6-.5 3-1 3s-1-3-1-7m22 0c0-4 .4-7 1-7s1 3 1 7-.5 7-1 7-1-3-1-7m56 0v-7.1l4.7.3c4.2.2 4.8.6 5.1 2.7.4 2.8-2 5-5.5 5-2 0-2.3.6-2.3 3 0 1.7-.5 3-1 3s-1-3-1-7m9-3.5c0-1.5-2.1-2.5-5.1-2.5-2.6 0-2.7 4.7-.2 5.2 2.3.6 5.3-1 5.3-2.7m-103.8 5.8a5 5 0 0 1 3 0q1 .5-1.7.5-2.6-.1-1.3-.5"/></svg>