<svg xmlns="http://www.w3.org/2000/svg" xml:space="preserve" viewBox="0 0 735.2 113.9"><path fill="#08457c" d="M17.3 65C9 63.2 3 58.2 1 51.1c-.5-2-1-14-1-27V1h20v21.5C20 50.7 18.7 49 40.5 49S61 50.7 61 22.5V1h20.2l-.4 24.7c-.3 23.4-.4 25-2.5 29C73.3 63.9 66 66 40 65.9c-10.2 0-20.4-.5-22.7-1M678 65c-11.3-1.6-15.2-5-15.8-14l-.4-6h4c4 0 4.2.1 4.2 3.2 0 9.5 4.4 11 30.5 10.5 22.4-.4 24.7-1 26.6-8 1.5-5.5-.1-11-3.6-12.5a72 72 0 0 0-17.8-1.2c-19 0-31.8-1.4-36.5-3.8q-7.4-3.6-7.2-14.7C662 3.6 669 0 698 0c26.5 0 34 3 35.7 14.5l.6 4.5h-4c-3.8 0-4-.2-5-4.5-.8-2.7-2.1-5-3.5-5.7-3.1-1.8-38.8-2.4-44.6-.9-5.6 1.5-7.4 4.4-7 11.1.3 4.4.8 5.6 3.1 7.4 2.6 2 4.5 2.1 26.5 2.6 21.1.4 24.1.7 27.6 2.5 6.3 3.2 7.8 6 7.8 14.8 0 13.3-4.1 17.3-19.4 18.7a223 223 0 0 1-37.8 0M94 33V1h31l18.2 22.7 18.3 22.8.3-22.8L162 1h20v64h-30.9l-18.3-23-18.3-23.2-.3 23.1-.2 23H94Zm102 0V1h19v64h-19zm61 3.5V8h-32V1h73v7h-32v57h-9zm51-3.6V1l31.8.3c28.4.3 32 .5 34.5 2 5.2 3.4 6.2 6.3 6.2 17v10l-3.3 2.9a12 12 0 0 1-5.5 3q-3-.2.9 1.3c6.1 2.7 7.4 5.7 7.4 17.2V65h-8v-9c0-9.5-1.4-14.2-4.5-15.4-1-.3-12.7-.6-26-.6H317v25h-9zm55.4-.8c6.9-1.2 8.6-3.5 8.6-11.8 0-12-.7-12.3-31.6-12.3H317v25h20.8c11.4-.1 23-.5 25.6-1m32.6.9V1h63v7h-54v20h52v7l-25.7.2-25.8.3-.3 11.2L405 58h54v7h-63zm76 0V1h13.5L514 28.4A860 860 0 0 0 543.3 56c.4 0 .7-12.3.7-27.4V1h9v64h-6.7l-6.8-.1-29-28-29-27.9-.3 28-.2 28h-9zm97 0V1l32.3.3c31 .3 32.4.4 36.3 2.5 2.3 1.2 4.8 3.3 5.8 4.7 6.4 9.9 6.1 39.5-.6 48.8a20 20 0 0 1-6.7 5.2c-4.3 2-6.5 2.1-35.8 2.4l-31.3.3zm63.7 22.4c5.6-4.1 6.4-7.3 6.1-24-.3-12.7-.6-15.3-2.2-17.7-3.7-5.4-5.2-5.7-33-5.7H578V58l26-.3c24.3-.3 26-.4 28.7-2.4"/><path d="M585.4 113.4c-1.6-.7-.4-4.6 1.1-4 .7.2 2-.1 3-.8 1.6-1.2 1.5-2-1.9-11-4.4-11.8-4.5-12.8-1-12.4 2.4.2 3 1.2 5 6.8 1.3 3.9 2.4 5.9 2.8 5l2.3-6.5c1.6-4.2 2.3-5 4.7-5.3s2.8 0 2.2 1.5L598.9 99c-4.8 12.8-8.3 16.5-13.5 14.4m-53.4-8.7c-1.9-1-2.6-2.2-2.8-4.9q-.4-6.6 7.3-6.8 6-.2 4.6-3-.7-1.3-5.6-.8c-4.3.5-4.6.4-4.3-1.6.2-1.7 1-2.2 4.7-2.4 9.2-.7 11.1 1.7 11.1 13.4 0 6.1-.1 6.4-2.5 6.4q-2.3 0-2.5-1c-.2-1-1.2-.2-2.7.5-3.4 1.8-4.1 1.8-7.3.2m9-5.8c1.5-2.6 1.3-3-1.8-3-4.5 0-7.4 4.5-3.4 5.3q3.6.9 5.2-2.3m65.5 5.9c-2.7-1.6-3.5-2.8-3.5-6 0-3.5 3.3-5.8 8.2-5.8q5.9 0 3.8-3c-.6-1-2-1.1-5.5-.7-4.4.6-4.6.5-4.3-1.6.2-1.8 1-2.3 4.7-2.5 9.2-.7 11.1 1.5 11.1 12.8 0 6.8 0 7-2.5 7q-2.3 0-2.5-1c0-.5-1.2-.2-2.7.5-3.3 1.7-4.2 1.8-6.8.3M615 99c1.4-2.8 1.3-3.1-1.3-3.1-3 0-6.2 2.3-5.3 3.8 1.1 1.9 5.4 1.4 6.6-.7m-130.8 4.6L487 96c3.8-11.5 4.5-11.6 8.5-.6 2.7 7.4 3.1 12.8.6 7.3-1-2.2-2-2.7-4.7-2.7s-3.5.5-4.3 2.5c-.5 1.4-1.5 2.5-2 2.5q-1-.1-.8-1.3m8.7-7.5c0-1-.4-2.6-.9-3.7-.7-1.9-.9-1.8-1.9.8-1.5 4-1.4 4.7.9 4.7q2 0 2-1.8m14.1-4.7V78h2.5c2.3 0 2.5.3 2.5 5 0 2.7.3 5 .8 5a24 24 0 0 0 4.6-5c3.3-4.2 4.4-5 7.3-5s3.2.2 2.4 1.7c-.5 1-2.4 3.1-4.1 4.8-5.6 5.3-5.6 5.8 0 12.9 2.7 3.5 5 6.6 5 7 0 .3-1.5.6-3.3.6-3 0-3.9-.7-7.3-5.5-2.1-3-4.2-5.5-4.7-5.5s-.7 2.5-.7 5.5c0 5.2-.1 5.5-2.5 5.5H507zm42 11.5c0-1.7.6-2 3.3-1.9 6.4.5 7.6-2.3 2-4.6-4.2-1.8-5.3-3-5.3-6.1 0-3.3 3.1-5.4 8.2-5.4s6 .5 5.1 2.6q-.5 1.5-3.3.9t-4 1c-1 1.2-.6 1.7 3.4 3.4 4.2 1.8 4.6 2.3 4.6 5.4 0 4.8-2.5 6.7-8.8 6.7-4.6 0-5.2-.3-5.2-2m19.3.5c-4.3-3-4.7-12.2-.7-16.6 1.2-1.4 3-2 6.5-2 4 0 5.1.5 6.8 2.7 1.2 1.5 2.1 4.1 2.1 6V97h-6.5c-6.5 0-7.7.7-5 3q2.4 2.1 7.8.6c2.6-.6 2.8-.5 2.5 1.6-.3 2-1 2.3-5.8 2.6q-5.6.3-7.7-1.3m9.7-12c0-2.3-3.6-3.8-6-2.5-3.5 1.9-2.4 4 2 4q4.1 0 4-1.5m52.5 11c-7-6.9 1.4-19.8 9-14 2.1 1.5 2 1.6-3.5 1.8-4.7.2-7 4-5 8.5q2.3 5.5 7 3.2c2.8-1.5 4-.3 1.6 1.6-3 2-6.4 1.7-9.1-1m14.6-.1c-3-3.8-2.8-9.8.4-13 5-5 12.5-1.2 12.5 6.6 0 8-8.4 12-13 6.4m9.7-2.2c1.8-2.4 1.5-7-.8-9.2-4-4-8.5-1.4-8.5 5s5.5 9 9.3 4.2m7 4.2a29 29 0 0 1-.8-9.2c0-9.9 1-10.3 5.4-2.2l2.9 5.3 2.9-5.6c1.5-3.2 3.3-5.7 3.8-5.7s1 3.6 1 8.5-.4 8.5-1 8.5-1-2.6-1-5.8v-5.7l-2.6 4.7c-1.3 2.6-2.8 4.8-3.2 4.8s-1.9-2.2-3.2-4.8l-2.5-4.7-.5 6.3c-.3 3.5-.8 6-1.3 5.6M681 96v-9h3.5c4.7 0 8 3.1 7 6.8-.8 3.4-.7 3.3-4.7 4-2.8.7-3.3 1.2-3.6 4-.2 1.7-.7 3.2-1.3 3.2-.5 0-.9-4-.9-9m7.7-1.6c.8-2.3-1-4.8-3.6-5.2-1.8-.3-2.1.1-2.1 3.2 0 3.2.3 3.6 2.5 3.6q2.4-.1 3.2-1.6m3 9.8c-1-1.5 5.3-17.4 6.7-17a59 59 0 0 1 6.5 16.7q.2 1.5-1.4 0c-.8-.6-1.5-1.8-1.5-2.5q0-1.4-3.5-1.4c-2.7 0-3.7.5-4.8 2.6q-1.4 2.4-2 1.6m9.3-6.6c0-.2-.6-1.9-1.4-3.7l-1.4-3.4-1.1 2.8c-1.6 4-1.4 4.7 1.4 4.7q2.3 0 2.5-.4m27 4.4a23 23 0 0 0-2.5-8 29 29 0 0 1-2.5-6c0-2.3 1.7-.8 3.6 3.2l2 4.2 2.4-4.2c2.3-4.2 4-5.4 4-3 0 .7-1.2 3-2.5 5.3a17 17 0 0 0-2.5 7.7c0 2.1-.4 3.8-1 3.8s-1-1.4-1-3m-21-6.5c0-4.8.4-8.5 1-8.5s2.9 2.8 5.2 6.2l4.3 6.3.3-6.3c.4-9.3 2.2-7.5 2.2 2.3 0 4.8-.4 8.5-1 8.5s-2.9-2.8-5.2-6.3l-4.3-6.2-.3 6.2c-.4 9.4-2.2 7.6-2.2-2.2"/></svg>