<svg xml:space="preserve" viewBox="0 29.6 288 68.9"><path fill="#fff" d="M286.6 85.8c0 7-6 12.7-13.4 12.7H13.4A13 13 0 0 1 0 85.8V43.4c0-8.3 5.4-13.6 13.9-13.6h259.3a13 13 0 0 1 13.4 12.7z"/><path fill="#f28c53" d="M68.5 84.5a8.5 8.5 0 0 1-8.4 8.4H14a8.5 8.5 0 0 1-8.4-8.4V43.6a8.5 8.5 0 0 1 8.4-8.4h46.1a8.5 8.5 0 0 1 8.4 8.4zm70.8 0a8.5 8.5 0 0 1-8.4 8.4H84.8a8.5 8.5 0 0 1-8.4-8.4V43.6a8.5 8.5 0 0 1 8.4-8.4h46.1a8.5 8.5 0 0 1 8.4 8.4zm70.9 0a8.5 8.5 0 0 1-8.4 8.4h-46.1a8.5 8.5 0 0 1-8.4-8.4V43.6a8.5 8.5 0 0 1 8.4-8.4h46.1a8.5 8.5 0 0 1 8.4 8.4zm70.9 0a8.5 8.5 0 0 1-8.4 8.4h-46.1a8.5 8.5 0 0 1-8.4-8.4V43.6a8.5 8.5 0 0 1 8.4-8.4h46.1a8.5 8.5 0 0 1 8.4 8.4z"/><path fill="#fff" d="M54.5 46.9h-9.2v25.4H28.4V46.9H17.3v25.8c0 6.8 2.6 9.3 9.7 9.3h19.8c7 0 9.7-2.5 9.7-9.3V46.9Zm71.1.1h-38v9.4H102v25.7h11.1V56.4h14.4V47Zm143.8-12.5-19.8 22.1-9.2-9.7h-15l17 17.2L225.8 82h14l9.7-11.2L260.1 82h15.3l-18.8-18.8 22.6-25.3c1.2-1.2-4.2-3.4-4.2-3.4Zm-86 12.8h-9.2l-19.8 35.1h11.7l3.6-6.8h17.6l3.8 6.8h12.6zm-8.6 18.8 3.7-6.8 3.6 6.8Z"/></svg>