<?xml version="1.0" encoding="UTF-8" standalone="no"?>
<svg
   xml:space="preserve"
   version="1.1"
   id="svg1"
   xmlns="http://www.w3.org/2000/svg"
   xmlns:svg="http://www.w3.org/2000/svg"><defs
     id="defs1" /><rect
     id="backgroundrect"
     width="100%"
     height="100%"
     x="0"
     y="0.01365131"
     fill="none"
     stroke="none"
     class="" /><g
     class="currentLayer"
     id="g1"
     transform="translate(0,0.01365131)"><title
       id="title1">Layer 1</title><path
       fill="#ffffff"
       d="m 286.60001,55.986403 c 0,7 -6,12.7 -13.4,12.7 H 13.4 C 6,68.6864 0,62.986403 0,55.986403 V 13.586349 C 0,5.2863489 5.4000001,-0.01365131 13.9,-0.01365131 h 259.29999 c 7.4,0 13.4,5.69999981 13.4,12.69999931 v 43.3 z"
       id="svg_1"
       class="" /><path
       fill="#f28c53"
       d="m 68.5,54.6864 a 8.4499998,8.4499998 0 0 1 -8.4,8.4 H 14 a 8.4499998,8.4499998 0 0 1 -8.3999996,-8.4 V 13.786346 A 8.4499998,8.4499998 0 0 1 14,5.3863464 h 46.099998 a 8.4499998,8.4499998 0 0 1 8.4,8.3999996 v 40.900002 z m 70.8,0 a 8.4499998,8.4499998 0 0 1 -8.4,8.4 H 84.800003 a 8.4499998,8.4499998 0 0 1 -8.4,-8.4 V 13.786346 a 8.4499998,8.4499998 0 0 1 8.4,-8.3999996 H 130.9 a 8.4499998,8.4499998 0 0 1 8.4,8.3999996 v 40.900002 z m 70.9,0 a 8.4499998,8.4499998 0 0 1 -8.4,8.4 h -46.1 a 8.4499998,8.4499998 0 0 1 -8.4,-8.4 V 13.786346 a 8.4499998,8.4499998 0 0 1 8.4,-8.3999996 h 46.1 a 8.4499998,8.4499998 0 0 1 8.4,8.3999996 v 40.900002 z m 70.90001,0 a 8.4499998,8.4499998 0 0 1 -8.4,8.4 h -46.1 a 8.4499998,8.4499998 0 0 1 -8.4,-8.4 V 13.786346 a 8.4499998,8.4499998 0 0 1 8.4,-8.3999996 h 46.1 a 8.4499998,8.4499998 0 0 1 8.4,8.3999996 v 40.900002 z"
       id="svg_2"
       class="" /><path
       fill="#ffffff"
       d="M 54.5,17.086356 H 45.3 V 42.486355 H 28.4 V 17.086356 H 17.299999 v 25.799999 c 0,6.8 2.6,9.3 9.7,9.3 h 19.799999 c 7,0 9.7,-2.5 9.7,-9.3 V 17.086356 Z m 71.1,0.1 H 87.599998 v 9.4 H 102 v 25.700001 h 11.1 V 26.586386 h 14.4 v -9.40003 z M 269.39999,4.6863318 c 0,0 -17.8,19.8999992 -19.8,22.1000002 -2.1,-2.2 -9.2,-9.7 -9.2,-9.7 h -15 c 0,0 14.9,15 17,17.200001 -2.1,2.2 -16.6,17.9 -16.6,17.9 h 14 c 0,0 7.7,-8.8 9.7,-11.2 2.2,2.3 10.6,11.2 10.6,11.2 h 15.3 L 256.6,33.386334 C 258.2,31.686333 272.8,15.286333 279.2,8.0863343 280.4,6.8863342 275,4.6863342 275,4.6863342 Z m -86,12.8000232 h -9.2 l -19.8,35.099999 h 11.7 c 0,0 2.9,-5.4 3.6,-6.8 h 17.6 c 0.8,1.4 3.8,6.8 3.8,6.8 H 203.7 L 183.4,17.486355 Z m -8.6,18.8 c 1.3,-2.4 2.4,-4.300001 3.7,-6.800001 1.3,2.5 2.4,4.5 3.6,6.800001 z"
       id="svg_3"
       class="" /></g></svg>
