<svg xmlns="http://www.w3.org/2000/svg" xml:space="preserve">

 <g>
  <title>Layer 1</title>
  <path id="svg_1" d="m280.60001,50.8c0,7 -6,12.7 -13.39999,12.7l-259.80001,0c-7.4,0 -13.4,-5.7 -13.4,-12.7l0,-42.4c0,-8.3 5.4,-13.6 13.9,-13.6l259.29998,0c7.39999,0 13.39999,5.7 13.39999,12.7l0,43.3l0.00003,0z" fill="#FFF"/>
  <path id="svg_2" d="m62.5,49.5a8.45,8.45 0 0 1 -8.4,8.4l-46.1,0a8.45,8.45 0 0 1 -8.4,-8.4l0,-40.9a8.45,8.45 0 0 1 8.4,-8.4l46.1,0a8.45,8.45 0 0 1 8.4,8.4l0,40.9zm70.8,0a8.45,8.45 0 0 1 -8.40001,8.4l-46.09999,0a8.45,8.45 0 0 1 -8.4,-8.4l0,-40.9a8.45,8.45 0 0 1 8.4,-8.4l46.09999,0a8.45,8.45 0 0 1 8.40001,8.4l0,40.9zm70.89999,0a8.45,8.45 0 0 1 -8.39999,8.4l-46.10001,0a8.45,8.45 0 0 1 -8.39999,-8.4l0,-40.9a8.45,8.45 0 0 1 8.39999,-8.4l46.10001,0a8.45,8.45 0 0 1 8.39999,8.4l0,40.9zm70.90001,0a8.45,8.45 0 0 1 -8.39999,8.4l-46.10001,0a8.45,8.45 0 0 1 -8.39999,-8.4l0,-40.9a8.45,8.45 0 0 1 8.39999,-8.4l46.10001,0a8.45,8.45 0 0 1 8.39999,8.4l0,40.9z" fill="#F28C53"/>
  <path id="svg_3" d="m48.5,11.9l-9.2,0l0,25.4l-16.9,0l0,-25.4l-11.1,0l0,25.8c0,6.8 2.6,9.3 9.7,9.3l19.8,0c7,0 9.7,-2.5 9.7,-9.3l0,-25.8l-2,0zm71.1,0.1l-38,0l0,9.4l14.4,0l0,25.7l11.1,0l0,-25.7l14.4,0l0,-9.4l-1.9,0zm143.8,-12.5s-17.8,19.9 -19.8,22.1c-2.10001,-2.2 -9.2,-9.7 -9.2,-9.7l-15,0s14.89999,15 17,17.2c-2.10001,2.2 -16.60001,17.9 -16.60001,17.9l14,0s7.7,-8.8 9.7,-11.2c2.20001,2.3 10.59999,11.2 10.59999,11.2l15.30002,0l-18.79999,-18.8c1.60001,-1.7 16.19998,-18.1 22.60001,-25.3c1.19998,-1.2 -4.20001,-3.4 -4.20001,-3.4l-5.60001,0zm-86,12.8l-9.2,0l-19.8,35.1l11.7,0s2.89999,-5.4 3.60001,-6.8l17.59999,0c0.8,1.4 3.8,6.8 3.8,6.8l12.60001,0l-20.3,-35.1zm-8.60001,18.8c1.3,-2.4 2.40001,-4.3 3.7,-6.8c1.3,2.5 2.40001,4.5 3.60001,6.8l-7.3,0z" fill="#FFF"/>
 </g>
</svg>
