<svg viewBox="0 29.65 288 68.87" xml:space="preserve"><path d="M286.6 85.8c0 7-6 12.7-13.4 12.7H13.4C6 98.5 0 92.8 0 85.8V43.4c0-8.3 5.4-13.6 13.9-13.6h259.3c7.4 0 13.4 5.7 13.4 12.7v43.3Z" fill="#FFF"/><path d="M68.5 84.5a8.45 8.45 0 0 1-8.4 8.4H14a8.45 8.45 0 0 1-8.4-8.4V43.6a8.45 8.45 0 0 1 8.4-8.4h46.1a8.45 8.45 0 0 1 8.4 8.4v40.9Zm70.8 0a8.45 8.45 0 0 1-8.4 8.4H84.8a8.45 8.45 0 0 1-8.4-8.4V43.6a8.45 8.45 0 0 1 8.4-8.4h46.1a8.45 8.45 0 0 1 8.4 8.4v40.9Zm70.9 0a8.45 8.45 0 0 1-8.4 8.4h-46.1a8.45 8.45 0 0 1-8.4-8.4V43.6a8.45 8.45 0 0 1 8.4-8.4h46.1a8.45 8.45 0 0 1 8.4 8.4v40.9Zm70.9 0a8.45 8.45 0 0 1-8.4 8.4h-46.1a8.45 8.45 0 0 1-8.4-8.4V43.6a8.45 8.45 0 0 1 8.4-8.4h46.1a8.45 8.45 0 0 1 8.4 8.4v40.9Z" fill="#F28C53"/><path d="M54.5 46.9h-9.2v25.4H28.4V46.9H17.3v25.8c0 6.8 2.6 9.3 9.7 9.3h19.8c7 0 9.7-2.5 9.7-9.3V46.9Zm71.1.1h-38v9.4H102v25.7h11.1V56.4h14.4V47Zm143.8-12.5s-17.8 19.9-19.8 22.1l-9.2-9.7h-15s14.9 15 17 17.2c-2.1 2.2-16.6 17.9-16.6 17.9h14s7.7-8.8 9.7-11.2c2.2 2.3 10.6 11.2 10.6 11.2h15.3l-18.8-18.8c1.6-1.7 16.2-18.1 22.6-25.3 1.2-1.2-4.2-3.4-4.2-3.4Zm-86 12.8h-9.2l-19.8 35.1h11.7s2.9-5.4 3.6-6.8h17.6c.8 1.4 3.8 6.8 3.8 6.8h12.6l-20.3-35.1Zm-8.6 18.8c1.3-2.4 2.4-4.3 3.7-6.8 1.3 2.5 2.4 4.5 3.6 6.8Z" fill="#FFF"/></svg>
