<svg xmlns="http://www.w3.org/2000/svg" xml:space="preserve" fill-rule="evenodd" stroke-linejoin="round" stroke-miterlimit="1.4" clip-rule="evenodd" viewBox="0 0 802 201"><path fill="#222" fill-rule="nonzero" d="m106.1 100 40.5-42 53.7-.8a106 106 0 0 0-188.4 0l52 .7zM11.7 57.7a106 106 0 0 0 45.8 142.7l47.9-48z"/><path fill="#222" fill-rule="nonzero" d="M212.2 106.1a105 105 0 0 0-12-48.9l-94.8 95.2 48.2 48.6a106 106 0 0 0 58.6-94.9m84.3-48.7-25 .2 36.7 96.4h22.3l36.2-96.4h-24l-23.5 64.3zM385 57v97h70v-20h-48v-20h39V95h-39V78h48V57zm346.8.4-25 .2 36.7 96.4h22.2L802 57.6h-24l-23.6 64.3z"/><path fill="#222" d="M597 57h24v97h-24z"/><path fill="#222" d="M650 57h-82v21h82zm17 0h22v97h-22zm-187 0h22v97h-22z"/><path fill="#222" fill-rule="nonzero" d="M502.1 57h18.5c2.3 0 5.9.3 6.4.3 5 .9 28.6 6.2 28.6 32.7 0 27.2-27.5 31.1-31.7 31.5H502c-5.1 0-5.1-18.4 0-18.4h19.2q2.2 0 4.2-1c3-1.4 7.6-5 7.6-12.1 0-8.3-6.7-11-9.7-11.9l-2.4-.3H502c-5.1 0-5.1-20.9 0-20.9"/><path fill="#222" fill-rule="nonzero" d="m511 121 23.3 33h25.3l-31.7-44.8Z"/></svg>