<?xml version="1.0" encoding="UTF-8" standalone="no"?>
<svg
   xmlns:serif="http://www.serif.com/"
   xmlns:dc="http://purl.org/dc/elements/1.1/"
   xmlns:cc="http://creativecommons.org/ns#"
   xmlns:rdf="http://www.w3.org/1999/02/22-rdf-syntax-ns#"
   xmlns:svg="http://www.w3.org/2000/svg"
   xmlns="http://www.w3.org/2000/svg"
   height="200.99989"
   id="svg209"
   style="clip-rule:evenodd;fill-rule:evenodd;stroke-linejoin:round;stroke-miterlimit:1.41420996"
   xml:space="preserve"
   version="1.1"
   viewBox="0 0 802.00092 200.99989"><metadata
     id="metadata215"><rdf:RDF><cc:Work
         rdf:about=""><dc:format>image/svg+xml</dc:format><dc:type
           rdf:resource="http://purl.org/dc/dcmitype/StillImage" /><dc:title></dc:title></cc:Work></rdf:RDF></metadata><defs
     id="defs213" /><g
     transform="translate(-17.951083,-8.0001)"
     serif:id="Layer 1"
     id="Layer-1"><g
       id="g138"
       transform="translate(124.059,8.0001)"><path
         id="path136"
         style="fill:#222222;fill-rule:nonzero"
         d="M 0,99.925 40.493,57.931 94.172,57.23 C 76.49,23.234 40.969,0 0,0 -40.973,0 -76.496,23.238 -94.177,57.239 l 51.911,0.692 z" /></g><g
       id="g142"
       transform="matrix(-0.952181,0.305535,0.305535,0.952181,131.466,192.478)"><path
         id="path140"
         style="fill:#222222;fill-rule:nonzero"
         d="m 58.215,-151.825 c 11.538,11.545 20.597,25.91 25.927,42.52 12.549,39.109 1.19,80.138 -25.927,107.361 l -60.27,-31.123 z" /></g><g
       id="g146"
       transform="translate(230.167,160.142)"><path
         id="path144"
         style="fill:#222222;fill-rule:nonzero"
         d="m 0,-46.034 c 0,-17.625 -4.322,-34.231 -11.926,-48.858 l -94.921,95.114 48.212,48.636 C -23.875,31.432 0,-4.503 0,-46.034" /></g><g
       id="g150"
       transform="translate(314.485,162)"><path
         id="path148"
         style="fill:#222222;fill-rule:nonzero"
         d="M 0,-96.582 -25.006,-96.398 11.712,0 h 22.207 l 36.27,-96.393 -23.938,-0.068 -23.634,64.379 z" /></g><g
       id="g154"
       transform="translate(403,162)"><path
         id="path152"
         style="fill:#222222;fill-rule:nonzero"
         d="M 0,-97 V 0 H 70 V -20 H 22 V -40 H 61 V -59 H 22 v -17 h 48 v -21 z" /></g><g
       id="g158"
       transform="translate(749.763,162)"><path
         id="path156"
         style="fill:#222222;fill-rule:nonzero"
         d="M 0,-96.582 -25.006,-96.398 11.712,0 h 22.207 l 36.27,-96.393 -23.938,-0.068 -23.634,64.379 z" /></g><g
       id="g162"
       transform="translate(0,10)"><rect
         id="rect160"
         style="fill:#222222"
         height="97"
         width="24"
         y="55"
         x="615" /></g><g
       id="g166"
       transform="matrix(-1,0,0,1,1254,-66)"><rect
         id="rect164"
         style="fill:#222222"
         height="21"
         width="82"
         y="131"
         x="586" /></g><g
       id="g170"
       transform="translate(0,10)"><rect
         id="rect168"
         style="fill:#222222"
         height="97"
         width="22"
         y="55"
         x="685" /></g><g
       id="g174"
       transform="translate(0,94)" /><g
       id="g178"
       transform="translate(0,93)" /><g
       id="g182"
       transform="translate(822.181,163)" /><g
       id="g186"
       transform="translate(835.387,163)" /><g
       id="g190"
       transform="translate(0,93)" /><g
       id="g194"
       transform="matrix(-1,0,0,1,1629,79)" /><g
       id="g198"
       transform="translate(0,10)"><rect
         id="rect196"
         style="fill:#222222"
         height="97"
         width="22"
         y="55"
         x="498" /></g><g
       id="g202"
       transform="translate(520.054,129.591)"><path
         id="path200"
         style="fill:#222222;fill-rule:nonzero"
         d="m 0,-64.677 h 18.51 c 2.302,0 5.878,0.337 6.397,0.426 5.022,0.857 28.585,6.136 28.585,32.642 0,27.245 -27.512,31.126 -31.72,31.56 C 21.457,-0.016 21.144,0 20.827,0 H 0 c -5.103,0 -5.103,-18.479 0,-18.479 h 19.245 c 1.43,0 2.839,-0.327 4.118,-0.967 2.975,-1.49 7.598,-4.963 7.598,-12.163 0,-8.247 -6.699,-11.017 -9.69,-11.843 -0.778,-0.215 -1.583,-0.315 -2.39,-0.315 H 0 c -5.103,0 -5.103,-20.91 0,-20.91" /></g><g
       id="g206"
       transform="matrix(0.576338,0.817212,0.817212,-0.576338,547.876,113.665)"><path
         id="path204"
         style="fill:#222222;fill-rule:nonzero"
         d="M 1.653,-24.304 H 42.006 L 56.574,-3.647 1.67,-3.699 Z" /></g></g></svg>
