<svg viewBox="0 0 138 50" xmlns="http://www.w3.org/2000/svg"><path d="M90.9 23.4v3.2h4.4v2.8h-8.8v-8.8h18.9V10.5H80.1c-2.1 0-3.8 1.7-3.8 3.8v21.5c0 2.1 1.7 3.8 3.8 3.8h21.5c2.1 0 3.8-1.7 3.8-3.8V23.4H90.9zm43.3-12.9h-21.5c-2.1 0-3.8 1.7-3.8 3.8v21.5c0 2.1 1.7 3.8 3.8 3.8h21.5c2.1 0 3.8-1.7 3.8-3.8V14.2c0-2-1.7-3.7-3.8-3.7m-6.3 18.9h-8.8v-8.8h8.8v8.8zm-72-18.9l-21 32.2h-3.6l4.7 7.2 15.5-7.2H47l5.3-8.2h10.4v5.1h10.1v-29H55.9zm-.3 18.9l7.1-11v11h-7.1zM12 39.5L20.8 26v13.5h12.1L53.8 7.3h3.3L52.4.1 36.9 7.3h4.8L30.9 23.9V10.5H18.8l-8.7 13.4V10.5H0v29z"></path></svg>