<svg xmlns="http://www.w3.org/2000/svg" data-name="Layer 1" viewBox="0 0 241 34"><defs><linearGradient id="a" x1="339.9" x2="546.7" y1="310.9" y2="310.9" gradientUnits="userSpaceOnUse"><stop offset="0" stop-color="#083755"/><stop offset=".3" stop-color="#104c75"/><stop offset=".8" stop-color="#1b679f"/><stop offset="1" stop-color="#1f71af"/></linearGradient><linearGradient id="c" x1="1.1" x2="2.1" y1="593.9" y2="593.9" gradientTransform="matrix(200.16 0 0 -200.16 -206 118894)" href="#a"/><linearGradient id="e" x1="1.1" x2="2.1" y1="593.9" y2="593.9" gradientTransform="matrix(195.74 0 0 -195.74 -198 116266)" href="#a"/><linearGradient id="g" x1="1.1" x2="2.1" y1="593.9" y2="593.9" gradientTransform="matrix(195.74 0 0 -195.74 -198 116266)" href="#a"/><linearGradient id="i" x1="1.1" x2="2.1" y1="593.9" y2="593.9" gradientTransform="matrix(195.74 0 0 -195.74 -199 116266)" href="#a"/><linearGradient id="k" x1="1.1" x2="2.1" y1="594" y2="594" gradientTransform="matrix(209.2 0 0 -209.2 -219 124274)" href="#a"/><linearGradient id="m" x1="1.1" x2="2.1" y1="593.9" y2="593.9" gradientTransform="matrix(195.74 0 0 -195.74 -199 116266)" href="#a"/><linearGradient id="o" x1="1.1" x2="2.1" y1="593.9" y2="593.9" gradientTransform="matrix(195.74 0 0 -195.74 -200 116266)" href="#a"/><linearGradient id="q" x1="1.1" x2="2.1" y1="593.9" y2="593.9" gradientTransform="matrix(196.67 0 0 -196.67 -200 116817)" href="#a"/><clipPath id="b" transform="translate(-324 -294)"><path d="M401 294a5 5 0 0 0-5 4v11a5 5 0 0 0 5 5h12v8h-17l-3 6h24a5 5 0 0 0 5-5v-10a5 5 0 0 0-5-5h-12v-9h13l3-5Z" class="cls-1"/></clipPath><clipPath id="d" transform="translate(-324 -294)"><path d="M481 294a5 5 0 0 0-5 4v30h9v-29h5l3-5Z" class="cls-2"/></clipPath><clipPath id="f" transform="translate(-324 -294)"><path d="M496 294v34h9v-29h7v29h9v-29h7v29h9v-30a5 5 0 0 0-5-4Z" class="cls-3"/></clipPath><clipPath id="h" transform="translate(-324 -294)"><path d="M356 294v28h-8v-28h-8v28h-8v-28h-8v29a5 5 0 0 0 4 5h32l3-1 1-4v-29Z" class="cls-4"/></clipPath><clipPath id="j" transform="translate(-324 -294)"><path d="m425 294-3 5h7v29h9v-29h5l3-5z" class="cls-5"/></clipPath><clipPath id="l" transform="translate(-324 -294)"><path d="M548 299h9v23h-9Zm-4-5a5 5 0 0 0-5 4v25a5 5 0 0 0 5 5h17a5 5 0 0 0 4-5v-25l-4-4Z" class="cls-6"/></clipPath><clipPath id="n" transform="translate(-324 -294)"><path d="M376 299h8v11h-8Zm-4-5a5 5 0 0 0-5 4v25a5 5 0 0 0 5 5h17l3-6h-16v-7h17v-17a5 5 0 0 0-5-4Z" class="cls-7"/></clipPath><clipPath id="p" transform="translate(-324 -294)"><path d="M456 299h9v11h-9Zm-4-5a5 5 0 0 0-5 4v25a5 5 0 0 0 5 5h17l2-6h-15v-7h17v-17l-4-4Z" class="cls-8"/></clipPath></defs><path d="M77 0a5 5 0 0 0-5 5v11a5 5 0 0 0 5 4h12v9H72l-3 5h24a5 5 0 0 0 5-4V19a5 5 0 0 0-5-5H81V6h13l3-6Z" class="cls-1"/><g clip-path="url(#b)"><path fill="url(#c)" d="M70 0h28v34H69z"/></g><path d="M157 0a5 5 0 0 0-5 5v29h9V6h6l2-6Z" class="cls-2"/><g clip-path="url(#d)"><path fill="url(#e)" d="M152 0h17v34h-17z"/></g><path d="M172 0v34h9V6h7v28h9V6h7v28h9V5a5 5 0 0 0-5-5Z" class="cls-3"/><g clip-path="url(#f)"><path fill="url(#g)" d="M172 0h41v34h-41z"/></g><path d="M32 0v29h-7V0h-9v29H9V0H0v30a5 5 0 0 0 5 4h31l3-1 2-3V0Z" class="cls-4"/><g clip-path="url(#h)"><path fill="url(#i)" d="M0 0h41v34H0z"/></g><path d="m101 0-3 6h7v28h9V6h6l2-6z" class="cls-5"/><g clip-path="url(#j)"><path fill="url(#k)" d="M98 0h24v34H98z"/></g><path d="M224 6h9v23h-9Zm-4-6a5 5 0 0 0-4 5v25l4 4h17l4-4V5a5 5 0 0 0-4-5Z" class="cls-6"/><g clip-path="url(#l)"><path fill="url(#m)" d="M216 0h26v34h-26z"/></g><path d="M52 6h9v10h-9Zm-4-6a5 5 0 0 0-4 5v25l4 4h17l3-5H52v-7h17V5a5 5 0 0 0-4-5Z" class="cls-7"/><g clip-path="url(#n)"><path fill="url(#o)" d="M44 0h26v34H44z"/></g><path d="M132 6h9v10h-9Zm-4-6a5 5 0 0 0-4 5v25l4 4h17l3-5h-16v-7h17V5a5 5 0 0 0-4-5Z" class="cls-8"/><g clip-path="url(#p)"><path fill="url(#q)" d="M124 0h26v34h-26z"/></g></svg>