<svg xmlns="http://www.w3.org/2000/svg" xml:space="preserve" viewBox="0 0 1024 202"><path fill="#829097" fill-opacity=".6" d="M358 91c-8-1-9-2-11-5l-3-4V63c0-21 0-22 5-27s65-5 70 0 6 6 6 27v19l-4 4c-4 5-12 7-37 7zm48-14c6-6 5-26-2-30-4-3-36-3-40-1-7 4-8 25-1 31q2 3 29 2c10 0 12-1 14-2m319 14c-13-1-13-1-17-4-3-4-3-4-3-16V51c0-9 0-9 3-13l4-3 15-1c20-1 37 0 40 2q5 4 5 12-1 5-5-3c-2-6-2-6-13-7h-33q-7 1-9 4c-2 3-3 4-3 20s1 18 3 21q1 3 10 4h34c9-2 10-3 13-10l2-4c3 0 3 7 0 12q-2 6-7 5c-9 1-27 2-39 1m134 0-5-6-5-6-24-1c-27 0-26 0-30 8q-2 5-5 5-4 0-2-2l1-4 3-4 4-8 8-14 3-5 5-9 5-9q1-2 7-2 8 0 10 5l10 17 3 6 3 5 10 19 2 2 1 2q-1 2-4 1m-14-18v-6l-4-7-15-22q-2-2-5 2l-5 7-8 16-4 7v3c1 2 4 2 21 2s20 0 20-2m47 18q-15 0-14-10-1-5 2-5 3-1 2 3 0 5 5 7c8 4 42 3 47-1 2-2 3-9 2-13-2-7-3-7-27-8-27 0-30-1-31-12q-2-10 4-14c4-3 4-3 17-4h24c10 1 10 1 14 4 4 5 4 12-1 10l-1-2q0-10-26-9-19 0-24 5-4 2-3 7-1 5 3 8l3 3h22c26 1 28 1 31 10 2 5 2 5 1 10-3 9-5 10-24 11zm96 0-1-25c0-21 0-25-2-27-1-2-2-2-16-2-12 0-14 0-14-2l1-1 68 1c0 2-2 2-15 2q-16-1-16 2c-2 1-2 5-2 26l-1 26zm-762-1-1-4-1-4-2-4-1-4-2-3-2-6-2-5-2-3-1-5-1-4-2-4-1-4-2-4q-2-2 7-2 10 0 10 6l2 4 1 4 1 5 2 3 1 5 3 6c3 10 4 11 7 12l3-1 2-5 2-8 2-6 2-4 2-7 1-4 2-6 1-4h20l1 3 3 7 2 6 1 5 1 4 2 6 3 8q1 7 4 6 3 1 5-6l3-7 2-3 1-5 1-4 2-4c1-5 4-13 6-14q1-2 8-2 9 0 7 2l-2 6-2 6-2 3-1 4-1 5-3 6-2 5-1 4-2 3-2 5-2 6c-1 2-2 2-15 2l-13-1-1-4-3-7-1-6-1-4-2-7-3-8q-3-10-7 3l-8 29-1 4-13 1zm217-28V34h33c31 0 33 0 35 2q5 3 5 16 1 10-5 15-4 3-2 4l3 2q3 1 3 13v4h-14l-1-5-2-6q-2-3-23-3c-17 0-18 0-18 9v6h-14zm56-1 1-7q1-5-3-7c-2-2-4-2-19-2-20 0-21 0-21 10 0 9 0 9 24 8 14 0 17 0 18-2m34 1V34h16v20l1 22 1 2 21 1h22v12h-61zm76 1V34h34c38 0 38 0 42 8 2 3 2 5 2 20 0 19-1 22-7 26-2 2-3 2-37 3h-34zm58 14q6-3 6-16c-1-14-4-16-27-16l-19 1-3 1v15l1 16 20 1c16 0 20 0 22-2"/><path fill="#f79433" d="m99 200 4-2 2-2 8-6 6-4c6-5 19-22 23-30q10-21 10-29l1-4a156 156 0 0 0-2-53l-1-5-1-4-5-11-2-3-6-11-9-12A100 100 0 0 0 99 1h5l7 4q15 7 28 20t20 28l7 18a111 111 0 0 1 0 59l-1 5-2 4-1 3-2 4-1 3-2 3-1 3-1 2-6 9a174 174 0 0 1-28 25l-18 10q-8 3-4-1m-29-23c7-4 23-20 26-26l4-9q5-8 7-18l2-7a102 102 0 0 0-5-49L93 46c-5-7-15-16-22-20-8-6-3-5 7 0l4 2c8 3 22 15 27 23q2 5 4 5l1 3 2 3 1 3 2 3 1 3 2 5c2 5 3 23 2 35a72 72 0 0 1-10 31l-11 15c-4 5-17 15-22 17-13 6-20 8-11 3m-32-22a68 68 0 0 0 23-30l1-6 2-7c1-5 1-17-1-23l-1-7-1-5-2-3c0-5-14-23-21-27-7-5 2-3 12 3q10 6 18 15c4 5 8 14 8 16l2 4 1 17q-1 20-6 25l-1 2-8 12c-5 5-16 13-19 13l-3 1-4 2h-2zM0 101V67h5l6 1 4 2c3 0 15 12 16 16l2 4c2 3 1 19 0 22l-2 3q0 3-7 10l-8 6-4 2-8 2H0z"/><path fill="#485260" d="M217 170c-10-2-12-3-14-9q-2-7 6-6 8 0 8 2c2 2 2 2 15 2 14 0 16 0 15-4-1-3-1-3-16-3q-24-2-26-6c-2-4-2-12-1-16 3-7 4-7 22-8 20 0 26 0 30 4q4 2 3 6v4l-5 1q-5 0-8-2c-3-2-13-3-22-2q-6 0-7 2c-1 4 2 4 17 5 19 1 23 2 25 7q3 8 1 17c-3 5-7 6-25 7zm138 0c-10-2-12-3-14-9q-2-7 6-6 8 0 8 2c3 4 27 4 29 0q5-5-16-6-23 0-25-5c-2-3-2-11-1-16 2-7 4-7 22-8 21 0 27 0 30 4q5 6 2 10c-2 2-9 1-12-1s-14-3-23-2q-7 0-6 3-1 4 15 4 14 0 23 3c5 1 8 13 4 20-2 6-6 7-24 8zm291 0-5-1q-3 0-7-3-4-2-3-7v-4h6q5 0 9 2 2 2 11 3l13-1q6 0 5-4v-3l-17-1c-19-1-23-2-25-6-4-6-1-19 4-22l39-1q9 2 11 9t-8 6l-6-2q-4-3-22-2-6-1-5 3c0 3 1 4 19 4 21 1 23 3 23 15 0 14-2 15-25 16zm-351-1-1-9v-7l-12-14-13-15 8-1h9l6 8 8 8q1 3 9-8l6-8h9l8 1-4 7-16 17q-3 5-4 14l-1 7-6 1zm135 0-1-16-1-17q-1-2-11-2l-9-1v-10h56l1 3-1 5c-1 2-1 2-9 3l-10 1-1 17c0 17 0 18-8 18zm46-1c-2-1-2-4-2-22l1-22 27-1h26v9l-19 1h-19v6l16 1 18 1 1 5v4l-18 1h-17l-1 4v3l20 1h19v9l-1 2h-25c-21 0-25 0-26-2m64 0c-2-1-2-4-2-22l1-21q-2-2 13-2h13l4 8 6 14q4 11 9-1l6-13 4-8h26v22l-1 24h-13v-16l-1-17c-2-1-3 0-11 17-8 16-9 17-15 17l-6-1-9-18-9-16q-2 0-2 16l-1 18c-2 2-10 1-12-1"/></svg>