<?xml version="1.0" encoding="UTF-8" standalone="no"?>
<svg
   id="Layer_2"
   data-name="Layer 2"
   viewBox="100 100 2064.532 906.76325"
   version="1.1"
   sodipodi:docname="XKL-Logo-for-LibreNMS.svg"
   width="2064.532"
   height="906.76324"
   inkscape:version="1.4 (e7c3feb1, 2024-10-09)"
   xmlns:inkscape="http://www.inkscape.org/namespaces/inkscape"
   xmlns:sodipodi="http://sodipodi.sourceforge.net/DTD/sodipodi-0.dtd"
   xmlns="http://www.w3.org/2000/svg"
   xmlns:svg="http://www.w3.org/2000/svg">
  <sodipodi:namedview
     id="namedview75"
     pagecolor="#ffffff"
     bordercolor="#000000"
     borderopacity="0.25"
     inkscape:showpageshadow="2"
     inkscape:pageopacity="0.0"
     inkscape:pagecheckerboard="0"
     inkscape:deskcolor="#d1d1d1"
     inkscape:zoom="0.16"
     inkscape:cx="1031.25"
     inkscape:cy="440.625"
     inkscape:window-width="1200"
     inkscape:window-height="948"
     inkscape:window-x="561"
     inkscape:window-y="25"
     inkscape:window-maximized="0"
     inkscape:current-layer="Layer_2" />
  <defs
     id="defs1">
    <style
       id="style1">
      .cls-1, .cls-2 {
        fill: #232c6b;
      }

      .cls-2, .cls-3 {
        stroke: #232c6b;
        stroke-miterlimit: 10;
        stroke-width: 4px;
      }

      .cls-3 {
        fill: none;
      }
    </style>
  </defs>
  <g
     id="Layer_3"
     data-name="Layer 3"
     transform="translate(106.25,106.25)">
    <g
       id="g75">
      <path
         class="cls-1"
         d="M 0,63.17263 V 0 C 3.3976438,0.09584742 6.6408494,0.19175335 10.038493,0.19175335 H 2064.532 V 63.17263 Z"
         id="path1" />
      <g
         id="g4">
        <path
           class="cls-1"
           d="m 1442.5974,110.88829 c -3.5066,7.59897 -9.9328,13.20223 -15.1912,19.51854 -36.5861,43.94768 -73.5132,87.61137 -110.2773,131.41129 -38.4935,45.86011 -76.9263,91.77094 -115.3859,137.65945 -0.2164,0.25807 -0.4404,0.50959 -0.654,0.76981 -7.9509,9.68817 -7.884,9.63508 0.022,19.59367 45.5936,57.43241 91.1112,114.92509 136.7369,172.33184 37.882,47.66352 75.8843,95.23116 113.8085,142.86125 2.7028,3.39469 5.1999,6.95341 7.6497,10.24358 -1.3442,3.56981 -4.0946,2.44575 -6.1837,2.44747 -78.7991,0.0636 -157.5984,-0.0268 -236.3967,0.20164 -6.7355,0.0195 -10.5287,-3.09858 -14.0954,-7.8826 -22.7207,-30.4729 -45.4888,-60.91034 -68.2664,-91.34076 -37.4935,-50.09046 -75.0052,-100.16724 -112.5167,-150.24447 -1.0047,-1.34136 -1.8737,-2.91859 -3.1804,-3.87499 -4.4185,-3.23476 -9.3153,-0.87497 -9.6665,4.59845 -0.1724,2.68294 -0.044,5.38555 -0.044,8.07925 0,74.41411 -5e-4,148.82823 -3e-4,223.24234 0,2.02027 0.012,4.04067 0,6.06089 -0.075,11.14077 -0.077,11.20379 -11.23491,11.20743 -64.99242,0.0211 -129.98483,0.0101 -194.97725,0.01 -0.67355,0 -1.34723,0.0123 -2.02053,-0.003 -8.93502,-0.207 -9.1949,-0.4481 -9.41777,-8.96868 -0.0439,-1.68242 -0.008,-3.36694 -0.008,-5.05053 0,-203.71289 -0.007,-407.42572 0.0138,-611.13859 10e-4,-14.39333 -1.39213,-13.19223 12.85509,-13.19779 63.98215,-0.025 127.96442,-0.011 191.94657,-0.0111 1.01014,0 2.02053,-0.009 3.03068,0.001 9.73022,0.0976 9.79972,0.0985 9.80292,10.21381 0.021,68.35324 0.011,136.70648 0.012,205.0597 0,7.07103 -0.143,14.1464 0.072,21.21089 0.084,2.75351 -1.5008,6.45981 2.4865,7.85396 4.1425,1.44835 5.9775,-1.92753 8.0728,-4.51434 6.9874,-8.62651 14.0268,-17.2115 20.9498,-25.8895 41.9543,-52.59023 83.8794,-105.20399 125.8204,-157.80487 13.4202,-16.8312 26.9833,-33.55093 40.2012,-50.53926 3.2263,-4.14648 6.6416,-5.71505 11.897,-5.70323 72.7368,0.16361 145.4735,0.10177 218.2105,0.15196 1.8557,0.001 4.0067,-0.8255 5.9316,1.43589 z"
           id="path2" />
        <path
           class="cls-1"
           d="m 34.870036,746.62198 c 12.186965,-16.75534 23.59776,-32.51513 35.082558,-48.22084 45.076436,-61.64327 90.167926,-123.2755 135.271126,-184.89916 19.07469,-26.06154 38.24052,-52.05657 57.26476,-78.15498 6.65424,-9.12873 6.51968,-9.23109 0.0339,-18.13367 C 189.42182,316.87581 116.3194,216.53976 43.228694,116.19504 c -1.160863,-1.59376 -2.626742,-3.08257 -2.468499,-6.03991 2.120067,-1.27743 4.820196,-0.71139 7.317556,-0.71262 74.091349,-0.0366 148.182949,0.0694 222.273319,-0.1912 6.98541,-0.0246 10.84701,2.5146 14.72379,8.0201 37.57745,53.36594 75.44068,106.53087 113.2304,159.74748 0.77876,1.09687 1.64398,2.13322 2.4849,3.1851 5.54641,6.93749 8.7933,7.02157 13.94923,-0.13958 13.17059,-18.29263 26.21426,-36.67684 39.26398,-55.05616 25.90518,-36.48467 51.83453,-72.95251 77.59479,-109.53924 2.98726,-4.24257 6.11537,-6.19782 11.54819,-6.18298 70.04955,0.19142 140.09959,0.11769 210.14963,0.16353 2.22095,10e-4 4.69932,-0.75488 6.80076,1.37979 0.37841,3.33181 -2.30026,5.37322 -3.96373,7.6381 -38.43428,52.33321 -76.97686,104.58692 -115.49316,156.8599 -34.52458,46.85545 -69.05408,93.70729 -103.5493,140.58442 -4.99534,6.78836 -4.97758,6.89707 0.007,13.77355 48.96605,67.55503 97.97859,135.07644 146.92922,202.6426 26.05417,35.96235 52.01707,71.99093 78.00217,108.00335 1.30653,1.81087 3.64626,3.55107 1.95603,6.11836 -1.26694,1.92469 -3.64984,1.29659 -5.59144,1.30331 -13.80763,0.0477 -27.61576,0.0295 -41.42364,0.0295 -59.60979,6e-5 -119.22021,-0.11605 -178.82889,0.14848 -7.23381,0.0322 -11.50096,-2.39654 -15.60111,-8.31246 C 482.86803,682.37623 442.89115,625.34519 402.97261,568.274 c -6.31099,-9.02239 -10.44616,-9.05205 -16.65281,-0.11451 -35.12178,50.57446 -70.20816,101.17347 -105.30379,151.76599 -5.17776,7.46392 -10.47256,14.85155 -15.45605,22.44317 -2.45037,3.73266 -5.37411,5.48359 -9.95516,5.47656 -72.06921,-0.11007 -144.13843,-0.0964 -216.20777,-0.14386 -0.928616,-6.2e-4 -1.856986,-0.42609 -4.526774,-1.07941 z"
           id="path3" />
        <path
           class="cls-1"
           d="m 1483.9141,428.24252 c 0,-101.67219 -0.019,-203.34437 0.02,-305.01653 0.01,-15.56916 -1.6034,-13.77654 14.2516,-13.79066 62.6254,-0.0557 125.2508,-0.0231 187.8762,-0.0221 2.6935,5e-5 5.3986,0.17197 8.0782,-0.0173 4.9639,-0.35059 6.5426,2.14034 6.2656,6.69657 -0.1833,3.01846 -0.02,6.05772 -0.02,9.08767 7e-4,153.85491 -0.014,307.70983 0.023,461.56476 0,15.59705 -1.742,13.76251 14.2195,13.76997 100.3352,0.0472 200.6702,0.006 301.0054,0.0433 15.0735,0.006 13.7673,-1.72213 13.7816,13.25663 0.038,40.0629 0.013,80.12573 0.012,120.18863 -3e-4,2.35659 -0.088,4.71564 -0.01,7.06927 0.1572,4.63252 -1.968,6.86911 -6.6514,6.70058 -2.3535,-0.0847 -4.7132,0.008 -7.07,0.008 -172.7249,0.001 -345.4495,0.007 -518.1744,-0.009 -15.1674,-10e-4 -13.5909,1.20706 -13.5948,-13.50346 -0.028,-102.00882 -0.015,-204.01769 -0.015,-306.02651 z"
           id="path4" />
      </g>
      <g
         id="g45">
        <circle
           class="cls-3"
           cx="64.38678"
           cy="799.00305"
           r="26.992208"
           id="circle4" />
        <circle
           class="cls-3"
           cx="178.23563"
           cy="799.03882"
           r="26.992208"
           id="circle5" />
        <circle
           class="cls-3"
           cx="293.05789"
           cy="798.07397"
           r="26.992208"
           id="circle6" />
        <circle
           class="cls-3"
           cx="464.51257"
           cy="798.18127"
           r="26.992208"
           id="circle7" />
        <circle
           class="cls-3"
           cx="521.31366"
           cy="799.0567"
           r="26.992208"
           id="circle8" />
        <circle
           class="cls-3"
           cx="578.91949"
           cy="799.1283"
           r="26.992208"
           id="circle9" />
        <circle
           class="cls-3"
           cx="692.76831"
           cy="799.16406"
           r="26.992208"
           id="circle10" />
        <circle
           class="cls-3"
           cx="746.75275"
           cy="798.45801"
           r="26.992208"
           id="circle11" />
        <circle
           class="cls-3"
           cx="804.35858"
           cy="798.52954"
           r="26.992208"
           id="circle12" />
        <circle
           class="cls-3"
           cx="860.60162"
           cy="798.49377"
           r="26.992208"
           id="circle13" />
        <circle
           class="cls-3"
           cx="918.20746"
           cy="798.56531"
           r="26.992208"
           id="circle14" />
        <circle
           class="cls-3"
           cx="975.42383"
           cy="797.52887"
           r="26.992208"
           id="circle15" />
        <circle
           class="cls-3"
           cx="1089.2727"
           cy="797.5647"
           r="26.992208"
           id="circle16" />
        <circle
           class="cls-3"
           cx="1261.2854"
           cy="798.58319"
           r="26.992208"
           id="circle17" />
        <circle
           class="cls-3"
           cx="1317.5284"
           cy="798.54742"
           r="26.992208"
           id="circle18" />
        <circle
           class="cls-3"
           cx="1428.5878"
           cy="797.63623"
           r="26.992208"
           id="circle19" />
        <circle
           class="cls-3"
           cx="1600.0424"
           cy="797.74359"
           r="26.992208"
           id="circle20" />
        <circle
           class="cls-3"
           cx="1656.8435"
           cy="798.61902"
           r="26.992208"
           id="circle21" />
        <circle
           class="cls-3"
           cx="1770.6924"
           cy="798.65479"
           r="26.992208"
           id="circle22" />
        <circle
           class="cls-3"
           cx="1828.2982"
           cy="798.72632"
           r="26.992208"
           id="circle23" />
        <circle
           class="cls-3"
           cx="1885.5741"
           cy="798.72632"
           r="26.992208"
           id="circle24" />
        <circle
           class="cls-3"
           cx="64.38678"
           cy="799.00305"
           r="26.992208"
           id="circle25" />
        <circle
           class="cls-3"
           cx="178.23563"
           cy="799.03882"
           r="26.992208"
           id="circle26" />
        <circle
           class="cls-3"
           cx="293.05789"
           cy="798.07397"
           r="26.992208"
           id="circle27" />
        <circle
           class="cls-3"
           cx="464.51257"
           cy="798.18127"
           r="26.992208"
           id="circle28" />
        <circle
           class="cls-3"
           cx="521.31366"
           cy="799.0567"
           r="26.992208"
           id="circle29" />
        <circle
           class="cls-3"
           cx="578.91949"
           cy="799.1283"
           r="26.992208"
           id="circle30" />
        <circle
           class="cls-3"
           cx="692.76831"
           cy="799.16406"
           r="26.992208"
           id="circle31" />
        <circle
           class="cls-3"
           cx="746.75275"
           cy="798.45801"
           r="26.992208"
           id="circle32" />
        <circle
           class="cls-3"
           cx="804.35858"
           cy="798.52954"
           r="26.992208"
           id="circle33" />
        <circle
           class="cls-3"
           cx="860.60162"
           cy="798.49377"
           r="26.992208"
           id="circle34" />
        <circle
           class="cls-3"
           cx="918.20746"
           cy="798.56531"
           r="26.992208"
           id="circle35" />
        <circle
           class="cls-3"
           cx="975.42383"
           cy="797.52887"
           r="26.992208"
           id="circle36" />
        <circle
           class="cls-3"
           cx="1089.2727"
           cy="797.5647"
           r="26.992208"
           id="circle37" />
        <circle
           class="cls-3"
           cx="1261.2854"
           cy="798.58319"
           r="26.992208"
           id="circle38" />
        <circle
           class="cls-3"
           cx="1317.5284"
           cy="798.54742"
           r="26.992208"
           id="circle39" />
        <circle
           class="cls-3"
           cx="1428.5878"
           cy="797.63623"
           r="26.992208"
           id="circle40" />
        <circle
           class="cls-3"
           cx="1600.0424"
           cy="797.74359"
           r="26.992208"
           id="circle41" />
        <circle
           class="cls-3"
           cx="1656.8435"
           cy="798.61902"
           r="26.992208"
           id="circle42" />
        <circle
           class="cls-3"
           cx="1770.6924"
           cy="798.65479"
           r="26.992208"
           id="circle43" />
        <circle
           class="cls-3"
           cx="1828.2982"
           cy="798.72632"
           r="26.992208"
           id="circle44" />
        <circle
           class="cls-3"
           cx="1885.5741"
           cy="798.72632"
           r="26.992208"
           id="circle45" />
      </g>
      <g
         id="g74">
        <circle
           class="cls-2"
           cx="121.99261"
           cy="799.07458"
           r="26.992208"
           id="circle46" />
        <circle
           class="cls-2"
           cx="235.84146"
           cy="799.11035"
           r="26.992208"
           id="circle47" />
        <circle
           class="cls-2"
           cx="350.66373"
           cy="798.14551"
           r="26.992208"
           id="circle48" />
        <circle
           class="cls-2"
           cx="406.90674"
           cy="798.10974"
           r="26.992208"
           id="circle49" />
        <circle
           class="cls-2"
           cx="635.16248"
           cy="799.09247"
           r="26.992208"
           id="circle50" />
        <circle
           class="cls-2"
           cx="1033.0297"
           cy="797.60046"
           r="26.992208"
           id="circle51" />
        <circle
           class="cls-2"
           cx="1146.8785"
           cy="797.63623"
           r="26.992208"
           id="circle52" />
        <circle
           class="cls-2"
           cx="1203.6796"
           cy="798.51166"
           r="26.992208"
           id="circle53" />
        <circle
           class="cls-2"
           cx="1375.1343"
           cy="798.61902"
           r="26.992208"
           id="circle54" />
        <circle
           class="cls-2"
           cx="1486.1936"
           cy="797.70782"
           r="26.992208"
           id="circle55" />
        <circle
           class="cls-2"
           cx="1542.4365"
           cy="797.672"
           r="26.992208"
           id="circle56" />
        <circle
           class="cls-2"
           cx="1714.4493"
           cy="798.69055"
           r="26.992208"
           id="circle57" />
        <circle
           class="cls-2"
           cx="1942.594"
           cy="797.74359"
           r="26.992208"
           id="circle58" />
        <circle
           class="cls-2"
           cx="1999.8699"
           cy="797.74359"
           r="26.992208"
           id="circle59" />
        <g
           id="g73">
          <circle
             class="cls-2"
             cx="121.99261"
             cy="799.07458"
             r="26.992208"
             id="circle60" />
          <circle
             class="cls-2"
             cx="235.84146"
             cy="799.11035"
             r="26.992208"
             id="circle61" />
          <circle
             class="cls-2"
             cx="350.66373"
             cy="798.14551"
             r="26.992208"
             id="circle62" />
          <circle
             class="cls-2"
             cx="406.90674"
             cy="798.10974"
             r="26.992208"
             id="circle63" />
          <circle
             class="cls-2"
             cx="635.16248"
             cy="799.09247"
             r="26.992208"
             id="circle64" />
          <circle
             class="cls-2"
             cx="1033.0297"
             cy="797.60046"
             r="26.992208"
             id="circle65" />
          <circle
             class="cls-2"
             cx="1146.8785"
             cy="797.63623"
             r="26.992208"
             id="circle66" />
          <circle
             class="cls-2"
             cx="1203.6796"
             cy="798.51166"
             r="26.992208"
             id="circle67" />
          <circle
             class="cls-2"
             cx="1375.1343"
             cy="798.61902"
             r="26.992208"
             id="circle68" />
          <circle
             class="cls-2"
             cx="1486.1936"
             cy="797.70782"
             r="26.992208"
             id="circle69" />
          <circle
             class="cls-2"
             cx="1542.4365"
             cy="797.672"
             r="26.992208"
             id="circle70" />
          <circle
             class="cls-2"
             cx="1714.4493"
             cy="798.69055"
             r="26.992208"
             id="circle71" />
          <circle
             class="cls-2"
             cx="1942.594"
             cy="797.74359"
             r="26.992208"
             id="circle72" />
          <circle
             class="cls-2"
             cx="1999.8699"
             cy="797.74359"
             r="26.992208"
             id="circle73" />
        </g>
      </g>
      <path
         class="cls-1"
         d="M 0,906.76323 V 843.5906 c 3.3976438,0.0958 6.6408494,0.19175 10.038493,0.19175 H 2064.532 v 62.98088 z"
         id="path74" />
    </g>
  </g>
</svg>
