<svg xmlns="http://www.w3.org/2000/svg" viewBox="0 0 439.1 140.9"><path d="m411 77.2-7.6-23.6-7.6 23.6zm-42.6 28.1 24-72H415l24 72h-19.3l-4.7-14h-23.4l-4.7 14zm-22.9-40.2c4.4-3.4 5.6-12.2-2.7-16.8q-2.4-1.4-11.4-1.2v20.1c7.4.3 9.9 1.3 14.1-2.1m-31.3-31.8h23.2c10.5 0 18 1.7 23.2 6.9 11.8 14.6 6 33.2-8 38.8l15.8 26.3h-20.8l-16.2-28v28h-17.2zm-27.3 45.1c-4.7-3.5-6.2-2.8-14.9-2.8v17.7s10.6.5 14-1.8c4-2.5 5-10 1-13M285.5 61c3-2.2 3.5-8.3 1.8-10.8-3.8-5.2-9-3.8-15.3-3.8v17c4.4-.2 9.7.3 13.5-2.4m-30.6-27.7h26.6c8.8 0 11.5 1.1 15 2.9q9.1 4.4 9.1 16.2c0 3.5-1.2 7.4-2 9.2-1.4 3.2-7.7 8-10 8.5 2.6.4 6.8 1.4 9 4 3.9 5 4.1 5.4 4 12.5-.1 7.5-3 13.6-8.3 16.2a18 18 0 0 1-10 2.3L255 105zm-50.8 0h41.7v14h-24v14.8h24v14.2h-24v15.3h24v13.7h-41.7zm-63.3 72 30.2-58h-26.8l7.4-14h46L168 91l26.6.6-7 13.7zM54.2 0v32.5a16.2 16.2 0 0 0 0-32.5M26.8 5.2a48 48 0 0 0-8 5.2l25.9 26.2-.2 56.9 19.3 19.4v-14L54 89.2V42h24l-9.8-9.8-14.6.3zM11.2 18Q8 21.7 5.7 26l18.4 18.3v15L1.5 36.6q-1 4-1.5 8v4.5l34 34.4-.1-43zm53 24.8L64 90.4h10l.1-37.7zM74.7 53q4.7 5 9.8 9.8h14L88.9 53zm9.8 10.3v27.5h10V73.2zM0 63.3v14l63.7 63.6v-14zm104.8 15v12.4h-10v.5a16.2 16.2 0 0 0 31.7 4.4v-5l-12.3-12.2z"/></svg>