<svg xmlns="http://www.w3.org/2000/svg" viewBox="0 0 833.40002 225.89999"><path fill="#ffd600" d="m109.9 225.6-1.7-.6c-.8-.2-2.1-.8-3-1.2-.8-.5-7.4-6.9-16.5-16l-15.1-15v-39.3c0-21.6.1-39.3.2-39.3.2 0 9 8.7 19.6 19.4a856.4 856.4 0 0 0 19.7 19.4c.2 0 18.2-17.9 40-39.7a809 809 0 0 1 40.2-39.4l15 15c13.8 13.8 14.7 14.7 15.8 17 2.3 4.7 2.3 9.4 0 14.2-1 2.2-2.4 3.6-51.4 52.6-49.4 49.4-50.4 50.3-52.7 51.4a14 14 0 0 1-3 1.2c-.2 0-.6.1-.7.3-.2.4-6 .4-6.4 0M18 137.2C4.4 123.5 2.8 121.9 2 120a21.9 21.9 0 0 1-1.7-4.7c-.4-.2-.4-4.1 0-4.8l.8-2.4c.3-1 1-2.6 1.7-3.6.9-1.3 18.3-19 51.2-51.7C99.6 7 104 2.8 105.9 1.9l3.3-1.2c.7 0 1.3-.3 1.4-.4.2-.4 4.8-.4 5 0 .1.1.8.4 1.4.5.7.1 2.2.7 3.3 1.2 1.9.9 3.6 2.5 17.2 16l15.1 15.1v79L133 92.6A895.9 895.9 0 0 0 113.1 73c-.2 0-18.2 17.8-40 39.6a6839.6 6839.6 0 0 1-39.8 39.7z"/><path d="M414.7 165.8c-24.2-3.8-40.2-24.2-40.2-51.5a59 59 0 0 1 6-26.6 45.1 45.1 0 0 1 31.8-25c2.2-.5 4-.6 9.6-.6 7.4 0 10.6.5 15.8 2.3 18 6.4 28.8 24.2 29.8 49.5l.2 5H431c-20.2 0-37 0-37.3.2-.7.2-.7 1.8 0 5.3a35 35 0 0 0 11 20.4c2.5 2 7.6 4.5 10.7 5.3 3.4 1 12.2.8 15.7-.1 5-1.4 9.4-4.1 12.2-7.7 1.8-2.3 3.7-6 4.6-9l.7-2.2h17.2l-.2 1.5a56 56 0 0 1-4 11.7 39.8 39.8 0 0 1-30.8 21.4c-4 .7-12.2.7-16 0zm33.5-63.2c0-2.5-1-6.9-2.2-9.9a24.4 24.4 0 0 0-17.7-15.6c-3.1-.7-9.5-.7-12.7 0-8 1.7-14.3 6.8-18.3 14.8-2 4-4.1 11.3-3.7 12.5.2.3 4.8.4 27.4.3h27.3zM742.7 166a45.6 45.6 0 0 1-35.8-24.7 62.5 62.5 0 0 1-5-39.8c3-15.4 12-28 24.6-34.5 6.7-3.5 13.3-5 21.4-5a43.1 43.1 0 0 1 30.8 11.8 58.1 58.1 0 0 1 15 39.9l.1 5.2H757c-20.3 0-37 0-37.3.2-.7.3-.7 1.6 0 5.5 2.6 13.1 9.8 21.9 20.7 25.2 2.7.8 3.3.9 8.5.9 4.8 0 6-.1 8.2-.7a23 23 0 0 0 16.5-15.8l1-3.1H792l-.2 1.3a51 51 0 0 1-6 15.5 47 47 0 0 1-10.9 11.3 45 45 0 0 1-17.9 6.6 85 85 0 0 1-14.2.2zm31.8-62.6c.1-1.7-.8-6.2-2-9.7a25 25 0 0 0-17.7-16.4 36 36 0 0 0-13.2-.2c-10.7 2.4-18.2 10.6-21.3 23.6-.4 1.8-.7 3.4-.6 3.7.2.4 3.8.4 27.4.3h27.3zm-107.3 61a20 20 0 0 1-12-6.2c-3-2.8-4.7-6-5.8-10.5-.8-2.7-.8-3-1-35.5l-.1-32.8-6.8-.1h-6.8V64.1l6.8-.1h6.8l.1-15.1.2-15 8.9-.1 8.9-.1v14.8c0 12 0 15 .4 15.2.3.2 3.4.4 9.4.5h8.9V79h-9c-6 .1-9 .2-9.3.5-.4.3-.4 5-.4 29.2.1 26 .2 29 .7 30.9 1.1 4.2 3.3 6.8 6.4 8 1.6.4 4.7.5 10.1.2h1.2v7.5c.1 7 0 7.7-.4 8-1.7.8-13.7 1.5-17.2 1zm157-.7-8.9-.2v-67l-.1-66.9h9l9.2-.1v134.4l-9.1-.2zm-541.4-.4v-13.5l26.2-34.4c15.2-20 26-34.5 26-34.8-.2-.3-4.3-.4-24.6-.5H286V64.2h37.2l37.2-.1v11l-26.8 35.5a1951 1951 0 0 0-27 36c0 .3 4.7.4 28 .4l28 .1v16.4l-39.8.1c-33.6 0-39.8 0-40-.3m205.8 0c0-.2-.1-22.6 0-49.7V64.3h17.6v4.8c.2 4.3.2 4.7.8 4.7.3 0 .9-.4 1.3-.9 1.3-1.4 5.3-4.5 7.6-5.8a41 41 0 0 1 28.6-4.4c12.5 2.4 20.2 8.8 23.7 19.6 1.8 5.4 1.8 5.8 1.8 45.2v36.2h-8.8l-9-.2v-36c-.2-28.7-.3-36.2-.7-37.2a18 18 0 0 0-13-12.1c-3.6-1-10.2-1-13.7 0a24 24 0 0 0-17.6 17.5l-.7 2.6V131l-.2 32.7h-8.8a31 31 0 0 1-9-.4zm107.7-49.4V64.2h8.9l8.8.1v99.2l-8.8.1-9 .1zm0-75.5v-8.8h8.9l8.8.2V47h-8.8l-9 .1z"/></svg>
