<?xml version="1.0" encoding="UTF-8" standalone="no"?>
<svg
   version="1.1"
   id="svg2"
   xmlns="http://www.w3.org/2000/svg"
   xmlns:svg="http://www.w3.org/2000/svg">
  <defs
     id="defs2" />
  <path
     fill="#ffd600"
     d="m 109.9,225.6 -1.7,-0.6 c -0.8,-0.2 -2.1,-0.8 -3,-1.2 -0.8,-0.5 -7.4,-6.9 -16.5,-16 l -15.1,-15 v -39.3 c 0,-21.6 0.1,-39.3 0.2,-39.3 0.2,0 9,8.7 19.6,19.4 a 856.4,856.4 0 0 0 19.7,19.4 c 0.2,0 18.2,-17.9 40,-39.7 a 809,809 0 0 1 40.2,-39.4 l 15,15 c 13.8,13.8 14.7,14.7 15.8,17 2.3,4.7 2.3,9.4 0,14.2 -1,2.2 -2.4,3.6 -51.4,52.6 -49.4,49.4 -50.4,50.3 -52.7,51.4 a 14,14 0 0 1 -3,1.2 c -0.2,0 -0.6,0.1 -0.7,0.3 -0.2,0.4 -6,0.4 -6.4,0 z M 18,137.2 C 4.4,123.5 2.8,121.9 2,120 a 21.9,21.9 0 0 1 -1.7,-4.7 c -0.4,-0.2 -0.4,-4.1 0,-4.8 l 0.8,-2.4 c 0.3,-1 1,-2.6 1.7,-3.6 C 3.7,103.2 21.1,85.5 54,52.8 99.6,7 104,2.8 105.9,1.9 l 3.3,-1.2 c 0.7,0 1.3,-0.3 1.4,-0.4 0.2,-0.4 4.8,-0.4 5,0 0.1,0.1 0.8,0.4 1.4,0.5 0.7,0.1 2.2,0.7 3.3,1.2 1.9,0.9 3.6,2.5 17.2,16 l 15.1,15.1 v 79 L 133,92.6 A 895.9,895.9 0 0 0 113.1,73 c -0.2,0 -18.2,17.8 -40,39.6 a 6839.6,6839.6 0 0 1 -39.8,39.7 z"
     id="path1" />
  <path
     d="M 414.7,165.8 C 390.5,162 374.5,141.6 374.5,114.3 a 59,59 0 0 1 6,-26.6 45.1,45.1 0 0 1 31.8,-25 c 2.2,-0.5 4,-0.6 9.6,-0.6 7.4,0 10.6,0.5 15.8,2.3 18,6.4 28.8,24.2 29.8,49.5 l 0.2,5 H 431 c -20.2,0 -37,0 -37.3,0.2 -0.7,0.2 -0.7,1.8 0,5.3 a 35,35 0 0 0 11,20.4 c 2.5,2 7.6,4.5 10.7,5.3 3.4,1 12.2,0.8 15.7,-0.1 5,-1.4 9.4,-4.1 12.2,-7.7 1.8,-2.3 3.7,-6 4.6,-9 l 0.7,-2.2 h 17.2 l -0.2,1.5 a 56,56 0 0 1 -4,11.7 39.8,39.8 0 0 1 -30.8,21.4 c -4,0.7 -12.2,0.7 -16,0 z m 33.5,-63.2 c 0,-2.5 -1,-6.9 -2.2,-9.9 A 24.4,24.4 0 0 0 428.3,77.1 c -3.1,-0.7 -9.5,-0.7 -12.7,0 -8,1.7 -14.3,6.8 -18.3,14.8 -2,4 -4.1,11.3 -3.7,12.5 0.2,0.3 4.8,0.4 27.4,0.3 h 27.3 z M 742.7,166 a 45.6,45.6 0 0 1 -35.8,-24.7 62.5,62.5 0 0 1 -5,-39.8 c 3,-15.4 12,-28 24.6,-34.5 6.7,-3.5 13.3,-5 21.4,-5 a 43.1,43.1 0 0 1 30.8,11.8 58.1,58.1 0 0 1 15,39.9 l 0.1,5.2 H 757 c -20.3,0 -37,0 -37.3,0.2 -0.7,0.3 -0.7,1.6 0,5.5 2.6,13.1 9.8,21.9 20.7,25.2 2.7,0.8 3.3,0.9 8.5,0.9 4.8,0 6,-0.1 8.2,-0.7 a 23,23 0 0 0 16.5,-15.8 l 1,-3.1 H 792 l -0.2,1.3 a 51,51 0 0 1 -6,15.5 47,47 0 0 1 -10.9,11.3 45,45 0 0 1 -17.9,6.6 85,85 0 0 1 -14.2,0.2 z m 31.8,-62.6 c 0.1,-1.7 -0.8,-6.2 -2,-9.7 A 25,25 0 0 0 754.8,77.3 36,36 0 0 0 741.6,77.1 c -10.7,2.4 -18.2,10.6 -21.3,23.6 -0.4,1.8 -0.7,3.4 -0.6,3.7 0.2,0.4 3.8,0.4 27.4,0.3 h 27.3 z m -107.3,61 a 20,20 0 0 1 -12,-6.2 c -3,-2.8 -4.7,-6 -5.8,-10.5 -0.8,-2.7 -0.8,-3 -1,-35.5 l -0.1,-32.8 -6.8,-0.1 h -6.8 V 64.1 l 6.8,-0.1 h 6.8 l 0.1,-15.1 0.2,-15 8.9,-0.1 8.9,-0.1 v 14.8 c 0,12 0,15 0.4,15.2 0.3,0.2 3.4,0.4 9.4,0.5 h 8.9 V 79 h -9 c -6,0.1 -9,0.2 -9.3,0.5 -0.4,0.3 -0.4,5 -0.4,29.2 0.1,26 0.2,29 0.7,30.9 1.1,4.2 3.3,6.8 6.4,8 1.6,0.4 4.7,0.5 10.1,0.2 h 1.2 v 7.5 c 0.1,7 0,7.7 -0.4,8 -1.7,0.8 -13.7,1.5 -17.2,1 z m 157,-0.7 -8.9,-0.2 v -67 l -0.1,-66.9 h 9 l 9.2,-0.1 v 134.4 l -9.1,-0.2 z M 282.8,163.3 V 149.8 L 309,115.4 c 15.2,-20 26,-34.5 26,-34.8 -0.2,-0.3 -4.3,-0.4 -24.6,-0.5 H 286 V 64.2 h 37.2 l 37.2,-0.1 v 11 l -26.8,35.5 a 1951,1951 0 0 0 -27,36 c 0,0.3 4.7,0.4 28,0.4 l 28,0.1 v 16.4 l -39.8,0.1 c -33.6,0 -39.8,0 -40,-0.3 z m 205.8,0 c 0,-0.2 -0.1,-22.6 0,-49.7 V 64.3 h 17.6 v 4.8 c 0.2,4.3 0.2,4.7 0.8,4.7 0.3,0 0.9,-0.4 1.3,-0.9 1.3,-1.4 5.3,-4.5 7.6,-5.8 a 41,41 0 0 1 28.6,-4.4 c 12.5,2.4 20.2,8.8 23.7,19.6 1.8,5.4 1.8,5.8 1.8,45.2 v 36.2 h -8.8 l -9,-0.2 v -36 C 552,98.8 551.9,91.3 551.5,90.3 a 18,18 0 0 0 -13,-12.1 c -3.6,-1 -10.2,-1 -13.7,0 a 24,24 0 0 0 -17.6,17.5 l -0.7,2.6 V 131 l -0.2,32.7 h -8.8 a 31,31 0 0 1 -9,-0.4 z M 596.3,113.9 V 64.2 h 8.9 l 8.8,0.1 v 99.2 l -8.8,0.1 -9,0.1 z m 0,-75.5 v -8.8 h 8.9 l 8.8,0.2 V 47 h -8.8 l -9,0.1 z"
     id="path2" />
</svg>
