<svg xmlns="http://www.w3.org/2000/svg" xml:space="preserve" viewBox="0 0 1773 543"><path fill="#15569c" d="m215 542-47-6C77 518 18 469 3 401c-3-13-4-39-2-55 12-79 73-160 171-224l16-11h394l-11 9-293 216-128 95h-13l-12-1 174-151 174-151H296l-15 9c-62 41-123 96-163 146-26 32-44 67-51 97-2 10-2 35 0 44q9 33 37 58 44 37 113 44a543 543 0 0 0 204-26 1063 1063 0 0 0 121-44l-34 20a603 603 0 0 1-293 66m-14-126 391-288 22-16h25L465 263 291 414h88l89 1 16-11c49-32 100-75 135-114q62-66 76-122c2-10 2-13 2-28 0-14 0-18-2-24q-10-39-53-67-68-46-190-30a874 874 0 0 0-219 60q83-47 175-67c128-27 246-7 308 53q18 17 29 35 32 59 8 132c-22 68-79 135-161 189l-17 11H181Z"/><path d="M1288 401q-32-5-45-32c-6-13-8-22-8-37q1-28 19-44 11-11 26-15c7-3 9-3 20-3 10 0 13 0 20 3 29 9 46 35 44 68-2 24-15 45-34 54-12 6-29 8-42 6m26-10q18-9 26-34c2-10 3-26 1-37q-7-36-36-44-16-3-31 11-9 10-14 26c-3 10-3 36-1 46q9 28 29 35l11 1c8 0 10-1 15-4m200-43-48-52-1 45v45l2 3q2 3 9 3 8 2 6 4v3h-40v-3q0-3 3-3l11-4c2-2 2-4 1-52l-1-52c-2-3-10-8-12-8q-2 1-2-3v-3h30l39 43 43 48 5 6v-42c0-49 1-46-10-48q-8 0-6-4v-3h40v3q1 4-4 4-9 2-11 6l-1 59v57h-3c-2 0-9-8-50-52m-700 51 84-119 1-3h-21l-22 1-3 2-15 16q-10 13-13 14l-3-1c-1 0 0-4 9-27l4-11h93l-2 3-83 119h52l4-3c5-3 18-18 24-27q4-7 6-6l2 2-11 35-2 5zm208-3q-1-3 5-3c9-1 9 3 9-58 0-52 0-53-2-55l-7-2q-6 0-5-4v-3h52v3q2 4-6 3l-8 3-3 1v49h64v-23c0-23 0-24-2-26q-2-3-8-3-7 0-6-4v-3h51v3q1 4-5 4c-9 0-9-3-9 58 0 60 0 56 8 57q6 1 5 3v3h-50v-3q0-3 3-3 8 0 12-4l1-26v-25h-64v26c0 29 0 28 10 29q6 1 5 3v3h-50zm642 0q0-3 2-3 9 0 11-4c2-4 2-104 0-107q-2-5-10-5-5 1-4-3v-3h34l48 1 14 1 4 14 5 15-3 1q-3 2-9-7-5-8-10-12c-7-6-13-7-31-7h-16v55l11-1q16-1 19-6c3-2 7-9 8-13q0-4 3-4h2v55h-3q-2 1-3-6c-3-15-9-19-28-19h-9v26c0 24 0 25 2 27s4 2 20 2c15 0 18 0 22-2 5-3 15-13 20-21q5-8 7-6l3 1-4 17-4 17h-101z"/></svg>