<svg xmlns="http://www.w3.org/2000/svg" viewBox="0 -36.5 233.5 86.5"><path d="M27.69 42.6h-1.602v-4.743l-5.616-8.838h1.784l4.62 7.234L31.5 29.02h1.843l-5.653 8.816M41.23 37.59c0-2.286-1.725-3.85-3.77-3.85-2.068 0-3.81 1.562-3.81 3.85 0 2.314 1.742 3.897 3.81 3.897 2.045-.004 3.77-1.584 3.77-3.896m1.52 0c0 3.065-2.352 5.252-5.29 5.252-2.98 0-5.31-2.188-5.31-5.25s2.33-5.21 5.31-5.21c2.938 0 5.29 2.148 5.29 5.21M53.978 42.58h-1.56v-1.622c-.81 1.196-2.108 1.883-3.77 1.883-2.413 0-4.015-1.723-4.015-4.256v-5.98h1.562v5.7c0 1.862 1.093 3.1 2.756 3.1 2.09 0 3.467-1.4 3.467-3.994v-4.803h1.56v9.972zM63.2 32.583l-.12 1.48c-.183-.02-.407-.02-.588-.02-2.657 0-4.015 2.008-4.015 4.703V42.6h-1.56v-9.993h1.56v2.453c.813-1.48 2.17-2.554 4.015-2.554.242-.003.426-.003.71.077M82.232 42.6h-1.377l-8.877-10.784V42.6h-1.602V29.02h1.378l8.877 10.904V29.02h1.602M86.023 36.76h6.953c-.283-1.965-1.683-3.04-3.345-3.04-1.62 0-3.303 1.075-3.607 3.04m8.514 1.156h-8.574c.142 2.25 1.846 3.59 3.568 3.59 1.42 0 2.696-.548 3.405-2.146l1.38.32c-.793 2.09-2.535 3.186-4.784 3.186-2.655 0-5.066-2.05-5.066-5.23 0-3.203 2.41-5.272 5.168-5.272 2.697 0 4.806 2.008 4.907 4.988v.565h-.003zM103.272 42.074c-.812.563-1.5.788-2.31.788-1.99 0-3.305-1.175-3.305-3.386v-5.573h-2.17v-1.297h2.17v-3.183h1.56v3.183h3.567v1.297h-3.567v5.475c0 1.296.73 2.028 1.846 2.028.566 0 1.194-.244 1.7-.61l.51 1.278zM115.843 42.64H114.4l-2.615-7.582-2.634 7.582h-1.438l-3.365-10.036h1.56l2.574 7.745 2.678-7.746h1.238l2.672 7.745 2.577-7.746h1.56M129.015 37.59c0-2.286-1.722-3.85-3.77-3.85-2.07 0-3.812 1.562-3.812 3.85 0 2.314 1.745 3.897 3.812 3.897 2.048-.004 3.77-1.584 3.77-3.896m1.52 0c0 3.065-2.352 5.252-5.29 5.252-2.98 0-5.31-2.188-5.31-5.25s2.33-5.21 5.31-5.21c2.94 0 5.29 2.148 5.29 5.21M138.946 32.583l-.12 1.48c-.184-.02-.405-.02-.588-.02-2.655 0-4.015 2.008-4.015 4.703V42.6h-1.56v-9.993h1.56v2.453c.81-1.48 2.17-2.554 4.015-2.554.242-.003.425-.003.708.077M148.21 42.6l-5.39-4.418h-.67V42.6h-1.543V28.005h1.543v8.656h.748l4.804-4.056h2.008l-5.677 4.848 6.326 5.148M151.9 32.604h1.56V42.6h-1.56v-9.996zm1.843-3.02c0 .59-.466 1.033-1.074 1.033-.608 0-1.056-.443-1.056-1.032 0-.548.447-1.033 1.055-1.033.607 0 1.073.485 1.073 1.033M165.4 36.617v5.98h-1.542V36.9c0-1.866-1.116-3.12-2.78-3.12-2.084 0-3.463 1.417-3.463 4.012v4.805h-1.54v-9.993h1.54v1.66c.81-1.214 2.088-1.904 3.77-1.904 2.41 0 4.014 1.726 4.014 4.257M175.98 37.166c0-2.128-1.664-3.467-3.528-3.467-2.026 0-3.647 1.34-3.647 3.466 0 2.13 1.62 3.508 3.647 3.508 1.864 0 3.527-1.38 3.527-3.508m1.52 4.622c-.02 2.92-2.008 4.663-5.027 4.663-2.476 0-4.116-.973-4.885-2.596l1.297-.89c.708 1.338 1.722 2.086 3.588 2.086 2.107 0 3.507-1.34 3.507-3.466V40.37c-.812 1.055-2.087 1.64-3.75 1.64-2.634 0-4.928-2.007-4.928-4.845 0-2.816 2.294-4.806 4.928-4.806 1.663 0 2.938.59 3.75 1.62v-1.377h1.5l.02 9.185zM191.404 31.004l-2.96 6.708h5.9l-2.94-6.708zm5.09 11.596l-1.52-3.447h-7.157l-1.52 3.447h-1.723l6.08-13.58h1.48l6.082 13.58h-1.722zM199.796 28.005h1.542V42.6h-1.542zM204.093 28.005h1.54V42.6h-1.54zM212.14 46.043h-1.722l1.64-3.586-4.478-9.853h1.74l3.57 7.988 3.648-7.988h1.726M51.792 4.702H33.6L43.788-9.16l10.988-14.952c1.287-1.752.912-4.22-.842-5.508-.653-.48-1.408-.72-2.162-.752H26c-2.03 0-3.673 1.645-3.673 3.673 0 2.03 1.646 3.677 3.673 3.677h18.193L34.005-9.16 23.017 5.79c-1.288 1.75-.912 4.22.84 5.51.655.478 1.41.716 2.162.75h25.77c2.03 0 3.677-1.645 3.677-3.673 0-2.03-1.646-3.675-3.675-3.675M214.585 4.704H198.44v-31.69c0-2.177-1.765-3.94-3.94-3.94-2.177 0-3.94 1.764-3.94 3.94v35.1c0 .045.012.086.016.13-.004.046-.016.09-.016.133 0 2.028 1.647 3.673 3.676 3.673h20.35c2.032 0 3.677-1.645 3.677-3.673 0-2.03-1.647-3.673-3.678-3.673M177.542 4.702h-16.406V-5.974h10.908c2.03 0 3.676-1.646 3.676-3.676 0-2.03-1.645-3.673-3.676-3.673h-10.908v-9.698h16.406c2.03 0 3.674-1.647 3.674-3.677 0-2.03-1.645-3.673-3.674-3.673h-20.61c-2.03 0-3.674 1.645-3.674 3.673V8.377c0 2.028 1.645 3.673 3.673 3.673h20.612c2.03 0 3.674-1.645 3.674-3.673 0-2.03-1.645-3.675-3.674-3.675M131.154-6.424l-5.147 6.122 9.673 11.505c.78.927 1.896 1.407 3.018 1.407.894 0 1.796-.303 2.535-.924 1.666-1.4 1.88-3.887.48-5.55l-10.56-12.56zM141.71-24.476c1.403-1.666 1.19-4.15-.478-5.55-.74-.62-1.64-.924-2.535-.924-1.124 0-2.238.48-3.018 1.406l-9.674 11.505 5.147 6.124 10.558-12.56zM111.716-29.545c-.78-.926-1.896-1.406-3.02-1.406-.894 0-1.794.3-2.532.923-1.666 1.4-1.88 3.886-.48 5.55L118.55-9.17 105.685 6.134c-1.4 1.665-1.186 4.15.48 5.548.738.623 1.637.928 2.532.928 1.124 0 2.24-.48 3.02-1.407l17.12-20.376-17.12-20.372zM96.587-30.28c-1.808-1.214-4.255-.732-5.47 1.07L83.9-18.47l-3.942 5.864-3.94-5.863-7.22-10.74c-1.214-1.805-3.662-2.284-5.468-1.07-1.806 1.216-2.285 3.66-1.07 5.47L76.016-4.345v13.02c0 2.177 1.766 3.943 3.94 3.943 2.176 0 3.94-1.765 3.94-3.943v-13.02l13.758-20.468c1.216-1.807.737-4.254-1.068-5.47"/></svg>