<?xml version="1.0" encoding="utf-8"?>
<!-- Generator: Adobe Illustrator 16.0.0, SVG Export Plug-In . SVG Version: 6.00 Build 0)  -->
<!DOCTYPE svg PUBLIC "-//W3C//DTD SVG 1.1//EN" "http://www.w3.org/Graphics/SVG/1.1/DTD/svg11.dtd">
<svg version="1.1" id="Calque_1" xmlns="http://www.w3.org/2000/svg" xmlns:xlink="http://www.w3.org/1999/xlink" x="0px" y="0px"
	 width="233.5px" height="86.5px" viewBox="0 -36.5 233.5 86.5" enable-background="new 0 -36.5 233.5 86.5" xml:space="preserve">
<polygon points="27.69,42.6 26.088,42.6 26.088,37.857 20.472,29.019 22.256,29.019 26.877,36.254 31.499,29.019 33.343,29.019 
	27.69,37.836 "/>
<path d="M41.229,37.591c0-2.287-1.724-3.85-3.77-3.85c-2.067,0-3.81,1.561-3.81,3.85c0,2.313,1.743,3.896,3.81,3.896
	C39.505,41.483,41.229,39.903,41.229,37.591 M42.75,37.591c0,3.064-2.352,5.251-5.291,5.251c-2.979,0-5.31-2.188-5.31-5.251
	c0-3.061,2.331-5.209,5.31-5.209C40.398,32.382,42.75,34.53,42.75,37.591"/>
<path d="M53.978,42.579h-1.561v-1.621c-0.81,1.196-2.107,1.883-3.77,1.883c-2.412,0-4.014-1.724-4.014-4.257v-5.979h1.562v5.698
	c0,1.863,1.093,3.101,2.756,3.101c2.088,0,3.466-1.399,3.466-3.994v-4.803h1.561V42.579z"/>
<path d="M63.201,32.583l-0.122,1.48c-0.182-0.019-0.406-0.019-0.587-0.019c-2.657,0-4.015,2.007-4.015,4.702V42.6h-1.56v-9.993h1.56
	v2.453c0.813-1.481,2.169-2.554,4.015-2.554C62.734,32.503,62.918,32.503,63.201,32.583"/>
<polygon points="82.232,42.6 80.855,42.6 71.978,31.816 71.978,42.6 70.376,42.6 70.376,29.019 71.754,29.019 80.631,39.924 
	80.631,29.019 82.232,29.019 "/>
<path d="M86.023,36.761h6.953c-0.283-1.966-1.683-3.04-3.345-3.04C88.01,33.721,86.327,34.795,86.023,36.761 M94.537,37.916h-8.574
	c0.142,2.25,1.846,3.591,3.568,3.591c1.418,0,2.695-0.549,3.404-2.147l1.379,0.321c-0.792,2.089-2.534,3.185-4.783,3.185
	c-2.656,0-5.067-2.05-5.067-5.23c0-3.203,2.411-5.272,5.168-5.272c2.697,0,4.806,2.008,4.907,4.988v0.565H94.537z"/>
<path d="M103.272,42.074c-0.812,0.563-1.499,0.788-2.311,0.788c-1.988,0-3.304-1.175-3.304-3.386v-5.573h-2.17v-1.297h2.17v-3.183
	h1.56v3.183h3.567v1.297h-3.567v5.475c0,1.296,0.729,2.028,1.846,2.028c0.566,0,1.194-0.244,1.701-0.61L103.272,42.074z"/>
<polygon points="115.843,42.64 114.401,42.64 111.785,35.058 109.151,42.64 107.712,42.64 104.347,32.604 105.906,32.604 
	108.481,40.349 111.158,32.604 112.396,32.604 115.068,40.349 117.645,32.604 119.206,32.604 "/>
<path d="M129.015,37.591c0-2.287-1.722-3.85-3.77-3.85c-2.07,0-3.812,1.561-3.812,3.85c0,2.313,1.745,3.896,3.812,3.896
	C127.293,41.483,129.015,39.903,129.015,37.591 M130.534,37.591c0,3.064-2.351,5.251-5.289,5.251c-2.98,0-5.31-2.188-5.31-5.251
	c0-3.061,2.331-5.209,5.31-5.209C128.184,32.382,130.534,34.53,130.534,37.591"/>
<path d="M138.946,32.583l-0.121,1.48c-0.183-0.019-0.404-0.019-0.587-0.019c-2.655,0-4.015,2.007-4.015,4.702V42.6h-1.561v-9.993
	h1.561v2.453c0.811-1.481,2.171-2.554,4.015-2.554C138.48,32.503,138.663,32.503,138.946,32.583"/>
<polygon points="148.211,42.6 142.821,38.182 142.15,38.182 142.15,42.6 140.607,42.6 140.607,28.005 142.15,28.005 142.15,36.661 
	142.898,36.661 147.702,32.604 149.71,32.604 144.033,37.452 150.359,42.6 "/>
<path d="M151.899,32.604h1.561V42.6h-1.561V32.604z M153.743,29.585c0,0.589-0.466,1.032-1.074,1.032
	c-0.607,0-1.055-0.443-1.055-1.032c0-0.548,0.447-1.033,1.055-1.033C153.277,28.552,153.743,29.037,153.743,29.585"/>
<path d="M165.399,36.617v5.979h-1.541v-5.695c0-1.867-1.116-3.122-2.779-3.122c-2.085,0-3.464,1.418-3.464,4.013v4.805h-1.541
	v-9.993h1.541v1.661c0.81-1.215,2.088-1.905,3.77-1.905C163.796,32.36,165.399,34.086,165.399,36.617"/>
<path d="M175.979,37.166c0-2.128-1.663-3.467-3.527-3.467c-2.026,0-3.647,1.34-3.647,3.467c0,2.129,1.619,3.508,3.647,3.508
	C174.316,40.674,175.979,39.295,175.979,37.166 M177.5,41.788c-0.021,2.92-2.008,4.663-5.027,4.663
	c-2.476,0-4.116-0.974-4.885-2.597l1.297-0.891c0.708,1.339,1.722,2.087,3.588,2.087c2.107,0,3.507-1.339,3.507-3.466V40.37
	c-0.812,1.055-2.087,1.639-3.75,1.639c-2.634,0-4.928-2.006-4.928-4.844c0-2.816,2.294-4.806,4.928-4.806
	c1.663,0,2.938,0.59,3.75,1.621v-1.377h1.499L177.5,41.788z"/>
<path d="M191.404,31.004l-2.96,6.708h5.901L191.404,31.004z M196.494,42.6l-1.521-3.447h-7.156l-1.521,3.447h-1.722l6.081-13.581
	h1.479l6.082,13.581H196.494z"/>
<rect x="199.796" y="28.005" width="1.542" height="14.595"/>
<rect x="204.093" y="28.005" width="1.541" height="14.595"/>
<polygon points="212.14,46.043 210.418,46.043 212.059,42.457 207.58,32.604 209.321,32.604 212.889,40.592 216.538,32.604 
	218.264,32.604 "/>
<path d="M51.792,4.702H33.6L43.788-9.161l10.988-14.951c1.287-1.752,0.912-4.22-0.842-5.508c-0.653-0.48-1.408-0.72-2.162-0.752H26
	c-2.029,0-3.673,1.645-3.673,3.673c0,2.03,1.646,3.676,3.673,3.676h18.193L34.005-9.161L23.017,5.789
	c-1.288,1.752-0.912,4.221,0.84,5.51c0.655,0.479,1.409,0.717,2.162,0.751h25.772c2.029,0,3.676-1.645,3.676-3.673
	C55.468,6.347,53.821,4.702,51.792,4.702"/>
<path d="M214.585,4.704h-16.146v-31.691c0-2.176-1.764-3.94-3.938-3.94c-2.178,0-3.941,1.765-3.941,3.94v35.1
	c0,0.046,0.012,0.087,0.016,0.131c-0.004,0.046-0.016,0.089-0.016,0.133c0,2.028,1.647,3.673,3.676,3.673h20.351
	c2.031,0,3.676-1.645,3.676-3.673C218.264,6.347,216.616,4.704,214.585,4.704"/>
<path d="M177.542,4.702h-16.406V-5.974h10.908c2.031,0,3.676-1.646,3.676-3.676c0-2.029-1.645-3.673-3.676-3.673h-10.908v-9.698
	h16.406c2.029,0,3.674-1.646,3.674-3.676c0-2.029-1.645-3.673-3.674-3.673h-20.611c-2.028,0-3.673,1.645-3.673,3.673V8.377
	c0,2.028,1.645,3.673,3.673,3.673h20.611c2.029,0,3.674-1.645,3.674-3.673C181.216,6.347,179.571,4.702,177.542,4.702"/>
<path d="M131.154-6.424l-5.147,6.122l9.673,11.505c0.779,0.927,1.896,1.407,3.018,1.407c0.894,0,1.796-0.303,2.535-0.924
	c1.666-1.4,1.881-3.887,0.479-5.55L131.154-6.424z"/>
<path d="M141.711-24.476c1.402-1.666,1.188-4.15-0.479-5.55c-0.739-0.62-1.639-0.924-2.535-0.924c-1.124,0-2.238,0.479-3.018,1.406
	l-9.673,11.505l5.147,6.123L141.711-24.476z"/>
<path d="M111.716-29.545c-0.779-0.926-1.896-1.406-3.02-1.406c-0.894,0-1.794,0.302-2.532,0.924c-1.666,1.401-1.88,3.886-0.48,5.551
	l12.867,15.304L105.684,6.134c-1.401,1.665-1.186,4.151,0.48,5.548c0.738,0.623,1.637,0.928,2.532,0.928
	c1.124,0,2.24-0.479,3.02-1.407l17.12-20.376L111.716-29.545z"/>
<path d="M96.587-30.28c-1.808-1.214-4.255-0.732-5.469,1.071l-7.219,10.74l-3.941,5.863l-3.94-5.863l-7.221-10.74
	c-1.213-1.806-3.661-2.285-5.467-1.071c-1.806,1.216-2.285,3.661-1.071,5.469L76.017-4.344V8.677c0,2.176,1.766,3.942,3.94,3.942
	c2.176,0,3.94-1.764,3.94-3.942V-4.344l13.758-20.467C98.871-26.617,98.392-29.064,96.587-30.28"/>
</svg>
