<svg xmlns="http://www.w3.org/2000/svg" viewBox="0 -36.5 233.5 86.5"><path d="M27.7 42.6H26v-4.7L20.5 29h1.8l4.6 7.3 4.6-7.3h1.8l-5.6 8.8m13.5-.2a3.8 3.8 0 1 0-7.6 0c0 2.3 1.8 3.9 3.9 3.9s3.7-1.6 3.7-4m1.6 0c0 3.2-2.4 5.3-5.3 5.3-3 0-5.3-2.1-5.3-5.2s2.3-5.2 5.3-5.2c2.9 0 5.3 2.1 5.3 5.2m11.2 5h-1.6V41a4 4 0 0 1-3.8 1.8c-2.4 0-4-1.7-4-4.2v-6h1.6v5.7q0 3 2.8 3.1 3.2 0 3.4-4v-4.8H54zm9.2-10-.1 1.5h-.6c-2.7 0-4 2-4 4.6v3.9h-1.6v-10h1.6v2.5q1.2-2.4 4-2.6zm19 10.1H81l-9-10.8v10.8h-1.5V29h1.4l8.8 11V29h1.6m3.8 7.8h7q-.7-3-3.4-3c-1.6 0-3.3 1-3.6 3m8.5 1.1H86c.1 2.3 1.8 3.6 3.5 3.6q2.3.1 3.4-2.1l1.4.3q-1.3 3.1-4.8 3.2a5 5 0 0 1-5-5.3c0-3.2 2.4-5.2 5.1-5.2s4.8 2 5 5zm8.8 4.2q-1.2.8-2.3.8-3.2 0-3.3-3.4v-5.6h-2.2v-1.3h2.2v-3.2h1.5v3.2h3.6V34h-3.6v5.5q0 2 1.9 2a3 3 0 0 0 1.7-.6zm12.5.5h-1.4l-2.6-7.5-2.6 7.5h-1.5l-3.4-10h1.6l2.6 7.7 2.7-7.7h1.2l2.7 7.7 2.5-7.7h1.6m9.8 5c0-2.3-1.7-3.9-3.8-3.9s-3.8 1.6-3.8 3.9 1.8 3.9 3.8 3.9 3.8-1.6 3.8-4m1.5 0c0 3.2-2.3 5.3-5.3 5.3s-5.3-2.1-5.3-5.2 2.4-5.2 5.3-5.2c3 0 5.3 2.1 5.3 5.2m8.4-5V34h-.7c-2.6 0-4 2-4 4.6v3.9h-1.5v-10h1.5V35a5 5 0 0 1 4-2.6zm9.3 10.1-5.4-4.4h-.6v4.4h-1.6V28h1.6v8.7h.7l4.8-4.1h2l-5.7 4.9 6.4 5.1m1.5-10h1.6v10H152zm1.8-3q0 1-1 1c-1 0-1-.4-1-1q0-1 1-1t1 1m11.7 7v6H164v-5.7q-.2-3-2.8-3.1-3.3 0-3.5 4v4.8h-1.5v-10h1.5v1.7q1.2-2 3.8-2c2.4 0 4 1.8 4 4.3m10.6.6c0-2.2-1.7-3.5-3.5-3.5-2 0-3.7 1.3-3.7 3.5 0 2 1.6 3.5 3.7 3.5 1.8 0 3.5-1.4 3.5-3.5m1.5 4.6c0 3-2 4.6-5 4.6q-3.7-.1-5-2.5l1.4-1q.9 2.1 3.6 2.1c2 0 3.5-1.3 3.5-3.4v-1.2q-1.2 1.6-3.8 1.6c-2.6 0-4.9-2-4.9-4.8 0-2.9 2.3-4.8 5-4.8q2.4 0 3.7 1.6v-1.4h1.5zM191.4 31l-3 6.7h6zm5 11.6-1.4-3.4h-7.2l-1.5 3.4h-1.7l6-13.6h1.5l6.1 13.6zm3.4-14.6h1.5v14.6h-1.5zm4.3 0h1.5v14.6h-1.5zm8 18h-1.7l1.7-3.5-4.5-9.9h1.7l3.6 8 3.6-8h1.8M51.8 4.7H33.6L43.8-9.2l11-15a4 4 0 0 0-3-6.2H26a3.7 3.7 0 1 0 0 7.4h18.2L34-9.2l-11 15a4 4 0 0 0 3 6.2h25.8a3.7 3.7 0 1 0 0-7.3m162.8 0h-16.2V-27a4 4 0 0 0-7.8 0V8.4c0 2 1.6 3.6 3.6 3.6h20.4a3.7 3.7 0 1 0 0-7.3m-37 0H161V-6h11a3.7 3.7 0 0 0 0-7.3h-11V-23h16.4a3.7 3.7 0 0 0 0-7.4H157c-2 0-3.6 1.7-3.6 3.7v35c0 2.1 1.6 3.7 3.6 3.7h20.6a3.7 3.7 0 1 0 0-7.3M131.2-6.4 126-.3l9.7 11.5a4 4 0 1 0 6-5zm10.5-18a4 4 0 1 0-6-5.1L126-18l5.2 6zm-30-5.1a4 4 0 1 0-6 5l12.9 15.3-13 15.3a4 4 0 1 0 6.1 5.1l17.1-20.4zm-15.1-.8a4 4 0 0 0-5.5 1L84-18.4l-4 5.9-3.9-5.9-7.2-10.7a4 4 0 1 0-6.5 4.4L76-4.3v13a4 4 0 0 0 7.9 0v-13l13.8-20.5a4 4 0 0 0-1.1-5.5"/></svg>