<svg xmlns="http://www.w3.org/2000/svg" viewBox="0 0 229.155 229.155"><g fill="#66ba68"><path d="M148.065 138.327c-.032 1.246.27 4.724 2.071 6.618 1.745 1.834 5.175 2.219 7.744 2.219h37.848c9.427-.129 9.427-7.21 9.427-9.54V82.059l-48.106-.019h-.054c-1.326 0-4.822.387-6.732 2.238-1.435 1.39-2.163 3.899-2.163 7.457zm47.626 32.837H157.88c-13.425 0-21.261-5.459-25.47-10.039-8.398-9.134-8.46-20.936-8.31-24.085V91.735c0-13.089 5.34-20.836 9.817-25.032 9.18-8.598 21.198-8.743 24.115-8.644h47.123V17.268h24v120.356c0 12.32-5.06 19.868-9.306 24.032-9.212 9.035-21.662 9.508-24.158 9.508M72.244 146.99c1.26-.016 4.873-.362 6.824-2.25 1.445-1.4 2.177-3.92 2.177-7.495l.034-46.699c.033-1.252-.27-4.75-2.084-6.656-1.755-1.845-5.2-2.233-7.781-2.233h-37.94C24 81.787 24 88.906 24 91.25v55.723zM24 211.887H0V91.249c0-12.34 5.067-19.9 9.318-24.069 9.412-9.232 22.163-9.545 24.335-9.523h37.76c13.446 0 21.294 5.467 25.51 10.054 8.41 9.149 8.472 20.97 8.322 24.122v45.412c0 13.109-5.347 20.868-9.831 25.07-9.191 8.608-21.219 8.756-24.153 8.657H24v40.915"/></g></svg>