<svg xmlns="http://www.w3.org/2000/svg" viewBox="0 0 32 32"><circle cx="16" cy="16" r="15" fill="#fff"/><path d="M16 0A16 16 0 0 0 0 16a16 16 0 0 0 16 16 16 16 0 0 0 16-16A16 16 0 0 0 16 0zm0 6.156c1.016 0 2.032.49 2.598 1.469l6.927 12c1.131 1.958-.336 4.5-2.597 4.5H9.072c-2.261 0-3.728-2.542-2.597-4.5l6.927-12c.566-.979 1.582-1.469 2.598-1.469zm0 1.938c-.33 0-.66.177-.865.531l-6.93 12c-.409.708.049 1.5.867 1.5h13.856c.818 0 1.276-.792.867-1.5l-6.93-12c-.204-.354-.534-.531-.865-.531zm0 4.031a1 1 0 0 1 1 1v2a1 1 0 0 1-1 1 1 1 0 0 1-1-1v-2a1 1 0 0 1 1-1zm0 6h.01a1 1 0 0 1 1 1 1 1 0 0 1-1 1H16a1 1 0 0 1-1-1 1 1 0 0 1 1-1z" fill="#d97706"/></svg>
