<?xml version="1.0" encoding="UTF-8" standalone="no"?>
<svg
    xmlns:dc="http://purl.org/dc/elements/1.1/"
    xmlns:cc="http://creativecommons.org/ns#"
    xmlns:rdf="http://www.w3.org/1999/02/22-rdf-syntax-ns#"
    xmlns="http://www.w3.org/2000/svg"
    version="1.1"
    id="svg2"
    viewBox="0 0 146.47219 146.23581"
    stroke="#2c2c2c">
  <defs
     id="defs4" />
  <metadata
     id="metadata7">
    <rdf:RDF>
      <cc:Work
         rdf:about="">
        <dc:format>image/svg+xml</dc:format>
        <dc:type
           rdf:resource="http://purl.org/dc/dcmitype/StillImage" />
        <dc:title></dc:title>
      </cc:Work>
    </rdf:RDF>
  </metadata>
  <g
     transform="translate(-310.19216,-103.4594)"
     id="layer1" />
  <rect
     ry="8.9952965"
     y="2.8232944"
     x="2.8232944"
     height="140.58922"
     width="140.82561"
     id="rect4136-2-3-3"
     style="opacity:1;fill:#fdfdfd;fill-opacity:1;stroke-width:5.6465888;stroke-linecap:round;stroke-linejoin:round;stroke-miterlimit:2;stroke-dasharray:none;stroke-opacity:1" />
  <path
     style="opacity:1;fill:#3a3a3a;fill-opacity:1;stroke-width:1.91520727;stroke-linecap:round;stroke-linejoin:round;stroke-miterlimit:4;stroke-dasharray:none;stroke-opacity:1"
     d="m 73.03267,18.093578 c -1.306804,0.03207 -2.603151,0.580155 -3.473297,1.586156 L 54.480938,37.112419 c -1.485052,1.716916 -1.149852,4.097672 0.751547,5.337787 l 0.273654,0.178354 c 1.901399,1.240116 4.627658,0.856424 6.112709,-0.860503 l 6.812842,-7.876874 v 20.418744 c 0,0.200981 0.0096,0.399166 0.02624,0.594402 A 20.581787,20.360481 0 0 0 54.733372,65.240809 L 35.497337,58.534777 46.471378,54.181185 c 2.110089,-0.837098 3.369683,-3.285164 2.824596,-5.48881 l -0.07843,-0.317169 C 48.672457,46.17156 46.534627,45.071311 44.424538,45.90841 l -21.424513,8.49968 c -1.326081,0.526078 -2.315361,1.688667 -2.732905,3.026689 -0.0029,0.0067 -0.0067,0.01379 -0.0086,0.02088 -0.495904,1.30282 -0.439837,2.818985 0.2679,4.048654 l 11.497611,19.976439 c 1.132365,1.967473 3.490894,2.434688 5.2878,1.047494 l 0.258554,-0.199574 c 1.796904,-1.387194 2.331965,-4.087703 1.199588,-6.055176 l -5.195381,-9.026129 18.785463,6.548885 a 20.581787,20.360481 0 0 0 -0.03448,0.971633 20.581787,20.360481 0 0 0 16.215456,19.871796 v 9.746389 a 12.452256,12.318361 0 0 0 -7.845226,11.43935 12.452256,12.318361 0 0 0 12.451961,12.3182 12.452256,12.318361 0 0 0 12.452331,-12.3182 12.452256,12.318361 0 0 0 -8.379587,-11.62634 v -9.532796 a 20.581787,20.360481 0 0 0 16.268679,-19.898399 20.581787,20.360481 0 0 0 -0.08302,-1.637953 l 20.214851,-7.144735 -5.84482,10.257377 c -1.12392,1.97231 -0.57736,4.670665 1.22548,6.05014 l 0.25927,0.198492 c 1.80285,1.379477 4.15957,0.902169 5.28349,-1.070141 l 11.41131,-20.02571 c 0.70633,-1.239502 0.75203,-2.765501 0.24166,-4.070944 -0.002,-0.0076 -0.004,-0.01436 -0.006,-0.02155 -0.4272,-1.326932 -1.41871,-2.475367 -2.73973,-2.992885 l -21.46123,-8.407683 c -2.113653,-0.828031 -4.246602,0.281334 -4.782219,2.487299 l -0.07699,0.317522 c -0.535626,2.205974 0.734674,4.648553 2.848326,5.476593 l 9.696763,3.798736 -18.916705,6.685902 A 20.581787,20.360481 0 0 0 77.266867,54.894984 c 0.01647,-0.192201 0.02518,-0.387313 0.02518,-0.585057 v -21.47091 l 7.723323,8.92904 c 1.48505,1.716927 4.21131,2.100619 6.112709,0.860503 l 0.273654,-0.178354 c 1.901399,-1.240115 2.236598,-3.620871 0.751547,-5.337787 L 77.074858,19.679734 c -0.93328,-1.078999 -2.356844,-1.630551 -3.757742,-1.584365 -0.0076,-1.82e-4 -0.01503,-9.58e-4 -0.0227,-9.58e-4 -0.08705,-0.0029 -0.174303,-0.0029 -0.261426,-3.54e-4 z m -0.125495,44.35572 A 12.452256,12.318361 0 0 1 85.359144,74.767859 12.452256,12.318361 0 0 1 72.907175,87.086051 12.452256,12.318361 0 0 1 60.454852,74.767859 12.452256,12.318361 0 0 1 72.907175,62.449298 Z"
     id="path4150" />
</svg>
