<?xml version="1.0" encoding="UTF-8" standalone="no"?>
<svg
    xmlns:dc="http://purl.org/dc/elements/1.1/"
    xmlns:cc="http://creativecommons.org/ns#"
    xmlns:rdf="http://www.w3.org/1999/02/22-rdf-syntax-ns#"
    xmlns="http://www.w3.org/2000/svg"
    stroke="#2c2c2c"
    viewBox="0 0 146.47216 146.23577"
    id="svg4787"
    version="1.1">
  <defs
     id="defs4789" />
  <metadata
     id="metadata4792">
    <rdf:RDF>
      <cc:Work
         rdf:about="">
        <dc:format>image/svg+xml</dc:format>
        <dc:type
           rdf:resource="http://purl.org/dc/dcmitype/StillImage" />
        <dc:title></dc:title>
      </cc:Work>
    </rdf:RDF>
  </metadata>
  <rect
     style="opacity:1;fill:#fdfdfd;fill-opacity:1;stroke-width:5.64658737;stroke-linecap:round;stroke-linejoin:round;stroke-miterlimit:2;stroke-dasharray:none;stroke-opacity:1"
     id="rect4136-2-3-3"
     width="140.82558"
     height="140.58919"
     x="2.8232937"
     y="2.8232937"
     ry="8.9952946" />
  <path
     id="path829"
     d="m 73.218247,20.874536 a 11.187016,11.187016 0 0 0 -11.187118,11.187122 11.187016,11.187016 0 0 0 7.6783,10.613071 V 58.182476 A 18.979685,18.979685 0 0 0 56.722045,67.464033 L 41.231274,63.033006 A 11.187016,11.187016 0 0 0 30.057743,52.246701 11.187016,11.187016 0 0 0 18.870624,63.433822 11.187016,11.187016 0 0 0 30.057743,74.620937 11.187016,11.187016 0 0 0 39.27476,69.772111 l 15.17997,4.342714 a 18.979685,18.979685 0 0 0 -0.215692,2.708886 18.979685,18.979685 0 0 0 5.086598,12.907569 l -9.060767,13.94357 a 11.187016,11.187016 0 0 0 -3.823016,-0.68784 11.187016,11.187016 0 0 0 -11.187119,11.18712 11.187016,11.187016 0 0 0 11.187119,11.18711 11.187016,11.187016 0 0 0 11.187118,-11.18711 11.187016,11.187016 0 0 0 -1.834232,-6.1311 L 64.98628,93.899055 a 18.979685,18.979685 0 0 0 8.231967,1.903872 18.979685,18.979685 0 0 0 8.571639,-2.048227 l 9.009816,13.86543 a 11.187016,11.187016 0 0 0 -2.134842,6.554 11.187016,11.187016 0 0 0 11.187118,11.18711 11.187016,11.187016 0 0 0 11.187132,-11.18711 11.187016,11.187016 0 0 0 -11.187132,-11.18712 11.187016,11.187016 0 0 0 -3.350867,0.52648 L 87.360517,89.451047 A 18.979685,18.979685 0 0 0 92.197455,76.823711 18.979685,18.979685 0 0 0 91.966478,73.96367 l 15.144312,-4.332523 a 11.187016,11.187016 0 0 0 9.30363,4.98979 11.187016,11.187016 0 0 0 11.18712,-11.187115 11.187016,11.187016 0 0 0 -11.18712,-11.187121 11.187016,11.187016 0 0 0 -11.15824,10.616471 L 89.627832,67.33326 A 18.979685,18.979685 0 0 0 76.727065,58.182476 V 42.669628 a 11.187016,11.187016 0 0 0 7.6783,-10.60797 11.187016,11.187016 0 0 0 -11.187118,-11.187122 z"
     style="opacity:1;fill-opacity:1;stroke-width:2.30346966;stroke-linejoin:round;stroke-miterlimit:4;stroke-dasharray:none;stroke-opacity:1" />
</svg>
