<svg xmlns="http://www.w3.org/2000/svg" height="32" width="32" viewBox="0 0 32.27 32.270001"><path d="M18.03 11.14l3.1 3.1-1.22 1.24-3.1-3.1zm5.67-5.66l3.1 3.1-1.23 1.24-3.1-3.1zm-.2 11.14l3.12 3.1-1.23 1.24-3.2-3.1zm5.67-5.66l3.1 3.1-1.22 1.24-3.1-3.1zM16.9 8.66l3.12-3.1 1.23 1.23-3.1 3.1zm5.48 5.48l3.1-3.1 1.24 1.22-3.1 3.1zm5.47 5.48l3.1-3.12 1.24 1.23-3.2 3.1zm-16.62-5.27l3.1-3.1 1.24 1.22-3.1 3.1zm5.47 5.47l3.12-3.1 1.22 1.22-3.1 3.1zm5.48 5.48l3.1-3.12 1.24 1.23-3.12 3.2z" fill="#fff"/><path d="M6.7 22.46l3.12 3.1L8.6 26.8l-3.12-3.12zm5.67-5.66l3.1 3.1-1.22 1.23-3.1-3.1zm-.17 11.14l3.1 3.1-1.23 1.23-3.1-3.1zm5.65-5.66l3.1 3.1-1.22 1.23-3.1-3.1zm-16.62-5.3l3.1 3.1L3.1 21.3 0 18.2zm5.67-5.66l3.1 3.1-1.23 1.23-3.1-3.1zm5.65-5.66l3.1 3.1-1.2 1.24-3.1-3.1zM18.2 0l3.12 3.1-1.23 1.23-3.2-3.1zm-6.77 3.2l3.1-3.1 1.23 1.22-3.1 3.1zM5.76 8.87l3.1-3.1L10.1 7 7 10.1zM.1 14.54l3.1-3.1 1.23 1.2-3.1 3.12zM5.56 20l3.1-3.1 1.24 1.23-3.1 3.1zm5.48 5.48l3.1-3.1 1.23 1.22-3.1 3.1zm5.46 5.48l3.12-3.1 1.23 1.2-3.1 3.12z" fill="#db202e"/></svg>
